<svg xmlns="http://www.w3.org/2000/svg" viewBox="0 0 768 768" version="1.1" preserveAspectRatio="xMidYMid meet"><path d="M 212.3 17 C 204 18.9, 196.5 25.1, 191.9 33.8 C 188.9 39.7, 184.7 44, 182.1 44 C 181.5 44, 181 44.5, 181 45 C 181 49.6, 192.3 40.6, 193.5 35.1 C 193.9 33.4, 194.5 32, 194.9 32 C 195.3 32, 196.2 30.9, 196.8 29.5 C 199.6 23.5, 216.7 16.2, 218.3 20.4 C 219.3 22.9, 217.3 27, 212.4 32.2 C 206.2 38.8, 206.9 38.9, 215.3 32.5 C 219.2 29.5, 223 27.2, 223.7 27.4 C 224.4 27.7, 225.2 27.5, 225.5 27 C 226.5 25.4, 227.7 25.9, 228.5 28.3 L 229.3 30.5 229.7 28.1 C 230.4 24.5, 228.6 23.4, 224.8 25.3 L 221.5 26.9 220.9 22.4 C 220.2 16.3, 218.8 15.4, 212.3 17 M 151.7 23.3 C 149.8 24.8, 148.8 26.7, 148.4 29.5 L 147.9 33.5 149.7 29.5 C 150.7 27.3, 151.9 24.9, 152.3 24.2 C 153.5 22.4, 157.8 22.7, 158.4 24.8 C 158.8 25.7, 159.8 27.5, 160.8 28.8 L 162.6 31.2 166.1 29.2 C 171.9 25.8, 180.6 29, 178.2 33.7 C 177.7 34.7, 177 37.5, 176.6 40 L 176 44.5 177.5 41.3 C 181.6 32.4, 179.7 26, 173 26 C 170.8 26, 170.2 25.6, 170.6 24.5 C 171.7 21.7, 168.2 22.9, 166.3 26 C 164.4 29.3, 163 29.4, 161.5 26.3 C 158.5 20.5, 156.1 19.7, 151.7 23.3 M 257.2 23.9 C 253.6 24.9, 248.6 29.4, 246.5 33.6 C 242.6 41.2, 241.9 41.6, 239.8 36.8 C 236.4 29.1, 230.3 28.9, 227.7 36.3 C 226.9 38.5, 227.2 38.4, 230 36 C 235.2 31.5, 238.7 34.9, 235.2 41.1 C 232.2 46.3, 232.4 46.7, 236.4 43.6 C 238.4 42.1, 240.1 41.4, 240.5 42 C 241.2 43.1, 248 36.7, 248 34.8 C 248.1 31.7, 255.1 26, 258.7 26 C 260.6 26, 261 26.5, 261 29.1 C 261 31.1, 261.4 32, 262.3 31.8 C 264.2 31.1, 264.3 26.5, 262.5 24.6 C 260.7 22.9, 260.7 22.9, 257.2 23.9 M 266 26.5 C 266 28.6, 266.5 29, 269 29 C 274.3 29, 274.3 38.5, 268.9 49.2 C 265.3 56.4, 265.3 56.3, 269.6 54.5 C 271.6 53.7, 273.9 53, 274.6 53 C 276.9 53, 276.3 59.3, 273.5 63.4 C 270.3 68.1, 270.3 68, 274.6 67.3 C 278.7 66.6, 280 67.8, 280 72.6 C 280 80.5, 276.8 84.8, 267.6 89.1 C 258.7 93.4, 258.5 93.6, 258.7 95.8 C 258.9 97.4, 258 97.9, 253.2 98.8 C 241.4 101.1, 238.9 101.9, 246.5 101.2 C 250.4 100.8, 258.2 100.6, 264 100.6 C 270.5 100.7, 273.2 100.5, 271 100 C 267 99.2, 260 96.4, 260 95.6 C 260 95.3, 262.1 94.1, 264.8 93 C 278.9 86.8, 283 82.4, 283 73 C 283 68.3, 281 65, 278 65 C 277.1 65, 277 64.2, 277.6 61.8 C 278.6 57.8, 278.7 50.4, 277.8 49.5 C 277.4 49.1, 275.7 49.8, 274.1 51 C 270.5 53.5, 270.5 53.4, 272.5 48.7 C 274.6 43.7, 275.9 34, 274.9 31.2 C 273.9 28.6, 269.1 24.1, 267.3 24 C 266.6 24, 266 25.1, 266 26.5 M 251 51.3 C 254.9 53.3, 254.9 57.5, 250.9 61.6 C 247.6 65, 247.6 65, 250.1 65 C 251.5 65, 253.1 65.9, 253.8 67.1 C 257.7 73.3, 248.3 83.2, 233.9 87.9 L 227.5 90.1 232.9 89.6 C 247 88.2, 260.9 73.7, 255.2 66.1 C 253.1 63.2, 253.1 63.2, 255.1 61.5 C 259.3 57.6, 255.9 49.9, 249.8 50 C 249.1 50, 249.6 50.6, 251 51.3 M 182.8 52.3 C 179 53.8, 178.1 56.3, 181.8 55.3 C 187 53.8, 196.8 54.4, 198.7 56.2 C 201.3 58.8, 199.7 59.5, 189.7 59.8 C 176.9 60.3, 176.1 62, 188.6 62 C 199.7 62, 202.4 61, 201.8 56.9 C 201.2 52.2, 190 49.4, 182.8 52.3 M 58.2 65.9 C 57.4 66.3, 56.9 67.6, 57 68.6 C 57.6 74.2, 57 77.3, 55.5 76 C 53.5 74.3, 47.9 75.7, 47.3 78.1 C 47 79.1, 45.7 80, 44.2 80.2 C 40.5 80.6, 39.4 83, 40.8 87.7 C 42.5 93.1, 43 93.6, 47.3 94.3 L 51.2 94.9 46.6 90.6 C 41.7 86, 41.2 84.9, 43.4 83.1 C 45.1 81.6, 48.3 83, 49.9 85.8 C 51.2 88.2, 52.4 86.6, 51.1 84.2 C 47.6 77.7, 55 76.2, 60.1 82.3 C 62.3 85, 62.5 84.1, 60.5 79.3 C 59.7 77.4, 59 74, 59 71.9 C 59 68.4, 59.3 68, 61.6 68 C 64.8 68, 68.5 75.6, 69.6 84.4 L 70.3 90.3 71.6 87 C 72.4 85.2, 73 82.9, 73 81.9 C 73 80.8, 73.5 80, 74.1 80 C 74.6 80, 74.9 79.6, 74.6 79.1 C 74.3 78.7, 74.7 77.4, 75.5 76.4 C 77.2 74.2, 77.5 71, 76 71 C 75.5 71, 74.2 72.6, 73.2 74.6 L 71.4 78.2 69.5 73.5 C 66.7 66, 62.4 63.2, 58.2 65.9 M 222.5 71.9 C 214.6 74.6, 204.4 81.9, 207.3 82.9 C 207.9 83.1, 209.1 82.4, 209.9 81.4 C 214 76.5, 231.1 71.1, 229.8 75.2 C 229.1 77.2, 223.7 79.8, 220.3 79.9 C 216.1 80, 215.9 82, 220.1 82 C 225.5 82, 231.9 77.6, 232 73.9 C 232 71.2, 227.3 70.2, 222.5 71.9 M 293.1 75.5 C 293 76.6, 292.3 78.6, 291.4 79.8 C 290 81.9, 290 82, 291.9 82 C 298.7 82, 290.1 94.7, 280 99.6 C 276.6 101.3, 276.2 101.8, 276.7 104.3 C 277.1 106.4, 276.7 107.7, 275 109.5 C 272.1 112.6, 273.1 113.8, 276.6 111.5 C 280.3 109.1, 282.6 111.3, 279 114 L 276.6 115.8 279.5 116.2 L 282.5 116.5 277.6 121.8 C 274.9 124.7, 273.1 127.4, 273.5 127.8 C 273.9 128.2, 274.5 127.9, 274.7 127.2 C 275 126.5, 277.1 124.6, 279.6 123 C 283.7 120.1, 283.9 119.7, 283.8 115.2 C 283.8 111.8, 283.1 109.7, 281.3 107.6 C 278.4 104.1, 278.7 103, 283 100.8 C 293.3 95.5, 297.6 87.2, 294.6 78 C 293.8 75.5, 293.1 74.4, 293.1 75.5 M 95.7 92.1 C 94.8 92.6, 93.5 92.8, 93 92.5 C 92.4 92.1, 92 93.1, 92 94.7 C 92 96.2, 91.4 99.3, 90.6 101.5 C 89.8 103.7, 88.9 107.1, 88.6 109 C 87.6 114.1, 89.8 110.5, 93 101.5 C 95.3 95.2, 95.9 94.5, 98.5 94.2 C 102 93.8, 104 96, 104 100.4 C 104.1 103.2, 104.2 103.3, 105.4 101.7 C 109.2 96.8, 101.2 88.8, 95.7 92.1 M 131 102.6 L 131 107.2 135.3 106.6 C 142.8 105.5, 143.8 109.2, 137.6 114.9 C 136.2 116.3, 135 117.7, 135 118.2 C 135 119.6, 137.7 119.1, 139 117.5 C 139.7 116.7, 141.5 116, 143.1 116 C 146.6 116, 147.8 119.4, 146.2 124.6 C 145.4 127.4, 145.5 128, 146.6 128 C 150.5 128, 150.3 117.2, 146.4 114.1 C 144.9 112.9, 144 111.2, 144 109.5 C 144 103.4, 140.8 101.9, 133.6 104.6 C 132.8 104.9, 132.5 104, 132.8 101.5 C 133.1 99.4, 132.8 98, 132.1 98 C 131.5 98, 131 99.9, 131 102.6 M 29.5 108 C 27.8 110.7, 31.9 122.8, 34.8 123.8 C 36.6 124.4, 36.2 121.9, 34 118.2 C 29.5 110.9, 32.3 107.8, 39.2 112.5 C 45.6 116.9, 46.2 114.6, 39.9 110 C 35.7 107, 30.7 106.1, 29.5 108 M 245.9 118.1 C 244.7 118.8, 244.8 119, 246.2 119 C 248.2 119, 249.4 122.3, 248.6 125.5 C 247.7 128.9, 241.7 130.4, 232.8 129.5 L 226 128.8 226 133.8 C 226 142, 221.1 144.8, 217 139 C 214 134.8, 212.9 135.3, 213.7 140.5 C 214.2 144.6, 214.1 145, 211.6 146.2 C 208.3 147.6, 207.3 146.6, 206.4 140.8 C 205.7 136.5, 204 136.7, 204 140.9 C 204 142.8, 203.4 143.9, 202.3 144.3 C 201.3 144.5, 199.7 145.1, 198.8 145.5 C 197.4 146, 197 145.7, 197 144 C 197 142.9, 196.6 142.2, 196 142.5 C 195.5 142.8, 195 144.4, 195 146 C 195 148.9, 193.1 150.4, 190.6 149.4 C 189.5 149, 189.3 147.5, 189.7 142.9 C 190.1 138.8, 189.9 137, 189.1 137 C 188.5 137, 188 137.6, 188 138.3 C 188 139.1, 187.2 140.4, 186.1 141.4 C 183.9 143.4, 179 142, 179 139.3 C 179 138.1, 178.7 137.9, 177.9 138.7 C 176.5 140.1, 177.7 145.9, 179.5 146.6 C 180.2 146.9, 182.4 146.4, 184.4 145.6 C 187.7 144.2, 188 144.2, 188 145.8 C 188 146.7, 188.3 149.2, 188.6 151.3 C 189.2 154.7, 189.1 155, 186.9 155 C 185.6 155, 183.1 153.6, 181.3 152 C 179.5 150.3, 177.6 149, 176.9 149 C 176.3 149, 175.1 148.2, 174.3 147.3 C 173 145.6, 172.9 145.7, 173.3 147.8 C 173.9 150.4, 173.5 150.4, 168.4 148.6 C 163.5 146.9, 139 145.3, 140.5 146.8 C 141.1 147.4, 145.8 148.4, 151 149 C 171.7 151.4, 185.1 156, 183.5 160.2 C 182.9 161.7, 182.3 161.7, 178.3 160.5 C 174.8 159.4, 172.4 159.4, 167.9 160.2 C 161.5 161.3, 160.4 162.4, 164.8 163.5 C 171.6 165.2, 173.4 170.6, 166.8 169.5 C 164.4 169.1, 162.1 168.7, 161.5 168.6 C 161 168.6, 160.4 170.3, 160.2 172.5 C 160 174.7, 159.2 177.3, 158.3 178.2 C 155.1 181.7, 143 181.3, 143 177.6 C 143 176.9, 142.3 175.7, 141.5 175 C 140.2 173.9, 140 174.2, 140 176.3 C 140 180.7, 139 182, 135.7 182 C 133.3 182, 132.9 182.3, 133.8 183.2 C 134.7 184.1, 135.8 184.1, 138.5 183.1 C 140.8 182.3, 144.2 182.1, 148.9 182.6 C 155.7 183.2, 155.8 183.2, 159.4 180 C 163 176.7, 164.2 172.6, 161.8 171.7 C 161.1 171.5, 160.8 170.9, 161.2 170.5 C 162.2 169.4, 170.9 173.3, 171.3 175 C 172 178.7, 167.2 203, 165.8 203 C 164.6 203, 161.1 194.6, 160.4 189.9 C 159.8 186.2, 157.6 183.1, 156.4 184.3 C 156.1 184.6, 156.4 185.7, 157.1 186.9 C 158.7 189.4, 155.1 194, 151.6 194 C 145.8 194.1, 145 194.9, 145 200.9 C 145 208.5, 144 209.8, 141.2 206 C 138.4 202.3, 136.8 202.2, 137.1 205.8 C 137.5 211.4, 137.2 212, 133.5 212 C 130.5 212, 129.7 211.4, 127.5 208 C 126.1 205.8, 125 203.5, 125 202.8 C 125 202, 124.7 201.9, 123.9 202.7 C 123.2 203.4, 123.7 205.3, 125.8 209.1 C 128.5 214.1, 129 214.5, 132.7 214.8 C 137.2 215.1, 140 213.2, 140 209.9 C 140 207.6, 141.8 207.4, 142.6 209.5 C 144.4 214, 148 208.6, 148 201.5 C 148 197.1, 148 197, 152 196.4 C 154.4 196, 156.7 194.9, 157.5 193.8 C 158.8 191.8, 158.8 191.8, 159.9 193.8 C 160.5 195, 161 196.7, 161 197.6 C 161 199.9, 166.7 211.5, 168.5 213 C 171.8 215.8, 174.3 210, 176 195.9 C 177.6 181.9, 178.8 176.8, 180.9 174.9 C 183.2 172.7, 184.7 172.5, 185.2 174.2 C 185.9 176.1, 191 174.2, 193.9 170.9 C 195.3 169.3, 197.2 168, 198.1 168 C 199 168, 200.3 167.4, 200.9 166.6 C 201.8 165.5, 201.3 165.1, 198.3 164.6 C 194.7 164, 184.3 157, 187 157 C 187.8 157, 189.1 157.6, 189.9 158.4 C 190.8 159.2, 193.4 160.1, 195.6 160.5 C 199.5 161.1, 199.9 160.9, 202.3 157.8 C 205 154.4, 205.1 152.8, 202.5 155 C 201.3 156, 200.6 155.9, 198.6 154.6 C 197.2 153.7, 195.3 153.3, 194.3 153.6 C 191.7 154.5, 196.6 150.4, 201.2 148 C 205.7 145.6, 206 145.6, 206 147.6 C 206 149, 206.8 149.2, 210.5 148.6 L 215.1 148 209.2 156.8 C 206 161.6, 202.5 167.2, 201.5 169.3 C 200.4 171.3, 199.3 173, 198.9 173 C 198.3 173, 196 177.6, 196 178.8 C 196 179.2, 196.5 178.8, 197 178 C 197.5 177.2, 198 177, 198 177.5 C 198 179.6, 196.3 181.3, 195.5 180 C 194.5 178.3, 189 187.2, 189 190.5 C 189 193.1, 190.4 193.8, 191.6 191.9 C 192 191.2, 192.5 191.1, 193.3 191.9 C 194 192.6, 193.1 194.1, 190.2 196.7 C 186.4 200.2, 184.7 204, 186.9 204 C 187.9 204, 192.8 198.4, 200.3 189 C 203.6 184.8, 205.3 183.6, 207 183.8 C 208.2 183.9, 209.8 183.6, 210.4 183.1 C 212.2 181.7, 216 180.8, 216 181.8 C 216 182.3, 215 183, 213.8 183.3 C 211.7 183.9, 211.7 184, 213.3 185.8 C 214.2 186.8, 215 188.2, 215 188.8 C 215 189.5, 215.7 190, 216.5 190 C 217.5 190, 218 189, 218 186.8 C 218.1 185, 218.7 182.4, 219.5 181 C 221.3 177.8, 221.4 176.4, 219.6 177.9 C 218.9 178.5, 217 178.7, 215.4 178.4 C 213.8 178.1, 210.5 178.5, 208.1 179.4 C 205.6 180.2, 203.3 180.7, 202.8 180.4 C 202.4 180.1, 201.7 180.7, 201.3 181.7 C 199.7 186.1, 196.8 189, 194 189 L 191.1 189 193.1 185.5 C 194.3 183.6, 195.8 182, 196.5 182 C 197.2 182, 199.3 180.3, 201.2 178.1 C 203 176, 206.8 172.6, 209.5 170.5 C 212.3 168.4, 216.6 164.7, 219.2 162.2 L 223.9 157.7 226.2 160.3 C 227.5 161.7, 230 163.3, 231.8 163.7 L 235.1 164.5 228.6 168.4 C 222.1 172.1, 220.3 173.7, 221.3 174.6 C 223.2 176.5, 245 160.6, 245 157.4 C 245 155.3, 243.6 155.7, 241 158.5 C 239.1 160.5, 237.7 161, 233.9 161 C 229.5 161, 226.1 159.1, 228.8 158.2 C 229.5 158, 229.8 157.4, 229.5 156.9 C 229 156.2, 230.4 152.1, 232.7 147.8 C 232.9 147.4, 232.4 147.3, 231.6 147.6 C 230.7 147.9, 230 148.5, 230 148.9 C 230 150.3, 223.3 156.5, 213.9 163.6 C 208.6 167.6, 203.1 172.3, 201.6 174 C 200.1 175.8, 198.7 177, 198.4 176.7 C 197.9 176.2, 200.4 172.8, 204.7 168.5 C 205.9 167.2, 206.6 165.9, 206.3 165.6 C 205.9 165.3, 206.3 165, 207.1 165 C 209.2 165, 213.3 159.2, 212.6 157.3 C 212.1 156.2, 212.4 155.9, 213.6 156.4 C 214.8 156.9, 215 156.5, 214.5 154.9 C 214 153.3, 214.1 153, 215.1 153.5 C 216 154.1, 216.2 153.8, 215.7 152.7 C 215.3 151.5, 215.6 151, 216.6 151 C 217.7 151, 218 150.4, 217.6 149.4 C 217.3 148.6, 217.4 148.2, 218 148.5 C 218.6 148.9, 219.3 148.4, 219.6 147.5 C 220 146.6, 222 145, 224.1 143.9 C 228.2 141.9, 229.6 138.9, 228.7 134.5 C 228.2 131.6, 229.6 130.2, 231.3 131.9 C 232.8 133.4, 240.1 133.3, 244.1 131.6 C 249.6 129.3, 251.6 126, 251.1 120.3 C 250.9 118.4, 247.6 117, 245.9 118.1 M 288.1 127.7 C 286.8 128, 285 128.8, 284.2 129.6 C 282.9 130.9, 283.1 131, 285.1 130.6 C 295.3 128.5, 297 128.9, 297 133.2 C 297 135.5, 295.6 137.6, 290.5 142.7 C 286.9 146.3, 284 149.8, 284 150.6 C 284 152.6, 283.8 152.7, 291.3 145.7 C 304.2 133.5, 302.7 125, 288.1 127.7 M 149.3 129.1 C 144.2 130.6, 145.4 131.3, 151.6 130.6 C 155 130.2, 156.9 130.3, 156.6 130.9 C 156.2 131.4, 156.4 132.1, 157 132.5 C 159 133.7, 155 139, 150.4 141.1 C 144.7 143.8, 144.9 143.9, 154 142.9 C 158.1 142.4, 162.6 142.2, 163.9 142.6 C 166 143.1, 166.2 142.9, 165.1 141.6 C 164.3 140.7, 162.2 140, 160.4 140 C 156.6 140, 156.3 139.3, 158.5 136.4 C 159.3 135.4, 160 133, 160 131.3 C 160 128.1, 159.8 128, 156.3 128.1 C 154.2 128.1, 151 128.6, 149.3 129.1 M 124 137.6 C 129.5 138.7, 131 140.1, 131 144.4 C 130.9 150.4, 128.6 152.8, 121.2 154.3 C 114.7 155.6, 113.9 157, 119.7 157 C 127.4 157, 132.2 153, 133.4 145.5 C 134.4 139.9, 132.6 137.9, 126.4 137.5 C 123.7 137.3, 122.6 137.3, 124 137.6 M 304 144.8 C 299.3 149.4, 297.8 152, 300 152 C 300.5 152, 301.3 151.4, 301.7 150.7 C 304.8 145.7, 310.8 142.8, 319.4 142.3 C 325.5 141.9, 328 142.1, 328 142.9 C 328 144.7, 320.9 152, 319.1 152 C 317.7 152, 317.7 152.2, 319 153 C 322.4 155.1, 312.2 162.8, 303.1 165 C 285.1 169.3, 277.4 171.4, 269.3 174.4 C 264.2 176.2, 258.4 177.3, 249.8 178 C 243 178.6, 235.6 179.7, 233.3 180.4 C 229.3 181.6, 229.1 181.6, 230 179.9 C 232.7 175, 229.7 177.5, 226.2 183.1 C 223.5 187.5, 223.3 189.5, 225.6 188.2 C 226.5 187.7, 228.1 187.5, 229 187.7 C 230 188, 232.2 187.4, 234 186.5 C 238 184.5, 239.3 185.5, 236 188 C 234.6 189, 233.9 190.2, 234.3 190.6 C 234.7 191, 236.1 190.3, 237.5 189 C 240.3 186.3, 241.1 188.2, 238.3 191.2 C 235.9 193.8, 237.4 194.5, 240.9 192.4 C 244.6 190.2, 244.6 189.7, 241.9 185.9 C 239.5 182.5, 237.3 182.3, 232 185 C 227.4 187.3, 226.8 186.5, 230.8 183.5 C 233 181.9, 235.8 181.4, 245 180.8 C 256.5 180.2, 264.7 178.8, 268.5 177.1 C 270.2 176.2, 276.6 174.2, 287.5 171 C 289.2 170.5, 292.3 169.8, 294.5 169.5 C 308.1 167.2, 317.3 162.1, 322.4 154.2 C 323.7 152.2, 326.2 149.2, 327.9 147.6 C 329.6 145.9, 331 143.6, 331 142.3 C 331 140, 330.8 140, 320 140 L 308.9 140 304 144.8 M 60.8 152.6 C 60.4 153, 59.7 155.5, 59.4 158.2 C 58.6 163.9, 55.2 169.5, 52.5 169.5 C 50.6 169.5, 47.2 164.7, 47.1 161.8 C 47 158.8, 44.2 159.8, 43.5 163 C 42.8 166.4, 43.7 172, 45 172 C 45.5 172, 45.6 170.4, 45.3 168.5 C 44.6 164.1, 46.3 163.9, 47.5 168.3 C 49.8 175.8, 60.1 170.9, 61.5 161.7 C 62.3 156.7, 61.8 151.5, 60.8 152.6 M 73.5 155.3 C 73.1 157, 72.7 161.6, 72.6 165.3 C 72.4 172.6, 71.5 174, 67.1 174 C 65 174, 64.8 173.6, 65.2 170.5 C 65.5 167.6, 65.3 167, 63.8 167 C 62.4 167, 62 167.8, 62 170.3 C 62 174.6, 63.5 176, 68.1 176 C 72.9 176, 73.9 174.5, 74.4 167.4 C 74.6 164.2, 75.1 159.4, 75.5 156.8 C 76.4 151.3, 74.7 150, 73.5 155.3 M 20 176.8 C 20 178.7, 23.7 181, 26.9 181 C 28.3 181, 28.9 182, 29.4 185.2 C 30.5 192.2, 36.5 195.7, 40 191.5 C 40.7 190.7, 42.3 190, 43.6 190 C 46.8 190, 46.7 188.4, 43.5 187.6 C 41.5 187.1, 41 186.3, 41 183.9 C 41 179.9, 39.5 180.9, 39.2 185.2 C 38.9 189.1, 36.8 191.5, 34.6 190.7 C 32.8 190, 32.6 189.6, 31 183.4 C 30.1 179.7, 29.6 179.1, 26.5 178.6 C 24.6 178.2, 22.4 177.2, 21.5 176.4 C 20.2 175, 20 175.1, 20 176.8 M 129.9 186.7 C 129.8 187.1, 129.8 188.3, 129.9 189.2 C 130.2 192.1, 128.1 195, 125.6 195 C 123.2 195, 119 192, 119 190.3 C 119 189.7, 118.3 188.7, 117.5 188 C 115.4 186.3, 115.5 188.1, 117.8 192.8 C 120 197.3, 119.6 199.8, 116.5 200.6 C 113.2 201.4, 112.4 200.6, 111.6 195.8 C 110.9 191.5, 110.9 191.5, 109.5 194 C 108.7 195.4, 107.8 198.2, 107.5 200.3 L 106.8 204.2 104.4 201.9 C 103.1 200.7, 101.7 200, 101.3 200.4 C 100.8 200.8, 101.3 201.7, 102.3 202.4 C 105 204.4, 104.5 208.8, 101.6 209.6 C 98.1 210.4, 96.5 209.2, 98.3 207.2 C 101.4 203.6, 101.2 202.9, 97.6 204.7 C 92.8 207, 87.3 204.7, 86.4 200 C 86 198.4, 85.1 196.5, 84.2 195.8 C 82.9 194.7, 82.8 195.2, 83.4 200.3 C 84.4 208.4, 80 215, 73.5 215 C 72 215, 65.3 208.7, 63.5 205.7 C 62.6 204.1, 62.3 204.1, 59.6 205.5 C 56.8 207, 56.5 207, 54.6 204.5 C 51 200.1, 44 204.8, 45.4 210.6 C 46 212.9, 45.8 213, 41.2 213 C 33.3 213, 32.1 215.2, 36.5 222 C 40 227.5, 42.6 229.7, 43.8 228.5 C 44.2 228.2, 43.7 227.4, 42.7 226.9 C 40.3 225.5, 40.6 223.6, 43.5 222 C 47.7 219.8, 50.6 224.6, 46.6 227.2 C 44.9 228.4, 48.8 229.3, 51.8 228.4 C 54.3 227.7, 54.4 227.6, 52.3 227.3 C 50.7 227, 50 226.2, 50 224.5 C 50 221.6, 47.3 218.7, 45.3 219.4 C 41.1 221.1, 38.7 221.2, 37.9 219.9 C 36.4 217.5, 36.9 216, 39.4 216 C 46.2 216, 47.8 215, 47.3 211.1 C 46.9 208.3, 47.3 207.1, 48.9 205.6 C 50.9 203.8, 51 203.8, 55 208.1 C 58.9 212.3, 59 212.3, 59 209.8 C 59 206, 61 205.2, 62.9 208.1 C 69.1 217.8, 76.6 219.9, 82.4 213.6 C 84.9 210.9, 85.9 210.3, 87.3 211.1 C 89.5 212.4, 89.5 211.2, 87.3 208.8 C 85.5 206.8, 86.3 204.9, 88.2 206.8 C 88.9 207.5, 90 208, 90.8 208 C 91.6 208, 93.3 209.1, 94.6 210.5 C 98 214.2, 101.9 213.8, 105.8 209.4 C 107.6 207.4, 109 204.7, 109 203.4 C 109 201, 110.4 200.2, 111.5 202 C 112.4 203.4, 118.3 203.3, 119.8 201.8 C 120.5 201.1, 121 199.8, 121 198.8 C 121 197.2, 121.5 197, 124.4 197.5 C 127.3 198.1, 128.2 197.7, 131.2 194.7 L 134.6 191.3 132.3 188.6 C 131 187.1, 129.9 186.3, 129.9 186.7 M 155 197.4 C 155 197.6, 157.1 203.3, 159.6 210 C 164 221.7, 164.2 222.5, 163.2 227.4 C 162.6 230.2, 161.8 234.5, 161.5 237 C 161.1 239.5, 160.2 244.7, 159.4 248.7 C 158.6 252.7, 158 257.6, 157.9 259.7 C 157.9 261.8, 157.3 265.3, 156.6 267.5 L 155.4 271.5 148.7 264.5 C 145 260.7, 142 258, 142 258.5 C 142.1 259.1, 145 262.6, 148.6 266.5 C 155.7 274.1, 156.5 276, 155.6 282.6 C 154.9 287.9, 155.2 288, 157.8 283.8 C 159.4 281.1, 160 277.9, 160.5 267 C 160.9 259.6, 161.7 253.2, 162.3 252.9 C 162.8 252.5, 164.8 252.7, 166.7 253.2 C 170.9 254.3, 171.3 254, 170.4 250.5 C 169.8 248, 169.6 247.9, 168.5 249.3 C 167.8 250.3, 166.3 251, 165.1 251 C 162.5 251, 162.4 249.6, 164.7 233.2 C 166.1 222.8, 166.2 220.4, 165 217.2 C 162 208.7, 155 194.9, 155 197.4 M 255 204 C 255 204.6, 256.1 205, 257.5 205 C 258.9 205, 260 205.4, 260 205.8 C 260 207.2, 257.7 209, 255.8 209 C 253.5 209, 253.5 209.9, 255.8 211.6 C 257.4 212.8, 257.3 212.9, 255.3 213 C 254 213, 253 213.5, 253 214 C 253 214.6, 253.7 215, 254.6 215 C 257.1 215, 259.5 217.9, 258.1 219.3 C 257.3 220.1, 257 220.1, 257 219.2 C 257 218.5, 256.5 218, 255.9 218 C 255.3 218, 255 218.6, 255.3 219.4 C 255.6 220.2, 254.9 222.1, 253.8 223.5 C 252.4 225.3, 252.1 226.4, 252.8 226.9 C 253.6 227.4, 253.5 228.8, 252.4 232 C 248.8 242.6, 245.9 248.3, 236.4 262.5 C 229.8 272.5, 226 279.4, 226 281.6 C 226 283.7, 254.7 280.1, 268.5 276.3 C 269.8 276, 270.2 276.1, 269.5 276.8 C 268 278.3, 251.1 283.5, 239.5 286.1 C 223.6 289.6, 214.8 295.2, 206.5 306.9 C 200.8 314.9, 194 327.5, 194 330.1 C 194 330.9, 193.4 332.4, 192.6 333.5 C 190.7 336.3, 189.5 340.4, 190.8 339.6 C 192.7 338.5, 194 342.6, 194 349.7 C 194 364.4, 197.1 380.8, 199.8 380.3 C 200.5 380.1, 201 380.3, 201 380.8 C 201 381.2, 201.2 390.5, 201.4 401.5 C 201.6 419.7, 202.8 431.1, 206 448.5 C 206.5 451.3, 206.9 454, 206.9 454.5 C 207 455.1, 202.9 455.5, 196.7 455.5 C 179.5 455.6, 175.7 458.7, 177.8 471.1 C 178.5 474.9, 179 481.9, 179 486.5 C 179 493.7, 179.3 495, 180.6 495 C 181.9 495, 182.1 494.3, 181.6 491.8 C 181.3 490, 180.8 482.9, 180.5 476 C 179.9 461.8, 180.3 460.4, 186.2 459.1 C 192.6 457.6, 260.2 458, 272 459.5 C 278.8 460.4, 280.8 460.8, 277.5 460.8 C 201.4 460.7, 187.9 461, 188.8 462.8 C 192.2 469.2, 191 473, 185.7 473 L 183.5 473 183.5 506.3 C 183.5 524.5, 183.9 542.8, 184.4 546.8 C 185.1 552.8, 185.1 554, 183.8 554 C 182.7 554, 182.1 551.1, 181.2 540.8 C 180.5 533.5, 179.3 520.8, 178.5 512.5 C 175.6 484.7, 175.1 477.6, 174 452 C 173 427.7, 172.5 422.8, 170 408.1 C 168.4 398.7, 164 391.2, 154.6 381.8 C 150 377.2, 133.4 366, 131.2 366 C 130.8 366, 129.2 365, 127.5 363.9 L 124.5 361.8 127.4 362.5 C 130 363, 130.2 362.9, 129.1 361.6 C 127.1 359.2, 129.5 359.6, 135.5 362.5 C 138.3 363.9, 141.1 365, 141.8 365 C 145 365, 149.2 369.2, 148.5 371.7 C 148 373.9, 148.1 374, 150 373 C 151.1 372.4, 152 371.5, 152 370.9 C 152 369.8, 155.4 370.5, 163.3 373.2 C 166.5 374.4, 169.3 375, 169.7 374.6 C 171.4 372.9, 164.9 335.8, 161.5 328.5 C 160.7 326.8, 159.5 323.2, 158.8 320.5 C 157.4 314.6, 157.1 314.2, 156.2 315.7 C 154.1 319, 134.8 294.5, 127.2 279.2 C 120.2 265.2, 106.5 246.2, 95.6 235.9 C 91 231.4, 89 228.8, 89.5 228 C 90 227.2, 89.9 226.9, 89.3 227.3 C 88.3 227.9, 85 220.9, 85 218.2 C 85 217.5, 84.5 217, 83.9 217 C 83.1 217, 82.9 218.6, 83.3 221.9 C 83.7 225.3, 83.5 227, 82.7 227.4 C 82 227.7, 82.1 227.9, 83.1 227.9 C 83.9 228, 88.4 232.1, 93 237.1 C 101.9 246.8, 102.6 247.7, 110.9 259.7 C 113.9 264, 117.6 269, 119.1 270.8 C 120.7 272.5, 123.1 276.5, 124.5 279.6 C 125.9 282.7, 128.8 287.7, 130.9 290.8 C 133 294, 136.8 299.5, 139.3 303.2 C 141.8 306.9, 144.4 311.5, 145.1 313.4 C 146.1 316.3, 146.8 316.8, 148.5 316.4 C 154.4 314.9, 161.6 334.1, 165.3 361.3 C 166.7 371.6, 166.4 372.3, 162.2 370.1 C 161.3 369.5, 157.1 368.1, 153 367 C 141.1 363.6, 139.1 362.8, 121 353.9 C 112.5 349.8, 104 349, 97.3 351.6 C 90 354.5, 71.1 354.2, 65.3 351.2 C 60.7 348.8, 59.6 349.7, 63.1 352.8 C 65.1 354.7, 71 356, 77.6 356 C 79.5 356, 81 356.5, 81 357 C 81 358.4, 92.4 358.3, 97 356.9 C 100.5 355.8, 101.4 356, 107.7 359 C 111.4 360.7, 115.4 362.6, 116.5 363 C 140.3 373, 156 385.1, 163.7 399.6 C 167.9 407.6, 170 422, 170.6 447.5 C 170.8 458.5, 171.5 471.8, 172 477 C 173.9 496, 175.2 511.9, 176.5 532.5 L 177.8 553.5 175.3 556.5 C 172.9 559.3, 172.8 559.9, 173.4 567 C 174.1 575, 175.8 581, 177.3 581 C 177.8 581, 177.9 580, 177.5 578.8 C 176.2 574.4, 175.7 560, 176.9 560 C 177.5 560, 178 559.3, 178 558.5 C 178 557.4, 179.2 557, 182.5 557 C 185 557, 187 557.5, 187 558 C 187 558.6, 185.9 559, 184.6 559 C 181.3 559, 180.8 560.9, 180.4 572.5 C 180.1 580.3, 179.7 582.6, 178.6 582.8 C 177.8 583, 177.4 583.8, 177.7 584.6 C 178.1 585.7, 180.8 586, 190.9 586 C 197.8 586, 207.7 586.5, 212.8 587.2 C 221.8 588.4, 222 588.5, 222 591.1 C 222 594.9, 225.6 604.8, 229 610.3 C 230.7 613, 232 615.3, 232 615.4 C 232 615.7, 233.7 615.6, 210.3 616.6 C 183.1 617.6, 185.4 619.3, 213.4 618.9 C 230.5 618.6, 236.2 618.8, 237.1 619.8 C 238.2 620.8, 233.6 621, 214.3 621 C 199.2 621, 189.9 621.4, 189.5 622 C 189.1 622.7, 197.4 623, 213.7 623.1 C 231.9 623.1, 239.4 623.5, 242 624.5 C 245.3 625.8, 244.8 625.9, 234 626 C 226.5 626, 223 626.4, 224.1 627 C 227.3 628.8, 272.4 627.4, 286.5 625 C 298.9 622.9, 302.1 622.8, 358 622.8 C 392.6 622.9, 419.4 623.3, 423.5 623.9 C 430 624.8, 483.7 624.6, 484.7 623.6 C 485.7 622.7, 456.7 621.8, 444.1 622.4 C 436 622.8, 427.9 622.6, 424 622 C 420.4 621.4, 398.2 620.7, 374.5 620.4 C 350.9 620.1, 331.3 619.6, 331 619.3 C 330.7 619, 355 618.9, 385 619.1 C 447.9 619.5, 441.7 620.4, 452.8 608.5 C 459.8 600.8, 459.9 600.8, 466.3 600 C 470.4 599.5, 473.9 598.4, 475.7 597 C 479.1 594.5, 485.8 594.5, 487 597 C 488.7 600.5, 492.4 613, 491.8 613.5 C 491.5 613.8, 484.1 613.6, 475.4 613 C 465.8 612.3, 458.5 612.2, 457.1 612.8 C 454.4 613.8, 474.6 616, 487.5 616.1 L 494.5 616.1 499.1 622.3 C 501.6 625.7, 505 629.4, 506.7 630.5 C 508.4 631.6, 510.6 633, 511.6 633.7 C 513.1 634.6, 510.1 634.9, 496.6 634.9 C 484.1 635, 479.9 635.3, 480.7 636.1 C 482.5 637.9, 556.5 638.7, 563.7 637 C 570 635.4, 578.8 635.4, 647.8 636.1 C 691.1 636.5, 699.8 636.2, 691.7 634.6 C 686.6 633.5, 658.9 631.9, 656.8 632.6 C 654 633.5, 654.7 632.2, 658 630.5 C 660.1 629.4, 664.4 629, 673.7 628.9 L 686.5 628.7 678.5 627.8 C 674.1 627.3, 668.8 627.1, 666.8 627.4 C 662.3 627.9, 662.2 627.5, 665.8 624 C 673 617.1, 679 604.8, 679 596.8 L 679 592.3 691.3 591.2 C 698 590.6, 707.6 589.8, 712.5 589.4 C 725.7 588.5, 725 589.5, 725 572.6 C 725 555.8, 725.9 557, 712.6 557 L 703.4 557 703.5 521.6 C 703.5 496.5, 703.2 485.8, 702.4 485 C 701.2 483.8, 695.6 483, 675.5 481.1 C 669.5 480.5, 661.7 479.8, 658.3 479.4 C 653.1 478.9, 652 478.5, 652 477 C 652 472.6, 648.9 471, 639 470 C 624.5 468.5, 622.8 468, 623.6 466.1 C 629 453.2, 623.8 438.5, 616 444.8 C 613.8 446.6, 613.8 446.6, 615.4 455.8 C 617.3 467, 617.3 467, 615.6 467 C 614.7 467, 614.1 465.1, 613.7 461 C 613.4 457.6, 612.7 454.4, 612.2 453.7 C 611.7 453, 610.9 450.9, 610.5 449 C 609.8 445.7, 607.8 438.5, 606 433 C 605.5 431.6, 604.2 426, 603 420.5 C 599.5 404.4, 596.1 399, 589.3 399 C 587.6 399, 587 398.4, 587 396.7 C 587 389.9, 574.3 386.7, 536.6 384 C 524.4 383.1, 509.2 381.1, 498.7 379 C 492.6 377.7, 478.6 377.7, 472.3 378.9 C 462.9 380.8, 390.4 386.6, 366.6 387.5 C 365 387.5, 364.9 385.5, 366.3 383.6 C 367.3 382.3, 369.2 381.7, 373 381.5 C 375.9 381.3, 378.6 380.7, 379 380.1 C 379.4 379.4, 385.7 378.6, 395.1 378.1 C 403.6 377.6, 421.5 376, 435 374.6 C 465.3 371.3, 473.7 371.6, 502.7 376.9 C 508.9 378.1, 519 379.5, 525.2 380 C 531.4 380.6, 539 381.5, 542 382 C 550.1 383.3, 559.4 383.2, 560.8 381.8 C 562.9 379.7, 562.2 374.5, 559.5 371.8 C 557.5 369.7, 555.4 369.1, 547.3 368.2 C 532.9 366.4, 520.5 364.5, 511.5 362.5 C 507.1 361.6, 500.6 360.2, 497 359.4 C 479.5 355.6, 471.8 354.8, 469.9 356.6 C 468.8 357.6, 468 358.8, 468 359.4 C 468 360, 467.5 362.1, 467 364.1 L 466 367.6 452.8 368.8 C 445.5 369.4, 438.6 370.2, 437.5 370.5 C 435.7 371.1, 435.5 370.6, 435.5 364.8 C 435.4 353.1, 433.6 342.1, 431.6 340.8 C 431 340.4, 430.5 339.6, 430.5 339 C 430.5 338.5, 428.5 336.2, 426.1 334.1 L 421.7 330.2 422.7 324.2 C 423.5 319.1, 422.9 313.9, 421.3 312.1 C 421.1 311.8, 418.3 314.3, 415 317.5 L 409.1 323.3 405.2 322.2 C 400.4 320.7, 390.8 320.6, 389.4 322 C 388.7 322.7, 387.3 321.8, 385 319.5 C 378.6 312.8, 376.7 315.3, 377.1 330.1 C 377.2 334.9, 376.8 340.3, 376 342.7 C 374.9 346.2, 374.9 347.2, 376 348.5 C 377.1 349.9, 377 350.2, 375.2 350.7 C 372.3 351.4, 372.4 352.6, 375.5 353.4 C 379.8 354.5, 378.2 356, 372.8 356 C 366.9 356, 366.8 356.5, 372.4 357.4 C 376.5 358.1, 378.5 359, 375.9 359 C 374.9 359.1, 375.1 359.5, 376.4 360.5 C 378.2 361.9, 378 362, 373.6 362 C 370.5 362, 369.1 362.4, 369.5 363.1 C 370.8 365.2, 385.7 362.4, 387.4 359.8 C 388.2 358.4, 387.6 357.3, 384.3 354 C 379.2 348.8, 378.4 345.2, 380.9 339.5 C 382.2 336.5, 382.4 335.3, 381.6 335.6 C 379.3 336.5, 377.9 323.2, 380 320 C 380.8 318.8, 381.5 319.1, 384.3 321.8 C 387 324.4, 388.2 325, 390.3 324.5 C 392.1 324, 393.1 324.3, 393.9 325.7 C 394.8 327.2, 394.9 327.3, 395 325.9 C 395 323.5, 398.1 323.1, 402.8 324.7 C 405.8 325.7, 407.5 325.8, 408.9 325 C 411.6 323.6, 412.1 323.7, 411.8 325.6 C 411.6 326.6, 412.1 327.5, 412.8 327.7 C 413.7 328.1, 413.8 327.6, 413.1 325.7 C 412.4 323.9, 412.6 323, 413.8 321.9 C 414.8 321.1, 416.5 319.2, 417.7 317.6 C 421.8 312.5, 423.7 318.7, 420.4 326.5 C 418.5 331, 420.3 335.9, 424.5 337.8 C 425.9 338.4, 427 339.6, 427 340.4 C 427 341.1, 427.7 342.3, 428.5 343 C 429.4 343.7, 429.9 344.9, 429.6 345.7 C 429.3 346.4, 429.7 347, 430.6 347 C 431.7 347, 432 347.5, 431.5 348.8 C 430.1 352.3, 430 355, 431.2 355 C 432 355, 431.8 355.5, 430.8 356.1 C 429.8 356.6, 429 357.5, 429 358 C 429 358.5, 429.8 359.1, 430.8 359.3 C 432.1 359.7, 431.9 359.8, 430.2 359.9 C 428 360, 428 360.1, 429.5 363 C 431.4 366.7, 431.2 366.7, 425.6 362.9 C 418.6 358.2, 407.4 355.6, 413 360 C 414.5 361.1, 416.3 361.7, 417.5 361.4 C 419.1 361, 419.2 361.1, 418.1 361.9 C 416.9 362.7, 417.2 363.1, 419.6 364.2 C 421.2 364.9, 423.2 366.2, 424 367 C 424.8 367.8, 425.3 368.4, 425.1 368.3 C 424.9 368.1, 424.1 368.5, 423.5 369 C 422.6 369.8, 420.8 369.3, 417.5 367.5 C 412.3 364.8, 409.1 364.2, 410.8 366.3 C 412.1 367.9, 411.7 371.4, 410 373.5 C 408.1 375.8, 400.5 374.8, 397.3 371.8 C 394.8 369.5, 393.8 371.4, 396.3 373.9 C 397.3 374.9, 396.7 375.1, 393.5 374.8 C 389.8 374.5, 389.5 374.3, 389.2 371.1 C 388.9 368.1, 388.6 367.8, 386.3 368.3 L 383.8 368.8 386.6 366.4 L 389.5 364.1 386.8 364 C 385.2 364, 384 364.4, 384 364.8 C 384 365.3, 381.5 365.6, 378.5 365.5 C 373.1 365.4, 371.5 366.2, 374.6 367.4 C 375.5 367.7, 377.8 368, 379.8 368.1 L 383.5 368.1 378.7 369.4 C 372.4 371.1, 371.1 372.4, 373.3 374.8 C 375.5 377.2, 375.4 378, 373.2 378 C 371.6 378, 364.9 380.8, 358 384.3 C 354.6 386, 353.3 390.1, 354.7 394.3 C 355.5 396.4, 355.8 406.4, 355.8 424.2 L 355.6 450.8 353.3 451.3 C 350.3 451.9, 350 451.4, 350 446.7 C 350 439.8, 347.5 437, 341 436.9 C 338 436.8, 335.1 436.8, 334.6 436.9 C 332.5 437.3, 328.4 437.3, 327 436.9 C 325.9 436.6, 325.6 437.2, 325.8 439.1 C 325.9 440.5, 325.4 443.2, 324.5 445.1 C 323.1 448.3, 323 448.4, 322.4 446.3 C 322.1 445, 321.2 444, 320.5 444 C 319 444, 317 439.7, 317 436.4 C 317 431.5, 321 426.4, 327.2 423.5 C 330.8 421.8, 331.6 421, 330.8 420.2 C 329.9 419.3, 331.1 419.1, 336 419.6 C 339.6 420, 342.8 420.8, 343.2 421.4 C 344.7 423.5, 344 426.1, 341.8 427 C 340.5 427.5, 340 427.9, 340.5 428 C 341.1 428, 339.5 429, 337.1 430.1 C 332.3 432.4, 328.3 435.6, 329.2 436.5 C 329.5 436.9, 331 436, 332.5 434.6 C 334 433.2, 335.5 432.1, 335.9 432.2 C 336.2 432.3, 337.8 431.8, 339.3 431.2 C 342.9 429.7, 343.7 429.7, 344.3 431.3 C 345 433.4, 347.2 425, 346.6 422.5 C 346.1 420.7, 345.1 419.9, 342.2 419.5 C 337 418.6, 336 418.2, 336 417.1 C 336 416.5, 336.7 416.3, 337.5 416.6 C 338.3 417, 339 416.7, 339 416.1 C 339 415.5, 339.5 415, 340.1 415 C 340.6 415, 340.9 415.4, 340.5 415.9 C 339.8 417.2, 340.7 417.7, 345.5 418.6 C 351 419.6, 349 417.2, 341.4 413.6 C 334.2 410.2, 329 410.1, 333.7 413.5 C 335.1 414.6, 334.8 415, 331.2 417 C 328 418.8, 327.3 419.6, 328.1 420.7 C 329 421.7, 328.9 422, 327.6 422 C 326.7 422, 326 421.3, 326 420.5 C 326 419.6, 325 419, 323.4 419 C 322 419, 321.1 419.4, 321.5 420 C 321.8 420.5, 322.7 420.7, 323.5 420.3 C 326.2 419.3, 325.1 421.3, 320.6 425.6 C 313.5 432.2, 312.8 438.3, 317.6 449.6 C 318.2 451.1, 314.7 452, 312.6 450.8 C 310.6 449.7, 310.6 448.1, 312.7 445.8 C 315 443.2, 313.7 442.5, 310.2 444.6 C 307.6 446.1, 307.3 446.7, 308.1 448.7 C 309.2 451.7, 309.2 452, 308 452 C 307.5 452, 307 451.3, 307 450.5 C 307 449.4, 305.8 449, 301.9 449 C 296.4 449, 296 447.6, 301.2 446.5 C 304.4 445.8, 304.4 445.7, 302.3 444.1 C 301.2 443.1, 296.9 441.8, 292.9 441.1 C 280.5 439, 272 433.9, 272 428.7 C 272 425.3, 274.2 423.8, 279.5 423.7 C 284.5 423.6, 287.5 425.4, 285 427 C 283.9 427.7, 284.2 428.1, 286.5 429 C 289.4 430.1, 289.4 430.2, 287.6 431.5 C 285.7 433, 286.8 436, 289.2 436 C 289.7 436, 292.6 437.1, 295.6 438.5 C 302.8 441.8, 305.6 441.8, 300.7 438.5 C 298.7 437.1, 297 435.5, 297 435 C 297 434.6, 296.7 433.5, 296.4 432.6 C 295.9 431.4, 296.4 431, 298.4 431 C 299.8 431, 301 430.4, 301.1 429.8 C 301.4 424.4, 303.2 421, 305.7 421 C 306.5 421, 306.8 420.6, 306.5 420 C 305.5 418.4, 302.8 418.8, 301.4 420.8 C 300.3 422.2, 299.8 422.3, 298.1 421.3 C 297 420.6, 294.2 419.8, 291.8 419.5 C 287.8 418.9, 287.6 419, 289.4 420.4 C 290.5 421.3, 292.3 422, 293.4 422 C 294.6 422, 296.2 422.6, 297.1 423.3 C 298.8 424.6, 299.2 429, 297.5 429 C 296.2 428.9, 292.8 426.4, 293 425.6 C 293.4 423.7, 292 422.8, 288 422.3 C 283.6 421.7, 273.3 414.1, 274.8 412.6 C 275.1 412.3, 274.7 412, 274 412 C 273.3 412, 272.9 411.7, 273.3 411.4 C 273.6 411, 273.3 409.5, 272.5 407.9 C 271.7 406.4, 271 404.1, 271 402.8 C 271.2 382.6, 270.5 378.5, 267.3 379.7 C 266.6 380, 266 379.7, 266 379.2 C 266 378.6, 264.3 377.6, 262.3 377.1 C 256.3 375.4, 256.1 375.9, 261.5 378.4 C 269.1 382, 269.4 382.5, 268.7 393.8 C 268.1 403.4, 269.2 411.9, 271.1 413 C 271.6 413.4, 272.2 414.6, 272.5 415.8 C 272.7 417, 273.2 418.5, 273.5 419 C 273.8 419.6, 273.7 420, 273.2 420 C 270.1 420, 269.2 430.7, 272 434.2 C 275.2 438.3, 287.9 443.9, 293.8 443.8 C 295.6 443.7, 297.5 444.1, 298.1 444.7 C 298.8 445.4, 298.3 445.8, 296.5 445.8 C 293.3 445.8, 292.1 446.8, 294 448 C 295.3 448.8, 295.2 449, 293.8 449 C 292.9 449, 292 448.4, 291.7 447.8 C 291.4 446.9, 289.2 447.5, 283.9 449.9 C 274.5 454.2, 268.6 454.8, 235.8 454.9 L 210 455 209.6 452.8 C 205.4 432.1, 202.8 405.7, 204 395.5 C 205.4 382.7, 205.3 381.5, 202.4 378.1 C 197.5 372.2, 194.9 337.2, 198.7 327 C 201.1 320.6, 207.7 310, 213.4 303.5 C 221.2 294.4, 226.7 291.7, 243.5 288.4 C 248.5 287.5, 257.2 284.9, 263 282.7 C 283.2 275.2, 285.4 274.7, 296.5 275.4 C 315.5 276.7, 313.5 277.1, 313.8 272.4 C 314 269.6, 313.6 267.9, 312.5 267 C 310.1 265, 300.6 265.6, 289.5 268.5 C 284 269.9, 276.4 271.8, 272.5 272.6 C 268.7 273.4, 262.6 274.8, 259 275.6 C 248.6 278.1, 243 278.8, 235.6 278.9 C 229.1 279, 228.8 278.9, 230.2 277.3 C 232.9 274.1, 239 265, 239 264.1 C 239 262.8, 241.6 262, 245.8 262 C 250.3 261.9, 254.3 259.4, 251.6 258.4 C 250.7 258.1, 249.3 258.3, 248.5 259 C 247.6 259.7, 246.7 260, 246.3 259.6 C 246 259.3, 247.5 258.2, 249.8 257.2 C 254.9 255.1, 255.3 253.5, 250.5 254.4 C 247 255.1, 245.6 253.8, 248.5 252.6 C 249.3 252.3, 250 251.3, 250 250.4 C 250 249.5, 251.2 246.6, 252.8 244.1 C 254.3 241.6, 256.5 237.4, 257.8 234.9 C 260 230.3, 262.9 226.9, 263.1 228.6 C 263.2 229.1, 263.1 230.7, 263 232.3 C 262.9 234.2, 263.3 235, 264.4 235 C 265.9 235, 266.1 226.7, 264.6 225.2 C 263 223.7, 258.9 227.4, 256.3 232.7 C 254.8 235.9, 253.2 238.7, 252.8 238.8 C 252.3 239, 252 239.9, 252 240.8 C 252 241.6, 251.7 242, 251.3 241.7 C 251 241.3, 251.2 240, 251.8 238.7 C 252.4 237.5, 254.1 233.6, 255.5 230.1 C 258.3 222.8, 260.5 220, 263.2 220 C 265.7 220, 265.5 218.1, 262.7 217.1 C 258.4 215.4, 257.4 213.2, 259.9 210.7 C 262.3 208.1, 262.6 206, 260.8 204.2 C 259.3 202.7, 255 202.6, 255 204 M 228.3 218.4 C 224.8 221.5, 224.6 222.1, 224.3 229 C 224.1 233, 223.6 236.8, 223.1 237.4 C 222.6 238, 221.9 240, 221.5 241.8 C 221.1 243.6, 220.2 246.3, 219.4 247.8 C 217 252.4, 217.7 258.4, 221.1 264.5 C 223.6 269, 224 270.3, 223 271.5 C 222 272.8, 221.6 272.8, 220.3 271.5 C 218.4 269.6, 211.6 269.6, 210 271.5 C 208.3 273.5, 210.8 274.4, 216 273.7 C 218.5 273.4, 220 273.6, 220.3 274.4 C 221 276.3, 212.8 287.8, 204.5 296.6 C 203.9 297.2, 201.8 299.6, 199.9 301.9 C 196.1 306.6, 183.9 317, 182.2 317 C 181.6 317, 181 314.2, 180.7 310.8 C 180.3 304.7, 178.9 295.5, 177 285.7 C 175.6 278.7, 175.8 244.2, 177.2 236.5 L 178.5 230 184.5 230 C 188.7 230, 190.1 229.7, 189 229 C 188.2 228.5, 185.9 228, 184 228 C 179.6 228, 177.5 226.7, 178.4 224.5 C 178.8 223.4, 178.6 223, 177.8 223.2 C 177 223.5, 176.3 226.3, 175.9 230.1 C 175.6 233.7, 175.1 237, 174.8 237.5 C 172.5 241.4, 173.5 296.2, 176 298 C 176.4 298.3, 177.2 303.1, 178 308.8 C 178.8 315.7, 179.7 319.3, 180.6 319.7 C 181.4 320, 182 321.4, 182 322.9 C 182.1 325.4, 182.1 325.4, 183.5 322.3 C 185.5 317.7, 186.3 318.2, 185.6 323.4 C 185.1 326.8, 185.2 327.9, 186.5 328.3 C 187.6 328.8, 188 328.2, 188.1 326.2 C 188.5 317.6, 188.7 317, 195 310.8 C 201.5 304.3, 218.2 284.6, 221.5 279.5 C 227 271, 227.2 268.4, 223 262 L 220 257.5 224.2 256.6 C 235.3 254.4, 238.5 252.7, 238.8 248.9 C 239.1 245.7, 238.8 245.1, 235.8 243.8 C 230.6 241.4, 225.5 240.6, 227 242.5 C 227.6 243.2, 230.1 244.2, 232.5 244.6 C 235.8 245, 237 245.7, 237.4 247.3 C 238.2 250.6, 237.6 250.9, 222.6 254.4 C 219.3 255.2, 219.4 254.5, 223.1 244.5 C 225 239.5, 225.3 239.1, 229.1 238.5 C 231.3 238.1, 234.3 236.7, 235.8 235.4 L 238.5 233.1 234 233 C 229.2 233, 227.6 233.7, 226.7 236 C 226.4 237, 226.1 236.7, 226.1 235.2 C 226 232, 227.8 230.4, 232.8 229.6 C 237.2 228.9, 242 226.5, 242 224.9 C 242 223.5, 239.4 223.9, 238 225.5 C 237.3 226.3, 236.2 227, 235.6 227 C 235 227, 235.2 226.6, 236 226 C 238.9 224.2, 235.8 223.6, 231.4 225.2 C 228.4 226.3, 227 226.4, 227 225.6 C 227 223.5, 232.1 218.9, 235.1 218.3 C 238.3 217.7, 238.9 216.5, 236.4 215.6 C 233.5 214.5, 232 215, 228.3 218.4 M 88 216.9 C 88 217.5, 88.4 218.1, 89 218.5 C 89.5 218.8, 91.8 221.9, 94.1 225.4 C 97.8 231, 101.6 234.8, 102.6 233.8 C 102.8 233.6, 101.6 231.9, 100 230.1 C 97.1 227, 96.2 225, 97.8 225 C 98.2 225, 99.4 226.1, 100.4 227.5 C 101.4 228.9, 102.8 230, 103.5 230 C 104.1 230, 105.3 231.2, 106.1 232.8 C 106.8 234.3, 109 237.3, 111 239.6 C 112.9 241.9, 116 246.2, 117.8 249.2 C 119.6 252.2, 122 255.7, 123.2 257 C 124.4 258.2, 126.3 261.6, 127.5 264.4 C 128.6 267.2, 130.6 271.4, 131.8 273.8 C 133.1 276.1, 133.8 278.6, 133.4 279.2 C 133 279.8, 133.1 280, 133.8 279.6 C 134.4 279.2, 134.8 279.7, 134.7 280.7 C 134.4 285.9, 144.8 297.4, 150.9 298.6 C 153.9 299.2, 154 299.1, 154 295.9 C 154 294, 154.3 291.4, 154.6 290 C 155 288.1, 154.6 288.4, 153 291.3 C 150.6 295.7, 149.2 295.9, 145.3 292.3 C 137.2 284.5, 135.1 279.2, 137.5 271.5 C 139.2 265.6, 139.3 265, 138.1 265 C 137.6 265, 136.6 266.6, 135.9 268.5 C 134.3 272.9, 132.9 273.1, 133.6 268.8 C 134.1 265.8, 134 265.7, 132.7 267.3 C 131.3 269, 131.2 268.9, 130.5 266.3 C 130.2 264.8, 128.1 261.2, 126.1 258.5 C 124 255.7, 121.3 251.6, 120.2 249.3 L 118.1 245.3 122.6 245.2 C 128.7 245, 129.2 244.5, 128.5 239.6 L 127.9 235.5 130 239.2 C 131.1 241.2, 132.5 243.2, 133.1 243.6 C 133.9 244.1, 134 243.9, 133.5 243.1 C 133.1 242.3, 133.9 239.5, 135.5 236.5 C 137.2 233, 137.9 230.4, 137.5 229 C 136.6 226, 134.7 227, 133.8 231.1 C 132.2 237.3, 131.6 237.6, 131.1 232.6 C 130.7 229.9, 130 227.5, 129.3 227.3 C 126.4 226.3, 123.6 235.8, 125.5 240.4 C 126.3 242.1, 126.1 242.1, 123.2 240.6 C 118.7 238.3, 115.7 238.5, 119.3 240.9 C 122.1 242.7, 122.1 242.7, 119.9 243.3 C 117.2 244, 109.9 236.8, 108 231.6 C 106.2 226.7, 102.6 220, 101.8 220 C 100.5 220, 100.9 222.4, 102.6 224.8 C 104.9 228.1, 102.1 227.7, 98.8 224.3 C 91.3 216.5, 88 214.3, 88 216.9 M 70.3 244 C 68.4 246.9, 63.4 249.1, 60.5 248.4 C 58.3 247.9, 57.8 248.3, 56.6 251.1 C 54.5 256.1, 51.1 260, 48.9 260 C 47.3 260, 47 259.3, 47 254.4 C 47 246, 44.6 247.7, 44.2 256.4 C 43.9 262.5, 44.1 263.1, 45.7 262.7 C 52.3 260.8, 53.7 260.9, 54.5 263.2 C 55.2 265.4, 55.3 265.3, 55.7 262.5 C 56.4 257.3, 59.2 251, 60.8 251 C 61.8 251, 62 251.4, 61.2 252.3 C 60.5 253.1, 60.6 254.8, 61.7 257.9 C 63.5 263.1, 62.4 266.4, 58.5 268.2 C 56.4 269.1, 55 271, 56.4 271 C 59.9 271, 66.9 263.2, 65.5 260.9 C 65.1 260.4, 66.5 260, 68.4 260 L 71.9 260 72.2 267.3 C 72.5 273.9, 72.7 274.5, 74.8 274.8 C 77.4 275.2, 77.8 272.9, 75.4 270.9 C 74.2 269.9, 73.9 268.4, 74.3 265 C 75 258.5, 74.6 258, 68.4 258 C 60.8 258, 60.5 256.2, 66.9 250.2 C 69.7 247.6, 72 244.6, 72 243.7 C 72 241.5, 71.8 241.6, 70.3 244 M 106.6 323.4 C 106.3 324.8, 105.4 326, 104.7 326.3 C 104.1 326.5, 104.3 326.6, 105.3 326.5 C 106.7 326.2, 107 327, 107 330.5 C 107 335.7, 104.4 338.7, 102.6 335.6 C 102 334.5, 100.7 332.8, 99.7 331.8 C 98.7 330.8, 98.2 329.5, 98.5 329 C 99.2 327.9, 96.3 326.4, 95.3 327.3 C 95 327.6, 95.7 329.1, 96.7 330.7 C 97.8 332.2, 99.2 335, 99.9 336.8 C 101.3 340.2, 102.5 340.6, 106.3 338.9 C 108.8 337.8, 110 333.1, 110 324.3 C 110 320.4, 107.5 319.8, 106.6 323.4 M 132 324.3 C 132 324.5, 132.7 326.1, 133.6 327.9 C 135.5 331.6, 135 332.6, 132.2 331.1 C 131 330.5, 128.9 330, 127.4 330 L 124.8 330 125.2 339.4 L 125.6 348.9 122 347.1 C 120.1 346.1, 117.2 344.7, 115.6 344.1 L 112.8 342.9 115.3 340.4 C 119.9 335.8, 119.8 328.6, 115.1 332.6 C 114 333.6, 113 334.8, 113 335.3 C 113 335.8, 112.1 336.9, 111 337.8 C 109 339.5, 109 339.5, 110.9 342.7 C 112 344.5, 114.6 346.8, 116.7 347.9 C 118.8 348.9, 121.4 350.8, 122.5 352 C 123.6 353.2, 125.3 354.6, 126.3 355.2 C 128 356.1, 128.1 355.9, 127.5 353.1 C 126.8 349.6, 126.9 349.5, 130.3 351.1 C 133.4 352.5, 139 349.9, 139 347.1 C 139 343.7, 133.5 342.8, 132.7 346 C 131.4 351, 127.5 346.8, 126.5 339.4 C 125.7 332.4, 126.6 331.1, 131.3 332.8 C 136.2 334.5, 137 334.3, 137 331.2 C 137 328.3, 134.6 324, 132.9 324 C 132.4 324, 132 324.2, 132 324.3 M 48.7 333.7 C 48.3 334, 48.4 334.8, 48.9 335.4 C 49.3 336, 50 337.6, 50.3 339 L 50.9 341.6 44.5 341.2 C 40.7 340.9, 38 341.2, 38 341.7 C 38 342.3, 39.3 342.7, 41 342.8 C 42.6 342.8, 45.5 343.6, 47.4 344.5 C 53 347.2, 54.2 346.1, 52.5 340.3 C 51.7 337.7, 51.3 335.4, 51.5 335.2 C 52.7 333.9, 55.3 336.6, 57.5 341.5 C 59.4 345.5, 60.6 347, 62 347 C 64.5 347, 64.5 345.9, 62 341 C 59 335.1, 51.4 330.9, 48.7 333.7 M 471.4 360.4 C 470.6 361.5, 470 363.7, 470 365.2 C 470 367.7, 470.4 368, 473.4 368 C 475.9 368, 476.9 367.5, 477.3 366 C 477.6 364.6, 478.7 364, 480.4 364 C 482.7 364, 482.9 364.3, 482.1 365.9 C 480.9 368, 481.6 369, 484.1 369 C 485 369, 486 368, 486.4 366.6 C 486.7 365.3, 487.2 363.5, 487.5 362.7 C 487.9 361.7, 486.9 361, 483.8 360.2 C 475.7 358.1, 473 358.2, 471.4 360.4 M 80.8 362.7 C 78.6 365.1, 73.8 367.5, 66.8 369.5 C 60.4 371.5, 59.4 371.1, 53.8 365.5 L 51 362.7 48.9 365.4 C 47.8 366.8, 45.5 368.7, 43.9 369.6 C 42.3 370.4, 41.2 371.5, 41.5 372 C 42.6 373.8, 45 373, 47.7 370 C 49.1 368.4, 50.9 367, 51.7 367 C 52.5 367, 54.4 368.4, 56 370 C 60.2 374.3, 65.5 374.1, 74.9 369.3 C 82 365.8, 83.6 364.3, 82.8 362 C 82.6 361.3, 81.8 361.6, 80.8 362.7 M 490.7 362.6 C 490.3 363, 490 364.8, 490 366.6 C 490 370.3, 490.8 370.7, 498.6 371.6 C 503.3 372.2, 504 372, 504.6 370.4 C 504.9 369.3, 505.5 367.8, 506 366.8 C 506.8 365.4, 506 365, 501.2 364.1 C 498.1 363.5, 494.6 362.8, 493.5 362.5 C 492.4 362.2, 491.1 362.2, 490.7 362.6 M 479.5 382.1 C 476.8 382.6, 472.3 383.4, 469.5 384 C 463.9 385.1, 436.7 387.5, 413 389 C 382.9 390.9, 363.5 392.4, 365.4 392.8 C 367.2 393.2, 367.3 394, 366.4 414.4 C 364.9 449.5, 365.2 526.4, 366.9 528.3 C 368.1 529.8, 368 530, 366.6 530 C 365.1 530, 365 532.7, 365.2 558.8 L 365.5 587.5 389 587.7 C 417 587.9, 433.6 589.4, 436.5 592.1 C 438.8 594.2, 445.1 595.3, 448.3 594.1 C 451.4 592.9, 448.5 591.6, 443.4 591.9 C 441.1 592, 438.9 591.6, 438.5 591 C 438 590.2, 442.6 590.1, 454.2 590.6 C 464.7 591, 470.1 590.9, 469.5 590.3 C 468.5 589.4, 417.1 586.5, 383.7 585.5 C 367.4 585, 365.8 584.8, 366.6 582.7 C 367.3 580.8, 368.1 542, 368.3 493.5 C 368.5 456.4, 370.1 411, 371.5 403.5 C 372.5 398.6, 384.2 396.7, 421.5 395.5 C 429.2 395.3, 438.2 394.7, 441.5 394.1 C 451.1 392.5, 480 392.3, 483.6 393.8 C 486.4 395, 487.1 394.9, 490.4 392.6 C 495.5 389.2, 500.7 388.6, 514.1 390 C 520.4 390.6, 531.8 391.5, 539.5 392 C 547.2 392.5, 558.1 393.4, 563.6 394.1 C 574.4 395.3, 576.4 395.2, 575.2 393.3 C 574 391.4, 559.9 389.2, 544.3 388.6 C 536.4 388.3, 529.2 387.6, 528.3 387.1 C 527.3 386.6, 522.2 385.6, 517 385 C 511.8 384.4, 503.5 383.3, 498.5 382.5 C 488.4 380.9, 486.6 380.9, 479.5 382.1 M 272 388.6 C 272 396.7, 274.3 402, 281.4 409.7 C 289.2 418.3, 294.6 419.8, 305.4 416.5 C 311.4 414.7, 312.1 414.7, 314.4 416.3 C 316.4 417.8, 314.8 422, 312.3 422 C 311.6 422, 311 422.7, 311 423.5 C 311 425.8, 312.2 425.3, 315.7 421.3 C 317.5 419.3, 319.8 417.5, 320.8 417.4 C 324.7 416.9, 330.5 414.1, 330.8 412.6 C 331.2 410.6, 327.8 410.5, 324.7 412.4 C 322.2 414.1, 315.5 413.9, 313.7 412.1 C 312.2 410.6, 309.3 410.7, 304.5 412.5 C 296.2 415.5, 291.8 414.6, 285.4 408.8 C 276.9 401, 274 395.9, 274 388.9 C 274 385.7, 273.6 382.8, 273 382.5 C 272.4 382.1, 272 384.4, 272 388.6 M 494.2 393.5 C 489.9 395.5, 489.5 396.8, 491.9 402.6 L 493.9 407.5 493.9 402.9 C 494 394.8, 494.6 394.6, 518.3 395.4 C 529.4 395.7, 541.2 396.5, 544.5 397 C 547.8 397.5, 557.3 398.9, 565.5 400 C 581.2 402.2, 591.8 404.5, 593.5 406.1 C 594.7 407.3, 596.3 407.3, 595.5 406 C 592.2 400.7, 554.3 395, 505.5 392.4 C 499.8 392.1, 496.6 392.5, 494.2 393.5 M 359.5 396.3 C 359 397.5, 358.3 445.5, 358 489.9 C 357.9 514.9, 358.1 515.9, 361.8 516 C 362.7 516, 363 503.2, 363 455.5 C 363 401.8, 362.8 395, 361.5 395 C 360.6 395, 359.7 395.6, 359.5 396.3 M 450.6 396.2 C 440.8 396.7, 434.3 397.5, 433.9 398.1 C 433 399.7, 432 431.8, 432.2 457.7 C 432.3 478.3, 432.3 478.9, 434.4 479.4 C 435.6 479.7, 449.9 480, 466.3 480 L 496.1 480 495.8 477.8 C 495.4 475, 493.2 473.9, 490.7 475.2 C 488.4 476.4, 485.2 475.4, 482 472.5 C 478.2 469.1, 475.3 467.9, 472.4 468.6 C 471 469, 463.5 468.7, 455.8 468 C 440.2 466.6, 440 466.4, 440 458.2 C 440 456.1, 439.5 452.9, 439 451 C 438.4 449.1, 437.9 438.6, 437.9 427.8 C 437.8 402.6, 438 402.1, 449.1 400.3 C 453.1 399.7, 461.7 399.1, 468.1 399.1 C 482.7 399, 483.3 399.5, 488 414.3 C 489.7 419.9, 491.6 425.6, 492.1 427 C 496.9 440.8, 499.4 454, 499.6 467.5 L 499.8 481.5 503.4 481.8 C 506 482, 507 481.7, 507 480.7 C 507 477.4, 512.5 468.6, 515.2 467.6 C 519 466.2, 518.7 465.2, 514.4 464.4 C 508.9 463.4, 505.4 459, 502.6 449.6 C 495.8 427.6, 492.7 416.9, 491 410.2 C 486.8 394.4, 486.3 394.2, 450.6 396.2 M 404 399.1 C 399.3 399.6, 391.6 400.2, 386.8 400.5 C 373.1 401.5, 373.8 400.2, 372.9 427.6 C 372.5 440.2, 371.9 456.9, 371.5 464.8 L 370.7 479 399.9 479 L 429 479 429 442.3 C 429 422, 429.3 403.8, 429.6 401.8 L 430.3 398 421.4 398.1 C 416.5 398.2, 408.7 398.6, 404 399.1 M 497.2 399.3 C 496.6 399.9, 496.2 404.4, 496.3 409.2 C 496.4 413.9, 496.8 417.3, 497.2 416.7 C 497.6 416, 498 417, 498 418.8 C 498 420.6, 498.4 422.8, 498.9 423.8 C 499.4 424.7, 500.4 427.6, 501 430.2 L 502.2 434.9 506.3 431.5 C 510.6 427.8, 521.6 422, 524.3 422 C 525.2 422, 526.2 421.6, 526.5 421 C 526.8 420.5, 528.6 420, 530.5 420 C 532.4 420, 534.6 419.2, 535.6 418.3 C 537.3 416.6, 537.4 416.6, 536.7 418.3 C 536.3 419.3, 536 420.6, 536 421.1 C 536 421.6, 534.5 422, 532.8 422 C 523 422.1, 502.2 433.7, 503.4 438.4 C 503.7 439.6, 504.3 442.1, 504.8 444 L 505.7 447.5 506.8 445 C 509.3 438.8, 524 428.7, 536.3 424.6 C 537.2 424.3, 538 423.6, 538 423 C 538 422.4, 538.5 422.2, 539 422.5 C 540.9 423.7, 539.9 424.8, 534.3 427.6 C 531.1 429.2, 528.3 430.7, 528 431 C 527.7 431.3, 525.3 432.6, 522.5 433.9 C 517.5 436.4, 509 444.1, 509 446.2 C 509 446.8, 508.3 448.1, 507.5 449 C 506.1 450.5, 506.1 451.1, 507.5 454.3 C 509.4 458.9, 512.2 460.7, 518.5 461.4 C 521.9 461.8, 522.8 461.7, 521.5 461.1 C 519.2 460.1, 518.9 460.2, 529.1 457.2 C 533 456, 537.9 453.5, 541.1 451.1 C 544.1 448.9, 547 447, 547.7 447 C 548.3 447, 549.1 446.4, 549.3 445.8 C 549.7 444.8, 550.1 444.8, 550.8 445.9 C 551.4 446.7, 552.4 447.5, 553.2 447.6 C 553.9 447.7, 555.3 448.1, 556.4 448.6 C 558.4 449.4, 558.3 440.8, 555.9 421 C 554.9 413, 555.4 407.8, 557.5 402.8 C 558.7 399.9, 554.6 400.6, 552.4 403.6 C 551.4 405, 550 406.7, 549.5 407.4 C 548.9 408, 547.5 409.8, 546.2 411.4 C 542.8 415.8, 543.6 413.3, 547.5 407.4 C 551.5 401.4, 551.7 400.8, 549.3 401.1 C 548.3 401.2, 546.8 401, 546 400.7 C 540.3 398.5, 498.9 397.3, 497.2 399.3 M 453.3 402.4 C 438.4 404.2, 441.4 405.1, 460.1 404.4 C 473.2 403.9, 478.2 404, 479.9 404.9 C 481.8 406, 482.2 406, 481.8 404.8 C 480.5 401, 471.6 400.2, 453.3 402.4 M 399 404.1 C 381.6 404.9, 378.5 405.8, 376.8 409.7 C 375 414.1, 374.5 463, 376.2 465.3 C 377.4 466.9, 379.9 467.3, 394.1 468 C 422.8 469.6, 423.8 468.9, 424 445.5 C 424.5 403.7, 424.3 402.8, 417.7 403.2 C 415.9 403.2, 407.5 403.7, 399 404.1 M 559 406.3 C 558.2 408.7, 558.2 413.4, 559.1 425.8 L 560.4 442.2 563 439.1 C 565.1 436.8, 566.2 436.2, 568.1 436.7 C 570.2 437.3, 570.4 437.2, 569.1 435.7 C 566.7 432.7, 574 433.5, 577.3 436.5 C 578.8 437.9, 580 439.2, 580 439.4 C 580 440.1, 576 438.8, 575.4 437.9 C 573.2 434.3, 561 441.6, 561 446.4 C 561 448.5, 561.5 449, 563.5 449 C 566.5 449, 575.4 452.4, 579.1 455.1 C 582.6 457.6, 582.7 457.6, 584.6 453.8 C 585.6 451.8, 586 449.3, 585.7 446.8 C 585.4 444.5, 585.6 443, 586.2 443 C 586.9 443, 587.1 445.5, 586.7 450.4 L 586.2 457.8 588.9 458.3 C 590.4 458.6, 593.5 458.6, 595.8 458.3 C 598.5 457.9, 600.5 458.2, 601.5 459 C 602.4 459.7, 603.3 460.1, 603.5 459.8 C 604.1 459.2, 601.7 446.4, 599.6 438.8 C 596.4 427.3, 595 421.4, 594 415.6 C 593.2 410.3, 591.9 408.1, 589.9 408 C 589.5 408, 588.5 409.5, 587.6 411.3 C 585.4 415.5, 583.8 418.1, 582.1 419.9 C 580.5 421.7, 580.6 421.4, 584.5 413.8 C 587.8 407.3, 587.7 407.1, 581.8 405.9 C 562.8 402, 560.5 402, 559 406.3 M 410 406.9 C 403.8 407.5, 403.3 407.7, 398.6 412.5 C 394.6 416.6, 394.4 416.7, 397.4 413.2 C 402.6 407.2, 402.3 406.7, 393.3 407.2 C 380.6 407.8, 379.7 408.6, 378.6 420.3 C 378.1 425.6, 378 430.3, 378.4 430.7 C 378.7 431.1, 381.6 428.8, 384.8 425.7 C 388 422.6, 390.9 420, 391.4 420 C 391.9 420, 389.1 423, 385.2 426.8 L 378.2 433.5 377.6 443.5 C 376.9 454.2, 377.9 462.7, 380.1 464.1 C 381.8 465.2, 417.1 465.3, 418.6 464.2 C 421.7 462, 422.2 457, 421.8 433.1 C 421.4 409.1, 420.9 405.7, 417.6 406.2 C 417 406.2, 413.6 406.6, 410 406.9 M 440.7 407.6 C 438.7 409.6, 441.3 461.7, 443.5 463.8 C 443.8 464.1, 443.8 451.5, 443.5 435.9 C 443.1 409.9, 442.7 405.7, 440.7 407.6 M 446.4 408.9 C 446.2 409.1, 446 416.1, 446.1 424.4 L 446.2 439.5 447.7 433.8 C 448.9 429.2, 449.5 428.3, 450.8 428.8 C 452.3 429.3, 452.3 429.1, 451.2 427.7 C 450.4 426.8, 450.1 425.6, 450.5 424.9 C 451.1 424.1, 451.5 424.2, 452.2 425.1 C 452.8 426.1, 452.9 425.8, 452.5 424.3 C 452 422.6, 453 420.6, 456.1 416.5 C 461.4 409.5, 462.6 410.2, 457.7 417.3 C 453.8 422.9, 452.9 425.2, 455.6 422.5 C 458.4 419.7, 458.2 421.6, 455.2 426.1 C 451.2 432.2, 450 436, 448.4 447.5 C 446.9 459.3, 446.7 463.8, 447.8 462.5 C 449.4 460.7, 453.2 449.1, 452.7 447.8 C 452.4 447.1, 452.1 447.6, 452.1 448.9 C 452 450.2, 451.7 451.1, 451.4 450.7 C 451.1 450.4, 451.1 448.7, 451.5 447 C 452.1 444.3, 452.4 444.1, 453.8 445.2 C 455.2 446.3, 455.3 446.2, 454.7 444.6 C 454.2 443.5, 455 439.4, 456.6 434.6 C 460.1 423.9, 460.2 423.5, 463.9 416 C 467.7 408, 467.7 408, 463.8 408 C 461.6 408, 459.7 408.9, 458.1 410.5 C 456.8 411.9, 455.5 412.8, 455.1 412.5 C 454.8 412.1, 455.4 411.2, 456.4 410.4 C 458.4 409, 458.4 409, 456.4 408.9 C 450.3 408.5, 446.8 408.5, 446.4 408.9 M 473.8 408.8 C 469.4 409.2, 468.3 411.5, 469.7 417 L 470.6 420.4 474 414.9 C 478.2 408, 479.2 410.2, 475.1 417.4 C 472.2 422.3, 470.8 428.8, 472.9 427.6 C 473.4 427.3, 474.1 427.8, 474.4 428.7 C 474.8 429.6, 474.5 430.7, 473.8 431.2 C 471.5 432.6, 473.8 432.1, 477.5 430.3 C 480.1 429.1, 481 428, 481.1 426.1 C 481.1 424.7, 481.3 421.7, 481.4 419.5 C 481.6 417.3, 481.4 414.8, 480.9 413.9 C 480.5 413.1, 480.5 411.8, 480.9 411.2 C 481.7 409.9, 482.8 412.9, 487 428 C 493.5 451, 495.1 460.6, 492.7 461.6 C 491.9 461.9, 489.6 461.5, 487.7 460.6 C 484.7 459.4, 484.2 459.4, 484.7 460.6 C 485 461.3, 487 462.5, 489.1 463 C 493 464.1, 494.1 465.4, 491.8 466.3 C 491.1 466.6, 491.7 466.9, 493.3 466.9 C 494.8 467, 496 467.5, 496 468.2 C 496 468.8, 496.3 469, 496.7 468.7 C 497.6 467.7, 497.1 457.3, 496 453.5 C 495.5 451.9, 494.4 447.6, 493.5 444 C 492.6 440.4, 490.6 433.5, 489.1 428.5 C 487.5 423.6, 485.5 417, 484.6 414 C 482.7 408, 482.5 407.9, 473.8 408.8 M 463.6 421.2 C 462.1 424.6, 460.6 429.3, 460.5 431.5 C 460.3 433.7, 460 435.7, 459.9 436 C 459.7 436.7, 459.5 437.8, 458.7 443 C 458.3 445.5, 458.4 450.2, 458.8 453.5 L 459.5 459.5 465.4 460 L 471.3 460.5 470.6 445.5 C 470.3 437.3, 469.5 428.3, 468.8 425.5 C 468.2 422.8, 467.4 419.3, 467.1 417.7 C 466.5 415.1, 466.3 415.4, 463.6 421.2 M 54.5 426 C 56.4 429.7, 56.4 435.4, 54.5 437 C 53.5 437.9, 51.3 438, 47.5 437.5 C 41.6 436.8, 39.7 438.3, 45.1 439.4 C 55.4 441.4, 58.6 439.4, 57.7 431.5 L 57.1 427.2 62 429.7 C 64.7 431.1, 67.6 432, 68.5 431.6 C 70.8 430.8, 69.6 429.4, 66.1 428.7 C 64.4 428.3, 61.3 426.9, 59 425.5 C 53.8 422.2, 52.6 422.3, 54.5 426 M 477.9 434.8 C 477.8 435.2, 477.8 435.9, 477.9 436.3 C 478 436.8, 477.1 436.9, 476 436.5 C 474.1 435.9, 474 436.3, 474 443.6 C 474 451.2, 475.5 453.1, 476.2 446.5 L 476.5 443.5 479.4 447.8 C 483.2 453.4, 483.9 453.1, 482.8 446.3 C 481.7 439.2, 478.4 431.5, 477.9 434.8 M 21.6 438.2 C 21.2 439.1, 21.6 441.2, 22.5 443 C 24 446, 24.4 446.2, 28.8 445.8 C 32.9 445.5, 33.5 445.7, 34.9 448.3 C 37.3 452.5, 40.8 453, 43.7 449.4 C 46 446.5, 46.8 443, 45.1 443 C 44.6 443, 43.9 442.2, 43.7 441.3 C 43.4 440.3, 43.2 441.2, 43.3 443.4 C 43.6 450.5, 38.2 451, 35 444.2 C 33.4 440.8, 32 440, 32 442.5 C 32 446.7, 23.8 443.1, 22.8 438.5 C 22.4 436.8, 22.2 436.7, 21.6 438.2 M 332.3 439.5 C 330.4 440.3, 329 441.6, 329 442.6 C 329 444.2, 329.1 444.2, 331 442.5 C 333.7 440.1, 344.3 439.7, 344.8 442.1 C 345 443, 344.4 444.5, 343.6 445.3 C 342.7 446.2, 342 447.2, 342 447.7 C 342 448.2, 339.5 448.6, 336.4 448.6 C 333.4 448.7, 330.4 449.2, 329.7 449.9 C 328.9 450.7, 330.9 451, 337.8 451 L 347 451 347 446.7 C 347 438.8, 340.8 435.8, 332.3 439.5 M 283.5 453.4 C 276.6 455.4, 279.1 456.5, 293 457.3 C 312.1 458.5, 357 457.2, 357 455.5 C 357 454.5, 356 454.3, 353.5 454.7 C 351.6 455, 350 454.9, 350 454.4 C 350 453.9, 338.8 453.6, 324.5 453.8 C 306.7 454, 299 453.8, 299 453 C 299 452.3, 298.4 452.2, 297.1 452.9 C 296.1 453.5, 295.1 453.8, 294.9 453.6 C 293.6 452.5, 286.9 452.3, 283.5 453.4 M 317.5 461 C 296.2 461.3, 288.5 461.8, 291 462.4 C 295.1 463.5, 350.2 463.8, 354.3 462.7 C 358.3 461.6, 356.6 460, 351.7 460.2 C 349.4 460.4, 334 460.7, 317.5 461 M 563.8 462.5 C 563.5 462.8, 556.6 463.2, 548.4 463.4 C 530.6 463.9, 518.2 466.5, 526.5 468.1 C 541.7 470.9, 557.3 473.4, 576 476 C 580.1 476.6, 587.7 477.7, 592.9 478.6 C 606.6 480.8, 634.7 479.6, 635.6 476.8 C 636 475.3, 636.8 475, 638.3 475.4 C 639.5 475.7, 642 476, 643.8 476 C 646 476, 647 476.5, 647 477.5 C 647 478.6, 645.8 479, 642.6 479 C 639.8 479, 638 479.5, 637.7 480.4 C 637.3 481.4, 633.9 481.8, 623.5 481.9 C 601.3 482.3, 599.2 483.9, 599 501 C 598.8 508.5, 598.6 509.8, 597.9 507.4 L 597 504.2 565.8 504.3 L 534.5 504.5 534.8 496.3 C 535.3 484.6, 535 484, 528.7 484.2 C 525.3 484.2, 524.6 484.5, 526.5 484.7 C 529.9 485.2, 533 487.6, 533 489.8 C 533 491, 532.6 491, 531 489.5 C 529.1 487.8, 529 487.8, 529 489.4 C 529 490.4, 529.9 491.4, 531 491.7 C 534.2 492.5, 533.3 494.2, 529.8 494 C 528 493.9, 526.1 493.9, 525.5 494 C 525 494.1, 521.7 494.1, 518.3 494 C 514.8 493.9, 512 494.3, 512 494.8 C 512 496.3, 518.3 496.9, 526 496.3 C 532.7 495.7, 533 495.8, 533 497.9 C 533 499.9, 532.6 500, 521.4 500 C 512.6 500, 509.9 500.3, 510.2 501.3 C 510.5 502.1, 514 502.6, 521.8 502.8 C 532 503, 533 503.2, 533 504.9 C 533 507.5, 531.6 507.9, 520.3 508.1 C 510.8 508.3, 510.5 508.2, 509.9 505.9 C 509.4 504.3, 509.2 505.3, 509.1 509 L 509 514.5 518.2 514.2 C 531.5 513.7, 592.8 515.8, 597 516.9 C 598.9 517.4, 601.2 518.1, 602 518.4 C 603.3 519, 603.5 517.6, 603.2 508.4 C 602.6 491.3, 605.2 488.5, 623.1 487.5 C 641.5 486.4, 647.1 486.4, 647.6 487.2 C 650.2 491.4, 650.7 483.2, 648.2 478 C 646.3 474.2, 650 475.1, 614.1 469.6 C 606.7 468.4, 598.5 468.2, 576 468.7 C 557.2 469.1, 546.7 469, 545.6 468.3 C 543.2 467, 548.7 466.3, 570.5 465.3 C 584.7 464.7, 585.8 464.5, 580 463.9 C 576.4 463.5, 571.4 462.9, 568.9 462.6 C 566.4 462.2, 564.1 462.2, 563.8 462.5 M 194 468 L 194 472 210.8 472 C 220.1 472, 237.9 471.7, 250.3 471.3 L 273 470.7 273 467.3 L 273 464 233.5 464 L 194 464 194 468 M 275.3 493.3 C 276.2 530.5, 276.6 536, 279.1 536 C 280.9 536, 281 534.5, 281 500 L 281 464 277.9 464 L 274.7 464 275.3 493.3 M 284 496 C 284 523.8, 284.2 528, 285.5 528 C 286.5 528, 287 527, 287 524.6 L 287 521.2 293.8 520.4 C 302.7 519.3, 320.8 519.3, 334.7 520.3 L 345.9 521.1 346.2 500.8 C 346.4 489.6, 346.3 478.9, 346 477 L 345.5 473.5 316.5 473.5 L 287.6 473.5 287.9 468.8 C 288.1 464.5, 287.9 464, 286.1 464 C 284 464, 284 464.3, 284 496 M 290.4 465.9 C 290.2 466.1, 290 467.4, 290 468.7 L 290 471 319.3 471.2 L 348.5 471.5 348.8 493.3 L 349 515 351.5 515 L 354 515 353.8 490.8 L 353.5 466.5 322.2 466 C 304.9 465.7, 290.6 465.7, 290.4 465.9 M 514.4 472.2 C 512.7 474.1, 510 479.9, 510 481.8 C 510 482, 512.4 481.9, 515.4 481.6 C 523.7 480.5, 533.7 480.7, 536.1 482 C 538.1 483.1, 538.2 483.8, 537.9 492.1 L 537.5 501 559 501.4 C 570.8 501.6, 584.2 502.1, 588.8 502.5 L 597 503.2 597 496.2 C 597 490.5, 597.4 488.6, 599.5 485.6 C 601 483.4, 601.5 482, 600.7 482 C 600 482, 596.6 481.5, 593 480.9 C 586.5 479.9, 575.8 478.4, 554 475.6 C 547.7 474.8, 538.5 473.4, 533.5 472.5 C 517.1 469.6, 516.7 469.6, 514.4 472.2 M 216.8 474.7 L 188 475 187.4 477.5 C 186.5 481, 187.4 523.7, 188.3 524.7 C 188.8 525.1, 201.8 525.6, 217.3 525.7 C 232.8 525.8, 251.7 526.1, 259.3 526.5 L 273 527.1 273 523.8 L 273 520.5 239.2 520.2 C 209.4 519.9, 194.5 519.1, 191.8 517.4 C 190.8 516.7, 190.8 481.9, 191.8 480.3 C 192.4 479.4, 201 478.9, 224 478.4 C 261.3 477.6, 263.9 477.6, 264.8 478.5 C 265.2 478.9, 265.7 487.2, 265.8 497.1 L 266.2 515 257.8 515 C 244.1 514.9, 197.7 513, 195.8 512.4 C 194.5 512, 194 512.4, 194 513.9 C 194 515.5, 194.6 516, 196.8 516 C 198.3 516, 205.1 516.5, 212 517 C 218.9 517.5, 235.3 518, 248.5 518.1 L 272.5 518.3 272.9 515.4 C 273 513.8, 272.9 503.8, 272.5 493.3 L 271.8 474 258.6 474.2 C 251.4 474.4, 232.6 474.6, 216.8 474.7 M 288.2 496.7 L 288.5 516.5 315.7 516.8 L 342.8 517 343.2 511.3 C 343.4 508.1, 343.6 499.2, 343.5 491.5 L 343.5 477.5 315.7 477.2 L 288 477 288.2 496.7 M 290 497 L 290 515 315.5 515 L 341 515 340.8 497.3 L 340.5 479.5 315.3 479.2 L 290 479 290 497 M 219.8 480.7 L 194 481 194 496.1 C 194 507.7, 194.3 511.1, 195.3 510.8 C 196.1 510.5, 196.7 506.5, 197.2 498.4 C 197.7 491.9, 198.2 486.1, 198.4 485.5 C 198.6 484.9, 209.8 484.5, 229.1 484.5 L 259.5 484.5 259.8 497 L 260.1 509.5 229.8 509.2 C 207.3 509, 199.8 509.2, 200.6 510 C 201.4 510.8, 210.4 511.3, 228.1 511.6 C 242.6 511.9, 256.4 512.2, 258.8 512.4 L 263 512.8 262.8 496.6 L 262.5 480.5 254 480.5 C 249.3 480.4, 233.9 480.6, 219.8 480.7 M 392.3 481.7 C 381.4 482, 380 482.3, 380 483.8 C 380 485.4, 380.8 485.5, 387.8 484.8 C 397.8 483.9, 413.9 483.8, 417.9 484.6 C 423.2 485.7, 424 488.6, 424 506.7 C 424 531.2, 423.4 531.7, 396.3 531.9 C 380.4 532, 379.7 531.7, 378.3 525.2 C 377 519, 377.3 499.5, 378.8 497.8 C 379.9 496.4, 379.7 496.2, 377.8 496.3 C 376.5 496.4, 374.5 496.1, 373.3 495.6 L 371.1 494.9 371.3 515.7 C 371.4 527.2, 371.9 536.8, 372.4 537.2 C 373 537.5, 382.1 537.9, 392.7 538 C 403.4 538, 413.3 538.3, 414.8 538.5 C 416.3 538.8, 420 538.4, 423 537.7 C 430 536.1, 430 536.1, 429.3 504.8 L 428.7 481 416.6 481.2 C 409.9 481.3, 399 481.6, 392.3 481.7 M 432.6 481.9 C 432.2 482.5, 432 495.1, 432.2 510 C 432.5 533, 432.3 537.2, 431 538 C 427.2 540.4, 415 541.2, 392.8 540.7 L 369.9 540.2 370.2 560.8 L 370.5 581.5 386 582.2 C 394.5 582.5, 412.3 583.3, 425.5 583.9 C 455.4 585.2, 468 585.3, 468 584.1 C 468 583.6, 460.2 583, 450.8 582.7 C 431.1 582.2, 387 580.1, 379.5 579.4 L 374.5 578.9 374.3 562.2 C 374.2 550.7, 374.4 546.7, 375 549.5 C 375.5 551.7, 375.9 556.3, 375.9 559.6 L 376 565.8 390.8 566.4 C 398.9 566.7, 410.7 567.5, 417 568 C 423.3 568.5, 437.6 569.2, 448.7 569.5 L 468.9 570.1 469.4 567.8 C 469.7 566.5, 470.2 563.7, 470.5 561.5 C 471.9 552.6, 479.7 539, 488.4 530.5 L 496.5 522.5 496 514.1 L 495.5 505.8 480 505.9 C 466.5 506, 460.4 505.2, 462 503.7 C 462.3 503.4, 472.5 503, 484.7 502.9 C 503.7 502.6, 507 502.3, 507 501 C 507 499.8, 505.7 499.5, 500.3 499.7 C 496.5 499.9, 485.5 500.1, 475.8 500.2 C 454.2 500.6, 455.6 499, 477.8 498 C 486.2 497.6, 493.5 496.9, 494 496.4 C 494.4 495.9, 495 492.5, 495.2 488.8 L 495.6 482 466.5 482 C 450.6 482, 436.5 481.7, 435.4 481.4 C 434.2 481.1, 432.9 481.3, 432.6 481.9 M 651.4 484.5 C 650.4 487, 651.8 487.7, 659.1 488.2 C 667.6 488.9, 668 489.2, 668 498.8 C 668 505.3, 668.2 506, 670 506 C 671.2 506, 674.2 503.3, 677.9 498.8 L 683.9 491.5 679.2 491 C 671.7 490.2, 676.8 489, 687.6 489 C 698.2 489, 697.8 488.7, 698.2 496.9 C 698.4 500.4, 699 502.5, 699.9 502.8 C 700.8 503.1, 701 502.6, 700.7 501.4 C 700.4 500.3, 699.8 496.7, 699.5 493.3 L 698.8 487.2 690.7 486.1 C 683.9 485.2, 657.6 483, 653.2 483 C 652.5 483, 651.7 483.7, 651.4 484.5 M 218.3 486.3 L 200 487.3 200 491.9 C 200 494.4, 199.7 498.9, 199.4 501.8 L 198.7 507 227.9 507 L 257 507 257 496 L 257 485 246.8 485.2 C 241.1 485.3, 228.3 485.8, 218.3 486.3 M 383 491.4 C 383 494, 382.4 496.2, 381.5 497 C 379.4 498.7, 379.4 520.5, 381.4 525.4 C 382.7 528.6, 383.3 528.9, 388.6 529.6 C 396 530.5, 417 528.3, 418.9 526.5 C 421.1 524.4, 421.1 489.3, 419 488 C 418.2 487.5, 409.7 487, 400.3 487 L 383 487 383 491.4 M 645.8 489.8 C 642.5 490.1, 642.1 490.4, 641.8 493.3 L 641.5 496.5 632.5 497 L 623.5 497.5 633.5 498.1 C 644.5 498.7, 646.1 498.5, 645.4 496.6 C 645 495.7, 646.4 495.1, 649.7 494.7 C 656.1 494, 659.8 494.8, 661.5 497.4 C 663.2 499.9, 665 517.3, 665.1 531.5 C 665.2 542.5, 666.5 553.6, 667 547 C 667.4 541.2, 667 527.3, 666 513.5 C 665.4 506.4, 665 499.1, 665 497.4 C 665 492.5, 663.2 491.1, 656 490.2 C 652.4 489.8, 647.8 489.6, 645.8 489.8 M 612.8 490.7 C 607.4 491.5, 605 495.4, 604.9 503.4 C 604.8 520.5, 605.1 564.5, 605.4 564.8 C 606.1 565.4, 683.8 562.2, 685 561.5 C 685.6 561.1, 686 559.9, 685.7 558.9 C 685.3 557.3, 686 557.1, 692.4 556.8 C 698.7 556.5, 699.5 556.3, 699.5 554.5 C 699.5 552.7, 698.7 552.4, 692 552 L 684.5 551.5 684.2 542.7 C 684 535.2, 683.7 533.9, 682.4 534.4 C 681.5 534.7, 680.4 535, 679.8 535 C 679.3 535, 679.1 536.2, 679.5 538 C 680.9 544.3, 677.3 547, 672.3 543.5 L 670.1 541.9 669.8 550.7 L 669.5 559.5 660.5 560.1 C 655.6 560.5, 641.7 561.1, 629.8 561.5 L 608 562.3 607.8 540.4 C 607.8 528.4, 607.7 513.8, 607.6 508.1 L 607.5 497.6 614 496.4 C 617.6 495.7, 625.1 495.1, 630.6 495.1 L 640.7 495 640.2 492.5 L 639.8 490 627.6 490.2 C 621 490.2, 614.3 490.5, 612.8 490.7 M 685.2 494 C 680.3 498.8, 677.5 505.5, 678.8 509.3 L 679.8 512.5 679.9 508.7 C 680 505, 683 497.7, 685 496.5 C 686.5 495.6, 686.3 496.5, 683.9 500.9 C 678.8 510.8, 681 520.9, 688.9 523 C 696.6 525.1, 698.1 523.5, 697.6 513.8 C 697.2 504.8, 695.7 499.6, 693.7 500.2 C 691.8 500.9, 689.7 506, 689.2 511.2 C 688.8 515.5, 689 516, 690.8 516 C 691.9 516, 693.1 516.6, 693.3 517.3 C 693.7 518.2, 694.1 518.1, 694.9 517 C 695.8 515.7, 696 515.7, 696 517.3 C 696 521.1, 687.5 521.6, 685.1 517.8 C 683.7 515.5, 684.6 513.8, 686.1 516 C 686.9 517.1, 687 515.2, 686.7 509.8 C 686.4 505.4, 686.6 501.8, 687.1 501.4 C 687.6 501.1, 687.8 500.5, 687.5 500 C 686.8 498.9, 689.9 496.5, 690.8 497.5 C 691.2 497.9, 690.9 498.5, 690.3 498.7 C 689.6 499, 689 499.6, 689 500.2 C 689 500.8, 689.8 500.6, 690.8 499.7 C 691.8 498.7, 693.3 498, 694.1 498 C 695.2 498, 695.2 497.8, 694.2 497.2 C 693.5 496.7, 693.2 495.6, 693.5 494.8 C 694 493.6, 693.5 493.4, 691.3 493.8 C 688.8 494.3, 688.6 494.2, 689.9 492.7 C 692.4 489.6, 688.4 490.7, 685.2 494 M 62 506.6 C 62 507.9, 63.9 512.8, 67 519.5 C 68.8 523.2, 72.9 534.7, 78.5 551.7 C 81.6 560.9, 84.8 569.9, 85.6 571.7 C 86.4 573.4, 87 575.3, 87 575.9 C 87 576.5, 87.4 577.8, 88 578.8 C 89.3 581.2, 92 591.4, 92 593.9 C 92 596, 88.7 596.9, 87.6 595.1 C 87.3 594.6, 85.9 593.9, 84.5 593.6 C 80 592.5, 67.9 584.6, 66.5 582 C 65.8 580.6, 64.7 577.2, 64.1 574.5 C 62.3 565.8, 60.5 559.2, 59.7 558.4 C 59.3 558, 59 557, 59 556.1 C 59 555.2, 58.3 553.2, 57.5 551.7 C 56.7 550.2, 55.8 547.4, 55.4 545.4 C 55.1 543.5, 54.4 541.7, 53.9 541.4 C 53.4 541.1, 53 539.5, 53 537.8 C 53 535.3, 53.3 535, 54.4 535.9 C 56.1 537.4, 66.9 558.6, 69.5 565.5 C 72.6 574.1, 75 579, 76.2 579 C 77.9 579, 76.5 573.9, 72.4 565.3 C 58.1 534.4, 50.2 523.4, 50.7 534.8 C 50.9 538.7, 55.8 555.1, 58 559.1 C 58.5 560, 59.2 562.4, 59.5 564.4 C 59.9 566.4, 60.6 568.3, 61.1 568.6 C 61.6 568.9, 62 570.1, 62 571.3 C 62 573.2, 61.6 573, 58.8 569.9 C 57 568, 52.7 564.2, 49.2 561.5 C 43.8 557.3, 32.8 545.5, 21.8 532 C 18.9 528.5, 16.6 528.6, 18.8 532.1 C 21.4 536.3, 25.7 544.6, 26.5 546.9 C 28.3 552.7, 34.6 561.4, 42.2 568.6 C 71.5 596.7, 71.8 597, 85.7 606.6 L 89.5 609.3 82.6 608.7 C 74.4 607.9, 70.4 606.5, 54.8 598.8 C 46.4 594.7, 43 592.5, 43 591.3 C 42.9 588.5, 37.9 581.9, 33.1 578.3 C 27.1 573.6, 26.1 574.2, 31.2 579.5 C 33.6 582, 36.9 586.6, 38.6 589.8 C 41.5 595.3, 42.1 595.7, 52.6 601.1 C 67.7 608.8, 74 611, 80.8 611 C 88.9 611, 97.6 613.5, 103.8 617.6 C 106.8 619.6, 109.5 620.9, 109.8 620.6 C 111.2 619.1, 105.7 614.2, 98.4 610.2 C 84.9 602.9, 74.1 595, 60.1 582 C 38.7 562.2, 34.7 558, 31.2 550.8 C 27 542.2, 27.2 541.7, 32.2 548.2 C 37.5 554.9, 41.7 559.1, 50.5 566.1 C 59.1 573, 61.2 575.3, 64 580.7 C 66.8 586.1, 71.4 590.2, 79.3 594.1 C 82.7 595.9, 85.7 597.6, 86 597.9 C 87 599.2, 92.9 601.2, 93.9 600.5 C 96.9 598.7, 92.9 582.7, 84 560.5 C 83 558, 74.6 532, 74.2 530 C 72.8 523.7, 82.5 545.1, 85.5 555 C 86.4 558, 87.5 561.4, 88 562.5 C 91.9 572.3, 93.3 575.6, 96 581.6 C 101.6 593.9, 102.4 595.4, 108.4 603.5 C 114.3 611.4, 124.1 623, 129 628 C 134.3 633.4, 144 641.3, 144.6 640.7 C 145.2 640.1, 144.6 639.4, 135.4 630.9 C 132.7 628.3, 128.1 623.5, 125.2 620.1 L 119.9 614 127 614 L 134.2 614 132.2 610.8 C 131.1 609, 129.5 605.3, 128.5 602.5 C 127.5 599.8, 126.3 597.1, 126 596.5 C 123.6 593.2, 119.5 577.7, 117.9 566.1 C 115.9 551.6, 116.7 541.6, 120.6 534.2 C 121.3 532.7, 122 531.1, 122 530.6 C 122 530.1, 122.9 527.7, 124.1 525.3 C 127.1 519, 126 518.1, 122.8 524.3 C 113.4 542.8, 112.7 547.9, 116.4 572 C 118.4 585.6, 118.9 587.1, 125.8 602.9 L 130 612.3 124.2 611.7 C 117.6 611, 116.5 610, 107.5 596.4 C 100.3 585.5, 94.2 572.2, 88.1 554 C 84.4 543.2, 78.5 530.3, 73.2 521.5 C 71.2 518.2, 68.5 513.4, 67.2 510.9 C 64.9 506.1, 62 503.8, 62 506.6 M 506.2 505.5 C 506.1 506.1, 504 506.4, 501.5 506.2 L 497 505.8 497 513.9 C 497 522.9, 496.8 522.8, 504.3 520.5 C 510 518.8, 529.1 519, 541 520.9 C 560.7 524.1, 575.9 537.9, 582.5 558.8 L 584.2 564 590.4 563.9 C 598.2 563.7, 601.5 562.9, 601.5 561 C 601.5 559.9, 599.9 559.4, 595 559 L 588.6 558.5 587.7 554 C 587.2 551.5, 586.4 549.1, 585.9 548.6 C 583.7 546.2, 585.4 545.7, 594 546.3 L 603 546.9 603.1 537.2 C 603.1 531.9, 603.3 526.6, 603.5 525.5 C 604.7 519.4, 596.1 518.3, 545.7 517.6 C 507.5 517.2, 503 516.9, 505.8 515.1 C 506.7 514.6, 507 512.7, 506.7 509.4 C 506.5 506.7, 506.3 505, 506.2 505.5 M 129 510.5 C 128.3 512.2, 127.6 515.5, 127.4 518 C 127.1 522.8, 124.9 532.8, 123.9 534.5 C 122.7 536.4, 122 542.8, 121.9 550.8 C 121.8 559.2, 125.5 583.8, 127.1 585.5 C 127.6 586, 128 587, 128 587.7 C 128 588.4, 129.6 592.3, 131.5 596.4 C 133.4 600.5, 135 604.2, 135 604.5 C 135 605.6, 139.2 611.1, 139.7 610.7 C 139.9 610.4, 139.4 608.5, 138.6 606.5 C 137.5 603.9, 137 599.9, 137.1 593.6 L 137.2 584.5 138.7 591 C 142.8 608.7, 145.9 616, 158.6 637.2 C 165.4 648.5, 171 658.1, 171 658.4 C 171 660.2, 176.4 669.9, 177.2 669.4 C 177.7 669.1, 177.7 668.4, 177.2 667.7 C 176.7 667, 176 665.2, 175.6 663.5 C 174.1 657.5, 168.8 647.6, 158.5 631.5 C 150.9 619.8, 146.3 610.2, 145.6 604.9 C 144.8 598.7, 142.2 590.2, 140.9 589.4 C 137.5 587.3, 141.7 570.6, 146.8 565.8 L 150.3 562.5 149.4 565.5 C 148.9 567.2, 148.5 571.4, 148.5 575 C 148.5 578.6, 148.1 582.1, 147.6 582.9 C 146.5 584.6, 146.8 602.1, 147.9 603.3 C 148.3 603.7, 149 598.8, 149.4 592.3 C 149.8 585.8, 150.5 577.4, 150.9 573.5 C 151.6 566.8, 151.7 566.7, 151.9 571.5 C 152.1 578, 153.5 575.6, 154.4 567.2 C 155.1 559.5, 153.8 558.5, 148 562.4 C 141 567, 136.5 577.6, 135.1 592.5 C 134.5 598.7, 134.4 599.1, 133.7 596.3 C 133.2 594.5, 132.4 592.8, 131.9 592.5 C 131.4 592.1, 131 591.2, 131 590.3 C 131 589.5, 130.4 587.4, 129.6 585.7 C 127.5 581.3, 126 571.9, 125.9 563.6 C 125.9 558.7, 125.6 557.1, 125 558.5 C 124.4 559.8, 124.1 557.6, 124.1 552 C 124.1 543.3, 124.7 539.3, 127.5 528 C 131.4 512.5, 132.2 503.4, 129 510.5 M 673.6 513.4 C 673.9 515.5, 674.8 518.3, 675.7 519.6 C 677.6 522.5, 676.7 524, 672.9 524 L 670 524 670 532 C 670 537.7, 670.4 540, 671.3 540 C 671.9 540, 673.5 540.3, 674.8 540.6 C 677 541.2, 677 541.1, 676.4 537.1 L 675.7 533 679.3 533 C 681.3 533, 683.2 532.6, 683.5 532 C 683.8 531.5, 687.9 531, 692.6 531 L 701 531 701 527.8 C 701 525.3, 700.7 524.9, 699.8 525.8 C 696.9 528.7, 675.5 525.5, 678 522.5 C 678.6 521.8, 678.2 520.2, 676.8 517.9 C 675.7 516.1, 674.3 513.4, 673.9 512 C 673.2 510.2, 673.2 510.5, 673.6 513.4 M 358.3 549.6 C 358.7 573.4, 359.2 583.6, 360.1 584.6 C 360.7 585.4, 361.1 586.2, 360.9 586.4 C 360.2 587.1, 301.5 584.9, 300.9 584.2 C 300.5 583.8, 299.8 581, 299.2 578 C 296.3 562.5, 290.7 550.1, 282.9 542 C 275.6 534.6, 275.6 537.2, 282.9 546.7 C 286.3 551, 289 555, 289 555.5 C 289 556.1, 289.6 557.7, 290.4 559.1 C 291.1 560.6, 292.7 565.1, 293.9 569.1 C 295.1 573.2, 296.8 578.3, 297.6 580.5 C 298.4 582.8, 298.6 584.8, 298.1 585.3 C 296.5 586.9, 295.2 585.1, 294 579.7 C 289.8 559.6, 282.6 546.9, 271.2 539.3 L 265.5 535.5 254.5 535.5 C 240.6 535.5, 234.1 538.4, 224.8 548.5 C 219.2 554.6, 214.4 570.3, 215.2 579.7 C 215.7 585.5, 218 585.2, 218 579.3 C 218 564.8, 227 549.2, 238.7 543.4 C 244.5 540.5, 259.8 540.8, 266.3 543.8 C 276.2 548.5, 283.9 558, 288 570.5 C 289.2 574.4, 291 579.7, 291.9 582.3 L 293.6 587.1 328.1 587.6 L 362.6 588.2 362.7 553.3 L 362.8 518.4 360.2 517.2 L 357.7 516 358.3 549.6 M 348.1 520.6 C 347.1 523.3, 346.4 524, 345.2 523.4 C 343.2 522.5, 297.2 521.9, 291.9 522.7 C 288.8 523.1, 288.2 523.6, 288.4 525.5 L 288.5 527.7 320.2 528.5 C 337.6 528.9, 352.3 528.9, 352.9 528.5 C 353.5 528.2, 354 525.4, 354 522.4 C 354 517.4, 353.8 517, 351.7 517 C 350 517, 349.1 517.9, 348.1 520.6 M 510.7 522.5 C 495.4 525.6, 483.4 536.9, 475.7 555.3 C 471.7 564.9, 470.1 593, 473.8 589.7 C 475.4 588.2, 475.9 586.1, 476.5 578.2 C 477.7 561.5, 481.2 551.6, 489.4 542.3 C 498.9 531.5, 509.5 527.5, 528.5 527.5 C 554.7 527.5, 563.7 533.3, 574.4 557.1 C 580 569.6, 583.1 570.6, 579.4 558.7 C 573.6 539.6, 560.1 526.9, 541.7 523.2 C 531.2 521.2, 518.6 520.9, 510.7 522.5 M 583 526.3 C 576 528.7, 575.6 538.6, 582.3 541.8 C 586.1 543.6, 598.5 544.6, 599.4 543.1 C 599.8 542.5, 599.6 542, 599.1 542 C 598.5 542, 598 540.8, 598.1 539.3 C 598.1 536.8, 598.2 536.7, 599 538.5 C 599.6 540, 599.9 539, 599.9 535 C 600 528.2, 599.3 527.1, 594.4 526 C 589.4 524.8, 587.3 524.8, 583 526.3 M 188 538 C 188 543.2, 188.3 549.1, 188.6 551.2 L 189.2 554.8 198.6 555.2 C 204.5 555.4, 208.4 556, 209.2 556.8 C 210.1 557.7, 210.6 562.3, 210.8 571.5 C 211.1 580.1, 211.6 585, 212.2 585 C 213 585, 213.1 580.4, 212.7 570.8 C 212.3 561.7, 212.4 557.6, 213 559.4 C 213.5 561, 213.7 562.7, 213.4 563.1 C 213.2 563.5, 213.4 564.1, 214 564.5 C 214.6 564.8, 215 564.1, 215 562.8 C 215 556.7, 223.1 544.9, 231.2 539 L 234.9 536.3 222.8 535.7 C 216.1 535.3, 206.9 535, 202.3 535 L 194 535 194 540.8 C 194 544.4, 193.4 547.4, 192.5 548.6 C 191.2 550.3, 191.1 549.4, 191.1 540 C 191.1 530.8, 191.2 529.7, 192.5 531.3 C 193.8 533.1, 195.9 533.1, 230.8 532.8 L 267.8 532.5 270.4 534.9 L 273 537.3 273 533.8 L 273 530.2 266.8 529.6 C 263.3 529.3, 244.2 528.9, 224.3 528.8 L 188 528.5 188 538 M 584.4 529 C 578.5 530.8, 579.3 537.8, 585.6 540.5 C 592.8 543.5, 595.5 542.3, 596.6 535.4 C 597.5 529.4, 592.2 526.7, 584.4 529 M 282.6 531.5 C 281.4 534.7, 282 536.6, 286 541.4 C 292.6 549.4, 299.5 565.6, 301.5 577.6 L 302.1 581.7 321.8 582.4 C 332.6 582.7, 344.8 583.3, 348.8 583.7 L 356 584.3 356 572.3 C 356 565.7, 355.7 555.5, 355.3 549.7 L 354.7 539 325 539 C 294.7 539, 286 538.5, 286 536.7 C 286 536.1, 297.8 536, 320.6 536.5 L 355.1 537.2 354.8 534.2 L 354.5 531.2 318.9 530.5 C 286.5 530, 283.2 530, 282.6 531.5 M 686.7 534.7 C 686.3 535, 686 536.4, 686 537.7 C 686 539.9, 686.3 540, 693.5 540 L 701 540 701 537 L 701 534 694.2 534 C 690.4 534, 687 534.3, 686.7 534.7 M 521 547.9 C 510.9 551.2, 502.3 559.1, 497.1 570 C 493.6 577.3, 493.5 577.8, 493.5 589.5 C 493.5 609.4, 500.9 622.8, 515.8 629.7 C 526.5 634.7, 545.3 631.9, 552.7 624.1 C 564.7 611.6, 566.9 585.6, 557.1 571.9 C 548 559.2, 539.7 554, 528.3 554 C 524.4 554, 520.9 554.4, 520.6 554.9 C 520.3 555.4, 518.4 556.1, 516.5 556.4 C 514.6 556.8, 513 557.5, 513 558 C 513 558.5, 512.1 559.2, 511 559.5 C 508.6 560.3, 501.7 569.2, 500.2 573.5 C 499.6 575.2, 499.1 575.9, 499.1 575.2 C 498.8 569.9, 508.6 558.3, 516.5 554.5 C 525 550.5, 536.2 551.4, 544.8 556.7 C 549.8 559.8, 558.7 569.6, 561 574.6 C 562.2 577.3, 563.8 580.6, 564.4 581.9 C 567.6 588.8, 565 610.5, 559.9 620.3 C 557.4 624.8, 558.7 625, 563.5 620.9 C 571.6 613.7, 574.9 604, 573.1 592.5 C 569.8 572.3, 560.9 557.5, 547.6 550.4 C 542.2 547.5, 526.7 546, 521 547.9 M 250.5 553.9 C 239.5 555.8, 231.4 565.3, 229.6 578.5 C 229.2 581.3, 228.4 584.7, 227.9 586.2 C 226.2 590.4, 229.2 602.8, 233.4 609.4 C 239.8 619.4, 247.2 623.3, 260 623.4 C 270 623.4, 274.6 621.5, 281.5 614.6 C 287.4 608.7, 293.3 592, 290.2 590.1 C 289.6 589.8, 287.7 585.6, 286 581 C 278.2 559.8, 266.8 551.1, 250.5 553.9 M 645.5 556.1 C 634 556.4, 621.2 556.8, 617.3 556.9 C 613.3 556.9, 610 557.3, 610 557.8 C 610 558.8, 665.3 558, 666.4 556.9 C 667.9 555.5, 667.5 555.5, 645.5 556.1 M 196.8 558.5 C 196.6 558.7, 193.6 559.1, 190.1 559.4 C 183.3 559.9, 182.4 560.3, 183.5 561.9 C 184.4 563.4, 206.7 563.4, 207.6 561.9 C 208.7 560.1, 206.6 559, 201.7 558.6 C 199.2 558.4, 196.9 558.4, 196.8 558.5 M 247.3 564.6 C 238.3 569.1, 233.4 584.7, 236.9 597.7 C 240.2 609.9, 257.6 617.1, 268 610.5 C 280.8 602.4, 282.3 591.2, 273.2 572.1 C 269.4 564.2, 255.9 560.2, 247.3 564.6 M 525.5 563.9 C 513.5 567.8, 506 580.2, 505.7 596.5 C 505.6 605.8, 506.8 608.8, 513 614.4 C 518.4 619.3, 521.1 620.2, 529.6 620.3 C 548.3 620.4, 560 603.6, 554.5 584.5 C 549.9 569, 537.3 560, 525.5 563.9 M 707 564.7 C 700.1 564.8, 683.3 565.5, 669.5 566.1 C 655.8 566.8, 630.8 567.6, 614 567.9 L 583.5 568.5 583.5 579.8 C 583.5 594.5, 581.2 595, 578 580.8 C 576.7 575.2, 576.8 575, 579.1 573.1 C 581.8 570.8, 580.8 570.5, 576.1 572.1 C 572.3 573.4, 572.3 574.3, 576.2 586.3 L 578.4 593 587 593 C 591.8 593, 602.6 592.6, 611.1 592 C 619.6 591.5, 635.7 590.6, 647 590 C 658.3 589.4, 669.5 588.7, 672 588.5 C 674.5 588.3, 681 587.8, 686.5 587.5 C 696.4 586.9, 712.5 585.4, 718.8 584.4 C 720.8 584.1, 722 583.3, 722 582.3 C 722 581.3, 721.5 581, 720.3 581.5 C 719.3 581.9, 714 582.6, 708.5 583.1 C 703 583.6, 694.5 584.4, 689.5 585 C 684.6 585.5, 674.4 586.2, 667 586.5 C 659.6 586.8, 651 587.3, 648 587.5 C 645 587.8, 632.4 588.4, 620 589 C 607.6 589.5, 595.1 590.2, 592.3 590.4 L 587 590.9 587 582.7 C 587 568.7, 579.4 570.4, 644.9 569.7 C 681.5 569.3, 704.2 568.6, 708.7 567.8 C 712.7 567.2, 716.5 567, 717.6 567.5 C 719.1 568.1, 718.2 568.5, 714 569.1 C 710.7 569.5, 708.1 570.5, 707.3 571.6 C 706.1 573.3, 705.9 573.3, 704.7 571.6 C 703.5 570, 701.9 569.9, 679.5 570.9 C 666.3 571.5, 652.9 572, 649.8 572 L 644 572 644 578.4 C 644 582, 644.3 585.1, 644.8 585.3 C 646.1 586, 700 581.8, 712.8 580 C 716.3 579.5, 719.8 579.4, 720.6 579.7 C 721.7 580.1, 722 578.7, 722 572.1 C 722 566.2, 721.7 564.1, 720.8 564.2 C 720.1 564.3, 713.9 564.5, 707 564.7 M 183 573.4 C 183 578.1, 183.3 582.1, 183.8 582.3 C 184.2 582.6, 189.9 582.9, 196.5 583.1 L 208.5 583.5 208.8 579.5 C 209 577.3, 208.9 573.1, 208.5 570.3 L 207.9 565 195.4 565 L 183 565 183 573.4 M 248 566.9 C 241.3 570.4, 238.6 576.1, 238.5 586.5 C 238.5 598.6, 241.8 604.7, 250.7 608.6 C 257.9 611.7, 268.7 609, 273.1 602.9 C 276.7 597.8, 278.4 589.6, 276.5 586.1 C 275.7 584.4, 275 582.4, 275 581.6 C 275 580.7, 274.6 580, 274.1 580 C 273.6 580, 273.6 581.6, 274 583.7 C 275.9 591.9, 269.3 606, 263.6 606 C 262.7 606, 261.1 606.6, 260 607.2 C 258.4 608.2, 257.6 608.2, 256 607.2 C 254.9 606.6, 253.2 606, 252.3 605.9 C 251.3 605.9, 251 605.6, 251.7 605.4 C 252.5 605, 251.7 603.6, 249.5 601.4 C 245.6 597.5, 242.7 591.4, 243.5 589.1 C 243.8 588.1, 243.4 588.2, 242.4 589.5 C 239.8 592.7, 241.3 578.9, 244 574.5 C 250.5 563.9, 266.9 565.4, 272 577 C 273 579.5, 273 579.5, 272.5 576.7 C 270.6 567, 257.5 561.8, 248 566.9 M 526 567.2 C 519.7 569, 513.2 575.2, 511.5 581 C 511.1 582.6, 511.9 581.9, 513.7 579 C 519.9 569.5, 532.6 565.2, 538.2 570.7 C 540.7 573.3, 539.9 575.1, 537.3 572.7 C 534.8 570.5, 530 568.8, 530 570.1 C 530 570.7, 530.9 571.4, 532 571.7 C 533.1 572, 534 572.6, 534 573 C 534 574.8, 540.5 577.7, 542.2 576.6 C 543.5 575.8, 544.3 576.1, 545.9 577.9 C 548.4 580.8, 548.5 581.9, 546.5 582.6 C 543.9 583.6, 544.7 587.9, 547.5 588.6 C 550 589.2, 551 592.3, 549 593.5 C 548.5 593.8, 548 595.2, 548 596.6 C 548 598.1, 547.4 599, 546.5 599 C 545.4 599, 545 597.9, 545 595.4 C 545 581.5, 534.2 571.9, 523.9 576.6 C 518.8 578.8, 516.6 582, 517.4 585.7 C 517.9 587.7, 517.8 588.1, 517.1 587 C 515.5 584.6, 514.5 586.8, 514.5 593 C 514.5 597.2, 515 599.3, 516.3 600.8 C 517.5 602.1, 517.7 602.9, 517 603.2 C 515.3 603.7, 516.8 606.5, 520.3 609 C 525.1 612.6, 538 613.1, 539.3 609.8 C 539.6 608.8, 537.8 608.5, 532.1 608.5 C 524.4 608.5, 517.5 606, 518.3 603.5 C 518.5 603, 517.9 600.9, 516.8 599 C 515.8 597.1, 515.1 594.2, 515.1 592.5 C 515.2 590.4, 515.4 590.1, 515.7 591.5 C 516 592.6, 516.6 593.9, 517.1 594.5 C 517.6 595, 518 596.1, 518 597 C 518 600.7, 524.6 604.3, 533.3 605.5 C 537.8 606.1, 538.3 605.9, 541.1 602.9 C 543.8 600, 544.2 599.8, 545.7 601.3 C 547.6 603.2, 546.8 606, 544.1 606.7 C 543 607, 542 608.1, 541.7 609.1 C 541.3 610.7, 541.5 611, 543.2 610.4 C 546.8 609.3, 544.1 612.1, 539.6 614.1 C 528.1 619.3, 511.6 611.8, 509.4 600.3 C 509.1 598.5, 508.4 597, 507.9 597 C 506.8 597, 507.9 602.7, 509.7 606.2 C 510.9 608.8, 514.3 612.4, 518.6 616 C 520.9 617.9, 532.7 618.6, 537.3 617.1 C 542.3 615.4, 549.3 609.2, 548.7 606.9 C 548.4 605.7, 548.7 605, 549.5 605 C 552.7 605, 552.6 585.6, 549.4 578.9 C 546.6 573.3, 542 569.1, 536.6 567.5 C 531 565.8, 530.8 565.8, 526 567.2 M 377 571.9 C 377 574.1, 377.4 576.2, 378 576.5 C 379.1 577.2, 441.3 579.9, 457.3 580 L 468 580 468 576.2 L 468 572.3 458.3 571.7 C 452.9 571.3, 444.6 571, 439.9 571 C 435.2 571, 426.7 570.6, 420.9 570.1 C 415.2 569.5, 403 568.9, 393.8 568.6 L 377 568 377 571.9 M 254.5 571.8 C 245 575.1, 242.9 591.7, 250.9 599.4 C 254.7 603, 261.7 604.1, 265.5 601.6 C 274.3 595.8, 274.4 579.2, 265.7 573.5 C 262.8 571.6, 257.4 570.8, 254.5 571.8 M 590 580.2 L 590 588 596.3 588 C 606.3 587.9, 634.2 586.2, 637.8 585.4 C 641 584.8, 641 584.7, 641 578.5 L 641 572.3 615.5 572.4 L 590 572.5 590 580.2 M 164 577.8 C 157.1 588.8, 152.5 604.1, 156 604.7 C 157.1 605, 157.6 603.9, 157.7 600.4 C 157.9 595.7, 159 592.8, 163.7 583.5 C 168.8 573.6, 169.4 576.7, 164.5 587.3 C 160.3 596.5, 159.1 599.9, 160 600.5 C 161.1 601.2, 162.5 598.6, 163.5 594.3 C 164.8 588.1, 166.3 590.6, 165.6 597.8 C 165.3 601.7, 165.4 605.1, 166 606 C 166.7 607.1, 167 606, 167 602 C 167 599, 167.7 592.9, 168.5 588.5 C 171.3 573.2, 169.5 569, 164 577.8 M 269.1 588.3 C 269.1 589.8, 269.1 591.1, 269.3 591.3 C 269.8 591.9, 264 597.3, 263.4 596.7 C 263 596.3, 262.1 596.5, 261.3 597.1 C 260.4 598, 260 597.9, 260 597.1 C 260 596.4, 259.1 596.2, 257.5 596.6 C 255 597.2, 251 594.2, 251 591.8 C 251 591.4, 250.6 591, 250 591 C 249.5 591, 249 591.8, 249 592.8 C 249.1 599.1, 261.8 602.6, 267.7 597.8 C 269.6 596.3, 270.7 591.7, 269.9 588.5 L 269.2 585.5 269.1 588.3 M 341 591.7 L 306.4 592 305.2 596.5 C 303.9 601.5, 300.6 607.2, 295.2 613.9 L 291.7 618.2 303.6 617.6 C 310.1 617.2, 335.3 616.8, 359.6 616.7 C 402.7 616.5, 403.6 616.5, 400.7 614.7 C 394.9 611.1, 387.4 602.6, 385 596.8 C 382.7 591.2, 382.5 591, 379.1 591.2 C 377.1 591.4, 360 591.6, 341 591.7 M 414.3 592.3 C 413.9 592.9, 413 595.1, 412.5 597 C 411.2 601.3, 407.4 603, 402.9 601.3 C 398.7 599.7, 399.5 601.7, 404.5 605.1 C 417.5 614, 434.4 616.7, 443.9 611.4 C 448.3 609, 455 601.4, 455 598.9 C 455 597.7, 444.6 598.1, 433.2 599.6 C 425.9 600.6, 422.3 599.4, 419.5 595 C 416.9 590.8, 415.7 590.2, 414.3 592.3 M 191 594.4 C 191 595.1, 191.7 596.3, 192.5 597 C 193.3 597.7, 193.7 598.6, 193.4 599.1 C 193.1 599.6, 193.8 600, 194.9 600 C 196.1 600, 197 599.6, 197 599 C 197 598.4, 200.3 598, 205 598 C 211.2 598, 213.2 597.7, 213.6 596.5 C 214 595.7, 214.8 595, 215.5 595 C 216.3 595, 217.1 594.7, 217.3 594.3 C 217.6 593.8, 213.1 593.5, 207.4 593.5 C 199.8 593.5, 197 593.8, 197 594.8 C 197 595.4, 196.3 596, 195.5 596 C 194.7 596, 194 595.3, 194 594.5 C 194 593.7, 193.3 593, 192.5 593 C 191.7 593, 191 593.6, 191 594.4 M 660 597.4 C 656.9 605.6, 655.2 608.5, 651.3 612.1 C 636.2 626, 613 622.3, 602.8 604.4 C 600.1 599.5, 599.5 599, 596.4 599 C 592.4 599, 592.1 600.5, 594.6 606.6 C 599.2 617.7, 611.1 627.4, 623.6 630.4 C 636 633.4, 653.1 628.8, 662.7 619.8 C 667.4 615.4, 673.3 598.8, 670.9 596.7 C 670.7 596.4, 668.3 596, 665.7 595.7 C 661.4 595.3, 660.8 595.5, 660 597.4 M 18 597 C 18 597.6, 18.8 598.3, 19.8 598.6 C 23.6 599.8, 25.8 601.4, 33 607.6 C 40.9 614.5, 43.9 614.6, 37.4 607.8 C 30.5 600.6, 24 596, 20.9 596 C 19.3 596, 18 596.5, 18 597 M 585.2 609.3 C 584.7 609.9, 583.1 612.8, 581.7 615.5 C 580.3 618.3, 577.7 621.9, 576.1 623.7 C 574.4 625.5, 573 627, 573 627.2 C 573 627.4, 579.2 627.6, 586.8 627.7 C 594.3 627.9, 602.1 628.2, 604 628.5 L 607.5 629.1 603 625.1 C 600.5 622.8, 598.2 621, 597.8 621 C 597.3 621, 597 620.6, 597 620 C 597 619.5, 595.3 616.6, 593.3 613.6 C 589.5 608.1, 587.2 606.8, 585.2 609.3 M 174.9 609.5 C 174.8 609.8, 174.7 610.6, 174.6 611.3 C 174.5 612.1, 171.8 612.6, 165.5 612.8 C 155.3 613.1, 152.3 613.7, 155.5 615 C 157.6 615.8, 181.6 615.3, 183.1 614.4 C 184.6 613.5, 184.1 612, 182.2 612 C 181.2 612, 179.5 611.3, 178.4 610.5 C 176.4 609, 175.1 608.6, 174.9 609.5 M 55.7 617.1 C 42.9 624.8, 35.8 634.2, 39.7 638.2 C 43.1 641.5, 52 636.8, 53.5 630.8 C 54.2 628.2, 54 628.3, 50 632.1 C 45.9 636, 41 637.4, 41 634.7 C 41 631, 59.3 616, 63.8 616 C 67.4 616, 66.2 623.9, 61.3 632.1 C 57.5 638.5, 57.4 640.8, 61.2 636.5 C 64.7 632.5, 69 624, 69 621 C 69 618.1, 65.6 613, 63.7 613 C 63 613, 59.4 614.8, 55.7 617.1 M 452 627.7 C 447.9 627.9, 444.1 628.6, 443.5 629.2 C 442.8 629.9, 445.4 630.1, 452.5 629.6 C 458 629.3, 468.4 629, 475.5 628.9 C 483.7 628.8, 487.4 628.5, 485.5 628 C 482.5 627.2, 465.8 627.1, 452 627.7 M 325 631.1 C 286.3 632.8, 256.3 634.2, 246.5 634.9 L 236.5 635.5 243.1 636.4 C 246.8 636.8, 251.8 636.9, 254.1 636.6 C 256.5 636.2, 270.9 635.5, 286 635 C 301.1 634.5, 321.8 633.6, 332 633 C 342.2 632.5, 363.1 632, 378.5 631.9 C 395.1 631.9, 405.7 631.5, 404.5 631 C 402 629.9, 351.3 630, 325 631.1 M 569 630.9 C 567.9 631.7, 570.2 632, 577.5 632 C 583 632, 594 632.2, 602 632.5 C 612.7 632.9, 615.7 632.7, 613.5 632 C 609.2 630.5, 570.9 629.6, 569 630.9 M 184.1 635.4 C 182.9 637.2, 182 639.4, 182 640.3 C 182 641.2, 181.6 642.2, 181 642.5 C 180.5 642.8, 180 644.7, 180 646.6 C 180 648.5, 180.5 650, 181 650 C 181.6 650, 182 648.5, 182 646.6 C 182 644.7, 182.4 642.9, 182.9 642.5 C 183.4 642.2, 184.1 640.7, 184.5 639.1 C 184.8 637.5, 185.8 635.6, 186.6 635 C 189.3 632.7, 189.2 636.7, 186.1 649 C 183 661.4, 182.3 667, 183.9 667 C 185.5 667, 186.1 664.8, 190.2 643.3 C 192.1 633.2, 188.4 628.3, 184.1 635.4 M 14.3 636.5 C 13.5 638.8, 14.6 647, 15.9 648.3 C 16.7 649.1, 17 647.9, 17 643.7 C 17 630.3, 22.2 641.5, 23 656.5 L 23.5 667.5 26.1 663.5 C 34.8 650.2, 51.1 640.8, 50.2 649.5 C 49.8 653.2, 47.5 658.5, 44.3 662.7 C 43 664.4, 41.6 667.5, 41.3 669.5 C 40.7 673, 40.8 673.2, 42.7 672.1 C 44.4 671.3, 45.7 671.5, 49.4 673.4 C 52 674.7, 54.3 675.4, 54.5 675 C 55.7 673.1, 53.6 671.2, 49 670 C 43.3 668.5, 43.1 667.9, 46.3 663.6 C 60.6 644.7, 49.6 635.3, 32.9 652.1 L 26.3 658.8 25.6 651.8 C 24.7 642.3, 20.9 635, 16.8 635 C 15.8 635, 14.7 635.7, 14.3 636.5 M 114.3 636.3 C 112.3 638.8, 111.8 641.9, 110.9 658.5 C 110.4 667.9, 109.7 676.9, 109.4 678.5 C 108.8 681.3, 108.9 681.4, 110.4 679.9 C 111.7 678.7, 112.4 674.2, 113.5 658 C 114.3 646.8, 115.3 637.3, 115.8 636.8 C 116.3 636.3, 117.9 636.4, 119.4 637 C 123.3 638.4, 124.5 638.3, 123 636.5 C 121.5 634.7, 115.6 634.5, 114.3 636.3 M 65.7 643.4 C 61 648.5, 52.4 668, 54.8 668 C 55.7 668, 56 667.5, 61.8 655 C 66 645.9, 68 643.4, 70.6 644.4 C 73.1 645.4, 71.9 654.2, 68.1 662.3 C 63.7 671.7, 64.5 674.3, 69.3 665.9 C 74.6 656.4, 76.1 646.5, 72.7 642.3 C 71.2 640.3, 68.1 640.8, 65.7 643.4 M 205.4 647.8 C 201.5 651.5, 191.8 665.1, 192.6 665.9 C 193.3 666.7, 196.2 663.5, 200.1 657.8 C 209.6 643.8, 216 643.6, 209.4 657.4 C 208 660.4, 207 663.9, 207.2 665.2 C 207.6 667.4, 207.7 667.4, 208.4 665.5 C 210.4 660.3, 212.1 657, 213 656.5 C 215.4 655, 213.3 644, 210.7 644 C 210 644, 207.6 645.7, 205.4 647.8 M 89.1 646.4 C 88.5 647.2, 87.4 651.1, 86.6 655.1 C 85.9 659.2, 84.3 664.8, 83.1 667.5 C 80.6 673.1, 79.4 672.7, 76.8 665.3 C 75.5 661.8, 74 660.9, 74 663.6 C 74 665.9, 80.3 676.1, 81.5 675.7 C 82 675.5, 83.3 673.1, 84.4 670.4 C 85.4 667.7, 86.6 664.6, 87.1 663.5 C 87.6 662.4, 88.4 658.8, 89 655.6 C 89.5 652.3, 90.2 649.4, 90.5 649.1 C 93.5 646.1, 102.3 664.7, 104.5 678.7 C 105.2 683, 106.4 684.8, 107.4 683.1 C 108 682.1, 103.6 664.2, 102.1 661.2 C 101.6 660.3, 100.2 657.5, 99 655 C 96.9 650.6, 92.3 645, 90.9 645 C 90.6 645, 89.7 645.6, 89.1 646.4 M 122.5 649.3 C 119.6 658, 119 660.4, 119 662.4 C 119 663.7, 118.6 666, 118.1 667.6 C 117.6 669.2, 116.9 673.6, 116.7 677.3 C 116.1 686.1, 118.4 682.6, 119.3 673.4 C 120.1 665.3, 122.5 654.1, 123.7 652.9 C 124.8 651.8, 128.4 657.2, 135.7 671 C 143.4 685.5, 149 703.2, 149 712.8 C 149 715.6, 149.4 717, 150.1 716.8 C 152 716.2, 154.4 707.9, 159.7 684.5 C 160.5 680.7, 162 675.3, 163 672.5 C 164.7 667.6, 164.8 667.6, 165.9 670 C 168 674.7, 174 700.3, 174 704.5 C 174 709, 176.5 713.7, 177.3 711 C 177.6 710.2, 178.1 707.2, 178.4 704.3 C 178.7 701.5, 179.3 698.3, 179.9 697.3 C 180.4 696.3, 182.7 691.6, 184.8 686.9 C 187 682.1, 189.3 677.9, 190 677.5 C 190.8 677, 191.1 677.2, 190.7 678.1 C 190.4 678.9, 189.6 681.3, 189 683.5 C 188.3 685.7, 187.4 688.4, 187 689.5 C 186.5 690.6, 185.2 694.9, 184 699 C 182.8 703.1, 181.2 708.2, 180.4 710.3 C 179.2 713.5, 179.2 714, 180.5 714 C 181.4 714, 182.5 711.9, 183.5 708.3 C 184.4 705.1, 185.5 701.6, 186 700.5 C 186.5 699.4, 187.8 695.1, 189 691 C 190.2 686.9, 191.5 682.5, 192 681.4 C 193.4 677.8, 194.3 670, 193.3 670 C 191.3 670, 179 690.9, 179 694.3 C 179 694.6, 178.5 696.1, 177.9 697.7 C 176.8 700.3, 176.6 699.8, 174.4 690.5 C 171.8 678.9, 168.9 670, 167.9 670 C 167.5 670, 166.9 668.7, 166.5 667 C 164.5 658, 160 669.4, 153.4 699.8 L 151.6 708.2 149.5 698.8 C 147.1 688.3, 139.6 671.8, 130.6 657.3 C 125.1 648.3, 123.4 646.6, 122.5 649.3 M 346.4 659.9 C 331.7 668.4, 322.1 686.8, 320.3 710.2 L 319.7 717.9 315.4 713.6 C 310.9 709, 299 702.7, 288.6 699.2 C 277.5 695.5, 277.8 697.8, 290 710.5 C 294.7 715.5, 299.5 721, 300.5 722.8 C 302.4 726, 304 727, 304 724.9 C 304 723.1, 298.2 715.2, 291.8 708.4 C 285.8 702, 284.9 699.6, 289.3 701.8 C 290.5 702.4, 294 703.9, 297 705.1 C 309.5 710.3, 318 717.7, 320.1 725.2 C 321.9 732.2, 323 729.3, 323 716.9 C 323 701.9, 326.2 689.5, 333.1 677.4 C 338.8 667.3, 354.4 654.9, 349.5 664.3 C 347.2 668.8, 343.1 681.7, 339.4 695.9 C 334.9 713.5, 334.8 723.5, 339.3 712.7 C 342 706.1, 349.6 698.2, 363.2 687.9 C 370 682.8, 375.7 678.3, 376 678 C 376.3 677.7, 378.2 676.3, 380.4 675 C 386 671.6, 384.5 674.1, 373.7 686 C 371.9 687.9, 370.6 689.9, 370.8 690.4 C 371 690.9, 370.7 691.6, 370.3 691.9 C 369.8 692.2, 368.3 694.3, 367 696.5 C 365.7 698.7, 364.4 700.7, 364.1 701 C 362.7 702.2, 359.2 709.8, 358.5 713 C 358.1 714.9, 357.1 717.4, 356.4 718.6 C 353.9 722.3, 356.1 721.9, 361.8 717.6 C 370.6 711, 382.4 704.5, 396.5 698.6 C 398.7 697.7, 401.2 696.5, 402 696.1 C 402.9 695.6, 405.1 694.9, 407 694.5 C 408.9 694.1, 411 693.4, 411.5 693 C 412.1 692.6, 414.1 691.9, 416 691.5 C 417.9 691.1, 420.1 690.4, 421 689.9 C 429.7 685.2, 432.5 685.3, 429.6 690 C 427.4 693.8, 427.8 693.8, 433.1 689.5 C 435.5 687.6, 437.9 686, 438.3 686 C 438.8 686, 440.6 685.4, 442.3 684.6 C 447.4 682.4, 459.1 679, 461.9 679 C 464.7 679, 462.8 680.1, 452.5 684.5 C 450.3 685.5, 445.8 687.5, 442.5 689.1 C 434.1 693, 430.7 694.4, 429 694.5 C 427.7 694.6, 425.2 695.6, 415.5 700 C 414.4 700.5, 411 701.9, 408 703 C 405 704.1, 401.6 705.5, 400.5 706 C 399.4 706.5, 396.7 707.6, 394.5 708.6 C 388.6 711.2, 374.2 719.8, 368.7 724.1 C 366.1 726.2, 362.5 728.2, 360.7 728.5 C 356.5 729.3, 348.8 732.1, 347.6 733.2 C 346 734.5, 350 734.1, 357.9 732 C 363.9 730.4, 368.6 730, 381.6 730 C 390.6 730, 398.1 729.6, 398.5 729.1 C 399.3 727.7, 387.4 726.7, 376.5 727.2 C 371.3 727.4, 367.3 727.3, 367.8 726.9 C 369.9 724.7, 390.7 712.9, 398 709.6 C 411.8 703.4, 412.8 703, 413.9 703 C 414.5 703, 415.8 702.6, 416.8 702 C 419.5 700.6, 425.2 698.2, 428 697.5 C 430.2 696.9, 433.2 695.7, 439.5 693 C 440.6 692.5, 447.4 689.3, 454.5 686 C 470.3 678.5, 474.3 677, 478.6 677 C 481 677, 482 676.5, 482 675.4 C 482 672.4, 465.9 674.9, 447.2 680.8 C 441 682.8, 435.7 684.7, 435.4 685.2 C 434.5 686.7, 432.8 686, 433.4 684.4 C 434 682.8, 429.6 683.2, 426 685.1 C 423.2 686.6, 417.5 688.8, 411 690.9 C 407.4 692.1, 403.6 693.4, 402.5 693.9 C 401.4 694.4, 398.3 695.6, 395.5 696.5 C 389.2 698.7, 371.4 707.5, 367.5 710.4 C 365.9 711.6, 363.2 713.4, 361.6 714.4 L 358.7 716.2 359.4 713.4 C 359.8 711.8, 360.6 710.4, 361.1 710.2 C 361.6 710, 362 709.4, 362 708.8 C 362 707.2, 369 697.1, 375.4 689.5 C 385.7 677.2, 391.2 668, 388.3 668 C 385 668.1, 356.6 688.5, 346.8 697.8 C 343.6 700.8, 341 702.8, 341 702.2 C 341 697.7, 348.6 672.1, 351.7 666 C 353.1 663.2, 353.4 658.4, 352.2 657.6 C 351.7 657.3, 349.2 658.4, 346.4 659.9 M 647.9 669.4 C 647.7 669.6, 642.1 670.3, 635.5 670.9 C 628.9 671.6, 622.2 672.5, 620.5 673 C 617.7 673.8, 608.6 675.6, 601.3 676.7 C 599.5 677, 598 677.7, 598 678.2 C 598 678.8, 599.1 678.9, 600.8 678.5 C 616.7 674.2, 650.7 671.1, 686.5 670.9 C 699.7 670.7, 702.9 670.5, 698.5 670 C 692.3 669.2, 648.7 668.7, 647.9 669.4 M 66 686.6 C 65.4 688, 65 691.6, 65 694.6 C 65 700.8, 63.4 701.8, 61 696.8 C 60.2 695, 59 693.4, 58.3 693.2 C 57.7 693, 58.3 695.2, 59.7 698.2 C 61.9 702.8, 62.2 704.4, 61.8 711 C 61.1 723, 60.3 723.4, 53.9 714.8 C 47 705.5, 44.6 704.9, 38.9 711.1 C 35.2 715.1, 35 715.2, 35 712.8 C 35 706.8, 39.2 697.8, 44.9 691.8 C 49.3 687.1, 48.3 685.4, 41.6 686.4 C 35.7 687.3, 34.6 689, 40 689 L 44.1 689 40.2 694.3 C 35 701.3, 33 707.9, 33 718.4 C 33 725.1, 33.3 727, 34.4 727 C 35.3 727, 36 725.4, 36.4 722.6 C 37.1 718, 40.3 712.5, 43.3 710.6 C 45.7 709.1, 47.4 710.4, 53.7 718.1 C 56.6 721.6, 59.4 724.5, 60 724.5 C 62.3 724.5, 64.1 716.4, 67 694.2 C 67.9 686.9, 68.9 685.3, 71.8 686.9 C 74.5 688.3, 76.7 692, 77.5 696.4 C 78.4 700.7, 80 701.2, 80 697.1 C 80 687.5, 68.8 679.1, 66 686.6 M 107.5 695.3 C 99 705.6, 93.6 713.4, 92.6 716.8 C 91.5 720.2, 93.7 719.5, 95.6 715.8 C 98.7 709.9, 108 697.9, 108 699.9 C 108 700.3, 106 705, 103.5 710.3 C 101.1 715.6, 98.7 721.8, 98.4 724.1 C 97.6 729, 97.6 729, 109.2 723.3 C 121.5 717.3, 126.3 717.2, 129.1 722.9 C 130.1 725.1, 130.4 725.2, 130.8 723.7 C 131.4 720.8, 128.3 717.2, 124.7 716.5 C 120.4 715.7, 115.1 717.2, 107.3 721.4 C 101 724.8, 99.7 724.5, 101.9 720.2 C 104 716.3, 113 696.7, 113 696.1 C 113 695.7, 113.9 693.5, 115 691.2 C 119 682.9, 116.7 684.1, 107.5 695.3 M 226 687.1 C 224.1 687.6, 220.2 688.5, 217.3 689 C 211.2 690.3, 202 695, 197.6 699.1 C 194.1 702.4, 195.4 703.1, 199.3 700 C 203.4 696.8, 213.2 692.2, 217.5 691.5 C 220.9 691, 221.2 691.1, 219.5 692.1 C 207.5 699.3, 197.2 707, 199.5 707 C 200.6 707, 206.6 703.3, 212.5 699 C 215.3 697, 220.4 693.7, 224 691.7 C 227.5 689.8, 230.6 687.7, 230.8 687.1 C 231.2 685.9, 230.9 685.9, 226 687.1 M 215.1 704 C 209 704.9, 199.1 707.8, 197.4 709.2 C 196.7 709.7, 195.6 709.9, 194.9 709.8 C 194.2 709.6, 193.4 710.3, 193.2 711.3 C 192.8 713.3, 194.6 713.5, 198.7 711.9 C 211 707.1, 233.5 704.7, 240.8 707.4 C 243.7 708.5, 243.8 706.5, 240.8 704.9 C 238 703.4, 222.3 702.8, 215.1 704" stroke="none" fill="#1b1f3a" fill-rule="evenodd"/></svg>