<svg xmlns="http://www.w3.org/2000/svg" viewBox="0 0 768 768" version="1.1" preserveAspectRatio="xMidYMid meet"><path d="M 143.5 105.5 C 131.9 111.8, 118 128, 119.2 133.8 C 119.5 134.9, 120.7 133.5, 122.7 129.5 C 126.2 122.7, 136.3 112.4, 142.7 109.1 C 157.6 101.6, 189.1 117.8, 199 138.1 C 200.2 140.5, 201.5 143.2, 202 144.1 C 202.4 144.9, 203.1 148.7, 203.5 152.3 L 204.2 159 208.3 160.2 C 212.1 161.3, 214.8 163.6, 221.2 170.9 C 222.7 172.6, 224.4 174, 225.1 174 C 225.7 174, 223.9 171.3, 221 168 C 215.8 162, 210.5 158, 207.8 158 C 206.7 158, 206.1 156.4, 205.7 152.2 C 204 136.3, 192.2 121, 174 111.3 C 162.4 105.1, 149 102.5, 143.5 105.5 M 416.8 115.9 C 414.4 117.5, 411.2 120.3, 410 122.1 C 406.9 126.5, 406.1 127, 402.3 127 C 399.9 127, 398.5 127.8, 396.8 130 C 395.6 131.7, 393.1 133.9, 391.3 135 C 387.4 137.3, 387.1 138.7, 390.3 139.9 C 393.8 141.2, 446.6 142.8, 454 141.8 C 470.7 139.5, 475.7 139.6, 476.3 142.2 C 476.7 143.4, 477 159.2, 477 177.2 C 477 208.4, 476.9 209.9, 475.1 210.5 C 472.9 211.2, 471.7 216.1, 472.5 220.6 C 473 223.2, 472.7 223.7, 468.8 225.4 C 463.8 227.7, 446 245.4, 446 248.1 C 446 249.3, 446.9 250, 448.8 250.2 L 451.5 250.5 451.8 266.3 L 452.1 282 446.2 282 C 442.9 282, 438.9 282.3, 437.3 282.6 L 434.3 283.2 433.7 296.8 L 433.2 310.5 436 313 C 437.5 314.4, 440.5 317.8, 442.8 320.5 L 446.8 325.6 445.9 333 C 445.4 337.1, 444.3 346.8, 443.5 354.5 C 442.7 362.2, 441.4 373.7, 440.5 380 C 439.7 386.3, 438.4 396.9, 437.6 403.5 C 436.8 410.1, 435.9 416.2, 435.6 417 C 435.3 417.8, 434.6 422.6, 434 427.5 C 433.5 432.5, 432.3 441.7, 431.5 448 C 430.6 454.3, 429.2 465.6, 428.4 473 C 427.6 480.4, 426.3 492.4, 425.5 499.5 C 424.6 506.7, 423.5 517.6, 422.8 523.8 L 421.7 535 412.6 535.2 C 407.6 535.3, 395.4 535.2, 385.5 535 L 367.6 534.7 356.1 524.6 C 349.7 519.1, 343.8 513.8, 342.8 513 C 336.5 507.5, 271.8 443.7, 269.1 440.3 C 266.1 436.4, 265.9 435.9, 267.4 434.5 C 269.4 432.5, 269.4 431, 267.4 428.2 C 265.5 425.4, 262.6 425.4, 260 428.2 C 257.4 431, 257.5 431.6, 260.4 434.1 L 262.8 436.2 260.5 440.9 C 259.2 443.4, 256.6 449.3, 254.7 454 C 250.1 465.2, 241.1 484, 240.4 484 C 240.1 484, 238.4 483, 236.8 481.8 C 233.3 479.4, 224.7 478.2, 222.7 479.9 C 221.6 480.8, 221 479.4, 219.5 472.5 C 218.1 465.5, 217.2 463.5, 215 461.7 C 212.5 459.7, 212.1 458.5, 211 450 C 207.7 423.3, 206.1 395, 207.9 395 C 208.5 395, 209 394.2, 209 393.3 C 209 392.3, 209.9 390, 211.1 388.1 C 212.9 385.2, 212.9 384.6, 211.7 383.1 C 210.9 382.2, 209.9 380, 209.5 378.2 C 208.8 374.8, 207 374.7, 207 378.1 C 207 379.8, 206.7 379.9, 205 379 C 203.9 378.4, 203 377.1, 203 376.1 C 203 375.1, 202.3 374, 201.5 373.6 C 199.8 373, 199.3 362.5, 201 361.5 C 201.6 361.2, 202 359.2, 201.9 357.2 C 201.9 354, 201.2 353, 196.7 349.5 C 191.3 345.2, 190.4 343.2, 187.9 329.2 C 186.6 321.8, 185.3 320.5, 184.4 325.7 C 181.8 340.6, 180.9 343.6, 178.2 345.9 C 164.4 358, 164.1 358.4, 166.5 361 C 167.5 362.1, 168.1 365, 168.2 369.3 C 168.5 376.7, 166.8 379.7, 162.1 380.2 C 159.7 380.5, 159.5 380.8, 159.5 385.5 C 159.5 389.9, 159.8 390.5, 161.8 390.8 C 163.9 391.1, 164 391.5, 164 402.4 C 164 408.6, 163.5 417.2, 163 421.6 C 162.4 425.9, 161.6 436.4, 161.1 444.8 C 160.6 453.3, 159.9 460.4, 159.6 460.7 C 159.3 461, 155.4 459.4, 150.9 457.1 C 142.1 452.5, 138.1 451.9, 133.2 454.4 C 128.9 456.6, 128.8 456.6, 125.5 451.4 C 121.4 445, 110.2 435.6, 104.2 433.6 C 100.8 432.4, 98.3 430.7, 96 427.9 C 92.2 423.2, 87.5 420, 84.2 420 C 78.3 420, 67.6 427.2, 60.4 436.1 C 58.8 438.1, 57 438.9, 53 439.4 C 43.2 440.7, 29.5 449.4, 22.7 458.6 C 17.7 465.4, 16 466.9, 16 464.6 C 16 462.4, 14.6 462.6, 11.3 465.3 C 9.8 466.6, 6.6 468.5, 4.3 469.5 C 1.9 470.6, 0 471.7, 0 472.2 C -0 473.8, 4.1 473, 9.1 470.5 C 12.9 468.5, 14.5 468.2, 16 469 C 17.7 469.9, 18.5 469.3, 21.9 464.8 C 30.2 453.7, 32 452.2, 41.4 447.6 C 53.1 441.8, 54.8 441.7, 51.5 446.6 C 47.4 452.7, 48.9 454.4, 53.3 448.8 C 69.7 427.8, 85.1 419.1, 90.5 427.7 C 91.6 429.4, 94 431.7, 95.8 432.7 C 99.8 434.9, 99.8 435.5, 95.4 439.7 C 93.4 441.6, 92 443.4, 92.3 443.7 C 92.8 444.2, 94.6 443, 100.7 438 C 102.4 436.6, 104.7 436.8, 108.3 438.7 L 111.5 440.3 108 441.9 C 103.5 444, 99.5 446.8, 100.2 447.5 C 100.5 447.8, 102 447.4, 103.5 446.6 C 111.8 442.3, 115.8 443.6, 122.1 452.7 C 125.9 458.2, 126 458, 118.8 462.2 C 114.8 464.6, 108.3 470.2, 101.1 477.6 C 93.4 485.5, 88.3 489.9, 85.3 491.2 C 82.8 492.3, 78 495.8, 74.6 498.9 C 71.2 502, 66.8 505.8, 64.7 507.4 C 62.6 509, 55.9 515.9, 49.9 522.7 L 38.9 535 19.5 535 C 0.7 535, 0 535.1, 0 537 C 0 539.3, -7.4 539.2, 140.7 539.2 L 218.9 539.2 218.3 542.4 C 218 544.1, 217.2 547.1, 216.5 549 L 215.3 552.5 198.4 553.2 C 180.7 554, 167.1 555.3, 158.2 556.9 C 154.4 557.6, 151.6 557.5, 147.9 556.6 C 140.3 554.6, 132 557.4, 132 562 C 132 563.4, 135.8 572.2, 139.1 578.2 C 139.6 579.2, 140 580.5, 140 581.1 C 140 581.7, 141.6 584, 143.5 586.1 C 145.4 588.3, 147 590.7, 147 591.5 C 147 592.3, 147.5 593, 148 593 C 149.7 593, 149.1 591, 146.2 586.6 C 143.4 582.5, 136 567.9, 136 566.5 C 136 565.6, 146.1 580.7, 148 584.5 C 148.8 586.1, 151.5 590.2, 154 593.6 C 156.5 597.1, 162.5 605.6, 167.4 612.5 C 172.2 619.4, 176.9 625.8, 177.8 626.6 C 180.6 629.5, 177.7 630.2, 166.1 629.8 C 158.6 629.6, 155.4 629.8, 156.1 630.5 C 156.7 631.1, 162.5 631.5, 169.5 631.6 C 180.3 631.6, 182.2 631.9, 184.1 633.6 L 186.2 635.5 182.4 636.1 C 180.2 636.5, 175.6 637.3, 172 638 C 164.5 639.4, 154.6 638.7, 150.1 636.4 C 148.4 635.6, 145.6 635, 143.8 635.2 C 141.9 635.4, 141.2 635.8, 142 636.1 C 156 641.2, 165.1 642.1, 177.9 639.5 L 186.9 637.6 190.5 640.4 C 195.4 644.2, 193.9 645.4, 184.7 645.7 C 180.7 645.7, 177.3 645.9, 177 645.9 C 175.3 646.3, 182.8 649, 185.4 649 C 188.8 649, 197 645.5, 197 644.1 C 197 642.3, 200 642.2, 207.2 643.5 C 211.2 644.2, 217.4 645.4, 221 646 C 224.6 646.6, 232.2 648.2, 238 649.5 C 243.8 650.8, 251.7 652.1, 255.5 652.5 C 272.3 653.9, 284 655.4, 282.8 656.1 C 282.2 656.5, 273.3 656.6, 263.1 656.3 C 250.5 655.9, 244.8 656.1, 245.5 656.8 C 246.1 657.3, 251.1 658, 256.6 658.2 C 262.2 658.4, 267.4 659.1, 268.1 659.7 C 269.7 661, 277 662.5, 277 661.6 C 277 661.2, 276 660.5, 274.8 660 C 273 659.3, 273.5 659.1, 277.6 659.1 C 280.3 659, 283 658.6, 283.6 658 C 286 655.6, 299.5 654.8, 320.5 656 C 355 657.9, 384 658.8, 411.5 658.9 C 454.2 659, 548.5 656.1, 551 654.5 C 552.4 653.7, 565.6 651.4, 577.2 650 C 581.4 649.6, 585.7 648.7, 586.7 648.2 C 589.8 646.6, 594.2 645.8, 593.5 647 C 592.6 648.5, 595.9 649.5, 597.3 648.1 C 598.1 647.3, 598.1 647, 597.2 647 C 594.6 647, 596.3 645, 601.4 642 C 604.9 640.1, 611.5 634.1, 619.4 625.8 L 631.9 612.6 641.5 612.9 C 647 613, 653.3 612.6, 656.1 611.9 C 661.6 610.5, 670.4 611.7, 677 614.8 C 680.4 616.4, 680.4 616.4, 678 617 C 675.4 617.7, 692.8 620, 700.1 620 C 707.4 620, 703.2 618.2, 694.2 617.5 C 687.8 617, 683.9 616.1, 679.5 614 C 670.5 609.7, 666.4 608.7, 661.2 609.4 C 658.6 609.8, 652.1 610.3, 646.6 610.6 C 636.3 611.2, 633.5 610.4, 636.1 607.6 C 636.9 606.8, 639.5 603.2, 642 599.5 C 644.5 595.9, 649.5 588.8, 653.2 583.7 L 659.9 574.5 666.6 574.5 C 671.1 574.5, 673.5 574.1, 673.7 573.3 C 674.1 572.3, 672.5 572, 668.1 572 C 661.1 572, 661.1 572.1, 664.8 566.7 C 666.3 564.4, 668.2 561.2, 669 559.6 C 669.8 558.1, 671.2 556.5, 672 556.3 C 672.8 556, 674.5 555.3, 675.7 554.8 C 676.9 554.2, 679.7 554, 682.1 554.4 C 685.8 555, 686.2 554.9, 685 553.5 C 684.2 552.6, 682 552, 679.1 552 L 674.5 551.9 677.3 550.4 C 678.8 549.6, 680 548.6, 680 548.2 C 680 547.8, 681.4 546, 683 544.1 C 684.7 542.3, 686 540.3, 686 539.9 C 686 539.4, 704 539, 726 539 C 760.9 539, 766 538.8, 766 537.5 C 766 536.2, 760.9 536, 726.5 536 L 687 536 687 533.6 C 687 530, 685.9 529.7, 676 531.4 C 664.9 533.4, 660.1 533.4, 657.6 531.5 C 656.5 530.7, 655 530, 654.2 530 C 653.5 530, 649.1 528.2, 644.5 526 C 639.9 523.8, 634.6 522, 632.8 522 C 629.6 522, 617.6 526.2, 609.7 530 C 605.2 532.2, 602.6 531.6, 597.3 527 C 589.5 520.1, 583.1 519.2, 574.7 523.6 C 572 525, 569.7 526, 569.6 525.8 C 568 523.7, 554.1 493.7, 553.6 491.5 C 552.2 485.1, 550.9 483, 548.2 483 C 546.8 483, 544.8 482.3, 543.8 481.3 C 542.1 479.8, 542 479.8, 542 481.8 C 542 483, 542.6 485.7, 543.4 487.7 C 544.2 489.8, 545.8 494.9, 547 499 C 548.2 503.1, 549.5 507.4, 550 508.5 C 550.4 509.6, 551.6 512.8, 552.5 515.5 C 553.5 518.3, 554.8 521.9, 555.5 523.5 C 556.2 525.2, 557.2 527.8, 557.9 529.3 C 559.2 532.5, 558.6 534.2, 556.6 533.4 C 555.4 532.9, 552.3 526.2, 550 518.7 C 549.4 516.7, 548.5 515.2, 548.1 515.4 C 547.7 515.7, 545.5 514, 543.2 511.7 L 539.1 507.5 538.1 495 C 536.9 480.9, 534.8 463.1, 532.5 446 C 530.7 433.2, 528.6 416.2, 526.5 396.5 C 525.7 389.4, 524.4 377.4, 523.5 370 C 522.7 362.6, 521.3 349.8, 520.6 341.6 L 519.2 326.7 523.7 319.6 C 526.2 315.7, 529.6 311.3, 531.1 309.9 C 534.5 306.7, 534.7 305.1, 532 301.7 C 530.6 300, 530 297.7, 530 294.5 C 530 289.9, 529.9 289.8, 527.4 290.4 C 524.8 291.1, 524.8 291, 525.2 285.9 L 525.5 280.7 518.7 280.9 C 510.1 281.2, 509.1 280.4, 510.1 274.3 C 510.5 271.6, 510.9 265.4, 510.9 260.4 C 511 251.7, 511.1 251.3, 513.5 250.2 C 514.9 249.6, 516 248.3, 516 247.5 C 516 245.1, 498.1 228.4, 492.8 225.8 L 488.1 223.5 488 218 C 488 212.2, 486.8 210, 483.9 210 C 481.3 210, 481 208.1, 481 188.3 C 481 171.1, 481.1 169.8, 482.8 170.5 C 483.7 170.9, 485.9 171.7, 487.5 172.2 C 489.2 172.8, 491.2 173.8, 492 174.5 C 495.5 177.3, 496.2 177, 493 174.1 C 491.1 172.4, 488.6 170.7, 487.5 170.4 C 481.7 168.8, 481 167.9, 481 162 C 481 158.9, 480.5 151.5, 479.9 145.6 L 478.8 134.9 481.5 132.4 C 486.3 128, 480.8 123.7, 475.2 127.6 C 472.7 129.3, 472.2 134, 474.5 134 C 475.3 134, 476 134.9, 476 136 C 476 138.2, 475 138.6, 473.3 136.9 C 472.5 136.1, 469.2 136.4, 461.5 138 C 451.6 140, 449 140.1, 427.1 139.5 C 391.8 138.5, 387.7 138.2, 392.9 136.5 C 394 136.2, 396.3 134.3, 398 132.3 C 400.9 129.1, 401.5 128.8, 405.1 129.4 C 408.8 130, 409 129.8, 410.4 126.8 C 416 113.6, 435.5 110.9, 440.1 122.8 C 441 125, 443 125.9, 443 124 C 443 123.4, 444.5 122.2, 446.4 121.4 C 450.9 119.2, 456 120.2, 460.4 124 C 463.7 126.9, 466 127.8, 466 126.2 C 466 124.7, 460.2 120.1, 456.4 118.5 C 451.7 116.6, 449.9 116.6, 445.4 118.7 C 442 120.4, 441.8 120.4, 440.4 118.6 C 435.7 112.1, 424.7 110.9, 416.8 115.9 M 685.2 118 C 679.2 120.2, 678.3 120.7, 672.1 126.4 C 666.7 131.5, 663.8 136, 661.7 142.7 C 659.8 148.6, 659.5 152, 661 152 C 661.6 152, 662 151, 662 149.8 C 662.1 139.7, 671.6 127.2, 683.9 121.3 C 696.9 115, 726 119.9, 737.5 130.3 C 738.8 131.5, 739.6 131.7, 739.9 130.9 C 740.8 128.1, 727 120.8, 714.4 117.5 C 706.1 115.4, 691.8 115.6, 685.2 118 M 672.3 157.7 C 663 160.9, 656.7 170.4, 656.8 181.2 C 656.9 184.9, 657.1 188.4, 657.4 188.8 C 657.6 189.2, 656.2 189.4, 654.1 189.2 C 644.6 188.3, 640.5 201.8, 648.1 208.9 C 650.4 211, 656 211.8, 656 210 C 656 209.5, 654.8 209, 653.3 209 C 648.4 208.9, 647 207, 647 200.3 C 647 191.8, 650.7 188.9, 657 192.5 C 658.4 193.3, 659.8 193.9, 660.3 194 C 661.4 194, 661.2 189.2, 660 188.5 C 658.2 187.4, 658.8 175.2, 661 171.1 C 664.5 164.2, 674.4 158, 682 158 C 688.5 158, 701 164.9, 701 168.6 C 701 169.4, 701.7 170, 702.5 170 C 704.8 170, 704.3 168.4, 700.8 164.4 C 694.2 157, 682.5 154.2, 672.3 157.7 M 246.3 164 C 238 165.7, 230.1 172, 226.3 179.8 C 224.8 182.6, 223.3 185, 222.8 185 C 222.4 185, 222 185.9, 222 187 C 222 188.1, 222.5 189, 223 189 C 223.6 189, 224 188.6, 224 188.1 C 224 186.6, 232.7 174, 235.1 172.2 C 249.6 161, 270.9 165.6, 278.4 181.4 C 281.3 187.4, 282 196.6, 279.8 198.9 C 278.7 200.1, 278.9 200.2, 280.5 199.6 C 288.2 196.8, 295.5 198.5, 296.8 203.2 C 297.6 206.3, 297.8 206.4, 302.1 206.2 C 305.6 206, 307.6 206.6, 311.9 209.2 C 319.9 214.1, 319.5 214.5, 305.7 214.8 C 295.2 215, 285 216.4, 286.1 217.4 C 287.4 218.6, 321.2 216.6, 321.7 215.3 C 322.7 212.8, 308.3 204, 303.1 204 C 301 204, 299.7 203.4, 299.3 202.3 C 298 198.5, 295.7 197.1, 290 196.4 L 284.2 195.8 283.5 190.2 C 281.2 172, 264.5 160.1, 246.3 164 M 598.5 165.6 C 590.2 169.9, 586.6 175.9, 587.2 184.7 L 587.6 191 583.7 191 C 576.2 191, 564.9 198.6, 563.4 204.7 C 562.5 208.3, 563.5 218.9, 564.9 220.3 C 565.8 221.2, 565.9 220.3, 565.4 215.8 C 565 212.7, 565 208.6, 565.4 206.6 C 566.1 202.9, 571.9 196, 574.4 196 C 575.2 196, 576 195.5, 576.2 195 C 576.4 194.4, 579.5 193.7, 583.2 193.3 L 590 192.7 589.4 186.1 C 588.8 178.3, 590.4 174.4, 596.5 169.5 C 600 166.7, 600.7 166.5, 608.6 166.5 C 615.7 166.5, 616.8 166.3, 615.3 165.3 C 612.9 163.5, 602.1 163.7, 598.5 165.6 M 167 168 C 165.1 168.5, 161.7 169.3, 159.4 169.9 C 153 171.5, 145.3 175.9, 140.4 180.7 C 134.7 186.3, 134.6 188.5, 140.3 183.3 C 165.8 159.7, 213.9 169.4, 218.6 198.9 C 219.5 204.5, 221 205.1, 221 199.8 C 220.9 192.1, 215.1 182.2, 207.4 176.9 C 196.6 169.5, 177.7 165.3, 167 168 M 69.4 179.4 C 55.6 184.5, 45.8 195, 47.3 203 C 47.8 205.3, 47.3 206.7, 44.7 209.8 L 41.4 213.7 38.6 211.4 C 35.8 208.9, 26 207.8, 26 210 C 26 210.6, 28.2 211, 30.8 211 C 34.3 211, 36.4 211.6, 38 213 C 41.4 215.9, 43.3 215.5, 46.9 211 C 57.3 198.1, 77.5 196.3, 86.8 207.6 C 90.6 212.1, 92 211.7, 88.8 207 C 82.2 197.3, 64.1 195.2, 52.3 202.8 C 50.1 204.2, 50 204.1, 50 201.2 C 50 190.4, 72.4 176.8, 84.6 180.1 C 94.2 182.7, 98.3 187.8, 98.4 197.1 L 98.5 202.7 101.5 201.9 C 106.1 200.5, 106.9 200.8, 110.6 204.5 C 112.9 206.9, 114 207.5, 114 206.4 C 114 203, 108.4 198.9, 104.6 199.6 C 101.2 200.1, 101 200, 101 197.3 C 101 181.6, 86.1 173.1, 69.4 179.4 M 604.5 181 C 604.2 181.6, 603.1 182, 602.2 182 C 601.3 182, 599.2 183, 597.5 184.1 C 594.1 186.5, 595.7 186.3, 603.2 183.4 C 608.5 181.4, 612.6 182.2, 618.2 186.3 C 620.9 188.3, 621 188.3, 623.1 186.4 C 628.3 181.7, 639.9 185.6, 641.6 192.7 C 642.3 195.2, 644 195.9, 644 193.7 C 644 191.7, 639.4 185.9, 636.3 183.8 C 632.8 181.5, 628.5 181.6, 624.1 183.9 L 620.6 185.8 615.3 182.9 C 609.9 179.9, 605.6 179.2, 604.5 181 M 118.5 188.7 C 115.4 189.5, 110.3 193.7, 109.7 196.1 C 109.1 198.2, 109.1 198.2, 111.3 196.3 C 120.3 188.3, 130.3 189.3, 136.1 198.6 C 137.1 200.3, 138 203.1, 138 204.9 C 138 206.6, 138.5 208, 139 208 C 141.2 208, 140 200.3, 137.1 196.3 C 132.5 189.9, 125.4 187, 118.5 188.7 M 257 195.1 C 254.2 196.2, 243.7 207, 244.5 207.9 C 244.8 208.2, 247.5 205.9, 250.4 202.9 C 255.9 197, 260.5 195.3, 267.2 196.7 C 270.9 197.4, 273.8 200.6, 272.2 202.2 C 270.1 204.3, 270.7 206.6, 272.8 204.7 C 275.8 201.9, 279.2 202.6, 283.3 206.8 C 285.3 208.9, 287 211.4, 287 212.4 C 287 213.3, 287.5 213.8, 288 213.5 C 291 211.6, 283.6 202.5, 278.2 201.4 C 276.4 201, 275 200.2, 275 199.5 C 275 195.5, 263.4 192.6, 257 195.1 M 475.6 213.9 C 475.3 214.3, 475.3 217, 475.6 219.8 L 476.1 224.9 470.8 228.4 C 467.9 230.3, 462.5 234.9, 458.8 238.7 L 452 245.5 481 245.5 C 497 245.5, 510 245.2, 510 244.9 C 510 241.8, 485.8 224.1, 481.4 223.9 C 478.6 223.7, 478.6 223.7, 481 223.3 C 484.9 222.5, 486.6 217, 483.8 214.2 C 482.4 212.8, 476.4 212.6, 475.6 213.9 M 611.5 216.4 C 609.2 217.3, 605.8 219.8, 603.4 222.4 C 598.7 227.8, 597.8 228, 595.1 224.1 C 590.2 217.2, 577.9 215.9, 571.9 221.6 C 569.6 223.8, 568.2 224.4, 565.5 224.1 C 560.4 223.7, 558.5 224.6, 555.6 229 C 553.4 232.3, 552.4 233, 549.7 233 C 545.6 233, 542.7 235, 543.2 237.6 C 543.7 240.4, 557.4 241.4, 576.5 240 C 589.7 239, 591.9 239, 594.5 240.4 C 598.4 242.5, 609.5 242.5, 613.4 240.5 C 616.7 238.7, 620.2 238.6, 621.7 240.1 C 623.2 241.6, 631.5 241.6, 643.5 240.2 C 649 239.6, 659.4 239, 666.7 239 C 673.9 239, 680.1 238.6, 680.5 238.1 C 681.3 236.7, 678.3 236.3, 669.4 236.8 L 661.4 237.3 659.3 233.8 C 657.3 230.4, 655.6 229.6, 645.9 227.6 C 644.4 227.3, 642 225.4, 640.6 223.5 C 635.1 216.3, 621.1 212.9, 611.5 216.4 M 119.5 219.6 C 117.9 220.4, 115.3 222.3, 113.9 223.7 C 111.6 225.8, 110.9 226, 109 225 C 105 222.9, 96.5 224.2, 92.2 227.7 C 87 231.9, 82 241, 84.9 241 C 85.4 241, 87.2 238.6, 88.8 235.6 C 92.7 228.8, 97 226, 103.8 226 C 107.6 226, 109.4 226.5, 110.7 227.9 C 112.5 229.9, 112.6 229.9, 114.4 227.1 C 117.6 222.4, 122.4 220.5, 130.9 220.5 C 141.3 220.5, 148.3 224.3, 152 231.7 L 154.5 236.8 160.9 237.4 C 168.6 238.1, 171.6 239.9, 173.8 245.1 L 175.5 249.1 182.7 249.3 C 188.7 249.5, 190.3 249.9, 192.1 251.7 C 195.3 254.9, 194 257, 188.8 257 C 186.4 257, 181.6 257.5, 178 258.1 C 170.1 259.4, 153.9 261.5, 141 263.1 C 120.6 265.5, 97.6 263, 94.5 258 C 93.6 256.5, 92 256.8, 92 258.4 C 92 261.8, 73.8 262.2, 69.5 258.8 C 64.4 254.8, 68.4 245.7, 75.9 244.4 C 81.3 243.4, 83.2 242.1, 79.3 242 C 72.6 242, 66.6 246.4, 64.8 252.7 C 64.3 254.8, 63.3 256.8, 62.7 257.2 C 62 257.6, 62.5 258.3, 64 259 C 65.4 259.6, 67.6 260.7, 69 261.5 C 71.9 263.2, 87.4 263.6, 91.4 262 C 93.5 261.3, 94.8 261.5, 97.7 263.1 C 104.7 267, 126.2 267.8, 149 264.9 C 153.1 264.4, 161.7 263.2, 168 262.4 C 174.3 261.6, 182.7 260.5, 186.5 260 C 195.9 258.8, 197 258.3, 197 255.1 C 197 250.1, 190 245.7, 182.7 246.1 C 178.2 246.4, 177.4 246.1, 176.4 244.2 C 173.4 238.1, 167.8 235, 159.8 235 C 156.7 235, 156.1 234.6, 155.2 232.1 C 153.8 228.2, 147.1 222, 141.8 219.9 C 136.2 217.6, 123.7 217.4, 119.5 219.6 M 611.2 219.7 C 606.4 221.4, 603.6 224.9, 604.2 228.3 C 604.6 230.5, 604.5 230.6, 600.9 229.6 C 597.9 228.8, 596.7 229, 594.6 230.3 C 593.2 231.2, 591.8 232, 591.5 232 C 590.3 232, 591.1 229.6, 592.8 228.4 C 596.9 225.3, 588.4 219.6, 580.5 220.3 C 576.5 220.7, 575.1 221.3, 573 223.8 C 570.8 226.5, 569.9 226.9, 567 226.4 C 562.3 225.7, 558.5 227.3, 556.8 230.7 C 555.6 233.2, 554.2 234, 548.1 235.7 C 541.9 237.4, 563.5 238.4, 578.2 237.1 C 590.2 236, 591.2 236, 595.4 238 C 601.1 240.5, 607.2 240.5, 612.9 237.9 C 617.3 236, 622.3 236, 623.5 238.1 C 624.3 239.3, 637.7 239.3, 638.5 238 C 638.8 237.5, 643.1 237, 647.9 237 C 657.4 237, 658.4 236.7, 657 234 C 656.1 232.3, 651.4 230.7, 643.7 229.5 C 641 229.1, 639.7 228.2, 639.1 226.7 C 636.2 219.1, 622.5 215.7, 611.2 219.7 M 480.2 255.8 C 480.5 258.4, 480.7 258.5, 487 258.5 C 493.3 258.5, 493.5 258.4, 493.8 255.8 L 494.1 253 487 253 L 479.9 253 480.2 255.8 M 480.4 262.4 C 478.9 266.4, 480.3 267.5, 487 267.5 C 493.1 267.5, 493.5 267.3, 493.8 265.1 C 494.3 262, 492.6 261, 486.2 261 C 482.5 261, 480.8 261.4, 480.4 262.4 M 665.4 266.4 C 663.7 267.2, 661.3 269.1, 660.1 270.8 C 659 272.5, 656 275, 653.5 276.4 C 650 278.5, 648.8 279.9, 648 283 C 647 286.7, 646.7 287, 643.3 287 C 640.5 287, 639 287.8, 636.3 290.6 L 632.9 294.3 626.2 293.7 C 618.2 292.9, 609 293.8, 609 295.4 C 609 296.2, 612.7 296.4, 621.1 296.1 C 631.7 295.8, 633.3 296, 635.2 297.6 C 637.9 300.1, 681.6 299.8, 688.5 297.3 C 690.7 296.5, 696.3 295.6, 701 295.3 C 706.9 294.9, 709.8 294.3, 710.4 293.3 C 711 292.1, 713 291.9, 719.3 292.1 C 725.1 292.4, 727.4 292.2, 727.7 291.3 C 728 290.4, 726.8 290, 723.3 290 C 717.7 290, 716.5 289.4, 715.5 286 C 714.1 281.4, 710.2 276.3, 706.3 273.9 C 701.6 271, 691.8 270.6, 688 273.1 C 685.6 274.7, 685.5 274.6, 682.8 270.9 C 678.9 265.5, 671.8 263.6, 665.4 266.4 M 664 269.8 C 662.8 270.8, 661.5 273.1, 661.1 275 C 660.5 278, 660 278.6, 656.8 279.1 C 652 279.9, 650.4 281.3, 649.6 285.5 C 648.9 288.9, 648.7 289, 644.6 289 C 639.8 289, 637 291.2, 637 294.9 L 637 297.2 661.8 296.8 C 675.4 296.6, 687.3 296, 688.3 295.6 C 690.9 294.4, 690.4 293, 687 292.4 C 685.4 292, 683.5 291.1, 682.8 290.2 C 681.2 288.3, 687.2 289.4, 690.7 291.6 C 693.9 293.6, 706.4 293.6, 705.6 291.5 C 705.2 290.3, 705.9 290, 709 290 C 713.8 290, 714.1 288.5, 710.7 282.6 C 707.1 276.3, 703.9 274.5, 696.2 274.5 C 690.8 274.5, 688.9 275, 686.3 276.8 L 683 279.1 683 277 C 683 275.8, 681.5 273.3, 679.6 271.4 C 675.6 267.4, 668 266.6, 664 269.8 M 481 295.8 C 481 298.6, 481.2 298.8, 486.7 299.4 C 492.9 300.1, 494.3 299.4, 493.8 295.9 C 493.5 293.7, 493 293.5, 487.3 293.2 L 481 292.9 481 295.8 M 438.2 303 C 434.3 303.9, 433.6 304.5, 434.5 306 C 435 306.8, 446.7 307.1, 477.4 306.8 C 526.6 306.5, 531 306.3, 531 304.6 C 531 302.3, 447.1 300.8, 438.2 303 M 441.8 311.7 C 439.2 312.4, 439.5 313.1, 444.8 318.3 C 449.1 322.6, 450 323, 454.3 323 C 460.1 323, 460.1 322.6, 454.2 316.2 C 449.4 311, 447.3 310.2, 441.8 311.7 M 468.4 313.3 C 468.8 314.5, 469.3 316.7, 469.6 318.3 L 470.3 321 481 321 L 491.8 321 492.4 317.4 C 492.8 315.5, 493.4 313.2, 493.7 312.4 C 494.1 311.3, 492.7 311, 485.7 311 L 477.1 311 476.8 315.8 L 476.4 320.5 475.1 315.8 C 473.9 311.4, 473.5 311, 470.8 311 C 468.1 311, 467.8 311.3, 468.4 313.3 M 496.6 314.8 C 495.4 322, 496 322.6, 503.2 321.1 C 504.4 320.9, 507 315.3, 507 313.1 C 507 311.3, 506.4 311, 502.1 311 C 497.3 311, 497.3 311, 496.6 314.8 M 510.1 316.1 C 506.4 322.1, 506.2 321.7, 512.5 322.5 L 517.5 323.1 520.8 318.5 C 526.1 311.2, 526.1 311, 519.3 311 L 513.3 311 510.1 316.1 M 454.2 325.7 C 452.4 326, 450.7 326.7, 450.5 327.3 C 450 328.5, 447 359.5, 447.3 359.5 C 447.4 359.5, 463.4 359.4, 482.9 359.2 L 518.3 358.9 517.6 351.2 C 516.1 333.6, 515.3 327.3, 514.6 326.2 C 513.9 325, 462.8 324.7, 454.2 325.7 M 94.8 334.9 C 87.7 337.2, 82.4 342.1, 79.9 348.5 C 78.6 352, 77.9 352.6, 74.5 353.1 C 72 353.5, 69.7 354.8, 67.9 356.8 C 65.5 359.5, 65.1 359.6, 63.6 358.2 C 60.9 355.5, 50.8 355.4, 45.8 358 C 34.5 363.8, 29.2 370.8, 29.9 378.8 C 30.1 380.7, 51 380.5, 55.7 378.5 C 60.2 376.6, 64.3 376.6, 69.8 378.5 C 76 380.7, 85.3 380.7, 93.7 378.6 C 101.2 376.7, 106.3 376.8, 113.7 379 C 117.4 380.1, 118.7 380, 122.7 378.5 C 125.8 377.3, 131.2 376.5, 138.2 376.3 C 148 375.9, 149.1 375.7, 151.4 373.4 C 156 368.7, 151.7 362.9, 140.7 358.9 C 137.9 357.9, 134.6 357, 133.4 357 C 132.3 357, 130.5 356.1, 129.5 355 C 128.5 353.9, 127.1 353, 126.3 353 C 125.5 353, 125 351.9, 125 350.1 C 125 346.4, 121.4 341.3, 116.3 337.6 C 111.8 334.5, 100.6 333.1, 94.8 334.9 M 184.6 339.3 C 184.2 341.2, 184.2 343.5, 184.6 344.4 C 185 345.5, 184.4 346.3, 182.7 346.9 C 180 348, 172 355.2, 172 356.6 C 172 357.1, 177.9 357.4, 185.5 357.2 C 192.9 357, 199 356.6, 199 356.2 C 199 355.8, 196.5 353.2, 193.5 350.4 C 189.3 346.5, 188 344.6, 188 342.4 C 188 340.8, 187.3 338.7, 186.6 337.7 C 185.4 336.1, 185.2 336.2, 184.6 339.3 M 96.5 337.9 C 88.4 340, 82.4 345.7, 81.8 351.9 C 81.5 355.3, 81.4 355.4, 76.8 355.5 C 71.7 355.6, 68.1 358.5, 68 362.8 C 68 365.6, 67.8 365.6, 64.1 362.1 C 59.2 357.5, 52.1 357.1, 46 360.9 C 38.4 365.6, 32 372.7, 32 376.4 C 32 378.2, 32.6 378.3, 43 377.7 C 50.7 377.2, 54.8 376.5, 56.5 375.4 C 59.3 373.5, 65.5 374, 72.5 376.5 C 77.7 378.3, 87.4 378.4, 90.3 376.6 C 93.8 374.4, 106.4 373.7, 110.6 375.5 C 115.1 377.4, 120.7 377.4, 124 375.5 C 125.7 374.5, 129.7 374.1, 136.7 374 C 148.4 374, 150 373.6, 150 370.6 C 150 366.1, 143.7 361.7, 136.8 361.2 C 131.5 360.8, 130.1 360.3, 127.9 357.9 C 124.9 354.7, 121.9 354.3, 117.6 356.5 C 116 357.4, 114.5 357.8, 114.3 357.6 C 113.4 356.7, 115.2 354.9, 118.6 353.5 C 122.6 351.8, 123 349.3, 120 345 C 115.7 338.9, 104.9 335.7, 96.5 337.9 M 449.5 362.7 L 446.4 363.1 445.2 373.3 C 444 384.3, 441.5 403, 440.4 409.5 L 439.8 413.5 482 413.5 L 524.2 413.5 523.7 408 C 523.1 402.4, 520.4 378, 519.2 368 L 518.5 362.5 485.5 362.4 C 467.4 362.4, 451.1 362.5, 449.5 362.7 M 476 374.7 C 473.4 375.8, 473 377.3, 473 386.8 L 473 396 483.4 396 C 497.3 396, 497 396.2, 497 388.1 C 497 379.8, 496.4 377.7, 493.7 376 C 491.4 374.6, 478.5 373.6, 476 374.7 M 479 377.9 C 476.7 378.5, 476.5 379.1, 476.2 385.3 L 475.9 392 484 392 L 492 392 492 385.6 L 492 379.2 487.6 378.1 C 482.7 376.9, 482.6 376.9, 479 377.9 M 173 389.7 C 166 390.2, 164.3 390.7, 165.8 392.2 C 167.3 393.7, 205.2 393.3, 206.2 391.7 C 206.5 391.1, 206.6 390.2, 206.4 389.8 C 205.9 389, 184.7 389, 173 389.7 M 173.4 395.7 L 167.3 396.1 166.7 413.3 C 166.3 422.8, 165.7 433, 165.4 436 L 164.8 441.5 185.6 441.2 C 197.1 441, 206.6 440.7, 206.7 440.7 C 206.7 440.6, 206.4 437.4, 205.9 433.5 C 205.4 429.7, 204.7 419.7, 204.4 411.4 L 203.7 396.3 194.7 395.6 C 189.8 395.3, 184.3 395.1, 182.6 395.2 C 180.9 395.3, 176.8 395.5, 173.4 395.7 M 183 400.3 L 179.5 401.5 179.5 409.5 L 179.5 417.5 184.1 418.4 C 191.7 419.9, 194 418.8, 194 413.7 C 193.9 407.6, 192.4 401.7, 190.4 400.3 C 188.3 398.8, 187.6 398.8, 183 400.3 M 440.4 416.8 C 439.8 417.2, 439 420, 438.7 423 C 438.4 426, 437.3 434.4, 436.4 441.5 C 435.5 448.7, 434.7 455.6, 434.6 457 L 434.5 459.5 462 459.8 C 477.1 460, 498.7 459.8, 509.8 459.5 L 530.2 458.8 529.6 455.1 C 528.6 448.2, 526 428.5, 525.4 422.3 L 524.7 416 483.1 416 C 460.2 416, 441 416.4, 440.4 416.8 M 617.6 441.1 C 614 444.4, 610.8 448, 610.5 449 C 610 450.4, 609.2 450.7, 606.2 450.3 C 603.3 450, 601.5 450.5, 597.8 452.9 C 589.8 458, 587.6 464, 593.7 464 C 595.2 464, 599.7 464.7, 603.5 465.5 C 614.5 467.8, 668.3 465.4, 673.1 462.4 C 674.8 461.4, 674 459, 671.8 458.6 C 661.6 456.5, 658.3 455.6, 657 454.5 C 656.2 453.8, 654.4 452.9, 653 452.5 C 651.6 452.1, 650.2 451.3, 649.8 450.7 C 649.5 450.1, 647.2 449.4, 644.9 449.1 C 641.1 448.6, 640.5 448.1, 640 445.5 C 638.4 438, 635.3 435.1, 628.8 435 C 624.4 435, 623.6 435.4, 617.6 441.1 M 622 439.6 C 620.6 441, 618.3 443.4, 616.8 445 C 615.2 446.5, 614 448.7, 614 449.9 C 614 451.7, 613.4 452, 609.2 452 C 604.1 452, 599.3 453.9, 595.3 457.3 C 591.9 460.4, 592.4 462, 596.8 462 C 598.8 462, 603.6 462.7, 607.4 463.7 C 613.3 465.1, 615.3 465.2, 621.6 464.1 C 625.7 463.4, 629.3 463.1, 629.8 463.3 C 630.7 463.9, 660.9 462.3, 666 461.4 C 669.4 460.8, 669.3 460.7, 662.8 459.1 C 659.1 458.2, 655.2 456.6, 654.2 455.7 C 653.2 454.8, 651.4 454, 650.3 454 C 649.1 454, 648 453.4, 647.7 452.6 C 647.3 451.7, 645.4 451, 642.8 450.8 C 638.7 450.5, 638.5 450.4, 638.2 447 C 637.3 438, 627.8 433.6, 622 439.6 M 168.8 444.7 L 164 445.1 164 454 C 164 458.8, 163.7 463.5, 163.4 464.4 C 162.9 465.7, 163.5 466, 166.4 466 C 172.2 466, 176.3 468.3, 180.5 473.9 L 184.3 479.1 187.9 475.8 C 189.8 474, 191.7 472.3, 192 471.9 C 194.1 469.7, 202.8 463.8, 205.6 462.8 C 209.5 461.4, 209.6 460.9, 207.8 451.5 L 206.5 445 201 445 C 198 445, 190.6 444.8, 184.5 444.6 C 178.5 444.4, 171.4 444.4, 168.8 444.7 M 270 446.2 C 270 446.5, 270.4 448, 270.9 449.6 C 272.6 454.9, 280.8 481.4, 283 489 C 285.7 498, 292.1 517.4, 292.5 517.8 C 292.6 518, 296.8 515.7, 301.7 512.8 C 311.2 507.1, 315.3 505, 321.4 502.5 L 325.3 501 303.7 479.2 C 291.8 467.3, 281 456.4, 279.7 455 C 275.7 450.7, 270 445.6, 270 446.2 M 261.4 448.1 C 260.8 448.9, 259.7 451.3, 259 453.4 C 258.3 455.6, 255.5 462, 252.9 467.7 C 250.2 473.4, 248 478.2, 248 478.4 C 248 478.6, 246.4 482.3, 244.4 486.7 C 237.7 501.3, 236.4 504.6, 226.6 530.5 C 224.8 535.5, 223.3 539.6, 223.5 539.8 C 223.6 539.9, 228.4 539.5, 234.1 538.8 C 239.8 538.1, 254 537.5, 265.7 537.5 C 279.6 537.5, 286.6 537.2, 286.1 536.5 C 284.3 534, 277.6 514, 273.6 499 C 268.4 479.2, 265.9 471.9, 266.5 477.5 C 267.4 486.7, 271.1 506.6, 274.4 519.9 C 275.3 523.4, 275.9 526.8, 275.6 527.4 C 275.4 528, 275.1 527.6, 275.1 526.5 C 275 525.3, 274.6 524, 274.1 523.5 C 273.1 522.3, 270.3 513.2, 269 506.5 C 266 491.3, 263.7 474.5, 264.3 472.4 C 265.4 468.9, 262.6 446.6, 261.4 448.1 M 266.1 453.3 C 266 456.6, 268.6 471.3, 270.6 478.8 C 272.9 487.5, 275.1 495.4, 276 498 C 276.5 499.4, 277.6 503.2, 278.5 506.5 C 281.4 516.8, 293.2 547.9, 294.7 549.1 C 297.9 551.8, 298.1 548.4, 295.1 539.9 C 284.4 509.4, 275.3 481.6, 270.5 464.5 C 267.2 452.7, 266.2 450.1, 266.1 453.3 M 85 457.2 C 80.2 459.4, 75.4 464.2, 74.6 467.5 C 74.3 468.9, 75.3 468.2, 77.8 465.4 C 82.6 460.2, 85.7 458.3, 91.1 457.5 C 96.7 456.7, 101 459.5, 101 464.1 C 101 467.1, 102.3 467.9, 103.7 465.7 C 104.1 465, 106 463.5, 107.9 462.3 C 111.9 459.8, 110.5 458.4, 106.1 460.6 C 102.9 462.2, 101 461.8, 101 459.6 C 101 455, 92.5 453.7, 85 457.2 M 129.3 460.6 C 116.6 467.2, 101.3 479.6, 95.5 488.1 C 93.6 490.8, 91 492.8, 87 494.6 C 83.8 496, 79.9 498.5, 78.4 500.1 C 75.1 503.5, 75.4 503.6, 81.1 501 C 83.5 499.9, 86.1 499, 86.8 499 C 89.6 499, 85.5 501.6, 79 504 C 71.9 506.5, 65.2 510.9, 60.5 516.1 C 57.8 519.1, 57.8 519.2, 60 517.7 C 68.9 511.8, 83.4 506, 88.9 506 C 90.3 506, 93.5 506.9, 95.8 508 L 100.2 510 105.8 505.6 C 109 503.1, 115.3 499.7, 120 497.8 C 127.7 494.8, 128.8 494, 132 489.3 C 135.9 483.6, 153.1 468.3, 156.7 467.4 C 158 467, 159 466.4, 159 465.9 C 159 464.9, 141.1 456, 139.2 456 C 138.6 456, 134.1 458.1, 129.3 460.6 M 475.8 462.8 L 434 463 433.6 465.3 C 433.3 466.5, 432.9 469.5, 432.6 472 C 431.1 486.9, 427.2 521.1, 425.7 532.2 C 425.6 533.1, 425.8 533.9, 426.3 533.9 C 426.7 534, 437.7 534, 450.9 534 L 474.7 534 475.3 529.9 C 476.2 523, 477.9 522, 488.5 522 C 499.1 522, 500 522.5, 500 529.2 L 500 534 519.8 534 L 539.6 534 538.9 528.8 C 538.6 525.9, 537.7 520.1, 537.1 516 C 534.1 496.8, 533.5 492.2, 531.3 470 C 530.6 462.3, 530.2 462, 523 462.3 C 520 462.4, 498.7 462.6, 475.8 462.8 M 203.7 466.9 C 194.9 471.4, 182.4 483.7, 189.3 481.1 C 190.5 480.7, 193.3 480, 195.5 479.6 C 201.1 478.6, 198.8 480.7, 192.6 482.3 C 190 483, 187.9 483.8, 187.9 484.3 C 188 484.7, 188 488.4, 188 492.5 C 188 501, 188.9 501.6, 196.4 498.5 C 199.3 497.2, 200 497.2, 200 498.3 C 200 500.1, 192.9 502.4, 190.1 501.5 C 188.2 500.9, 188 501.2, 188 504.4 C 188 507.8, 188.1 507.9, 191 507.4 C 194.9 506.6, 194.9 508.1, 190.9 509.9 C 185.2 512.4, 185.5 515.1, 191.7 518.4 C 195 520.2, 198.4 523.1, 200.3 525.7 C 202.4 528.7, 203.9 529.9, 204.9 529.4 C 209.5 527.5, 213.9 526.9, 218 527.4 L 222.6 528 227 516.8 C 229.4 510.6, 231.7 505, 232.1 504.5 C 232.9 503.5, 224.2 491.1, 222.8 491 C 222.3 491, 221 490, 219.9 488.9 C 216.9 485.9, 208.8 486.8, 201.4 491 C 193.6 495.3, 192.2 494.1, 199.5 489.4 C 205.1 485.8, 206 485.5, 212.6 485.5 L 219.8 485.5 217.9 480.5 C 216.9 477.8, 215.8 473.7, 215.4 471.5 C 214.2 464.5, 210.9 463.2, 203.7 466.9 M 35.5 467 C 29.9 467.9, 17 473.5, 17 475.1 C 17 476.3, 22.1 475.4, 23 474.1 C 26 470, 44.1 467.7, 46.3 471.2 C 47.4 472.9, 47.3 473.1, 41.5 477.8 C 41 478.2, 37.9 480.5, 34.7 482.9 C 31.5 485.3, 29.2 487.5, 29.4 487.8 C 30 488.3, 35.9 484.8, 42.6 479.8 C 46.3 477, 48.7 476, 51.3 476 C 53.3 476, 56.9 475.4, 59.2 474.6 C 61.6 473.8, 65.9 472.8, 68.8 472.4 C 71.7 472, 74.3 471.3, 74.7 470.7 C 75.5 469.4, 61.1 470.4, 58.3 471.8 C 55.8 473.1, 48.8 474.1, 49.5 473 C 50.3 471.7, 45.8 467.2, 43 466.7 C 41.6 466.5, 38.3 466.6, 35.5 467 M 160 469.9 C 152.7 472.1, 142.7 480.9, 135.7 491 C 132 496.4, 130.6 497.6, 126 499.1 C 122.3 500.2, 117.1 502.4, 113.1 504.3 C 109.7 506, 101 513.9, 101 515.4 C 101 516.2, 99.3 516.7, 96.3 516.7 C 87.1 516.9, 73.9 522.7, 68.6 529 C 65.8 532.4, 65.7 534.4, 68.5 531.7 C 70.9 529.3, 86.2 522.2, 90.6 521.5 C 94.3 520.9, 94.4 521, 92.6 522.4 C 91.5 523.3, 90.2 524, 89.6 524 C 88.1 524, 68.1 534, 67.4 535.1 C 67.1 535.6, 71.9 536, 78.4 536 C 89.2 536, 90 535.9, 92.9 533.5 C 97.8 529.3, 108.8 524, 112.6 524 C 116.8 524, 122.1 520.7, 127.7 514.7 C 132.1 509.9, 136.5 508, 143.1 508 C 148.8 508, 157.9 510.1, 159.2 511.8 C 160.3 513.1, 160.2 513.2, 158 512.6 C 152.2 510.8, 139.4 510.7, 135.8 512.4 C 132.2 514.1, 123.3 522.7, 126.1 521.7 C 132.9 519.4, 136.2 518.8, 137.1 519.7 C 137.7 520.3, 136.3 521.2, 132.8 522.4 C 124.5 525.1, 115 531.9, 115 535.2 C 115 537.3, 122.2 535.8, 126.9 532.6 C 131.8 529.3, 136.7 527.4, 152 523 C 156.1 521.8, 160.6 520.4, 162 520 C 163.4 519.5, 167.2 518.6, 170.5 518 C 185.4 515.5, 184.7 516.4, 184.9 500 C 185 487.2, 184.2 484.6, 178 476.7 C 172.8 470.3, 170.6 468.9, 168.5 470.9 C 167.9 471.4, 165.9 472.1, 164 472.5 C 160.7 473.1, 160.6 473.1, 162.5 471.7 C 163.6 470.9, 165.4 470, 166.5 469.7 C 167.9 469.4, 167.5 469.2, 165.5 469.2 C 163.9 469.2, 161.4 469.5, 160 469.9 M 446.8 476.7 C 445.2 477.1, 444.8 479.8, 443.7 495 C 443.5 497.5, 443.6 497.5, 451 497.5 L 458.5 497.5 458.8 487.7 C 459.1 478, 459.1 478, 456.5 477 C 453.8 476, 449.9 475.9, 446.8 476.7 M 224.5 483 C 223.8 484.1, 227.9 492, 231.5 496.4 L 233.8 499.3 236.4 494 C 239.3 488, 239.2 487.7, 232.7 484.1 C 228.6 481.8, 225.5 481.4, 224.5 483 M 547 485.6 C 547 487.9, 553.2 507.7, 557.1 517.3 C 559.2 522.7, 561 528.5, 561 530.1 C 561 532.8, 561.2 533, 565.3 533 L 569.6 533 561.3 516.3 C 556.8 507, 552.2 496.8, 551 493.5 C 548.9 487.3, 547 483.7, 547 485.6 M 137.1 500.5 C 128.8 502.5, 115.9 509.4, 113.3 513.3 C 110.6 517.1, 110.2 522, 112.5 522 C 113.5 522, 114 521, 114 519 C 114 517.1, 114.9 515, 116.3 513.6 C 119.5 510.4, 132.6 504.1, 139 502.7 C 141.9 502, 144.5 500.9, 144.8 500.2 C 145.3 498.7, 144.1 498.8, 137.1 500.5 M 324 503.5 C 322.6 504.3, 316.8 507.2, 311 510 C 293.1 518.8, 292.4 519.7, 296.1 529.5 L 298.1 535 330.1 535 C 347.6 535, 362 534.6, 362 534.2 C 362 533.7, 360.8 532.5, 359.3 531.3 C 355.5 528.5, 345 519.2, 336 510.6 C 326.7 501.7, 327 501.9, 324 503.5 M 77.5 511.9 C 73.1 513.4, 67.2 516.1, 64.4 517.8 C 61.6 519.6, 58.6 521, 57.7 521 C 56.2 521, 44 533.5, 44 535.1 C 44 535.6, 47.8 536, 52.4 536 C 60.7 536, 60.8 536, 61.9 533.1 C 65.2 525.4, 79 516.4, 91.8 513.9 C 98.1 512.6, 98.1 512.6, 95.8 510.8 C 92.5 508.3, 86.8 508.6, 77.5 511.9 M 541.3 515.6 C 541.6 516.7, 542.4 520.7, 543 524.5 C 543.7 528.4, 544.4 532.1, 544.6 532.8 C 544.9 534, 551 534.6, 551 533.4 C 551 531.9, 547.3 522.1, 545.4 518.5 C 543.1 514.3, 540.4 512.4, 541.3 515.6 M 173.5 521.4 C 170.8 522.1, 165.1 523.5, 161 524.5 C 156.9 525.4, 151.7 526.8, 149.5 527.5 C 121.5 536.3, 121.1 536, 164.3 536 L 201.1 536 200.5 533.8 C 199.5 530.5, 194.9 524.9, 191 522.3 C 187.2 519.7, 181.4 519.4, 173.5 521.4 M 121 524.4 C 119.6 525.1, 116.6 526, 114.2 526.4 C 109.8 527.1, 100.2 531.5, 96.5 534.5 C 94.6 536, 94.9 536.1, 102 535.7 C 109.3 535.2, 109.5 535.2, 113.1 531 C 115.1 528.7, 117.2 527, 117.8 527.4 C 118.4 527.7, 120.1 526.9, 121.7 525.5 C 124.8 522.8, 124.7 522.5, 121 524.4 M 576.3 525.6 C 567.6 530.9, 571.1 533.1, 587.1 532.8 L 599.5 532.5 593.7 527.8 C 586.7 522.1, 582.9 521.6, 576.3 525.6 M 630 524.7 C 629.2 525, 625.8 526.5, 622.5 528 C 619.2 529.5, 615.2 531.2, 613.5 531.8 C 611.2 532.6, 615.2 532.9, 629.8 533.1 C 640.5 533.3, 649.4 533.2, 649.5 532.9 C 649.9 532.3, 633.8 524, 632.4 524.1 C 631.9 524.1, 630.8 524.4, 630 524.7 M 665.8 536.5 C 665.5 536.8, 648.2 537, 627.3 537 C 585.8 537, 579.2 537.4, 581.2 539.8 C 582.2 540.9, 584.1 541.1, 589.7 540.8 C 594 540.5, 597.3 540.7, 597.9 541.3 C 600 543.4, 653.6 542.8, 660 540.6 C 666.2 538.5, 670.4 536, 667.9 536 C 667 536, 666.1 536.2, 665.8 536.5 M 675 538.3 C 665.9 544.4, 655.4 546.5, 632.2 547.2 C 625.4 547.4, 623 547.2, 623 546.3 C 623 545.3, 619.8 545, 610.5 545 C 603.1 545, 598 545.4, 598 546 C 598 546.5, 598.7 546.7, 599.5 546.4 C 602.4 545.3, 604.4 546.7, 602.6 548.6 C 598.6 552.5, 601.8 555, 610.9 555 C 612.9 555, 618.8 555.5, 624.1 556.2 C 632 557.1, 634.8 557.1, 639.5 556 C 647.4 554.1, 644.9 553.4, 627.5 552.6 C 619.3 552.2, 610.7 551.6, 608.5 551.1 L 604.5 550.4 608.4 548.7 C 612.7 546.8, 617.6 546.3, 615 548 C 614 548.7, 618.3 549, 628 549 C 636 549.1, 644.5 549.5, 647 550 C 651.4 550.9, 660 549.2, 662.5 546.9 C 663 546.4, 664 546, 664.8 546 C 666.8 546, 675 541.8, 675 540.8 C 675 540.4, 675.7 540, 676.6 540 C 677.8 540, 678.1 540.7, 677.8 542.5 C 677.1 545.8, 677.6 545.7, 680 541.8 C 683.7 535.7, 681.4 534.1, 675 538.3 M 313.3 538.7 C 305.4 538.9, 299 539.2, 299 539.3 C 299 539.5, 299.8 541.4, 300.8 543.6 C 301.9 545.7, 303.3 550.2, 304 553.5 C 306.1 563.8, 304.2 563, 328 563 C 339.5 563, 351.1 562.5, 353.7 562 C 356.3 561.4, 365.3 560.8, 373.7 560.7 C 382.1 560.5, 389.2 560.1, 389.6 559.8 C 390.4 559, 384.7 558, 380 558.2 C 378.1 558.2, 372 557.7, 366.5 557 C 357.7 555.9, 354.3 555.6, 347.9 555.1 C 347 555.1, 345.2 554.1, 343.9 553 L 341.5 551.1 354.4 551 C 368.2 551, 369.9 551.5, 360.4 552.9 L 354.5 553.8 359.3 554 C 370.9 554.6, 380.2 554.2, 379.5 553 C 379.2 552.5, 377.7 552, 376.2 552 C 374.4 552, 373.9 551.7, 374.8 551.2 C 375.7 550.5, 375.6 549.9, 374 548.5 C 372.9 547.5, 372 546.1, 372 545.4 C 372 544.7, 370.5 543, 368.8 541.6 C 365.6 539.3, 364.8 539.2, 346.5 538.7 C 336.1 538.5, 321.1 538.5, 313.3 538.7 M 427.7 538.9 C 425.6 539.2, 423.8 540, 423.7 540.5 C 423.6 541.1, 432.9 541.6, 449.8 541.8 C 471.6 542, 476 541.8, 476 540.6 C 476 539.9, 474.6 539, 472.9 538.6 C 469 537.8, 432.9 538.1, 427.7 538.9 M 499 538.8 C 499 541.2, 502.1 541.5, 521 541 C 548.2 540.3, 547.6 538.6, 520 538.2 C 508.5 538.1, 499 538.3, 499 538.8 M 247.5 540.6 C 221.7 542.7, 221.9 542.7, 220.5 548.3 C 219.7 551.3, 219.8 551.4, 223.3 550.1 C 226.5 548.8, 242 547, 254.5 546.3 C 260 546, 264.9 545.4, 265.4 544.9 C 266 544.4, 266.8 544.4, 267.4 545 C 269 546.2, 290 546.8, 290 545.5 C 289.9 543.8, 287.6 541.3, 285.5 540.7 C 281.2 539.4, 262.7 539.3, 247.5 540.6 M 377 541 C 380.1 542.6, 381.2 542.7, 385.5 541.7 C 388.4 541, 396.5 540.6, 404.8 540.8 C 413.9 540.9, 419 540.7, 419 540 C 419 539.4, 411 539, 396.3 539 L 373.5 539.1 377 541 M 520.3 543.8 C 508.6 543.9, 500 544.4, 500 545 C 500 545.5, 500.5 547.1, 501.2 548.5 L 502.3 551 516.3 551 C 528.4 551, 530.5 550.8, 531.6 549.3 C 532.5 548.1, 532.9 547.9, 533 548.8 C 533 550.3, 546 550.3, 546 548.8 C 546 548.4, 545.1 548, 544 548 C 542.7 548, 542 547.3, 542 546.1 C 542 543.4, 542.8 543.5, 520.3 543.8 M 670.9 546.5 C 668.9 548.3, 665.8 550.3, 663.9 550.8 C 662 551.4, 656.2 553.4, 651 555.2 C 645.8 557.1, 637 559.6, 631.5 560.9 C 626 562.2, 619.3 563.8, 616.5 564.5 C 609.7 566.3, 595.3 569.7, 580.5 572.9 C 571.5 574.9, 548.7 578.4, 532 580.5 C 525.7 581.3, 517.4 582.3, 513.5 582.9 C 494.8 585.4, 466.8 587.6, 426.6 589.5 L 412.7 590.2 413.4 584.9 C 413.8 581.8, 413.7 580.1, 413.2 580.8 C 412.6 581.7, 412 581.3, 411.1 579.4 C 410.2 577.3, 410.2 576.5, 411.1 576 C 411.7 575.6, 412.6 573.4, 413 571.1 C 413.8 566.8, 411.8 566.8, 410.5 571.1 C 409.9 572.9, 409.7 572.9, 407.8 570.5 C 406.5 568.8, 405.1 568, 403.9 568.3 C 402.8 568.6, 402.2 568.4, 402.6 567.9 C 402.9 567.4, 402.4 567, 401.6 567 C 399.5 567, 399.6 568.3, 401.9 570.4 C 403.2 571.6, 403.9 571.7, 404.2 571 C 404.4 570.2, 405.1 570.4, 406 571.6 C 406.9 572.7, 407 573.1, 406.2 572.6 C 405.5 572.2, 404.3 572.6, 403.3 573.6 C 401.7 575.2, 401.7 575.2, 403.6 574.6 C 405.9 573.9, 410 580.6, 410 585.2 C 410 586.5, 410.5 588.1, 411.1 588.7 C 413.3 590.9, 380.5 591.8, 339 590.7 C 325.5 590.3, 321.7 590.4, 326.5 591 C 360.6 595.3, 467.2 591.8, 524 584.6 C 551.4 581.1, 560 579.9, 567.5 578.5 C 591.6 574.2, 600.5 572.3, 611.5 569.2 C 615.4 568, 624.8 565.5, 632.5 563.5 C 660.8 556.1, 668.4 553, 673 546.8 C 676.1 542.7, 675.1 542.5, 670.9 546.5 M 399 545 C 388.1 545.8, 389 545.9, 409.5 546.4 C 440.5 547.1, 468 550.7, 443.8 550.9 C 429.7 551, 429 551.1, 429 553 C 429 555, 429.4 555, 464.3 554.4 C 483.6 554, 499.6 553.6, 499.8 553.5 C 499.9 553.4, 499.6 552.1, 499.1 550.6 C 497.8 547.4, 494.1 547, 493.3 550 C 492.7 552.3, 491 552.7, 491 550.6 C 491 549.5, 490.2 549.3, 487.7 549.7 C 484.1 550.2, 476 548.4, 476 547 C 476 545.2, 417.6 543.7, 399 545 M 334.8 545.9 C 329 546.2, 323.8 546.9, 323.3 547.4 C 322.2 548.6, 365.7 547.3, 367.8 546 C 369.7 545, 353.9 544.9, 334.8 545.9 M 129.7 548.1 C 114 548.7, 108.2 549.7, 110.1 551.4 C 110.3 551.6, 114.6 551.4, 119.5 550.9 C 124.5 550.5, 135 550.1, 143 550.1 C 157.9 550, 162.4 549.4, 161.4 547.9 C 160.8 546.9, 156.4 546.9, 129.7 548.1 M 250.5 550.1 C 241 550.8, 226.7 552.5, 220.8 553.6 C 218.6 554.1, 216 557.8, 216 560.7 C 216 561, 221.2 560.8, 227.6 560.4 C 235.9 559.9, 239.4 560, 239.9 560.9 C 240.4 561.7, 242.8 561.7, 249.1 560.9 C 253.7 560.4, 259.4 559.7, 261.8 559.4 C 269.3 558.5, 266.6 556.8, 258.3 557.1 C 247.1 557.6, 240 557.1, 240 556 C 240 554.7, 244.5 554.2, 261 553.6 C 275 553.1, 288.6 551.7, 289.6 550.7 C 291 549.3, 265.5 548.9, 250.5 550.1 M 393.3 551.6 C 401.2 553.5, 406.6 554.2, 418.3 554.7 L 428 555.1 428 552.5 C 428 550, 427.9 549.9, 421 550.1 C 417.2 550.2, 414.3 550.7, 414.6 551.2 C 414.9 551.7, 416 551.8, 417.1 551.5 C 418.4 551.1, 419 551.3, 419 552.4 C 419 554.7, 414.7 554.4, 412.5 552 C 410.9 550.2, 409.5 550, 399.1 550.1 L 387.5 550.2 393.3 551.6 M 501.8 554.1 C 501.3 554.4, 506.7 555, 513.9 555.4 C 528.4 556.2, 556 555.2, 556 553.8 C 556 552.9, 503.4 553.1, 501.8 554.1 M 288 555 C 286.6 555.4, 282 556.6, 277.7 557.6 C 272.7 558.7, 270.4 559.6, 271.2 560.1 C 272.8 561.2, 299.3 561.3, 298.8 560.3 C 295.5 553.5, 294.3 552.9, 288 555 M 703.8 554.7 C 695.1 555, 691 555.4, 691 556.2 C 691 557, 697.5 557.1, 715.2 556.7 C 728.5 556.3, 743.3 556, 748.2 556 C 753.4 556, 757 555.6, 757 555 C 757 554, 736.4 553.9, 703.8 554.7 M 26 556 C 24.6 556.4, 21.6 556.8, 19.3 556.9 C 16.9 557, 15 557.5, 15 558.1 C 15 558.9, 17.2 559, 22.3 558.6 C 33.5 557.6, 34.2 557.6, 39.2 559.6 C 43.8 561.4, 44.2 561.4, 52.5 559.7 L 61 558 65.2 560.2 C 70.4 562.9, 92.4 563.5, 99.6 561.1 C 102.6 560.1, 104.9 560, 108.2 560.7 C 111.2 561.4, 114.5 561.4, 117.9 560.7 C 130.4 558.1, 120.7 557.8, 85.4 559.6 C 73.8 560.1, 72.9 560, 66.5 557.4 C 60.8 555.2, 59.3 554.9, 57.7 556 C 54.3 558.1, 40.8 558.5, 37 556.6 C 33.5 554.9, 30.1 554.7, 26 556 M 179.5 556.7 C 175.1 556.9, 167.9 558.1, 160 559.7 L 157.5 560.2 160 561.5 C 162.9 563.1, 169.7 563.4, 175.4 562.1 C 177.5 561.6, 186.7 560.6, 195.9 560 C 205 559.3, 213.2 558.5, 214 558.2 C 218 556.7, 195.4 555.7, 179.5 556.7 M 413 558.7 C 415.9 560, 421.1 560.4, 444 560.6 C 459.1 560.7, 469.7 560.5, 467.5 560.1 C 461.9 559.1, 465.5 557.5, 471.2 558.5 C 478.9 559.8, 522.7 560.1, 520.7 558.9 C 517.9 557.2, 466.6 556.8, 445.4 558.3 C 435.5 559, 425.6 559.2, 423.4 558.9 C 421.3 558.5, 417.3 558, 414.5 557.7 L 409.5 557.1 413 558.7 M 530.4 561.1 L 528.5 563.3 540.5 562.6 C 553.6 561.8, 557 561.3, 557 559.9 C 557 559.4, 551.4 559, 544.7 559 C 533.3 559, 532.2 559.2, 530.4 561.1 M 653 561.7 C 648.9 563, 643 564.8, 640 565.5 C 637 566.3, 632 567.5, 629 568.3 C 603.9 575.2, 597.3 576.7, 573 581 C 560.3 583.3, 553.2 584.3, 536 586.4 C 529.7 587.2, 520.9 588.3, 516.5 588.9 C 472.5 594.4, 429.4 596.4, 364 595.7 C 297.1 595, 264.2 592.6, 224.5 585.5 C 204.5 581.9, 193.2 579.8, 190 579 C 188.1 578.5, 183.4 577.4, 179.5 576.5 C 170.2 574.2, 160.9 571.5, 153 568.6 C 149.4 567.3, 145.2 565.9, 143.7 565.6 L 140.8 564.9 144.7 570.5 C 148.8 576.4, 150.2 577.2, 164 581.1 C 168.1 582.2, 173.8 583.8, 176.5 584.7 C 198.5 591.2, 244.7 598.7, 293 603.6 C 327.3 607, 413.7 607.2, 454.5 604 C 486.6 601.5, 493.3 600.9, 505.5 599.5 C 512.7 598.6, 522.8 597.3, 528 596.5 C 533.2 595.7, 540.9 594.6, 545 594 C 549.1 593.4, 556.6 592.3, 561.5 591.4 C 566.5 590.6, 573.2 589.4, 576.5 588.9 C 585.4 587.4, 610.8 582, 618 580 C 619.9 579.5, 624.9 578.1, 629 577 C 633.1 575.9, 638.1 574.5, 640 574 C 656.2 569.8, 657 569.4, 660.9 562.8 C 663.6 558.3, 663.2 558.2, 653 561.7 M 200 562.5 C 193.7 563.2, 185 564.1, 180.7 564.5 C 171.5 565.4, 171.5 565.6, 181.6 568 C 192.1 570.6, 193.5 570.5, 198 566.9 C 201 564.5, 203.1 563.7, 207.9 563.3 C 211.2 563, 213.7 562.3, 213.4 561.9 C 213.1 561.4, 212.6 561.1, 212.2 561.2 C 211.8 561.2, 206.3 561.9, 200 562.5 M 228.3 562.8 C 217.5 563.2, 219.4 565, 230.8 565.1 C 254.1 565.5, 267.3 564.9, 265.9 563.6 C 265.3 563.1, 236.9 562.4, 228.3 562.8 M 267.6 564.4 C 268.2 566, 300 566.8, 300 565.2 C 300 563.9, 291.3 563, 278.3 563 C 269 563, 267.2 563.2, 267.6 564.4 M 531 565.4 C 516.5 566.3, 513.6 566.8, 513.8 568 C 514 568.8, 514.4 571.6, 514.7 574.3 L 515.3 579.2 518.8 578.6 C 520.7 578.3, 522.5 577.8, 522.9 577.5 C 523.8 576.5, 519.9 574, 518.6 574.7 C 518 575.1, 518.4 574.4, 519.4 573.2 C 521.6 570.6, 520.8 569.1, 518.4 571.1 C 516.9 572.3, 516.7 572.3, 517.2 571 C 517.4 570.2, 518.8 569.4, 520.1 569.4 C 521.4 569.3, 523.3 568.9, 524.3 568.5 C 526.1 567.7, 526.7 569.4, 525 570.5 C 523.6 571.3, 523.7 574.7, 525.1 575.6 C 525.8 576, 526.7 575.5, 527.2 574.6 C 528.2 572.8, 533.5 572.4, 534.5 574 C 535.3 575.3, 540 575.3, 540 574 C 540 573.5, 538.9 572.8, 537.5 572.4 C 536.1 572.1, 535 571.3, 535 570.8 C 535 570.2, 534.1 570, 533 570.3 C 531.9 570.6, 531.2 570.4, 531.6 569.9 C 531.9 569.4, 537.7 569, 544.6 569 L 557 569 557 566.5 C 557 563.6, 558.7 563.7, 531 565.4 M 325.2 567.1 C 325.5 567.9, 329.5 568.3, 337.2 568.4 C 343.6 568.5, 348.6 568.8, 348.3 569.3 C 348.1 569.7, 343.7 570, 338.7 570.1 C 333.6 570.1, 328.6 570.5, 327.5 571 C 325.4 572, 346.2 571.6, 357.8 570.4 C 361.9 570, 364.6 570.2, 365.4 571 C 366.8 572.1, 368.5 570.9, 367.3 569.6 C 367 569.3, 362.8 569, 358.2 569 C 353.5 569, 350 568.7, 350.3 568.3 C 350.7 567.9, 353.5 567.8, 356.5 567.9 C 359.9 568, 362 567.7, 362 567.1 C 362 566.3, 356 566, 343.4 566 C 329.9 566, 324.9 566.3, 325.2 567.1 M 460 574.9 C 460 578.7, 459.7 582.5, 459.4 583.4 C 458.9 584.8, 459.8 585, 465.1 585 C 473.5 585, 473.6 584.8, 474.2 575.8 L 474.7 568 467.4 568 L 460 568 460 574.9 M 211 571.5 C 208.4 574.3, 208.3 574.3, 218 576 C 248 581.4, 265 583.3, 265.7 581.2 C 266.6 579, 264.9 578.3, 257.3 577.6 C 251.1 577, 250 577.1, 250 578.4 C 250 579.3, 249.6 580, 249 580 C 248.5 580, 248 577.5, 248 574.5 L 248 569 230.7 569 C 213.5 569, 213.3 569, 211 571.5 M 348 572.6 C 346.6 572.8, 341.9 573.2, 337.5 573.6 C 330.1 574.2, 329.7 574.3, 332.5 575.4 C 335.6 576.7, 334.8 578.1, 331.4 577.5 C 330.4 577.3, 329.2 577.1, 328.9 577.1 C 328.5 577, 328.3 576.3, 328.4 575.4 C 328.4 574.5, 327.9 573.5, 327.1 573.2 C 326.2 572.9, 326 573.3, 326.4 574.7 C 326.9 576.3, 326.3 576.9, 323.1 577.8 C 317.8 579.4, 316.3 581.4, 317.9 584.4 C 319.4 587, 328.7 588, 352.9 588 L 365.6 588 366.6 584 C 367.9 579.4, 368.1 579.5, 358 578.5 C 354.4 578.1, 350.9 577.3, 350.3 576.8 C 349.5 576.2, 346.6 576.1, 342.9 576.5 C 338.3 577, 336.9 576.9, 337.5 576 C 337.9 575.3, 341 574.9, 346.3 575 C 350.8 575.1, 356.8 575, 359.5 574.6 C 362.3 574.3, 363.2 574.4, 361.6 574.8 C 357.3 575.8, 358.3 577.5, 363.2 577.4 C 368.1 577.3, 369.1 575.9, 365.8 573.6 C 363.7 572.1, 355.8 571.7, 348 572.6 M 644 576.7 C 636.3 579.3, 614.5 585.5, 607.5 587 C 583.5 592.4, 574.9 594.1, 547.8 598.5 C 490 608, 435.5 611.5, 359.5 610.7 C 309.8 610.2, 310 610.2, 261 605 C 255.8 604.5, 250.6 603.8, 249.4 603.5 C 248.3 603.3, 242.6 602.3, 236.9 601.5 C 216.2 598.4, 190 593.2, 177.5 589.6 C 174.8 588.8, 168.5 587, 163.7 585.5 C 158.8 584, 154.6 583.1, 154.3 583.4 C 153.7 583.9, 164 599.8, 167.7 604.1 C 168.4 605, 172.5 606.5, 176.8 607.4 C 181 608.4, 185.6 609.5, 187 610 C 188.4 610.5, 194 611.8, 199.5 613 C 205 614.2, 210.4 615.3, 211.5 615.6 C 212.6 615.9, 217.6 616.8, 222.5 617.6 C 282.1 627.5, 321.8 630.4, 394 630.4 C 461.3 630.3, 495 628.2, 548.5 620.6 C 580.5 616, 628 606.9, 631.6 604.5 C 634.7 602.5, 654.1 573.9, 652.2 574.1 C 651.8 574.1, 648.1 575.3, 644 576.7 M 278 581.4 C 278 583.6, 278.5 583.9, 282.3 584.4 C 291.8 585.7, 309.3 587, 309.7 586.6 C 310 586.3, 309.1 585, 307.8 583.7 C 305.6 581.5, 304.1 581.1, 295.4 580.6 C 290 580.2, 283.8 579.7, 281.8 579.4 C 278.3 578.9, 278 579, 278 581.4 M 708.5 590.2 C 704.9 591.4, 696.4 592.7, 687.5 593.5 C 679.3 594.2, 668.7 595.8, 664 596.9 C 659.3 598, 653.8 599, 651.8 599 C 649.7 599, 648 599.5, 648 600 C 648 601.9, 660.9 601.1, 669.8 598.6 C 675 597.2, 683 595.9, 689.5 595.5 C 695.6 595.1, 703.8 593.9, 707.8 592.8 C 714.1 591.1, 715.8 591, 720.8 592.1 C 723.9 592.7, 732.6 593.2, 740 593.2 C 756.5 593.1, 755.2 593.2, 754.5 592 C 754.1 591.4, 747.9 591, 739.2 591 C 729 590.9, 723.3 590.5, 720.5 589.5 C 715.7 587.7, 716 587.7, 708.5 590.2 M 74 590.1 C 72.6 590.5, 67.7 590.9, 63 591 C 58.3 591.1, 53.6 591.6, 52.5 592.1 C 50.8 592.8, 59.2 592.8, 77 592 C 80.9 591.8, 92.1 593.7, 93.2 594.8 C 93.9 595.5, 95 596, 95.8 596 C 96.5 596, 95.8 594.9, 94.2 593.5 C 92.2 591.8, 90 591, 87.4 591 C 85.2 591, 81.9 590.6, 80 590.2 C 78.1 589.7, 75.4 589.7, 74 590.1 M 110.5 597.7 C 107.2 599.6, 95.3 600, 87 598.7 C 82.7 598, 82.6 598, 84.7 599.5 C 86.1 600.5, 90.2 601.3, 96.2 601.7 C 104.9 602.2, 106 602.1, 110.9 599.8 C 116 597.3, 116.2 597.3, 120.8 598.8 C 125.4 600.4, 132.7 600.6, 148.8 599.7 C 155.6 599.3, 156.3 599, 155.1 597.2 C 154.6 596.3, 152.7 596.3, 146.9 597.1 C 132 599.2, 129.5 599.3, 124.7 597.6 C 118.6 595.5, 114.3 595.6, 110.5 597.7 M 31.7 599.1 C 27.9 599.5, 24.6 600.1, 24.2 600.4 C 22.8 601.8, 25.4 602.1, 33.6 601.3 C 38.5 600.9, 47.5 600.7, 53.5 601 C 65.6 601.6, 72.2 601, 72.7 599.5 C 73.1 598.3, 41.8 598, 31.7 599.1 M 127.5 606.2 C 120.4 606.7, 109.9 607.2, 104.3 607.3 C 95.7 607.5, 94.5 607.7, 96.3 608.7 C 99.1 610.2, 111.4 610.4, 114.2 608.9 C 115.5 608.2, 121.2 607.8, 128.4 607.9 C 137.8 608, 141 607.7, 142.5 606.5 C 144.5 605.1, 144.5 605.1, 142.5 605.2 C 141.4 605.3, 134.7 605.8, 127.5 606.2 M 31 607 C 31 607.6, 32.8 608, 35.1 608 C 37.3 608, 40.1 608.5, 41.3 609.1 C 42.4 609.8, 45.7 610.3, 48.5 610.3 C 56.5 610.3, 77.3 607.7, 75.8 606.9 C 75.1 606.5, 70.2 606.6, 65 607.2 C 51.4 608.5, 43.8 608.5, 41.3 607.2 C 38.7 605.7, 31 605.6, 31 607 M 172.6 611.3 C 175.1 615.5, 181.4 623.2, 183.3 624.4 C 184.5 625.2, 188.2 626.4, 191.5 627 C 194.8 627.7, 200.7 628.8, 204.5 629.6 C 224.5 633.6, 241.8 636.4, 258.5 638.5 C 268.8 639.7, 275.1 640.4, 300.5 643 C 346.1 647.7, 467.1 648, 502.5 643.5 C 504.7 643.2, 513.3 642.3, 521.5 641.5 C 540.8 639.6, 559.6 637.3, 564 636.2 C 567.1 635.4, 567.2 635.2, 565.5 634.5 C 564.4 634, 560.6 631.9, 557 629.7 L 550.6 625.7 538.5 627.4 C 531.9 628.4, 523.6 629.5, 520 630 C 516.4 630.5, 507.2 631.4, 499.5 632 C 491.8 632.6, 484.8 633.3, 484 633.5 C 483.2 633.7, 466.1 634.6, 446 635.6 C 391.3 638.1, 336.1 636.5, 287 630.9 C 282.3 630.4, 274.5 629.5, 269.5 628.9 C 259.5 627.8, 243 625.4, 236 624 C 233.5 623.5, 226.3 622.1, 220 620.9 C 213.7 619.8, 200.6 616.8, 191 614.4 C 171.6 609.5, 171.6 609.5, 172.6 611.3 M 621.9 611.5 C 621.2 612.1, 612.4 614, 587.5 618.9 C 576.5 621.1, 565.6 623.4, 563.2 624 C 560.9 624.5, 557.8 625, 556.4 625 C 553 625, 554 626.3, 559.2 628.8 C 561.6 629.9, 564.6 631.7, 565.9 632.9 C 568.6 635.3, 570.7 635.4, 577.7 634 C 580.3 633.5, 587.7 632.1, 594 630.9 C 608.1 628.3, 610.7 627, 619.5 618.1 C 624.9 612.5, 626 611, 624.4 611 C 623.3 611, 622.1 611.2, 621.9 611.5 M 58.5 615 C 59.4 616.4, 73.2 617.2, 78.9 616.2 C 84 615.3, 84.7 615.4, 90.9 618.6 C 97.8 622.1, 103.1 622.9, 108.6 621 C 110.2 620.5, 116 619.6, 121.5 619.1 C 134.6 617.7, 143.3 616.2, 144.5 614.8 C 145.6 613.7, 139.8 614.2, 131 616 C 127.1 616.8, 121.7 617.5, 102.2 619.7 C 97.8 620.2, 91.1 618.1, 88.2 615.3 C 86.7 613.9, 57.6 613.6, 58.5 615 M 712 617.8 C 704.6 618.4, 705.9 619.5, 715 620.2 C 736.2 622, 744.8 622.2, 746.9 621 C 750 619.4, 748.5 617.9, 745 619.2 C 742 620.2, 731.7 619.8, 721 618.3 C 718 617.9, 713.9 617.6, 712 617.8 M 622 627.9 C 620.9 628.7, 622.3 629, 627.2 629 C 631.6 629, 636.5 629.9, 641.5 631.5 C 648.5 633.8, 649.5 633.9, 656.9 632.8 C 666.9 631.3, 666.4 630, 655.7 630 C 651.2 629.9, 645.5 629.4, 643 628.9 C 636.3 627.3, 623.7 626.8, 622 627.9 M 714.5 628.7 C 713.4 629, 711 629.9, 709.2 630.7 C 706.8 631.8, 703.9 632.1, 698.4 631.8 C 691.3 631.3, 691 631.4, 694 632.6 C 698.6 634.6, 704.4 634.3, 711 631.9 C 716.7 629.9, 717 629.8, 726.6 631.5 C 737.3 633.3, 756.6 632.8, 755.3 630.8 C 754.9 630.1, 751.7 629.9, 746.6 630.3 C 742.1 630.7, 735.6 630.5, 732 630 C 720.1 628.4, 716.5 628.1, 714.5 628.7 M 187 629.7 C 187 631, 192 635.5, 194.5 636.5 C 196.4 637.2, 198.8 637.7, 218 641.5 C 241.2 646, 263.8 648.8, 287 650 C 297.7 650.5, 314.8 651.6, 325 652.2 C 349.8 653.9, 498.3 653.9, 516 652.3 C 522.9 651.6, 534.1 650.6, 541 650 C 547.9 649.4, 557.6 648.3, 562.5 647.5 C 567.5 646.7, 575.1 645.5, 579.5 645 C 587.7 643.9, 594.9 641, 600.5 636.5 C 604.5 633.2, 603.8 633, 595 634.7 C 563.9 640.5, 538.6 644, 513 646 C 505.6 646.5, 494.3 647.5, 488 648.1 C 471.1 649.7, 369.4 650.4, 346.5 649.1 C 310.3 647, 252.5 641.6, 243.5 639.5 C 242.3 639.3, 237.1 638.4, 232 637.6 C 215.4 635, 203.3 632.6, 189.8 629.4 C 188.2 629.1, 187 629.2, 187 629.7 M 661 633.5 C 658.5 634.2, 653.9 635.4, 650.6 636 C 643.6 637.4, 644.4 639.2, 651.5 638 C 660.3 636.5, 668 636.8, 671.4 638.9 C 673.2 640, 679.2 641.5, 686 642.5 C 692.3 643.4, 699.2 644.6, 701.2 645.2 C 703.2 645.8, 705.7 645.9, 706.7 645.5 C 708.2 644.9, 707.9 644.6, 705 643.8 C 697.2 641.7, 683.3 639.1, 680 639.1 C 678 639, 674.9 637.9, 672.8 636.5 C 670.8 635.1, 668.6 634, 668.1 634 C 667.5 634, 667 633.6, 667 633 C 667 631.8, 666.6 631.8, 661 633.5 M 125 640.9 C 122 641.9, 117.3 643.8, 114.5 645.1 C 107 648.7, 94.2 648.5, 88.3 644.7 C 82.5 641, 79.6 640.5, 74.7 642.3 C 72.4 643.1, 69.2 644.1, 67.7 644.4 C 66.2 644.8, 65.2 645.5, 65.6 646.1 C 66.2 647.1, 71.4 646.5, 73.5 645.1 C 75.8 643.7, 81.5 642.1, 82 642.8 C 82.3 643.2, 85 644.8, 88 646.4 C 96.7 651.1, 107.3 651.3, 116.5 647 C 124.9 643.1, 133.7 640.7, 137 641.4 C 138.4 641.7, 142.7 642.9, 146.5 644 C 156.3 646.8, 169.9 647.7, 172.5 645.6 C 174.4 644.2, 173.8 644.1, 164.8 644 C 155.7 644, 144.6 642.1, 140.8 640 C 138.1 638.5, 131.1 638.9, 125 640.9 M 687.5 654.2 C 682.1 657.4, 675.2 658.9, 665.8 659 C 659.3 659, 654.7 659.5, 652.1 660.6 C 648.1 662.2, 634.8 662.2, 628.8 660.5 C 627.2 660.1, 626 660.2, 626 660.7 C 626 663.5, 649.2 665.4, 651.8 662.8 C 652.6 662, 657.1 661.4, 664.3 661.2 C 676.5 660.9, 684.2 659.1, 688.7 655.3 C 691.7 652.9, 690.9 652.2, 687.5 654.2 M 583 660.4 C 581.6 661.1, 576.1 662, 570.8 662.4 C 565.4 662.7, 559.9 663.5, 558.5 664 C 555.1 665.3, 548.3 665.3, 547.5 664 C 546.6 662.6, 534.2 662.9, 530.1 664.4 C 525.2 666.2, 527.8 667.2, 534 666 C 541 664.7, 547.3 664.7, 548.7 666.1 C 549.4 666.8, 551.5 667, 554.2 666.6 C 556.5 666.3, 563.5 665.6, 569.5 665.2 C 580.1 664.4, 586 662.5, 586 659.9 C 586 658.8, 586.1 658.8, 583 660.4 M 432 660.7 C 432 661.2, 434.8 663, 438.1 664.6 C 444 667.4, 444.8 667.5, 457.1 667.3 C 464.2 667.2, 472.2 667.5, 475 667.9 C 478.4 668.5, 480 668.4, 479.7 667.7 C 479.1 665.9, 474 665, 466 665.1 C 449.7 665.4, 444.2 664.6, 433.8 660.5 C 432.8 660.1, 432 660.2, 432 660.7 M 400 662.1 C 384.9 664.4, 374.6 667.1, 376 668.3 C 376.6 668.8, 389.1 667.3, 395 665.9 C 402.6 664.1, 416.1 663.7, 421 665 C 427.1 666.7, 437.4 667.5, 436.6 666.2 C 436.3 665.7, 434.3 665, 432.3 664.7 C 430.2 664.4, 425.8 663.5, 422.5 662.6 C 416 660.9, 408.7 660.7, 400 662.1 M 54.8 663.5 C 54.4 663.9, 50.6 664.9, 46.3 665.6 C 32.2 668.1, 30.3 668.6, 32.3 669.5 C 33.2 669.9, 35.3 669.9, 36.8 669.6 C 48 666.8, 55.7 665.7, 63.5 665.7 C 71.6 665.6, 76 666.2, 94 670 C 100.6 671.5, 112.3 670.8, 114.6 668.9 C 116.8 667.1, 132.4 667, 134.2 668.8 C 136 670.6, 145.3 670.3, 149.5 668.3 C 152.8 666.7, 153.3 666.7, 158 668.4 C 161.4 669.6, 164.4 670, 167.3 669.6 C 169.6 669.3, 175.1 668.6, 179.6 668.1 C 187.2 667.3, 192 665.6, 192 663.8 C 192 662.7, 189.6 662.8, 188.5 663.9 C 186.4 665.9, 166 667.3, 158.8 666 C 152.7 664.8, 151.6 664.9, 148.1 666.5 C 144.1 668.3, 141.3 668.2, 133.5 666.1 C 127.3 664.5, 120 664.8, 112.5 667.1 C 105.2 669.4, 105.2 669.4, 83 665.4 C 73.1 663.6, 55.8 662.5, 54.8 663.5 M 219.7 665 C 217.6 665.4, 214.9 666.2, 213.7 666.7 C 198 674, 185.1 677, 169.4 677 C 162.3 677, 154.7 677.5, 152.5 678.1 C 134.6 682.7, 127.4 683.2, 118.4 680.1 C 114.7 678.9, 112.1 678.5, 111.6 679.1 C 111 679.7, 111.1 680, 112.1 680 C 112.8 680, 115.8 681.1, 118.5 682.5 C 125.2 685.8, 133.9 685.8, 146.6 682.5 C 154.5 680.5, 158.6 680, 169.4 680 C 183 680, 184.2 679.8, 197.7 675.8 C 205 673.6, 206.3 673.5, 209.7 674.6 C 211.8 675.3, 215.3 676.3, 217.5 676.9 C 219.7 677.4, 224.2 678.6, 227.5 679.4 C 248.9 685, 262.4 686.5, 261.8 683.3 C 261.5 681.8, 260 681.4, 253 680.9 C 248.3 680.5, 241.8 679.5, 238.5 678.7 C 235.2 677.9, 228.9 676.5, 224.5 675.6 C 220.1 674.6, 214.6 673.3, 212.2 672.6 L 207.9 671.4 214.7 669.2 C 222.5 666.6, 224.6 666.5, 228 668.4 C 229.4 669.1, 233 671, 236 672.7 C 247.7 679, 255.3 680.3, 261 676.9 C 264 675, 265.5 674.8, 271.7 675.3 C 278.8 675.8, 288 679.2, 288 681.3 C 288 681.8, 291.2 681.9, 295.8 681.6 C 305 680.8, 329.6 682.4, 331.4 683.9 C 333.2 685.4, 334.2 684, 332.5 682.3 C 330.2 680.1, 320.8 678.9, 303.8 678.6 C 291.2 678.4, 287.7 678, 285.6 676.7 C 280.2 673.1, 274.5 672.1, 256.5 671.4 C 239.4 670.8, 238.3 670.6, 233.5 668 C 227.4 664.7, 224.6 664.1, 219.7 665 M 299 666.3 C 299 667.1, 299.9 668, 301 668.3 C 302.2 668.6, 302.8 668.4, 302.4 667.8 C 302 667.1, 303.1 667, 305.6 667.4 C 310.8 668.1, 329.1 669.3, 336 669.3 C 341.1 669.4, 350 666.7, 348.8 665.4 C 348.5 665.2, 345.2 665.4, 341.4 666 C 335 667.1, 321.3 666.8, 305.3 665.4 C 300.2 664.9, 299 665.1, 299 666.3 M 509.5 670 C 509.1 670.6, 511.2 671, 515.2 671 C 520.4 671.1, 532.4 672.8, 546.2 675.7 C 550.9 676.6, 576.7 671.3, 575.1 669.7 C 574.5 669.1, 572.5 669.1, 569.8 669.8 C 558.4 672.8, 545 673.2, 534.3 671.1 C 523.6 668.9, 510.5 668.3, 509.5 670 M 54.1 671.1 C 45.7 672.7, 48.1 673.5, 61.8 673.5 C 72.5 673.5, 76.7 673.9, 80.8 675.3 C 87.6 677.7, 89.9 676.8, 83.8 674.2 C 75.1 670.4, 63.8 669.2, 54.1 671.1 M 480.5 670.5 C 479.4 670.7, 475.9 671.2, 472.8 671.5 C 462.4 672.6, 466 674.3, 477.3 673.6 C 487.9 673, 498.5 673.9, 510.5 676.5 C 514.4 677.3, 521.8 678.6, 527 679.5 C 532.2 680.3, 539.4 681.4, 543 681.9 C 546.6 682.5, 562.4 683, 578.2 683 C 597.4 683, 607.1 683.4, 607.5 684.1 C 608.5 685.6, 608.3 685.7, 599.5 686.9 C 583.7 688.9, 577.5 690.1, 576.5 691.1 C 573.9 693.9, 605.9 689.3, 609 686.5 C 611.3 684.4, 618.2 685.1, 630.5 688.5 C 641.3 691.5, 654 694.3, 682.5 700.1 C 690.3 701.7, 708 701.6, 711.5 700 C 714.3 698.6, 713.9 698.5, 703 697.9 C 696.7 697.5, 688.4 696.4, 684.5 695.5 C 680.7 694.6, 674.5 693.3, 670.8 692.7 C 667 692.1, 664 691.3, 664 690.9 C 664 689.9, 670.8 689, 680 689 C 688.1 689, 688.4 688.9, 686.1 687.4 C 683.4 685.5, 667 685.9, 657.5 688.1 C 652.9 689.1, 651.3 688.9, 638.5 685.5 C 617.1 680, 617.7 680, 581.5 679 C 562.8 678.5, 544.1 677.6, 540 677.1 C 535.9 676.5, 528.9 675.6, 524.5 675 C 520.1 674.4, 513.6 673.3, 510 672.5 C 503.5 671.1, 484.3 669.8, 480.5 670.5 M 676.5 671.6 C 673.2 671.8, 667.4 672.4, 663.5 673 C 656.2 674, 626.9 675.9, 613.8 676.1 C 602.9 676.3, 602.2 677.7, 612.6 678.5 C 621.1 679.3, 632.2 678.7, 665.5 675.7 C 683.7 674.1, 696.6 674.3, 706.5 676.2 C 734.4 681.8, 752.7 683.4, 753.7 680.4 C 753.9 679.7, 750.2 679.1, 742.3 678.7 C 731.8 678.2, 718 676.1, 705 672.9 C 700 671.7, 685.7 671.1, 676.5 671.6 M 37.5 674.8 C 27.5 675.3, 28.6 677, 39 677 C 44.1 677, 49.7 677.4, 51.4 677.9 C 53.1 678.5, 59.5 680.5, 65.6 682.4 C 76.8 686, 94.2 687.7, 92.5 685 C 92.2 684.5, 88.3 684, 84 684 C 76.6 684, 69.5 682.3, 63.9 679.1 C 63 678.6, 60.5 677.8, 58.4 677.5 C 56.2 677.1, 53.2 676.5, 51.5 676 C 46.6 674.7, 43.8 674.4, 37.5 674.8 M 394.5 674.5 C 382.8 678.1, 381.7 678.3, 368.4 677.6 C 359.4 677.1, 355 677.2, 354.5 678 C 354.2 678.6, 353.5 678.8, 353.1 678.6 C 352.7 678.3, 351.8 678.6, 351 679.1 C 349.9 679.9, 350.6 680, 353.5 679.6 C 355.7 679.3, 362.2 679.5, 368 680.2 C 377.1 681.2, 379.4 681.1, 385.5 679.6 C 398.6 676.4, 401.2 676, 405.1 676.6 C 410.7 677.5, 409.9 678.6, 403 679.4 C 399.6 679.8, 394.1 681, 390.7 682.1 C 379.6 685.8, 358 685.6, 350.3 681.8 C 348.5 680.9, 347.2 681.1, 344 682.5 C 337.9 685.3, 338.1 686.2, 344.7 685.5 C 348.6 685, 352.7 685.3, 357.3 686.4 C 366.7 688.6, 377.9 688.4, 386.5 685.9 C 394.1 683.7, 404.4 681.3, 410 680.4 C 412.7 680, 415.6 680.8, 422.5 683.8 C 442.3 692.4, 451 693.5, 494.4 692.5 C 539.7 691.5, 544.3 691.4, 554.9 692 C 561.4 692.3, 564.4 692.1, 564.7 691.4 C 565.2 689.9, 547.5 688.5, 534 689.1 C 528.2 689.3, 507.3 689.5, 487.5 689.5 C 444.5 689.5, 444.1 689.4, 419.5 678.5 C 410.8 674.7, 399.7 672.9, 394.5 674.5 M 685.6 683.9 C 685.2 684.5, 686.1 685.2, 687.7 685.6 C 691.8 686.5, 695.8 687.9, 702.5 691.1 C 705.8 692.6, 709.6 694.4, 711 694.9 C 712.4 695.5, 714.2 696.4, 715 696.9 C 717.9 698.7, 727.9 701.1, 730.7 700.8 L 733.5 700.4 730 699.3 C 719.6 695.8, 709.1 691.7, 701.8 688.2 C 692.8 683.8, 686.6 682.2, 685.6 683.9 M 201 687.1 C 199.1 687.7, 195.3 688.6, 192.5 689.1 C 184.6 690.8, 184.2 691, 186.2 692.1 C 187.4 692.7, 189.9 692.5, 194.2 691.4 C 197.7 690.6, 202.1 689.6, 204 689.3 L 207.5 688.9 204.5 690.9 C 202.9 692.1, 201 693, 200.4 693 C 199.8 693, 198.7 693.7, 198 694.5 C 197 695.7, 197.1 696, 198.6 696 C 200.6 696, 207.1 692.4, 208.2 690.7 C 208.5 690.1, 211.2 689.5, 214.2 689.2 C 219.2 688.8, 219.8 689, 224.4 692.9 C 231.2 698.4, 241.2 700.8, 257.6 700.9 C 263.1 701, 268 701.4, 268.6 702 C 270.5 703.9, 281.4 704.4, 282.9 702.6 C 283.6 701.7, 284.1 701, 283.9 701 C 283.7 700.9, 280.4 700.7, 276.5 700.5 C 243.1 698.7, 234.6 697.1, 226.1 690.6 C 220.9 686.6, 220.4 686.5, 212.6 686.3 C 208.1 686.2, 202.9 686.6, 201 687.1 M 316.5 698.2 C 312 700.6, 308.7 701.4, 303.3 701.8 C 299.3 702, 296 702.7, 296 703.3 C 296 705.6, 311.3 703.4, 317.6 700.1 C 323.3 697.2, 324.1 697, 328.1 698.1 C 354.5 704.8, 366.2 705.9, 384.2 703.5 C 394.8 702.1, 396.8 702.1, 406.5 703.6 C 416.6 705.1, 417.8 705.1, 431.4 703.1 C 449.6 700.4, 462.4 700.4, 476.5 703.1 C 482.6 704.2, 489.8 705.5, 492.5 705.9 C 498.6 706.8, 497.2 707.5, 485.5 709 C 477.2 710.2, 464.3 710.5, 406 711.4 C 386.4 711.7, 380.1 712.3, 364.5 715.5 C 355.6 717.3, 342.6 717.6, 323 716.6 C 312.7 716.1, 304.9 716.2, 299.8 716.9 C 295.5 717.5, 288.5 718.5, 284.3 719.1 C 273.1 720.6, 272.2 722.4, 283 721.5 C 287.7 721.1, 293.3 720.5, 295.5 720 C 304.3 718.2, 316.8 717.9, 327.5 719.2 C 343.4 721.1, 353.9 720.4, 380.5 715.6 C 385.9 714.6, 391.8 714.3, 398.6 714.7 C 404.2 715, 413.6 714.8, 419.6 714.1 C 427.6 713.2, 432.9 713.2, 439.5 714 C 449.7 715.1, 471.2 713.7, 500 709.9 C 507.5 708.9, 512.3 707, 510.9 705.6 C 510.6 705.3, 505.5 704.6, 499.4 704.1 C 493.4 703.6, 484.5 702.2, 479.5 701 C 468.9 698.5, 442.3 698, 434.8 700.1 C 432.4 700.8, 425.3 701.3, 419 701.3 C 412.7 701.3, 401.9 701.3, 395 701.3 C 351.7 701.6, 352 701.6, 330.5 696.1 C 324.7 694.6, 323.2 694.8, 316.5 698.2 M 109.5 698.9 C 106.2 699.4, 98.8 700.2, 93 700.9 C 87.2 701.5, 81.8 702.3, 81 702.6 C 80.2 702.9, 75.9 703.8, 71.5 704.5 C 67.1 705.3, 59.6 706.8, 54.7 707.9 C 49.9 709, 42.6 710.2, 38.5 710.6 C 29.9 711.4, 28.4 713, 36.3 712.9 C 41.5 712.9, 43.6 712.6, 59 709.5 C 63.7 708.6, 70.7 707.2, 74.5 706.4 C 100.7 701.2, 131 699.7, 150.8 702.5 C 163.4 704.3, 178.1 707.3, 179.9 708.4 C 180.5 708.8, 181.5 708.8, 182.1 708.5 C 184.8 706.8, 176.5 704.1, 157.5 700.5 C 148.4 698.7, 118.4 697.8, 109.5 698.9 M 492 698.9 C 490.8 699.8, 491.1 700, 493.5 700.1 C 496.1 700.2, 562.7 701.9, 580.5 702.3 C 586.9 702.5, 594 701.4, 594 700.2 C 594 699.8, 585.6 699.4, 575.2 699.3 C 564.9 699.2, 542.3 698.9, 525 698.5 C 504.1 698.1, 493 698.3, 492 698.9 M 525.5 707.9 C 529.5 712, 566.7 712.3, 571.8 708.3 C 573.3 707.1, 572.7 707, 567.5 707.7 C 559.7 708.7, 544.8 708.7, 533.5 707.7 C 527.3 707.1, 524.8 707.1, 525.5 707.9 M 625 710.5 C 608.2 716.4, 597.6 718.7, 581.8 720 C 561.5 721.6, 558 722.1, 558 723.1 C 558 724.5, 578.5 724.2, 591 722.4 C 604.4 720.6, 611.1 719, 623.5 714.8 C 633.7 711.3, 642.4 710.8, 650 713.4 C 652.5 714.2, 658.6 715.8, 663.5 716.9 C 668.5 718.1, 674.1 719.5, 676 720 C 677.9 720.6, 681.8 721.5, 684.5 722.1 C 687.3 722.6, 691.8 723.6, 694.5 724.1 C 697.3 724.7, 701.4 725.8, 703.8 726.6 C 706.1 727.4, 709.1 728, 710.3 728 C 712.4 727.9, 712.5 727.9, 710.6 726.5 C 709.5 725.7, 707.8 725, 706.8 725 C 705.8 725, 704.2 724.6, 703.2 724.1 C 701.4 723.1, 690.2 720.5, 683.2 719.4 C 680.8 719, 677.2 718.2, 675.2 717.5 C 671.7 716.3, 671.9 716.2, 681.5 715.5 C 700.1 714.1, 717.2 715.6, 738.5 720.5 C 749.1 722.9, 754.3 723.4, 753.8 721.9 C 753.4 720.7, 749.9 719.6, 735.5 716.4 C 716 712.2, 696.1 711, 675.8 713 C 665.7 714, 663.6 713.8, 649.6 710.1 C 639.7 707.5, 633.3 707.6, 625 710.5 M 110 710.5 C 92.5 711.8, 82.6 713.2, 72 715.6 C 68.4 716.4, 64.5 717.3, 63.3 717.6 C 62 717.8, 61 718.5, 61 719.1 C 61 720.1, 62.8 719.9, 76 717.5 C 102.3 712.6, 160 710.4, 162.1 714.3 C 162.7 715.2, 164.1 716, 165.4 716 C 169.5 716, 184.4 719.8, 196 723.8 C 221.3 732.5, 228.3 733.7, 242.6 731.5 C 248.6 730.6, 253.9 729.4, 254.5 728.9 C 255.6 727.8, 253.9 727.8, 242.4 729 C 229.1 730.4, 220.2 729, 200.9 722.6 C 191.8 719.6, 180.5 716.1, 175.9 715 C 171.3 713.8, 166.6 712.5, 165.5 712 C 158.8 708.9, 138.6 708.4, 110 710.5 M 94 726 C 68.6 729.1, 57.2 730.1, 48.5 730 C 36 729.8, 35.7 729.8, 40 731.5 C 44.2 733.1, 55.9 733.4, 62.7 732 C 70.1 730.6, 96.7 727.7, 104.2 727.6 C 108.2 727.5, 110.9 727.1, 110.7 726.5 C 110.3 725.2, 102.4 725, 94 726 M 301.5 726 C 286.6 728.1, 279.9 729.7, 263.5 735.1 C 253.6 738.4, 244.1 741.5, 242.4 742 C 238.6 743.2, 219.3 743.3, 218.6 742.1 C 218.3 741.6, 216.3 740.9, 214.3 740.5 C 212.2 740.2, 208.5 739.2, 206 738.5 C 187 732.9, 184.6 732.7, 167.5 734.6 C 159.8 735.5, 145.9 736.5, 136.6 736.7 C 118.5 737.2, 116.3 738.4, 131.4 739.5 C 140.1 740.1, 147.9 739.6, 173 736.9 C 184.3 735.7, 184.7 735.8, 195 738.5 C 200.8 740, 208.2 741.9, 211.5 742.6 C 214.8 743.3, 219.5 744.4, 222 745 C 226.9 746.3, 242.2 745.7, 246.2 744.1 C 252.1 741.7, 278.3 733.9, 285 732.6 C 313.1 727, 339.6 728.2, 373 736.5 C 385.8 739.7, 406.8 744.1, 424 747.3 C 452.7 752.5, 482.1 751.3, 503 744 C 504.4 743.5, 508.9 742.1, 513 740.9 C 517.1 739.7, 525.1 736.7, 530.7 734.3 C 540.9 730, 541 730, 547.7 731 C 551.3 731.6, 554.6 732.3, 554.9 732.5 C 557.9 734.3, 580.2 736, 588.9 735 C 612.6 732.4, 611.8 731.5, 585.3 731.5 C 568.8 731.5, 562.6 731.1, 555.5 729.6 C 546.5 727.7, 535.3 727.8, 532.7 729.7 C 532.1 730.2, 528.8 731.6, 525.5 732.9 C 522.2 734.1, 518.6 735.6, 517.5 736 C 498.4 744.3, 465.3 749.4, 446.8 747.1 C 431.2 745.1, 391.7 737.1, 362.5 730 C 345.1 725.7, 316.4 723.9, 301.5 726 M 625.7 726 C 617.5 727.4, 619 728.3, 628.5 727.7 C 633.5 727.3, 640.4 727.5, 644 728 C 647.6 728.5, 655.2 729.4, 661 730 C 666.8 730.6, 673.8 731.6, 676.7 732.2 C 679.5 732.8, 682.7 732.9, 683.7 732.5 C 685.8 731.5, 682.6 730.9, 664.5 728.5 C 657.9 727.6, 650 726.5, 647 726 C 640.3 725, 632.2 725, 625.7 726 M 439 732.1 C 439 733.7, 443.3 734, 465.5 734 C 482 734, 489.7 733.6, 491.7 732.8 C 495.4 731.1, 476.7 730.5, 460.3 731.8 C 454.2 732.3, 446.9 732.4, 444.1 732 C 441.3 731.7, 439 731.7, 439 732.1" stroke="none" fill="#1b1f3a" fill-rule="evenodd"/></svg>