<svg xmlns="http://www.w3.org/2000/svg" viewBox="0 0 768 768" version="1.1" preserveAspectRatio="xMidYMid meet">
	<path d="M 143.547 105.488 C 131.918 111.806, 117.985 128.006, 119.235 133.755 C 119.486 134.910, 120.658 133.471, 122.701 129.500 C 126.209 122.684, 136.313 112.412, 142.730 109.138 C 157.585 101.559, 189.131 117.794, 199.021 138.106 C 200.198 140.523, 201.531 143.211, 201.983 144.080 C 202.435 144.949, 203.126 148.659, 203.518 152.324 L 204.232 158.989 208.258 160.195 C 212.051 161.332, 214.829 163.630, 221.210 170.908 C 222.701 172.609, 224.433 174, 225.059 174 C 225.686 174, 223.876 171.320, 221.038 168.044 C 215.825 162.027, 210.508 158, 207.774 158 C 206.695 158, 206.117 156.392, 205.674 152.157 C 204.015 136.279, 192.165 120.988, 174 111.286 C 162.441 105.112, 148.962 102.545, 143.547 105.488 M 416.849 115.881 C 414.350 117.466, 411.246 120.278, 409.951 122.131 C 406.907 126.487, 406.149 126.966, 402.280 126.985 C 399.867 126.996, 398.500 127.757, 396.826 130.022 C 395.597 131.683, 393.109 133.918, 391.296 134.988 C 387.437 137.265, 387.127 138.720, 390.250 139.899 C 393.824 141.248, 446.622 142.847, 454 141.830 C 470.747 139.521, 475.659 139.591, 476.344 142.151 C 476.690 143.443, 476.979 159.207, 476.986 177.183 C 476.999 208.390, 476.914 209.892, 475.105 210.467 C 472.942 211.153, 471.686 216.074, 472.525 220.569 C 473.025 223.244, 472.698 223.668, 468.786 225.425 C 463.797 227.665, 446 245.366, 446 248.088 C 446 249.286, 446.899 249.971, 448.750 250.184 L 451.500 250.500 451.775 266.250 L 452.051 282 446.150 282 C 442.905 282, 438.906 282.269, 437.263 282.597 L 434.276 283.195 433.747 296.847 L 433.217 310.500 435.964 313 C 437.475 314.375, 440.535 317.763, 442.764 320.529 L 446.817 325.559 445.900 333.029 C 445.395 337.138, 444.315 346.800, 443.498 354.500 C 442.682 362.200, 441.354 373.675, 440.547 380 C 439.741 386.325, 438.413 396.910, 437.596 403.523 C 436.780 410.136, 435.879 416.211, 435.595 417.023 C 435.311 417.835, 434.614 422.550, 434.048 427.500 C 433.481 432.450, 432.318 441.675, 431.463 448 C 430.608 454.325, 429.238 465.575, 428.418 473 C 427.599 480.425, 426.264 492.350, 425.452 499.500 C 424.639 506.650, 423.464 517.563, 422.839 523.750 L 421.702 535 412.601 535.166 C 407.596 535.258, 395.415 535.198, 385.534 535.034 L 367.567 534.735 356.072 524.618 C 349.749 519.053, 343.797 513.825, 342.844 513 C 336.537 507.540, 271.817 443.687, 269.131 440.276 C 266.085 436.407, 265.940 435.917, 267.403 434.454 C 269.406 432.451, 269.415 431.037, 267.443 428.223 C 265.467 425.401, 262.648 425.388, 260.039 428.189 C 257.441 430.977, 257.477 431.559, 260.408 434.107 L 262.816 436.201 260.509 440.851 C 259.240 443.408, 256.620 449.325, 254.686 454 C 250.064 465.177, 241.081 484, 240.370 484 C 240.061 484, 238.444 483.028, 236.777 481.841 C 233.303 479.368, 224.710 478.166, 222.660 479.867 C 221.562 480.778, 220.976 479.395, 219.521 472.461 C 218.069 465.545, 217.211 463.516, 214.977 461.717 C 212.525 459.744, 212.092 458.455, 211.039 450 C 207.712 423.296, 206.079 395, 207.866 395 C 208.489 395, 209.002 394.212, 209.004 393.250 C 209.006 392.288, 209.930 389.987, 211.057 388.138 C 212.856 385.187, 212.931 384.576, 211.665 383.138 C 210.872 382.237, 209.911 380.034, 209.530 378.241 C 208.802 374.816, 207 374.711, 207 378.094 C 207 379.760, 206.686 379.903, 205 379 C 203.900 378.411, 203 377.094, 203 376.072 C 203 375.050, 202.325 373.955, 201.500 373.638 C 199.757 372.969, 199.327 362.534, 201 361.500 C 201.550 361.160, 201.967 359.221, 201.926 357.191 C 201.861 353.977, 201.191 352.983, 196.740 349.495 C 191.261 345.203, 190.406 343.242, 187.909 329.245 C 186.580 321.797, 185.347 320.545, 184.438 325.722 C 181.822 340.630, 180.925 343.551, 178.242 345.898 C 164.443 357.968, 164.126 358.377, 166.521 361.023 C 167.503 362.108, 168.110 365.032, 168.236 369.284 C 168.456 376.698, 166.806 379.654, 162.146 380.194 C 159.678 380.479, 159.500 380.837, 159.500 385.500 C 159.500 389.924, 159.759 390.537, 161.750 390.820 C 163.931 391.129, 164 391.483, 164 402.411 C 164 408.610, 163.546 417.241, 162.991 421.591 C 162.436 425.941, 161.579 436.395, 161.085 444.823 C 160.591 453.251, 159.926 460.408, 159.606 460.728 C 159.286 461.047, 155.355 459.395, 150.871 457.055 C 142.057 452.455, 138.103 451.861, 133.193 454.400 C 128.900 456.620, 128.755 456.564, 125.504 451.420 C 121.429 444.973, 110.193 435.557, 104.199 433.566 C 100.752 432.421, 98.306 430.720, 96.025 427.881 C 92.245 423.178, 87.483 420.009, 84.188 420.004 C 78.280 419.994, 67.614 427.208, 60.384 436.103 C 58.794 438.059, 56.957 438.881, 52.997 439.406 C 43.176 440.709, 29.493 449.394, 22.680 458.648 C 17.703 465.409, 16 466.916, 16 464.559 C 16 462.381, 14.621 462.613, 11.327 465.343 C 9.772 466.631, 6.588 468.518, 4.250 469.535 C 1.913 470.552, 0 471.748, 0 472.192 C -0 473.755, 4.120 472.973, 9.051 470.474 C 12.931 468.508, 14.467 468.179, 15.982 468.990 C 17.662 469.890, 18.471 469.312, 21.903 464.766 C 30.232 453.732, 31.990 452.183, 41.435 447.558 C 53.116 441.837, 54.835 441.680, 51.470 446.640 C 47.382 452.663, 48.888 454.389, 53.312 448.750 C 69.718 427.839, 85.084 419.133, 90.487 427.687 C 91.594 429.440, 93.963 431.680, 95.750 432.664 C 99.845 434.921, 99.815 435.495, 95.380 439.678 C 93.388 441.556, 92.019 443.353, 92.337 443.671 C 92.835 444.169, 94.567 442.992, 100.708 437.985 C 102.446 436.568, 104.650 436.766, 108.300 438.667 L 111.500 440.333 107.996 441.917 C 103.461 443.966, 99.473 446.806, 100.162 447.495 C 100.459 447.792, 101.966 447.380, 103.511 446.579 C 111.835 442.260, 115.791 443.558, 122.106 452.680 C 125.912 458.177, 125.968 458.017, 118.750 462.248 C 114.814 464.556, 108.296 470.225, 101.146 477.558 C 93.445 485.457, 88.331 489.851, 85.252 491.213 C 82.755 492.317, 77.964 495.769, 74.606 498.884 C 71.248 501.998, 66.787 505.847, 64.693 507.436 C 62.599 509.025, 55.940 515.877, 49.895 522.662 L 38.904 535 19.452 535 C 0.667 535, 0 535.069, 0 537 C 0 539.293, -7.384 539.178, 140.705 539.194 L 218.909 539.203 218.297 542.351 C 217.960 544.083, 217.150 547.075, 216.496 549 L 215.308 552.500 198.404 553.237 C 180.686 554.010, 167.084 555.251, 158.241 556.901 C 154.362 557.625, 151.640 557.534, 147.868 556.556 C 140.255 554.581, 132 557.411, 132 561.995 C 132 563.423, 135.801 572.158, 139.067 578.236 C 139.580 579.191, 140 580.487, 140 581.115 C 140 581.744, 141.575 584.001, 143.500 586.132 C 145.425 588.262, 147 590.679, 147 591.503 C 147 592.326, 147.450 593, 148 593 C 149.702 593, 149.118 590.965, 146.159 586.580 C 143.419 582.521, 136 567.851, 136 566.493 C 136 565.623, 146.062 580.688, 148 584.459 C 148.825 586.064, 151.525 590.196, 154 593.640 C 156.475 597.085, 162.491 605.571, 167.369 612.499 C 172.247 619.426, 176.920 625.777, 177.754 626.612 C 180.596 629.454, 177.746 630.247, 166.122 629.849 C 158.647 629.593, 155.400 629.799, 156.088 630.485 C 156.660 631.055, 162.545 631.527, 169.515 631.561 C 180.337 631.615, 182.200 631.871, 184.074 633.561 L 186.222 635.500 182.361 636.149 C 180.237 636.506, 175.575 637.333, 172 637.987 C 164.483 639.361, 154.618 638.654, 150.140 636.420 C 148.432 635.568, 145.564 635.034, 143.767 635.234 C 141.921 635.440, 141.152 635.834, 142 636.141 C 156.041 641.228, 165.102 642.064, 177.943 639.457 L 186.851 637.649 190.510 640.440 C 195.385 644.158, 193.949 645.446, 184.704 645.650 C 180.742 645.738, 177.275 645.855, 177 645.911 C 175.313 646.254, 182.805 649, 185.426 649 C 188.839 649, 197 645.533, 197 644.084 C 197 642.336, 199.974 642.164, 207.157 643.495 C 211.196 644.244, 217.425 645.374, 221 646.007 C 224.575 646.640, 232.225 648.218, 238 649.515 C 243.775 650.811, 251.650 652.135, 255.500 652.457 C 272.265 653.857, 283.951 655.412, 282.845 656.096 C 282.188 656.502, 273.292 656.594, 263.076 656.300 C 250.503 655.939, 244.823 656.095, 245.500 656.782 C 246.050 657.341, 251.060 657.970, 256.633 658.180 C 262.207 658.390, 267.382 659.070, 268.133 659.691 C 269.705 660.991, 277 662.544, 277 661.579 C 277 661.225, 275.987 660.529, 274.750 660.031 C 272.950 659.308, 273.510 659.114, 277.550 659.063 C 280.328 659.029, 283.037 658.563, 283.572 658.028 C 286.017 655.583, 299.494 654.839, 320.500 655.990 C 355.027 657.882, 383.978 658.805, 411.500 658.891 C 454.198 659.025, 548.474 656.061, 550.991 654.505 C 552.365 653.656, 565.614 651.401, 577.175 650.049 C 581.396 649.555, 585.671 648.729, 586.675 648.214 C 589.787 646.616, 594.238 645.805, 593.520 646.967 C 592.597 648.461, 595.908 649.492, 597.267 648.133 C 598.111 647.289, 598.094 647, 597.200 647 C 594.563 647, 596.277 644.988, 601.424 642.043 C 604.852 640.082, 611.457 634.097, 619.369 625.783 L 631.889 612.626 641.533 612.883 C 646.950 613.027, 653.339 612.585, 656.112 611.875 C 661.604 610.467, 670.392 611.698, 676.961 614.796 C 680.352 616.395, 680.372 616.440, 677.961 617.027 C 675.354 617.662, 692.765 620, 700.095 620 C 707.376 620, 703.173 618.193, 694.246 617.486 C 687.780 616.973, 683.936 616.057, 679.500 613.974 C 670.503 609.748, 666.420 608.736, 661.193 609.438 C 658.612 609.784, 652.066 610.321, 646.647 610.631 C 636.276 611.223, 633.504 610.438, 636.114 607.647 C 636.876 606.832, 639.525 603.180, 642 599.530 C 644.475 595.881, 649.516 588.757, 653.203 583.698 L 659.905 574.500 666.606 574.500 C 671.072 574.500, 673.451 574.083, 673.737 573.250 C 674.050 572.340, 672.512 572, 668.083 572 C 661.051 572, 661.143 572.148, 664.781 566.680 C 666.310 564.381, 668.215 561.208, 669.014 559.629 C 669.814 558.050, 671.150 556.546, 671.984 556.288 C 672.818 556.030, 674.486 555.348, 675.691 554.772 C 676.930 554.180, 679.711 554.018, 682.093 554.399 C 685.808 554.993, 686.154 554.891, 685.030 553.536 C 684.231 552.573, 682.029 551.985, 679.128 551.960 L 674.500 551.920 677.250 550.428 C 678.763 549.607, 680.007 548.613, 680.016 548.218 C 680.025 547.823, 681.375 545.977, 683.016 544.114 C 684.657 542.252, 686 540.340, 686 539.864 C 686 539.389, 704 539, 726 539 C 760.889 539, 766 538.808, 766 537.500 C 766 536.192, 760.944 536, 726.500 536 L 687 536 687 533.559 C 687 529.952, 685.894 529.739, 676.007 531.446 C 664.889 533.364, 660.073 533.370, 657.559 531.468 C 656.491 530.661, 655.002 530, 654.249 530 C 653.497 530, 649.109 528.200, 644.500 526 C 639.891 523.800, 634.630 521.996, 632.810 521.992 C 629.620 521.984, 617.584 526.171, 609.687 530.037 C 605.208 532.229, 602.556 531.573, 597.328 526.983 C 589.514 520.123, 583.123 519.157, 574.695 523.564 C 571.999 524.974, 569.691 525.986, 569.565 525.814 C 568.020 523.691, 554.055 493.720, 553.577 491.500 C 552.205 485.128, 550.861 483, 548.207 483 C 546.805 483, 544.835 482.255, 543.829 481.345 C 542.111 479.791, 542 479.820, 542 481.825 C 542 482.999, 542.640 485.656, 543.422 487.730 C 544.203 489.803, 545.810 494.875, 546.992 499 C 548.174 503.125, 549.512 507.400, 549.965 508.500 C 550.418 509.600, 551.568 512.750, 552.521 515.500 C 553.474 518.250, 554.808 521.850, 555.486 523.500 C 556.164 525.150, 557.238 527.771, 557.872 529.325 C 559.150 532.455, 558.628 534.178, 556.634 533.413 C 555.358 532.923, 552.320 526.199, 550.006 518.741 C 549.364 516.673, 548.500 515.191, 548.085 515.447 C 547.670 515.704, 545.485 514.020, 543.229 511.707 L 539.127 507.500 538.062 495 C 536.862 480.936, 534.823 463.070, 532.469 446 C 530.708 433.229, 528.645 416.151, 526.491 396.500 C 525.707 389.350, 524.372 377.425, 523.523 370 C 522.674 362.575, 521.349 349.805, 520.578 341.623 L 519.176 326.746 523.729 319.642 C 526.234 315.735, 529.569 311.336, 531.141 309.868 C 534.524 306.708, 534.689 305.145, 532 301.727 C 530.644 300.004, 530 297.670, 530 294.484 C 530 289.923, 529.923 289.803, 527.404 290.435 C 524.829 291.081, 524.811 291.044, 525.154 285.878 L 525.500 280.669 518.688 280.906 C 510.074 281.205, 509.081 280.437, 510.098 274.258 C 510.528 271.641, 510.908 265.410, 510.940 260.411 C 510.997 251.712, 511.107 251.272, 513.500 250.182 C 514.875 249.555, 516 248.342, 516 247.486 C 516 245.105, 498.118 228.395, 492.789 225.797 L 488.078 223.500 488.039 217.950 C 487.999 212.225, 486.842 210, 483.907 210 C 481.260 210, 481 208.061, 481 188.311 C 481 171.065, 481.121 169.835, 482.750 170.495 C 483.712 170.885, 485.850 171.672, 487.500 172.244 C 489.150 172.816, 491.175 173.826, 492 174.489 C 495.460 177.272, 496.222 176.984, 493 174.111 C 491.075 172.395, 488.600 170.739, 487.500 170.432 C 481.676 168.807, 481 167.930, 481 162.005 C 481 158.893, 480.514 151.517, 479.920 145.613 L 478.839 134.878 481.460 132.449 C 486.299 127.964, 480.799 123.651, 475.223 127.557 C 472.673 129.342, 472.151 134, 474.500 134 C 475.333 134, 476 134.889, 476 136 C 476 138.217, 474.968 138.568, 473.314 136.914 C 472.533 136.133, 469.220 136.437, 461.510 137.998 C 451.611 140.002, 448.985 140.117, 427.146 139.508 C 391.802 138.523, 387.735 138.171, 392.863 136.543 C 393.971 136.192, 396.287 134.298, 398.010 132.336 C 400.877 129.071, 401.476 128.820, 405.054 129.393 C 408.750 129.984, 409.042 129.838, 410.356 126.759 C 415.980 113.575, 435.519 110.940, 440.081 122.750 C 440.956 125.013, 443 125.877, 443 123.984 C 443 123.425, 444.525 122.240, 446.389 121.352 C 450.861 119.219, 456.036 120.215, 460.403 124.049 C 463.703 126.947, 466 127.815, 466 126.165 C 466 124.718, 460.240 120.127, 456.423 118.532 C 451.730 116.571, 449.898 116.604, 445.439 118.730 C 441.950 120.394, 441.757 120.388, 440.421 118.561 C 435.733 112.149, 424.709 110.896, 416.849 115.881 M 685.150 117.997 C 679.161 120.151, 678.306 120.707, 672.147 126.445 C 666.745 131.477, 663.836 135.988, 661.674 142.688 C 659.778 148.563, 659.529 152, 661 152 C 661.550 152, 662.007 150.988, 662.015 149.750 C 662.080 139.651, 671.622 127.235, 683.876 121.304 C 696.925 114.988, 725.995 119.859, 737.485 130.286 C 738.801 131.480, 739.601 131.697, 739.857 130.928 C 740.812 128.063, 727.041 120.808, 714.394 117.514 C 706.107 115.356, 691.836 115.591, 685.150 117.997 M 672.332 157.695 C 662.995 160.928, 656.725 170.432, 656.827 181.200 C 656.862 184.948, 657.102 188.357, 657.361 188.775 C 657.620 189.194, 656.161 189.377, 654.118 189.183 C 644.564 188.271, 640.465 201.765, 648.127 208.904 C 650.419 211.039, 656 211.816, 656 210 C 656 209.450, 654.763 208.986, 653.250 208.968 C 648.410 208.912, 647 206.956, 647 200.295 C 647 191.764, 650.686 188.891, 657 192.500 C 658.375 193.286, 659.837 193.945, 660.250 193.965 C 661.374 194.018, 661.154 189.213, 660 188.500 C 658.161 187.363, 658.836 175.243, 660.971 171.057 C 664.493 164.153, 674.403 158, 682 158 C 688.544 158, 701 164.932, 701 168.573 C 701 169.358, 701.675 170, 702.500 170 C 704.800 170, 704.310 168.423, 700.752 164.370 C 694.246 156.960, 682.454 154.191, 672.332 157.695 M 246.336 163.985 C 238.020 165.746, 230.051 172, 226.250 179.750 C 224.834 182.637, 223.298 185, 222.838 185 C 222.377 185, 222 185.900, 222 187 C 222 188.100, 222.450 189, 223 189 C 223.550 189, 224 188.617, 224 188.148 C 224 186.551, 232.729 174.001, 235.118 172.163 C 249.578 161.042, 270.930 165.591, 278.402 181.384 C 281.256 187.417, 281.958 196.567, 279.750 198.947 C 278.723 200.054, 278.857 200.166, 280.500 199.577 C 288.207 196.814, 295.546 198.467, 296.784 203.246 C 297.569 206.277, 297.818 206.414, 302.054 206.167 C 305.599 205.961, 307.601 206.577, 311.932 209.204 C 319.932 214.059, 319.484 214.464, 305.739 214.793 C 295.215 215.046, 285.008 216.427, 286.149 217.444 C 287.442 218.597, 321.228 216.571, 321.711 215.311 C 322.689 212.761, 308.292 204, 303.123 204 C 300.992 204, 299.732 203.421, 299.317 202.250 C 297.983 198.489, 295.703 197.066, 289.978 196.418 L 284.201 195.764 283.511 190.239 C 281.227 171.965, 264.486 160.142, 246.336 163.985 M 598.500 165.569 C 590.172 169.892, 586.631 175.867, 587.191 184.656 L 587.595 191 583.743 191 C 576.237 191, 564.881 198.640, 563.356 204.717 C 562.455 208.307, 563.472 218.872, 564.851 220.251 C 565.814 221.214, 565.932 220.273, 565.409 215.823 C 565.044 212.715, 565.044 208.581, 565.409 206.635 C 566.112 202.885, 571.932 196, 574.399 196 C 575.188 196, 575.986 195.543, 576.172 194.985 C 576.358 194.427, 579.542 193.687, 583.249 193.341 L 589.987 192.712 589.422 186.106 C 588.758 178.330, 590.423 174.401, 596.450 169.525 C 599.956 166.688, 600.715 166.501, 608.634 166.515 C 615.687 166.528, 616.793 166.322, 615.348 165.265 C 612.913 163.484, 602.142 163.679, 598.500 165.569 M 167 167.977 C 165.075 168.457, 161.653 169.321, 159.396 169.897 C 153.009 171.527, 145.291 175.934, 140.432 180.724 C 134.731 186.345, 134.629 188.518, 140.313 183.279 C 165.840 159.749, 213.876 169.357, 218.606 198.940 C 219.502 204.542, 221.005 205.093, 220.978 199.809 C 220.939 192.055, 215.113 182.238, 207.405 176.935 C 196.581 169.487, 177.718 165.305, 167 167.977 M 69.423 179.363 C 55.591 184.506, 45.756 195.028, 47.346 202.981 C 47.810 205.302, 47.263 206.693, 44.657 209.812 L 41.385 213.728 38.637 211.364 C 35.772 208.900, 26 207.845, 26 210 C 26 210.550, 28.181 211, 30.847 211 C 34.259 211, 36.377 211.592, 38 213 C 41.365 215.919, 43.275 215.485, 46.893 210.983 C 57.283 198.055, 77.535 196.334, 86.814 207.591 C 90.557 212.131, 91.956 211.703, 88.758 206.996 C 82.153 197.275, 64.094 195.194, 52.250 202.787 C 50.093 204.171, 50 204.104, 50 201.172 C 50 190.400, 72.361 176.817, 84.620 180.142 C 94.180 182.735, 98.265 187.766, 98.397 197.112 L 98.477 202.724 101.482 201.862 C 106.142 200.525, 106.929 200.755, 110.583 204.518 C 112.907 206.911, 114 207.526, 114 206.441 C 114 203.010, 108.430 198.943, 104.571 199.556 C 101.189 200.093, 101 199.974, 100.994 197.312 C 100.963 181.574, 86.142 173.148, 69.423 179.363 M 604.500 181 C 604.160 181.550, 603.121 182.003, 602.191 182.007 C 601.261 182.010, 599.150 182.954, 597.500 184.104 C 594.086 186.483, 595.687 186.285, 603.230 183.395 C 608.486 181.382, 612.637 182.193, 618.230 186.328 C 620.925 188.321, 620.987 188.322, 623.085 186.423 C 628.303 181.701, 639.864 185.624, 641.645 192.722 C 642.255 195.154, 644 195.874, 644 193.694 C 644 191.749, 639.431 185.924, 636.270 183.840 C 632.775 181.535, 628.476 181.564, 624.050 183.921 L 620.599 185.759 615.277 182.879 C 609.852 179.944, 605.610 179.204, 604.500 181 M 118.500 188.718 C 115.357 189.482, 110.315 193.689, 109.693 196.067 C 109.131 198.215, 109.141 198.217, 111.314 196.299 C 120.332 188.339, 130.293 189.266, 136.064 198.603 C 137.129 200.326, 138 203.145, 138 204.868 C 138 206.591, 138.450 208, 139 208 C 141.244 208, 139.998 200.297, 137.107 196.307 C 132.479 189.918, 125.417 187.037, 118.500 188.718 M 257 195.094 C 254.249 196.159, 243.669 207.003, 244.536 207.869 C 244.834 208.167, 247.459 205.913, 250.369 202.860 C 255.932 197.025, 260.489 195.348, 267.159 196.682 C 270.862 197.422, 273.768 200.632, 272.176 202.224 C 270.077 204.323, 270.686 206.594, 272.829 204.655 C 275.828 201.941, 279.240 202.637, 283.297 206.792 C 285.334 208.878, 287 211.379, 287 212.351 C 287 213.323, 287.450 213.840, 288 213.500 C 291.028 211.629, 283.590 202.468, 278.162 201.382 C 276.423 201.035, 275 200.168, 275 199.457 C 275 195.459, 263.352 192.636, 257 195.094 M 475.580 213.870 C 475.284 214.349, 475.290 217.034, 475.592 219.837 L 476.142 224.934 470.821 228.380 C 467.895 230.275, 462.473 234.902, 458.774 238.663 L 452.048 245.500 481.023 245.500 C 496.959 245.500, 509.999 245.216, 509.999 244.869 C 510.004 241.804, 485.837 224.076, 481.366 223.864 C 478.649 223.735, 478.630 223.703, 481 223.263 C 484.919 222.535, 486.622 217.022, 483.800 214.200 C 482.418 212.818, 476.380 212.575, 475.580 213.870 M 611.500 216.427 C 609.216 217.260, 605.761 219.841, 603.446 222.443 C 598.692 227.787, 597.821 227.962, 595.088 224.123 C 590.188 217.242, 577.870 215.876, 571.942 221.556 C 569.601 223.798, 568.158 224.377, 565.487 224.147 C 560.387 223.708, 558.506 224.637, 555.598 229.032 C 553.420 232.322, 552.408 233, 549.677 233 C 545.564 233, 542.667 235.028, 543.153 237.566 C 543.703 240.438, 557.415 241.430, 576.500 239.979 C 589.682 238.977, 591.864 239.030, 594.500 240.413 C 598.391 242.455, 609.513 242.503, 613.364 240.494 C 616.738 238.734, 620.166 238.566, 621.685 240.085 C 623.164 241.564, 631.508 241.614, 643.500 240.217 C 649 239.576, 659.436 239.040, 666.691 239.026 C 673.946 239.012, 680.139 238.584, 680.453 238.076 C 681.325 236.665, 678.290 236.317, 669.425 236.810 L 661.351 237.260 659.308 233.797 C 657.292 230.380, 655.555 229.575, 645.879 227.570 C 644.437 227.271, 642.049 225.441, 640.571 223.504 C 635.088 216.315, 621.120 212.915, 611.500 216.427 M 119.500 219.569 C 117.850 220.426, 115.308 222.263, 113.852 223.653 C 111.561 225.839, 110.901 226.017, 108.958 224.978 C 105.017 222.869, 96.505 224.243, 92.240 227.678 C 87.003 231.896, 81.989 241, 84.905 241 C 85.402 241, 87.176 238.578, 88.847 235.617 C 92.701 228.789, 97.045 226, 103.829 226 C 107.590 226, 109.397 226.510, 110.737 227.949 C 112.529 229.871, 112.578 229.860, 114.441 227.087 C 117.587 222.407, 122.359 220.500, 130.927 220.500 C 141.252 220.500, 148.288 224.252, 151.985 231.729 L 154.469 236.755 160.872 237.353 C 168.620 238.076, 171.601 239.866, 173.841 245.142 L 175.541 249.146 182.744 249.323 C 188.654 249.468, 190.336 249.889, 192.113 251.667 C 195.314 254.870, 193.991 256.996, 188.781 257.020 C 186.427 257.031, 181.575 257.512, 178 258.088 C 170.132 259.356, 153.901 261.545, 141 263.077 C 120.633 265.495, 97.581 262.985, 94.509 258.014 C 93.596 256.538, 92 256.773, 92 258.383 C 92 261.826, 73.795 262.200, 69.529 258.844 C 64.376 254.791, 68.371 245.738, 75.910 244.387 C 81.253 243.429, 83.220 242.068, 79.315 242.030 C 72.562 241.966, 66.561 246.374, 64.831 252.669 C 64.251 254.776, 63.280 256.812, 62.673 257.193 C 61.994 257.618, 62.519 258.310, 64.034 258.986 C 65.390 259.591, 67.625 260.735, 69 261.528 C 71.922 263.214, 87.412 263.554, 91.443 262.022 C 93.463 261.254, 94.810 261.489, 97.710 263.118 C 104.703 267.045, 126.234 267.790, 149 264.891 C 153.125 264.365, 161.675 263.247, 168 262.407 C 174.325 261.566, 182.650 260.487, 186.500 260.010 C 195.874 258.848, 197 258.318, 197 255.067 C 197 250.075, 190.046 245.743, 182.660 246.135 C 178.183 246.373, 177.368 246.117, 176.396 244.167 C 173.375 238.108, 167.793 235.018, 159.848 235.006 C 156.717 235.001, 156.051 234.585, 155.182 232.091 C 153.808 228.152, 147.088 222.004, 141.817 219.864 C 136.181 217.576, 123.658 217.411, 119.500 219.569 M 611.210 219.676 C 606.377 221.386, 603.551 224.873, 604.210 228.316 C 604.633 230.532, 604.496 230.588, 600.925 229.635 C 597.923 228.833, 596.700 228.967, 594.634 230.320 C 593.224 231.244, 591.830 232, 591.535 232 C 590.319 232, 591.124 229.628, 592.750 228.419 C 596.926 225.313, 588.359 219.626, 580.537 220.312 C 576.494 220.667, 575.095 221.321, 572.989 223.844 C 570.764 226.509, 569.925 226.863, 566.952 226.389 C 562.322 225.650, 558.450 227.288, 556.829 230.671 C 555.638 233.156, 554.238 233.957, 548.107 235.660 C 541.909 237.382, 563.541 238.391, 578.215 237.065 C 590.235 235.978, 591.168 236.027, 595.408 237.958 C 601.061 240.533, 607.241 240.527, 612.942 237.941 C 617.323 235.953, 622.274 236.017, 623.548 238.077 C 624.320 239.326, 637.723 239.258, 638.500 238 C 638.840 237.450, 643.066 237, 647.892 237 C 657.366 237, 658.420 236.654, 657.005 234.010 C 656.104 232.325, 651.373 230.720, 643.705 229.498 C 641.049 229.074, 639.657 228.233, 639.070 226.696 C 636.177 219.135, 622.488 215.686, 611.210 219.676 M 480.184 255.750 C 480.493 258.435, 480.652 258.500, 487 258.500 C 493.348 258.500, 493.507 258.435, 493.816 255.750 L 494.133 253 487 253 L 479.867 253 480.184 255.750 M 480.384 262.442 C 478.862 266.408, 480.293 267.500, 487.014 267.500 C 493.090 267.500, 493.521 267.349, 493.837 265.113 C 494.284 261.952, 492.577 261.034, 486.219 261.015 C 482.531 261.005, 480.770 261.435, 480.384 262.442 M 665.396 266.429 C 663.689 267.172, 661.326 269.137, 660.146 270.796 C 658.965 272.454, 655.988 274.989, 653.532 276.429 C 649.991 278.504, 648.843 279.871, 647.994 283.023 C 646.998 286.722, 646.672 287, 643.330 287 C 640.492 287, 639.014 287.765, 636.305 290.638 L 632.874 294.276 626.187 293.655 C 618.196 292.913, 609 293.841, 609 295.389 C 609 296.162, 612.669 296.391, 621.053 296.143 C 631.697 295.828, 633.347 296.003, 635.167 297.643 C 637.870 300.078, 681.642 299.836, 688.500 297.347 C 690.700 296.549, 696.325 295.631, 701 295.308 C 706.916 294.899, 709.761 294.275, 710.358 293.256 C 711.027 292.114, 712.981 291.871, 719.264 292.147 C 725.071 292.402, 727.432 292.152, 727.740 291.250 C 728.042 290.365, 726.756 289.996, 723.333 289.985 C 717.689 289.967, 716.546 289.386, 715.489 286 C 714.053 281.403, 710.164 276.265, 706.314 273.877 C 701.625 270.969, 691.811 270.553, 687.976 273.100 C 685.635 274.655, 685.487 274.592, 682.818 270.907 C 678.879 265.469, 671.788 263.647, 665.396 266.429 M 664.031 269.774 C 662.826 270.750, 661.521 273.108, 661.131 275.013 C 660.511 278.045, 659.965 278.553, 656.764 279.073 C 651.984 279.850, 650.351 281.315, 649.559 285.536 C 648.937 288.850, 648.723 289, 644.610 289 C 639.804 289, 637 291.181, 637 294.918 L 637 297.179 661.750 296.781 C 675.362 296.562, 687.288 296.024, 688.250 295.585 C 690.879 294.385, 690.362 293.022, 687.022 292.354 C 685.385 292.027, 683.481 291.080, 682.792 290.249 C 681.210 288.343, 687.177 289.359, 690.715 291.598 C 693.930 293.633, 706.425 293.551, 705.638 291.500 C 705.186 290.322, 705.915 290, 709.031 290 C 713.776 290, 714.118 288.513, 710.734 282.594 C 707.122 276.279, 703.923 274.500, 696.177 274.500 C 690.796 274.500, 688.869 274.950, 686.250 276.818 L 683 279.136 683 276.968 C 683 275.776, 681.470 273.270, 679.600 271.400 C 675.553 267.353, 667.995 266.564, 664.031 269.774 M 481 295.815 C 481 298.608, 481.228 298.751, 486.671 299.391 C 492.908 300.124, 494.338 299.420, 493.835 295.865 C 493.529 293.705, 492.959 293.474, 487.250 293.202 L 481 292.905 481 295.815 M 438.199 302.973 C 434.264 303.921, 433.568 304.491, 434.501 306.002 C 435.011 306.827, 446.696 307.053, 477.351 306.830 C 526.554 306.472, 531 306.284, 531 304.556 C 531 302.264, 447.084 300.832, 438.199 302.973 M 441.750 311.689 C 439.176 312.362, 439.513 313.096, 444.784 318.288 C 449.124 322.562, 450.007 323, 454.284 323 C 460.136 323, 460.131 322.634, 454.190 316.205 C 449.351 310.970, 447.322 310.233, 441.750 311.689 M 468.407 313.250 C 468.760 314.488, 469.319 316.738, 469.649 318.250 L 470.250 321 481.014 321 L 491.777 321 492.447 317.429 C 492.816 315.465, 493.364 313.215, 493.666 312.429 C 494.115 311.259, 492.664 311, 485.662 311 L 477.110 311 476.778 315.750 L 476.447 320.500 475.105 315.750 C 473.886 311.438, 473.486 311, 470.765 311 C 468.133 311, 467.845 311.275, 468.407 313.250 M 496.642 314.750 C 495.445 321.990, 496.029 322.557, 503.224 321.142 C 504.379 320.915, 507 315.297, 507 313.050 C 507 311.264, 506.373 311, 502.131 311 C 497.281 311, 497.259 311.015, 496.642 314.750 M 510.111 316.128 C 506.375 322.139, 506.213 321.711, 512.518 322.465 L 517.500 323.061 520.781 318.531 C 526.107 311.178, 526.071 311, 519.256 311 L 513.299 311 510.111 316.128 M 454.193 325.728 C 452.374 325.952, 450.696 326.667, 450.464 327.318 C 450.035 328.522, 447.018 359.489, 447.329 359.496 C 447.423 359.498, 463.428 359.366, 482.894 359.201 L 518.289 358.902 517.607 351.201 C 516.050 333.632, 515.288 327.274, 514.604 326.168 C 513.909 325.043, 462.773 324.670, 454.193 325.728 M 94.764 334.936 C 87.691 337.220, 82.376 342.079, 79.941 348.489 C 78.614 351.980, 77.938 352.557, 74.520 353.113 C 71.962 353.529, 69.683 354.790, 67.916 356.768 C 65.457 359.520, 65.077 359.648, 63.639 358.210 C 60.917 355.488, 50.844 355.360, 45.782 357.984 C 34.531 363.814, 29.185 370.799, 29.889 378.750 C 30.058 380.655, 50.983 380.452, 55.654 378.500 C 60.186 376.606, 64.322 376.619, 69.845 378.542 C 75.954 380.670, 85.261 380.688, 93.728 378.588 C 101.209 376.733, 106.293 376.839, 113.745 379.006 C 117.395 380.068, 118.655 379.990, 122.745 378.454 C 125.839 377.291, 131.229 376.529, 138.175 376.272 C 147.960 375.911, 149.058 375.670, 151.351 373.376 C 156.004 368.724, 151.746 362.928, 140.712 358.895 C 137.861 357.853, 134.579 357, 133.419 357 C 132.259 357, 130.495 356.100, 129.500 355 C 128.505 353.900, 127.085 353, 126.345 353 C 125.533 353, 125 351.870, 125 350.148 C 125 346.370, 121.443 341.258, 116.297 337.641 C 111.772 334.461, 100.588 333.056, 94.764 334.936 M 184.597 339.335 C 184.246 341.203, 184.240 343.461, 184.582 344.352 C 185.013 345.476, 184.441 346.262, 182.715 346.918 C 179.973 347.961, 172.001 355.159, 171.998 356.595 C 171.997 357.105, 177.886 357.367, 185.498 357.196 C 192.924 357.029, 199.004 356.579, 199.008 356.196 C 199.013 355.813, 196.538 353.204, 193.508 350.398 C 189.310 346.510, 187.992 344.607, 187.968 342.398 C 187.951 340.804, 187.328 338.699, 186.585 337.719 C 185.351 336.092, 185.179 336.232, 184.597 339.335 M 96.500 337.877 C 88.395 340.008, 82.420 345.736, 81.828 351.943 C 81.507 355.313, 81.402 355.387, 76.843 355.467 C 71.680 355.558, 68.096 358.521, 68.033 362.750 C 67.991 365.611, 67.839 365.586, 64.123 362.114 C 59.221 357.536, 52.141 357.050, 46 360.872 C 38.398 365.604, 32.019 372.683, 32.007 376.403 C 32 378.196, 32.632 378.269, 42.999 377.676 C 50.672 377.237, 54.760 376.548, 56.517 375.397 C 59.348 373.542, 65.515 373.957, 72.500 376.472 C 77.650 378.326, 87.419 378.406, 90.285 376.618 C 93.846 374.396, 106.356 373.704, 110.635 375.492 C 115.131 377.371, 120.722 377.374, 124 375.500 C 125.702 374.527, 129.744 374.060, 136.668 374.035 C 148.424 373.994, 150 373.587, 150 370.589 C 150 366.147, 143.728 361.680, 136.785 361.178 C 131.521 360.797, 130.130 360.280, 127.872 357.863 C 124.882 354.662, 121.914 354.275, 117.601 356.524 C 116.007 357.355, 114.499 357.833, 114.251 357.584 C 113.350 356.684, 115.211 354.939, 118.568 353.536 C 122.606 351.849, 123.033 349.260, 119.982 344.975 C 115.680 338.933, 104.889 335.671, 96.500 337.877 M 449.458 362.701 L 446.416 363.096 445.232 373.298 C 443.955 384.311, 441.477 403.042, 440.444 409.500 L 439.804 413.500 482.018 413.500 L 524.232 413.500 523.673 408 C 523.105 402.415, 520.351 378.033, 519.156 368 L 518.500 362.500 485.500 362.403 C 467.350 362.350, 451.131 362.484, 449.458 362.701 M 476 374.668 C 473.401 375.762, 473.031 377.261, 473.015 386.750 L 473 396 483.418 396 C 497.318 396, 497.003 396.182, 496.986 388.143 C 496.969 379.777, 496.414 377.740, 493.686 376.035 C 491.374 374.590, 478.542 373.598, 476 374.668 M 479 377.891 C 476.692 378.530, 476.477 379.100, 476.204 385.292 L 475.909 392 483.954 392 L 492 392 492 385.619 L 492 379.237 487.557 378.119 C 482.689 376.893, 482.614 376.891, 479 377.891 M 173 389.712 C 165.951 390.151, 164.310 390.710, 165.771 392.171 C 167.334 393.734, 205.173 393.338, 206.155 391.749 C 206.547 391.115, 206.646 390.237, 206.375 389.798 C 205.906 389.038, 184.698 388.984, 173 389.712 M 173.406 395.736 L 167.312 396.087 166.650 413.294 C 166.285 422.757, 165.714 432.975, 165.379 436 L 164.771 441.500 185.635 441.160 C 197.111 440.973, 206.569 440.748, 206.653 440.660 C 206.738 440.572, 206.400 437.350, 205.904 433.500 C 205.407 429.650, 204.717 419.701, 204.371 411.391 L 203.741 396.281 194.717 395.641 C 189.754 395.288, 184.299 395.087, 182.596 395.193 C 180.893 395.299, 176.758 395.543, 173.406 395.736 M 183 400.306 L 179.500 401.500 179.500 409.500 L 179.500 417.500 184.115 418.392 C 191.711 419.861, 194.005 418.777, 193.976 413.731 C 193.942 407.593, 192.371 401.745, 190.364 400.277 C 188.277 398.751, 187.553 398.754, 183 400.306 M 440.400 416.765 C 439.796 417.169, 439.026 419.975, 438.690 423 C 438.355 426.025, 437.326 434.350, 436.405 441.500 C 435.484 448.650, 434.678 455.625, 434.615 457 L 434.500 459.500 462 459.815 C 477.125 459.988, 498.656 459.824, 509.846 459.451 L 530.192 458.773 529.632 455.137 C 528.567 448.227, 525.999 428.479, 525.356 422.250 L 524.711 416 483.105 416.015 C 460.222 416.024, 441.005 416.361, 440.400 416.765 M 617.581 441.073 C 614.010 444.414, 610.827 447.969, 610.508 448.973 C 610.045 450.434, 609.185 450.706, 606.214 450.329 C 603.285 449.957, 601.509 450.494, 597.814 452.866 C 589.846 457.982, 587.632 464, 593.719 464 C 595.249 464, 599.651 464.660, 603.500 465.467 C 614.462 467.764, 668.269 465.424, 673.096 462.440 C 674.811 461.381, 673.994 459.037, 671.750 458.576 C 661.626 456.499, 658.298 455.577, 657 454.491 C 656.175 453.801, 654.375 452.898, 653 452.483 C 651.625 452.069, 650.201 451.264, 649.835 450.694 C 649.469 450.124, 647.237 449.397, 644.875 449.079 C 641.088 448.569, 640.507 448.145, 639.964 445.500 C 638.418 437.975, 635.322 435.076, 628.787 435.032 C 624.382 435.002, 623.648 435.398, 617.581 441.073 M 621.979 439.580 C 620.616 440.998, 618.263 443.429, 616.750 444.981 C 615.237 446.533, 614 448.747, 614 449.901 C 614 451.744, 613.409 452, 609.154 452 C 604.136 452, 599.331 453.856, 595.320 457.343 C 591.857 460.355, 592.363 462, 596.750 461.997 C 598.813 461.996, 603.603 462.748, 607.395 463.668 C 613.346 465.112, 615.298 465.172, 621.638 464.107 C 625.678 463.428, 629.331 463.087, 629.756 463.349 C 630.658 463.907, 660.856 462.275, 666 461.391 C 669.380 460.810, 669.269 460.731, 662.791 459.087 C 659.101 458.151, 655.241 456.623, 654.212 455.692 C 653.184 454.762, 651.414 454, 650.278 454 C 649.143 454, 647.965 453.352, 647.661 452.560 C 647.329 451.693, 645.398 450.997, 642.804 450.810 C 638.684 450.513, 638.486 450.350, 638.172 447 C 637.324 437.957, 627.753 433.571, 621.979 439.580 M 168.750 444.666 L 164 445.110 164 453.973 C 164 458.848, 163.727 463.548, 163.393 464.418 C 162.908 465.682, 163.518 466, 166.425 466 C 172.221 466, 176.338 468.330, 180.457 473.941 L 184.268 479.133 187.863 475.816 C 189.841 473.992, 191.693 472.250, 191.979 471.944 C 194.108 469.670, 202.848 463.823, 205.612 462.823 C 209.453 461.434, 209.558 460.887, 207.772 451.474 L 206.544 445 201.022 444.995 C 197.985 444.993, 190.550 444.818, 184.500 444.607 C 178.450 444.396, 171.363 444.422, 168.750 444.666 M 270 446.155 C 270 446.455, 270.417 448.006, 270.926 449.601 C 272.617 454.892, 280.758 481.381, 283.036 489 C 285.734 498.026, 292.081 517.380, 292.481 517.800 C 292.638 517.964, 296.768 515.714, 301.658 512.800 C 311.219 507.102, 315.281 504.990, 321.393 502.542 L 325.285 500.983 303.696 479.241 C 291.822 467.284, 281.035 456.375, 279.726 455 C 275.661 450.729, 270 445.581, 270 446.155 M 261.369 448.110 C 260.759 448.875, 259.691 451.266, 258.995 453.425 C 258.299 455.584, 255.540 462.003, 252.865 467.690 C 250.189 473.377, 248 478.208, 248 478.426 C 248 478.644, 246.393 482.349, 244.429 486.661 C 237.748 501.328, 236.431 504.572, 226.632 530.500 C 224.761 535.450, 223.334 539.618, 223.461 539.763 C 223.588 539.907, 228.374 539.457, 234.096 538.763 C 239.818 538.068, 254.025 537.500, 265.666 537.500 C 279.607 537.500, 286.577 537.159, 286.085 536.500 C 284.251 534.041, 277.580 513.997, 273.605 499 C 268.363 479.227, 265.947 471.931, 266.484 477.500 C 267.373 486.712, 271.109 506.618, 274.445 519.918 C 275.331 523.447, 275.853 526.822, 275.606 527.418 C 275.360 528.013, 275.122 527.577, 275.079 526.450 C 275.036 525.322, 274.608 523.972, 274.129 523.450 C 273.054 522.279, 270.300 513.221, 268.974 506.500 C 265.980 491.318, 263.705 474.526, 264.348 472.358 C 265.363 468.941, 262.611 446.552, 261.369 448.110 M 266.079 453.320 C 265.986 456.648, 268.562 471.279, 270.557 478.756 C 272.902 487.542, 275.114 495.364, 276 498 C 276.462 499.375, 277.593 503.200, 278.514 506.500 C 281.386 516.796, 293.161 547.889, 294.659 549.132 C 297.899 551.821, 298.068 548.356, 295.108 539.919 C 284.394 509.380, 275.327 481.570, 270.518 464.500 C 267.201 452.727, 266.168 450.126, 266.079 453.320 M 85.010 457.175 C 80.227 459.415, 75.426 464.179, 74.616 467.488 C 74.278 468.871, 75.277 468.230, 77.812 465.435 C 82.607 460.150, 85.672 458.322, 91.099 457.508 C 96.734 456.663, 101 459.491, 101 464.073 C 101 467.124, 102.325 467.928, 103.700 465.710 C 104.140 465.001, 106.013 463.483, 107.862 462.338 C 111.921 459.824, 110.516 458.397, 106.134 460.583 C 102.915 462.189, 101 461.821, 101 459.596 C 101 454.972, 92.473 453.681, 85.010 457.175 M 129.274 460.582 C 116.615 467.192, 101.290 479.645, 95.459 488.060 C 93.555 490.806, 90.958 492.804, 86.958 494.599 C 83.790 496.021, 79.944 498.493, 78.412 500.092 C 75.115 503.534, 75.395 503.629, 81.141 501.022 C 83.538 499.934, 86.095 499.034, 86.821 499.022 C 89.631 498.975, 85.461 501.610, 79 503.964 C 71.941 506.535, 65.222 510.948, 60.500 516.113 C 57.812 519.054, 57.760 519.223, 60 517.742 C 68.948 511.827, 83.367 505.976, 88.880 506.022 C 90.321 506.034, 93.455 506.931, 95.843 508.015 L 100.187 509.986 105.843 505.568 C 108.978 503.121, 115.290 499.668, 120 497.826 C 127.725 494.803, 128.819 494.030, 132 489.348 C 135.933 483.558, 153.102 468.264, 156.674 467.367 C 157.953 467.046, 159 466.378, 159 465.883 C 159 464.932, 141.076 456, 139.167 456 C 138.552 456, 134.100 458.062, 129.274 460.582 M 475.766 462.750 L 434.033 463.022 433.575 465.261 C 433.323 466.492, 432.907 469.525, 432.649 472 C 431.095 486.927, 427.160 521.113, 425.720 532.191 C 425.599 533.122, 425.837 533.909, 426.250 533.941 C 426.663 533.974, 437.741 534, 450.868 534 L 474.737 534 475.284 529.922 C 476.209 523.021, 477.906 522, 488.455 522 C 499.131 522, 500 522.542, 500 529.200 L 500 534 519.803 534 L 539.605 534 538.941 528.750 C 538.576 525.862, 537.748 520.125, 537.102 516 C 534.097 496.816, 533.516 492.182, 531.335 470 C 530.581 462.335, 530.180 461.962, 523 462.254 C 519.975 462.377, 498.720 462.600, 475.766 462.750 M 203.740 466.878 C 194.877 471.396, 182.396 483.660, 189.250 481.115 C 190.488 480.656, 193.300 479.957, 195.500 479.562 C 201.098 478.558, 198.817 480.693, 192.589 482.288 C 189.984 482.954, 187.886 483.837, 187.927 484.250 C 187.967 484.663, 188 488.375, 188 492.500 C 188 500.999, 188.873 501.622, 196.378 498.487 C 199.344 497.247, 200 497.218, 200 498.327 C 200 500.098, 192.894 502.418, 190.143 501.545 C 188.228 500.937, 188 501.241, 188 504.408 C 188 507.810, 188.118 507.926, 191 507.350 C 194.906 506.569, 194.859 508.131, 190.924 509.873 C 185.238 512.390, 185.482 515.082, 191.699 518.434 C 194.989 520.208, 198.374 523.087, 200.263 525.717 C 202.437 528.744, 203.860 529.871, 204.943 529.424 C 209.532 527.534, 213.889 526.860, 217.998 527.405 L 222.596 528.015 226.983 516.758 C 229.395 510.566, 231.709 505.036, 232.125 504.470 C 232.864 503.462, 224.232 491.088, 222.750 491.030 C 222.338 491.013, 221.043 490.043, 219.873 488.873 C 216.859 485.859, 208.829 486.777, 201.366 490.989 C 193.639 495.349, 192.222 494.149, 199.500 489.408 C 205.056 485.789, 206.028 485.500, 212.640 485.500 L 219.780 485.500 217.948 480.500 C 216.941 477.750, 215.807 473.700, 215.428 471.500 C 214.225 464.514, 210.931 463.212, 203.740 466.878 M 35.500 467.036 C 29.878 467.863, 17 473.511, 17 475.149 C 17 476.274, 22.054 475.425, 22.990 474.143 C 25.989 470.037, 44.139 467.748, 46.341 471.198 C 47.422 472.893, 47.269 473.101, 41.500 477.773 C 40.950 478.218, 37.901 480.539, 34.723 482.931 C 31.546 485.323, 29.160 487.494, 29.421 487.754 C 30.014 488.348, 35.927 484.777, 42.591 479.801 C 46.295 477.035, 48.669 476, 51.306 476 C 53.299 476, 56.858 475.351, 59.215 474.557 C 61.572 473.763, 65.873 472.804, 68.772 472.425 C 71.672 472.046, 74.330 471.275, 74.678 470.712 C 75.462 469.443, 61.059 470.382, 58.341 471.777 C 55.765 473.099, 48.841 474.066, 49.492 473.013 C 50.334 471.651, 45.770 467.247, 43 466.749 C 41.625 466.502, 38.250 466.631, 35.500 467.036 M 159.994 469.934 C 152.739 472.141, 142.663 480.879, 135.702 491 C 131.970 496.427, 130.555 497.602, 126 499.055 C 122.286 500.241, 117.069 502.367, 113.086 504.318 C 109.676 505.988, 101 513.945, 101 515.402 C 101 516.174, 99.265 516.650, 96.250 516.706 C 87.060 516.876, 73.922 522.738, 68.626 529.033 C 65.830 532.356, 65.700 534.443, 68.462 531.681 C 70.876 529.267, 86.166 522.236, 90.562 521.519 C 94.251 520.917, 94.377 520.975, 92.559 522.438 C 91.491 523.297, 90.161 524, 89.602 524 C 88.136 524, 68.092 534.042, 67.435 535.106 C 67.122 535.612, 71.868 536, 78.364 536 C 89.213 536, 90.014 535.859, 92.877 533.450 C 97.836 529.277, 108.846 524, 112.593 524 C 116.795 524, 122.074 520.737, 127.703 514.658 C 132.088 509.924, 136.499 508.016, 143.083 508.006 C 148.791 507.997, 157.867 510.133, 159.241 511.810 C 160.333 513.143, 160.168 513.246, 158 512.588 C 152.178 510.820, 139.390 510.721, 135.820 512.415 C 132.197 514.134, 123.261 522.728, 126.146 521.719 C 132.855 519.371, 136.152 518.752, 137.068 519.668 C 137.741 520.341, 136.339 521.233, 132.826 522.367 C 124.454 525.071, 115 531.889, 115 535.223 C 115 537.346, 122.155 535.760, 126.859 532.595 C 131.794 529.274, 136.672 527.414, 152 523.007 C 156.125 521.821, 160.625 520.446, 162 519.950 C 163.375 519.455, 167.200 518.593, 170.500 518.036 C 185.356 515.526, 184.695 516.355, 184.858 500 C 184.985 487.204, 184.202 484.563, 177.953 476.723 C 172.844 470.312, 170.557 468.910, 168.450 470.895 C 167.928 471.387, 165.925 472.101, 164 472.481 C 160.749 473.124, 160.642 473.069, 162.500 471.707 C 163.600 470.900, 165.400 470.014, 166.500 469.736 C 167.866 469.392, 167.549 469.222, 165.500 469.202 C 163.850 469.185, 161.372 469.515, 159.994 469.934 M 446.830 476.674 C 445.224 477.099, 444.765 479.772, 443.678 495 C 443.503 497.460, 443.619 497.500, 451 497.500 L 458.500 497.500 458.786 487.739 C 459.071 478.036, 459.057 477.972, 456.471 476.989 C 453.845 475.990, 449.900 475.862, 446.830 476.674 M 224.498 483.003 C 223.800 484.133, 227.889 491.995, 231.473 496.414 L 233.837 499.328 236.427 493.959 C 239.326 487.950, 239.225 487.683, 232.720 484.089 C 228.627 481.828, 225.481 481.412, 224.498 483.003 M 547.015 485.620 C 546.984 487.916, 553.247 507.653, 557.056 517.262 C 559.225 522.735, 561 528.515, 561 530.106 C 561 532.847, 561.226 533, 565.282 533 L 569.564 533 561.319 516.250 C 556.785 507.038, 552.151 496.800, 551.022 493.500 C 548.907 487.317, 547.042 483.650, 547.015 485.620 M 137.105 500.474 C 128.833 502.474, 115.888 509.445, 113.250 513.319 C 110.645 517.146, 110.225 522, 112.500 522 C 113.505 522, 114 520.995, 114 518.955 C 114 517.109, 114.907 515.002, 116.302 513.607 C 119.507 510.402, 132.603 504.095, 139.005 502.674 C 141.937 502.022, 144.524 500.929, 144.752 500.245 C 145.252 498.743, 144.125 498.777, 137.105 500.474 M 323.973 503.532 C 322.613 504.288, 316.775 507.221, 311 510.049 C 293.127 518.802, 292.425 519.715, 296.072 529.462 L 298.144 535 330.072 535 C 347.632 535, 362 534.635, 362 534.188 C 362 533.741, 360.762 532.452, 359.250 531.322 C 355.482 528.508, 345.020 519.171, 336 510.572 C 326.709 501.715, 326.970 501.867, 323.973 503.532 M 77.500 511.866 C 73.100 513.389, 67.200 516.067, 64.389 517.818 C 61.579 519.568, 58.581 521, 57.728 521 C 56.172 521, 44 533.541, 44 535.145 C 44 535.615, 47.770 536, 52.379 536 C 60.662 536, 60.771 535.967, 61.947 533.129 C 65.156 525.382, 79.012 516.434, 91.797 513.852 C 98.091 512.581, 98.094 512.579, 95.797 510.812 C 92.543 508.308, 86.830 508.637, 77.500 511.866 M 541.308 515.632 C 541.593 516.659, 542.368 520.650, 543.030 524.500 C 543.692 528.350, 544.392 532.063, 544.586 532.750 C 544.932 533.982, 551 534.582, 551 533.384 C 551 531.870, 547.309 522.130, 545.374 518.540 C 543.098 514.315, 540.410 512.393, 541.308 515.632 M 173.500 521.425 C 170.750 522.137, 165.125 523.508, 161 524.472 C 156.875 525.436, 151.700 526.789, 149.500 527.480 C 121.547 536.253, 121.106 536, 164.345 536 L 201.135 536 200.468 533.750 C 199.514 530.528, 194.863 524.874, 191.009 522.250 C 187.202 519.658, 181.388 519.384, 173.500 521.425 M 121 524.403 C 119.625 525.130, 116.553 526.023, 114.174 526.387 C 109.801 527.055, 100.179 531.461, 96.500 534.479 C 94.615 536.026, 94.931 536.095, 101.981 535.677 C 109.338 535.241, 109.524 535.163, 113.119 530.989 C 115.130 528.654, 117.244 527.032, 117.815 527.386 C 118.387 527.739, 120.125 526.911, 121.678 525.546 C 124.845 522.759, 124.669 522.462, 121 524.403 M 576.250 525.641 C 567.591 530.862, 571.075 533.148, 587.134 532.782 L 599.486 532.500 593.651 527.750 C 586.710 522.099, 582.892 521.636, 576.250 525.641 M 630 524.723 C 629.175 525.034, 625.800 526.524, 622.500 528.035 C 619.200 529.546, 615.150 531.235, 613.500 531.789 C 611.224 532.553, 615.168 532.881, 629.847 533.148 C 640.488 533.342, 649.353 533.242, 649.546 532.928 C 649.946 532.278, 633.844 523.957, 632.423 524.079 C 631.916 524.122, 630.825 524.412, 630 524.723 M 665.800 536.533 C 665.507 536.826, 648.196 537.048, 627.331 537.025 C 585.800 536.980, 579.232 537.369, 581.211 539.755 C 582.161 540.899, 584.081 541.129, 589.673 540.771 C 593.995 540.493, 597.326 540.726, 597.949 541.349 C 600.038 543.438, 653.640 542.796, 660 540.606 C 666.229 538.461, 670.444 536, 667.889 536 C 667.033 536, 666.094 536.240, 665.800 536.533 M 674.982 538.313 C 665.876 544.360, 655.400 546.546, 632.249 547.228 C 625.370 547.430, 622.999 547.180, 622.999 546.250 C 623 545.317, 619.834 545, 610.500 545 C 603.103 545, 598 545.395, 598 545.969 C 598 546.501, 598.675 546.678, 599.500 546.362 C 602.351 545.268, 604.402 546.741, 602.574 548.569 C 598.606 552.537, 601.809 555.014, 610.875 554.990 C 612.869 554.985, 618.841 555.518, 624.147 556.175 C 632.002 557.147, 634.846 557.116, 639.460 556.010 C 647.425 554.099, 644.874 553.371, 627.500 552.601 C 619.250 552.235, 610.700 551.581, 608.500 551.147 L 604.500 550.359 608.372 548.679 C 612.690 546.807, 617.630 546.300, 615 548 C 613.992 548.652, 618.254 548.989, 628 549.028 C 635.975 549.061, 644.525 549.496, 647 549.996 C 651.435 550.893, 659.966 549.170, 662.450 546.877 C 662.972 546.395, 664.048 546, 664.840 546 C 666.826 546, 675 541.835, 675 540.823 C 675 540.370, 675.727 540, 676.617 540 C 677.802 540, 678.106 540.667, 677.755 542.500 C 677.120 545.822, 677.632 545.652, 680.011 541.750 C 683.722 535.663, 681.381 534.063, 674.982 538.313 M 313.250 538.684 C 305.413 538.888, 299 539.183, 299 539.340 C 299 539.496, 299.828 541.396, 300.839 543.562 C 301.850 545.728, 303.252 550.200, 303.954 553.500 C 306.137 563.772, 304.185 563, 327.986 563 C 339.490 563, 351.061 562.542, 353.701 561.982 C 356.340 561.422, 365.349 560.836, 373.719 560.679 C 382.089 560.523, 389.223 560.110, 389.571 559.762 C 390.361 558.973, 384.672 558.023, 380 558.164 C 378.075 558.223, 372 557.702, 366.500 557.006 C 357.676 555.891, 354.330 555.551, 347.861 555.111 C 346.959 555.050, 345.159 554.115, 343.861 553.033 L 341.500 551.067 354.417 551.033 C 368.217 550.998, 369.873 551.513, 360.399 552.895 L 354.500 553.756 359.250 554.014 C 370.858 554.646, 380.227 554.176, 379.500 553 C 379.160 552.450, 377.671 551.993, 376.191 551.985 C 374.435 551.975, 373.942 551.689, 374.774 551.161 C 375.747 550.544, 375.569 549.920, 374.024 548.521 C 372.911 547.514, 372 546.108, 372 545.396 C 372 544.684, 370.538 542.993, 368.750 541.637 C 365.616 539.260, 364.823 539.157, 346.500 538.743 C 336.050 538.506, 321.087 538.480, 313.250 538.684 M 427.717 538.892 C 425.636 539.226, 423.836 539.950, 423.717 540.500 C 423.578 541.142, 432.910 541.596, 449.750 541.767 C 471.636 541.989, 476 541.802, 476 540.642 C 476 539.876, 474.594 538.969, 472.875 538.625 C 468.995 537.849, 432.877 538.063, 427.717 538.892 M 499 538.780 C 499 541.156, 502.101 541.470, 520.951 541 C 548.208 540.321, 547.613 538.585, 520.001 538.230 C 508.451 538.082, 499 538.329, 499 538.780 M 247.500 540.575 C 221.700 542.703, 221.878 542.652, 220.472 548.256 C 219.706 551.309, 219.837 551.393, 223.321 550.068 C 226.543 548.843, 241.968 546.987, 254.500 546.317 C 260 546.023, 264.917 545.392, 265.426 544.915 C 265.950 544.424, 266.827 544.442, 267.446 544.955 C 269.001 546.246, 290.013 546.754, 289.970 545.500 C 289.913 543.814, 287.600 541.324, 285.496 540.684 C 281.187 539.372, 262.720 539.319, 247.500 540.575 M 377.031 540.956 C 380.117 542.588, 381.190 542.678, 385.531 541.667 C 388.403 540.998, 396.514 540.619, 404.750 540.767 C 413.865 540.932, 419 540.659, 419 540.012 C 419 539.358, 410.959 539.016, 396.250 539.044 L 373.500 539.088 377.031 540.956 M 520.250 543.771 C 508.591 543.927, 500 544.437, 500 544.974 C 500 545.486, 500.522 547.052, 501.161 548.453 L 502.321 551 516.300 551 C 528.441 551, 530.454 550.770, 531.608 549.250 C 532.483 548.097, 532.947 547.944, 532.968 548.803 C 533.004 550.287, 546 550.326, 546 548.842 C 546 548.379, 545.100 548, 544 548 C 542.687 548, 542 547.333, 542 546.059 C 542 543.383, 542.818 543.469, 520.250 543.771 M 670.885 546.461 C 668.929 548.306, 665.793 550.266, 663.915 550.818 C 662.037 551.370, 656.225 553.351, 651 555.220 C 645.775 557.090, 637 559.649, 631.500 560.907 C 626 562.165, 619.250 563.793, 616.500 564.525 C 609.685 566.339, 595.334 569.674, 580.500 572.892 C 571.461 574.852, 548.721 578.412, 532 580.484 C 525.675 581.268, 517.350 582.342, 513.500 582.871 C 494.795 585.439, 466.841 587.586, 426.607 589.544 L 412.713 590.220 413.380 584.860 C 413.757 581.828, 413.678 580.055, 413.197 580.778 C 412.576 581.712, 412.016 581.331, 411.122 579.369 C 410.196 577.336, 410.181 576.506, 411.061 575.962 C 411.701 575.567, 412.564 573.383, 412.980 571.109 C 413.776 566.759, 411.842 566.772, 410.460 571.125 C 409.882 572.946, 409.712 572.903, 407.785 570.454 C 406.453 568.760, 405.070 568.010, 403.862 568.326 C 402.837 568.594, 402.249 568.405, 402.558 567.907 C 402.866 567.408, 402.416 567, 401.559 567 C 399.463 567, 399.594 568.322, 401.896 570.406 C 403.186 571.573, 403.917 571.748, 404.183 570.951 C 404.436 570.193, 405.088 570.415, 406.037 571.582 C 406.935 572.688, 407.014 573.092, 406.242 572.628 C 405.522 572.195, 404.261 572.596, 403.289 573.568 C 401.695 575.162, 401.714 575.225, 403.615 574.622 C 405.910 573.894, 410 580.643, 410 585.160 C 410 586.502, 410.480 588.080, 411.066 588.666 C 413.262 590.862, 380.493 591.779, 339 590.683 C 325.500 590.326, 321.654 590.435, 326.500 591.038 C 360.621 595.281, 467.237 591.788, 524 584.566 C 551.363 581.085, 559.969 579.895, 567.500 578.548 C 591.598 574.240, 600.498 572.341, 611.500 569.157 C 615.350 568.044, 624.800 565.495, 632.500 563.494 C 660.767 556.148, 668.405 553.001, 672.980 546.813 C 676.055 542.654, 675.091 542.492, 670.885 546.461 M 399 545.024 C 388.120 545.796, 388.971 545.906, 409.500 546.378 C 440.477 547.090, 467.956 550.711, 443.750 550.890 C 429.688 550.995, 429 551.094, 429 553.006 C 429 554.988, 429.417 555.005, 464.250 554.367 C 483.637 554.013, 499.625 553.622, 499.778 553.500 C 499.931 553.378, 499.605 552.090, 499.053 550.639 C 497.830 547.422, 494.073 547.006, 493.290 550 C 492.689 552.296, 491 552.711, 491 550.563 C 491 549.497, 490.152 549.263, 487.714 549.659 C 484.103 550.245, 476 548.438, 476 547.047 C 476 545.236, 417.617 543.702, 399 545.024 M 334.829 545.933 C 328.959 546.245, 323.784 546.900, 323.329 547.389 C 322.195 548.605, 365.684 547.287, 367.820 546.041 C 369.652 544.972, 353.883 544.921, 334.829 545.933 M 129.650 548.056 C 114.038 548.707, 108.226 549.687, 110.067 551.361 C 110.305 551.577, 114.550 551.392, 119.500 550.948 C 124.450 550.505, 135.025 550.104, 143 550.057 C 157.877 549.970, 162.389 549.439, 161.430 547.886 C 160.831 546.917, 156.428 546.941, 129.650 548.056 M 250.500 550.065 C 241.036 550.798, 226.694 552.517, 220.826 553.622 C 218.554 554.050, 216 557.807, 216 560.721 C 216 560.954, 221.221 560.823, 227.603 560.430 C 235.925 559.917, 239.406 560.039, 239.914 560.860 C 240.439 561.710, 242.797 561.731, 249.060 560.945 C 253.702 560.362, 259.413 559.658, 261.750 559.381 C 269.251 558.492, 266.606 556.774, 258.250 557.107 C 247.065 557.553, 240 557.142, 240 556.045 C 240 554.685, 244.499 554.152, 261 553.557 C 274.965 553.054, 288.645 551.688, 289.634 550.699 C 291.012 549.321, 265.453 548.908, 250.500 550.065 M 393.345 551.582 C 401.181 553.479, 406.640 554.160, 418.250 554.689 L 428 555.133 428 552.530 C 428 549.959, 427.917 549.930, 421.027 550.104 C 417.190 550.200, 414.305 550.685, 414.612 551.180 C 414.918 551.676, 416.030 551.808, 417.084 551.473 C 418.416 551.051, 419 551.343, 419 552.433 C 419 554.699, 414.683 554.412, 412.500 552 C 410.879 550.209, 409.481 550.009, 399.095 550.083 L 387.500 550.167 393.345 551.582 M 501.834 554.105 C 501.293 554.438, 506.711 555.028, 513.872 555.418 C 528.448 556.210, 556 555.179, 556 553.842 C 556 552.882, 503.405 553.137, 501.834 554.105 M 288 554.989 C 286.625 555.446, 281.991 556.608, 277.701 557.571 C 272.727 558.688, 270.373 559.620, 271.201 560.146 C 272.825 561.175, 299.301 561.276, 298.801 560.250 C 295.499 553.473, 294.307 552.893, 288 554.989 M 703.750 554.747 C 695.123 554.959, 691 555.425, 691 556.190 C 691 557.017, 697.477 557.143, 715.162 556.660 C 728.451 556.297, 743.301 556, 748.162 556 C 753.387 556, 757 555.591, 757 555 C 757 554.045, 736.379 553.947, 703.750 554.747 M 26 556 C 24.625 556.440, 21.587 556.845, 19.250 556.900 C 16.856 556.956, 15 557.486, 15 558.113 C 15 558.887, 17.204 559.028, 22.250 558.575 C 33.457 557.570, 34.187 557.614, 39.220 559.600 C 43.775 561.397, 44.240 561.401, 52.465 559.708 L 60.989 557.954 65.244 560.194 C 70.446 562.933, 92.380 563.535, 99.604 561.138 C 102.636 560.132, 104.890 560.028, 108.230 560.740 C 111.231 561.380, 114.475 561.351, 117.876 560.655 C 130.370 558.095, 120.719 557.767, 85.373 559.550 C 73.785 560.135, 72.944 560.041, 66.455 557.445 C 60.758 555.166, 59.344 554.928, 57.677 555.969 C 54.271 558.097, 40.769 558.530, 36.969 556.634 C 33.483 554.896, 30.066 554.698, 26 556 M 179.500 556.673 C 175.099 556.947, 167.881 558.051, 160.001 559.655 L 157.502 560.163 160.001 561.546 C 162.869 563.134, 169.737 563.361, 175.365 562.056 C 177.490 561.562, 186.715 560.628, 195.865 559.980 C 205.014 559.331, 213.175 558.542, 214 558.227 C 218.003 556.697, 195.412 555.680, 179.500 556.673 M 413 558.684 C 415.910 560.033, 421.138 560.350, 444 560.569 C 459.125 560.713, 469.700 560.501, 467.500 560.098 C 461.907 559.072, 465.481 557.540, 471.246 558.492 C 478.893 559.756, 522.719 560.131, 520.688 558.915 C 517.876 557.233, 466.623 556.791, 445.407 558.266 C 435.456 558.958, 425.556 559.241, 423.407 558.895 C 421.258 558.549, 417.250 557.995, 414.500 557.664 L 409.500 557.063 413 558.684 M 530.405 561.137 L 528.500 563.274 540.500 562.571 C 553.600 561.803, 557 561.251, 557 559.892 C 557 559.401, 551.445 559, 544.655 559 C 533.307 559, 532.156 559.173, 530.405 561.137 M 653 561.653 C 648.875 563.043, 643.025 564.782, 640 565.517 C 636.975 566.253, 632.025 567.527, 629 568.348 C 603.945 575.150, 597.310 576.652, 573 581.019 C 560.348 583.292, 553.247 584.333, 536 586.443 C 529.675 587.217, 520.900 588.305, 516.500 588.860 C 472.457 594.423, 429.411 596.351, 364 595.691 C 297.093 595.016, 264.231 592.613, 224.500 585.491 C 204.529 581.911, 193.230 579.782, 190 578.992 C 188.075 578.521, 183.350 577.381, 179.500 576.459 C 170.204 574.233, 160.940 571.474, 153 568.566 C 149.425 567.257, 145.223 565.900, 143.661 565.551 L 140.822 564.917 144.661 570.455 C 148.803 576.430, 150.218 577.206, 164 581.063 C 168.125 582.218, 173.750 583.836, 176.500 584.658 C 198.525 591.247, 244.654 598.733, 293 603.565 C 327.279 606.991, 413.657 607.230, 454.500 604.012 C 486.571 601.485, 493.278 600.888, 505.500 599.468 C 512.650 598.638, 522.775 597.299, 528 596.493 C 533.225 595.687, 540.875 594.568, 545 594.006 C 549.125 593.444, 556.550 592.287, 561.500 591.436 C 566.450 590.584, 573.200 589.432, 576.500 588.875 C 585.404 587.374, 610.812 581.955, 618 580.024 C 619.925 579.507, 624.875 578.146, 629 577 C 633.125 575.854, 638.075 574.506, 640 574.005 C 656.242 569.782, 656.981 569.385, 660.931 562.750 C 663.605 558.258, 663.231 558.206, 653 561.653 M 200 562.525 C 193.675 563.198, 185.004 564.097, 180.732 564.522 C 171.496 565.443, 171.527 565.564, 181.642 568.047 C 192.109 570.617, 193.467 570.523, 197.957 566.914 C 200.991 564.476, 203.072 563.713, 207.873 563.278 C 211.215 562.975, 213.709 562.338, 213.416 561.863 C 213.122 561.389, 212.571 561.068, 212.191 561.151 C 211.811 561.233, 206.325 561.852, 200 562.525 M 228.250 562.794 C 217.535 563.228, 219.406 564.978, 230.750 565.133 C 254.087 565.451, 267.287 564.882, 265.917 563.615 C 265.321 563.065, 236.873 562.444, 228.250 562.794 M 267.604 564.411 C 268.231 566.045, 300 566.798, 300 565.179 C 300 563.891, 291.270 563.019, 278.281 563.009 C 269.033 563.002, 267.158 563.248, 267.604 564.411 M 531 565.403 C 516.503 566.312, 513.555 566.752, 513.823 567.969 C 514.001 568.777, 514.407 571.638, 514.725 574.325 L 515.304 579.212 518.776 578.649 C 520.685 578.339, 522.529 577.804, 522.872 577.461 C 523.816 576.517, 519.870 573.969, 518.603 574.704 C 517.996 575.056, 518.360 574.364, 519.411 573.166 C 521.636 570.628, 520.838 569.063, 518.362 571.107 C 516.906 572.309, 516.743 572.294, 517.170 571 C 517.442 570.175, 518.753 569.438, 520.082 569.362 C 521.412 569.285, 523.288 568.900, 524.250 568.505 C 526.106 567.743, 526.738 569.426, 525 570.500 C 523.644 571.338, 523.732 574.716, 525.132 575.581 C 525.754 575.966, 526.676 575.543, 527.181 574.640 C 528.187 572.843, 533.498 572.378, 534.500 574 C 535.298 575.291, 540 575.307, 540 574.019 C 540 573.480, 538.875 572.756, 537.500 572.411 C 536.125 572.066, 535 571.329, 535 570.775 C 535 570.220, 534.099 570.002, 532.999 570.290 C 531.898 570.578, 531.249 570.405, 531.558 569.907 C 531.866 569.408, 537.716 569, 544.559 569 L 557 569 557 566.500 C 557 563.594, 558.715 563.666, 531 565.403 M 325.215 567.146 C 325.470 567.911, 329.455 568.326, 337.202 568.396 C 343.585 568.453, 348.599 568.837, 348.345 569.250 C 348.090 569.663, 343.746 570.032, 338.691 570.070 C 333.636 570.109, 328.600 570.547, 327.500 571.045 C 325.399 571.995, 346.161 571.577, 357.788 570.436 C 361.891 570.033, 364.554 570.215, 365.449 570.958 C 366.820 572.096, 368.541 570.874, 367.306 569.639 C 366.954 569.288, 362.842 569, 358.167 569 C 353.492 569, 349.973 568.693, 350.348 568.318 C 350.723 567.944, 353.498 567.751, 356.515 567.891 C 359.910 568.048, 362 567.736, 362 567.073 C 362 566.348, 355.976 566, 343.417 566 C 329.897 566, 324.937 566.312, 325.215 567.146 M 460 574.918 C 460 578.723, 459.727 582.548, 459.393 583.418 C 458.878 584.759, 459.754 584.998, 465.143 584.985 C 473.480 584.965, 473.646 584.795, 474.214 575.750 L 474.700 568 467.350 568 L 460 568 460 574.918 M 211.025 571.474 C 208.352 574.319, 208.278 574.271, 218 576.023 C 247.970 581.425, 264.954 583.282, 265.736 581.244 C 266.595 579.006, 264.916 578.277, 257.250 577.558 C 251.057 576.978, 250 577.106, 250 578.439 C 250 579.298, 249.550 580, 249 580 C 248.450 580, 248 577.525, 248 574.500 L 248 569 230.674 569 C 213.535 569, 213.324 569.027, 211.025 571.474 M 348 572.600 C 346.625 572.766, 341.910 573.197, 337.522 573.557 C 330.067 574.170, 329.737 574.292, 332.485 575.416 C 335.552 576.669, 334.818 578.148, 331.443 577.516 C 330.374 577.317, 329.212 577.119, 328.861 577.077 C 328.510 577.034, 328.285 576.261, 328.361 575.358 C 328.438 574.454, 327.890 573.501, 327.145 573.239 C 326.188 572.903, 325.972 573.337, 326.411 574.719 C 326.921 576.326, 326.338 576.882, 323.134 577.842 C 317.847 579.426, 316.316 581.354, 317.940 584.388 C 319.359 587.040, 328.662 588, 352.949 588 L 365.587 588 366.649 584.021 C 367.882 579.403, 368.061 579.518, 358 578.461 C 354.425 578.085, 350.949 577.332, 350.276 576.787 C 349.540 576.193, 346.594 576.083, 342.897 576.512 C 338.281 577.048, 336.924 576.932, 337.470 576.048 C 337.948 575.276, 341.006 574.928, 346.349 575.038 C 350.832 575.131, 356.750 574.950, 359.500 574.637 C 362.310 574.317, 363.211 574.381, 361.557 574.784 C 357.266 575.828, 358.326 577.496, 363.208 577.382 C 368.082 577.267, 369.059 575.855, 365.830 573.593 C 363.696 572.099, 355.814 571.660, 348 572.600 M 644 576.664 C 636.256 579.285, 614.548 585.453, 607.500 587.036 C 583.516 592.420, 574.920 594.071, 547.750 598.512 C 489.987 607.952, 435.486 611.482, 359.500 610.707 C 309.758 610.199, 309.950 610.210, 261 605.031 C 255.775 604.479, 250.558 603.805, 249.408 603.534 C 248.257 603.263, 242.632 602.348, 236.908 601.501 C 216.174 598.434, 189.968 593.187, 177.500 589.607 C 174.750 588.818, 168.533 586.963, 163.684 585.485 C 158.835 584.008, 154.597 583.070, 154.266 583.400 C 153.739 583.928, 164.024 599.799, 167.685 604.107 C 168.436 604.990, 172.527 606.490, 176.775 607.441 C 181.024 608.391, 185.625 609.543, 187 610.002 C 188.375 610.461, 194 611.801, 199.500 612.979 C 205 614.157, 210.400 615.339, 211.500 615.604 C 212.600 615.869, 217.550 616.758, 222.500 617.580 C 282.054 627.462, 321.779 630.426, 394 630.379 C 461.266 630.334, 494.973 628.198, 548.500 620.587 C 580.528 616.032, 627.973 606.859, 631.580 604.523 C 634.699 602.504, 654.080 573.901, 652.220 574.063 C 651.824 574.097, 648.125 575.268, 644 576.664 M 278 581.351 C 278 583.570, 278.517 583.944, 282.250 584.428 C 291.830 585.668, 309.285 587.049, 309.732 586.601 C 309.996 586.337, 309.107 585.016, 307.756 583.665 C 305.596 581.505, 304.107 581.131, 295.400 580.558 C 289.955 580.199, 283.813 579.663, 281.750 579.365 C 278.263 578.862, 278 579.002, 278 581.351 M 708.500 590.193 C 704.936 591.378, 696.409 592.727, 687.500 593.516 C 679.250 594.247, 668.675 595.769, 664 596.899 C 659.325 598.028, 653.813 598.963, 651.750 598.976 C 649.688 598.989, 648 599.450, 648 600 C 648 601.891, 660.919 601.053, 669.804 598.585 C 674.969 597.151, 682.966 595.890, 689.500 595.480 C 695.550 595.100, 703.772 593.907, 707.771 592.828 C 714.116 591.117, 715.773 591.019, 720.771 592.061 C 723.922 592.718, 732.575 593.224, 740 593.186 C 756.474 593.102, 755.243 593.203, 754.500 592 C 754.135 591.410, 747.857 590.982, 739.191 590.956 C 729.015 590.926, 723.271 590.469, 720.500 589.471 C 715.673 587.732, 715.959 587.715, 708.500 590.193 M 74 590.084 C 72.625 590.478, 67.675 590.877, 63 590.971 C 58.325 591.064, 53.600 591.554, 52.500 592.060 C 50.815 592.834, 59.223 592.799, 77 591.958 C 80.935 591.772, 92.139 593.739, 93.202 594.802 C 93.861 595.461, 95.020 596, 95.777 596 C 96.534 596, 95.816 594.875, 94.182 593.500 C 92.157 591.795, 89.985 590.992, 87.356 590.976 C 85.235 590.963, 81.925 590.595, 80 590.159 C 78.075 589.723, 75.375 589.689, 74 590.084 M 110.500 597.712 C 107.246 599.555, 95.334 600.038, 87 598.665 C 82.733 597.961, 82.614 598.004, 84.703 599.485 C 86.118 600.489, 90.245 601.267, 96.247 601.661 C 104.862 602.227, 105.998 602.078, 110.856 599.754 C 115.996 597.294, 116.237 597.272, 120.812 598.838 C 125.379 600.402, 132.682 600.620, 148.765 599.673 C 155.628 599.269, 156.254 599.029, 155.139 597.224 C 154.560 596.288, 152.664 596.252, 146.943 597.067 C 131.977 599.199, 129.528 599.259, 124.664 597.607 C 118.596 595.547, 114.265 595.579, 110.500 597.712 M 31.657 599.097 C 27.893 599.513, 24.556 600.111, 24.240 600.426 C 22.838 601.829, 25.404 602.071, 33.647 601.313 C 38.516 600.866, 47.450 600.725, 53.500 601 C 65.599 601.550, 72.172 601.035, 72.664 599.500 C 73.052 598.288, 41.770 597.981, 31.657 599.097 M 127.500 606.246 C 120.350 606.720, 109.916 607.197, 104.313 607.304 C 95.722 607.469, 94.468 607.690, 96.313 608.715 C 99.073 610.247, 111.447 610.366, 114.212 608.887 C 115.453 608.222, 121.188 607.823, 128.442 607.896 C 137.759 607.990, 141.048 607.674, 142.546 606.541 C 144.479 605.079, 144.479 605.065, 142.500 605.223 C 141.400 605.311, 134.650 605.771, 127.500 606.246 M 31 607 C 31 607.550, 32.830 608, 35.066 608 C 37.302 608, 40.092 608.514, 41.267 609.143 C 42.441 609.771, 45.693 610.286, 48.492 610.286 C 56.513 610.286, 77.285 607.738, 75.822 606.933 C 75.095 606.534, 70.225 606.637, 65 607.163 C 51.437 608.527, 43.828 608.532, 41.316 607.178 C 38.656 605.743, 31 605.612, 31 607 M 172.626 611.250 C 175.144 615.480, 181.396 623.209, 183.278 624.419 C 184.500 625.204, 188.200 626.377, 191.500 627.026 C 194.800 627.675, 200.650 628.830, 204.500 629.594 C 224.497 633.560, 241.807 636.402, 258.500 638.459 C 268.773 639.725, 275.095 640.414, 300.500 643.035 C 346.056 647.734, 467.097 647.999, 502.500 643.476 C 504.700 643.195, 513.250 642.307, 521.500 641.502 C 540.847 639.615, 559.560 637.259, 564 636.153 C 567.056 635.391, 567.246 635.176, 565.500 634.455 C 564.400 634.001, 560.587 631.857, 557.028 629.689 L 550.555 625.749 538.528 627.428 C 531.912 628.351, 523.575 629.524, 520 630.033 C 516.425 630.543, 507.200 631.442, 499.500 632.031 C 491.800 632.620, 484.825 633.279, 484 633.496 C 483.175 633.712, 466.075 634.644, 446 635.567 C 391.319 638.080, 336.062 636.455, 287 630.891 C 282.325 630.361, 274.450 629.479, 269.500 628.932 C 259.544 627.830, 242.962 625.380, 236 623.981 C 233.525 623.483, 226.325 622.111, 220 620.931 C 213.675 619.751, 200.647 616.809, 191.049 614.393 C 171.634 609.505, 171.582 609.497, 172.626 611.250 M 621.858 611.475 C 621.249 612.084, 612.436 614, 587.500 618.946 C 576.500 621.128, 565.581 623.383, 563.236 623.957 C 560.890 624.531, 557.826 625, 556.427 625 C 553.048 625, 554.029 626.321, 559.237 628.783 C 561.582 629.892, 564.581 631.744, 565.903 632.899 C 568.596 635.254, 570.680 635.449, 577.674 634.001 C 580.328 633.452, 587.675 632.052, 594 630.890 C 608.116 628.297, 610.666 627.014, 619.473 618.076 C 624.940 612.529, 626.002 611, 624.390 611 C 623.259 611, 622.119 611.214, 621.858 611.475 M 58.485 614.976 C 59.375 616.415, 73.176 617.244, 78.902 616.201 C 84.011 615.271, 84.661 615.401, 90.902 618.604 C 97.796 622.142, 103.097 622.870, 108.601 621.032 C 110.195 620.500, 116 619.612, 121.500 619.059 C 134.605 617.743, 143.260 616.152, 144.500 614.831 C 145.557 613.705, 139.792 614.200, 131 615.989 C 127.075 616.788, 121.707 617.482, 102.154 619.719 C 97.817 620.216, 91.129 618.096, 88.212 615.301 C 86.717 613.869, 57.604 613.550, 58.485 614.976 M 712 617.789 C 704.578 618.400, 705.897 619.468, 715 620.215 C 736.238 621.958, 744.797 622.179, 746.929 621.038 C 750.035 619.376, 748.509 617.927, 744.957 619.165 C 741.968 620.207, 731.674 619.832, 721 618.293 C 717.975 617.857, 713.925 617.630, 712 617.789 M 622 627.945 C 620.906 628.692, 622.321 628.974, 627.219 628.985 C 631.613 628.995, 636.547 629.852, 641.478 631.461 C 648.544 633.768, 649.515 633.850, 656.947 632.766 C 666.938 631.310, 666.358 630.013, 655.691 629.956 C 651.186 629.932, 645.475 629.444, 643 628.871 C 636.293 627.318, 623.729 626.764, 622 627.945 M 714.500 628.664 C 713.400 628.958, 711.023 629.886, 709.217 630.728 C 706.815 631.849, 703.903 632.128, 698.355 631.772 C 691.276 631.318, 690.988 631.376, 694.002 632.643 C 698.597 634.575, 704.405 634.324, 711.031 631.908 C 716.657 629.857, 716.957 629.849, 726.634 631.498 C 737.345 633.323, 756.628 632.825, 755.349 630.756 C 754.947 630.106, 751.731 629.947, 746.607 630.324 C 742.148 630.652, 735.575 630.521, 732 630.032 C 720.129 628.409, 716.519 628.127, 714.500 628.664 M 187 629.696 C 187 630.965, 192.041 635.528, 194.500 636.485 C 196.414 637.231, 198.774 637.730, 218 641.459 C 241.227 645.963, 263.825 648.751, 287 649.970 C 297.725 650.534, 314.825 651.559, 325 652.248 C 349.814 653.927, 498.268 653.934, 516 652.257 C 522.875 651.606, 534.125 650.601, 541 650.022 C 547.875 649.444, 557.550 648.299, 562.500 647.477 C 567.450 646.656, 575.100 645.529, 579.500 644.974 C 587.725 643.936, 594.930 641.025, 600.461 636.507 C 604.452 633.247, 603.761 633.012, 595 634.655 C 563.923 640.482, 538.617 643.974, 513 645.968 C 505.575 646.547, 494.325 647.514, 488 648.118 C 471.079 649.734, 369.432 650.428, 346.500 649.085 C 310.279 646.962, 252.454 641.603, 243.450 639.533 C 242.322 639.274, 237.147 638.397, 231.950 637.583 C 215.445 635, 203.264 632.644, 189.750 629.422 C 188.238 629.062, 187 629.185, 187 629.696 M 661 633.486 C 658.525 634.227, 653.864 635.362, 650.643 636.010 C 643.607 637.423, 644.372 639.166, 651.500 637.963 C 660.330 636.473, 667.973 636.825, 671.382 638.878 C 673.221 639.986, 679.218 641.453, 686 642.454 C 692.325 643.387, 699.154 644.628, 701.175 645.211 C 703.196 645.794, 705.671 645.922, 706.675 645.496 C 708.176 644.857, 707.878 644.555, 705 643.796 C 697.221 641.744, 683.289 639.102, 679.982 639.053 C 677.950 639.022, 674.910 637.944, 672.785 636.500 C 670.762 635.125, 668.632 634, 668.053 634 C 667.474 634, 667 633.550, 667 633 C 667 631.772, 666.627 631.802, 661 633.486 M 125 640.898 C 121.975 641.883, 117.250 643.771, 114.500 645.094 C 107.031 648.688, 94.229 648.517, 88.333 644.745 C 82.526 641.031, 79.618 640.506, 74.707 642.286 C 72.393 643.124, 69.244 644.091, 67.709 644.434 C 66.155 644.782, 65.200 645.515, 65.554 646.088 C 66.170 647.085, 71.381 646.464, 73.500 645.140 C 75.793 643.709, 81.475 642.139, 81.968 642.801 C 82.260 643.194, 84.969 644.836, 87.988 646.449 C 96.680 651.097, 107.286 651.308, 116.466 647.016 C 124.904 643.071, 133.665 640.687, 137 641.428 C 138.375 641.733, 142.650 642.893, 146.500 644.004 C 156.347 646.847, 169.863 647.692, 172.500 645.629 C 174.354 644.178, 173.792 644.061, 164.831 644.032 C 155.724 644.002, 144.646 642.131, 140.764 639.968 C 138.117 638.493, 131.121 638.905, 125 640.898 M 687.500 654.246 C 682.135 657.427, 675.188 658.936, 665.770 658.967 C 659.315 658.989, 654.715 659.530, 652.102 660.576 C 648.063 662.192, 634.822 662.156, 628.750 660.512 C 627.220 660.097, 626 660.170, 626 660.676 C 626 663.492, 649.230 665.370, 651.835 662.765 C 652.629 661.971, 657.076 661.425, 664.285 661.238 C 676.511 660.921, 684.172 659.071, 688.738 655.333 C 691.661 652.940, 690.871 652.248, 687.500 654.246 M 583 660.404 C 581.625 661.132, 576.119 662.023, 570.765 662.383 C 565.410 662.743, 559.869 663.480, 558.450 664.019 C 555.097 665.294, 548.292 665.282, 547.500 664 C 546.639 662.607, 534.229 662.889, 530.055 664.397 C 525.192 666.154, 527.757 667.184, 534.031 665.994 C 540.954 664.681, 547.333 664.733, 548.713 666.113 C 549.400 666.800, 551.490 666.987, 554.163 666.603 C 556.548 666.259, 563.456 665.614, 569.513 665.168 C 580.097 664.389, 586 662.497, 586 659.885 C 586 658.796, 586.053 658.787, 583 660.404 M 432 660.709 C 432 661.217, 434.761 662.952, 438.136 664.565 C 444.030 667.382, 444.778 667.490, 457.114 667.306 C 464.177 667.200, 472.232 667.473, 475.013 667.913 C 478.438 668.454, 479.958 668.373, 479.720 667.661 C 479.147 665.941, 473.986 664.991, 466 665.135 C 449.679 665.428, 444.236 664.643, 433.750 660.481 C 432.788 660.099, 432 660.201, 432 660.709 M 400 662.080 C 384.895 664.403, 374.642 667.069, 376.029 668.314 C 376.625 668.849, 389.059 667.262, 395 665.893 C 402.588 664.143, 416.098 663.696, 421 665.031 C 427.127 666.700, 437.408 667.469, 436.624 666.200 C 436.288 665.656, 434.322 664.980, 432.256 664.696 C 430.190 664.413, 425.800 663.472, 422.500 662.606 C 416.031 660.908, 408.730 660.737, 400 662.080 M 54.783 663.535 C 54.389 663.937, 50.564 664.881, 46.283 665.631 C 32.196 668.102, 30.319 668.614, 32.267 669.460 C 33.238 669.882, 35.263 669.929, 36.767 669.565 C 48.022 666.841, 55.741 665.714, 63.500 665.662 C 71.635 665.607, 76.029 666.238, 94 670.043 C 100.648 671.451, 112.338 670.794, 114.639 668.885 C 116.831 667.065, 132.358 666.958, 134.150 668.750 C 135.956 670.556, 145.333 670.286, 149.481 668.308 C 152.833 666.709, 153.307 666.715, 158.025 668.412 C 161.385 669.620, 164.408 670.016, 167.260 669.623 C 169.592 669.300, 175.148 668.623, 179.606 668.117 C 187.150 667.261, 192 665.556, 192 663.759 C 192 662.692, 189.590 662.813, 188.450 663.937 C 186.443 665.917, 165.950 667.311, 158.770 665.957 C 152.739 664.819, 151.611 664.872, 148.088 666.460 C 144.072 668.271, 141.317 668.206, 133.500 666.117 C 127.267 664.451, 119.956 664.806, 112.537 667.134 C 105.168 669.447, 105.150 669.446, 83 665.425 C 73.107 663.629, 55.825 662.471, 54.783 663.535 M 219.719 664.988 C 217.639 665.377, 214.939 666.158, 213.719 666.723 C 197.988 674.010, 185.134 676.995, 169.356 677.024 C 162.285 677.037, 154.700 677.515, 152.500 678.087 C 134.558 682.749, 127.397 683.175, 118.371 680.116 C 114.714 678.877, 112.142 678.480, 111.550 679.063 C 110.953 679.652, 111.139 680.003, 112.050 680.009 C 112.847 680.014, 115.750 681.125, 118.500 682.478 C 125.240 685.794, 133.894 685.800, 146.597 682.500 C 154.454 680.459, 158.629 679.996, 169.359 679.976 C 183.025 679.951, 184.210 679.775, 197.694 675.768 C 204.980 673.602, 206.309 673.474, 209.694 674.612 C 211.787 675.316, 215.300 676.336, 217.500 676.880 C 219.700 677.424, 224.200 678.574, 227.500 679.436 C 248.924 685.028, 262.439 686.530, 261.813 683.250 C 261.538 681.810, 259.973 681.386, 252.989 680.857 C 248.320 680.504, 241.800 679.540, 238.500 678.715 C 235.200 677.890, 228.900 676.466, 224.500 675.550 C 220.100 674.634, 214.569 673.324, 212.208 672.639 L 207.916 671.392 214.708 669.182 C 222.544 666.631, 224.553 666.505, 228 668.350 C 229.375 669.085, 232.975 671.029, 236 672.670 C 247.720 679.025, 255.345 680.306, 260.983 676.870 C 263.975 675.046, 265.487 674.824, 271.716 675.295 C 278.805 675.831, 288 679.211, 288 681.281 C 288 681.827, 291.188 681.940, 295.750 681.555 C 304.978 680.778, 329.584 682.410, 331.403 683.920 C 333.238 685.443, 334.185 684.042, 332.475 682.332 C 330.226 680.083, 320.810 678.854, 303.846 678.595 C 291.164 678.402, 287.707 678.038, 285.632 676.678 C 280.156 673.090, 274.535 672.077, 256.476 671.424 C 239.394 670.806, 238.251 670.638, 233.500 668.041 C 227.366 664.688, 224.598 664.075, 219.719 664.988 M 299 666.304 C 299 667.108, 299.901 668.002, 301.001 668.290 C 302.209 668.606, 302.754 668.411, 302.375 667.797 C 301.970 667.142, 303.122 666.983, 305.623 667.350 C 310.809 668.110, 329.149 669.308, 336 669.334 C 341.094 669.353, 349.983 666.650, 348.781 665.447 C 348.491 665.158, 345.160 665.421, 341.377 666.032 C 334.978 667.065, 321.290 666.825, 305.250 665.397 C 300.178 664.946, 299 665.117, 299 666.304 M 509.500 670 C 509.114 670.625, 511.246 671.011, 515.191 671.029 C 520.436 671.054, 532.364 672.835, 546.233 675.664 C 550.916 676.620, 576.661 671.261, 575.063 669.663 C 574.458 669.058, 572.536 669.115, 569.805 669.819 C 558.375 672.766, 544.982 673.238, 534.338 671.069 C 523.612 668.883, 510.538 668.321, 509.500 670 M 54.072 671.088 C 45.681 672.734, 48.136 673.500, 61.800 673.500 C 72.502 673.500, 76.650 673.901, 80.754 675.332 C 87.584 677.713, 89.884 676.849, 83.812 674.183 C 75.083 670.350, 63.813 669.177, 54.072 671.088 M 480.500 670.521 C 479.400 670.724, 475.913 671.172, 472.750 671.517 C 462.429 672.642, 466.027 674.334, 477.250 673.633 C 487.890 672.968, 498.500 673.873, 510.500 676.471 C 514.350 677.304, 521.775 678.649, 527 679.460 C 532.225 680.270, 539.425 681.389, 543 681.947 C 546.575 682.504, 562.411 682.969, 578.191 682.980 C 597.412 682.993, 607.100 683.352, 607.541 684.067 C 608.503 685.623, 608.254 685.709, 599.500 686.856 C 583.697 688.927, 577.527 690.074, 576.522 691.129 C 573.907 693.873, 605.932 689.276, 609.043 686.461 C 611.293 684.425, 618.239 685.079, 630.500 688.481 C 641.342 691.488, 653.970 694.309, 682.500 700.097 C 690.311 701.682, 707.976 701.596, 711.500 699.956 C 714.332 698.639, 713.854 698.522, 703 697.872 C 696.675 697.494, 688.350 696.427, 684.500 695.502 C 680.650 694.577, 674.462 693.328, 670.750 692.726 C 667.038 692.123, 664 691.323, 664 690.946 C 664 689.850, 670.826 689.023, 679.973 689.011 C 688.123 689, 688.356 688.937, 686.096 687.354 C 683.440 685.495, 666.957 685.903, 657.486 688.064 C 652.931 689.103, 651.290 688.885, 638.500 685.545 C 617.126 679.964, 617.715 680.032, 581.500 679.008 C 562.800 678.480, 544.125 677.603, 540 677.060 C 535.875 676.517, 528.900 675.598, 524.500 675.018 C 520.100 674.438, 513.575 673.325, 510 672.546 C 503.534 671.137, 484.316 669.818, 480.500 670.521 M 676.500 671.605 C 673.200 671.801, 667.350 672.411, 663.500 672.960 C 656.159 674.006, 626.931 675.866, 613.842 676.119 C 602.871 676.332, 602.189 677.668, 612.606 678.544 C 621.097 679.258, 632.157 678.670, 665.500 675.733 C 683.734 674.127, 696.601 674.288, 706.500 676.244 C 734.437 681.767, 752.720 683.376, 753.704 680.399 C 753.948 679.659, 750.198 679.112, 742.284 678.734 C 731.759 678.231, 718.022 676.093, 705 672.933 C 700.002 671.720, 685.727 671.055, 676.500 671.605 M 37.500 674.771 C 27.469 675.337, 28.572 677, 38.979 677 C 44.137 677, 49.740 677.424, 51.429 677.942 C 53.118 678.461, 59.495 680.486, 65.601 682.442 C 76.798 686.031, 94.157 687.681, 92.500 685 C 92.160 684.450, 88.325 684, 83.978 684 C 76.604 684, 69.493 682.253, 63.873 679.061 C 62.978 678.553, 60.503 677.843, 58.373 677.484 C 56.243 677.125, 53.150 676.460, 51.500 676.006 C 46.606 674.658, 43.831 674.413, 37.500 674.771 M 394.500 674.471 C 382.769 678.139, 381.650 678.273, 368.447 677.588 C 359.422 677.120, 354.969 677.241, 354.521 677.966 C 354.158 678.553, 353.534 678.830, 353.133 678.582 C 352.732 678.335, 351.751 678.590, 350.952 679.149 C 349.911 679.878, 350.631 680.005, 353.500 679.596 C 355.700 679.283, 362.225 679.546, 368 680.181 C 377.145 681.185, 379.404 681.113, 385.500 679.624 C 398.647 676.411, 401.245 676.015, 405.121 676.635 C 410.743 677.534, 409.886 678.641, 402.961 679.425 C 399.640 679.801, 394.127 681.025, 390.711 682.145 C 379.579 685.797, 358.023 685.602, 350.267 681.781 C 348.512 680.916, 347.165 681.073, 343.969 682.514 C 337.872 685.264, 338.089 686.201, 344.654 685.470 C 348.590 685.032, 352.725 685.339, 357.312 686.409 C 366.684 688.598, 377.930 688.400, 386.500 685.897 C 394.081 683.682, 404.419 681.266, 410 680.404 C 412.676 679.991, 415.619 680.789, 422.500 683.794 C 442.313 692.449, 451.037 693.507, 494.371 692.515 C 539.660 691.478, 544.333 691.438, 554.913 692 C 561.350 692.342, 564.444 692.148, 564.701 691.386 C 565.211 689.871, 547.503 688.542, 534 689.081 C 528.225 689.311, 507.300 689.498, 487.500 689.495 C 444.523 689.488, 444.101 689.420, 419.500 678.527 C 410.779 674.666, 399.651 672.860, 394.500 674.471 M 685.574 683.881 C 685.195 684.494, 686.096 685.199, 687.709 685.552 C 691.821 686.452, 695.778 687.930, 702.500 691.079 C 705.800 692.625, 709.625 694.364, 711 694.943 C 712.375 695.522, 714.175 696.409, 715 696.915 C 717.863 698.671, 727.885 701.143, 730.685 700.784 L 733.500 700.423 730 699.267 C 719.572 695.824, 709.137 691.716, 701.780 688.157 C 692.773 683.799, 686.627 682.177, 685.574 683.881 M 201 687.115 C 199.075 687.667, 195.250 688.582, 192.500 689.149 C 184.623 690.774, 184.206 690.969, 186.212 692.096 C 187.374 692.748, 189.948 692.540, 194.212 691.449 C 197.671 690.564, 202.075 689.618, 204 689.346 L 207.500 688.851 204.500 690.919 C 202.850 692.056, 200.993 692.990, 200.372 692.993 C 199.752 692.997, 198.685 693.675, 198 694.500 C 196.969 695.743, 197.076 695.999, 198.628 695.996 C 200.633 695.992, 207.070 692.425, 208.158 690.714 C 208.520 690.145, 211.227 689.480, 214.173 689.236 C 219.244 688.815, 219.792 689.008, 224.445 692.853 C 231.158 698.400, 241.158 700.843, 257.550 700.940 C 263.078 700.973, 268.047 701.447, 268.594 701.994 C 270.536 703.936, 281.414 704.411, 282.901 702.619 C 283.640 701.729, 284.077 700.978, 283.872 700.951 C 283.668 700.925, 280.350 700.734, 276.500 700.527 C 243.072 698.734, 234.551 697.059, 226.085 690.619 C 220.859 686.644, 220.387 686.493, 212.585 686.305 C 208.138 686.198, 202.925 686.562, 201 687.115 M 316.500 698.240 C 311.957 700.567, 308.740 701.429, 303.250 701.788 C 299.262 702.049, 296 702.712, 296 703.260 C 296 705.590, 311.276 703.354, 317.649 700.092 C 323.347 697.176, 324.118 697.026, 328.149 698.058 C 354.488 704.800, 366.171 705.944, 384.183 703.545 C 394.790 702.132, 396.846 702.135, 406.502 703.569 C 416.646 705.076, 417.801 705.053, 431.449 703.075 C 449.603 700.443, 462.440 700.444, 476.500 703.080 C 482.550 704.213, 489.750 705.478, 492.500 705.890 C 498.610 706.805, 497.173 707.450, 485.500 709.034 C 477.247 710.154, 464.275 710.544, 406 711.427 C 386.370 711.724, 380.060 712.341, 364.500 715.485 C 355.609 717.281, 342.642 717.631, 323 716.604 C 312.741 716.068, 304.879 716.167, 299.750 716.897 C 295.488 717.504, 288.512 718.475, 284.250 719.056 C 273.132 720.571, 272.207 722.388, 283 721.511 C 287.675 721.131, 293.300 720.454, 295.500 720.007 C 304.306 718.215, 316.763 717.893, 327.501 719.181 C 343.409 721.089, 353.900 720.375, 380.500 715.575 C 385.903 714.600, 391.785 714.319, 398.619 714.710 C 404.185 715.028, 413.635 714.751, 419.619 714.096 C 427.577 713.224, 432.918 713.186, 439.500 713.955 C 449.677 715.144, 471.191 713.697, 500 709.886 C 507.535 708.890, 512.319 706.985, 510.886 705.553 C 510.614 705.280, 505.466 704.626, 499.446 704.098 C 493.426 703.570, 484.450 702.186, 479.500 701.021 C 468.935 698.536, 442.323 697.988, 434.826 700.102 C 432.447 700.773, 425.325 701.303, 419 701.280 C 412.675 701.257, 401.875 701.273, 395 701.316 C 351.673 701.585, 352.037 701.615, 330.500 696.076 C 324.706 694.586, 323.168 694.824, 316.500 698.240 M 109.500 698.936 C 106.200 699.364, 98.775 700.242, 93 700.886 C 87.225 701.529, 81.825 702.303, 81 702.605 C 80.175 702.907, 75.900 703.778, 71.500 704.540 C 67.100 705.303, 59.556 706.825, 54.735 707.923 C 49.915 709.021, 42.602 710.224, 38.485 710.598 C 29.940 711.372, 28.358 713.030, 36.250 712.940 C 41.547 712.880, 43.562 712.576, 59 709.502 C 63.675 708.572, 70.650 707.184, 74.500 706.418 C 100.668 701.213, 131.016 699.663, 150.822 702.521 C 163.360 704.330, 178.109 707.331, 179.900 708.438 C 180.505 708.812, 181.483 708.819, 182.073 708.455 C 184.752 706.799, 176.521 704.134, 157.500 700.496 C 148.354 698.747, 118.441 697.775, 109.500 698.936 M 492 698.944 C 490.813 699.755, 491.127 699.992, 493.500 700.077 C 496.065 700.168, 562.714 701.876, 580.500 702.306 C 586.924 702.461, 594.001 701.360, 593.998 700.205 C 593.998 699.817, 585.560 699.426, 575.248 699.336 C 564.937 699.246, 542.325 698.890, 525 698.546 C 504.099 698.130, 492.995 698.264, 492 698.944 M 525.500 707.854 C 529.462 711.951, 566.714 712.332, 571.754 708.327 C 573.269 707.123, 572.706 707.043, 567.500 707.720 C 559.662 708.739, 544.776 708.713, 533.500 707.660 C 527.306 707.081, 524.812 707.142, 525.500 707.854 M 625 710.481 C 608.184 716.391, 597.640 718.712, 581.848 719.980 C 561.471 721.615, 558 722.065, 558 723.072 C 558 724.546, 578.477 724.151, 591.040 722.434 C 604.402 720.608, 611.128 719.018, 623.500 714.760 C 633.695 711.251, 642.377 710.791, 650 713.353 C 652.475 714.185, 658.550 715.799, 663.500 716.940 C 668.450 718.081, 674.075 719.474, 676 720.036 C 677.925 720.598, 681.750 721.517, 684.500 722.079 C 687.250 722.640, 691.750 723.558, 694.500 724.119 C 697.250 724.679, 701.428 725.782, 703.785 726.569 C 706.142 727.356, 709.067 727.986, 710.285 727.968 C 712.448 727.937, 712.454 727.902, 710.559 726.468 C 709.491 725.661, 707.798 725, 706.795 725 C 705.793 725, 704.191 724.584, 703.236 724.075 C 701.361 723.075, 690.159 720.455, 683.196 719.387 C 680.828 719.024, 677.249 718.162, 675.241 717.472 C 671.702 716.255, 671.892 716.195, 681.520 715.473 C 700.060 714.083, 717.163 715.593, 738.500 720.503 C 749.122 722.947, 754.312 723.436, 753.815 721.944 C 753.386 720.658, 749.928 719.621, 735.500 716.449 C 716.049 712.174, 696.094 711.021, 675.766 712.999 C 665.661 713.982, 663.589 713.750, 649.623 710.073 C 639.729 707.469, 633.267 707.576, 625 710.481 M 110 710.524 C 92.505 711.846, 82.580 713.167, 72 715.581 C 68.425 716.396, 64.487 717.283, 63.250 717.551 C 62.013 717.819, 61 718.500, 61 719.064 C 61 720.138, 62.805 719.947, 76 717.477 C 102.276 712.558, 159.958 710.396, 162.118 714.250 C 162.658 715.212, 164.112 716, 165.350 716 C 169.534 716, 184.434 719.786, 196 723.788 C 221.284 732.537, 228.302 733.695, 242.618 731.483 C 248.603 730.559, 253.928 729.397, 254.450 728.901 C 255.647 727.765, 253.932 727.778, 242.414 728.992 C 229.137 730.391, 220.223 729.020, 200.892 722.601 C 191.758 719.569, 180.508 716.143, 175.892 714.988 C 171.276 713.833, 166.600 712.472, 165.500 711.963 C 158.844 708.884, 138.632 708.360, 110 710.524 M 94 726.027 C 68.594 729.101, 57.223 730.085, 48.500 729.963 C 36.040 729.789, 35.711 729.848, 40 731.500 C 44.164 733.104, 55.920 733.383, 62.674 732.040 C 70.135 730.556, 96.720 727.718, 104.242 727.603 C 108.238 727.542, 110.853 727.093, 110.663 726.500 C 110.257 725.232, 102.414 725.009, 94 726.027 M 301.500 725.993 C 286.622 728.111, 279.874 729.728, 263.500 735.102 C 253.600 738.351, 244.118 741.457, 242.429 742.005 C 238.623 743.238, 219.320 743.326, 218.570 742.113 C 218.269 741.626, 216.330 740.916, 214.261 740.536 C 212.192 740.156, 208.475 739.246, 206 738.514 C 186.987 732.890, 184.646 732.654, 167.500 734.638 C 159.800 735.528, 145.887 736.463, 136.582 736.716 C 118.549 737.204, 116.276 738.419, 131.430 739.469 C 140.134 740.072, 147.893 739.600, 173 736.942 C 184.297 735.747, 184.685 735.774, 195 738.506 C 200.775 740.036, 208.200 741.870, 211.500 742.583 C 214.800 743.296, 219.525 744.401, 222 745.037 C 226.890 746.295, 242.213 745.691, 246.166 744.085 C 252.108 741.671, 278.277 733.911, 285 732.570 C 313.068 726.972, 339.557 728.155, 373 736.499 C 385.818 739.698, 406.803 744.126, 424 747.260 C 452.733 752.498, 482.104 751.293, 503 744.019 C 504.375 743.540, 508.875 742.146, 513 740.920 C 517.125 739.693, 525.106 736.725, 530.736 734.324 C 540.946 729.969, 540.991 729.960, 547.657 731.025 C 551.333 731.612, 554.607 732.257, 554.932 732.458 C 557.919 734.304, 580.245 735.993, 588.876 735.026 C 612.648 732.363, 611.761 731.500, 585.250 731.500 C 568.839 731.500, 562.627 731.109, 555.542 729.630 C 546.507 727.743, 535.348 727.768, 532.740 729.681 C 532.058 730.181, 528.800 731.622, 525.500 732.883 C 522.200 734.144, 518.600 735.563, 517.500 736.037 C 498.376 744.282, 465.295 749.449, 446.774 747.084 C 431.226 745.098, 391.744 737.084, 362.500 729.977 C 345.068 725.741, 316.419 723.870, 301.500 725.993 M 625.652 726.049 C 617.463 727.423, 619.015 728.304, 628.500 727.667 C 633.450 727.334, 640.425 727.490, 644 728.014 C 647.575 728.537, 655.225 729.449, 661 730.041 C 666.775 730.632, 673.824 731.602, 676.665 732.197 C 679.506 732.792, 682.656 732.917, 683.665 732.475 C 685.843 731.521, 682.619 730.851, 664.500 728.492 C 657.900 727.632, 650.025 726.528, 647 726.037 C 640.312 724.953, 632.153 724.958, 625.652 726.049 M 439 732.072 C 439 733.690, 443.259 734, 465.517 734 C 482.031 734, 489.694 733.634, 491.685 732.750 C 495.407 731.097, 476.667 730.532, 460.309 731.804 C 454.199 732.278, 446.905 732.373, 444.100 732.013 C 441.295 731.653, 439 731.680, 439 732.072" stroke="none" fill="#1b1f3a" fill-rule="evenodd"/>
</svg>