<svg xmlns="http://www.w3.org/2000/svg" viewBox="0 0 768 768" version="1.1" preserveAspectRatio="xMidYMid meet"><path d="M 633 124.6 C 632.2 125, 630 125.9, 628.1 126.8 C 625.4 128, 624.2 128.1, 621.6 127.2 C 616 125.1, 612.1 125.7, 608.2 129.1 C 604.7 132.2, 604.5 132.2, 597.3 131.6 C 590.9 131.1, 589.5 131.3, 587.2 133 C 585.7 134.1, 581.4 135.4, 577.5 136 C 571.8 136.9, 570 137.7, 567.5 140.2 C 564.6 143.2, 564.4 143.2, 556.9 142.6 C 548.5 141.9, 545 142.8, 541 146.5 C 539.2 148.1, 535.5 149.4, 528.2 151 C 522.5 152.2, 515.3 154.2, 512.1 155.5 C 508.9 156.7, 504.8 158, 502.9 158.4 C 500.9 158.7, 495.8 160.8, 491.4 162.9 C 487.1 165, 482.4 167.1, 481 167.4 C 479.6 167.8, 477.6 168.5, 476.5 169 C 475.4 169.4, 472.3 170.6, 469.5 171.5 C 466.8 172.5, 463.2 173.8, 461.5 174.5 C 459.9 175.2, 452.9 178.2, 446 181.1 C 417.2 193.2, 376.9 216.8, 346.5 239.3 C 342.1 242.5, 336.5 246.4, 334.1 247.8 L 329.8 250.3 321.6 248.8 C 317.2 247.9, 309.5 246.1, 304.5 244.6 C 299.6 243.2, 294.6 242.1, 293.5 242.1 C 291.3 242.1, 291.3 242.1, 300.5 246.1 C 304.9 248, 317.6 252.3, 322.9 253.6 L 326.3 254.5 319.9 259.5 C 311.1 266.3, 268 308.2, 258.4 319.2 C 230.2 351.6, 204.5 397.8, 190.8 440.9 C 189.1 446.2, 187.1 452.4, 186.3 454.7 L 184.8 458.9 181.1 456 C 176.6 452.2, 167 452, 167 455.6 C 167 456.4, 165.9 457, 164.4 457 C 161.7 457, 161.4 459.4, 164.1 459.6 C 167.4 459.8, 167.3 460.2, 163.6 461.6 C 160.9 462.6, 159.3 462.7, 158.4 462 C 157.7 461.3, 157 461.3, 156.6 461.9 C 155.7 463.2, 152 462, 152 460.4 C 152 459.6, 152.3 459.1, 152.8 459.1 C 156 459.6, 157.3 457.4, 154.4 456.3 C 153.6 456, 151.9 456.7, 150.4 458 C 147.5 460.8, 147.1 458.9, 150 456 C 153.5 452.5, 152.8 446.6, 148.6 444.6 C 146.7 443.7, 144 443, 142.6 443 C 140.8 443, 140 442.5, 140 441.3 C 139.9 440, 139.5 440.3, 138.4 442.3 C 136 446.7, 137 447.7, 143.4 447.5 C 148.5 447.3, 149.1 447.5, 149.6 449.6 C 150.3 452.3, 147 458.7, 145.1 458.3 C 144.5 458.1, 144 458.5, 144 459 C 144 459.6, 143.1 460, 141.9 460 C 140.8 460, 140.1 460.4, 140.5 460.9 C 140.8 461.4, 140 462.6, 138.8 463.5 C 137.3 464.7, 136.9 465.4, 137.8 465.7 C 140.3 466.6, 138.9 467.7, 135.4 467.6 C 133.1 467.5, 131.5 468, 131.2 468.8 C 130.9 469.9, 131.2 469.9, 133 468.8 C 134.8 467.7, 135.3 467.7, 136.5 469.4 C 137.3 470.4, 138.4 470.9, 139 470.5 C 140.1 469.8, 141.9 471.5, 142 473.3 C 142 474.5, 138.7 474.1, 135.6 472.5 C 132.2 470.7, 129.3 472.2, 132.1 474.3 C 132.9 475, 133.9 476.3, 134.3 477.3 C 134.6 478.2, 135.4 479, 136.1 479 C 136.7 479, 136.9 478.3, 136.6 477.3 C 136 475.8, 136.2 475.8, 138 477.5 C 140.4 479.7, 140.6 480.4, 138.5 479.6 C 136.2 478.8, 136.7 480.9, 139.2 483 L 141.4 484.7 138.5 486.2 L 135.6 487.8 138.8 489.4 C 143.2 491.7, 145.7 491.4, 147.6 488.5 C 148.6 487, 149.9 486.1, 150.7 486.4 C 151.7 486.8, 151.9 486.3, 151.4 484.5 C 151 482.8, 151.2 482, 152.1 482 C 152.8 482, 154.2 481.2, 155.2 480.3 C 156.7 478.9, 157.5 478.8, 158.9 479.7 C 160 480.4, 161.1 480.6, 161.4 480.3 C 162 479.7, 162.3 476, 161.7 476 C 161.6 476, 160 476.4, 158.2 476.9 C 153.4 478.3, 145.9 475.3, 150.3 473.8 C 150.9 473.5, 154.3 473.4, 157.8 473.5 C 163.1 473.6, 164 473.3, 164 471.8 C 164 470.8, 163.6 470, 163 470 C 162.5 470, 162.3 470.7, 162.6 471.5 C 163 472.3, 162.7 473, 162.1 473 C 161.5 473, 161 472.3, 161 471.5 C 161 470.7, 160.4 470, 159.8 469.9 C 158.3 469.8, 161.9 468.2, 163.7 468.1 C 167.3 467.9, 167.3 475.3, 163.7 479.1 C 161.1 481.9, 162.4 484.4, 166.9 484.8 C 169.7 485.1, 170 485.4, 169.4 487.3 C 169 488.5, 168.3 489.7, 167.9 489.8 C 166.6 490.3, 166.9 493.9, 168.4 498.3 C 170.1 502.8, 169.6 503.2, 164.5 501.4 C 159.2 499.6, 158 499.6, 158 501.9 C 158 504.4, 155.5 506.3, 153.2 505.6 C 152.1 505.2, 150.8 505.6, 150 506.5 C 148.9 507.8, 149.3 508, 153.3 508 L 157.8 508 158.2 513.8 C 158.5 516.9, 159.2 520.9, 159.7 522.5 C 160.3 524.2, 162.2 530, 164 535.5 C 167.4 546.3, 169.4 551.1, 174.2 560.5 C 177 566.2, 178.8 569, 190.4 586.7 C 204.3 608, 246.9 638.8, 283.5 654.1 C 284.6 654.5, 287.5 655.8, 290 656.8 C 299.3 660.8, 308.7 664, 314 665.1 C 329.1 668.1, 327.9 667.6, 344.3 677.8 C 348.9 680.6, 353.3 683, 353.9 683 C 354.5 683, 355 683.4, 355 683.8 C 355 684.3, 356.7 685.4, 358.8 686.3 C 360.8 687.2, 364.8 689.5, 367.7 691.4 C 370.5 693.3, 378 697.3, 384.2 700.3 C 394.1 705.1, 398.8 706.8, 414 711 C 423.8 713.7, 442.8 717.4, 454.5 718.9 C 465.2 720.3, 482.1 722.8, 495 724.8 C 502.8 726, 513 726.4, 535 726.5 C 561.9 726.6, 565.2 726.8, 572.5 728.7 C 576.9 729.9, 585.2 731.6, 591 732.5 C 596.8 733.3, 604 734.4, 607 735 C 614.9 736.4, 627.6 737.4, 626.9 736.6 C 626.2 735.9, 618.7 734.3, 602.5 731.5 C 584.8 728.5, 578.2 727.1, 572 725 C 568.4 723.8, 565.4 722.7, 565.2 722.5 C 565.1 722.4, 568 721.8, 571.7 721.2 C 575.4 720.6, 583 719.3, 588.5 718.4 C 594 717.5, 602.3 716.7, 607 716.6 C 611.7 716.5, 621.6 716, 629 715.6 C 637.5 715.1, 644 715.2, 646.5 715.8 C 664.4 720.3, 672.6 722.8, 679.5 726 C 680.6 726.5, 684 727.9, 687 729 C 690 730.1, 693.4 731.5, 694.5 732 C 701.3 735.3, 730.2 746.4, 743 750.6 C 752.6 753.8, 763.9 756, 764.6 754.9 C 765.5 753.3, 764 752, 761.3 752 C 759.8 752, 757.3 751.6, 755.6 751.1 C 742.5 747.1, 729 742.6, 726.3 741.4 C 724.6 740.6, 722.6 740, 721.8 740 C 721 740, 720 739.6, 719.5 739.2 C 718.9 738.7, 715.6 737.3, 712 736 C 708.4 734.7, 705.1 733.4, 704.5 733 C 704 732.6, 701.3 731.5, 698.5 730.5 C 695.8 729.5, 691.7 728, 689.5 727 C 680.6 723.2, 663 717, 655 715 C 650.3 713.8, 646.4 712.7, 646.2 712.6 C 645.7 712.1, 663.4 710, 668.1 710 C 677.4 710.1, 696.3 714.3, 711.5 719.6 C 750.4 733.3, 764 737, 764 734 C 764 732.7, 762.9 732.1, 759.8 731.6 C 754.7 730.8, 749.9 729.3, 731 722.8 C 723 720.1, 711.1 716, 704.5 713.8 C 697.9 711.7, 691.2 709.4, 689.5 708.8 C 680 705.6, 652.4 706.8, 625.5 711.5 C 614.3 713.5, 601.4 714.4, 605.5 712.9 C 607.2 712.3, 609.4 711.5, 610.5 711 C 611.6 710.6, 614.5 709.5, 617 708.7 C 620.9 707.4, 625 706.2, 639.5 701.9 C 641.2 701.5, 647 700.1, 652.5 699 C 658 697.9, 664.1 696.5, 666 695.9 C 667.9 695.4, 676.9 694.7, 686 694.4 C 705.1 693.7, 718 694.8, 747.5 699.8 C 750.8 700.4, 756 701.1, 759 701.5 C 767.8 702.5, 763.7 700.1, 753.9 698.5 C 749.3 697.8, 741.2 696.4, 736 695.5 C 718.2 692.5, 713.5 692.1, 695.5 692.1 C 678 692, 673 692.5, 658.5 695.4 C 654.7 696.2, 648.8 697.3, 645.5 697.9 C 642.2 698.6, 638.4 699.5, 637 700 C 635.6 700.5, 631.1 701.8, 627 703 C 618.1 705.6, 602.9 711, 601.4 712.2 C 599.7 713.4, 585.3 716.2, 571.5 718 C 568.2 718.4, 566.2 718.9, 567 719 C 567.8 719.2, 563.6 719.7, 557.5 720 C 551.5 720.4, 542.9 721.3, 538.5 722 C 533.5 722.7, 526 723, 518.5 722.6 C 507.7 722.1, 501.3 721.2, 474.5 716.4 C 470.1 715.6, 463.6 714.5, 460 713.9 C 456.4 713.3, 453.1 712.4, 452.5 712 C 452 711.6, 449.9 710.9, 448 710.6 C 446.1 710.2, 443.6 709.5, 442.5 709 C 441.4 708.6, 438 707.4, 435 706.6 C 422.9 703, 397.3 694.7, 394.3 693.4 C 392.6 692.6, 390.5 692, 389.7 692 C 388.8 692, 387.9 691.6, 387.5 691.1 C 387.2 690.6, 385.7 689.9, 384.1 689.5 C 381.1 688.9, 367.2 682, 360.3 677.8 C 356 675.1, 326.8 660.7, 317 656.4 C 301.7 649.6, 271.9 633.8, 268.4 630.5 C 267.8 630, 266.2 628.8, 265 628 C 263.2 626.8, 252.5 618.1, 240.4 608.1 C 239.3 607.1, 235.9 604.5, 232.8 602.2 C 222 594.2, 213.9 583.6, 204.9 565.5 C 199.4 554.4, 197.3 548.8, 196.4 543 C 196 540.5, 195.3 537.9, 194.7 537.2 C 194.2 536.6, 193.7 532.2, 193.6 527.5 C 193.5 520.4, 193.3 519.3, 192.3 520.7 C 191.6 521.6, 191 523, 191 523.7 C 191 524.4, 190.3 525, 189.5 525 C 187.6 525, 187.5 526.6, 189.4 527.3 C 190.8 527.9, 192.3 532.8, 194.1 543 C 194.6 546, 195.7 549.9, 196.5 551.7 C 197.3 553.4, 198 555.3, 198 555.8 C 198 557, 209.2 579.2, 210.8 581.2 C 218.5 590.6, 224.7 597.4, 227.8 599.7 C 229.8 601.2, 231.7 602.7, 232 603.1 C 232.7 603.9, 253.9 621.9, 258 625.3 C 265.3 631.1, 273.7 636.9, 279 639.7 C 296.6 649.2, 300 651, 304.5 653.3 C 307.3 654.6, 311 656.4, 312.8 657.1 C 319.4 659.8, 329.5 665, 327 664.5 C 297 657.8, 278.4 650.6, 254 636.1 C 222.7 617.5, 201.7 599.8, 189.8 581.8 C 178.2 564.2, 169 547.4, 169 543.7 C 169 542.8, 168.6 541.9, 168.1 541.5 C 167.6 541.2, 166.8 539.5, 166.5 537.8 C 166.1 536, 165.4 533.9, 164.9 533 C 163.7 530.8, 160 514.5, 160 511.5 C 160 510.1, 160.5 509, 161 509 C 161.6 509, 162 508.3, 162 507.4 C 162 506.6, 161.6 506.1, 161.1 506.4 C 160.6 506.8, 160.4 506.1, 160.7 505 C 161 503.9, 161.9 503, 162.7 503 C 163.7 503, 164 503.6, 163.5 504.8 C 163 506.2, 163.1 506.3, 164.1 505.3 C 166.4 503.1, 167 503.9, 166.4 508 C 165.8 511.6, 166 512, 167.8 512 C 168.9 512, 170.3 511.3, 171 510.5 C 171.8 509.6, 171.8 509, 171.2 509 C 170.6 509, 170 509.6, 169.7 510.3 C 169.4 511.1, 169 510.9, 168.5 509.7 C 167.2 506.5, 169.6 502.9, 172.5 503.6 C 174.4 504.1, 175 503.9, 174.8 502.9 C 174.6 502.1, 175.1 501.6, 175.8 501.8 C 176.6 501.9, 176.9 501.6, 176.5 501 C 176.2 500.5, 176.3 500, 176.7 500 C 177.2 500, 177.6 499.1, 177.6 498.1 C 177.6 496.5, 177.2 496.4, 175.8 497.1 C 174.8 497.6, 174 498.5, 174 498.9 C 174 500.7, 170.2 498.7, 169.6 496.7 C 168.9 493.9, 169.5 493.5, 172.5 494.8 C 174 495.5, 175.2 495.6, 175.5 495 C 175.9 494.4, 176.8 494.5, 178 495.2 C 179 495.9, 179.7 496.7, 179.4 497.1 C 179.2 497.5, 179.4 498.1, 180 498.5 C 180.5 498.8, 180.7 500.4, 180.4 501.9 C 180 503.5, 180.3 505.1, 180.9 505.4 C 181.6 505.9, 182 505, 182 503.1 C 182 501.4, 182.5 500, 183.2 500 C 183.8 500, 185.2 499.2, 186.3 498.3 C 188.2 496.6, 188.2 496.6, 187.5 499 C 187.1 500.4, 186.1 502.1, 185.2 502.7 C 182.9 504.5, 184.6 505.5, 187.6 504.2 C 189.6 503.2, 190.4 503.3, 191.6 504.5 C 193.2 506, 196 505.5, 196 503.7 C 196 502.9, 196.3 502.9, 197.1 503.7 C 198.6 505.2, 197.4 507.1, 195.5 506.3 C 194.7 506, 194 506.3, 194 506.9 C 194 507.4, 195.9 508.4, 198.3 509.1 C 203.4 510.4, 207.9 515.1, 207.3 518.3 C 207.1 519.5, 207.3 522.3, 207.8 524.5 L 208.8 528.5 208.9 524.3 C 209 521.1, 209.5 519.8, 211.1 519 C 213.7 517.5, 215.1 518.7, 212.7 520.4 C 211.8 521.1, 211 522.3, 211 523 C 211 523.9, 211.7 523.7, 213.1 522.4 C 215.1 520.6, 215.1 520.6, 214.5 523.2 C 213.6 526.6, 215 529.3, 216.1 526.4 C 216.5 525.4, 216.9 523, 216.9 521.3 C 217 519.1, 217.5 518, 218.5 518 C 220.2 518, 220.5 519.6, 219 520.5 C 218.5 520.8, 218 522.6, 218 524.5 C 218 526.4, 217.5 528.2, 217 528.5 C 215.3 529.5, 217 531.1, 219.1 530.5 C 220.1 530.1, 221 530.3, 221 530.8 C 221 531.4, 220.4 532, 219.8 532.3 C 218.6 532.7, 220.9 541.6, 223 544.5 C 223.4 545.1, 224 546.8, 224.4 548.3 C 227.6 561.6, 248.9 594.5, 261.9 606.1 C 264.7 608.6, 266.7 611.1, 266.2 611.5 C 265.8 612, 266.1 612, 266.7 611.6 C 267.5 611.2, 271.2 613.4, 276.1 617.1 C 288.1 626.2, 314.1 644, 315.5 644 C 316.8 644, 325 649.7, 324.4 650.2 C 324.1 650.6, 324.7 650.6, 325.9 650.3 C 327.1 650, 328 650.2, 328 650.8 C 328 651.3, 329.4 652, 331.1 652.4 C 333.4 652.8, 334.1 653.4, 333.6 654.6 C 333.1 655.9, 333.5 656.1, 335.5 655.6 C 337 655.2, 339.4 655.6, 341.3 656.4 C 357 663.5, 368.8 668.3, 385 674.3 C 396.7 678.7, 401.9 680.9, 400.2 681 C 399.5 681, 395.9 679.9, 392.2 678.6 C 388.5 677.3, 380.3 674.3, 374 672.1 C 361.6 667.6, 360 667, 346.6 660.4 C 337.2 655.7, 332.4 654.8, 340.1 659.1 C 351.6 665.5, 366.7 672.4, 378.5 676.6 C 399.6 684, 406.2 686.1, 419 689 C 423.5 690.1, 430.5 692, 446 696.3 C 463.6 701.2, 486 705.3, 511 708 C 520.6 709.1, 546.4 709.5, 547.9 708.6 C 548.2 708.4, 553.5 707.7, 559.5 707.1 C 565.6 706.4, 572.1 705.5, 574 705 C 575.9 704.5, 580.9 703.4, 585 702.5 C 593.4 700.7, 617.3 695, 629.5 691.9 C 656.7 685.1, 666.3 683.3, 683.1 682 C 704.7 680.4, 737.7 683, 758.5 688 C 764 689.3, 764.2 689.3, 763.8 686.8 C 763.1 681.8, 734.1 677.7, 699.5 677.6 C 671.2 677.6, 667.7 677.9, 642 683.7 C 632.8 685.8, 627 685.8, 606.5 683.6 C 585.9 681.5, 567.8 678.4, 560 675.7 C 559.2 675.4, 551.1 672.8, 542 670 C 532.9 667.1, 524.1 664.1, 522.3 663.4 C 520.6 662.6, 518.5 662, 517.7 662 C 516.8 662, 515.9 661.6, 515.5 661.1 C 515.2 660.6, 513.6 659.9, 511.9 659.5 C 510.2 659.1, 509.1 658.6, 509.4 658.3 C 509.9 657.8, 525.1 660.9, 532.5 663 C 534.2 663.5, 540.9 664.8, 547.5 666 C 554.1 667.1, 561.8 668.5, 564.5 669 C 567.3 669.5, 575.8 670.4, 583.5 671 C 591.2 671.6, 600.8 672.3, 604.8 672.7 C 611.6 673.2, 617.2 672.9, 646.5 669.8 C 667.4 667.7, 674.6 667.4, 689.5 668.3 C 702.1 669.1, 706.5 668.9, 716.5 667.4 C 734.1 664.8, 749.8 665.4, 760.7 669.1 C 761.3 669.3, 761.9 669.1, 762 668.5 C 762.1 667.6, 760 666.9, 746.9 664 C 740.9 662.7, 733.2 663, 715.5 665.3 C 706.5 666.5, 701.5 666.6, 688.4 665.7 C 676.4 664.9, 669.3 665, 660.4 665.9 C 631.2 668.8, 623.7 669.1, 606 668.5 C 586.4 667.8, 571.2 665.9, 576.3 664.7 C 582 663.3, 584.8 662.8, 593.5 661.4 C 603.6 659.9, 612.9 658.1, 624 655.5 C 634.4 653.1, 641.3 651.7, 657 648.6 C 664.4 647.2, 673.2 645.4, 676.5 644.8 C 692 641.7, 724.3 644, 744.5 649.5 C 753.9 652.1, 763.3 654.1, 763.8 653.6 C 766.6 650.7, 747.1 643.9, 727.5 641 C 702.7 637.2, 681.7 638.1, 656.1 644.1 C 645 646.7, 603.5 656.8, 599 658 C 597.1 658.5, 592.5 659.2, 588.7 659.6 C 585 660, 581.7 660.7, 581.4 661.1 C 581.1 661.6, 579.9 662, 578.7 662 C 577.5 662, 575.6 662.7, 574.6 663.5 C 570.3 666.7, 549.1 663.4, 511.5 653.5 C 501.2 650.8, 475.4 643.1, 473 642.1 C 467.4 639.6, 484.2 642.1, 502 646.5 C 511.8 648.8, 521.7 650.9, 529 652.1 C 537.5 653.6, 571.8 653.6, 579.5 652.1 C 596.5 649, 605.3 646.4, 629 637.4 C 663.6 624.4, 682.7 621.1, 707.7 624 C 715.4 624.9, 719.4 625, 720.1 624.3 C 724.1 620.3, 669.6 620.9, 659 625 C 657.6 625.5, 654.5 626.1, 652 626.2 C 649.5 626.4, 647.3 626.8, 647 627.1 C 646.7 627.4, 642 629.4, 636.5 631.5 C 631 633.6, 624.7 636.1, 622.5 637 C 618.9 638.6, 603.9 643.5, 595 646.1 C 590.2 647.4, 582.9 648.8, 574 650.1 C 565.1 651.4, 531.6 650.7, 525 649.1 C 522.5 648.5, 517.4 647.4, 513.5 646.6 C 509.7 645.8, 502.2 644.3, 497 643.2 C 479.3 639.5, 474.7 638.9, 471.2 639.9 C 469.1 640.5, 467.2 640.6, 466.2 640 C 462.3 637.9, 444.4 635.3, 417.5 633 C 375.6 629.4, 340.7 618.8, 316.3 602.2 C 308.4 596.9, 308.8 599.1, 316.7 604.9 C 330.5 615.2, 362 628.4, 382 632.4 C 390.9 634.2, 409.5 636.7, 420 637.5 C 436.9 638.8, 459.1 642.4, 467 645 C 468.4 645.5, 472.9 646.8, 477 648 C 485.3 650.4, 497.2 654.8, 506.5 659 C 509.8 660.5, 514.8 662.5, 517.5 663.5 C 520.3 664.5, 523.9 665.9, 525.7 666.6 C 527.4 667.4, 529.5 668, 530.3 668 C 531.2 668, 532.1 668.4, 532.4 668.9 C 532.7 669.4, 534.6 670.1, 536.6 670.5 C 538.6 670.8, 541 671.5, 541.9 672 C 542.8 672.5, 546.9 673.9, 551 675 C 555.1 676.2, 559.6 677.6, 561 678.1 C 567.4 680.4, 587 683.9, 601 685.1 C 621.2 686.9, 623 687.1, 623 688.1 C 623 688.6, 622.2 689, 621.3 689 C 620.4 689, 614 690.4, 607.1 692.2 L 594.5 695.3 584 693.5 C 568.8 691, 537.7 682, 523.5 676 C 522.4 675.6, 518.4 674.2, 514.5 673 C 510.7 671.9, 506.6 670.5, 505.5 670 C 502.7 668.8, 478.1 660.7, 469 658 C 458.7 655, 452.3 653, 447.2 651.4 C 444.9 650.6, 442.3 650, 441.5 650 C 440.6 650, 439.2 649.6, 438.2 649.1 C 437.3 648.6, 430.9 646.8, 424 645 C 417.1 643.3, 409.5 641.2, 407 640.5 C 400.1 638.4, 390 636.7, 389.3 637.4 C 389 637.7, 389.6 638, 390.8 638 C 392 638, 393.8 638.4, 394.8 638.9 C 395.7 639.5, 399.9 640.8, 404 642 C 408.1 643.1, 412.9 644.5, 414.5 645 C 416.2 645.5, 421.8 647, 427 648.4 C 436.2 650.9, 441.6 652.4, 452 655.5 C 454.8 656.3, 459.1 657.6, 461.8 658.4 C 470.3 660.9, 483.4 665.1, 491 667.9 C 495.1 669.4, 501.2 671.4, 504.5 672.5 C 507.8 673.5, 511.4 674.6, 512.5 675 C 516.6 676.6, 561.2 691.1, 567.5 693 C 569.2 693.5, 573.7 694.4, 577.5 695.1 C 589.9 697.1, 588.2 698.4, 573.5 698.1 C 526.7 697.1, 494.9 692.8, 469.2 684 C 454.7 679.1, 418.1 665.9, 413.5 664 C 412.4 663.5, 404.5 660.8, 396 658 C 387.5 655.2, 379.6 652.5, 378.5 652 C 377.4 651.6, 372.5 649.8, 367.5 648 C 345.9 640.3, 310 620.4, 296 608.4 C 294.6 607.2, 290.2 603.4, 286.1 599.9 C 276.8 591.9, 264.5 578, 257.6 567.5 C 250.7 557.1, 240 537.4, 240 535.2 C 240 534.7, 239.1 533.5, 238 532.5 C 236.9 531.5, 236 531.2, 236 531.8 C 236 532.5, 235.1 533, 234 533 C 232.9 533, 232 532.6, 232 532 C 232 531.5, 231.3 531, 230.5 531 C 227.9 531, 228.9 532.8, 232.2 533.9 C 234.5 534.7, 235.6 534.7, 235.8 534 C 236.4 532.3, 239 534.9, 239 537.2 C 239 538.9, 242.6 546.6, 244 548 C 244.3 548.3, 245.1 549.6, 245.7 551 C 247.7 555, 258 572.3, 259 573 C 259.3 573.3, 260.7 575.1, 262 577 C 266.3 583.1, 268.2 585.3, 278 595 C 306.2 623.1, 345.7 645.2, 400 663 C 404.7 664.6, 419.5 670, 433 675 C 488.5 695.9, 507.5 699.9, 552 700.2 L 573.5 700.3 564.5 702.3 C 550 705.3, 507 705.3, 490 702.2 C 466 697.8, 457.2 695.9, 447 693 C 442.9 691.8, 438.2 690.5, 436.5 690 C 428.7 688, 412.1 682.3, 404.5 679 C 398.6 676.4, 386.9 672.2, 383.7 671.4 C 382.2 671.1, 380.7 670.4, 380.4 669.9 C 380.1 669.4, 379.2 669, 378.4 669 C 377.5 669, 373.9 667.7, 370.3 666 C 366.8 664.4, 363.6 663, 363.4 663 C 363.1 663, 361 662.2, 358.7 661.1 C 356.4 660.1, 352 658.2, 349 656.9 C 324.6 646.6, 299.5 631.6, 273.5 611.7 C 252.1 595.4, 234.3 570.3, 224.5 542.5 C 221.6 534.3, 221.6 531, 224.6 531 C 225.6 531, 226 531.5, 225.6 532.5 C 225.3 533.3, 225.5 534, 226 534 C 227 534, 227.5 531, 227 528 C 226.8 526.8, 227.2 526.9, 228.8 528.3 C 230 529.4, 232.8 530.3, 236.2 530.5 C 239.1 530.7, 243.4 531.1, 245.7 531.4 C 248.1 531.7, 250.2 531.5, 250.5 530.9 C 250.9 530.4, 249.1 530, 246.5 530 C 240.7 530, 236.4 528.1, 239.6 527 C 240.7 526.5, 243.6 526.6, 246.1 527 C 248.5 527.5, 250.7 527.7, 250.9 527.4 C 251.9 526.5, 248.4 523.9, 246.7 524.4 C 244.3 525, 240.1 523.4, 238.3 521.2 C 237.2 519.9, 236.7 519.8, 236.3 520.8 C 235.5 522.9, 233.1 519, 233 515.3 C 233 513.6, 232.3 511.5, 231.5 510.6 C 229.8 509, 229.4 506.5, 231 507.5 C 231.6 507.8, 232 507.6, 232 507.1 C 232 506.5, 231.5 506, 230.9 506 C 230.4 506, 230.2 505.6, 230.5 505 C 230.9 504.4, 232 504.6, 233.5 505.6 C 235.3 506.8, 235.9 506.8, 236.3 505.8 C 236.5 505.1, 237.1 504.8, 237.5 505.2 C 238.5 506.2, 235.8 508.8, 234.2 508.2 C 232.7 507.7, 232.6 509.9, 234 513.5 C 234.9 516, 235.1 516, 237.9 514.5 C 240.5 513.2, 240.8 512.6, 240.5 509.3 C 240.1 505.3, 241.7 506.7, 242.3 510.9 C 242.7 513.7, 249.3 519.6, 252.6 520.3 C 254.3 520.6, 255.7 520.1, 256.9 518.8 C 258.7 516.9, 258.8 516.9, 259.3 519.1 C 259.8 521, 260.4 521.2, 263.3 520.7 C 266.4 520.2, 266.9 520.4, 267.3 522.6 C 267.8 525.3, 266 525.8, 263.8 523.7 C 263 522.8, 261.7 522.6, 260.5 523.1 C 257.5 524.3, 257 524.1, 257.6 522.5 C 258.3 520.9, 255.8 521.3, 253.3 523.2 C 251.8 524.4, 252.8 527.2, 254.4 526.3 C 256 525.2, 260.9 525.1, 261.6 526.1 C 261.9 526.6, 263.4 527, 265 527 C 270.6 527, 273.1 528.9, 272.4 532.7 C 271.9 535.2, 272.2 536.1, 273.3 536.6 C 277.9 538.3, 276.8 531.4, 271.8 527.2 C 269.8 525.5, 269.1 524.2, 269.6 522.8 C 270.4 520.3, 268.4 518, 265.4 518 C 263.7 518, 262.7 517.2, 262.1 515.6 C 260.6 511.9, 257.3 511.6, 255.5 515.1 C 253.8 518.3, 251 518.9, 249 516.5 C 247.3 514.5, 250.3 511, 253.5 511 C 254.8 511, 256.1 510.3, 256.4 509.4 C 257.3 507, 257.2 506.7, 255.1 507.3 C 253.4 507.7, 253.4 507.5, 254.6 505.1 C 255.8 502.9, 255.8 502.5, 254.5 502.2 C 253.7 502, 253 501.4, 253 500.9 C 253 499.6, 254.4 499.8, 255.8 501.2 C 256.8 502.2, 257.4 502, 258.8 500.7 C 260.4 499, 260.4 498.8, 258 496.9 C 256.3 495.6, 254.6 495.1, 252.6 495.5 C 249.1 496.1, 248.9 496.6, 262.3 479 C 279.8 455.9, 301.9 434.8, 323 420.9 C 334.8 413.1, 356.5 402.3, 355.5 404.7 C 352.7 411.2, 352.5 414, 354.8 416.2 L 357 418.4 362.2 416.5 C 376 411.6, 392 400.3, 401.5 388.8 C 407.9 381.1, 419.3 374, 425.1 374 C 426.1 374, 428.1 373.5, 429.7 372.9 L 432.5 371.7 429.6 370.9 C 427.5 370.3, 425 370.7, 420.7 372.1 C 415 374, 412.6 374, 414.6 372 C 415.6 371, 433.3 364.5, 445 360.8 C 448.6 359.7, 455.7 357.1, 460.8 354.9 C 465.8 352.8, 470 351.4, 470.1 351.8 C 471 361.2, 469.6 369.8, 466 377.4 C 463.9 381.9, 462 386.9, 461.8 388.5 C 461.5 390.2, 461.5 390.9, 461.7 390.3 C 462 389.6, 462.6 389, 463.1 389 C 463.6 389, 464 388.3, 464 387.5 C 464 385.3, 466.6 380.6, 469.5 377.4 C 471.3 375.4, 472 375.1, 472 376.3 C 472 377.2, 471.4 378.5, 470.7 379.2 C 468.9 380.8, 469.8 384.8, 472.8 388.8 C 475.2 391.9, 475.2 392.4, 474.5 402.3 C 474 410.1, 473.3 413.4, 471.5 416.5 C 469.7 419.7, 469.1 422.6, 468.6 431.5 C 468.3 437.6, 467.7 444.1, 467.4 446.1 C 465.5 457.2, 479.4 453.5, 493.7 439.1 C 502.3 430.6, 506.6 423.5, 511.1 410.6 C 513.2 404.6, 515.4 399.2, 515.9 398.6 C 516.5 397.9, 517.2 395.4, 517.6 393 C 518 390.5, 519.5 386.3, 520.9 383.5 L 523.5 378.5 523.5 349.7 L 523.5 321 528 317.2 C 575.3 277.8, 634.6 206.9, 659.9 159.5 C 664.5 150.8, 661.2 134, 653.9 128.7 C 650.1 126, 636.4 123.3, 633 124.6 M 629.5 130.5 C 626.2 131.6, 622.2 133.2, 620.7 133.8 C 617 135.4, 616.8 135.3, 618 133.1 C 619.9 129.4, 615.5 129.4, 610.8 133.1 C 605.8 137.1, 594.5 138.7, 592.8 135.6 C 592 134.1, 591.5 134.3, 588.5 136.9 C 586 139.1, 583.7 140, 579.4 140.6 C 574.8 141.1, 572.9 142, 569.6 144.9 C 564.5 149.4, 561.7 151, 558.8 151 C 557.5 151.1, 554.7 151.9, 552.5 153 C 550.3 154.1, 547.9 154.9, 547.2 155 C 544.4 155, 524.9 161.8, 516.3 165.6 C 514.6 166.4, 512.7 167, 512.1 167 C 511.5 167, 510.2 167.4, 509.2 167.9 C 505.4 169.9, 495 173.2, 493.8 172.7 C 492.9 172.4, 493.2 172, 494.5 171.5 C 495.6 171, 498.3 169.9, 500.5 169 C 502.7 168, 510.4 165.1, 517.5 162.5 C 524.7 159.9, 531.4 157.4, 532.5 157 C 533.6 156.5, 536.1 155.8, 538 155.5 C 543 154.5, 550.5 152, 554.6 150 L 558.1 148.2 554.6 147 C 550.9 145.8, 547.9 146.8, 542 151.2 C 540.6 152.2, 535 154.2, 529.5 155.6 C 524 156.9, 516 159.2, 511.8 160.5 C 507.6 161.9, 503.6 163, 503.1 163 C 502.5 163, 497.3 165.3, 491.6 168 C 485.9 170.8, 480.5 173, 479.7 173 C 478.4 173, 460.7 179.8, 452.5 183.4 C 450.9 184.1, 447.9 185.4, 446 186.1 C 437.3 189.6, 405 206.6, 390 215.7 C 371.5 226.8, 369.4 228.2, 345.5 245.8 C 336.2 252.7, 325.1 260.8, 321 263.8 C 303.3 276.6, 255.5 327.9, 241 349.5 C 220.1 380.8, 189.5 446.1, 193.9 450.2 C 195 451.2, 195.1 451.2, 194.6 450.3 C 194.1 449.3, 194.9 449, 197.6 449 C 200.5 449, 201 449.3, 200.1 450.3 C 199.3 451.3, 199.4 452.1, 200.4 453.5 C 201.7 455.3, 201.8 455.3, 203.5 453.7 C 204.9 452.3, 205 451.7, 204 450.5 C 203.1 449.4, 203.1 449, 203.9 449 C 204.5 449, 205.3 449.7, 205.6 450.5 C 206.3 452.2, 209 452.6, 209 451 C 209 450.5, 209.5 450, 210 450 C 210.6 450, 210.6 450.7, 209.9 451.9 C 209.2 453, 208 453.5, 206.8 453.2 C 204.4 452.6, 204.5 454.2, 207 455.8 C 209.3 457.2, 209.7 461, 207.5 461 C 206.7 461, 206 461.7, 206 462.5 C 206 463.3, 205.4 464, 204.7 464 C 203.5 464, 200.6 469.9, 201.4 470.8 C 203.4 472.7, 208.1 465.5, 212.4 454 C 212.7 453.2, 212.7 454.5, 212.4 457 C 212 459.5, 211.2 463, 210.4 464.8 C 208.7 468.9, 209.4 470.7, 213.1 471.5 C 214.7 471.9, 215.8 472.5, 215.5 473 C 215.2 473.5, 215.6 474.1, 216.2 474.3 C 217.2 474.7, 217.2 475.1, 216.1 475.8 C 214.9 476.6, 214.9 477.2, 215.8 478.3 C 217.2 479.9, 216.4 481, 213.8 481 C 212.8 481, 212 481.7, 212 482.5 C 212 483.3, 211.4 483.7, 210.6 483.4 C 209.8 483.1, 208.9 483.3, 208.5 483.9 C 208.2 484.5, 208.6 485, 209.5 485 C 210.4 485, 210.8 485.5, 210.5 486 C 210.2 486.6, 208.3 487, 206.4 487 C 204 487, 203 487.5, 203 488.5 C 203 490.6, 200.8 490.4, 198.2 487.9 C 195.7 485.7, 194 486.1, 194 489.1 C 194 491.1, 192.5 491.7, 191.5 490 C 190.5 488.4, 188 488.8, 188.6 490.5 C 189 491.5, 188.8 491.8, 187.9 491.5 C 186.9 491.2, 186.5 491.8, 186.4 493.6 C 186.2 495.8, 186.4 496, 187.9 494.7 C 190.6 492.4, 193.9 492.7, 193.2 495.2 C 192.8 497, 193 497.2, 194.8 496.8 C 196.5 496.3, 197 496.6, 197 498.1 C 197 499.1, 197.5 500, 198.1 500 C 198.7 500, 198.9 499.2, 198.5 498.1 C 198.2 497, 198.3 495.9, 198.9 495.6 C 200 494.9, 201.3 497.8, 200.4 499.1 C 200.1 499.6, 201.7 500, 203.9 500 C 207 500, 208 500.4, 208.5 502 C 208.8 503.1, 209.6 504, 210.1 504 C 211.9 504, 211 507.2, 209 507.7 C 206.6 508.3, 206.7 507.9, 208.1 513.6 C 209.2 518, 209.3 518, 211.2 516.3 C 214.5 513.4, 215.3 511.1, 213 511.7 C 211.9 512, 211 512.6, 211 513.1 C 211 513.6, 210.6 514, 210 514 C 208.5 514, 208.8 512.8, 211.2 510 C 212.6 508.4, 213.4 507.9, 213.7 508.8 C 214.4 510.5, 216 510.3, 216 508.4 C 216 507.5, 215.1 506.6, 214.1 506.3 C 213 506, 211.4 504, 210.5 501.7 C 209.6 499.4, 208.3 497.1, 207.7 496.7 C 206.9 496.1, 207.2 496, 208.3 496.4 C 209.3 496.7, 211.3 497, 212.6 497 C 214.5 497, 215 497.5, 215 499.5 C 215 500.9, 214.6 502, 214 502 C 212.1 502, 213 503.8, 215.3 504.3 C 216.5 504.6, 219.2 505.3, 221.3 505.8 C 223.5 506.4, 225.2 506.4, 225.6 505.9 C 225.9 505.4, 224.9 505, 223.5 505 C 221.5 505, 220.9 504.6, 221.3 503.6 C 221.7 502.6, 221.1 502, 219.8 501.8 C 216.6 501.3, 216.5 499.2, 219.5 497.8 C 221.9 496.7, 222.1 496.2, 221.5 493.1 C 220.6 488.5, 220.5 488.4, 216.8 489.8 C 214.3 490.7, 213.4 490.7, 212.8 489.7 C 211.2 487.3, 211.9 485.9, 214.4 486.6 C 217.4 487.3, 222 483.8, 219.9 482.4 C 219 481.9, 219.1 481.5, 220.6 480.9 C 224 479.6, 225 479.9, 225 482.5 C 225 484.1, 225.6 485, 226.5 485 C 227.3 485, 228 485.4, 228 486 C 228 486.5, 227.3 486.7, 226.5 486.4 C 222.5 484.8, 220.8 489.8, 224.2 493 C 226.4 495.1, 226.4 495.2, 224.7 498.2 C 222.6 501.9, 223.4 503.4, 225.9 500.3 C 226.9 499.1, 229.3 497.8, 231.3 497.5 C 234.6 496.9, 234.8 497, 234.3 499 C 233.9 500.6, 233.5 500.8, 232.9 499.8 C 232.4 499.1, 232 499, 232 499.6 C 232 501.2, 235.5 504.1, 236.4 503.3 C 236.8 502.9, 237.5 503.2, 238 504 C 238.9 505.5, 246 501, 246 498.9 C 246 497, 251.2 486.8, 255.3 480.7 C 272.3 455.1, 311.5 419.1, 332.4 409.9 C 333.6 409.4, 340.8 405.7, 348.5 401.7 C 361.7 394.9, 362.5 394.3, 362.8 391.3 C 363.1 388.5, 362.9 388.2, 360.8 388.6 L 358.5 389.1 360.8 387.4 C 362 386.5, 363 385.1, 363 384.3 C 363 383.4, 364.6 380.6, 366.5 378 C 368.6 375.1, 370.4 371.2, 371 368.1 C 372.9 358.1, 377.5 344.8, 380.9 339.5 C 382.3 337.3, 384.4 333.8, 385.5 331.7 C 386.6 329.6, 389.7 325.8, 392.3 323.3 L 397.1 318.8 392.8 319.5 C 390.4 319.9, 388.1 320.6, 387.5 321 C 387 321.4, 384.9 322.1, 383 322.5 C 381.1 322.9, 379.1 323.5, 378.5 323.8 C 376.5 325.1, 361.6 330, 361.2 329.6 C 360.3 328.6, 362.2 327.1, 365.2 326.5 C 367 326.1, 369.1 325.4, 370 324.9 C 372.7 323.4, 392.9 317, 394.8 317 C 397.1 317, 398.5 315.4, 399.3 312 C 402.1 300.1, 404.5 295.5, 411.7 288.2 C 415.6 284.2, 420 278.9, 421.5 276.4 C 422.9 274, 424.5 272.2, 424.9 272.4 C 425.3 272.7, 427.3 272.1, 429.2 271 C 433.9 268.5, 439.1 267.6, 444.5 268.4 C 451.6 269.5, 449.8 270.8, 440.7 271.1 C 432.2 271.5, 424 275, 424 278.2 C 424 278.9, 424.7 278.7, 425.8 277.8 C 431.5 272.7, 441.7 271.6, 447.4 275.5 C 452 278.6, 452 278.6, 452 275.2 C 452 271.7, 452.9 270.9, 464.6 263.8 C 472.4 258.9, 476.8 256.7, 485.5 253 C 492.9 249.9, 504.5 244, 510.1 240.4 C 513.7 238.1, 517.8 235.9, 519.1 235.5 C 522.3 234.6, 503 247.3, 496.5 250.4 C 493.8 251.7, 486.6 255.2, 480.5 258 C 474.5 260.9, 465.8 265.7, 461.3 268.6 C 452.8 274.2, 452.3 275.1, 455.7 279.9 C 455.8 280.1, 457.6 278.8, 459.6 277.1 C 461.6 275.3, 473.4 268.8, 485.9 262.6 C 498.3 256.3, 510.1 250.4, 512 249.5 C 518.8 246, 537.7 231.2, 541.5 226.4 C 543.7 223.7, 548 218.6, 551 215 C 554.1 211.4, 559.2 205.2, 562.4 201.2 C 568.7 193.2, 571.3 192, 565.8 199.5 C 554.1 215.7, 534.7 236.6, 526 242.5 C 523.5 244.1, 521.3 245.7, 521 246.1 C 519.9 247.3, 504.9 255.8, 497.5 259.4 C 467.8 273.6, 458.5 279.2, 457.4 283.6 C 456.6 286.7, 457.5 287.7, 459.3 285.9 C 460 285.1, 462.4 283.6, 464.6 282.5 C 466.7 281.4, 468.7 280.3, 469 280 C 469.3 279.7, 471.1 278.8, 473 277.9 C 480.1 274.5, 500.7 264.2, 506.5 261 C 509.8 259.2, 515.4 256.1, 519 254.2 C 539.8 243, 569.6 211.7, 583.5 186.5 L 585.2 183.5 584.5 186.5 C 583.1 192.6, 570.6 211, 560.2 222.2 C 557 225.7, 552.6 230.5, 550.4 232.9 C 540 244.7, 524.7 254.3, 485 274.2 C 473.7 279.8, 464.3 284.7, 464 285 C 463.7 285.3, 461.8 286.7, 459.7 287.9 C 456.1 290.1, 454 293.3, 454 296.4 C 454 298.1, 463 294.9, 469 291 C 473.9 287.9, 484.5 281.9, 491 278.5 C 501.5 273.2, 509.3 268.9, 510.5 268 C 511.1 267.6, 514.2 265.8, 517.5 264 C 520.8 262.2, 526.4 259.1, 530 257.2 C 540.8 251.4, 554.6 241.4, 557.2 237.6 C 557.6 237, 558.2 236.8, 558.5 237.2 C 560.2 238.9, 543.7 251.9, 532 258.1 C 529.5 259.4, 527.4 260.8, 527.2 261.3 C 527 261.7, 526.4 262, 525.8 262 C 525.2 262, 521.1 264.2, 516.6 266.9 C 512.2 269.6, 503.1 274.6, 496.5 278.1 C 489.9 281.5, 481.8 285.8, 478.5 287.7 C 471.6 291.5, 457.3 298.6, 454.8 299.4 C 453.5 299.8, 448 308.8, 448 310.6 C 448 311.5, 452.9 310.9, 453.5 310 C 453.8 309.5, 454.8 309, 455.6 309 C 458.2 309, 488.9 294.2, 491 292 C 491.3 291.7, 498.8 287, 507.7 281.7 C 551.8 255.1, 578.9 236.1, 591.1 223.2 C 599.5 214.4, 601.5 213.3, 595.3 220.9 C 585.8 232.6, 578.6 238, 530 270.3 C 500.9 289.7, 466.8 308.1, 453.4 311.6 C 447 313.2, 446 314.1, 446 318.2 C 446 321, 441.3 330.7, 438.1 334.5 C 435.6 337.6, 432.7 343.1, 433.4 343.7 C 433.7 344, 433.3 344.8, 432.5 345.4 C 431.7 346, 430.7 348, 430.4 349.8 C 429.7 353.2, 431.1 354, 434.8 352.1 C 436.5 351.2, 446.8 347.9, 452.5 346.4 C 454.2 346, 455.7 345.6, 456 345.5 C 456.3 345.4, 457.8 345, 459.4 344.5 C 461 344.1, 463.5 343.1, 464.9 342.4 C 466.3 341.6, 468 341, 468.6 341 C 469.8 341, 485.7 332.8, 491.2 329.3 C 493.3 328.1, 495.2 327, 495.5 327 C 496.7 327, 515.3 316.2, 523.3 310.9 C 528.2 307.6, 532.6 305.3, 533.2 305.6 C 533.8 306, 534 305.9, 533.7 305.3 C 533.3 304.7, 533.8 303.6, 534.7 302.9 C 535.6 302.1, 536.4 301.7, 536.5 302 C 536.9 302.9, 544.1 296.3, 559.4 281.2 C 584.1 256.8, 605.6 232.4, 617.6 215.2 C 620.2 211.5, 625.6 204, 629.6 198.4 C 638.3 186.3, 656.3 157.4, 657.8 153 C 659.1 149.5, 658.2 146.4, 655.1 143.6 C 652.4 141.2, 646.5 141.8, 639 145.3 C 636 146.7, 624.7 151.5, 614 156 C 603.3 160.5, 593.1 164.8, 591.3 165.6 C 589.6 166.4, 588 167, 587.7 167 C 587.4 167, 581.6 169.6, 574.8 172.9 C 568 176.1, 559.1 180.2, 554.9 181.9 C 546.1 185.7, 524.7 198.6, 520.9 202.5 C 519.5 204, 516.8 208.2, 514.9 211.8 C 508.6 224.2, 498.9 232.5, 485.5 237 C 481.7 238.2, 472.4 242.4, 465 246.2 C 457.6 250, 449.7 253.5, 447.5 254 C 435.2 256.7, 430 258.6, 424 262.7 L 421.5 264.4 423.5 262.1 C 426.6 258.4, 432.3 255.2, 437.6 254.1 C 449.8 251.6, 451.9 251, 455.6 249.3 C 457.7 248.3, 459.7 247.3, 460 246.9 C 460.3 246.6, 462.3 245.5, 464.5 244.3 C 466.7 243.2, 470.5 241.2, 473 239.8 C 475.5 238.5, 480.4 236.3, 484 235 C 487.6 233.7, 492.1 231.6, 494 230.4 C 497.9 228, 507.9 218, 506.5 218 C 506.1 218, 506.6 217, 507.7 215.8 C 509.5 213.8, 513.9 206.7, 517.7 199.6 C 518.4 198.4, 522.1 194.1, 526 190 C 529.8 186, 533 182.1, 533 181.4 C 533 180.6, 533.6 180, 534.4 180 C 537.5 180, 536.8 181.9, 532.1 185.8 C 529.4 188.1, 525.8 191.7, 524 194 C 520.9 197.9, 520.5 199.4, 523.2 196.7 C 526.1 193.8, 542.9 183.1, 549 180.2 C 558.1 175.9, 569.1 171, 569.5 171 C 569.8 171, 573.9 169.1, 578.7 166.7 C 583.5 164.4, 589.8 161.6, 592.5 160.6 C 595.3 159.6, 600.7 157.3, 604.5 155.5 C 608.4 153.7, 613.1 151.7, 615 151 C 616.9 150.3, 621.3 148.4, 624.8 146.8 C 628.3 145.3, 631.3 144, 631.6 144 C 631.8 144, 634.8 142.6, 638.2 140.9 C 643.2 138.4, 645.8 137.7, 650.8 137.7 L 657 137.6 653.8 134.3 C 650.8 131.2, 647 129.9, 647 132 C 647 132.9, 639 137, 637.2 137 C 635.6 137, 630 140.1, 630 141 C 630 141.9, 622.9 144.3, 622.3 143.6 C 621.6 143, 625.1 140, 626.4 140 C 627.1 140, 628.7 139.1, 630 138 C 631.3 136.8, 634.3 135.4, 636.7 134.9 C 641.9 133.5, 643.8 131.6, 642 129.5 C 640.4 127.5, 636.8 127.8, 629.5 130.5 M 252.1 154.8 C 250.1 156.9, 247.7 159.8, 246.8 161.2 C 245.5 163.1, 243.9 163.9, 240.3 164.4 C 233.1 165.4, 230.2 166.9, 227.9 170.6 C 225.9 173.9, 225.6 174, 219.7 174 C 210 174, 200.3 180.7, 195.9 190.3 L 194.7 192.9 190.6 188.7 C 185.2 183.2, 178.7 180.2, 169.3 179 C 164.1 178.3, 160.2 177.1, 157.1 175.3 C 152.2 172.4, 147.9 172, 132.3 173 C 125.3 173.5, 125 173.4, 121.8 170.3 C 119.9 168.5, 117.9 167, 117.2 167 C 115.7 167, 115.6 169.2, 117 170.6 C 117.5 171.1, 118.5 174.3, 119.1 177.5 C 124.4 206.6, 142.7 222.8, 176.8 228.6 C 189.2 230.8, 191.9 232.3, 196.5 239.5 C 201.5 247.3, 203.3 247.3, 200 239.5 C 195.3 228.6, 190.6 225.6, 176 224.1 C 160.1 222.5, 149.4 217.7, 137.6 206.9 C 130.7 200.6, 128.1 196.2, 124.1 184.2 C 120.3 172.7, 120.3 172.2, 124.1 175.4 C 126.9 177.8, 127.6 177.9, 133.3 177.2 C 145.7 175.8, 151.1 176.3, 155.5 179.2 C 158.5 181.3, 161.9 182.3, 169.2 183.4 C 182.8 185.4, 192.2 192.7, 194.5 203 C 194.8 204.6, 195.8 206.4, 196.6 207.1 C 198 208.2, 198.1 207.6, 197.5 202.4 C 196 189.7, 206.5 178.1, 219.5 178 C 225.1 178, 230.4 175.4, 231.5 172.1 C 232.1 170, 235.3 168.5, 237 169.5 C 240.5 171.6, 247.4 167, 255.3 157.1 C 258 153.8, 258.1 154.6, 256.4 164.6 C 249.9 203.7, 246.5 208.9, 221.9 216.9 C 216.5 218.7, 215 219.6, 214.1 221.8 C 212.8 225.1, 211 235.5, 211.1 238.9 C 211.1 241.3, 211.2 241.3, 212.8 238 C 213.7 236.1, 215.1 234.1, 215.7 233.7 C 216.4 233.3, 217 231.6, 217 230 C 217 225.9, 219.4 223.8, 230.2 218.4 C 246 210.5, 251.2 204.8, 254.4 192.3 C 255.3 188.6, 256.7 183.2, 257.5 180.4 C 258.3 177.6, 259.2 173.1, 259.5 170.4 C 259.8 167.7, 260.6 162.9, 261.2 159.8 C 263 150.3, 258.6 148, 252.1 154.8 M 618.1 181.2 C 611.6 194, 608.8 198.9, 603.9 206.3 C 599.8 212.3, 599.7 213.9, 603.7 209.3 C 606.3 206.2, 617.1 188.3, 619.2 183.5 C 619.9 181.9, 620.7 180.3, 621.1 180 C 622 179.2, 624.3 171.9, 623.7 171.4 C 623.5 171.1, 620.9 175.5, 618.1 181.2 M 641 175 C 641 176.1, 636.9 182.3, 626.3 196.9 C 623.1 201.3, 617.5 209.1, 613.8 214.2 C 610.1 219.3, 605.9 224.8, 604.5 226.4 C 603.1 228, 602 229.6, 602 229.9 C 602 230.2, 600 232.6, 597.5 235.3 C 595.1 237.9, 593.4 240, 593.9 240 C 594.4 240, 596.9 237.5, 599.6 234.4 C 602.3 231.3, 605.7 227.4, 607.2 225.8 C 608.7 224.1, 613 218.2, 616.7 212.7 C 622.4 204.3, 629.2 195, 633.9 189.3 C 637.1 185.6, 642.8 175, 642 174.5 C 641.4 174.2, 641 174.4, 641 175 M 594.6 190.3 C 587.5 202, 576.8 216.1, 567.3 226.2 C 562.7 231, 559 235.3, 559 235.7 C 559 237.4, 575.6 219.9, 581.9 211.5 C 588.4 203, 600.6 183.2, 599.8 182.5 C 599.7 182.3, 597.3 185.9, 594.6 190.3 M 615.8 201.3 C 599.5 226.2, 591.4 235.6, 577 246.4 C 569.3 252.2, 564 257, 564 258.3 C 564 259.2, 568 256.6, 571.5 253.3 C 572.6 252.3, 576.2 249.3, 579.5 246.5 C 592.3 235.9, 603.8 222.8, 613 208.5 C 615.5 204.6, 618 200.9, 618.7 200.2 C 619.4 199.5, 620 198.4, 620 197.8 C 620 197.2, 620.7 195.9, 621.6 194.9 C 622.5 193.9, 623 192.7, 622.9 192.1 C 622.7 191.6, 619.5 195.7, 615.8 201.3 M 499.9 210.5 C 499.8 211.1, 499.8 211.8, 499.9 212.2 C 499.9 212.6, 498.7 212.7, 497.2 212.4 C 495.7 212.1, 491.6 212.4, 488 213 C 484.4 213.7, 480.4 214.2, 479 214.2 C 477.6 214.2, 477 214.4, 477.7 214.6 C 478.6 215, 478.4 216, 477 218.3 C 474.3 222.6, 475.8 224, 482.9 224 C 488.3 224, 496 221.4, 497.4 219.2 C 498.5 217.4, 494.5 215.9, 491.5 217 C 490.1 217.6, 486.5 218, 483.7 217.9 C 475 217.8, 481.9 215.8, 492.4 215.4 C 502.2 215, 504.4 214, 501.7 211.3 C 500.8 210.3, 499.9 210, 499.9 210.5 M 510.9 228.8 C 508.4 230.3, 504.1 233.1, 501.4 235.2 C 498.7 237.2, 490.2 241.8, 482.6 245.5 C 475 249.2, 465.9 253.8, 462.6 255.9 C 452 262.2, 449.9 262.9, 441.3 263.2 C 433.1 263.5, 426.6 266.6, 425.2 271 C 424.9 271.7, 426.6 270.8, 429 268.9 C 433 265.7, 433.7 265.5, 442.2 265.1 C 451.1 264.8, 451.5 264.7, 459.9 259.6 C 464.7 256.8, 470.1 253.8, 472 252.8 C 473.9 251.9, 480.3 248.9, 486.3 246.1 C 495.3 241.9, 516 228.2, 516 226.5 C 516 225.8, 515.9 225.8, 510.9 228.8 M 450.4 240.4 C 448.7 241.2, 444.6 242.1, 441.2 242.5 C 437.8 242.9, 434.7 243.6, 434.4 244.1 C 434.1 244.6, 433 245, 431.9 245 C 429.9 245, 420.9 248.7, 420 249.9 C 419.1 251.1, 409.9 256.3, 401.5 260.4 C 397.1 262.6, 390.4 266.4, 386.5 268.8 C 373.9 276.9, 365.5 282.4, 364.5 283.3 C 364 283.7, 359.9 286.7, 355.5 289.9 C 336.5 303.7, 331.5 312.4, 338.8 319.3 C 341.6 321.9, 349.8 326, 352.2 326 C 353 326, 354.1 326.5, 354.7 327.1 C 355.5 327.9, 356.3 327.9, 357.7 327.1 C 359.4 326.1, 359.3 326.1, 357.2 326 C 356 326, 354.2 325.6, 353.2 325.1 C 352.3 324.6, 349.5 323.2, 347 322 C 338.5 317.9, 335.1 312.4, 338.3 307.7 C 341.9 302.5, 351.2 294.3, 360 288.5 C 362.5 286.8, 364.7 285.3, 365 285 C 367.5 282.4, 391 267.9, 401 262.8 C 405.6 260.4, 412.9 256.4, 417.2 253.8 C 424.4 249.6, 435.8 245, 439.3 245 C 441.2 245, 450.7 242.2, 454.5 240.5 C 456.8 239.4, 457 239.1, 455.5 239.1 C 454.4 239.1, 452.1 239.7, 450.4 240.4 M 586.4 246.8 C 583.1 249.9, 571.9 260.9, 561.5 271.1 C 542.2 290, 533 297.6, 516 308.7 C 510.8 312.1, 506 315.3, 505.4 315.7 C 504.9 316.2, 502.8 317.3, 500.9 318.3 C 499 319.4, 496.4 320.8, 495 321.6 C 493.6 322.3, 490.3 323.9, 487.5 325 C 484.8 326.2, 481.6 327.5, 480.5 328 C 478.5 328.9, 471.7 331.8, 465 334.6 C 463.1 335.4, 460.8 336.5, 460 336.9 C 459.1 337.4, 457 338.1, 455.2 338.5 C 453.5 338.8, 451.8 339.6, 451.5 340.1 C 451.1 340.6, 449.8 341, 448.5 341 C 447.2 341, 445.9 341.4, 445.5 342 C 445.2 342.5, 444.4 342.7, 443.7 342.4 C 442.9 342.1, 441.3 342.4, 439.9 343 C 438 343.8, 438.8 343.9, 443.7 343.5 C 447.2 343.3, 450.8 342.6, 451.7 342.1 C 452.7 341.6, 455.8 340.4, 458.5 339.5 C 472.7 334.6, 504.6 319.1, 515 312.1 C 537.2 297.2, 543.7 291.8, 564.4 271.2 C 583 252.7, 594 241, 592.8 241 C 592.5 241, 589.7 243.6, 586.4 246.8 M 552.3 263.3 C 531 279.4, 497 304.3, 493.2 306.5 C 491.4 307.6, 490 308.8, 490 309.2 C 490 310.1, 496.4 306.2, 502.1 301.8 C 504.1 300.3, 506.1 299, 506.5 299 C 506.8 299, 510.6 296.4, 514.8 293.2 C 519 290.1, 525 285.8, 528 283.8 C 532.7 280.6, 554.6 263.6, 557.5 260.9 C 559.8 258.7, 556.1 260.4, 552.3 263.3 M 553.5 270.7 C 551.9 272.1, 548.4 275.1, 545.9 277.4 C 528 293.4, 512.1 304.9, 499 311.4 C 484.7 318.4, 477.7 323.3, 490.1 317.5 C 510.7 308, 533.9 292, 549 277 C 557.2 268.9, 559.8 265.2, 553.5 270.7 M 433.9 276.9 C 430.9 277.9, 426.6 280.6, 423 283.7 C 421.6 284.9, 419.2 287, 417.5 288.4 C 415.5 290.1, 414.5 292, 414.4 294 C 414.3 296.1, 412.8 298.6, 409.6 302 C 404.3 307.6, 403 310.5, 403 316 C 403 319.6, 402.5 320.3, 397.5 324.1 C 391.2 328.9, 381.5 344.4, 379 353.7 C 378.5 355.8, 376.9 361.7, 375.6 366.8 C 374.3 371.9, 372.3 377.3, 371.3 378.7 C 365.5 386.9, 364.3 390, 368.3 386.2 C 370.5 384.1, 373.6 383.1, 372.8 384.8 C 372.6 385.2, 371.6 387.2, 370.7 389.3 C 369.7 391.3, 368.6 393, 368.2 393 C 367.8 393, 366.9 394.5, 366.1 396.3 C 365.3 398, 363.4 401.4, 361.8 403.7 C 359.1 407.7, 358.1 412, 359.9 412 C 369.1 412, 392.8 393.9, 406.2 376.7 C 409.7 372.3, 415.3 365.4, 418.7 361.4 C 422.1 357.4, 425.2 353, 425.5 351.6 C 425.8 350.2, 426.2 347.9, 426.5 346.6 C 426.8 345.2, 428.2 342.8, 429.6 341.1 C 432.7 337.4, 438.3 326.1, 441 318.1 C 442.1 314.8, 444.3 309.3, 445.9 305.8 C 452.5 291.6, 453.9 280.4, 449.2 278.2 C 445.8 276.5, 437.3 275.8, 433.9 276.9 M 443 291.2 C 443 296.9, 441.2 302.5, 436.8 310.8 C 435.2 313.8, 433.3 318.9, 432.5 322.2 C 431.2 328, 430 330.1, 425.3 334.6 C 422.5 337.4, 419 343.9, 419 346.3 C 419 348.9, 416.2 353.9, 412.5 358.1 C 410.7 360.1, 406.7 365.5, 403.7 370.1 C 400.6 374.7, 393.9 383, 388.6 388.5 C 379.4 398.2, 376.8 401.6, 381 398.7 C 387.7 394, 398.5 382.3, 406.1 371.4 C 409.5 366.5, 413.5 361, 415.1 359.2 C 418.9 354.9, 420.6 351.4, 421.5 346 C 422.1 342.6, 423.4 340.2, 427.3 336 C 432.4 330.4, 435.2 325.1, 436.4 318.8 C 436.7 316.8, 438.1 313.2, 439.4 310.7 C 444.4 301.4, 447.5 286, 444.5 286 C 443.4 286, 443 287.2, 443 291.2 M 529 309 C 524.5 312.6, 523.3 313.5, 516.3 317.8 C 497.5 329.7, 478.8 339.2, 466.2 343.5 C 460.3 345.5, 454.8 347.5, 454 347.9 C 453.1 348.4, 450.9 349.1, 449 349.4 C 447.1 349.8, 444.6 350.5, 443.5 351 C 442.4 351.5, 438.8 352.7, 435.5 353.6 C 430.1 355.2, 419 363.3, 420.4 364.7 C 420.9 365.3, 446.1 356.5, 459.5 351 C 487.5 339.5, 511.1 326, 527.3 312 C 532.9 307.2, 534.2 304.9, 529 309 M 517.5 340 C 517 348, 516.6 359.5, 516.8 365.5 C 517 374.9, 516.7 377, 515 380 C 513.9 381.9, 512.8 384.3, 512.4 385.3 C 512.1 386.2, 511.4 387, 510.9 387 C 509.7 387, 509.7 387, 512.4 381.4 C 514.6 376.8, 514.8 375, 515.3 352.3 C 515.7 335.6, 515.5 328, 514.8 328 C 513.6 328, 504.2 333.5, 496 339.1 C 493 341.1, 487.4 344.3, 483.7 346.1 C 480 347.8, 476.5 350, 476.1 350.9 C 474.3 354.2, 473.9 369.3, 475.4 376 C 476.2 379.6, 476.5 382.9, 476 383.3 C 475.6 383.8, 476.1 385.8, 477.2 387.8 C 478.9 391.1, 479 392.8, 478.4 402.5 C 477.8 413.9, 477.1 416.2, 473.8 419.4 C 472.2 420.8, 471.9 422.1, 472.4 424.8 C 472.7 426.8, 472.5 432.9, 471.9 438.3 C 471.4 443.8, 471.2 448.5, 471.5 448.8 C 472.9 450.2, 483.9 443.2, 489.7 437.3 C 495.4 431.6, 500 424.2, 500 420.7 C 500 420, 500.7 418.5, 501.5 417.4 C 502.9 415.5, 502.9 415.5, 503 417.5 C 503.1 420, 505.4 415, 506.5 409.9 C 506.9 408, 508.3 404.3, 509.7 401.5 C 511 398.8, 512.5 394.5, 513.1 392.1 C 513.6 389.7, 515 385.9, 516.2 383.6 C 518.2 379.8, 518.4 377.7, 518.8 357.5 C 519.3 328.8, 518.7 321.6, 517.5 340 M 349.3 337.6 C 339.2 344.5, 327.3 353.3, 318.5 360.4 C 309.9 367.5, 281.7 396.2, 275.8 404 C 269.8 412, 260.4 426.7, 255 436.5 C 253.2 439.8, 250.1 445.4, 248.2 449 C 242.8 458.8, 236.2 472.4, 236.6 472.9 C 237.5 473.8, 239.1 471, 247.8 454 C 266 418.1, 275.6 404.6, 300.1 380.1 C 316.1 364.1, 331.5 351.5, 351.1 338.4 C 357.2 334.4, 361.1 331, 359.7 331 C 359.4 331, 354.7 334, 349.3 337.6 M 343 367.1 C 340.5 368.7, 337.7 370.7, 336.8 371.5 C 335.8 372.3, 335 372.7, 335 372.5 C 335 372.2, 334.4 372.4, 333.8 373 C 333.1 373.5, 329.4 376.2, 325.5 379 C 321.7 381.7, 318.1 384.3, 317.5 384.7 C 317 385.2, 313.6 387.8, 310 390.7 C 301.2 397.7, 285.6 413.8, 278.2 423.5 C 270.7 433.5, 267.2 438.5, 267.6 439 C 267.9 439.2, 268.5 438.8, 269 438 C 272.9 431.5, 287.3 414.6, 298 404 C 307.8 394.2, 324.6 380, 326.4 380 C 327 380, 341.5 369.7, 346 366.1 C 349.7 363.1, 348.1 363.6, 343 367.1 M 345.5 380.6 C 341.1 383, 336.5 385.5, 335.3 386.2 C 334 386.8, 333 387.7, 333 388.2 C 333 388.6, 332.4 389, 331.7 389 C 331 389, 325.6 392.3, 319.9 396.4 C 303.8 407.8, 289.2 422.9, 277.2 440.6 C 274.9 444, 272.5 447.4, 271.8 448.1 C 269.8 450.2, 261.6 463.1, 260.2 466.3 C 257.3 473.2, 260.2 469.8, 267 458.5 C 272.9 448.6, 279 439.7, 280.2 439.2 C 280.7 439, 281 438.4, 281 437.8 C 281 437.3, 281.6 436.3, 282.3 435.6 C 282.9 434.9, 285.5 431.9, 288 428.9 C 296.6 418.6, 313.5 402.4, 321.3 397.2 C 330.8 390.7, 343.2 383.4, 345.9 382.5 C 347.1 382.2, 348 381.4, 348 380.9 C 348 380.4, 348.6 380, 349.3 380 C 349.9 380, 351.9 379.1, 353.5 378 C 359.1 374.3, 353.5 376.1, 345.5 380.6 M 344.1 394.9 C 339.5 397.1, 335.3 399.3, 334.7 399.9 C 334.1 400.5, 333.2 401, 332.7 401 C 328.9 401, 306.6 417.1, 298.7 425.5 C 281.8 443.3, 280.4 445.6, 294.5 432 C 307.7 419.3, 312.4 415.3, 320.8 409.8 C 324 407.8, 327 405.7, 327.5 405.3 C 328.1 404.9, 330.3 403.6, 332.5 402.5 C 334.7 401.5, 339.5 398.9, 343.1 396.9 C 346.7 394.9, 351 392.8, 352.6 392.2 C 354.2 391.6, 354.8 391.1, 354 391.1 C 353.2 391.1, 348.7 392.8, 344.1 394.9 M 163.7 406.7 C 163.4 407, 163.7 408.2, 164.5 409.4 C 165.5 410.8, 165.6 412, 165 413 C 164.2 414.2, 164 414, 164 412.1 C 164 410.2, 163.7 410, 162.6 411 C 161.8 411.6, 161.4 412.8, 161.7 413.6 C 162.1 414.7, 161.3 415, 158.5 415 C 154.8 415, 154.8 415.1, 155.4 418.1 C 155.7 419.8, 156 421.8, 156 422.4 C 156 423.1, 157.6 425.5, 159.6 427.9 C 162 430.7, 163 432.7, 162.7 434 C 162.4 435.1, 162.6 436.3, 163.1 436.6 C 163.6 436.9, 164 436.1, 164 434.8 C 164 433, 164.2 432.8, 165 434 C 166.1 435.7, 166.3 440.3, 165.4 441.3 C 165 441.7, 163.9 441, 162.9 439.8 C 160.6 437.2, 160.4 438.7, 162.6 441.8 C 163.5 443.1, 163.9 444.8, 163.6 445.6 C 163.3 446.5, 163.5 446.8, 164 446.5 C 164.6 446.2, 165 445.2, 165 444.4 C 165 443.6, 165.4 443, 166 443 C 167.6 443, 169.2 439, 168.6 436.5 C 168.3 435.2, 165.8 432, 163.1 429.3 C 159.2 425.4, 158.1 423.7, 157.7 420.3 L 157.2 416 160.9 416 C 165.4 416, 167 414.6, 167 410.4 C 167 407.5, 165 405.3, 163.7 406.7 M 74.9 439.9 C 77.2 441.4, 74.5 444.7, 70.3 445.5 C 63.2 446.7, 58.6 451.9, 61 455.8 C 61.7 457.2, 61.9 456.9, 62 454.4 C 62 452.7, 62.6 450.7, 63.4 450.1 C 64.5 449.2, 64.8 449.5, 64.7 451.7 C 64.7 453.3, 65 455.2, 65.4 456.2 C 65.9 457.3, 65.6 458, 64.3 458.3 C 63.1 458.6, 63 458.8, 64 458.9 C 67.1 459.1, 68.5 457.3, 66.7 455.5 C 65.4 454.3, 65.3 453.4, 66 451.9 C 67.1 449.9, 71.8 446.4, 72.5 447.2 C 73.4 448.1, 71.7 451.8, 70.6 451.4 C 68.8 450.7, 69.3 455.9, 71.5 460.5 C 72.5 462.7, 73.7 466.3, 74 468.5 L 74.8 472.5 74.9 469 C 74.9 467.1, 74.6 464.1, 74.1 462.4 C 72.8 457.9, 73.9 449.5, 76.1 447.1 C 77.2 446, 78 444.4, 78 443.6 C 78 442.8, 78.5 441.8, 79.1 441.4 C 80.5 440.5, 78.3 439, 75.5 439 C 74 439, 73.8 439.2, 74.9 439.9 M 94.2 447.4 C 95.2 448.1, 95.7 449, 95.3 449.3 C 95 449.7, 95.2 450, 95.8 450 C 96.5 450, 97 451, 97 452.3 C 97 454.1, 97.2 454.2, 98 453 C 98.5 452.2, 99 452, 99 452.6 C 99 455.7, 93.9 457, 90.8 454.6 C 88.4 452.9, 88.5 451.3, 91 450.5 C 93 449.9, 93.5 448.9, 92.4 447.7 C 91.3 446.6, 86.3 450.1, 85.1 452.7 C 83.7 455.7, 83.7 459, 85 459 C 85.6 459, 86 457.9, 86 456.5 C 86 453.5, 87.3 453.3, 90 456 C 93.8 459.8, 101 457.4, 101 452.2 C 101 450.3, 96.4 446, 94.3 446 C 92.6 446.1, 92.6 446.1, 94.2 447.4 M 101.7 456.2 C 99.8 459.5, 100.1 461, 102.3 459.1 C 104 457.8, 107 458.6, 107 460.4 C 107 462.8, 104.8 463.7, 100.4 463.2 C 97.9 463, 96 463.1, 96.2 463.6 C 96.3 464.1, 95.6 466, 94.6 467.9 C 92.9 471.1, 92.8 474.1, 94.5 478.5 C 95 480.1, 94.8 480, 93.1 478 C 91.3 475.8, 90.7 470.5, 91.9 466.3 C 92 466.1, 92.7 466, 93.5 466 C 94.3 466, 95 465.6, 95 465 C 95 464.5, 94.4 464, 93.8 464 C 90.2 464.1, 86.2 471.6, 87.9 474.9 C 88.9 476.7, 88.8 476.9, 87.3 476.3 C 86 475.8, 86.1 476.3, 88 478.3 C 89.4 479.8, 91.3 481, 92.2 481 C 93.1 481, 94.2 481.5, 94.5 482 C 94.8 482.6, 97.3 483, 99.9 483 C 103.6 483, 104.9 483.4, 105.4 484.8 C 106.4 487.6, 111 493.4, 111 491.8 C 111 491, 109.7 488.4, 108.2 485.9 C 106.5 483.2, 105.3 480.1, 105.3 478 C 105.3 476.1, 105 473.4, 104.6 472.1 C 104.1 470.8, 104.2 469.4, 104.9 468.7 C 105.5 468.1, 106 466.8, 106 465.8 C 106 464.8, 106.5 464, 107.1 464 C 107.7 464, 108 464.6, 107.7 465.4 C 107.1 466.8, 109.6 468, 113.2 468 C 115.8 468, 118.5 458.9, 116.6 456.3 C 115.5 454.6, 106.4 454.6, 105.4 456.2 C 104.8 457.1, 104.4 456.8, 104 455.3 C 103.5 453.1, 103.4 453.2, 101.7 456.2 M 179 460 C 179 460.6, 179.5 461, 180.1 461 C 180.6 461, 180.8 461.5, 180.5 462 C 180.2 462.6, 178.8 463, 177.5 463 C 175.8 463, 175.2 463.4, 175.6 464.4 C 176.4 466.5, 180 467.1, 182.9 465.6 C 186.2 464, 190.3 465.7, 189 468.1 C 187.5 470.6, 189.5 472.7, 191.5 470.7 C 192.4 469.7, 193.6 469, 194.1 469 C 195.8 469, 195 470.9, 192.9 472 C 191.3 472.9, 191.1 473.4, 192.1 474.6 C 193 475.7, 192.9 476, 191.7 476 C 190.8 476, 189.7 475.3, 189.2 474.4 C 188.5 473.1, 188.1 473, 187.5 474 C 187.1 474.7, 187.3 475.6, 188 476 C 188.8 476.5, 188.7 476.9, 187.4 477.4 C 185.3 478.2, 184.1 476.5, 184.8 473.6 C 185.3 471.8, 185.1 471.7, 183.7 472.8 C 181.6 474.6, 179.4 473.4, 181.1 471.4 C 182 470.3, 181.9 470, 180.6 470 C 179.7 470, 179 470.6, 179 471.3 C 178.9 472, 178.2 471.6, 177.2 470.4 C 176.2 469.3, 174.9 468.5, 174.2 468.8 C 173.6 469, 173 468.8, 173 468.3 C 173 467.8, 171.4 467.4, 169.5 467.4 C 164.4 467.4, 165.2 468.6, 171.5 470.5 C 175 471.5, 177 472.6, 177 473.5 C 177 474.3, 176.5 475, 175.9 475 C 175.4 475, 175.2 475.5, 175.5 476 C 175.8 476.6, 176.8 477, 177.6 477 C 178.4 477, 178.9 476.6, 178.6 476.1 C 178.2 475.6, 178.9 475.4, 180 475.7 C 182.8 476.4, 182 478.4, 178.8 478.8 C 177.1 479, 175.7 478.4, 174.8 477.2 C 173.7 475.6, 169 473.5, 169 474.6 C 169 474.8, 169.9 475.9, 171.1 477.1 C 172.4 478.4, 173 480, 172.8 481.5 C 172.3 483.7, 172.4 483.7, 175.9 482.3 C 180.2 480.4, 196.1 479.7, 193.8 481.4 C 191.6 483.1, 191.9 486.2, 194.2 485.4 C 195.4 485.1, 196.9 485.5, 198.1 486.6 C 200.5 488.8, 201.6 487.9, 199.8 485.1 C 198.7 483.3, 198.9 482.8, 200.8 481 C 202 479.9, 203 478.3, 203 477.5 C 203 476.7, 203.7 476, 204.6 476 C 205.5 476, 206.9 475.2, 207.6 474.3 C 208.7 472.8, 208.9 472.8, 209 474 C 209 474.8, 210.1 476.3, 211.4 477.2 C 213.6 478.8, 213.7 478.8, 213.7 476 C 213.7 472.5, 209 471.3, 205.2 473.7 C 202.1 475.6, 200 474.7, 200 471.5 C 200 469.9, 199.4 469, 198.5 469 C 197.7 469, 197 468.6, 197 468 C 197 467.5, 196.3 467, 195.5 467 C 194.7 467, 193.1 465.7, 191.9 464.1 C 189.8 461.2, 189.7 461.2, 186.4 462.8 C 184.5 463.6, 182.7 464, 182.3 463.5 C 181.8 463.1, 182.1 462.5, 182.8 462.3 C 183.8 461.9, 183.8 461.5, 182.9 460.4 C 181.6 458.8, 179 458.5, 179 460 M 57.7 486.9 C 57.3 488.8, 56.7 490, 56.3 489.7 C 56 489.3, 55.1 489.5, 54.4 490.1 C 53.6 490.7, 52.3 491, 51.5 490.6 C 50.6 490.3, 50.2 490.4, 50.5 491 C 50.8 491.6, 50.6 492, 49.9 492 C 48.9 492, 48.9 492.3, 49.7 493.1 C 50.5 493.9, 51.5 493.7, 53.4 492.5 C 55.7 491, 56.1 491, 58.2 492.4 C 60.8 494.2, 65 494.5, 65 492.9 C 65 492.3, 65.7 492, 66.5 492.3 C 67.3 492.7, 68.2 492.5, 68.5 492 C 68.9 491.4, 68.6 491, 68.1 491 C 67.5 491, 67 490.5, 67 490 C 67 489.4, 67.8 489, 68.8 489.2 C 69.9 489.4, 70.5 488.9, 70.5 487.6 C 70.5 485, 68.3 484.4, 67.5 486.9 C 67.2 487.9, 66.2 489.1, 65.4 489.4 C 64.6 489.7, 64.2 489.6, 64.5 489 C 64.8 488.4, 64.4 488, 63.6 488 C 62.7 488, 62 487.6, 62 487 C 62 486.5, 61.4 486.3, 60.6 486.6 C 59.7 486.9, 59 486.4, 58.8 485.3 C 58.5 484.1, 58.2 484.7, 57.7 486.9 M 87.5 491.1 C 87.1 492.3, 87.2 493.5, 87.7 493.9 C 89.4 495.1, 92.5 502.5, 92.7 506 C 92.8 507.9, 93.3 511.5, 93.7 514 C 94.3 517.1, 94.2 519.3, 93.3 521 C 92.6 522.4, 92 524.3, 92 525.3 C 92 526.6, 91.1 527, 88.2 527 C 83.4 527, 83 526.6, 84 522.9 C 85.2 518.7, 84.4 519.3, 82.1 524.4 C 79.9 529.1, 78.6 530, 73.9 530 C 71 530, 70.5 529.2, 70.8 524.5 C 70.9 523.2, 69.9 521.9, 68 520.8 C 64.2 518.6, 64 515.5, 67.6 514.6 C 69.1 514.2, 70.8 514.4, 71.3 514.9 C 73.8 517.4, 74.2 513.7, 72.4 505.7 C 71.8 503.1, 72 502.9, 74.1 503.2 C 76.1 503.4, 76.5 504.1, 76.5 506.7 C 76.5 508.4, 76.8 510.2, 77.3 510.6 C 78.4 511.7, 78.1 505.1, 77 502.9 C 76.4 501.9, 75.1 501, 74.1 501 C 71.8 501, 69.6 498.5, 70.6 496.9 C 71 496.2, 70.8 495.9, 69.9 496.2 C 68.1 496.8, 67.5 501.1, 69 502 C 69.7 502.4, 70.4 503.9, 70.5 505.3 C 70.7 506.7, 71.1 508.3, 71.4 508.9 C 71.8 509.5, 70.6 510.7, 68.8 511.6 C 67 512.5, 64.7 513.9, 63.8 514.8 C 62.2 516.2, 62 516.2, 62 514.7 C 62 511.4, 53.7 508.7, 52.6 511.6 C 52.3 512.4, 52.4 512.9, 52.9 512.6 C 55.4 511, 60.3 513.4, 61.7 516.7 C 62.5 518.6, 64 521.2, 65.2 522.4 C 69.1 526.6, 70.2 532, 67 532 C 65.9 532, 65 531.4, 65 530.8 C 65 527.9, 63.3 526.5, 61.6 527.9 C 60.1 529.1, 60.1 529.4, 61.6 530.5 C 63.5 531.8, 62.7 536.2, 60.7 535.8 C 60 535.6, 59.4 536, 59.3 536.5 C 58.7 538.6, 64.5 537.5, 65.4 535.4 C 66.2 533.7, 67.5 533.1, 71.9 532.7 C 75 532.4, 79 531.4, 80.9 530.4 C 83.9 528.9, 85.3 528.8, 94.1 529.9 C 99.5 530.6, 105.5 530.8, 107.4 530.5 C 109.3 530.1, 111.7 530.3, 112.9 530.9 C 114.1 531.6, 115 531.7, 115 531.2 C 115 530.7, 113.9 529.7, 112.6 529 C 111.2 528.3, 109.9 526.8, 109.7 525.6 C 109.3 523.6, 109.3 523.6, 109.1 525.8 C 109 527.6, 108.4 528, 106 528 C 103.2 528, 103 527.8, 103 524.3 C 103 520.2, 100.1 511, 98.8 511 C 97.6 511, 97.8 513.8, 99 514.2 C 99.6 514.4, 100.3 517.5, 100.7 521.3 C 101.2 527.4, 101.1 528, 99.4 528 C 95.3 528, 92.9 526.8, 93.6 525.1 C 96 519.2, 96.6 514.4, 95.4 511 C 94.8 509.1, 94.4 506.6, 94.7 505.5 C 94.9 504.4, 94 500.9, 92.5 497.7 C 91.1 494.5, 90 491.3, 90 490.5 C 90 488.3, 88.2 488.7, 87.5 491.1 M 287 492.9 C 287 493.5, 286 494, 284.7 494 C 283.4 494, 281.8 494.6, 281.2 495.2 C 280.2 496.2, 279.7 496.2, 279.1 495.1 C 278.1 493.6, 275.8 494.5, 276.1 496.3 C 276.6 499.3, 274.1 502.8, 271.1 503.2 C 268.9 503.5, 268 503.2, 268 502.3 C 268 500.7, 265.9 501.1, 260.3 503.7 C 257.1 505.2, 256.7 507.7, 259.8 506.5 C 260.6 506.2, 262.1 506.8, 263.2 508 C 265 510, 265 510, 262.9 509.7 C 261.7 509.6, 260.5 510, 260.3 510.6 C 259.8 512.1, 266 513, 268.3 511.8 C 269.6 511.1, 270 511.3, 270 512.6 C 270 514.2, 273.5 518, 275 518 C 278.6 518, 284.9 512.7, 285 509.8 C 285 507.5, 281.4 507.4, 280.6 509.6 C 280.3 510.5, 279.1 511, 277.8 510.8 C 274.9 510.4, 274.1 505.6, 276.4 503.1 C 277.3 502.1, 277.7 501, 277.4 500.7 C 276.6 499.9, 278.8 497, 280.2 497 C 280.8 497, 280.8 497.6, 280.1 498.4 C 279.2 499.5, 279.4 500.4, 281.3 502.6 C 284.5 506.3, 287.2 504.6, 286.6 499.3 C 286.4 497.3, 286.8 495.3, 287.6 494.5 C 288.5 493.6, 288.6 492.9, 288 492.5 C 287.5 492.2, 287 492.4, 287 492.9 M 26 495.1 C 26 496.5, 26.5 497, 27.4 496.7 C 29.9 495.7, 30.2 499, 27.7 500 C 21.8 502.5, 20.3 506.2, 23.8 510 C 26.7 513.1, 26.6 515.8, 23.5 517.2 C 20.6 518.5, 20.6 518.8, 22.5 521.3 C 23.2 522.4, 23.6 523.9, 23.3 524.8 C 22.8 525.9, 23.1 526.2, 24.3 525.7 C 25.2 525.4, 26 525.4, 26 525.8 C 26 526.2, 27.4 526.5, 29 526.6 C 30.7 526.7, 32 526.3, 32 525.9 C 32 525.4, 32.7 525, 33.5 525 C 34.3 525, 35.5 524.1, 36.2 523 C 37.7 520.6, 39.6 520.4, 41.6 522.5 C 42.5 523.3, 43.9 524, 44.8 524 C 46 524, 46.1 523.7, 45.3 522.9 C 44.2 521.8, 46.7 516.8, 49.2 515 C 49.9 514.4, 50.1 500, 49.4 500 C 47.7 500, 46 506.5, 46.9 509.3 C 48.1 512.9, 48.3 514.1, 47.5 513.8 C 47.2 513.6, 46 515, 44.9 516.8 C 42.7 520.2, 38.6 521.2, 36.2 518.8 C 35.3 517.9, 35 518.1, 35 519.8 C 35 521.1, 34.5 522, 33.8 521.8 C 33.1 521.7, 31.2 522.4, 29.7 523.5 C 27.3 525, 26.7 525.1, 25.9 523.9 C 24.6 521.8, 24.8 521, 26.9 521 C 27.9 521, 29.1 520.3, 29.4 519.4 C 29.7 518.6, 29.6 518.2, 29 518.5 C 28.4 518.8, 28 518.4, 28 517.4 C 28 516.3, 28.6 515.9, 30 516.3 C 32.4 516.9, 32.5 516.2, 30.3 513.8 C 29.2 512.6, 29 511.6, 29.6 511.2 C 30.1 510.8, 31.6 508.8, 32.8 506.8 C 34.9 503.1, 34.9 503, 33 503 C 30.9 503, 29 505.8, 29 508.9 C 29 511.3, 28.6 511.4, 25.9 510 C 22.3 508, 25.7 499.9, 29.6 501.4 C 31.7 502.2, 32.4 499.6, 30.9 496.8 C 28.8 492.7, 26 491.8, 26 495.1 M 288.8 504.3 C 286.6 506, 286.5 508.6, 288.5 509.4 C 289.5 509.8, 290 509.3, 290 507.9 C 290 505.7, 295.2 503, 295.8 504.9 C 296 505.5, 296.8 506, 297.5 506 C 298.2 506, 299 507, 299.3 508.2 C 300 510.7, 299.3 512, 298.2 510.4 C 297.3 508.9, 291.8 509.2, 291.2 510.8 C 291 511.4, 291.6 512, 292.6 512 C 293.6 512, 295.6 513.5, 297.1 515.3 C 299.6 518.3, 300 518.4, 302.8 517.4 C 306.2 516.1, 307 516.4, 307 519 C 307 521.1, 310.6 524.5, 311.4 523.2 C 311.7 522.6, 311.4 522, 310.6 521.7 C 309.9 521.4, 309.3 520, 309.3 518.5 C 309.3 515.3, 306.3 512.9, 303.3 513.7 C 301.7 514, 301 513.8, 301 512.8 C 301 511.1, 304.4 507.7, 305.3 508.6 C 306.1 509.4, 310 508.1, 310 506.9 C 310 505.5, 304.7 506.2, 302.7 507.8 C 300.5 509.8, 299.4 508.7, 301.5 506.6 C 302.4 505.7, 303 505, 302.8 504.9 C 302.6 504.9, 301.4 504.7, 300 504.4 C 298.6 504.2, 295.9 503.8, 294 503.5 C 291.8 503.2, 289.9 503.5, 288.8 504.3 M 176.7 506.3 C 176.1 508, 176.9 515.8, 178 519 C 178.5 520.4, 179.2 523.4, 179.5 525.7 C 179.9 528.1, 180.5 530.2, 181 530.5 C 181.4 530.8, 182.1 533.3, 182.5 536 C 182.9 538.7, 183.5 541.2, 184 541.5 C 184.4 541.8, 185.1 544, 185.4 546.5 C 185.8 548.9, 186.5 551.2, 187.1 551.5 C 187.6 551.9, 188 552.9, 188 553.9 C 188 555.8, 194.9 569.6, 200.8 579.5 C 209.4 594.1, 224.2 609.2, 241 620.4 C 247.3 624.7, 246.1 623.5, 228.8 608.8 C 221.9 602.9, 214.9 596.4, 213.3 594.3 C 211.8 592.2, 209.9 589.9, 209.2 589.1 C 204.4 584.1, 192.1 561.1, 189 551.4 C 187.8 547.6, 186.5 543.8, 186.2 543 C 185.9 542.2, 185.1 539.3, 184.4 536.5 C 183.8 533.8, 182.5 529, 181.6 526 C 179.3 518.8, 177.8 509.1, 178.6 506.8 C 179.2 504.8, 177.5 504.3, 176.7 506.3 M 136.7 508.2 C 136.3 509.7, 136.4 512.9, 137 515.2 C 137.8 519, 137.7 519.7, 136 520.9 C 133.4 522.6, 133.5 523.2, 136.5 526.8 C 138.8 529.5, 138.9 530, 137.5 531.3 C 136.5 532.4, 136.2 533.8, 136.6 535.9 C 137.4 539.9, 134.2 540.2, 130.8 536.6 C 128.9 534.6, 128.3 534.4, 127.3 535.5 C 125.7 537.3, 128.7 539.9, 133.1 540.6 C 136.1 541.1, 136.7 540.7, 138.8 537.6 C 141.1 533.9, 143 532.9, 143 535.4 C 143 536.2, 143.3 537.5, 143.6 538.3 C 144 539.5, 143.6 539.7, 141.8 539.3 C 139.7 538.8, 139.6 538.9, 141.1 540.4 C 142.6 542, 143 542, 146.1 540.6 C 148 539.8, 148.9 539.1, 148.2 539.1 C 147.3 539, 147.1 538.3, 147.5 537 C 147.8 535.9, 147.7 535, 147.2 535 C 146.7 535, 146 533.9, 145.8 532.6 C 145.3 530, 146.4 529, 150.8 528.3 C 153.3 527.9, 153.9 529.7, 151.5 530.6 C 149.9 531.2, 149.4 533, 150.8 533 C 153.7 533, 155.3 530.2, 154.1 527.2 L 152.8 524.2 149.2 526.6 C 146.5 528.5, 145.5 528.8, 144.8 527.8 C 143.4 525.4, 144 524, 146.5 524 C 148.6 524, 149 523.5, 149 521 C 149 517.6, 147 517.7, 145.5 521.3 C 144.9 522.5, 143.8 523.5, 143 523.5 C 141.3 523.5, 140.9 527.1, 142.4 528.2 C 143.7 529.1, 144.2 533, 143 533 C 142.5 533, 140.9 531, 139.4 528.5 C 138 526, 136.3 524, 135.7 524 C 133.4 524, 136.2 522.7, 139 522.5 C 142.7 522.2, 142.6 522.3, 143.3 518 C 143.9 514.6, 143.9 514.6, 142.6 517 C 141.8 518.4, 141.4 519.8, 141.6 520.2 C 141.9 520.7, 141.7 521, 141.2 521 C 140.4 521, 139 515.4, 137.7 507.5 C 137.5 505.9, 137.3 506, 136.7 508.2 M 197.6 516.5 C 197.9 519.3, 198.6 522.9, 199 524.5 C 199.5 526.2, 200.2 530.1, 200.6 533.3 C 200.9 536.4, 201.6 539.3, 202.1 539.6 C 202.6 539.9, 203 541.1, 203 542.4 C 203 555.6, 225.9 594.1, 237.3 600.2 C 239.2 601.2, 235.7 596.7, 230.2 591.1 C 225.8 586.6, 212.9 566.5, 211.5 561.9 C 211.1 560.6, 210.4 559.1, 210 558.5 C 209.6 558, 208.3 554.1, 207.1 550 C 205.8 545.9, 204.5 541.4, 204 540 C 203.2 537.7, 202 531.4, 200.1 518.7 C 199 511.9, 196.8 509.9, 197.6 516.5 M 219.6 514.5 C 219.1 516, 220 516.4, 223 516.1 C 224.2 516, 224.1 516.3, 222.7 517.4 C 221 518.7, 221 518.8, 222.7 519.4 C 224.1 520, 224.2 520.3, 223.1 520.9 C 222.4 521.4, 222.1 522.3, 222.4 522.9 C 222.8 523.5, 222.4 524, 221.6 524 C 218.5 524, 221 529.8, 224.1 530 C 225.4 530, 226 526.7, 224.9 525.4 C 224.2 524.5, 224.2 523.5, 225.1 521.8 C 225.8 520.5, 226.3 519.2, 226.2 518.8 C 226.1 518.3, 226.8 518, 227.8 518 C 229.5 518, 232.6 514.3, 231.7 513.3 C 231.4 513.1, 230 513.6, 228.5 514.6 C 226 516.3, 225.7 516.3, 224.8 514.7 C 223.7 512.6, 220.4 512.5, 219.6 514.5 M 335.5 519 C 334.6 520.5, 336.9 523, 339.1 523 C 340.5 523, 341 523.7, 341 525.8 C 341 529.8, 340 530.4, 337.4 527.9 C 335.9 526.5, 334.3 525.9, 333 526.3 C 331.4 526.7, 331 526.5, 331.4 525.4 C 331.7 524.6, 331.3 524, 330.5 524 C 329.7 524, 329 523.3, 329 522.5 C 329 521.7, 328.5 521, 327.9 521 C 327.3 521, 327.1 521.9, 327.5 523.2 C 328.1 524.9, 327.9 525.2, 326.6 524.7 C 325.7 524.3, 324.3 523.7, 323.5 523.4 C 322.7 523.1, 322 523.2, 322 523.8 C 322 524.3, 321.3 525.1, 320.4 525.4 C 319.1 525.9, 318.9 525.5, 319.4 523.6 C 320.3 520.1, 317.8 518.4, 315.5 521 C 313.2 523.5, 314.1 524.7, 316.6 522.3 C 318.3 520.6, 318.3 520.6, 317.6 523.5 C 317.2 525.2, 316.2 527.2, 315.4 528.1 C 314.6 528.9, 314 530.2, 314 530.9 C 314 532.4, 308.8 532, 308.3 530.4 C 308.1 529.9, 309.2 528.9, 310.7 528.3 L 313.5 527.2 310.3 527.1 C 307.4 527, 307 527.3, 307 529.5 C 307 532.2, 307.4 532.5, 312.8 533.4 C 314.8 533.8, 315.9 533.6, 315.5 533 C 314.1 530.8, 316.4 529.1, 318.5 530.6 C 320.5 532.1, 320.5 532.1, 318.6 533.6 C 317.5 534.3, 317 535.3, 317.4 535.7 C 317.7 536.1, 319 535.4, 320.2 534.2 C 321.9 532.5, 322.2 531.8, 321.2 530.8 C 318.9 528.5, 319.8 526.7, 322.7 527.5 C 324.3 527.9, 325.6 528.3, 325.8 528.5 C 326.3 529, 321.8 536, 320.9 536 C 320.4 536, 320 536.5, 320 537 C 320 537.6, 320.7 538, 321.5 538 C 323.4 538, 325.8 542.6, 326.6 547.9 C 327.6 553.9, 325.8 553, 322.1 545.5 C 319 539.3, 317 536.7, 317 538.9 C 317 539.5, 317.5 540, 318.1 540 C 318.6 540, 318.9 540.4, 318.5 541 C 318.2 541.5, 317.3 541.7, 316.6 541.4 C 315.8 541.1, 316.9 542.7, 319.1 545 C 321.9 547.9, 323 550, 323 552.1 C 323 554.4, 323.4 555.1, 324.4 554.7 C 326.6 553.8, 327.3 557.1, 325.3 558.6 C 324.3 559.3, 323.1 560, 322.6 560 C 322 560, 322.1 560.5, 322.7 561.1 C 323.6 562, 324.3 561.9, 325.5 560.6 C 328.1 558, 329 559.6, 329 566.6 L 329 573.1 326.4 571.1 C 324.9 569.9, 323.1 569, 322.3 569 C 321.6 569, 320.5 568, 320 566.8 C 319.4 565.2, 319.1 565, 319.1 566.2 C 319 567.1, 320.3 568.9, 321.9 570.2 C 329 575.8, 330.5 577, 331.1 577 C 331.4 577, 331.4 574.2, 331.2 570.8 L 330.7 564.7 334.6 567.7 C 341.6 573.1, 346.9 574.4, 364 575 C 378.7 575.5, 379.2 575.6, 374.5 576.7 C 357.7 580.7, 327.7 580.9, 321.4 576.9 C 311.8 571, 306.8 555.6, 313.6 553 C 320.4 550.4, 310.2 543.8, 301 544.9 C 300.2 545, 298.8 546.1, 298 547.3 C 293.8 553.5, 290.1 556.2, 286.8 555.5 C 279.9 554, 275 551.1, 275 548.5 C 275 545.8, 276.5 545.1, 277.3 547.5 C 277.8 548.6, 285.2 553, 286.7 553 C 286.8 553, 287.7 551.6, 288.5 550 C 290.4 546.4, 288.7 545, 284.9 547 C 283 548.1, 282.5 547.9, 281.1 546.1 C 280 544.6, 278.8 544.1, 277.7 544.6 C 276.4 545.1, 276.1 544.8, 276.6 543.5 C 277.7 540.6, 274.7 542.3, 273.2 545.3 C 271.3 549.2, 273.4 553, 279 555.7 C 281.5 556.8, 283.8 557.6, 284.2 557.4 C 285.4 556.6, 289 558.9, 289 560.4 C 289 561.1, 290 562.5, 291.2 563.6 C 293.3 565.5, 293.3 565.5, 292.7 562.9 C 292.2 560.9, 292.8 559.3, 295.2 556.2 L 298.3 552.1 300 554.3 C 300.9 555.5, 302.5 559.1, 303.5 562.3 C 305.6 569.1, 306.5 569.3, 305 562.6 C 304.4 560, 304.1 556.7, 304.2 555.2 C 304.3 553.7, 304.1 551.9, 303.6 551.2 C 302.6 549.6, 305.4 549.6, 306.7 551.3 C 307.3 551.9, 308 555.1, 308.3 558.2 C 308.9 564.7, 312.6 572.2, 317.4 576.9 C 326.2 585.4, 363.1 585.4, 381.6 576.9 C 385 575.3, 388.1 574, 388.4 574 C 388.7 574, 392.4 571.9, 396.7 569.3 C 404.1 564.8, 409.2 561.4, 422.3 552 C 427.8 548, 428.2 547.8, 431.3 549.1 C 438.5 552.1, 448.9 561.4, 456.2 571.6 C 461.2 578.6, 467.5 582.7, 487.4 592 C 494.6 595.3, 511 597.5, 512.3 595.3 C 512.7 594.7, 509.6 594.1, 504.1 593.7 C 499.3 593.3, 493.6 592.3, 491.4 591.5 C 481.2 587.3, 459.4 575.2, 460.4 574.2 C 460.6 574.1, 463.3 575.3, 466.3 576.9 C 469.5 578.6, 472.2 579.5, 472.5 579 C 472.8 578.4, 472.6 578, 472 578 C 469.3 578, 457.7 569.2, 454.2 564.5 L 450.4 559.4 455.9 560.2 C 462.6 561.1, 469.1 562.7, 482.5 567 C 488 568.7, 497.7 571.4, 504 573.1 C 510.3 574.7, 519.1 577.1, 523.5 578.4 C 539 583, 542.8 583.5, 562 583.5 L 580.5 583.4 563.8 585.1 C 552.6 586.2, 545.5 586.4, 542.3 585.8 C 539.7 585.3, 534.1 584.5, 530 584 C 507 581.3, 496.4 578.4, 479.2 570.4 C 474.1 568, 469.4 566, 468.7 566 C 468 566, 467 565.6, 466.5 565.1 C 465.9 564.5, 463 563.9, 460 563.6 L 454.5 563 459.5 564.6 C 462.3 565.5, 465.9 566.9, 467.7 567.6 C 469.4 568.4, 471.5 569, 472.4 569 C 473.3 569, 474 569.4, 474 569.9 C 474 570.4, 475.2 571.1, 476.7 571.5 C 478.2 571.8, 481.9 573.4, 484.9 574.9 C 498.5 581.6, 514.2 586, 525 586 C 528 586, 531.2 586.5, 532 587.1 C 533.1 587.8, 527.3 588, 512.3 587.7 C 500.6 587.5, 491 587.7, 491 588.1 C 491 588.6, 491.6 589, 492.3 589 C 492.9 589, 498 589.7, 503.4 590.5 C 515.1 592.3, 521.9 592.4, 538.3 591 C 562.8 588.9, 580.4 586.7, 596.5 583.5 C 600.9 582.6, 607 581.5, 610 581 C 613 580.5, 619.6 579.1, 624.5 577.9 C 629.5 576.8, 636.7 575.2, 640.5 574.5 C 651.7 572.5, 658.3 571, 661.3 569.8 C 662.8 569.2, 664.3 569, 664.6 569.2 C 665.3 570, 650.9 576.7, 645.7 578.1 C 643.1 578.7, 640.7 579.6, 640.4 580.1 C 640.1 580.6, 639.2 581, 638.4 581 C 637.6 581, 634.8 581.9, 632.2 583.1 C 627.3 585.2, 621.9 587.5, 618.5 589 C 615.9 590, 601.2 595.2, 593.2 597.9 C 589.8 599.1, 586.1 600, 585.1 600 C 584 600, 582.9 600.4, 582.6 600.9 C 582.3 601.3, 579.7 602, 576.8 602.4 C 574 602.8, 571.1 603.4, 570.6 603.8 C 566 606.8, 539.9 610.2, 517.5 610.7 C 490.5 611.3, 473.9 608.5, 458.5 600.8 L 454.5 598.7 456.5 601 C 459.8 604.6, 470.9 608.7, 485.2 611.5 C 501.6 614.7, 541.4 612.7, 563.5 607.5 C 567.4 606.6, 573 605.4, 576 604.8 C 579 604.2, 582 603.4, 582.5 603 C 583.1 602.6, 585.4 601.9, 587.7 601.5 C 590.1 601.1, 592.2 600.5, 592.5 600 C 592.8 599.5, 594.8 598.9, 597 598.5 C 599.2 598.1, 601.2 597.5, 601.5 597 C 601.8 596.5, 603.8 595.9, 606 595.5 C 608.2 595.1, 610.2 594.4, 610.6 593.9 C 610.9 593.4, 611.8 593, 612.6 593 C 613.4 593, 616.2 592.1, 618.8 590.9 C 627.8 586.9, 629.5 586.2, 634.5 584.5 C 637.3 583.5, 640 582.3, 640.5 582 C 641.1 581.6, 642.9 581, 644.5 580.6 C 656.6 577.9, 601.5 604.2, 586 608.6 C 559.6 616, 552.9 617.1, 531.5 617.7 C 512.4 618.3, 508.6 619.1, 517 620.9 C 534.5 624.7, 577.4 617.3, 603.5 606.1 C 605.7 605.1, 609.5 603.5, 612 602.5 C 628.4 595.6, 664.8 574.3, 670.8 568 C 675.1 563.6, 690.3 556.9, 698.4 555.8 C 707.1 554.6, 722.3 556.1, 736 559.5 C 742.8 561.2, 759.5 564, 762 564 C 764.2 563.9, 757.1 561, 754.8 561 C 753.7 561, 748.9 560.1, 744.1 559 C 739.4 557.8, 732.8 556.3, 729.5 555.5 C 705.9 550, 695.7 551.2, 674 562 C 665.1 566.4, 662.9 567.1, 649 569.5 C 644.3 570.3, 637.6 571.7, 634 572.5 C 620.8 575.7, 604.6 577.5, 560.5 580.6 C 550.4 581.4, 531.5 578.8, 523.3 575.6 C 520.1 574.3, 515.6 573, 513.4 572.6 C 511.3 572.2, 508.2 571.5, 506.5 571 C 504.9 570.5, 500.1 569.1, 496 568 C 491.9 566.9, 487.6 565.5, 486.5 565 C 485.4 564.5, 483.8 563.9, 483 563.6 C 482.2 563.3, 482.9 563.2, 484.5 563.5 C 486.2 563.7, 490.7 564.4, 494.5 565 C 498.4 565.6, 505.7 566.8, 510.9 567.6 C 526.7 570.2, 533.7 568.3, 551.2 556.8 C 567.2 546.3, 570.2 545.6, 581.3 549.4 C 585.4 550.8, 592.9 552.6, 598.1 553.5 C 603.3 554.3, 610.4 555.6, 614 556.4 C 629.9 560, 637.1 561.7, 637.6 562.2 C 638.7 563.4, 624.1 565.3, 614 565.3 C 602.4 565.4, 597.7 564.4, 588.2 559.9 C 581 556.4, 579.5 556.6, 583.9 560.3 C 590.8 566.1, 604.5 569.4, 618.4 568.8 C 633.5 568, 675.7 557.2, 683.5 552 C 684.1 551.6, 686.5 550.6, 689 549.8 C 704.5 544.3, 717.2 542.8, 732 544.7 C 760.7 548.5, 764 548.7, 764 546.6 C 764 545.6, 762.1 545.1, 757.3 544.8 C 753.5 544.5, 744 543.2, 736 542 C 717.5 539.1, 700.7 540.6, 687.5 546.5 C 664.8 556.7, 650.5 559.9, 636.5 558.1 C 631.6 557.4, 626.9 556.5, 626.1 556 C 624.6 555.3, 618.1 553.9, 593.5 549.4 L 583.5 547.5 594 546.8 C 616.8 545.4, 631.1 544.2, 631.7 543.6 C 633.2 542.1, 630.3 542, 617.9 543.1 C 597.6 544.8, 579.5 545.3, 577.4 544.2 C 576 543.5, 572.9 543.8, 566.5 545.2 C 546.7 549.5, 516.4 551.7, 470.5 552.2 L 441.5 552.5 437.6 549.7 C 431.9 545.7, 429.4 545.4, 425.1 547.9 C 414.9 554.1, 410.4 554.4, 365.5 552.2 C 328.1 550.4, 330.6 550.9, 327.5 544.5 C 324.5 538.1, 324.4 535, 326.9 531.9 C 328.8 529.5, 329.9 529.4, 339.5 530.2 C 342.2 530.5, 342.5 530.2, 342.8 527.1 C 343.3 522.2, 341.3 518, 338.4 518 C 337.2 518, 335.8 518.5, 335.5 519 M 209.1 533.5 C 209.1 535.7, 209.5 539.3, 210.1 541.5 C 210.6 543.7, 211.6 547.2, 212.1 549.4 C 212.6 551.5, 214.4 556.1, 216 559.6 C 217.7 563.1, 219 566.2, 219 566.4 C 219 567.9, 228.3 581.8, 236.1 592 C 245.8 604.8, 251.6 610.6, 266.5 622.5 C 269.2 624.7, 272 627, 272.6 627.5 C 273.2 628.1, 274.8 629.2, 276 630 C 277.2 630.8, 278.8 632, 279.4 632.5 C 283.6 636.4, 317.6 653.5, 345 665.7 C 348 667, 351.7 668.7, 353.2 669.5 C 355.9 671.1, 359.5 671.5, 358.6 670.3 C 358.1 669.3, 354.6 667.6, 341.5 661.5 C 320.5 651.7, 284.3 633.2, 279 629.5 C 269.6 623, 249.4 605.1, 243 597.6 C 228.6 580.9, 212.3 551.7, 211.9 542.1 C 211.9 540.7, 211.2 537.3, 210.5 534.5 L 209.2 529.5 209.1 533.5 M 154.8 534.1 C 154.6 535.4, 155.3 537.4, 156.2 538.4 C 157.2 539.5, 158 541, 158 541.7 C 158 542.4, 158.5 543, 159 543 C 159.6 543, 159.9 543.3, 159.8 543.8 C 159.4 545.2, 177.7 579.1, 181.2 583.5 C 181.7 584.1, 183.6 586.7, 185.5 589.5 C 191.7 598.4, 189 591.3, 182.3 581 C 180 577.4, 177.7 574, 177.3 573.5 C 176.9 572.9, 175.4 570.5, 174.1 568 C 172.7 565.5, 171.4 563.3, 171.1 563 C 170.2 562.2, 160 542.4, 156.7 535.1 C 155.3 531.9, 155.2 531.8, 154.8 534.1 M 246 534.5 C 246.7 535.3, 247.9 536, 248.6 536 C 249.4 536, 250 536.4, 250 536.9 C 250 537.7, 256.4 540.3, 261 541.4 C 263 541.8, 264 543.1, 265.5 547.2 C 267.9 554, 276.6 568.1, 284.1 577.4 C 292.6 588.1, 314.9 609.2, 323.8 615 C 340.9 626.4, 377.8 641.8, 408 650.3 C 421.7 654.2, 429.2 656.5, 438.5 659.6 C 455.3 665.2, 472.9 671.5, 485.5 676.4 C 492.1 679.1, 500.4 682.3, 504 683.7 C 507.6 685, 511.4 686.5, 512.5 687 C 516 688.5, 526.4 691.8, 530 692.5 C 533.2 693.1, 533.4 693.1, 531.5 691.7 C 530.4 690.9, 528.4 690, 527 689.6 C 525.6 689.2, 523.6 688.5, 522.5 688 C 521.4 687.6, 515.8 685.5, 510 683.4 C 504.2 681.4, 499.1 679.4, 498.5 679 C 498 678.6, 494.6 677.3, 491 676 C 487.4 674.7, 484.1 673.4, 483.5 673 C 483 672.6, 477.8 670.6, 472 668.6 C 466.2 666.5, 460.6 664.4, 459.5 664 C 453.2 661.4, 416.7 650, 414.7 650 C 413.8 650, 412.8 649.6, 412.5 649 C 412.2 648.5, 411 648, 410 648 C 408.2 648, 387.5 641.7, 383.5 639.9 C 382.4 639.5, 378.6 638.1, 375.1 636.9 C 371.6 635.7, 367.6 634.2, 366.1 633.4 C 364.7 632.6, 363.2 632, 362.8 632 C 360.4 632, 332.3 618, 325.2 613.2 C 319.3 609.3, 309 600.2, 309.2 599.2 C 309.3 598.8, 304.2 593.3, 297.9 587 C 281.6 570.7, 269.6 553.4, 268.2 544 L 267.5 539.5 262.4 539 C 259.7 538.7, 255 537.2, 252.1 535.7 C 246.2 532.7, 244.1 532.2, 246 534.5 M 18.8 537.2 C 18.2 541.3, 20.9 547.6, 23.8 548.9 C 25 549.5, 26 550.4, 26 551 C 26 552.9, 28.5 552, 32.3 548.9 C 36.7 545.3, 36.9 544.4, 33.4 543.6 C 30.6 542.9, 28 544.4, 29.5 545.7 C 29.9 546.2, 30.5 545.9, 30.7 545.3 C 31.2 543.8, 33 543.6, 33 544.9 C 33 545.5, 31.9 547.2, 30.6 548.7 C 28.6 551, 27.9 551.3, 26.8 550.2 C 25.8 549.2, 25.8 548.8, 26.8 548.1 C 27.8 547.5, 27.8 547.1, 26.5 546 C 25.1 544.9, 25.1 544.5, 26.4 543.1 C 27.7 541.7, 27.6 541.2, 25.3 539.2 C 23.9 538, 23 537.6, 23.3 538.3 C 23.6 539.1, 23.4 540.3, 22.9 541.1 C 22.3 542.1, 22 541.7, 22 539.7 C 22 535.2, 19.3 533.2, 18.8 537.2 M 107 538 C 107 538.6, 108.5 541.1, 110.4 543.6 C 117.4 552.8, 115.8 560.9, 105.5 568.5 C 103.9 569.6, 103.8 569.9, 105.1 570 C 108 570, 114.7 563.2, 116.4 558.5 C 118 553.6, 117.2 549.3, 113.4 543.5 C 111 539.9, 112.4 539.2, 115.5 542.6 C 116.9 544.1, 118.8 545.5, 119.7 545.6 C 122 546, 123.1 548.1, 122.5 551.5 C 122.1 553.7, 122.2 554, 122.8 552.5 C 123.9 550, 123.7 549.7, 132.6 570.1 C 147.5 604.7, 154.2 616, 171.9 637 C 194.1 663.2, 228.5 686.3, 271.7 704.1 C 281.5 708.2, 281.4 708.2, 259.5 710.1 C 239.1 711.8, 230.8 711, 202 704.5 C 186.6 701, 177.5 698.7, 167.3 695.6 C 164.4 694.7, 159.8 693.4, 157.2 692.6 C 154.5 691.9, 151.3 690.6, 149.9 689.7 C 146.7 687.6, 137.8 682.7, 130.5 678.9 C 127.2 677.3, 122.3 674.5, 119.5 672.9 C 116.8 671.3, 113.4 669.4, 112 668.7 C 110.6 668.1, 109.3 667.3, 109 667 C 108.7 666.7, 106.5 665.4, 104.1 664.2 C 87.3 655.5, 67 634, 67 624.7 C 67 623.8, 66.6 622.8, 66 622.5 C 64.4 621.5, 64.8 620, 66.7 620 C 68.8 620, 67.9 619.1, 64.9 618.3 C 58.5 616.5, 50.1 617.4, 47.4 620.2 C 44.1 623.5, 42.2 628.7, 43.1 632 C 43.7 634.2, 43.8 634.1, 43.9 630.9 C 44.2 620, 61.5 614.4, 64.5 624.2 C 69.6 640.7, 83.2 655, 105.5 667 C 115 672.2, 124.2 677.2, 128.5 679.6 C 130.7 680.9, 135.8 683.6, 139.8 685.7 C 160.1 696.3, 122.6 684.8, 99 673.2 C 86.7 667.2, 74.2 659.1, 61.4 649.1 C 53.2 642.5, 51 641.3, 37 635.7 C 24.1 630.5, 8.4 628.4, 7.3 631.6 C 7.1 632.3, 10.1 632.9, 15.9 633.3 C 24.2 633.9, 32.9 636.1, 40.7 639.6 C 42.4 640.4, 44 641, 44.3 641 C 45.3 641, 56.6 648, 58.6 649.8 C 59.6 650.8, 64.6 654.6, 69.5 658.3 C 74.5 662, 79 665.4, 79.7 665.9 C 83.4 669.1, 100.8 677.7, 116.5 684.1 C 120.9 685.9, 134.8 690.3, 140 691.6 C 143 692.3, 148.2 693.6, 151.5 694.4 C 154.8 695.2, 164.9 697.9, 174 700.4 C 221.9 713.7, 234.7 715.2, 273.7 711.9 C 290.9 710.5, 304.5 714.3, 346.5 732 C 348.7 732.9, 363.3 737.8, 371.5 740.3 C 377.1 742.1, 398.3 747.7, 404.5 749 C 431.4 755.1, 441.3 757, 448.5 757.6 C 457 758.4, 456.4 756.8, 447.5 755.1 C 437.2 753.2, 418.5 748.9, 408 746.1 C 383.6 739.7, 380.2 738.7, 366.3 734.6 C 357.9 732.1, 348 728.5, 328.2 720.6 C 317.6 716.4, 302.8 710.9, 295.2 708.4 C 287.7 705.9, 279.1 702.8, 276.2 701.5 C 273.3 700.1, 270.7 699, 270.4 699 C 270.1 699, 268.2 698.3, 266.2 697.4 C 221.1 677.2, 187.4 653.3, 166.8 627 C 164.5 624, 161.7 620.6, 160.7 619.5 C 159.7 618.4, 157.7 615.5, 156.3 613 C 154.9 610.5, 153.4 608.3, 153.1 608 C 152.3 607.4, 142 586.8, 142 585.8 C 142 585.4, 140.6 582.1, 138.9 578.3 C 135.1 569.7, 134.6 568.6, 132 562.5 C 124.8 545.8, 119.1 538.6, 113.5 539.2 C 112.4 539.3, 110.5 538.8, 109.3 538.2 C 107.7 537.3, 107 537.3, 107 538 M 70.5 542.6 C 54.4 546.6, 42.8 552.9, 30 564.9 L 25.5 569.1 30.5 565.9 C 33.3 564.1, 38 560.8, 41 558.5 C 49.3 552.1, 57.9 548.5, 58.1 551.3 C 58.1 551.9, 58.5 551.5, 59 550.3 C 59.6 548.8, 61.1 547.9, 63.6 547.4 C 67 546.8, 67.6 547, 70.4 550.1 C 78 558.6, 89 558.2, 89 549.4 C 89 547.8, 89.6 547, 90.8 546.9 C 95.7 546.6, 99.9 547.3, 103.3 549.1 C 107.2 551.1, 108.2 550.4, 105.3 547.8 C 103 545.8, 100.6 545.1, 91.8 543.9 C 82.4 542.6, 73 542, 70.5 542.6 M 72.7 544.9 L 68.9 545.5 72.5 549 C 75.5 551.9, 76.3 552.2, 77.1 551 C 78 549.8, 78.1 549.8, 77.6 551.3 C 76.9 553.4, 81.1 555.4, 84.1 554.5 C 86.3 553.8, 87.5 550.1, 86.6 547.2 C 85.8 544.7, 81 543.3, 79.9 545.2 C 79.2 546.2, 79 546.2, 79 545.3 C 79 543.9, 78.8 543.9, 72.7 544.9 M 130.5 549.1 C 134.1 560.8, 152 593.9, 162.1 607.6 C 175.3 625.5, 201.8 644.7, 226.3 654.1 C 229.2 655.2, 232.4 656.4, 233.5 656.9 C 236.7 658.3, 243.9 660.6, 252 663 C 263 666.1, 265.5 666.7, 276.5 669 C 282 670.1, 288.5 671.5, 291 672.1 C 296.5 673.4, 314.8 674.6, 313.8 673.5 C 313.4 673.1, 308.7 672.2, 303.3 671.5 C 297.9 670.7, 290.4 669.4, 286.5 668.6 C 279.9 667.2, 276.9 666.5, 261 662.5 C 249.7 659.7, 230.8 652.9, 221 648.2 C 182.8 629.7, 163.2 610.1, 142.5 570 C 140.4 565.9, 138.3 561.8, 137.9 561 C 137.4 560.2, 136 557, 134.6 553.8 C 132 548, 129.1 544.6, 130.5 549.1 M 91 550.7 C 91 551.2, 93 553.3, 95.5 555.3 C 100.8 559.7, 101.6 564.4, 97.9 568.1 C 96.5 569.5, 96.1 570.5, 96.8 571.2 C 97.4 571.8, 97.6 572.9, 97.3 573.6 C 97 574.4, 97.4 575, 98.2 575 C 100.6 575, 104.3 579.6, 103.6 581.7 C 103.3 582.8, 101.1 584.6, 98.7 585.7 C 95.3 587.5, 95 587.9, 96.8 587.9 C 101 588.1, 107 583.5, 107 580.2 C 107 579.4, 105.2 577.1, 103 575.1 C 98.2 570.7, 98.2 570.4, 101.9 566.2 C 105.7 562.1, 106.6 559.2, 104.7 557.3 C 103.4 556, 103.3 556.1, 103.7 558.4 C 104 559.9, 103.6 561.5, 102.6 562.5 C 101.1 564, 101 563.9, 101 561.6 C 101 560.2, 99.6 557.4, 97.8 555.3 C 95.7 553, 95.1 551.9, 96.3 552.3 C 97.2 552.7, 98 552.5, 98 551.9 C 98 551.2, 97.1 551, 95.8 551.3 C 94.6 551.7, 93 551.4, 92.3 550.8 C 91.6 550.2, 91 550.2, 91 550.7 M 543 551.6 C 537.8 552.3, 531.5 553, 529 553.1 C 525.7 553.3, 526.6 553.5, 532.5 554.1 C 538.8 554.6, 536.9 554.7, 524 554.7 C 506.5 554.7, 445.8 556.1, 446.2 556.6 C 446.4 556.7, 465.4 557.1, 488.5 557.4 C 511.6 557.7, 532.3 558.4, 534.5 559 C 537.4 559.6, 532.1 559.9, 516 559.8 C 486.4 559.5, 472.8 560, 476 561 C 477.4 561.4, 481.7 561.9, 485.5 561.9 C 489.4 562, 497.5 562.7, 503.5 563.6 C 522.6 566.2, 524.2 566.3, 530.8 564.6 C 537.2 562.9, 543.9 559.3, 551.9 553.3 C 556.9 549.6, 556.9 549.6, 543 551.6 M 328.4 552.1 C 328.1 552.7, 328.3 553.7, 328.9 554.4 C 329.6 555.2, 330 556.2, 329.8 556.6 C 329.3 558.3, 332.1 562, 333.8 562 C 335.1 562, 335.2 562.2, 334.2 562.9 C 332 564.2, 337.3 567.7, 345 570 C 352.6 572.3, 372.4 573.7, 381.1 572.6 C 385.6 572, 398.1 566.5, 396.8 565.6 C 396.7 565.5, 390.7 565.7, 383.5 566.1 C 370.2 566.9, 340.1 565.7, 337.5 564.3 C 336.8 563.9, 350.4 563.5, 367.8 563.5 L 399.5 563.5 405.3 559.8 L 411.1 556.2 391.3 555.7 C 368.5 555.2, 338.2 553.3, 332.7 552.1 C 330.5 551.6, 328.8 551.6, 328.4 552.1 M 59 554.8 C 59 556.8, 58.6 557, 52.8 557 C 48.3 557, 46.9 557.3, 48 558 C 48.8 558.6, 53 558.9, 57.3 558.8 C 65.6 558.5, 67 559.2, 67 563.8 C 67 565.2, 66.4 566, 65.3 566 C 62.5 566, 64.9 567.4, 67.8 567.5 C 73.1 567.6, 84.8 571, 88.3 573.5 C 91 575.4, 92.4 575.4, 91.6 573.5 C 91.3 572.6, 91.9 571.6, 93.1 571 C 94.2 570.4, 94.8 569.5, 94.5 569 C 93.6 567.5, 92 567.8, 92 569.4 C 92 571.8, 90 572.3, 88 570.5 C 86 568.7, 76.3 566.1, 71.3 566 C 68 566, 66.8 564.6, 69.3 563.7 C 71.2 563, 67.6 557.6, 64.8 557.2 C 63.5 557, 61.7 555.9, 60.8 554.7 L 59 552.5 59 554.8 M 150.2 556.8 C 150.4 557.2, 151.6 559.8, 152.8 562.5 C 155.7 568.9, 162.1 581.3, 162.9 582 C 163.2 582.3, 165.3 585.2, 167.5 588.5 C 173.4 597.3, 174.4 598.4, 187 611.1 C 193.3 617.4, 202.3 625.4, 207 628.8 C 211.7 632.2, 216 635.4, 216.5 635.8 C 217.6 636.7, 234.6 646.7, 237 647.9 C 237.8 648.3, 239.9 649.4, 241.5 650.3 C 249.3 654.5, 259.9 658.9, 263.5 659.4 C 265.7 659.7, 266.8 659.7, 266 659.4 C 231.2 646.1, 186.7 614.2, 171.2 591.5 C 169.7 589.3, 168.3 587.3, 167.9 587 C 167.3 586.5, 161.4 576.7, 158.2 570.8 C 157.1 568.8, 156.4 566.9, 156.7 566.6 C 157.1 566.3, 156.8 566, 156.1 566 C 155.5 566, 155 565.4, 155.2 564.7 C 155.6 563.1, 151.9 556, 150.7 556 C 150.2 556, 150 556.3, 150.2 556.8 M 428.1 557.8 C 427 558.7, 425.7 561, 425.4 562.8 C 424.8 565.7, 425 566, 427.1 565.9 C 428.4 565.9, 428.9 565.6, 428.3 565.3 C 426.2 564.5, 426.8 561.2, 429.4 559.5 C 433.2 557, 436.4 559.1, 451.4 573.8 C 458.9 581, 465.5 587, 466.1 587 C 466.6 587, 460.6 580.5, 452.7 572.5 C 436.2 555.9, 432.8 553.9, 428.1 557.8 M 587 556.9 C 592.4 558.8, 620.8 564.2, 622.8 563.7 C 624 563.4, 623.9 563.2, 622.2 563.1 C 621 563.1, 619.2 562.6, 618.2 562.1 C 613.1 559.4, 602.1 556.8, 593.7 556.4 C 587.6 556.1, 585.3 556.3, 587 556.9 M 351 558.5 C 356 559.4, 365.7 559.8, 380 559.8 L 401.5 559.7 386 559 C 377.5 558.6, 364.4 558, 357 557.7 L 343.5 557.1 351 558.5 M 699.7 560 C 691.4 562.1, 664.5 578.9, 666.4 580.8 C 666.7 581.1, 667.8 580.6, 668.7 579.8 C 673.4 575.8, 686.6 569, 692.3 567.5 C 699 565.8, 699.8 565.9, 717 569.4 C 724.7 570.9, 736.7 574.2, 744 576.7 C 748.7 578.3, 749.3 578.5, 757.4 581.9 C 763.2 584.4, 763.1 584.4, 762.4 582.5 C 762 581.7, 761.2 581, 760.4 581 C 759.6 581, 758.2 580.6, 757.2 580 C 752.3 577.3, 742.5 573.9, 730.5 570.6 C 727.2 569.7, 723.2 568.5, 721.5 568 C 719.9 567.5, 714.2 566.6, 709 565.9 C 696.9 564.4, 695.2 563.5, 703 562.7 C 715.6 561.3, 728.1 564.2, 753.8 574.1 C 761.8 577.1, 764 577.6, 764 576.1 C 764 575.7, 759.2 573.4, 753.3 571 C 747.3 568.7, 741.2 566.1, 739.5 565.4 C 728.2 560.5, 708.4 557.8, 699.7 560 M 120.8 561.1 C 119.8 561.7, 119 562.6, 119 563.3 C 118.9 565, 115.8 568.5, 113.1 569.9 C 111.1 571, 111 571.3, 112.3 572.8 C 113.2 573.7, 116 578.6, 118.6 583.5 C 121.2 588.5, 124.4 594.2, 125.7 596.2 C 127 598.3, 128 600.2, 128 600.6 C 128 600.9, 131.3 608, 135.4 616.3 C 143.4 632.7, 153 647.9, 160.1 655.5 C 173.8 670.3, 201.3 686.6, 228 695.7 C 230.5 696.5, 234.5 698.1, 237 699.3 C 239.5 700.4, 244.3 702.6, 247.7 704.1 C 255 707.3, 262.9 709.2, 259.5 706.8 C 258.4 706, 253.1 703.7, 247.7 701.5 C 242.3 699.4, 237.7 697.3, 237.4 696.8 C 237.1 696.4, 236.1 696, 235.2 696 C 234.3 695.9, 231.7 695.1, 229.5 694 C 227.3 692.9, 224.7 692.1, 223.8 692 C 222.9 692, 221.9 691.6, 221.5 691.1 C 221.2 690.6, 219.6 689.9, 218 689.5 C 213.9 688.6, 200.4 681.9, 190 675.7 C 171.1 664.4, 157.1 651.5, 148.9 637.8 C 142.6 627.1, 130 601.4, 130 599.1 C 130 598.5, 129.6 598, 129 598 C 128.5 598, 128 597.5, 128 597 C 128 596.4, 125.3 591.3, 122 585.8 C 115.9 575.4, 114.9 572.1, 117.4 570.1 C 118.2 569.5, 119.3 567.6, 120 566 C 121.8 561.8, 122.3 562.2, 124.3 569.3 C 125.3 572.7, 126.5 576.3, 127 577.2 C 127.6 578.2, 128 579.5, 128 580.1 C 128 580.7, 128.6 582.6, 129.4 584.3 C 130.2 586.1, 131.4 589.3, 132.1 591.5 C 132.9 594, 133.5 594.9, 133.8 593.8 C 134 592.8, 132.8 588.1, 131.2 583.3 C 129.5 578.4, 127.4 571.8, 126.4 568.5 C 124.3 561.3, 123.2 559.7, 120.8 561.1 M 285 562.9 C 285 566.1, 291.5 575.1, 300.3 584.1 C 309.3 593.3, 311.6 595.1, 320 599.2 C 338.4 608.3, 344.3 610.6, 361 615 C 375.8 619, 400 621.7, 427.8 622.5 C 439.1 622.8, 452.1 623.9, 459.3 625 C 480.4 628.3, 484.4 629, 489 630 C 509.4 634.5, 550.1 635.5, 570 632.1 C 582.9 629.8, 607.1 623, 609.5 620.8 C 610 620.4, 611 620, 611.8 620 C 612.6 620, 614.6 619.4, 616.3 618.6 C 618.1 617.8, 625.1 614.9, 632 612 C 638.9 609.2, 645.4 606.5, 646.5 606.1 C 651.2 604.1, 657.7 602, 659.5 601.9 C 660.7 601.9, 661 601.6, 660.2 601.3 C 657.9 600.4, 634.4 607.6, 631.6 610.2 C 631 610.6, 630 611, 629.2 611 C 627.9 611, 620.3 614.1, 616.8 616 C 615.8 616.6, 614.5 617, 613.9 617 C 613.3 617, 611.4 617.6, 609.7 618.4 C 577.4 632.5, 536.3 635.2, 487.5 626.5 C 483.1 625.8, 474.3 624.2, 468 623 C 460 621.6, 447 620.5, 425 619.5 C 407.7 618.7, 391.5 617.8, 389 617.4 C 373.6 615.4, 351.7 610, 345.8 606.9 C 344.8 606.4, 343.5 606, 343 606 C 341.8 606, 338.5 604.6, 323.5 597.6 C 315.1 593.6, 302.1 585.3, 302 583.8 C 302 583.5, 300.1 581.2, 297.8 578.8 C 293.5 574.3, 287 564.9, 287 563 C 287 562.5, 286.6 562, 286 562 C 285.5 562, 285 562.4, 285 562.9 M 31.8 568.8 C 30.2 569, 29 569.6, 29 570.2 C 29 570.8, 30.2 571, 31.7 570.7 C 40.1 569.1, 41.5 576.3, 34 582.7 C 28.9 587.1, 28.6 590.5, 33.3 592.5 C 42.6 596.4, 44.8 602.4, 38.9 608.2 L 35.9 611.3 23.4 610.7 C 16.6 610.4, 11 610.5, 11 610.9 C 11 611.4, 12.2 611.5, 13.6 611.2 C 19.6 610.1, 22.5 614.5, 19.6 620.3 C 18.1 623, 18.5 623.6, 20.7 622.2 C 22.4 621.1, 24.1 616.3, 23.4 614.5 C 22.9 613.3, 24 613, 30.1 613 C 37.8 612.9, 39.4 612.3, 42.3 608 C 46.5 601.9, 44.1 595.8, 35.7 591.5 C 30.4 588.7, 31 586.2, 38 582.7 C 44.1 579.6, 45.3 578.1, 44.7 574.2 C 44.3 571.7, 44.3 571.7, 44.2 574.7 C 44 576.9, 43.3 578.3, 41.8 579.1 C 39.9 580.1, 39.8 580, 40.5 578.4 C 42.7 573, 42 570.2, 38.2 569.3 C 36.1 568.9, 33.3 568.6, 31.8 568.8 M 694.6 572.7 C 692.9 573.1, 688 575.7, 680.3 579.9 C 677.2 581.7, 669.7 584.6, 665 585.9 C 662.5 586.6, 658.3 588, 655.5 589 L 650.5 590.8 653.4 591.9 C 655 592.6, 657.3 592.9, 658.4 592.7 C 660.4 592.3, 660.3 592.3, 658.3 592.1 C 654.5 591.9, 655.7 590.4, 660.8 589.1 C 663.4 588.5, 667.2 587.5, 669.3 586.9 C 673.3 585.9, 678.8 583.4, 688.3 578.2 C 694.9 574.6, 703.6 573.8, 706.4 576.5 C 708.7 578.8, 709.2 576.6, 706.9 574.2 C 704.9 572, 699.7 571.4, 694.6 572.7 M 56 573.8 C 56 574.4, 55 575.2, 53.8 575.6 C 45.9 578, 44.5 582.6, 49.5 589.5 C 50.7 591.1, 51.5 593.3, 51.3 594.2 C 51.1 595.1, 52.3 598.5, 53.9 601.7 C 57.9 609.2, 57.8 610.5, 53.3 613 C 51.2 614.1, 50.4 614.8, 51.5 614.6 C 52.6 614.3, 54.7 613.8, 56.3 613.4 C 57.9 613.1, 59 612.1, 59 611.1 C 59 609.4, 54.7 598.4, 53.6 597.3 C 53.3 597, 53 595.6, 53 594.4 C 53 593.1, 52.6 591.9, 52.1 591.6 C 51.7 591.3, 51.4 589.9, 51.5 588.5 C 51.7 586.9, 51.1 585.5, 49.9 584.6 C 47.3 582.8, 48.3 580.6, 52.6 578.5 C 58.8 575.6, 66.2 579, 65.9 584.7 C 65.9 586.3, 65.8 586.3, 65.1 584.6 C 64.7 583.5, 64.1 583.1, 63.8 583.6 C 62.9 585.1, 64.9 589.2, 66.2 588.8 C 68.2 588.1, 68.3 582.5, 66.4 580.5 C 65.1 579.2, 65 578.6, 65.9 578 C 67.5 577.1, 66.5 576.5, 62 575.5 C 60.1 575.1, 57.9 574.3, 57.3 573.8 C 56.4 573.1, 56 573.1, 56 573.8 M 401.5 580.6 C 398.6 582.9, 386.5 589.1, 379 592.1 C 376.4 593.2, 370 593.5, 353.5 593.5 C 330 593.4, 326.8 592.9, 318 587.5 C 310.9 583.1, 309.2 582.6, 312.9 585.8 C 314.7 587.4, 318.6 589.8, 321.4 591 C 331.9 595.6, 333.5 596.1, 334.8 594.8 C 335.5 594.1, 336.9 594.1, 339.2 594.8 C 353.4 599.2, 386 595, 392 588.1 C 392.3 587.8, 394.7 586.4, 397.3 585 C 401.9 582.6, 407.3 578, 405.4 578 C 404.9 578.1, 403.2 579.2, 401.5 580.6 M 313 580.8 C 313 582, 316.5 583.6, 323 585.5 C 326 586.4, 330.3 587.7, 332.5 588.3 C 337.6 589.8, 369.8 589.9, 376 588.4 C 379.6 587.6, 377.4 587.4, 364.5 587.8 C 355.7 588, 345.1 587.7, 341 587.1 C 327.7 585.2, 319.6 583.4, 316.3 581.7 C 314.5 580.7, 313 580.3, 313 580.8 M 701.5 580.7 C 699.9 581, 694.2 582.3, 689 583.7 C 683.8 585, 676.1 587, 672 588 C 667.9 589, 663.6 590.1, 662.5 590.4 C 661.4 590.7, 663.2 590.7, 666.5 590.4 C 672.7 589.8, 686.9 586.9, 693 584.9 C 698.4 583.1, 714.4 583.7, 722 586 L 728.5 588 720.8 587.5 C 694.5 585.8, 694.5 585.7, 718.5 589.3 C 729.5 591, 736.4 592.5, 739.5 594 C 744.7 596.5, 760.4 602, 761.4 601.7 C 762.4 601.3, 761.4 600.7, 754.5 597.9 C 753.4 597.5, 750.4 596.2, 747.8 595.1 C 745.2 593.9, 742.7 593, 742.2 593 C 741.8 593, 739.5 592.1, 737.2 591 C 734.5 589.7, 732 589.2, 730.3 589.6 C 728.1 590, 727.8 589.9, 729 589.1 C 731.1 587.6, 729.4 586.6, 720.5 583.9 C 716.7 582.8, 712.5 581.4, 711.2 580.9 C 708 579.6, 707 579.8, 707 581.5 C 707 582.3, 706.3 583, 705.4 583 C 704.4 583, 704 582.5, 704.4 581.5 C 704.7 580.7, 704.8 580.1, 704.7 580.2 C 704.6 580.2, 703.2 580.5, 701.5 580.7 M 80 589.8 C 80 593.4, 90.8 616.3, 95.6 622.7 C 96.9 624.4, 98 626.2, 98 626.6 C 98 627.7, 109.5 641.5, 116.5 648.9 C 122 654.7, 136.5 666.7, 140 668.4 C 140.8 668.8, 143.1 669.9, 145 670.9 C 146.9 672, 148.9 672.6, 149.3 672.3 C 149.8 672, 148.5 670.9, 146.5 669.9 C 128.6 660.3, 107 638.8, 94.8 618.5 C 89.8 610.2, 86 602.9, 86 601.6 C 85.9 600, 80 588.3, 80 589.8 M 105.6 592.5 C 107.4 594.4, 111.1 600.4, 113.8 605.8 C 131.5 641.1, 151.8 674, 155.9 674 C 157.2 674, 155.6 671.9, 150 666 C 149.7 665.7, 149 664.6, 148.3 663.5 C 147.7 662.4, 143.3 655.2, 138.7 647.5 C 128.4 630.4, 126.9 627.9, 118.6 611.6 C 112.1 598.9, 108.2 592.7, 105.2 590.3 C 102.1 587.8, 102.3 589.1, 105.6 592.5 M 682 595.9 C 679.3 596.3, 684.2 596.5, 694 596.5 C 712.2 596.5, 738.7 599.7, 754.5 603.9 C 759 605.1, 762.7 605.3, 761.7 604.4 C 760.3 603, 744.5 599.6, 727 597 C 718.6 595.7, 687.8 595, 682 595.9 M 350.5 603.1 C 353.3 604.2, 356.4 605.7, 357.5 606.3 C 360.5 608, 391.2 608.4, 410.7 606.9 C 419.9 606.3, 433.6 605.4, 441 605.1 C 450.4 604.6, 453.7 604.2, 451.8 603.6 C 448.5 602.6, 429.3 603.2, 397 605.4 C 371.6 607.1, 362.8 606.7, 355.5 603.5 C 353.9 602.8, 350.9 601.9, 349 601.6 C 346 601, 346.2 601.2, 350.5 603.1 M 691.9 615.4 C 691.7 615.6, 686.7 616.3, 680.8 616.9 C 669.8 618, 662 619.8, 662 621.4 C 662 621.8, 662.8 621.9, 663.8 621.5 C 666.4 620.4, 674.5 619.1, 689.5 617.5 C 698.5 616.5, 724.3 620.6, 733.5 624.5 C 735.2 625.2, 739 626.5, 742 627.5 C 745 628.4, 748.4 629.5, 749.5 630 C 750.6 630.5, 753.6 631.8, 756.2 632.9 C 758.8 634.1, 761.4 635, 761.9 635 C 763.7 635, 763.1 633, 761.3 632.4 C 760.3 632.1, 758.6 631.4, 757.5 630.9 C 752.9 628.9, 737.1 623.2, 731.5 621.6 C 728.2 620.7, 724.2 619.5, 722.5 619 C 717.7 617.5, 692.7 614.6, 691.9 615.4 M 25.5 639.7 C 28.3 640.5, 31.9 641.8, 33.7 642.6 C 35.4 643.4, 37.3 644, 37.9 644 C 41.1 644, 60 658.2, 60 660.5 C 60 661.3, 60.7 662, 61.5 662 C 64.1 662, 63.1 659.9, 58.3 655.4 C 48.8 646.5, 30.9 637.8, 23.1 638.1 C 21.2 638.2, 21.9 638.6, 25.5 639.7 M 88 642.5 C 88 644.2, 93.5 650, 99.5 654.7 C 103.6 657.8, 130.1 671, 132.3 671 C 133.6 671, 149 678.5, 155.3 682.2 C 159 684.3, 165.3 687.4, 169.3 689.1 C 173.2 690.7, 177.4 692.5, 178.5 692.9 C 188.6 697.2, 200.3 699.9, 211.7 700.7 C 222.4 701.4, 224.4 699.7, 214.3 698.6 C 202.8 697.2, 186.3 693.3, 181.8 690.9 C 180.8 690.4, 179.5 690, 178.9 690 C 178.3 690, 176.4 689.4, 174.7 688.6 C 162.2 683, 155.8 679.9, 152.4 677.8 C 150.3 676.5, 145.6 674.1, 142 672.6 C 130.5 667.5, 125.6 665.4, 121 663.5 C 109.1 658.5, 96.8 650.8, 91.6 644.9 C 89.5 642.6, 88 641.6, 88 642.5 M 722 655 C 720.2 655.5, 722 655.9, 728 656.2 C 736.7 656.7, 748 658.5, 751.5 660 C 753.5 660.8, 762.2 663, 763.7 663 C 764.1 663, 763.5 662.3, 762.4 661.5 C 760.2 660, 755.3 658.6, 746.5 656.9 C 743.8 656.4, 739.3 655.5, 736.7 655 C 731.2 653.9, 725.6 653.9, 722 655 M 6.3 656.7 C 6.7 657.3, 9.9 658.1, 13.5 658.5 C 17.1 658.8, 20.2 659.6, 20.5 660.1 C 20.9 660.6, 21.8 661, 22.6 661 C 23.4 661, 27.6 662.6, 31.8 664.6 C 53.2 674.7, 53.3 674.8, 40.9 673.1 C 28.2 671.4, 9.5 671.6, 8 673.5 C 6 675.9, 6.7 676, 21.6 676.5 C 43.5 677.2, 83 684.6, 107.5 692.5 C 109.7 693.2, 114.9 694.8, 119 696 C 126.6 698.2, 132.1 699.9, 153.5 706.5 C 197.5 720, 197.6 720.1, 218 725.4 C 221 726.1, 228 727.8, 233.5 729 C 239 730.2, 244.8 731.6, 246.4 732.1 C 249.9 733.2, 252 733.3, 252 732.2 C 252 731.5, 250.9 731.1, 237 727 C 232.9 725.8, 228.6 724.5, 227.5 724 C 225.5 723.2, 222.4 722.2, 208 718 C 203.9 716.8, 199.6 715.4, 198.5 714.9 C 197.4 714.4, 194.7 713.6, 192.5 713.1 C 188.1 712, 180.4 709.7, 178 708.8 C 175.3 707.7, 130.7 693.3, 123 691 C 118.9 689.8, 113.7 688.2, 111.5 687.5 C 107.8 686.3, 75.7 678.4, 64.5 675.9 C 61.8 675.3, 55.7 673, 51.1 670.8 C 46.4 668.6, 40.1 665.7, 37.1 664.3 C 34 663, 30.1 661.2, 28.3 660.4 C 26.6 659.6, 24.6 659, 23.8 659 C 23 659, 21.9 658.5, 21.4 658 C 19.9 656.5, 5.5 655.3, 6.3 656.7 M 228 663.9 C 228 664.8, 248.5 675.2, 265.5 683 C 273 686.4, 273.8 686.7, 281.5 690 C 284.3 691.2, 287.4 692.5, 288.5 693 C 295.3 696.2, 317.6 704.1, 331 708 C 335.1 709.2, 339.6 710.5, 341 711 C 344.9 712.3, 354.6 715, 359.3 716 C 361.6 716.5, 367.8 717.8, 373 718.9 C 399.5 724.5, 426.3 727.9, 445.9 728 C 461.2 728, 457.5 726.8, 437.7 725.4 C 406.1 723, 375.2 717.8, 348 710.1 C 325.5 703.7, 298.1 694.6, 290.5 691 C 289.4 690.5, 284 688.2, 278.5 685.9 C 262.3 679.2, 258.3 677.3, 238.5 667.8 C 233.6 665.5, 229.2 663.4, 228.8 663.2 C 228.3 663, 228 663.3, 228 663.9 M 334.6 669 C 338.9 672.5, 348 678.4, 356 682.8 C 357.4 683.5, 360.5 685.3, 363 686.7 C 384.5 698.9, 402.7 705.2, 434.4 711.4 C 449.7 714.5, 448.7 713.4, 431 707.9 C 426.9 706.7, 423.1 705.3, 422.5 704.9 C 422 704.5, 419.9 703.9, 418 703.5 C 416.1 703.1, 413.9 702.4, 413 702 C 412.2 701.6, 408.4 700.3, 404.5 699.1 C 400.7 697.8, 396.6 696.5, 395.5 696 C 394.4 695.6, 390.6 694.2, 387 692.9 C 383.4 691.7, 375.8 688.2, 370 685.2 C 355.4 677.6, 330.6 665, 330.1 665 C 329.9 665, 332 666.8, 334.6 669 M 361.5 674.3 C 365.8 677.5, 376.9 682.9, 385.5 686 C 390.5 687.7, 395.4 689.6, 396.5 690 C 397.6 690.4, 403.2 692.3, 409 694 C 414.8 695.8, 422.1 698.1, 425.3 699.1 C 428.4 700.1, 431.7 701, 432.5 701 C 433.3 701, 434.8 701.4, 435.8 702 C 438.4 703.4, 456.3 707.2, 468.5 708.9 C 486.4 711.4, 493.4 712, 505.5 711.9 C 524.2 711.8, 525.5 710.4, 507.5 709.7 C 491.5 709.1, 474.7 707.6, 466.5 706 C 463.8 705.5, 457.7 704.3, 453 703.5 C 448.3 702.6, 442.3 701.3, 439.5 700.5 C 422.7 695.8, 419.3 694.8, 417 694 C 415.6 693.5, 411.1 692.2, 407 691 C 402.9 689.8, 398.1 688.2, 396.3 687.4 C 394.6 686.6, 392.8 686, 392.4 686 C 390.7 686, 374.3 679.5, 369.5 677 C 366.7 675.5, 363.4 674, 362 673.6 C 359.6 672.8, 359.6 672.9, 361.5 674.3 M 7.6 688.9 C 6.6 690.5, 8.1 690.8, 22 691.4 C 33.2 691.8, 42.4 693.2, 54.5 696 C 75.4 700.9, 88.8 704.1, 90.5 704.6 C 91.6 704.9, 95.3 705.8, 98.8 706.6 C 117.3 710.8, 126.2 713, 135.5 715.5 C 138.8 716.4, 143.3 717.5, 145.5 718.1 C 161.4 722.1, 178.3 727.1, 197.5 733.5 C 206.3 736.4, 216.9 739.8, 221 741 C 225.1 742.2, 229.6 743.5, 231 744 C 232.4 744.5, 235.1 745.3, 237 745.9 C 238.9 746.4, 243.8 747.8, 247.8 748.9 C 257.2 751.6, 265 752.8, 285 754.5 C 294.1 755.3, 305.1 756.4, 309.5 756.9 C 313.9 757.5, 319.5 757.9, 322 757.8 L 326.5 757.8 322.6 756.9 C 320.4 756.4, 314.3 755.5, 309.1 755 C 271 751.1, 254.1 748.6, 244 745 C 242.6 744.5, 238.1 743.2, 234 741.9 C 229.9 740.7, 217.3 736.7, 206 733 C 194.7 729.3, 182.1 725.3, 178 724 C 173.9 722.8, 169.4 721.4, 168 720.9 C 166.6 720.5, 161 718.9, 155.5 717.4 C 150 716, 143 714.1, 140 713.3 C 137 712.5, 132.7 711.5, 130.5 710.9 C 128.3 710.4, 124.9 709.6, 123 709 C 113.3 706.3, 66.7 694.9, 55 692.4 C 50.9 691.5, 45.7 690.4, 43.5 689.9 C 36.7 688.3, 8.4 687.5, 7.6 688.9 M 694 699.9 C 694 700.5, 694.7 701, 695.6 701 C 697.3 701, 706.3 703.7, 709 705 C 709.9 705.4, 712.1 706.1, 714 706.5 C 715.9 706.9, 718.1 707.6, 719 708.1 C 720.3 708.8, 725.3 710.3, 739 714 C 742.6 715, 752.7 716.9, 759.3 717.7 C 761.4 718, 763 717.8, 763 717.2 C 763 716.7, 761.1 716, 758.8 715.7 C 750.9 714.7, 737.5 711.6, 724.3 707.6 C 721.4 706.7, 716.8 705.3, 714 704.5 C 711.3 703.7, 706.6 702.3, 703.8 701.4 C 695.4 698.9, 694 698.7, 694 699.9 M 20 712.9 C 15.3 713.3, 10.4 714.1, 9 714.8 C 6.9 715.8, 7.2 715.9, 11.5 715.3 C 19.3 714.2, 66.6 714.7, 76 715.9 C 101.7 719.2, 125.7 724.1, 163.3 733.6 C 166.4 734.3, 171.6 735.6, 174.8 736.4 C 177.9 737.2, 182.2 738.3, 184.3 739 C 186.4 739.6, 188.7 739.9, 189.3 739.6 C 190 739.4, 189.5 739.1, 188.3 739.1 C 187.1 739, 185.9 738.6, 185.6 738.1 C 185.3 737.6, 183.8 737, 182.3 736.7 C 180.7 736.5, 174.1 734.8, 167.5 733 C 160.9 731.2, 153 729.1, 150 728.3 C 140.7 725.8, 121.4 721.5, 112.5 719.9 C 109.2 719.3, 104.9 718.4, 103 717.9 C 101.1 717.4, 96.1 716.5, 92 716 C 87.9 715.4, 81.6 714.5, 78 714 C 69.2 712.8, 30.5 712, 20 712.9 M 291.5 715.7 C 293.1 716, 294.9 716.5, 295.5 716.9 C 296 717.4, 297.7 718, 299.1 718.3 C 303.2 719.3, 326.7 735.7, 325.6 736.8 C 325.3 737, 323.5 736.5, 321.6 735.6 C 319.7 734.7, 317.7 734, 317.1 734 C 316.5 734, 315.2 733.6, 314.2 733 C 312.6 732.1, 306.2 729.2, 296 724.8 C 283.8 719.5, 282.3 719.3, 254 718.7 C 234.4 718.3, 239.3 719.2, 266 720.9 C 285.1 722.2, 287.2 722.8, 313.5 735.1 C 316.4 736.4, 360.5 752.9, 367 755.1 C 373.2 757.1, 380.1 758.8, 387.3 759.9 C 393.4 760.9, 391.8 759, 385 757.1 C 368.3 752.6, 362.4 750.6, 346 743.7 C 332 737.9, 331 737.3, 320.5 729.1 C 308.2 719.5, 301.7 716.1, 294.4 715.6 C 291.1 715.4, 289.8 715.5, 291.5 715.7 M 486 728.3 C 486.1 729.6, 496.9 737, 498.7 737 C 499.3 737, 500 737.4, 500.2 737.9 C 500.4 738.3, 501.6 739.1, 503 739.5 C 505.2 740.2, 505.3 740.1, 503.8 738.6 C 502.9 737.7, 501.9 737, 501.6 737 C 501.1 737, 491.4 731.4, 490.1 730.3 C 489.9 730.1, 489.9 729.8, 490.2 729.5 C 490.7 728.9, 494.7 730.6, 508.5 737 C 535.1 749.3, 582 764.2, 582 760.3 C 582 759.8, 579.2 758.5, 575.8 757.5 C 555 751.4, 528.7 741.9, 510.4 734 C 502.8 730.7, 496.8 728.7, 493.7 728.5 C 491 728.3, 488.6 727.9, 488.3 727.6 C 487.2 726.6, 486 726.9, 486 728.3 M 8.6 729.8 C 8.3 730.3, 9.9 731, 12.3 731.4 C 25.2 733.4, 37.8 736.1, 42.5 737.9 C 43.6 738.4, 49.7 740.4, 56 742.4 C 62.3 744.4, 68.4 746.5, 69.5 747 C 74.8 749.4, 95.6 754.3, 113.5 757.5 C 117.9 758.3, 123.3 759.4, 125.5 759.9 C 127.7 760.4, 132.2 761, 135.5 761.3 C 144.4 762.2, 140.4 761.1, 114 755.6 C 110.4 754.8, 104.1 753.4, 100 752.5 C 95.9 751.6, 90.5 750.5, 88 749.9 C 85.5 749.4, 82.4 748.6, 81 748.1 C 79.6 747.6, 75.1 746.2, 71 744.9 C 66.9 743.6, 63.1 742.3, 62.5 741.9 C 62 741.5, 59.8 740.9, 57.7 740.5 C 55.7 740.1, 53.7 739.4, 53.4 738.9 C 53.1 738.4, 52.1 738, 51.1 738 C 49.6 738, 43 736.2, 32.5 733 C 30.9 732.5, 25.9 731.6, 21.5 731.1 C 17.1 730.5, 12.5 729.8, 11.4 729.4 C 10.2 729.1, 9 729.3, 8.6 729.8 M 543.7 735.6 C 542 737.3, 568.8 744.9, 586 747.5 C 591.8 748.4, 599 749.5, 602 750 C 605 750.5, 610.2 751.2, 613.5 751.5 C 616.8 751.9, 621.8 752.6, 624.5 753.1 C 638.4 755.7, 674.3 757.7, 676.9 756.1 C 678.5 755.1, 673.4 754.4, 651.5 753 C 642.7 752.4, 634.8 751.7, 633.8 751.4 C 632.9 751.1, 627.3 750.3, 621.3 749.5 C 595.9 746.2, 578.6 743.3, 567.5 740.6 C 559.8 738.7, 549.1 736, 546.5 735.4 C 545.4 735.1, 544.1 735.2, 543.7 735.6 M 162.5 765.1 C 104.2 765.4, 43.8 765.8, 28.3 765.9 C 10.2 765.9, 0 766.4, 0 767 C 0 768.4, 767.6 768.4, 768.5 766.9 C 768.9 766.3, 769 765.7, 768.9 765.5 C 768.2 764.9, 266.8 764.5, 162.5 765.1" stroke="none" fill="#1b1f3a" fill-rule="evenodd"/></svg>