<svg xmlns="http://www.w3.org/2000/svg" viewBox="0 0 768 768" version="1.1" preserveAspectRatio="xMidYMid meet"><path d="M 0 109.1 C 0 202, 0.1 207.1, 1.8 206.6 C 2.7 206.3, 6.2 205.6, 9.5 205 C 12.8 204.3, 18.9 203.1, 23 202.3 C 41.1 198.8, 59.3 199.7, 83 205.5 C 86.6 206.3, 95.4 208.2, 102.5 209.5 C 115.9 212.1, 119 212.8, 127.5 215.4 C 160.5 225.1, 188.3 227.1, 217 221.9 C 229.2 219.6, 250.2 219.7, 258 222 C 273.7 226.6, 311.3 225.1, 334.3 218.9 C 340.3 217.3, 360.8 216.7, 368.5 217.8 C 372.4 218.4, 379.3 219.6, 384 220.5 C 388.7 221.4, 399.8 222.5, 408.6 222.9 C 417.5 223.4, 425.2 224, 425.8 224.4 C 429.8 226.8, 443.7 229.3, 456.1 229.7 C 469.2 230.2, 473.6 229.8, 490 226.5 C 506 223.3, 510.9 222.8, 524 222.8 C 531.4 222.8, 541.3 223.3, 546 223.9 C 550.7 224.5, 559.9 225.5, 566.5 226 C 573.1 226.6, 580.7 227.5, 583.3 228 C 595.4 230.5, 616.1 228.6, 634 223.5 C 653.7 217.8, 671.4 217, 704 220.3 C 713.6 221.3, 728.8 222.5, 737.6 223 C 746.5 223.5, 757.1 224.1, 761.1 224.4 C 765.7 224.7, 767.1 224.6, 765 224.2 C 763 223.7, 760.9 223.1, 760.3 222.7 C 759.6 222.3, 744.4 220.8, 726.3 219.4 C 708.3 218.1, 686.9 216.4, 678.9 215.8 C 660.6 214.4, 655.7 215, 629.9 221.8 C 609.4 227.3, 601.2 227.8, 579 225.1 C 573.8 224.4, 563.9 223.3, 557 222.5 C 550.1 221.7, 539.9 220.5, 534.3 219.8 C 523.6 218.6, 510.8 219.4, 496 222.5 C 475.7 226.8, 471.9 227.2, 459.5 227.2 C 446.9 227.2, 441.7 226.3, 428 222 C 426.1 221.4, 417.1 220.5, 408 220 C 398.9 219.5, 390.6 218.9, 389.5 218.6 C 366 212.8, 339.4 213.4, 313.7 220.1 C 307.7 221.7, 283.4 222.3, 274 221.2 C 269.3 220.6, 258.6 219.2, 250.1 218 L 234.7 216 222.1 218.1 C 215.2 219.3, 207.3 220.6, 204.5 221.1 C 197.4 222.2, 178.6 222.1, 171 220.9 C 167.4 220.4, 160.2 219.3, 155 218.5 C 149.8 217.7, 140.3 215.7, 134 214 C 120.8 210.4, 117.8 209.7, 105.5 207.5 C 100.6 206.6, 91.1 204.6, 84.5 203.1 C 67 199, 61.1 198, 53.9 198 C 45.2 198, 43.2 196.5, 50.7 195.6 C 60.6 194.5, 78.6 191.7, 103 187.6 C 127.1 183.5, 164.9 182.3, 189.5 184.9 C 222 188.3, 233.6 188.2, 256 184.5 C 281.5 180.2, 285.7 179.6, 325.7 175 L 343.9 172.9 354.7 175.1 C 360.6 176.3, 367.3 177.6, 369.5 178.1 C 375.8 179.4, 396.5 179.1, 407.5 177.5 C 418.9 175.9, 450.4 175.5, 459.5 177 C 483.3 180.7, 519.9 181.4, 551 178.7 C 582.3 176, 640.4 174.6, 664 176 C 681.5 177.1, 734.5 178.7, 758.7 178.9 L 767.9 179 768.3 192.8 C 768.4 200.3, 768.6 162.2, 768.5 108 C 768.5 13.2, 768.5 12.6, 768.3 92.8 L 768 176.1 739.2 175.5 C 723.4 175.2, 700.8 174.4, 689 173.7 C 649.9 171.5, 581.1 172.6, 544 176.1 C 528.7 177.5, 480.4 176.7, 471 174.9 C 461.4 173, 413.6 173.1, 404.5 175 C 396.2 176.7, 376.3 176.9, 370 175.3 C 351.1 170.5, 339.1 169.6, 324.9 171.9 C 321.4 172.5, 312.2 173.6, 304.5 174.5 C 290.4 176.1, 283.2 177.1, 268.5 179.6 C 232.2 185.6, 225.1 185.8, 193.5 182.5 C 158.8 178.9, 130.2 179.8, 98.5 185.5 C 86.2 187.7, 72.6 189.9, 60.5 191.6 C 54.5 192.4, 44.6 193.8, 38.5 194.7 C 32.5 195.5, 22.1 196.5, 15.5 196.9 C 3 197.5, 4.2 198.8, 17.5 199.1 L 23.5 199.2 16.5 200.5 C 12.7 201.2, 7.8 202.1, 5.8 202.5 L 2 203.3 2 107.1 C 2 43.7, 1.7 11, 1 11 C 0.3 11, 0 44.4, 0 109.1 M 0.5 109 C 0.5 163.2, 0.6 185.3, 0.8 158.3 C 0.9 131.2, 0.9 86.8, 0.8 59.8 C 0.6 32.7, 0.5 54.8, 0.5 109 M 120 300.9 C 116.5 301.4, 118.5 301.7, 129 302.3 C 136.4 302.6, 146.8 303.6, 152 304.5 C 157.2 305.4, 165.6 306.7, 170.5 307.5 C 175.5 308.2, 183.3 309.6, 188 310.5 C 192.7 311.4, 199.5 312.7, 203.2 313.3 C 206.8 314, 210.2 314.8, 210.6 315.3 C 211 315.7, 212.1 316, 213 316 C 213.8 316, 216.4 316.9, 218.5 318 C 222.5 319.9, 222.5 319.9, 220.1 318 C 218.8 316.9, 217.2 316, 216.4 316 C 215.6 316, 215 315.6, 215 315 C 215 314.5, 214.1 314, 213 314 C 211.9 314, 210.2 313.6, 209.2 313 C 208.3 312.5, 204.6 311.6, 201 311 C 197.4 310.4, 190.9 309.2, 186.5 308.4 C 182.1 307.6, 174.2 306.3, 169 305.6 C 163.8 304.8, 158.8 303.9, 158 303.6 C 156.6 303.1, 141.7 301.5, 130 300.6 C 127 300.4, 122.5 300.5, 120 300.9 M 384.5 316.2 C 369.5 318.4, 357.5 320.7, 355 321.7 C 354.2 322.1, 351 322.9, 348 323.6 C 345 324.3, 339.4 325.6, 335.5 326.5 C 331.7 327.3, 324.7 328.7, 320.1 329.6 C 315.4 330.4, 311.4 331.3, 311.1 331.5 C 310.3 332.4, 318.4 331.9, 323 330.9 C 325.5 330.4, 330.4 329.3, 334 328.6 C 337.6 327.8, 343.4 326.5, 347 325.6 C 371.8 319.4, 389.7 316.7, 400.5 317.4 C 413.7 318.4, 436 320.9, 444.5 322.4 C 448.9 323.2, 456.3 324.5, 461 325.4 C 465.7 326.2, 471.5 327.3, 474 327.8 C 476.5 328.4, 481.7 329.1, 485.5 329.4 C 491.1 329.8, 491.7 329.7, 488.5 329 C 482.3 327.6, 469.3 325, 460.5 323.5 C 456.1 322.7, 448.7 321.4, 444 320.6 C 439.3 319.7, 431.5 318.6, 426.5 318 C 397.3 314.7, 395.1 314.6, 384.5 316.2 M 277 319.7 C 272.6 322.7, 269.2 327.3, 266.4 333.8 C 264.3 338.7, 263.4 340, 262.1 339.5 C 261.2 339.1, 259.2 338.6, 257.5 338.3 C 255.9 338.1, 253.4 337.5, 252 337 C 250.6 336.6, 246.2 335.1, 242.1 333.9 C 236.4 332.1, 233.5 330.4, 228.8 326.3 L 222.9 321 216.1 321 C 207.3 321, 198.8 324.2, 173.8 337.1 C 172.8 337.6, 171 338, 169.8 338 C 167.7 338.1, 167.6 338.1, 169.3 339.1 C 170.7 339.9, 171.5 339.9, 172.3 339.1 C 172.9 338.5, 174 338, 174.8 338 C 176.4 338, 183.2 335, 192.2 330.4 C 201.6 325.6, 209.6 323.1, 215.7 323 C 220.5 323, 221.2 323.3, 226.5 328.2 C 232.2 333.4, 237.6 335.9, 247.9 338.1 C 250.4 338.7, 255 339.6, 258.1 340.3 L 263.6 341.5 262.4 348.5 C 260.9 357, 260.7 367.2, 261.9 372 C 262.4 373.9, 263 377.2, 263.3 379.2 C 263.8 382.7, 263.8 382.9, 261.5 382 C 257.2 380.4, 226.9 378.8, 213.5 379.5 C 200.5 380.2, 178.1 384.9, 170.3 388.5 C 168.6 389.3, 167 390, 166.7 390 C 166.1 390, 153.6 395.5, 151 396.9 C 130 408, 126.5 410.6, 120 419 L 113.9 426.8 110.4 425.7 C 108.5 425.1, 105.2 423.1, 103.2 421.3 C 99.7 418.1, 99.6 417.9, 101.5 416.7 C 106 413.9, 114.1 404.7, 116.4 399.8 C 118.5 395.5, 118.9 395, 119 397.1 C 119 401.4, 116.1 407.2, 111.7 411.8 C 106.8 416.8, 107.7 417.2, 114.5 412.8 C 118.5 410.1, 119.6 408.8, 120.3 405.5 C 121.1 401.6, 120.7 388.4, 119.6 384.5 C 119.1 382.9, 120.2 381.7, 124.5 378.6 C 136.8 369.8, 138.5 357.6, 126.3 365.3 C 122.4 367.7, 116.7 370, 114.5 370 C 112.9 370, 111.8 367.2, 112.7 365.7 C 113.1 365, 113.5 363.1, 113.5 361.5 C 113.7 358.3, 116.6 353, 118.1 353 C 118.6 353, 119 352.4, 119 351.7 C 119 350.1, 125.5 346.6, 126.9 347.4 C 127.6 347.9, 128 347.2, 128 345.8 C 128.1 343.6, 128.1 343.6, 129.5 345.4 C 130.4 346.5, 131.3 346.9, 132.2 346.4 C 133.7 345.4, 134.4 345.3, 142.5 344 C 152.3 342.5, 153.1 338.8, 144.5 334.9 C 136.9 331.4, 123 333, 111.8 338.7 C 103.8 342.8, 87.5 359.7, 83.9 367.6 C 79.6 377, 79.2 385, 82.5 395.6 C 83.3 398.1, 85.9 397.7, 50 400.6 C 39.3 401.4, 28.7 402.6, 26.5 403.1 C 24.3 403.5, 17.4 404, 11.3 404 C 3.9 404, 0 404.4, 0 405.1 C 0 406.4, 23.6 405.8, 38.5 404.2 C 44 403.6, 54.4 402.6, 61.5 402 C 68.7 401.4, 76.6 400.7, 79.1 400.4 L 83.7 399.9 86.3 405.2 C 87.8 408.1, 91 412.8, 93.5 415.5 C 96 418.3, 98 420.8, 98 421.1 C 98 422.1, 66.6 423.3, 63.9 422.5 C 61.6 421.8, 55.8 417.6, 51.5 413.7 C 48.1 410.6, 42.3 408, 38.6 408 C 34 408, 24.5 412.2, 23.1 414.8 C 20.7 419.2, 23.3 425.7, 26.3 423.2 C 27.2 422.4, 28.1 422.3, 28.4 422.8 C 28.7 423.3, 30.2 424, 31.7 424.3 C 33.3 424.6, 35.4 425.2, 36.5 425.5 C 37.7 425.9, 37.3 425.3, 35.5 424.1 C 33.9 423, 31.8 422, 31 422 C 28.4 421.9, 24.8 418.6, 25.5 416.8 C 26.5 414.3, 32.3 412, 37.7 412 C 42.6 412, 44.8 413, 51 418.3 L 54.3 421.1 52 423.5 C 50.8 424.8, 48.2 426.6, 46.4 427.5 C 42.6 429.3, 41.7 431.5, 45.3 430.5 C 48.1 429.6, 54 425.2, 54.7 423.4 C 55.3 421.9, 58 421.5, 58 422.9 C 58 425.2, 68.5 426.2, 84.5 425.5 C 100.5 424.8, 100.8 424.9, 104.6 427.2 C 106.8 428.6, 109.3 429.9, 110.3 430.3 C 112.7 431.2, 112.4 432.5, 109.8 432.6 C 108.5 432.7, 104.6 433.3, 101 433.9 C 83 436.9, 49 436, 43.3 432.4 C 42.1 431.6, 40 431, 38.7 431 C 37.3 431, 34.6 430.3, 32.7 429.5 C 28.8 427.9, 18.5 427.4, 19.4 428.9 C 19.8 429.4, 21.9 430.1, 24.2 430.5 C 26.4 430.9, 29.8 431.9, 31.6 432.6 C 33.4 433.4, 36.7 434, 38.9 434 C 42.5 434, 43.1 434.4, 45 437.8 C 48.8 444.6, 51.1 445.2, 73 446.1 C 83.7 446.6, 95.3 446.7, 98.8 446.4 L 105 445.8 105 451.9 C 105 455.3, 105.5 459, 106 460.1 C 107.5 462.8, 106 462.5, 101.4 459.1 C 90.8 451.3, 86.4 449.7, 73 449 C 61.9 448.3, 46.5 449, 40.3 450.5 C 39.1 450.8, 31.9 451.7, 24.3 452.5 C 0 455.2, -0 455.2, -0 456.6 C -0 457.5, 1.1 457.7, 3.3 457.5 C 36.6 453.4, 43.8 452.8, 61.5 452.4 L 80.5 451.9 77 454.9 C 75.1 456.6, 72.7 458, 71.8 458 C 70.9 458, 69.7 458.6, 69.3 459.4 C 68.9 460.2, 64.2 464.3, 59 468.5 C 38.7 484.9, 29.5 495.6, 24.4 508.6 C 21.2 517, 20.9 518.4, 22 521 C 22.7 522.7, 23.8 524, 24.5 524 C 27.1 524, 31.6 521, 33.3 518 C 34.3 516.4, 35.7 515, 36.5 515 C 37.3 515, 37.7 514.4, 37.4 513.7 C 37.1 512.9, 38.6 511.2, 41.1 509.6 C 43.4 508.1, 48.9 503.3, 53.4 499.1 C 57.8 494.9, 65.6 488.7, 70.5 485.3 L 79.5 479.2 81.3 481.4 C 83 483.5, 83 483.4, 82.4 479.8 C 81.4 473.9, 84.3 473.9, 96.3 479.8 C 112.7 487.8, 112.7 488, 98.2 487.9 C 84.6 487.8, 81.7 488.7, 73.5 495.5 C 63.6 503.6, 59.1 508.9, 55 517.1 C 52.7 521.7, 47.6 530.2, 43.7 535.9 C 33.1 551.7, 27.8 567.5, 26.9 586.6 C 26.4 595.9, 32.9 599.1, 34.4 590.3 C 35.3 585.6, 38.2 578, 39.3 578 C 39.7 578, 40 577.6, 40 577 C 40 575.2, 46.4 565.6, 46.8 566.8 C 47.7 569.7, 49.1 567.6, 48.8 563.8 C 48.5 560.1, 48.8 559.5, 50.6 559.2 C 54.5 558.6, 60.7 552.2, 66.8 542.3 C 73.2 531.8, 86.9 514.7, 89.8 513.5 C 90.7 513.1, 96.2 512.6, 102 512.3 C 111.3 511.9, 112.2 512, 110 513.2 C 108.6 514, 105.7 514.4, 103.4 514.2 C 100.8 514, 98.9 514.3, 98.5 515 C 97.9 515.9, 98.6 516, 101.1 515.5 C 103.6 515, 102.7 515.8, 97.5 518.5 C 93.7 520.5, 89.7 522.9, 88.7 523.9 C 86 526.5, 83.9 535.6, 85.2 538.6 C 86 540.2, 86 541.3, 85.3 542.2 C 81.6 546.8, 75 567.5, 74.3 576.7 C 73.9 581.3, 73.3 584, 72.5 584 C 71.9 584, 70.5 584.7, 69.4 585.6 C 67.6 587.1, 67.6 587.1, 70.3 586.5 C 74.7 585.6, 77.3 586.8, 76.6 589.3 C 75.9 592.1, 77.9 604, 79.4 606 C 82.8 610.4, 84.2 614, 82.5 614 C 81.6 614, 81.1 614.4, 81.5 615 C 81.8 615.5, 82.7 615.7, 83.4 615.4 C 84.9 614.8, 90.4 621.6, 89.5 623 C 89.2 623.6, 89.5 624, 90.3 624 C 91.1 624, 94.1 625.6, 96.9 627.5 C 99.7 629.4, 102.6 631, 103.4 631 C 104.1 631, 106.1 631.7, 107.6 632.5 C 110.9 634.2, 114 634.5, 114 633 C 114 632.5, 113.3 632, 112.5 632 C 111.7 632, 111 631.4, 111 630.7 C 111 629.7, 112.5 629.4, 116.8 629.6 C 122.6 629.9, 122.4 629.8, 112.8 627.1 C 108.5 625.9, 103.2 622, 105.8 622 C 107.7 622, 107.2 620.2, 105.2 619.6 C 103 618.9, 100.8 614.1, 98.2 604.4 C 95.9 596, 93.7 591.5, 91.3 590.1 C 89.6 589.2, 89.6 589, 91.2 587.8 C 94.9 585, 97.9 574.8, 100.4 556.5 C 102.3 543.1, 102 543.4, 119 535.8 C 129.5 531.1, 129.7 531.1, 126.2 536.3 C 124.6 538.6, 119.7 547.6, 115.4 556.4 C 104.7 578.1, 104.3 584.9, 112.7 597.1 C 114.6 599.9, 115.9 602.8, 115.6 603.6 C 115.3 604.4, 115.7 605, 116.6 605 C 117.5 605, 122.5 609.5, 127.8 615.1 C 138.1 625.8, 146.5 632.1, 157.6 637.1 C 170.8 643, 187.4 644.5, 199.1 640.9 C 203.2 639.6, 207.1 638.6, 207.9 638.7 C 212.7 639.2, 226 628.8, 226 624.5 C 226 619.8, 218.6 615.6, 208.4 614.6 C 197.7 613.4, 188 611.7, 188 610.9 C 188 609.4, 203.5 608.7, 211.6 609.8 C 242.1 614.2, 269.1 605.9, 290.8 585.4 C 298 578.5, 297.9 576.1, 290.4 569.7 C 283.7 564.1, 281.3 563.3, 274.8 564.9 C 266.3 566.8, 258.8 566.3, 252.8 563.4 C 246.3 560.1, 246.8 560.6, 247.5 558.9 C 248.1 557.3, 252.4 556.6, 263.1 556.6 C 270.2 556.5, 270.6 556.4, 268.6 555 C 266 553.2, 249.1 553.1, 244.6 554.9 C 241.9 556, 241.5 555.8, 238.1 552.2 C 236.1 550, 233.1 547.5, 231.3 546.6 C 226.8 544.4, 208.9 543.1, 201.5 544.6 L 195.8 545.8 196.4 542.1 C 196.7 540.1, 197 537.3, 197 535.9 C 197 533.6, 197.6 533.2, 202.3 532.2 C 216.9 529.2, 222.7 527.1, 217 526.9 C 215.2 526.9, 216 526.2, 220 524.6 C 232 519.8, 244.5 513.8, 259 505.7 C 265 502.4, 265.9 502.2, 270 503 C 276.5 504.3, 282.8 504.2, 288.6 502.7 C 294.4 501.2, 311 491.2, 311 489.1 C 311 487.9, 313 487.8, 322.3 488.3 C 328.4 488.7, 335.7 489, 338.3 489 C 342.4 489, 343.1 489.3, 342.6 490.8 C 342.3 491.7, 341.6 495.4, 341.2 499 C 340.3 505.2, 340.4 505.7, 343.7 512 C 345.8 516, 348.3 519.2, 350.1 520.2 C 351.8 521.2, 353 522.5, 352.8 523.2 C 352.7 523.9, 352.9 525.8, 353.3 527.3 C 353.8 529.1, 353.6 530.7, 352.9 531.6 C 352 532.7, 352 533, 352.9 533 C 354.1 533, 353.5 536.9, 352.1 538 C 349.8 539.7, 343.7 554.1, 344.8 555.2 C 349.2 559.6, 375.1 533.2, 380.4 518.9 C 382.1 514.2, 382.1 514.2, 387.8 513.6 C 406.2 511.5, 411.8 511.3, 424.2 511.8 C 436.7 512.3, 438.5 512.1, 444.6 510 C 450.1 508.2, 452.8 507.8, 459.2 508.2 C 467.8 508.7, 468.5 507.4, 460.3 505.8 C 455.4 504.9, 448 506.1, 445.1 508.4 C 444.3 509.1, 435.5 509.5, 421.6 509.7 C 409.5 509.8, 397.7 510.3, 395.5 510.9 C 393.3 511.5, 389.5 512, 387.2 512 L 382.8 512 383.5 503.8 C 385.3 480.9, 376.3 466.8, 359.8 466.6 C 354.3 466.5, 353.6 466.8, 350.9 469.8 C 349.3 471.6, 348 474, 347.9 475.3 C 347.9 476.5, 347.2 474.4, 346.3 470.5 L 344.8 463.5 347.6 461.3 C 349.7 459.7, 352.1 459, 357 458.7 C 362.9 458.3, 362.8 458.3, 355.8 458.4 C 345.9 458.5, 343.5 460.4, 343.6 468 C 343.6 472.5, 343.6 472.7, 342.4 470.4 C 340.7 467.2, 339.6 459.6, 340.4 456.5 C 340.9 454.5, 341.7 454, 344.2 454 C 345.9 454, 348.2 453.2, 349.2 452.3 C 350.4 451.2, 351.4 451, 351.8 451.6 C 352.2 452.1, 354.5 453.2, 357 453.9 C 364.1 456, 370.6 460.8, 373.5 466.2 C 374.9 468.8, 377.1 471.5, 378.3 472.1 C 379.5 472.8, 383 475.7, 386.1 478.6 C 389.2 481.5, 393 484.2, 394.5 484.6 C 397.8 485.4, 418.4 484.6, 432 483.1 C 462 479.7, 502 478.2, 508.7 480.1 C 512.7 481.2, 514.6 483.2, 513.5 485 C 513.2 485.5, 513.4 486.1, 514 486.5 C 515.9 487.7, 515.1 497.3, 512.7 501.5 L 510.4 505.5 501.4 506.1 C 496.5 506.5, 490.2 507.5, 487.5 508.4 C 478.2 511.6, 459.8 522.2, 452.5 528.6 C 450.9 530, 445.7 533.5, 441 536.3 C 431.4 542.2, 418.3 554.1, 417.4 557.7 C 416.5 561, 418.4 562.6, 424.5 564.2 C 427.3 564.8, 429.7 565.5, 429.9 565.7 C 430.1 565.8, 426.9 569.1, 422.8 572.9 C 409.9 584.9, 409.1 589.7, 419.9 590.8 C 428 591.5, 433.4 589.7, 450 580.8 C 453.6 578.9, 458.1 576.7, 460 576 C 465.6 573.9, 486.2 565, 490.3 562.9 C 492.5 561.9, 494.8 561, 495.7 561 C 496.5 561, 496.9 560.6, 496.6 560.2 C 496.1 559.4, 501.1 557.8, 507.8 556.5 C 509.5 556.1, 511 555.4, 511 554.9 C 511 554.4, 509.9 554.2, 508.6 554.6 C 504.5 555.6, 504.8 553.4, 508.9 552.1 C 512.6 551.1, 523.6 549.4, 532.5 548.7 C 534.7 548.5, 532 548.2, 526.5 548.1 C 519 547.9, 517.1 547.6, 518.9 546.9 C 520.2 546.4, 524.9 546, 529.4 546.1 C 535.2 546.1, 539.1 545.5, 543 544.1 L 548.5 542.1 538 541.8 L 527.5 541.5 533.3 539.6 C 542.5 536.7, 545 536.9, 547.8 541 L 550.2 544.5 546.8 544.8 C 541.6 545.3, 540.7 547.2, 545.8 546.9 C 548.8 546.7, 550.4 547, 551 548 C 552.4 550.2, 552.2 551, 550.3 551.1 C 549.1 551.2, 549.4 551.5, 551 551.9 C 552.8 552.4, 553.5 553.3, 553.5 555 C 553.5 556.4, 554 557.9, 554.5 558.3 C 555.1 558.9, 555 559.3, 554.2 559.7 C 553.2 560.1, 553.3 560.5, 554.7 561.6 C 556.1 562.7, 556.2 562.9, 555 563 C 553.8 563, 553.8 563.2, 554.8 563.9 C 556.1 564.7, 558 576.2, 560 595 C 560.5 599.7, 560.9 614.2, 560.9 627.2 C 561 658.1, 563.3 669, 569.5 669 C 574.2 669, 581.3 658, 586.3 643 C 588.7 636, 589.4 632.5, 592.2 614.5 C 592.8 610.3, 593 599.6, 592.7 587.3 L 592.1 567.1 595.3 566.7 C 598.3 566.3, 598.2 566.3, 594.6 566.2 C 591.7 566, 590.9 565.6, 591.3 564.6 C 591.6 563.8, 591.4 563, 590.8 562.8 C 590.2 562.6, 589.5 559.8, 589.2 556.5 L 588.7 550.7 592.1 551.4 C 594 551.7, 595.7 552.5, 595.8 553 C 596 553.6, 596.8 554, 597.6 554 C 598.4 554, 599 554.7, 599 555.5 C 599 556.4, 599.9 557, 601.1 557 C 603.4 557, 616.7 565, 628 573.1 C 631.6 575.6, 636.1 578.5, 638 579.5 C 639.9 580.5, 641.7 581.6, 642 582 C 642.3 582.4, 644.1 583.6, 646 584.6 L 649.5 586.5 639 587 L 628.5 587.6 638.5 588 C 645.8 588.4, 648.4 588.8, 648.3 589.8 C 648.1 590.4, 648.5 591, 649 591 C 651.5 591, 649.8 594, 647.3 594.1 C 644.6 594.3, 644.5 594.3, 647 594.7 C 650 595.3, 652.2 596.9, 651.4 598.1 C 651.1 598.6, 651.4 599, 651.9 599 C 652.5 599, 653 599.4, 653 600 C 653 600.5, 654.5 603, 656.3 605.6 C 659.3 609.9, 659.5 610.6, 659.4 619 C 659.4 623.9, 658.9 628.4, 658.3 629.2 C 656.4 631.5, 656.3 635.4, 658.2 635.8 C 664.7 637.1, 674.6 612.5, 672.1 601.1 C 671.5 598.2, 671 594.7, 671 593.2 C 671 590.2, 666 577.4, 663 572.6 C 660.6 568.7, 642.4 551, 640.8 551 C 640.2 551, 639.9 550.8, 640.2 550.5 C 640.8 549.9, 657.8 553.4, 662 554.9 C 663.4 555.4, 669.8 557.5, 676.2 559.5 C 682.7 561.5, 688.6 563.7, 689.3 564.4 C 690 565.2, 692.5 566.7, 694.7 567.9 C 697 569, 699 570.3, 699.2 570.8 C 699.6 571.9, 710.5 576.2, 720.5 579.3 C 732.1 582.9, 743.3 587, 744.8 588.2 C 745.4 588.8, 746 588.9, 746 588.4 C 746 587.6, 739.2 583.1, 736.5 582.1 C 736 581.9, 734.2 581.2, 732.5 580.4 C 730.9 579.7, 727.6 578.6, 725.3 578 C 721.1 576.9, 721 576.8, 721 572.6 C 721 562.1, 703.1 544, 681.9 533.3 C 669.2 526.9, 667.8 526.3, 657 522.6 C 616.4 508.8, 615 507.6, 638 505.1 C 642.7 504.6, 651.7 503.2, 658 502 C 668.1 500.1, 672.4 499.9, 692.5 500.2 C 714.6 500.4, 715.7 500.4, 721.5 498.1 C 739.5 491, 741.6 490.7, 753.5 492.8 C 760.4 494.1, 768 493.6, 768 491.9 C 768 491.4, 766.2 491, 764.1 491 C 761.9 491, 757.1 490.3, 753.3 489.4 C 744.1 487.2, 733.3 488, 726 491.2 C 716.4 495.5, 711.7 496.2, 697 495.5 C 680.6 494.7, 650.8 498.1, 627 503.4 C 611 506.9, 602 512.6, 602 519 C 602 522.1, 605.4 529, 606.8 529 C 607.2 529, 609.2 530.6, 611.3 532.5 C 613.4 534.4, 615.5 536, 616.1 536 C 616.6 536, 617 536.6, 617 537.4 C 617 538.1, 618.5 539.3, 620.3 540 C 625.4 542.1, 626.2 543, 624.8 544.8 C 623.7 546.1, 623.8 546.2, 626.1 545.7 C 628 545.2, 629.9 545.8, 633.5 548.1 C 640.2 552.3, 646 558, 643.8 558 C 642.8 558, 642 558.6, 642 559.4 C 642 561.7, 644 562.4, 645.3 560.6 C 646.4 559.1, 647 559.4, 650.5 563 C 653.3 565.9, 653.9 567, 652.7 567 C 651.8 567, 651 567.5, 651 568.1 C 651 568.8, 651.9 569, 653.4 568.6 C 655.4 568.1, 656.3 568.8, 659.3 573.3 C 664.2 580.4, 664.9 583.6, 661.8 584.3 C 658.4 585.2, 651.8 583.2, 649.7 580.7 C 648.6 579.3, 647.7 578.9, 647.4 579.6 C 647.1 580.3, 642.8 578, 636.7 574 C 631.1 570.4, 620.4 563.4, 613 558.6 C 605.6 553.8, 598.4 549, 597 547.9 C 592.8 544.7, 588.1 542.7, 586.4 543.4 C 584.4 544.2, 584.8 552, 587.9 571 C 592.9 601.4, 587.4 638.7, 575 657.8 C 570 665.6, 569.3 665.9, 567.3 661.3 C 565.9 658.1, 565.5 651.9, 564.9 623.5 C 564.4 599.9, 563.7 586.7, 562.6 580.5 C 561.7 575.6, 560.7 568.6, 560.4 565 C 560.1 561.4, 559.2 557.2, 558.5 555.5 C 557.7 553.9, 556.1 549.7, 554.9 546.2 C 550.9 534.6, 545.9 532, 534.9 535.6 C 529.2 537.5, 491.3 556.4, 488.9 558.6 C 488.1 559.4, 487.1 560, 486.7 560 C 486.4 560, 481.4 562.3, 475.6 565 C 469.8 567.8, 464.8 570, 464.4 570 C 464 570, 457.6 573.1, 450.1 576.8 C 430.7 586.6, 417.6 590.3, 416.2 586.3 C 416 585.6, 420.4 580.4, 425.9 574.8 C 431.5 569.2, 436 564.4, 436 564.1 C 436 563.8, 438 562.7, 440.3 561.6 C 457.4 554, 474.3 544.3, 482.5 537.4 C 496.7 525.3, 505.9 518, 506.8 518 C 507.9 518, 514 510.7, 514 509.4 C 514.1 508.9, 514.9 506.7, 516 504.5 C 517.1 502.3, 517.9 499.7, 518 498.8 C 518 497.6, 518.8 497, 520.3 496.9 C 522.1 496.8, 522.2 496.7, 520.7 496.3 C 519.3 495.9, 519 495.2, 519.4 493.5 C 519.7 492.2, 519.6 490.8, 519 490.5 C 518.5 490.2, 518 488.7, 518 487.3 C 518 481.5, 513.5 475.5, 495.5 457.5 C 475.5 437.5, 471.1 431.4, 468.5 419.6 C 466.7 411.5, 468 402.5, 472 394.1 C 474.7 388.6, 483.2 380, 486 380 C 488.6 380, 488.6 380.6, 484.8 388.6 C 478 403.1, 481.3 420.2, 492.5 427.9 C 524.6 450.1, 532.9 455, 539.1 455 C 545.5 455, 552.9 448.2, 558 437.8 C 559.3 435.1, 560.7 433, 561.1 433 C 561.5 433, 562.1 431.8, 562.5 430.3 C 563.5 426.2, 570.8 411.8, 573.5 408.5 C 575.4 406.1, 576.1 405.8, 576.9 406.9 C 578.3 409, 580.2 407.3, 578.8 405.1 C 577.7 403.3, 580.8 397.1, 582.8 397 C 583.2 397, 585.8 394.9, 588.5 392.5 C 593.7 387.8, 604.8 381.5, 605.8 382.5 C 606.2 382.8, 605.8 383.5, 605.1 384 C 604.3 384.4, 604 385.5, 604.3 386.4 C 604.6 387.2, 604.5 388.2, 604.1 388.4 C 603 389.1, 599.7 406.9, 600.1 410 C 600.5 412.7, 610.5 418.4, 617 419.6 C 620.3 420.2, 620.4 420.2, 618.5 418.7 C 617.4 417.8, 615.9 417, 615.1 417 C 612.3 417, 604.8 412.5, 604 410.5 C 602.9 407.7, 603.5 404.6, 607.6 391 C 609.6 384.7, 611.6 377.8, 612.2 375.7 C 613.5 371.2, 614.6 370.4, 616.5 372 C 618.1 373.4, 618.6 379, 617.1 379 C 616.5 379, 616.5 380.2, 617.1 382.2 C 617.7 384.4, 617.6 385.6, 616.9 386.1 C 616.1 386.6, 616.1 387, 617 387.5 C 617.8 388, 617.7 388.7, 616.4 390.1 C 614.8 391.9, 614.8 392, 616.6 392 C 618.3 392, 618.2 392.2, 616.2 393.6 C 613.6 395.4, 613.3 397, 615.8 397 C 617.4 397.1, 617.4 397.1, 615.8 398.1 C 614.8 398.6, 614 399.6, 614 400.2 C 614 400.9, 614.5 400.8, 615.5 400 C 616.5 399.1, 617 399.1, 617 399.9 C 617 400.5, 616.6 401, 616.2 401 C 615.7 401, 614.5 401.7, 613.4 402.6 C 611.6 404.1, 611.6 404.1, 614.5 403.6 L 617.5 403 614.5 404.7 L 611.5 406.4 614 407 C 615.7 407.4, 616.1 407.8, 615.2 408.4 C 614.6 408.8, 614 408.8, 613.9 408.3 C 613.9 407.9, 613.4 408.6, 612.9 409.9 C 611.1 414.5, 617.9 418.3, 621.1 414.4 C 622.2 413.1, 622 413, 619.7 413.5 C 618.3 413.9, 616.3 413.7, 615.3 413.1 C 613.7 412.2, 613.7 412.1, 615.2 412 C 617.3 412, 618.2 410.6, 618.6 406.9 C 618.8 405.3, 619.2 402.8, 619.5 401.3 C 619.8 399.7, 620.3 393.6, 620.6 387.5 C 621 381.5, 621.4 376.3, 621.6 376.2 C 621.7 376, 622.8 377.6, 623.9 379.9 C 630.7 393.2, 631.3 406.5, 625.4 412.5 C 624.5 413.4, 624.1 414.4, 624.5 414.8 C 626 416.3, 631.8 408.2, 632.5 403.6 C 634 393.9, 629.4 378.8, 622.9 372.2 C 617.6 366.8, 610.9 368.5, 608.5 375.9 C 608.2 376.8, 606.2 378.1, 603.7 378.7 C 594.9 381.1, 580.9 392.5, 571.4 405.1 C 567.3 410.5, 565.5 413.6, 555.1 433 C 546.1 449.8, 543.9 451.8, 536.1 450.5 C 531.1 449.7, 503.3 432.3, 491.4 422.6 C 484.1 416.7, 482.8 401.5, 488.5 389.3 C 492.6 380.3, 492.8 378.6, 489.6 376.4 C 487.3 375, 486.8 375, 482.7 376.8 C 473.3 381, 465.2 395.5, 464.3 410.1 C 463.7 419.4, 463.8 419.8, 469.2 432 C 472.9 440.3, 493 462.5, 505.3 471.8 C 508.9 474.6, 509.7 475.6, 508.3 475.7 C 507.3 475.9, 497.7 476.4, 487 477 C 476.3 477.5, 457.8 478.7, 446 479.5 C 416.1 481.5, 418.3 481.7, 416.6 477.5 C 414.1 471.6, 404.3 459.4, 395.4 451.3 L 387 443.5 405.7 443.7 C 416.1 443.8, 429.5 444.2, 435.5 444.5 C 441.6 444.9, 449 444.8, 452 444.3 C 459.5 443.2, 428.5 441.7, 404.3 441.9 C 394 442, 386.2 441.7, 385.1 441.1 C 383.2 440, 369.5 423.1, 370.1 422.6 C 370.7 422.2, 394 419.7, 401.8 419.3 C 405.9 419, 410.4 419.3, 411.8 419.9 C 415.9 421.5, 422.7 422.4, 421.5 421.3 C 417.2 417, 405.2 416.3, 379.2 418.9 L 367.8 420.1 361.5 414.2 C 355.4 408.5, 350.1 405, 347.4 405 C 346.7 405, 345.5 404.4, 344.8 403.7 C 341.7 400.6, 331.4 396, 320.9 393 C 316.8 391.8, 312.4 390.5, 311 390.1 C 308 389.2, 307.3 386.1, 309.1 381.8 C 313.5 371.1, 308.2 356.4, 293.5 339 C 287.3 331.6, 284.9 327.9, 284.5 325.2 C 283.4 318.2, 281.3 316.7, 277 319.7 M 273.3 328.3 C 266.6 337.2, 263.3 366.7, 267.5 380.4 C 269 385.5, 269.4 386, 270.3 384.4 C 277 371.7, 292.3 371, 301.1 383 L 304.8 387.9 305.4 384.8 C 308.7 368.2, 303.3 353.8, 287.5 336.8 C 282.1 331.1, 281.6 330.9, 282.4 335.4 C 283.1 338.9, 281.7 341.3, 280.6 338.5 C 279.8 336.4, 277.8 336.6, 278.2 338.7 C 278.4 339.6, 279.6 340.7, 281 341 C 284.5 341.8, 285.2 346.7, 281.8 347.2 C 280.1 347.4, 279.6 348.1, 279.8 349.5 C 280 350.6, 280.3 354.7, 280.5 358.5 C 280.8 362.4, 281.2 367.2, 281.5 369.3 C 281.9 372.2, 281.7 373, 280.8 372.6 C 280.1 372.3, 278.8 371.7, 277.9 371.4 C 275.7 370.6, 274.7 361.8, 274.8 342.3 C 274.9 333.9, 274.7 327, 274.6 327 C 274.4 327, 273.8 327.6, 273.3 328.3 M 556 333.1 C 546.5 335.3, 542.1 336.6, 541.4 337.3 C 541 337.7, 540 338, 539.3 338 C 537.9 338, 530.3 341.1, 526.8 343 C 525.8 343.6, 524.4 344, 523.7 344 C 523 344, 521.5 344.7, 520.4 345.5 C 518.6 346.9, 518.7 347, 521.5 346.4 C 523.2 346, 524.9 345.4, 525.5 344.9 C 526 344.4, 527 344, 527.8 344 C 528.6 344, 530.6 343.4, 532.3 342.6 C 534.1 341.8, 538.7 340.2, 542.5 339 C 546.4 337.9, 550.9 336.4, 552.5 335.9 C 560.7 333.1, 578.8 333.7, 601 337.5 C 618.5 340.5, 641.7 343, 651.1 343 C 659 343, 680.9 340.7, 690 339 C 710.4 335.1, 742.2 335.1, 761.3 339.1 C 767 340.3, 768.8 340, 767.6 338.2 C 767 337.2, 760.4 335.9, 746 333.9 C 731.3 331.9, 706.8 333.4, 677 338.1 C 667.8 339.5, 635.7 339.5, 623.5 338.1 C 618.6 337.5, 609.6 336.4, 603.5 335.5 C 582.3 332.5, 578.4 332.1, 569 332.2 C 563.8 332.2, 557.9 332.6, 556 333.1 M 127 337.7 C 121.1 338.7, 111.7 343.7, 107.4 348.2 C 103.2 352.4, 102 356.6, 103.2 363 C 104.1 367.9, 104.5 368.5, 107.8 369.5 C 109.9 370.1, 110 370, 109.4 366.2 C 107.6 354.8, 124.5 338.4, 137.3 339 C 143.2 339.4, 145 338.9, 141.5 338 C 138.2 337.2, 131 337, 127 337.7 M 652.6 348.7 C 651.8 349.5, 657.9 351.7, 665 353.1 C 678.1 355.8, 701 354.9, 701 351.7 C 701 351.2, 699.9 351.1, 698.3 351.6 C 690.8 353.7, 662.8 352, 655.4 349 C 654.2 348.5, 652.9 348.4, 652.6 348.7 M 93.5 359.3 C 87.8 365.8, 84.9 372.9, 84.7 380.8 C 84.3 393.8, 92.4 412, 98.5 412 C 104.1 412, 115 400.5, 115 394.5 C 115 393.5, 115.5 393.2, 116.2 393.6 C 117 394.1, 117.2 392.5, 116.7 387.4 L 116.2 380.4 119.1 379.1 C 122.6 377.6, 132 368.7, 132 366.9 C 132 366.1, 131.3 366.3, 129.8 367.3 C 117.2 376.2, 117.3 376.2, 113.9 374.5 C 112.2 373.6, 110.6 373.1, 110.3 373.4 C 109.5 374.1, 103 370.2, 100.9 367.8 C 98.9 365.6, 97.6 359.7, 98.5 357 C 99.5 353.8, 97.4 354.7, 93.5 359.3 M 38.5 360.1 C 35.8 360.5, 28.6 361.6, 22.5 362.4 C 6.6 364.7, 2.4 366, 13 365.4 C 17.7 365.1, 24.2 364.4, 27.5 363.8 C 36.6 362.2, 49.3 361.2, 61 361.1 C 66.8 361, 72.2 360.5, 73 360 C 74.8 358.8, 46.1 358.9, 38.5 360.1 M 279.8 381 C 271.1 387.8, 275.5 402, 287.3 405.2 C 293.3 406.8, 295.9 405.6, 300.8 398.7 C 303.5 394.9, 304.1 393.4, 303.5 391.2 L 302.7 388.5 302 391 C 298 405.1, 284.2 409, 279.4 397.4 C 276.8 391.3, 278.9 381.5, 283.1 380.2 C 284.1 379.8, 283.9 380.4, 282.7 381.8 C 281.5 383.1, 281 385, 281.2 387.2 L 281.5 390.5 283.8 386.7 C 285 384.6, 286.5 383.2, 287 383.5 C 287.6 383.8, 288 383.4, 288 382.6 C 288 379.9, 291.1 380.9, 295.1 384.9 C 299.6 389.3, 300.4 387.6, 296.2 382.9 C 292.3 378.6, 284 377.6, 279.8 381 M 209.5 382.7 C 197.8 383.6, 176.7 389.4, 162.5 395.6 C 160.9 396.3, 157.3 397.8, 154.5 399 C 139.9 405.4, 123.2 419.6, 117.8 430.2 C 109.1 447.3, 108.5 451.1, 112.6 463.6 C 115.8 473.7, 122.1 483.7, 130.6 492.3 C 136.6 498.4, 145.4 504, 148.9 504 C 149.5 504, 150.8 504.4, 151.8 504.9 C 156.2 507.3, 165.5 509, 176.5 509.3 C 187.8 509.6, 188.8 509.8, 194.2 512.8 L 199.9 515.9 201.8 512.7 C 202.8 510.9, 204.5 507.8, 205.6 505.7 C 206.6 503.6, 210.6 498.5, 214.3 494.3 C 221.6 486.1, 227.3 475.6, 226.8 471.3 C 226.4 468.1, 224 466.9, 224 470 C 224 473, 220.4 480.7, 216.3 486.2 C 213.5 490.1, 201.7 499, 199.4 499 C 199.1 499, 197.4 499.7, 195.7 500.5 C 190.2 503, 179.8 504.9, 177.7 503.8 C 176.7 503.3, 173.3 503, 170.2 503.1 C 161.7 503.5, 155.3 503.1, 156.8 502.2 C 158.2 501.3, 177 501.5, 181.5 502.5 L 184.5 503.1 182 501.5 C 179.6 499.9, 179.6 499.9, 184.5 500.4 C 188.1 500.8, 189.1 500.7, 188 499.9 C 186.8 499.1, 187 498.9, 189 499.1 C 191.7 499.3, 192.7 499, 200.5 495.5 C 213.5 489.8, 227 469.6, 221 465 C 218.1 462.8, 219.7 460, 225.6 457.1 C 227.9 455.9, 230.5 453.8, 231.4 452.5 L 233.1 450 236 452.2 C 239.3 454.6, 239.8 456, 237.5 456 C 236.1 456, 236.2 460.3, 237.7 461.9 C 238.4 462.8, 240.1 460.3, 240.3 458.1 C 240.6 454.3, 246.2 451.5, 249.9 453.4 C 253.3 455.2, 260.2 455.5, 263 454 C 264 453.5, 265.7 451.5, 266.9 449.5 C 268.1 447.3, 269.7 446, 270.9 446 C 276.6 446, 285.3 440.9, 283.2 438.8 C 282.3 437.9, 281.7 437.9, 280.8 438.8 C 280.1 439.5, 278.7 440, 277.6 439.9 C 276.2 439.9, 276 439.7, 277 439.3 C 282.3 437.5, 284.8 435.6, 286.9 432 C 288.6 428.9, 289.6 428, 290.9 428.6 C 291.8 428.9, 293.9 429.2, 295.7 429.1 C 297.4 429, 299.1 429.4, 299.5 430 C 299.9 430.6, 299 431, 297.5 431 C 295.5 431, 294.9 431.4, 295.4 432.5 C 296.2 434.6, 295 434.4, 292.3 431.9 C 290.1 429.8, 290 429.8, 289.3 431.6 C 289 432.6, 288.4 433.7, 288 434 C 286.1 435.6, 285.4 439.6, 286.7 441.6 C 288.4 444.3, 287.1 448.2, 283.5 450.6 C 280.9 452.3, 280.2 454.6, 282.2 455.2 C 284.6 456, 281.8 458, 278.2 458 L 274.5 458 277.1 460.6 C 279.8 463.2, 286.4 465.3, 290.3 464.7 C 291.5 464.5, 291.9 464.5, 291.2 464.7 C 290.4 465, 290.1 465.8, 290.4 466.6 C 290.7 467.4, 289.8 468.6, 288 469.5 C 286.4 470.3, 284.4 472.3, 283.5 473.9 C 281.1 478.6, 271.4 486.5, 263.2 490.5 C 253.4 495.2, 252.7 495.5, 245.5 498 C 238.5 500.4, 233.5 500.7, 239.5 498.3 C 241.7 497.5, 245.1 496.1, 247 495.3 C 248.9 494.5, 251.4 493.5, 252.5 493 C 265.9 487.5, 280.7 477.5, 279.7 474.6 C 279.5 474, 281 472.5, 283.2 471.2 C 287.5 468.6, 288.1 467, 284.8 467 C 283.5 467, 280.7 465.9, 278.6 464.6 L 274.6 462.2 271.7 466.2 C 269 469.9, 269 470.3, 270.6 471.5 C 272.5 472.8, 269.8 474.5, 257.6 479.4 C 249.2 482.9, 236.6 480.5, 232.6 474.8 C 230.7 472.2, 230.9 472, 228.1 479.4 C 226.9 482.7, 224.2 488, 222 491.2 L 218.1 497 221.3 498.8 C 223.8 500.1, 227 500.5, 236 500.5 C 247.7 500.5, 249.8 500, 258.3 495.3 C 259.9 494.5, 261.4 494, 261.6 494.3 C 262.2 494.8, 256.6 499, 255.3 499 C 254.9 499, 253.2 499.7, 251.5 500.6 C 245.1 503.9, 226.8 503.9, 220.4 500.5 C 218.8 499.7, 217 499, 216.5 499 C 215.1 499, 208 506.3, 208 507.7 C 208 509.1, 213.8 510, 224 510 C 230.1 510, 232.1 510.3, 231.3 511.1 C 230.6 511.8, 226.1 512.1, 218.1 511.9 L 206 511.5 205.4 514.2 C 205.1 515.8, 204.1 517.5, 203.2 518.1 C 200.4 519.8, 215.6 518.1, 223.5 515.8 C 237.4 511.7, 253.2 503.7, 268.5 493.2 C 282.1 483.9, 301.2 465.1, 305.4 457 C 306.9 454, 309.5 449, 311 446 C 315.1 437.8, 317.3 422, 314.3 422 C 313.4 422, 311 429, 311 431.5 C 311 432.4, 310.5 432.8, 309.9 432.5 C 309.3 432.1, 309.2 430.6, 309.5 428.9 C 310.3 425.1, 310 425.2, 305.2 430 C 301.1 434.1, 297 435.8, 300.5 432 C 301.5 430.9, 301.8 430, 301.2 430 C 298.7 430, 300.1 427.8, 303.5 426.5 C 308.5 424.4, 309.9 421.2, 307 418.8 C 304.3 416.6, 303.3 416.6, 299.6 418.5 C 296.3 420.2, 293.4 420.4, 292.5 419 C 292.2 418.5, 290.2 418, 288.2 418 C 283.5 418, 275 415, 273.6 412.8 C 272.1 410.3, 273.5 409.5, 276.2 411.4 C 277.4 412.3, 280.3 413, 282.5 413 L 286.5 413 281.5 410.6 C 276.8 408.5, 271.8 403.9, 270.8 400.8 C 269.9 398.1, 266.8 402.1, 267.4 405.2 C 267.7 406.7, 267.5 408.2, 267 408.5 C 266.4 408.8, 266 408.5, 266 407.7 C 266 406.9, 265.3 405.7, 264.5 405 C 263.6 404.3, 263.1 402.8, 263.2 401.7 C 263.6 399.2, 261.2 398.4, 250.8 397.7 C 246.8 397.4, 244.8 397.4, 246.4 397.8 C 248 398.2, 249.5 399.1, 249.8 399.8 C 250.3 401.4, 248.5 401.3, 243.5 399.5 C 241.3 398.7, 237.5 398, 235 398.1 L 230.5 398.1 234.3 399.4 C 241.4 402, 244.4 406.1, 245.5 415.2 C 247.6 431.6, 233.5 442.8, 219.4 436 C 212.3 432.5, 209.5 427.8, 209.7 419.9 C 209.9 413.8, 209.7 413.2, 207.7 412.6 C 206 412.2, 205.8 411.8, 206.8 410.8 C 207.7 409.9, 208.3 409.9, 209.2 410.8 C 210.1 411.7, 210.9 411.1, 212.5 407.8 C 214.1 404.3, 215.6 403, 220.7 400.5 C 230 396, 229.2 395.4, 212.5 394 C 206.6 393.6, 201.6 392.9, 201.3 392.6 C 200 391.4, 216.7 392.1, 221.9 393.5 C 226.2 394.6, 228.9 394.7, 235 393.9 C 242.7 392.8, 256.6 393.2, 262.8 394.5 L 266 395.2 265.9 390.4 C 265.8 387.7, 265.6 386.3, 265.3 387.3 C 264.7 389.4, 260.9 388.7, 256.7 385.6 C 252.6 382.6, 228.6 381.1, 209.5 382.7 M 595.7 391.3 C 594.4 394.1, 592.4 398.8, 591.4 401.5 C 590.5 404.3, 589.2 407.1, 588.6 407.8 C 588 408.7, 588 409.4, 588.7 409.8 C 589.2 410.2, 589.8 413.6, 589.9 417.5 C 590 421.3, 590.3 424.6, 590.5 424.8 C 590.7 425, 590.2 426.7, 589.4 428.5 C 587.6 432.9, 587.6 433.8, 589.8 434.3 C 591.1 434.7, 590.9 434.8, 589.3 434.9 C 588 434.9, 587 435.4, 587 435.9 C 587 436.4, 586.7 437.5, 586.4 438.4 C 585.9 439.6, 586.4 439.7, 588.6 439.1 C 590.5 438.6, 591.7 437.4, 592.4 435.3 C 593 433.6, 594.7 431.2, 596.3 430 C 597.9 428.7, 599 426.9, 599 425.4 C 599 422.3, 597.4 422.3, 596.6 425.4 C 596.3 426.7, 595.1 428, 594 428.3 C 592.3 428.7, 592.2 428.5, 593.1 426.8 C 593.8 425.4, 593.8 424.5, 593 423.6 C 592.2 422.6, 592.3 422.1, 593.5 421.6 C 596 420.7, 595.3 418.8, 592.8 419.6 C 590.7 420.2, 590.8 420, 593.3 418.1 C 596.4 415.6, 596.8 414.2, 594.4 414.4 C 593.5 414.4, 592.5 413.9, 592.3 413.2 C 592 412.5, 592.4 412.2, 593.3 412.6 C 594.1 412.9, 595.1 412.7, 595.5 412.1 C 595.8 411.5, 595.5 411, 594.7 411 C 593.2 411, 593.3 404.2, 594.8 403 C 595.6 402.4, 596.1 400.6, 596.4 397 C 596.6 395.6, 597 393.8, 597.3 393 C 600.8 384.6, 599.6 383.2, 595.7 391.3 M 307.7 397.1 C 307.3 400, 306.4 403.2, 305.7 404.4 C 304.3 406.4, 304.6 406.5, 311.3 408.7 C 320.8 411.8, 325.1 409.8, 322 404 C 320.6 401.5, 321.1 400.7, 323.4 401.6 C 324.6 402.1, 324.9 403, 324.4 406.1 C 323.8 409.8, 323.9 410, 326.4 410 C 329 410, 329.1 409.9, 328.8 404.8 L 328.5 399.5 324 398.2 C 321.5 397.4, 317.2 395.8, 314.5 394.4 C 308 391.3, 308.4 391.2, 307.7 397.1 M 331.7 401.7 C 330.8 402.6, 330.8 407.2, 331.8 408.6 C 332.2 409.2, 334.5 410.7, 336.9 412 L 341.4 414.2 343.2 412 C 345.9 408.6, 345.5 407.7, 339.1 404.2 C 332.7 400.7, 332.6 400.7, 331.7 401.7 M 221.7 405.5 C 217.6 408.3, 216.5 411.3, 217.3 416.8 C 218 420.7, 222.7 426, 225.6 426 C 226.6 426, 226.2 425.2, 224.3 423.6 C 219.4 419.4, 222.6 406.7, 229.3 404 C 231.3 403.2, 231.2 403.1, 228.5 403.1 C 226.8 403, 223.8 404.1, 221.7 405.5 M 347.3 413.5 C 344.6 417.6, 344.5 418, 346.4 418 C 347.2 418, 348.1 418.9, 348.5 419.9 C 348.8 421, 351.6 424.2, 354.7 427 C 360 431.9, 360.5 432.1, 365.3 431.8 C 368.3 431.6, 370.5 431, 370.8 430.2 C 371.3 428.7, 353 410, 351 410 C 350.2 410, 348.5 411.6, 347.3 413.5 M 318.3 413.7 C 315.6 414.2, 315.5 415.9, 317.5 421.5 C 318.3 423.7, 319 426.4, 319 427.5 C 319 429.1, 319.4 428.9, 320.9 426.4 C 322 424.6, 323.3 422.9, 323.9 422.5 C 325 421.9, 329 414.7, 329 413.5 C 329 412.9, 321.7 413, 318.3 413.7 M 331 414.9 C 331 417.4, 329.1 420.7, 323.8 427 C 318.7 433.2, 314.6 443.3, 318.5 440 C 319.3 439.3, 320 437.9, 320 436.9 C 320 435.8, 320.5 435, 321 435 C 321.6 435, 322 435.7, 322 436.5 C 322 438.3, 323.2 438.4, 324.8 436.8 C 326.5 435.1, 326.3 432.7, 324.5 433.4 C 322.5 434.1, 322.6 432.6, 324.6 430.9 C 326.3 429.5, 335.4 416, 334.8 415.6 C 334.7 415.5, 333.7 414.8, 332.8 414.1 C 331.2 412.9, 331 413, 331 414.9 M 213.1 417.6 C 211.5 422.6, 213.9 428.4, 219.2 432.1 C 223.6 435.3, 232.6 435.4, 236.6 432.4 C 240.2 429.8, 241.2 427.2, 237.9 429.3 C 229.6 434.6, 217.5 428.5, 215.2 417.8 L 214.3 413.5 213.1 417.6 M 737.8 417.5 C 737.5 417.8, 733.9 418.5, 729.9 419 C 719.1 420.5, 707.1 422.8, 710 422.9 C 711.4 422.9, 717.2 422.2, 723 421.3 C 728.8 420.5, 741.4 419.5, 751 419.2 C 761.4 418.9, 767.3 418.4, 765.5 418 C 762 417.1, 738.6 416.8, 737.8 417.5 M 338.2 420.6 C 335.9 422.2, 328 433.8, 328 435.7 C 328 436.5, 328.9 436.6, 331 436 C 332.8 435.5, 338 435.6, 343.6 436.2 C 352 437.1, 353.4 437, 354.8 435.6 C 356.3 434.1, 355.9 433.5, 350 427.4 C 342 419.3, 340.9 418.7, 338.2 420.6 M 611 423.8 C 611 425.6, 602.6 438.3, 598.3 443 C 597 444.4, 596 445.9, 596 446.3 C 596 446.8, 594.8 448.9, 593.3 450.9 C 591.7 452.9, 590 455.4, 589.4 456.5 C 588.8 457.6, 587.4 458.9, 586.2 459.5 C 584.9 460, 584.2 461.1, 584.5 461.8 C 584.8 462.6, 584.1 464.4, 583 466 C 580.6 469.3, 580.4 472.9, 582.5 475.6 C 584.3 478, 584.4 479, 582.6 479 C 580.2 479, 578 481.9, 578 485.1 C 578 489.5, 584.7 489.4, 587.2 485 C 589.9 480.3, 592.5 481.4, 589.9 486.1 C 589 487.9, 589.1 488, 590.9 486.8 C 592.1 486.1, 593 485, 593 484.3 C 593 483.6, 593.7 483, 594.5 483 C 595.3 483, 596 483.8, 596 484.8 C 596 486.2, 596.2 486.3, 597 485 C 597.7 483.8, 600.2 483.6, 609.8 483.9 C 616.4 484, 626.2 483.7, 631.6 483 C 646.9 481.2, 668 478, 673.5 476.7 C 680.1 475.1, 708.2 475.2, 713.5 476.8 C 715.7 477.5, 722.7 478.3, 729 478.6 C 735.3 479, 741 479.6, 741.5 480 C 743.8 481.7, 755.4 479, 757.7 476.2 C 760.7 472.6, 760.7 470.5, 757.8 471.5 C 748.8 474.3, 720.2 474.6, 708.2 472 C 700.8 470.4, 681.8 471.2, 667 473.9 C 636.9 479.2, 618.9 481.4, 611.1 480.6 C 608 480.3, 601.8 479.8, 597.3 479.5 C 586.6 478.8, 584.4 478, 583.6 474 C 583.3 472.2, 583.3 470.3, 583.7 469.6 C 586.7 464.5, 596.3 450.2, 600.6 444.5 C 605.6 437.9, 613 425, 613 422.9 C 613 422.4, 612.6 422, 612 422 C 611.5 422, 611 422.8, 611 423.8 M 756.5 429 C 732 433.8, 720.8 435.8, 713 436.9 C 708.1 437.5, 707.8 437.7, 710.3 438.4 C 711.8 438.9, 714.3 438.9, 715.8 438.6 C 717.3 438.2, 722.3 437.2, 727 436.4 C 731.7 435.6, 739.1 434.2, 743.5 433.4 C 747.9 432.6, 755.2 431.4, 759.8 430.8 C 764.3 430.2, 768 429.3, 768 428.8 C 768 427.8, 762.1 427.9, 756.5 429 M 99.5 437.6 C 89.9 439.2, 53.9 439.1, 49 437.5 C 46.8 436.7, 46.6 436.8, 47.9 438.3 C 48.6 439.2, 50.9 440.5, 52.9 441.1 C 56.1 442.1, 89.4 445.3, 94.5 445.1 C 103.2 444.9, 106.4 444.3, 107 443 C 107.4 442.2, 108.2 440.5, 108.8 439.3 C 109.5 438, 110 436.8, 110 436.5 C 110 435.9, 110.8 435.8, 99.5 437.6 M 365.2 437 C 359.8 439.2, 359.8 448.7, 365.3 452 C 368.8 454.1, 372.3 454, 375 451.5 C 376.7 450, 376.8 450.2, 376.3 456.4 C 375.6 464.8, 376.9 466.8, 385.6 471.1 C 389.2 472.9, 392.9 475.5, 393.8 476.9 C 395.8 480.2, 398 482, 399.9 482 C 400.9 482, 400.3 481, 398.3 479.4 C 395.4 477.2, 395 476.3, 395 472 C 395 467.4, 394.7 467, 389.5 462.5 C 386.5 459.9, 383.8 456.9, 383.5 455.9 C 382 451.4, 380.7 454.2, 381.3 460.5 C 381.7 464.4, 381.5 467, 381 467 C 380.4 467, 380 463, 379.9 457.8 C 379.8 447, 378.1 442.7, 373.7 442.2 C 369.9 441.7, 370.3 439.8, 374.1 440.2 C 376.8 440.5, 377.8 441.5, 381.1 446.9 C 383.2 450.4, 384.7 453.6, 384.5 454.1 C 384.2 454.5, 386.9 457.4, 390.6 460.4 C 394.2 463.5, 398.3 467.4, 399.7 469.1 C 401.2 470.8, 402.9 471.9, 403.7 471.6 C 404.4 471.3, 405.9 471.6, 407 472.2 C 410.5 474.4, 410.3 472.1, 406.6 467.5 C 404.6 465.1, 399.7 460.2, 395.8 456.8 C 387.8 449.8, 380.6 442.7, 377.3 438.7 C 375 435.8, 370 435.1, 365.2 437 M 330.5 439.9 C 321.8 442.2, 318.7 444.6, 317.4 449.4 C 316.7 452.3, 316.7 452.3, 320.1 451.6 C 322 451.2, 328.1 450.5, 333.8 450 C 344.9 449.2, 345.9 448.8, 344.1 446.6 C 342.5 444.7, 344.4 443.6, 346.9 445 C 348 445.5, 349.8 446, 350.9 446 C 353.7 446, 353.7 442.4, 350.9 440.9 C 348.2 439.5, 334.5 438.8, 330.5 439.9 M 79.6 455.9 C 78.1 457.6, 77.9 458.3, 78.8 459.2 C 81.1 461.5, 80.3 463.4, 77.7 461.7 C 74.1 459.4, 72.5 461.1, 75 464.3 C 76.2 465.8, 77.7 467, 78.3 467 C 79 467.1, 81.8 468.1, 84.5 469.4 C 90 472, 91.1 471.5, 90.9 466.5 C 90.9 464.9, 90.9 462.8, 91 462 C 91.3 459.1, 92.9 464.4, 92.9 468.8 C 93 472.1, 93.4 473, 94.8 473 C 95.7 473, 97.4 473.7, 98.4 474.5 C 99.5 475.3, 101.2 475.8, 102.1 475.5 C 103.1 475.2, 104.1 475.4, 104.5 476 C 105.2 477.1, 109.1 477.4, 108.9 476.3 C 108.6 474.3, 109.1 473.9, 110.5 475 C 112.6 476.8, 113.5 475.5, 112.2 472.6 C 110.5 468.7, 90 455.2, 84.6 454.3 C 82.3 453.9, 81 454.4, 79.6 455.9 M 321.5 456.6 C 318.8 457.3, 315.4 458.5, 314.1 459.2 C 311.6 460.6, 305 469.6, 305 471.7 C 305 473.1, 308.6 473.5, 309.4 472.2 C 311.4 468.9, 331.9 467, 337.4 469.5 C 339.1 470.2, 339.2 470.1, 338.5 468.4 C 338.1 467.4, 337.5 463.9, 337.2 460.8 L 336.8 455 331.6 455.1 C 328.8 455.2, 324.3 455.9, 321.5 456.6 M 567.7 463.2 C 565.7 467.5, 563.6 473.8, 563 477.2 C 560.7 492.2, 559.7 493.2, 552.8 488.1 C 550.5 486.4, 548.4 485.3, 548.1 485.6 C 547.5 486.2, 556.1 494, 557.4 494 C 557.9 494, 557.5 494.9, 556.6 495.9 C 554.8 497.9, 555.7 499.4, 557.9 498.1 C 558.6 497.6, 560.1 497.5, 561.1 497.7 C 562.6 498.1, 562.9 497.9, 562.3 496.5 C 561.9 495.2, 562 494.9, 562.8 495.4 C 563.5 495.8, 564 496.8, 564 497.6 C 564 499.3, 565.6 499.5, 566.2 497.8 C 567.1 495.4, 565.8 494, 562.8 494 C 560.3 494, 560 493.8, 560.9 492.6 C 562.4 490.8, 566 476.6, 566 472.5 C 566 469.4, 568 465.5, 570.7 463.3 C 571.6 462.6, 572 460.9, 571.8 458.8 C 571.5 455.6, 571.3 455.8, 567.7 463.2 M 65.4 467.3 C 63.2 469.1, 59.4 472.2, 57 474.2 L 52.7 478 54.5 481.3 C 58.6 489, 58.2 488.9, 66.2 483.5 C 73.5 478.6, 79 474.1, 79 473.1 C 79 472.7, 78.1 471.9, 77 471.2 C 75.2 470.1, 74.1 470.5, 67.9 474.5 C 64.1 477, 60.5 479, 60.1 479 C 59.6 479, 59 479.6, 58.7 480.3 C 58.4 481.1, 57.9 481.2, 57.2 480.5 C 56.4 479.8, 57.9 478.3, 62 475.6 C 69.4 470.7, 72.4 467.6, 71.7 465.6 C 70.8 463.4, 70.1 463.6, 65.4 467.3 M 532.1 467.6 C 530.6 471, 533.9 474.8, 541.5 478.4 C 546.9 481, 548.4 480.7, 549.4 476.4 C 550.7 471.4, 545.3 466.3, 537.7 465.5 C 533.7 465, 533.2 465.2, 532.1 467.6 M 261.3 469.7 C 252.8 473.7, 244.7 474.4, 240.4 471.5 C 237.6 469.7, 232 467.8, 232 468.6 C 232 470.8, 237.8 476.1, 241.7 477.4 C 251.1 480.6, 260.4 478.1, 266.3 470.8 C 270.3 465.8, 269.8 465.7, 261.3 469.7 M 354 471.5 C 352.7 472.9, 352.1 474, 352.7 474 C 354.2 474, 352.1 479.8, 349.2 483.4 C 348 485, 346.7 487.5, 346.4 488.9 C 346.1 490.3, 345.5 492.9, 345.1 494.5 C 344.7 496.2, 344.5 498.4, 344.6 499.5 C 345.5 505.2, 346.3 508, 347 508 C 347.4 508, 348 509.4, 348.4 511.1 C 348.8 513.4, 349.4 514, 350.7 513.6 C 354.2 512.6, 361.3 517.2, 362.3 521 C 363.4 525.4, 362.6 533.2, 360.5 537.2 C 358.2 541.8, 359.1 541.5, 365.2 535.5 C 380.9 520.1, 384.9 492.4, 373.6 477.4 C 367.6 469.3, 358.6 466.6, 354 471.5 M 317.5 473 C 311.5 474.4, 310 475.3, 309.4 477.6 C 308.7 480.1, 306.9 479.8, 303.6 476.4 C 301.6 474.4, 296.4 475.4, 295 478 C 293.9 480, 294.1 480.2, 302.3 485.5 C 305 487.3, 306.8 487.8, 309 487.3 C 311.9 486.8, 314.2 485, 312.1 485 C 311.5 485, 311 484.4, 311 483.8 C 311 482.9, 313.5 482.5, 319.8 482.4 C 324.6 482.3, 332 481.5, 336.3 480.5 C 344 478.8, 344.1 478.7, 342.3 476.8 C 338.2 472.3, 327.4 470.6, 317.5 473 M 41.1 489.6 C 32 499.2, 30.1 502.4, 31.6 505.7 C 32.3 507.3, 32.4 507.2, 32.7 505.3 C 33 504, 33.5 503, 34 503 C 35.6 503, 36.1 504.9, 35 507 C 33.4 510, 34.6 509.5, 41.9 504.1 C 49.1 498.7, 56 491.8, 56 490 C 56 488.5, 52.3 481.3, 51.1 480.6 C 50.6 480.3, 46.1 484.3, 41.1 489.6 M 287.3 485.3 C 280.7 490.1, 272.5 496.3, 271.5 497.3 C 270.8 497.9, 273.6 498.1, 279.3 497.7 C 284.2 497.4, 288.7 496.7, 289.3 496.1 C 289.9 495.5, 291 495, 291.8 495 C 293.3 495, 304 490.3, 304 489.6 C 304 489.2, 291.5 483, 290.8 483 C 290.6 483, 289.1 484, 287.3 485.3 M 88 493.7 C 90.8 496.7, 94 503.1, 94 505.5 C 94 506.3, 94.9 507, 96 507 C 97.2 507, 98 506.3, 98 505.4 C 98 504, 98.2 504, 99.5 505.4 C 101 506.8, 112.4 507, 113.8 505.6 C 114 505.3, 113 503.1, 111.5 500.6 C 110 498.1, 109.3 496, 109.8 496 C 110.4 496, 112.1 498.3, 113.7 501 C 116.4 505.8, 116.7 506, 120.8 506 C 123.1 506, 125 505.6, 125 505 C 125 504.5, 124.6 504, 124.1 504 C 123.3 504, 120.5 495.3, 120.8 493.8 C 120.9 493.3, 120.7 493, 120.3 492.9 C 114 492.5, 107.4 492.1, 97.5 491.5 L 85.5 490.8 88 493.7 M 81.3 494.3 C 77.3 496.5, 65.9 507.2, 63.2 511.2 L 60.6 515.2 63.5 517.7 C 66.2 520.1, 66.4 520.1, 67.2 518.4 C 67.9 516.9, 67.9 517.1, 67.6 519 C 67.3 520.4, 67.9 523.2, 68.9 525.2 L 70.6 529 78.3 519.2 L 86.1 509.5 83.4 507.1 C 81.3 505.3, 79.9 504.9, 77.3 505.3 C 74 505.9, 72.7 504.4, 75.5 503.4 C 76.6 502.9, 76.8 502.4, 76 501.5 C 72.4 497.1, 81.1 500.5, 88.5 506.4 C 91.6 508.9, 92.2 509.1, 91.6 507.5 C 91.2 506.4, 90.4 504.2, 89.9 502.5 C 88.6 498.1, 85.7 493, 84.5 493 C 84 493.1, 82.5 493.6, 81.3 494.3 M 419 499.2 C 417.6 499.8, 415 501, 413.3 501.8 C 410.2 503.1, 408.5 507, 411 507 C 411.6 507, 412.3 507, 412.7 507 C 413.1 507, 413.5 506.2, 413.5 505.3 C 413.5 502.1, 418.7 501.3, 423 503.8 C 425.2 505, 427.7 506, 428.7 506 C 429.8 505.9, 429.1 505.2, 426.8 504 C 420.8 500.8, 421.2 500, 428.9 500 C 435.8 500, 443.7 501.4, 447.2 503.1 C 449 504, 450.7 502.6, 449.1 501.5 C 443.8 498.3, 424.5 496.8, 419 499.2 M 493.5 511.2 C 484.7 512.8, 459.7 526, 449.9 534.2 C 447.4 536.3, 444.9 538, 444.4 538 C 441.7 538, 421 554.8, 421 557 C 421 559, 425.2 558.4, 431.5 555.3 C 437.9 552.2, 442 551.6, 440.5 554 C 439.7 555.3, 441 555.3, 443 554 C 444 553.4, 444.1 553, 443.3 553 C 440.8 553, 442.1 551.5, 446.3 549.6 C 448.6 548.5, 451.8 547.1, 453.4 546.3 C 455 545.6, 457.2 545.2, 458.2 545.6 C 459.2 545.9, 460 545.7, 460 545.1 C 460 544.5, 460.7 544, 461.5 544 C 462.3 544, 463 543.6, 463 543 C 463 542.5, 464.2 541.7, 465.6 541.4 C 470.3 540.2, 480.5 533.4, 480.2 531.6 C 480 530.5, 480.7 530, 482.4 530 C 483.8 530, 485.5 529.1, 486.3 528 C 487.1 526.9, 487.9 526.2, 488.2 526.5 C 488.7 527.1, 493.3 523.6, 501.8 516.2 C 508.7 510.2, 506.3 508.8, 493.5 511.2 M 122.7 511.7 L 119.9 512.1 122.3 516.3 C 124.4 519.9, 126.1 524.6, 126.4 527.3 C 126.5 527.7, 126.8 528, 127.3 528 C 127.7 528, 128.4 528, 128.9 528 C 129.4 528, 129.2 525.9, 128.4 523.3 C 126.6 517.4, 127.1 517, 129.9 522 C 131.1 524.2, 132.4 526, 132.7 526 C 133.4 526, 144.4 522.8, 144.8 522.5 C 145.2 522.2, 141.2 515.8, 138.7 512.8 C 137.3 511, 130.4 510.6, 122.7 511.7 M 614 511.9 C 614 512.4, 613.2 513, 612.2 513.3 C 609 514.1, 604.4 520.9, 605.7 522.8 C 606.8 524.5, 607.9 524.6, 613.3 523.9 C 617 523.4, 620.2 527.9, 618.2 531 C 617.2 532.7, 617.3 533, 619.5 533.6 C 620.9 533.9, 622.5 535, 623.1 535.9 C 623.9 537.1, 624 536.6, 623.6 533.8 C 623.1 529.7, 624.8 529.4, 626.5 533.3 C 627.2 534.7, 628.5 535.6, 630.5 535.8 C 635.6 536.2, 638 537, 638 538.1 C 638 538.8, 636.8 539, 634.6 538.6 C 631.8 538.1, 631.2 538.3, 630.7 540 C 630 542.7, 636.8 545.7, 648 547.6 C 652.7 548.4, 658.8 550, 661.5 551.2 C 669.5 554.5, 686.7 559.7, 688.3 559.2 C 688.7 559.1, 690.7 560.1, 692.8 561.5 C 694.8 562.9, 696.9 564, 697.4 564 C 697.9 564, 699.3 564.9, 700.4 565.9 C 702.9 568.2, 709.6 572, 711.1 572 C 711.7 572, 711.2 571.1, 709.9 570.1 C 706.4 567.3, 708.3 566.4, 712 569 C 714.5 570.8, 714.9 571.5, 713.8 572.2 C 712.9 572.9, 713 573, 714.5 572.8 C 716.1 572.5, 716.4 571.8, 716.2 569.5 C 715.7 565.5, 713.6 562.8, 702.3 551.9 C 689.7 539.9, 674.3 531.7, 649.5 524 C 638.3 520.6, 634.7 519.2, 624.3 514.3 C 617.1 511, 614 510.2, 614 511.9 M 176.5 514 C 168.6 517.2, 164.8 532.7, 168.7 545.5 C 172 556.2, 174 559.5, 175.5 557 C 175.9 556.4, 176.5 556.2, 177 556.5 C 179.2 557.9, 192 552, 192 549.6 C 192 548.5, 187.6 545.4, 183.5 543.6 C 181.5 542.8, 181.5 542.8, 183.7 541.8 C 185.4 541, 186.5 541.1, 188.4 542.4 C 190.9 544, 191 544, 191.6 541.3 C 191.9 539.7, 192.6 536.8, 193.1 534.8 C 194.6 528.7, 191.5 524, 184.3 521.4 C 180.6 520.1, 180.6 520.1, 183.5 520.1 C 187.9 520.2, 189.6 521.1, 192.6 525 L 195.2 528.5 194.7 524.6 C 193.9 519.6, 189.8 515.2, 185.1 514.4 C 183.1 514.1, 180.8 513.7, 180 513.5 C 179.2 513.3, 177.6 513.5, 176.5 514 M 108.8 517.8 C 98.3 522, 92.4 525.8, 90.6 529.8 C 88.7 533.7, 88.8 533.9, 92 534.5 C 93.3 534.7, 96 536.1, 98.1 537.6 C 100.2 539, 102.5 539.9, 103.2 539.6 C 103.9 539.2, 106.3 537.9, 108.5 536.6 C 110.7 535.2, 114.9 533, 117.8 531.6 C 124 528.6, 124.6 527.4, 123 522.3 C 120.4 514.3, 118.9 513.9, 108.8 517.8 M 58.4 520.2 C 58 521.6, 58.2 522.6, 59 522.8 C 59.7 523.1, 61.8 524.7, 63.7 526.4 L 67.1 529.5 64.5 530.7 C 62.2 531.7, 62 531.6, 62 529.6 C 62 527.2, 57.7 524.4, 55.8 525.6 C 55.3 526, 51.7 531, 47.9 536.8 L 40.9 547.3 43.6 550.1 C 45 551.6, 45.9 553.3, 45.6 553.8 C 44.7 555.3, 48.4 556.2, 51.2 555.1 C 56.7 553, 67.1 537.9, 67.6 531.2 C 67.8 528.4, 67.1 526.5, 64.3 522.8 C 60.4 517.4, 59.4 517, 58.4 520.2 M 150.5 527 C 144.6 527.7, 139.3 529.9, 134.5 533.6 C 131 536.3, 129.8 538.7, 132.4 537.7 C 134.3 537, 140 543.3, 140 546 C 140 547.1, 139.6 548, 139 548 C 138.5 548, 138 547.3, 138 546.4 C 138 545.5, 136.4 543.2, 134.4 541.2 L 130.7 537.5 128.1 540.7 C 126.7 542.4, 123.2 548.4, 120.3 553.9 L 115.1 564 117.9 564 C 122.8 564, 127 566, 127 568.3 C 127 570.4, 127 570.4, 129 568.2 C 130.2 567, 131.5 566, 131.9 566 C 133.7 566, 140 555.1, 140.1 551.8 C 140.2 549.5, 140.4 549.2, 140.7 550.8 C 141.2 553.1, 142.5 553.7, 143.5 552.1 C 144.3 550.7, 152.9 545, 154.1 545 C 154.6 545, 155 544.6, 155 544 C 155 543.5, 155.7 543, 156.6 543 C 157.7 543, 158 542.4, 157.5 541 C 156.8 538.7, 158.5 538.2, 159.4 540.5 C 159.7 541.3, 160.5 542, 161.1 542 C 162.1 542, 161.9 528.4, 160.8 527.5 C 159.8 526.7, 154.8 526.4, 150.5 527 M 89 538.9 C 89 539.4, 90.2 540.1, 91.8 540.5 C 95 541.3, 98 543.8, 98 545.7 C 98 547.4, 96.5 547.4, 95 545.5 C 93.5 543.7, 88.4 543.5, 87.7 545.3 C 87.4 545.9, 85.7 550.1, 83.9 554.5 C 80.2 563.8, 78.1 572.5, 78 579.2 C 78 583.9, 78 583.9, 82.1 585 C 84.3 585.6, 86.9 586, 87.8 585.8 C 90.8 585.2, 94.8 572.9, 97 557.7 L 99.1 543.5 96 540.8 C 93.1 538.1, 89 537, 89 538.9 M 156.2 548.1 C 152.2 550.1, 133 569.3, 133 571.3 C 133 571.8, 133.8 571.9, 134.8 571.6 C 139.3 570.2, 158 569.1, 163 569.9 C 169 570.8, 172.6 570.8, 173.7 569.7 C 174.9 568.4, 170 560, 167.9 560 C 166.9 560, 166 559.6, 166 559 C 166 558.5, 166.7 558, 167.5 558 C 169.5 558, 169.4 557.8, 166.3 551.4 C 163.4 545.3, 162.4 545, 156.2 548.1 M 198.5 549.2 C 197.4 549.8, 193.7 553.2, 190.3 556.6 C 186 560.9, 183.8 562.4, 183.1 561.7 C 181.6 560.2, 177 562.5, 177 564.7 C 177 565.7, 177.9 567.9, 179 569.7 C 181.1 573.3, 179.7 575.7, 177.4 572.5 C 175.6 570.1, 174.7 571.1, 175.6 574.4 C 176.1 576.6, 176.5 576.8, 178.2 575.9 C 180 574.9, 180.1 575, 179 577 C 177.8 579.2, 177.8 579.2, 174.3 575.6 C 171 572.2, 167.4 570.4, 169.8 573.3 C 172.8 577, 174.8 581.8, 173.7 582.9 C 172.9 583.7, 173 584, 174.2 584 C 175.1 584, 176.5 585.5, 177.3 587.3 C 178.2 589, 180.9 593, 183.4 596.1 L 187.8 601.7 197.1 602.9 C 202.3 603.5, 209.7 604.5, 213.5 605.1 C 222.9 606.6, 248.2 605.6, 253.5 603.6 C 256.6 602.4, 257 602.1, 255.1 602 C 253.1 602, 253 601.8, 254 600.5 C 256.6 597.4, 253.5 596, 244 596 C 230.8 596, 225.7 591.2, 234.3 586.9 C 236.6 585.7, 238.7 584.5, 239 584.1 C 240.6 582.1, 244 581, 244 582.5 C 244 585.2, 246.1 584.1, 247.6 580.5 C 248.4 578.5, 250.5 574.7, 252.2 571.9 C 255.6 566.4, 255.2 565.1, 250 564.9 C 245.9 564.8, 244.5 563.8, 239.1 557.3 C 234.7 552.1, 233.1 550.9, 228.6 549.6 C 222.1 547.7, 201.6 547.5, 198.5 549.2 M 39.2 550.6 C 37 554.8, 32 571.6, 32.1 574.4 C 32.2 577.3, 32.4 577.1, 34.7 572 C 36 569, 38.7 564, 40.6 560.9 L 44.1 555.3 42.2 552 C 40.4 549.1, 40.1 548.9, 39.2 550.6 M 90.7 550.6 C 90.3 551, 90 553.3, 90 555.6 C 90 558, 89.4 561.7, 88.6 563.7 C 84.2 575.5, 82.3 584, 84 584 C 85.6 584, 90 571.2, 92.1 560.8 C 93.1 556.1, 92.1 549.2, 90.7 550.6 M 120.7 569.5 L 124 570.9 121.7 573.4 L 119.5 575.9 119.2 573.6 C 118.9 571.7, 114.4 568.2, 113.5 569.2 C 109.9 573.4, 109 583.1, 111.6 588.3 C 114.6 594.3, 121 602, 123 602 C 127.1 602, 133 591.6, 133 584.4 C 133 579.1, 124.1 568, 119.9 568 C 117.8 568.1, 117.9 568.2, 120.7 569.5 M 255.3 571.2 C 252.8 574.2, 252.7 577.7, 255.1 579.4 C 256.9 580.6, 257.6 580.7, 258.2 579.7 C 258.8 578.8, 259.2 578.8, 259.9 579.9 C 261.8 582.8, 263.9 580.4, 263.3 575.8 C 262.6 570.6, 263 571.1, 259.4 570.4 C 257.5 570, 256 570.3, 255.3 571.2 M 268.4 570.8 C 265.6 571.4, 265.3 571.8, 266.1 573.8 C 266.9 575.8, 267.5 576.1, 270 575.5 C 272.5 575, 272.9 575.1, 272.4 576.4 C 271.6 578.6, 273.6 578.4, 278.9 575.7 C 284.6 572.9, 285.3 571, 280.7 571 C 278.8 571, 276 570.8, 274.4 570.6 C 272.8 570.4, 270.1 570.5, 268.4 570.8 M 137.3 574.7 C 135.5 574.9, 134 575.3, 134 575.4 C 134 575.6, 134.7 577.5, 135.6 579.6 C 137.7 584.5, 137 589.9, 133.6 596.9 C 132.2 599.9, 131 602.9, 131 603.5 C 131 605.2, 140.1 613.5, 144.6 615.9 C 149.1 618.3, 160.5 618.9, 161.3 616.8 C 161.5 616.1, 162.1 615.8, 162.5 616.2 C 162.9 616.6, 163 617.7, 162.6 618.6 C 162 620.1, 160.8 620.2, 153 619.8 C 143.2 619.2, 143.4 619.3, 131.6 608.6 C 127.9 605.2, 125 604, 125 605.8 C 125 607, 143.3 623.5, 148 626.5 C 155.4 631.2, 163.1 634.7, 169.8 636.4 C 177.8 638.4, 196 638.5, 201 636.4 L 204.5 635 200 635.8 C 183.7 638.4, 163.6 633.8, 151 624.5 C 146 620.8, 148.8 621.5, 158.7 626.4 C 174.5 634.2, 189.7 635.9, 206 631.7 C 209 630.9, 213.3 629.9, 215.5 629.5 C 220.3 628.7, 222 627.4, 222 624.8 C 222 623, 221.6 622.8, 218.8 623.4 C 217 623.8, 211.9 624.5, 207.5 625.1 C 203.1 625.7, 199.1 626.5, 198.6 627.1 C 196.8 628.8, 194.8 628.1, 195.2 625.8 C 195.5 623.7, 196.4 623.4, 206.2 621.9 C 212.2 621, 217.3 620.1, 217.6 619.8 C 218.8 618.5, 210.9 617.1, 199 616.5 C 190.1 616.1, 186.1 615.5, 184.9 614.4 C 184 613.6, 181.6 612.6, 179.6 612.3 C 175.1 611.6, 174.3 610.4, 176.6 607.9 C 177.9 606.4, 178.6 606.3, 179.7 607.1 C 185.3 611.9, 175.1 590, 169.2 584.9 C 160.7 577.4, 147.5 573.2, 137.3 574.7 M 288 576.5 C 287.3 577.4, 286 577.8, 285.1 577.5 C 284.1 577.2, 278.6 578.5, 272.7 580.4 C 266.8 582.3, 258.8 584.4, 255 585.1 C 247.1 586.6, 246.4 587.7, 251.3 591.2 C 255.7 594.3, 267.7 594.5, 273.6 591.5 C 279.3 588.6, 290.7 580.2, 291.4 578.4 C 292.6 575.2, 290.2 573.9, 288 576.5 M 653 588.3 C 653 590.9, 656.2 598.5, 657.6 599.3 C 658.4 599.7, 659 600.6, 659 601.3 C 659 602, 660.1 604.8, 661.5 607.5 C 663.1 610.7, 663.9 614.3, 664 617.5 L 664 622.4 666.1 618.5 C 669.1 612.7, 669 602.5, 665.8 596.8 C 662.9 591.6, 653 584.9, 653 588.3 M 80 592.3 C 80 600.1, 90 618, 96.7 622.1 C 100.2 624.3, 102.2 624.2, 99.5 622 C 98.7 621.3, 98 620.3, 98 619.8 C 98 619.3, 96.9 617.4, 95.6 615.7 C 94.3 613.9, 92.7 610.5, 92.1 608 C 90 600.4, 88.8 593.8, 89.4 593.2 C 90.5 592.2, 86.4 590.1, 83.3 590 C 80.5 590, 80 590.4, 80 592.3 M 673.5 596.2 C 674.6 596.8, 678.6 597.9, 682.5 598.6 C 691.5 600.2, 708.9 604.5, 712.5 606 C 715.5 607.3, 734.8 612.9, 743.5 615 C 749.8 616.5, 769.1 617.5, 767 616.2 C 766.2 615.7, 761.4 615, 756.3 614.6 C 747.7 614, 741 612.6, 727 608.5 C 724 607.6, 719.7 606.4, 717.5 605.8 C 715.3 605.2, 713.1 604.4, 712.5 603.9 C 712 603.5, 709.7 602.9, 707.5 602.5 C 705.3 602.1, 702.7 601.3, 701.8 600.8 C 697 598.4, 669.5 593.9, 673.5 596.2 M 377 620.7 C 375.4 621.3, 373 623.9, 373 625.1 C 373 629.1, 384 630.6, 386 627 C 388 623.2, 381.9 618.9, 377 620.7 M 288.6 637 C 282.2 639.7, 277.8 642.9, 278.6 644.2 C 279 644.9, 278.8 645, 278.2 644.6 C 276.7 643.7, 273 649.7, 273 653.2 C 273 656.2, 277.6 660.7, 281.8 661.6 C 283.3 661.9, 285.7 662.6, 287.1 663.2 C 292.1 665, 317.9 664.7, 323.5 662.7 C 333.6 659.1, 338 655.4, 338 650.3 C 338 645.9, 330.4 639.7, 323.4 638.4 C 321.2 638.1, 318.9 637.3, 318.2 636.7 C 315.5 634.6, 293.9 634.8, 288.6 637 M 294.4 637.9 C 280.4 641.5, 277.1 648.3, 286.6 653.7 C 291.5 656.6, 314 657, 322.4 654.5 C 328.1 652.8, 330 652.6, 330 653.9 C 330 658.6, 294.8 660.5, 285.8 656.3 C 280.8 653.9, 278 650.8, 278 647.5 C 277.9 645.5, 277.9 645.5, 276.5 647.4 C 272.9 652.2, 276.5 657.6, 285.1 660.4 C 292.5 662.8, 316.6 663, 323.5 660.6 C 337.2 656, 339.6 649.2, 329.5 643.5 C 321.1 638.9, 302.3 635.9, 294.4 637.9 M 42.5 656.7 C 39.5 657.3, 32.6 660.1, 32 660.8 C 31.7 661.2, 29.3 663.3, 26.5 665.5 C 19.6 670.9, 19.6 671, 24.7 673.8 C 31.9 677.6, 48.1 676.5, 53.8 671.8 C 54.5 671.2, 55.3 671, 55.6 671.3 C 55.9 671.6, 54.6 672.9, 52.8 674.3 C 45.6 679.7, 25.4 680.1, 20.9 674.9 C 18.6 672.2, 17.7 674, 19.9 676.8 C 21.9 679.5, 33.5 681.6, 41.2 680.6 C 48.5 679.6, 58.5 674.1, 57.9 671.4 C 57.8 670.9, 58.1 669.7, 58.5 668.6 C 59.8 665.6, 56.2 660, 51.5 657.9 C 47.5 656, 46.2 655.9, 42.5 656.7 M 34 661.6 C 29.6 664.1, 25 668.5, 25 670.1 C 25 673.7, 39.1 675.2, 46.8 672.5 C 56.3 669.2, 57.9 666.6, 53.3 661.8 C 49.6 657.9, 40.7 657.8, 34 661.6 M 695.3 662.2 C 689.1 663.6, 682.5 669.8, 683.4 673.4 C 684.1 676.4, 687.2 678.1, 697 680.6 C 710.5 684, 722.6 675.8, 715.6 668.1 C 711.1 663.1, 702.4 660.6, 695.3 662.2 M 693 665.5 C 691.1 666.4, 688.8 667.8, 687.8 668.7 C 685.6 670.7, 685.3 675.5, 687.4 674.7 C 688.2 674.4, 690.5 675, 692.6 676.1 C 697.4 678.5, 707.8 678.7, 712.6 676.4 C 723.7 671.1, 704.4 660.4, 693 665.5 M 265.7 680.2 C 263.1 680.9, 262 681.7, 262.4 682.6 C 262.7 683.4, 262.5 684, 261.9 684 C 259.5 684, 252.2 691.5, 251.3 694.8 C 249.5 702.2, 254.5 707.9, 264.8 710.1 C 281.3 713.5, 299 706.2, 299 695.9 C 299 692, 298.5 691.1, 293.7 686.5 C 286.4 679.4, 276.8 677.3, 265.7 680.2 M 271 682.1 C 269.1 682.7, 267.3 683.5, 267 683.8 C 266.7 684.2, 264.5 685.6, 262 686.9 C 254.2 691, 251.6 696.6, 256.3 699.2 C 266.6 705.1, 279.3 705.8, 287.7 701 C 295 696.8, 296.4 694.5, 294.2 690.8 C 292.3 687.5, 284.6 682, 282 682 C 281 682, 279 681.8, 277.4 681.6 C 275.8 681.3, 272.9 681.6, 271 682.1 M 295.6 697.7 C 294.8 700.2, 289.5 703.5, 283.2 705.6 C 275.7 708, 266.9 707.1, 259.2 703.2 C 255.9 701.6, 253.4 700.8, 253.6 701.5 C 254.4 703.5, 259.8 707, 263 707.7 C 264.7 708, 266.3 708.7, 266.6 709.1 C 267.5 710.6, 278.3 710, 283.7 708.1 C 290.5 705.8, 295.9 702.1, 296.6 699.2 C 297.4 696.4, 296.4 695.1, 295.6 697.7 M 545 723.9 C 543.1 724.2, 557.3 724.9, 576.5 725.3 C 607.1 726, 643.5 728, 651 729.5 C 652.4 729.8, 659.4 730.5, 666.5 731.1 C 708.6 734.4, 725.1 736.4, 738 739.4 C 751.4 742.6, 756.6 743.9, 760 744.9 C 761.9 745.5, 764.4 746, 765.5 745.9 C 768.4 745.8, 762.3 743.1, 758.9 743 C 757.5 743, 756 742.7, 755.6 742.3 C 754.3 740.9, 735.4 736.5, 724.5 735 C 720.7 734.4, 714.8 733.5, 711.5 733 C 708.2 732.4, 699.7 731.5, 692.5 730.9 C 685.4 730.4, 672.5 729.3, 664 728.5 C 621.8 724.7, 611.1 724.1, 581 723.6 C 563.1 723.4, 546.9 723.5, 545 723.9 M 48.8 746.1 C 41.8 749.7, 44.9 752.5, 56.1 752.4 C 63 752.3, 71 750.1, 71 748.2 C 71 747.2, 70.3 747, 68.8 747.3 C 67.5 747.7, 65.6 747.1, 63.9 746 C 60.4 743.4, 53.7 743.5, 48.8 746.1 M 656.4 744.6 C 655.8 744.9, 651.8 745.7, 647.4 746.5 C 636.8 748.3, 629.7 750.1, 628.5 751.1 C 627.9 751.5, 625.5 752.2, 623.2 752.6 C 620.9 753, 618.7 753.7, 618.4 754.1 C 618.1 754.6, 616.8 755, 615.6 755 C 613 755, 602.8 758.1, 603.3 758.7 C 603.5 758.9, 606.8 758.3, 610.6 757.5 C 614.4 756.6, 619.4 755.5, 621.7 755 C 624 754.5, 628.3 753.4, 631.2 752.5 C 634.1 751.6, 637.9 750.5, 639.5 750 C 641.2 749.5, 648.4 748.4, 655.6 747.5 C 681 744.3, 711.4 750.2, 741.8 764.2 C 745.3 765.8, 749.8 767.4, 751.8 767.6 C 755.4 768.1, 755.3 768, 750.5 766 C 747.8 764.9, 744.6 763.5, 743.5 763 C 721.9 753.1, 709 749, 688.3 745.5 C 679.8 744.1, 659 743.5, 656.4 744.6" stroke="none" fill="#1b1f3a" fill-rule="evenodd"/></svg>