<svg xmlns="http://www.w3.org/2000/svg" viewBox="0 0 768 768" version="1.1" preserveAspectRatio="xMidYMid meet">
	<path d="M 0 109.067 C 0 201.993, 0.092 207.108, 1.750 206.623 C 2.713 206.342, 6.200 205.592, 9.500 204.956 C 12.800 204.321, 18.875 203.141, 23 202.334 C 41.130 198.788, 59.291 199.732, 83 205.451 C 86.575 206.314, 95.350 208.151, 102.500 209.533 C 115.903 212.125, 118.961 212.837, 127.500 215.354 C 160.493 225.080, 188.263 227.099, 217 221.862 C 229.198 219.639, 250.165 219.710, 258 222.001 C 273.738 226.604, 311.341 225.083, 334.287 218.915 C 340.282 217.304, 360.793 216.664, 368.500 217.848 C 372.350 218.440, 379.325 219.641, 384 220.518 C 388.675 221.395, 399.750 222.472, 408.611 222.911 C 417.472 223.351, 425.212 224.013, 425.811 224.383 C 429.791 226.843, 443.706 229.308, 456.057 229.741 C 469.235 230.203, 473.557 229.790, 490 226.497 C 505.950 223.303, 510.943 222.756, 524 222.772 C 531.425 222.782, 541.325 223.297, 546 223.917 C 550.675 224.537, 559.900 225.494, 566.500 226.045 C 573.100 226.595, 580.660 227.485, 583.299 228.023 C 595.354 230.478, 616.134 228.608, 634 223.462 C 653.650 217.802, 671.355 217.005, 704 220.310 C 713.625 221.284, 728.762 222.481, 737.637 222.969 C 746.513 223.457, 757.088 224.097, 761.137 224.390 C 765.676 224.719, 767.144 224.629, 764.966 224.155 C 763.022 223.731, 760.913 223.064, 760.278 222.672 C 759.643 222.280, 744.359 220.828, 726.312 219.446 C 708.265 218.064, 686.910 216.419, 678.855 215.790 C 660.558 214.362, 655.696 214.961, 629.877 221.826 C 609.396 227.272, 601.161 227.796, 579 225.061 C 573.775 224.417, 563.875 223.256, 557 222.483 C 550.125 221.709, 539.904 220.522, 534.286 219.845 C 523.555 218.552, 510.776 219.447, 496 222.526 C 475.697 226.758, 471.894 227.245, 459.500 227.205 C 446.854 227.163, 441.695 226.312, 428 222.008 C 426.075 221.402, 417.075 220.499, 408 220 C 398.925 219.501, 390.600 218.871, 389.500 218.600 C 365.993 212.822, 339.392 213.353, 313.693 220.113 C 307.715 221.686, 283.375 222.330, 274 221.164 C 269.325 220.582, 258.575 219.177, 250.111 218.041 L 234.722 215.975 222.111 218.112 C 215.175 219.288, 207.250 220.610, 204.500 221.052 C 197.366 222.196, 178.641 222.138, 171 220.947 C 167.425 220.389, 160.225 219.295, 155 218.516 C 149.775 217.736, 140.325 215.697, 134 213.985 C 120.773 210.405, 117.828 209.734, 105.500 207.497 C 100.550 206.598, 91.100 204.603, 84.500 203.062 C 66.984 198.973, 61.137 198.002, 53.940 197.985 C 45.237 197.964, 43.190 196.489, 50.683 195.638 C 60.605 194.512, 78.627 191.732, 103 187.569 C 127.071 183.457, 164.865 182.281, 189.500 184.876 C 221.970 188.298, 233.632 188.229, 256 184.486 C 281.538 180.212, 285.719 179.644, 325.711 175.019 L 343.922 172.913 354.711 175.066 C 360.645 176.250, 367.300 177.600, 369.500 178.066 C 375.810 179.402, 396.540 179.100, 407.500 177.512 C 418.881 175.863, 450.366 175.525, 459.500 176.953 C 483.336 180.681, 519.926 181.375, 551 178.689 C 582.294 175.985, 640.368 174.616, 664 176.027 C 681.469 177.070, 734.482 178.685, 758.722 178.913 L 767.944 179 768.252 192.750 C 768.422 200.313, 768.550 162.175, 768.536 108 C 768.513 13.153, 768.502 12.590, 768.250 92.820 L 767.988 176.141 739.244 175.534 C 723.435 175.200, 700.825 174.381, 689 173.713 C 649.938 171.509, 581.145 172.629, 544 176.074 C 528.721 177.491, 480.426 176.691, 471 174.865 C 461.357 172.997, 413.616 173.061, 404.500 174.954 C 396.187 176.680, 376.336 176.861, 369.995 175.268 C 351.114 170.524, 339.144 169.635, 324.881 171.917 C 321.371 172.478, 312.200 173.649, 304.500 174.519 C 290.404 176.112, 283.211 177.118, 268.500 179.556 C 232.232 185.567, 225.112 185.848, 193.500 182.515 C 158.781 178.854, 130.213 179.753, 98.500 185.504 C 86.240 187.727, 72.627 189.895, 60.500 191.554 C 54.450 192.382, 44.550 193.781, 38.500 194.664 C 32.450 195.546, 22.100 196.545, 15.500 196.884 C 2.977 197.527, 4.158 198.833, 17.500 199.097 L 23.500 199.215 16.500 200.504 C 12.650 201.213, 7.813 202.123, 5.750 202.527 L 2 203.262 2 107.131 C 2 43.710, 1.660 11, 1 11 C 0.340 11, 0 44.356, 0 109.067 M 0.481 109 C 0.481 163.175, 0.602 185.337, 0.750 158.250 C 0.898 131.162, 0.898 86.837, 0.750 59.750 C 0.602 32.662, 0.481 54.825, 0.481 109 M 120 300.882 C 116.508 301.420, 118.524 301.727, 129 302.250 C 136.425 302.621, 146.775 303.635, 152 304.503 C 157.225 305.371, 165.550 306.699, 170.500 307.454 C 175.450 308.209, 183.325 309.570, 188 310.479 C 192.675 311.388, 199.502 312.664, 203.172 313.316 C 206.841 313.967, 210.179 314.837, 210.588 315.250 C 210.998 315.663, 212.063 316, 212.955 316 C 213.847 316, 216.360 316.888, 218.539 317.973 C 222.482 319.937, 222.489 319.937, 220.139 317.973 C 218.841 316.888, 217.153 316, 216.389 316 C 215.625 316, 215 315.550, 215 315 C 215 314.450, 214.094 314, 212.986 314 C 211.879 314, 210.191 313.562, 209.236 313.026 C 208.281 312.490, 204.575 311.564, 201 310.968 C 197.425 310.371, 190.900 309.224, 186.500 308.419 C 182.100 307.613, 174.225 306.329, 169 305.565 C 163.775 304.801, 158.825 303.920, 158 303.606 C 156.567 303.062, 141.662 301.459, 130 300.595 C 126.975 300.371, 122.475 300.500, 120 300.882 M 384.500 316.155 C 369.508 318.400, 357.461 320.675, 355 321.725 C 354.175 322.078, 351.025 322.927, 348 323.612 C 344.975 324.298, 339.350 325.581, 335.500 326.464 C 331.650 327.348, 324.698 328.743, 320.052 329.566 C 315.406 330.389, 311.393 331.274, 311.135 331.531 C 310.306 332.361, 318.357 331.945, 323 330.918 C 325.475 330.370, 330.425 329.308, 334 328.556 C 337.575 327.805, 343.425 326.460, 347 325.569 C 371.830 319.378, 389.658 316.667, 400.500 317.434 C 413.719 318.370, 435.980 320.892, 444.500 322.419 C 448.900 323.208, 456.325 324.527, 461 325.352 C 465.675 326.176, 471.525 327.299, 474 327.846 C 476.475 328.393, 481.650 329.077, 485.500 329.366 C 491.114 329.788, 491.708 329.712, 488.500 328.986 C 482.255 327.571, 469.283 325.017, 460.500 323.473 C 456.100 322.699, 448.675 321.389, 444 320.561 C 439.325 319.733, 431.450 318.591, 426.500 318.022 C 397.256 314.662, 395.108 314.567, 384.500 316.155 M 277 319.677 C 272.636 322.684, 269.169 327.310, 266.408 333.805 C 264.339 338.674, 263.361 339.967, 262.114 339.485 C 261.226 339.141, 259.150 338.628, 257.500 338.346 C 255.850 338.063, 253.375 337.460, 252 337.007 C 250.625 336.554, 246.182 335.141, 242.126 333.868 C 236.364 332.060, 233.461 330.401, 228.839 326.277 L 222.924 321 216.088 321 C 207.307 321, 198.780 324.245, 173.764 337.107 C 172.809 337.598, 171.009 338.014, 169.764 338.030 C 167.669 338.059, 167.638 338.141, 169.346 339.134 C 170.670 339.903, 171.505 339.895, 172.296 339.104 C 172.903 338.497, 174.010 338, 174.755 338 C 176.402 338, 183.194 335.039, 192.233 330.379 C 201.568 325.568, 209.579 323.054, 215.669 323.025 C 220.515 323.002, 221.194 323.325, 226.515 328.187 C 232.201 333.384, 237.590 335.887, 247.871 338.104 C 250.417 338.653, 255.006 339.642, 258.068 340.301 L 263.636 341.500 262.397 348.500 C 260.901 356.951, 260.687 367.233, 261.907 372 C 262.400 373.925, 263.040 377.164, 263.330 379.198 C 263.834 382.734, 263.755 382.857, 261.524 382.009 C 257.228 380.376, 226.851 378.795, 213.515 379.511 C 200.503 380.209, 178.105 384.885, 170.349 388.522 C 168.616 389.335, 166.960 390, 166.669 390 C 166.119 390, 153.629 395.489, 151 396.885 C 129.992 408.049, 126.476 410.550, 119.972 418.957 L 113.915 426.787 110.415 425.713 C 108.490 425.122, 105.246 423.132, 103.207 421.292 C 99.667 418.096, 99.589 417.890, 101.467 416.722 C 106.049 413.874, 114.144 404.737, 116.446 399.812 C 118.474 395.474, 118.936 394.982, 118.965 397.128 C 119.021 401.363, 116.130 407.185, 111.704 411.750 C 106.778 416.831, 107.733 417.175, 114.472 412.750 C 118.533 410.083, 119.577 408.782, 120.287 405.500 C 121.137 401.568, 120.702 388.423, 119.592 384.500 C 119.148 382.930, 120.193 381.669, 124.458 378.633 C 136.837 369.820, 138.540 357.632, 126.325 365.273 C 122.416 367.718, 116.687 370, 114.458 370 C 112.894 370, 111.760 367.198, 112.705 365.669 C 113.096 365.036, 113.475 363.145, 113.548 361.468 C 113.685 358.319, 116.553 353, 118.115 353 C 118.602 353, 119 352.427, 119 351.727 C 119 350.082, 125.495 346.570, 126.915 347.447 C 127.573 347.854, 128.013 347.209, 128.032 345.809 C 128.062 343.614, 128.133 343.592, 129.465 345.350 C 130.358 346.529, 131.345 346.902, 132.183 346.378 C 133.707 345.427, 134.428 345.262, 142.482 344.013 C 152.274 342.496, 153.095 338.773, 144.500 334.863 C 136.868 331.392, 123.046 333.023, 111.829 338.720 C 103.779 342.809, 87.483 359.658, 83.869 367.628 C 79.614 377.012, 79.226 385.036, 82.512 395.640 C 83.266 398.071, 85.858 397.678, 50 400.577 C 39.275 401.444, 28.700 402.558, 26.500 403.053 C 24.300 403.547, 17.438 403.962, 11.250 403.976 C 3.917 403.991, 0 404.374, 0 405.074 C 0 406.383, 23.644 405.833, 38.500 404.179 C 44 403.566, 54.350 402.577, 61.500 401.981 C 68.650 401.384, 76.569 400.662, 79.097 400.375 L 83.694 399.854 86.349 405.177 C 87.810 408.105, 91.024 412.750, 93.493 415.500 C 95.962 418.250, 97.986 420.786, 97.991 421.136 C 98.005 422.096, 66.614 423.328, 63.878 422.475 C 61.608 421.767, 55.778 417.621, 51.500 413.672 C 48.147 410.577, 42.272 408, 38.568 408 C 34.043 408, 24.486 412.223, 23.085 414.842 C 20.748 419.207, 23.256 425.692, 26.303 423.164 C 27.164 422.449, 28.068 422.301, 28.390 422.822 C 28.703 423.328, 30.205 423.993, 31.729 424.301 C 33.253 424.608, 35.400 425.164, 36.500 425.535 C 37.679 425.933, 37.268 425.349, 35.500 424.112 C 33.850 422.958, 31.825 422, 31 421.984 C 28.398 421.934, 24.847 418.561, 25.529 416.786 C 26.491 414.278, 32.271 411.999, 37.651 412.007 C 42.620 412.013, 44.798 413.041, 50.975 418.296 L 54.262 421.092 52.010 423.490 C 50.771 424.808, 48.237 426.609, 46.379 427.491 C 42.578 429.294, 41.729 431.521, 45.250 430.451 C 48.144 429.572, 53.986 425.200, 54.679 423.394 C 55.266 421.864, 58 421.457, 58 422.900 C 58 425.203, 68.467 426.247, 84.506 425.544 C 100.548 424.842, 100.827 424.865, 104.637 427.239 C 106.762 428.563, 109.287 429.937, 110.250 430.292 C 112.701 431.196, 112.430 432.472, 109.750 432.644 C 108.513 432.723, 104.575 433.276, 101 433.873 C 83.012 436.875, 48.959 436.010, 43.285 432.407 C 42.067 431.633, 39.984 431, 38.657 431 C 37.330 431, 34.629 430.325, 32.654 429.500 C 28.765 427.875, 18.523 427.420, 19.446 428.913 C 19.757 429.415, 21.875 430.141, 24.153 430.526 C 26.432 430.911, 29.790 431.850, 31.616 432.613 C 33.442 433.376, 36.721 434, 38.904 434 C 42.450 434, 43.097 434.400, 44.985 437.760 C 48.805 444.557, 51.060 445.231, 73 446.141 C 83.725 446.586, 95.313 446.684, 98.750 446.358 L 105 445.767 105 451.949 C 105 455.349, 105.466 459.002, 106.035 460.066 C 107.486 462.776, 106.045 462.477, 101.447 459.111 C 90.782 451.306, 86.405 449.745, 73 448.965 C 61.878 448.318, 46.456 449.039, 40.298 450.494 C 39.088 450.780, 31.888 451.699, 24.298 452.536 C -0.009 455.219, -0 455.217, -0 456.577 C -0 457.455, 1.050 457.746, 3.250 457.478 C 36.622 453.404, 43.758 452.778, 61.500 452.370 L 80.500 451.932 77 454.939 C 75.075 456.593, 72.735 457.958, 71.800 457.973 C 70.865 457.988, 69.740 458.640, 69.300 459.423 C 68.860 460.205, 64.225 464.297, 59 468.516 C 38.725 484.887, 29.463 495.624, 24.444 508.579 C 21.163 517.045, 20.906 518.359, 22.009 521.022 C 22.688 522.660, 23.794 524, 24.468 524 C 27.075 524, 31.592 520.960, 33.312 518.049 C 34.303 516.372, 35.749 515, 36.525 515 C 37.302 515, 37.706 514.398, 37.424 513.662 C 37.119 512.868, 38.602 511.206, 41.078 509.567 C 43.371 508.050, 48.903 503.343, 53.373 499.108 C 57.843 494.872, 65.550 488.671, 70.500 485.327 L 79.500 479.247 81.260 481.374 C 82.996 483.470, 83.012 483.448, 82.417 479.847 C 81.431 473.876, 84.284 473.865, 96.347 479.793 C 112.674 487.816, 112.707 487.960, 98.212 487.894 C 84.637 487.832, 81.741 488.722, 73.500 495.486 C 63.624 503.592, 59.068 508.911, 54.969 517.120 C 52.668 521.729, 47.613 530.183, 43.736 535.907 C 33.062 551.664, 27.804 567.468, 26.881 586.571 C 26.432 595.883, 32.875 599.092, 34.425 590.329 C 35.260 585.607, 38.234 578.009, 39.250 578.004 C 39.663 578.002, 40 577.557, 40 577.015 C 40 575.220, 46.377 565.631, 46.776 566.827 C 47.728 569.685, 49.106 567.609, 48.817 563.750 C 48.541 560.053, 48.778 559.460, 50.633 559.196 C 54.518 558.642, 60.713 552.151, 66.796 542.261 C 73.212 531.830, 86.904 514.673, 89.767 513.477 C 90.720 513.079, 96.225 512.550, 102 512.303 C 111.318 511.904, 112.218 512.009, 110 513.232 C 108.562 514.024, 105.744 514.441, 103.367 514.211 C 100.831 513.966, 98.947 514.276, 98.492 515.013 C 97.942 515.903, 98.622 516.035, 101.125 515.522 C 103.634 515.009, 102.704 515.763, 97.500 518.463 C 93.650 520.461, 89.693 522.894, 88.707 523.869 C 86.026 526.519, 83.865 535.610, 85.212 538.566 C 85.959 540.206, 85.974 541.337, 85.260 542.220 C 81.568 546.791, 74.957 567.531, 74.261 576.726 C 73.917 581.279, 73.276 584, 72.547 584 C 71.906 584, 70.509 584.706, 69.441 585.568 C 67.588 587.065, 67.628 587.109, 70.335 586.528 C 74.680 585.595, 77.295 586.769, 76.613 589.346 C 75.888 592.084, 77.871 604.018, 79.380 606 C 82.765 610.446, 84.150 614, 82.498 614 C 81.609 614, 81.148 614.430, 81.473 614.956 C 81.798 615.482, 82.655 615.686, 83.377 615.409 C 84.939 614.810, 90.384 621.570, 89.496 623.006 C 89.158 623.553, 89.533 624, 90.329 624 C 91.125 624, 94.065 625.575, 96.864 627.500 C 99.662 629.425, 102.586 631, 103.362 631 C 104.137 631, 106.060 631.672, 107.636 632.494 C 110.931 634.213, 114 634.457, 114 633 C 114 632.450, 113.325 632, 112.500 632 C 111.675 632, 111 631.400, 111 630.668 C 111 629.679, 112.484 629.409, 116.750 629.622 C 122.612 629.914, 122.389 629.771, 112.812 627.101 C 108.479 625.893, 103.162 622, 105.845 622 C 107.673 622, 107.188 620.194, 105.189 619.560 C 103.040 618.878, 100.830 614.111, 98.164 604.408 C 95.861 596.029, 93.659 591.473, 91.250 590.107 C 89.604 589.175, 89.601 589.038, 91.205 587.808 C 94.926 584.953, 97.921 574.793, 100.441 556.482 C 102.288 543.052, 101.959 543.420, 118.951 535.793 C 129.513 531.053, 129.738 531.067, 126.172 536.250 C 124.564 538.587, 119.722 547.649, 115.413 556.387 C 104.717 578.073, 104.255 584.878, 112.653 597.085 C 114.576 599.881, 115.905 602.806, 115.606 603.584 C 115.280 604.434, 115.689 605, 116.630 605 C 117.492 605, 122.517 609.525, 127.797 615.055 C 138.083 625.828, 146.538 632.072, 157.588 637.055 C 170.798 643.013, 187.353 644.530, 199.113 640.862 C 203.176 639.595, 207.141 638.621, 207.925 638.697 C 212.735 639.167, 226 628.775, 226 624.538 C 226 619.831, 218.567 615.625, 208.370 614.562 C 197.685 613.449, 188 611.728, 188 610.944 C 188 609.408, 203.453 608.688, 211.552 609.848 C 242.051 614.213, 269.054 605.864, 290.750 585.360 C 297.991 578.517, 297.932 576.056, 290.378 569.704 C 283.687 564.078, 281.337 563.348, 274.792 564.859 C 266.256 566.829, 258.811 566.320, 252.832 563.358 C 246.337 560.140, 246.845 560.565, 247.493 558.893 C 248.117 557.282, 252.400 556.644, 263.120 556.564 C 270.165 556.511, 270.581 556.394, 268.620 555.014 C 266.031 553.192, 249.058 553.104, 244.619 554.891 C 241.930 555.973, 241.499 555.792, 238.119 552.161 C 236.129 550.023, 233.065 547.539, 231.310 546.642 C 226.839 544.356, 208.907 543.136, 201.520 544.616 L 195.776 545.767 196.377 542.133 C 196.708 540.135, 196.983 537.338, 196.989 535.917 C 196.999 533.609, 197.559 533.218, 202.250 532.242 C 216.898 529.194, 222.705 527.095, 216.950 526.930 C 215.183 526.879, 216.034 526.242, 220 524.647 C 231.972 519.833, 244.509 513.754, 259 505.736 C 264.960 502.438, 265.874 502.213, 270 503.026 C 276.477 504.303, 282.830 504.190, 288.584 502.698 C 294.438 501.179, 310.952 491.151, 310.980 489.097 C 310.997 487.939, 312.960 487.807, 322.250 488.343 C 328.438 488.699, 335.668 488.993, 338.317 488.995 C 342.448 488.999, 343.056 489.250, 342.584 490.750 C 342.281 491.712, 341.637 495.408, 341.153 498.962 C 340.307 505.175, 340.405 505.678, 343.696 511.978 C 345.818 516.039, 348.256 519.184, 350.108 520.247 C 351.752 521.190, 352.981 522.533, 352.841 523.231 C 352.700 523.929, 352.923 525.781, 353.336 527.346 C 353.802 529.115, 353.645 530.723, 352.921 531.596 C 352.031 532.668, 352.037 533, 352.945 533 C 354.133 533, 353.457 536.937, 352.086 538 C 349.843 539.739, 343.749 554.149, 344.807 555.207 C 349.241 559.641, 375.074 533.243, 380.368 518.871 C 382.073 514.242, 382.074 514.241, 387.787 513.603 C 406.195 511.546, 411.817 511.261, 424.201 511.756 C 436.654 512.253, 438.514 512.096, 444.622 510.033 C 450.070 508.193, 452.833 507.849, 459.208 508.218 C 467.849 508.718, 468.475 507.406, 460.337 505.849 C 455.383 504.902, 448.017 506.128, 445.124 508.382 C 444.260 509.055, 435.523 509.531, 421.624 509.661 C 409.456 509.774, 397.700 510.336, 395.500 510.910 C 393.300 511.483, 389.547 511.963, 387.160 511.976 L 382.820 512 383.475 503.750 C 385.285 480.927, 376.293 466.822, 359.790 466.598 C 354.269 466.523, 353.602 466.761, 350.910 469.774 C 349.310 471.566, 347.963 474.037, 347.918 475.266 C 347.874 476.495, 347.164 474.358, 346.341 470.518 L 344.845 463.535 347.639 461.307 C 349.716 459.651, 352.111 458.981, 356.967 458.696 C 362.885 458.349, 362.773 458.323, 355.771 458.413 C 345.887 458.541, 343.462 460.439, 343.572 467.962 C 343.638 472.505, 343.551 472.688, 342.384 470.438 C 340.699 467.192, 339.626 459.627, 340.407 456.513 C 340.914 454.494, 341.658 454, 344.190 454 C 345.924 454, 348.193 453.230, 349.232 452.290 C 350.412 451.222, 351.381 450.958, 351.811 451.588 C 352.190 452.143, 354.513 453.186, 356.974 453.906 C 364.096 455.989, 370.577 460.807, 373.512 466.199 C 374.948 468.837, 377.107 471.507, 378.311 472.133 C 379.515 472.759, 383.030 475.662, 386.122 478.585 C 389.214 481.507, 392.992 484.211, 394.516 484.593 C 397.766 485.409, 418.408 484.566, 432 483.063 C 461.966 479.748, 501.960 478.180, 508.686 480.057 C 512.666 481.167, 514.620 483.187, 513.487 485.021 C 513.201 485.484, 513.425 486.144, 513.984 486.490 C 515.918 487.685, 515.102 497.261, 512.705 501.500 L 510.443 505.500 501.439 506.136 C 496.487 506.486, 490.200 507.527, 487.468 508.449 C 478.158 511.591, 459.801 522.150, 452.500 528.563 C 450.850 530.012, 445.687 533.516, 441.028 536.349 C 431.428 542.185, 418.273 554.065, 417.353 557.728 C 416.539 560.972, 418.354 562.604, 424.500 564.154 C 427.250 564.848, 429.673 565.533, 429.885 565.676 C 430.097 565.820, 426.929 569.057, 422.845 572.871 C 409.929 584.933, 409.140 589.731, 419.901 590.764 C 427.991 591.542, 433.442 589.744, 450 580.838 C 453.575 578.915, 458.075 576.746, 460 576.017 C 465.629 573.886, 486.156 565.033, 490.345 562.930 C 492.459 561.869, 494.848 561, 495.654 561 C 496.459 561, 496.895 560.640, 496.623 560.199 C 496.143 559.423, 501.113 557.757, 507.750 556.471 C 509.538 556.125, 511 555.418, 511 554.901 C 511 554.385, 509.924 554.232, 508.609 554.562 C 504.547 555.582, 504.831 553.367, 508.919 552.142 C 512.557 551.052, 523.638 549.423, 532.500 548.674 C 534.700 548.488, 532 548.232, 526.500 548.105 C 519.028 547.932, 517.098 547.634, 518.867 546.926 C 520.168 546.405, 524.893 546.011, 529.367 546.050 C 535.158 546.101, 539.084 545.545, 543 544.117 L 548.500 542.112 538 541.806 L 527.500 541.500 533.296 539.642 C 542.546 536.678, 544.950 536.904, 547.757 541 L 550.156 544.500 546.828 544.821 C 541.621 545.324, 540.675 547.216, 545.807 546.863 C 548.760 546.660, 550.406 547.028, 551.042 548.034 C 552.411 550.198, 552.207 550.988, 550.250 551.100 C 549.140 551.163, 549.411 551.453, 550.989 551.892 C 552.774 552.389, 553.482 553.281, 553.489 555.043 C 553.495 556.394, 553.950 557.872, 554.500 558.326 C 555.145 558.859, 555.037 559.339, 554.197 559.677 C 553.221 560.070, 553.347 560.546, 554.697 561.569 C 556.134 562.659, 556.196 562.946, 555 562.984 C 553.800 563.021, 553.766 563.199, 554.829 563.873 C 556.122 564.693, 558.033 576.247, 559.977 595 C 560.461 599.675, 560.890 614.160, 560.929 627.188 C 561.022 658.053, 563.261 669, 569.483 669 C 574.162 669, 581.275 658.022, 586.329 643 C 588.689 635.988, 589.411 632.461, 592.162 614.500 C 592.813 610.250, 593.021 599.568, 592.692 587.308 L 592.149 567.116 595.325 566.718 C 598.274 566.348, 598.225 566.309, 594.643 566.160 C 591.741 566.040, 590.922 565.645, 591.337 564.565 C 591.640 563.775, 591.395 562.965, 590.793 562.764 C 590.190 562.563, 589.479 559.766, 589.212 556.547 L 588.727 550.695 592.114 551.370 C 593.976 551.742, 595.650 552.485, 595.833 553.023 C 596.017 553.560, 596.804 554, 597.583 554 C 598.363 554, 599 554.675, 599 555.500 C 599 556.366, 599.905 557, 601.142 557 C 603.365 557, 616.722 564.997, 628 573.080 C 631.575 575.642, 636.075 578.535, 638 579.509 C 639.925 580.482, 641.725 581.603, 642 582 C 642.275 582.397, 644.075 583.571, 646 584.610 L 649.500 586.500 639 587.035 L 628.500 587.569 638.500 588.035 C 645.775 588.373, 648.432 588.841, 648.250 589.750 C 648.113 590.438, 648.450 591, 649 591 C 651.476 591, 649.796 594.010, 647.250 594.136 C 644.550 594.270, 644.545 594.281, 647 594.732 C 650.048 595.292, 652.172 596.913, 651.430 598.113 C 651.129 598.601, 651.359 599, 651.941 599 C 652.523 599, 653 599.437, 653 599.971 C 653 600.505, 654.462 603.018, 656.250 605.556 C 659.340 609.943, 659.497 610.607, 659.440 619.004 C 659.407 623.863, 658.888 628.437, 658.287 629.169 C 656.396 631.474, 656.319 635.415, 658.158 635.781 C 664.709 637.086, 674.569 612.546, 672.108 601.066 C 671.498 598.225, 670.998 594.686, 670.997 593.201 C 670.993 590.228, 666.033 577.393, 663.023 572.563 C 660.601 568.679, 642.419 551, 640.845 551 C 640.197 551, 639.908 550.758, 640.204 550.463 C 640.778 549.889, 657.830 553.375, 662 554.920 C 663.375 555.429, 669.784 557.484, 676.242 559.486 C 682.700 561.489, 688.578 563.721, 689.305 564.448 C 690.031 565.174, 692.468 566.708, 694.720 567.857 C 696.973 569.006, 698.970 570.321, 699.158 570.778 C 699.610 571.877, 710.514 576.249, 720.500 579.336 C 732.120 582.928, 743.311 587.025, 744.750 588.213 C 745.437 588.780, 745.997 588.852, 745.992 588.372 C 745.986 587.603, 739.172 583.121, 736.500 582.128 C 735.950 581.924, 734.150 581.163, 732.500 580.437 C 730.850 579.711, 727.587 578.624, 725.250 578.020 C 721.081 576.944, 721 576.841, 721 572.633 C 721 562.060, 703.073 544.023, 681.948 533.341 C 669.199 526.895, 667.843 526.313, 657 522.631 C 616.402 508.845, 615.043 507.591, 638 505.091 C 642.675 504.581, 651.675 503.198, 658 502.017 C 668.052 500.139, 672.396 499.906, 692.500 500.162 C 714.647 500.444, 715.723 500.368, 721.500 498.101 C 739.477 491.048, 741.601 490.699, 753.459 492.845 C 760.433 494.108, 768 493.622, 768 491.912 C 768 491.410, 766.228 491, 764.062 491 C 761.896 491, 757.059 490.281, 753.312 489.403 C 744.082 487.238, 733.271 487.959, 726 491.223 C 716.445 495.512, 711.691 496.215, 697 495.510 C 680.572 494.722, 650.764 498.067, 627 503.366 C 610.972 506.939, 602 512.561, 602 519.032 C 602 522.063, 605.358 528.994, 606.832 529.005 C 607.199 529.007, 609.213 530.582, 611.306 532.505 C 613.399 534.427, 615.536 536, 616.056 536 C 616.575 536, 617 536.620, 617 537.379 C 617 538.137, 618.462 539.337, 620.250 540.046 C 625.385 542.083, 626.249 542.993, 624.762 544.799 C 623.670 546.125, 623.849 546.245, 626.088 545.687 C 627.999 545.212, 629.930 545.838, 633.471 548.084 C 640.176 552.336, 646.032 557.980, 643.750 557.991 C 642.788 557.996, 642 558.648, 642 559.441 C 642 561.695, 644.007 562.372, 645.329 560.565 C 646.390 559.113, 646.968 559.383, 650.465 562.965 C 653.321 565.889, 653.937 567, 652.703 567 C 651.766 567, 651 567.499, 651 568.108 C 651 568.777, 651.946 568.979, 653.385 568.618 C 655.414 568.109, 656.302 568.802, 659.335 573.260 C 664.208 580.423, 664.896 583.558, 661.765 584.344 C 658.361 585.199, 651.818 583.207, 649.676 580.665 C 648.560 579.340, 647.670 578.938, 647.383 579.630 C 647.103 580.302, 642.781 578.041, 636.707 574.046 C 631.093 570.353, 620.425 563.394, 613 558.583 C 605.575 553.771, 598.375 548.981, 597 547.939 C 592.786 544.746, 588.100 542.748, 586.378 543.409 C 584.357 544.184, 584.796 552.049, 587.916 571 C 592.921 601.402, 587.384 638.718, 575.031 657.831 C 569.997 665.620, 569.301 665.933, 567.296 661.322 C 565.910 658.134, 565.513 651.861, 564.903 623.500 C 564.396 599.946, 563.686 586.735, 562.591 580.500 C 561.721 575.550, 560.745 568.575, 560.421 565 C 560.097 561.425, 559.226 557.150, 558.487 555.500 C 557.747 553.850, 556.143 549.655, 554.922 546.178 C 550.870 534.637, 545.910 532.026, 534.886 535.632 C 529.207 537.490, 491.329 556.392, 488.923 558.569 C 488.054 559.356, 487.067 560, 486.731 560 C 486.394 560, 481.384 562.250, 475.597 565 C 469.810 567.750, 464.768 570, 464.394 570 C 464.019 570, 457.590 573.078, 450.106 576.840 C 430.724 586.585, 417.557 590.250, 416.249 586.266 C 416.026 585.587, 420.379 580.443, 425.922 574.834 C 431.465 569.224, 436.012 564.380, 436.026 564.068 C 436.040 563.755, 437.952 562.656, 440.276 561.624 C 457.381 554.025, 474.272 544.316, 482.500 537.352 C 496.711 525.324, 505.916 518, 506.821 518 C 507.924 518, 513.979 510.743, 514.034 509.356 C 514.053 508.885, 514.937 506.700, 516 504.500 C 517.063 502.300, 517.947 499.712, 517.966 498.750 C 517.987 497.648, 518.833 496.957, 520.250 496.884 C 522.073 496.790, 522.151 496.678, 520.664 496.294 C 519.301 495.942, 518.980 495.216, 519.418 493.471 C 519.742 492.180, 519.556 490.843, 519.004 490.502 C 518.452 490.161, 518 488.720, 518 487.301 C 518 481.499, 513.482 475.523, 495.485 457.520 C 475.479 437.509, 471.104 431.360, 468.487 419.571 C 466.695 411.501, 467.951 402.498, 472.040 394.113 C 474.713 388.630, 483.221 380, 485.952 380 C 488.644 380, 488.569 380.561, 484.787 388.638 C 477.993 403.148, 481.338 420.177, 492.500 427.908 C 524.587 450.132, 532.917 454.973, 539.100 454.990 C 545.462 455.007, 552.935 448.204, 558.037 437.750 C 559.311 435.137, 560.676 433, 561.069 433 C 561.462 433, 562.088 431.785, 562.461 430.299 C 563.497 426.170, 570.762 411.820, 573.510 408.474 C 575.441 406.123, 576.144 405.789, 576.865 406.878 C 578.300 409.048, 580.204 407.299, 578.820 405.083 C 577.721 403.323, 580.813 397.053, 582.818 396.973 C 583.193 396.958, 585.750 394.944, 588.500 392.496 C 593.739 387.834, 604.794 381.461, 605.835 382.502 C 606.169 382.836, 605.827 383.489, 605.075 383.953 C 604.324 384.418, 603.979 385.504, 604.311 386.367 C 604.642 387.230, 604.543 388.164, 604.092 388.443 C 602.964 389.140, 599.704 406.919, 600.144 409.976 C 600.540 412.731, 610.495 418.417, 617 419.604 C 620.333 420.213, 620.404 420.167, 618.500 418.654 C 617.400 417.779, 615.874 417.049, 615.110 417.032 C 612.349 416.969, 604.755 412.485, 603.987 410.465 C 602.936 407.701, 603.519 404.591, 607.638 391 C 609.555 384.675, 611.625 377.790, 612.238 375.700 C 613.548 371.237, 614.552 370.383, 616.544 372.036 C 618.139 373.360, 618.565 379, 617.070 379 C 616.499 379, 616.494 380.235, 617.057 382.199 C 617.679 384.367, 617.622 385.616, 616.880 386.074 C 616.102 386.555, 616.125 386.959, 616.958 387.474 C 617.807 387.999, 617.656 388.723, 616.410 390.099 C 614.778 391.903, 614.786 392, 616.568 392 C 618.256 392, 618.222 392.156, 616.223 393.557 C 613.557 395.424, 613.344 396.989, 615.750 397.030 C 617.417 397.059, 617.417 397.109, 615.750 398.080 C 614.788 398.641, 614 399.582, 614 400.172 C 614 400.859, 614.539 400.797, 615.500 400 C 616.536 399.140, 617 399.102, 617 399.878 C 617 400.495, 616.636 401, 616.191 401 C 615.746 401, 614.509 401.706, 613.441 402.568 C 611.593 404.061, 611.644 404.109, 614.500 403.565 L 617.500 402.994 614.500 404.683 L 611.500 406.372 613.990 406.979 C 615.673 407.389, 616.078 407.834, 615.240 408.352 C 614.558 408.773, 613.971 408.754, 613.937 408.309 C 613.902 407.864, 613.442 408.579, 612.915 409.897 C 611.079 414.487, 617.867 418.275, 621.052 414.437 C 622.187 413.070, 622.023 412.956, 619.747 413.527 C 618.316 413.887, 616.325 413.704, 615.322 413.121 C 613.696 412.175, 613.682 412.058, 615.191 412.030 C 617.263 411.993, 618.193 410.592, 618.628 406.856 C 618.811 405.285, 619.192 402.762, 619.474 401.250 C 619.756 399.737, 620.273 393.550, 620.623 387.500 C 620.973 381.450, 621.394 376.344, 621.560 376.153 C 621.725 375.962, 622.790 377.627, 623.925 379.854 C 630.720 393.173, 631.319 406.538, 625.388 412.470 C 624.493 413.364, 624.076 414.410, 624.461 414.794 C 625.991 416.324, 631.843 408.232, 632.533 403.631 C 633.990 393.910, 629.372 378.828, 622.915 372.224 C 617.627 366.815, 610.870 368.531, 608.540 375.876 C 608.232 376.845, 606.157 378.080, 603.748 378.726 C 594.901 381.101, 580.880 392.511, 571.386 405.062 C 567.258 410.520, 565.476 413.574, 555.088 433 C 546.089 449.826, 543.905 451.836, 536.056 450.510 C 531.082 449.669, 503.338 432.318, 491.366 422.560 C 484.149 416.678, 482.845 401.534, 488.500 389.294 C 492.649 380.313, 492.794 378.566, 489.562 376.449 C 487.304 374.969, 486.801 374.995, 482.739 376.791 C 473.264 380.983, 465.226 395.505, 464.277 410.149 C 463.679 419.393, 463.781 419.847, 469.197 432 C 472.884 440.273, 493.010 462.462, 505.325 471.830 C 508.928 474.570, 509.688 475.561, 508.325 475.739 C 507.321 475.871, 497.725 476.434, 487 476.991 C 476.275 477.548, 457.825 478.661, 446 479.465 C 416.057 481.500, 418.299 481.651, 416.558 477.485 C 414.097 471.594, 404.294 459.437, 395.408 451.254 L 386.987 443.500 405.744 443.691 C 416.060 443.796, 429.450 444.168, 435.500 444.517 C 441.550 444.867, 448.975 444.790, 452 444.345 C 459.492 443.245, 428.451 441.659, 404.261 441.906 C 394.042 442.010, 386.241 441.664, 385.106 441.057 C 383.203 440.038, 369.470 423.109, 370.146 422.615 C 370.734 422.186, 393.984 419.731, 401.844 419.268 C 405.884 419.030, 410.384 419.304, 411.844 419.877 C 415.899 421.468, 422.692 422.433, 421.500 421.250 C 417.172 416.953, 405.179 416.298, 379.175 418.939 L 367.849 420.088 361.514 414.162 C 355.415 408.457, 350.097 405, 347.418 405 C 346.717 405, 345.548 404.412, 344.821 403.694 C 341.689 400.597, 331.386 395.976, 320.910 392.968 C 316.834 391.798, 312.375 390.509, 311 390.103 C 308.032 389.227, 307.300 386.104, 309.065 381.844 C 313.501 371.134, 308.164 356.409, 293.528 338.976 C 287.326 331.589, 284.915 327.917, 284.483 325.202 C 283.368 318.212, 281.320 316.700, 277 319.677 M 273.312 328.250 C 266.643 337.189, 263.340 366.656, 267.464 380.414 C 268.975 385.455, 269.387 386.045, 270.255 384.414 C 277.017 371.702, 292.252 371.023, 301.141 383.037 L 304.763 387.933 305.382 384.842 C 308.703 368.235, 303.310 353.798, 287.450 336.843 C 282.062 331.083, 281.580 330.947, 282.419 335.422 C 283.069 338.883, 281.694 341.251, 280.636 338.494 C 279.844 336.429, 277.778 336.607, 278.182 338.706 C 278.363 339.645, 279.633 340.675, 281.005 340.996 C 284.519 341.817, 285.154 346.698, 281.809 347.173 C 280.148 347.409, 279.583 348.062, 279.795 349.500 C 279.958 350.600, 280.293 354.650, 280.540 358.500 C 280.787 362.350, 281.229 367.229, 281.521 369.342 C 281.922 372.236, 281.738 373.038, 280.777 372.593 C 280.074 372.267, 278.761 371.736, 277.857 371.412 C 275.655 370.622, 274.736 361.787, 274.824 342.250 C 274.862 333.863, 274.747 327, 274.569 327 C 274.391 327, 273.825 327.563, 273.312 328.250 M 556 333.058 C 546.479 335.310, 542.098 336.569, 541.416 337.251 C 541.004 337.663, 540.042 338, 539.278 338 C 537.933 338, 530.293 341.074, 526.764 343.035 C 525.809 343.566, 524.432 344, 523.705 344 C 522.977 344, 521.509 344.682, 520.441 345.515 C 518.611 346.944, 518.671 346.994, 521.500 346.386 C 523.150 346.032, 524.928 345.350, 525.450 344.871 C 525.973 344.392, 527.029 344, 527.799 344 C 528.568 344, 530.616 343.360, 532.349 342.578 C 534.082 341.796, 538.650 340.199, 542.500 339.029 C 546.350 337.859, 550.850 336.446, 552.500 335.889 C 560.657 333.139, 578.842 333.741, 601 337.495 C 618.487 340.457, 641.670 343.002, 651.068 342.991 C 659.007 342.981, 680.924 340.728, 690 338.988 C 710.354 335.086, 742.217 335.130, 761.275 339.085 C 766.993 340.272, 768.750 340.022, 767.613 338.182 C 766.998 337.188, 760.352 335.876, 745.988 333.912 C 731.330 331.909, 706.784 333.386, 677 338.064 C 667.791 339.511, 635.728 339.545, 623.500 338.121 C 618.550 337.544, 609.550 336.364, 603.500 335.497 C 582.335 332.466, 578.429 332.088, 569 332.159 C 563.775 332.198, 557.925 332.602, 556 333.058 M 127 337.694 C 121.059 338.697, 111.743 343.654, 107.354 348.150 C 103.245 352.358, 102.044 356.640, 103.201 362.959 C 104.109 367.915, 104.501 368.473, 107.774 369.463 C 109.935 370.116, 110.016 369.955, 109.418 366.209 C 107.595 354.811, 124.465 338.375, 137.298 339.048 C 143.197 339.358, 145.034 338.899, 141.500 338 C 138.247 337.172, 130.999 337.019, 127 337.694 M 652.591 348.743 C 651.814 349.519, 657.904 351.669, 665 353.123 C 678.098 355.807, 701 354.917, 701 351.724 C 701 351.155, 699.885 351.088, 698.250 351.558 C 690.825 353.695, 662.788 352.028, 655.350 349.007 C 654.167 348.527, 652.926 348.408, 652.591 348.743 M 93.453 359.250 C 87.756 365.790, 84.866 372.868, 84.669 380.768 C 84.344 393.750, 92.396 412, 98.450 412 C 104.131 412, 115 400.502, 115 394.491 C 115 393.526, 115.464 393.169, 116.158 393.598 C 117.013 394.126, 117.164 392.497, 116.734 387.367 L 116.152 380.421 119.111 379.111 C 122.568 377.581, 132 368.676, 132 366.943 C 132 366.147, 131.258 366.281, 129.750 367.348 C 117.215 376.219, 117.274 376.193, 113.931 374.464 C 112.217 373.578, 110.562 373.105, 110.254 373.413 C 109.549 374.118, 103.049 370.215, 100.855 367.770 C 98.910 365.602, 97.636 359.721, 98.514 356.956 C 99.530 353.753, 97.401 354.718, 93.453 359.250 M 38.500 360.060 C 35.750 360.488, 28.550 361.553, 22.500 362.426 C 6.568 364.724, 2.375 366.019, 13 365.358 C 17.675 365.067, 24.200 364.362, 27.500 363.790 C 36.571 362.219, 49.309 361.186, 61 361.072 C 66.775 361.015, 72.175 360.533, 73 360 C 74.813 358.828, 46.090 358.878, 38.500 360.060 M 279.774 380.955 C 271.053 387.840, 275.462 402.005, 287.308 405.164 C 293.337 406.771, 295.887 405.555, 300.786 398.735 C 303.542 394.898, 304.066 393.437, 303.475 391.235 L 302.741 388.500 302.022 391.006 C 297.988 405.075, 284.226 408.965, 279.394 397.401 C 276.828 391.259, 278.922 381.486, 283.090 380.157 C 284.058 379.849, 283.930 380.351, 282.680 381.760 C 281.494 383.098, 280.971 384.978, 281.180 387.156 L 281.500 390.500 283.751 386.691 C 284.989 384.597, 286.451 383.161, 287.001 383.500 C 287.550 383.840, 288 383.416, 288 382.559 C 288 379.851, 291.097 380.862, 295.118 384.882 C 299.565 389.330, 300.441 387.645, 296.168 382.862 C 292.339 378.577, 284.014 377.608, 279.774 380.955 M 209.500 382.662 C 197.806 383.615, 176.731 389.397, 162.500 395.557 C 160.850 396.271, 157.250 397.835, 154.500 399.032 C 139.941 405.370, 123.163 419.607, 117.809 430.165 C 109.097 447.347, 108.502 451.140, 112.563 463.622 C 115.844 473.706, 122.127 483.695, 130.629 492.345 C 136.626 498.446, 145.356 504, 148.949 504 C 149.542 504, 150.809 504.424, 151.764 504.941 C 156.176 507.333, 165.502 508.965, 176.500 509.269 C 187.792 509.582, 188.836 509.788, 194.195 512.758 L 199.889 515.916 201.758 512.708 C 202.786 510.944, 204.499 507.784, 205.564 505.686 C 206.629 503.588, 210.550 498.451, 214.278 494.271 C 221.585 486.076, 227.320 475.567, 226.814 471.300 C 226.431 468.070, 224 466.922, 224 469.972 C 224 472.978, 220.374 480.655, 216.343 486.183 C 213.500 490.081, 201.728 499, 199.426 499 C 199.083 499, 197.384 499.655, 195.651 500.456 C 190.208 502.971, 179.766 504.945, 177.715 503.847 C 176.700 503.304, 173.312 502.985, 170.185 503.137 C 161.694 503.549, 155.307 503.092, 156.751 502.175 C 158.192 501.260, 177.030 501.470, 181.500 502.451 L 184.500 503.110 182 501.496 C 179.554 499.917, 179.608 499.894, 184.500 500.434 C 188.120 500.834, 189.086 500.700, 188 499.949 C 186.800 499.119, 187.001 498.949, 189 499.104 C 191.668 499.310, 192.698 498.991, 200.500 495.540 C 213.458 489.809, 227.033 469.551, 220.977 464.983 C 218.073 462.792, 219.695 460.006, 225.586 457.064 C 227.901 455.908, 230.529 453.842, 231.426 452.472 L 233.057 449.983 236.029 452.179 C 239.292 454.592, 239.827 456, 237.481 456 C 236.110 456, 236.238 460.297, 237.657 461.933 C 238.392 462.780, 240.104 460.264, 240.268 458.097 C 240.555 454.277, 246.219 451.545, 249.901 453.449 C 253.275 455.194, 260.198 455.500, 262.952 454.026 C 263.953 453.490, 265.708 451.465, 266.852 449.526 C 268.137 447.348, 269.702 446, 270.946 446 C 276.601 446, 285.298 440.898, 283.207 438.807 C 282.268 437.868, 281.733 437.867, 280.800 438.800 C 280.140 439.460, 278.677 439.964, 277.550 439.921 C 276.153 439.867, 275.978 439.679, 277 439.331 C 282.293 437.529, 284.832 435.643, 286.887 431.987 C 288.619 428.905, 289.620 428.041, 290.852 428.562 C 291.758 428.946, 293.929 429.190, 295.675 429.104 C 297.421 429.018, 299.135 429.409, 299.484 429.974 C 299.857 430.577, 299.020 431, 297.452 431 C 295.493 431, 294.939 431.398, 295.362 432.500 C 296.172 434.612, 295.016 434.364, 292.341 431.850 C 290.133 429.777, 290.027 429.768, 289.349 431.600 C 288.962 432.645, 288.376 433.725, 288.045 434 C 286.079 435.637, 285.362 439.610, 286.672 441.615 C 288.445 444.330, 287.075 448.249, 283.545 450.563 C 280.860 452.322, 280.201 454.567, 282.177 455.226 C 284.578 456.026, 281.758 458, 278.214 458 L 274.545 458 277.117 460.571 C 279.781 463.236, 286.413 465.295, 290.279 464.657 C 291.501 464.456, 291.904 464.490, 291.177 464.733 C 290.449 464.976, 290.096 465.807, 290.392 466.580 C 290.724 467.445, 289.800 468.569, 287.983 469.509 C 286.361 470.348, 284.364 472.329, 283.546 473.911 C 281.121 478.601, 271.377 486.532, 263.164 490.502 C 253.371 495.235, 252.680 495.527, 245.535 497.965 C 238.479 500.372, 233.481 500.683, 239.500 498.340 C 241.700 497.484, 245.075 496.126, 247 495.324 C 248.925 494.521, 251.400 493.491, 252.500 493.035 C 265.851 487.497, 280.670 477.473, 279.703 474.634 C 279.491 474.010, 281.046 472.462, 283.159 471.193 C 287.486 468.595, 288.090 467.002, 284.750 466.995 C 283.512 466.992, 280.728 465.917, 278.561 464.606 L 274.622 462.221 271.741 466.199 C 269.041 469.926, 268.971 470.258, 270.624 471.467 C 272.459 472.809, 269.764 474.457, 257.628 479.417 C 249.211 482.858, 236.595 480.543, 232.589 474.824 C 230.745 472.191, 230.913 472.017, 228.148 479.421 C 226.932 482.677, 224.183 487.969, 222.038 491.181 L 218.139 497.020 221.319 498.760 C 223.820 500.128, 226.959 500.500, 236 500.500 C 247.657 500.500, 249.817 500.001, 258.319 495.348 C 259.870 494.499, 261.358 494.025, 261.627 494.293 C 262.179 494.846, 256.647 498.997, 255.346 499.006 C 254.881 499.010, 253.150 499.721, 251.500 500.586 C 245.119 503.934, 226.842 503.885, 220.356 500.502 C 218.785 499.683, 217.029 499.010, 216.453 499.006 C 215.091 498.998, 208 506.259, 208 507.661 C 208 509.127, 213.819 509.976, 223.950 509.989 C 230.133 509.997, 232.103 510.297, 231.292 511.108 C 230.562 511.838, 226.069 512.094, 218.116 511.858 L 206.049 511.500 205.446 514.244 C 205.115 515.753, 204.091 517.466, 203.172 518.050 C 200.374 519.828, 215.626 518.126, 223.500 515.782 C 237.366 511.654, 253.167 503.718, 268.500 493.181 C 282.078 483.850, 301.180 465.101, 305.362 457 C 306.923 453.975, 309.458 449.025, 310.995 446 C 315.149 437.822, 317.312 422, 314.275 422 C 313.411 422, 311 429.026, 311 431.543 C 311 432.409, 310.524 432.824, 309.941 432.464 C 309.334 432.089, 309.155 430.571, 309.521 428.905 C 310.348 425.139, 310.010 425.225, 305.235 430 C 301.140 434.095, 297.035 435.829, 300.500 432 C 301.526 430.866, 301.810 430, 301.155 430 C 298.738 430, 300.144 427.838, 303.464 426.451 C 308.453 424.366, 309.939 421.178, 307.022 418.817 C 304.306 416.618, 303.335 416.577, 299.636 418.506 C 296.325 420.233, 293.387 420.436, 292.500 419 C 292.160 418.450, 290.221 417.998, 288.191 417.996 C 283.450 417.991, 275.016 414.972, 273.637 412.787 C 272.085 410.326, 273.508 409.542, 276.158 411.398 C 277.416 412.279, 280.257 412.996, 282.473 412.990 L 286.500 412.980 281.459 410.633 C 276.799 408.463, 271.791 403.855, 270.758 400.787 C 269.867 398.139, 266.777 402.136, 267.381 405.155 C 267.685 406.677, 267.499 408.191, 266.967 408.520 C 266.435 408.849, 266 408.472, 266 407.681 C 266 406.891, 265.308 405.671, 264.463 404.969 C 263.618 404.268, 263.055 402.787, 263.213 401.678 C 263.563 399.222, 261.175 398.448, 250.840 397.666 C 246.803 397.360, 244.813 397.423, 246.418 397.805 C 248.022 398.187, 249.522 399.063, 249.751 399.750 C 250.284 401.353, 248.502 401.273, 243.500 399.471 C 241.300 398.679, 237.475 398.043, 235 398.059 L 230.500 398.088 234.316 399.449 C 241.443 401.991, 244.369 406.102, 245.502 415.168 C 247.553 431.587, 233.497 442.776, 219.396 435.950 C 212.317 432.523, 209.463 427.791, 209.688 419.850 C 209.860 413.789, 209.685 413.151, 207.705 412.633 C 205.985 412.183, 205.790 411.810, 206.767 410.833 C 207.729 409.871, 208.265 409.865, 209.206 410.806 C 210.147 411.747, 210.860 411.077, 212.456 407.757 C 214.136 404.260, 215.602 402.967, 220.685 400.501 C 229.979 395.991, 229.205 395.382, 212.473 394.043 C 206.636 393.576, 201.592 392.925, 201.263 392.597 C 200.042 391.375, 216.699 392.077, 221.923 393.467 C 226.227 394.612, 228.933 394.697, 235.023 393.878 C 242.707 392.843, 256.642 393.161, 262.750 394.510 L 266 395.227 265.884 390.363 C 265.820 387.689, 265.562 386.288, 265.311 387.251 C 264.744 389.417, 260.876 388.684, 256.714 385.621 C 252.616 382.605, 228.638 381.103, 209.500 382.662 M 595.733 391.250 C 594.358 394.137, 592.427 398.750, 591.444 401.500 C 590.460 404.250, 589.200 407.097, 588.642 407.826 C 587.955 408.725, 587.962 409.370, 588.664 409.826 C 589.233 410.197, 589.794 413.640, 589.910 417.477 C 590.026 421.314, 590.280 424.613, 590.475 424.808 C 590.670 425.003, 590.193 426.687, 589.415 428.549 C 587.583 432.933, 587.631 433.757, 589.750 434.311 C 591.067 434.655, 590.943 434.797, 589.250 434.884 C 588.013 434.948, 587 435.413, 587 435.918 C 587 436.423, 586.738 437.519, 586.418 438.354 C 585.947 439.581, 586.363 439.730, 588.596 439.133 C 590.467 438.632, 591.703 437.389, 592.429 435.277 C 593.018 433.563, 594.737 431.191, 596.250 430.007 C 597.904 428.713, 599 426.887, 599 425.427 C 599 422.310, 597.398 422.279, 596.619 425.381 C 596.291 426.690, 595.125 427.996, 594.028 428.282 C 592.311 428.731, 592.181 428.531, 593.087 426.838 C 593.830 425.449, 593.818 424.485, 593.044 423.553 C 592.226 422.568, 592.335 422.085, 593.474 421.648 C 595.956 420.696, 595.291 418.776, 592.750 419.557 C 590.739 420.175, 590.792 420.015, 593.250 418.051 C 596.359 415.568, 596.783 414.156, 594.358 414.361 C 593.454 414.438, 592.517 413.937, 592.274 413.249 C 592.002 412.478, 592.401 412.217, 593.315 412.567 C 594.131 412.880, 595.095 412.656, 595.458 412.068 C 595.821 411.481, 595.479 411, 594.697 411 C 593.222 411, 593.308 404.152, 594.798 403.029 C 595.607 402.419, 596.118 400.553, 596.447 397 C 596.574 395.625, 596.963 393.825, 597.310 393 C 600.824 384.645, 599.553 383.233, 595.733 391.250 M 307.670 397.137 C 307.336 399.963, 306.439 403.213, 305.677 404.360 C 304.349 406.360, 304.582 406.540, 311.317 408.736 C 320.751 411.812, 325.129 409.847, 321.974 403.952 C 320.641 401.460, 321.077 400.709, 323.352 401.582 C 324.643 402.077, 324.858 403.036, 324.367 406.105 C 323.774 409.818, 323.870 410, 326.424 410 C 329.029 410, 329.096 409.853, 328.802 404.750 L 328.500 399.500 324 398.175 C 321.525 397.446, 317.244 395.759, 314.486 394.425 C 308.031 391.303, 308.377 391.166, 307.670 397.137 M 331.667 401.667 C 330.777 402.556, 330.843 407.215, 331.765 408.616 C 332.169 409.229, 334.500 410.745, 336.944 411.985 L 341.388 414.239 343.194 412.009 C 345.945 408.611, 345.482 407.727, 339.123 404.231 C 332.732 400.717, 332.646 400.688, 331.667 401.667 M 221.744 405.528 C 217.615 408.333, 216.465 411.280, 217.343 416.804 C 217.960 420.688, 222.714 426, 225.572 426 C 226.611 426, 226.204 425.219, 224.320 423.599 C 219.407 419.373, 222.625 406.699, 229.293 404.015 C 231.316 403.201, 231.249 403.122, 228.482 403.063 C 226.812 403.028, 223.802 404.129, 221.744 405.528 M 347.250 413.498 C 344.607 417.579, 344.530 418, 346.433 418 C 347.221 418, 348.143 418.875, 348.483 419.945 C 348.822 421.015, 351.612 424.187, 354.683 426.993 C 360.029 431.879, 360.479 432.083, 365.304 431.798 C 368.252 431.624, 370.516 430.975, 370.760 430.234 C 371.277 428.665, 353.012 409.995, 350.977 410.012 C 350.165 410.019, 348.488 411.588, 347.250 413.498 M 318.250 413.706 C 315.647 414.207, 315.495 415.854, 317.529 421.500 C 318.321 423.700, 318.978 426.400, 318.989 427.500 C 319.004 429.113, 319.378 428.892, 320.923 426.359 C 321.976 424.632, 323.331 422.914, 323.933 422.541 C 324.958 421.908, 329 414.727, 329 413.540 C 329 412.931, 321.685 413.044, 318.250 413.706 M 331 414.913 C 331 417.413, 329.057 420.689, 323.832 427.002 C 318.696 433.206, 314.572 443.260, 318.500 440 C 319.325 439.315, 320 437.910, 320 436.878 C 320 435.845, 320.450 435, 321 435 C 321.550 435, 322 435.675, 322 436.500 C 322 438.308, 323.167 438.433, 324.800 436.800 C 326.524 435.076, 326.314 432.666, 324.500 433.362 C 322.519 434.122, 322.580 432.593, 324.599 430.918 C 326.337 429.475, 335.386 415.969, 334.837 415.637 C 334.652 415.525, 333.712 414.831, 332.750 414.095 C 331.210 412.916, 331 413.014, 331 414.913 M 213.061 417.580 C 211.494 422.591, 213.946 428.402, 219.209 432.149 C 223.596 435.272, 232.629 435.414, 236.636 432.422 C 240.196 429.764, 241.227 427.163, 237.866 429.319 C 229.578 434.635, 217.473 428.476, 215.238 417.805 L 214.336 413.500 213.061 417.580 M 737.800 417.534 C 737.506 417.827, 733.944 418.505, 729.883 419.041 C 719.149 420.456, 707.093 422.772, 710 422.861 C 711.375 422.902, 717.225 422.218, 723 421.339 C 728.775 420.460, 741.375 419.502, 751 419.209 C 761.382 418.892, 767.280 418.383, 765.500 417.956 C 761.976 417.111, 738.579 416.754, 737.800 417.534 M 338.231 420.551 C 335.885 422.194, 328 433.848, 328 435.672 C 328 436.519, 328.869 436.611, 331.026 435.992 C 332.813 435.480, 337.979 435.551, 343.637 436.166 C 352.017 437.077, 353.423 437.006, 354.828 435.600 C 356.304 434.124, 355.909 433.458, 349.968 427.425 C 341.961 419.294, 340.907 418.677, 338.231 420.551 M 611 423.806 C 611 425.607, 602.610 438.259, 598.279 442.990 C 597.026 444.359, 596 445.869, 596 446.346 C 596 446.822, 594.763 448.854, 593.250 450.860 C 591.737 452.866, 590.013 455.406, 589.418 456.504 C 588.823 457.602, 587.355 458.947, 586.154 459.493 C 584.932 460.049, 584.200 461.079, 584.490 461.834 C 584.774 462.575, 584.105 464.448, 583.003 465.995 C 580.634 469.323, 580.435 472.871, 582.468 475.559 C 584.339 478.032, 584.368 479, 582.571 479 C 580.220 479, 578 481.949, 578 485.071 C 578 489.489, 584.678 489.433, 587.203 484.994 C 589.856 480.332, 592.464 481.397, 589.940 486.111 C 588.968 487.928, 589.051 487.985, 590.940 486.805 C 592.073 486.098, 593 484.952, 593 484.259 C 593 483.567, 593.675 483, 594.500 483 C 595.325 483, 596.007 483.788, 596.015 484.750 C 596.028 486.217, 596.181 486.262, 596.961 485.030 C 597.713 483.840, 600.169 483.618, 609.812 483.867 C 616.369 484.036, 626.181 483.650, 631.617 483.009 C 646.881 481.209, 667.961 478.035, 673.500 476.703 C 680.073 475.122, 708.237 475.176, 713.500 476.780 C 715.700 477.450, 722.675 478.286, 729 478.636 C 735.325 478.986, 740.950 479.612, 741.500 480.027 C 743.764 481.737, 755.411 478.985, 757.745 476.189 C 760.718 472.627, 760.721 470.541, 757.750 471.472 C 748.815 474.272, 720.235 474.558, 708.246 471.968 C 700.837 470.367, 681.817 471.248, 667 473.879 C 636.879 479.227, 618.867 481.389, 611.143 480.583 C 608.039 480.259, 601.804 479.766, 597.287 479.487 C 586.579 478.824, 584.442 477.961, 583.645 473.976 C 583.295 472.226, 583.310 470.278, 583.677 469.647 C 586.670 464.508, 596.298 450.205, 600.606 444.500 C 605.564 437.933, 613 424.990, 613 422.927 C 613 422.417, 612.550 422, 612 422 C 611.450 422, 611 422.813, 611 423.806 M 756.500 429.025 C 732.015 433.764, 720.810 435.782, 713 436.859 C 708.080 437.537, 707.792 437.702, 710.268 438.422 C 711.791 438.864, 714.266 438.931, 715.768 438.571 C 717.271 438.211, 722.325 437.235, 727 436.403 C 731.675 435.570, 739.100 434.219, 743.500 433.400 C 747.900 432.581, 755.212 431.408, 759.750 430.794 C 764.288 430.180, 768 429.300, 768 428.839 C 768 427.843, 762.111 427.938, 756.500 429.025 M 99.500 437.638 C 89.910 439.177, 53.873 439.056, 49 437.468 C 46.756 436.737, 46.639 436.823, 47.858 438.309 C 48.605 439.220, 50.855 440.463, 52.858 441.072 C 56.101 442.056, 89.426 445.315, 94.500 445.143 C 103.186 444.850, 106.387 444.294, 107.004 442.972 C 107.381 442.162, 108.209 440.494, 108.845 439.264 C 109.480 438.034, 110 436.796, 110 436.514 C 110 435.910, 110.807 435.823, 99.500 437.638 M 365.242 437.034 C 359.750 439.241, 359.775 448.677, 365.283 452.026 C 368.771 454.147, 372.289 453.953, 375.012 451.489 C 376.688 449.973, 376.752 450.226, 376.255 456.415 C 375.583 464.784, 376.881 466.832, 385.572 471.110 C 389.216 472.904, 392.909 475.526, 393.779 476.936 C 395.808 480.226, 397.975 482.003, 399.941 481.989 C 400.920 481.982, 400.290 481.025, 398.250 479.416 C 395.386 477.159, 395 476.282, 395 472.029 C 395 467.425, 394.749 466.987, 389.529 462.481 C 386.520 459.883, 383.789 456.912, 383.462 455.879 C 382.032 451.376, 380.728 454.187, 381.318 460.500 C 381.684 464.418, 381.542 467, 380.962 467 C 380.421 467, 379.968 462.958, 379.927 457.750 C 379.842 447.018, 378.112 442.708, 373.676 442.184 C 369.898 441.737, 370.327 439.806, 374.119 440.187 C 376.759 440.452, 377.831 441.482, 381.093 446.888 C 383.213 450.401, 384.728 453.630, 384.460 454.064 C 384.193 454.497, 386.942 457.371, 390.570 460.449 C 394.199 463.527, 398.316 467.410, 399.719 469.078 C 401.174 470.807, 402.874 471.879, 403.675 471.571 C 404.447 471.275, 405.941 471.571, 406.994 472.228 C 410.519 474.430, 410.319 472.096, 406.593 467.548 C 404.563 465.071, 399.688 460.222, 395.760 456.772 C 387.784 449.769, 380.602 442.721, 377.326 438.681 C 375.009 435.824, 369.964 435.137, 365.242 437.034 M 330.500 439.889 C 321.836 442.234, 318.652 444.554, 317.433 449.410 C 316.715 452.272, 316.748 452.300, 320.103 451.572 C 321.971 451.166, 328.135 450.474, 333.800 450.034 C 344.874 449.173, 345.928 448.823, 344.094 446.613 C 342.489 444.679, 344.352 443.583, 346.914 444.954 C 347.989 445.529, 349.798 446, 350.934 446 C 353.720 446, 353.677 442.433, 350.873 440.932 C 348.206 439.505, 334.510 438.804, 330.500 439.889 M 79.562 455.931 C 78.094 457.553, 77.922 458.322, 78.824 459.224 C 81.142 461.542, 80.271 463.408, 77.668 461.702 C 74.131 459.384, 72.465 461.050, 75.043 464.327 C 76.199 465.797, 77.675 467.016, 78.323 467.036 C 78.970 467.055, 81.750 468.127, 84.500 469.416 C 90.044 472.016, 91.113 471.531, 90.915 466.500 C 90.850 464.850, 90.875 462.825, 90.969 462 C 91.305 459.067, 92.858 464.415, 92.930 468.750 C 92.985 472.091, 93.374 473.007, 94.750 473.032 C 95.713 473.049, 97.376 473.726, 98.448 474.536 C 99.519 475.347, 101.168 475.764, 102.113 475.464 C 103.058 475.164, 104.121 475.387, 104.475 475.959 C 105.206 477.142, 109.063 477.397, 108.882 476.250 C 108.571 474.286, 109.133 473.866, 110.524 475.020 C 112.627 476.765, 113.546 475.494, 112.246 472.640 C 110.470 468.742, 90.024 455.203, 84.579 454.319 C 82.264 453.943, 80.991 454.353, 79.562 455.931 M 321.500 456.599 C 318.750 457.342, 315.426 458.521, 314.114 459.217 C 311.584 460.560, 305 469.604, 305 471.737 C 305 473.140, 308.583 473.483, 309.402 472.159 C 311.396 468.932, 331.874 466.973, 337.424 469.479 C 339.061 470.218, 339.226 470.061, 338.535 468.424 C 338.088 467.366, 337.505 463.913, 337.241 460.750 L 336.760 455 331.630 455.124 C 328.808 455.192, 324.250 455.856, 321.500 456.599 M 567.747 463.245 C 565.682 467.504, 563.553 473.804, 563.015 477.245 C 560.684 492.157, 559.725 493.177, 552.806 488.089 C 550.515 486.404, 548.403 485.263, 548.113 485.554 C 547.487 486.180, 556.089 493.997, 557.405 493.999 C 557.903 493.999, 557.536 494.855, 556.590 495.901 C 554.768 497.914, 555.692 499.426, 557.908 498.057 C 558.631 497.610, 560.078 497.469, 561.126 497.743 C 562.624 498.135, 562.884 497.861, 562.345 496.456 C 561.875 495.232, 562.028 494.899, 562.830 495.395 C 563.474 495.793, 564 496.766, 564 497.559 C 564 499.328, 565.615 499.466, 566.246 497.750 C 567.113 495.393, 565.831 494, 562.794 494 C 560.266 494, 559.955 493.759, 560.947 492.563 C 562.414 490.796, 565.972 476.615, 565.988 472.473 C 566 469.449, 568.027 465.532, 570.716 463.339 C 571.577 462.637, 572.013 460.856, 571.820 458.839 C 571.514 455.645, 571.337 455.835, 567.747 463.245 M 65.446 467.301 C 63.216 469.061, 59.430 472.182, 57.031 474.237 L 52.671 477.974 54.462 481.300 C 58.608 488.999, 58.161 488.915, 66.243 483.502 C 73.491 478.646, 79 474.135, 79 473.053 C 79 472.739, 78.086 471.910, 76.969 471.212 C 75.181 470.096, 74.098 470.487, 67.937 474.472 C 64.088 476.962, 60.539 479, 60.052 479 C 59.565 479, 58.960 479.563, 58.708 480.250 C 58.396 481.101, 57.903 481.177, 57.164 480.489 C 56.406 479.783, 57.875 478.295, 62.028 475.564 C 69.429 470.698, 72.434 467.573, 71.658 465.551 C 70.839 463.418, 70.107 463.624, 65.446 467.301 M 532.128 467.618 C 530.579 471.019, 533.866 474.833, 541.456 478.440 C 546.926 481.040, 548.363 480.674, 549.434 476.408 C 550.693 471.389, 545.297 466.347, 537.709 465.454 C 533.725 464.986, 533.242 465.173, 532.128 467.618 M 261.277 469.672 C 252.821 473.656, 244.727 474.362, 240.356 471.497 C 237.623 469.707, 232 467.782, 232 468.637 C 232 470.831, 237.835 476.096, 241.742 477.428 C 251.131 480.627, 260.417 478.107, 266.330 470.755 C 270.330 465.782, 269.785 465.665, 261.277 469.672 M 354 471.500 C 352.708 472.875, 352.127 474, 352.708 474 C 354.214 474, 352.059 479.847, 349.228 483.441 C 347.979 485.027, 346.698 487.489, 346.381 488.912 C 346.065 490.336, 345.471 492.850, 345.062 494.500 C 344.652 496.150, 344.459 498.400, 344.633 499.500 C 345.537 505.234, 346.304 508, 346.988 508 C 347.407 508, 348.026 509.382, 348.364 511.071 C 348.831 513.405, 349.401 514.017, 350.739 513.621 C 354.190 512.599, 361.342 517.158, 362.316 521 C 363.424 525.368, 362.569 533.153, 360.535 537.231 C 358.238 541.834, 359.065 541.532, 365.154 535.538 C 380.869 520.072, 384.909 492.368, 373.633 477.389 C 367.550 469.309, 358.585 466.620, 354 471.500 M 317.500 472.975 C 311.526 474.393, 309.968 475.281, 309.386 477.599 C 308.748 480.140, 306.914 479.771, 303.571 476.429 C 301.561 474.419, 296.402 475.380, 294.984 478.029 C 293.920 480.019, 294.112 480.216, 302.256 485.508 C 305.024 487.306, 306.805 487.789, 309.027 487.345 C 311.939 486.762, 314.218 485, 312.059 485 C 311.477 485, 311.004 484.438, 311.008 483.750 C 311.014 482.855, 313.496 482.468, 319.758 482.388 C 324.566 482.326, 332.012 481.488, 336.303 480.526 C 343.995 478.801, 344.081 478.747, 342.306 476.785 C 338.219 472.270, 327.447 470.615, 317.500 472.975 M 41.084 489.627 C 31.984 499.243, 30.092 502.448, 31.568 505.748 C 32.256 507.286, 32.400 507.226, 32.745 505.250 C 32.962 504.012, 33.531 503, 34.011 503 C 35.615 503, 36.103 504.939, 35.011 506.979 C 33.394 510.001, 34.593 509.493, 41.878 504.072 C 49.085 498.709, 56 491.842, 56 490.049 C 56 488.530, 52.261 481.280, 51.111 480.569 C 50.607 480.257, 46.095 484.333, 41.084 489.627 M 287.348 485.250 C 280.703 490.079, 272.452 496.334, 271.500 497.265 C 270.848 497.902, 273.578 498.062, 279.345 497.726 C 284.210 497.442, 288.688 496.712, 289.295 496.105 C 289.903 495.497, 291.014 495, 291.764 495 C 293.261 495, 304 490.276, 304 489.618 C 304 489.238, 291.543 483, 290.785 483 C 290.597 483, 289.050 484.012, 287.348 485.250 M 88.044 493.669 C 90.772 496.705, 94 503.135, 94 505.534 C 94 506.340, 94.900 507, 96 507 C 97.152 507, 98 506.333, 98 505.429 C 98 504.011, 98.151 504.008, 99.546 505.403 C 100.969 506.826, 112.368 506.966, 113.756 505.577 C 113.987 505.346, 112.969 503.097, 111.493 500.579 C 110.017 498.060, 109.277 496, 109.847 496 C 110.418 496, 112.148 498.250, 113.692 500.999 C 116.373 505.773, 116.692 505.998, 120.750 505.999 C 123.088 506, 125 505.550, 125 505 C 125 504.450, 124.603 504, 124.119 504 C 123.278 504, 120.500 495.319, 120.838 493.750 C 120.927 493.337, 120.662 492.975, 120.250 492.945 C 114.020 492.491, 107.392 492.075, 97.500 491.517 L 85.500 490.839 88.044 493.669 M 81.327 494.285 C 77.282 496.545, 65.879 507.226, 63.219 511.245 L 60.576 515.239 63.483 517.739 C 66.231 520.103, 66.435 520.137, 67.210 518.370 C 67.850 516.912, 67.930 517.051, 67.574 519 C 67.322 520.375, 67.901 523.179, 68.859 525.231 L 70.601 528.961 78.342 519.231 L 86.083 509.500 83.367 507.148 C 81.276 505.337, 79.884 504.919, 77.325 505.335 C 73.974 505.878, 72.674 504.446, 75.526 503.352 C 76.649 502.921, 76.768 502.425, 75.977 501.472 C 72.375 497.132, 81.067 500.544, 88.450 506.369 C 91.621 508.870, 92.241 509.092, 91.596 507.492 C 91.154 506.397, 90.393 504.150, 89.905 502.500 C 88.607 498.106, 85.700 492.995, 84.523 493.035 C 83.960 493.055, 82.522 493.617, 81.327 494.285 M 419 499.237 C 417.625 499.843, 415.038 500.988, 413.250 501.783 C 410.212 503.133, 408.545 507, 411 507 C 411.550 507, 412.333 506.996, 412.739 506.991 C 413.146 506.987, 413.484 506.211, 413.489 505.268 C 413.509 502.068, 418.664 501.262, 423.034 503.777 C 425.158 505, 427.707 505.980, 428.698 505.956 C 429.833 505.928, 429.135 505.191, 426.815 503.965 C 420.801 500.789, 421.221 500, 428.927 500 C 435.779 500, 443.749 501.351, 447.204 503.098 C 449.026 504.019, 450.734 502.572, 449.052 501.532 C 443.844 498.313, 424.457 496.833, 419 499.237 M 493.500 511.153 C 484.682 512.791, 459.652 526.015, 449.936 534.169 C 447.425 536.276, 444.944 538, 444.422 538 C 441.701 538, 421 554.784, 421 556.991 C 421 559.048, 425.214 558.379, 431.496 555.325 C 437.923 552.201, 441.983 551.601, 440.504 553.993 C 439.718 555.265, 441.037 555.268, 443 554 C 444 553.354, 444.083 553.026, 443.250 553.015 C 440.771 552.985, 442.106 551.462, 446.261 549.582 C 448.593 548.528, 451.817 547.060, 453.426 546.321 C 455.036 545.582, 457.174 545.238, 458.176 545.556 C 459.179 545.874, 460 545.654, 460 545.067 C 460 544.480, 460.675 544, 461.500 544 C 462.325 544, 463 543.559, 463 543.019 C 463 542.480, 464.185 541.741, 465.633 541.377 C 470.321 540.201, 480.524 533.366, 480.206 531.616 C 480 530.482, 480.655 530, 482.399 530 C 483.767 530, 485.515 529.103, 486.283 528.006 C 487.051 526.910, 487.907 526.241, 488.186 526.519 C 488.733 527.067, 493.339 523.575, 501.777 516.214 C 508.678 510.194, 506.343 508.767, 493.500 511.153 M 122.697 511.721 L 119.894 512.143 122.305 516.322 C 124.373 519.904, 126.126 524.563, 126.418 527.250 C 126.463 527.663, 126.838 528, 127.250 528 C 127.662 528, 128.406 528, 128.902 528 C 129.398 528, 129.172 525.901, 128.400 523.335 C 126.610 517.385, 127.060 516.984, 129.886 522.011 C 131.119 524.205, 132.367 526, 132.660 526 C 133.434 526, 144.441 522.807, 144.822 522.472 C 145.154 522.180, 141.153 515.849, 138.677 512.750 C 137.291 511.015, 130.359 510.569, 122.697 511.721 M 614 511.883 C 614 512.369, 613.169 512.984, 612.153 513.250 C 609.027 514.067, 604.434 520.886, 605.693 522.841 C 606.752 524.484, 607.880 524.639, 613.290 523.888 C 617.025 523.369, 620.175 527.889, 618.239 530.989 C 617.151 532.730, 617.302 533.038, 619.516 533.593 C 620.896 533.940, 622.499 534.961, 623.078 535.862 C 623.886 537.119, 624.016 536.642, 623.638 533.809 C 623.088 529.691, 624.809 529.368, 626.521 533.269 C 627.168 534.743, 628.519 535.593, 630.500 535.774 C 635.606 536.241, 638 536.993, 638 538.130 C 638 538.829, 636.784 538.995, 634.622 538.589 C 631.785 538.057, 631.161 538.278, 630.717 539.973 C 629.998 542.723, 636.759 545.722, 648 547.639 C 652.675 548.436, 658.750 550.030, 661.500 551.180 C 669.538 554.542, 686.702 559.690, 688.286 559.213 C 688.718 559.083, 690.735 560.107, 692.768 561.488 C 694.801 562.870, 696.893 564, 697.418 564 C 697.942 564, 699.300 564.856, 700.436 565.902 C 702.899 568.173, 709.619 572, 711.141 572 C 711.735 572, 711.159 571.139, 709.861 570.086 C 706.426 567.301, 708.317 566.378, 712.035 569.025 C 714.468 570.758, 714.879 571.477, 713.842 572.188 C 712.853 572.866, 713.026 573.018, 714.500 572.768 C 716.057 572.504, 716.430 571.785, 716.182 569.524 C 715.741 565.492, 713.591 562.770, 702.284 551.931 C 689.728 539.894, 674.269 531.725, 649.500 524.037 C 638.321 520.567, 634.692 519.169, 624.328 514.341 C 617.125 510.986, 614 510.242, 614 511.883 M 176.500 513.955 C 168.603 517.150, 164.772 532.661, 168.708 545.500 C 171.986 556.192, 173.950 559.508, 175.510 556.984 C 175.856 556.425, 176.548 556.221, 177.049 556.530 C 179.234 557.880, 192 551.963, 192 549.601 C 192 548.468, 187.611 545.391, 183.508 543.647 C 181.538 542.809, 181.542 542.774, 183.716 541.759 C 185.407 540.970, 186.526 541.115, 188.444 542.372 C 190.901 543.981, 190.971 543.956, 191.579 541.259 C 191.921 539.742, 192.621 536.820, 193.134 534.766 C 194.645 528.729, 191.508 524.016, 184.259 521.429 C 180.571 520.113, 180.557 520.088, 183.500 520.114 C 187.872 520.153, 189.603 521.084, 192.579 525 L 195.239 528.500 194.657 524.594 C 193.914 519.608, 189.773 515.213, 185.075 514.425 C 183.109 514.095, 180.825 513.672, 180 513.485 C 179.175 513.298, 177.600 513.510, 176.500 513.955 M 108.813 517.845 C 98.298 522.020, 92.444 525.846, 90.575 529.765 C 88.719 533.657, 88.787 533.881, 92.022 534.504 C 93.283 534.747, 96.031 536.136, 98.130 537.590 C 100.229 539.045, 102.521 539.948, 103.223 539.597 C 103.925 539.247, 106.300 537.877, 108.500 536.554 C 110.700 535.231, 114.877 532.990, 117.782 531.573 C 123.954 528.564, 124.605 527.398, 122.965 522.291 C 120.413 514.347, 118.856 513.858, 108.813 517.845 M 58.435 520.206 C 57.978 521.644, 58.187 522.562, 59.033 522.844 C 59.748 523.083, 61.845 524.677, 63.695 526.389 L 67.058 529.500 64.529 530.656 C 62.231 531.706, 62 531.606, 62 529.566 C 62 527.193, 57.715 524.440, 55.831 525.604 C 55.271 525.951, 51.687 530.976, 47.867 536.772 L 40.922 547.309 43.570 550.073 C 45.027 551.594, 45.938 553.292, 45.595 553.847 C 44.673 555.339, 48.366 556.191, 51.157 555.131 C 56.655 553.040, 67.051 537.870, 67.583 531.160 C 67.804 528.379, 67.086 526.523, 64.348 522.793 C 60.412 517.431, 59.449 517.010, 58.435 520.206 M 150.500 526.980 C 144.552 527.749, 139.285 529.918, 134.500 533.567 C 130.981 536.252, 129.755 538.692, 132.443 537.660 C 134.257 536.964, 140 543.328, 140 546.035 C 140 547.116, 139.550 548, 139 548 C 138.450 548, 138 547.280, 138 546.400 C 138 545.520, 136.367 543.167, 134.372 541.172 L 130.744 537.544 128.122 540.696 C 126.680 542.430, 123.169 548.383, 120.320 553.924 L 115.141 564 117.921 564 C 122.796 564, 127 565.985, 127 568.286 C 127 570.375, 127.002 570.375, 129.039 568.189 C 130.160 566.985, 131.467 566, 131.942 566 C 133.707 566, 140.002 555.116, 140.136 551.831 C 140.232 549.484, 140.400 549.165, 140.706 550.750 C 141.155 553.084, 142.452 553.696, 143.467 552.053 C 144.280 550.738, 152.889 545, 154.050 545 C 154.573 545, 155 544.550, 155 544 C 155 543.450, 155.705 543, 156.567 543 C 157.680 543, 157.950 542.419, 157.500 541 C 156.770 538.699, 158.493 538.237, 159.362 540.500 C 159.678 541.325, 160.467 542, 161.114 542 C 162.148 542, 161.851 528.372, 160.798 527.522 C 159.767 526.690, 154.775 526.427, 150.500 526.980 M 89 538.892 C 89 539.382, 90.237 540.092, 91.750 540.470 C 95.004 541.282, 98 543.768, 98 545.655 C 98 547.438, 96.546 547.363, 95 545.500 C 93.492 543.684, 88.413 543.509, 87.706 545.250 C 87.426 545.938, 85.733 550.100, 83.943 554.500 C 80.177 563.756, 78.085 572.507, 78.035 579.211 C 78 583.885, 78.032 583.932, 82.075 585.020 C 84.317 585.624, 86.898 585.974, 87.813 585.798 C 90.780 585.226, 94.813 572.904, 97.026 557.653 L 99.079 543.500 96.024 540.750 C 93.092 538.111, 89 537.029, 89 538.892 M 156.220 548.120 C 152.249 550.086, 133 569.293, 133 571.290 C 133 571.755, 133.787 571.896, 134.750 571.604 C 139.346 570.211, 157.952 569.075, 163 569.880 C 168.980 570.834, 172.567 570.767, 173.653 569.680 C 174.948 568.385, 169.990 560, 167.930 560 C 166.868 560, 166 559.550, 166 559 C 166 558.450, 166.675 558, 167.500 558 C 169.480 558, 169.440 557.773, 166.338 551.437 C 163.353 545.342, 162.439 545.042, 156.220 548.120 M 198.511 549.214 C 197.417 549.848, 193.737 553.152, 190.333 556.556 C 186.029 560.860, 183.826 562.426, 183.099 561.699 C 181.604 560.204, 176.999 562.492, 177.004 564.729 C 177.006 565.703, 177.889 567.946, 178.967 569.714 C 181.144 573.284, 179.728 575.715, 177.359 572.476 C 175.628 570.109, 174.724 571.054, 175.555 574.362 C 176.112 576.584, 176.492 576.807, 178.179 575.904 C 179.984 574.938, 180.052 575.035, 178.977 577.043 C 177.811 579.222, 177.777 579.212, 174.287 575.619 C 170.993 572.228, 167.414 570.350, 169.771 573.250 C 172.806 576.984, 174.785 581.815, 173.717 582.883 C 172.894 583.706, 173.018 584, 174.186 584 C 175.058 584, 176.480 585.462, 177.346 587.250 C 178.212 589.038, 180.916 593.019, 183.355 596.097 L 187.789 601.694 197.145 602.871 C 202.290 603.517, 209.650 604.532, 213.500 605.125 C 222.927 606.578, 248.242 605.621, 253.500 603.615 C 256.588 602.436, 256.959 602.078, 255.128 602.044 C 253.134 602.007, 252.954 601.761, 254 600.500 C 256.585 597.386, 253.509 596, 244.012 596 C 230.768 596, 225.667 591.237, 234.250 586.886 C 236.588 585.701, 238.725 584.454, 239 584.116 C 240.608 582.136, 244 581.034, 244 582.492 C 244 585.231, 246.077 584.061, 247.573 580.479 C 248.382 578.542, 250.451 574.672, 252.170 571.879 C 255.553 566.380, 255.159 565.122, 250 564.945 C 245.922 564.805, 244.500 563.811, 239.084 557.310 C 234.704 552.053, 233.120 550.886, 228.560 549.560 C 222.115 547.687, 201.554 547.450, 198.511 549.214 M 39.211 550.640 C 37.029 554.793, 32.005 571.551, 32.082 574.423 C 32.158 577.269, 32.351 577.089, 34.665 572.017 C 36.040 569.001, 38.732 563.996, 40.646 560.895 L 44.126 555.256 42.157 552.018 C 40.363 549.068, 40.101 548.946, 39.211 550.640 M 90.734 550.600 C 90.330 551.003, 90 553.274, 90 555.646 C 90 558.019, 89.363 561.656, 88.584 563.730 C 84.159 575.512, 82.250 584, 84.025 584 C 85.571 584, 90.048 571.182, 92.132 560.788 C 93.074 556.092, 92.128 549.205, 90.734 550.600 M 120.726 569.481 L 123.952 570.883 121.726 573.400 L 119.500 575.916 119.197 573.594 C 118.946 571.674, 114.384 568.166, 113.498 569.213 C 109.942 573.409, 108.987 583.094, 111.616 588.300 C 114.649 594.305, 121.021 602, 122.960 602 C 127.067 602, 133.006 591.578, 132.996 584.384 C 132.989 579.073, 124.069 567.970, 119.865 568.039 C 117.766 568.074, 117.863 568.236, 120.726 569.481 M 255.274 571.169 C 252.800 574.150, 252.734 577.700, 255.120 579.372 C 256.882 580.606, 257.583 580.688, 258.201 579.735 C 258.821 578.776, 259.201 578.812, 259.899 579.896 C 261.799 582.846, 263.856 580.359, 263.276 575.815 C 262.613 570.624, 262.993 571.149, 259.371 570.424 C 257.457 570.041, 255.989 570.308, 255.274 571.169 M 268.376 570.847 C 265.599 571.427, 265.348 571.759, 266.123 573.830 C 266.860 575.799, 267.460 576.058, 269.996 575.501 C 272.470 574.957, 272.891 575.119, 272.392 576.421 C 271.559 578.591, 273.586 578.371, 278.949 575.709 C 284.632 572.887, 285.337 571, 280.708 571 C 278.806 571, 275.956 570.819, 274.375 570.597 C 272.794 570.376, 270.094 570.488, 268.376 570.847 M 137.250 574.666 C 135.463 574.919, 134 575.268, 134 575.441 C 134 575.614, 134.722 577.485, 135.605 579.598 C 137.656 584.506, 137.042 589.924, 133.638 596.937 C 132.187 599.928, 131 602.891, 131 603.521 C 131 605.219, 140.063 613.494, 144.564 615.906 C 149.090 618.332, 160.509 618.908, 161.280 616.750 C 161.525 616.063, 162.068 615.818, 162.487 616.207 C 162.905 616.596, 162.957 617.670, 162.602 618.594 C 162.043 620.051, 160.761 620.207, 152.985 619.763 C 143.226 619.207, 143.357 619.275, 131.568 608.570 C 127.908 605.247, 124.999 603.998, 125.001 605.750 C 125.001 607.036, 143.264 623.517, 148 626.506 C 155.446 631.205, 163.139 634.688, 169.831 636.390 C 177.832 638.425, 196.009 638.450, 201 636.433 L 204.500 635.019 200 635.759 C 183.714 638.439, 163.642 633.827, 151.002 624.501 C 145.954 620.777, 148.765 621.462, 158.675 626.371 C 174.469 634.195, 189.749 635.906, 206 631.671 C 209.025 630.882, 213.300 629.919, 215.500 629.529 C 220.301 628.679, 222 627.431, 222 624.753 C 222 623.023, 221.557 622.841, 218.750 623.417 C 216.963 623.784, 211.900 624.542, 207.500 625.101 C 203.100 625.659, 199.072 626.540, 198.550 627.058 C 196.766 628.826, 194.849 628.082, 195.180 625.750 C 195.472 623.694, 196.426 623.364, 206.249 621.918 C 212.160 621.048, 217.253 620.080, 217.566 619.768 C 218.809 618.525, 210.869 617.145, 199.034 616.548 C 190.053 616.095, 186.104 615.499, 184.908 614.417 C 183.995 613.591, 181.606 612.648, 179.600 612.322 C 175.090 611.591, 174.291 610.441, 176.554 607.941 C 177.904 606.449, 178.617 606.267, 179.676 607.146 C 185.346 611.851, 175.090 590.043, 169.202 584.873 C 160.715 577.420, 147.530 573.209, 137.250 574.666 M 287.981 576.523 C 287.286 577.360, 285.967 577.807, 285.051 577.516 C 284.134 577.225, 278.572 578.530, 272.691 580.416 C 266.810 582.302, 258.849 584.428, 254.999 585.140 C 247.136 586.594, 246.425 587.740, 251.250 591.182 C 255.658 594.326, 267.677 594.504, 273.578 591.511 C 279.294 588.613, 290.704 580.213, 291.404 578.388 C 292.610 575.247, 290.152 573.907, 287.981 576.523 M 653.015 588.250 C 653.045 590.853, 656.217 598.533, 657.579 599.300 C 658.361 599.740, 659.004 600.640, 659.009 601.300 C 659.014 601.960, 660.125 604.750, 661.478 607.500 C 663.062 610.721, 663.949 614.265, 663.969 617.461 L 664 622.423 666.058 618.461 C 669.064 612.674, 668.961 602.462, 665.838 596.833 C 662.934 591.597, 652.976 584.932, 653.015 588.250 M 80 592.322 C 80 600.087, 90.038 618.007, 96.692 622.118 C 100.232 624.306, 102.197 624.238, 99.524 622.020 C 98.686 621.324, 98 620.330, 98 619.811 C 98 619.291, 96.938 617.434, 95.640 615.683 C 94.341 613.932, 92.734 610.475, 92.068 608 C 90.026 600.411, 88.844 593.823, 89.420 593.246 C 90.495 592.172, 86.446 590.063, 83.250 590.032 C 80.507 590.005, 80 590.362, 80 592.322 M 673.490 596.206 C 674.585 596.846, 678.635 597.927, 682.490 598.611 C 691.527 600.212, 708.918 604.503, 712.500 606.015 C 715.538 607.297, 734.841 612.869, 743.500 614.963 C 749.799 616.487, 769.107 617.495, 767 616.191 C 766.175 615.680, 761.350 614.963, 756.278 614.597 C 747.728 613.981, 740.984 612.569, 727 608.467 C 723.975 607.580, 719.700 606.371, 717.500 605.781 C 715.300 605.190, 713.050 604.363, 712.500 603.943 C 711.950 603.523, 709.700 602.854, 707.500 602.458 C 705.300 602.061, 702.719 601.334, 701.764 600.841 C 697.014 598.389, 669.505 593.880, 673.490 596.206 M 377 620.694 C 375.388 621.270, 373 623.912, 373 625.120 C 373 629.057, 384.047 630.648, 386.004 626.993 C 388.013 623.238, 381.883 618.949, 377 620.694 M 288.589 637.033 C 282.168 639.726, 277.809 642.881, 278.643 644.231 C 279.035 644.866, 278.841 645.020, 278.170 644.605 C 276.660 643.672, 273.009 649.719, 273.004 653.161 C 272.999 656.239, 277.646 660.673, 281.827 661.582 C 283.297 661.901, 285.691 662.611, 287.147 663.160 C 292.118 665.033, 317.876 664.722, 323.500 662.721 C 333.645 659.113, 338 655.387, 338 650.318 C 338 645.851, 330.448 639.715, 323.380 638.439 C 321.246 638.054, 318.926 637.283, 318.224 636.725 C 315.503 634.564, 293.942 634.788, 288.589 637.033 M 294.383 637.890 C 280.410 641.491, 277.071 648.284, 286.596 653.734 C 291.520 656.551, 314.047 657.026, 322.409 654.489 C 328.073 652.771, 330 652.626, 330 653.920 C 330 658.633, 294.750 660.518, 285.829 656.282 C 280.817 653.902, 278.019 650.786, 277.968 647.527 C 277.937 645.530, 277.915 645.529, 276.468 647.441 C 272.893 652.169, 276.535 657.636, 285.133 660.449 C 292.452 662.843, 316.598 662.962, 323.500 660.638 C 337.227 656.016, 339.614 649.153, 329.456 643.509 C 321.097 638.864, 302.291 635.851, 294.383 637.890 M 42.500 656.676 C 39.500 657.342, 32.576 660.089, 32.003 660.841 C 31.726 661.203, 29.250 663.285, 26.500 665.466 C 19.614 670.928, 19.590 671.040, 24.704 673.762 C 31.915 677.600, 48.071 676.505, 53.750 671.793 C 54.464 671.200, 55.292 670.959, 55.590 671.257 C 55.888 671.554, 54.639 672.919, 52.816 674.289 C 45.571 679.731, 25.415 680.090, 20.877 674.858 C 18.590 672.222, 17.706 673.959, 19.873 676.831 C 21.920 679.545, 33.536 681.573, 41.232 680.559 C 48.511 679.600, 58.494 674.080, 57.876 671.355 C 57.770 670.885, 58.050 669.654, 58.498 668.619 C 59.810 665.597, 56.156 659.976, 51.508 657.865 C 47.474 656.032, 46.173 655.860, 42.500 656.676 M 34 661.579 C 29.636 664.057, 25 668.462, 25 670.130 C 25 673.662, 39.056 675.170, 46.808 672.470 C 56.294 669.167, 57.878 666.569, 53.313 661.805 C 49.569 657.896, 40.669 657.793, 34 661.579 M 695.330 662.153 C 689.080 663.552, 682.471 669.754, 683.378 673.370 C 684.149 676.444, 687.243 678.079, 697.034 680.587 C 710.456 684.026, 722.590 675.834, 715.568 668.075 C 711.090 663.127, 702.374 660.576, 695.330 662.153 M 693.030 665.529 C 691.121 666.387, 688.759 667.813, 687.780 668.699 C 685.603 670.669, 685.309 675.479, 687.414 674.671 C 688.192 674.373, 690.538 675, 692.626 676.064 C 697.435 678.516, 707.760 678.682, 712.599 676.386 C 723.668 671.133, 704.374 660.428, 693.030 665.529 M 265.687 680.218 C 263.082 680.908, 262.042 681.668, 262.405 682.614 C 262.698 683.376, 262.482 684, 261.926 684 C 259.531 684, 252.167 691.485, 251.347 694.754 C 249.484 702.177, 254.546 707.933, 264.812 710.065 C 281.310 713.492, 299 706.165, 299 695.905 C 299 692.034, 298.480 691.109, 293.694 686.474 C 286.402 679.411, 276.811 677.268, 265.687 680.218 M 271.002 682.147 C 269.077 682.718, 267.277 683.482, 267.002 683.843 C 266.726 684.204, 264.475 685.576, 262 686.890 C 254.207 691.030, 251.612 696.584, 256.250 699.198 C 266.645 705.057, 279.346 705.790, 287.679 701.011 C 294.963 696.834, 296.428 694.535, 294.209 690.768 C 292.299 687.523, 284.579 682, 281.954 682 C 281.017 682, 278.956 681.799, 277.375 681.554 C 275.794 681.309, 272.926 681.576, 271.002 682.147 M 295.593 697.675 C 294.783 700.181, 289.547 703.510, 283.196 705.556 C 275.714 707.968, 266.931 707.121, 259.165 703.240 C 255.859 701.588, 253.366 700.790, 253.625 701.466 C 254.394 703.470, 259.751 707, 263.012 707.652 C 264.678 707.986, 266.284 708.650, 266.580 709.129 C 267.509 710.633, 278.271 710.014, 283.679 708.145 C 290.490 705.791, 295.907 702.056, 296.646 699.203 C 297.362 696.436, 296.430 695.083, 295.593 697.675 M 545 723.857 C 543.075 724.249, 557.250 724.901, 576.500 725.307 C 607.141 725.952, 643.478 728.002, 651 729.509 C 652.375 729.785, 659.350 730.480, 666.500 731.053 C 708.563 734.427, 725.059 736.356, 738 739.413 C 751.442 742.588, 756.601 743.881, 759.993 744.925 C 761.915 745.516, 764.390 745.963, 765.493 745.919 C 768.442 745.799, 762.272 743.104, 758.917 743.045 C 757.496 743.020, 755.996 742.663, 755.584 742.251 C 754.261 740.928, 735.403 736.507, 724.500 734.964 C 720.650 734.419, 714.800 733.523, 711.500 732.973 C 708.200 732.423, 699.650 731.505, 692.500 730.934 C 685.350 730.363, 672.525 729.272, 664 728.510 C 621.820 724.740, 611.104 724.112, 581 723.647 C 563.125 723.371, 546.925 723.465, 545 723.857 M 48.750 746.068 C 41.786 749.744, 44.939 752.454, 56.078 752.366 C 62.986 752.312, 71 750.056, 71 748.165 C 71 747.223, 70.293 746.952, 68.834 747.333 C 67.518 747.677, 65.593 747.134, 63.930 745.950 C 60.377 743.420, 53.666 743.473, 48.750 746.068 M 656.409 744.609 C 655.810 744.857, 651.760 745.689, 647.409 746.457 C 636.783 748.334, 629.723 750.052, 628.450 751.072 C 627.873 751.534, 625.501 752.216, 623.178 752.587 C 620.856 752.959, 618.714 753.654, 618.419 754.131 C 618.124 754.609, 616.835 755, 615.556 755 C 613.022 755, 602.753 758.086, 603.338 758.672 C 603.537 758.870, 606.804 758.326, 610.600 757.463 C 614.395 756.599, 619.381 755.486, 621.679 754.990 C 623.978 754.493, 628.253 753.372, 631.179 752.499 C 634.106 751.625, 637.850 750.507, 639.500 750.015 C 641.150 749.522, 648.395 748.383, 655.600 747.483 C 681.045 744.304, 711.425 750.205, 741.823 764.232 C 745.301 765.837, 749.801 767.357, 751.823 767.610 C 755.367 768.054, 755.319 767.996, 750.500 766.009 C 747.750 764.875, 744.600 763.533, 743.500 763.027 C 721.888 753.077, 708.952 748.982, 688.250 745.539 C 679.800 744.133, 659.026 743.527, 656.409 744.609" stroke="none" fill="#1b1f3a" fill-rule="evenodd"/>
</svg>