<svg xmlns="http://www.w3.org/2000/svg" viewBox="0 0 768 768" version="1.1" preserveAspectRatio="xMidYMid meet"><path d="M 578.5 88.7 C 574.5 90.9, 573.1 92.4, 571.9 95.9 C 570.9 98.8, 570.6 98.9, 566.6 98.4 C 562.9 97.8, 562 98.2, 558.1 101.4 C 551.9 106.6, 547.9 106.4, 541.7 100.5 C 532.8 92.1, 518.7 92.4, 512.6 101.2 C 510.9 103.6, 505.3 104.9, 496 105 C 492.4 105, 488.4 105.7, 487.1 106.4 C 485.7 107.2, 482.9 107.5, 479.9 107.2 C 475 106.7, 470 108.7, 470 111 C 470 111.6, 471.1 111.3, 472.4 110.5 C 474.1 109.4, 476.6 109, 480.2 109.2 C 483.1 109.3, 486.9 108.9, 488.5 108.3 C 490.2 107.7, 495.4 107, 500.3 106.7 C 507.4 106.4, 509.5 106, 511.8 104.2 C 519.8 97.7, 522.1 96.6, 527.4 96.7 C 533.5 96.8, 535.2 97.5, 541.5 103 C 547.6 108.3, 553.5 108.6, 558.2 104 C 560.8 101.4, 561.9 101, 566.6 101 C 572 101, 572 101, 573.6 97 C 577.2 88, 586.2 86.1, 593.9 92.6 L 598.1 96.2 600.4 94.1 C 601.6 93, 603.2 92, 603.8 92 C 604.5 92, 605 91.6, 605 91 C 605 90.5, 603.5 90.7, 601.7 91.6 C 598.5 93.1, 598.3 93.1, 593.8 90.1 C 588.6 86.6, 583.3 86.1, 578.5 88.7 M 644.9 89.3 C 642.9 90.1, 640 91.6, 638.4 92.7 L 635.5 94.8 632.5 92.4 C 629.2 89.8, 622.4 89.1, 619.2 91.1 C 617.8 92, 616.7 91.9, 614.2 90.6 C 610.9 88.9, 606 88.4, 606 89.8 C 606 90.3, 607.3 90.7, 609 90.8 C 610.6 90.8, 613.3 91.7, 615 92.6 C 617.3 94, 618.2 94.2, 619.2 93.2 C 621.5 90.9, 629.4 91.7, 632 94.5 C 634.9 97.6, 635.4 97.6, 639.4 94.5 C 644 91, 651.8 89.3, 655.5 91.1 C 658.6 92.7, 659.2 93.6, 661.1 99.8 C 662.6 104.8, 666.2 108.1, 673 110.4 C 678.1 112.2, 685 112.5, 685 111 C 685 110.5, 683.6 110, 681.9 110 C 677.7 110, 668.9 107.1, 666.4 104.9 C 665.3 103.8, 663.8 100.8, 663.1 98.1 C 660.9 89.5, 653.7 86.1, 644.9 89.3 M 687.3 112.1 C 684.5 114.9, 671.9 115.9, 632.5 116.5 C 610.5 116.8, 585.7 117.2, 577.4 117.5 C 569.1 117.7, 533.8 118.2, 498.9 118.4 C 436.8 118.9, 431.6 118.6, 454.8 116 C 460 115.4, 465.4 114.3, 466.8 113.5 L 469.5 112.1 466.5 112.5 C 464.9 112.8, 459.2 113.5, 454 114.1 C 448.8 114.7, 442.4 115.4, 439.8 115.7 C 435 116.3, 432.3 118.1, 433.5 120 C 435.6 123.4, 663.5 120.1, 682.2 116.4 C 687 115.4, 691.6 115.1, 694.4 115.5 C 700 116.4, 700.7 114.6, 695.5 112.4 C 691.4 110.7, 688.8 110.6, 687.3 112.1 M 648 125.2 C 643.7 127.4, 640.7 129.8, 638.9 132.5 C 636.3 136.3, 635.8 136.5, 630 137.1 C 623.1 137.8, 618.6 141, 617.5 146.2 C 616.8 149.1, 616.7 149.1, 611.9 148.5 C 608 147.9, 606.3 148.2, 603.6 149.8 C 599.5 152.2, 591.4 154.6, 584 155.5 C 581 155.9, 578.1 156.6, 577.5 157 C 577 157.4, 574.5 158.1, 572 158.5 C 567.4 159.2, 565 160.5, 565 162.2 C 565 162.8, 566.1 162.9, 567.8 162.5 C 569.3 162.1, 594.1 161.6, 623 161.4 C 657.1 161.2, 678.5 160.7, 684 159.9 C 688.7 159.2, 701.4 158.6, 712.2 158.5 C 731.5 158.4, 732 158.3, 734.5 156 C 740.6 150.2, 734.6 143.4, 722 141.8 C 720.3 141.6, 719.3 140.6, 718.6 138.5 C 716.3 130.4, 713 127, 705.8 124.6 C 695.9 121.3, 689.6 123.9, 684.5 133.4 C 681.4 139.1, 676.2 138.7, 672.6 132.5 C 666.5 122.2, 658.4 119.8, 648 125.2 M 654 124.8 C 650.2 125.3, 640.8 132.1, 639.1 135.6 C 637.6 138.6, 637.2 138.8, 630.8 139.2 C 623.1 139.6, 620.5 141.3, 619.6 146.5 C 618.7 150.9, 617.6 151.5, 613 150 C 609.4 148.8, 608.7 148.9, 602.8 151.8 C 595.2 155.4, 591.2 156.7, 584.2 157.6 C 570.3 159.4, 582.6 161.4, 599 160 C 605.3 159.5, 624.5 159, 641.5 159 C 658.6 158.9, 675.9 158.5, 680 157.9 C 692.9 156.1, 712.2 155.4, 719.1 156.4 C 727.8 157.6, 732.8 156.6, 734.3 153.3 C 735.9 149.7, 731.2 145.5, 724.4 144.6 C 716.6 143.5, 716 143.2, 716 139.9 C 716 129.8, 701.5 121.5, 693.2 126.7 C 690.1 128.7, 689.9 129, 686.7 134.5 C 684.4 138.4, 684.2 138.5, 678.9 138.5 L 673.5 138.5 671 133.6 C 667.1 126.4, 661.9 123.6, 654 124.8 M 484 165.6 C 459.6 172, 450.7 176.9, 434.5 192.5 C 430.1 196.7, 424.5 201.6, 422 203.3 L 417.5 206.5 385.5 206.6 C 357.7 206.7, 351.8 207, 340.5 208.8 C 320.7 212.1, 309.2 214.5, 295 218.2 C 290.9 219.3, 285.3 220.8, 282.5 221.5 C 279.8 222.2, 272.1 224.2, 265.5 226 C 232.9 234.7, 209.9 237.3, 174.9 236 C 171.8 235.9, 168.8 236.6, 166 238 C 162 240, 161.8 240.1, 160.5 238.3 C 158.5 235.6, 152.1 236.2, 146.3 239.5 C 136 245.5, 131.3 247.7, 125.5 249.4 C 122.2 250.4, 117.3 251.9, 114.5 252.7 C 111.8 253.5, 105 254.3, 99.5 254.4 C 88.3 254.7, 84.9 255.9, 78.8 261.9 C 76.8 263.9, 74.3 266.3, 73.2 267.4 C 66.3 273.6, 66.4 284.3, 73.3 292 C 75.2 294.1, 77.1 297.2, 77.5 298.9 C 78.4 303.1, 88 310.9, 112 327.1 C 118.3 331.3, 128.5 338.3, 134.5 342.5 C 145.2 350, 154.4 356.1, 175.2 369.6 C 180.8 373.3, 192.6 379.9, 201.4 384.4 C 215.2 391.3, 217.5 392.9, 217.8 395 C 218.9 404.4, 223.5 414.7, 231 425 C 233.6 428.6, 237 433.7, 238.5 436.3 C 242.4 443, 249.8 451, 258.4 457.4 C 282.9 475.8, 297.2 473.9, 287.2 453.5 C 284 446.8, 281.5 440.1, 277.1 425.6 C 273.4 413.8, 273.3 412.5, 275.9 413.9 C 280.9 416.6, 305.9 422.3, 319.7 423.9 C 327 424.8, 328.4 425.3, 333.8 429.3 C 337.1 431.7, 342.4 434.4, 345.6 435.4 C 348.9 436.4, 352.4 437.5, 353.5 438 C 354.6 438.4, 358.4 439.8, 362 441 C 365.6 442.2, 369.6 443.7, 370.9 444.3 C 375.3 446.5, 398.9 445.9, 402.8 443.5 C 407.3 440.8, 409.8 436.6, 408.4 434.2 C 406.6 431.4, 404 431.5, 404 434.3 C 404 439.3, 400.9 440.5, 388.6 440.4 C 373.2 440.3, 358.9 435.3, 342.4 424.4 C 339.6 422.5, 337 421, 336.6 421 C 335 421, 337.5 423.4, 342.7 426.7 C 348.9 430.6, 349.2 432.2, 343.2 429.1 C 336.8 425.8, 324.1 415.1, 318.9 408.6 C 316.3 405.2, 312.6 401.3, 310.8 399.9 C 309 398.5, 304.7 392.6, 301.3 386.7 C 294.6 375.4, 292.5 373, 293.5 377.7 L 294.1 380.5 292.4 377.5 C 291.3 375.6, 290.6 372, 290.4 367.4 C 290.3 363.4, 289.5 358.7, 288.6 356.9 C 281.3 341, 281.2 332.2, 288.3 332 C 289.2 332, 290 331.6, 290 331 C 290 329.4, 283.2 329.8, 280.4 331.6 C 277.6 333.5, 272.9 333, 264.5 330.2 C 259.2 328.4, 250 320.4, 250 317.5 C 250 316.7, 249.6 316, 249 316 C 247 316, 248.1 320, 251.3 324.2 C 255.2 329.3, 262.6 333.5, 269.5 334.5 C 277.5 335.6, 278 335.8, 278 339.2 C 278 342.1, 277.9 342.2, 274.5 341.6 C 270.1 340.7, 270.1 341.3, 274.5 343.4 C 276.4 344.3, 278.5 346, 279.1 347.2 C 282.9 354.3, 253 337.8, 240.5 325.9 C 236 321.7, 229.6 316.8, 226 314.9 C 222.3 313, 216.3 308.4, 212.1 304.3 C 203.9 296.3, 201.9 295.5, 207.1 302.2 C 212.8 309.7, 217.2 313.2, 227 318.1 C 230.6 319.9, 235.1 323.2, 237 325.4 C 245.7 335.4, 263 346.7, 279.2 352.9 C 282.1 354, 284.9 360, 282.5 360 C 277.5 360, 244.6 342.7, 232.5 333.7 C 232 333.3, 229.9 331.7, 227.9 330.2 C 225.9 328.7, 223.1 326.6, 221.5 325.5 C 210.2 317.3, 204.7 311.5, 200.6 303 L 198.9 299.5 199.6 303 C 201.5 312.8, 205.6 317.1, 229.9 334.7 C 234.6 338.2, 239 341.3, 239.5 341.8 C 243.5 345, 270.4 359.1, 278.5 362.1 C 283.9 364.1, 284.3 364.5, 285.5 370.9 C 286.1 373.6, 285.9 374.2, 284.9 373.8 C 273.1 369, 255.5 360.2, 250.5 356.6 C 248.9 355.4, 244.1 352.3, 240 349.9 C 233.4 345.9, 227.3 341.7, 204.1 325.3 C 198.2 321.2, 183.1 306.7, 181.4 303.5 C 179.8 300.7, 178.6 302.3, 180.1 305.1 C 182.9 310.5, 198.5 324.9, 210.5 333.3 C 239.4 353.7, 265.3 369.1, 280.8 375 C 286.2 377.2, 293.1 383.3, 291.6 384.7 C 291.1 385.2, 274.6 379.9, 273.6 378.9 C 273 378.4, 272 378, 271.2 378 C 270.4 378, 268.4 377.4, 266.7 376.6 C 264.9 375.8, 260.8 373.9, 257.5 372.5 C 246.9 367.8, 232.4 359.3, 221.3 351.3 C 215.4 347.1, 207.8 341.7, 204.5 339.3 C 201.2 337, 198.1 334.7, 197.5 334.3 C 197 333.8, 192.7 330.5, 188 326.9 C 179 319.9, 167.5 308.3, 162.5 301.3 C 159.5 297.1, 158 296, 158 298.1 C 158 300.6, 172.3 317, 182.1 325.5 C 183.9 327.1, 191.1 332.6, 198 337.7 C 204.9 342.8, 211 347.4, 211.5 347.8 C 221.8 355.9, 250.3 372.7, 260.9 377 C 265.1 378.7, 269.2 380.4, 270 380.9 C 270.8 381.3, 274.9 382.7, 279 383.9 C 291.8 387.8, 295 388.9, 297.5 390.6 C 299.9 392.2, 300.9 395, 299.1 395 C 296.8 395, 275.9 389.1, 274.5 388 C 274 387.6, 271 386.5, 268 385.6 C 263 384, 260.7 383, 250 378.3 C 235.3 371.8, 225.1 365.7, 206 352 C 180.6 333.8, 170.5 325.6, 158.3 313.3 C 144.7 299.7, 141.2 297.3, 149.9 307.7 C 159.1 318.7, 172.7 331, 190 343.8 C 196.3 348.5, 203.1 353.5, 205 355 C 228.4 372.6, 261.7 388.5, 292.4 396.5 C 300.1 398.4, 303.3 399.8, 306.7 402.6 C 309.1 404.6, 311 406.3, 310.8 406.5 C 308.8 408.2, 268.1 395.9, 251 388.3 C 248.5 387.2, 244.5 385.5, 242 384.5 C 234.3 381.3, 217.1 372.1, 209.1 367 C 204.9 364.2, 200.9 362, 200.3 362 C 199.6 362, 199 361.4, 199 360.8 C 199 360, 197.5 359.4, 195.5 359.3 C 193.6 359.2, 192 359.3, 192 359.5 C 192 360.3, 222.9 378.1, 233.9 383.6 C 257.3 395.3, 292.7 407.4, 309.8 409.5 C 313.1 410, 315 410.7, 315 411.5 C 315 412.2, 315.6 413.1, 316.3 413.4 C 318 414.2, 307.3 413, 303 412 C 301.1 411.5, 295 410.1, 289.6 408.9 C 284.1 407.7, 277.6 405.9, 275.1 404.8 C 272.6 403.7, 266.2 401.3, 261 399.3 C 232.3 388.7, 221.1 383.7, 205.8 374.4 C 200.7 371.2, 191.7 366.3, 185.9 363.4 C 176.4 358.7, 162.6 350, 156.7 345 C 155.5 344, 150.3 339.7, 145.1 335.4 C 124.1 317.9, 99 293.3, 99 290.1 C 99 288.8, 97.3 288.6, 96.6 289.9 C 96 290.8, 107.9 305, 115 312 C 122.6 319.4, 141 335.7, 148 341 C 150.5 342.9, 153.4 345.3, 154.5 346.3 C 158.2 349.7, 174 359.9, 177.5 361.1 C 179.4 361.8, 181 362.8, 181 363.2 C 181 363.6, 181.6 364, 182.3 364 C 182.9 364, 186.4 365.9, 190 368.2 C 212.4 382.5, 242.8 396.8, 266.3 404.1 C 272.3 405.9, 276.7 407.6, 276.2 407.8 C 274.1 408.5, 255.7 403.1, 243.2 398.1 C 214.2 386.6, 196.7 377, 153.5 348.8 C 141.6 341.1, 135.1 336.1, 129 330 C 125.9 327, 120.8 322.4, 117.5 319.8 C 109.7 313.7, 89.8 292.5, 87.1 287.5 C 85.6 284.7, 84.9 284.1, 84.5 285.2 C 84.1 286.1, 84.7 288.1, 85.7 289.7 C 89.1 295.4, 110.9 317.5, 118.8 323.5 C 123.2 326.8, 126.6 329.7, 126.4 329.9 C 126.2 330.2, 124.7 329.5, 123.2 328.3 C 121.7 327.2, 116.4 323.6, 111.5 320.2 C 106.5 316.8, 101.5 313.2, 100.3 312.1 C 99.2 311, 97.9 310.4, 97.6 310.8 C 97.2 311.1, 97.2 310.7, 97.5 309.8 C 97.9 308.7, 96.8 307, 93.8 304.4 C 78.1 290.2, 73.8 285.5, 74.4 282.8 C 74.7 281.2, 74.5 280, 74 280 C 73.4 280, 73 279.5, 73 278.9 C 73 276.6, 100.2 278.6, 133 283.5 C 138.8 284.3, 147.3 285.5, 152 286 C 167.7 287.9, 189.4 292.3, 194 294.5 C 195.4 295.2, 198.1 296, 200 296.4 C 203.2 297, 203.3 296.9, 201.5 295.7 C 194.4 290.8, 183.6 287.6, 163 284.5 C 157.8 283.7, 149 282.4, 143.5 281.5 C 134 280, 121.3 278.2, 105.5 275.9 C 101.7 275.4, 93 274.8, 86.3 274.7 C 73.4 274.5, 71.5 273.7, 76.4 270.5 C 78.9 268.8, 91.6 270, 119.5 274.5 C 139.7 277.7, 149 279.2, 158 280.5 C 191.6 285.4, 203.1 289.4, 214 300 C 223.7 309.3, 228.1 311.5, 236.5 311.4 C 244.3 311.3, 252.1 308.7, 250.3 306.9 C 249.6 306.2, 248.6 306.1, 247.4 306.8 C 245 308, 232.1 309.4, 233.7 308.3 C 234.6 307.7, 233.8 307, 231.2 306 C 225.4 303.9, 223.3 302.2, 221.1 297.5 C 220 295.1, 217.6 291.4, 215.8 289.4 C 213.7 287, 213.2 286.1, 214.5 286.8 C 217.6 288.6, 220.2 291.1, 224.4 296.3 C 232.5 306.2, 245.1 307.9, 248.5 299.5 C 252.1 291.1, 248.1 283.9, 240 283.8 C 233.9 283.7, 231.5 284.6, 230.2 287.6 C 228.3 291.7, 228.8 292.3, 231.6 289.1 C 233.7 286.5, 234.9 286, 238.3 286 C 243.3 286, 244.2 286.6, 246.3 290.6 C 249.6 297.1, 246.8 302, 239.7 302 C 234.5 302, 232.6 300.9, 224.4 292.5 C 213.5 281.3, 206.6 278.8, 164.5 271.1 C 158.5 270, 150.1 268.6, 146 268 C 135.8 266.4, 119 263, 116.2 261.9 C 114.9 261.4, 112.6 261, 110.9 261 C 106.5 261, 108.1 259.5, 114.7 257.6 C 117.9 256.6, 121.4 255.5, 122.5 255 C 123.6 254.6, 126.8 253.4, 129.5 252.5 C 137.5 249.7, 143.2 247, 146.8 244.3 C 151.4 240.9, 156 240.3, 158.4 242.8 C 160.3 245, 160.2 245, 169.8 241.3 C 177 238.5, 177.9 238.8, 176.2 243.2 C 175.6 245, 175.2 246.6, 175.5 246.8 C 176.2 247.5, 179 244.9, 179 243.5 C 179 242.6, 183.9 242.2, 197.3 241.7 C 214.7 241.1, 225.8 239.8, 243.5 236.3 C 251.3 234.8, 254.5 234, 278 227.8 C 298.2 222.5, 311.4 219.4, 321.5 217.4 C 346.9 212.6, 356.1 211.7, 380.5 211.7 L 404.5 211.8 418.3 215.3 C 433.2 219.2, 448.3 223.6, 451.5 225.1 C 453.3 225.9, 461.5 227.9, 463.3 228 C 463.7 228, 464 227.6, 464 227.2 C 464 225.5, 440.4 217.5, 426.5 214.5 C 419.3 212.9, 414.6 211, 417.8 211 C 420.5 211, 430.6 203.5, 439.3 195.1 C 456.6 178.4, 473.8 170.6, 496 169.3 C 504.1 168.9, 504.6 168.9, 507.3 171.5 C 512.1 176.1, 511.2 179, 502.1 188.4 C 494.2 196.6, 489.6 202.9, 488.5 207.2 C 488.1 208.6, 485.9 210.7, 483 212.4 C 477.5 215.7, 474.9 220, 474.8 225.9 C 474.7 231.7, 477.1 235.1, 488.3 244.8 C 499.6 254.6, 512.6 268.1, 518.7 276.3 C 523.7 283, 532.6 295.4, 536.1 300.5 C 540.4 306.9, 549.4 324.6, 554 335.5 C 556.3 341, 558.6 346.4, 559.1 347.5 C 560.7 351, 563.7 361.3, 564.9 367.5 C 565.6 370.8, 568.1 379.8, 570.5 387.5 C 576 404.9, 577.3 410.8, 581.6 436.5 C 582.9 443.9, 585.9 465, 586 467.1 C 586 468, 587.6 468.1, 602 468.4 C 620.8 468.8, 629.4 471.1, 650.5 481.1 C 657.4 484.3, 662.4 488.9, 667.4 496.4 C 670.4 500.9, 673.5 505, 679 511.7 C 679.6 512.4, 680 513.5, 680 514.2 C 680 515, 680.6 516.4, 681.3 517.5 C 682.1 518.6, 683 520.3, 683.4 521.4 C 684 523.2, 683.9 523.2, 681.8 521.6 C 676.5 517.8, 676.1 517.8, 674.9 520.4 C 674.2 521.8, 674 523.6, 674.4 524.5 C 675.2 526.6, 677.6 525.9, 677.2 523.6 C 677 522.7, 677.4 522, 678 522 C 678.5 522, 679 522.5, 679 523.1 C 679 523.8, 680.2 525.4, 681.8 526.7 C 685.4 530, 687.5 529.8, 718.5 523.4 C 725.5 521.9, 731.8 521.5, 747.3 521.5 C 761.6 521.5, 767 521.2, 767 520.4 C 767 518.9, 739 517.5, 729.3 518.4 C 725.6 518.8, 717.1 520.2, 710.5 521.5 C 693.8 524.8, 688.4 525.5, 687.6 524.1 C 687.2 523.5, 687.4 523, 687.9 523 C 689.7 523, 689.1 519.8, 686.9 517.6 C 685.7 516.4, 682.7 512.1, 680.1 508 C 670.2 491.9, 660 480.1, 653.2 477 C 642 471.7, 638.2 470.1, 633 468.5 C 630 467.6, 626.2 466.3, 624.5 465.8 C 622.9 465.2, 614.6 464.5, 606.3 464.3 C 597.9 464, 591 463.7, 591 463.6 C 591 463.6, 590.3 459, 589.5 453.5 C 587.6 439.6, 585.4 426.9, 583.5 417.5 C 579.4 397.6, 578.8 395, 574.5 379.2 C 573.6 376.1, 572.5 371.7, 571.9 369.5 C 566.7 348.8, 550.7 313.4, 537.4 293.4 C 533.3 287.3, 530 282.1, 530 281.8 C 530 281.5, 532.9 282.8, 536.4 284.6 C 551.9 292.9, 585.1 300.9, 604.2 301 C 609.8 301, 610 301.1, 612.8 305.3 C 617.3 311.8, 624.1 317.5, 631.9 321.5 C 638.4 324.7, 644 330.4, 644 333.7 C 644.1 338, 662.6 356.1, 676.2 365.1 C 681.3 368.5, 687 372.5, 688.8 374.1 C 692.6 377.4, 693.3 377.6, 695.4 375.4 C 697.9 373, 698.3 369.6, 697.7 357.6 C 696.7 339.4, 693 331.4, 679.1 317.6 L 671.1 309.7 678.5 301.8 C 691.6 287.9, 701.1 269.9, 703.4 254.5 L 704 250.5 702.5 253.9 C 701.7 255.7, 701 257.7, 701 258.3 C 701 259.8, 693.1 275.9, 690.6 279.5 C 686.1 285.9, 676.9 296.7, 671.6 302 C 668.5 305, 666 308, 666 308.8 C 666 309.5, 670.5 314.7, 675.9 320.3 C 690.6 335.4, 695.4 347.7, 693.5 365.5 L 692.8 371.8 686.5 367.1 C 683 364.6, 677.6 360.7, 674.4 358.5 C 664.8 351.8, 653.8 340.3, 647.9 330.6 C 644.9 325.7, 641.8 321.4, 641 321 C 640.2 320.6, 637.5 319.3, 635 318.1 L 630.5 316 634.5 316.8 C 645.7 318.8, 657.9 315.7, 659.8 310.2 C 661.5 305.4, 658.2 304, 656.4 308.8 C 655.1 312.3, 645.2 315.6, 639.2 314.6 C 627.1 312.4, 619.6 307.1, 610.3 294.2 C 603 284, 598.5 280.3, 590.3 277.7 C 584.4 275.8, 584 275.7, 584 276.8 C 584 277.2, 586.1 278.4, 588.8 279.4 C 595.8 282.3, 601.1 286.2, 604.8 291.4 L 608.1 296 603.2 296 C 584.5 296, 549.5 287.7, 534 279.6 C 532.6 278.9, 530.3 278, 528.9 277.7 C 527.4 277.3, 524.7 275.1, 522.7 272.8 C 517.7 266.7, 504.3 253, 492 241.5 C 476.6 227.1, 475.6 223.9, 483.5 216.3 C 489.3 210.8, 489.8 210.9, 494 218 C 497.4 223.7, 500.5 226.8, 499.3 223.2 C 498.5 220.6, 496 214.7, 495 212.8 C 491.9 207.3, 494.8 201.1, 505.5 190 C 513.9 181.2, 515.4 172.3, 509.4 166.3 C 506.6 163.5, 493.4 163.1, 484 165.6 M 708.5 198.8 C 706.3 200.3, 704.4 201.8, 704.2 202.3 C 704 202.7, 703.2 203, 702.5 203 C 701.7 203, 700.4 203.8, 699.4 204.8 C 697.5 206.6, 681.1 207.4, 679.4 205.7 C 677.7 204, 681.2 202.8, 688.9 202.7 C 696.9 202.5, 697 202.5, 693.3 201.2 C 689.1 199.8, 681.4 200.5, 679 202.5 C 678.2 203.3, 674.8 205.3, 671.5 207 C 668.2 208.7, 665.3 210.5, 665 210.8 C 664.7 211.2, 663.3 212.3, 661.8 213.3 C 658.6 215.3, 657.9 217.7, 660.9 216 C 662 215.5, 663.4 214.4, 664.2 213.7 C 664.9 213, 667.8 211, 670.6 209.3 L 675.7 206.2 681.1 208.1 C 684.1 209.1, 687.8 209.9, 689.5 210 C 692.4 210, 702.2 205.7, 704.7 203.4 C 705.4 202.7, 708 201.2, 710.5 200 C 713 198.8, 715 197.4, 715 196.9 C 715 195.3, 712.5 196, 708.5 198.8 M 719 205 C 719 207.6, 717.6 211.4, 716 213 C 715.7 213.3, 714.4 214.7, 713.1 216.3 L 710.7 219 717 216.7 C 721.7 215.1, 723.4 214.8, 723.7 215.8 C 724.2 217.2, 729 217.5, 729 216 C 729 213.8, 724.8 204.4, 723.3 203.3 C 720.5 201.2, 719 201.8, 719 205 M 731 219.8 C 731 220.3, 731.7 221.5, 732.5 222.6 C 735.7 226.8, 733.7 234, 729.8 231.9 C 728.7 231.3, 727.3 231.3, 726.3 231.8 C 725.2 232.5, 726.3 232.9, 730.6 233.5 C 733.8 233.9, 738.6 235.3, 741.2 236.6 C 747.2 239.6, 754.7 239.8, 758.1 237.1 C 760.9 234.9, 760.1 233.3, 757.2 234.9 C 750.1 238.7, 740.5 234.4, 735.8 225.3 C 732.9 219.7, 731 217.5, 731 219.8 M 380.4 221.9 C 380.7 222.3, 388.9 223, 398.7 223.3 C 408.5 223.6, 417.9 224.3, 419.5 224.9 C 421.2 225.4, 425.7 226.7, 429.5 227.6 C 437.2 229.4, 446.8 232.5, 451.5 234.5 C 453.2 235.2, 455.6 236.1, 457 236.5 C 466.3 239.1, 446.8 229.8, 436.5 226.7 C 431.4 225.1, 423.3 223.4, 414.5 222 C 407.7 220.9, 379.7 220.8, 380.4 221.9 M 658.2 228.6 C 657.9 231.5, 656.7 232.3, 647.7 234.8 C 629.3 240, 615.3 251.1, 608.3 265.7 C 607 268.4, 606.3 269.1, 604.6 268.6 C 603.4 268.3, 599.1 267.1, 595 266 C 588.6 264.2, 586.7 264.1, 582.1 264.9 C 579.1 265.5, 572.4 266, 567.1 266 C 561.8 266, 555.7 266.5, 553.5 267.1 C 551.3 267.7, 543.8 268.5, 536.8 268.9 C 524.8 269.5, 521.8 270.1, 523.4 271.7 C 524.9 273.2, 542.2 273.2, 551.7 271.6 C 557.1 270.7, 564.9 270, 569 270.1 C 573.1 270.2, 579.5 270, 583.1 269.5 C 589.9 268.7, 597.7 270.4, 602.5 273.6 C 606 276.1, 607.5 275.2, 611.5 268.3 C 619.3 254.7, 632.1 244.3, 647.9 238.6 C 654.7 236.1, 655.8 236, 662.4 236.9 C 666.4 237.5, 670.5 237.7, 671.5 237.5 C 672.6 237.3, 677 236.6, 681.3 235.9 C 685.6 235.3, 689.3 234.3, 689.6 233.9 C 689.9 233.4, 690.9 233, 691.9 233 C 693.9 233, 699.4 229.1, 698.6 228.2 C 698.3 228, 697.5 228.2, 696.8 228.7 C 692.6 232.1, 671 235.2, 662.7 233.6 C 659.6 233, 659.1 232.5, 658.7 229.7 C 658.5 227.9, 658.2 227.5, 658.2 228.6 M 182.9 249.3 C 184.4 250.8, 222.2 250.5, 224.9 249 C 225.9 248.4, 218.8 248.1, 204.1 248 C 186.1 248, 181.9 248.3, 182.9 249.3 M 93 259.1 C 88.1 260.5, 83 263.2, 83 264.6 C 83 265.3, 85.7 266, 89.8 266.5 C 93.5 266.8, 102.8 268.2, 110.5 269.5 C 131.3 272.9, 143.6 274.8, 152 275.9 C 172.3 278.5, 177 279.2, 182.5 280.6 C 199.4 284.9, 204.9 287.7, 214.2 296.8 C 223.1 305.4, 223.5 305.5, 218.1 297.3 C 208.4 282.8, 203.6 281.1, 141.5 270.5 C 128.2 268.2, 113.4 264.4, 106.3 261.3 C 104.6 260.6, 102.3 260, 101.2 260 C 100 260, 98.8 259.6, 98.5 259 C 97.8 257.9, 97.7 257.9, 93 259.1 M 484 260.7 C 484.1 261.1, 486.9 264, 490.4 267 C 501 276.4, 512.8 292.1, 520.7 307.5 C 525.1 316, 536 339.7, 536 340.7 C 536 341, 536.6 342.6, 537.4 344.3 C 538.2 346.1, 539.8 349.8, 541 352.5 C 542.1 355.3, 543.5 358.3, 544 359.2 C 544.6 360.2, 545 361.5, 545 362.2 C 545.1 362.9, 545.9 365.3, 547 367.5 C 548.1 369.7, 548.9 372.3, 549 373.2 C 549 374.1, 549.4 375.1, 549.9 375.4 C 550.4 375.8, 551.1 377.8, 551.5 380 C 551.9 382.2, 552.5 384.2, 553 384.5 C 553.5 384.8, 554.1 386.8, 554.5 389 C 554.9 391.2, 555.5 393.2, 556 393.5 C 556.4 393.8, 557.1 396, 557.4 398.5 C 557.8 400.9, 558.5 403.2, 559.1 403.5 C 559.6 403.9, 560 405, 560 406 C 560 407.1, 560.6 409.9, 561.4 412.2 C 562.2 414.6, 563.8 419.9, 565 424 C 569.1 438, 573.3 450.5, 574.2 451.5 C 574.6 452, 575 453, 575 453.8 C 575 454.5, 575.9 457.2, 577.1 459.8 C 578.2 462.4, 579.8 466.1, 580.6 468 C 581.4 469.9, 582.5 472.3, 583 473.2 C 583.5 474.1, 584.3 476.8, 584.6 479.2 C 585.3 484, 587.6 489, 588.9 489 C 589.4 489, 589.2 486.6, 588.4 483.8 C 587.7 480.9, 587 477.3, 587 475.8 C 587 474.3, 586.4 472.7, 585.7 472.3 C 584.3 471.5, 578.7 458.9, 575.5 449.5 C 574.6 446.8, 573.5 443.8, 573 443 C 572.6 442.1, 571.9 439.9, 571.5 438 C 571.1 436.1, 570.4 434.1, 570 433.5 C 569.6 433, 568.9 430.7, 568.5 428.5 C 568.1 426.3, 567.5 424.1, 567 423.5 C 566.6 423, 565.9 420.8, 565.6 418.6 C 565.2 416.5, 564.5 414, 564.1 413.1 C 563.6 412.2, 562.5 409, 561.7 406 C 558.3 394.4, 555.8 386.4, 555 385 C 554.6 384.1, 553.9 381.9, 553.5 380 C 553.1 378.1, 552.4 375.9, 552 375 C 551.5 374.2, 549.7 369.5, 548 364.5 C 545.1 356.5, 543 351.3, 540 344.5 C 539.5 343.4, 538.1 340.3, 537 337.5 C 532.6 327.4, 523.7 309, 517.7 297.7 C 511.5 286.2, 483.7 255.6, 484 260.7 M 652.9 271 C 642.6 276.4, 635.3 295.3, 640.6 302.8 C 643.1 306.5, 643.5 305.4, 643.5 295.3 C 643.5 282.3, 646.1 277.3, 656 270.7 C 659.3 268.4, 657.3 268.6, 652.9 271 M 469 275.4 C 469 275.6, 471.1 277, 473.7 278.4 C 485.4 285, 498 297.3, 508.5 312.4 C 513.2 319.2, 524 336.7, 524 337.5 C 524 338.8, 530.8 351.9, 531.2 351.4 C 531.8 350.9, 530.5 347.1, 527.4 340.3 C 526.6 338.6, 526 336.9, 526 336.6 C 526 336.1, 514.1 316.2, 512.8 314.5 C 512.3 314, 509.8 310.5, 507.1 306.9 C 500 297.4, 490.7 288.2, 481.2 281.1 C 474.2 276, 469 273.6, 469 275.4 M 234.8 289.6 C 232 291.1, 230.7 296, 233.1 296 C 233.7 296, 234 296.6, 233.7 297.4 C 232.7 299.9, 239.3 301, 243.1 299 C 246.4 297.2, 244.7 289, 241 289 C 240.5 289, 239.6 288.8, 238.8 288.5 C 238.1 288.3, 236.3 288.7, 234.8 289.6 M 108.7 289.7 C 107.8 290.6, 119.4 304.1, 128.7 313 C 153.7 337.2, 175.8 354.8, 185.5 358.4 C 188.5 359.5, 186.4 357.7, 171 346.3 C 153.7 333.6, 150.4 330.6, 127.8 307.9 C 117.6 297.6, 108.9 289.4, 108.7 289.7 M 128 296 C 128 299.6, 152.6 324.8, 169.4 338.5 C 172.1 340.7, 177.5 345.1, 181.4 348.4 C 190.3 355.7, 195.8 359.5, 196.7 358.6 C 197 358.3, 197.1 357.9, 196.9 357.7 C 193.9 355.5, 182.2 346.1, 181 345 C 180.1 344.2, 177.4 341.9, 175 340 C 159.7 327.8, 132.1 300.8, 130.7 296.5 C 129.7 293.5, 128 293.2, 128 296 M 263.9 294.7 C 261 295.1, 257.2 298.6, 258.4 299.7 C 258.7 300.1, 259.7 299.4, 260.6 298.2 C 261.4 297, 263.1 296, 264.3 296 C 266.3 296, 266.2 296.2, 263.5 297.8 C 258 301.2, 257.6 302.5, 261 305.4 C 265 308.7, 268.5 308.7, 273.3 305.4 C 278 302.3, 277.6 301.1, 272.9 303.9 C 271 305.1, 268.4 306, 267 306 C 265.1 306, 265.7 305.4, 269.8 303.5 C 274.8 301.2, 277.2 298.2, 273 299.5 C 270.9 300.2, 270.1 297.7, 272 296.5 C 275.1 294.6, 270.7 293.7, 263.9 294.7 M 358.6 295.6 C 353.4 296.6, 346.8 298.9, 338.6 302.7 C 328.5 307.5, 325.6 308.4, 320.8 308.4 C 314.6 308.5, 313.3 309.9, 317.5 311.8 C 320.6 313.2, 322.5 313.3, 324.8 312 C 325.7 311.5, 328.1 310.4, 330 309.6 C 331.9 308.8, 336.6 306.8, 340.4 305 C 359 296.6, 375.8 295, 391.9 300.1 C 404.4 304.1, 409.4 305.9, 416.5 309 C 417.6 309.5, 420.5 310.8, 423 311.9 C 425.5 312.9, 431.6 315.7, 436.5 318 C 441.5 320.3, 447.5 323.1, 450 324.2 C 485 339.8, 500.1 351.7, 518.5 378 C 527.2 390.4, 536 403.8, 536 404.6 C 536 405.1, 536.9 406.9, 538.1 408.5 C 540 411.3, 540.1 411.3, 539.5 409 C 536.3 396.6, 511.8 362, 497.7 349.9 C 483 337.2, 465.8 328, 417.5 307 C 416.4 306.5, 413.4 305.2, 410.8 304.1 C 408.2 302.9, 405.6 302, 405 302 C 404.5 302, 403.2 301.6, 402.2 301.1 C 398.7 299.2, 390 297, 380.1 295.5 C 368.5 293.8, 369 293.8, 358.6 295.6 M 488.9 309.9 C 489.5 311, 490.5 312.2, 491.1 312.5 C 493.1 313.8, 504.3 329.8, 506.1 334 C 509.4 341.8, 510.5 344, 511.2 344 C 511.6 344, 512 344.4, 512 345 C 512 346, 521.9 363.2, 523 364 C 526.7 366.8, 548.5 410.1, 553.5 424.5 C 554.4 427.3, 555.6 430.4, 556 431.5 C 556.4 432.6, 557.8 436.4, 559.1 440 C 560.3 443.6, 561.6 447, 562 447.5 C 562.4 448.1, 563.5 450.8, 564.5 453.5 C 565.5 456.3, 567.1 460.3, 568 462.5 C 569 464.7, 571.4 471, 573.4 476.5 C 575.4 482, 578.6 489, 580.4 492 C 584.7 499.1, 590 510, 590 511.6 C 590 512.8, 588.1 513.2, 575 514.9 C 561.1 516.6, 540 525.4, 536 531.1 C 532.8 535.4, 535.2 535.5, 543.7 531.1 C 558.2 523.8, 570.4 519.5, 574.7 520.3 C 576.3 520.6, 578.8 520.1, 580.9 518.9 C 586.3 516, 587.1 516.1, 613.6 522.5 C 616.9 523.3, 621 524, 622.7 524 C 630.6 524, 634.7 526.3, 629 527.5 C 623.2 528.8, 624.4 530.3, 630.8 529.8 C 636.4 529.2, 637 529.4, 639.4 531.9 C 643.1 535.7, 650.4 539.2, 653.7 538.8 C 656.4 538.4, 656.5 538.4, 654.3 537.4 L 652 536.5 654.1 532.6 C 656.6 527.9, 656 526.8, 653 530.9 C 650.2 534.9, 649.2 534.8, 642.8 529.7 C 635.7 523.9, 632.6 522.4, 623.9 520.5 C 598.1 515, 594.5 513.2, 589 502.8 C 587.2 499.3, 585.4 496.3, 585 496 C 584.6 495.7, 582.7 491.5, 580.7 486.5 C 578.8 481.6, 575.3 473.5, 573.1 468.7 C 570.8 463.8, 569 459.6, 569 459.2 C 568.9 458.8, 568.1 456.7, 567 454.5 C 565.9 452.3, 565.1 449.8, 565 449 C 565 448.1, 564.6 447, 564.1 446.5 C 563.6 445.9, 561.6 440.6, 559.5 434.5 C 557.5 428.5, 555.5 422.6, 555 421.5 C 554.5 420.4, 553.2 417.3, 552 414.5 C 548.3 405.8, 546.9 402.7, 542.5 394 C 535.2 379.4, 533.2 375.9, 523 360 C 517.6 351.5, 510.6 339.6, 507.5 333.5 C 501.8 322.3, 493.7 311, 489.9 309 C 488 307.9, 487.9 308, 488.9 309.9 M 347.5 312.1 C 344.2 312.7, 338.4 312.9, 334.5 312.6 C 330.7 312.3, 326.8 312.5, 326 313 C 324.8 313.8, 325.1 314, 327.2 314 C 328.7 314, 330.9 314.4, 332.2 315 C 333.5 315.5, 337.7 316.4, 341.5 316.9 C 347.6 317.7, 357.4 320.2, 375 325.5 C 377.5 326.2, 381.2 327.4, 383.3 328 C 385.4 328.6, 393.7 332, 401.8 335.4 C 417 342, 423.9 344.5, 449.5 353.1 C 470.7 360.2, 491.7 370.9, 499.8 378.7 C 500.5 379.4, 501.7 380, 502.3 380 C 506.9 379.8, 485.2 364.7, 471.5 358.4 C 462.4 354.3, 462.6 354.4, 445 348.6 C 426.3 342.5, 409.2 336.2, 401 332.4 C 390.2 327.3, 385.5 325.6, 373 322.1 C 368.9 320.9, 364.1 319.5, 362.5 319 C 360.8 318.5, 357.3 317.7, 354.7 317.4 C 343.3 315.8, 352.4 313.5, 370 313.5 C 384.9 313.5, 390.3 314.9, 406.5 322.8 C 412.6 325.8, 419.8 329.1, 422.5 330.1 C 425.3 331.2, 428.4 332.5, 429.5 333 C 430.6 333.5, 433.8 334.8, 436.5 336 C 439.3 337.1, 442.3 338.5, 443.2 339 C 444.2 339.6, 445.5 340, 446 340 C 446.6 340, 449.2 340.9, 451.8 342.1 C 454.4 343.2, 457.4 344.5, 458.5 345 C 474.7 351.8, 493.2 362.9, 502.4 371.2 C 507.4 375.7, 506.7 373.3, 501.4 367.9 C 493.3 359.7, 461.6 341, 455.6 341 C 455 341, 454 340.6, 453.5 340.1 C 452.9 339.6, 450.9 338.7, 449 338.2 C 444 336.8, 413.8 323.8, 405 319.3 C 390.4 311.7, 390.2 311.7, 371 311.4 C 361.4 311.3, 350.8 311.6, 347.5 312.1 M 253 313.7 C 253 315.5, 257.2 320.1, 261.1 322.6 C 264.1 324.5, 267.8 325.4, 277.2 326.6 C 288.4 328, 290.4 328.6, 299.5 333.1 C 309.1 337.8, 313.8 339.3, 328 342 C 333.3 343, 335.3 343.9, 339.1 347.3 C 341.6 349.6, 346.2 353.5, 349.4 355.9 C 355.6 360.6, 360.1 365.9, 367 377.1 C 373.5 387.4, 391.4 404.1, 402 409.5 L 410 413.7 405.7 415 C 403.4 415.7, 401.1 416.4, 400.5 416.5 C 400 416.7, 403.3 416.7, 408 416.7 C 417.2 416.5, 419.9 418, 412.8 419.3 C 410.4 419.8, 399.1 420.2, 387.5 420.3 C 364.6 420.5, 360.8 419.7, 354.8 413.3 C 353.6 412, 351.5 411, 349.8 411 C 346.6 411, 343 407.9, 343 405.1 C 343 401.5, 339.3 394.4, 336 392 C 328.3 386.1, 326.1 383.8, 325.5 380.7 C 325.1 378.9, 324.4 377.1, 324 376.5 C 323 375.1, 319 362, 319 359.9 C 319 358.9, 318.6 357.9, 318.1 357.6 C 317.7 357.3, 317 355.6, 316.6 353.9 C 315.4 347.7, 309.2 341.2, 300.3 336.8 C 294.9 334.1, 291.6 333, 290.3 333.4 C 288.6 334.1, 288.6 334.2, 290.4 335.6 C 291.5 336.4, 293 337, 293.8 337 C 294.5 337, 297.5 338.1, 300.4 339.4 C 308.2 343, 313 349, 315.9 358.6 C 322.3 380.4, 324.8 385.7, 331.6 391 C 337.2 395.4, 338 396.5, 339.4 401.7 C 342.1 411.4, 342.1 411.3, 355.1 417.9 C 364.6 422.7, 368.9 424.3, 374.4 425.1 C 385.6 426.6, 397.5 427.3, 400.4 426.6 C 405.6 425.3, 401.8 424, 392.9 424 C 387 424, 384.1 423.6, 384.5 423 C 384.9 422.3, 391 422, 400.8 422.2 C 417.5 422.4, 422 421.5, 422 418.1 C 422 415.7, 420.1 414.2, 415.9 413.3 C 414 413, 411.4 412, 410 411.1 C 404.6 407.7, 388.3 395, 384 390.8 C 379.1 386.2, 370.5 375.2, 371.1 374.5 C 371.4 374.3, 374.9 373.6, 379 373.1 C 383.1 372.5, 390.1 371.3, 394.5 370.4 C 408.7 367.6, 417.3 366.1, 429 364.5 C 435.3 363.6, 441 362.8, 441.6 362.6 C 443.4 362, 456.9 365.5, 464.2 368.4 C 501.5 383.5, 534.5 415.4, 557.4 458.4 C 560.9 464.9, 560.8 465.5, 555.3 468.1 C 550.4 470.4, 525.9 486.6, 519.5 491.7 C 515.1 495.2, 508.3 504.5, 503.5 513.5 C 498.7 522.4, 498.4 522.8, 495.3 523.2 C 492.3 523.5, 490.9 526, 493.6 526 C 495.1 526, 495.2 526.2, 493.8 527.8 C 491.4 530.5, 485.7 539.1, 483.5 543.2 L 481.6 546.9 484.5 550 C 487.8 553.5, 488.3 553.6, 490.4 551.4 C 491.8 550.1, 492.6 550, 495.6 551 C 497.5 551.7, 499.4 552, 499.7 551.7 C 500.7 550.6, 499 549.3, 496 548.7 C 494.4 548.3, 493 547.6, 493 547.1 C 493 546.4, 493.9 546.4, 495.3 546.9 C 497.2 547.6, 498.1 547.4, 499.3 545.9 C 500.2 544.9, 501.5 544, 502.2 544.1 C 503.2 544.1, 503.2 544.3, 502.3 544.7 C 498.6 546.1, 501.7 550.6, 506.7 551.1 C 510.5 551.5, 511.3 549.7, 507.6 549.2 C 505 548.9, 501.7 546, 503.9 546 C 504.6 546, 504.8 545.6, 504.5 545 C 504.2 544.5, 504.8 544, 505.8 544 C 506.9 544, 508.1 544.7, 508.4 545.6 C 509.3 548, 513.4 547, 513.8 544.3 C 514.1 542.2, 513.8 542.1, 510.9 542.7 C 508.6 543.1, 507.9 543, 508.4 542.2 C 508.8 541.5, 510.6 541, 512.3 541 C 514.1 541, 516.1 540.6, 516.9 540.1 C 517.9 539.4, 519.2 539.8, 520.8 541.1 C 524.6 544, 532 543.5, 532 540.3 C 532 539.2, 532.3 539, 533.3 539.8 C 534 540.4, 537.3 541.3, 540.5 541.9 C 555.8 544.5, 564 546.1, 570 547.5 C 609.6 556.9, 618 557.8, 655.5 556.5 C 679.1 555.8, 688.4 556.3, 704 559.6 C 720.2 563, 749.2 562.1, 754.5 558 C 755.1 557.6, 757.1 556.9, 759 556.6 C 763.9 555.6, 768 553.9, 768 552.9 C 768 551.7, 764.9 551.8, 761.1 553.1 C 758.5 554, 756.6 553.8, 749.7 551.6 C 745.2 550.2, 740.6 548.9, 739.5 548.6 C 738.4 548.4, 740 548.2, 743 548.1 C 749.2 548, 766.3 546, 766.9 545.4 C 768.7 543.7, 764.5 543.1, 757.9 544 C 747.8 545.5, 726.7 545.3, 720 543.6 C 713.6 542, 714.2 541.7, 727 539.5 C 732.2 538.6, 738.9 537.5, 741.9 536.9 C 744.9 536.4, 752 536, 757.7 536 C 768.2 536, 771.5 534.7, 763.8 533.6 C 758.7 532.9, 741 534.4, 729 536.5 C 720.3 538, 703.7 540.2, 687.5 542 C 682.6 542.6, 677.2 543.5, 675.5 544 C 673.9 544.5, 669 546.1, 664.8 547.5 C 655.5 550.5, 655.8 550.5, 656.6 547.6 C 657.1 545.7, 656.7 545.1, 654.5 544.6 C 651.6 543.8, 647 546.1, 647 548.3 C 647 549, 645.3 550.4, 643.3 551.5 C 636.4 555.3, 618.5 554.3, 592 548.6 C 566.1 543.1, 557.5 541.5, 543.5 539.6 C 535.1 538.5, 534.4 538.2, 533.1 535.5 C 532.1 533.4, 532 532.2, 532.8 530.9 C 535.1 527.2, 530.4 527, 522.5 530.5 C 519.5 531.8, 516.7 533.6, 516.4 534.5 C 516.1 535.3, 515 536, 514.1 536 C 513.1 536, 511.4 536.9, 510.2 538 C 509.1 539.1, 507 540, 505.6 540 C 504.2 540, 502.9 540.4, 502.6 540.9 C 502.3 541.4, 500.5 542.1, 498.6 542.4 C 496.7 542.8, 495 543.4, 494.8 543.8 C 494.3 544.9, 488.2 549, 487.1 549 C 485.2 549, 485 547.2, 486.5 544.4 C 487.3 542.8, 488 541.1, 488 540.5 C 488 540, 491.3 535.6, 495.3 530.8 C 499.2 526.1, 505.9 516.9, 510 510.4 L 517.5 498.7 532.8 487.3 C 547.1 476.6, 555.7 471.2, 560.6 469.6 C 562.3 469.1, 563 469.8, 564.8 474 C 566 476.8, 567 479.7, 567 480.5 C 567 482.1, 569.7 483.7, 570.7 482.7 C 571.5 481.8, 566.4 466.7, 562.6 458.5 C 543.3 417.7, 512.9 385.7, 476.4 367.9 C 469.7 364.7, 463.6 362, 462.8 362 C 462 362, 461 361.6, 460.5 361.1 C 459.4 360.1, 443.5 355.1, 432 352.2 C 415.3 347.9, 401.4 346.5, 366.5 345.4 C 346.6 344.9, 343.2 344.5, 341.5 343 C 337.7 339.6, 336.7 339.3, 318.5 335.8 C 311.9 334.6, 305.6 332.2, 299.7 328.8 C 297.1 327.3, 294.6 326, 294.2 326 C 293.7 326, 293 325.6, 292.4 325 C 291.9 324.5, 286 323.9, 279.4 323.7 C 266.3 323.3, 259.4 320.9, 254.9 315.2 C 253.9 313.8, 253 313.2, 253 313.7 M 721 347 C 708.6 348.2, 701 349.7, 701 351.1 C 701 351.6, 703.1 352, 705.8 352 C 710.1 352, 713.6 352.7, 719.8 354.5 C 721 354.9, 722 354.8, 722 354.3 C 722 353.8, 719.9 352.8, 717.3 352 C 713.5 350.8, 713 350.5, 715 350.3 C 723.5 349.3, 725.9 348.8, 727.6 347.5 C 728.7 346.7, 729.3 346.1, 729 346.2 C 728.7 346.3, 725.1 346.6, 721 347 M 349.5 350.1 C 350.6 350.8, 353.5 353.2, 356 355.5 C 360.4 359.5, 360.9 359.7, 369.5 360.6 C 382.6 361.9, 409.2 361.7, 419 360.2 C 423.7 359.5, 429 358.7, 430.8 358.4 C 446.1 356.1, 408.4 350.4, 372.5 349.5 C 352.9 349.1, 347.9 349.2, 349.5 350.1 M 598.1 371.3 C 589.8 371.9, 587.1 372.5, 584.6 374.3 L 581.5 376.5 586 377.2 C 588.5 377.5, 603 377.6, 618.2 377.3 C 644 376.7, 646.1 376.5, 647.7 374.7 C 651 371.2, 647.9 370.4, 633.9 371.2 C 615.7 372.3, 615.8 372.3, 612 371.4 C 610 370.8, 604.1 370.8, 598.1 371.3 M 596.8 373.2 C 591.4 373.8, 587 374.7, 587 375.2 C 587 376.1, 644.9 375.3, 645.9 374.4 C 647.5 372.9, 639.1 372.6, 618.5 373.2 C 615.8 373.3, 611.9 373.1, 610 372.8 C 608.1 372.5, 602.1 372.7, 596.8 373.2 M 632.1 394.6 C 627.3 397.2, 613.9 398.1, 610 396 C 607.8 394.8, 605 395.7, 605 397.5 C 605 398.9, 612.2 400, 621.4 400 C 626.1 400, 628.4 399.4, 632.5 397.1 C 637.3 394.4, 637.9 394.2, 640.5 395.6 C 643.6 397.2, 652 397.5, 652 396 C 652 395.5, 650.5 395, 648.6 395 C 646.8 395, 643.6 394.3, 641.7 393.5 C 637.2 391.7, 637.5 391.6, 632.1 394.6 M 223 397 C 223 400.7, 227.2 411.4, 230.7 416.5 C 232.6 419.3, 237.8 426.9, 242.3 433.5 C 248.7 442.9, 251.9 446.5, 257 450.3 C 265.4 456.6, 281.1 466, 283.2 466 C 285.4 466, 286.5 464.1, 285.1 462.7 C 284.3 461.9, 284 461.9, 284 462.8 C 284 463.5, 283.5 464, 283 464 C 282.4 464, 282.5 463.2, 283.2 462.1 C 284.2 460.5, 283.7 458.2, 280.3 448.8 C 278.1 442.6, 275.3 434.5, 274.1 430.7 C 272.9 427, 271.2 422.8, 270.4 421.2 C 269.7 419.7, 269 417.6, 269 416.5 C 269 413.1, 266.2 410, 263.2 410 C 260.2 410, 253.3 407.8, 239.7 402.3 C 234.8 400.4, 230.7 399, 230.5 399.2 C 229.8 399.9, 233.4 409.5, 235.6 413.2 C 236.9 415.2, 240.2 419.2, 242.9 422.2 C 245.6 425.1, 249.3 430.2, 251 433.5 C 253.6 438.5, 255.6 440.7, 262.1 445.4 C 266.4 448.7, 270 451.7, 270 452.2 C 270 453.3, 269.5 453, 261.9 447.9 C 255.5 443.6, 250.3 438.1, 248.4 433.4 C 247.6 431.6, 243.9 426.6, 240 422.3 C 233 414.5, 228.2 406.3, 227.3 400.2 C 226.6 396.4, 223 393.6, 223 397 M 93.1 404.6 C 88 411, 95.2 418, 102.9 414.2 C 108.2 411.7, 108.2 406.8, 102.9 403.8 C 98.6 401.3, 95.5 401.6, 93.1 404.6 M 94.7 405.8 C 92.5 408.2, 92.6 409.3, 94.8 411.3 C 98.8 415, 106.5 411.6, 104.1 407.2 C 102.2 403.6, 97.3 402.9, 94.7 405.8 M 733.5 420 C 733.2 420.5, 730.8 420.7, 728.2 420.4 C 720.8 419.5, 715 422.5, 710.9 429.4 C 708.3 433.7, 706.8 435.1, 704 435.9 L 700.5 436.9 704.9 436.7 C 708.8 436.5, 709.4 436.1, 711.4 432.6 C 715.5 425.1, 720.6 421.7, 727.3 422.1 C 729.6 422.2, 733.3 421.7, 735.5 421.1 C 740.9 419.4, 744.3 420, 745.5 422.7 C 746 424, 746.9 425.2, 747.5 425.4 C 749.7 426.2, 762.1 424.7, 761.2 423.8 C 760.6 423.2, 758.2 423.2, 754.9 423.9 C 749.7 424.8, 749.4 424.7, 746.5 421.9 C 743.3 418.9, 735 417.6, 733.5 420 M 693.9 439.1 C 691.9 440.2, 688.3 442.8, 685.9 444.9 C 682.1 448.4, 681.8 449, 683 450.5 C 684.3 452.1, 686.1 452.2, 701.3 451.6 C 710.5 451.2, 719.3 450.5, 720.8 450 C 722.3 449.5, 725.5 448.9, 728 448.5 C 732.6 447.9, 736.9 445.6, 735.7 444.3 C 735.3 444, 734 444.2, 732.7 444.8 C 726.9 447.9, 686.7 452, 684.5 449.8 C 683.7 449.1, 690 443.1, 692.2 442.4 C 693.2 442.1, 694 441.4, 694 440.9 C 694 440.4, 694.6 440, 695.3 440 C 696 440, 697.5 439.3, 698.6 438.5 C 701.5 436.3, 698.3 436.7, 693.9 439.1 M 477 460.4 C 476.4 461.2, 476 462.9, 476.2 464.2 C 476.8 468.6, 488 467.7, 488 463.2 C 488 459.6, 479.6 457.4, 477 460.4 M 493.2 493.3 C 492.2 494.5, 491.7 496.6, 491.9 498.7 C 491.9 499.4, 493.1 500.7, 494.5 501.6 C 497.4 503.5, 502 501.5, 502 498.2 C 502 493.5, 495.8 490.1, 493.2 493.3 M 456.2 517.2 C 455.5 517.9, 455 519.7, 455 521.2 C 455 523.9, 454.8 524, 450 524 C 446.1 524, 444.8 523.6, 444 522 C 441.4 517.1, 434.9 517.2, 432.8 522.2 C 431.5 525.1, 431.4 525.2, 425.8 524.5 C 415.1 523.4, 404.5 523.8, 396.8 525.9 C 389.8 527.7, 387 527.8, 358.6 527.3 C 334.7 526.8, 327.7 526.4, 326.9 525.3 C 325.2 523.4, 323 523.7, 323 525.9 C 323 527, 323.9 528, 325.3 528.4 C 326.7 528.7, 328.4 530.6, 329.8 533.5 L 332 538.1 350.3 538 C 360.3 538, 369 537.9, 369.5 538 C 370.1 538, 368.3 539.1, 365.5 540.4 C 362.8 541.7, 357.7 545.2, 354.3 548.3 C 350.6 551.6, 346 554.6, 342.8 555.8 C 336.2 558.2, 320.8 560.4, 316.6 559.4 C 314.9 559, 313.1 558.6, 312.5 558.5 C 309.9 558.2, 303 555.8, 302.5 555 C 302.2 554.6, 299.8 553.4, 297.1 552.5 C 294.5 551.7, 291.2 549.8, 290 548.5 C 288.7 547.1, 286.9 546, 285.9 546 C 285 546, 283.7 545.3, 283 544.5 C 282.3 543.7, 281.2 543, 280.6 543 C 279.6 543, 263 531.4, 263 530.7 C 263 530.6, 270.1 530.5, 278.7 530.5 C 287.4 530.5, 297.5 530.1, 301.3 529.6 C 307.5 528.8, 308 528.9, 308 530.6 C 308.1 532.4, 308.1 532.4, 309.1 530.8 C 309.6 529.8, 311.2 529, 312.6 529 C 313.9 529, 315 528.6, 315 528 C 315 527.4, 312.2 527, 308.5 527 C 304.8 527, 302 526.6, 302 526 C 302 525.5, 301.3 525, 300.5 525 C 299.7 525, 299 525.5, 299 526 C 299 526.6, 298 527, 296.9 527 C 295 527, 294.8 526.6, 295.4 524 C 295.9 521.2, 295.8 521, 294 522 C 292.9 522.6, 292 524, 292 525 C 292 526.9, 291.2 527, 277.1 527 C 267.4 527, 261.2 526.6, 259.4 525.7 C 256.2 524.4, 250.8 521, 250 519.9 C 249.7 519.5, 248.2 518.8, 246.7 518.5 C 243.4 517.6, 243 519.6, 246.3 521 C 250 522.6, 261.2 530.9, 266 535.6 C 270.9 540.3, 281 547.1, 290 551.7 C 293 553.2, 295.7 554.8, 296 555.1 C 296.3 555.5, 299.5 557.2, 303.2 558.9 C 309.3 561.7, 310.8 562, 319.8 562 C 337.7 562, 347.7 558.7, 357.9 549.6 C 363.6 544.6, 380.4 536, 384.6 536 C 386.9 536, 386.2 534.1, 383.6 533.4 C 382.2 533.1, 379.9 533.5, 377.9 534.5 C 375.2 536, 371.7 536.2, 354.6 536.1 L 334.5 535.9 331.6 533 C 329.9 531.4, 328.9 529.8, 329.2 529.5 C 330.6 528.1, 380.5 530.7, 383.7 532.3 C 385.5 533.3, 387.7 534, 388.7 533.9 C 390.3 533.9, 390.3 533.8, 388.5 533 C 386.7 532.2, 386.8 532.1, 389.3 532.1 C 390.8 532, 392.8 531.6, 393.8 531.1 C 400 527.8, 406 526.5, 414 526.6 C 423.3 526.8, 433 527.6, 437.3 528.6 C 439.4 529.1, 440 528.9, 440 527.6 C 440 526.7, 439.2 526, 438.1 526 C 435.3 526, 434.5 524.1, 436.4 522.2 C 438 520.6, 438.3 520.7, 441 523.7 C 444.1 527.1, 447.5 528.7, 448.5 527 C 448.8 526.5, 450.1 526, 451.3 526.1 C 452.5 526.1, 452.9 526.4, 452.3 526.7 C 450.5 527.4, 450.7 529, 452.5 529 C 453.2 529, 454.3 528.2, 454.9 527.3 C 455.7 525.8, 456.1 525.7, 457.1 526.8 C 458.9 528.5, 462 528.3, 462 526.5 C 462 525.7, 461.1 525, 460.1 525 C 457.3 525, 456.8 522.5, 459 519.7 C 461.6 516.4, 459.1 514.3, 456.2 517.2 M 225.3 518.7 C 224.6 518.9, 224 519.8, 224 520.6 C 224 522.3, 224.5 522.3, 227 520.8 C 229 519.5, 236 522.1, 236 524.2 C 236 525.3, 234.3 525.2, 233.6 524.1 C 232.5 522.5, 227 521, 227.6 522.5 C 227.9 523.2, 229 524, 230.1 524.3 C 233.3 525.1, 232.3 526.7, 228.1 527.4 C 225.9 527.7, 224 528.6, 223.8 529.2 C 223.5 530, 222.9 529.6, 222.1 528.2 C 220.8 525.8, 218.4 525.4, 214.5 527.2 C 212.2 528.3, 211.6 529.5, 211.8 532.9 C 211.8 533.7, 211.1 534.9, 210.2 535.6 C 207.5 537.6, 209.5 538.3, 212.9 536.6 C 214.5 535.7, 216.7 535, 217.7 535 C 218.7 535, 220.6 533.8, 221.9 532.5 C 223.2 531.1, 224.7 530, 225.3 530 C 228.2 530, 238 526.4, 238 525.3 C 238 521.4, 229.5 517, 225.3 518.7 M 125 523.6 L 125 526.7 104.8 527.3 C 93.6 527.7, 67.6 528, 47 528.1 C 8.7 528.1, 2.5 528.5, 2.5 530.9 C 2.5 532.3, 86 532.7, 102.4 531.5 C 105.5 531.2, 108.2 531.5, 108.5 532 C 108.9 532.6, 109.6 532.8, 110.1 532.4 C 112.3 531.1, 118.9 531.2, 119.4 532.6 C 119.8 533.7, 119.4 533.9, 117.7 533.5 C 116 533, 114.9 533.6, 113.3 535.8 L 111.2 538.7 113.2 541.8 C 114.3 543.6, 115.9 545, 116.8 544.9 C 117.8 544.9, 118 544.6, 117.3 544.4 C 116.6 544.1, 117 542.4, 118.7 539.5 C 121 535.2, 121.4 535, 125.6 535 C 128 535, 130 534.6, 130 534 C 130 532.9, 128.9 532.7, 124.8 533 C 123.4 533.1, 121.9 532.6, 121.5 532 C 120.4 530.3, 121.8 529.6, 123.5 531 C 124.7 532, 125 532, 125 530.6 C 125 528.2, 129.7 528.5, 131 531 C 132.2 533.2, 135.6 533.7, 136.3 531.8 C 136.6 530.9, 137.3 531, 138.9 532.4 C 141.4 534.7, 142.6 534, 140.9 531.2 C 139.1 528.3, 141.5 525, 143.5 527.6 C 144.4 528.9, 144.9 529, 145.5 528.1 C 145.9 527.3, 145.6 526.1, 144.6 525.2 C 143.2 523.7, 142.8 523.8, 140.3 525.6 C 135.9 528.7, 129.4 527.8, 127 523.7 L 125 520.5 125 523.6 M 159.1 527.3 C 158.4 528.3, 158.2 530, 158.5 531.1 C 158.9 532.2, 158.7 533.7, 158.1 534.4 C 157 535.8, 160.2 542, 162.1 542 C 164.3 542, 167 539.9, 167 538.1 C 167 535.8, 171.5 533.7, 173.8 534.9 C 176.3 536.2, 179.7 534.5, 181.5 531.1 C 183.3 527.5, 181.5 525.8, 176.8 526.7 C 175.3 527, 173.2 526.9, 172.3 526.5 C 168.4 524.8, 160.3 525.3, 159.1 527.3 M 72.1 535.5 C 67 536.2, 62.3 537.3, 61.7 537.9 C 60.3 539.3, 62.4 539.3, 75 537.9 C 85 536.9, 97.5 536.5, 99.9 537.1 C 100.6 537.3, 101.4 537, 101.7 536.4 C 102.6 534, 87.1 533.5, 72.1 535.5 M 227.1 535.6 C 221.3 537.4, 219.1 539.5, 224 538.5 C 225.9 538.1, 227.9 537.4, 228.5 536.9 C 229 536.4, 232.1 536, 235.5 536 C 246.4 536, 260.2 542.7, 275.3 555.4 C 284.7 563.2, 275.2 559.6, 260.8 549.9 C 257.7 547.7, 254.7 546, 254.1 546 C 253.6 546, 252.5 545.4, 251.8 544.7 C 251.1 544.1, 247.9 542.4, 244.7 541.1 C 234.6 537, 226.4 538.9, 217.3 547.5 C 211.2 553.3, 211.4 553.5, 225.9 562.3 L 237.1 569.1 242.8 567.9 C 257.4 565, 265.4 563.9, 276.2 563.3 L 287.9 562.8 296.2 566.8 C 309.8 573.3, 311.1 573.8, 320.3 576.5 C 332.6 580, 339.7 581, 353 581.1 C 366.3 581.2, 365.2 581.9, 347 585 C 328.9 588.1, 314 586.9, 301.2 581.4 C 282.5 573.4, 261 573.3, 228.5 581 C 226.3 581.5, 217.2 582.5, 208.3 583.1 C 199.4 583.8, 192.3 584.6, 192.5 585 C 192.9 585.6, 203.8 586.6, 221 587.4 C 224 587.6, 228.3 588.2, 230.5 588.8 C 235.2 590.2, 239.8 590.4, 238.5 589.2 C 237.2 588.1, 225.8 585, 222.3 584.8 C 220.7 584.8, 222.4 584.4, 226 584 C 232.2 583.4, 244.5 581.2, 253.8 579 C 256.1 578.4, 263.4 578, 270 578 C 281.2 578, 282.7 578.2, 292.2 581.6 C 315.8 589.8, 314.4 589.5, 329.5 589.4 C 353.1 589.3, 367.5 585.3, 397.5 570.4 C 408 565.3, 417.9 560.7, 419.6 560.4 C 422.4 559.9, 437.6 562.1, 441.7 563.7 C 442.8 564.1, 443.1 564, 442.6 563.2 C 441.1 560.8, 432.3 557.8, 424.9 557.3 C 416.5 556.7, 418.9 555.9, 394 567.9 C 367.6 580.7, 343.3 581.5, 312 570.5 C 302.1 567, 280.8 556.3, 276.4 552.7 C 258.7 537.8, 240.3 531.4, 227.1 535.6 M 105.3 540.9 C 104.6 542, 102.4 543.4, 100.3 544 C 98.2 544.7, 96.1 545.9, 95.7 546.6 C 94.6 548.5, 88.5 548.4, 79.7 546.4 C 68 543.7, -0.4 545.4, 3.1 548.3 C 3.3 548.5, 19 548.4, 38 548 C 57 547.7, 75 547.6, 78 547.9 L 83.5 548.5 74.5 549.9 C 69.6 550.6, 60.1 552.4, 53.5 553.7 C 36.3 557.3, 32.1 557.8, 17.3 557.9 C 10.1 558, 3.9 558.4, 3.6 558.9 C 1.9 561.6, 34 561.2, 45.4 558.4 C 61 554.6, 81 551.7, 92.5 551.5 C 99.1 551.4, 102.3 551.5, 99.5 551.7 C 90.5 552.4, 92.7 553.7, 105.2 555 C 123.1 556.9, 124.6 558.1, 108.5 557.4 C 100.8 557.1, 94 556.3, 93.3 555.8 C 91.8 554.6, 84.5 555.2, 73.5 557.4 C 60.1 560.1, 45.8 562, 39.5 561.8 C 26.2 561.5, 3 566.3, 3 569.3 C 3 570.7, 3.5 571, 4.8 570.5 C 5.7 570.2, 9.6 569.2, 13.4 568.4 C 17.1 567.6, 20.7 566.7, 21.4 566.3 C 23.7 564.8, 106.2 562.5, 104 564 C 103.2 564.5, 98.7 565, 94 565 C 81.5 565, 63.9 566.8, 59.2 568.4 C 56.7 569.3, 47.5 570.3, 36.3 570.9 C 11 572.3, 4.1 573, 3.4 574.2 C 2.1 576.3, 4.7 577, 10.5 576 C 13.8 575.4, 25.3 574.6, 36 574.1 C 50.5 573.5, 57.3 572.7, 62.5 571.2 C 76.9 567, 111.7 566.2, 118.9 569.9 C 119.8 570.4, 125.5 572.4, 131.5 574.5 C 157.7 583.4, 161.2 585, 157.4 586.4 C 153.7 587.8, 148.6 586.7, 138.3 582.4 C 124.7 576.7, 121 575.1, 118.5 573.9 C 113 571.4, 106.8 569.8, 99.8 569.3 C 90.6 568.6, 89.6 569.4, 97.8 571 C 108.5 573, 115.3 575.2, 123.3 579.1 C 127.7 581.2, 131.8 583, 132.4 583 C 133 583, 134.8 583.7, 136.3 584.5 C 137.8 585.3, 140.8 586.3, 142.8 586.6 L 146.5 587.4 143.1 588.1 C 141.2 588.5, 135.4 589.1, 130.1 589.5 C 120.1 590.1, 120.4 590.2, 99 584.3 C 80.6 579.3, 75.4 578.7, 48.5 578.6 C 30.8 578.5, 20.1 578.9, 15 579.8 C 1.2 582.3, -1.7 584.9, 11.6 582.9 C 33.2 579.6, 74.1 581, 91.5 585.5 C 107.5 589.6, 119.7 593.7, 120.7 595.3 C 121 595.9, 120.8 596, 120.2 595.6 C 119.6 595.2, 108.8 594.3, 96.3 593.5 C 83.8 592.7, 67.4 591.3, 60 590.4 C 42.7 588.4, 5.2 587.4, 3.7 588.9 C 2.9 589.7, 6.2 590, 15.6 590 C 22.7 590, 36.4 590.9, 46 592 C 65.4 594.3, 77.5 595.3, 102 597 C 111.1 597.6, 123.2 598.6, 129 599.2 C 134.8 599.9, 149.4 600.4, 161.5 600.5 C 185.7 600.7, 188.8 601.3, 205.3 608.9 C 212.4 612.1, 213.8 614, 209.3 614 C 207.7 614, 201.5 615, 195.3 616.2 L 184.1 618.4 172.3 614.7 C 153.4 608.7, 151.7 608.3, 134 605.5 C 128.8 604.6, 123.8 603.7, 123 603.5 C 117 601.7, 76.7 600, 67.3 601.1 C 57.2 602.3, 49.9 602.1, 33 600.1 C 20.3 598.7, 4.1 598.3, 4 599.5 C 4 600.1, 8.6 601, 14.2 601.6 C 45 605, 53.8 606.1, 56.5 606.9 C 58.2 607.4, 64.9 608.3, 71.5 608.9 C 78.1 609.6, 88 610.5, 93.5 611 C 125.1 614, 150.5 619.5, 166.5 627 C 167.6 627.5, 174.6 630.4, 182 633.6 C 189.4 636.7, 199.3 641, 204 643.2 C 236.4 658.5, 242.9 660.5, 270.5 664.5 C 295.8 668.2, 302 670.1, 330 682.5 C 360.7 696.1, 371.1 699.2, 394.9 701.4 C 415.6 703.3, 441.2 700.9, 459.5 695.3 C 473.5 691, 494.2 684, 499.5 681.7 C 506.2 678.9, 525.5 672.4, 537 669 C 541.1 667.8, 545.6 666.5, 547 666 C 548.4 665.5, 555.6 663.5, 563 661.5 C 592.4 653.6, 603.2 648.9, 625 634.6 C 659 612.2, 670.3 607.2, 698 602 C 715.8 598.6, 718.2 597.6, 740 583.5 C 746.3 579.4, 754.7 574.5, 758.7 572.5 C 769.6 567, 771.8 562.9, 761.8 566.8 C 747 572.4, 724.5 577, 712 577 C 705 577, 691.4 575, 681 572.5 C 677.4 571.6, 672.7 570.5, 670.5 570 C 668.3 569.5, 662.2 568, 657 566.7 C 649.9 564.9, 643.5 564.1, 632 563.6 C 615.2 562.9, 611.6 562.4, 590.5 557.5 C 582.8 555.7, 573.8 553.6, 570.5 552.9 C 562.7 551.1, 540.3 551, 537.3 552.8 C 533.3 555, 534.6 556.1, 540.3 555.3 C 551.1 553.7, 564.8 555, 583.5 559.4 C 593.7 561.8, 603.3 564, 608.5 565.1 C 611.3 565.6, 621.8 566.5, 632 567 C 646.8 567.7, 652.5 568.4, 660.5 570.5 C 687.1 577.6, 695.9 579.2, 710 579.7 C 722.1 580.2, 726 579.7, 738.7 576.6 C 741.6 575.9, 743.7 575.6, 743.5 576 C 742.4 577.8, 729.2 584.9, 726 585.5 C 720.4 586.5, 684.7 584.2, 678.3 582.5 C 661.8 578, 653.8 575.5, 650.9 574 C 644.3 570.6, 630.2 570.6, 621.9 574.2 L 617.3 576.1 609.9 573.5 C 574 560.8, 543.4 556.2, 512.9 558.9 C 498.9 560.2, 497.6 560.4, 484.5 564 C 479.7 565.2, 472.1 566.3, 465.5 566.6 C 455.5 567.1, 445.7 568.8, 440.5 570.9 C 439.4 571.4, 436.3 572.6, 433.5 573.5 C 429.1 575.1, 423.6 577.3, 417.5 580 C 405.1 585.5, 394.4 589.4, 377.5 594.4 C 364.7 598.2, 346.7 600.2, 331.5 599.6 C 324.4 599.4, 315.3 599.1, 311.4 599.1 C 307.1 599.1, 300.2 598.1, 293.9 596.5 C 281.2 593.3, 268.6 592.9, 258.5 595.5 C 251.4 597.3, 246.8 597, 243.6 594.5 C 241.8 593.1, 241.8 593, 243.4 593 C 244.3 593, 247.1 592.1, 249.5 591 C 266.8 583.1, 278.4 584.1, 309 595.9 C 315.2 598.3, 316 598.4, 316 597.1 C 316 595.7, 307.2 591.8, 294.5 587.4 C 284.4 583.9, 282.6 583.6, 272.5 583.6 C 262 583.6, 251.8 585.8, 247.5 589 C 243.5 592, 230.5 591.9, 224.2 588.8 C 222.5 587.9, 221.7 587.9, 220.8 588.8 C 219.9 589.7, 220.1 590, 221.6 590 C 222.7 590, 224 590.4, 224.6 590.9 C 225.6 591.8, 233 594.1, 242.5 596.3 L 248.5 597.7 244 599.7 C 241.5 600.8, 237.4 602.1, 235 602.5 C 231 603.2, 224.3 606.7, 225.3 607.6 C 225.5 607.8, 228.1 607.3, 231.1 606.5 C 234.1 605.7, 241.2 603.9, 247 602.5 C 252.8 601.1, 260.2 599.2, 263.5 598.4 C 270.6 596.5, 283.3 597, 292.5 599.5 C 327.8 609, 373.8 603.7, 414.5 585.5 C 417.8 584.1, 421.9 582.3, 423.5 581.5 C 433.5 577.2, 449.5 572, 453.2 572 L 457.5 572 448.5 576.6 C 443.6 579.2, 439.1 581.6, 438.5 582 C 437.1 583.1, 418.5 592.4, 412.5 594.9 C 409.8 596.1, 406.6 597.5, 405.5 598 C 400.6 600.3, 397.4 601.3, 381.5 605.8 C 369.4 609.2, 355.3 611, 332.9 611.9 C 309.8 612.9, 305.3 612.5, 293.5 608.5 C 277.9 603.2, 262.7 602.1, 249.5 605.4 C 226.5 611, 220.6 611.4, 212.5 608.2 C 201 603.6, 187.6 599, 185.6 598.9 C 183.7 598.9, 183.8 598.8, 186 597.8 C 189 596.6, 209.5 597.5, 215.5 599.1 C 223 601.1, 224 601.2, 224 600.4 C 224 599.1, 219.4 597.3, 211.5 595.5 C 203.8 593.7, 193.5 593.9, 181.5 596 C 172.3 597.6, 134.7 596.8, 127.5 594.7 L 122.5 593.3 132 592.6 C 142.2 591.9, 148.8 590.9, 164.5 587.9 C 170 586.8, 177 585.5, 180 584.9 C 183 584.3, 189.1 583, 193.5 582 C 197.9 581, 205.6 579.6, 210.7 578.9 C 221.6 577.4, 221.9 576, 211.4 576 L 203.9 576 196.2 570.1 C 192 566.9, 187.2 562.8, 185.6 561.1 C 182.9 558.3, 179 556.9, 179 558.8 C 179 559.2, 181.7 562.2, 185 565.4 C 188.3 568.6, 191 570.8, 191 570.2 C 191 568.9, 188.2 566, 187 566 C 186.5 566, 185.5 565, 184.9 563.8 L 183.8 561.5 185.8 563.5 C 187 564.6, 189 566.4, 190.4 567.4 C 191.8 568.6, 192.6 570, 192.2 570.9 C 191.8 571.9, 192.1 572.2, 193.4 571.7 C 194.5 571.2, 194.9 571.4, 194.4 572.1 C 194 572.8, 194.3 573.1, 195 572.8 C 195.7 572.6, 197.6 573.5, 199.1 574.9 L 202 577.5 195.8 578.6 C 192.3 579.2, 185.9 580.5, 181.5 581.4 C 172 583.4, 171.8 583.3, 169.1 577.6 C 166.2 571.7, 163.1 567.8, 161.9 568.6 C 161.3 569, 161.4 569.8, 162.3 570.8 C 164.9 573.9, 165.2 575.5, 162.6 572.7 C 161.1 571.1, 160.2 569.4, 160.5 568.9 C 160.9 568.4, 160.4 568, 159.6 568 C 158.7 568, 158 568.6, 158 569.2 C 158 569.9, 157.2 569.3, 156.3 568 C 155.4 566.6, 154.2 565.2, 153.6 564.8 C 151.5 563.4, 151.8 565.1, 154.5 569.1 C 156.6 572.3, 157.4 573, 158.1 571.9 C 158.8 570.9, 158.9 571.2, 158.8 572.9 C 158.6 574.2, 159.1 575.5, 159.9 575.8 C 160.8 576.1, 161 575.8, 160.5 574.9 C 160 574.1, 160.1 573.8, 160.6 574.3 C 161.1 574.8, 161.5 575.9, 161.5 576.8 C 161.5 577.7, 162.6 578.7, 163.9 579 C 166.2 579.5, 168.2 584, 166.1 584 C 164.4 584, 156 578.8, 156.5 578 C 156.8 577.6, 156.2 576.6, 155.3 575.9 C 153.8 574.7, 153.7 574.7, 154.2 576.7 C 154.7 578.6, 154.5 578.7, 151.9 577.8 C 149.2 576.9, 149 576.5, 149 571.2 C 149 564.8, 146.2 557.5, 142.9 555.2 C 141.4 554.2, 141 553.1, 141.4 551.4 C 142 549.2, 139 545, 136.8 545 C 135.9 545, 138 549.1, 139.5 550.2 C 140.1 550.7, 139.9 551, 139.1 551 C 138.1 551, 138.4 551.9, 140.2 553.8 C 143.6 557.5, 146 564.1, 146 569.9 C 146 572.9, 146.5 575, 147.3 575.3 C 150.3 576.6, 144.7 575.9, 141.3 574.6 C 135.7 572.5, 123.9 569, 122.3 569 C 120.4 569, 120.7 567.1, 122.8 566.3 C 123.7 565.9, 125.9 564.3, 127.5 562.8 C 130.4 560, 130.4 559.9, 128.6 558.5 C 127.5 557.7, 125.9 557, 125 557 C 124.1 557, 122.9 556.5, 122.3 555.9 C 121.6 555.2, 119.4 554.4, 117.4 554.1 C 115.3 553.8, 113.5 552.9, 113.2 552.1 C 112.8 551, 113.6 550.8, 116.8 551.4 C 120.1 551.9, 120.8 551.7, 120.4 550.6 C 119.5 548.4, 114.8 547.6, 113.4 549.4 C 112.2 551.1, 109.3 551.5, 107.2 550.2 C 106.4 549.6, 106.9 548.7, 109.1 547.1 C 111.3 545.4, 111.9 544.5, 111.1 543.7 C 110.5 543.1, 110 541.8, 110 540.8 C 110 538.4, 106.8 538.5, 105.3 540.9 M 381 544.3 C 377.7 545.3, 378 545.4, 386.3 546.2 C 392.5 546.7, 397.3 547.9, 402.5 550.1 C 410.7 553.5, 414.9 553.9, 420.7 551.9 C 426.8 549.7, 443.9 550.3, 453.5 552.9 C 480 560.3, 485.7 560.5, 503.7 555.3 C 506.6 554.4, 508.7 553.3, 508.4 552.8 C 508 552.3, 506.8 552.1, 505.6 552.5 C 494.8 555.8, 475 555.8, 463.8 552.5 C 460.9 551.6, 457.2 550.5, 455.5 550 C 444.8 546.8, 426.5 546.8, 415.5 549.8 C 412.7 550.6, 405.2 549, 402.5 547 C 401.1 545.9, 389.2 543, 386.7 543.1 C 385.5 543.1, 382.9 543.7, 381 544.3 M 690.5 544.6 C 685.2 545.2, 660 551.5, 660 552.2 C 660 552.6, 663.7 552.9, 668.3 552.9 C 679.4 553, 695.4 554.6, 705.3 556.7 C 718.3 559.4, 757.1 558.7, 754.2 555.8 C 753.7 555.3, 747.2 553.5, 739.9 552 C 732.5 550.4, 722.2 548, 717.1 546.6 C 708.1 544.1, 700.1 543.6, 690.5 544.6 M 229.9 546.3 C 229.2 547, 227.2 547.4, 225.1 547.1 C 221.9 546.8, 221.7 546.9, 222.9 548.4 C 223.7 549.3, 224.5 549.8, 224.7 549.6 C 225.4 549, 235 554.3, 243 559.6 L 249.5 563.9 257 562.4 C 261.1 561.7, 266 561, 267.8 561 C 269.5 561, 271 560.7, 271 560.2 C 271 559.8, 269.5 558.9, 267.8 558.1 C 266 557.3, 261.4 554.8, 257.5 552.5 C 245.4 545.3, 233.3 542.6, 229.9 546.3 M 197 548.1 C 197 550.3, 211.9 563.8, 215.7 565 C 217.8 565.7, 220.4 566.9, 221.5 567.6 C 222.6 568.4, 224.8 569, 226.5 569.1 C 229.3 569.1, 229.4 569.2, 227.3 570.2 C 225.6 571, 224.2 570.7, 220.4 568.6 C 214.8 565.5, 214.1 565.4, 216.6 568.1 C 220 571.9, 225.1 573.8, 228 572.3 C 229.4 571.6, 231.3 571, 232.2 571 C 233.1 571, 234.2 570.6, 234.5 570 C 234.8 569.4, 234 569, 232.6 569 C 231.2 569, 229.9 568.6, 229.6 568.1 C 229.3 567.6, 227.5 566.9, 225.6 566.6 C 219.7 565.5, 209.1 558.8, 203.4 552.8 C 198 546.9, 197 546.2, 197 548.1 M 215 552.8 C 215.1 554.8, 236.5 566.2, 239.5 565.8 C 241.8 565.5, 232.6 559.4, 222.8 554.7 C 217 551.9, 215 551.4, 215 552.8 M 82.8 557.5 C 82.5 557.9, 78.6 558.7, 74.3 559.4 C 66.6 560.6, 66.8 560.6, 84.5 560.6 C 101.3 560.5, 102.8 560.7, 106.7 562.8 C 112 565.6, 125 565.8, 125 563 C 125 561, 119.7 560, 116.7 561.5 C 115.1 562.3, 113.4 562.8, 113.2 562.5 C 112.9 562.2, 113.2 562, 113.8 562 C 114.5 562, 115 561.6, 115 561.2 C 115 560.7, 110.2 559.8, 104.3 559.1 C 87.9 557.1, 83.6 556.8, 82.8 557.5 M 758.5 559.2 C 751.2 561.3, 750.1 561.7, 743.5 564.4 C 734.6 568, 708.7 568.4, 693.7 565.1 C 691.4 564.6, 686.1 563.9, 682 563.5 C 677.9 563.2, 671.8 562.5, 668.5 562 C 660 560.7, 634.3 559.9, 639.5 561.1 C 641.7 561.6, 647.6 562.4, 652.5 563 C 667.9 564.6, 685.9 566.7, 703 569 C 714.3 570.5, 721.8 571, 727 570.6 C 731.1 570.2, 738 569.7, 742.4 569.4 C 749.9 568.8, 751.5 567.1, 744.6 567 C 740.7 567, 741.7 566.2, 747.1 565.1 C 765.3 561.1, 768.7 560, 767.4 557.9 C 766.8 556.8, 767.2 556.8, 758.5 559.2 M 508.5 563 C 500.1 563.7, 495.1 564.7, 479.5 568.6 C 476.2 569.4, 471.4 570.6, 468.8 571.1 C 466.2 571.6, 460.8 573.8, 456.8 575.9 C 427.2 591.4, 413.6 598.2, 408.9 600 C 405.9 601.1, 402.6 602.5, 401.5 603 C 399.7 603.8, 391.3 606.4, 382.5 609 C 370.8 612.4, 349.5 614.8, 324.3 615.7 C 306.9 616.3, 305.9 616.2, 289.8 611 C 273.3 605.6, 265.3 604.4, 256.9 606 L 249.5 607.5 261.5 608.1 C 272.2 608.6, 279.8 610.1, 286.5 613 C 302.7 620, 301.5 619.8, 321.6 620.4 C 332.9 620.7, 339.5 620.6, 338 620.1 C 336.3 619.5, 339 619.2, 347 619.1 C 358.8 618.9, 376.5 617.1, 390.5 614.6 C 410.8 611, 419 609.8, 426 609.1 C 432.3 608.5, 434.5 607.8, 440 604.4 C 443.6 602.2, 450.8 598.3, 456 595.8 C 490.5 579.2, 504.8 575.5, 534 575.5 L 553.5 575.6 574.5 582.7 C 596 590, 604.1 592.3, 612 593.5 C 622.8 595, 642.2 595.6, 652.7 594.7 C 658.9 594.2, 664.8 594.1, 665.7 594.5 C 669.5 596, 662.2 597.2, 643 598 C 632.3 598.5, 621 599.4, 618 599.9 C 615 600.5, 606.4 601.1, 599 601.4 C 591.6 601.7, 584.2 602.4, 582.5 602.9 C 580.9 603.5, 576.1 604.9, 572 606.1 C 567.9 607.2, 562.7 608.9, 560.5 609.8 C 556.3 611.4, 552.1 611.6, 507 612.3 C 481.8 612.7, 480 613, 469.5 618 C 465.1 620.1, 459.7 622.3, 457.5 622.9 C 455.3 623.5, 450.8 624.6, 447.5 625.5 C 437.5 628.3, 429 630, 418 631.5 L 407.5 632.9 434 632.6 L 460.5 632.2 470.5 628.7 C 476 626.8, 486.1 622.9, 493 620 C 509.1 613.4, 513.6 613.2, 524.2 619 C 534 624.4, 539 624.2, 566 617.6 C 599.9 609.3, 622.6 606, 647.3 605.9 C 663.7 605.9, 667.7 605.4, 678.5 602.6 C 684 601.1, 689.3 599.9, 704 597 C 709.8 595.8, 718.9 592.7, 722.4 590.7 C 724.1 589.7, 720.6 589.4, 703 588.8 C 691.2 588.3, 679.9 587.9, 678 587.8 C 676.1 587.7, 672 587.9, 669 588.4 C 664.7 589, 661.6 588.7, 655.8 587.2 C 640.1 583, 625.8 582.3, 617.3 585.3 C 615.5 585.9, 613.7 586.1, 613.3 585.7 C 612.1 584.4, 616.4 582.1, 620 582 C 622.6 582, 623.1 581.7, 622 581 C 618.8 578.9, 635.1 580.3, 657.5 584 C 662.2 584.8, 672.6 585.2, 670.5 584.5 C 670 584.3, 664.1 582.5, 657.5 580.5 C 650.9 578.5, 644.5 576.4, 643.2 575.9 C 639.3 574.3, 629.9 574.9, 623.7 577.1 C 616.9 579.5, 612.9 578.9, 596.5 573 C 573 564.4, 537.2 560.4, 508.5 563 M 516 579.3 L 511.5 580.4 518.5 581.1 C 526.2 581.8, 531 583.3, 541.4 587.9 C 559.5 596.1, 575.8 599.8, 585.9 598.1 C 589.8 597.5, 598.9 596.9, 606.2 596.9 L 619.5 596.7 610 596 C 600.7 595.2, 596.1 594.1, 583 589.5 C 556 579.8, 547.6 578, 532.1 578.1 C 525.7 578.2, 518.5 578.7, 516 579.3 M 500 583.6 C 495.5 584.4, 485.5 587.1, 483.5 588 C 482.4 588.5, 479 589.9, 476 591.1 C 467.8 594.2, 440 608.2, 440 609.2 C 440 611, 445.9 609.4, 455 605.2 C 461 602.4, 476.3 596.7, 482.5 594.9 C 485.7 594, 492.2 593.5, 501 593.6 C 515.4 593.6, 519.4 594.5, 533 600.6 C 538.7 603.1, 539.4 603.2, 544.5 602.1 C 548 601.3, 553.8 601.1, 560.7 601.4 L 571.5 602 566.5 600.5 C 550.6 595.5, 545.7 593.8, 538.5 590.7 C 524.6 584.8, 509.3 581.9, 500 583.6 M 481.6 598.6 C 476.8 599.9, 471.4 601.6, 469.6 602.4 C 467.9 603.2, 464.3 604.8, 461.5 606 C 449.4 611.1, 449.4 611.1, 462 610.6 C 468.3 610.3, 478.7 609.6, 485 609 C 491.3 608.4, 498.7 608.2, 501.4 608.6 C 504 608.9, 513.9 608.9, 523.4 608.5 L 540.5 607.7 533.8 604.6 C 518.5 597.4, 512.8 596, 500.3 596.1 C 493.2 596.1, 488.1 596.8, 481.6 598.6 M 755.5 602.5 C 755 602.6, 752.5 603.3, 750 604 C 740.3 606.6, 732.8 609.6, 722 615 C 682 635.1, 657 647, 654.3 647.2 C 653 647.4, 652 647.9, 652 648.5 C 651.9 649.8, 624.3 663.4, 608.5 669.8 C 584.1 679.9, 564 686, 527 694.9 C 507.6 699.5, 505.1 700.1, 495.5 701.5 C 464.8 706, 452.2 708.5, 433.5 713.5 C 418.4 717.6, 409.3 719, 397.3 719 C 374.7 719, 347.2 712.7, 324 702.2 C 305.6 693.9, 286.2 686, 271.5 680.7 C 267.7 679.4, 260.7 676.9, 256 675.2 C 251.3 673.5, 244.1 671, 240 669.7 C 227 665.4, 207 657.6, 194.5 652 C 182.9 646.8, 157.5 637.4, 142 632.5 C 95.8 617.9, 86.3 615.6, 51.5 610 C 44.4 608.9, 36.3 607.5, 33.5 606.9 C 25 605, 2.7 604.5, 3.2 606.1 C 3.5 607.1, 6.6 607.7, 14.6 608.2 C 20.6 608.5, 29.6 609.5, 34.5 610.4 C 61.7 615.1, 74.7 617.5, 83 619.4 C 99.2 623.1, 103.1 624.1, 113 627 C 118.8 628.8, 125.5 630.8, 128 631.5 C 148.8 637.7, 185.2 651.5, 212.5 663.4 C 214.2 664.2, 219.3 666.2, 224 668 C 228.7 669.8, 233.4 671.7, 234.5 672.1 C 235.6 672.6, 246.2 676.2, 258 680.1 C 277.8 686.6, 286.3 689.8, 294.7 693.6 C 296.4 694.4, 298 695, 298.3 695 C 298.6 695, 302.7 696.8, 307.3 698.9 C 324.4 706.8, 342.6 714, 351 716 C 353.5 716.6, 358.2 717.8, 361.5 718.6 C 364.8 719.4, 371.4 720.7, 376.3 721.4 C 385.5 722.8, 387.4 723.5, 384.5 724.6 C 381.7 725.7, 347 724.2, 340 722.6 C 332.6 721, 325.2 719.1, 323 718.3 C 322.2 718, 318.7 716.7, 315.4 715.5 C 305.6 712, 303.8 711.1, 279 698.9 C 251.8 685.4, 246.7 683, 244.6 683 C 243.8 683, 242.8 682.5, 242.4 681.9 C 242.1 681.3, 240.9 681, 239.9 681.3 C 238.9 681.6, 235.9 681.1, 233.3 680.3 C 223.8 677.4, 205.2 672.1, 192 668.5 C 173.3 663.4, 171 662.6, 158.3 656.4 C 152.1 653.4, 146.7 651, 146.3 651 C 145.9 651, 144.4 650.4, 143 649.7 C 141.6 649, 137.6 647.3, 134 646 C 130.4 644.8, 127.1 643.3, 126.6 642.8 C 126 642.4, 124.9 642, 124.1 642 C 123.2 642, 121.2 641.3, 119.6 640.5 C 118.1 639.7, 116.3 639.3, 115.8 639.6 C 114.6 640.3, 118.4 642.2, 134 648.5 C 139.2 650.6, 142.6 652, 153 656.7 L 160.5 660.1 155.7 659.6 C 153.1 659.3, 148.6 658.3, 145.7 657.4 C 135.8 654.3, 107.8 644.5, 103.5 642.6 C 101.9 641.9, 93.3 638.4, 84.5 635 C 75.7 631.5, 67.2 628.1, 65.5 627.5 C 40.1 617.2, 4.8 608, 3.8 611.5 C 3.6 612.1, 5.3 612.9, 7.5 613.3 C 23.6 616.6, 63.4 629.3, 77.5 635.6 C 105.6 648.1, 146.7 662, 163 664.5 C 165.5 664.9, 170.7 666.1, 174.5 667.2 C 178.4 668.3, 188.3 670.9, 196.5 673.1 C 221 679.5, 222.7 680, 243.5 687.6 C 250.7 690.2, 256.9 692.7, 257.5 693.2 C 258 693.6, 259.1 694, 260 694 C 260.9 694, 271 698.8, 282.6 704.6 C 307.6 717.3, 321.3 722.9, 334 726 C 339.2 727.2, 345.5 728.8, 347.9 729.6 C 350.4 730.4, 353.2 731, 354.2 731 C 355.3 731, 355.8 731.5, 355.5 732.1 C 354.8 733.1, 343 732.6, 337 731.3 C 327.1 729.1, 316.8 725.3, 308 720.5 C 294.3 712.9, 279.6 705.4, 274 703.2 C 271 701.9, 267.6 700.5, 266.5 700 C 265.4 699.5, 260.2 697.9, 255 696.6 C 249.8 695.3, 241.5 692.7, 236.5 691 C 220.6 685.3, 211.2 682.8, 194 679.4 C 187.1 678, 176.1 675.6, 169.5 674 C 153.2 670.2, 148.5 669.1, 141.5 668 C 114.6 663.7, 68.2 653.5, 56 649.1 C 54.6 648.6, 50.1 647.2, 46 646 C 35.3 642.8, 28.2 640.4, 16.2 635.9 C 5.9 632.1, 1.3 631.1, 2.5 633 C 6.2 639, 74.4 659.6, 116.5 667.5 C 120.4 668.2, 127.3 669.6, 132 670.5 C 136.7 671.4, 144.1 672.7, 148.5 673.6 C 162.9 676.2, 163.6 676.8, 152 676.9 C 138.2 677.1, 126.8 678.3, 90.5 683.5 C 78.9 685.2, 63.1 687.3, 49 689.1 C 44.1 689.8, 32.6 690, 21.7 689.7 C 8 689.4, 3 689.5, 3.3 690.3 C 4 692.6, 18 694.1, 33.5 693.6 C 47.6 693.2, 55.5 692.3, 82.5 688.5 C 88.6 687.6, 98.2 686.2, 104 685.5 C 109.8 684.7, 117.7 683.6, 121.5 683 C 125.4 682.5, 136.8 681.7, 147 681.4 C 190.1 679.9, 215.9 686.3, 269.3 711.9 C 290.2 721.9, 296.1 724.2, 313.5 729 C 317.9 730.2, 322.6 731.6, 324 732.1 C 325.4 732.5, 328.3 733.2, 330.5 733.6 L 334.4 734.3 330 735.8 C 326.9 736.8, 320.7 737.3, 310 737.3 C 286.6 737.5, 279 735.2, 241.5 716.1 C 229.3 709.9, 218.4 705, 216.9 705 C 211.9 705, 212.8 706.9, 218.7 708.6 C 221.8 709.5, 228.7 712.5, 234 715.3 C 265.1 731.6, 269.2 733.5, 281.5 737.3 C 294.6 741.4, 319.3 741.9, 332.5 738.5 C 339.1 736.8, 349.2 736.6, 358.7 738 C 362.5 738.6, 371.1 739.4, 378 739.8 L 390.5 740.6 384.5 742.4 C 381.2 743.4, 373.3 745.9, 367 748 C 316.1 764.8, 296.9 765.1, 244 749.4 C 219.6 742.2, 199.2 741.1, 180.1 746 C 171 748.3, 167 754.1, 172.5 757 C 175.4 758.6, 192.4 757.8, 197.9 755.9 C 204.7 753.5, 247.2 754.5, 259.5 757.4 C 262.8 758.2, 269.6 759.8, 274.5 760.9 C 293 765.2, 323.5 764.4, 342 759.1 C 343.9 758.5, 348.9 757.1, 353 755.9 C 357.1 754.8, 365.7 752.1, 372 750 C 391.8 743.4, 401 740.9, 402 741.5 C 403.6 742.5, 413.8 745, 420.4 746 C 423.8 746.5, 430.3 747.6, 435 748.5 C 444.5 750.3, 458.2 752.7, 468 754.2 C 476.8 755.6, 513.9 755.5, 522 754.2 C 528.9 753, 538.4 751, 549 748.5 C 555 747.1, 560 746.1, 578.5 742.4 C 594.6 739.3, 601.4 738.6, 619 738.6 C 629.2 738.7, 640.9 739.2, 645 739.8 C 649.1 740.4, 658.8 741.9, 666.5 743 C 683.4 745.6, 703.3 745.4, 721.3 742.5 C 732.4 740.7, 733.7 740.7, 745.3 742.2 C 752 743, 758.2 743.9, 759 744.1 C 759.8 744.3, 760.5 743.8, 760.5 743.1 C 760.5 741.6, 756 740.4, 740.7 737.9 C 734 736.8, 730.2 737, 713 739.9 C 706.2 741.1, 678.5 741.1, 671 740 C 668 739.6, 660.3 738.5, 654 737.6 C 647.7 736.7, 641.9 735.8, 641.1 735.5 C 638.4 734.5, 603.7 734.9, 596.2 736.1 C 587.2 737.4, 566.1 741.4, 557.5 743.4 C 554.2 744.2, 548.1 745.6, 544 746.5 C 519.8 752.1, 513.7 752.9, 494 752.9 C 479.4 753, 462.9 751.6, 460.3 750.2 C 459.5 749.7, 462.9 748.9, 468.7 748.1 C 479.5 746.8, 491.6 745, 506 742.5 C 511.2 741.6, 520.5 740, 526.5 739 C 532.6 738, 540 736.5, 543 735.6 C 546 734.8, 558.6 731.5, 571 728.5 C 594.6 722.6, 600.3 721.1, 608.5 718.7 C 623.8 714.1, 640.3 709.8, 653.8 707 C 669.8 703.6, 682.4 703.4, 715.9 705.6 C 730.6 706.6, 761.7 702.3, 762.8 699.1 C 763.2 698, 761.9 697.9, 756.9 698.5 L 750.6 699.2 756.8 692.5 C 760.2 688.8, 763 685.3, 763 684.9 C 763 682, 758.6 685.7, 748.2 697.3 C 745.9 700, 744.1 701, 742.1 701 C 740.5 701, 738.5 701.3, 737.6 701.6 C 733 703.4, 739.7 695.2, 756.8 678.2 C 760.3 674.7, 762.9 671.6, 762.6 671.3 C 761.7 670.3, 756 674.8, 751 680.4 C 739.6 693.2, 739.5 693.2, 745.2 683.5 C 748.3 678.2, 753.5 671.4, 757.8 667 C 765.3 659.2, 766 656.5, 759 662 C 751.9 667.6, 737 689.5, 734 698.7 L 732.8 702 721.3 702 C 715 702, 710 701.7, 710.2 701.3 C 716.6 686.7, 736.9 664.6, 754.1 653.3 C 764.7 646.4, 766.7 643, 757.2 648.1 C 740.2 657.3, 723.1 674.2, 711.5 693.3 C 706.2 702.1, 706.5 701.8, 702.3 701.1 L 699.1 700.5 702.9 692.9 C 714.2 670.2, 732.7 651.5, 755.8 639.1 C 763.2 635.1, 765.7 633, 763.1 633 C 760.8 633, 745.1 641.8, 738.2 647 C 720.7 660, 707.9 675.5, 699.1 694.2 C 696.4 700, 695.3 700.7, 691.3 700.1 L 688.1 699.5 689.7 696 C 691.4 692.3, 697.8 681.2, 699.2 679.5 C 699.7 679, 702.4 675.3, 705.3 671.4 C 721 650.2, 737.4 634.9, 757.7 622.6 C 764.9 618.3, 766.7 616.4, 762.6 617.4 C 755.5 619.2, 733.9 635, 721.7 647.4 C 711.3 657.9, 698.2 675.1, 691.5 687 C 688.8 691.7, 686.1 696.5, 685.4 697.6 C 684.3 699.5, 682.8 699.8, 672.9 700.5 C 666.8 700.9, 659.5 701.8, 656.9 702.4 C 654.2 703.1, 652 703.4, 652 702.9 C 652 702.5, 656.5 698, 662.1 692.8 C 667.7 687.7, 677.3 677.9, 683.5 671 C 707.6 644.2, 728.7 626.2, 745.3 618.5 C 750 616.3, 749.4 615.4, 744.3 617.1 C 729.6 621.9, 701.8 645.5, 677.5 673.7 C 668.7 683.9, 666.8 684.9, 672.7 676.2 C 691 649.4, 694.7 644.7, 707.7 631.5 C 716.8 622.2, 724.8 617, 737.7 612 C 740.9 610.8, 744.2 609.4, 745 609.1 C 745.8 608.7, 749.9 607.5, 754 606.5 C 764.3 604.1, 764 604.2, 764 603 C 764 602.1, 758 601.7, 755.5 602.5 M 67.5 605 L 59.5 605.6 67.5 605.8 C 80.1 606.1, 111.6 608.8, 122 610.5 C 137.3 613, 145.2 615, 160 620.3 C 169.1 623.4, 170.6 624.1, 181.5 629 C 185.4 630.8, 192.1 633.7, 196.5 635.5 C 200.9 637.4, 207.9 640.5, 212 642.6 C 235 653.8, 246.3 657.6, 262.5 659.5 C 281.8 661.7, 303.2 666.4, 312.7 670.6 C 314.4 671.4, 316 672, 316.3 672 C 316.6 672, 320.8 673.8, 325.7 676.1 C 333.7 679.8, 336.9 681.3, 346.5 685.5 C 349.5 686.8, 360.3 690.4, 369.5 693.3 C 387.6 698.9, 419.8 700.4, 438 696.7 C 457.6 692.6, 485.3 684.3, 497.5 678.9 C 501.1 677.3, 513.4 672.8, 521 670.3 C 525.1 669, 529.4 667.5, 530.5 667 C 533 666, 547.4 661.9, 564.5 657.5 C 592.6 650.2, 599.3 647.1, 629.5 627.5 C 635.6 623.6, 644.6 618.2, 649.5 615.6 C 654.5 612.9, 658.9 610.4, 659.5 609.9 C 661.3 608.2, 620.2 609.9, 609.5 612 C 606.8 612.5, 598.7 614.1, 591.5 615.5 C 577.3 618.3, 571.8 619.5, 556 623.3 C 550.2 624.7, 541.5 626.6, 536.6 627.5 C 526.5 629.2, 523.4 630.7, 503.7 643.7 C 468.1 667, 436.9 676.3, 405 673.1 C 374 669.9, 351.6 662.7, 306.5 641 C 299.3 637.5, 284.8 632, 276.5 629.6 C 273.2 628.6, 269.2 627.3, 267.5 626.7 C 263.6 625.2, 242.5 625.3, 233.5 626.9 C 229.7 627.6, 222.2 628.5, 217 628.9 C 207.7 629.6, 207.6 629.6, 211.5 630.8 C 224.6 634.6, 242.1 637.1, 265 638.4 C 274.5 639, 282.2 640.5, 287.5 642.9 C 288.6 643.4, 298.9 648.4, 310.4 654 C 335 666, 338.8 667.7, 350 672 C 354.7 673.8, 359.4 675.7, 360.5 676.1 C 372.5 681.2, 397.7 686, 411.8 686 C 424.6 686, 450 682.3, 460 679 C 461.4 678.5, 465.9 677.2, 470 676 C 477.8 673.7, 485.1 671.4, 488.5 670 C 503.4 663.9, 517.1 657.8, 523.9 654.3 C 535.7 648.2, 535.8 650.2, 524 656.9 C 499.6 670.7, 469.6 681.2, 437 687.1 C 425.9 689.2, 396.7 688.9, 386.5 686.7 C 375.5 684.2, 361.8 680.3, 356.5 678.1 C 355.4 677.7, 350.7 675.8, 346 674 C 333.5 669.2, 330.1 667.6, 313 659 C 304.5 654.7, 294.6 650, 291 648.6 C 287.4 647.1, 283.6 645.5, 282.5 645 C 279.4 643.5, 268.8 642.2, 251.5 641 C 242.7 640.4, 233.5 639.5, 231 639 C 228.5 638.5, 224.7 637.8, 222.5 637.5 C 215.3 636.4, 207.7 633.6, 196.5 628 C 190.5 625, 184.2 622, 182.5 621.4 C 178.7 619.9, 169.4 617, 165.5 616 C 163.9 615.5, 159.1 614.3, 155 613.2 C 126.6 605.8, 95 602.8, 67.5 605 M 247 610.5 C 246.2 610.7, 241.5 611.4, 236.5 612.1 C 222.6 614, 223.1 614.9, 238.2 615 C 261.1 615, 292.6 623.6, 297.2 631 C 297.9 632.1, 298.8 633, 299.1 633 C 299.5 633, 307.6 636.8, 317.1 641.4 C 342.4 653.6, 357.6 659.4, 374.5 663.4 C 378.4 664.3, 384.4 665.7, 388 666.6 C 426.3 675.7, 462.5 667.1, 505 638.8 C 511.9 634.2, 519.9 629.4, 522.8 628 C 525.6 626.6, 528 625.3, 528 625 C 528 623.1, 516.2 618.7, 511.1 618.7 C 506.1 618.7, 489.8 624.2, 477.5 630 C 470.2 633.4, 444.5 640.8, 428.5 644.1 C 411.3 647.6, 377.2 646, 370.7 641.5 C 368.4 639.9, 370.2 638.5, 372.8 639.9 C 376.9 642.1, 400.2 643.3, 413.6 642.1 C 425 641, 448.7 636.3, 447.6 635.3 C 447.4 635.1, 441.2 635.4, 433.9 636.1 C 422.8 637, 416.1 637, 395 635.6 C 370.5 634, 366.8 633.5, 346.5 628.4 C 335.1 625.5, 331.5 625.1, 317 625.1 C 303.5 625, 302.2 624.8, 299 622.7 C 287.5 614.9, 257.6 607.9, 247 610.5 M 418 614 C 415.5 614.5, 409.5 615.5, 404.5 616.3 C 399.6 617.2, 391.2 618.6, 386 619.5 C 367.6 622.6, 361.4 623.2, 351.5 622.7 L 341.5 622.2 346.5 623.7 C 368.2 630.2, 384.6 632.3, 401 630.4 C 422.7 627.9, 451.8 621.3, 467 615.5 C 470.3 614.2, 469.9 614.1, 459.9 614.1 C 454.1 614, 443.3 613.8, 435.9 613.6 C 428.5 613.3, 420.5 613.5, 418 614 M 206.5 617.1 C 196.4 618.8, 189.5 620.6, 190.6 621.2 C 196.4 624.8, 212.7 626.8, 221.7 625.1 C 246.9 620.1, 258.1 620.3, 276 626.1 C 280.7 627.5, 286.1 629.1, 288 629.4 L 291.5 630.1 288.3 628.6 C 285.3 627.2, 268.1 622, 260 619.9 C 258.1 619.4, 250.4 619, 243 619 C 234.8 619, 227.1 618.4, 223.5 617.5 C 216.9 615.9, 214 615.8, 206.5 617.1 M 502.9 628.6 C 491.1 640.7, 471.9 650.7, 448 657.3 C 438.8 659.9, 429.3 661.2, 411.3 662.4 C 401.9 663, 393.8 663.8, 393.4 664.3 C 392.3 665.3, 422.3 665.1, 430 664 C 450.2 661.1, 463.2 657, 481.3 647.9 C 493.5 641.8, 502.7 634.4, 507.1 627.3 C 510.4 622.1, 508.9 622.5, 502.9 628.6 M 655 627.6 C 645.6 633.9, 642.7 640.1, 647 644.8 C 649.8 647.8, 651.4 647.6, 649.4 644.5 C 646.3 639.7, 651.3 631.5, 659.2 628.8 C 660.7 628.3, 662 627.4, 662 626.9 C 662 625.4, 657.6 625.9, 655 627.6 M 701.6 630.1 C 695.3 633.5, 690.6 636.6, 684.9 641.2 C 653.1 667, 621.5 685.8, 596 694.3 C 566.2 704.1, 560.2 705, 516 706 C 496.9 706.4, 479.3 707.2, 476.5 707.8 C 473.8 708.5, 466.6 709.9, 460.5 711.1 C 454.5 712.2, 445.7 714.2, 441 715.5 C 429.6 718.6, 424.8 719.7, 409.5 722.5 C 402.4 723.9, 395.5 725.4, 394.4 725.9 C 393.2 726.4, 387.4 727.8, 381.4 729 C 371.5 730.9, 367.5 731.8, 360 734 C 356.9 734.8, 379.1 736.5, 394 736.4 C 404.6 736.4, 408.8 735.5, 432 728.5 C 455.7 721.3, 469.6 718.5, 489.5 717 C 523.8 714.3, 540.8 712.8, 544.5 712 C 560.8 708.4, 577.6 706.2, 574.7 708 C 572.3 709.5, 564.7 711.4, 550 713.9 C 528.5 717.7, 526.8 717.9, 514 718.5 C 488.7 719.7, 466.3 722.7, 449.5 727.1 C 437.7 730.2, 417.4 736.2, 411.1 738.5 L 407.8 739.7 414.6 741.3 C 423.5 743.5, 424 743.5, 432.4 740.6 C 450.4 734.4, 476.7 729.6, 498.5 728.5 C 514.3 727.7, 533.2 725.5, 542 723.4 C 551 721.3, 567.9 716, 571.3 714.3 C 576.4 711.7, 575.4 713.8, 569.9 717.3 C 565.2 720.3, 559.8 722.2, 546 726 C 537.5 728.4, 526.4 730.1, 513.5 731 C 476.5 733.5, 468.8 734.5, 448 739.6 C 444.4 740.4, 439.4 741.7, 436.8 742.3 C 428.8 744.1, 430.1 745, 443.7 747 C 449.5 747.8, 452.8 747.7, 459.7 746.4 C 464.6 745.6, 472.6 744.2, 477.5 743.5 C 495.1 740.8, 527.3 735, 535.5 733 C 537.7 732.5, 543.6 731.1, 548.5 730 C 553.5 728.9, 560.2 727.3, 563.5 726.5 C 566.8 725.8, 572.9 724.4, 577 723.4 C 587.1 721.1, 595.6 718.8, 607.5 715 C 613 713.2, 624.1 710, 632.2 708 C 645.6 704.5, 647.3 703.9, 649.7 700.9 C 651.3 699.1, 654.7 695.1, 657.4 692 C 660 689, 664.9 682.5, 668.2 677.6 C 675.2 667.2, 678.3 662.7, 679 662 C 679.3 661.7, 681.8 658.4, 684.5 654.5 C 689.2 647.7, 700 634.9, 704.9 630.3 C 707.9 627.4, 706.6 627.4, 701.6 630.1 M 670.4 643.8 C 664.3 647, 656.9 650.7, 653.9 652.1 C 650.9 653.5, 644.2 656.9, 639 659.6 C 628.3 665.2, 619.5 669.1, 607 674 C 602.3 675.8, 597.8 677.5, 597 677.9 C 590.6 680.9, 550.5 693.1, 537.5 696 C 532.6 697.1, 525.8 698.7, 522.4 699.5 C 519.1 700.3, 515.6 701, 514.6 701 C 513.7 701, 513.2 701.5, 513.5 702 C 514.8 704.1, 548.5 702.3, 563.2 699.4 C 583.4 695.5, 601 689.3, 622 678.8 C 637.4 671.2, 639.7 669.7, 669 649 C 686.9 636.3, 687.1 635.3, 670.4 643.8 M 3 666 C 3 668.1, 8.2 669.8, 26.5 674 C 42.1 677.5, 84 680.6, 84 678.2 C 84 676.8, 79.3 676.2, 61 675 C 46.1 674.1, 29.3 671.9, 22 670 C 20.1 669.5, 15.3 668.2, 11.3 667 C 3.1 664.7, 3 664.7, 3 666 M 123 693.1 C 107.5 694.1, 102 695, 73.5 701.6 C 47.4 707.7, 37.1 709.2, 19.3 709.7 C 4.4 710.1, 1.1 710.7, 4 712.5 C 6 713.7, 33.4 713.1, 42 711.6 C 46.7 710.8, 52.8 709.9, 55.5 709.5 C 58.3 709.1, 66.6 707.2, 74 705.3 C 86.3 702.1, 94.3 700.1, 102.5 698.4 C 109.1 696.9, 103.9 699, 95 701.4 C 85.5 703.8, 64.2 710.7, 58.5 713 C 56.9 713.7, 54.6 714.6, 53.5 715.1 C 52.4 715.5, 48.8 717.1, 45.5 718.5 C 30.7 725.1, 30.1 725.2, 16.7 725.5 C 1.2 725.8, -0.4 727.3, 14 728 L 24.5 728.5 16.6 732.5 C 4.1 738.9, 0 744.3, 4.7 748.1 C 7.1 750.1, 37.4 749.9, 41.3 747.9 C 43.8 746.6, 42.5 746.5, 28.1 746.8 C 9.9 747.3, 5 746.7, 5 744.2 C 5.1 738.9, 52 717.6, 85 708 C 89.1 706.8, 93.8 705.4, 95.4 704.9 C 99 703.8, 103.7 703.7, 104.2 704.8 C 104.4 705.3, 111.9 708, 121 710.9 C 130.1 713.8, 138.6 716.6, 140 717.1 C 150.6 720.7, 180.1 720.7, 194 717 C 195.9 716.5, 198.7 715.8, 200.3 715.5 C 202.1 715.1, 203 714.3, 203 713 C 203 710.9, 201.5 710.3, 200.5 712 C 199.6 713.4, 196.2 713.2, 195.3 711.7 C 193.6 708.9, 189.3 707.2, 182 706.5 C 175.3 705.9, 174.7 706, 176.5 707.3 C 177.6 708.1, 180.5 709.1, 183 709.4 C 188.4 710.3, 193 711.9, 193 713 C 193 715.2, 184.6 716.3, 168 716.4 C 148.5 716.4, 146.4 716.1, 123 708.4 C 115.5 706, 108.4 704, 107.2 704 C 104.3 704, 104.4 702.2, 107.3 701.5 C 118.5 699.1, 144.3 696.8, 153.5 697.5 C 178.3 699.3, 205.2 708.9, 236 726.8 C 259.4 740.4, 276.7 747.5, 299 752.4 C 307.6 754.3, 326.6 756.4, 328 755.5 C 330.2 754.1, 327.7 753.3, 319.3 752.6 C 314.5 752.2, 308.9 751.5, 307 751 C 305.1 750.5, 299.7 749.1, 295 748 C 277.3 743.7, 261 736.9, 243.7 726.6 C 239.4 724.1, 235.7 722, 235.4 722 C 235.2 722, 232.2 720.3, 228.8 718.2 C 221.3 713.7, 214 710.2, 196.5 702.5 C 191.6 700.4, 177.9 696.2, 171.5 695 C 156.5 692, 146.4 691.6, 123 693.1 M 259.8 702.6 C 266 706.9, 302.2 723.1, 305.4 722.9 C 308 722.8, 261 701, 258.1 701 C 257.8 701, 258.6 701.7, 259.8 702.6 M 707.5 718.8 C 713.2 724.2, 734.8 727, 748 724.1 C 758.7 721.7, 762 720.6, 762 719.3 C 762 718.4, 761.3 718.1, 760.3 718.4 C 744.5 723.2, 715 722.8, 709.6 717.9 C 709 717.4, 707.9 717, 707.1 717 C 705.9 717, 706 717.4, 707.5 718.8 M 627 726.1 C 581.8 730.7, 526.8 739, 551.5 737.4 C 560.2 736.8, 572 735.6, 590 733.4 C 644.8 726.8, 655 726.8, 725.5 733 C 739.2 734.2, 738.5 734.2, 737.1 732.7 C 735.6 730.8, 725.4 729.2, 707.5 728 C 699.3 727.4, 688 726.5, 682.5 726 C 670.7 724.9, 637.6 725, 627 726.1 M 100 728 C 83.7 731, 71 736.2, 71 739.9 C 71 749, 87.5 754.8, 114.3 754.9 C 140.7 755.1, 155 749.8, 155 740 C 155 729.4, 126.2 723.1, 100 728 M 105.2 730.1 C 93.8 731.4, 77.4 736.6, 74.9 739.6 C 73.4 741.4, 75.9 744.4, 81 747 C 96.9 755.1, 145.2 753, 150 744 C 155.6 733.5, 134 726.8, 105.2 730.1 M 185.4 747.9 C 177 749.6, 172 752.1, 172 754.5 C 172 756, 187.8 755.6, 193.5 753.9 C 199 752.2, 217.2 751, 228.9 751.5 C 242.9 752.1, 240.7 750.9, 222.5 748 C 208.1 745.6, 196.3 745.6, 185.4 747.9" stroke="none" fill="#1b1f3a" fill-rule="evenodd"/></svg>