<svg xmlns="http://www.w3.org/2000/svg" viewBox="0 0 768 768" version="1.1" preserveAspectRatio="xMidYMid meet">
	<path d="M 578.533 88.686 C 574.520 90.857, 573.106 92.397, 571.871 95.939 C 570.883 98.775, 570.598 98.907, 566.634 98.363 C 562.878 97.848, 561.994 98.163, 558.126 101.394 C 551.872 106.620, 547.922 106.413, 541.699 100.535 C 532.758 92.089, 518.729 92.411, 512.570 101.203 C 510.899 103.589, 505.254 104.879, 496 104.992 C 492.425 105.035, 488.439 105.659, 487.142 106.378 C 485.695 107.181, 482.901 107.505, 479.909 107.217 C 475.034 106.749, 470 108.694, 470 111.046 C 470 111.596, 471.088 111.333, 472.419 110.461 C 474.050 109.393, 476.574 108.971, 480.169 109.166 C 483.101 109.325, 486.850 108.933, 488.500 108.294 C 490.150 107.656, 495.448 106.958, 500.273 106.745 C 507.432 106.428, 509.548 105.953, 511.773 104.168 C 519.845 97.689, 522.108 96.609, 527.440 96.688 C 533.497 96.777, 535.186 97.536, 541.508 103.007 C 547.614 108.292, 553.510 108.644, 558.154 104 C 560.751 101.403, 561.884 101, 566.585 101 C 571.992 101, 572.023 100.982, 573.624 96.981 C 577.200 88.045, 586.249 86.098, 593.874 92.624 L 598.107 96.248 600.368 94.124 C 601.612 92.956, 603.162 92, 603.814 92 C 604.467 92, 605 91.557, 605 91.016 C 605 90.475, 603.511 90.743, 601.690 91.611 C 598.465 93.149, 598.263 93.110, 593.795 90.095 C 588.571 86.569, 583.338 86.086, 578.533 88.686 M 644.885 89.326 C 642.897 90.066, 639.967 91.599, 638.375 92.733 L 635.480 94.794 632.490 92.402 C 629.206 89.774, 622.384 89.119, 619.175 91.123 C 617.789 91.989, 616.657 91.874, 614.238 90.623 C 610.899 88.897, 606 88.435, 606 89.848 C 606 90.314, 607.342 90.734, 608.982 90.780 C 610.621 90.827, 613.317 91.665, 614.972 92.642 C 617.325 94.033, 618.244 94.156, 619.190 93.210 C 621.476 90.924, 629.389 91.721, 632 94.500 C 634.906 97.594, 635.353 97.595, 639.377 94.526 C 644.030 90.977, 651.838 89.325, 655.493 91.116 C 658.641 92.660, 659.242 93.596, 661.095 99.845 C 662.567 104.812, 666.221 108.054, 673 110.408 C 678.077 112.171, 685 112.513, 685 111 C 685 110.450, 683.622 110, 681.938 110 C 677.701 110, 668.924 107.088, 666.440 104.858 C 665.307 103.841, 663.816 100.809, 663.127 98.120 C 660.929 89.544, 653.685 86.052, 644.885 89.326 M 687.253 112.147 C 684.502 114.898, 671.876 115.893, 632.500 116.462 C 610.500 116.780, 585.719 117.243, 577.430 117.490 C 569.142 117.737, 533.817 118.163, 498.930 118.436 C 436.849 118.921, 431.631 118.635, 454.838 116.023 C 459.974 115.445, 465.374 114.315, 466.838 113.513 L 469.500 112.054 466.500 112.522 C 464.850 112.779, 459.225 113.475, 454 114.069 C 448.775 114.663, 442.371 115.397, 439.768 115.700 C 434.966 116.259, 432.301 118.061, 433.473 119.956 C 435.595 123.389, 663.454 120.123, 682.188 116.391 C 686.957 115.440, 691.609 115.119, 694.438 115.543 C 700.035 116.382, 700.667 114.594, 695.532 112.449 C 691.352 110.702, 688.791 110.609, 687.253 112.147 M 648.042 125.165 C 643.686 127.426, 640.704 129.816, 638.879 132.509 C 636.333 136.266, 635.814 136.535, 630.047 137.102 C 623.084 137.785, 618.590 141.040, 617.451 146.221 C 616.817 149.110, 616.721 149.149, 611.896 148.486 C 607.959 147.944, 606.319 148.204, 603.618 149.798 C 599.524 152.213, 591.412 154.581, 584 155.524 C 580.975 155.909, 578.050 156.573, 577.500 156.999 C 576.950 157.425, 574.475 158.101, 572 158.500 C 567.365 159.248, 565 160.508, 565 162.231 C 565 162.813, 566.127 162.925, 567.750 162.504 C 569.263 162.112, 594.125 161.632, 623 161.438 C 657.102 161.210, 678.479 160.659, 684 159.867 C 688.675 159.196, 701.383 158.585, 712.240 158.507 C 731.510 158.370, 732.041 158.310, 734.490 156.009 C 740.624 150.247, 734.631 143.426, 722.020 141.817 C 720.259 141.592, 719.282 140.631, 718.648 138.500 C 716.251 130.446, 713.036 126.952, 705.812 124.555 C 695.868 121.256, 689.627 123.850, 684.471 133.425 C 681.440 139.052, 676.161 138.657, 672.573 132.534 C 666.540 122.239, 658.392 119.792, 648.042 125.165 M 654 124.759 C 650.174 125.298, 640.823 132.115, 639.065 135.645 C 637.580 138.630, 637.157 138.811, 630.823 139.174 C 623.133 139.615, 620.540 141.309, 619.560 146.530 C 618.734 150.936, 617.613 151.522, 612.953 149.985 C 609.392 148.809, 608.672 148.936, 602.810 151.768 C 595.236 155.426, 591.223 156.682, 584.228 157.584 C 570.300 159.379, 582.559 161.384, 599 160 C 605.325 159.468, 624.450 159.005, 641.500 158.972 C 658.550 158.939, 675.875 158.452, 680 157.890 C 692.948 156.124, 712.206 155.366, 719.056 156.352 C 727.827 157.614, 732.754 156.635, 734.259 153.331 C 735.914 149.698, 731.228 145.544, 724.384 144.577 C 716.554 143.470, 716 143.159, 716 139.883 C 716 129.841, 701.492 121.464, 693.215 126.726 C 690.132 128.686, 689.861 129.007, 686.655 134.500 C 684.389 138.383, 684.163 138.500, 678.934 138.500 L 673.548 138.500 670.976 133.635 C 667.133 126.366, 661.923 123.642, 654 124.759 M 484 165.585 C 459.582 172.037, 450.703 176.860, 434.500 192.471 C 430.100 196.710, 424.475 201.601, 422 203.339 L 417.500 206.500 385.500 206.589 C 357.691 206.667, 351.797 206.961, 340.500 208.835 C 320.660 212.126, 309.193 214.488, 295 218.207 C 290.875 219.288, 285.250 220.757, 282.500 221.472 C 279.750 222.188, 272.100 224.221, 265.500 225.992 C 232.868 234.745, 209.897 237.285, 174.860 236.015 C 171.814 235.905, 168.776 236.584, 166.019 237.990 C 161.996 240.042, 161.762 240.057, 160.500 238.331 C 158.525 235.630, 152.148 236.169, 146.330 239.528 C 136.039 245.471, 131.282 247.731, 125.500 249.425 C 122.200 250.392, 117.260 251.859, 114.523 252.686 C 111.786 253.513, 105.036 254.294, 99.523 254.422 C 88.262 254.683, 84.904 255.895, 78.840 261.885 C 76.828 263.873, 74.268 266.337, 73.152 267.360 C 66.337 273.608, 66.422 284.297, 73.348 291.963 C 75.242 294.060, 77.099 297.175, 77.475 298.887 C 78.409 303.140, 87.956 310.936, 112 327.081 C 118.325 331.328, 128.450 338.255, 134.500 342.474 C 145.222 349.953, 154.388 356.075, 175.180 369.644 C 180.778 373.298, 192.591 379.935, 201.430 384.394 C 215.199 391.339, 217.543 392.858, 217.800 395 C 218.929 404.397, 223.464 414.733, 230.965 425 C 233.577 428.575, 236.963 433.667, 238.490 436.315 C 242.363 443.032, 249.841 450.950, 258.379 457.376 C 282.915 475.843, 297.152 473.923, 287.224 453.486 C 283.970 446.786, 281.544 440.135, 277.056 425.612 C 273.406 413.803, 273.280 412.544, 275.884 413.938 C 280.930 416.638, 305.947 422.344, 319.650 423.919 C 327.018 424.766, 328.371 425.277, 333.767 429.250 C 337.065 431.678, 342.366 434.428, 345.617 435.398 C 348.853 436.363, 352.400 437.524, 353.500 437.979 C 354.600 438.433, 358.425 439.793, 362 441 C 365.575 442.207, 369.580 443.714, 370.900 444.348 C 375.334 446.477, 398.918 445.850, 402.821 443.500 C 407.293 440.807, 409.843 436.560, 408.381 434.239 C 406.614 431.434, 404 431.454, 404 434.272 C 404 439.274, 400.905 440.510, 388.640 440.403 C 373.179 440.269, 358.911 435.325, 342.396 424.382 C 339.590 422.522, 336.976 421, 336.587 421 C 334.989 421, 337.549 423.376, 342.693 426.667 C 348.906 430.641, 349.219 432.173, 343.190 429.097 C 336.762 425.818, 324.145 415.137, 318.937 408.566 C 316.293 405.230, 312.638 401.333, 310.815 399.906 C 308.992 398.480, 304.699 392.551, 301.275 386.731 C 294.609 375.399, 292.531 372.973, 293.512 377.666 L 294.104 380.500 292.372 377.500 C 291.256 375.567, 290.562 371.962, 290.420 367.362 C 290.299 363.436, 289.500 358.711, 288.645 356.862 C 281.292 340.960, 281.152 332.161, 288.250 332.032 C 289.212 332.014, 290 331.550, 290 331 C 290 329.399, 283.164 329.847, 280.449 331.625 C 277.636 333.468, 272.855 333.041, 264.500 330.200 C 259.201 328.398, 250 320.369, 250 317.548 C 250 316.696, 249.550 316, 249 316 C 246.984 316, 248.085 319.957, 251.275 324.172 C 255.170 329.320, 262.591 333.508, 269.500 334.457 C 277.514 335.559, 278 335.829, 278 339.179 C 278 342.116, 277.877 342.200, 274.500 341.566 C 270.062 340.733, 270.057 341.325, 274.486 343.427 C 276.404 344.337, 278.478 346.024, 279.094 347.176 C 282.881 354.252, 253.003 337.791, 240.500 325.912 C 236.027 321.663, 229.647 316.810, 226.028 314.906 C 222.345 312.968, 216.343 308.381, 212.099 304.263 C 203.933 296.339, 201.907 295.509, 207.074 302.204 C 212.839 309.673, 217.204 313.152, 227 318.084 C 230.605 319.899, 235.059 323.157, 237 325.400 C 245.699 335.448, 263.036 346.740, 279.198 352.885 C 282.147 354.006, 284.916 360, 282.485 360 C 277.453 360, 244.618 342.740, 232.524 333.738 C 231.961 333.319, 229.886 331.744, 227.912 330.238 C 225.939 328.732, 223.072 326.600, 221.542 325.500 C 210.153 317.315, 204.721 311.479, 200.602 303 L 198.901 299.500 199.578 303 C 201.474 312.806, 205.596 317.119, 229.901 334.731 C 234.630 338.159, 238.950 341.331, 239.500 341.781 C 243.472 345.032, 270.401 359.055, 278.461 362.071 C 283.909 364.110, 284.252 364.537, 285.538 370.900 C 286.074 373.554, 285.926 374.180, 284.862 373.754 C 273.052 369.020, 255.469 360.231, 250.500 356.578 C 248.850 355.365, 244.125 352.341, 240 349.858 C 233.414 345.894, 227.338 341.740, 204.098 325.317 C 198.203 321.151, 183.141 306.705, 181.351 303.500 C 179.794 300.711, 178.555 302.300, 180.074 305.138 C 182.931 310.476, 198.471 324.888, 210.475 333.331 C 239.380 353.662, 265.316 369.055, 280.758 375.045 C 286.239 377.171, 293.070 383.263, 291.609 384.724 C 291.099 385.235, 274.625 379.925, 273.550 378.903 C 273.028 378.406, 271.971 378, 271.201 378 C 270.432 378, 268.384 377.359, 266.651 376.575 C 264.918 375.791, 260.800 373.946, 257.500 372.476 C 246.933 367.769, 232.386 359.275, 221.291 351.335 C 215.356 347.088, 207.800 341.690, 204.500 339.340 C 201.200 336.989, 198.050 334.709, 197.500 334.272 C 196.950 333.836, 192.675 330.507, 188 326.875 C 179.008 319.889, 167.479 308.317, 162.493 301.271 C 159.529 297.084, 158 295.996, 158 298.076 C 158 300.629, 172.349 316.952, 182.077 325.465 C 183.940 327.095, 191.097 332.613, 197.982 337.726 C 204.867 342.840, 210.950 347.376, 211.500 347.806 C 221.842 355.907, 250.327 372.740, 260.915 377.009 C 265.087 378.691, 269.175 380.432, 270 380.879 C 270.825 381.325, 274.875 382.706, 279 383.949 C 291.841 387.815, 294.991 388.948, 297.535 390.615 C 299.906 392.168, 300.933 395, 299.127 395 C 296.788 395, 275.931 389.113, 274.500 388.049 C 273.950 387.640, 271.025 386.518, 268 385.557 C 262.979 383.961, 260.707 383.046, 250 378.306 C 235.270 371.786, 225.140 365.735, 206 352.020 C 180.633 333.844, 170.509 325.638, 158.250 313.313 C 144.710 299.700, 141.165 297.326, 149.868 307.698 C 159.105 318.707, 172.728 330.952, 190 343.771 C 196.325 348.466, 203.075 353.499, 205 354.957 C 228.353 372.639, 261.747 388.492, 292.414 396.454 C 300.079 398.444, 303.325 399.845, 306.719 402.626 C 309.134 404.605, 310.972 406.343, 310.805 406.488 C 308.811 408.217, 268.086 395.855, 251 388.335 C 248.525 387.245, 244.475 385.513, 242 384.484 C 234.283 381.279, 217.122 372.123, 209.139 366.953 C 204.938 364.232, 200.938 362.004, 200.250 362.003 C 199.563 362.001, 198.998 361.438, 198.996 360.750 C 198.993 360.024, 197.527 359.425, 195.496 359.321 C 193.573 359.223, 192 359.283, 192 359.456 C 192 360.297, 222.902 378.119, 233.946 383.648 C 257.275 395.326, 292.721 407.433, 309.750 409.539 C 313.110 409.954, 315 410.664, 315 411.511 C 315 412.238, 315.563 413.090, 316.250 413.404 C 317.971 414.190, 307.309 413.034, 303 411.968 C 301.075 411.492, 295.029 410.128, 289.566 408.936 C 284.102 407.745, 277.577 405.883, 275.066 404.798 C 272.554 403.713, 266.225 401.250, 261 399.325 C 232.272 388.738, 221.129 383.696, 205.835 374.364 C 200.701 371.232, 191.727 366.294, 185.894 363.392 C 176.411 358.674, 162.641 350.026, 156.680 345.043 C 155.481 344.041, 150.266 339.700, 145.091 335.397 C 124.086 317.932, 99 293.280, 99 290.104 C 99 288.782, 97.343 288.636, 96.568 289.890 C 96.031 290.759, 107.943 305.031, 115.022 312 C 122.586 319.446, 141.025 335.677, 148 341.029 C 150.475 342.928, 153.400 345.303, 154.500 346.306 C 158.224 349.704, 173.986 359.865, 177.503 361.137 C 179.427 361.833, 181 362.761, 181 363.201 C 181 363.640, 181.563 364.004, 182.250 364.010 C 182.938 364.015, 186.425 365.889, 190 368.175 C 212.429 382.517, 242.819 396.818, 266.331 404.094 C 272.288 405.938, 276.738 407.587, 276.221 407.760 C 274.108 408.464, 255.724 403.095, 243.170 398.106 C 214.207 386.599, 196.702 376.975, 153.500 348.810 C 141.604 341.054, 135.128 336.080, 128.973 329.970 C 125.934 326.952, 120.759 322.365, 117.473 319.775 C 109.723 313.667, 89.793 292.472, 87.133 287.510 C 85.626 284.697, 84.908 284.075, 84.474 285.206 C 84.148 286.058, 84.695 288.093, 85.690 289.728 C 89.146 295.405, 110.852 317.533, 118.820 323.500 C 123.226 326.800, 126.638 329.693, 126.403 329.929 C 126.168 330.165, 124.743 329.452, 123.238 328.345 C 121.732 327.238, 116.445 323.579, 111.490 320.214 C 106.534 316.849, 101.520 313.201, 100.346 312.108 C 99.173 311.015, 97.916 310.417, 97.554 310.780 C 97.191 311.142, 97.173 310.712, 97.515 309.822 C 97.937 308.722, 96.760 306.975, 93.830 304.353 C 78.065 290.245, 73.840 285.549, 74.399 282.753 C 74.702 281.239, 74.511 280, 73.975 280 C 73.439 280, 73 279.498, 73 278.884 C 73 276.573, 100.200 278.649, 133 283.462 C 138.775 284.310, 147.325 285.464, 152 286.027 C 167.739 287.922, 189.404 292.299, 194 294.511 C 195.375 295.173, 198.075 296.014, 200 296.380 C 203.189 296.986, 203.322 296.923, 201.500 295.667 C 194.373 290.755, 183.552 287.613, 163 284.489 C 157.775 283.695, 149 282.350, 143.500 281.501 C 134.049 280.042, 121.287 278.166, 105.500 275.917 C 101.650 275.368, 92.987 274.827, 86.250 274.713 C 73.368 274.496, 71.492 273.690, 76.397 270.476 C 78.881 268.848, 91.603 270.037, 119.500 274.505 C 139.729 277.745, 148.969 279.185, 158 280.505 C 191.642 285.421, 203.119 289.405, 214.039 299.959 C 223.663 309.260, 228.068 311.507, 236.500 311.414 C 244.257 311.329, 252.139 308.739, 250.284 306.884 C 249.568 306.168, 248.601 306.138, 247.357 306.793 C 244.999 308.035, 232.055 309.425, 233.740 308.255 C 234.597 307.660, 233.826 306.979, 231.240 306.048 C 225.369 303.936, 223.316 302.204, 221.105 297.500 C 219.974 295.094, 217.575 291.446, 215.774 289.394 C 213.687 287.016, 213.225 286.081, 214.500 286.815 C 217.568 288.581, 220.150 291.051, 224.430 296.314 C 232.492 306.226, 245.052 307.906, 248.548 299.538 C 252.073 291.102, 248.149 283.879, 239.978 283.762 C 233.868 283.675, 231.508 284.589, 230.152 287.566 C 228.255 291.730, 228.839 292.345, 231.589 289.077 C 233.722 286.541, 234.910 286.003, 238.339 286.015 C 243.323 286.034, 244.240 286.561, 246.308 290.599 C 249.641 297.106, 246.823 302, 239.743 302 C 234.458 302, 232.608 300.851, 224.446 292.499 C 213.471 281.267, 206.628 278.828, 164.500 271.128 C 158.450 270.023, 150.125 268.607, 146 267.982 C 135.776 266.432, 119.007 263.014, 116.203 261.907 C 114.940 261.408, 112.551 261, 110.894 261 C 106.486 261, 108.116 259.538, 114.718 257.570 C 117.898 256.623, 121.400 255.479, 122.500 255.029 C 123.600 254.580, 126.750 253.428, 129.500 252.471 C 137.459 249.700, 143.247 246.970, 146.770 244.324 C 151.380 240.861, 156.026 240.266, 158.356 242.840 C 160.329 245.021, 160.209 245.037, 169.846 241.312 C 177.042 238.531, 177.896 238.787, 176.222 243.222 C 175.569 244.952, 175.241 246.574, 175.493 246.827 C 176.201 247.535, 179 244.907, 179 243.535 C 179 242.641, 183.885 242.150, 197.250 241.703 C 214.664 241.120, 225.802 239.827, 243.500 236.333 C 251.326 234.788, 254.528 233.999, 278 227.837 C 298.221 222.528, 311.376 219.387, 321.500 217.449 C 346.858 212.596, 356.113 211.701, 380.500 211.744 L 404.500 211.785 418.274 215.340 C 433.231 219.200, 448.322 223.613, 451.500 225.056 C 453.339 225.891, 461.498 227.918, 463.250 227.976 C 463.663 227.989, 464 227.619, 464 227.154 C 464 225.537, 440.360 217.539, 426.500 214.466 C 419.251 212.859, 414.610 211, 417.848 211 C 420.494 211, 430.579 203.528, 439.345 195.073 C 456.586 178.442, 473.750 170.644, 496 169.333 C 504.134 168.853, 504.618 168.945, 507.250 171.456 C 512.073 176.060, 511.172 179.034, 502.127 188.372 C 494.155 196.603, 489.569 202.920, 488.484 207.167 C 488.130 208.552, 485.887 210.696, 482.966 212.443 C 477.466 215.733, 474.903 219.955, 474.821 225.861 C 474.740 231.735, 477.137 235.108, 488.295 244.821 C 499.576 254.642, 512.589 268.102, 518.717 276.288 C 523.720 282.971, 532.598 295.357, 536.072 300.500 C 540.367 306.858, 549.449 324.612, 553.977 335.500 C 556.264 341, 558.553 346.400, 559.063 347.500 C 560.688 351.001, 563.715 361.296, 564.944 367.500 C 565.598 370.800, 568.109 379.800, 570.524 387.500 C 575.994 404.939, 577.327 410.830, 581.611 436.500 C 582.854 443.947, 585.850 464.980, 585.967 467.083 C 586.018 467.991, 587.568 468.121, 602 468.429 C 620.770 468.828, 629.409 471.079, 650.500 481.064 C 657.393 484.327, 662.386 488.861, 667.394 496.406 C 670.366 500.884, 673.456 504.955, 679.007 511.708 C 679.553 512.372, 680 513.509, 680 514.235 C 680 514.961, 680.600 516.443, 681.334 517.527 C 682.067 518.612, 682.977 520.349, 683.355 521.386 C 684.004 523.168, 683.917 523.182, 681.771 521.644 C 676.474 517.848, 676.060 517.773, 674.864 520.399 C 674.244 521.759, 674.021 523.614, 674.369 524.519 C 675.169 526.603, 677.600 525.855, 677.206 523.646 C 677.045 522.741, 677.382 522, 677.956 522 C 678.530 522, 679 522.510, 679 523.134 C 679 523.757, 680.237 525.365, 681.750 526.706 C 685.426 529.966, 687.486 529.779, 718.500 523.362 C 725.531 521.907, 731.822 521.504, 747.250 521.518 C 761.603 521.531, 767 521.218, 767 520.373 C 767 518.902, 739.026 517.465, 729.280 518.436 C 725.551 518.808, 717.100 520.191, 710.500 521.510 C 693.832 524.841, 688.401 525.457, 687.569 524.112 C 687.191 523.500, 687.359 523, 687.941 523 C 689.730 523, 689.116 519.827, 686.898 517.605 C 685.741 516.447, 682.704 512.125, 680.148 508 C 670.161 491.885, 659.963 480.144, 653.176 476.950 C 641.992 471.687, 638.176 470.088, 633 468.500 C 629.975 467.572, 626.150 466.347, 624.500 465.778 C 622.850 465.209, 614.638 464.521, 606.250 464.250 C 597.862 463.979, 590.990 463.699, 590.978 463.628 C 590.966 463.558, 590.318 459, 589.538 453.500 C 587.568 439.604, 585.436 426.919, 583.490 417.500 C 579.381 397.618, 578.764 394.998, 574.475 379.245 C 573.614 376.085, 572.461 371.700, 571.911 369.500 C 566.729 348.758, 550.669 313.357, 537.387 293.400 C 533.324 287.296, 530 282.060, 530 281.766 C 530 281.471, 532.878 282.759, 536.396 284.627 C 551.904 292.862, 585.100 300.862, 604.202 300.968 C 609.777 300.999, 609.969 301.095, 612.844 305.273 C 617.313 311.768, 624.081 317.512, 631.914 321.457 C 638.352 324.699, 643.965 330.394, 644.011 333.730 C 644.069 338.026, 662.628 356.092, 676.239 365.103 C 681.332 368.476, 686.978 372.532, 688.785 374.117 C 692.568 377.438, 693.279 377.578, 695.427 375.430 C 697.888 372.969, 698.313 369.619, 697.685 357.645 C 696.730 339.416, 692.991 331.357, 679.099 317.580 L 671.113 309.659 678.529 301.775 C 691.624 287.855, 701.094 269.865, 703.414 254.500 L 704.018 250.500 702.509 253.865 C 701.679 255.715, 701 257.708, 701 258.292 C 701 259.818, 693.111 275.901, 690.610 279.473 C 686.135 285.865, 676.944 296.735, 671.592 301.966 C 668.517 304.972, 666 308.038, 666 308.778 C 666 309.519, 670.474 314.724, 675.943 320.345 C 690.628 335.439, 695.372 347.671, 693.462 365.512 L 692.792 371.763 686.498 367.131 C 683.036 364.584, 677.608 360.700, 674.436 358.500 C 664.791 351.811, 653.840 340.278, 647.933 330.590 C 644.945 325.689, 641.825 321.359, 641 320.968 C 640.175 320.576, 637.475 319.304, 635 318.141 L 630.500 316.026 634.500 316.763 C 645.720 318.830, 657.871 315.677, 659.780 310.203 C 661.465 305.368, 658.203 303.974, 656.398 308.757 C 655.076 312.260, 645.170 315.608, 639.243 314.556 C 627.131 312.405, 619.630 307.133, 610.336 294.236 C 602.974 284.022, 598.452 280.279, 590.312 277.666 C 584.421 275.774, 583.999 275.713, 584.004 276.750 C 584.006 277.163, 586.143 278.363, 588.754 279.418 C 595.822 282.274, 601.105 286.209, 604.812 291.380 L 608.124 296 603.249 296 C 584.520 296, 549.484 287.693, 534 279.581 C 532.625 278.861, 530.322 277.992, 528.882 277.650 C 527.442 277.308, 524.674 275.109, 522.731 272.764 C 517.712 266.707, 504.261 253.026, 492 241.510 C 476.624 227.069, 475.571 223.943, 483.518 216.329 C 489.310 210.778, 489.812 210.858, 494 217.990 C 497.380 223.746, 500.525 226.812, 499.342 223.199 C 498.482 220.571, 496.008 214.692, 494.952 212.764 C 491.941 207.270, 494.778 201.133, 505.482 189.982 C 513.882 181.232, 515.376 172.286, 509.430 166.340 C 506.596 163.505, 493.358 163.112, 484 165.585 M 708.488 198.750 C 706.295 200.262, 704.350 201.838, 704.167 202.250 C 703.983 202.662, 703.228 203, 702.488 203 C 701.748 203, 700.354 203.787, 699.390 204.750 C 697.543 206.595, 681.069 207.405, 679.399 205.733 C 677.654 203.986, 681.239 202.836, 688.886 202.689 C 696.873 202.536, 696.951 202.511, 693.279 201.240 C 689.063 199.780, 681.376 200.484, 679 202.547 C 678.175 203.263, 674.807 205.265, 671.516 206.994 C 668.225 208.724, 665.300 210.456, 665.016 210.843 C 664.732 211.230, 663.263 212.334, 661.750 213.296 C 658.579 215.314, 657.866 217.677, 660.922 216.042 C 661.979 215.476, 663.442 214.432, 664.172 213.721 C 664.902 213.011, 667.794 211.029, 670.599 209.317 L 675.697 206.205 681.099 208.070 C 684.069 209.095, 687.844 209.949, 689.486 209.967 C 692.360 209.999, 702.207 205.726, 704.716 203.359 C 705.384 202.728, 707.972 201.224, 710.466 200.017 C 712.959 198.809, 715 197.412, 715 196.911 C 715 195.262, 712.538 195.957, 708.488 198.750 M 719 205.014 C 719 207.631, 717.588 211.393, 716 213.009 C 715.725 213.288, 714.412 214.748, 713.082 216.252 L 710.664 218.987 716.978 216.743 C 721.724 215.058, 723.402 214.811, 723.730 215.750 C 724.239 217.206, 729 217.465, 729 216.037 C 729 213.828, 724.765 204.404, 723.254 203.250 C 720.505 201.150, 719 201.774, 719 205.014 M 731 219.809 C 731 220.254, 731.661 221.491, 732.468 222.559 C 735.673 226.795, 733.655 233.956, 729.834 231.911 C 728.691 231.300, 727.346 231.267, 726.348 231.825 C 725.157 232.491, 726.293 232.931, 730.594 233.468 C 733.823 233.872, 738.596 235.282, 741.199 236.601 C 747.183 239.633, 754.731 239.849, 758.139 237.086 C 760.862 234.879, 760.149 233.315, 757.151 234.919 C 750.056 238.716, 740.499 234.420, 735.842 225.339 C 732.948 219.696, 731 217.472, 731 219.809 M 380.416 221.865 C 380.710 222.340, 388.949 222.973, 398.725 223.271 C 408.501 223.569, 417.850 224.282, 419.500 224.856 C 421.150 225.429, 425.650 226.656, 429.500 227.583 C 437.204 229.438, 446.847 232.460, 451.500 234.477 C 453.150 235.192, 455.625 236.094, 457 236.481 C 466.261 239.089, 446.832 229.789, 436.500 226.669 C 431.366 225.119, 423.318 223.396, 414.500 221.960 C 407.741 220.859, 379.747 220.781, 380.416 221.865 M 658.160 228.628 C 657.942 231.529, 656.720 232.253, 647.704 234.820 C 629.336 240.049, 615.279 251.074, 608.345 265.686 C 607.036 268.443, 606.251 269.059, 604.595 268.625 C 603.443 268.324, 599.125 267.135, 595 265.985 C 588.628 264.208, 586.685 264.051, 582.083 264.947 C 579.104 265.526, 572.354 266.011, 567.083 266.024 C 561.812 266.037, 555.700 266.536, 553.500 267.133 C 551.300 267.730, 543.800 268.507, 536.833 268.859 C 524.829 269.466, 521.775 270.109, 523.360 271.693 C 524.914 273.247, 542.169 273.193, 551.694 271.603 C 557.088 270.703, 564.875 270.045, 569 270.142 C 573.125 270.238, 579.476 269.964, 583.113 269.532 C 589.922 268.725, 597.728 270.383, 602.473 273.644 C 605.987 276.060, 607.492 275.159, 611.491 268.250 C 619.326 254.714, 632.132 244.286, 647.899 238.602 C 654.735 236.138, 655.843 236.011, 662.441 236.928 C 666.369 237.475, 670.464 237.745, 671.541 237.530 C 672.619 237.314, 677.002 236.590, 681.282 235.922 C 685.562 235.253, 689.301 234.322, 689.591 233.853 C 689.881 233.384, 690.931 233, 691.924 233 C 693.927 233, 699.412 229.078, 698.577 228.243 C 698.286 227.953, 697.475 228.175, 696.774 228.737 C 692.615 232.072, 670.978 235.156, 662.673 233.598 C 659.601 233.022, 659.068 232.498, 658.721 229.716 C 658.500 227.947, 658.248 227.457, 658.160 228.628 M 182.857 249.250 C 184.375 250.760, 222.245 250.546, 224.869 249.013 C 225.938 248.389, 218.758 248.050, 204.050 248.030 C 186.086 248.006, 181.851 248.250, 182.857 249.250 M 93 259.131 C 88.061 260.472, 83 263.246, 83 264.611 C 83 265.303, 85.711 266.047, 89.750 266.464 C 93.463 266.847, 102.800 268.207, 110.500 269.486 C 131.283 272.938, 143.613 274.847, 152 275.915 C 172.294 278.496, 176.953 279.215, 182.500 280.619 C 199.379 284.892, 204.899 287.705, 214.232 296.788 C 223.073 305.391, 223.549 305.457, 218.106 297.321 C 208.385 282.789, 203.637 281.127, 141.500 270.487 C 128.223 268.213, 113.399 264.359, 106.349 261.346 C 104.616 260.606, 102.280 260, 101.158 260 C 100.036 260, 98.840 259.550, 98.500 259 C 97.791 257.853, 97.698 257.855, 93 259.131 M 484.048 260.682 C 484.075 261.132, 486.911 263.975, 490.351 267 C 501.025 276.387, 512.770 292.055, 520.712 307.500 C 525.075 315.986, 536 339.688, 536 340.669 C 536 340.960, 536.642 342.616, 537.428 344.349 C 538.213 346.082, 539.804 349.750, 540.963 352.500 C 542.122 355.250, 543.504 358.281, 544.035 359.236 C 544.566 360.191, 545.015 361.541, 545.034 362.236 C 545.053 362.931, 545.937 365.300, 547 367.500 C 548.063 369.700, 548.947 372.261, 548.966 373.191 C 548.985 374.121, 549.411 375.136, 549.913 375.446 C 550.415 375.757, 551.129 377.806, 551.500 380 C 551.871 382.194, 552.546 384.219, 553 384.500 C 553.454 384.781, 554.129 386.806, 554.500 389 C 554.871 391.194, 555.533 393.211, 555.972 393.482 C 556.410 393.754, 557.072 395.995, 557.442 398.464 C 557.813 400.933, 558.540 403.215, 559.058 403.536 C 559.576 403.856, 560 404.976, 560 406.024 C 560 407.072, 560.628 409.858, 561.397 412.215 C 562.165 414.572, 563.789 419.875, 565.007 424 C 569.142 438.012, 573.302 450.497, 574.152 451.450 C 574.619 451.972, 575 453.010, 575 453.755 C 575 454.500, 575.933 457.223, 577.072 459.805 C 578.212 462.387, 579.809 466.075, 580.621 468 C 581.433 469.925, 582.517 472.268, 583.030 473.206 C 583.543 474.145, 584.258 476.845, 584.620 479.206 C 585.349 483.963, 587.568 489, 588.935 489 C 589.421 489, 589.190 486.637, 588.421 483.750 C 587.653 480.863, 587.018 477.285, 587.012 475.800 C 587.005 474.315, 586.401 472.740, 585.669 472.300 C 584.334 471.497, 578.709 458.855, 575.525 449.500 C 574.589 446.750, 573.470 443.810, 573.038 442.967 C 572.607 442.124, 571.920 439.874, 571.512 437.967 C 571.103 436.060, 570.430 434.050, 570.015 433.500 C 569.600 432.950, 568.937 430.700, 568.541 428.500 C 568.145 426.300, 567.470 424.050, 567.041 423.500 C 566.612 422.950, 565.946 420.757, 565.562 418.627 C 565.178 416.497, 564.500 414.022, 564.056 413.127 C 563.612 412.232, 562.533 409.025, 561.658 406 C 558.296 394.375, 555.801 386.440, 555.043 384.967 C 554.609 384.124, 553.915 381.889, 553.500 380 C 553.085 378.111, 552.392 375.876, 551.959 375.033 C 551.527 374.190, 549.725 369.450, 547.956 364.500 C 545.111 356.540, 543.007 351.251, 540 344.500 C 539.510 343.400, 538.146 340.250, 536.968 337.500 C 532.646 327.409, 523.719 308.994, 517.693 297.735 C 511.516 286.194, 483.749 255.615, 484.048 260.682 M 652.852 271.016 C 642.629 276.417, 635.319 295.299, 640.557 302.777 C 643.132 306.454, 643.532 305.435, 643.516 295.250 C 643.495 282.345, 646.067 277.266, 655.973 270.651 C 659.329 268.409, 657.347 268.641, 652.852 271.016 M 469 275.415 C 469 275.642, 471.106 277.006, 473.679 278.444 C 485.434 285.014, 498.001 297.294, 508.478 312.446 C 513.159 319.217, 524 336.685, 524 337.457 C 524 338.835, 530.775 351.892, 531.246 351.421 C 531.806 350.860, 530.500 347.061, 527.438 340.349 C 526.647 338.616, 526 336.949, 526 336.645 C 526 336.055, 514.127 316.175, 512.774 314.500 C 512.329 313.950, 509.771 310.545, 507.088 306.933 C 500.040 297.445, 490.711 288.161, 481.163 281.135 C 474.204 276.013, 469 273.566, 469 275.415 M 234.750 289.569 C 231.986 291.071, 230.727 296, 233.107 296 C 233.716 296, 233.969 296.638, 233.670 297.417 C 232.711 299.916, 239.270 300.996, 243.066 298.965 C 246.426 297.166, 244.742 289, 241.010 289 C 240.545 289, 239.564 288.792, 238.832 288.537 C 238.099 288.283, 236.262 288.747, 234.750 289.569 M 108.652 289.681 C 107.780 290.554, 119.360 304.074, 128.651 313.030 C 153.675 337.150, 175.776 354.777, 185.500 358.369 C 188.540 359.492, 186.427 357.739, 171 346.334 C 153.727 333.565, 150.366 330.575, 127.832 307.929 C 117.565 297.611, 108.934 289.399, 108.652 289.681 M 128 295.997 C 128 299.623, 152.582 324.840, 169.434 338.500 C 172.148 340.700, 177.548 345.146, 181.434 348.381 C 190.256 355.724, 195.847 359.486, 196.687 358.646 C 197.042 358.291, 197.146 357.862, 196.917 357.694 C 193.863 355.455, 182.153 346.131, 180.974 345 C 180.113 344.175, 177.423 341.925, 174.996 340 C 159.652 327.827, 132.112 300.793, 130.667 296.485 C 129.667 293.505, 128 293.200, 128 295.997 M 263.854 294.706 C 261.010 295.143, 257.238 298.571, 258.362 299.696 C 258.738 300.072, 259.736 299.394, 260.580 298.190 C 261.423 296.985, 263.100 296.002, 264.307 296.004 C 266.273 296.007, 266.189 296.198, 263.500 297.842 C 257.952 301.234, 257.557 302.450, 261.048 305.387 C 264.973 308.689, 268.511 308.696, 273.346 305.411 C 277.970 302.269, 277.575 301.069, 272.863 303.942 C 271.013 305.070, 268.375 305.990, 267 305.986 C 265.078 305.982, 265.713 305.416, 269.750 303.536 C 274.786 301.192, 277.229 298.158, 273 299.500 C 270.869 300.176, 270.059 297.699, 272.016 296.490 C 275.072 294.601, 270.722 293.651, 263.854 294.706 M 358.649 295.639 C 353.396 296.591, 346.779 298.935, 338.649 302.723 C 328.456 307.474, 325.575 308.395, 320.753 308.443 C 314.571 308.504, 313.265 309.888, 317.547 311.839 C 320.641 313.249, 322.476 313.302, 324.764 312.048 C 325.719 311.525, 328.075 310.437, 330 309.629 C 331.925 308.822, 336.615 306.754, 340.422 305.034 C 359.038 296.621, 375.821 295.020, 391.905 300.123 C 404.391 304.085, 409.386 305.891, 416.500 309.013 C 417.600 309.496, 420.525 310.775, 423 311.857 C 425.475 312.938, 431.550 315.702, 436.500 318 C 441.450 320.298, 447.525 323.080, 450 324.184 C 484.980 339.780, 500.135 351.682, 518.525 378 C 527.169 390.371, 536 403.827, 536.007 404.637 C 536.010 405.112, 536.944 406.850, 538.083 408.500 C 540.019 411.307, 540.110 411.339, 539.497 409 C 536.262 396.646, 511.816 362.045, 497.724 349.875 C 483.034 337.189, 465.776 327.961, 417.500 306.978 C 416.400 306.500, 413.387 305.185, 410.805 304.055 C 408.223 302.925, 405.629 302, 405.041 302 C 404.454 302, 403.191 301.582, 402.236 301.072 C 398.723 299.195, 389.980 296.999, 380.127 295.519 C 368.481 293.770, 368.990 293.767, 358.649 295.639 M 488.930 309.869 C 489.524 310.980, 490.489 312.184, 491.073 312.545 C 493.112 313.805, 504.299 329.823, 506.057 334 C 509.351 341.828, 510.467 344, 511.192 344 C 511.637 344, 512 344.436, 512 344.969 C 512 346.016, 521.897 363.174, 522.977 364 C 526.664 366.820, 548.501 410.132, 553.479 424.500 C 554.432 427.250, 555.570 430.400, 556.008 431.500 C 556.446 432.600, 557.822 436.425, 559.065 440 C 560.309 443.575, 561.625 446.950, 561.991 447.500 C 562.356 448.050, 563.469 450.750, 564.463 453.500 C 565.456 456.250, 567.052 460.300, 568.009 462.500 C 568.965 464.700, 571.403 471, 573.426 476.500 C 575.449 482, 578.588 488.975, 580.401 492 C 584.676 499.130, 590 509.977, 590 511.555 C 590 512.819, 588.094 513.239, 574.961 514.865 C 561.149 516.574, 540.023 525.350, 535.950 531.071 C 532.837 535.443, 535.210 535.457, 543.721 531.117 C 558.164 523.753, 570.408 519.463, 574.659 520.275 C 576.317 520.592, 578.776 520.052, 580.929 518.898 C 586.266 516.037, 587.069 516.127, 613.564 522.534 C 616.899 523.340, 621.005 524, 622.689 524 C 630.621 524, 634.689 526.250, 629.011 527.497 C 623.166 528.781, 624.367 530.335, 630.758 529.756 C 636.407 529.243, 637.003 529.393, 639.445 531.942 C 643.057 535.713, 650.406 539.214, 653.744 538.755 C 656.447 538.383, 656.457 538.357, 654.253 537.417 L 652.006 536.458 654.063 532.622 C 656.611 527.868, 655.975 526.822, 653.041 530.942 C 650.190 534.946, 649.191 534.820, 642.842 529.652 C 635.736 523.869, 632.645 522.378, 623.880 520.509 C 598.121 515.017, 594.485 513.171, 588.997 502.796 C 587.165 499.333, 585.355 496.275, 584.974 496 C 584.593 495.725, 582.685 491.450, 580.733 486.500 C 578.782 481.550, 575.343 473.536, 573.092 468.691 C 570.842 463.846, 568.985 459.571, 568.966 459.191 C 568.947 458.811, 568.063 456.700, 567 454.500 C 565.937 452.300, 565.053 449.803, 565.034 448.950 C 565.015 448.098, 564.603 446.973, 564.119 446.450 C 563.634 445.928, 561.573 440.550, 559.539 434.500 C 557.504 428.450, 555.450 422.600, 554.974 421.500 C 554.499 420.400, 553.152 417.250, 551.982 414.500 C 548.283 405.803, 546.857 402.716, 542.512 394 C 535.238 379.408, 533.247 375.936, 523.025 360 C 517.557 351.475, 510.562 339.550, 507.481 333.500 C 501.768 322.283, 493.673 310.966, 489.929 308.962 C 488.037 307.949, 487.946 308.031, 488.930 309.869 M 347.500 312.136 C 344.200 312.678, 338.350 312.885, 334.500 312.596 C 330.650 312.307, 326.825 312.497, 326 313.020 C 324.837 313.756, 325.107 313.973, 327.203 313.985 C 328.690 313.993, 330.940 314.448, 332.203 314.996 C 333.466 315.544, 337.650 316.398, 341.500 316.894 C 347.561 317.674, 357.446 320.214, 375 325.500 C 377.475 326.245, 381.208 327.364, 383.295 327.987 C 385.382 328.609, 393.707 331.963, 401.795 335.439 C 416.980 341.965, 423.911 344.531, 449.500 353.098 C 470.671 360.185, 491.661 370.877, 499.821 378.728 C 500.548 379.428, 501.673 379.983, 502.321 379.962 C 506.858 379.815, 485.153 364.653, 471.500 358.432 C 462.417 354.293, 462.643 354.376, 445 348.604 C 426.331 342.496, 409.189 336.163, 401.027 332.358 C 390.246 327.331, 385.493 325.585, 373 322.061 C 368.875 320.898, 364.129 319.512, 362.453 318.982 C 360.777 318.451, 357.290 317.727, 354.703 317.373 C 343.300 315.810, 352.423 313.500, 370 313.500 C 384.928 313.500, 390.308 314.874, 406.500 322.820 C 412.550 325.790, 419.750 329.082, 422.500 330.137 C 425.250 331.192, 428.400 332.468, 429.500 332.973 C 430.600 333.478, 433.750 334.831, 436.500 335.980 C 439.250 337.130, 442.281 338.504, 443.236 339.035 C 444.191 339.566, 445.454 340, 446.041 340 C 446.629 340, 449.223 340.925, 451.805 342.055 C 454.387 343.185, 457.400 344.490, 458.500 344.956 C 474.694 351.813, 493.198 362.868, 502.433 371.203 C 507.445 375.727, 506.705 373.285, 501.440 367.926 C 493.339 359.682, 461.550 341, 455.623 341 C 454.950 341, 453.973 340.592, 453.450 340.093 C 452.928 339.594, 450.925 338.745, 449 338.206 C 443.964 336.796, 413.781 323.824, 404.974 319.284 C 390.356 311.749, 390.172 311.706, 371 311.416 C 361.375 311.270, 350.800 311.594, 347.500 312.136 M 253 313.730 C 253 315.537, 257.177 320.087, 261.123 322.578 C 264.119 324.469, 267.777 325.376, 277.249 326.576 C 288.375 327.986, 290.418 328.583, 299.500 333.075 C 309.106 337.828, 313.815 339.296, 327.992 341.959 C 333.324 342.960, 335.301 343.921, 339.063 347.339 C 341.582 349.628, 346.225 353.460, 349.382 355.856 C 355.638 360.604, 360.069 365.939, 367 377.064 C 373.465 387.442, 391.382 404.081, 401.981 409.548 L 409.993 413.682 405.747 414.962 C 403.411 415.667, 401.050 416.370, 400.500 416.526 C 399.950 416.683, 403.325 416.740, 408 416.655 C 417.212 416.487, 419.890 417.971, 412.794 419.311 C 410.432 419.758, 399.050 420.208, 387.500 420.311 C 364.589 420.517, 360.839 419.716, 354.840 413.330 C 353.550 411.956, 351.492 411, 349.826 411 C 346.581 411, 343 407.896, 343 405.083 C 343 401.461, 339.251 394.425, 336.010 391.964 C 328.341 386.139, 326.106 383.756, 325.455 380.708 C 325.078 378.944, 324.433 377.050, 324.022 376.500 C 322.951 375.067, 319 361.999, 319 359.891 C 319 358.916, 318.608 357.876, 318.129 357.580 C 317.650 357.284, 316.973 355.616, 316.625 353.874 C 315.394 347.718, 309.217 341.244, 300.338 336.804 C 294.921 334.094, 291.555 332.959, 290.336 333.431 C 288.574 334.114, 288.578 334.201, 290.441 335.571 C 291.509 336.357, 293 337, 293.755 337 C 294.510 337, 297.501 338.086, 300.402 339.412 C 308.153 342.958, 313.036 349.029, 315.861 358.634 C 322.262 380.391, 324.836 385.689, 331.583 390.991 C 337.178 395.387, 337.997 396.504, 339.445 401.700 C 342.140 411.368, 342.058 411.283, 355.086 417.881 C 364.646 422.722, 368.938 424.319, 374.435 425.083 C 385.552 426.628, 397.547 427.330, 400.437 426.605 C 405.579 425.315, 401.767 424, 392.882 424 C 386.981 424, 384.100 423.646, 384.516 422.973 C 384.916 422.327, 390.962 422.023, 400.825 422.152 C 417.533 422.370, 422 421.525, 422 418.147 C 422 415.661, 420.104 414.167, 415.905 413.345 C 414.032 412.979, 411.375 411.965, 410 411.092 C 404.639 407.689, 388.269 394.961, 383.956 390.840 C 379.058 386.163, 370.454 375.213, 371.138 374.529 C 371.367 374.299, 374.918 373.643, 379.028 373.070 C 383.137 372.497, 390.100 371.307, 394.500 370.425 C 408.729 367.573, 417.270 366.108, 429 364.507 C 435.325 363.644, 440.992 362.768, 441.593 362.561 C 443.357 361.952, 456.941 365.453, 464.201 368.389 C 501.508 383.473, 534.518 415.355, 557.396 458.399 C 560.874 464.943, 560.760 465.459, 555.250 468.090 C 550.446 470.384, 525.923 486.582, 519.521 491.691 C 515.125 495.198, 508.318 504.457, 503.487 513.500 C 498.726 522.412, 498.380 522.819, 495.254 523.191 C 492.338 523.538, 490.864 526, 493.572 526 C 495.140 526, 495.162 526.171, 493.788 527.750 C 491.379 530.519, 485.654 539.148, 483.522 543.223 L 481.574 546.946 484.474 549.973 C 487.809 553.454, 488.287 553.570, 490.433 551.424 C 491.755 550.102, 492.583 550.037, 495.572 551.024 C 497.531 551.670, 499.374 551.959, 499.667 551.666 C 500.694 550.640, 499.015 549.253, 496.021 548.654 C 494.359 548.322, 493 547.600, 493 547.050 C 493 546.413, 493.854 546.374, 495.348 546.942 C 497.164 547.633, 498.069 547.400, 499.339 545.918 C 500.242 544.863, 501.547 544.036, 502.240 544.079 C 503.241 544.142, 503.243 544.261, 502.250 544.662 C 498.598 546.136, 501.698 550.624, 506.725 551.141 C 510.453 551.525, 511.296 549.655, 507.604 549.191 C 505.001 548.863, 501.710 546, 503.937 546 C 504.586 546, 504.840 545.550, 504.500 545 C 504.160 544.450, 504.760 544, 505.834 544 C 506.908 544, 508.057 544.707, 508.389 545.570 C 509.306 547.962, 513.434 546.967, 513.818 544.261 C 514.106 542.234, 513.832 542.084, 510.913 542.667 C 508.602 543.130, 507.891 542.985, 508.404 542.156 C 508.797 541.520, 510.554 540.993, 512.309 540.985 C 514.064 540.976, 516.147 540.560, 516.938 540.060 C 517.914 539.442, 519.160 539.768, 520.822 541.075 C 524.556 544.012, 532 543.476, 532 540.271 C 532 539.150, 532.335 539.033, 533.284 539.821 C 533.991 540.407, 537.253 541.349, 540.534 541.913 C 555.819 544.543, 564.008 546.102, 570 547.525 C 609.583 556.924, 618 557.812, 655.500 556.548 C 679.132 555.752, 688.441 556.338, 704 559.599 C 720.181 562.991, 749.189 562.071, 754.500 557.998 C 755.050 557.576, 757.075 556.926, 759 556.553 C 763.870 555.610, 768 553.923, 768 552.879 C 768 551.674, 764.940 551.776, 761.119 553.108 C 758.456 554.037, 756.605 553.798, 749.720 551.639 C 745.199 550.222, 740.600 548.875, 739.500 548.647 C 738.400 548.419, 739.975 548.179, 743 548.113 C 749.162 547.980, 766.264 546.030, 766.933 545.385 C 768.683 543.697, 764.549 543.073, 757.928 544.026 C 747.764 545.488, 726.695 545.252, 720 543.601 C 713.622 542.027, 714.172 541.706, 727 539.515 C 732.225 538.623, 738.938 537.467, 741.917 536.946 C 744.896 536.426, 751.984 536, 757.667 536 C 768.173 536, 771.468 534.715, 763.750 533.628 C 758.739 532.923, 741.020 534.363, 729 536.454 C 720.342 537.959, 703.696 540.201, 687.500 542.042 C 682.550 542.604, 677.150 543.492, 675.500 544.013 C 673.850 544.535, 669.049 546.096, 664.832 547.481 C 655.507 550.544, 655.827 550.539, 656.557 547.628 C 657.050 545.664, 656.690 545.139, 654.470 544.582 C 651.552 543.849, 647 546.112, 647 548.296 C 647 548.983, 645.349 550.435, 643.332 551.523 C 636.356 555.283, 618.510 554.275, 592 548.624 C 566.124 543.109, 557.497 541.510, 543.500 539.636 C 535.076 538.507, 534.411 538.246, 533.115 535.547 C 532.094 533.423, 532.013 532.209, 532.806 530.939 C 535.138 527.206, 530.366 526.979, 522.516 530.450 C 519.469 531.798, 516.708 533.598, 516.381 534.450 C 516.054 535.303, 515.019 536, 514.082 536 C 513.144 536, 511.411 536.900, 510.230 538 C 509.050 539.100, 506.966 540, 505.601 540 C 504.235 540, 502.871 540.399, 502.570 540.887 C 502.269 541.374, 500.475 542.064, 498.584 542.418 C 496.693 542.773, 495 543.387, 494.823 543.782 C 494.334 544.868, 488.220 549, 487.100 549 C 485.245 549, 485.013 547.204, 486.499 544.354 C 487.318 542.784, 487.997 541.050, 488.008 540.500 C 488.020 539.950, 491.285 535.604, 495.264 530.842 C 499.244 526.080, 505.875 516.893, 510 510.426 L 517.500 498.668 532.794 487.298 C 547.120 476.647, 555.728 471.173, 560.563 469.639 C 562.300 469.088, 562.960 469.766, 564.810 474.003 C 566.014 476.762, 567 479.704, 567 480.541 C 567 482.125, 569.659 483.674, 570.660 482.674 C 571.497 481.836, 566.421 466.659, 562.580 458.516 C 543.310 417.663, 512.938 385.748, 476.360 367.918 C 469.684 364.663, 463.586 362, 462.810 362 C 462.035 362, 460.972 361.605, 460.450 361.123 C 459.386 360.141, 443.453 355.137, 432 352.187 C 415.315 347.889, 401.419 346.459, 366.500 345.444 C 346.562 344.864, 343.234 344.540, 341.500 343.013 C 337.665 339.633, 336.690 339.329, 318.500 335.849 C 311.880 334.583, 305.568 332.214, 299.706 328.795 C 297.069 327.258, 294.572 326, 294.156 326 C 293.740 326, 292.954 325.554, 292.409 325.009 C 291.863 324.463, 286.007 323.862, 279.395 323.672 C 266.346 323.298, 259.418 320.889, 254.908 315.156 C 253.859 313.822, 253 313.180, 253 313.730 M 721 347.036 C 708.578 348.203, 701 349.735, 701 351.079 C 701 351.586, 703.138 352.011, 705.750 352.024 C 710.089 352.046, 713.599 352.679, 719.750 354.549 C 720.987 354.925, 722 354.829, 722 354.335 C 722 353.841, 719.862 352.784, 717.250 351.987 C 713.456 350.830, 713.003 350.481, 715 350.256 C 723.528 349.292, 725.931 348.766, 727.615 347.491 C 728.652 346.706, 729.275 346.124, 729 346.197 C 728.725 346.271, 725.125 346.648, 721 347.036 M 349.500 350.114 C 350.600 350.768, 353.539 353.186, 356.031 355.487 C 360.395 359.516, 360.895 359.705, 369.531 360.571 C 382.581 361.880, 409.170 361.662, 419 360.166 C 423.675 359.454, 428.962 358.655, 430.750 358.390 C 446.069 356.123, 408.390 350.389, 372.500 349.526 C 352.949 349.056, 347.936 349.184, 349.500 350.114 M 598.097 371.263 C 589.834 371.914, 587.056 372.537, 584.597 374.291 L 581.500 376.500 586 377.165 C 588.475 377.531, 602.983 377.571, 618.240 377.254 C 643.963 376.721, 646.108 376.538, 647.727 374.749 C 650.951 371.186, 647.876 370.406, 633.906 371.244 C 615.667 372.337, 615.794 372.336, 612 371.351 C 609.983 370.828, 604.092 370.790, 598.097 371.263 M 596.750 373.229 C 591.388 373.787, 587 374.670, 587 375.190 C 587 376.084, 644.945 375.296, 645.917 374.389 C 647.481 372.929, 639.058 372.557, 618.500 373.178 C 615.750 373.261, 611.925 373.078, 610 372.771 C 608.075 372.465, 602.112 372.671, 596.750 373.229 M 632.093 394.574 C 627.315 397.204, 613.875 398.074, 610.007 396.004 C 607.829 394.838, 605 395.666, 605 397.468 C 605 398.879, 612.151 399.978, 621.419 399.991 C 626.127 399.998, 628.401 399.400, 632.529 397.071 C 637.339 394.356, 637.921 394.246, 640.474 395.571 C 643.611 397.198, 652 397.511, 652 396 C 652 395.450, 650.480 395, 648.622 395 C 646.764 395, 643.629 394.325, 641.654 393.500 C 637.227 391.650, 637.452 391.625, 632.093 394.574 M 223 396.961 C 223 400.700, 227.247 411.448, 230.722 416.500 C 232.613 419.250, 237.837 426.893, 242.330 433.484 C 248.733 442.877, 251.906 446.519, 257 450.325 C 265.431 456.624, 281.123 466, 283.235 466 C 285.422 466, 286.505 464.105, 285.113 462.713 C 284.296 461.896, 284 461.919, 284 462.800 C 284 463.460, 283.546 464, 282.992 464 C 282.380 464, 282.455 463.244, 283.183 462.078 C 284.181 460.481, 283.699 458.246, 280.330 448.828 C 278.101 442.598, 275.286 434.459, 274.075 430.743 C 272.865 427.026, 271.230 422.751, 270.443 421.243 C 269.656 419.734, 269.010 417.588, 269.006 416.473 C 268.996 413.136, 266.163 410, 263.159 410 C 260.176 410, 253.278 407.752, 239.667 402.343 C 234.809 400.412, 230.674 398.993, 230.479 399.188 C 229.803 399.864, 233.362 409.516, 235.632 413.160 C 236.886 415.174, 240.152 419.224, 242.890 422.160 C 245.628 425.097, 249.281 430.217, 251.008 433.537 C 253.562 438.450, 255.621 440.663, 262.073 445.430 C 266.433 448.651, 270 451.699, 270 452.202 C 270 453.257, 269.472 452.976, 261.926 447.908 C 255.484 443.582, 250.340 438.059, 248.378 433.362 C 247.623 431.556, 243.855 426.575, 240.003 422.292 C 232.950 414.451, 228.248 406.305, 227.261 400.218 C 226.635 396.363, 223 393.584, 223 396.961 M 93.073 404.635 C 88.036 411.038, 95.167 417.997, 102.918 414.243 C 108.212 411.679, 108.214 406.753, 102.922 403.750 C 98.566 401.278, 95.496 401.554, 93.073 404.635 M 94.655 405.829 C 92.534 408.172, 92.570 409.300, 94.829 411.345 C 98.846 414.980, 106.453 411.583, 104.107 407.201 C 102.192 403.622, 97.295 402.911, 94.655 405.829 M 733.531 419.950 C 733.208 420.472, 730.819 420.655, 728.222 420.357 C 720.756 419.501, 715.018 422.486, 710.901 429.369 C 708.293 433.728, 706.844 435.105, 704.047 435.881 L 700.500 436.865 704.860 436.682 C 708.823 436.517, 709.416 436.144, 711.360 432.600 C 715.482 425.087, 720.594 421.722, 727.336 422.082 C 729.626 422.204, 733.320 421.742, 735.544 421.055 C 740.872 419.411, 744.274 419.984, 745.479 422.731 C 746.017 423.958, 746.949 425.150, 747.548 425.380 C 749.662 426.191, 762.136 424.736, 761.189 423.789 C 760.619 423.219, 758.188 423.245, 754.881 423.855 C 749.687 424.815, 749.394 424.748, 746.452 421.925 C 743.327 418.925, 734.955 417.646, 733.531 419.950 M 693.893 439.091 C 691.909 440.167, 688.334 442.797, 685.948 444.935 C 682.050 448.428, 681.754 448.999, 683.041 450.549 C 684.337 452.111, 686.065 452.208, 701.263 451.576 C 710.497 451.192, 719.279 450.488, 720.776 450.013 C 722.274 449.537, 725.525 448.869, 728 448.527 C 732.607 447.892, 736.890 445.557, 735.675 444.342 C 735.302 443.969, 733.985 444.192, 732.748 444.838 C 726.886 447.901, 686.686 452.019, 684.452 449.786 C 683.742 449.076, 689.991 443.138, 692.179 442.443 C 693.181 442.125, 694 441.446, 694 440.933 C 694 440.420, 694.589 440, 695.309 440 C 696.029 440, 697.491 439.339, 698.559 438.532 C 701.483 436.320, 698.296 436.702, 693.893 439.091 M 477.046 460.445 C 476.386 461.240, 475.994 462.927, 476.173 464.195 C 476.793 468.568, 488 467.661, 488 463.238 C 488 459.565, 479.561 457.414, 477.046 460.445 M 493.217 493.250 C 492.165 494.531, 491.672 496.553, 491.882 498.727 C 491.947 499.402, 493.125 500.691, 494.500 501.592 C 497.443 503.520, 502 501.459, 502 498.199 C 502 493.517, 495.848 490.050, 493.217 493.250 M 456.200 517.200 C 455.540 517.860, 455 519.660, 455 521.200 C 455 523.891, 454.806 524, 450.035 524 C 446.113 524, 444.848 523.585, 444.012 522.023 C 441.372 517.090, 434.949 517.184, 432.790 522.187 C 431.520 525.130, 431.411 525.167, 425.803 524.545 C 415.082 523.355, 404.528 523.834, 396.787 525.862 C 389.760 527.702, 387.007 527.804, 358.601 527.267 C 334.731 526.817, 327.741 526.393, 326.871 525.345 C 325.244 523.384, 323 523.701, 323 525.892 C 323 527.028, 323.912 528.012, 325.284 528.356 C 326.726 528.718, 328.386 530.614, 329.790 533.504 L 332.012 538.078 350.256 537.998 C 360.290 537.954, 368.950 537.941, 369.500 537.969 C 370.050 537.997, 368.250 539.077, 365.500 540.369 C 362.750 541.661, 357.721 545.212, 354.324 548.260 C 350.626 551.577, 346.011 554.596, 342.824 555.783 C 336.200 558.248, 320.816 560.355, 316.630 559.369 C 314.909 558.964, 313.050 558.584, 312.500 558.525 C 309.903 558.246, 303.024 555.847, 302.530 555.049 C 302.226 554.556, 299.796 553.429, 297.132 552.544 C 294.467 551.659, 291.244 549.824, 289.969 548.467 C 288.694 547.110, 286.885 546, 285.948 546 C 285.011 546, 283.685 545.325, 283 544.500 C 282.315 543.675, 281.229 543, 280.587 543 C 279.610 543, 263.002 531.408, 262.999 530.724 C 262.999 530.601, 270.086 530.500, 278.749 530.500 C 287.412 530.500, 297.538 530.110, 301.250 529.634 C 307.477 528.834, 308.002 528.912, 308.030 530.634 C 308.059 532.380, 308.126 532.388, 309.080 530.750 C 309.641 529.788, 311.202 529, 312.550 529 C 313.897 529, 315 528.550, 315 528 C 315 527.436, 312.167 527, 308.500 527 C 304.833 527, 302 526.564, 302 526 C 302 525.450, 301.325 525, 300.500 525 C 299.675 525, 299 525.450, 299 526 C 299 526.550, 298.044 527, 296.875 527 C 295.043 527, 294.834 526.582, 295.355 523.976 C 295.910 521.202, 295.795 521.039, 293.980 522.011 C 292.891 522.594, 292 523.955, 292 525.035 C 292 526.900, 291.244 527, 277.115 527 C 267.374 527, 261.240 526.567, 259.365 525.746 C 256.245 524.381, 250.805 520.961, 249.990 519.852 C 249.709 519.471, 248.247 518.849, 246.740 518.471 C 243.359 517.622, 242.976 519.609, 246.250 521.017 C 250.037 522.644, 261.243 530.886, 266.030 535.564 C 270.868 540.292, 281.022 547.118, 290 551.679 C 293.025 553.216, 295.725 554.760, 296 555.110 C 296.275 555.461, 299.519 557.155, 303.208 558.874 C 309.304 561.714, 310.823 562, 319.836 562 C 337.687 562, 347.735 558.738, 357.944 549.629 C 363.571 544.608, 380.389 536, 384.572 536 C 386.911 536, 386.191 534.086, 383.608 533.438 C 382.211 533.087, 379.856 533.540, 377.949 534.527 C 375.169 535.964, 371.688 536.194, 354.591 536.070 L 334.500 535.924 331.551 532.994 C 329.929 531.383, 328.853 529.814, 329.159 529.507 C 330.574 528.092, 380.508 530.687, 383.700 532.342 C 385.461 533.254, 387.711 533.968, 388.700 533.930 C 390.296 533.867, 390.274 533.762, 388.500 533 C 386.731 532.240, 386.819 532.132, 389.264 532.070 C 390.784 532.032, 392.809 531.590, 393.764 531.089 C 399.966 527.834, 405.985 526.507, 414 526.630 C 423.335 526.773, 432.980 527.585, 437.250 528.588 C 439.382 529.088, 440 528.870, 440 527.617 C 440 526.683, 439.180 526, 438.059 526 C 435.285 526, 434.481 524.087, 436.442 522.154 C 438.006 520.613, 438.314 520.715, 440.956 523.650 C 444.083 527.121, 447.478 528.653, 448.475 527.041 C 448.829 526.468, 450.104 526.036, 451.309 526.079 C 452.514 526.122, 452.938 526.385, 452.250 526.662 C 450.532 527.355, 450.673 529, 452.450 529 C 453.248 529, 454.345 528.212, 454.888 527.250 C 455.679 525.848, 456.127 525.749, 457.138 526.750 C 458.884 528.479, 462 528.319, 462 526.500 C 462 525.675, 461.148 525, 460.107 525 C 457.343 525, 456.829 522.487, 459.023 519.698 C 461.598 516.424, 459.146 514.254, 456.200 517.200 M 225.250 518.662 C 224.563 518.940, 224 519.804, 224 520.583 C 224 522.319, 224.471 522.347, 227.002 520.767 C 229.033 519.499, 236 522.124, 236 524.157 C 236 525.279, 234.264 525.237, 233.561 524.098 C 232.547 522.459, 227.044 520.952, 227.628 522.474 C 227.909 523.205, 229.007 524.030, 230.069 524.308 C 233.264 525.143, 232.252 526.704, 228.084 527.371 C 225.930 527.715, 223.980 528.559, 223.751 529.246 C 223.494 530.017, 222.875 529.635, 222.132 528.247 C 220.798 525.755, 218.390 525.410, 214.547 527.161 C 212.157 528.250, 211.573 529.463, 211.764 532.947 C 211.808 533.743, 211.092 534.944, 210.173 535.615 C 207.496 537.573, 209.525 538.297, 212.857 536.574 C 214.531 535.708, 216.711 534.992, 217.700 534.983 C 218.690 534.973, 220.560 533.848, 221.855 532.483 C 223.150 531.117, 224.703 530, 225.305 530 C 228.236 530, 238 526.407, 238 525.329 C 238 521.409, 229.481 516.955, 225.250 518.662 M 125.004 523.597 L 125 526.694 104.750 527.348 C 93.612 527.708, 67.625 528.034, 47 528.073 C 8.747 528.145, 2.500 528.547, 2.500 530.938 C 2.500 532.250, 86.011 532.679, 102.376 531.451 C 105.452 531.220, 108.178 531.479, 108.521 532.035 C 108.861 532.583, 109.564 532.770, 110.084 532.448 C 112.311 531.072, 118.851 531.169, 119.395 532.586 C 119.807 533.661, 119.378 533.882, 117.700 533.461 C 116.010 533.037, 114.924 533.612, 113.319 535.782 L 111.186 538.667 113.191 541.833 C 114.294 543.575, 115.940 544.964, 116.848 544.921 C 117.757 544.878, 117.982 544.630, 117.349 544.371 C 116.576 544.054, 117.016 542.434, 118.684 539.450 C 121.042 535.231, 121.400 535, 125.585 535 C 128.013 535, 130 534.550, 130 534 C 130 532.913, 128.926 532.696, 124.849 532.959 C 123.391 533.053, 121.884 532.621, 121.499 531.998 C 120.422 530.256, 121.768 529.562, 123.476 530.980 C 124.735 532.025, 125 531.963, 125 530.622 C 125 528.236, 129.678 528.530, 131 531 C 132.187 533.218, 135.588 533.702, 136.271 531.750 C 136.585 530.852, 137.313 531.037, 138.860 532.411 C 141.447 534.707, 142.632 533.984, 140.879 531.179 C 139.092 528.317, 141.539 524.987, 143.479 527.640 C 144.404 528.906, 144.879 529.005, 145.466 528.056 C 145.909 527.339, 145.555 526.126, 144.633 525.205 C 143.162 523.734, 142.802 523.762, 140.265 525.551 C 135.852 528.662, 129.438 527.765, 126.953 523.690 L 125.007 520.500 125.004 523.597 M 159.076 527.250 C 158.432 528.281, 158.188 530.019, 158.535 531.111 C 158.882 532.203, 158.697 533.661, 158.124 534.351 C 156.952 535.763, 160.154 542, 162.051 542 C 164.276 542, 167 539.867, 167 538.125 C 167 535.825, 171.509 533.674, 173.807 534.877 C 176.307 536.186, 179.683 534.514, 181.454 531.090 C 183.315 527.489, 181.504 525.799, 176.756 526.706 C 175.259 526.993, 173.238 526.882, 172.267 526.461 C 168.416 524.792, 160.308 525.277, 159.076 527.250 M 72.141 535.547 C 66.993 536.246, 62.291 537.309, 61.691 537.909 C 60.312 539.288, 62.429 539.294, 75 537.947 C 84.985 536.877, 97.546 536.456, 99.875 537.112 C 100.631 537.326, 101.434 537.003, 101.660 536.396 C 102.563 533.961, 87.093 533.516, 72.141 535.547 M 227.058 535.591 C 221.286 537.401, 219.081 539.499, 224 538.500 C 225.925 538.109, 227.928 537.387, 228.450 536.895 C 228.972 536.403, 232.123 536, 235.450 536.001 C 246.430 536.001, 260.227 542.710, 275.329 555.392 C 284.656 563.223, 275.233 559.634, 260.805 549.858 C 257.673 547.736, 254.667 546, 254.126 546 C 253.585 546, 252.548 545.436, 251.821 544.747 C 251.095 544.058, 247.874 542.424, 244.664 541.116 C 234.582 537.007, 226.424 538.916, 217.319 547.518 C 211.242 553.258, 211.404 553.539, 225.867 562.292 L 237.090 569.085 242.795 567.932 C 257.447 564.973, 265.379 563.882, 276.178 563.342 L 287.855 562.759 296.178 566.750 C 309.805 573.286, 311.121 573.815, 320.332 576.453 C 332.606 579.968, 339.680 580.970, 353 581.078 C 366.341 581.187, 365.210 581.929, 347 585.012 C 328.903 588.075, 314.032 586.904, 301.226 581.407 C 282.532 573.383, 260.963 573.262, 228.500 581.002 C 226.300 581.526, 217.206 582.488, 208.290 583.138 C 199.375 583.789, 192.274 584.634, 192.511 585.017 C 192.890 585.630, 203.777 586.554, 221 587.434 C 224.025 587.589, 228.300 588.219, 230.500 588.834 C 235.246 590.161, 239.804 590.353, 238.450 589.169 C 237.214 588.089, 225.831 585.046, 222.265 584.843 C 220.744 584.756, 222.425 584.388, 226 584.025 C 232.176 583.398, 244.479 581.170, 253.764 578.998 C 256.110 578.449, 263.416 578, 270 578 C 281.153 578, 282.672 578.245, 292.236 581.579 C 315.831 589.807, 314.393 589.504, 329.500 589.438 C 353.091 589.336, 367.499 585.310, 397.500 570.437 C 407.950 565.256, 417.888 560.747, 419.584 560.417 C 422.374 559.874, 437.589 562.138, 441.668 563.703 C 442.764 564.124, 443.088 563.952, 442.623 563.198 C 441.111 560.752, 432.306 557.815, 424.883 557.281 C 416.529 556.679, 418.867 555.873, 394 567.933 C 367.621 580.726, 343.345 581.486, 312 570.499 C 302.107 567.031, 280.768 556.342, 276.391 552.661 C 258.710 537.792, 240.324 531.430, 227.058 535.591 M 105.291 540.906 C 104.636 541.954, 102.391 543.368, 100.300 544.047 C 98.210 544.727, 96.140 545.894, 95.700 546.641 C 94.621 548.475, 88.493 548.365, 79.697 546.355 C 67.971 543.675, -0.420 545.434, 3.067 548.326 C 3.305 548.524, 19.025 548.390, 38 548.030 C 56.975 547.669, 74.975 547.631, 78 547.945 L 83.500 548.516 74.500 549.878 C 69.550 550.627, 60.100 552.368, 53.500 553.746 C 36.328 557.333, 32.089 557.821, 17.309 557.916 C 10.054 557.962, 3.875 558.393, 3.579 558.873 C 1.920 561.556, 33.970 561.193, 45.422 558.398 C 60.987 554.600, 81.012 551.678, 92.500 551.529 C 99.100 551.443, 102.250 551.541, 99.500 551.746 C 90.504 552.419, 92.684 553.666, 105.205 555.011 C 123.065 556.928, 124.634 558.056, 108.500 557.379 C 100.800 557.056, 93.953 556.346, 93.284 555.801 C 91.832 554.620, 84.462 555.222, 73.500 557.417 C 60.053 560.110, 45.811 561.956, 39.500 561.825 C 26.164 561.546, 3 566.291, 3 569.301 C 3 570.712, 3.459 571.038, 4.750 570.542 C 5.713 570.172, 9.587 569.219, 13.361 568.425 C 17.135 567.631, 20.735 566.664, 21.361 566.276 C 23.728 564.810, 106.200 562.513, 104 563.974 C 103.175 564.521, 98.675 564.980, 94 564.993 C 81.492 565.028, 63.900 566.771, 59.155 568.445 C 56.662 569.325, 47.530 570.322, 36.254 570.946 C 10.965 572.346, 4.104 573.023, 3.383 574.189 C 2.082 576.294, 4.704 576.954, 10.537 575.989 C 13.817 575.447, 25.275 574.604, 36 574.116 C 50.549 573.454, 57.277 572.713, 62.500 571.197 C 76.873 567.027, 111.744 566.222, 118.866 569.897 C 119.765 570.361, 125.450 572.419, 131.500 574.471 C 157.733 583.367, 161.176 584.951, 157.418 586.393 C 153.734 587.807, 148.557 586.731, 138.348 582.430 C 124.729 576.692, 121.013 575.102, 118.500 573.939 C 112.982 571.386, 106.759 569.848, 99.750 569.304 C 90.613 568.596, 89.637 569.405, 97.750 570.961 C 108.523 573.028, 115.340 575.197, 123.328 579.101 C 127.716 581.245, 131.801 583.003, 132.404 583.006 C 133.007 583.010, 134.757 583.668, 136.292 584.469 C 137.828 585.270, 140.753 586.250, 142.792 586.646 L 146.500 587.367 143.111 588.086 C 141.248 588.481, 135.398 589.101, 130.111 589.463 C 120.148 590.147, 120.378 590.185, 99 584.337 C 80.561 579.293, 75.361 578.702, 48.500 578.600 C 30.752 578.532, 20.120 578.925, 15 579.840 C 1.178 582.310, -1.684 584.906, 11.627 582.900 C 33.189 579.649, 74.111 580.973, 91.500 585.483 C 107.517 589.637, 119.723 593.742, 120.685 595.300 C 121.032 595.861, 120.813 596.003, 120.192 595.619 C 119.578 595.239, 108.821 594.267, 96.288 593.458 C 83.754 592.650, 67.425 591.279, 60 590.411 C 42.720 588.393, 5.206 587.394, 3.689 588.911 C 2.904 589.696, 6.220 590, 15.580 590 C 22.720 590, 36.422 590.909, 46.030 592.020 C 65.430 594.262, 77.544 595.334, 102 596.971 C 111.075 597.579, 123.225 598.592, 129 599.224 C 134.775 599.856, 149.400 600.438, 161.500 600.518 C 185.689 600.677, 188.843 601.278, 205.250 608.858 C 212.372 612.149, 213.821 614.007, 209.250 613.989 C 207.738 613.983, 201.456 614.969, 195.290 616.181 L 184.081 618.384 172.290 614.654 C 153.431 608.687, 151.727 608.278, 134 605.459 C 128.775 604.628, 123.825 603.747, 123 603.502 C 117.042 601.727, 76.677 599.975, 67.264 601.083 C 57.211 602.266, 49.924 602.062, 33 600.121 C 20.347 598.670, 4.056 598.321, 3.996 599.500 C 3.969 600.050, 8.570 601.011, 14.223 601.635 C 44.981 605.033, 53.784 606.136, 56.500 606.932 C 58.150 607.415, 64.900 608.321, 71.500 608.946 C 78.100 609.570, 88 610.504, 93.500 611.021 C 125.067 613.987, 150.468 619.536, 166.500 626.968 C 167.600 627.478, 174.575 630.448, 182 633.567 C 189.425 636.687, 199.325 641.035, 204 643.229 C 236.443 658.456, 242.879 660.517, 270.500 664.522 C 295.751 668.184, 301.976 670.065, 330 682.507 C 360.711 696.141, 371.094 699.165, 394.860 701.397 C 415.556 703.340, 441.210 700.914, 459.500 695.283 C 473.466 690.983, 494.184 683.955, 499.511 681.709 C 506.214 678.884, 525.521 672.352, 537 669.025 C 541.125 667.829, 545.625 666.457, 547 665.975 C 548.375 665.493, 555.575 663.470, 563 661.480 C 592.359 653.611, 603.188 648.911, 625 634.569 C 659.020 612.202, 670.310 607.158, 698 601.956 C 715.844 598.603, 718.199 597.568, 740 583.502 C 746.325 579.421, 754.724 574.468, 758.664 572.496 C 769.567 567.041, 771.794 562.942, 761.786 566.750 C 746.970 572.388, 724.540 576.995, 712 576.975 C 704.987 576.963, 691.429 574.993, 681 572.468 C 677.425 571.603, 672.700 570.494, 670.500 570.004 C 668.300 569.515, 662.225 568.017, 657 566.675 C 649.943 564.863, 643.515 564.071, 632 563.595 C 615.182 562.898, 611.581 562.369, 590.500 557.492 C 582.800 555.710, 573.800 553.633, 570.500 552.876 C 562.697 551.086, 540.332 551.025, 537.250 552.785 C 533.303 555.040, 534.609 556.127, 540.250 555.284 C 551.111 553.662, 564.802 554.965, 583.500 559.400 C 593.650 561.808, 603.265 563.990, 608.500 565.072 C 611.250 565.641, 621.825 566.506, 632 566.996 C 646.803 567.708, 652.498 568.414, 660.500 570.532 C 687.065 577.562, 695.862 579.195, 710 579.721 C 722.051 580.170, 725.959 579.742, 738.721 576.578 C 741.593 575.866, 743.739 575.613, 743.490 576.015 C 742.410 577.763, 729.186 584.919, 726 585.480 C 720.356 586.473, 684.662 584.237, 678.268 582.490 C 661.838 577.999, 653.825 575.509, 650.868 573.977 C 644.273 570.558, 630.180 570.649, 621.900 574.165 L 617.299 576.118 609.900 573.495 C 574 560.771, 543.421 556.181, 512.949 558.940 C 498.932 560.210, 497.601 560.445, 484.500 563.961 C 479.721 565.243, 472.071 566.309, 465.500 566.609 C 455.472 567.065, 445.660 568.767, 440.500 570.944 C 439.400 571.409, 436.250 572.572, 433.500 573.529 C 429.061 575.074, 423.607 577.280, 417.500 580 C 405.064 585.539, 394.414 589.371, 377.500 594.392 C 364.736 598.181, 346.680 600.240, 331.500 599.637 C 324.350 599.353, 315.306 599.115, 311.401 599.109 C 307.107 599.102, 300.193 598.065, 293.901 596.486 C 281.226 593.304, 268.581 592.935, 258.534 595.455 C 251.372 597.251, 246.842 596.952, 243.559 594.468 C 241.810 593.146, 241.791 593, 243.364 593 C 244.324 593, 247.100 592.093, 249.533 590.985 C 266.773 583.131, 278.419 584.090, 309 595.879 C 315.168 598.256, 316 598.398, 316 597.073 C 316 595.744, 307.227 591.806, 294.500 587.424 C 284.408 583.948, 282.592 583.633, 272.500 583.609 C 262.030 583.584, 251.777 585.802, 247.500 589.017 C 243.525 592.006, 230.515 591.862, 224.230 588.761 C 222.531 587.922, 221.663 587.937, 220.780 588.820 C 219.873 589.727, 220.063 590, 221.600 590 C 222.700 590, 224.027 590.392, 224.550 590.871 C 225.580 591.816, 232.981 594.055, 242.500 596.301 L 248.500 597.717 243.952 599.736 C 241.450 600.847, 237.400 602.091, 234.952 602.500 C 230.958 603.167, 224.318 606.651, 225.254 607.588 C 225.458 607.791, 228.071 607.297, 231.062 606.489 C 234.053 605.681, 241.225 603.870, 247 602.465 C 252.775 601.059, 260.200 599.214, 263.500 598.364 C 270.590 596.539, 283.258 597.039, 292.500 599.510 C 327.828 608.956, 373.784 603.688, 414.500 585.527 C 417.800 584.055, 421.850 582.257, 423.500 581.531 C 433.457 577.153, 449.540 572, 453.245 572.002 L 457.500 572.004 448.500 576.616 C 443.550 579.153, 439.050 581.578, 438.500 582.004 C 437.090 583.098, 418.499 592.353, 412.500 594.947 C 409.750 596.136, 406.600 597.525, 405.500 598.034 C 400.646 600.279, 397.373 601.339, 381.500 605.809 C 369.444 609.204, 355.254 610.984, 332.928 611.903 C 309.810 612.855, 305.279 612.463, 293.500 608.488 C 277.881 603.217, 262.721 602.141, 249.500 605.364 C 226.530 610.963, 220.560 611.421, 212.500 608.198 C 200.953 603.582, 187.631 598.999, 185.575 598.937 C 183.722 598.880, 183.767 598.762, 186 597.834 C 188.968 596.600, 209.540 597.456, 215.500 599.062 C 222.989 601.079, 224 601.233, 224 600.361 C 224 599.081, 219.439 597.289, 211.500 595.450 C 203.843 593.675, 193.546 593.865, 181.500 596.002 C 172.326 597.630, 134.669 596.754, 127.500 594.746 L 122.500 593.346 132 592.635 C 142.226 591.869, 148.844 590.902, 164.500 587.887 C 170 586.827, 176.975 585.483, 180 584.900 C 183.025 584.316, 189.100 583.023, 193.500 582.025 C 197.900 581.028, 205.637 579.631, 210.694 578.920 C 221.574 577.392, 221.901 576, 211.382 576 L 203.882 576 196.191 570.111 C 191.961 566.872, 187.178 562.822, 185.563 561.111 C 182.875 558.263, 179 556.891, 179 558.787 C 179 559.219, 181.700 562.203, 185 565.418 C 188.300 568.632, 191 570.785, 191 570.203 C 191 568.914, 188.201 566, 186.964 566 C 186.472 566, 185.549 564.987, 184.912 563.750 L 183.753 561.500 185.837 563.500 C 186.984 564.600, 189.017 566.373, 190.357 567.440 C 191.783 568.576, 192.556 569.994, 192.222 570.863 C 191.807 571.946, 192.120 572.168, 193.378 571.685 C 194.514 571.249, 194.868 571.405, 194.413 572.141 C 194.012 572.790, 194.255 573.082, 194.993 572.836 C 195.692 572.603, 197.560 573.549, 199.144 574.939 L 202.024 577.467 195.762 578.612 C 192.318 579.242, 185.916 580.498, 181.535 581.403 C 171.956 583.382, 171.829 583.344, 169.066 577.636 C 166.212 571.740, 163.091 567.826, 161.855 568.590 C 161.251 568.963, 161.417 569.838, 162.283 570.849 C 164.928 573.940, 165.172 575.512, 162.566 572.678 C 161.139 571.125, 160.229 569.438, 160.545 568.928 C 160.860 568.417, 160.416 568, 159.559 568 C 158.702 568, 158 568.550, 158 569.223 C 158 569.895, 157.239 569.332, 156.308 567.973 C 155.377 566.613, 154.153 565.187, 153.587 564.804 C 151.450 563.359, 151.802 565.103, 154.459 569.118 C 156.569 572.306, 157.421 572.952, 158.109 571.888 C 158.756 570.887, 158.936 571.166, 158.753 572.890 C 158.612 574.218, 159.117 575.497, 159.889 575.769 C 160.843 576.106, 161.028 575.827, 160.479 574.880 C 160.014 574.078, 160.055 573.844, 160.577 574.321 C 161.071 574.772, 161.480 575.875, 161.487 576.773 C 161.494 577.670, 162.582 578.661, 163.904 578.975 C 166.173 579.513, 168.151 584, 166.120 584 C 164.386 584, 156.004 578.802, 156.484 578.025 C 156.756 577.586, 156.230 576.613, 155.316 575.863 C 153.844 574.656, 153.717 574.747, 154.209 576.657 C 154.722 578.649, 154.543 578.737, 151.882 577.809 C 149.169 576.863, 148.999 576.474, 148.978 571.152 C 148.953 564.828, 146.153 557.496, 142.889 555.210 C 141.425 554.185, 141.008 553.106, 141.427 551.433 C 141.990 549.194, 138.975 545, 136.803 545 C 135.865 545, 137.992 549.126, 139.500 550.235 C 140.094 550.671, 139.917 550.976, 139.063 550.985 C 138.075 550.995, 138.418 551.859, 140.163 553.750 C 143.636 557.514, 146 564.069, 146 569.937 C 146 572.918, 146.489 575.031, 147.250 575.338 C 150.313 576.574, 144.676 575.863, 141.270 574.584 C 135.686 572.487, 123.861 569, 122.332 569 C 120.399 569, 120.698 567.052, 122.750 566.273 C 123.713 565.908, 125.850 564.330, 127.500 562.766 C 130.417 560.002, 130.446 559.883, 128.559 558.462 C 127.491 557.658, 125.894 557, 125.009 557 C 124.124 557, 122.883 556.483, 122.251 555.851 C 121.619 555.219, 119.428 554.430, 117.383 554.097 C 115.338 553.765, 113.455 552.865, 113.199 552.097 C 112.829 550.988, 113.575 550.836, 116.838 551.358 C 120.145 551.887, 120.837 551.739, 120.399 550.597 C 119.543 548.366, 114.789 547.568, 113.429 549.428 C 112.196 551.115, 109.283 551.467, 107.248 550.174 C 106.351 549.605, 106.874 548.730, 109.096 547.087 C 111.346 545.423, 111.895 544.495, 111.098 543.698 C 110.494 543.094, 110 541.790, 110 540.800 C 110 538.400, 106.811 538.472, 105.291 540.906 M 381 544.275 C 377.683 545.313, 377.957 545.411, 386.273 546.166 C 392.456 546.726, 397.259 547.882, 402.539 550.081 C 410.741 553.495, 414.868 553.900, 420.682 551.861 C 426.773 549.724, 443.948 550.284, 453.500 552.930 C 479.965 560.262, 485.687 560.528, 503.729 555.265 C 506.604 554.426, 508.691 553.309, 508.366 552.783 C 508.040 552.256, 506.813 552.124, 505.637 552.489 C 494.843 555.841, 475.023 555.839, 463.785 552.487 C 460.878 551.620, 457.150 550.511, 455.500 550.023 C 444.765 546.849, 426.470 546.763, 415.500 549.835 C 412.663 550.630, 405.181 548.979, 402.500 546.966 C 401.053 545.880, 389.224 542.984, 386.669 543.090 C 385.476 543.140, 382.925 543.673, 381 544.275 M 690.500 544.639 C 685.224 545.236, 660.016 551.474, 660.008 552.184 C 660.004 552.561, 663.712 552.890, 668.250 552.917 C 679.440 552.982, 695.403 554.603, 705.314 556.682 C 718.272 559.399, 757.109 558.709, 754.213 555.813 C 753.665 555.265, 747.206 553.545, 739.858 551.990 C 732.511 550.436, 722.249 548.002, 717.053 546.582 C 708.107 544.137, 700.108 543.552, 690.500 544.639 M 229.882 546.281 C 229.172 547.042, 227.233 547.392, 225.107 547.144 C 221.865 546.765, 221.658 546.883, 222.906 548.387 C 223.665 549.301, 224.491 549.842, 224.743 549.591 C 225.362 548.971, 235.040 554.255, 243 559.560 L 249.500 563.891 257 562.447 C 261.125 561.652, 265.962 561.002, 267.750 561.001 C 269.538 561.001, 271 560.660, 271 560.244 C 271 559.828, 269.538 558.859, 267.750 558.089 C 265.962 557.320, 261.350 554.815, 257.500 552.523 C 245.382 545.309, 233.334 542.586, 229.882 546.281 M 197 548.064 C 197 550.283, 211.878 563.805, 215.681 565.042 C 217.782 565.725, 220.388 566.896, 221.473 567.642 C 222.557 568.389, 224.807 569.030, 226.473 569.068 C 229.321 569.131, 229.371 569.198, 227.317 570.191 C 225.557 571.041, 224.224 570.737, 220.441 568.623 C 214.770 565.453, 214.113 565.363, 216.583 568.092 C 220.001 571.868, 225.127 573.757, 228 572.299 C 229.375 571.601, 231.261 571.023, 232.191 571.015 C 233.121 571.007, 234.160 570.550, 234.500 570 C 234.849 569.435, 234.030 569, 232.618 569 C 231.243 569, 229.871 568.601, 229.570 568.113 C 229.269 567.626, 227.476 566.937, 225.587 566.582 C 219.728 565.483, 209.052 558.818, 203.432 552.750 C 198.019 546.907, 197 546.164, 197 548.064 M 215.037 552.750 C 215.138 554.834, 236.451 566.175, 239.500 565.767 C 241.769 565.464, 232.611 559.400, 222.813 554.718 C 216.994 551.937, 214.972 551.425, 215.037 552.750 M 82.831 557.503 C 82.468 557.865, 78.645 558.716, 74.336 559.394 C 66.612 560.608, 66.757 560.625, 84.500 560.572 C 101.284 560.521, 102.785 560.669, 106.710 562.759 C 111.998 565.574, 125 565.776, 125 563.044 C 125 560.976, 119.743 559.982, 116.738 561.481 C 115.054 562.321, 113.448 562.782, 113.171 562.504 C 112.894 562.227, 113.192 562, 113.833 562 C 114.475 562, 115 561.632, 115 561.182 C 115 560.733, 110.162 559.783, 104.250 559.071 C 87.852 557.098, 83.550 556.783, 82.831 557.503 M 758.500 559.240 C 751.196 561.334, 750.067 561.721, 743.500 564.381 C 734.578 567.995, 708.651 568.352, 693.721 565.066 C 691.399 564.556, 686.125 563.861, 682 563.524 C 677.875 563.186, 671.800 562.503, 668.500 562.007 C 660.018 560.731, 634.298 559.942, 639.500 561.117 C 641.700 561.614, 647.550 562.449, 652.500 562.972 C 667.948 564.603, 685.859 566.744, 703 569.006 C 714.349 570.505, 721.841 570.994, 727 570.574 C 731.125 570.239, 738.045 569.697, 742.378 569.370 C 749.902 568.803, 751.542 567.052, 744.583 567.015 C 740.686 566.995, 741.683 566.213, 747.082 565.055 C 765.327 561.142, 768.706 559.951, 767.430 557.887 C 766.770 556.818, 767.157 556.759, 758.500 559.240 M 508.500 562.967 C 500.144 563.722, 495.078 564.708, 479.500 568.609 C 476.200 569.435, 471.370 570.555, 468.767 571.098 C 466.163 571.641, 460.763 573.793, 456.767 575.882 C 427.158 591.353, 413.611 598.175, 408.925 599.973 C 405.941 601.118, 402.600 602.465, 401.500 602.966 C 399.732 603.771, 391.288 606.443, 382.500 608.976 C 370.799 612.350, 349.528 614.801, 324.250 615.689 C 306.941 616.297, 305.910 616.155, 289.782 610.950 C 273.317 605.636, 265.278 604.438, 256.867 606.047 L 249.500 607.455 261.500 608.083 C 272.170 608.641, 279.776 610.148, 286.500 613.039 C 302.727 620.014, 301.549 619.768, 321.625 620.376 C 332.861 620.716, 339.488 620.593, 338 620.073 C 336.271 619.469, 339.045 619.155, 347 619.055 C 358.843 618.907, 376.456 617.116, 390.500 614.634 C 410.801 611.045, 419.046 609.763, 426 609.113 C 432.328 608.522, 434.515 607.787, 440 604.408 C 443.575 602.206, 450.775 598.345, 456 595.828 C 490.459 579.226, 504.824 575.487, 534 575.526 L 553.500 575.553 574.500 582.685 C 596.026 589.997, 604.117 592.324, 612 593.471 C 622.770 595.039, 642.240 595.648, 652.741 594.745 C 658.924 594.214, 664.774 594.099, 665.741 594.490 C 669.531 596.021, 662.213 597.163, 643 598.039 C 632.275 598.529, 621.025 599.376, 618 599.923 C 614.975 600.471, 606.425 601.137, 599 601.405 C 591.575 601.673, 584.150 602.357, 582.500 602.925 C 580.850 603.494, 576.125 604.903, 572 606.058 C 567.875 607.212, 562.700 608.878, 560.500 609.760 C 556.345 611.426, 552.098 611.628, 507 612.312 C 481.771 612.695, 480.006 612.964, 469.500 618.027 C 465.100 620.147, 459.700 622.338, 457.500 622.896 C 455.300 623.454, 450.800 624.645, 447.500 625.542 C 437.472 628.269, 429.011 629.975, 418 631.490 L 407.500 632.935 434 632.553 L 460.500 632.171 470.500 628.675 C 476 626.752, 486.107 622.861, 492.960 620.028 C 509.112 613.351, 513.585 613.211, 524.237 619.049 C 533.958 624.376, 538.975 624.200, 566 617.579 C 599.917 609.271, 622.554 606.032, 647.345 605.940 C 663.696 605.880, 667.683 605.449, 678.500 602.572 C 684.027 601.102, 689.309 599.946, 704 596.991 C 709.832 595.817, 718.856 592.736, 722.381 590.715 C 724.118 589.719, 720.624 589.365, 703 588.752 C 691.175 588.340, 679.925 587.913, 678 587.803 C 676.075 587.693, 672.008 587.948, 668.961 588.370 C 664.723 588.958, 661.641 588.672, 655.836 587.151 C 640.101 583.030, 625.803 582.333, 617.275 585.272 C 615.501 585.883, 613.734 586.068, 613.348 585.681 C 612.100 584.433, 616.399 582.065, 620 582.016 C 622.634 581.981, 623.129 581.730, 622 581 C 618.776 578.917, 635.097 580.307, 657.500 584.024 C 662.230 584.809, 672.639 585.207, 670.500 584.521 C 669.950 584.345, 664.100 582.549, 657.500 580.529 C 650.900 578.510, 644.466 576.440, 643.203 575.929 C 639.267 574.337, 629.931 574.894, 623.748 577.090 C 616.911 579.517, 612.916 578.911, 596.500 572.959 C 573.013 564.444, 537.169 560.374, 508.500 562.967 M 516 579.299 L 511.500 580.383 518.502 581.068 C 526.207 581.821, 531.030 583.268, 541.381 587.933 C 559.488 596.093, 575.776 599.826, 585.948 598.146 C 589.763 597.516, 598.874 596.935, 606.193 596.855 L 619.500 596.709 610 595.971 C 600.691 595.247, 596.079 594.138, 583 589.474 C 555.965 579.834, 547.578 577.963, 532.051 578.107 C 525.698 578.166, 518.475 578.702, 516 579.299 M 500 583.595 C 495.519 584.403, 485.548 587.078, 483.500 588.023 C 482.400 588.530, 479.025 589.894, 476 591.053 C 467.847 594.179, 440 608.183, 440 609.158 C 440 610.969, 445.880 609.404, 455 605.164 C 461.025 602.363, 476.304 596.669, 482.500 594.915 C 485.749 593.996, 492.229 593.519, 501 593.553 C 515.407 593.610, 519.448 594.499, 533.049 600.602 C 538.718 603.147, 539.383 603.232, 544.517 602.084 C 548.021 601.299, 553.811 601.070, 560.733 601.442 L 571.500 602.019 566.500 600.467 C 550.590 595.529, 545.720 593.835, 538.491 590.726 C 524.594 584.750, 509.306 581.917, 500 583.595 M 481.648 598.575 C 476.779 599.911, 471.379 601.645, 469.648 602.429 C 467.916 603.214, 464.250 604.805, 461.500 605.966 C 449.360 611.092, 449.359 611.086, 462 610.550 C 468.325 610.282, 478.675 609.584, 485 608.999 C 491.325 608.414, 498.689 608.224, 501.365 608.577 C 504.040 608.930, 513.940 608.881, 523.365 608.468 L 540.500 607.717 533.841 604.608 C 518.497 597.445, 512.751 595.981, 500.346 596.073 C 493.200 596.126, 488.072 596.813, 481.648 598.575 M 755.500 602.458 C 754.950 602.622, 752.475 603.308, 750 603.982 C 740.268 606.631, 732.819 609.562, 722 615 C 681.991 635.111, 656.980 647.024, 654.299 647.246 C 653.035 647.351, 651.989 647.901, 651.977 648.468 C 651.947 649.774, 624.330 663.353, 608.500 669.845 C 584.069 679.865, 563.978 686.040, 527 694.893 C 507.632 699.530, 505.125 700.054, 495.500 701.475 C 464.843 706.002, 452.216 708.455, 433.500 713.519 C 418.421 717.599, 409.275 718.980, 397.250 718.990 C 374.658 719.009, 347.177 712.725, 324 702.242 C 305.584 693.911, 286.233 685.983, 271.500 680.731 C 267.650 679.358, 260.675 676.869, 256 675.199 C 251.325 673.528, 244.125 671.043, 240 669.676 C 226.971 665.357, 206.993 657.598, 194.500 652.005 C 182.874 646.799, 157.540 637.380, 142 632.485 C 95.803 617.934, 86.304 615.579, 51.500 610.046 C 44.350 608.910, 36.250 607.486, 33.500 606.882 C 25.009 605.018, 2.651 604.450, 3.201 606.113 C 3.536 607.126, 6.600 607.677, 14.580 608.157 C 20.586 608.518, 29.550 609.513, 34.500 610.368 C 61.694 615.068, 74.712 617.487, 83 619.380 C 99.160 623.072, 103.142 624.090, 113 627.048 C 118.775 628.782, 125.525 630.802, 128 631.538 C 148.836 637.731, 185.191 651.454, 212.500 663.433 C 214.150 664.157, 219.325 666.219, 224 668.015 C 228.675 669.811, 233.400 671.662, 234.500 672.129 C 235.600 672.596, 246.175 676.176, 258 680.084 C 277.789 686.625, 286.326 689.764, 294.651 693.562 C 296.384 694.353, 298.045 695, 298.342 695 C 298.639 695, 302.663 696.755, 307.284 698.900 C 324.389 706.839, 342.614 713.979, 351 716.028 C 353.475 716.632, 358.200 717.789, 361.500 718.599 C 364.800 719.408, 371.442 720.660, 376.261 721.380 C 385.477 722.757, 387.420 723.518, 384.542 724.622 C 381.673 725.723, 347.009 724.150, 340 722.601 C 332.617 720.969, 325.215 719.082, 323 718.266 C 322.175 717.963, 318.749 716.719, 315.387 715.502 C 305.639 711.973, 303.779 711.122, 279.012 698.851 C 251.767 685.352, 246.663 683, 244.614 683 C 243.791 683, 242.816 682.511, 242.446 681.913 C 242.077 681.315, 240.928 681.047, 239.895 681.317 C 238.861 681.588, 235.874 681.148, 233.258 680.341 C 223.812 677.427, 205.228 672.096, 192 668.506 C 173.288 663.428, 171.005 662.611, 158.279 656.441 C 152.108 653.448, 146.708 650.997, 146.279 650.994 C 145.851 650.990, 144.375 650.407, 143 649.697 C 141.625 648.987, 137.575 647.345, 134 646.048 C 130.425 644.750, 127.072 643.309, 126.550 642.845 C 126.027 642.380, 124.902 641.997, 124.050 641.994 C 123.197 641.990, 121.216 641.318, 119.646 640.499 C 118.076 639.680, 116.343 639.288, 115.793 639.628 C 114.628 640.348, 118.372 642.164, 134 648.459 C 139.191 650.550, 142.595 652.033, 153 656.739 L 160.500 660.130 155.744 659.583 C 153.128 659.283, 148.628 658.297, 145.744 657.394 C 135.810 654.281, 107.774 644.454, 103.500 642.586 C 101.850 641.865, 93.300 638.444, 84.500 634.984 C 75.700 631.523, 67.150 628.144, 65.500 627.475 C 40.146 617.193, 4.802 608.043, 3.792 611.500 C 3.631 612.050, 5.300 612.870, 7.500 613.322 C 23.567 616.626, 63.401 629.275, 77.500 635.550 C 105.592 648.054, 146.683 661.966, 163 664.499 C 165.475 664.883, 170.650 666.094, 174.500 667.190 C 178.350 668.285, 188.250 670.947, 196.500 673.105 C 220.960 679.502, 222.678 680.032, 243.500 687.598 C 250.650 690.197, 256.928 692.700, 257.450 693.161 C 257.973 693.623, 259.124 694, 260.010 694 C 260.895 694, 271.043 698.764, 282.560 704.586 C 307.636 717.263, 321.250 722.918, 334 725.951 C 339.225 727.194, 345.493 728.839, 347.928 729.606 C 350.364 730.373, 353.203 731, 354.237 731 C 355.327 731, 355.838 731.453, 355.452 732.078 C 354.807 733.122, 342.953 732.633, 337 731.318 C 327.105 729.131, 316.774 725.260, 308 720.450 C 294.278 712.928, 279.566 705.444, 274 703.155 C 270.975 701.911, 267.600 700.475, 266.500 699.964 C 265.400 699.453, 260.225 697.937, 255 696.594 C 249.775 695.251, 241.450 692.719, 236.500 690.967 C 220.610 685.343, 211.169 682.763, 194 679.357 C 187.125 677.993, 176.100 675.592, 169.500 674.022 C 153.240 670.154, 148.530 669.145, 141.500 668.028 C 114.555 663.746, 68.241 653.466, 56 649.051 C 54.625 648.555, 50.125 647.162, 46 645.957 C 35.324 642.837, 28.206 640.443, 16.221 635.941 C 5.876 632.055, 1.306 631.068, 2.483 632.973 C 6.202 638.989, 74.392 659.644, 116.500 667.509 C 120.350 668.228, 127.325 669.553, 132 670.454 C 136.675 671.354, 144.100 672.748, 148.500 673.550 C 162.919 676.180, 163.576 676.817, 152 676.941 C 138.205 677.090, 126.819 678.312, 90.500 683.544 C 78.876 685.218, 63.108 687.344, 49 689.138 C 44.095 689.761, 32.551 690.007, 21.703 689.718 C 8.036 689.353, 3.008 689.523, 3.280 690.341 C 4.031 692.593, 18.024 694.107, 33.500 693.611 C 47.579 693.160, 55.505 692.328, 82.500 688.467 C 88.550 687.601, 98.225 686.246, 104 685.454 C 109.775 684.662, 117.650 683.569, 121.500 683.024 C 125.350 682.480, 136.825 681.740, 147 681.381 C 190.091 679.858, 215.876 686.289, 269.294 711.882 C 290.230 721.913, 296.108 724.188, 313.500 728.998 C 317.900 730.215, 322.625 731.595, 324 732.065 C 325.375 732.534, 328.283 733.230, 330.462 733.610 L 334.423 734.302 329.962 735.773 C 326.878 736.789, 320.714 737.274, 310 737.342 C 286.567 737.491, 279.040 735.156, 241.497 716.090 C 229.292 709.891, 218.438 705, 216.889 705 C 211.882 705, 212.821 706.892, 218.674 708.594 C 221.833 709.512, 228.712 712.519, 233.959 715.275 C 265.121 731.645, 269.208 733.541, 281.500 737.327 C 294.589 741.360, 319.250 741.909, 332.479 738.463 C 339.058 736.750, 349.213 736.582, 358.731 738.029 C 362.454 738.595, 371.125 739.405, 378 739.828 L 390.500 740.597 384.500 742.389 C 381.200 743.375, 373.325 745.896, 367 747.992 C 316.140 764.843, 296.887 765.070, 244 749.442 C 219.593 742.230, 199.233 741.122, 180.100 745.964 C 171.008 748.265, 166.998 754.056, 172.470 756.984 C 175.410 758.557, 192.435 757.820, 197.944 755.881 C 204.733 753.492, 247.247 754.548, 259.500 757.411 C 262.800 758.182, 269.550 759.758, 274.500 760.913 C 292.951 765.219, 323.548 764.393, 342 759.090 C 343.925 758.537, 348.875 757.121, 353 755.943 C 357.125 754.766, 365.675 752.092, 372 750.003 C 391.849 743.446, 400.963 740.859, 401.987 741.492 C 403.604 742.492, 413.834 744.980, 420.391 745.970 C 423.751 746.477, 430.325 747.615, 435 748.500 C 444.496 750.298, 458.184 752.656, 468 754.187 C 476.796 755.559, 513.935 755.538, 522 754.157 C 528.925 752.971, 538.412 750.984, 549 748.503 C 555.021 747.092, 560.010 746.066, 578.500 742.436 C 594.639 739.267, 601.436 738.630, 619 738.644 C 629.175 738.652, 640.875 739.167, 645 739.787 C 649.125 740.408, 658.800 741.864, 666.500 743.024 C 683.419 745.571, 703.251 745.370, 721.263 742.468 C 732.380 740.676, 733.698 740.659, 745.263 742.150 C 751.993 743.018, 758.175 743.902, 759 744.114 C 759.825 744.326, 760.500 743.848, 760.500 743.051 C 760.500 741.592, 756.045 740.426, 740.719 737.877 C 733.998 736.759, 730.226 737.039, 713 739.931 C 706.234 741.067, 678.497 741.126, 671 740.020 C 667.975 739.574, 660.325 738.483, 654 737.595 C 647.675 736.708, 641.877 735.751, 641.115 735.470 C 638.385 734.463, 603.742 734.910, 596.198 736.051 C 587.215 737.409, 566.132 741.414, 557.500 743.403 C 554.200 744.163, 548.125 745.563, 544 746.514 C 519.779 752.098, 513.728 752.876, 494 752.938 C 479.428 752.984, 462.939 751.625, 460.325 750.162 C 459.488 749.693, 462.868 748.881, 468.711 748.147 C 479.541 746.787, 491.592 744.950, 506 742.465 C 511.225 741.564, 520.450 740.013, 526.500 739.019 C 532.550 738.025, 539.975 736.500, 543 735.630 C 546.025 734.760, 558.625 731.538, 571 728.470 C 594.593 722.622, 600.284 721.133, 608.500 718.663 C 623.804 714.061, 640.252 709.823, 653.757 707.001 C 669.826 703.643, 682.359 703.357, 715.860 705.585 C 730.607 706.565, 761.748 702.257, 762.803 699.090 C 763.151 698.047, 761.937 697.927, 756.921 698.509 L 750.600 699.243 756.800 692.477 C 760.210 688.755, 763 685.326, 763 684.855 C 763 681.979, 758.592 685.700, 748.224 697.326 C 745.879 699.956, 744.127 701, 742.056 701 C 740.465 701, 738.452 701.273, 737.582 701.607 C 732.963 703.379, 739.729 695.150, 756.837 678.186 C 760.340 674.713, 762.929 671.595, 762.590 671.257 C 761.655 670.322, 756.030 674.751, 751 680.382 C 739.575 693.174, 739.541 693.192, 745.211 683.500 C 748.312 678.200, 753.467 671.419, 757.751 667.004 C 765.298 659.228, 765.978 656.473, 758.983 662.013 C 751.931 667.599, 736.973 689.491, 733.950 698.653 L 732.845 702 721.339 702 C 715.011 702, 709.983 701.663, 710.167 701.250 C 716.641 686.683, 736.882 664.619, 754.149 653.305 C 764.694 646.396, 766.684 643.041, 757.211 648.141 C 740.242 657.278, 723.112 674.214, 711.510 693.324 C 706.200 702.071, 706.534 701.791, 702.275 701.057 L 699.050 700.500 702.872 692.865 C 714.198 670.239, 732.664 651.472, 755.777 639.097 C 763.150 635.149, 765.722 633, 763.073 633 C 760.783 633, 745.121 641.783, 738.169 646.966 C 720.749 659.954, 707.897 675.481, 699.098 694.169 C 696.371 699.962, 695.329 700.747, 691.292 700.052 L 688.084 699.500 689.709 696 C 691.405 692.348, 697.825 681.233, 699.239 679.500 C 699.689 678.950, 702.406 675.317, 705.278 671.427 C 720.983 650.154, 737.428 634.855, 757.727 622.632 C 764.850 618.344, 766.702 616.356, 762.622 617.380 C 755.530 619.160, 733.947 634.987, 721.690 647.395 C 711.309 657.905, 698.207 675.074, 691.467 687 C 688.825 691.675, 686.093 696.453, 685.396 697.617 C 684.273 699.492, 682.845 699.818, 672.921 700.461 C 666.758 700.860, 659.529 701.754, 656.857 702.447 C 654.186 703.140, 652 703.357, 652 702.929 C 652 702.501, 656.547 697.955, 662.105 692.826 C 667.663 687.697, 677.270 677.875, 683.454 671 C 707.579 644.180, 728.704 626.245, 745.286 618.505 C 750.018 616.297, 749.412 615.379, 744.330 617.056 C 729.618 621.911, 701.798 645.494, 677.500 673.708 C 668.737 683.883, 666.794 684.894, 672.739 676.185 C 691.019 649.406, 694.722 644.663, 707.651 631.473 C 716.785 622.156, 724.785 616.972, 737.712 611.994 C 740.895 610.768, 744.175 609.445, 745 609.053 C 745.825 608.661, 749.875 607.531, 754 606.542 C 764.338 604.063, 764 604.182, 764 603.031 C 764 602.106, 758.021 601.702, 755.500 602.458 M 67.500 605 L 59.500 605.633 67.500 605.823 C 80.146 606.123, 111.585 608.837, 122 610.528 C 137.331 613.017, 145.151 615.017, 160 620.250 C 169.074 623.447, 170.628 624.081, 181.500 629.015 C 185.350 630.763, 192.100 633.696, 196.500 635.535 C 200.900 637.373, 207.875 640.533, 212 642.556 C 235.019 653.847, 246.274 657.615, 262.500 659.463 C 281.835 661.666, 303.151 666.402, 312.651 670.606 C 314.384 671.373, 316.045 672, 316.342 672 C 316.639 672, 320.846 673.840, 325.691 676.089 C 333.659 679.787, 336.949 681.269, 346.500 685.461 C 349.527 686.790, 360.280 690.446, 369.500 693.282 C 387.646 698.863, 419.806 700.449, 438 696.660 C 457.559 692.587, 485.339 684.297, 497.500 678.906 C 501.117 677.302, 513.363 672.837, 521 670.337 C 525.125 668.986, 529.400 667.497, 530.500 667.027 C 532.986 665.966, 547.403 661.924, 564.500 657.496 C 592.569 650.226, 599.340 647.100, 629.500 627.490 C 635.550 623.556, 644.550 618.187, 649.500 615.559 C 654.450 612.930, 658.928 610.379, 659.450 609.890 C 661.307 608.150, 620.229 609.881, 609.500 611.994 C 606.750 612.536, 598.650 614.114, 591.500 615.500 C 577.287 618.256, 571.811 619.461, 556 623.315 C 550.225 624.722, 541.474 626.584, 536.553 627.452 C 526.516 629.224, 523.432 630.746, 503.667 643.688 C 468.065 667.001, 436.910 676.276, 405 673.063 C 374.037 669.945, 351.647 662.653, 306.500 640.982 C 299.292 637.522, 284.765 632.007, 276.500 629.593 C 273.200 628.629, 269.159 627.328, 267.520 626.703 C 263.621 625.216, 242.458 625.346, 233.500 626.911 C 229.650 627.584, 222.225 628.465, 217 628.868 C 207.656 629.591, 207.566 629.622, 211.500 630.781 C 224.595 634.638, 242.105 637.146, 265 638.443 C 274.549 638.984, 282.160 640.491, 287.500 642.899 C 288.600 643.395, 298.885 648.374, 310.356 653.963 C 334.983 665.961, 338.783 667.691, 350 672.008 C 354.675 673.808, 359.400 675.657, 360.500 676.117 C 372.547 681.160, 397.664 686, 411.791 686 C 424.579 686, 450.033 682.294, 460 678.980 C 461.375 678.523, 465.875 677.176, 470 675.986 C 477.790 673.740, 485.057 671.378, 488.500 669.972 C 503.368 663.904, 517.096 657.831, 523.899 654.310 C 535.710 648.198, 535.789 650.249, 524 656.928 C 499.616 670.742, 469.561 681.176, 437 687.129 C 425.860 689.166, 396.656 688.892, 386.500 686.656 C 375.505 684.235, 361.789 680.331, 356.500 678.117 C 355.400 677.657, 350.675 675.807, 346 674.007 C 333.519 669.200, 330.079 667.639, 313 659.035 C 304.475 654.739, 294.575 650.029, 291 648.568 C 287.425 647.106, 283.600 645.488, 282.500 644.973 C 279.350 643.495, 268.839 642.153, 251.500 641.013 C 242.700 640.435, 233.475 639.547, 231 639.041 C 228.525 638.535, 224.700 637.841, 222.500 637.499 C 215.299 636.381, 207.680 633.598, 196.500 628.004 C 190.450 624.977, 184.150 621.989, 182.500 621.365 C 178.660 619.912, 169.377 616.961, 165.500 615.960 C 163.850 615.534, 159.125 614.303, 155 613.223 C 126.641 605.804, 94.960 602.826, 67.500 605 M 247 610.461 C 246.175 610.661, 241.450 611.382, 236.500 612.064 C 222.586 613.981, 223.140 614.936, 238.185 614.970 C 261.123 615.021, 292.595 623.575, 297.247 631.023 C 297.926 632.111, 298.771 633, 299.126 633 C 299.480 633, 307.584 636.782, 317.135 641.405 C 342.354 653.612, 357.570 659.440, 374.500 663.378 C 378.350 664.273, 384.425 665.703, 388 666.555 C 426.288 675.683, 462.543 667.089, 505.001 638.823 C 511.877 634.245, 519.865 629.381, 522.751 628.014 C 525.638 626.647, 528 625.278, 528 624.973 C 528 623.056, 516.180 618.669, 511.071 618.690 C 506.092 618.710, 489.838 624.181, 477.500 629.991 C 470.167 633.444, 444.466 640.827, 428.500 644.068 C 411.331 647.552, 377.242 646.023, 370.677 641.473 C 368.368 639.872, 370.220 638.512, 372.816 639.902 C 376.901 642.088, 400.176 643.330, 413.623 642.080 C 425.043 641.019, 448.654 636.320, 447.644 635.311 C 447.433 635.100, 441.239 635.449, 433.880 636.087 C 422.825 637.046, 416.069 636.960, 395 635.591 C 370.471 633.996, 366.832 633.455, 346.500 628.372 C 335.137 625.532, 331.456 625.119, 316.982 625.060 C 303.458 625.004, 302.226 624.839, 298.982 622.653 C 287.457 614.886, 257.638 607.892, 247 610.461 M 418 613.981 C 415.525 614.453, 409.450 615.515, 404.500 616.341 C 399.550 617.168, 391.225 618.575, 386 619.468 C 367.611 622.612, 361.406 623.189, 351.500 622.675 L 341.500 622.157 346.500 623.671 C 368.216 630.243, 384.578 632.258, 401 630.380 C 422.747 627.893, 451.798 621.324, 467 615.454 C 470.299 614.181, 469.892 614.100, 459.908 614.052 C 454.083 614.023, 443.283 613.803, 435.908 613.562 C 428.534 613.321, 420.475 613.510, 418 613.981 M 206.500 617.098 C 196.419 618.809, 189.538 620.596, 190.572 621.236 C 196.394 624.834, 212.653 626.832, 221.701 625.061 C 246.882 620.132, 258.125 620.337, 276 626.052 C 280.675 627.546, 286.075 629.060, 288 629.415 L 291.500 630.062 288.270 628.588 C 285.282 627.224, 268.119 621.966, 260 619.927 C 258.075 619.443, 250.425 619.021, 243 618.988 C 234.847 618.952, 227.124 618.355, 223.500 617.480 C 216.916 615.890, 214.003 615.825, 206.500 617.098 M 502.941 628.591 C 491.066 640.686, 471.871 650.722, 448 657.317 C 438.786 659.862, 429.292 661.168, 411.327 662.360 C 401.883 662.987, 393.820 663.837, 393.411 664.250 C 392.343 665.326, 422.263 665.114, 430 663.991 C 450.186 661.061, 463.207 656.975, 481.318 647.886 C 493.511 641.767, 502.724 634.418, 507.121 627.304 C 510.363 622.058, 508.920 622.502, 502.941 628.591 M 654.973 627.649 C 645.576 633.917, 642.695 640.149, 647.039 644.811 C 649.799 647.774, 651.432 647.590, 649.435 644.541 C 646.264 639.702, 651.309 631.531, 659.156 628.796 C 660.720 628.250, 662 627.398, 662 626.902 C 662 625.416, 657.622 625.882, 654.973 627.649 M 701.583 630.083 C 695.294 633.454, 690.556 636.612, 684.855 641.232 C 653.072 666.989, 621.544 685.804, 596 694.261 C 566.212 704.123, 560.211 705.001, 516 705.955 C 496.945 706.366, 479.262 707.206, 476.500 707.831 C 473.750 708.454, 466.550 709.907, 460.500 711.061 C 454.450 712.215, 445.675 714.205, 441 715.484 C 429.554 718.615, 424.765 719.686, 409.500 722.526 C 402.350 723.857, 395.542 725.373, 394.372 725.896 C 393.202 726.418, 387.352 727.798, 381.372 728.963 C 371.503 730.884, 367.481 731.823, 360 733.955 C 356.906 734.837, 379.118 736.456, 394 736.434 C 404.560 736.418, 408.789 735.535, 432 728.493 C 455.663 721.315, 469.647 718.514, 489.500 716.979 C 523.809 714.325, 540.844 712.773, 544.500 711.968 C 560.762 708.389, 577.644 706.177, 574.733 708.007 C 572.288 709.545, 564.687 711.362, 550 713.920 C 528.462 717.671, 526.801 717.882, 514 718.493 C 488.665 719.702, 466.258 722.686, 449.500 727.083 C 437.683 730.183, 417.442 736.184, 411.132 738.458 L 407.764 739.672 414.632 741.339 C 423.470 743.483, 424.018 743.459, 432.425 740.560 C 450.354 734.375, 476.747 729.550, 498.500 728.479 C 514.304 727.701, 533.222 725.495, 542 723.407 C 551.017 721.262, 567.920 716.006, 571.343 714.283 C 576.385 711.746, 575.383 713.781, 569.859 717.296 C 565.168 720.281, 559.841 722.236, 546 726.049 C 537.499 728.391, 526.399 730.067, 513.453 730.962 C 476.457 733.523, 468.808 734.529, 448 739.576 C 444.425 740.443, 439.363 741.657, 436.750 742.274 C 428.838 744.141, 430.127 745.008, 443.738 746.971 C 449.503 747.802, 452.759 747.694, 459.738 746.442 C 464.557 745.577, 472.550 744.246, 477.500 743.484 C 495.138 740.770, 527.264 734.954, 535.500 732.985 C 537.700 732.460, 543.550 731.108, 548.500 729.981 C 553.450 728.854, 560.200 727.305, 563.500 726.538 C 566.800 725.771, 572.875 724.377, 577 723.440 C 587.125 721.141, 595.563 718.795, 607.500 714.960 C 613 713.193, 624.134 710.043, 632.243 707.959 C 645.564 704.536, 647.251 703.853, 649.743 700.876 C 651.259 699.063, 654.688 695.087, 657.361 692.040 C 660.035 688.993, 664.897 682.511, 668.166 677.636 C 675.160 667.203, 678.299 662.689, 679.034 662 C 679.328 661.725, 681.767 658.350, 684.455 654.500 C 689.193 647.713, 700.016 634.881, 704.896 630.266 C 707.885 627.439, 706.644 627.371, 701.583 630.083 M 670.403 643.844 C 664.299 646.955, 656.874 650.650, 653.903 652.055 C 650.931 653.460, 644.225 656.850, 639 659.587 C 628.327 665.178, 619.487 669.148, 607 673.958 C 602.325 675.759, 597.825 677.542, 597 677.921 C 590.559 680.875, 550.526 693.051, 537.500 696.017 C 532.550 697.145, 525.771 698.727, 522.436 699.534 C 519.101 700.340, 515.587 701, 514.627 701 C 513.667 701, 513.160 701.450, 513.500 702 C 514.781 704.073, 548.503 702.341, 563.193 699.448 C 583.444 695.460, 601.010 689.305, 622 678.844 C 637.365 671.186, 639.670 669.721, 669 648.968 C 686.851 636.337, 687.130 635.318, 670.403 643.844 M 3 665.965 C 3 668.059, 8.206 669.836, 26.500 673.991 C 42.056 677.523, 84 680.593, 84 678.199 C 84 676.820, 79.339 676.173, 61 675.004 C 46.062 674.051, 29.298 671.904, 22 670.007 C 20.075 669.507, 15.280 668.176, 11.345 667.049 C 3.111 664.691, 3 664.677, 3 665.965 M 123 693.069 C 107.479 694.067, 101.984 695.018, 73.500 701.633 C 47.427 707.688, 37.057 709.235, 19.250 709.725 C 4.389 710.134, 1.140 710.733, 4.044 712.527 C 5.981 713.724, 33.430 713.072, 42 711.625 C 46.675 710.836, 52.750 709.885, 55.500 709.513 C 58.250 709.141, 66.575 707.239, 74 705.287 C 86.284 702.058, 94.261 700.117, 102.500 698.355 C 109.111 696.940, 103.854 699.046, 94.971 701.370 C 85.504 703.847, 64.161 710.656, 58.500 713.004 C 56.850 713.689, 54.600 714.617, 53.500 715.068 C 52.400 715.518, 48.810 717.077, 45.522 718.534 C 30.743 725.079, 30.114 725.232, 16.749 725.490 C 1.239 725.790, -0.431 727.313, 13.997 728 L 24.494 728.500 16.622 732.500 C 4.113 738.857, -0.019 744.254, 4.657 748.128 C 7.090 750.143, 37.384 749.946, 41.270 747.890 C 43.781 746.560, 42.549 746.461, 28.058 746.830 C 9.864 747.293, 4.990 746.738, 5.021 744.205 C 5.088 738.869, 52.010 717.649, 85 708.034 C 89.125 706.832, 93.805 705.432, 95.399 704.924 C 98.993 703.779, 103.721 703.724, 104.167 704.822 C 104.350 705.274, 111.925 708.023, 121 710.931 C 130.075 713.839, 138.625 716.601, 140 717.070 C 150.640 720.697, 180.056 720.664, 194 717.008 C 195.925 716.504, 198.738 715.837, 200.250 715.526 C 202.135 715.140, 203 714.338, 203 712.981 C 203 710.888, 201.541 710.315, 200.500 712 C 199.605 713.449, 196.235 713.227, 195.300 711.657 C 193.635 708.863, 189.251 707.166, 182 706.511 C 175.278 705.904, 174.708 705.985, 176.500 707.291 C 177.600 708.093, 180.525 709.058, 183 709.436 C 188.352 710.252, 193 711.929, 193 713.044 C 193 715.186, 184.572 716.308, 168.023 716.369 C 148.501 716.440, 146.415 716.072, 122.951 708.419 C 115.499 705.989, 108.412 704, 107.201 704 C 104.321 704, 104.357 702.180, 107.250 701.541 C 118.484 699.059, 144.260 696.803, 153.500 697.493 C 178.344 699.349, 205.151 708.879, 235.966 726.811 C 259.385 740.439, 276.720 747.479, 299.026 752.422 C 307.562 754.313, 326.625 756.350, 327.976 755.515 C 330.248 754.111, 327.695 753.251, 319.277 752.585 C 314.450 752.204, 308.925 751.477, 307 750.971 C 305.075 750.465, 299.675 749.119, 295 747.980 C 277.255 743.659, 261.040 736.916, 243.667 726.635 C 239.359 724.086, 235.655 722, 235.435 722 C 235.215 722, 232.215 720.302, 228.768 718.227 C 221.264 713.711, 213.998 710.179, 196.500 702.541 C 191.554 700.383, 177.908 696.246, 171.500 694.962 C 156.533 691.965, 146.354 691.567, 123 693.069 M 259.788 702.564 C 266.023 706.931, 302.198 723.104, 305.369 722.942 C 307.982 722.809, 260.950 701, 258.050 701 C 257.778 701, 258.560 701.704, 259.788 702.564 M 707.528 718.843 C 713.240 724.180, 734.825 726.975, 748 724.084 C 758.742 721.727, 762 720.605, 762 719.264 C 762 718.397, 761.334 718.066, 760.250 718.393 C 744.462 723.156, 715.043 722.848, 709.550 717.862 C 709.028 717.388, 707.915 717, 707.078 717 C 705.878 717, 705.973 717.390, 707.528 718.843 M 627 726.053 C 581.828 730.708, 526.774 738.968, 551.500 737.380 C 560.177 736.823, 571.985 735.613, 590 733.436 C 644.779 726.816, 654.960 726.784, 725.500 733.012 C 739.235 734.224, 738.451 734.248, 737.135 732.663 C 735.625 730.844, 725.444 729.232, 707.500 727.971 C 699.250 727.391, 688 726.508, 682.500 726.007 C 670.657 724.929, 637.637 724.956, 627 726.053 M 100 728.005 C 83.668 731.041, 71 736.219, 71 739.859 C 71 749.027, 87.546 754.785, 114.292 754.927 C 140.718 755.067, 155 749.831, 155 740.004 C 155 729.405, 126.233 723.129, 100 728.005 M 105.244 730.103 C 93.759 731.439, 77.444 736.556, 74.901 739.619 C 73.420 741.404, 75.898 744.400, 81 746.990 C 96.946 755.084, 145.170 753.024, 149.977 744.043 C 155.620 733.499, 133.993 726.759, 105.244 730.103 M 185.424 747.871 C 176.984 749.617, 172 752.063, 172 754.458 C 172 756.046, 187.784 755.644, 193.520 753.910 C 199.045 752.239, 217.218 751.006, 228.934 751.506 C 242.939 752.104, 240.715 750.875, 222.500 747.950 C 208.108 745.639, 196.334 745.614, 185.424 747.871" stroke="none" fill="#1b1f3a" fill-rule="evenodd"/>
</svg>