<svg xmlns="http://www.w3.org/2000/svg" viewBox="0 0 768 768" version="1.1" preserveAspectRatio="xMidYMid meet"><path d="M 267.4 10.9 C 266.9 11.2, 266.5 26.1, 266.5 44 C 266.5 66.3, 266.1 77.8, 265.3 80.5 C 264.6 82.7, 263.1 87.9, 261.9 92 C 257.7 106.7, 249.5 129.6, 244.6 140.2 C 243.2 143.3, 242 146.2, 242 146.5 C 242 146.8, 238.9 153.3, 235.2 160.8 C 227.2 176.7, 217 192.9, 209.3 201.7 C 202.7 209.3, 202.7 210.8, 209.8 212.8 L 215 214.3 215 223.3 C 215 231, 215.3 232.7, 217 234.5 C 219.2 236.8, 219 240.2, 215.9 254 C 213.4 264.9, 202.5 282, 198 282 C 194.4 282, 192.8 284.4, 192.3 291 C 192.1 294.6, 191.2 298.5, 190.4 299.7 C 188.5 302.8, 188.6 305.2, 190.8 304.8 C 192.3 304.5, 192.5 305.6, 192.8 314.8 C 193 321.4, 193.5 325, 194.2 325 C 194.9 325, 195.1 330.3, 194.8 343 C 194.5 352.9, 194.6 361, 194.9 361 C 195.2 361, 197.3 360.3, 199.5 359.5 C 206 357.2, 206 357.2, 206 365.5 C 206 372.8, 206 373, 203.3 373.6 C 200.4 374.2, 196.5 375.4, 194 376.4 C 192.8 376.9, 192.6 376.1, 192.9 371.9 C 193.1 369, 193.5 367.3, 194 367.9 C 194.6 368.9, 195.7 368.9, 199.1 367.9 C 204.6 366.4, 205.4 365.7, 204.6 363.2 C 203.9 361, 198.5 361.5, 195.5 364 C 194.3 365, 194 364.9, 194 363.2 C 194 360.2, 193.1 360, 187.5 361.5 C 178.8 363.8, 179.2 363.2, 178.7 372.8 C 178.5 377.6, 177.8 383.3, 177.2 385.5 C 176.6 387.7, 176 394, 176 399.6 C 176 411.5, 175.9 411.4, 189.8 419.5 L 198.5 424.6 198.3 430.1 C 197.7 449.2, 193.5 506.8, 192.5 510.5 C 192.3 511.6, 191.6 519, 191.1 527 C 190 543.6, 189.4 546.3, 187.4 543.5 C 186.6 542.5, 185.7 542, 185.3 542.4 C 184.2 543.4, 186.6 546.6, 188.2 546.1 C 193.3 544.6, 194 544.8, 194 547.1 C 194 551.3, 195.2 554.1, 196.6 553.6 C 197.7 553.2, 197.9 553.7, 197.4 555.5 C 196.9 557.5, 197.1 557.9, 198.4 557.4 C 199.7 556.9, 199.9 557.3, 199.3 560.1 C 198.9 562.4, 199 563.1, 199.9 562.6 C 201.5 561.6, 200.8 564.2, 199.1 565.6 C 198 566.4, 198 566.9, 198.9 567.4 C 200.5 568.4, 203 566.2, 203 564 C 203 561.1, 198.8 550.7, 196.8 548.4 C 194.9 546.3, 194.9 546.2, 198.1 545.1 C 199.9 544.5, 202.4 544, 203.6 544 C 204.9 544, 206 543.6, 206 543 C 206 541.7, 198.9 541.7, 195.6 543 C 192.2 544.3, 192.1 547.2, 196.5 495.5 C 197.3 485.6, 198.4 468.5, 199 457.5 C 199.5 446.5, 200.5 434.6, 201.1 431.2 C 202.5 423.3, 201.9 422.5, 189.2 416 C 184.2 413.4, 180.5 410.9, 180.5 410 C 180.5 408.7, 184.9 406.1, 194 402 C 194.8 401.6, 199.8 400.3, 205 399.1 C 210.2 397.9, 216.5 396.4, 219 395.8 C 234.5 392.1, 269.3 394.3, 289.5 400.3 C 300 403.4, 313 409.4, 313 411.1 C 313 412.4, 305.8 420, 305 419.5 C 304.1 419, 303.5 419.5, 300.2 423.9 C 299 425.5, 297.7 426.1, 296.7 425.7 C 294.7 425, 297 416.6, 299.9 414 C 300.9 413.1, 301.5 411.9, 301.2 411.2 C 300.4 408.6, 298.4 410.2, 296.6 414.8 C 294 421.6, 293 426, 294.2 426 C 298.1 426, 298.6 430.1, 297.3 455.4 L 296.7 469.2 294.3 468.6 C 293.1 468.3, 290.8 467.8, 289.3 467.5 L 286.5 467 289.5 468.5 C 291.2 469.3, 293.5 469.9, 294.8 470 C 296.9 470, 297 470.3, 296.9 480.3 C 296.8 485.9, 296.5 491.6, 296.1 493 C 295.4 495.5, 294.7 494.5, 291.1 485.5 C 287.4 476.6, 282.4 458.9, 283.6 459.4 C 284.3 459.7, 285.2 459.5, 285.5 459 C 285.9 458.4, 285 457.6, 283.6 457 C 279.8 455.6, 280.1 452.9, 284 453.7 C 286.6 454.2, 287 454, 287 452.1 C 287 450.6, 286.4 450, 284.6 450 C 283.3 450, 280.8 449.7, 279.1 449.4 C 276.1 448.8, 276 448.9, 276 452.1 C 276 455.1, 273.7 462.5, 270.1 471.3 C 269.5 472.9, 269 474.3, 269 474.5 C 269 474.7, 267.7 477.8, 266 481.3 C 264.4 484.9, 263 488, 263 488.2 C 263 488.8, 255 502.7, 251.8 507.5 C 248.2 513.1, 238.4 524.9, 235.4 527.3 C 234 528.3, 233.1 529.4, 233.3 529.6 C 233.5 529.8, 240.6 528.6, 249.1 527 C 262 524.4, 266.2 524, 275 524.3 C 290.7 524.9, 307.1 528.3, 311.9 531.9 L 314 533.5 312 537.7 C 309.6 542.8, 308.4 543.6, 306.2 541.7 C 299.8 535.9, 268.8 532.3, 253.5 535.5 C 244.6 537.4, 243.4 538.5, 246.6 542.1 C 250.3 546.2, 248.5 552.8, 243.3 554.4 C 241.8 554.9, 241 555.9, 241.1 557.3 C 241.1 558.5, 241.4 558.9, 241.7 558.2 C 242.1 557.2, 242.5 557.2, 243.6 558.1 C 244.7 559, 245 558.9, 245.1 557.4 C 245.1 556.3, 246.4 554.5, 248 553.2 L 250.9 550.9 251.4 553.2 C 252.3 557.3, 252.9 575, 252.2 575.4 C 250.6 576.4, 245.7 574.6, 245.3 572.9 C 244.9 571.3, 243 570.1, 243 571.4 C 243 574.1, 246.4 577.6, 249.5 578 L 253 578.5 253.4 590.4 C 253.9 602.2, 253.9 602.2, 251.7 601.5 C 221.7 592.3, 176.9 592.3, 152.7 601.6 C 147.4 603.6, 147.2 603.5, 148 598.7 C 148.5 595.2, 153.3 586.5, 156.1 584 C 156.4 583.7, 157.6 581.8, 158.9 579.7 C 161.3 575.8, 162.1 575.5, 170.8 574.6 C 174.8 574.2, 176 574.4, 176 575.5 C 176 576.3, 175.6 577.1, 175.1 577.4 C 173.7 578.3, 172 583.9, 173 584.5 C 173.5 584.8, 175.1 582.6, 176.6 579.5 C 178.4 575.9, 179.9 574, 181.1 574 C 182.1 574, 183.2 573.5, 183.6 572.8 C 184.9 570.7, 164.2 572.5, 159.3 574.9 C 154.9 577.1, 154 578.5, 156.3 579.3 C 156.9 579.5, 157.1 580.1, 156.7 580.6 C 156.3 581.1, 155.6 581, 155.2 580.4 C 154.8 579.8, 153.4 579.1, 152.2 578.7 C 150 578.2, 149.9 578.3, 151.4 579.9 C 153.1 581.7, 153.5 584.2, 152.4 585.3 C 152 585.7, 149.4 584.4, 146.6 582.4 L 141.5 578.8 146.4 583.3 L 151.3 587.7 149.2 589.8 C 147.8 591.2, 146.4 591.7, 145.3 591.3 C 143.7 590.7, 143.7 590.8, 144.9 592.3 C 146.3 594, 146 601.7, 144.5 606.8 C 143.6 609.7, 151.3 618.1, 153.2 616.2 C 153.9 615.5, 154.7 615, 155 615 C 155.9 615, 155.1 636.8, 153.8 646.1 L 152.6 654.8 150.1 652.4 C 148.7 651.1, 147.2 650, 146.7 650 C 145 650, 128.2 632.8, 127.6 630.4 C 127.2 629.1, 126.5 628, 126 628 C 125.4 628, 125 627.3, 125 626.5 C 125 625.7, 124.6 625, 124 625 C 122.7 625, 122.7 625, 124.9 629.6 C 127.5 634.9, 135.8 643.4, 145.2 650.3 C 151.7 655.1, 152.9 656.4, 153.2 659.2 C 153.4 661.3, 154 662.5, 155 662.6 C 157.5 662.6, 162.4 665, 163.8 666.7 C 164.4 667.6, 165 667.9, 165 667.3 C 165 666.7, 162.7 664.5, 159.9 662.5 L 154.8 658.9 155.4 653.7 C 156.8 640.1, 158 616.1, 157.4 612.6 C 157 609.9, 157.1 609, 157.9 609.4 C 158.5 609.8, 159 610.8, 159 611.6 C 159 612.4, 159.5 613, 160 613 C 160.6 613, 161 611.7, 161 610 C 161 606.4, 159.4 606.1, 155.6 609.1 C 153.5 610.8, 153.2 611.5, 154.1 612.6 C 155.7 614.6, 153.1 614.5, 150.2 612.4 C 145 608.8, 149.6 604.4, 161.9 601.2 C 169.1 599.4, 195.7 596.1, 203.5 596.1 C 213.1 596.1, 246.9 601.2, 252.3 603.5 C 254 604.2, 254.5 606.6, 253.4 609.4 C 252.5 611.8, 249.1 611.3, 243.1 608 C 236.6 604.4, 235 604.3, 232.8 607.4 L 231.1 609.7 235.3 609.3 C 238.4 608.9, 240.9 609.4, 244.3 611 C 249.3 613.4, 250 614.9, 247.3 617.6 C 246 618.9, 245.4 621.4, 245.2 626.9 C 245 631.1, 244.6 635.2, 244.3 636 C 243.4 638.5, 243.2 642.2, 242.4 672.3 L 241.7 701 236.5 701 C 229.6 701, 227 702.8, 229.3 706.1 C 230.3 707.4, 231 707.9, 231 707.2 C 231 704.6, 233.9 703, 238.4 703 C 241.2 703, 243 702.5, 243 701.9 C 243 701.1, 244.3 700.9, 246.8 701.3 C 252.7 702.3, 253.7 700.8, 249.5 697.6 C 247.5 696, 245.6 695, 245.4 695.3 C 245.1 695.6, 246.2 696.6, 247.9 697.6 C 249.6 698.6, 251 699.8, 251 700.2 C 251 701.3, 249.6 701.2, 248.5 700.1 C 247.9 699.6, 246.6 699, 245.6 698.8 C 243.3 698.4, 243.3 692.1, 245 659 C 246.2 637.3, 246.6 635.8, 250.9 634.9 C 254.2 634.2, 254.2 634.2, 253.7 637.7 C 253.3 640.1, 253.5 641, 254.3 640.7 C 255 640.5, 255.6 638.4, 255.8 636 L 256.1 631.8 251.6 632.4 C 247.3 633.1, 247 633, 247 630.8 C 247 628.7, 247.4 628.5, 252.2 628.7 C 257.9 629, 257.7 628.5, 251.8 627.5 C 247.2 626.8, 246.6 623.1, 250.3 617.5 C 252.3 614.4, 252.9 614, 257.1 614 C 260.5 614, 262 614.5, 262.4 615.6 C 263.4 618.2, 263.1 626, 262 626 C 261.5 626, 261 626.4, 261 626.9 C 261 628.1, 265.9 627.7, 279.5 625.5 C 285.6 624.5, 295.3 623.5, 301.2 623.3 L 312 622.8 311.4 629.2 C 311.1 632.6, 310.5 638.2, 309.9 641.5 C 309.4 644.8, 308.5 651.6, 308 656.5 C 307.1 665.4, 305.5 676.3, 302.5 695 C 301.6 700.2, 300.3 708.6, 299.5 713.5 C 296 737, 295.1 740, 291.8 740 C 289.5 740, 289.5 741.2, 291.8 743.3 C 294.3 745.6, 295 745.4, 295 742.6 C 295 738.8, 302 736.7, 326.5 733.5 C 369.6 727.8, 445 726, 475.5 730 C 492.3 732.2, 501 733.8, 502.5 735 C 503.1 735.4, 508 736.7, 513.5 737.9 C 527.3 741, 527 740.9, 527 739.9 C 527 738.7, 523.7 737.2, 522.1 737.8 C 521.2 738.1, 521 737.8, 521.5 737 C 522.1 736.1, 521.9 735.9, 521.1 736.4 C 519.4 737.5, 507.9 733.8, 508.4 732.4 C 508.7 731.7, 508.3 730.4, 507.5 729.4 C 506.5 727.9, 502 715, 502 713.5 C 502 713.4, 503.7 713, 505.9 712.6 C 510.3 711.9, 511.6 710.7, 512.4 706.5 C 512.9 704.2, 512.8 704, 512.1 705.5 C 510.9 708.3, 508.8 709.9, 505.2 711 C 501.4 712, 501.4 711.9, 499.4 698.5 C 498.6 693, 497.3 685.1, 496.5 681 C 495.8 676.9, 494.4 669.7, 493.5 665 C 492.6 660.3, 491.2 652.9, 490.5 648.5 C 489.7 644.1, 488.3 637.6, 487.4 634 C 486.6 630.4, 485.6 624.9, 485.3 621.8 L 484.8 616.1 488.6 615 C 490.8 614.4, 494.3 614, 496.5 614.2 C 500.4 614.5, 500.5 614.6, 500.8 618.8 C 501.1 622.6, 501.4 623.1, 503.3 622.8 C 504.8 622.6, 505.6 621.7, 505.8 620 C 506 617.6, 506 617.6, 504.5 619.4 C 503.1 621.3, 503 621.3, 503 618.6 C 503 616.6, 503.6 615.7, 505.3 615.2 C 507.3 614.7, 507.1 614.5, 504 613.7 C 499.7 612.5, 489.2 612.2, 486.4 613.3 C 484.5 614, 484.2 613.6, 483.7 608.8 C 483.3 606, 483.2 603.5, 483.3 603.3 C 484 602.6, 488 604.4, 488 605.4 C 488 609.2, 490.6 610.4, 496.1 609.2 C 499.1 608.5, 506.2 607, 512 605.9 C 522.1 603.9, 535.6 600, 539.2 598 C 541.9 596.5, 542 596.6, 542 603.5 C 542 607.1, 542.4 610, 542.9 610 C 543.4 610, 543.8 608.4, 543.7 606.5 C 543.5 602.7, 543.7 602.6, 549.5 604 C 559.4 606.5, 563 611.3, 563 621.9 L 563 627.3 559.9 626.6 C 558.2 626.3, 556.3 626, 555.9 626 C 555 626, 555.7 621.1, 556.7 620 C 557 619.7, 558 620.6, 559.1 621.9 C 560.8 623.9, 561.1 624, 561.6 622.5 C 562.7 619.7, 559.9 618.2, 552.5 617.8 C 545.6 617.5, 545.5 617.5, 545.5 620 C 545.5 622.2, 546 622.5, 549 622.7 L 552.5 622.9 549.5 621.5 L 546.5 620 549.9 620.3 C 552.8 620.5, 553.3 620.9, 553.6 623.3 C 553.8 625.2, 553.4 626, 552.3 626 C 549.1 626, 552 627.2, 557.7 628.4 L 563.5 629.5 564.2 634.5 C 564.6 637.3, 565.4 645.4, 566 652.5 C 567 665.7, 569.3 685.1, 571 695 C 571.5 698, 572.4 706.2, 573 713.3 C 573.6 720.3, 574.4 726.8, 574.7 727.6 C 575.2 729, 574.7 729.1, 571 728.5 C 567.7 727.9, 566.9 728.1, 567.2 729.1 C 567.5 729.9, 569.1 730.6, 570.9 730.8 C 573.6 731.1, 574.4 731.8, 575.7 734.8 C 577.3 738.4, 579.1 745, 578.5 745 C 578.4 745, 576.5 744.3, 574.4 743.4 C 572.2 742.4, 569.2 741.6, 567.5 741.4 C 557.3 740.3, 557.3 740.3, 556.7 734.5 C 556.1 728.9, 553.7 723, 551.9 723 C 551.2 723, 551.4 723.9, 552.3 725.3 C 553.1 726.6, 554.1 729.9, 554.5 732.6 C 555.5 739.4, 557.4 742.2, 560.5 741.4 C 562 741, 563 741.2, 563 741.9 C 563 742.5, 564.5 743, 566.3 743 C 573.6 743, 579.1 747.3, 579.5 753.3 C 579.9 760.2, 581.2 766, 582.2 766 C 582.8 766, 583 764.6, 582.6 762.8 C 582.2 761, 581.6 755.2, 581.1 750 C 580.6 744.8, 579.3 738.1, 578.2 735.3 C 577.1 732.4, 576.3 730, 576.5 730 C 582.5 730, 587 737.7, 587 748 C 587 753.2, 587.4 755.9, 588 755.5 C 588.6 755.2, 589 751.3, 589 746.9 C 589 737.6, 586.7 732.8, 580.6 729.5 C 577.5 727.8, 577 727, 577 724.1 C 577 720.6, 575.7 708.8, 573.9 695 C 571.3 675.4, 570 663.4, 569 650.5 C 568.4 642.8, 567.7 635.9, 567.5 635.3 C 566.9 633.6, 569.9 633.7, 575.2 635.4 C 577.6 636.2, 582.9 637.8, 587 639.1 C 591.1 640.3, 595.2 641.7, 596 642.1 C 599.1 643.7, 607.7 645.9, 613 646.5 C 617.6 646.9, 618.1 646.8, 615.8 645.9 C 614.2 645.3, 613 644.1, 613 643.2 C 613 640.8, 617.4 627, 618.2 627 C 618.5 627, 619.3 629.4, 620 632.3 C 620.6 635.1, 621.5 638.4, 622 639.5 C 623.8 643.6, 623.8 647, 622.1 647.1 C 621.2 647.1, 623.4 648.2, 627 649.5 C 630.6 650.8, 633.6 652.4, 633.8 653 C 634 653.5, 634.6 653.8, 635.1 653.4 C 635.6 653.1, 638 653.6, 640.4 654.5 C 642.8 655.4, 646.2 656.2, 648.1 656.3 L 651.5 656.5 651.8 664.8 C 652 669.3, 652 673, 651.8 673 C 649.8 672.9, 640.3 669.8, 638.6 668.7 C 637.2 667.8, 635.8 667.5, 635 668 C 632.7 669.4, 631.9 668, 633.5 665.7 C 634.3 664.5, 635 661.7, 634.9 659.5 L 634.8 655.5 633.5 660.4 C 631.9 666, 630.6 667.2, 627.3 665.9 C 625.9 665.4, 623.7 665, 622.2 665 C 619.6 665, 619.5 664.8, 619.8 661 C 620.2 656.7, 618.8 655.6, 617 659 C 615.1 662.6, 612.7 663.1, 608.4 660.8 C 606.3 659.6, 603.1 658.8, 601.3 658.9 C 599.6 659, 597.9 658.6, 597.5 658 C 597.2 657.5, 595.4 657, 593.6 657 C 591.7 657, 589.7 656.3, 589 655.5 C 588.2 654.5, 585.9 654, 581.8 654 C 576.3 654, 576 653.9, 577 652.1 C 578.2 649.7, 578.3 641.7, 577.1 642.4 C 576.6 642.7, 576 644.7, 575.7 646.7 C 575.5 648.8, 575 651.7, 574.6 653.1 C 574 655.7, 574.1 655.7, 580.7 656.3 C 584.4 656.7, 587.6 657.4, 588 658 C 588.3 658.5, 591.3 659.4, 594.6 660 C 597.8 660.5, 603.5 662, 607.1 663.2 L 613.7 665.3 614.3 675.8 C 614.6 681.7, 615.4 686.8, 616.1 687.4 C 617 688.2, 617.1 685.9, 616.6 677.8 C 616.2 671.8, 616.2 667, 616.6 667 C 618.2 667, 636.1 671.4, 643.8 673.8 C 650.7 675.9, 652.1 676.6, 652.6 678.7 C 653.5 682.1, 652.5 692.9, 650.9 696.5 L 649.7 699.5 648.8 695.5 C 648.3 693.3, 647.6 688.2, 647.3 684.1 C 647 679.4, 646.5 677.2, 645.9 678.1 C 644.7 680.1, 644.8 688.3, 646.1 691.7 C 647.7 695.8, 647.6 711.5, 646 713.5 C 644.1 715.8, 643 713.7, 643 707.8 C 643 701.4, 640.2 690.9, 637.9 688.6 C 635.7 686.2, 634.1 687.3, 636.2 689.7 C 640.5 694.7, 642.9 713, 639.3 713 C 638.3 713, 639.4 714.1, 641.9 715.5 C 647 718.5, 647 718.5, 647 716.3 C 647 715.4, 647.8 713.8, 648.7 712.8 C 649.8 711.6, 650.3 709.3, 650.3 706 C 650.2 703.2, 650.7 700.4, 651.3 699.7 C 654.5 696.4, 655 692.6, 655 673 C 655 661.6, 654.6 652.9, 654.1 652.5 C 653.5 652.2, 652.8 648.8, 652.4 645 C 652 641.1, 651.3 637.7, 650.9 637.4 C 649.5 636.6, 649.9 633.1, 651.6 630.4 C 653.2 628, 653.3 628, 654.6 629.9 C 655.4 631, 655.7 632.6, 655.3 633.7 C 654.7 635.3, 654.8 635.3, 656.2 634.2 C 657.6 633, 657.7 632.5, 656.5 629.7 C 654.8 625.6, 653.7 625.3, 651.2 628.5 C 648.6 631.8, 647.7 631.7, 645.8 627.5 L 644.2 623.9 648.2 622 C 652.3 620.1, 662.7 618.6, 682.5 617.1 C 689.7 616.6, 691.8 616.2, 688.5 616 C 682.3 615.7, 684.1 615.6, 673.1 616.5 C 665.6 617, 663.9 616.9, 664.2 615.8 C 664.5 615.1, 665.6 614.4, 666.7 614.2 C 668.7 613.9, 670.1 610.7, 669.2 608.2 C 668.5 605.9, 667.3 607, 667.8 609.5 C 668.1 611.5, 667.8 612, 666.1 612 C 664.7 612, 663.6 612.9, 663 614.5 C 662.3 616.3, 661.3 617, 659.5 617 C 656.6 617, 644.8 620.9, 643.9 622.2 C 643.6 622.6, 642.6 620.5, 641.6 617.4 C 640.6 614.3, 640 611.7, 640.2 611.6 C 641.4 610.9, 649.6 609.2, 650.2 609.6 C 650.7 609.9, 651 611, 651 612 C 651 613, 651.5 614.2, 652.2 614.6 C 653 615.1, 653.1 614.3, 652.7 611.7 L 652.2 608.2 657.8 607 C 671.5 604.3, 674.1 604, 683.9 603.9 C 690.4 603.9, 693.8 603.5, 692.9 602.9 C 687.9 599.8, 652.2 604.8, 638.6 610.5 C 637.2 611.1, 636.9 611, 637.5 610.1 C 639.4 606.9, 654.5 602.7, 670.5 600.9 C 682.7 599.4, 698.2 600.7, 711 604.1 C 719.8 606.4, 721.2 606.7, 726.4 607.8 C 728.6 608.2, 730.5 609.1, 730.8 609.8 C 731.3 611.5, 727 611.3, 724.6 609.5 C 723.5 608.7, 721.5 608, 720.1 608.1 C 717.9 608.1, 718.2 608.4, 721.7 609.8 C 727.9 612.3, 728.1 612.8, 725.2 618.8 C 722.7 624.1, 722.6 624.2, 719.1 623.5 C 715.7 622.9, 715.6 622.9, 717.5 624.4 C 718.6 625.2, 720.1 626, 720.8 626 C 721.6 626, 722 627.7, 722 631.1 C 722 636.1, 721.9 636.2, 719.5 635.7 C 716.9 635.3, 716.1 637.9, 718.5 638.7 C 720.9 639.5, 722.8 636.3, 723.4 630.9 C 724 624.6, 727.5 616.3, 731.4 611.9 C 735.1 607.7, 734.7 605.7, 729 600.9 C 715.8 589.8, 702.3 569.2, 692 544.5 C 689.7 539, 687.2 533.1, 686.4 531.3 C 685.6 529.6, 685 527.8, 685 527.3 C 685 526.8, 683.9 523.5, 682.5 519.9 C 681.1 516.4, 679.7 510.9, 679.4 507.6 L 678.9 501.7 684.2 502.4 C 687.1 502.8, 689.9 503.5, 690.5 503.9 C 691.9 505.1, 705 507.4, 705.7 506.6 C 706.1 506.3, 705.5 506, 704.4 506 C 703.4 506, 698.7 504.6, 694 503 C 689.4 501.3, 684.1 500, 682.3 500 L 679 500 679 490.4 L 679 480.8 681.5 481.4 C 682.9 481.8, 688.1 484.5, 693 487.5 C 704.6 494.6, 708.7 496.3, 710.9 495 C 712.2 494.2, 712.1 494.1, 710 494 C 708.6 494, 704.3 492.1, 700.5 489.9 C 691.6 484.7, 677.9 477, 677.4 477 C 677.2 477, 677 484.5, 677 493.8 C 676.9 512.5, 677.4 510.2, 667.2 537.5 C 657.6 563.1, 647.4 584.2, 637.9 597.9 C 630.8 608.2, 630.4 611.1, 635.7 613.9 C 636.9 614.5, 638.7 616.6, 639.6 618.5 L 641.2 621.9 637.6 625.3 C 635.6 627.2, 634 629.3, 634 629.9 C 634 630.7, 634.6 630.5, 635.6 629.5 C 640.1 625, 644 624.1, 644 627.5 C 644 628.2, 644.6 629.5, 645.3 630.2 C 647.5 632.4, 649.9 641.1, 650.2 648 C 650.5 655.4, 649.8 655.7, 641.5 652 C 639.3 651, 636.5 649.9, 635.3 649.6 C 634.1 649.2, 632.3 647.5, 631.2 645.8 C 629.9 643.9, 629 643.2, 628.5 643.9 C 628.1 644.6, 628.4 645.7, 629 646.5 C 630.4 648.2, 629.3 648.5, 627.1 647.1 C 626.3 646.6, 625.5 644.4, 625.5 642.3 C 625.4 640.2, 624.7 637.2, 624.1 635.5 C 623.4 633.9, 622.6 631.3, 622.3 629.7 C 622 628.2, 621.4 626.7, 620.9 626.4 C 620.4 626.1, 620 623.9, 620 621.4 C 620 618.2, 619.6 617, 618.5 617 C 617.5 617, 617 618, 617 619.8 C 617 621.4, 616.4 624, 615.6 625.6 C 614.9 627.2, 613 631.8, 611.5 635.7 C 608.7 643.4, 607.7 644.7, 605.7 643.3 C 605 642.8, 602.6 641.8, 600.3 641.1 L 596 639.9 596 631.9 C 596 626.3, 596.5 623.2, 597.6 621.5 C 600 617.9, 598.6 613.8, 591.5 603 C 588 597.8, 584.9 591.9, 584.5 590 C 584.1 588.1, 582.3 584, 580.4 580.9 C 574.8 571.6, 575.2 571, 586.8 571 C 596.8 571, 604 569.7, 604 567.9 C 604 567.3, 600.9 562.7, 597.2 557.7 C 593.5 552.6, 588.6 545.8, 586.5 542.5 C 584.3 539.2, 582.1 536.2, 581.5 535.8 C 580.9 535.3, 581 534.3, 581.8 533 C 582.5 531.8, 584 529.1, 585.2 526.9 L 587.2 523 597.1 523 C 610.5 523, 610.5 522.8, 596.2 501.2 C 592.1 495, 588.9 489.7, 589.2 489.5 C 589.4 489.2, 591.3 489.9, 593.3 490.9 C 602.5 495.6, 601.7 493.8, 590.4 484.5 C 581.6 477.3, 569.8 465.5, 564.3 458.5 C 545 433.8, 519.9 403.4, 503.7 385.3 L 501.7 383.1 504.5 382 C 507.1 381, 521.4 367.3, 527.2 360.2 C 530.1 356.6, 530.4 356.6, 540.3 359.7 C 548 362.2, 549.9 368.1, 544.9 374.3 C 540.7 379.7, 536.8 376.3, 540.6 370.5 C 541.5 369.2, 542 367.5, 541.8 366.9 C 541.2 365.2, 537 372.7, 537 375.4 C 537 381.1, 542.6 381.6, 546.9 376.3 C 554 367.7, 547.4 356, 535.6 356 C 531.7 356, 531.9 355, 537.1 348.2 C 539.8 344.6, 542 341.3, 542 340.9 C 542 340.4, 544.7 340, 548 340 C 551.3 340, 554.8 339.6, 555.8 339.1 C 556.7 338.7, 559.2 337.5, 561.3 336.5 C 565.2 334.6, 569.6 328.8, 568.5 327 C 567.5 325.3, 559.9 325.9, 556.6 327.9 C 554.9 328.9, 552.1 329.8, 550.3 329.8 C 546.1 329.9, 543.3 331.5, 542.4 334.2 C 541.3 337.8, 534 348.1, 529.7 352.1 C 526.1 355.6, 525.4 355.9, 517.4 356.5 C 503.4 357.7, 490.9 355, 487.8 350.1 C 487.1 348.9, 485.7 348, 484.7 348 C 483 348, 483 348.2, 485 351 C 489.6 357.5, 502.4 360.8, 516.2 359 C 520.7 358.5, 524.5 358.1, 524.6 358.3 C 526.2 359.9, 504.6 380, 501.4 380 C 498.2 380, 481 351.8, 481 346.6 C 481 345.8, 480.7 345, 480.3 344.8 C 477.9 343.8, 469.1 327.8, 469 324.4 C 469 320.9, 464.8 315.8, 459.9 313.3 C 455.7 311.1, 455 310.1, 450.2 300 C 445 289, 442.3 285.2, 443.6 290.7 C 444 292.2, 444.6 294, 444.9 294.5 C 445.3 295.1, 446.9 298.9, 448.5 303 C 450.1 307.1, 451.7 310.9, 452.2 311.5 C 452.6 312, 453 314.6, 453 317.3 C 453 322.5, 455 327.4, 457.6 328.4 C 459.7 329.2, 460.6 328.6, 464.1 323.8 L 467 319.7 467 323.6 C 467 325.7, 466.2 329.1, 465.2 331 C 463.6 334.3, 462.1 335.2, 455.9 336.5 C 453.8 336.9, 453.1 337.7, 452.5 340.6 C 450.7 350.4, 438.3 361.1, 422.9 366.1 C 403 372.6, 384.8 372.2, 369.5 364.7 C 354.5 357.3, 350.7 351.5, 349.6 334.4 C 349.3 329.3, 348.6 324.1, 348.1 322.7 C 347.2 320.3, 347.3 320.2, 349.8 320.4 C 351.8 320.6, 352.8 321.5, 353.5 323.6 C 357 333.5, 359.5 335.2, 369.4 334.8 C 375.1 334.5, 376.5 334, 378.1 332.1 C 382.1 327.2, 379.6 315.9, 373.4 310.3 C 370.4 307.5, 362 307.1, 360 309.5 C 359.3 310.3, 358.1 311, 357.4 311 C 356.6 311, 355.5 311.9, 354.8 313 C 353.9 314.4, 352.4 315, 350 315 C 345.9 315, 344.5 312, 344.1 301.8 C 343.9 295, 345.2 293.5, 358.5 285.6 C 370.1 278.7, 377.7 271.4, 381.4 263.8 C 383 260.6, 384.4 258, 384.6 258 C 384.8 258, 385.8 259.7, 386.9 261.8 C 391.2 270.2, 406.5 281, 414 281 C 415 281, 416.1 281.4, 416.4 281.9 C 416.7 282.3, 418.7 283, 420.8 283.4 C 425.1 284, 435 289.2, 433.3 289.7 C 432.6 290, 430.8 289.4, 429.1 288.6 C 423.9 285.9, 408 286.7, 408 289.6 C 408 292.1, 411.4 293, 415.6 291.5 C 417.7 290.7, 421.5 290.1, 423.9 290 C 428.1 290, 428.2 290.1, 426.4 291.5 C 424.5 292.9, 424.5 292.9, 426.7 293 C 427.9 293, 429.2 293.5, 429.5 294 C 429.9 294.6, 430.6 294.7, 431.2 294.4 C 431.8 294, 431.7 293.4, 430.9 292.8 C 429.8 292, 429.8 291.9, 431 292.3 C 431.8 292.5, 432.5 293.4, 432.4 294.1 C 432.3 294.9, 433.4 296.3, 434.7 297.3 C 437.8 299.7, 439 297.2, 436.6 293.5 C 435.4 291.7, 435.3 291.2, 436.4 291.6 C 438.4 292.4, 440.4 296.6, 439.6 298.6 C 439 300.2, 439.1 300.2, 441 298.5 C 443.6 296.1, 443.5 294.3, 440.5 289.8 C 437 284.7, 432.2 282, 422.2 279.8 C 406.3 276.3, 400 273.2, 393.1 265.4 C 388 259.5, 385.7 255.1, 386.2 251.3 C 386.5 248.5, 386.5 248.5, 388.4 252.5 C 395.8 268.2, 414.7 278.3, 436.5 278.2 C 459 278.2, 463.7 281, 479 304 C 486.8 315.8, 489.5 318.7, 493.2 319.5 C 497.6 320.5, 497.5 319.6, 493 316.5 C 487 312.4, 486.7 311.2, 485.9 292.5 C 485 273.3, 483.6 266.8, 478.2 256.6 C 474.5 249.6, 465 239, 455.9 231.8 C 453.3 229.7, 450.4 226.2, 449.2 223.6 C 448 221.2, 445.8 217.9, 444.3 216.5 C 440.4 212.9, 428.5 207.3, 422.8 206.5 C 418.3 205.8, 417.8 205.4, 415.1 200.6 C 411.3 194, 407.7 186.8, 405 180.5 C 403.8 177.8, 402.2 174.1, 401.4 172.3 C 400.6 170.6, 400 168.7, 400 168.1 C 400 167.5, 399.6 166.2, 399 165.2 C 398.5 164.3, 397.1 160.9, 396 157.6 C 394.1 151.8, 394.1 151.7, 396 149.3 C 397.5 147.4, 397.7 146.4, 396.8 143.7 C 395 137.6, 393 128.5, 392 121.5 C 391.5 117.7, 390.6 112.9, 390 111 C 388.8 106.7, 388.7 79.1, 389.9 77.1 C 391.1 75.3, 402.1 76.6, 414.5 79.9 C 418.9 81.1, 427.2 82.5, 433 83 C 447.6 84.3, 452.8 86, 460.1 92.3 C 469.7 100.5, 470 100.6, 470 98.1 C 470 96.9, 469.4 94.7, 468.6 93.2 C 467.3 90.5, 461 72.7, 461 71.6 C 461 70.6, 471.6 70.9, 477 72.1 C 479.8 72.7, 482.4 73, 482.7 72.7 C 485.3 70, 455.2 54.1, 433.9 46.9 C 425.1 44, 423.6 43.8, 410.8 43.8 L 397 43.9 397 40.1 C 397 35.7, 395.5 34, 391.1 33.5 C 387 33, 384.1 36.8, 385.8 40.5 C 387.1 43.4, 387.2 98.4, 386 108 C 385.5 111.6, 384.4 117.7, 383.6 121.5 C 382.7 125.4, 381.5 131.2, 380.9 134.5 C 380.3 137.8, 379.4 140.9, 378.9 141.5 C 377.6 142.9, 377.9 147.2, 379.4 149.3 C 381.1 151.6, 380.7 153.2, 375.4 165.7 C 374.6 167.4, 374 169.2, 374 169.8 C 374 171.4, 367.9 184.8, 362.2 196 C 350 219.7, 345.6 227.3, 342.2 230.8 C 339.7 233.5, 334.8 241.2, 332.9 245.4 C 331.4 248.8, 329.8 250.5, 325.6 252.9 C 313.9 259.5, 307.3 276.7, 310.5 292.2 C 313 304, 323.5 320, 328.8 320 C 331.8 320, 332.4 321.6, 330.3 324.4 C 329.1 326.1, 327.9 326.7, 326.7 326.4 C 323.4 325.4, 317.7 332.6, 318.4 336.9 C 318.8 338.9, 319.5 344.1, 320.1 348.5 C 320.7 353.4, 322.1 358.4, 323.5 361.3 C 326.5 366.9, 326.2 367, 320.5 362.7 C 318.1 360.8, 313.6 358.5, 310.5 357.5 C 304.6 355.7, 293 346.3, 293 343.4 C 293 342.6, 292.6 342, 292 342 C 291.5 342, 291 342.5, 291 343.1 C 291 344.6, 297 352.8, 298.6 353.4 C 299.4 353.7, 299.7 354.7, 299.4 355.7 C 299 356.8, 299.1 357.1, 299.7 356.4 C 300.3 355.6, 301.5 355.8, 304 357.1 C 307.4 359, 307.4 359, 304.7 359 C 303.2 359, 302 359.5, 302 360 C 302 360.7, 303.3 360.8, 305.7 360.4 C 309.1 359.8, 309.3 359.8, 308.7 362.1 C 308.3 363.4, 308 366.7, 308 369.3 L 308 374.1 305.4 372.1 C 302.8 370, 296.6 369.2, 295.6 370.8 C 295.3 371.3, 296.3 371.5, 297.8 371.2 C 300.4 370.9, 300.6 371.1, 300.7 374.8 C 300.9 378.4, 300.7 378.7, 298.7 378.2 C 297.5 377.9, 297.1 377.5, 297.8 377.2 C 298.4 377, 299 375.9, 298.9 374.7 L 298.9 372.5 297.3 374.8 C 294.3 379.1, 293 377.6, 293 369.5 C 293 363.1, 292.7 361.8, 290.8 360 C 286.9 356.4, 277.2 354.7, 276.3 357.5 C 276.1 358.1, 278.2 358.5, 281.3 358.5 C 289.3 358.6, 291 360.6, 291 369.6 C 291 377.4, 291.7 378.6, 296.8 379.6 C 298.6 380, 300 380.7, 300 381.2 C 300 381.8, 300.6 382, 301.4 381.7 C 303.6 380.8, 308.6 386.1, 309.9 390.6 C 310.5 392.9, 311.3 397.5, 311.6 400.9 L 312.3 407 307.9 404.7 C 305.5 403.5, 300.1 401.4, 296 400.2 C 291.9 398.9, 287 397.4, 285.2 396.9 C 283.4 396.3, 279.1 395.4, 275.7 394.8 C 272.3 394.3, 267.3 393.5, 264.5 393 C 257.6 391.8, 229.8 391.8, 222.5 393 C 204.6 395.8, 189.8 400.2, 182.6 404.7 C 177.5 408, 177.1 407.2, 178.1 395.5 C 179 385.3, 180 383, 183.9 383 C 184.8 383, 186.8 382.3, 188.4 381.5 C 189.9 380.7, 191.8 380, 192.5 380 C 193.2 380, 194.3 379.4, 194.9 378.6 C 195.9 377.4, 209.9 374.4, 217.4 373.7 C 220.6 373.5, 223.5 368, 220.4 368 C 219.6 368, 219 368.9, 219 370.1 C 219 371.3, 218.5 372, 217.8 371.8 C 216 371.2, 215.1 358.1, 216.7 357.1 C 217.8 356.5, 218.9 321.7, 218 317.5 C 217.2 313.9, 219.6 312.9, 230.1 312.9 C 236.8 312.9, 239.8 311.6, 236.5 310.3 C 234.7 309.7, 216.3 311.3, 215.4 312.3 C 215.1 312.6, 215.4 314.4, 216 316.2 C 217.8 321, 216.1 355.1, 214.1 355.8 C 213.2 356.1, 212.9 355.8, 213.2 354.8 C 213.6 354, 213.4 352.7, 212.9 351.9 C 212.2 350.8, 212 351, 212 352.8 C 212 354, 211.5 355, 211 355 C 210.4 355, 210.2 353.5, 210.6 351.3 C 210.9 349.2, 211.3 345, 211.5 342 C 211.6 339, 212.1 334.5, 212.5 332 C 213 328.7, 212.9 327.9, 212.1 329 C 211.3 330.2, 211.1 329.6, 211.2 326.7 C 211.4 322.1, 209.2 319.5, 205.8 320.3 C 202.1 321.3, 200.8 324.6, 200.2 335.4 C 199.7 345, 199.8 345.4, 201.5 344 C 202.9 342.8, 203.1 341.5, 202.7 337 C 202.4 333.8, 202.5 332.5, 202.9 334 C 203.7 336.5, 203.7 336.4, 204.8 333 L 205.8 329.5 205.9 334.1 C 206 336.9, 206.6 339.2, 207.5 340 C 208.6 340.9, 209 343.3, 209 348.5 L 209 355.7 205.4 355.8 C 203.4 355.9, 200.6 356.5, 199.2 357.3 L 196.5 358.6 196.8 341.5 C 197.2 321.5, 196.9 322.7, 201.9 319.5 C 206.2 316.9, 209.9 316.3, 211.7 318.1 C 212.4 318.8, 212.9 318.4, 213.2 316.6 C 213.6 314.4, 213.4 314, 211.4 314 C 210.2 314, 209 314.5, 208.8 315.1 C 208.6 315.7, 206.6 316.3, 204.3 316.4 C 202 316.4, 200.3 316.7, 200.5 317 C 200.6 317.3, 199.7 318.5, 198.4 319.8 L 196 322.1 196 314.3 C 196 310, 195.7 305.6, 195.4 304.4 C 194.8 302.2, 199.2 300.1, 208.2 298.5 C 211.8 297.8, 211.9 297.9, 212.5 301.4 C 212.9 303.4, 213 306.4, 212.8 308 C 212.4 310.4, 212.7 311, 213.9 310.8 C 216 310.3, 215.6 302.6, 213.4 299.2 C 211.5 296.2, 211.6 296.1, 218.1 294.9 C 232.5 292.1, 253.6 291.3, 263.5 293 C 296.6 298.9, 303.9 302.4, 302.5 311.6 C 301.7 317.4, 303.3 316.7, 304.9 310.6 C 305.5 308.1, 306 305.7, 306 305.2 C 306 303.9, 299.7 300.2, 296.2 299.4 C 294.7 299, 292.9 298.3, 292.3 297.8 C 291.6 297.2, 290.3 297, 289.5 297.4 C 288.7 297.7, 288 297.6, 288 297.1 C 288 296.6, 286.5 296, 284.8 295.6 C 267.2 292.6, 268.3 293.5, 270.6 284.6 C 271.1 282.6, 270.9 282, 269.5 282 C 268.3 282, 268 282.5, 268.4 283.6 C 268.8 284.6, 268.5 285, 267.8 284.7 C 267.1 284.5, 266.5 283.7, 266.5 282.9 C 266.4 280.3, 264.5 278.4, 261 277.4 C 255 275.7, 258.6 268.6, 265.1 269.2 C 268.4 269.5, 268.5 269.6, 268.5 274.2 C 268.5 276.8, 269 279, 269.5 279 C 270.1 279, 270.5 276.4, 270.5 273.3 L 270.5 267.6 266.7 266.7 C 262.7 265.7, 258 267.7, 258 270.3 C 258 271, 257.1 273.2, 256 275.3 C 253.5 279.9, 253.5 280.1, 256.3 279.9 C 260.9 279.5, 264.1 280, 263.5 281.1 C 263.1 281.7, 263.7 282.8, 264.9 283.6 C 266.3 284.6, 267 286.2, 267 288.2 L 267 291.3 261.8 290.6 C 258.9 290.3, 254.4 290, 251.8 290 L 247 290 247 279.1 C 247 273, 246.6 267.9, 246.2 267.6 C 244.6 266.6, 232.5 265.9, 231.3 266.8 C 230.4 267.3, 229.9 271.4, 229.8 279.3 L 229.5 291 226.9 291 C 225.5 291, 223 291.4, 221.4 291.9 C 219.8 292.4, 214.9 293.8, 210.5 295 C 206.1 296.2, 201.6 297.5, 200.5 297.9 C 199.4 298.4, 197.3 299.2, 195.8 299.9 C 192.6 301.1, 192.2 300.1, 194.8 297.2 C 196.6 294.9, 205.5 290, 207.6 290 C 208.3 290, 209 289.6, 209.2 289 C 209.4 288.5, 211 287.8, 212.8 287.4 C 215.6 286.8, 216 287, 216 288.9 C 216 290, 216.5 291, 217 291 C 217.6 291, 218 290.5, 218 289.9 C 218 289.2, 218.9 289, 220.4 289.4 C 223.7 290.2, 225 288.2, 225.6 281.3 C 225.9 278.1, 226.2 274.1, 226.5 272.4 L 226.8 269.3 221.8 269.8 L 216.8 270.3 217.5 260.4 C 217.9 254.9, 218.6 249.6, 219 248.5 C 219.4 247.4, 220.1 243.7, 220.5 240.3 C 221.1 234.7, 221.5 233.9, 224.4 232.2 C 227.3 230.5, 235.8 227.6, 240.5 226.7 C 242.2 226.4, 242 226.2, 239.6 225.5 C 237.9 225, 236.5 225.1, 236.1 225.8 C 235.8 226.3, 233.4 227.1, 230.8 227.5 C 227.9 227.9, 226.3 228.6, 226.7 229.3 C 227.1 229.9, 226.5 230.1, 225.2 229.8 C 224 229.4, 223.2 229.5, 223.4 229.8 C 223.6 230.2, 222.7 231.3, 221.4 232.3 C 219 234.1, 219 234.1, 217.9 231.3 C 217.3 229.8, 216.7 225.4, 216.5 221.5 C 216.1 208, 216.5 209, 211.9 209 C 208.3 209, 207.9 208.8, 209 207.5 C 209.7 206.7, 210.8 206, 211.4 206 C 212 206, 215.4 204.6, 219 202.9 C 235.4 195.1, 258.4 192.3, 276.5 195.7 C 281.9 196.8, 281.3 196.8, 269.9 196.3 C 254.3 195.6, 241.3 197.2, 229.5 201.2 C 218.1 205.1, 216.5 205.9, 217.8 207.2 C 218.5 207.9, 219.5 207.8, 220.8 207.1 C 222 206.5, 223.7 206, 224.7 206 C 225.7 206, 227.9 205.3, 229.5 204.4 C 237.5 200.2, 240.9 199.7, 263 199.6 L 284.5 199.5 294.5 202.8 C 300 204.6, 306.5 207, 308.9 208.1 L 313.3 210.1 312.6 215.3 C 311.8 222.1, 310.1 228, 309 228 C 307.5 228, 304 221.4, 304 218.6 C 304 214.9, 302.6 215.4, 301 219.8 C 300.2 221.8, 299.3 223.9, 299.1 224.4 C 298.9 224.8, 299.7 224.9, 300.8 224.6 C 303.4 223.8, 306 226.3, 306 229.7 C 306 231.6, 305.6 232.1, 304.4 231.6 C 303.5 231.3, 301.7 230.7, 300.4 230.4 C 298.5 229.9, 298.1 229.3, 298.5 227.6 C 298.9 226.2, 298.8 225.9, 298.2 226.8 C 297.6 227.7, 296 227.9, 292.9 227.5 C 288.7 226.9, 288.8 227.1, 296.8 230.9 C 305.5 235.2, 306.2 236.3, 303 240.1 C 301 242.5, 301 242.5, 299.5 240.5 C 296.1 236.1, 293.8 233.8, 293.3 234.3 C 293 234.6, 294.3 236.7, 296.1 238.9 L 299.4 243 300.1 258.8 C 301.2 281.1, 302.3 287.5, 306 294.5 C 309.1 300.5, 309.5 298.1, 306.5 291.5 C 302.9 283.8, 300 244, 303 244 C 306 244, 307.2 242.2, 307.4 237.1 C 307.6 234.3, 308.4 231.2, 309.2 230.3 C 311.1 228, 313.4 222.6, 315 216.8 C 316 213, 316.7 212, 318.4 212 C 322.7 212, 323.7 210.4, 321.6 206.8 C 311.1 188.6, 297.2 156.1, 291 135 C 289.8 130.9, 287.7 124.1, 286.4 120 C 283.8 111.5, 279.1 93.2, 276.6 82 C 275.7 77.9, 274.8 69.9, 274.6 64.3 C 274.2 52.3, 273.1 53.3, 287.2 53 C 297.3 52.9, 299.3 53.5, 304.5 58.3 C 306.8 60.4, 312.3 63.4, 316 64.5 C 318.5 65.2, 318.5 65.2, 316.5 63.4 C 315.4 62.3, 313.4 59.4, 312.1 57 C 310.8 54.5, 307.9 50.2, 305.8 47.4 C 303.7 44.6, 302 41.9, 302 41.3 C 302 40.7, 301.3 39.7, 300.5 39 C 297.1 36.2, 300.9 44, 307.7 53.9 C 312.8 61.2, 312.6 61.3, 304.1 55.3 L 297.5 50.5 285.8 50.8 L 274 51 274 35.2 L 274 19.4 282.2 18.3 C 293.2 16.8, 296.4 18, 305.5 27 C 313.1 34.4, 317.1 36.4, 327.4 37.6 L 333.2 38.3 329.3 40.1 C 327.2 41.1, 324.9 41.9, 324.3 42 C 323.6 42, 323 42.5, 323 43 C 323 43.6, 322.4 44, 321.6 44 C 320.8 44, 320.1 44.8, 320.1 45.8 C 320.1 46.7, 319.8 50.2, 319.5 53.5 C 318.8 60.1, 320.5 67, 323 67.8 C 324.1 68.2, 324 67.7, 322.6 66.2 C 321 64.3, 320.8 62.9, 321.3 56.1 C 321.9 46.2, 322.8 44.7, 328.7 42.5 C 340.3 38.2, 340.5 36.5, 329.7 35.7 C 319.2 34.9, 314.5 32.6, 305.9 24.3 C 297.9 16.6, 295.3 15.7, 283.2 16.6 L 274 17.2 272.9 14.2 C 271.9 11.3, 269.1 9.6, 267.4 10.9 M 269.2 32.5 C 269.4 43.5, 269.9 52.5, 270.3 52.5 C 271.8 52.5, 271.7 15.3, 270.2 13.8 C 269.2 12.8, 269 16.4, 269.2 32.5 M 389 57.5 L 389 74 395.3 74 C 398.7 74.1, 403.3 74.5, 405.5 75 C 420.5 78.4, 428.6 79.8, 436 80.4 C 448.3 81.3, 455.3 83.6, 460.6 88.5 C 463 90.8, 465 92.6, 465 92.5 C 465 92.3, 464.1 89.4, 463 86 C 461.9 82.6, 461 79.2, 461 78.5 C 461 76.6, 457.9 70.9, 456.6 70.4 C 456 70.2, 453.4 69.9, 450.7 69.7 C 445 69.2, 444.1 68.6, 447 67 C 448.3 66.3, 451.2 66.1, 454.8 66.5 C 466.6 67.8, 475 68.6, 475 68.3 C 475 67.9, 444.6 53, 443.7 53 C 443.2 53, 441.4 52.4, 439.7 51.6 C 431.6 48, 425.1 46.8, 410.3 46.3 C 395 45.8, 395 45.8, 395 43.4 C 395 41.4, 394.5 41, 392 41 L 389 41 389 57.5 M 265.5 90.9 C 265.2 91.6, 265.9 92, 267.2 92.1 C 269.2 92.2, 269.3 92.3, 267.5 92.7 C 264 93.6, 263.4 95, 266.6 95 C 268.7 95, 269.1 95.3, 268.1 95.9 C 267.3 96.4, 266.1 96.6, 265.4 96.3 C 264.8 96.1, 263.9 96.3, 263.5 96.9 C 263.1 97.7, 265.1 98, 269.8 98 L 276.7 98 276.1 94.3 C 275.5 90.6, 275.4 90.5, 270.8 90.2 C 268.3 90, 265.9 90.4, 265.5 90.9 M 263 100.1 C 263 100.6, 264.6 101, 266.6 101 C 268.5 101, 269.9 101.4, 269.6 101.9 C 269.3 102.4, 267.4 102.7, 265.5 102.5 C 263.6 102.3, 262 102.6, 262 103.1 C 262 103.6, 263.4 104, 265.1 104 C 269.4 104, 267.7 106, 263.2 106.1 L 259.5 106.2 262.5 107 C 264.2 107.4, 264.7 107.8, 263.8 107.9 C 262 108, 259 110.6, 259 112.1 C 259 112.6, 260.9 113, 263.3 113.1 C 267.1 113.1, 267.3 113.2, 265 114.1 C 263.6 114.7, 261.7 114.9, 260.8 114.6 C 259.7 114.4, 258.6 114.9, 258 116.1 C 257.4 117.1, 257.3 118, 257.7 118 C 258.1 118, 258 118.4, 257.5 118.8 C 254.7 120.8, 252.3 129, 254.1 130.1 C 255.2 130.8, 255.1 131, 253.7 131 C 252.7 131, 251.5 132.2, 251 133.6 C 249.7 137, 249.6 137, 252.8 137.1 C 255.4 137.2, 255.3 137.2, 252.2 138 C 247.2 139.2, 247.1 140, 252 140 C 257.2 140, 256.6 141.3, 251.3 141.4 C 248.4 141.5, 247.4 141.9, 247.2 143.5 C 246.9 145.1, 247.1 145.3, 248.1 144.3 C 248.9 143.5, 252.3 143, 256.9 143 C 266.3 143, 265.8 143.9, 256.2 144.2 C 252.2 144.3, 249 144.7, 249 145.1 C 249 145.5, 248.7 146.5, 248.4 147.3 C 248 148.4, 248.6 149, 250.7 149.3 C 252.2 149.5, 251.4 149.6, 248.8 149.4 C 244.3 149.2, 242.4 150.2, 245.3 151.3 C 246 151.6, 245.8 151.9, 244.8 151.9 C 241.2 152.1, 243.2 153.8, 247.7 154.5 C 252.2 155.1, 252.3 155.3, 250.2 156.4 C 248.9 157.1, 247.3 158.7, 246.6 160.1 C 245.7 162, 244.7 162.4, 242.3 162.2 C 240.6 162, 238.8 162.4, 238.4 163.1 C 237.7 164.2, 241.2 164.1, 254.4 162.7 C 255.4 162.6, 256.4 163, 256.6 163.5 C 256.8 164.1, 254.9 164.6, 252.3 164.6 C 239.7 165, 231.7 166.9, 242.1 167.1 C 246.6 167.1, 247.1 167.3, 245.1 168.1 C 241.1 169.7, 239.7 172.4, 242.3 173.2 C 243.6 173.5, 242.3 173.8, 238.8 173.9 C 230.4 174, 230.4 176, 238.8 176 C 243.2 176, 246.3 175.5, 247.6 174.5 C 248.6 173.7, 250.3 173, 251.2 173 C 252.1 173, 253.3 172.3, 253.8 171.4 C 254.5 170.1, 254.9 170, 255.5 171 C 255.9 171.7, 255.7 172.6, 254.9 173.1 C 253.7 173.9, 253.7 174.2, 255 175 C 256.3 175.9, 255.7 176.4, 253.8 176.1 C 253.3 176.1, 253 176.7, 253 177.5 C 253 178.7, 254.4 179, 259.2 179 C 267.4 179, 266.2 179.9, 257.7 180.1 C 248.5 180.4, 249.2 182, 258.5 182 C 262.8 182, 266 181.6, 266 181 C 266 180.5, 266.5 180, 267 180 C 267.6 180, 268 180.7, 268 181.5 C 268 182.3, 268.5 183, 269 183 C 269.6 183, 270 182.3, 270 181.5 C 270 180.7, 270.7 180, 271.5 180 C 272.3 180, 273 180.4, 273 180.9 C 273 181.4, 274 182.1, 275.3 182.3 C 277.2 182.7, 277.2 182.7, 274.8 182.9 C 273 183, 271.9 183.7, 271.4 185.3 C 271 186.5, 270.2 187.8, 269.6 188.2 C 268.1 189.2, 270.9 189.1, 273.5 188 C 275.5 187.2, 275.5 187.2, 273.5 186.4 C 272 185.8, 272.7 185.4, 277 184.4 C 279.9 183.8, 283.1 183.5, 283.9 183.9 C 284.8 184.3, 287 185.4, 288.8 186.3 C 290.7 187.2, 293 188, 294.1 188 C 296.2 188, 303.2 190.4, 307.3 192.6 C 308.9 193.5, 310 193.7, 310 193.1 C 310 191.9, 302.4 188, 300 188 C 299.1 188, 298 187.7, 297.6 187.3 C 296.8 186.4, 296.2 186.3, 292.5 186.1 C 291.1 186.1, 289.7 185.2, 289.3 184.3 C 288.9 183.3, 288.2 182.2, 287.6 181.8 C 287 181.4, 287.5 181, 288.8 181 C 290 181, 290.9 181.3, 290.9 181.8 C 290.5 184.1, 291.3 185, 293.9 185 C 295.5 185, 298.4 185.7, 300.3 186.5 C 302.3 187.3, 304.7 188, 305.6 188 C 308.2 188, 305.5 185.3, 302.2 184.7 C 300.7 184.3, 297.7 183.7, 295.5 183.2 L 291.5 182.2 295.3 182.1 C 297.4 182.1, 300 182.5, 301 183 C 302 183.6, 303.1 183.6, 303.4 183.1 C 304 182.1, 289.6 178.5, 288.2 179.4 C 287.6 179.7, 287 179.3, 286.6 178.5 C 286 176.8, 286.6 176.7, 290.6 177.9 C 292.2 178.4, 295.9 179.1, 298.8 179.5 L 304.1 180.1 302.5 177 C 301.3 174.7, 300.2 174, 297.7 173.9 C 294.7 173.7, 294.7 173.7, 297.3 173.3 C 298.8 173.1, 300 172.5, 300 172.1 C 300 170.7, 296.1 170.1, 292.8 171.1 C 290.9 171.6, 289.1 171.6, 288.1 171 C 286.9 170.3, 287.6 170.1, 290.8 170 C 293.1 170, 295 169.6, 295 169.1 C 295 168.6, 295.9 168.4, 297 168.7 C 299.2 169.3, 299.7 167.6, 297.8 166.3 C 297.1 165.9, 294.5 165.2, 292 164.9 L 287.5 164.1 292.3 164.3 C 297.9 164.5, 298.8 162.5, 293.3 162.2 C 288.4 161.8, 287.7 161, 292.3 161 C 294.4 161, 296 160.6, 296 160 C 296 159.5, 295 159.2, 293.8 159.4 C 292.5 159.6, 290.6 159.4, 289.5 158.9 C 284.5 157, 283.4 156.7, 281.8 156.9 C 280.9 157, 279.9 156.6, 279.5 156 C 278.6 154.5, 283.5 154.8, 287.7 156.5 C 289.6 157.3, 292.2 158, 293.4 158 C 295.5 157.9, 295.5 157.9, 293.6 156.5 C 292.5 155.7, 290.5 155, 289.1 154.9 C 287.7 154.9, 284.7 154.2, 282.5 153.4 L 278.5 152 284.2 152.5 C 287.3 152.8, 290.5 153.3, 291.4 153.6 C 292.3 153.9, 293 153.7, 293 153.1 C 293 152.5, 292 152, 290.8 152 C 288.8 152, 284.4 150.8, 279.5 149 C 278.4 148.6, 279.7 148.5, 282.4 148.8 C 285.9 149.1, 287.1 149, 286.6 148.1 C 286.2 147.5, 284.9 147, 283.7 146.9 C 282.5 146.9, 282.1 146.6, 282.8 146.3 C 283.5 146, 284.8 146.2, 285.8 146.6 C 288.3 147.7, 291 147.9, 291 146.9 C 291 146.4, 290.4 146, 289.6 146 C 288.9 146, 286.9 145.3, 285.4 144.5 C 282.7 143.1, 282.7 143, 284.8 143 C 289.6 143, 286.7 141.5, 281.6 141.4 C 278.7 141.3, 275.6 140.8, 274.7 140.4 C 273.7 139.8, 275.8 139.6, 280.5 139.8 C 286.8 140.2, 288 140, 288 138.6 C 288 136.4, 285.5 135.4, 278.5 134.6 C 273 134, 272.7 134.1, 274.4 135.5 C 275.6 136.4, 278.5 137, 281.9 137 C 284.9 137, 287 137.3, 286.7 137.7 C 284.7 139.7, 272 137.5, 272 135.1 C 272 134.2, 271.5 132.9, 270.8 132.2 C 269.9 131.3, 269.9 131, 270.9 131 C 271.9 131, 272 130.7, 271.1 129.6 C 270.5 128.9, 270.2 127.5, 270.6 126.6 C 271.1 125.3, 270.5 125, 267.4 124.9 L 263.5 124.7 267 124.1 C 269.9 123.6, 270.5 123.1, 270.3 121.2 C 270.1 120, 270.5 119, 271.1 119 C 271.9 119, 271.8 118.5, 271 117.5 C 270.3 116.7, 270.2 116, 270.8 116 C 271.3 116, 272.3 116.7, 273 117.5 C 273.9 118.5, 273.9 119, 273.1 119 C 270.7 119, 272.1 121.9, 274.8 122.3 L 277.5 122.7 274.8 122.9 C 271.5 123, 271 125, 274.3 125 L 276.5 125.1 274.1 126.4 C 270.8 128.2, 271.9 128.7, 283 130.7 C 286.1 131.3, 286.4 131.2, 285.2 129.7 C 284.4 128.8, 282.4 127.9, 280.7 127.7 C 278.1 127.4, 278.2 127.3, 281.3 127.4 C 285.6 127.6, 285.8 125.8, 281.4 124.9 C 278.8 124.3, 278.9 124, 281.9 123.6 C 283.7 123.4, 284.3 122, 282.6 122 C 281.4 122, 281.1 121.4, 281.5 119.8 C 282.3 116.4, 280.7 111.7, 278.6 111.4 C 276 111, 275.3 110, 277.7 110 C 279.3 110, 279.6 109.5, 279.2 107.5 C 279 106.1, 278.4 105, 277.9 105 C 277.4 105, 277.3 104.3, 277.7 103.4 C 278.2 102, 277.8 101.8, 275.1 102.2 C 273.4 102.5, 271.7 102.3, 271.4 101.8 C 271.1 101.4, 272.5 101, 274.4 101 C 276.4 101, 278 100.6, 278 100.2 C 278 99.7, 274.6 99.3, 270.5 99.2 C 266.4 99.2, 263 99.5, 263 100.1 M 384.2 132.3 C 383.6 133, 382.8 135.4, 382.5 137.6 L 381.8 141.5 388.2 141.5 L 394.6 141.5 393.1 137 C 391.2 131, 387 128.9, 384.2 132.3 M 391.1 155.1 C 390.9 160.5, 392.3 167, 393.6 167 C 394.4 167, 395 167.4, 395 168 C 395 168.5, 394.3 168.7, 393.5 168.4 C 392.7 168, 392 168.3, 392 168.9 C 392 169.5, 393 170, 394.2 170 C 396.3 170, 396.3 170, 394.4 171.5 C 392.6 172.9, 392.6 172.9, 394.8 173 C 396.1 173, 396.8 173.4, 396.5 174 C 396.1 174.6, 395.4 174.7, 394.8 174.4 C 394 173.9, 393.9 174.9, 394.4 177.6 C 394.8 179.7, 395.2 182.3, 395.2 183.2 C 395.1 184.2, 395.5 185.2, 396.1 185.5 C 396.6 185.9, 397 187, 397 188.1 C 397 189.8, 397.6 190, 401 189.8 C 404.5 189.5, 406.4 187.8, 404.2 186.8 C 403.8 186.7, 402.1 182.9, 400.6 178.5 C 399 174.1, 397.3 170.1, 396.9 169.6 C 396.4 169, 396 167.8, 396 166.8 C 396 165.8, 395.6 165, 395.1 165 C 394.5 165, 394.1 164.2, 394.2 163.3 C 394.2 162.3, 393.5 159.5, 392.7 157 C 391.5 153.4, 391.2 153, 391.1 155.1 M 381.4 169.2 C 381.1 169.6, 381.7 170, 382.7 170.1 C 384.3 170.1, 384.3 170.2, 382.5 170.9 C 381.4 171.4, 380.5 172.1, 380.4 172.6 C 380.4 173.1, 379.9 175.3, 379.2 177.4 C 378.6 179.6, 378.3 181.7, 378.6 182.2 C 378.9 182.6, 378.6 183, 378 183 C 377.3 183, 377 183.6, 377.3 184.3 C 377.5 184.9, 376.8 186.7, 375.8 188.3 L 373.9 191 376.2 191.1 L 378.5 191.1 376.3 192 C 372.8 193.4, 373.5 194, 378.8 194 C 383.1 193.9, 383.4 193.8, 381.6 192.5 C 379.9 191.2, 379.9 191, 381.2 191 C 382.4 191, 382.8 190.2, 382.6 188.3 C 382.5 186.7, 382.7 185.1, 383.1 184.5 C 383.7 183.6, 384.4 177.2, 384.1 174.5 C 384 174, 383.5 174.2, 382.9 175 C 382 176.3, 381.9 176.3, 382.3 175 C 382.5 174.2, 383.3 173.5, 384.1 173.5 C 384.8 173.5, 385.5 172.4, 385.7 171 C 385.8 168.5, 382.6 167.2, 381.4 169.2 M 387.2 173.7 C 386 179.9, 384.5 195.7, 384.8 197.7 C 385 198.3, 384.6 199.1, 384 199.5 C 383.5 199.8, 383 201.5, 383 203.2 C 383 205.7, 383.3 206.1, 384.8 205.4 C 385.7 205, 392.4 204.5, 399.7 204.2 L 412.9 203.8 411.3 200.4 C 409.8 197.4, 409.1 197, 405.6 196.8 C 401.9 196.7, 401.8 196.6, 404.8 196.3 C 408.7 195.8, 409 194.3, 405.3 193.8 L 402.5 193.4 405 192.3 C 407.3 191.2, 407.1 191.1, 402.8 191.1 C 398 191, 396.4 192.9, 398.9 195.6 C 400.3 197, 401.3 203, 400.2 203 C 399.6 203, 398.8 201.5, 398.5 199.8 C 398.1 198, 397.4 196.1, 397 195.5 C 395.9 194, 392 177.9, 392 174.9 C 392 173.5, 391.7 172, 391.3 171.6 C 390.8 171.2, 390.5 170.3, 390.5 169.8 C 390.5 169.2, 390 168.5, 389.4 168.3 C 388.7 168.1, 387.8 170.3, 387.2 173.7 M 258.6 209.3 C 257.9 210.5, 256.6 213.3, 255.9 215.5 C 255.1 217.7, 254.1 219.9, 253.5 220.3 C 252.9 220.8, 253.4 220.9, 254.5 220.5 C 258.1 219.2, 259.5 219.5, 259.8 221.6 C 260.1 223.5, 259.6 223.7, 252.9 223.8 C 248.9 223.9, 245.4 224.2, 245.2 224.5 C 244.9 224.8, 252.3 224.9, 261.6 224.8 C 270.9 224.7, 274.8 224.4, 270.3 224.3 C 262.5 223.9, 262 223.8, 262.1 221.7 C 262.2 220, 262.3 219.9, 262.7 221.3 C 264 226.2, 266 221.4, 266 213.4 C 266 206.7, 261.7 204.3, 258.6 209.3 M 384.8 208.9 C 377.2 211.4, 380.1 212.7, 393.5 212.9 C 411.2 213.1, 424.1 215.8, 437.7 222.1 C 445.4 225.7, 446.5 225.7, 444.3 222.3 C 441 217.2, 436.5 214.2, 426 210.4 C 420.9 208.5, 389.5 207.4, 384.8 208.9 M 283 213.5 C 282 214.8, 283.2 223, 284.4 223 C 284.5 223, 286 223.4, 287.9 224 L 291.2 224.9 290.5 220.2 C 289.3 212.3, 286.2 209.6, 283 213.5 M 371.4 216.4 C 367 218, 365.2 219.7, 361.9 225.5 C 359 230.7, 348.6 241.3, 334.5 253.5 C 315.7 269.8, 313.5 273.3, 313.5 287 C 313.5 293.7, 314 297.3, 315.1 299.4 L 316.7 302.3 317.3 295.4 C 318.3 282.2, 325.3 274.3, 344.9 264 C 359.5 256.4, 366.1 250.8, 373.2 239.9 C 379.8 229.8, 381.4 229.6, 375.5 239.6 C 367.1 253.7, 359.3 260.7, 345 267 C 329.4 273.9, 321 282.5, 319.4 293.1 C 319.1 295.5, 318.4 298.9, 317.9 300.7 C 317.1 303.2, 317.2 304.3, 318.4 305.7 C 329.4 318.5, 330.2 319.1, 326.5 311.5 C 323.2 304.7, 323.3 299.7, 327 293.4 C 331 286.4, 335.1 283.2, 349.5 276.1 C 364.1 268.8, 373.9 259.6, 380 247.5 C 381.9 243.6, 383.7 240.3, 384 240 C 384.3 239.7, 385.1 238.4, 385.8 237 C 387 234.7, 387 234.7, 386.6 236.7 C 385.3 243.5, 391.5 256, 399.3 262.3 C 410.6 271.6, 418.2 274.1, 438 275 C 458.4 275.9, 464.2 278.6, 472.4 291 C 475.9 296.3, 476 296.4, 476.1 293.5 C 476.2 290.9, 476.3 291, 477 294.5 C 477.9 298.7, 479.1 301.9, 481.6 306 C 483.6 309.4, 482.6 282.7, 480.3 272.5 C 474 244.8, 446 223.4, 407.3 216.6 C 403.4 216, 403 217.2, 406.4 218.8 C 407.8 219.4, 409.4 220.9, 410 222.1 C 411.3 224.5, 410.8 224.3, 405.5 220.4 C 403.9 219.2, 400.7 217.9, 398.5 217.6 C 394 216.8, 394.3 216.2, 393.8 228.3 C 393.5 238.5, 400.7 249.4, 409.3 251.5 C 410.8 251.9, 412 252.5, 412 252.9 C 412 254.8, 428.4 257, 445 257.2 C 464.4 257.5, 467.7 258.6, 472.9 265.9 C 477.1 271.8, 479.5 285.1, 477 289 C 476.3 290.1, 476 288.6, 476 284.2 C 476 273, 469.1 262.4, 460.2 260.1 C 458.1 259.5, 448.9 259.1, 439.6 259.1 C 430.4 259.1, 422.3 258.7, 421.7 258.2 C 421 257.7, 418.8 256.9, 416.7 256.6 C 412 255.7, 402.5 250.8, 398.8 247.3 C 394.1 242.9, 391.7 235.6, 391.8 226.4 L 391.9 218.2 385.5 216.6 C 378.3 214.8, 375.8 214.8, 371.4 216.4 M 286 233.7 C 281.2 235.7, 278.7 241.5, 280.1 247.9 C 280.6 250.5, 281 255.8, 280.8 259.6 L 280.5 266.5 279.4 259 L 278.3 251.5 278.1 259.2 L 278 266.9 281.8 267.9 C 287.5 269.5, 290.8 269.3, 292 267.1 C 293.2 264.7, 293.3 243, 292.1 241.1 C 290.5 238.5, 286.2 238.7, 283.5 241.4 C 281.5 243.4, 281 243.6, 281 242.2 C 281.1 240.2, 284.4 236, 285.9 236 C 286.5 236, 287 235.5, 287 234.9 C 287 234.2, 288 234, 289.5 234.4 C 290.9 234.8, 292 234.6, 292 234 C 292 232.9, 288.5 232.8, 286 233.7 M 385.1 241.3 C 385.1 242.2, 384.6 243, 384.1 243 C 383.6 243, 382.9 244.1, 382.6 245.5 C 381.5 250, 375.1 259.4, 368.8 265.8 C 363.8 271, 360.5 273.2, 350.5 278.1 C 331.1 287.5, 325.7 294, 327.6 305.4 C 328.6 311.6, 336.2 324, 339 324 C 339.9 324, 338.4 316.5, 337 313.8 C 334.9 309.9, 334.8 302.6, 336.9 299.4 C 339.2 295.6, 347.5 289.2, 359.7 281.6 C 370.1 275.2, 375.6 269.6, 379.9 260.7 C 383.5 253.4, 386.3 243.7, 385.7 241.2 C 385.3 239.6, 385.2 239.6, 385.1 241.3 M 401 254.6 C 402.8 257.5, 411.3 262.3, 418.5 264.5 C 421.8 265.4, 425.5 266.6, 426.8 267.1 C 428.1 267.6, 433 268.2, 437.8 268.5 C 458.5 269.8, 466.2 273.3, 470.9 283.5 C 471.6 285.2, 472.5 286, 472.7 285.3 C 473.4 283.4, 470.1 277.4, 466.5 273.8 C 461.8 269.2, 457.4 267.9, 441.5 266.5 C 433.8 265.8, 425.5 264.7, 423 264.1 C 416 262.3, 405.8 257.6, 402.1 254.5 L 399.7 252.5 401 254.6 M 447.6 282.4 C 455.9 286.2, 459.7 293.1, 461.5 307.3 C 462 311.3, 464 314.2, 464 310.9 C 464 310.3, 464.6 310.5, 465.4 311.3 C 467.3 313.1, 471 320.1, 471 321.7 C 471 322.5, 471.4 323.8, 471.9 324.8 C 472.4 325.7, 473.6 328.4, 474.6 330.8 C 475.5 333.1, 478.6 337.5, 481.4 340.6 C 486.3 345.9, 486.8 346.2, 493.4 347.2 C 504.6 348.9, 517.6 346.2, 524 340.8 C 525.5 339.5, 528.3 335.6, 530.9 331 C 532.7 327.8, 532.5 318.4, 530.5 309.9 C 529.7 306.4, 529 302.7, 529 301.8 C 529 297, 535.5 303.2, 536.5 308.8 C 536.8 310.9, 537.5 313.1, 537.9 313.8 C 540.1 317.5, 546.7 309.4, 548.2 301 C 549.4 294.9, 550.4 293.5, 551.3 296.9 C 552 299.5, 550.9 307.9, 549.9 308.6 C 548.7 309.3, 548.7 312, 549.9 312 C 550.4 312, 551.4 309.6, 552.3 306.8 C 553.8 301.6, 553.8 301.5, 553.9 305.2 C 554 307.2, 553.6 309.2, 553 309.5 C 552 310.1, 551.6 314, 552.5 314 C 552.8 314, 554.7 313.1, 556.7 312 C 561 309.7, 567.8 309.4, 570.5 311.3 C 572.1 312.5, 571.6 312.6, 566.7 312.2 C 561.7 311.8, 560.6 312.1, 557.5 314.4 C 555.6 315.9, 554 317.6, 554 318.1 C 554 318.7, 555.5 318, 557.3 316.6 C 561.4 313.5, 568.3 313, 571.2 315.7 C 573 317.4, 574.9 316.4, 575 313.9 C 575.1 309.7, 563.3 306.2, 558.2 308.9 C 556.2 310, 556.1 309.9, 556.7 305.1 C 557.2 300.5, 557 299.9, 553.5 295.5 C 548.2 289, 546.6 289.7, 545.9 298.8 C 545.5 304.8, 544.9 306.5, 542.8 308.6 L 540.3 311.2 538 306.6 C 535.8 302, 531.8 298, 529.4 298 C 527.1 298, 526.9 301.8, 528.5 314.1 C 530.2 327.6, 530.1 328.1, 524.2 330.6 C 514.2 334.7, 496.1 330.2, 485.7 321 C 483.1 318.7, 481.1 316.3, 481.2 315.6 C 481.4 315, 477.1 310, 471.8 304.6 C 466.5 299.2, 461.6 293.5, 461 292 C 459.2 287.8, 453.1 282.1, 449.1 281 C 442.9 279.3, 442.3 279.9, 447.6 282.4 M 362.2 293 C 357 294.2, 348.5 301.8, 350.3 303.6 C 350.6 304, 352 303.5, 353.2 302.6 C 362.3 295.9, 362.2 296, 368.4 296 L 374.5 295.9 372.1 294 C 369.7 291.9, 367.6 291.7, 362.2 293 M 463.5 300.8 C 463.8 303.5, 465.5 307.2, 468 310.9 C 470.2 314.1, 472.3 318.3, 472.6 320.1 C 474 328.1, 480.1 337.1, 487.4 341.8 C 493 345.5, 509.8 345.8, 517 342.4 C 523.3 339.4, 531.1 330.1, 525.3 332.5 C 511.9 338.2, 492.7 332.4, 481.3 319.3 C 478.1 315.6, 473.2 310.1, 470.3 307 C 467.4 303.9, 464.6 300.3, 464 299 C 463.1 296.9, 463 297.1, 463.5 300.8 M 417.8 304.3 C 413.2 307.1, 410.9 313.8, 411.6 322 C 412.5 331.1, 412.6 331.2, 419 330 C 421.9 329.5, 426.1 329, 428.4 329 C 435.2 329, 438.1 325.5, 438 317.3 C 438 316, 438.6 315, 439.4 315 C 441.4 315, 443.9 311.8, 442.3 311.3 C 440.5 310.7, 440.7 308, 442.5 308 C 443.3 308, 444 307.6, 444 307 C 444 305.5, 441 305.8, 439.3 307.6 C 437.2 309.6, 435.1 307.8, 437 305.5 C 437.7 304.6, 437.8 304, 437.2 304 C 436.6 304, 436 304.6, 435.7 305.3 C 435.4 306.2, 434.8 306.1, 433.4 304.8 C 430.6 302.4, 421.4 302.1, 417.8 304.3 M 358.1 315.9 C 354.6 320.7, 356.1 329.4, 360.8 331.9 C 363.6 333.4, 372.2 333.5, 374.8 332.1 C 378 330.4, 377 329.6, 373.7 331.1 C 366.9 334.2, 360.6 327.8, 360.7 317.8 C 360.8 312.2, 360.8 312.1, 358.1 315.9 M 243.7 314.8 C 242.8 316.1, 239 327.4, 239 328.5 C 239 329, 239.7 328.6, 240.5 327.6 C 241.3 326.5, 242 326, 242 326.4 C 242 326.9, 242.7 326.6, 243.6 325.9 C 244.8 324.9, 245 323.6, 244.6 320.5 L 244 316.5 245.6 319.3 C 246.4 320.8, 246.8 322.9, 246.5 324 C 246.2 325, 246.4 326.1, 247.1 326.5 C 247.9 327, 248.1 325.6, 247.8 321.5 C 247.6 317.2, 247.9 315.6, 248.9 315.2 C 250.1 314.8, 250.2 316.2, 249.6 323.7 C 248.8 335.2, 250.3 340.2, 253.8 337.3 C 255.8 335.7, 256 334.5, 256.1 326.2 C 256.2 320.2, 255.8 316.4, 255 315.5 C 253.7 313.9, 244.5 313.3, 243.7 314.8 M 263.6 319.4 C 260.9 325.1, 260.4 327, 261.8 327 C 262.2 327, 263.4 324.8, 264.5 322 C 267.2 315.1, 267.6 315.7, 267.2 325.5 C 267 331.1, 267.2 334, 267.9 334 C 268.6 334, 269 330.9, 269 325.5 C 269 318.5, 269.3 317, 270.6 317 C 271.9 317, 272.1 318.5, 271.9 326.6 C 271.7 336.6, 272.2 338, 276.3 338 C 277.8 338, 278 336.9, 278 328 C 278 322, 277.6 318, 277 318 C 276.4 318, 276 321.6, 276 326.9 C 276 331.9, 275.6 336.2, 275 336.5 C 274.4 336.9, 274 333.3, 274 326.6 L 274 316 271.2 316 C 269.7 316, 267.9 315.5, 267.3 314.9 C 266.5 314.1, 265.5 315.4, 263.6 319.4 M 222.3 315.8 C 220.5 317, 220 321.1, 221 327 L 221.9 332.5 221.6 325.7 C 221.3 320, 221.4 319.1, 222.6 320.1 C 223.7 321, 224 320.8, 224 319.1 C 224 318, 224.5 317, 225 317 C 225.6 317, 225.8 318, 225.5 319.3 C 225.2 320.5, 224.9 324.2, 224.7 327.5 C 224.5 333.3, 224.6 333.5, 227 333.5 C 229.3 333.5, 229.5 333.1, 230 327.5 C 230.5 321, 231 321.9, 232.6 333.2 C 233.3 338.8, 235 338.6, 235 332.9 C 235 322, 227.8 312.3, 222.3 315.8 M 331.8 325.2 C 330.4 327, 328.3 329.6, 327.2 330.8 C 326 332.1, 324.9 333.7, 324.7 334.3 C 324.5 335, 323.9 335.2, 323.5 334.7 C 323 334.3, 323.7 332.6, 324.9 330.9 C 328 326.7, 327 326.3, 323.1 330.2 C 319.6 333.8, 319.3 336.4, 321.5 342.5 C 322.3 344.7, 322.9 348.6, 323 351.2 C 323 353.7, 323.9 358, 325 360.6 C 328.2 368, 326.6 370, 321.4 365.1 C 319.7 363.5, 316.6 361.7, 314.6 361.1 L 310.9 360.1 311.3 374.3 C 311.6 384.1, 312.4 391.2, 313.8 397.4 C 317.2 411.2, 317.1 411.4, 306.3 423.2 C 303.4 426.4, 301 429.3, 300.9 429.7 C 300.9 430.2, 300.7 431.9, 300.5 433.5 C 300.3 435.2, 299.9 446.4, 299.6 458.5 C 298.4 503.5, 298.3 501.7, 300.3 503.7 C 301.7 505.1, 302 505.1, 302 504 C 302 503.2, 302.8 501.5, 303.8 500.2 C 305.6 497.9, 305.6 497.9, 308 499.8 L 310.3 501.7 308.1 505.4 C 306.9 507.4, 305.4 509, 304.9 509 C 303.1 509, 305.1 513.3, 309.4 518.9 C 315.6 526.9, 317 529.3, 317 531.7 C 317 533.7, 312 542.4, 308.8 546 C 308.1 546.9, 306.8 548.9, 306 550.5 C 305.2 552.2, 304 554.2, 303.2 555.1 C 302.5 556, 301.6 560, 301.3 563.9 L 300.7 571 303.6 571 C 307.4 571, 310.7 569, 307 569 C 305 569, 304.8 568.8, 306 568 C 306.8 567.5, 308.9 567.3, 310.7 567.6 C 313.6 568.1, 314 567.9, 314.6 565.4 C 315 563.8, 316.1 559.1, 317.2 555 C 318.3 550.9, 320 543.9, 321.1 539.5 C 324.8 524.8, 331.6 502.8, 334.6 496 C 345.6 470.9, 365.4 446, 380 438.7 C 383.7 436.8, 384.7 436, 383.2 436 C 377.6 436, 363 446.6, 354.4 456.8 C 351.8 459.9, 349 463.2, 348.3 464 C 344.9 467.8, 342.5 470.9, 339.2 476 C 334.6 482.9, 325.3 492.3, 324.5 490.9 C 324.1 490.4, 324.4 489.3, 325 488.5 C 326 487.3, 326 486.7, 325 485.5 C 324.4 484.7, 324.2 483.5, 324.6 482.9 C 325.1 482, 325.6 482.3, 326.1 483.8 C 327 486.3, 329 486.8, 329 484.5 C 329 483.7, 326.9 481.9, 324.3 480.5 C 320.4 478.5, 320.1 478.1, 322.5 478.6 C 324.2 478.9, 326.8 480.1, 328.3 481.2 C 329.9 482.3, 331.4 482.9, 331.7 482.6 C 332.7 481.7, 326.6 476.9, 323.7 476.3 C 321.4 475.8, 321.1 475.5, 322.4 474.8 C 324 473.9, 326.8 475.1, 330.7 478.4 C 332 479.5, 333.3 480, 333.7 479.6 C 334.8 478.6, 332.4 459.6, 330.9 457.2 C 329.3 454.7, 330.3 453.2, 332.4 454.9 C 333.8 456.1, 336.5 468.3, 336.3 472.8 C 336.2 474, 336.6 475, 337.1 475 C 337.6 475, 338 474.6, 338 474.1 C 338 473.6, 338.6 472.5, 339.3 471.8 C 339.9 471.1, 343.2 466.9, 346.5 462.5 C 359 446, 369.4 436.8, 378.9 433.9 C 384.2 432.3, 384.5 431.6, 382.7 424.3 C 381.9 421.1, 380.9 416.3, 380.5 413.5 C 379.6 407.9, 378.8 407, 374.3 407 C 369.9 407, 366.2 405.1, 365.5 402.6 C 363.9 397.1, 361.4 394, 356.4 391.5 C 349.5 388, 342.7 379.8, 343.5 375.9 C 344.2 372.9, 340.4 369.3, 337.8 370.3 C 336.9 370.7, 337.1 370.9, 338.1 370.9 C 339 371, 340 371.7, 340.3 372.4 C 340.7 373.5, 340.4 373.7, 339.3 373.3 C 338.1 372.8, 337.9 373.2, 338.5 375 C 339 376.6, 338.9 377.1, 337.9 376.8 C 337.1 376.5, 336.5 375.7, 336.5 374.9 C 336.5 374.1, 335.8 373, 335 372.3 C 334 371.4, 333.9 371.1, 334.8 371 C 335.4 371, 336 370.5, 336 369.9 C 336 369.2, 335 369, 333.5 369.4 C 332.1 369.8, 331 369.6, 331 369 C 331 368.5, 333.2 368, 335.9 368 C 341.7 368, 346 372.1, 346 377.7 C 346 381.2, 346.7 382.1, 348.6 381.3 C 352.5 379.8, 349.7 373.7, 340.3 363.9 C 333.9 357.1, 330 350, 330 345.1 C 330 340.3, 331.3 340.8, 332.7 346.1 C 334.8 354.1, 336.7 357.4, 343.4 364.2 C 350.3 371.3, 353.3 377.7, 351.2 381.1 C 349.7 383.4, 349.6 386, 351 386 C 351.6 386, 352.5 385, 353 383.8 C 353.9 381.8, 353.9 382, 353.5 384.6 C 353 387.4, 353.3 387.9, 356 389 C 359.3 390.4, 360.5 389.8, 361.3 386.5 C 361.6 385.4, 361.8 386.1, 361.9 388.2 C 362 392.6, 363.7 394, 364.9 390.8 C 365.6 389, 365.8 389.5, 365.6 393 C 365.2 398.8, 367.7 403.3, 371.6 404.1 C 382.8 406.6, 382.8 403.7, 371.6 399 C 368.9 397.9, 367 396.7, 367.3 396.4 C 367.6 396, 369.7 396.5, 372 397.4 C 380 400.6, 381.2 399.5, 378.8 390.7 C 378.2 388.3, 378 385.5, 378.4 384.4 C 379.9 380.7, 381.2 387, 382 401.5 C 382.9 419.2, 386.7 432.6, 391.1 433.7 C 392.2 434, 392.9 434.8, 392.6 435.6 C 392.3 436.5, 392.7 436.7, 393.8 436.3 C 394.7 436, 395.2 436, 394.8 436.5 C 394.1 437.2, 397.5 441, 398.9 441 C 400.3 441, 397.9 414.5, 396.3 412.8 C 394.8 411.1, 394.8 404.3, 396.4 397.8 C 396.9 395.4, 396.7 395, 394.3 394.4 C 386.5 392.5, 381.1 387.7, 380.7 382.3 C 380.2 376.3, 362.8 372.7, 361.7 378.3 C 361.4 379.8, 361.2 379.4, 361.1 377.3 C 361 372.9, 358.5 373, 356.9 377.5 C 356.2 379.4, 355.2 380.6, 354.8 380.2 C 353.7 379.1, 356.7 372, 358.3 372 C 359 372, 361 372.4, 362.8 373 C 364.9 373.5, 367.1 373.5, 368.5 373 C 370.4 372.3, 372.4 372.7, 377.2 374.8 C 381.5 376.6, 384.8 377.4, 387.7 377.2 C 393.5 376.8, 394.2 374.4, 388.7 373.5 C 375.2 371.3, 364.1 366.4, 355.9 359.1 C 349.7 353.6, 347.5 348.6, 346.5 337.7 C 346.1 334, 345.5 331.2, 345.1 331.4 C 344.8 331.6, 344.5 329.5, 344.6 326.7 L 344.8 321.5 343.4 324.8 C 342 328, 340.5 328.9, 339.8 327 C 339.6 326.4, 337.2 328.7, 334.5 332.1 C 328 340.2, 325.8 341.7, 323.6 339.5 C 322.7 338.6, 322 337.4, 322 336.9 C 322 336.3, 322.7 336.6, 323.6 337.4 C 325.6 339.4, 325.4 339.5, 328.8 336.3 C 332.9 332.5, 336.4 325.6, 335.2 323.5 C 334.5 322.1, 334 322.4, 331.8 325.2 M 561.5 328.8 C 560.4 329, 559 329.6, 558.4 330.1 C 557.8 330.6, 555.1 331.3, 552.5 331.7 C 544.9 332.7, 540.8 338, 547.6 338 C 555.3 338, 567.9 331.7, 564.8 329.3 C 564.1 328.8, 562.6 328.6, 561.5 328.8 M 468.5 337.8 C 470.4 353.1, 482 375, 502 401.3 C 513.4 416.2, 556.1 459.2, 557.8 457.5 C 558.1 457.2, 552.1 449, 550 447 C 549.7 446.7, 543 438.4, 535.1 428.5 C 527.1 418.6, 518.1 407.6, 515.1 404 C 497.8 384, 487.6 369.1, 477.3 349.2 C 473.3 341.3, 470 334.2, 470 333.4 C 470 332.6, 469.5 332, 468.9 332 C 468.2 332, 468.1 333.9, 468.5 337.8 M 460.2 337.9 C 456.3 339.3, 455.7 340, 454.1 344.7 C 452.2 350.4, 444.7 359.4, 439.6 362.1 C 435.9 364, 435.4 365.3, 437.6 367.4 C 440.2 370, 438.3 370.6, 435.6 368.1 C 432.9 365.5, 431 366, 430.9 369.3 L 430.9 371.5 429.8 369.3 C 428.8 367.3, 428.5 367.2, 425.1 368.4 C 423.1 369.2, 419.6 370.3, 417.3 370.9 C 412.9 372.1, 411.9 373.9, 414.4 375.9 C 416.2 377.4, 426.1 377.5, 428.8 376.1 C 437.5 371.4, 450.2 382.4, 444.4 389.6 C 442.9 391.4, 442.9 391.4, 443.5 388.8 C 444.4 384.4, 443.1 381.2, 439.3 379 C 433.1 375.4, 429.3 376.7, 429.9 382.2 C 430.3 386, 428.4 385.8, 427.7 382 C 426.8 377.9, 425.7 378.2, 423.2 383.3 C 420.8 388.1, 419.4 396.6, 420.4 400.5 C 421.3 404, 426.3 403.8, 426.8 400.3 C 427.2 397.7, 429.7 397.2, 430.2 399.6 C 430.4 400.8, 431.3 400.3, 434.1 397.8 C 437.7 394.5, 437.8 394.5, 437.6 396.9 C 437.5 398.7, 436.5 399.7, 433.1 401.2 C 430.7 402.2, 428.9 403.3, 429.2 403.6 C 429.9 404.2, 445.2 400.1, 446.5 398.9 C 447.7 397.7, 451 397.8, 451 399 C 451 400.5, 453.6 400.2, 454.9 398.6 C 456.3 397, 455.4 388.3, 452 370.2 C 450.6 363.2, 450.1 357.9, 450.6 356.2 C 451.3 353.8, 451.4 354, 452.1 358.5 C 452.6 361.3, 453.6 367.6, 454.5 372.5 C 458.1 392.1, 458.5 398.8, 456.5 401 C 455 402.6, 454.9 403.4, 455.9 405.8 C 457.4 409.3, 467.2 419.5, 470.9 421.5 C 474.1 423.1, 484.3 433.8, 492.2 443.6 C 495.2 447.4, 500.8 453.2, 504.6 456.5 C 508.4 459.8, 511.7 462.8, 512 463.2 C 512.3 463.5, 515 464.8, 518 466 C 521 467.1, 527 469.8, 531.2 472 C 538.5 475.8, 541 476.8, 552.5 480.3 C 558 482, 569.4 483.8, 578.2 484.3 L 583.8 484.7 578.2 480.7 C 564.1 470.9, 541 450.2, 522.5 430.9 C 494.7 402, 470.4 364, 467 344.3 C 465.6 335.8, 465.7 335.9, 460.2 337.9 M 414.2 345.5 C 408.3 349.7, 382.5 352.3, 380.4 348.9 C 379.5 347.4, 377 347.9, 377 349.5 C 377 350.3, 377.7 351, 378.6 351 C 379.5 351, 383.1 353.9, 386.6 357.5 C 395.6 366.7, 401.2 366.1, 407.4 355.6 C 410.1 351, 414.1 347.5, 417.4 346.9 C 419.1 346.6, 419.1 346.3, 417.8 345.3 C 416.7 344.3, 415.9 344.4, 414.2 345.5 M 456.9 355.9 C 456.4 357.3, 458.3 368.7, 460.2 375.5 C 463.5 387.1, 483 427.1, 487.6 431.7 C 488.4 432.5, 489 433.4, 489 433.8 C 489 435, 497 443.6, 497 442.5 C 497 441.9, 493.9 436.8, 490 431.2 C 483.5 421.6, 472.3 400, 467.9 388.5 C 466.8 385.8, 465.5 382.6, 465.1 381.5 C 463.7 378.3, 461.2 369.9, 460.4 365.5 C 460.1 363.3, 459.4 361.1, 459 360.5 C 458.5 360, 458 358.4, 457.8 357 C 457.6 355.5, 457.2 355.1, 456.9 355.9 M 207.8 357.7 C 207.6 358.1, 207.6 361.5, 207.8 365.3 L 208.2 372 211.6 372 C 215.2 372, 216.1 370.7, 213.3 369.6 C 212.1 369.1, 211.9 368.7, 212.7 368.2 C 213.4 367.8, 213.8 365.4, 213.6 362.5 C 213.4 357.9, 213.2 357.5, 210.8 357.2 C 209.4 357, 208 357.2, 207.8 357.7 M 239.7 358.7 C 238.5 359.8, 239 365, 240.3 365.1 C 240.9 365.1, 243.6 365.2, 246.3 365.3 L 251 365.5 251 361.8 L 251 358 245.7 358 C 242.7 358, 240 358.3, 239.7 358.7 M 281.8 360.7 C 283 361.5, 284 362.9, 284 363.6 C 284 365.2, 282.4 365.5, 281.6 364.1 C 281.3 363.6, 279.8 362.9, 278.3 362.5 C 276.8 362.2, 275.2 361.3, 274.8 360.7 C 274.4 360, 273.7 360.6, 273.1 362.3 C 271.3 366.9, 271.7 367.8, 276 368.5 C 278.2 368.9, 280 369.6, 280 370.1 C 280 370.6, 280.9 371, 282 371 C 283.1 371, 284 371.5, 284 372.1 C 284 372.7, 282.8 372.9, 280.8 372.5 C 279 372.1, 276.2 371.6, 274.5 371.3 C 272.9 371, 271.1 370.1, 270.5 369.4 C 269.8 368.5, 268.8 368.5, 267 369.2 C 264.5 370.1, 264.5 370.2, 268.3 371.5 C 270.3 372.2, 274.6 373.1, 277.7 373.5 C 280.8 373.9, 283.9 374.4, 284.5 374.7 C 285.4 375, 285.7 373.4, 285.6 368.7 C 285.5 362.1, 284 359, 281.1 359.1 C 279.9 359.1, 280 359.5, 281.8 360.7 M 183.8 364.7 C 182.6 365, 182 366.1, 182 367.8 C 182 369.3, 181.7 372.9, 181.3 375.9 L 180.7 381.2 184.1 380.5 C 185.9 380.1, 188.2 379.2, 189.2 378.6 C 191.5 377.2, 191.5 374, 189.3 374 C 187.6 373.9, 187.6 373.9, 189.3 372.6 C 190.2 371.9, 191 370.2, 191 368.8 C 191 367.5, 191.5 365.9, 192.2 365.2 C 193.4 364, 187.8 363.6, 183.8 364.7 M 326.5 368.1 C 326 368.7, 326.4 369.6, 327.2 370.1 C 328.2 370.6, 328.6 371.9, 328.3 373.4 C 327.4 377.8, 333.6 386.6, 347.1 400.3 C 361.8 415.2, 364.2 416.3, 373.3 412 C 378.7 409.5, 379.8 407.4, 374.5 409.6 C 368.9 411.9, 366 411.5, 365.9 408.3 C 365.7 405.5, 365.7 405.5, 365.3 408 C 364.3 412.9, 360.6 412.4, 356 406.6 C 354.7 404.9, 350.4 400.3, 346.4 396.5 C 337.9 388.1, 332.6 380.1, 330.8 372.9 C 329.4 367.6, 327.8 365.9, 326.5 368.1 M 402.3 372.3 C 396.7 373.2, 396 373.6, 396 375.7 C 396 379.3, 392.6 382, 388 382 C 383.9 382, 382.2 384.8, 385.2 386.6 C 386 387.1, 386.1 386.6, 385.7 385.1 C 385.2 383.1, 385.4 382.9, 388.3 383.6 C 390.1 383.9, 392 384.6, 392.5 385 C 395.2 387.1, 405.6 387.1, 411.5 385.1 C 418.4 382.7, 421.9 380, 418.1 380 C 413.3 380, 409.7 376.8, 410.5 373.3 C 410.9 371.8, 410.6 371.1, 409.8 371.2 C 409.1 371.2, 405.7 371.8, 402.3 372.3 M 414.6 391.6 C 410.9 394.8, 409.7 395.2, 402.8 395.2 C 401.2 395.3, 399.9 395.7, 399.9 396.1 C 399.6 398.1, 399.4 398.6, 398.6 399.9 C 397.9 401, 398.2 401.2, 400.1 400.7 C 402.4 400.1, 402.4 400.1, 399.7 402.4 C 394.7 406.7, 397.3 415.2, 402.5 411.4 C 405.6 409.1, 406.7 409.9, 403.8 412.4 C 401.2 414.7, 401.1 415, 400.8 428.9 C 400.6 436.7, 400.8 443, 401.2 443 C 401.5 443, 403.6 441, 405.7 438.6 C 409.4 434.4, 417.6 429, 420.4 429 C 421.3 429, 422.1 426.5, 422.9 421.3 C 423.5 417, 424.3 412, 424.6 410.3 C 425.1 407.6, 424.9 407, 423.6 407 C 418.7 407, 415.2 398.2, 418.1 392.9 C 420.3 388.7, 418.6 388.1, 414.6 391.6 M 447 401.9 C 446.2 402.4, 443.7 403.1, 441.5 403.4 C 439.3 403.8, 435.9 404.6, 434 405.2 C 432.1 405.8, 429.8 406.5, 429 406.7 C 427.2 407.2, 433.2 410, 436.2 410 C 439.3 410, 451 404.1, 451 402.5 C 451 400.8, 449.3 400.6, 447 401.9 M 444.8 409.4 L 439.1 412.6 442.2 417.5 C 443.9 420.3, 446.7 424.3, 448.5 426.5 C 450.3 428.7, 453.8 433.6, 456.3 437.4 C 461 444.3, 467.9 450.9, 477.7 457.7 C 486.6 463.8, 485.5 460.8, 475 450.2 C 467.1 442.2, 465 439.6, 465.9 438.7 C 466.9 437.8, 467.4 437.9, 468.4 439.2 C 469.1 440.2, 472.4 443.9, 475.8 447.4 C 479.2 451, 482.7 455.1, 483.7 456.6 C 484.6 458, 487.4 460.5, 489.9 462 C 492.3 463.6, 499.7 470.1, 506.2 476.6 C 512.7 483, 517.8 487.5, 517.5 486.4 C 517.1 484.9, 517.2 485, 518.1 486.7 C 519.4 489.2, 522.2 490.2, 524.1 488.8 C 525.2 488, 525.2 487.7, 524.2 487.3 C 522.6 486.7, 519.6 481, 520.9 481 C 521.4 481, 522.2 481.5, 522.6 482.1 C 523 482.8, 525 483, 528.1 482.6 C 531.9 482.1, 533 482.2, 533 483.3 C 533 484.7, 528.9 489, 527.6 489 C 527.2 489, 526.2 489.7, 525.4 490.5 C 523.6 492.3, 520.3 492.4, 517.3 490.7 C 515 489.4, 499.6 474.7, 497.6 471.9 C 496.3 470, 486.1 463, 484.7 463 C 484.2 463, 486.6 466, 490.1 469.8 C 499.2 479.4, 513.9 496.9, 519.3 504.5 C 522.7 509.3, 529.4 511.8, 549.5 515.7 C 558.3 517.3, 601 518.8, 601 517.4 C 601 516.6, 593.4 503.5, 591.7 501.5 C 589.7 499, 584 489.7, 584 488.9 C 584 488.4, 580.5 488, 576.3 487.9 C 567.4 487.9, 563.5 487.2, 549.5 483.6 C 544 482.2, 538.1 481, 536.3 481 C 534.6 481, 533 480.6, 532.8 480.1 C 532.6 479.5, 530.9 479.6, 528.4 480.2 C 524.8 481.2, 524 481.1, 522.4 479.5 C 520.7 477.8, 520.7 477.8, 522.5 478.3 C 523.6 478.7, 526.2 478.4, 528.3 477.7 C 531.8 476.4, 531.9 476.2, 530.3 474.8 C 528.4 473.1, 523.1 470.6, 519.1 469.5 C 517.7 469.1, 513.8 467, 510.3 464.9 C 506.8 462.7, 503.6 461, 503.2 460.9 C 502.8 460.9, 498.1 455.6, 492.8 449.2 C 487.4 442.8, 480.1 434.2, 476.4 430.2 C 469 422.1, 468 422.1, 466.5 430.6 C 465 438.4, 463.9 437.7, 464.5 429.3 C 465 422.2, 464.9 421, 463.3 419.3 C 462.2 418.3, 459.2 414.9, 456.6 411.8 C 451 405.1, 452 405.3, 444.8 409.4 M 427.4 412.8 C 427.1 414.3, 426.4 417.1, 425.9 419 C 424.1 426, 424.5 426.7, 430.1 427.4 C 436.5 428.3, 441.7 430.8, 449.8 437.1 C 457.4 443.1, 457.6 442.3, 450.6 433.2 C 447.6 429.3, 443.1 423.1, 440.6 419.4 C 437.7 415, 435 412.2, 432.9 411.3 C 428.6 409.5, 428.1 409.6, 427.4 412.8 M 426.3 432.3 C 426.5 433, 427.6 433.6, 428.7 433.8 C 431.2 434.2, 440.2 442.9, 451.7 456.2 C 456.4 461.6, 460.5 465.8, 460.9 465.5 C 461.2 465.2, 461 464.6, 460.5 464.2 C 459.9 463.8, 457.7 460.8, 455.5 457.5 C 453.3 454.3, 448.2 448.3, 444.1 444.3 C 440 440.3, 437.3 437, 437.9 437 C 438.6 437, 443.4 441.2, 448.5 446.3 C 456.4 454.3, 458.4 456.9, 462.3 465 C 464.7 470.2, 470.6 480.8, 475.2 488.5 C 479.9 496.2, 486.3 507.5, 489.5 513.5 C 512.5 557, 520 570.1, 530.6 584.8 C 536 592.4, 542.2 594.2, 554.6 591.5 C 561.9 589.9, 572 587.1, 572.9 586.4 C 573.1 586.2, 571.5 584, 569.4 581.3 C 564.2 574.9, 562.2 572.1, 549.5 553.9 C 544.1 546.2, 522.4 515.6, 512.9 502.5 C 504.9 491.4, 488.3 472.7, 479.7 465.1 C 469.8 456.4, 447.7 439.2, 442.6 436.4 C 437.5 433.5, 425.7 430.6, 426.3 432.3 M 280.4 433.8 C 279.8 434.2, 279 435.7, 278.6 437.3 C 278.3 438.8, 277.3 440, 276.5 440 C 275.7 440, 275 440.9, 275 442 C 275 443.3, 275.5 443.8, 276.5 443.4 C 277.3 443, 278 443.3, 278 443.9 C 278 444.5, 277.3 445, 276.4 445 C 273.8 445, 275.5 447.5, 278.2 447.6 C 279.5 447.7, 281.9 448, 283.5 448.4 C 286 449, 286.2 448.9, 285.5 446.8 C 285.2 445.5, 284.4 442.3, 284 439.6 C 283 434.2, 282.1 432.7, 280.4 433.8 M 427.7 438.7 C 437.5 450.8, 447.7 469.6, 453.5 486.5 C 454.4 489.3, 455.6 492.3, 456.1 493.2 C 456.6 494.2, 457 495.5, 457 496.1 C 457 496.7, 457.6 498.6, 458.4 500.3 C 459.1 502.1, 461.4 508.2, 463.5 514 C 465.5 519.8, 467.6 525.4, 468 526.5 C 468.5 527.6, 470.7 533.9, 473 540.5 C 475.3 547.1, 479.1 557.9, 481.5 564.5 C 490 588.5, 492.1 595, 493.3 600.5 C 494.5 606.6, 494.3 606.4, 497.1 604.9 C 498.3 604.3, 501.6 603.2, 504.4 602.5 C 514.7 599.9, 531.3 595.1, 531.8 594.5 C 532.1 594.2, 531.2 592.7, 529.8 591.2 C 521.3 582.1, 508 559.7, 491.4 527 C 466.4 477.5, 442.3 443.3, 426.3 434.7 C 423 433, 423 433, 427.7 438.7 M 418.9 439.9 C 423.1 445.2, 422.8 445.9, 418.3 441.6 C 412.7 436.3, 412.4 437.2, 417.6 444.3 C 422.2 450.5, 431 467.6, 431 470.2 C 431 471, 431.4 472, 431.9 472.6 C 432.4 473.1, 433.7 476.9, 435 481 C 436.2 485.1, 437.5 489.6, 438 491 C 438.5 492.4, 439.8 496.9, 441 501 C 442.1 505.1, 443.5 509.9, 443.9 511.5 C 444.7 513.9, 454.3 552.7, 459.2 573.2 C 460.2 577.2, 460.7 577.9, 463.3 578.4 C 469.3 579.6, 470.3 579.3, 469.6 576.3 C 468.2 570.5, 466 560.2, 464.5 553 C 463.7 548.9, 462.3 542.4, 461.5 538.5 C 460.7 534.7, 459.5 529, 458.9 526 C 457.9 520.6, 456.4 514.9, 453.4 504 C 444.3 471.8, 425.9 436, 418.4 436 L 415.8 436 418.9 439.9 M 308.8 441.6 C 311.3 442.7, 312 443.5, 311.7 445.3 C 311.5 446.5, 311.5 446.9, 311.7 446.3 C 312.6 443.7, 315.9 447, 318 452.5 L 319 455.1 316.5 453.3 C 315.2 452.3, 314 450.6, 314 449.5 C 313.9 448.4, 313.6 448.1, 313.3 448.7 C 313 449.6, 311.2 449.8, 307.2 449.4 C 300.3 448.7, 301.9 450.6, 309 451.6 C 311.5 452, 314.6 453.1, 315.9 454.1 C 318.9 456.5, 323 456.6, 323 454.4 C 323 453.5, 322.5 453, 321.8 453.2 C 320.1 453.8, 317.1 447.9, 318.3 446.3 C 318.8 445.6, 318.7 444.4, 318.1 443.3 C 317.2 441.7, 317.1 441.8, 317 443.9 C 317 446.3, 317 446.3, 314.4 443.2 C 312.4 440.8, 310.9 440, 308.6 440.1 L 305.5 440.2 308.8 441.6 M 384.3 441.9 C 364.5 458.4, 352.2 475.4, 337.7 506 C 334.2 513.4, 330.5 522, 329.6 525 C 328.7 528, 327.5 531.9, 327.1 533.5 C 326.6 535.2, 325.2 541, 324 546.5 C 322.8 552, 321.5 558.3, 321 560.5 C 320.5 562.7, 319.8 566.3, 319.5 568.5 C 319.2 570.7, 317.7 577.3, 316.3 583.2 C 314.8 589.2, 313.8 594.2, 314.1 594.4 C 314.3 594.7, 318.8 594, 324 592.9 C 329.2 591.9, 333.8 591, 334.3 591 C 334.7 591, 335 586.6, 335 581.3 C 335 574.6, 335.3 572, 336 573 C 336.5 573.8, 337 577.5, 337 581.3 C 337 589, 336.5 588.7, 348 587 C 358.2 585.4, 379.2 583.1, 393.5 582 C 400.7 581.4, 409.7 580.5, 413.5 580 C 417.4 579.5, 428.7 578.8, 438.7 578.4 L 456.9 577.7 456.3 574.6 C 456 572.9, 454.7 567.5, 453.3 562.5 C 450.5 552, 448.4 544, 444.1 527.7 C 434.4 491, 431.2 479.8, 429.7 478.4 C 429.3 478, 429 477, 429 476.2 C 429 473.2, 416.2 447, 412.6 442.5 L 410.1 439.5 407.1 442.5 L 404.1 445.5 403.4 469.3 C 403 482.4, 402.3 493.3, 401.9 493.6 C 401.4 493.9, 401 483.5, 401 470.6 C 401 444.1, 400.4 442.2, 395.4 452.8 C 393.9 455.9, 392.5 458, 392.3 457.3 C 392.1 456.7, 393 454, 394.5 451.4 C 397.5 446.1, 397.4 444.3, 394.4 446.4 C 392.6 447.7, 386.5 458.9, 384 465.5 C 375.9 486.6, 371.3 511.8, 370.8 536.7 C 370.5 549.6, 369.8 552.9, 368.4 547.3 C 367.3 543.2, 368.7 514.5, 370.5 504 C 375.1 476.5, 384 451.7, 391.9 444.5 C 396.2 440.7, 388.8 438.1, 384.3 441.9 M 277.4 458.8 C 277 459.7, 276.2 461.9, 275.5 463.5 C 274.8 465.2, 273.4 468.8, 272.5 471.5 C 271.5 474.3, 270.3 476.9, 269.8 477.5 C 269.4 478, 269 479, 269 479.7 C 269 481.7, 259.9 499.8, 256.4 504.6 C 254.8 506.9, 252.8 509.8, 252 511 C 251.2 512.2, 250.1 513.8, 249.5 514.4 C 245.9 518.5, 241.9 524.2, 242.2 524.6 C 242.5 524.8, 246.2 524.3, 250.6 523.5 C 267 520.4, 290.6 521.7, 305.9 526.6 C 310 527.9, 313.5 528.9, 313.6 528.7 C 313.7 528.6, 311.4 525.6, 308.4 522 C 302.2 514.5, 287 484.6, 287 479.8 C 287 479, 286.6 478, 286.1 477.5 C 285.3 476.6, 281.9 466, 280.4 459.8 C 279.7 456.6, 278.2 456.1, 277.4 458.8 M 225.7 463.8 C 222.1 467.8, 219.1 485.2, 219 503.3 L 219 511 225.3 511 C 234.9 510.9, 234.9 511, 235.5 492.4 C 235.9 483.7, 236.6 475.1, 237.2 473.4 C 239.9 465.8, 230.7 458.2, 225.7 463.8 M 225.7 466.9 C 223 470.2, 222.4 473.7, 221.4 495.3 L 220.7 509 226.1 509 C 229.1 509, 232.2 508.6, 233 508 C 235.4 506.5, 233.7 506.1, 229.1 507.1 C 222.8 508.5, 222.1 508, 223 502.8 C 223.4 500.4, 224.1 492.4, 224.4 485 C 224.9 475.6, 225.6 470.8, 226.6 469.2 C 228.8 465.9, 232.1 466.7, 234.3 471 L 236.1 474.5 235.5 471 C 234.3 464.5, 234 464, 231 464 C 229.1 464, 227.4 465, 225.7 466.9 M 314 478.1 L 311.5 478.8 314.3 478.9 C 316.1 479, 317 479.5, 317 480.6 C 317 482, 315.8 482.2, 309.3 481.9 C 303.8 481.6, 301.6 481.9, 301.3 482.8 C 300.8 484, 302.7 484.5, 306.8 484.1 C 308.7 483.9, 309 484.4, 309 488 C 309 492.1, 309.4 492.9, 313.8 497.7 C 316.6 500.7, 319.6 500.4, 322.3 496.8 C 324.6 493.8, 324 491.9, 321.5 494 C 320.1 495.2, 320 494.8, 320.4 490.9 C 320.8 487.8, 320.7 487.2, 320.1 489 L 319.3 491.5 318.9 489 C 318.6 486.8, 318 486.5, 314.8 486.6 C 312.7 486.7, 311 486.4, 311 486 C 311 484.7, 316.2 483.8, 317.3 484.9 C 318.8 486.4, 320 486.3, 320 484.6 C 320 483.8, 320.8 482.9, 321.8 482.7 C 323.1 482.3, 322.9 482.2, 321.3 482.1 C 319.3 482, 318.6 481, 318.9 478.8 C 319 477.7, 316.6 477.3, 314 478.1 M 527 514.6 C 527 515, 528.2 516.6, 529.6 518.4 C 532.7 522.1, 552.5 550.1, 554 553 C 554.6 554.1, 555.7 555, 556.4 555 C 559.7 555, 579.2 531.9, 581.9 524.7 L 582.8 522.3 566.7 521.7 C 557.8 521.4, 548.7 520.6, 546.5 520 C 544.3 519.4, 540.7 518.4, 538.5 517.9 C 536.3 517.4, 533.1 516.3, 531.3 515.5 C 527.9 513.9, 527 513.7, 527 514.6 M 673.6 528.3 C 671.4 535, 669.3 540.9, 668.8 541.5 C 668.4 542, 668 543, 668 543.8 C 668 545, 666.7 548.2, 662.4 557.7 C 661.6 559.4, 661 561.1, 661 561.4 C 661 563.6, 646 592, 642 597.6 C 639.3 601.3, 637.2 604.6, 637.5 604.8 C 637.9 605.2, 646.3 602.5, 649.2 600.9 C 650.2 600.4, 651.9 600, 652.9 600 C 654.4 600, 655.8 598.1, 658.4 592.8 C 660.4 588.8, 662 586.4, 662 587.5 C 662 588.6, 660.8 591.5, 659.5 593.9 C 656.4 599.2, 656.7 599.6, 662.4 598.1 C 664.9 597.5, 669.6 597, 673 597 C 677.7 597, 679.2 596.6, 679.7 595.4 C 680.2 593.9, 680.5 593.9, 681.4 595.2 C 682.1 596.2, 684.8 596.9, 688.8 597.2 L 695.1 597.6 694.5 595.1 L 693.9 592.5 695.6 595 C 698.1 598.5, 699 599, 703 599 C 704.9 599, 708.1 599.5, 710 600.1 C 711.9 600.7, 714.7 601.3, 716.1 601.6 C 717.6 601.8, 720.7 602.6, 723.1 603.4 C 728.2 605.2, 728.9 604.9, 725.8 602.4 C 712 591.5, 690.5 553.3, 681 523.3 C 679.8 519.3, 678.5 516, 678.1 516 C 677.8 516, 675.7 521.5, 673.6 528.3 M 183 521.3 C 182.8 524.8, 175.1 541.3, 172 544.7 C 164 553.4, 159.6 560, 158.5 564.8 C 157.5 569.6, 158.7 568.6, 161.5 562.5 C 163.8 557.2, 172.5 546, 174.2 546 C 174.7 546, 174.8 547.6, 174.4 549.5 C 174 551.8, 174.2 553, 174.9 553 C 175.5 553, 176.1 551.8, 176.2 550.3 C 176.5 545.1, 176.6 544.5, 178.4 541.2 C 180.6 537, 185 524.1, 185 521.8 C 185 519.8, 183 519.3, 183 521.3 M 464.4 534.5 C 464.7 536.7, 465.7 541.7, 466.5 545.5 C 467.3 549.4, 468.7 555.9, 469.5 560 C 470.3 564.1, 471.7 570.4, 472.5 574 C 476 589.1, 476.4 593.8, 473.8 591.2 C 471.8 589.2, 470.9 589.8, 471.3 592.8 C 471.6 595.4, 472 595.5, 478.5 596.2 C 488.9 597.2, 488.8 598.9, 478.4 598.5 L 469.5 598.2 469 593.3 L 468.5 588.5 458.8 588.2 L 449 587.9 449 593.7 C 449 597.3, 448.6 599, 448.1 598.1 C 447.6 597.4, 447.5 595.9, 447.7 594.9 C 449.1 589.5, 447.4 588, 440 588 L 433 588 432.8 591.3 C 432.6 596.3, 432.5 596.8, 431.7 597.6 C 431.3 598, 431 595.7, 431 592.6 C 431 586.9, 431 586.8, 428.3 587.4 C 426.7 587.7, 422.7 588.2, 419.3 588.5 C 415.1 589, 413 589.6, 413 590.5 C 413 591.6, 412.4 591.5, 410 590.3 C 407.6 589.2, 405.3 589, 400 589.5 L 393.2 590.2 392.5 596.3 C 391.3 607.9, 391.3 608, 387.1 608 C 380 608, 377.4 614.2, 383.8 615.9 C 391.4 618.1, 393.9 616.5, 392.5 610.8 C 392.1 609.2, 392.4 607.9, 393.3 607.1 C 395 605.7, 419.2 603.9, 442 603.5 C 450.5 603.3, 462.7 602.9, 469 602.5 C 475.3 602.1, 481.7 601.8, 483.3 601.9 C 485.3 602, 486.3 601.4, 487.1 599.6 C 488.3 597.1, 488.5 597.6, 476.3 564 C 473.9 557.1, 470.5 547.5, 468.9 542.6 C 465.3 531.8, 463.6 528.7, 464.4 534.5 M 260 540.4 C 260 542.9, 260.5 545.2, 261 545.5 C 262.8 546.6, 262 548, 259.5 548 C 257.2 548, 257 547.7, 257 543.1 C 257 537.2, 256.5 536.8, 251.7 538.1 C 247.8 539.2, 247 540.9, 249.5 543 C 250.7 544, 251 543.9, 251 542.2 C 251 541.1, 251.6 540, 252.3 539.7 C 253.2 539.4, 253.6 540.8, 253.7 544.9 C 253.7 548, 254.2 552.8, 254.8 555.5 C 255.3 558.3, 255.9 569.9, 255.9 581.4 C 256.1 599.8, 256.3 602.5, 257.8 603.7 C 259.3 605, 259.3 605.1, 257.9 604.7 C 256.6 604.3, 256.1 605, 255.7 607.8 C 255.1 612.5, 255.5 612.8, 261.3 612.2 L 266 611.8 266 607.2 C 266 604, 266.3 602.9, 267 603.6 C 267.8 604.4, 267.8 606.6, 267.1 611.1 C 266.5 614.6, 266 619.5, 266 621.9 L 266 626.2 269.3 625.7 C 271 625.4, 274.4 624.8, 276.8 624.5 L 281 623.7 281 618.9 L 281 614 275.3 614 C 271.2 614, 269.9 613.7, 271 613 C 271.8 612.5, 273.8 612, 275.3 612 C 277.9 612, 278.1 611.7, 277.8 608.8 C 277.5 605.7, 277.2 605.5, 273.3 605.2 C 267.4 604.8, 267.9 603, 273.8 603 C 280.3 603, 281.3 603.9, 280.4 608.5 C 279.9 611.2, 280 612.1, 280.9 611.6 C 281.5 611.2, 282 609.8, 282 608.6 C 282 603.6, 284.1 601.5, 289.5 601.3 C 292.3 601.2, 295.7 600.6, 297 600 C 299 599.2, 298.1 599, 292.3 599.3 C 286.9 599.5, 285 599.2, 285 598.3 C 285 597.6, 286.1 597, 287.5 597 C 292.5 597, 295.7 590, 297.5 575 C 298.3 567.8, 299 559.6, 299 556.9 C 299 553.3, 299.4 552, 300.5 552 C 302.4 552, 304.3 548.3, 303.7 545.9 C 303.1 543.8, 304.6 543.2, 305.3 545.3 C 305.5 545.9, 306 546.2, 306.4 545.9 C 306.7 545.6, 306.3 544.5, 305.5 543.4 C 304 541.5, 304 541.5, 302.7 543.5 C 302.1 544.6, 301.3 546.3, 301 547.3 C 300.2 550.1, 298.7 548.8, 298.6 545.2 C 298.5 542.7, 298.9 542, 300.5 541.9 L 302.5 541.9 300.5 541.1 C 299.4 540.6, 298.4 540.7, 298.2 541.1 C 297.6 542.6, 296 542.1, 296 540.4 C 296 539.3, 295.4 538.9, 294 539.3 C 293 539.6, 291.5 539.1, 290.9 538.3 C 289.9 537.2, 288.3 537, 283.6 537.5 C 274.2 538.5, 274.4 538.3, 274.4 544.4 L 274.4 549.8 281.7 550.5 C 288.1 551.1, 291.1 552.2, 289.8 553.6 C 289.5 553.8, 286.8 553.3, 283.6 552.5 C 280.5 551.7, 276.6 551, 275 551 C 272.3 551, 272 550.7, 272 548 C 272 546, 271.5 545, 270.5 545 C 269.7 545, 269 544.6, 269 544 C 269 543.5, 269.6 543, 270.3 543 C 270.9 543, 272 541.4, 272.6 539.5 L 273.7 536 266.9 536 L 260 536 260 540.4 M 575.1 541.2 C 571.7 545.3, 571.7 545.3, 572.8 550.9 C 573.4 554, 574.2 558.9, 574.6 561.8 L 575.3 567 587.1 567 C 593.7 567, 599 566.7, 599 566.4 C 599 566.1, 595.9 561.7, 592.2 556.7 C 588.4 551.6, 583.9 545.1, 582 542.3 C 580.2 539.4, 578.6 537, 578.6 537 C 578.5 537, 577 538.9, 575.1 541.2 M 229 544 C 229 548.1, 228.3 548.9, 226.2 546.8 C 224.5 545.1, 222.9 547.7, 220 556.4 C 218.8 560.3, 217.3 564.7, 216.8 566.2 C 216.2 567.7, 216.1 569.4, 216.5 570.1 C 217.5 571.6, 219.5 566.9, 220.5 561.2 C 220.9 558.9, 221.6 556.8, 222.1 556.4 C 222.6 556.1, 223 555.1, 223 554.2 C 223 551.6, 224.3 550.2, 227.3 549.5 C 229.8 548.8, 230 549, 230 552.2 C 230 554.1, 230.4 556, 230.9 556.6 C 231.4 557.1, 232 558.4, 232.3 559.5 C 233.1 563.3, 232.2 556.5, 230.9 549.8 C 229.8 544, 230.4 539, 231.7 542.8 C 232 543.4, 233.2 544, 234.4 544 C 235.6 544, 237.5 544.7, 238.6 545.5 C 241.1 547.4, 242.2 547.4, 241.8 545.4 C 241.6 544.4, 239.3 543, 236 541.9 C 228.8 539.5, 229 539.4, 229 544 M 563.9 554.4 C 558.5 560.2, 558.5 560.1, 561 562.8 C 562.9 564.8, 570.5 567.8, 571.4 566.9 C 571.7 566.6, 569.5 553.2, 568.7 550.6 C 568.5 550.1, 566.4 551.8, 563.9 554.4 M 282.2 568.7 C 282.5 572.2, 282.7 572.5, 285.3 572.2 C 287.3 571.9, 288 572.3, 288 573.6 C 288 574.9, 287.4 575.1, 285 574.7 C 282.5 574.2, 282 574.4, 282 575.9 C 282 577.3, 282.9 577.9, 285.8 578.2 C 290.3 578.8, 289.7 579.7, 290.2 572 L 290.5 565.5 286.2 565.2 L 281.9 564.9 282.2 568.7 M 299.5 578 C 299.3 578.4, 299.2 580.9, 299.3 583.6 C 299.4 587.9, 299 588.9, 296.2 592 C 293 595.4, 292.3 596.9, 293.8 597.1 C 294.2 597.2, 296.9 597.4, 299.8 597.5 C 304.6 597.8, 308.7 599, 304.7 599 C 303.8 599, 303 599.7, 303 600.5 C 303 601.4, 303.9 602, 305.5 602 C 308.6 602, 308.8 603.6, 305.9 604.3 C 304.4 604.7, 303.9 605.4, 304.4 606.5 C 304.8 607.7, 304.5 608.1, 303.2 607.8 C 302.3 607.6, 301.4 606.5, 301.2 605.2 C 300.7 602, 299 602.5, 299 605.9 C 299 609.9, 299.6 610.1, 307.3 608.7 C 313.6 607.7, 316.4 606, 312 606 C 310.7 606, 309.8 605.1, 309.4 603.3 C 309.1 601.7, 308.7 600, 308.5 599.3 C 308.3 598.7, 308.9 595.3, 309.9 591.8 C 310.9 588.3, 312 583.6, 312.4 581.3 L 313 577.1 306.5 577.2 C 302.9 577.2, 299.7 577.6, 299.5 578 M 433.2 583.3 C 433.5 585.4, 433.9 585.5, 442.9 585.4 C 451.8 585.2, 453.9 584.5, 454 581.8 C 454 581.3, 449.2 581, 443.4 581 C 433 581, 432.9 581, 433.2 583.3 M 376.6 592.3 L 369.8 593.3 370.4 597.1 C 371.2 602, 370.4 602.1, 368.4 597.4 L 366.9 593.7 360.8 594.4 C 357.4 594.7, 353.4 595, 351.9 595 C 349.5 595, 349 595.4, 349 597.4 C 349 600.1, 347.4 601.8, 346.8 599.8 C 346.2 598, 335.2 600.8, 334 603 C 333.3 604.3, 331.3 604.9, 326 605.2 C 317.4 605.8, 317.2 606.1, 316.2 613.6 C 315.5 619.5, 315.5 619.5, 312 619.7 C 309.1 619.9, 308.9 619.8, 311 619.2 C 313.2 618.5, 313.5 617.8, 313.8 613.6 C 314.1 609, 314 608.9, 311.8 609.5 C 310.6 609.9, 307.3 610.5, 304.5 610.9 L 299.5 611.5 299.2 616.2 L 298.9 621 301.8 620.4 C 303.4 620.1, 305.7 620.3, 306.8 620.9 C 309 622.1, 318.9 621.1, 331.1 618.4 C 339.3 616.7, 338.9 616.6, 338.4 618.8 C 338 620.1, 336.8 620.5, 332.7 620.6 C 328.1 620.6, 315 622.6, 314.3 623.4 C 314.1 623.5, 313.5 628.8, 313 635.1 C 312.4 641.4, 311.7 648.1, 311.4 650.1 C 310.8 653.6, 310.8 653.7, 314.2 653.4 C 316.4 653.1, 316.9 653.3, 315.5 653.8 C 310.7 655.5, 310.2 656.3, 309.7 663.5 C 309.1 673.4, 306.5 691.8, 304.1 703.4 C 303 708.9, 302.2 713.5, 302.3 713.6 C 302.5 713.8, 316.4 712.4, 323.2 711.4 C 325.8 711.1, 329.1 711.1, 330.7 711.6 C 332.9 712.2, 331.6 712.6, 324.5 713.1 C 313.4 714.1, 303.2 715.5, 302.5 716.1 C 302.3 716.4, 301.6 719.5, 301.1 723.1 C 300.6 726.6, 299.8 730.9, 299.5 732.6 L 298.8 735.8 304.6 734.4 C 312.9 732.4, 318.9 731.3, 330.8 729.9 C 340.7 728.6, 341 728.5, 341 726 C 341 722.8, 342.6 704.4, 344 691.5 C 346.3 668.8, 352.4 654, 364 642.2 C 375.3 630.7, 386.9 626, 396.1 629.2 C 407.7 633.2, 424.6 648.1, 428.9 658 C 434.3 670.5, 435.3 674.3, 434.7 679.4 C 434.4 681.6, 434.4 682.7, 434.7 681.8 C 435.5 678.8, 437 679.8, 437 683.4 C 437 685.3, 437.5 689, 438 691.7 C 438.6 694.3, 439.4 703, 439.8 711 L 440.5 725.5 454 725.8 C 461.4 725.9, 470 726.4, 473 726.9 C 481.6 728.4, 489.9 729.1, 487 728.1 C 485.6 727.7, 482.1 726.1, 479.1 724.6 C 476.1 723.2, 471.8 722, 469.6 721.9 L 465.5 721.8 469 720.9 C 472.8 720, 479.8 721.8, 485.6 725.2 C 488.5 726.9, 502.1 731.2, 502.7 730.6 C 502.9 730.4, 502.1 726.8, 500.9 722.4 C 499.8 718.1, 498.2 710.5, 497.5 705.7 C 495.6 693.5, 496 694, 489.3 693.9 C 478.9 693.7, 476.6 692.2, 486.4 692.1 C 495 692, 495.2 691.9, 494.7 689.8 C 494.4 688.5, 493.6 684.5, 492.9 680.8 L 491.6 674 483.1 673.9 C 470.8 673.7, 468.6 673.1, 468.3 669.8 C 468.2 668.3, 468.5 666.8, 469.1 666.5 C 469.6 666.1, 470 667, 470 668.3 C 470 671, 473.9 672, 485.1 672 C 490.9 672, 491 672, 491 669.1 C 491 667.6, 490.6 665, 490.1 663.4 C 489.5 661.8, 488.6 657.2, 488 653.2 C 486.6 644.9, 485.2 643, 480.4 643 C 476.5 643, 473 641.5, 473 639.8 C 473 639.1, 473.4 639.1, 474.3 639.7 C 474.9 640.3, 477.8 641, 480.7 641.3 L 485.9 641.9 485.4 638.7 C 485 636.9, 484.4 633.9, 484 632 C 483.5 630.1, 482.9 625.1, 482.5 621 C 482.2 616.9, 481.4 611.2, 480.9 608.4 L 479.9 603.3 475.5 603.4 C 473 603.4, 471 603.8, 471 604.3 C 471 604.7, 466.1 605, 460.1 605 C 450.5 605, 449.1 605.2, 448.7 606.8 C 448.3 608.3, 448.2 608.3, 448.1 606.6 C 448 604.9, 447.2 604.8, 435.3 605.4 C 418.6 606.2, 413 606.9, 413 608.4 C 413 609, 412.6 608.9, 412.1 608.1 C 411.4 607, 409.6 606.9, 402.9 607.6 L 394.5 608.5 394.8 612.3 C 395.3 617.7, 393.8 619, 387 619 C 380.5 619, 379.5 618.3, 378.6 612.4 C 378 608.3, 378.1 608.3, 381.9 607.2 C 384 606.5, 386.4 606, 387.2 606 C 389.1 606, 390 603, 390 596.3 L 390 591 386.8 591.1 C 385 591.2, 380.4 591.7, 376.6 592.3 M 573.5 592.5 C 569.7 593.3, 562.2 595, 557.1 596.4 C 551.9 597.9, 546.7 599, 545.6 599 C 542.4 599, 544.3 600, 551.1 601.8 C 556.9 603.4, 557.8 604, 560.7 608.3 C 562.5 610.9, 564.2 612.6, 564.5 612 C 564.9 611.3, 565.6 611.2, 566.3 611.8 C 567 612.4, 571.3 613.1, 576 613.5 C 580.7 613.9, 586.9 614.9, 589.8 615.6 C 592.7 616.4, 595.3 617, 595.5 617 C 597.1 617, 595.3 613.6, 590.6 607.4 C 587.6 603.5, 585 599.5, 584.8 598.4 C 584.6 597.3, 583.5 596.4, 582.2 596.2 C 580 595.9, 580 595.7, 581.6 594.6 C 583.1 593.4, 582.9 590.9, 581.2 591.1 C 580.8 591.1, 577.4 591.8, 573.5 592.5 M 290 603.7 C 285.6 604.3, 284 605.6, 284 608.6 C 284 610.9, 284.3 611, 290.5 611 L 297 611 297 607 C 297 602.7, 297.3 602.9, 290 603.7 M 354.5 609.1 C 344.7 610.1, 342.3 610.7, 347.3 610.9 C 351.2 611, 351.5 611.6, 351 619.1 C 350.9 621.2, 351.4 621.9, 353.5 622.4 C 358.8 623.7, 366.4 620.6, 363 618.5 C 362.4 618.1, 362 618.3, 362 618.8 C 362 620, 356.5 621.1, 354.5 620.4 C 353.5 620, 353 618.4, 353 615.5 L 353 611.3 358.3 610.5 C 361.1 610.1, 366.4 609.4, 370 609 L 376.5 608.3 369.5 608.3 C 365.7 608.3, 358.9 608.6, 354.5 609.1 M 516.7 610.7 C 514.5 612.8, 516.4 613.9, 523.3 614.3 C 535.1 615, 540 616.8, 540 620.2 C 540 622.4, 539.5 623, 537.9 623 C 536.5 623, 536 622.4, 536.2 621.3 C 536.3 620.3, 536 619.4, 535.5 619.2 C 534.9 619.1, 534.4 619.9, 534.2 621 C 533.6 624.5, 528.5 623.4, 528.5 619.8 C 528.4 618.3, 528.1 616.8, 527.7 616.4 C 527.3 616, 527 617.1, 527 618.9 C 527 621.4, 526.6 622.1, 525.6 621.7 C 524.1 621.1, 522.7 623.3, 523.7 624.4 C 524.1 624.7, 528 625, 532.6 625 C 540.3 625, 540.8 625.1, 540.3 627 C 539.9 628.4, 540.3 629, 541.5 629 C 543 629, 543.2 628.4, 542.6 625.3 C 542.3 623.2, 542 620.3, 542 618.8 C 542 616.4, 541.3 616, 535.5 614.1 C 532 612.9, 526.9 612, 524.2 612 C 521.6 612, 518.9 611.5, 518.4 611 C 517.8 610.4, 517.1 610.3, 516.7 610.7 M 283.6 614.3 C 283.3 614.9, 282.9 617.2, 282.6 619.4 L 282.1 623.3 288 622.7 C 295.5 622.1, 296 621.7, 296 616.9 L 296 613 290 613 C 286 613, 283.8 613.4, 283.6 614.3 M 565 617.5 C 565 619.8, 565.3 620, 570.3 620.1 C 579.4 620.3, 583.1 622.2, 582.3 626.3 C 581.9 628.2, 581.5 628.7, 581 628 C 579.7 625.9, 578 627.9, 578 631.4 C 578 634.4, 578.3 634.7, 582.8 635.7 C 585.4 636.3, 588.5 637.1, 589.8 637.5 C 591.7 638.1, 592 637.9, 592.1 635.4 L 592.2 632.5 593.1 635.5 C 593.8 638.1, 593.9 638, 593.5 634.5 C 593.2 632.3, 593 629.5, 593 628.2 C 593 626.1, 592.7 625.9, 590 626.5 C 586.9 627.2, 586.1 626.3, 588.1 624.3 C 588.9 623.5, 590.1 623.5, 591.6 624 C 593.8 624.9, 594 624.7, 594 622.2 C 594 618.6, 590.8 617.4, 578 616 C 564.7 614.6, 565 614.6, 565 617.5 M 566 626.9 C 566 631.3, 566.3 632, 567.9 632 C 570.6 632, 571.3 630.5, 569.6 628.7 C 567.9 627, 568.6 623, 570.6 623 C 571.4 623, 572 624.6, 572.2 627.7 C 572.4 631.3, 572.9 632.6, 574.3 632.8 C 575.7 633.1, 576 632.4, 576 629.1 C 576 626.9, 576.5 624.8, 577 624.5 C 577.6 624.2, 578 624.4, 578 624.9 C 578 625.5, 578.7 626, 579.5 626 C 581.4 626, 581.5 624.4, 579.6 623.7 C 578.8 623.4, 575.4 622.8, 572.1 622.4 L 566 621.7 566 626.9 M 384.6 631.7 C 376.7 633.9, 363.8 645.3, 358 655 C 349.6 669, 347.6 678.5, 344.1 720.4 L 343.5 728.2 351 727.6 C 374.9 725.5, 383 725.1, 407.7 725.1 C 422.8 725, 435.1 724.6, 435.4 724.1 C 435.8 723.6, 436.2 715.6, 436.4 706.3 C 436.7 697.1, 436.7 690.6, 436.5 692 C 436.2 693.4, 435.9 698.3, 435.8 703 L 435.5 711.5 426 711.7 C 420.8 711.8, 402.2 712.4, 384.7 713 C 353.3 714.1, 350 713.9, 351.8 711.7 C 352.3 711, 353.1 706.5, 353.5 701.5 C 356.2 666.4, 365 648, 383.8 638.6 C 389 636, 389 636, 394.3 637.7 C 415.1 644.4, 424.6 662.4, 426.7 698.8 C 427.1 705.3, 427.7 709, 428.4 709 C 429 709, 430.5 709.3, 431.8 709.6 C 437.4 711.1, 433.3 675.1, 425.9 658.5 C 419.5 644, 395.7 628.5, 384.6 631.7 M 712.6 635.3 C 712.7 637.6, 713 640.6, 713.3 642 C 713.7 643.4, 714.2 655.1, 714.5 668 C 714.8 680.9, 715.3 699, 715.6 708.3 C 716.1 720.8, 715.9 725.4, 715 726.5 C 713.6 728.2, 713.5 728.1, 720.8 728.5 C 726.2 728.9, 733.1 731.6, 733.8 733.7 C 734.1 734.6, 733.2 734.8, 730.8 734.5 C 727.8 734, 727.7 734.1, 729.7 735.1 C 730.9 735.7, 732.1 737.2, 732.3 738.4 C 732.6 740.3, 732.7 740.3, 734 737.7 C 736.9 731.8, 730.8 726.4, 720.9 726.1 L 718.4 726 718.1 711.3 C 718 703.1, 717.5 693.9, 717.1 690.8 C 716.2 683.8, 717.2 683.4, 724 688 C 726.5 689.7, 730.9 692.2, 733.8 693.6 C 736.7 695.1, 740.9 698.1, 743.1 700.4 C 745.3 702.6, 746.8 703.7, 746.5 702.8 C 746.1 701.8, 745.3 701, 744.8 701 C 744.2 701, 744.3 700.4, 745 699.5 C 746 698.3, 746 698, 744.7 698 C 743.9 698, 743 697.6, 742.8 697.1 C 742.7 696.6, 739.4 694.5, 735.6 692.5 C 731.8 690.5, 726.9 687.5, 724.7 685.9 C 722.5 684.3, 719.7 683, 718.4 683 L 716.2 683 716.2 661.6 C 716.1 641.9, 715.2 632.9, 713.2 631.6 C 712.8 631.4, 712.5 633, 712.6 635.3 M 391 639.1 C 391 639.5, 392.3 640.6, 393.9 641.4 C 408 648.8, 417.8 667.1, 419.5 689.5 C 421 710.5, 421.1 710.9, 423.7 709.2 C 425.3 708.2, 422.7 679.4, 420.4 671.2 C 417.9 662.8, 413.3 654.5, 408.1 649.4 C 403.5 644.9, 391 637.3, 391 639.1 M 702.9 644 C 702.6 646.5, 702.8 663.5, 703.4 681.9 C 704.2 707.8, 704.1 715.5, 703.2 715.8 C 701.5 716.3, 702.7 718, 704.8 718 C 705.8 718, 708.2 719.1, 710.3 720.5 C 712.3 721.9, 714 722.9, 714 722.6 C 714 721.8, 709.6 717.6, 707.5 716.4 C 705.1 715.1, 705.2 716.2, 704.2 671.5 C 703.8 653.9, 703.2 641.5, 702.9 644 M 379.9 644.6 C 366.8 653.3, 360.6 666.2, 357.5 690.7 C 355.4 707.7, 355.5 711, 358 711 C 359.8 711, 360 710.3, 360 702.3 C 360.1 685.8, 365.9 661.1, 370.3 659.2 C 370.7 659, 371 658.3, 371 657.6 C 371 656.4, 379.6 647.5, 385 643.1 C 389.2 639.7, 385.6 640.8, 379.9 644.6 M 382.6 651.1 C 370.9 663.7, 365 680.9, 365 702.2 L 365 710.8 377.8 710.4 C 384.8 710.1, 396.4 709.7, 403.5 709.4 L 416.5 708.8 416.2 699.7 C 415.5 677.2, 409.7 659.9, 399.8 651.5 C 392.2 644.9, 391 644, 390.1 644 C 389.6 644, 386.2 647.2, 382.6 651.1 M 666 702.9 C 666 706.9, 665.6 708.2, 663.8 709.4 C 659.5 712.4, 663.1 712.2, 668.9 709.1 C 672.1 707.4, 675.5 706, 676.4 706 C 679.5 706, 676.4 710.4, 671.4 713.2 C 665.9 716.3, 667.2 716.8, 674.2 714.3 C 678.9 712.6, 680 711.2, 680 706.3 C 680 703.5, 675.6 703.1, 672.4 705.5 C 669.9 707.4, 667.6 707.4, 668.4 705.5 C 669.1 703.5, 668 698, 666.9 698 C 666.4 698, 666 700.2, 666 702.9 M 525.5 747 C 524.8 748.1, 529.3 750.5, 534 751.5 C 539.4 752.6, 547 755.4, 547 756.3 C 547 756.7, 545.9 757.6, 544.5 758.2 C 540.4 760.1, 541.5 761.8, 547.8 763 C 550.9 763.6, 554.2 764.4, 555 764.9 C 555.9 765.4, 559 766.1, 562 766.5 C 565 766.8, 568.4 767.4, 569.5 767.7 C 571.2 768.2, 571.3 768.1, 570.2 766.8 C 569.5 765.9, 566.4 764.9, 563.2 764.5 C 560.1 764.1, 557.1 763.5, 556.5 763.2 C 556 762.8, 555.3 762.5, 555 762.4 C 554.7 762.4, 552.4 762, 549.8 761.6 C 544.8 760.7, 544.2 760.2, 546.2 758.2 C 547.7 756.7, 549.4 756.6, 548.4 758.1 C 548 758.8, 548.5 759.1, 549.5 758.8 C 550.5 758.7, 551.5 758, 551.7 757.4 C 552.1 756.3, 544.2 752, 541.7 752 C 540.8 752, 539.9 751.6, 539.6 751.1 C 539.3 750.6, 537.3 749.9, 535.3 749.5 C 533.2 749.1, 530.3 748.2, 528.8 747.4 C 527.2 746.6, 525.9 746.4, 525.5 747 M 255.7 747.7 C 255.3 748, 249.5 748.6, 242.8 749 C 231.3 749.7, 220.8 752, 219.4 754.1 C 218.7 755.3, 219.5 755.2, 223.6 753.5 C 227.6 751.9, 245.3 749.8, 247.8 750.7 C 248.7 751, 250.7 752.4, 252.2 753.8 C 253.7 755.2, 255.3 756, 255.7 755.6 C 256.2 755.2, 255.5 754, 254.3 753 C 251.1 750.5, 251.4 749, 255.1 749 C 257 749, 257.9 749.4, 257.5 750.1 C 256.6 751.5, 257.8 756, 259.1 756 C 259.8 756, 260 755, 259.6 753.5 C 259.1 751.6, 259.3 751.2, 260.5 751.6 C 262.8 752.5, 262.3 750.3, 259.8 748.6 C 257.3 746.8, 256.6 746.7, 255.7 747.7" stroke="none" fill="#1b1f3a" fill-rule="evenodd"/></svg>