<svg xmlns="http://www.w3.org/2000/svg" viewBox="0 0 768 768" version="1.1" preserveAspectRatio="xMidYMid meet"><path d="M 334.5 30.9 C 333.4 31.3, 332.3 32.7, 332 33.9 C 331.7 35.1, 331.3 36, 331 35.9 C 330.1 35.5, 326 38, 326 38.9 C 326 39.4, 326.7 40, 327.4 40.3 C 328.4 40.7, 328.7 40.4, 328.3 39.4 C 327.6 37.4, 331.1 37.6, 334.9 39.8 C 338.9 42, 338.8 43.1, 334.2 45.2 C 332.2 46.1, 328.4 47.8, 325.8 48.9 C 323.2 50.1, 320.8 51.4, 320.5 52 C 319.4 53.7, 318.2 53.1, 317.6 50.4 C 317.2 48.9, 316.7 48, 316.4 48.2 C 316.2 48.5, 316.5 50.1, 317.1 51.9 C 318.1 54.6, 317.9 55.5, 315.9 58.5 C 313.2 62.5, 312.2 62.6, 305.5 60.3 L 300.7 58.7 298.5 61.3 C 296.1 64, 294.5 71.5, 295.6 74.5 C 296.2 76, 296 76.2, 294.4 75.5 C 287 72.5, 274.4 72.5, 271 75.5 C 268.4 77.9, 268.4 83.4, 271 88.3 C 273.6 93.1, 273.5 93.6, 270.3 95.2 C 267.1 96.7, 265 100.5, 264.3 106.1 C 263.9 108.5, 263.2 110, 262.3 110 C 256.9 110, 254.5 115.8, 258.1 120.4 C 260.1 123, 260.1 123.2, 258.5 126.7 C 255 134.1, 259.4 144.8, 267 147.1 L 271 148.3 265.2 154.4 C 247.8 172.7, 241.5 187.6, 241.5 210 C 241.6 229.2, 247.2 243.9, 258.9 255.9 C 264.1 261.1, 264.5 261.9, 263.8 264.6 C 261.9 270.9, 264.7 280.7, 270 286.5 C 272 288.6, 276.1 290.9, 282.3 293.4 C 286.1 294.9, 286.1 295, 284.6 297.8 C 283.8 299.4, 282.4 301.3, 281.5 302 C 276.3 306.3, 275.9 311.8, 280.5 315.9 C 288.2 322.6, 299 318.4, 299 308.7 C 299 303.9, 294.3 296, 291.5 296 C 289 296, 289.8 294.3, 292.6 293.6 C 294.1 293.2, 295.3 293, 295.5 293.2 C 295.6 293.4, 297.4 297, 299.4 301.3 C 306.1 316, 302.9 326.8, 290.8 330.1 C 282.4 332.3, 277.9 328.7, 276.6 318.8 C 275.8 313.3, 273.7 313.4, 272.5 319.1 C 272.1 320.7, 270.1 324.6, 268 327.8 C 257.1 344.4, 259.2 362.9, 274.4 382.5 C 282.1 392.4, 281.1 386.8, 272.3 371 C 266.3 360, 264.5 348.6, 267.5 339.9 C 270.8 330.4, 275 324.2, 275 328.7 C 275 334.9, 288.5 336.9, 297 331.8 C 301.9 329, 305.4 323.8, 306.5 317.8 L 307.2 314 312.9 318.4 C 323.2 326.3, 338.8 335, 342.6 335 C 348.6 335, 352.8 338.4, 349.8 340.7 C 346.5 343.3, 342.8 342.8, 339.1 339.5 C 328.2 329.6, 304.3 334.5, 288.6 349.7 C 278.4 359.6, 277.1 378.3, 286.1 386.4 C 289.7 389.7, 289.8 390.1, 288.6 392.5 C 287.1 395.4, 287.5 398.3, 289.6 400.1 C 291.7 401.8, 291.4 402.6, 286.6 409.9 C 284.2 413.5, 281.1 418.6, 279.7 421.1 C 274.6 430.5, 276 429.8, 262.6 430.2 C 248.3 430.8, 226.6 428.6, 223.2 426.4 C 221.2 425.1, 220.9 424.2, 221.2 420.4 C 221.4 417.7, 221.1 416.1, 220.5 416.3 C 218.5 417, 217.1 421.7, 216.2 431.3 C 214.7 447.2, 209.2 452.1, 199.2 446.4 C 199 446.3, 200.8 444.2, 203.2 441.8 C 207.6 437.3, 209.2 432.4, 210.8 419.8 C 211.2 416.3, 211.4 416.1, 216.1 415.1 C 218.9 414.5, 221.8 414, 222.5 414 C 223.3 414, 224 413.1, 224 412 C 224 409.5, 221.1 409.4, 214.1 411.7 L 208.9 413.3 204.2 408.9 C 199 403.9, 196.3 402.4, 190.7 401.3 L 186.9 400.5 191.5 394.4 C 198.3 385.1, 199.6 379.3, 196.4 372.2 C 196 371.3, 190.1 375.6, 188 378.4 C 186.6 380.2, 184.2 383.4, 182.6 385.4 C 179.9 388.9, 179.8 389.2, 181.3 390.8 C 182.7 392.2, 183.5 392.2, 186 391.3 C 189.8 389.9, 190 391.3, 186.5 396.1 C 183.9 399.6, 181.2 402, 179.8 402 C 179.4 402, 179 398.5, 179.1 394.3 C 179.1 387.7, 180 383, 183.1 372 C 183.3 371.2, 184.2 369.8, 185.1 368.8 C 188.4 365, 191.1 358.1, 190.8 354.3 L 190.4 350.5 188.7 354.4 C 185 362.3, 175.2 370.5, 166.9 372.5 C 164.3 373.1, 164.1 372.9, 162.2 366.3 C 156.8 347.5, 156.8 346.4, 162.3 344.1 C 175.9 338.2, 181.6 329.7, 186.3 308.4 C 187.2 304.4, 189.1 298.7, 190.5 295.7 C 194.4 287.6, 193.9 286.6, 186.3 286.9 C 180.7 287.1, 180 286.9, 178.5 284.7 L 176.9 282.2 170.2 285.6 C 164.2 288.7, 163.1 288.9, 159.5 288 C 157.3 287.5, 153.4 287, 150.8 287 C 146 287, 146 287, 146 283.6 C 146 281.7, 146.4 279, 147 277.5 C 148.9 272.6, 141.9 273.3, 137 278.5 L 134.7 280.9 132.9 278.6 C 130.6 275.7, 122.6 272.2, 117.4 271.8 C 111 271.3, 112.4 273, 121.2 276.6 C 129.3 279.8, 134 283.6, 134 286.9 C 134 287.9, 133.1 287.5, 131.3 285.8 C 127.8 282.6, 122.3 279.7, 121 280.5 C 120.5 280.8, 117.3 280.6, 114 279.9 C 107.7 278.7, 95 280.4, 96.9 282.3 C 97.3 282.7, 99.2 282.7, 101.1 282.2 C 103.3 281.7, 107.5 281.8, 113 282.7 C 131.2 285.6, 139.5 292.4, 129.7 296.5 C 124.1 298.8, 120 306.4, 120 314.3 C 120 317.8, 120.1 317.8, 107.3 321 C 102.2 322.3, 101.4 323.4, 103.7 325.7 C 104.7 326.7, 107.1 329.7, 108.9 332.2 C 115.3 341.1, 118.4 342.9, 137.8 349 C 146.4 351.7, 148.3 352.6, 149.5 355 C 151.5 358.9, 150.8 359.1, 143.2 356.4 C 133.5 352.9, 125.6 352.3, 120.3 354.6 C 115.2 356.8, 114.8 358, 119.3 358 C 122 358, 123.4 359, 128.3 364.5 C 131.5 368.1, 133.6 371, 132.9 371 C 131.9 371, 131.9 371.3, 132.8 372.2 C 133.6 373, 134.3 373, 135.2 372.3 C 136.1 371.6, 137.4 371.6, 139.3 372.4 L 142 373.6 138 375.4 C 133.7 377.3, 128.5 381.8, 129.4 382.8 C 129.7 383.1, 130.8 382.6, 131.8 381.7 C 139.2 375, 151.6 374.5, 157.8 380.7 L 160.4 383.3 150.9 386.6 C 145.7 388.5, 140.6 390.4, 139.5 390.9 C 131.8 394.6, 118 396.3, 118 393.5 C 118 392.7, 118.5 392, 119.2 392 C 119.8 392, 120.1 391.8, 119.9 391.5 C 119.6 391.3, 117.7 391.5, 115.7 392.1 C 109.6 393.8, 110.9 395.5, 121 399 C 136.6 404.4, 150.7 400.6, 158.5 388.7 C 161.3 384.4, 161.5 384.6, 169.8 401 C 169.9 401.3, 167.9 402.2, 165.3 402.9 C 155.9 405.7, 143 416.5, 143 421.6 C 143 424.3, 150 428, 156.5 428.8 C 161 429.3, 162.8 431.7, 161.4 435.4 C 159.4 440.7, 164.8 452.1, 168.6 450.6 C 169.9 450.1, 170.1 449.7, 169.2 449.1 C 168.5 448.7, 170.2 447.6, 173.8 446.3 C 176.9 445.2, 180.2 444, 181.1 443.6 C 182.3 443.1, 183 443.9, 184 447.2 C 184.7 449.6, 186 452.3, 186.8 453.3 C 189.6 456.6, 194 454.8, 194 450.3 C 194 447.4, 193.9 447.4, 200.2 451.1 C 203.1 452.8, 207.3 454.5, 209.5 454.7 C 214.3 455.3, 217.2 456.3, 227 460.7 C 270.6 480.7, 296.3 471.6, 319.2 428.1 C 322.2 422.4, 324.3 419.5, 326 418.9 C 327.4 418.4, 329.5 416.7, 330.7 415.3 C 331.9 413.8, 333.1 412.8, 333.3 413 C 334.1 414.2, 341 436, 341 437.7 C 341 439.9, 335.5 444.4, 328.4 448.1 C 300.8 462.1, 259 514.5, 230.1 571 C 225.7 579.5, 218.5 592.7, 205.1 617 C 202.8 621.1, 200.3 625.1, 199.6 626 C 195.8 630.4, 182 655.1, 182 657.5 C 182 660.1, 190.6 670, 192.9 670 C 193.5 670, 193.8 671.7, 193.7 673.7 C 193.5 677.3, 193.8 677.7, 199.9 681.7 C 212.6 690.1, 232.7 695.3, 243.6 693.1 C 248.7 692.1, 249.2 692.2, 252.8 694.6 C 257.9 698.1, 270.6 704, 273.1 704 C 275.9 704, 276.6 706.7, 274.7 710.4 C 272.2 715.5, 270 723.1, 270 727 C 270 736.8, 288.7 742, 306.4 737.1 C 316.3 734.4, 318.5 731.8, 320.7 720.5 L 322.5 711.5 326.8 711.5 C 329.1 711.6, 336 711.7, 342 711.8 L 353 712 353 717.4 C 353 725, 355.7 728, 366.3 732.1 C 378.7 736.9, 379.6 737, 392.8 737.1 C 411.7 737.1, 416 735.3, 416 727.4 C 416 721.4, 414.2 718.2, 407.5 712.3 L 401.9 707.3 408.1 706.6 C 411.5 706.3, 415.9 705.6, 417.9 705.1 C 419.9 704.5, 424.9 703.4, 429 702.4 C 442.2 699.5, 453.9 695.3, 459.1 691.9 C 460.5 690.9, 465.3 689.7, 469.8 689.1 C 481.6 687.6, 492.8 684.3, 505.2 678.6 C 517.3 673.1, 535 660.8, 535 658 C 535 656.7, 536.7 655.7, 541.8 654 C 549.7 651.4, 558.1 646, 562.2 641 L 565 637.4 563.3 633 C 562.3 630.5, 558.8 623, 555.5 616.2 C 552.1 609.4, 549.7 603.7, 550.2 603.4 C 550.7 603, 554.1 601.3, 557.8 599.5 C 565 595.9, 569 592.7, 569 590.6 C 569 584.3, 545.2 546.8, 519.8 513.1 C 494.4 479.3, 459.2 450.7, 429.6 439.6 L 424.8 437.7 425.4 432.6 C 425.7 429.8, 426.3 422.2, 426.7 415.8 C 427 409.3, 427.5 404, 427.7 404 C 429.2 404, 434.7 408.6, 441.5 415.6 C 456.8 431.3, 467.6 435.2, 485.1 431.4 C 489.2 430.5, 492.9 429.4, 493.5 428.9 C 494 428.4, 495 428, 495.8 428 C 496.6 428, 502.9 425.1, 509.8 421.7 C 516.8 418.2, 523.9 415, 525.5 414.6 C 527.2 414.2, 529.3 413.7, 530.4 413.4 C 531.9 412.9, 532.1 413.2, 531.6 415.7 C 531.3 417.2, 530.4 425.7, 529.5 434.5 C 526.7 465.2, 525.9 472.6, 524.4 485 C 520.9 513.9, 521.3 517.8, 527.4 513.3 C 530.1 511.3, 531.3 507.3, 533 494.2 C 533.6 489.6, 534.3 485.3, 534.5 484.7 C 534.8 484, 535.5 480.4, 536 476.5 C 536.6 472.7, 537.8 465.2, 538.6 460 C 540.5 447.5, 542.8 431.1, 544.6 417.5 C 545.3 411.5, 546 406.5, 546 406.5 C 546 406.5, 547.9 406.6, 550.3 406.8 C 557.7 407.4, 566.9 398.7, 568.6 389.4 C 568.9 387.2, 569.7 385, 570.2 384.3 C 570.7 383.6, 570.9 381.8, 570.5 380.1 C 570.2 378.4, 570.3 376.9, 570.9 376.5 C 572.8 375.4, 572.2 368.5, 570 365.7 C 568.7 364.1, 568 361.7, 568 359.1 C 568 355.7, 567.7 355, 566.1 355 C 563 355, 563 353.9, 565.5 346.5 C 566.8 342.6, 568.5 337, 569.4 334 C 572.6 322.5, 575.3 313.4, 576.5 309.5 C 578.5 303.3, 585.8 273.1, 586.5 268 C 586.8 265.5, 587.5 261.5, 588 259 C 590.5 247.2, 592 218.5, 592 184 C 592 164.3, 592.3 147.5, 592.6 146.7 C 593.6 144.1, 603.9 148.3, 610.3 153.9 C 614.5 157.7, 616.6 156.8, 615.6 151.6 C 614.6 146.1, 609.9 141.4, 604 139.9 C 601.2 139.2, 599 138.4, 599.1 138.1 C 599.1 137.8, 601.9 136.2, 605.2 134.5 C 609.8 132.2, 612.5 130, 616 125.5 C 619.3 121.2, 621.4 119.4, 623.3 119.2 C 626.4 118.8, 626.5 118.2, 624.5 113.3 C 623.1 109.9, 622.9 109.8, 621.2 111.4 C 620.2 112.3, 618.6 113, 617.7 113 C 616.8 113, 615.7 113.6, 615.3 114.3 C 614.3 115.9, 604.6 120.2, 604.2 119.2 C 604.1 118.8, 601.5 112, 598.4 104 C 591.6 86.3, 591.4 85.5, 592.8 86.4 C 596.6 88.7, 601.8 79.9, 599.9 74.3 C 599 71.5, 599.1 70.5, 600.3 69.2 C 603.2 65.7, 603.2 64.8, 600.2 67 C 595.4 70.5, 591.4 67.3, 590.3 59 C 589.6 54.2, 588 55.5, 588 60.9 C 588 65.4, 582.3 71, 577.7 71 C 574.6 71.1, 574.5 71.1, 576.5 72.8 C 577.7 73.8, 578.4 75.4, 578.2 76.9 C 577.6 80.9, 578.9 83.9, 582 85.5 C 585.9 87.5, 585.9 87.8, 580.1 97.4 C 572.2 110.4, 570.7 111.3, 559.9 108.5 C 557.6 107.9, 557.2 108.2, 556.6 110.4 C 556.2 112.1, 555.1 113.2, 553.2 113.5 C 545.8 115.1, 545.4 115.5, 550.5 115.8 C 555.5 116.1, 555.6 116.2, 557.7 120.9 C 559 123.5, 561.9 127.8, 564.3 130.3 L 568.6 135 564.9 138.6 C 558.7 144.6, 555.8 153.5, 561.1 150.2 C 566.5 146.8, 570.9 145, 575.6 144.4 L 580.7 143.8 581.4 179.2 C 582.7 244.7, 579.9 266.3, 563.6 317 C 561.7 322.8, 559.5 329.8, 558.7 332.5 C 553.9 349.3, 553.7 349.9, 550.5 350.6 C 547.4 351.3, 540.6 355.2, 539.5 357 C 539.2 357.5, 537.8 358, 536.4 358 C 534.6 358, 534 358.5, 534 360.3 C 534 362.2, 532.8 363.3, 528.3 365.6 C 522 368.7, 519.1 372.8, 519 378.6 C 519 382, 514.3 384, 497.5 387.5 C 493.1 388.5, 487 389.9, 484 390.8 C 471.8 394.1, 472.2 394.1, 469.6 390.7 C 463.8 382.8, 463.4 381.5, 465.3 376.3 C 467 371.5, 467.5 362, 466.2 358.8 C 465.8 357.9, 463.7 355.2, 461.5 352.8 C 459.2 350.4, 455.9 346.5, 454 344.2 C 441.6 328.6, 423 325.8, 409.2 337.5 C 406.8 339.5, 405.6 340, 404.8 339.2 C 404.2 338.6, 402.4 338.4, 400.9 338.7 C 397.9 339.3, 395 337.7, 395 335.5 C 395 334.8, 397.2 333.5, 400 332.6 C 408.5 329.8, 426.7 318.2, 434.1 310.8 C 444.9 300.1, 450 291.9, 452.9 280.6 C 454 276.5, 455.5 272.1, 456.3 270.8 C 457.1 269.5, 458.3 265.4, 459 261.5 C 461.4 248.7, 466.2 237.1, 472.1 230 C 480 220.4, 481.5 216, 481.5 202 C 481.5 187.5, 479.6 178.2, 474.1 166 C 471.6 160.4, 468.6 156.4, 460 147.2 C 454.3 141.2, 452.1 138.2, 452.6 137.1 C 456.9 127, 451.4 114.5, 441.2 110.9 C 438.3 109.9, 438.3 109.8, 439.2 105.4 C 440.9 97.8, 438.7 95.8, 429.4 96.1 C 422.7 96.4, 421.9 96.2, 420.4 94.2 C 418.5 91.4, 417.8 91.4, 416.3 94.5 C 414.2 99.1, 420 112, 422.4 108.1 C 422.7 107.6, 424.5 106.9, 426.3 106.6 C 431 105.7, 434.5 102.3, 432.9 100.3 C 431.8 99, 431.5 99.1, 430.9 100.8 C 430.2 102.6, 428 104.8, 428 103.6 C 428 101.8, 430.6 98, 431.7 98 C 434.6 98, 437 100.1, 437 102.6 C 437 108.4, 431.1 114.2, 427.2 112.1 C 424.2 110.5, 413.6 107, 411.8 107 C 410.2 107, 410.3 106.6, 412.6 102.9 C 415.3 98.6, 415 96, 412.2 99.7 C 407.3 106.2, 407.9 105.9, 402.2 105.1 C 397.4 104.4, 396.3 103.8, 392 99.1 L 387.1 93.8 390.5 94.4 C 395.8 95.4, 404.9 95.3, 406.3 94.2 C 406.9 93.7, 409 92.9, 410.8 92.5 C 415.5 91.5, 415 89.1, 410.3 89.6 C 405.9 90.2, 404.5 89.4, 403.5 86 L 402.8 83.5 404.5 85.8 C 408.3 91, 415 87, 415 79.6 C 415 75.4, 412 72.9, 406.4 72.6 C 404.4 72.4, 402.2 71.6, 401.6 70.8 C 401 70, 399.2 68.7, 397.5 67.9 C 395 66.7, 394.6 65.9, 394.8 63.5 C 395.2 59.9, 393.5 61.1, 392.5 65.1 C 391.9 67.4, 392.3 67.9, 395.7 69.3 C 401.7 71.7, 402.3 72.9, 400.3 78.4 C 398.5 83.1, 398.1 83.4, 391.8 84.6 C 388.3 85.2, 388 85, 388 82.9 C 388 79.3, 389.4 77.8, 394.1 76.1 C 399.5 74.1, 400.7 71.6, 395.9 72.2 C 394 72.5, 391.7 73, 390.8 73.5 C 389.2 74.1, 389 73.5, 389 68 C 389 64.6, 388.5 61, 387.9 59.9 C 385.7 55.8, 376.3 53.6, 372.5 56.4 C 370.8 57.6, 370.5 57.4, 369 54.6 C 367 50.9, 361.6 47, 358.4 47 C 357.1 47, 356 46.5, 356 45.9 C 356 44.4, 359.9 41, 361.7 41 C 362.4 41, 363 40.6, 363 40 C 363 38.6, 361.5 38.7, 357.5 40.4 C 355.6 41.2, 354 42.6, 354 43.4 C 354 45.1, 352.6 45.2, 347.5 44.1 C 344.9 43.6, 344.4 42.9, 343.9 39.5 L 343.4 35.5 341.9 38.7 C 340.4 42, 338 41.7, 338 38.3 C 338 37.5, 337.2 37, 336.3 37.2 C 333.5 37.7, 333.2 33, 335.9 32.3 C 337.1 32, 338 31.4, 338 30.9 C 338 29.8, 337.2 29.9, 334.5 30.9 M 338.3 46.1 C 336.5 46.6, 334.4 48, 333.7 49.1 C 332.8 50.4, 332.1 50.7, 331.8 49.9 C 331.3 48.3, 323.7 52.2, 321.6 55.2 C 318.3 59.8, 321 64.6, 324.8 60.8 C 327 58.6, 329 61.8, 329 67.6 C 329 73.1, 330.4 75, 334.5 75 C 336 75, 336 74.9, 334.6 73.4 C 330.4 69.3, 334.7 59.7, 342.8 55.2 C 347.8 52.4, 358.5 55.1, 362.8 60.3 C 365.6 63.7, 365.4 68.7, 362.2 75.3 C 358.2 83.4, 356.4 85, 344.6 90.9 C 339.2 93.5, 335.2 96, 335.8 96.4 C 337 97.1, 345.2 95.5, 348.1 93.9 C 349.1 93.4, 355 92.3, 361 91.6 C 373.3 90.1, 375.4 89, 377 83.1 C 378.7 77.1, 378.3 74, 376 74 C 372.9 74, 369.2 69.7, 368.5 65.4 C 367 56, 363 50.9, 356 49.6 C 354.1 49.2, 351.2 48.3, 349.5 47.6 C 344.9 45.5, 341.8 45.1, 338.3 46.1 M 357.4 60.2 C 359.6 63.4, 359.4 65.7, 356.1 72.6 C 353.5 78.1, 349.1 83, 346.8 83 C 345.4 83, 335 90.9, 335 92 C 335 93.6, 335.8 93.3, 344.5 88 C 359 79.3, 366 66.6, 360 60.2 C 357.3 57.3, 355.4 57.4, 357.4 60.2 M 373.2 59.6 C 369.5 62.1, 371 68.3, 376 71 C 378.7 72.5, 379.5 70.4, 377 68.3 C 374.6 66.2, 374.4 65, 376.5 65 C 377.3 65, 378 64.3, 378 63.5 C 378 62.6, 377.1 62, 375.9 62 C 374.2 62, 374 61.7, 374.9 60.6 C 376.5 58.7, 379.5 59.7, 380.9 62.6 C 383.6 68.7, 380.8 87.7, 376.5 91.6 C 374.7 93.3, 372.3 93.9, 365.5 94.5 C 360.7 94.9, 353.6 96.3, 349.7 97.6 C 345.7 98.9, 341.2 100, 339.5 100.1 C 337.1 100.2, 337 100.4, 338.8 100.7 C 340 100.9, 341 101.6, 341 102.1 C 341 103.3, 336.3 103.3, 335.5 102 C 334.6 100.6, 325.9 100.8, 323.2 102.3 L 321 103.6 323.3 108 C 324.6 110.5, 326.8 113.1, 328.2 113.7 C 331.6 115.4, 343.5 113.9, 349.5 111 C 353.5 109.1, 354.6 109, 359 109.9 C 373.6 113, 383.9 106.6, 382.8 94.9 C 382.5 92.2, 382.7 90, 383.1 90 C 383.6 90, 384 88.4, 384 86.4 C 384 84.5, 384.5 82, 385 80.9 C 385.6 79.9, 386.3 75.5, 386.6 71.3 C 387.2 64.3, 387 63.2, 385 60.8 C 382.5 57.5, 376.9 57, 373.2 59.6 M 298.5 63.9 C 298.2 65, 298 68.7, 298.2 72 C 298.5 77.7, 298.6 78.1, 300.7 77.5 C 302.1 77.2, 303.9 77.9, 305.9 79.6 L 309 82.2 309 76.7 C 309 73.7, 309.7 69.7, 310.5 67.7 L 311.9 64.2 308.7 63.6 C 299.6 61.7, 299.2 61.7, 298.5 63.9 M 321.9 63.7 C 319.6 64.3, 317 71.6, 317 77.4 C 317 83.2, 319.2 86.6, 325.7 90.9 C 333.6 96.1, 334 94.7, 327.5 85.6 C 322.3 78.3, 321.2 73.4, 323.3 67.3 C 324.1 64.9, 324.5 63.1, 324.1 63.1 C 323.8 63.2, 322.8 63.4, 321.9 63.7 M 325.4 69.5 C 324.6 73.9, 326 77.9, 330.5 84 L 334 88.8 340.2 84.7 L 346.3 80.6 337.9 78.4 C 328.4 75.9, 325.5 73.5, 326.5 68.8 C 326.9 67.3, 326.9 66, 326.6 66 C 326.3 66, 325.8 67.6, 325.4 69.5 M 584.6 71 C 582.1 73.7, 580 76.8, 580 77.9 C 580 80.6, 584.7 86, 587.1 86 C 588.1 86, 589 86.2, 589 86.5 C 589 87.8, 582.4 100, 578.6 105.8 C 574.2 112.5, 572.6 113.5, 565.9 112.8 C 562.4 112.5, 562.1 112.6, 563.6 113.7 C 564.6 114.4, 566 115, 566.7 115 C 567.4 115, 567.7 115.6, 567.4 116.5 C 565.9 120.2, 574.3 130.2, 582.4 134.5 L 587.3 137.1 591.7 135 C 594.1 133.9, 596.4 133.2, 596.9 133.4 C 598.5 134.4, 608.4 128.3, 611.7 124.3 L 615.1 120.2 610.8 121.5 C 602 124.2, 602.4 124.5, 598.5 112.5 C 597.5 109.8, 596.2 106.2, 595.4 104.5 C 594.7 102.9, 593.2 99.3, 592.2 96.6 L 590.3 91.8 588 98.6 C 584.8 108.3, 582.1 114.4, 581.3 113.7 C 580.8 113.2, 582.9 106.3, 586 98.5 C 586.4 97.4, 587.5 94.7, 588.3 92.5 C 589.2 90.3, 590 87.6, 590.2 86.6 C 590.4 85.3, 591.7 84.3, 593.7 83.8 C 600.7 82, 599.3 73.5, 590.9 67.2 C 589.5 66.2, 588.6 66.8, 584.6 71 M 288.6 75.8 C 288.2 76.1, 285.3 76.2, 282.1 76.1 C 274.2 75.8, 272 77, 272 81.8 C 272 89.5, 279.7 96.8, 284.5 93.6 C 287.1 91.9, 296.4 92.2, 297.6 94.1 C 298.3 95.3, 300 95.3, 300 94.1 C 300 93.7, 298.7 91.8, 297.1 89.9 C 294.3 86.8, 294.2 86.4, 295.7 84.8 C 296.6 83.8, 298.1 83, 299.2 83 C 300.2 83, 301 82.6, 301 82.1 C 301 80.9, 289.3 75, 288.6 75.8 M 310.6 87.4 C 310.2 89.1, 311 91.3, 313.3 94.9 C 316.3 99.8, 316.7 100.1, 320 99.6 C 321.9 99.3, 326.2 99, 329.5 98.9 C 335.1 98.8, 335.3 98.8, 332.1 97.9 C 328 96.7, 321.7 92.8, 316.7 88.4 C 312.3 84.4, 311.4 84.2, 310.6 87.4 M 296 97 C 303.5 103.5, 296.4 119, 285.8 119 C 273.4 119, 268.9 109.8, 277.4 101.4 L 281.7 97 278.4 96.4 C 271.9 95.2, 267 99.8, 267 107.1 C 267 113.3, 274.3 125, 278.2 125 C 279.2 125, 280 125.5, 280 126 C 280 127.3, 276.7 127.3, 275.4 126 C 274.8 125.4, 272.1 124.7, 269.3 124.3 C 262.8 123.6, 260 125.9, 260 132.1 C 260 142.4, 269.9 148.6, 274 141 C 275 139.1, 274.8 139.1, 270.4 139.7 C 265 140.4, 264.9 138.7, 270.2 137.6 C 272.5 137.2, 275 135.3, 278.6 131.3 L 283.8 125.5 287.2 126.8 C 291 128.1, 303.9 126.2, 306.7 123.9 C 308.2 122.6, 308.5 112.6, 307.1 113.2 C 306.6 113.4, 303.7 115.8, 300.7 118.7 L 295.3 123.8 288.4 123 C 284.6 122.5, 281 122.1, 280.4 122 C 279.9 122, 278.5 121.3, 277.4 120.5 C 275.6 119, 275.9 119, 280.5 119.5 C 292.2 120.9, 293.7 120.9, 296.8 119 C 300.5 116.7, 305 110, 305 106.7 C 305 102.5, 302 98, 298.3 96.5 C 293.6 94.5, 293.2 94.6, 296 97 M 304 95.5 C 304 96.6, 308.2 104, 309.5 105 C 310.2 105.6, 310.6 106.9, 310.3 107.9 C 310 109, 310.5 110, 311.5 110.4 C 312.8 110.9, 313 111.3, 312.1 112.4 C 311.5 113.1, 311.2 115.2, 311.4 117.1 C 311.7 119, 311.9 120.9, 311.9 121.4 C 312 121.8, 313.1 121.9, 314.5 121.6 C 317 121, 317 121, 315.3 123.1 C 312.5 126.3, 311 126.9, 299.9 128.5 C 291.8 129.7, 289 129.8, 286.8 128.9 C 285.2 128.3, 283.8 127.9, 283.6 128.1 C 281.4 130.6, 278 137.5, 278 139.4 L 278 141.7 285.3 137.9 C 289.2 135.9, 297.7 132.7, 304 131 C 310.3 129.2, 316 127.3, 316.7 126.8 C 318 125.7, 329.9 127.2, 335.5 129.2 C 341.9 131.4, 344 131.8, 343.5 131 C 343.2 130.6, 344.8 131.1, 347.1 132.1 C 349.8 133.5, 352.7 134, 355.8 133.8 C 360.4 133.5, 360.5 133.4, 360.8 130.1 C 361.4 124.4, 360.2 120.7, 356.5 116.7 C 352.3 112.2, 351.1 112.3, 345.2 118.2 C 341 122.3, 340 125.6, 342.2 127.8 C 342.9 128.5, 343.1 129, 342.8 129 C 341.5 129, 334.3 120.9, 335.1 120.4 C 335.6 120.1, 336.4 120.1, 336.9 120.4 C 338 121.1, 342.8 117.4, 341.9 116.6 C 341.6 116.3, 338.9 116.4, 335.9 116.9 C 322.8 119.1, 321.3 119.2, 323.5 117.6 C 325.3 116.3, 325.3 116, 323.9 114.3 C 323 113.3, 321.2 110.6, 320 108.3 C 318.7 105.9, 317.1 104, 316.4 104 C 315.7 104, 314.2 102.7, 313 101.1 C 310.9 98, 304 93.8, 304 95.5 M 280.2 101.4 C 275.2 106.8, 274.3 109.4, 276.4 112.6 C 282.1 121.1, 295.5 116.6, 296.7 105.8 C 297.8 96.2, 287.6 93.4, 280.2 101.4 M 386.2 101.4 C 382.6 111.2, 369.1 116.4, 357.5 112.5 C 356.3 112.1, 357.1 113.2, 359.5 115.4 C 362.6 118.1, 364.4 118.9, 367.5 119 C 372.1 119, 370.5 121, 365.9 121 C 363.5 121, 363.2 121.5, 362.5 125.6 C 362.2 128.1, 362 130.4, 362.3 130.6 C 362.8 131.1, 370.2 122.3, 371.7 119.5 C 374.9 113.6, 405.1 111.2, 417.6 115.8 C 422.1 117.5, 435.7 124.4, 437 125.8 C 437.7 126.5, 433 125, 429.5 123.4 C 417 117.8, 404 116, 392.2 118.2 C 373.6 121.7, 375.2 120.7, 363.1 135.4 C 361.8 136.9, 362.4 136.8, 365.5 134.8 C 389.1 120.1, 425.6 121.8, 443.5 138.5 C 446.2 141, 448.6 142.8, 448.8 142.5 C 449.5 141.8, 444.4 133.8, 441.1 130.3 C 439.4 128.5, 438 126.7, 438 126.1 C 438 124.4, 428.4 116.5, 422.7 113.7 C 418.7 111.6, 414.2 110.4, 407 109.5 C 395.8 108, 393.3 106.9, 390.5 101.6 C 388.1 97.2, 387.7 97.1, 386.2 101.4 M 283.6 102.1 C 281.5 103.7, 281 105, 281 108.5 C 281 113.1, 282 114.1, 286.8 113.9 L 289.5 113.8 286.6 113.1 C 283.4 112.5, 281.8 110, 284.5 110 C 285.4 110, 286 109.4, 285.8 108.6 C 285.6 107.8, 285.9 107.2, 286.5 107.3 C 287 107.4, 287.3 108.1, 287.2 108.9 C 286.9 109.9, 287.3 109.8, 288.5 108.6 C 290.5 106.7, 290.5 106.6, 286.5 104.6 L 283.5 103 288.2 103 C 292.7 103, 292.9 103.1, 293.3 106.3 L 293.7 109.5 293.8 106.3 C 294.1 100.6, 288.5 98.3, 283.6 102.1 M 561.7 122 C 564.2 126.7, 574.7 137.2, 579.1 139.2 C 584.8 141.9, 590.1 142.4, 594.5 140.6 C 599.7 138.4, 598.4 137.7, 588.6 137.5 C 579 137.3, 574.8 135.4, 569.5 129.2 C 567.9 127.2, 565 124, 563.2 122 L 559.8 118.5 561.7 122 M 391.2 129.5 C 378.1 132, 361.2 139.3, 363.2 141.7 C 365.4 144.3, 383.7 153, 405.4 161.6 C 424.6 169.3, 447.6 169.3, 453.9 161.6 C 455.1 160.2, 454.7 159.3, 451.4 154.8 C 449.2 151.9, 446.3 147.7, 444.8 145.4 C 436.7 132.8, 412.6 125.6, 391.2 129.5 M 311 133.1 C 306.9 134.1, 301.5 135.4, 299 136 C 296.5 136.6, 293.1 137.7, 291.3 138.5 C 289.6 139.3, 287.9 140, 287.6 140 C 285 140, 272 149.7, 272 151.7 C 272 152.1, 270.6 154.1, 268.9 156 C 258 168.7, 253 177.3, 249.7 188.7 L 248.2 194 251.6 200.7 C 257.1 211.4, 261.3 214.5, 272.4 216.1 C 285.6 217.9, 299.3 213.7, 318.3 202 C 322.8 199.2, 327.4 196.4, 328.5 195.7 C 351.6 181.6, 366.3 158.7, 360.6 145.5 L 359.3 142.5 357.6 145.8 C 353.9 152.9, 341.4 164.2, 327.3 173.4 C 315.6 180.9, 292.6 191, 286.9 191 C 285.8 191, 280.9 192.1, 276 193.5 C 263.6 197, 259.1 196.7, 254.2 192.3 C 252.4 190.6, 253.3 190.7, 257.7 192.5 C 261.7 194.2, 265.8 194.4, 269.2 193.1 C 270.5 192.7, 274 191.6, 277 190.7 C 294.6 185.7, 296.5 185, 308.5 179.4 C 326.4 171.1, 345.1 157.3, 354.3 145.6 L 357.4 141.7 354.8 142.3 C 352.2 143, 342.5 147.3, 327.2 154.7 C 312.4 161.8, 319.4 155.6, 336.3 146.5 C 348 140.3, 349.2 139, 340.9 141.5 C 333.8 143.7, 331.9 144.6, 323.2 149.8 C 309.8 157.7, 292.5 165.9, 288 166.5 L 283.5 167.1 287 165.4 C 304.4 157.2, 324.2 146.7, 328 143.7 L 330.5 141.8 316.5 142.3 C 308.8 142.5, 301.2 143.2, 299.5 143.8 C 287.3 147.9, 281 149.3, 281 147.8 C 281 146.7, 287 144.5, 301 140.3 C 302.4 139.9, 310.7 139.5, 319.5 139.4 C 339.3 139.1, 359.2 138.2, 359.8 137.5 C 360.1 137.2, 358.2 137, 355.7 137 C 353.2 137, 349.1 136.4, 346.8 135.6 C 331.8 130.6, 323.4 130, 311 133.1 M 453 145.9 C 453 147.4, 457.2 156.2, 458.7 157.8 C 461.3 160.5, 453.1 167.6, 444.3 170.4 C 438.4 172.2, 423.7 172.6, 419.4 171 C 414 168.9, 416.1 170.8, 422.7 174 C 434.8 179.7, 446.1 183, 453.8 183 C 461.9 183, 463.8 184.4, 458.1 186.1 C 454.9 187, 452.4 187, 444.6 185.6 C 434.6 183.7, 433.5 183.3, 399.5 165.6 C 369.8 150.1, 367.6 149, 367.2 149.5 C 366.4 150.3, 371.5 157.1, 377.4 163.1 C 382.7 168.5, 395 176.6, 401.5 179 C 403.2 179.6, 405.4 180.5, 406.5 181 C 407.6 181.5, 411.7 182.9, 415.5 184.1 C 428.5 188.1, 431.5 189.3, 436 192.5 C 444.5 198.6, 448.3 200, 456.2 200 C 474.4 200, 479 186.5, 467.8 165.5 C 462.6 155.9, 453 143.1, 453 145.9 M 586.2 192.3 C 586.3 220.9, 586.6 234.9, 587.1 229 C 588.2 213.9, 588.2 146, 587 146 C 586.3 146, 586.1 162, 586.2 192.3 M 365 158.2 C 364.9 165.4, 357 179.3, 348.4 187.3 C 343.4 192, 332.7 200, 331.5 200 C 331.3 200, 327 202.5, 321.9 205.5 C 316.9 208.6, 309.3 212.9, 304.9 215 C 296.7 219.2, 296.8 219, 295.5 227.5 C 294.3 235.1, 291.3 241.8, 284.4 252.1 L 282 255.7 289.7 268.6 C 294 275.7, 298.6 284.7, 299.9 288.5 C 308.9 315.2, 331.9 330, 366.9 331.7 C 376.3 332.2, 393.4 329.8, 394.6 327.9 C 394.9 327.4, 395.9 327, 396.8 327 C 402.8 327, 422.5 314.6, 432 304.9 C 446.1 290.6, 448.9 282.6, 448.9 257.7 C 448.9 247.7, 449.4 236.6, 450 233 C 453.7 211.9, 451.3 202, 442.6 202 C 440.8 202, 436.9 200.8, 433.9 199.3 C 427.1 195.9, 417.6 195.5, 411.6 198.3 C 406.9 200.6, 405.2 199.5, 407.1 195.4 C 408.5 192.7, 409.8 191.7, 413.3 190.6 C 415.6 189.9, 414.6 188, 411.9 188 C 409 188, 398.7 184.2, 392.2 180.8 C 382.5 175.7, 375.2 169, 366.8 157.8 L 365.1 155.5 365 158.2 M 475 193.9 C 475 198, 463.9 205, 457.2 205 C 455.4 205, 454.9 205.4, 455.4 206.6 C 455.7 207.5, 456 208.4, 456 208.6 C 456 208.8, 457.3 209, 458.9 209 C 460.6 209, 462.2 209.5, 462.5 210 C 462.9 210.6, 461.5 211, 459 211 L 454.9 211 456.5 213.9 C 457.9 216.7, 458.2 216.8, 461.7 215.8 C 463.8 215.3, 466.2 214.2, 467 213.6 C 470.5 210.6, 471.6 210.4, 469.9 213 C 469 214.4, 465.9 216.9, 463 218.5 C 458.3 221.2, 457.6 222, 456.5 226.3 C 455.8 228.9, 455.5 231, 455.7 231 C 455.9 231, 457.7 230.1, 459.7 229 C 461.8 227.9, 464.2 227, 465.1 227 C 467.3 227, 471.4 222.1, 474.1 216.2 C 476.6 210.7, 478 194.7, 476.1 193.6 C 475.5 193.2, 475 193.3, 475 193.9 M 246.5 203.2 C 245.6 211.7, 247.3 224.6, 250.5 233 C 253.4 240.5, 262.3 252.9, 266.1 254.7 C 275.6 259.3, 289.2 243.3, 293.5 222.4 L 294.1 219.3 288.8 220.2 C 279.1 222, 265.7 219.6, 260.7 215.2 C 257.6 212.4, 258 214.5, 262 221 C 265.4 226.7, 267.7 234.1, 265.1 231.5 C 263.5 229.8, 250 203.9, 248.2 199 C 247.4 196.9, 247.1 197.5, 246.5 203.2 M 330.5 203.6 C 321.9 205.6, 309.9 215.7, 308.5 222.1 C 307.8 225.2, 308.6 227.2, 309.8 225.4 C 311.2 223.5, 320.9 217, 325.7 214.8 C 328.7 213.4, 333.3 212.3, 338 212 C 344.6 211.6, 345.5 211.3, 345.5 209.6 C 345.5 206.1, 336.1 202.3, 330.5 203.6 M 119.7 215.6 C 119.3 217.6, 118.1 220.3, 116.9 221.6 C 115.3 223.3, 115.1 224, 116.1 224 C 116.9 224, 118.8 225.2, 120.4 226.7 C 122.5 228.6, 123.5 229, 123.8 228.1 C 124 227.4, 125.6 225.2, 127.3 223.3 L 130.4 219.8 127.9 217.9 C 126.6 216.9, 125.2 216, 124.8 216 C 124.4 216, 123.8 215.1, 123.5 214 C 122.5 210.8, 120.3 211.7, 119.7 215.6 M 420.5 217.6 C 419.4 217.9, 417.5 218.3, 416.3 218.6 C 404.3 221.1, 396.7 246.9, 404.3 258.8 C 407.4 263.5, 408.5 263.8, 417 261.6 C 420 260.8, 424.5 259.9, 427 259.5 C 433.5 258.5, 439.9 256, 440.4 254.1 C 441.4 251.1, 442.8 235.7, 442.3 234.3 C 442 233.5, 442.5 233, 443.8 233 C 446.9 233, 449 231.9, 449 230.3 C 449 229.2, 448.2 229, 445.8 229.5 L 442.5 230.1 445.3 228.3 C 448.2 226.4, 448.8 225, 446.6 225 C 445.7 225, 445.4 224.3, 445.7 223 C 446.3 220.6, 445.1 220.4, 442.4 222.5 C 439.3 224.8, 438.4 224.2, 441 221.5 C 443.5 218.8, 443.1 216.9, 440.4 219 C 439.5 219.8, 438.6 220, 438.2 219.4 C 437.8 218.9, 436.4 218.5, 435 218.4 C 433.6 218.3, 430.3 218, 427.5 217.7 C 424.8 217.4, 421.6 217.3, 420.5 217.6 M 414.5 225.4 C 412.8 226.6, 413 226.7, 416.6 226.7 C 429.3 226.7, 438.3 243.8, 430.3 252.4 L 427.6 255.3 431.1 254.6 C 436.4 253.6, 438.3 251, 438.8 244.1 C 439.4 236.4, 437.8 231.9, 432.9 227.6 C 429.3 224.3, 428.5 224, 422.7 224 C 418.9 224, 415.6 224.6, 414.5 225.4 M 324.5 232.7 C 322.9 233.6, 320 235.4, 318.2 236.8 C 315.7 238.7, 314.6 239, 313.8 238.2 C 311.7 236.1, 311.1 236.9, 311.7 240.6 C 312.3 244, 312.2 244.2, 310.2 243.1 C 309.1 242.5, 307.3 240.9, 306.2 239.5 C 304.9 237.9, 303.9 237.3, 303.5 238 C 302.8 239.1, 303.7 240.6, 308 245.3 L 310.5 248.2 306 247.9 C 299.1 247.5, 301 252.5, 308.1 253.6 C 311.1 254.1, 312 254.7, 312 256.2 C 312 261.8, 316.7 272, 320.9 275.7 C 322.9 277.4, 323.1 277.9, 321.9 278 C 320 278, 317.7 280.4, 318.6 281.3 C 318.9 281.6, 321.3 281.2, 323.8 280.4 C 334.6 277.1, 345 274.9, 352.3 274.3 C 358.9 273.8, 360 273.5, 359.5 272.1 C 359.1 271.2, 358.4 266.7, 358 262 C 356.5 246.3, 352 237.6, 342.9 232.9 C 338.1 230.5, 328.8 230.4, 324.5 232.7 M 455.9 235.6 C 454.7 237.1, 454.8 237.2, 456.8 236.6 C 459.7 235.6, 459.6 236.3, 455.8 240.5 C 453.3 243.4, 452.6 245.3, 452.2 249.6 C 451.7 255.7, 452.8 256.5, 455.8 252.3 C 461.9 243.6, 462 228.3, 455.9 235.6 M 428.4 237.7 C 434 249.1, 419.8 259.6, 410.1 251.4 C 406.5 248.4, 406.4 248.5, 408.7 253.1 C 410.7 257.2, 411.7 258, 415 258 C 417 258, 417.2 257.8, 416 256.9 C 414.9 256.1, 415.4 256, 418.1 256.5 C 421.2 257, 422.4 256.5, 426.1 253.7 C 430.3 250.6, 430.5 250.1, 430.8 245 C 431 240.7, 430.6 239, 428.9 237 L 426.9 234.5 428.4 237.7 M 337.5 238.6 C 345.4 241.5, 349 246.9, 349 256 C 349 262.6, 348.1 265, 344.2 269.3 C 341.5 272.1, 341.8 272.7, 345.1 271 C 348.1 269.4, 350 264.6, 350 258.8 C 350 255.8, 350.4 254, 350.8 254.8 C 352.3 257, 352.1 264.6, 350.5 267.6 C 349.1 270.4, 349.1 270.5, 351.1 270.8 C 354.6 271.4, 358.5 270.1, 357.1 268.7 C 356.5 268.1, 356 266.1, 356 264.2 C 356 258.9, 352.2 247.4, 349.4 244.1 C 346.5 240.7, 339.4 237, 335.9 237.1 C 334 237.1, 334.3 237.4, 337.5 238.6 M 271 262 C 264.6 271, 270.3 284.6, 282.2 288.6 C 287.4 290.3, 293.4 289.5, 295.1 286.7 C 296.1 285.2, 293.1 277.4, 290.8 275.4 C 289.1 273.9, 288.8 273.8, 289.2 275.1 C 289.6 276, 289.4 277.3, 289 278 C 287.5 280.5, 284.8 277.1, 285.4 273.6 C 286.2 269.2, 283.1 266, 278.1 266 C 276.9 266, 276 265.6, 276 265 C 276 263.7, 280.6 263.7, 283.1 265.1 C 285 266, 285 266, 284.1 264.1 C 281 258.4, 274.3 257.3, 271 262 M 408.5 287.3 C 405.8 291.6, 400.9 294.6, 393 297 C 380.3 300.8, 359 299.1, 359 294.3 C 359 291.8, 356.3 293, 354.5 296.5 C 352.5 300.2, 353.1 302.6, 355.3 299.5 C 357 297.3, 356.5 297.2, 367.1 304.2 C 378.9 312.1, 387 314.2, 393.4 311.1 C 398.1 308.8, 401.5 304.9, 404.4 298.9 C 406.5 294.4, 409.3 291.4, 412 290.5 C 413.4 290.1, 413.9 289.3, 413.6 288.3 C 413.3 287.5, 413 286.2, 413 285.4 C 413 283, 410.6 283.9, 408.5 287.3 M 174.4 286.8 C 172.3 290.2, 164.3 292.5, 159.3 291.2 C 149.5 288.5, 141.3 290.5, 134 297.4 C 131.4 299.8, 128.4 302.1, 127.2 302.4 C 123.4 303.6, 122.9 316, 126.6 317.4 C 129.3 318.4, 129.6 318.1, 129.2 314.5 C 128.8 311.5, 129.6 309.9, 134.4 303.5 C 141.3 294.3, 142.6 293.6, 150.9 294.3 C 154.6 294.6, 158.3 294.4, 159.4 293.8 C 163.5 291.6, 172 299.6, 172 305.5 C 172 306.5, 175.3 304.1, 180.5 299.3 C 185.2 295, 189 291.2, 189 290.8 C 189 290.3, 186.1 290, 182.6 290 C 176.4 290, 176.1 289.9, 175.8 287.5 C 175.5 285.1, 175.4 285.1, 174.4 286.8 M 160.3 298.5 C 162.7 300.9, 164.1 305.3, 163.2 307.9 C 162.3 310.7, 146.3 315.8, 141.9 314.7 C 139.8 314.1, 139.6 314.7, 140.9 316.9 C 142.6 319.6, 151.7 317.5, 164.8 311.4 C 170.8 308.6, 170.6 309.1, 168 304 C 165.5 299.2, 162.2 296, 159.7 296 C 157.9 296, 157.9 296.2, 160.3 298.5 M 290 302.5 C 290 303.9, 289.4 306.1, 288.8 307.3 C 287.6 309.4, 287.5 309.3, 287 305.5 L 286.5 301.5 283.7 305.8 C 281.1 309.8, 281 310.3, 282.4 312.5 C 285.3 316.9, 292 316.1, 294.9 310.9 C 296.2 308.6, 296.1 307.9, 294.4 304.5 C 292.1 299.7, 290 298.8, 290 302.5 M 176.6 307.6 L 170.7 314.2 169.8 324.2 C 168.8 335.6, 169 336.3, 172.6 332.9 C 176.4 329.4, 178.4 324.7, 180.9 313.8 C 184.1 300.3, 183.6 299.7, 176.6 307.6 M 163.4 315.8 C 161.8 317, 160.9 319.4, 160.2 324 C 159.7 327.6, 158.6 332.9, 157.7 335.9 L 156.2 341.2 159.3 340.6 C 163.9 339.7, 164.4 338.8, 165.1 330.2 C 165.5 326, 166.1 320.6, 166.5 318.3 C 167.3 313.6, 166.7 313.1, 163.4 315.8 M 149 320 C 145.4 321, 140.4 322.2, 137.8 322.5 C 130.8 323.5, 132.1 328.6, 141.6 336.9 C 150.8 345, 154.2 343.4, 155.9 330 C 156.5 325.1, 157.3 320.4, 157.6 319.5 C 158.4 317.6, 157.4 317.7, 149 320 M 112.2 323 C 107.6 324.1, 107.4 324.5, 110.1 328 C 118.4 338.8, 120.3 340.2, 127.9 341.5 L 132.4 342.2 130.9 339.9 C 129 336.8, 126.6 331.2, 127.7 332.5 C 128.2 333.1, 130.5 335.8, 132.8 338.6 C 135.9 342.5, 138.2 344.2, 141.7 345.3 C 146.7 346.9, 148.9 346.6, 145.5 344.8 C 142 342.8, 135.5 336.2, 133 332.1 C 131.5 329.6, 129.5 327.8, 128 327.4 C 122.6 326.1, 122 325.8, 122 323.9 C 122 321.8, 118.6 321.5, 112.2 323 M 387.5 336 C 386.4 336.5, 378.9 336.9, 370.8 336.9 C 356.5 337, 356.1 337.1, 355.4 339.3 C 355.1 340.5, 353.9 342.7, 352.9 344.2 L 351 346.8 354.2 349.6 C 365.9 359.4, 386.3 359.3, 392.2 349.3 C 393.8 346.7, 393.8 346, 392.4 341.5 C 390.7 335.6, 390.1 335, 387.5 336 M 418.5 337.4 C 413.9 339.5, 408 344.9, 408 347 C 408 347.4, 408.8 348.1, 409.8 348.5 C 411.4 349.1, 411.4 349.2, 409.8 350.1 C 406.7 351.8, 407.7 366.2, 411.6 375 C 418.6 390.8, 420.5 392.1, 433.4 390 C 440.9 388.8, 440.9 388.7, 437.2 384.1 C 432.8 378.7, 433.2 377.6, 438.5 380.2 C 445.2 383.5, 450 379.5, 450.5 370.3 C 450.6 367.7, 450.8 365.3, 450.9 365.1 C 451.3 364, 454.4 367.9, 456.1 371.7 C 458.3 376.6, 459.3 376.6, 461 371.4 C 463 365.5, 461.5 361.4, 454.7 353.6 C 438.6 335.2, 430.7 331.7, 418.5 337.4 M 317 340.7 C 297.8 343.9, 280.8 362.2, 285 375 C 286.8 380.5, 292.5 387, 295.5 387 L 297.9 387 295.5 381.8 C 292.8 376.1, 292.2 371, 294.3 371 C 294.9 371, 296.4 373.1, 297.4 375.7 C 299.3 380.2, 310.4 393.1, 314.3 395.1 C 315.7 395.9, 316.6 395.8, 317.9 394.6 C 320.4 392.3, 321.1 392.6, 320.4 395.5 C 319.6 398.9, 322.3 398.8, 331.2 395.4 C 340.1 392, 343.3 387.4, 345.2 375.3 C 348.8 352, 336.9 337.3, 317 340.7 M 397 346.1 C 397 356.6, 380.8 363.6, 366.3 359.4 C 359.2 357.3, 358.6 358.1, 365 360.9 C 379.8 367.3, 393.6 363.4, 398.6 351.4 C 400.4 347.1, 402.3 345.9, 401.4 349.7 C 400.2 354.4, 399.3 356.5, 397.6 357.9 C 395.1 360, 395.7 360.7, 399.8 360.5 C 403.3 360.3, 403.5 360.1, 403.7 356.6 C 403.7 354.6, 404.1 351.8, 404.4 350.5 C 404.8 348.8, 404.4 347.5, 402.8 346 C 399.9 343.4, 397 343.4, 397 346.1 M 345.3 348.8 C 345.6 349.7, 346.8 353.2, 348 356.5 C 353.2 370.7, 348.2 391.1, 337.9 397.6 C 334.4 399.8, 334.1 400.3, 335.1 402.1 C 337 405.7, 345.7 433.5, 346.4 438.2 C 347 442.4, 347.4 442.9, 351.3 444.4 C 371 451.9, 398.2 450.3, 414.8 440.6 C 418.8 438.3, 420 435.6, 420 428.7 C 420 425.8, 420.5 417.9, 421.2 411.1 L 422.4 398.7 419.2 396.1 C 415.7 393.2, 412.5 387.5, 409.1 378 C 407.8 374.4, 406.3 371.1, 405.9 370.6 C 404.9 369.5, 402.1 372.2, 400.1 375.8 C 398.5 378.9, 393.3 378.8, 392 375.8 C 391.5 374.5, 391.1 374.1, 391.1 374.9 C 391 375.7, 390.1 377.3, 389.1 378.4 C 387.2 380.4, 387.2 380.8, 388.6 385.2 C 390 389.4, 390 390, 388.5 392.4 C 386.4 395.5, 383.6 396, 384.4 393 C 384.7 391.9, 385.2 390.1, 385.5 389.1 C 385.8 388, 385.3 385.4, 384.4 383.3 L 382.7 379.5 381.8 385 C 380.7 392.3, 380.4 393.1, 378.5 392.4 C 376.6 391.6, 376.6 389.6, 378.7 383.8 C 380.6 378.5, 380.1 377.2, 376.7 378.7 C 366.4 383.5, 360 383.8, 359.2 379.4 C 358.8 377.6, 358.9 377.6, 360.3 379.5 C 362.5 382.4, 366.1 380.3, 370.4 373.6 C 372.6 370.2, 374.7 368, 376.2 367.7 C 378.3 367.3, 378.3 367.3, 375.9 367.1 C 370.5 366.9, 358 360, 358 357.4 C 358 356.6, 357.5 356, 356.9 356 C 356.3 356, 353.9 354, 351.6 351.5 C 347.1 346.9, 344.4 345.7, 345.3 348.8 M 548.2 355 C 543.6 357.1, 540.9 361.5, 541.1 366.7 C 541.3 369.1, 541.3 369.2, 541.7 367.2 C 542.3 364, 547.8 360.2, 553.8 358.9 C 556.7 358.3, 559 357.5, 559 357 C 559 352.6, 555.2 352, 548.2 355 M 129 360.8 C 134.5 366.7, 138.3 368.9, 149.8 372.5 C 152.7 373.5, 155.4 374, 155.6 373.7 C 156 373.3, 152.6 365.5, 151.5 364.2 C 150.6 363.2, 127.7 356, 125.4 356 C 125 356, 126.7 358.1, 129 360.8 M 553.5 363.6 C 551.3 364.4, 548.6 366, 547.5 367.2 C 545.7 369.1, 545.7 369.2, 547.3 368.6 C 548.3 368.3, 551.7 367.8, 554.8 367.5 C 558 367.3, 559.6 367.3, 558.5 367.6 C 549.6 370.1, 541.2 374.3, 539.4 377.1 C 539 377.8, 539.1 378.1, 539.6 377.8 C 547.8 373.4, 559.8 371.9, 563.4 374.9 C 565.8 376.9, 567 375.2, 566.3 370.5 C 565.3 363.1, 561 360.8, 553.5 363.6 M 531.5 369.7 C 526.8 370.7, 523.9 372.4, 523.6 374.4 C 523.3 375.5, 522.9 378.5, 522.5 380.8 C 522.2 383.2, 521.1 386.9, 520 389.1 C 515.7 397.4, 519.6 407.1, 527.8 408.6 C 533.3 409.7, 534 407.8, 534 393 C 534 385.7, 534.4 380, 535 379.4 C 535.7 378.7, 535.6 377.4, 534.5 375.4 C 533.7 373.8, 533.3 371.7, 533.6 370.8 C 533.9 369.8, 534 369.1, 533.8 369.1 C 533.6 369.2, 532.6 369.4, 531.5 369.7 M 177.5 372.5 C 175.9 373.2, 172.4 374.4, 169.8 375.2 C 164.2 376.6, 164.2 376.1, 170.3 389 C 172.6 393.6, 174.3 398.2, 174.3 399.2 C 174.2 400.2, 174.5 401.2, 174.9 401.5 C 175.4 401.7, 175.9 396.7, 176.2 390.2 C 176.6 378.7, 177.8 374.4, 181.5 371.8 C 183.2 370.6, 180.8 371, 177.5 372.5 M 453.1 377.2 C 449.8 385, 436.7 395, 429.8 395 C 427.2 395, 427.6 396.5, 430.6 398.9 C 435.4 402.7, 445.5 400.8, 448.2 395.7 C 448.8 394.5, 451.3 391.5, 453.7 389 C 458.4 384, 458.6 383.2, 456.2 377.7 L 454.5 373.9 453.1 377.2 M 551 376.1 C 546.3 377.4, 539.9 382, 538.9 384.7 C 538.2 386.8, 538.3 386.8, 546 386.3 C 550.6 385.9, 555.8 386.2, 558.6 386.9 C 565 388.5, 566.8 387, 564.9 381.5 C 564.2 379.5, 563.1 377.5, 562.5 377 C 560.8 375.6, 554.7 375.1, 551 376.1 M 607.8 387.3 C 602.1 393.3, 601.9 395.6, 606.2 399.9 C 610.5 404.1, 613.3 403.9, 618 399.1 L 621.8 395.3 618.8 390.6 C 617.1 388.1, 615.4 386, 614.9 386 C 614.4 386, 614 385.1, 614 384 C 614 381.1, 613.1 381.6, 607.8 387.3 M 235.1 384.8 C 235.2 385.7, 234.8 389.1, 234.1 392.4 C 232.6 399.3, 233.3 403.9, 236.6 409.2 C 239.9 414.4, 240.6 413.5, 238 407.6 C 234.7 399.7, 236.1 389.6, 241 387 C 244.5 385.1, 243.4 383, 238.9 383 C 235.6 383, 234.9 383.3, 235.1 384.8 M 511.5 389.4 C 509.9 390.1, 504 391.7, 498.5 392.9 C 476 397.9, 472 399.4, 472 403 C 472 404, 471.6 405.1, 471.1 405.4 C 470 406.1, 469 403.7, 469 400.4 C 469 398.8, 467.4 396.2, 464.5 393.2 L 460 388.5 453.6 395.2 C 450.1 399, 445.6 402.7, 443.6 403.5 C 441.6 404.3, 440 405.4, 440 405.8 C 440 407.3, 452.6 419.2, 457.6 422.3 C 465.8 427.6, 483.3 426.8, 497.5 420.5 C 499.2 419.7, 502.5 418.3, 505 417.2 C 507.5 416.1, 512.1 414.1, 515.2 412.6 L 520.9 410 517.8 405 C 515.1 400.6, 514.8 399.5, 515.2 394 C 515.4 390.7, 515.4 388, 515.1 388 C 514.8 388.1, 513.2 388.7, 511.5 389.4 M 607.5 390.7 C 604.5 394, 604.4 395.7, 606.9 398.8 C 609.5 401.8, 613.4 401.6, 615.9 398.4 C 618.5 395, 618.5 393, 616 390.2 C 613.2 387.3, 610.6 387.4, 607.5 390.7 M 149 390.2 C 147.6 390.8, 145 392, 143.2 392.8 C 141.4 393.6, 136.9 395, 133.2 396 L 126.5 397.8 131.2 398.5 C 139.5 399.8, 149.2 396.3, 152 391 C 153.2 388.8, 152.7 388.6, 149 390.2 M 546.9 389.8 C 546.8 390.2, 546.8 390.8, 546.9 391.3 C 546.9 391.7, 545.7 392, 544.1 392 C 539.1 392, 539.2 391.5, 535.4 424.5 C 531.4 459.7, 529.4 483.4, 531 476.5 C 533.4 466.3, 539.4 424.7, 541.7 402.7 C 542.3 396.5, 543.8 395.9, 548.2 399.7 C 550.5 401.7, 554.1 400.7, 558.5 396.9 C 562.7 393.2, 562.9 391.3, 559.4 390 C 556.4 388.8, 547.1 388.7, 546.9 389.8 M 299 391.1 C 294.2 393, 292.7 395.1, 294.6 397.2 C 295.6 398.2, 296.8 399, 297.4 399 C 298 399, 300.5 400.8, 303 403 C 307.7 407.1, 314.7 411, 317.3 411 C 318.2 411, 319.2 411.5, 319.5 412 C 319.8 412.6, 321.6 413, 323.4 413 C 327.7 413, 330.3 410.1, 330.4 405.3 L 330.5 401.5 324.3 401.4 C 317.6 401.2, 315.8 400.4, 307.9 393.8 C 302.8 389.7, 302.7 389.6, 299 391.1 M 295.7 404.8 C 295.4 405.2, 293.7 408.2, 291.9 411.5 C 290.1 414.8, 286.5 420.8, 283.8 424.9 C 278.2 433.5, 278.3 433, 281.5 436 C 283.9 438.3, 284.8 441, 283.2 441 C 282.7 441, 281.5 440.1, 280.5 439 C 278.3 436.6, 269.4 434.7, 262.7 435.3 C 255.5 435.9, 227.5 433.2, 223.6 431.6 L 220.4 430.3 219 436.2 C 218.3 439.4, 216.4 443.8, 214.9 446 C 211.4 450.8, 211.4 451, 214.5 451 C 216.6 451, 226.4 454.2, 232.5 456.9 C 241.9 461, 255.9 464, 266.1 464 C 285.5 464, 296.3 455.5, 313.8 426.3 L 319.9 416 317.2 415.4 C 313.4 414.5, 309.4 412.4, 302.8 407.9 C 296.6 403.7, 296.4 403.6, 295.7 404.8 M 186 406.4 C 186 409.8, 188.5 413.8, 192.6 416.8 C 196.8 419.9, 203 427.3, 203 429.2 C 203 429.6, 201.1 428.7, 198.9 427 C 192.5 422.4, 191 423.2, 191 431.2 C 191 441.9, 194 445, 200.5 441 C 204.8 438.3, 205.2 437.2, 205.7 425.8 L 206.2 416.1 201.8 411.8 C 196.4 406.4, 186 402.8, 186 406.4 M 172.1 406.7 C 164.4 407.1, 163.8 407.2, 164.3 409 C 164.6 410.1, 164.4 410.8, 163.9 410.4 C 163.4 410.1, 163 411.7, 163 413.9 C 163 416.1, 163.5 418.2, 164 418.5 C 165.8 419.6, 179.4 416.9, 180.6 415.2 C 181.4 414.1, 181.9 414, 182.4 414.9 C 182.8 415.5, 183.5 415.8, 183.9 415.6 C 185 414.9, 182.7 406, 181.5 406.2 C 181 406.3, 176.7 406.6, 172.1 406.7 M 155.3 411.9 C 144.3 420.5, 144.1 421.4, 152.1 424 C 158.5 426.2, 160 424, 160.1 412.8 C 160.1 411.9, 160.8 410.6, 161.6 409.9 C 163.1 408.7, 163.5 407, 162.3 407 C 161.8 407, 158.7 409.2, 155.3 411.9 M 163 423.9 C 163 429.6, 164.7 429.9, 176.8 426.2 C 180.4 425.1, 182 424.1, 182 422.9 C 182 421.4, 180.8 421.2, 172.5 421.3 L 163 421.3 163 423.9 M 417.5 444 C 410 449, 390.8 454, 379.4 454 C 369.1 454, 357.5 451.2, 347.3 446.2 C 341.9 443.5, 339 444, 340.3 447.4 C 341.2 449.8, 354.7 457.2, 361.8 459.2 C 375.9 463.1, 396.7 460.8, 410.5 453.8 C 419.4 449.3, 422 447.2, 422 444.4 C 422 441.5, 421.4 441.4, 417.5 444 M 425.7 445.7 C 424 447.3, 425.5 449.1, 432.8 453.8 C 446.1 462.5, 464.7 481.4, 466.4 488 C 467 490.2, 466.8 490.1, 464.3 487 C 456.2 476.8, 439.3 461.9, 428.2 455.2 C 422.1 451.5, 421.3 451.4, 418.1 454.1 L 415.6 456.1 419.1 458.8 C 428.4 465.8, 449.9 492.8, 448.8 496.1 C 448.6 496.8, 446.6 494.9, 444.4 491.9 C 432.4 475.4, 415.3 458, 411.2 458 C 408.8 458, 406.4 460.5, 408 461.5 C 410.5 463, 422 479.5, 420.9 479.9 C 420.2 480.1, 419.1 479.4, 418.3 478.4 C 415.9 475, 410.6 468.6, 406.9 464.6 C 403.4 460.8, 403.3 460.7, 399.6 462 C 396.7 462.9, 396 463.6, 396.5 464.9 C 396.9 465.8, 400.3 474.6, 404 484.5 C 407.8 494.4, 411.1 503.3, 411.5 504.3 C 411.9 505.3, 411.8 506, 411.1 506 C 409.9 506, 405.8 497.6, 402.4 488.5 C 401.4 485.8, 400 482.4, 399.3 481 C 398.6 479.6, 398 478, 398 477.4 C 398 476.7, 397.3 474.9, 396.5 473.4 C 395.7 471.8, 395 469.8, 395 469 C 394.9 466.5, 392.4 464, 390 464 C 387.2 464, 387.6 468.1, 391.4 479.5 C 392.7 483.4, 395.4 491.9, 397.5 498.5 C 399.5 505.1, 402.3 513.4, 403.5 517 C 404.8 520.6, 406.8 526.9, 408 531 C 409.2 535.1, 410.5 539.6, 411 541 C 411.5 542.4, 412.8 546.9, 414 551 C 415.2 555.1, 416.5 559.6, 417 561 C 417.5 562.4, 418.4 565.3, 419 567.5 C 419.6 569.7, 420.8 573.8, 421.7 576.5 C 423.1 581.3, 423.9 584.2, 427.5 599 C 431 613.3, 432.1 618, 434.5 630.5 C 435.9 637.7, 437.5 645.3, 438 647.5 C 438.5 649.7, 439.5 654.2, 440.1 657.5 C 440.7 660.8, 441.6 665.3, 442.1 667.5 C 443.2 672.8, 443.2 678.7, 442.1 677.5 C 441.6 676.9, 440.7 673.6, 440 670 C 438.5 661.8, 436.7 652.8, 434.5 642.5 C 433.5 638.1, 432.2 631.6, 431.5 628 C 428.3 612.1, 427.7 609.3, 425.8 602.1 C 424.7 597.9, 423.2 592, 422.5 589 C 420.8 581.7, 416 565, 415 562.5 C 414.5 561.4, 413.8 559.4, 413.5 558 C 413.1 556.6, 411.8 552.1, 410.5 548 C 409.3 543.9, 407.3 537.1, 406.1 533 C 404.9 528.9, 403.5 524.8, 403.1 524 C 402.6 523.1, 401.9 520.9, 401.5 519 C 401.1 517.1, 400.5 515.1, 400.1 514.5 C 399.7 514, 398.3 510.1, 397.1 506 C 395.8 501.9, 392.9 492.7, 390.5 485.5 C 388.2 478.4, 385.8 470.9, 385.3 469 C 384.6 466.2, 383.9 465.5, 382 465.5 C 379.4 465.5, 378.9 466.6, 376.5 478.5 C 373.8 491.9, 373 495.1, 372.1 496.8 C 371.2 498.3, 371.1 498.3, 371 496.5 C 371 493.5, 375 472, 376.5 467.3 C 377.2 465.2, 376.9 465, 373.7 465 C 369.8 465, 368.6 466.7, 365.5 477 C 364.6 480, 363.4 483.6, 363 485 C 362.5 486.4, 361.3 491.8, 360.2 497 C 359.1 502.2, 357.6 509, 357 512 C 356.4 515, 355.6 525.3, 355.3 534.8 C 355 544.2, 354.4 552, 353.9 552 C 350.1 552, 353 508.1, 358 490 C 360.9 479.3, 363.4 471.5, 364.6 469.1 C 367.1 464.4, 366 463, 359.9 463 C 357.6 463, 356.1 464.2, 351.9 469.5 C 349.1 473.1, 346.6 476, 346.4 476 C 345.5 476, 348.4 470.2, 351.6 465.9 L 355.1 461.1 352 459.5 C 350.3 458.6, 348 458.2, 346.9 458.5 C 341.9 460.1, 325.4 478.8, 313.5 496.3 C 308.7 503.4, 306.5 505.6, 307.9 501.7 C 311.9 491.2, 334.1 462.9, 342.8 457.2 C 344.6 456.1, 344.8 455.5, 343.8 454.9 C 340.2 452.6, 334.6 455.6, 323.5 466 C 316.8 472.2, 315 473.5, 315 472.1 C 315 470.5, 327.8 457.8, 332.8 454.5 C 336.3 452.2, 338.2 450, 336.6 450 C 328.9 450, 302.4 474.9, 284.4 499 C 261.8 529.3, 251.2 546.7, 233.1 583.5 C 220.5 609.2, 220.4 609.4, 216.9 620.3 C 215.3 625.4, 213.6 630.4, 213 631.5 C 211.2 635.4, 204 657.8, 202.6 664.1 C 201.8 667.6, 200.8 671.5, 200.5 672.7 C 199.9 674.5, 200.5 675.3, 203.9 677.4 C 206.1 678.8, 208.2 680, 208.6 680 C 208.9 680, 210.6 680.6, 212.3 681.4 C 219.7 684.7, 227.8 686.3, 239.5 686.5 C 250.6 686.8, 251.9 687, 257 689.7 C 260 691.4, 266.6 694.2, 271.5 696 C 276.5 697.7, 281.4 699.6, 282.5 700.1 C 289 703, 337.6 705.6, 367 704.6 C 397.5 703.5, 446.4 693.4, 454.5 686.4 C 456.1 685, 459.1 683.9, 462.3 683.5 C 469.8 682.6, 481.8 680.1, 487 678.3 C 500.7 673.7, 515.4 666.1, 525.8 658.3 L 529 655.9 526.7 651.7 C 525.4 649.4, 523.8 645.7, 523.2 643.5 C 522.1 639.8, 520.1 633, 511.9 606 C 507.4 590.9, 503 577.8, 501.9 575.8 C 501.4 574.8, 501 573.6, 501 573 C 501 571.9, 493.1 551.5, 489.8 544 C 481.4 525.2, 469.5 502.8, 465.2 497.7 C 464.4 496.8, 464 495.7, 464.3 495.3 C 464.7 495, 465.1 494.9, 465.3 495.1 C 465.5 495.3, 467 497.3, 468.6 499.5 C 479.2 513.5, 494.9 545.9, 504.5 573.5 C 505.4 576.3, 506.6 579.4, 507 580.5 C 508 583, 517.7 614.5, 522 629 C 528.4 651, 528.2 650.5, 531.7 650.4 C 535.7 650.2, 550.4 643.1, 554.7 639.3 L 557.9 636.5 554.7 630 C 539.8 598.8, 539.5 598.1, 541.8 597.3 C 547.1 595.5, 558 590.8, 559.5 589.6 C 561.2 588.4, 560.8 587.4, 553 574.4 C 537 548, 516.3 519.2, 497.6 497.6 C 479.1 476.2, 430.3 441, 425.7 445.7 M 243.1 488.6 L 239.9 493.3 242.6 496.1 C 245.9 499.6, 248 499.7, 250.7 496.8 C 254.2 492.8, 254.2 492.1, 250.9 488 C 246.9 483, 247.1 483, 243.1 488.6 M 293.6 510.8 C 283.4 527.7, 274.7 547.9, 267.2 572 C 260.1 594.6, 259 599.4, 261.2 597 C 262 596.2, 263.5 592.8, 264.5 589.5 C 270.4 569.4, 276.5 552.9, 284.5 535.5 C 291.1 521, 292.3 518.6, 297.2 509.7 C 302.3 500.4, 302.5 500, 301.1 500 C 300.5 500, 297.2 504.8, 293.6 510.8 M 205.5 629.7 C 190 653.9, 188 657.2, 188.5 658 C 190 660.5, 197 665.1, 197.4 663.8 C 197.6 663.1, 198.3 660.5, 199 658 C 200.8 651.5, 202.7 646, 207.7 633.2 C 210.1 626.9, 211.9 621.6, 211.6 621.3 C 211.4 621, 208.6 624.8, 205.5 629.7 M 283 709.5 C 283 713.9, 291.7 716.9, 298.1 714.8 C 305.4 712.4, 304.6 710, 296.3 710 C 292.6 710, 288 709.6, 286.2 709.1 C 283.7 708.3, 283 708.4, 283 709.5 M 277.5 713.6 C 276.7 715.6, 276 717.9, 276 718.6 C 276 724.7, 299.9 725.9, 310.6 720.3 C 315.9 717.5, 319 710, 314.8 710 C 311.1 710, 308 711.1, 308 712.4 C 308 714.9, 303.2 718.1, 298.4 718.8 C 288.6 720.3, 281 717.3, 281 711.8 C 281 708.8, 279.1 709.8, 277.5 713.6 M 380 710.9 C 377.5 711.6, 377.5 711.6, 381.5 714.3 C 386.2 717.5, 392.3 717.9, 397.6 715.4 L 401 713.8 398.6 711.9 C 396.1 709.9, 385.5 709.4, 380 710.9 M 360 711.8 C 360 712.8, 377.1 720.8, 384.5 723.2 C 389.5 724.9, 391.3 725, 395.5 724.2 C 398.2 723.6, 402.4 722.8, 404.8 722.5 C 409.5 721.8, 409.9 721.1, 407.1 718.6 C 405.4 717.1, 405 717.1, 400.6 719 C 391.2 723, 388.7 722.8, 382.2 717.8 C 379.1 715.3, 375.5 712.8, 374.3 712.2 C 371.9 710.9, 360 710.6, 360 711.8 M 357 716.7 C 357.1 722.5, 359 724.3, 371.1 729 C 381.1 733, 404.8 732.9, 410 729 C 413.4 726.5, 411.6 724.4, 407.5 726 C 396.8 730.1, 382.2 727.9, 366.8 720 C 358.7 715.9, 357 715.3, 357 716.7 M 308.5 724.8 C 302.2 728.1, 285.3 728.5, 278.6 725.6 C 274 723.6, 273 724.2, 275.1 727.8 C 280.6 737.7, 315 734.7, 315 724.3 C 315 721.6, 314.9 721.6, 308.5 724.8" stroke="none" fill="#1b1f3a" fill-rule="evenodd"/></svg>