<svg xmlns="http://www.w3.org/2000/svg" viewBox="0 0 768 768" version="1.1" preserveAspectRatio="xMidYMid meet">
	<path d="M 334.523 30.913 C 333.436 31.338, 332.311 32.683, 332.023 33.902 C 331.735 35.121, 331.275 36.015, 331 35.890 C 330.148 35.501, 326 38.022, 326 38.928 C 326 39.400, 326.652 40.036, 327.449 40.342 C 328.418 40.714, 328.714 40.418, 328.342 39.449 C 327.561 37.413, 331.090 37.574, 334.913 39.750 C 338.909 42.024, 338.767 43.135, 334.224 45.162 C 332.176 46.075, 328.390 47.762, 325.811 48.909 C 323.231 50.056, 320.842 51.446, 320.502 51.997 C 319.424 53.741, 318.239 53.090, 317.560 50.382 C 317.198 48.942, 316.698 47.969, 316.447 48.220 C 316.196 48.471, 316.492 50.112, 317.104 51.868 C 318.073 54.647, 317.911 55.508, 315.858 58.523 C 313.171 62.469, 312.223 62.636, 305.507 60.348 L 300.659 58.696 298.457 61.255 C 296.081 64.017, 294.488 71.503, 295.638 74.500 C 296.226 76.030, 296.017 76.210, 294.424 75.547 C 287.030 72.473, 274.368 72.452, 270.990 75.509 C 268.387 77.864, 268.392 83.395, 271 88.261 C 273.591 93.095, 273.533 93.635, 270.259 95.205 C 267.110 96.714, 265.005 100.541, 264.257 106.118 C 263.933 108.536, 263.207 110, 262.333 110 C 256.850 110, 254.486 115.805, 258.098 120.398 C 260.128 122.978, 260.141 123.183, 258.485 126.672 C 254.958 134.106, 259.427 144.849, 266.990 147.115 L 271.010 148.320 265.224 154.410 C 247.820 172.729, 241.473 187.625, 241.540 210 C 241.598 229.163, 247.206 243.940, 258.946 255.865 C 264.135 261.135, 264.540 261.867, 263.759 264.560 C 261.912 270.929, 264.722 280.740, 270.042 286.500 C 272.007 288.627, 276.103 290.939, 282.293 293.416 C 286.056 294.922, 286.074 294.956, 284.609 297.790 C 283.796 299.360, 282.398 301.255, 281.500 302 C 276.290 306.324, 275.907 311.833, 280.535 315.896 C 288.197 322.624, 299 318.430, 299 308.727 C 299 303.892, 294.345 296, 291.494 296 C 289.015 296, 289.816 294.263, 292.618 293.560 C 294.058 293.198, 295.346 293.037, 295.480 293.201 C 295.614 293.366, 297.361 297.028, 299.362 301.339 C 306.144 315.953, 302.907 326.794, 290.786 330.058 C 282.439 332.305, 277.883 328.711, 276.574 318.848 C 275.834 313.265, 273.734 313.382, 272.483 319.077 C 272.128 320.693, 270.127 324.599, 268.037 327.757 C 257.053 344.353, 259.222 362.879, 274.442 382.480 C 282.111 392.356, 281.089 386.777, 272.335 370.985 C 266.267 360.036, 264.494 348.572, 267.525 339.876 C 270.840 330.365, 275 324.158, 275 328.723 C 275 334.949, 288.466 336.858, 297.011 331.844 C 301.908 328.970, 305.402 323.800, 306.522 317.774 L 307.214 314.048 312.857 318.370 C 323.186 326.283, 338.756 335, 342.561 335 C 348.577 335, 352.773 338.353, 349.750 340.743 C 346.548 343.275, 342.816 342.829, 339.098 339.469 C 328.185 329.611, 304.257 334.457, 288.593 349.698 C 278.393 359.623, 277.098 378.339, 286.052 386.428 C 289.708 389.731, 289.847 390.067, 288.571 392.526 C 287.078 395.403, 287.478 398.322, 289.608 400.090 C 291.662 401.794, 291.418 402.596, 286.633 409.866 C 284.230 413.514, 281.132 418.560, 279.748 421.079 C 274.566 430.505, 275.980 429.751, 262.572 430.239 C 248.296 430.759, 226.617 428.634, 223.173 426.378 C 221.169 425.065, 220.865 424.163, 221.163 420.413 C 221.375 417.747, 221.115 416.124, 220.507 416.321 C 218.495 416.973, 217.139 421.700, 216.207 431.308 C 214.661 447.240, 209.164 452.110, 199.187 446.387 C 199.014 446.288, 200.814 444.208, 203.187 441.766 C 207.551 437.272, 209.217 432.436, 210.750 419.812 C 211.177 416.297, 211.432 416.073, 216.148 415.062 C 218.871 414.478, 221.751 414, 222.549 414 C 223.347 414, 224 413.100, 224 412 C 224 409.477, 221.146 409.381, 214.069 411.667 L 208.907 413.334 204.204 408.863 C 198.956 403.876, 196.269 402.361, 190.705 401.252 L 186.911 400.496 191.469 394.362 C 198.321 385.140, 199.625 379.311, 196.419 372.232 C 195.975 371.252, 190.059 375.557, 188 378.359 C 186.625 380.230, 184.190 383.413, 182.590 385.434 C 179.876 388.861, 179.792 389.221, 181.344 390.772 C 182.723 392.152, 183.519 392.243, 186.004 391.305 C 189.829 389.861, 189.971 391.284, 186.480 396.056 C 183.864 399.630, 181.205 402, 179.809 402 C 179.364 402, 179.026 398.512, 179.058 394.250 C 179.106 387.709, 179.952 383.042, 183.084 372.039 C 183.313 371.236, 184.207 369.775, 185.071 368.793 C 188.405 365.004, 191.126 358.066, 190.768 354.268 L 190.412 350.500 188.650 354.353 C 185.032 362.262, 175.195 370.459, 166.858 372.512 C 164.320 373.137, 164.140 372.896, 162.244 366.331 C 156.808 347.505, 156.808 346.442, 162.250 344.100 C 175.878 338.237, 181.649 329.678, 186.346 308.363 C 187.211 304.437, 189.101 298.729, 190.546 295.678 C 194.369 287.602, 193.875 286.575, 186.317 286.884 C 180.718 287.112, 179.984 286.905, 178.527 284.681 L 176.918 282.226 170.209 285.611 C 164.186 288.650, 163.091 288.897, 159.500 288.022 C 157.300 287.486, 153.363 287.037, 150.750 287.024 C 146.010 287, 146 286.993, 146 283.565 C 146 281.676, 146.445 278.960, 146.989 277.529 C 148.862 272.601, 141.880 273.306, 136.962 278.541 L 134.726 280.921 132.900 278.599 C 130.624 275.706, 122.559 272.162, 117.395 271.784 C 111.024 271.319, 112.379 273.024, 121.202 276.576 C 129.277 279.826, 133.984 283.638, 133.995 286.937 C 133.998 287.909, 133.110 287.542, 131.250 285.801 C 127.818 282.590, 122.255 279.724, 120.981 280.512 C 120.453 280.838, 117.322 280.574, 114.023 279.925 C 107.680 278.677, 95.008 280.408, 96.869 282.269 C 97.347 282.747, 99.228 282.737, 101.114 282.246 C 103.314 281.673, 107.476 281.836, 113 282.709 C 131.214 285.591, 139.492 292.390, 129.744 296.463 C 124.117 298.814, 120 306.357, 120 314.317 C 120 317.811, 120.101 317.758, 107.292 320.992 C 102.174 322.284, 101.366 323.366, 103.743 325.743 C 104.742 326.742, 107.061 329.650, 108.896 332.206 C 115.261 341.069, 118.429 342.907, 137.768 348.956 C 146.408 351.659, 148.264 352.610, 149.478 354.957 C 151.520 358.906, 150.757 359.079, 143.198 356.374 C 133.531 352.916, 125.566 352.308, 120.250 354.622 C 115.169 356.833, 114.824 358, 119.250 358.001 C 121.987 358.001, 123.418 359.027, 128.312 364.501 C 131.509 368.075, 133.556 371, 132.862 371 C 131.906 371, 131.881 371.281, 132.758 372.158 C 133.554 372.954, 134.318 372.998, 135.208 372.296 C 136.093 371.599, 137.369 371.645, 139.259 372.442 L 142.018 373.607 137.961 375.397 C 133.731 377.263, 128.474 381.807, 129.433 382.767 C 129.738 383.072, 130.786 382.599, 131.762 381.716 C 139.163 375.018, 151.629 374.539, 157.805 380.714 L 160.355 383.264 150.928 386.615 C 145.742 388.457, 140.600 390.395, 139.500 390.921 C 131.799 394.600, 118 396.256, 118 393.500 C 118 392.675, 118.525 392, 119.167 392 C 119.808 392, 120.121 391.787, 119.860 391.527 C 119.600 391.267, 117.725 391.513, 115.694 392.074 C 109.606 393.755, 110.934 395.490, 121 399.004 C 136.579 404.442, 150.691 400.558, 158.466 388.693 C 161.258 384.432, 161.454 384.647, 169.751 401.029 C 169.899 401.320, 167.877 402.180, 165.260 402.941 C 155.914 405.657, 143 416.505, 143 421.639 C 143 424.321, 150.032 428.024, 156.513 428.754 C 161.032 429.264, 162.816 431.709, 161.387 435.433 C 159.370 440.689, 164.752 452.077, 168.562 450.615 C 169.902 450.100, 170.093 449.676, 169.226 449.140 C 168.475 448.676, 170.210 447.600, 173.754 446.331 C 176.915 445.200, 180.209 443.969, 181.077 443.597 C 182.284 443.078, 182.970 443.925, 184.004 447.210 C 184.747 449.569, 186.020 452.287, 186.833 453.250 C 189.625 456.558, 194 454.758, 194 450.300 C 194 447.406, 193.879 447.390, 200.206 451.126 C 203.118 452.845, 207.300 454.456, 209.500 454.706 C 214.338 455.256, 217.234 456.252, 227 460.729 C 270.627 480.730, 296.284 471.639, 319.158 428.074 C 322.152 422.372, 324.276 419.515, 326 418.871 C 327.375 418.357, 329.493 416.731, 330.706 415.257 C 331.919 413.784, 333.073 412.786, 333.270 413.039 C 334.135 414.151, 341 436.029, 341 437.674 C 341 439.895, 335.494 444.423, 328.354 448.075 C 300.834 462.149, 258.987 514.507, 230.068 571.048 C 225.741 579.507, 218.540 592.733, 205.063 616.972 C 202.778 621.082, 200.322 625.132, 199.606 625.972 C 195.810 630.425, 182 655.134, 182 657.471 C 182 660.116, 190.638 670, 192.949 670 C 193.494 670, 193.841 671.685, 193.720 673.744 C 193.510 677.320, 193.789 677.679, 199.918 681.712 C 212.638 690.083, 232.715 695.338, 243.612 693.149 C 248.666 692.134, 249.245 692.227, 252.754 694.619 C 257.906 698.130, 270.607 704, 273.053 704 C 275.875 704, 276.592 706.710, 274.743 710.381 C 272.179 715.469, 270 723.101, 270 726.991 C 270 736.797, 288.733 741.998, 306.405 737.097 C 316.256 734.366, 318.471 731.796, 320.713 720.500 L 322.500 711.500 326.750 711.545 C 329.087 711.570, 335.950 711.683, 342 711.795 L 353 712 353 717.423 C 353 724.987, 355.700 727.963, 366.291 732.069 C 378.680 736.872, 379.560 737.038, 392.761 737.055 C 411.716 737.080, 416 735.297, 416 727.379 C 416 721.448, 414.181 718.212, 407.493 712.252 L 401.929 707.292 408.092 706.648 C 411.481 706.294, 415.885 705.579, 417.877 705.060 C 419.870 704.541, 424.875 703.359, 429 702.433 C 442.159 699.479, 453.924 695.340, 459.081 691.851 C 460.520 690.877, 465.274 689.652, 469.830 689.081 C 481.574 687.608, 492.791 684.281, 505.244 678.578 C 517.311 673.051, 535 660.833, 535 658.025 C 535 656.686, 536.749 655.652, 541.826 653.987 C 549.744 651.391, 558.142 646.017, 562.180 640.962 L 565.006 637.425 563.284 632.962 C 562.337 630.508, 558.813 622.966, 555.453 616.203 C 552.092 609.440, 549.747 603.656, 550.241 603.351 C 550.735 603.046, 554.147 601.291, 557.823 599.452 C 565.010 595.857, 569 592.704, 569 590.621 C 569 584.303, 545.214 546.820, 519.811 513.106 C 494.372 479.343, 459.210 450.671, 429.635 439.572 L 424.770 437.747 425.401 432.623 C 425.748 429.806, 426.311 422.212, 426.653 415.750 C 426.995 409.287, 427.454 404, 427.672 404 C 429.202 404, 434.673 408.588, 441.500 415.595 C 456.808 431.308, 467.647 435.228, 485.127 431.375 C 489.182 430.481, 492.927 429.356, 493.450 428.875 C 493.972 428.394, 495.029 428, 495.798 428 C 496.567 428, 502.890 425.148, 509.848 421.662 C 516.807 418.176, 523.850 415.005, 525.500 414.615 C 527.150 414.224, 529.333 413.657, 530.351 413.353 C 531.931 412.882, 532.117 413.219, 531.622 415.650 C 531.303 417.218, 530.370 425.700, 529.548 434.500 C 526.680 465.227, 525.934 472.588, 524.429 485 C 520.925 513.903, 521.332 517.799, 527.386 513.337 C 530.148 511.300, 531.337 507.271, 533.035 494.184 C 533.628 489.610, 534.308 485.335, 534.545 484.684 C 534.783 484.033, 535.453 480.350, 536.036 476.500 C 536.618 472.650, 537.752 465.225, 538.556 460 C 540.475 447.530, 542.790 431.139, 544.557 417.500 C 545.341 411.450, 545.986 406.497, 545.991 406.493 C 545.996 406.489, 547.913 406.636, 550.250 406.820 C 557.713 407.408, 566.884 398.673, 568.561 389.380 C 568.946 387.246, 569.692 384.956, 570.219 384.291 C 570.746 383.626, 570.886 381.756, 570.530 380.136 C 570.156 378.433, 570.329 376.914, 570.941 376.536 C 572.757 375.414, 572.152 368.463, 570 365.727 C 568.740 364.125, 568 361.670, 568 359.092 C 568 355.708, 567.664 355, 566.059 355 C 563.041 355, 562.966 353.915, 565.469 346.455 C 566.753 342.630, 568.500 337.025, 569.350 334 C 572.599 322.451, 575.255 313.352, 576.502 309.500 C 578.499 303.337, 585.773 273.054, 586.471 268 C 586.813 265.525, 587.513 261.475, 588.027 259 C 590.478 247.195, 592 218.474, 592 184.033 C 592 164.305, 592.258 147.493, 592.572 146.672 C 593.567 144.079, 603.857 148.302, 610.275 153.937 C 614.518 157.662, 616.553 156.762, 615.583 151.588 C 614.557 146.121, 609.878 141.410, 603.971 139.896 C 601.237 139.195, 599.029 138.369, 599.065 138.061 C 599.101 137.752, 601.880 136.150, 605.240 134.500 C 609.839 132.241, 612.497 130.018, 616 125.500 C 619.299 121.244, 621.428 119.408, 623.325 119.184 C 626.421 118.817, 626.539 118.225, 624.490 113.322 C 623.065 109.912, 622.877 109.801, 621.161 111.354 C 620.161 112.259, 618.613 113, 617.721 113 C 616.829 113, 615.740 113.585, 615.300 114.301 C 614.339 115.863, 604.608 120.164, 604.246 119.186 C 604.106 118.809, 601.483 111.975, 598.418 104 C 591.610 86.290, 591.353 85.482, 592.822 86.390 C 596.636 88.747, 601.795 79.939, 599.923 74.265 C 599.024 71.543, 599.089 70.542, 600.250 69.187 C 603.208 65.736, 603.193 64.797, 600.215 66.999 C 595.415 70.548, 591.385 67.292, 590.268 58.959 C 589.624 54.161, 588.040 55.513, 588.015 60.882 C 587.995 65.402, 582.310 70.985, 577.679 71.033 C 574.564 71.066, 574.540 71.101, 576.500 72.783 C 577.717 73.828, 578.370 75.421, 578.167 76.852 C 577.592 80.914, 578.923 83.909, 582.014 85.507 C 585.904 87.519, 585.858 87.802, 580.083 97.361 C 572.183 110.436, 570.684 111.261, 559.881 108.489 C 557.647 107.916, 557.168 108.195, 556.616 110.393 C 556.176 112.146, 555.095 113.154, 553.235 113.548 C 545.836 115.111, 545.417 115.455, 550.526 115.775 C 555.461 116.083, 555.593 116.176, 557.749 120.876 C 558.956 123.509, 561.895 127.757, 564.279 130.317 L 568.613 134.972 564.915 138.583 C 558.739 144.614, 555.840 153.455, 561.119 150.158 C 566.496 146.800, 570.941 145.044, 575.590 144.443 L 580.679 143.785 581.376 179.242 C 582.662 244.657, 579.866 266.279, 563.558 317 C 561.701 322.775, 559.537 329.750, 558.748 332.500 C 553.944 349.261, 553.652 349.904, 550.527 350.597 C 547.376 351.296, 540.605 355.212, 539.525 356.959 C 539.171 357.532, 537.784 358, 536.441 358 C 534.550 358, 534 358.526, 534 360.334 C 534 362.171, 532.775 363.290, 528.250 365.584 C 522.044 368.731, 519.138 372.827, 519.048 378.553 C 518.994 381.989, 514.276 383.956, 497.500 387.538 C 493.100 388.478, 487.025 389.925, 484 390.755 C 471.763 394.111, 472.181 394.114, 469.618 390.650 C 463.808 382.800, 463.421 381.512, 465.301 376.269 C 467 371.526, 467.478 362.045, 466.180 358.801 C 465.806 357.866, 463.678 355.166, 461.452 352.801 C 459.225 350.435, 455.854 346.546, 453.961 344.158 C 441.648 328.631, 422.962 325.845, 409.190 337.482 C 406.809 339.494, 405.574 339.974, 404.794 339.194 C 404.197 338.597, 402.425 338.365, 400.857 338.679 C 397.879 339.274, 395 337.708, 395 335.493 C 395 334.798, 397.227 333.502, 399.950 332.611 C 408.539 329.802, 426.724 318.207, 434.083 310.848 C 444.861 300.070, 449.957 291.875, 452.922 280.556 C 453.992 276.474, 455.520 272.091, 456.320 270.817 C 457.119 269.543, 458.346 265.352, 459.046 261.504 C 461.369 248.741, 466.186 237.076, 472.056 230 C 479.980 220.447, 481.474 216.012, 481.488 202 C 481.502 187.547, 479.588 178.182, 474.132 166 C 471.620 160.391, 468.584 156.365, 459.985 147.242 C 454.299 141.209, 452.110 138.205, 452.586 137.087 C 456.873 127.007, 451.413 114.480, 441.176 110.912 C 438.325 109.918, 438.284 109.803, 439.222 105.409 C 440.851 97.770, 438.718 95.752, 429.423 96.140 C 422.701 96.420, 421.856 96.240, 420.445 94.225 C 418.454 91.382, 417.770 91.434, 416.329 94.540 C 414.196 99.137, 419.999 112.047, 422.430 108.113 C 422.731 107.626, 424.479 106.945, 426.314 106.601 C 430.981 105.725, 434.520 102.331, 432.855 100.326 C 431.766 99.013, 431.517 99.074, 430.875 100.810 C 430.197 102.642, 428 104.779, 428 103.606 C 428 101.842, 430.554 98, 431.726 98 C 434.581 98, 437 100.103, 437 102.585 C 437 108.449, 431.081 114.184, 427.182 112.097 C 424.176 110.489, 413.630 107, 411.772 107 C 410.171 107, 410.257 106.554, 412.560 102.906 C 415.302 98.562, 414.980 95.966, 412.164 99.715 C 407.300 106.189, 407.874 105.881, 402.156 105.082 C 397.385 104.415, 396.295 103.771, 391.971 99.068 L 387.130 93.802 390.522 94.438 C 395.835 95.435, 404.919 95.309, 406.273 94.219 C 406.948 93.676, 408.962 92.918, 410.750 92.536 C 415.468 91.527, 415.044 89.066, 410.250 89.636 C 405.878 90.156, 404.541 89.431, 403.542 86 L 402.815 83.500 404.464 85.750 C 408.296 90.977, 415 87.037, 415 79.558 C 415 75.360, 412.005 72.929, 406.371 72.553 C 404.351 72.418, 402.204 71.639, 401.599 70.821 C 400.995 70.004, 399.150 68.679, 397.500 67.878 C 395.019 66.674, 394.555 65.909, 394.818 63.461 C 395.199 59.911, 393.478 61.135, 392.497 65.112 C 391.923 67.437, 392.278 67.894, 395.733 69.276 C 401.692 71.661, 402.313 72.898, 400.289 78.359 C 398.518 83.138, 398.115 83.430, 391.750 84.558 C 388.285 85.172, 388.001 85.043, 388.015 82.861 C 388.038 79.324, 389.395 77.806, 394.087 76.071 C 399.533 74.057, 400.698 71.550, 395.875 72.224 C 394.019 72.483, 391.712 73.037, 390.750 73.455 C 389.190 74.131, 389 73.543, 389 68.041 C 389 64.646, 388.514 60.960, 387.920 59.850 C 385.727 55.752, 376.267 53.622, 372.499 56.377 C 370.802 57.618, 370.453 57.446, 368.957 54.627 C 366.957 50.860, 361.590 47, 358.352 47 C 357.058 47, 356 46.490, 356 45.867 C 356 44.383, 359.929 41, 361.653 41 C 362.394 41, 363 40.550, 363 40 C 363 38.627, 361.546 38.745, 357.468 40.449 C 355.561 41.246, 354 42.596, 354 43.449 C 354 45.061, 352.590 45.207, 347.500 44.126 C 344.912 43.576, 344.422 42.940, 343.930 39.494 L 343.360 35.500 341.873 38.743 C 340.389 41.980, 338 41.680, 338 38.256 C 338 37.517, 337.212 37.045, 336.250 37.206 C 333.547 37.660, 333.234 33.013, 335.921 32.310 C 337.064 32.011, 338 31.369, 338 30.883 C 338 29.849, 337.231 29.855, 334.523 30.913 M 338.295 46.132 C 336.532 46.628, 334.442 47.958, 333.652 49.087 C 332.751 50.373, 332.064 50.693, 331.815 49.944 C 331.272 48.316, 323.653 52.230, 321.566 55.209 C 318.331 59.828, 321.022 64.578, 324.758 60.842 C 326.997 58.603, 329 61.787, 329 67.587 C 329 73.101, 330.411 75, 334.506 75 C 335.994 75, 336 74.857, 334.571 73.429 C 330.413 69.270, 334.718 59.743, 342.806 55.207 C 347.845 52.380, 358.502 55.080, 362.813 60.275 C 365.632 63.672, 365.419 68.708, 362.176 75.295 C 358.186 83.399, 356.384 84.993, 344.576 90.862 C 339.181 93.544, 335.240 96.030, 335.819 96.388 C 336.996 97.116, 345.249 95.472, 348.114 93.939 C 349.137 93.391, 354.952 92.331, 361.037 91.582 C 373.313 90.071, 375.354 88.986, 376.989 83.100 C 378.659 77.089, 378.308 74, 375.955 74 C 372.899 74, 369.216 69.732, 368.499 65.362 C 366.958 55.959, 362.995 50.947, 356 49.550 C 354.075 49.165, 351.150 48.266, 349.500 47.550 C 344.858 45.538, 341.786 45.149, 338.295 46.132 M 357.443 60.223 C 359.644 63.365, 359.400 65.651, 356.121 72.581 C 353.508 78.106, 349.140 83, 346.822 83 C 345.404 83, 335 90.948, 335 92.032 C 335 93.596, 335.798 93.256, 344.545 87.973 C 358.951 79.271, 365.964 66.632, 359.961 60.189 C 357.300 57.333, 355.437 57.358, 357.443 60.223 M 373.223 59.557 C 369.538 62.138, 371.040 68.345, 375.991 70.995 C 378.739 72.466, 379.532 70.436, 377.043 68.304 C 374.626 66.235, 374.423 65, 376.500 65 C 377.325 65, 378 64.325, 378 63.500 C 378 62.638, 377.098 62, 375.878 62 C 374.174 62, 373.984 61.724, 374.914 60.603 C 376.524 58.663, 379.537 59.688, 380.878 62.632 C 383.645 68.704, 380.769 87.667, 376.482 91.624 C 374.679 93.289, 372.304 93.905, 365.511 94.471 C 360.743 94.868, 353.614 96.263, 349.671 97.570 C 345.727 98.878, 341.150 100.021, 339.500 100.110 C 337.116 100.239, 336.962 100.361, 338.750 100.706 C 339.988 100.944, 341 101.558, 341 102.070 C 341 103.321, 336.280 103.262, 335.500 102 C 334.626 100.587, 325.948 100.822, 323.226 102.333 L 320.953 103.596 323.297 108.048 C 324.586 110.497, 326.786 113.058, 328.185 113.740 C 331.635 115.421, 343.514 113.898, 349.479 111.010 C 353.472 109.077, 354.554 108.953, 359.040 109.915 C 373.624 113.043, 383.885 106.565, 382.768 94.936 C 382.507 92.221, 382.678 90, 383.147 90 C 383.616 90, 384 88.395, 384 86.434 C 384 84.473, 384.464 82.002, 385.031 80.943 C 385.598 79.884, 386.324 75.526, 386.645 71.258 C 387.169 64.287, 387.007 63.221, 385.042 60.750 C 382.490 57.541, 376.906 56.977, 373.223 59.557 M 298.536 63.887 C 298.172 65.033, 298.010 68.699, 298.175 72.034 C 298.456 77.708, 298.616 78.062, 300.661 77.549 C 302.127 77.181, 303.860 77.853, 305.923 79.589 L 309 82.178 309 76.711 C 309 73.704, 309.661 69.663, 310.468 67.731 L 311.936 64.218 308.718 63.561 C 299.606 61.703, 299.225 61.715, 298.536 63.887 M 321.866 63.667 C 319.602 64.270, 317 71.601, 317 77.379 C 317 83.224, 319.159 86.592, 325.673 90.907 C 333.553 96.127, 334.047 94.727, 327.541 85.609 C 322.310 78.279, 321.179 73.386, 323.298 67.250 C 324.106 64.912, 324.481 63.052, 324.133 63.116 C 323.785 63.180, 322.765 63.428, 321.866 63.667 M 325.439 69.475 C 324.614 73.870, 326.014 77.889, 330.498 83.997 L 334.039 88.822 340.167 84.730 L 346.295 80.638 337.945 78.428 C 328.392 75.900, 325.516 73.482, 326.536 68.836 C 326.879 67.276, 326.919 66, 326.625 66 C 326.331 66, 325.797 67.564, 325.439 69.475 M 584.642 70.952 C 582.089 73.681, 580 76.799, 580 77.880 C 580 80.568, 584.742 86, 587.089 86 C 588.140 86, 589 86.238, 589 86.529 C 589 87.778, 582.418 100.013, 578.638 105.791 C 574.234 112.521, 572.552 113.453, 565.947 112.824 C 562.438 112.489, 562.117 112.613, 563.628 113.718 C 564.593 114.423, 565.957 115, 566.660 115 C 567.380 115, 567.688 115.649, 567.366 116.488 C 565.944 120.195, 574.274 130.179, 582.388 134.492 L 587.276 137.091 591.688 135.017 C 594.114 133.876, 596.438 133.152, 596.851 133.408 C 598.455 134.399, 608.441 128.293, 611.700 124.328 L 615.130 120.157 610.815 121.475 C 601.990 124.171, 602.402 124.470, 598.451 112.500 C 597.544 109.750, 596.191 106.150, 595.445 104.500 C 594.699 102.850, 593.246 99.313, 592.217 96.640 L 590.345 91.779 588.028 98.640 C 584.775 108.277, 582.056 114.389, 581.341 113.674 C 580.827 113.160, 582.913 106.333, 585.978 98.500 C 586.408 97.400, 587.468 94.700, 588.333 92.500 C 589.198 90.300, 590.040 87.628, 590.204 86.563 C 590.393 85.342, 591.681 84.321, 593.688 83.801 C 600.719 81.979, 599.292 73.504, 590.892 67.198 C 589.536 66.180, 588.552 66.772, 584.642 70.952 M 288.551 75.783 C 288.240 76.093, 285.317 76.239, 282.055 76.106 C 274.176 75.784, 272 77.017, 272 81.803 C 272 89.479, 279.678 96.751, 284.469 93.612 C 287.133 91.866, 296.409 92.234, 297.581 94.132 C 298.275 95.255, 300 95.257, 300 94.136 C 300 93.660, 298.676 91.754, 297.057 89.901 C 294.336 86.784, 294.235 86.398, 295.712 84.765 C 296.591 83.794, 298.140 83, 299.155 83 C 300.170 83, 301 82.585, 301 82.078 C 301 80.921, 289.319 75.014, 288.551 75.783 M 310.616 87.396 C 310.190 89.092, 310.960 91.294, 313.257 94.942 C 316.339 99.837, 316.674 100.067, 320 99.558 C 321.925 99.263, 326.200 98.976, 329.500 98.921 C 335.085 98.827, 335.268 98.753, 332.139 97.853 C 327.975 96.654, 321.690 92.777, 316.747 88.356 C 312.284 84.365, 311.411 84.228, 310.616 87.396 M 295.967 96.971 C 303.530 103.531, 296.378 119, 285.781 119 C 273.354 119, 268.946 109.791, 277.351 101.386 L 281.702 97.035 278.436 96.422 C 271.939 95.203, 267.045 99.780, 267.015 107.101 C 266.989 113.313, 274.276 125, 278.174 125 C 279.178 125, 280 125.450, 280 126 C 280 127.309, 276.690 127.290, 275.373 125.973 C 274.809 125.409, 272.075 124.678, 269.298 124.349 C 262.777 123.577, 260 125.901, 260 132.132 C 260 142.351, 269.919 148.626, 274.004 140.993 C 274.997 139.138, 274.798 139.066, 270.371 139.673 C 264.996 140.409, 264.875 138.661, 270.229 137.626 C 272.515 137.184, 275.047 135.265, 278.635 131.254 L 283.769 125.515 287.248 126.773 C 290.991 128.126, 303.857 126.194, 306.675 123.854 C 308.174 122.610, 308.543 112.639, 307.070 113.167 C 306.559 113.350, 303.708 115.828, 300.734 118.673 L 295.329 123.847 288.414 122.956 C 284.611 122.466, 281.024 122.051, 280.441 122.033 C 279.859 122.015, 278.509 121.305, 277.441 120.455 C 275.643 119.024, 275.868 118.954, 280.500 119.507 C 292.219 120.905, 293.709 120.855, 296.830 118.957 C 300.527 116.709, 305 109.984, 305 106.674 C 305 102.544, 302.040 98.043, 298.294 96.478 C 293.631 94.530, 293.246 94.611, 295.967 96.971 M 304 95.469 C 304 96.575, 308.246 103.960, 309.462 104.969 C 310.194 105.576, 310.579 106.895, 310.316 107.899 C 310.025 109.012, 310.500 109.978, 311.532 110.374 C 312.825 110.870, 312.961 111.342, 312.106 112.373 C 311.490 113.114, 311.184 115.247, 311.426 117.111 C 311.667 118.975, 311.895 120.886, 311.933 121.358 C 311.970 121.831, 313.129 121.934, 314.508 121.587 C 316.960 120.972, 316.977 121.005, 315.258 123.054 C 312.545 126.289, 310.952 126.855, 299.881 128.518 C 291.797 129.732, 288.965 129.814, 286.755 128.898 C 285.204 128.256, 283.786 127.904, 283.602 128.115 C 281.416 130.638, 278 137.487, 278 139.350 L 278 141.740 285.250 137.942 C 289.238 135.854, 297.675 132.715, 304 130.967 C 310.325 129.220, 316.048 127.344, 316.718 126.799 C 318.010 125.748, 329.894 127.238, 335.500 129.153 C 341.932 131.351, 344.018 131.838, 343.515 131.024 C 343.227 130.559, 344.821 131.061, 347.056 132.141 C 349.771 133.453, 352.677 134.004, 355.810 133.802 C 360.353 133.509, 360.510 133.392, 360.827 130.067 C 361.369 124.380, 360.175 120.699, 356.488 116.685 C 352.327 112.156, 351.094 112.318, 345.190 118.163 C 340.971 122.341, 339.969 125.569, 342.200 127.800 C 342.860 128.460, 343.138 129, 342.818 129 C 341.529 129, 334.281 120.944, 335.109 120.433 C 335.599 120.130, 336.403 120.131, 336.896 120.436 C 337.966 121.097, 342.756 117.429, 341.919 116.589 C 341.600 116.268, 338.900 116.417, 335.919 116.921 C 322.772 119.141, 321.325 119.225, 323.487 117.639 C 325.316 116.296, 325.347 116.035, 323.885 114.340 C 323.012 113.328, 321.247 110.588, 319.964 108.250 C 318.681 105.912, 317.070 104, 316.384 104 C 315.698 104, 314.194 102.677, 313.043 101.061 C 310.868 98.005, 304 93.759, 304 95.469 M 280.241 101.354 C 275.206 106.816, 274.347 109.354, 276.446 112.558 C 282.058 121.123, 295.499 116.621, 296.723 105.767 C 297.805 96.161, 287.557 93.418, 280.241 101.354 M 386.167 101.414 C 382.646 111.151, 369.081 116.381, 357.500 112.466 C 356.305 112.062, 357.111 113.226, 359.500 115.357 C 362.629 118.148, 364.371 118.936, 367.500 118.978 C 372.066 119.038, 370.501 120.958, 365.864 120.985 C 363.501 120.998, 363.156 121.477, 362.539 125.592 C 362.160 128.117, 362.036 130.370, 362.264 130.597 C 362.760 131.093, 370.229 122.343, 371.747 119.488 C 374.866 113.618, 405.115 111.195, 417.577 115.818 C 422.084 117.490, 435.691 124.448, 437 125.751 C 437.716 126.463, 433.034 125.017, 429.500 123.433 C 416.987 117.827, 404.023 116.010, 392.208 118.206 C 373.567 121.671, 375.208 120.704, 363.066 135.395 C 361.835 136.885, 362.356 136.758, 365.500 134.803 C 389.137 120.107, 425.648 121.825, 443.528 138.475 C 446.185 140.950, 448.558 142.775, 448.801 142.532 C 449.497 141.836, 444.425 133.829, 441.055 130.304 C 439.375 128.547, 438 126.676, 438 126.147 C 438 124.378, 428.402 116.531, 422.729 113.660 C 418.746 111.645, 414.195 110.440, 407.025 109.503 C 395.751 108.030, 393.323 106.873, 390.497 101.624 C 388.090 97.155, 387.714 97.137, 386.167 101.414 M 283.635 102.073 C 281.515 103.740, 281 104.989, 281 108.466 C 281 113.128, 282.041 114.094, 286.832 113.882 L 289.500 113.763 286.582 113.132 C 283.440 112.451, 281.779 110, 284.461 110 C 285.355 110, 285.955 109.355, 285.794 108.566 C 285.632 107.777, 285.947 107.214, 286.493 107.316 C 287.039 107.417, 287.342 108.130, 287.165 108.900 C 286.932 109.913, 287.313 109.830, 288.541 108.602 C 290.480 106.663, 290.472 106.648, 286.473 104.563 L 283.500 103.012 288.187 103.006 C 292.726 103, 292.886 103.102, 293.277 106.250 L 293.680 109.500 293.840 106.307 C 294.124 100.639, 288.450 98.285, 283.635 102.073 M 561.665 121.981 C 564.169 126.731, 574.702 137.176, 579.063 139.235 C 584.789 141.937, 590.100 142.403, 594.456 140.583 C 599.743 138.374, 598.398 137.661, 588.583 137.475 C 579.036 137.293, 574.755 135.431, 569.531 129.186 C 567.864 127.193, 564.999 123.974, 563.165 122.032 L 559.829 118.500 561.665 121.981 M 391.225 129.546 C 378.053 131.953, 361.175 139.301, 363.204 141.746 C 365.364 144.349, 383.688 152.977, 405.446 161.638 C 424.603 169.263, 447.557 169.263, 453.885 161.638 C 455.063 160.219, 454.728 159.308, 451.352 154.751 C 449.212 151.863, 446.272 147.658, 444.820 145.407 C 436.662 132.763, 412.597 125.641, 391.225 129.546 M 311 133.060 C 306.875 134.060, 301.475 135.372, 299 135.975 C 296.525 136.577, 293.082 137.729, 291.349 138.535 C 289.616 139.341, 287.935 140, 287.614 140 C 285.030 140, 272.040 149.722, 271.973 151.706 C 271.958 152.143, 270.593 154.075, 268.940 156 C 258.021 168.711, 252.992 177.266, 249.697 188.736 L 248.193 193.972 251.643 200.708 C 257.130 211.424, 261.264 214.483, 272.386 216.055 C 285.602 217.923, 299.322 213.728, 318.268 202.029 C 322.795 199.233, 327.400 196.395, 328.500 195.723 C 351.625 181.584, 366.280 158.671, 360.621 145.500 L 359.332 142.500 357.609 145.810 C 353.944 152.854, 341.415 164.246, 327.279 173.389 C 315.630 180.924, 292.551 191, 286.942 191 C 285.814 191, 280.890 192.125, 276 193.500 C 263.557 196.999, 259.106 196.743, 254.217 192.250 C 252.434 190.611, 253.281 190.673, 257.654 192.500 C 261.703 194.192, 265.810 194.415, 269.203 193.129 C 270.466 192.651, 273.975 191.558, 277 190.701 C 294.566 185.723, 296.473 185.041, 308.454 179.444 C 326.377 171.072, 345.061 157.286, 354.306 145.614 L 357.424 141.677 354.752 142.348 C 352.176 142.994, 342.548 147.304, 327.185 154.687 C 312.426 161.779, 319.380 155.558, 336.301 146.531 C 348.013 140.283, 349.211 138.969, 340.860 141.533 C 333.824 143.694, 331.884 144.596, 323.177 149.764 C 309.838 157.679, 292.536 165.894, 287.969 166.480 L 283.500 167.053 287 165.403 C 304.407 157.197, 324.211 146.733, 328 143.738 L 330.500 141.763 316.500 142.265 C 308.800 142.541, 301.150 143.227, 299.500 143.790 C 287.344 147.934, 280.999 149.299, 281.003 147.769 C 281.006 146.693, 286.960 144.481, 301 140.339 C 302.375 139.933, 310.700 139.498, 319.500 139.372 C 339.326 139.087, 359.167 138.167, 359.833 137.501 C 360.108 137.225, 358.249 137, 355.702 137 C 353.154 137, 349.142 136.363, 346.785 135.584 C 331.788 130.630, 323.448 130.042, 311 133.060 M 453 145.851 C 453 147.380, 457.240 156.225, 458.728 157.799 C 461.255 160.473, 453.120 167.557, 444.312 170.353 C 438.441 172.217, 423.667 172.584, 419.426 170.972 C 414.038 168.923, 416.105 170.797, 422.723 173.961 C 434.772 179.721, 446.059 183, 453.838 183 C 461.940 183, 463.838 184.369, 458.113 186.084 C 454.896 187.048, 452.409 186.950, 444.636 185.550 C 434.583 183.740, 433.515 183.267, 399.500 165.555 C 369.787 150.083, 367.647 149.019, 367.179 149.488 C 366.401 150.265, 371.539 157.097, 377.449 163.145 C 382.695 168.513, 395.034 176.626, 401.500 178.959 C 403.150 179.554, 405.400 180.454, 406.500 180.959 C 407.600 181.464, 411.650 182.858, 415.500 184.056 C 428.503 188.104, 431.487 189.340, 436 192.549 C 444.500 198.593, 448.319 200, 456.210 199.996 C 474.447 199.987, 478.979 186.474, 467.781 165.500 C 462.631 155.855, 453 143.051, 453 145.851 M 586.162 192.250 C 586.262 220.881, 586.600 234.881, 587.050 229 C 588.203 213.918, 588.162 146, 587 146 C 586.345 146, 586.056 161.975, 586.162 192.250 M 365.045 158.213 C 364.926 165.423, 356.985 179.277, 348.378 187.291 C 343.371 191.953, 332.699 200, 331.525 200 C 331.275 200, 326.960 202.492, 321.937 205.538 C 316.914 208.584, 309.256 212.860, 304.921 215.040 C 296.683 219.182, 296.800 219.028, 295.503 227.500 C 294.345 235.069, 291.285 241.827, 284.376 252.081 L 281.962 255.662 289.731 268.581 C 294.004 275.686, 298.567 284.650, 299.871 288.500 C 308.909 315.180, 331.867 329.995, 366.871 331.735 C 376.273 332.203, 393.376 329.818, 394.579 327.872 C 394.876 327.392, 395.892 327, 396.837 327 C 402.789 327, 422.534 314.618, 432 304.949 C 446.078 290.569, 448.922 282.633, 448.927 257.711 C 448.928 247.695, 449.431 236.575, 450.044 233 C 453.661 211.888, 451.279 202, 442.576 202 C 440.815 202, 436.928 200.788, 433.937 199.308 C 427.110 195.927, 417.556 195.515, 411.646 198.346 C 406.895 200.622, 405.157 199.500, 407.148 195.441 C 408.487 192.711, 409.803 191.673, 413.313 190.579 C 415.566 189.877, 414.571 188, 411.945 188 C 409.038 188, 398.720 184.230, 392.236 180.800 C 382.531 175.665, 375.170 169.006, 366.795 157.785 L 365.089 155.500 365.045 158.213 M 475 193.906 C 475 198.045, 463.850 205, 457.215 205 C 455.411 205, 454.942 205.407, 455.393 206.582 C 455.727 207.452, 456 208.352, 456 208.582 C 456 208.812, 457.323 209, 458.941 209 C 460.559 209, 462.160 209.450, 462.500 210 C 462.873 210.604, 461.502 211, 459.033 211 L 454.949 211 456.460 213.923 C 457.900 216.706, 458.152 216.798, 461.736 215.824 C 463.806 215.261, 466.175 214.239, 467 213.553 C 470.504 210.636, 471.592 210.444, 469.893 213.043 C 469.009 214.394, 465.904 216.850, 462.994 218.500 C 458.270 221.178, 457.574 222.009, 456.506 226.250 C 455.848 228.863, 455.466 231, 455.658 231 C 455.850 231, 457.686 230.100, 459.739 229 C 461.791 227.900, 464.225 227, 465.146 227 C 467.348 227, 471.417 222.081, 474.074 216.205 C 476.565 210.696, 478.015 194.746, 476.131 193.581 C 475.509 193.196, 475 193.343, 475 193.906 M 246.517 203.174 C 245.576 211.732, 247.298 224.610, 250.506 233 C 253.356 240.454, 262.274 252.891, 266.071 254.708 C 275.606 259.269, 289.161 243.269, 293.460 222.377 L 294.103 219.254 288.802 220.233 C 279.098 222.024, 265.692 219.638, 260.744 215.240 C 257.561 212.411, 258.013 214.499, 262 221.048 C 265.444 226.703, 267.650 234.125, 265.092 231.450 C 263.533 229.820, 250.046 203.921, 248.193 199 C 247.390 196.868, 247.144 197.481, 246.517 203.174 M 330.500 203.636 C 321.936 205.622, 309.877 215.733, 308.479 222.098 C 307.789 225.236, 308.574 227.214, 309.804 225.438 C 311.151 223.494, 320.857 216.950, 325.651 214.754 C 328.672 213.370, 333.328 212.338, 338 212.016 C 344.584 211.563, 345.500 211.263, 345.500 209.556 C 345.500 206.071, 336.061 202.346, 330.500 203.636 M 119.670 215.643 C 119.345 217.647, 118.083 220.347, 116.865 221.643 C 115.283 223.328, 115.060 224, 116.086 224 C 116.875 224, 118.835 225.219, 120.441 226.708 C 122.478 228.597, 123.493 229.021, 123.796 228.111 C 124.036 227.393, 125.616 225.229, 127.308 223.302 L 130.384 219.798 127.942 217.921 C 126.599 216.889, 125.193 216.034, 124.817 216.022 C 124.442 216.010, 123.849 215.100, 123.500 214 C 122.474 210.767, 120.311 211.695, 119.670 215.643 M 420.500 217.608 C 419.400 217.866, 417.496 218.292, 416.268 218.553 C 404.338 221.096, 396.654 246.881, 404.291 258.750 C 407.367 263.532, 408.504 263.786, 417.040 261.604 C 420.043 260.837, 424.525 259.903, 427 259.530 C 433.531 258.544, 439.868 255.998, 440.449 254.125 C 441.376 251.137, 442.821 235.696, 442.300 234.339 C 441.975 233.492, 442.530 233, 443.811 233 C 446.940 233, 449 231.934, 449 230.314 C 449 229.190, 448.230 228.990, 445.750 229.469 L 442.500 230.097 445.250 228.317 C 448.248 226.376, 448.805 225, 446.594 225 C 445.680 225, 445.370 224.300, 445.710 223 C 446.329 220.633, 445.126 220.437, 442.441 222.468 C 439.333 224.819, 438.441 224.224, 440.996 221.504 C 443.523 218.814, 443.086 216.854, 440.448 219.043 C 439.503 219.827, 438.571 219.988, 438.174 219.436 C 437.803 218.921, 436.375 218.455, 435 218.399 C 433.625 218.344, 430.250 218.037, 427.500 217.718 C 424.750 217.399, 421.600 217.349, 420.500 217.608 M 414.517 225.364 C 412.827 226.600, 413.023 226.727, 416.612 226.727 C 429.256 226.727, 438.337 243.765, 430.308 252.424 L 427.616 255.327 431.055 254.639 C 436.384 253.573, 438.302 250.974, 438.796 244.145 C 439.356 236.396, 437.783 231.940, 432.941 227.566 C 429.296 224.272, 428.513 224, 422.688 224 C 418.942 224, 415.625 224.553, 414.517 225.364 M 324.500 232.693 C 322.850 233.580, 320.017 235.431, 318.204 236.806 C 315.713 238.696, 314.626 239.026, 313.754 238.154 C 311.737 236.137, 311.109 236.895, 311.712 240.615 C 312.266 244.029, 312.184 244.169, 310.227 243.122 C 309.087 242.512, 307.256 240.870, 306.157 239.473 C 304.923 237.904, 303.905 237.345, 303.494 238.010 C 302.799 239.135, 303.687 240.596, 307.950 245.335 L 310.500 248.170 306 247.899 C 299.120 247.483, 300.980 252.493, 308.130 253.637 C 311.076 254.108, 312 254.717, 312 256.190 C 312 261.797, 316.684 272.019, 320.946 275.714 C 322.888 277.397, 323.110 277.937, 321.872 277.964 C 320.045 278.004, 317.702 280.369, 318.600 281.267 C 318.920 281.587, 321.279 281.205, 323.841 280.417 C 334.579 277.116, 344.981 274.883, 352.299 274.308 C 358.910 273.789, 359.999 273.453, 359.453 272.098 C 359.099 271.219, 358.447 266.675, 358.005 262 C 356.517 246.285, 351.983 237.583, 342.858 232.928 C 338.144 230.523, 328.760 230.403, 324.500 232.693 M 455.880 235.644 C 454.667 237.106, 454.765 237.209, 456.758 236.577 C 459.740 235.630, 459.593 236.255, 455.826 240.546 C 453.313 243.408, 452.558 245.291, 452.202 249.581 C 451.694 255.699, 452.798 256.520, 455.791 252.250 C 461.878 243.565, 461.960 228.319, 455.880 235.644 M 428.440 237.700 C 433.978 249.061, 419.834 259.622, 410.077 251.411 C 406.515 248.414, 406.425 248.523, 408.672 253.096 C 410.674 257.173, 411.708 257.969, 415 257.969 C 417.037 257.969, 417.222 257.773, 416 256.910 C 414.879 256.118, 415.420 256.002, 418.140 256.450 C 421.223 256.958, 422.447 256.542, 426.140 253.730 C 430.257 250.595, 430.514 250.107, 430.754 244.955 C 430.953 240.668, 430.566 238.965, 428.943 237 L 426.880 234.500 428.440 237.700 M 337.456 238.589 C 345.425 241.507, 349 246.904, 349 256.016 C 349 262.644, 348.137 265.019, 344.191 269.250 C 341.509 272.125, 341.803 272.711, 345.055 270.970 C 348.055 269.365, 349.999 264.596, 350.015 258.800 C 350.024 255.771, 350.373 254.039, 350.829 254.757 C 352.272 257.031, 352.103 264.574, 350.541 267.565 C 349.086 270.353, 349.114 270.517, 351.106 270.833 C 354.646 271.395, 358.472 270.072, 357.145 268.745 C 356.515 268.115, 356 266.051, 356 264.158 C 356 258.921, 352.248 247.448, 349.446 244.119 C 346.547 240.673, 339.446 236.969, 335.934 237.070 C 333.985 237.127, 334.289 237.430, 337.456 238.589 M 271.007 261.990 C 264.557 271.048, 270.284 284.609, 282.236 288.578 C 287.448 290.310, 293.376 289.458, 295.143 286.723 C 296.129 285.198, 293.143 277.432, 290.771 275.351 C 289.060 273.850, 288.770 273.801, 289.238 275.091 C 289.555 275.966, 289.441 277.287, 288.984 278.026 C 287.450 280.508, 284.753 277.143, 285.407 273.564 C 286.210 269.167, 283.136 266, 278.066 266 C 276.930 266, 276 265.550, 276 265 C 276 263.673, 280.611 263.722, 283.141 265.076 C 284.956 266.047, 285.046 265.955, 284.068 264.127 C 281.025 258.442, 274.315 257.344, 271.007 261.990 M 408.500 287.251 C 405.758 291.603, 400.931 294.638, 392.990 297.003 C 380.281 300.788, 359 299.105, 359 294.315 C 359 291.765, 356.292 293.042, 354.451 296.461 C 352.453 300.171, 353.146 302.551, 355.348 299.539 C 356.950 297.348, 356.484 297.162, 367.065 304.193 C 378.910 312.064, 386.961 314.165, 393.376 311.060 C 398.055 308.795, 401.538 304.948, 404.396 298.885 C 406.505 294.410, 409.278 291.364, 412.038 290.488 C 413.375 290.064, 413.935 289.274, 413.572 288.328 C 413.258 287.508, 413 286.198, 413 285.418 C 413 282.963, 410.581 283.949, 408.500 287.251 M 174.350 286.786 C 172.262 290.174, 164.282 292.490, 159.294 291.156 C 149.483 288.532, 141.336 290.541, 134.015 297.389 C 131.448 299.790, 128.385 302.060, 127.209 302.434 C 123.424 303.635, 122.929 315.991, 126.609 317.403 C 129.302 318.437, 129.609 318.090, 129.188 314.486 C 128.835 311.465, 129.564 309.929, 134.385 303.524 C 141.330 294.296, 142.556 293.610, 150.910 294.281 C 154.631 294.580, 158.329 294.359, 159.423 293.773 C 163.483 291.601, 172 299.561, 172 305.529 C 172 306.520, 175.261 304.136, 180.492 299.319 C 185.163 295.019, 188.988 291.163, 188.992 290.750 C 188.996 290.337, 186.105 290, 182.566 290 C 176.427 290, 176.118 289.884, 175.816 287.461 C 175.523 285.107, 175.416 285.058, 174.350 286.786 M 160.254 298.527 C 162.664 300.937, 164.057 305.329, 163.213 307.860 C 162.257 310.730, 146.309 315.837, 141.903 314.685 C 139.825 314.142, 139.554 314.747, 140.912 316.892 C 142.613 319.578, 151.660 317.489, 164.750 311.388 C 170.805 308.566, 170.585 309.067, 167.999 303.998 C 165.528 299.154, 162.245 296, 159.675 296 C 157.897 296, 157.948 296.221, 160.254 298.527 M 290 302.482 C 290 303.939, 289.445 306.114, 288.766 307.316 C 287.604 309.373, 287.501 309.267, 287.003 305.500 L 286.474 301.500 283.674 305.830 C 281.085 309.833, 280.987 310.332, 282.376 312.451 C 285.290 316.898, 291.982 316.069, 294.882 310.902 C 296.171 308.604, 296.122 307.925, 294.412 304.471 C 292.068 299.736, 290 298.804, 290 302.482 M 176.599 307.588 L 170.698 314.199 169.791 324.209 C 168.763 335.566, 168.995 336.286, 172.601 332.921 C 176.388 329.386, 178.438 324.700, 180.949 313.843 C 184.071 300.342, 183.631 299.710, 176.599 307.588 M 163.358 315.772 C 161.833 317.003, 160.930 319.370, 160.221 324 C 159.673 327.575, 158.553 332.908, 157.733 335.851 L 156.241 341.202 159.339 340.582 C 163.852 339.680, 164.356 338.778, 165.128 330.235 C 165.513 325.981, 166.148 320.587, 166.541 318.250 C 167.318 313.631, 166.653 313.114, 163.358 315.772 M 149 320.041 C 145.425 321.044, 140.363 322.163, 137.750 322.526 C 130.792 323.495, 132.147 328.558, 141.588 336.869 C 150.801 344.978, 154.180 343.353, 155.894 329.990 C 156.524 325.080, 157.303 320.374, 157.626 319.531 C 158.353 317.638, 157.351 317.698, 149 320.041 M 112.199 322.986 C 107.615 324.072, 107.445 324.483, 110.133 327.987 C 118.391 338.754, 120.348 340.239, 127.944 341.502 L 132.388 342.241 130.907 339.871 C 128.988 336.798, 126.580 331.200, 127.737 332.500 C 128.227 333.050, 130.507 335.808, 132.805 338.629 C 135.931 342.466, 138.176 344.150, 141.720 345.317 C 146.670 346.947, 148.876 346.629, 145.548 344.767 C 142.010 342.787, 135.533 336.243, 133 332.089 C 131.506 329.638, 129.494 327.753, 128 327.402 C 122.565 326.124, 122 325.797, 122 323.933 C 122 321.809, 118.568 321.478, 112.199 322.986 M 387.500 336.043 C 386.400 336.492, 378.893 336.891, 370.817 336.930 C 356.493 336.998, 356.118 337.055, 355.436 339.250 C 355.052 340.488, 353.895 342.696, 352.866 344.159 L 350.994 346.817 354.247 349.567 C 365.903 359.419, 386.319 359.291, 392.217 349.329 C 393.783 346.683, 393.803 345.997, 392.449 341.497 C 390.674 335.599, 390.110 334.978, 387.500 336.043 M 418.459 337.367 C 413.899 339.490, 408 344.906, 408 346.970 C 408 347.419, 408.788 348.089, 409.750 348.460 C 411.417 349.102, 411.417 349.181, 409.750 350.117 C 406.669 351.846, 407.742 366.204, 411.609 375 C 418.557 390.804, 420.488 392.137, 433.386 390.024 C 440.903 388.794, 440.933 388.745, 437.167 384.058 C 432.825 378.656, 433.192 377.634, 438.541 380.232 C 445.189 383.462, 450.025 379.464, 450.502 370.345 C 450.641 367.680, 450.810 365.332, 450.878 365.128 C 451.251 363.992, 454.372 367.925, 456.090 371.698 C 458.330 376.615, 459.330 376.559, 461.026 371.421 C 462.965 365.545, 461.493 361.423, 454.676 353.635 C 438.570 335.237, 430.661 331.685, 418.459 337.367 M 317 340.696 C 297.833 343.947, 280.786 362.232, 285.005 375.014 C 286.818 380.507, 292.520 387, 295.532 387 L 297.908 387 295.464 381.750 C 292.816 376.062, 292.244 370.998, 294.250 371.004 C 294.938 371.006, 296.361 373.100, 297.413 375.657 C 299.277 380.190, 310.434 393.092, 314.261 395.140 C 315.685 395.902, 316.607 395.760, 317.912 394.580 C 320.386 392.341, 321.134 392.616, 320.411 395.500 C 319.570 398.851, 322.268 398.837, 331.152 395.442 C 340.126 392.013, 343.340 387.415, 345.221 375.319 C 348.844 352.013, 336.873 337.326, 317 340.696 M 397 346.066 C 397 356.597, 380.841 363.626, 366.330 359.407 C 359.226 357.342, 358.550 358.130, 365.032 360.918 C 379.828 367.284, 393.603 363.375, 398.610 351.391 C 400.417 347.065, 402.308 345.894, 401.394 349.666 C 400.238 354.435, 399.279 356.524, 397.604 357.914 C 395.092 359.999, 395.690 360.711, 399.750 360.466 C 403.327 360.250, 403.507 360.071, 403.651 356.583 C 403.734 354.572, 404.075 351.839, 404.408 350.509 C 404.844 348.775, 404.394 347.513, 402.819 346.046 C 399.931 343.355, 397 343.365, 397 346.066 M 345.296 348.750 C 345.587 349.712, 346.814 353.200, 348.023 356.500 C 353.235 370.727, 348.212 391.053, 337.871 397.581 C 334.431 399.753, 334.091 400.301, 335.059 402.110 C 336.956 405.654, 345.691 433.451, 346.405 438.218 C 347.036 442.424, 347.400 442.881, 351.313 444.375 C 371.005 451.896, 398.245 450.296, 414.830 440.646 C 418.825 438.321, 420.004 435.587, 419.989 428.685 C 419.982 425.833, 420.512 417.929, 421.166 411.119 L 422.355 398.738 419.236 396.119 C 415.701 393.150, 412.511 387.471, 409.058 378 C 407.755 374.425, 406.312 371.075, 405.850 370.556 C 404.937 369.528, 402.052 372.167, 400.100 375.813 C 398.457 378.884, 393.275 378.844, 392.031 375.750 C 391.534 374.512, 391.098 374.146, 391.063 374.936 C 391.029 375.725, 390.125 377.302, 389.056 378.440 C 387.222 380.393, 387.199 380.771, 388.643 385.158 C 390.047 389.421, 390.032 390.021, 388.472 392.403 C 386.416 395.541, 383.593 395.958, 384.433 393 C 384.745 391.900, 385.245 390.133, 385.544 389.073 C 385.843 388.014, 385.325 385.426, 384.393 383.323 L 382.698 379.500 381.839 385 C 380.702 392.289, 380.351 393.072, 378.538 392.376 C 376.557 391.616, 376.591 389.613, 378.684 383.773 C 380.578 378.488, 380.071 377.161, 376.748 378.716 C 366.424 383.546, 359.951 383.795, 359.160 379.393 C 358.835 377.583, 358.885 377.586, 360.301 379.460 C 362.505 382.379, 366.113 380.290, 370.375 373.628 C 372.579 370.183, 374.732 367.992, 376.188 367.714 C 378.337 367.303, 378.315 367.263, 375.872 367.136 C 370.482 366.857, 358 360.034, 358 357.367 C 358 356.615, 357.519 356, 356.932 356 C 356.344 356, 353.923 353.975, 351.552 351.500 C 347.103 346.857, 344.359 345.651, 345.296 348.750 M 548.209 355.047 C 543.559 357.112, 540.882 361.529, 541.136 366.718 C 541.252 369.080, 541.338 369.160, 541.706 367.248 C 542.333 363.990, 547.806 360.235, 553.803 358.949 C 556.661 358.336, 559 357.458, 559 356.999 C 559 352.642, 555.179 351.951, 548.209 355.047 M 129.045 360.750 C 134.454 366.726, 138.291 368.902, 149.815 372.530 C 152.738 373.451, 155.357 373.977, 155.635 373.699 C 156.030 373.304, 152.648 365.535, 151.504 364.210 C 150.642 363.212, 127.678 356, 125.361 356 C 125.023 356, 126.680 358.137, 129.045 360.750 M 553.500 363.591 C 551.300 364.401, 548.600 366.012, 547.500 367.171 C 545.675 369.094, 545.660 369.222, 547.335 368.638 C 548.344 368.286, 551.719 367.788, 554.835 367.531 C 557.951 367.275, 559.600 367.313, 558.500 367.617 C 549.641 370.064, 541.184 374.276, 539.430 377.114 C 539.023 377.771, 539.098 378.090, 539.595 377.823 C 547.817 373.402, 559.803 371.934, 563.388 374.908 C 565.822 376.927, 566.978 375.191, 566.340 370.471 C 565.348 363.126, 561.038 360.817, 553.500 363.591 M 531.500 369.672 C 526.796 370.707, 523.946 372.394, 523.550 374.377 C 523.317 375.544, 522.861 378.454, 522.536 380.842 C 522.212 383.230, 521.059 386.924, 519.974 389.052 C 515.694 397.440, 519.557 407.076, 527.820 408.626 C 533.284 409.651, 534 407.841, 534 393.009 C 534 385.697, 534.432 379.968, 535.029 379.371 C 535.735 378.665, 535.582 377.423, 534.542 375.421 C 533.708 373.814, 533.275 371.712, 533.580 370.750 C 533.885 369.788, 533.992 369.052, 533.817 369.116 C 533.643 369.180, 532.600 369.430, 531.500 369.672 M 177.500 372.496 C 175.850 373.249, 172.363 374.443, 169.752 375.150 C 164.217 376.649, 164.193 376.099, 170.341 388.977 C 172.569 393.642, 174.332 398.247, 174.259 399.210 C 174.187 400.173, 174.493 401.187, 174.941 401.464 C 175.389 401.740, 175.946 396.686, 176.180 390.233 C 176.600 378.656, 177.824 374.388, 181.477 371.765 C 183.158 370.558, 180.799 370.992, 177.500 372.496 M 453.100 377.225 C 449.777 384.997, 436.670 394.972, 429.750 394.994 C 427.245 395.002, 427.589 396.532, 430.635 398.927 C 435.391 402.669, 445.455 400.800, 448.157 395.674 C 448.787 394.478, 451.259 391.475, 453.651 389 C 458.438 384.045, 458.620 383.232, 456.176 377.725 L 454.500 373.949 453.100 377.225 M 551 376.130 C 546.328 377.445, 539.894 381.984, 538.922 384.651 C 538.152 386.762, 538.280 386.792, 545.993 386.263 C 550.647 385.944, 555.779 386.211, 558.584 386.917 C 565.019 388.537, 566.845 386.980, 564.881 381.547 C 564.150 379.526, 563.091 377.492, 562.526 377.026 C 560.768 375.575, 554.660 375.100, 551 376.130 M 607.750 387.308 C 602.148 393.285, 601.855 395.643, 606.190 399.881 C 610.454 404.050, 613.294 403.872, 617.978 399.140 L 621.800 395.280 618.782 390.640 C 617.122 388.088, 615.367 386, 614.882 386 C 614.397 386, 614 385.100, 614 384 C 614 381.132, 613.086 381.615, 607.750 387.308 M 235.116 384.750 C 235.249 385.712, 234.785 389.133, 234.086 392.352 C 232.572 399.325, 233.260 403.868, 236.642 409.225 C 239.896 414.380, 240.591 413.544, 238.025 407.559 C 234.672 399.736, 236.138 389.602, 240.998 387.001 C 244.534 385.109, 243.448 383, 238.937 383 C 235.642 383, 234.920 383.331, 235.116 384.750 M 511.500 389.376 C 509.850 390.090, 504 391.673, 498.500 392.893 C 475.981 397.890, 472 399.403, 472 402.964 C 472 404.019, 471.597 405.131, 471.105 405.435 C 470.007 406.114, 469 403.687, 469 400.360 C 469 398.786, 467.359 396.174, 464.497 393.192 L 459.994 388.500 453.627 395.247 C 450.124 398.958, 445.626 402.676, 443.630 403.510 C 441.633 404.344, 440 405.387, 440 405.826 C 440 407.307, 452.617 419.163, 457.580 422.345 C 465.826 427.633, 483.326 426.816, 497.502 420.483 C 499.153 419.745, 502.528 418.265, 505.002 417.193 C 507.476 416.121, 512.067 414.060, 515.204 412.614 L 520.907 409.984 517.830 405.034 C 515.075 400.602, 514.799 399.453, 515.191 394.042 C 515.431 390.719, 515.374 388.018, 515.064 388.039 C 514.754 388.061, 513.150 388.662, 511.500 389.376 M 607.540 390.740 C 604.536 393.980, 604.407 395.709, 606.944 398.750 C 609.491 401.803, 613.353 401.638, 615.927 398.365 C 618.537 395.048, 618.545 392.963, 615.961 390.189 C 613.232 387.259, 610.609 387.431, 607.540 390.740 M 149 390.237 C 147.625 390.843, 145.026 391.994, 143.224 392.795 C 141.423 393.597, 136.923 395.045, 133.224 396.015 L 126.500 397.777 131.243 398.501 C 139.475 399.757, 149.189 396.252, 151.992 391.015 C 153.195 388.768, 152.654 388.627, 149 390.237 M 546.882 389.750 C 546.816 390.163, 546.816 390.837, 546.882 391.250 C 546.947 391.663, 545.705 392, 544.122 392 C 539.094 392, 539.216 391.544, 535.445 424.500 C 531.415 459.725, 529.387 483.411, 530.993 476.500 C 533.359 466.319, 539.395 424.651, 541.680 402.727 C 542.325 396.539, 543.797 395.865, 548.210 399.737 C 550.497 401.744, 554.077 400.749, 558.482 396.882 C 562.658 393.215, 562.922 391.301, 559.435 389.975 C 556.422 388.830, 547.053 388.662, 546.882 389.750 M 299.021 391.116 C 294.194 393.042, 292.739 395.054, 294.647 397.162 C 295.562 398.173, 296.803 399.007, 297.405 399.016 C 298.007 399.024, 300.514 400.795, 302.975 402.951 C 307.706 407.095, 314.656 411, 317.301 411 C 318.170 411, 319.160 411.450, 319.500 412 C 319.840 412.550, 321.597 413, 323.404 413 C 327.657 413, 330.267 410.111, 330.398 405.258 L 330.500 401.500 324.259 401.371 C 317.556 401.233, 315.801 400.427, 307.861 393.845 C 302.845 389.687, 302.708 389.645, 299.021 391.116 M 295.659 404.750 C 295.406 405.163, 293.720 408.200, 291.913 411.500 C 290.106 414.800, 286.461 420.820, 283.813 424.878 C 278.190 433.498, 278.296 432.990, 281.500 436 C 283.944 438.296, 284.839 441, 283.155 441 C 282.690 441, 281.515 440.121, 280.543 439.048 C 278.308 436.578, 269.372 434.686, 262.657 435.261 C 255.529 435.871, 227.529 433.248, 223.587 431.601 L 220.357 430.251 219.046 436.158 C 218.326 439.406, 216.445 443.846, 214.868 446.023 C 211.382 450.836, 211.369 451, 214.477 451 C 216.626 451, 226.367 454.191, 232.500 456.904 C 241.855 461.042, 255.853 463.998, 266.095 463.999 C 285.467 464.001, 296.258 455.462, 313.785 426.260 L 319.931 416.021 317.216 415.370 C 313.434 414.464, 309.449 412.398, 302.761 407.878 C 296.605 403.718, 296.358 403.609, 295.659 404.750 M 186 406.351 C 186 409.833, 188.491 413.788, 192.587 416.809 C 196.807 419.922, 203 427.265, 203 429.156 C 203 429.627, 201.132 428.660, 198.850 427.006 C 192.464 422.380, 191 423.166, 191 431.216 C 191 441.868, 194.047 444.988, 200.533 440.980 C 204.837 438.319, 205.214 437.219, 205.721 425.800 L 206.153 416.100 201.826 411.780 C 196.412 406.373, 186 402.801, 186 406.351 M 172.144 406.746 C 164.418 407.059, 163.827 407.232, 164.301 409.044 C 164.583 410.121, 164.405 410.751, 163.907 410.442 C 163.408 410.134, 163 411.682, 163 413.882 C 163 416.082, 163.468 418.171, 164.040 418.525 C 165.762 419.589, 179.376 416.869, 180.582 415.219 C 181.389 414.116, 181.893 414.018, 182.416 414.865 C 182.813 415.507, 183.480 415.822, 183.897 415.564 C 184.999 414.883, 182.736 405.962, 181.523 406.204 C 180.960 406.315, 176.740 406.559, 172.144 406.746 M 155.340 411.859 C 144.299 420.496, 144.061 421.380, 152.074 424.024 C 158.514 426.150, 160.047 424.015, 160.123 412.817 C 160.129 411.891, 160.779 410.598, 161.567 409.944 C 163.096 408.675, 163.491 406.987, 162.250 407.020 C 161.838 407.031, 158.728 409.208, 155.340 411.859 M 163.015 423.892 C 163.049 429.635, 164.683 429.914, 176.750 426.235 C 180.412 425.119, 182 424.118, 182 422.925 C 182 421.430, 180.808 421.220, 172.500 421.250 L 163 421.285 163.015 423.892 M 417.500 444.004 C 410.022 448.966, 390.831 454.001, 379.400 453.999 C 369.124 453.998, 357.485 451.157, 347.256 446.153 C 341.857 443.513, 339.019 444.002, 340.304 447.351 C 341.247 449.806, 354.665 457.176, 361.792 459.152 C 375.927 463.071, 396.705 460.794, 410.500 453.814 C 419.449 449.286, 422 447.204, 422 444.432 C 422 441.488, 421.380 441.429, 417.500 444.004 M 425.678 445.656 C 424.001 447.332, 425.519 449.080, 432.750 453.802 C 446.096 462.517, 464.659 481.376, 466.412 488 C 466.998 490.211, 466.753 490.095, 464.297 487 C 456.244 476.849, 439.273 461.880, 428.235 455.191 C 422.094 451.469, 421.318 451.386, 418.053 454.103 L 415.605 456.140 419.053 458.757 C 428.397 465.849, 449.885 492.846, 448.793 496.122 C 448.575 496.775, 446.620 494.877, 444.449 491.904 C 432.385 475.393, 415.346 458, 411.234 458 C 408.755 458, 406.412 460.518, 407.985 461.491 C 410.498 463.044, 422.048 479.484, 420.896 479.868 C 420.224 480.092, 419.064 479.426, 418.319 478.388 C 415.897 475.016, 410.583 468.590, 406.928 464.614 C 403.416 460.793, 403.293 460.748, 399.609 461.964 C 396.735 462.913, 396.020 463.584, 396.539 464.850 C 396.910 465.758, 400.280 474.600, 404.027 484.500 C 407.773 494.400, 411.148 503.288, 411.526 504.250 C 411.937 505.295, 411.755 506, 411.075 506 C 409.919 506, 405.767 497.608, 402.417 488.500 C 401.405 485.750, 400 482.375, 399.295 481 C 398.589 479.625, 398.010 477.989, 398.006 477.364 C 398.003 476.740, 397.328 474.940, 396.506 473.364 C 395.685 471.789, 394.995 469.825, 394.974 469 C 394.911 466.510, 392.420 464, 390.012 464 C 387.245 464, 387.621 468.142, 391.421 479.500 C 392.709 483.350, 395.439 491.900, 397.487 498.500 C 399.536 505.100, 402.250 513.425, 403.520 517 C 404.789 520.575, 406.800 526.875, 407.988 531 C 409.177 535.125, 410.532 539.625, 411 541 C 411.468 542.375, 412.818 546.875, 414 551 C 415.182 555.125, 416.542 559.625, 417.022 561 C 417.503 562.375, 418.402 565.300, 419.021 567.500 C 419.639 569.700, 420.822 573.750, 421.650 576.500 C 423.085 581.272, 423.853 584.223, 427.500 599 C 431.023 613.275, 432.081 618.018, 434.523 630.500 C 435.922 637.650, 437.492 645.300, 438.013 647.500 C 438.534 649.700, 439.462 654.200, 440.076 657.500 C 440.690 660.800, 441.579 665.300, 442.053 667.500 C 443.202 672.844, 443.239 678.657, 442.117 677.450 C 441.631 676.927, 440.689 673.575, 440.023 670 C 438.502 661.829, 436.678 652.770, 434.484 642.500 C 433.545 638.100, 432.198 631.575, 431.491 628 C 428.337 612.054, 427.732 609.291, 425.823 602.112 C 424.710 597.925, 423.216 592.025, 422.503 589 C 420.780 581.686, 416.043 565.010, 414.976 562.500 C 414.508 561.400, 413.838 559.375, 413.486 558 C 413.135 556.625, 411.808 552.125, 410.537 548 C 409.267 543.875, 407.252 537.125, 406.061 533 C 404.870 528.875, 403.526 524.810, 403.075 523.967 C 402.623 523.124, 401.920 520.874, 401.512 518.967 C 401.103 517.060, 400.458 515.050, 400.078 514.500 C 399.698 513.950, 398.349 510.125, 397.080 506 C 395.811 501.875, 392.852 492.650, 390.503 485.500 C 388.155 478.350, 385.826 470.925, 385.329 469 C 384.613 466.228, 383.928 465.500, 382.035 465.500 C 379.376 465.500, 378.908 466.602, 376.514 478.500 C 373.817 491.907, 373.035 495.115, 372.051 496.802 C 371.161 498.329, 371.058 498.298, 371.036 496.500 C 371 493.548, 375.043 472.033, 376.532 467.250 C 377.167 465.212, 376.904 465, 373.731 465 C 369.805 465, 368.644 466.692, 365.495 477 C 364.571 480.025, 363.443 483.625, 362.989 485 C 362.535 486.375, 361.266 491.775, 360.169 497 C 359.073 502.225, 357.648 508.975, 357.003 512 C 356.358 515.025, 355.579 525.263, 355.270 534.750 C 354.962 544.237, 354.358 552, 353.927 552 C 350.121 552, 352.971 508.115, 357.953 490 C 360.892 479.311, 363.397 471.466, 364.612 469.136 C 367.068 464.430, 365.977 463, 359.935 463 C 357.555 463, 356.116 464.167, 351.926 469.500 C 349.116 473.075, 346.645 476, 346.433 476 C 345.463 476, 348.417 470.200, 351.588 465.880 L 355.096 461.101 351.998 459.499 C 350.294 458.618, 348.008 458.180, 346.918 458.526 C 341.851 460.134, 325.391 478.751, 313.531 496.286 C 308.744 503.364, 306.454 505.565, 307.938 501.663 C 311.900 491.242, 334.134 462.889, 342.795 457.215 C 344.564 456.055, 344.807 455.493, 343.810 454.861 C 340.190 452.565, 334.559 455.641, 323.500 465.953 C 316.750 472.248, 315 473.516, 315 472.116 C 315 470.487, 327.804 457.820, 332.778 454.528 C 336.304 452.195, 338.167 450, 336.622 450 C 328.926 450, 302.432 474.868, 284.418 499 C 261.836 529.252, 251.244 546.706, 233.140 583.500 C 220.479 609.229, 220.395 609.422, 216.934 620.294 C 215.322 625.357, 213.574 630.400, 213.049 631.500 C 211.204 635.367, 204.015 657.775, 202.590 664.102 C 201.797 667.621, 200.846 671.479, 200.477 672.676 C 199.926 674.461, 200.538 675.314, 203.883 677.426 C 206.125 678.842, 208.239 680, 208.579 680 C 208.919 680, 210.616 680.640, 212.349 681.422 C 219.681 684.730, 227.814 686.258, 239.500 686.523 C 250.617 686.775, 251.905 687.012, 257 689.749 C 260.025 691.375, 266.550 694.167, 271.500 695.956 C 276.450 697.744, 281.400 699.613, 282.500 700.108 C 288.969 703.021, 337.582 705.583, 367 704.562 C 397.543 703.501, 446.403 693.373, 454.488 686.426 C 456.114 685.029, 459.084 683.927, 462.305 683.527 C 469.822 682.594, 481.796 680.063, 487 678.307 C 500.732 673.674, 515.361 666.134, 525.759 658.331 L 529.017 655.885 526.665 651.693 C 525.371 649.387, 523.808 645.700, 523.190 643.500 C 522.148 639.783, 520.122 633.027, 511.943 606 C 507.368 590.880, 503.032 577.770, 501.943 575.764 C 501.424 574.809, 501 573.556, 501 572.979 C 501 571.864, 493.128 551.540, 489.776 544 C 481.421 525.208, 469.492 502.769, 465.184 497.744 C 464.356 496.778, 463.976 495.690, 464.339 495.327 C 464.703 494.964, 465.138 494.854, 465.307 495.083 C 465.476 495.313, 466.974 497.300, 468.636 499.500 C 479.186 513.463, 494.875 545.857, 504.475 573.500 C 505.430 576.250, 506.573 579.400, 507.014 580.500 C 508.006 582.971, 517.719 614.478, 521.966 629 C 528.404 651.014, 528.176 650.514, 531.705 650.357 C 535.684 650.180, 550.397 643.110, 554.681 639.317 L 557.861 636.500 554.741 630 C 539.782 598.833, 539.495 598.112, 541.761 597.325 C 547.101 595.470, 557.959 590.750, 559.529 589.602 C 561.236 588.354, 560.816 587.379, 552.998 574.437 C 537.003 547.957, 516.265 519.201, 497.593 497.611 C 479.094 476.220, 430.337 440.996, 425.678 445.656 M 243.125 488.625 L 239.865 493.250 242.620 496.125 C 245.936 499.586, 247.981 499.745, 250.677 496.750 C 254.197 492.840, 254.213 492.148, 250.886 488.008 C 246.894 483.040, 247.071 483.026, 243.125 488.625 M 293.636 510.774 C 283.428 527.716, 274.713 547.871, 267.160 572 C 260.081 594.619, 258.956 599.373, 261.248 597 C 262.045 596.175, 263.496 592.800, 264.473 589.500 C 270.424 569.404, 276.547 552.891, 284.508 535.465 C 291.107 521.018, 292.307 518.583, 297.176 509.748 C 302.346 500.367, 302.493 500, 301.064 500 C 300.549 500, 297.206 504.848, 293.636 510.774 M 205.492 629.655 C 189.985 653.926, 188.014 657.214, 188.502 658.003 C 190.026 660.469, 197.027 665.067, 197.381 663.834 C 197.592 663.100, 198.314 660.475, 198.985 658 C 200.753 651.488, 202.696 645.950, 207.704 633.155 C 210.146 626.916, 211.919 621.586, 211.644 621.311 C 211.369 621.036, 208.601 624.791, 205.492 629.655 M 283 709.498 C 283 713.885, 291.708 716.931, 298.132 714.790 C 305.443 712.354, 304.551 710, 296.317 710 C 292.560 710, 288.027 709.581, 286.243 709.070 C 283.720 708.346, 283 708.441, 283 709.498 M 277.513 713.622 C 276.681 715.614, 276 717.854, 276 718.599 C 276 724.683, 299.898 725.893, 310.551 720.348 C 315.931 717.547, 319.003 709.988, 314.750 710.014 C 311.088 710.036, 308 711.147, 308 712.442 C 308 714.914, 303.221 718.085, 298.396 718.816 C 288.551 720.308, 281 717.283, 281 711.847 C 281 708.802, 279.129 709.755, 277.513 713.622 M 380.001 710.895 C 377.523 711.584, 377.535 711.612, 381.483 714.295 C 386.156 717.470, 392.324 717.889, 397.593 715.389 L 400.988 713.778 398.586 711.889 C 396.083 709.920, 385.532 709.356, 380.001 710.895 M 360.021 711.750 C 360.049 712.779, 377.140 720.792, 384.495 723.225 C 389.543 724.895, 391.280 725.043, 395.495 724.162 C 398.248 723.587, 402.413 722.825, 404.750 722.470 C 409.467 721.753, 409.874 721.101, 407.143 718.629 C 405.399 717.052, 404.996 717.073, 400.555 718.977 C 391.188 722.992, 388.682 722.828, 382.229 717.783 C 379.078 715.319, 375.517 712.785, 374.316 712.152 C 371.914 710.885, 359.988 710.550, 360.021 711.750 M 357.014 716.747 C 357.059 722.532, 359.048 724.265, 371.125 729.037 C 381.051 732.960, 404.796 732.937, 410 728.999 C 413.361 726.457, 411.646 724.424, 407.478 726.008 C 396.825 730.059, 382.216 727.897, 366.750 719.983 C 358.702 715.865, 357.002 715.300, 357.014 716.747 M 308.500 724.845 C 302.199 728.085, 285.279 728.502, 278.642 725.581 C 274.030 723.551, 273.027 724.175, 275.062 727.807 C 280.628 737.742, 315 734.746, 315 724.326 C 315 721.553, 314.884 721.562, 308.500 724.845" stroke="none" fill="#1b1f3a" fill-rule="evenodd"/>
</svg>