<svg xmlns="http://www.w3.org/2000/svg" viewBox="0 0 768 768" version="1.1" preserveAspectRatio="xMidYMid meet"><path d="M 604.9 34.8 C 604.9 35.2, 604.7 42.7, 604.6 51.5 C 604 85.8, 604.2 83.7, 601.8 85.9 C 600.2 87.5, 600 88.2, 600.8 89.3 C 601.7 90.3, 601.6 91, 600.7 91.9 C 599.8 92.9, 599.8 93.3, 601.1 94 C 602.3 94.7, 602.5 95.9, 601.9 99.7 C 600 112.5, 595.5 132, 590.5 149 C 589.6 152, 588.3 156.8, 587.5 159.5 C 583.4 174.4, 577.6 186.5, 572.1 191.4 C 570.9 192.5, 570 194.5, 570 196.2 C 570 199, 570.1 199, 575.8 199 C 578.9 199, 582.5 199.3, 583.8 199.6 C 585.4 200.1, 586 199.8, 586 198.6 C 586 197.4, 587 197, 589.7 197 C 593.1 197, 593.2 197.1, 591.7 198.8 C 590.7 199.8, 590 201.5, 590 202.5 C 590 204.3, 589.9 204.3, 588.5 202.4 C 587.1 200.5, 587.1 200.5, 587 202.6 C 587 203.8, 587.7 205.3, 588.5 206 C 589.7 207, 590 207, 590 205.9 C 590 205.1, 590.6 205.4, 591.5 206.6 C 592.9 208.5, 592.9 208.5, 593 206.5 C 593 204.4, 594.7 202, 596.2 202 C 596.6 202, 597 202.6, 597 203.4 C 597 204.2, 597.5 205.2, 598 205.5 C 598.6 205.9, 599 204.5, 599 201.9 C 599 198.3, 598.8 197.9, 597.5 199 C 596.3 200, 595.6 200, 594.8 199.2 C 593.3 197.7, 593.8 197.3, 598 196.8 L 601.5 196.5 601.8 201.3 C 602.2 207.2, 604 206.5, 604 200.4 C 604 195.7, 604.7 195.3, 609.8 196.6 C 612.2 197.3, 611.1 200, 608.4 200 C 606.5 200, 605.6 202, 606.9 203.3 C 607.7 204.1, 608 203.9, 608 202.6 C 608 201.1, 608.3 201, 609.5 202 C 610.3 202.7, 611 203.9, 611 204.6 C 611 207.7, 612.9 205.7, 613.7 201.8 C 614.5 197.6, 614.7 197.5, 618.9 197.2 C 623.2 196.9, 623.2 196.9, 621.6 199.2 C 619.8 201.7, 619.4 208, 621 208 C 621.6 208, 622 207.1, 622 205.9 C 622 203.8, 622 203.8, 624 206.1 C 625.8 208.3, 625.9 208.3, 626 206.6 C 626 205.5, 626.3 205, 626.6 205.3 C 627 205.7, 627.2 212.2, 627.1 219.9 C 626.8 236.2, 627.7 240.4, 632.5 245.3 C 634.4 247.3, 636 249.8, 636 250.9 C 636 252.9, 635.9 252.9, 632.3 250.7 C 628.8 248.7, 626.9 248.5, 611 248.2 C 601.4 248, 590.5 248.2, 586.8 248.7 C 580.3 249.6, 580 249.6, 580 247.6 C 580 246.4, 578.9 241.2, 577.5 236 C 574.9 226, 573.9 206, 576 206 C 576.6 206, 577 205.2, 577 204.3 C 577 202.8, 577.2 202.7, 578 204 C 579.1 205.8, 580.5 204.7, 579.7 202.6 C 579.3 201.7, 578.3 201.4, 577.1 201.7 C 575.9 202, 575 201.8, 575 201.1 C 575 200.5, 574.3 200, 573.5 200 C 572 200, 571.6 202.3, 572 208.5 C 572.3 212.6, 571.7 211.7, 568.2 203 C 563.8 191.8, 560.5 181.6, 558 171.5 C 556.9 166.6, 555.5 161.4, 555 160 C 552.7 153.4, 552.8 152, 555.4 152 C 559.3 152, 559.4 150.5, 556 143.2 C 550.4 131.4, 548.5 125.3, 547.5 117 C 547.1 114, 546.5 110.4, 546 109 C 545.5 107.6, 544.9 104, 544.6 100.9 L 544 95.3 548.9 97.8 C 551.7 99.1, 554.4 99.9, 555 99.5 C 556.7 98.5, 554.2 96, 549.4 93.8 C 544.2 91.6, 543.8 90, 544.1 76 L 544.4 65.5 541.8 65.2 C 539.2 64.9, 539.1 65.1, 539.2 69.9 C 539.2 79.9, 537.8 92.1, 536.3 93.6 C 535.5 94.3, 533.7 95, 532.3 95 C 530.8 95, 530 95.5, 530.3 96.3 C 530.5 97, 532.2 97.4, 534.2 97.3 L 537.7 97.1 537.3 101.8 C 537.1 104.4, 536.3 108.5, 535.5 111 C 534.8 113.5, 533.9 117.5, 533.5 120 C 532.7 124.9, 527.3 141.9, 526 143.5 C 525.5 144.1, 524.9 146.2, 524.5 148.2 C 523.8 151.6, 524 152.1, 526.4 153 C 528.6 153.8, 528.9 154.4, 528.4 156.7 C 526.2 166.5, 523.8 175.9, 523.1 178.5 C 522.6 180.2, 521.9 183.1, 521.5 185 C 521.1 186.9, 520.4 189.9, 519.9 191.5 C 519.5 193.2, 518.1 197.9, 517 202 C 515.8 206.1, 514.5 210.6, 514 212 C 513.6 213.4, 511.5 219.9, 509.5 226.5 C 507.5 233.1, 504.7 241.4, 503.4 245 C 502.1 248.6, 501 253.6, 501 256 C 501 262.5, 488.9 286.9, 481.5 295.4 C 477.1 300.5, 480 304.9, 484.9 300.6 C 485.8 299.9, 487.6 298.9, 489 298.6 L 491.5 297.9 489.2 299.9 C 487.7 301.2, 487.2 302.4, 487.7 303.7 C 488.7 306.5, 491.1 308.9, 492.4 308.4 C 493.1 308.1, 495 308.6, 496.6 309.5 C 498.2 310.3, 500.3 311, 501.3 311 C 502.3 311, 503 311.7, 503 312.8 C 503 314.2, 502 314.5, 497.1 314.7 C 488.3 315, 481.4 318.5, 481.8 322.5 C 481.9 324.2, 482.3 334.1, 482.6 344.5 C 483.2 365.2, 483.6 366.8, 488.9 369 L 492 370.2 491.4 381.9 C 491.1 388.3, 490.4 394.4, 489.9 395.5 C 489.4 396.6, 488.5 399.5, 488 402 C 487.4 404.5, 486.2 409.2, 485.4 412.5 C 483 422.7, 481.9 429.1, 482.3 430.3 C 482.8 431.7, 485.6 423.3, 487.5 414.5 C 488.3 411.2, 489.5 405.8, 490.3 402.5 L 491.6 396.5 492.4 404.5 C 493.2 413.3, 495.7 443.4, 495.6 443.6 C 495.5 443.7, 491.8 444, 487.2 444.3 L 478.9 444.8 479.5 441.2 L 480 437.5 479 440.7 C 478.4 442.5, 477.5 444.2, 477 444.5 C 475 445.8, 475.8 461.5, 478 463.5 C 479.1 464.5, 480 465.8, 480 466.5 C 480 468.6, 483 473.8, 484.5 474.4 C 485.8 474.9, 486 477.1, 485.4 489.9 L 484.7 504.9 494.1 504.9 C 504.9 504.9, 507.6 504.4, 506.1 502.6 C 505.6 502, 504.9 494.1, 504.7 485.1 C 504.3 467.1, 504.1 466.6, 498.1 467.4 C 492.5 468.3, 492.3 468.9, 493 485.5 C 493.7 501.7, 493.6 502.4, 489.7 501.5 C 487 500.8, 487 500.6, 488.4 478.8 C 488.6 475.6, 488.4 473.2, 488 473.5 C 487.2 474, 481 465.5, 481 463.9 C 481 462, 494.4 460.9, 507 461.8 L 517.5 462.5 518.1 466.5 C 518.6 469.4, 518.8 469.8, 518.9 467.8 C 519 464.3, 521 456, 522.1 453.8 C 522.6 452.8, 523 451.5, 523 450.8 C 523 450.1, 523.6 448.4, 524.3 447 C 529.4 437.2, 532 416.6, 532 385.5 L 532 363.3 537.3 362.6 C 544 361.8, 584.9 361.8, 591.6 362.6 L 596.7 363.2 596.9 419.9 C 597.3 550.3, 597.8 609.9, 598.5 616.6 C 598.9 620.7, 598.7 627.4, 598 632.8 C 596.6 643.8, 597.7 647, 603.1 647 L 606.1 647 605.8 654.6 L 605.5 662.2 591 662.3 L 576.5 662.5 576.5 660.1 C 576.5 658.8, 575.9 657.5, 575.3 657.3 C 574.4 657, 574 657.9, 574 659.9 L 574 663 545.5 663 L 517 663 517 660.6 C 517 659.4, 517.3 655.5, 517.6 652.2 L 518.3 646.1 523.3 645.8 C 530.4 645.4, 530.4 643.4, 523.3 643.5 L 517.5 643.5 517.9 568.5 C 518.1 527.3, 518.4 493.3, 518.6 493.1 C 518.8 492.9, 533.6 492.7, 551.5 492.6 C 577.2 492.5, 584 492.2, 584 491.2 C 584 490.5, 583.3 489.7, 582.5 489.4 C 581.7 489, 581.2 488.5, 581.4 488.1 C 581.7 487.5, 580.3 475.6, 578 459.5 C 576.5 448.9, 571.4 438.5, 561.1 424.8 C 556.6 418.8, 552.6 414, 552.2 414 C 551.8 414, 549.2 417.7, 546.5 422.1 C 534.2 442.2, 534 442.7, 529 462.8 C 526.1 474.4, 524.6 477.1, 519.6 479.7 L 516.7 481.2 517.3 478 C 518.1 474.1, 516.1 475.8, 514.3 480.5 C 511.8 487, 511.6 492.2, 513.8 493.9 C 515.6 495.3, 515.7 496.1, 515 500.5 C 514.5 503.3, 514.1 510.1, 514.1 515.7 C 514 521.3, 513.7 526.1, 513.3 526.3 C 511.7 527.1, 506 524.9, 506 523.5 C 506 522.5, 504.9 522, 502.5 522 C 498 522, 495.8 525.9, 495.2 535.6 C 494.7 543.4, 495.2 544, 502.3 544 C 505.3 544, 505.2 544.2, 505 535.2 L 504.9 528.9 509.2 529.2 L 513.5 529.5 514 545.8 C 514.3 554.8, 514.3 562.4, 514.1 562.6 C 513.9 562.8, 507.2 563, 499.3 563 L 485 563 484.9 559.8 C 484.3 543.8, 483.2 528.2, 482.6 526.8 C 482.1 525.6, 482.2 525, 482.9 525 C 483.5 525, 484.5 526.1, 485 527.5 C 485.8 529.5, 486.6 530, 489.5 530 C 493.7 530, 494 528.6, 490.6 524.7 C 489.3 523.2, 487.9 520, 487.6 517.5 C 486.6 511.2, 484.8 510.5, 485.1 516.6 L 485.4 521.5 482.2 521.2 C 478.5 520.8, 475.8 522.4, 476.6 524.5 C 477 525.4, 476.6 525.7, 475.2 525.3 C 473.7 525, 473.1 523.8, 472.8 520.9 C 472.5 517.2, 472.6 517, 475.2 517 C 479.2 517, 478.8 515.4, 472.7 505.3 C 467.5 496.8, 463.2 487.4, 460.3 478 C 458.3 471.9, 452.3 447.5, 451.5 442.5 C 451.2 440.3, 450.4 436.5, 449.9 434 C 443.9 405, 443.8 404, 448.5 404 C 450.4 404, 452 403.6, 452 403 C 452 402.5, 450.7 402, 449 402 C 446.8 402, 445.6 401.3, 444.5 399.3 L 442.9 396.5 443.4 399.8 C 443.7 401.7, 443.5 403, 442.9 403 C 442.2 403, 442.1 400.8, 442.5 396.5 C 443.2 390.5, 443.1 390, 441.3 390 C 439.5 390, 439.3 390.7, 439.4 396.1 C 439.5 401.4, 439.2 402.3, 437 404 C 435 405.6, 434.8 406, 436.3 406 C 437.6 406, 438 406.9, 438 410.3 C 437.9 418.6, 428.5 458.4, 424 469.5 C 423.6 470.6, 422.2 474.4, 421 478 C 417.9 487.1, 416.5 490.3, 411.4 500.2 C 409 505, 407 509.7, 407 510.8 C 407 512, 405.6 513.6, 403.4 514.9 C 399.8 517, 398 516.9, 398 514.6 C 398 513.7, 396.1 513.4, 391.3 513.4 C 386.9 513.5, 384.6 513.1, 384.3 512.3 C 383.9 511.3, 385.6 511, 390.7 511 C 398.5 511, 400 510.1, 400 505.4 C 400 503.6, 400.4 501.9, 401 501.5 C 401.5 501.2, 401.2 499.6, 400.1 497.7 C 396.9 491.9, 393.8 476.3, 392 456.5 C 390.5 440.3, 390.7 437, 392.9 437 C 395.5 437, 396.7 435.2, 398 429.5 C 398.6 426.7, 399.9 424, 401.1 423.2 C 403.5 421.6, 403.4 420.7, 400.2 407 C 399.1 402.3, 397.9 395.7, 397.5 392.2 C 396.5 383, 395.6 383.9, 393.6 396.8 C 391 413.1, 390.4 414.2, 388.2 406.8 C 387.5 404.4, 386.3 400.3, 385.4 397.5 C 384.6 394.8, 383.3 389.6, 382.4 386 C 380.7 378.6, 379.1 371.9, 376.2 360.5 C 371.6 342.2, 371.1 339.4, 368.3 318.3 L 367.8 314 372 314 C 374.5 314, 375.9 313.6, 375.5 313 C 375.2 312.5, 373.8 312, 372.5 312 C 367.9 312, 367 311.1, 367 306 C 367 303.3, 366.6 300.8, 366 300.5 C 365.5 300.2, 365 300.6, 365 301.4 C 365 302.3, 364.4 303, 363.6 303 C 361.8 303, 360.7 305.9, 362.3 306.5 C 363.3 307, 363.8 318.4, 363 322.5 C 362.9 323.1, 362.9 324.5, 362.9 325.6 C 363 326.8, 362.2 331.8, 361 336.6 C 359.9 341.5, 357.6 351.1, 355.9 358 C 354.3 364.9, 352.6 371.9, 352.1 373.5 C 351.6 375.2, 350.2 380.1, 349 384.5 C 347.9 388.9, 346.5 393.4, 346 394.5 C 345.5 395.6, 343.4 400.8, 341.4 406 C 338.2 414.5, 334.8 420.1, 333.6 418.9 C 333.4 418.7, 330.6 414, 327.5 408.5 C 313.5 384.1, 302.4 369.2, 286.8 353.9 C 275 342.3, 274.8 341.9, 276.6 330.9 C 277.1 327.7, 277.5 327.4, 280 327.8 C 285.5 328.6, 287 326.7, 287 319.2 L 287 312.5 293.2 309.5 C 296.6 307.9, 303.6 303.5, 308.9 299.8 C 314.1 296.1, 318.9 293, 319.5 293 C 320.2 293, 324.4 288.6, 328.9 283.3 C 339.4 270.9, 339 271.4, 342.7 265.3 C 345.6 260.6, 346.7 258.3, 352.1 246.5 C 353.1 244.3, 354.8 240.9, 355.9 239 C 357 237.1, 358.5 234.2, 359.3 232.5 C 360 230.9, 362.1 227, 363.8 223.8 C 367.8 216.6, 369.4 210.6, 368.1 208.2 C 367.5 207.3, 367 206.9, 367 207.4 C 367 208, 366.1 207.4, 365 206.2 C 361.2 202.2, 358.1 204.3, 353.5 214.2 C 350.9 219.7, 349 220.9, 349 217.1 C 349 213.1, 343.6 211.6, 340.7 214.8 C 338.5 217.2, 338.6 218.7, 341 223.5 C 345.2 231.7, 344.9 232.8, 337 244.7 C 325.6 261.7, 317.2 270.3, 304 278.4 C 293.8 284.8, 292.4 285.5, 294.2 283.4 C 296.9 280.3, 299 274.4, 299 269.9 L 299 265.7 301.5 268 C 302.9 269.3, 304.3 270, 304.7 269.6 C 305.2 269.2, 304.1 267.6, 302.3 266.2 C 299.1 263.4, 298 260, 297.5 250.3 C 297.2 244.4, 300 245, 301.5 251.2 C 302.4 254.5, 309.4 261.8, 312.5 262.6 C 315.2 263.3, 320.5 260.8, 321.9 258.2 C 323.6 255, 321.9 251.6, 314.5 242.6 C 306.1 232.5, 305.4 230.6, 307 222 C 309.9 206.2, 301.5 188.8, 286.1 178.6 C 274.3 170.7, 262 169.3, 250.8 174.4 C 248.7 175.3, 243.4 176, 236 176.2 C 220.4 176.7, 212.5 180.2, 200.9 191.9 C 189.6 203.1, 184.1 216, 182.5 235.1 C 181.3 250, 177 260.1, 168.8 267.5 C 163.1 272.6, 154.4 275.4, 151.5 273 C 149.5 271.3, 148.3 272.5, 150 274.5 C 150.7 275.3, 151.1 276, 150.9 276.1 C 147.3 276.8, 145.6 276.8, 140.3 275.9 C 136.6 275.2, 133.5 274.1, 132.4 272.9 C 131.5 271.9, 130.3 271, 129.8 271 C 128.3 271, 128.9 273.3, 131 275.5 L 133.1 277.7 126.3 278.3 C 119.7 278.8, 115.3 280.4, 110 284 C 104.5 287.8, 92.2 293.8, 86.5 295.4 C 71.7 299.7, 61 307.3, 56.6 316.4 C 53.5 322.9, 55.3 330.2, 58.4 324.1 C 61.5 318.2, 71.3 314, 82.2 314 C 97.7 314, 125.3 318.1, 129.5 321 C 132.4 323, 140.8 325.2, 145 325.1 C 149.6 325, 152.2 324.4, 158.5 321.5 C 163.2 319.4, 171.9 317.2, 178.5 316.5 C 196.6 314.5, 208.3 310.6, 215.8 304.1 C 219.6 300.8, 220.1 299.1, 216.6 301.3 C 204.7 309.2, 197.9 311.2, 172 314.9 C 168.4 315.4, 163 316.6, 160 317.5 C 149.3 320.7, 146.4 321.2, 139.2 320.7 C 128.7 320.1, 127.9 318.4, 137.6 317.5 C 142 317.1, 146.4 316.3, 147.5 315.7 C 149.3 314.8, 153.6 313.5, 164.5 310.5 C 177.8 307, 181.2 305.9, 186.6 303.4 C 194.5 299.8, 202.2 294.6, 206.7 289.9 C 211.1 285.3, 211.1 285.3, 214.6 288.3 L 217.3 290.7 209 295.8 C 204.4 298.6, 198.3 301.7, 195.3 302.5 C 188.7 304.4, 188.4 305.5, 194.8 304.6 C 199.2 304, 215 295.9, 215.8 293.9 C 216.4 292.4, 218.9 292.9, 223.9 295.5 C 226.6 296.8, 232.1 298.7, 236.1 299.7 L 243.5 301.4 239 302.1 C 236.5 302.5, 232.7 302.9, 230.5 302.9 C 227.8 303, 224.8 304.1, 221 306.5 C 212.6 311.8, 189.2 323, 184.6 324 C 168.8 327.2, 161.3 329.2, 158.4 331 C 154 333.8, 148.5 341.9, 150 343.4 C 150.8 344.2, 151.4 344, 152.2 342.5 C 154.8 337.6, 161.6 332.4, 167.3 330.8 C 172.1 329.5, 173 329.5, 172.6 330.6 C 171.9 332.4, 172.9 332.4, 174.9 330.6 C 175.8 329.9, 181.7 327.6, 188 325.5 C 194.3 323.5, 202.1 320.5, 205.2 318.9 C 212.8 315.1, 213 315.2, 207.9 320.8 C 205.5 323.4, 202.2 327.8, 200.5 330.5 C 198.9 333.2, 192.3 344, 185.9 354.5 L 174.4 373.5 165.9 374 C 157.5 374.5, 150.2 377.8, 149.9 381.4 C 149.6 384.2, 150.3 386.4, 152.1 388.3 C 153.1 389.5, 154 390.7, 154 391.2 C 154 392.5, 156.3 392.1, 160.3 390 C 164.9 387.5, 165.3 387.5, 164.5 389.9 C 164.1 391.2, 164.6 392.3, 166.2 393.4 C 169.1 395.4, 170 395.4, 170 393.4 C 170 392.1, 170.3 392, 171.5 393 C 173.8 394.9, 179.6 393.4, 182 390.2 C 189.2 380.8, 194.4 373.3, 199.6 365 C 202.9 359.8, 207.5 352.9, 209.8 349.7 C 214 344.1, 214.1 344, 216.4 345.5 C 219.3 347.4, 224.2 346.6, 223.8 344.2 C 223.5 342.9, 232.6 336.2, 233.4 337.1 C 233.6 337.3, 234.1 338.9, 234.4 340.6 C 235 343.4, 234.8 343.8, 231.3 345.3 C 218.5 350.8, 213.9 355.4, 206.5 369.7 C 181.3 418.7, 129.1 481.7, 109.7 486.5 C 106.1 487.4, 106.3 488, 111.3 492.2 C 113.7 494.2, 118.3 499.1, 121.6 503.1 C 124.8 507, 131.9 514.6, 137.3 519.8 C 142.6 525, 147 529.9, 147 530.8 C 147 531.6, 145.5 534.8, 143.6 537.9 C 141.7 541, 138.8 546.4, 137 550 C 135.2 553.6, 131.7 559.5, 129.2 563.3 L 124.7 570 125.5 582.7 C 126.3 597.2, 127.8 601, 132.9 601 C 139.8 601, 139.5 598.9, 139.8 649.2 C 140.1 693, 140 694.7, 138.1 696.4 C 136.3 698, 136.1 698, 134.1 695.1 C 130.6 690.3, 117.6 683.6, 111.7 683.7 C 106.8 683.8, 101.3 686.9, 98.6 691.2 C 96.5 694.6, 98.8 693.9, 102.9 690 C 110.1 683.1, 119.5 685.1, 131.3 695.9 C 134.6 698.9, 134.7 700.1, 131.9 702.6 C 128.2 706, 126 711.5, 126 717.8 L 126 723.6 119.4 724.7 C 112.7 725.9, 109.4 727.9, 108 731.5 C 107.4 733.2, 106.3 733.5, 101.6 733.5 C 93.9 733.5, 91.6 736, 92.2 743.8 C 92.6 748.2, 92.4 749, 91.1 748.6 C 85.1 746.8, 83.7 746.8, 79.6 749 L 75.3 751.2 70.9 749.1 C 64.5 746, 57.3 747.1, 55.7 751.5 C 55.3 752.5, 53.7 753, 51.3 753 C 46 753.1, 39 756.9, 35.8 761.6 C 32.9 765.7, 32.3 768, 34 768 C 34.6 768, 35 767.6, 35 767.2 C 35 766.7, 36.6 764.5, 38.6 762.2 C 42.5 757.6, 47.4 755, 52.4 755 C 54.3 754.9, 56.8 753.8, 59 752 C 63 748.5, 67.2 748.1, 70.2 751 C 72.8 753.4, 78.2 753.6, 80.1 751.4 C 81.2 750, 82.7 749.9, 89.2 750.5 C 97.3 751.2, 98 750.8, 95.5 747.6 C 90.8 741.4, 95.5 735.3, 104 736.3 C 108.7 736.9, 109 736.8, 109.6 734.4 C 110.9 729.3, 115.6 726.8, 123.1 727.2 C 127.7 727.4, 130.5 728.1, 131.8 729.3 C 132.9 730.3, 135.3 731, 137.7 731 C 142.9 731, 145.9 733.4, 146.2 738 L 146.5 741.5 140.8 741.2 C 137.6 741, 134.9 741.4, 134.5 742 C 134.1 742.6, 134.9 743, 136.4 743 C 137.8 743, 139.2 743.5, 139.6 744.1 C 140 744.8, 142 745, 145.3 744.6 C 149.6 744, 150.6 744.2, 152.6 746.1 C 155.1 748.4, 155.8 751, 154 751 C 152 751, 153 753.1, 155.5 754 C 157 754.6, 158.2 756, 158.5 757.7 C 159.7 763.3, 161.3 768, 162.2 768 C 164.1 768, 161 755.8, 158.3 752.8 C 157.3 751.7, 156.6 749.8, 156.8 748.6 C 157.1 746.1, 152.9 741, 150.5 741 C 149.6 741, 149 740.1, 149 738.5 C 149 732.1, 144.3 728, 137.1 728 C 135.1 728, 132.6 727.4, 131.6 726.7 C 128.9 724.7, 127.9 716.6, 129.7 711.5 C 131.3 706.8, 140.6 696.6, 142.6 697.4 C 143.3 697.7, 144.4 697.3, 145 696.5 C 146.3 694.9, 154.4 692.9, 158.5 693.1 C 160.2 693.2, 163 693, 164.7 692.6 C 167.6 691.9, 168.4 692.3, 171.1 694.9 L 174.2 698 177.8 695 C 181.9 691.6, 187.5 691, 191.3 693.4 C 192.5 694.2, 194.5 695.1, 195.7 695.5 C 199.3 696.5, 197.6 693.9, 193 691.3 C 187.8 688.2, 182.3 688.3, 178.1 691.5 C 174.7 693.9, 174.7 693.9, 172.2 692 C 169.1 689.5, 153.8 689.7, 147.6 692.4 C 145.5 693.3, 143.6 693.9, 143.4 693.7 C 143.3 693.6, 143 673.4, 142.8 648.8 L 142.5 604.2 145 605.5 C 146.4 606.2, 151.1 608.4, 155.5 610.4 C 159.9 612.4, 164.3 614.5, 165.2 615 C 166.2 615.6, 167.8 616, 168.7 616.1 C 169.9 616.1, 170 616.3, 169.2 616.7 C 168.2 617.1, 168.2 617.5, 169.1 618.6 C 170.6 620.5, 172 620.4, 172 618.4 C 172 617.4, 172.5 617, 173.5 617.4 C 181.7 620.5, 203.1 624.3, 211.7 624 L 216.8 623.9 217.5 628 C 217.9 630.3, 217.9 648.4, 217.5 668.1 L 216.7 704.1 212.5 706 C 206 708.9, 198 719.3, 198 724.6 C 198 727.3, 199.5 725.9, 202.3 720.7 C 205.6 714.5, 208.5 711.1, 212.7 708.8 C 217.1 706.3, 217.1 706.3, 216.8 712.8 C 216.5 717.7, 216.2 718.5, 214.4 718.8 C 213.3 719, 208.9 722.6, 204.8 726.8 L 197.2 734.5 196.8 751.3 C 196.5 763.3, 196.8 768, 197.6 768 C 198.7 768, 200 754.6, 200 742 L 200 735.4 206.7 728.7 C 216.6 718.8, 217 719, 217 736 L 217 750.1 208.4 758.8 C 202.1 765.2, 200.3 767.6, 201.5 767.8 C 202.6 768.1, 205.6 765.8, 209.4 762.1 C 212.8 758.7, 216.1 756, 216.7 756 C 218.1 756, 220 750.6, 220 746.5 C 220 742.8, 220.4 742.7, 232.8 741.4 L 239.1 740.8 238.8 750.6 L 238.5 760.5 232 761.2 C 225.9 761.9, 221.1 764.1, 220.2 766.8 C 219.6 768.6, 221.9 768.2, 225.1 765.9 C 227 764.6, 230.3 763.6, 234.1 763.3 C 241.5 762.6, 241.5 762.6, 241.1 750.9 L 240.8 741.3 244.7 740.7 C 246.8 740.3, 250.6 740, 253.1 740 L 257.7 740 259.5 747.8 C 260.5 752, 261.7 755.9, 262.1 756.5 C 262.6 757, 263 758.1, 263 759 C 263.1 759.8, 264 762.3, 265 764.5 L 267 768.5 266.4 764.5 C 266 762.3, 265.3 759.4, 264.8 758 C 263.9 755.8, 260 741.2, 260 740.3 C 260 740.2, 263.8 740, 268.5 740 L 277 740 277 748 C 277 754.3, 276.5 757, 274.5 761.4 C 271.7 767.5, 271.6 768, 272.9 768 C 273.4 768, 274.2 767, 274.6 765.8 C 275 764.5, 276.3 761.9, 277.6 759.9 C 278.8 757.9, 279.7 755.4, 279.5 754.4 C 279.3 753.3, 278.9 749.7, 278.6 746.3 L 278 740 287.5 740 L 297 740 297 749.1 C 297 758.1, 297.1 758.4, 300.7 763.1 C 304.9 768.6, 309.8 770.4, 306.5 765.3 C 305.5 763.7, 303.6 761.4, 302.3 760.1 C 300.3 758, 300 756.8, 300 749.9 C 300 745.5, 299.9 741.7, 299.8 741.3 C 299.4 740.3, 310.6 739.7, 314.8 740.5 L 318 741.1 318 754.5 C 318 767.2, 318.1 768, 319.9 768 C 321.8 768, 321.9 767.4, 321.3 754 C 320.6 737.7, 320.7 737.5, 329.3 743.9 C 336.5 749.4, 356.6 759.6, 361.7 760.5 C 364.1 760.9, 366.2 761.6, 366.6 762.1 C 366.9 762.6, 367.9 763, 368.9 763 C 369.9 763, 371.7 764.1, 373 765.5 C 376.6 769.4, 378.6 768.8, 376.1 764.6 C 374 761.2, 373 748, 374.8 748 C 375.9 748, 381.8 754.4, 387.5 761.8 C 390.4 765.6, 393 768, 394.2 768 C 395.5 768, 395.9 767.6, 395.4 766.8 C 393.9 764.2, 382.4 750.5, 379.7 748.1 L 377 745.5 376.7 729.2 L 376.5 713 399 713.2 L 421.5 713.5 421.5 740.8 C 421.5 755.7, 421.8 768, 422.2 768 C 422.6 768, 425.1 766.6, 427.9 764.9 C 433.5 761.4, 437.4 761.8, 440.9 766.1 C 442.6 768.2, 442.7 768.2, 443.4 766.4 C 443.8 765.4, 443.8 764.9, 443.4 765.2 C 443 765.6, 441.9 764.8, 440.8 763.5 C 439.7 762.1, 438 761, 437 761 C 432.5 761, 430.5 754.6, 433.6 750.2 C 439.2 742.2, 454.2 739.9, 457.2 746.6 C 458.5 749.5, 460 749.8, 460 747.1 C 460 744.8, 466.2 743.4, 470 744.8 C 474.7 746.6, 476.3 749.4, 475.8 755 L 475.3 760.1 479.9 759.6 C 486 758.9, 491 760.7, 493.5 764.7 C 495.4 767.7, 498 769.1, 498 767.1 C 498 763.3, 487.5 756, 482 756 C 479.3 756, 479 755.7, 479 752.6 C 479 744.9, 468.3 738.3, 462.1 742.2 C 460.6 743.1, 459.5 743, 456.5 741.6 C 444 735.6, 429 743.9, 429 756.7 C 429 761.3, 428.7 762, 427 762 C 425.1 762, 425 761.3, 425 736 L 425 710 454 710 L 483 710 483 722 C 483 728.6, 483.2 734, 483.4 734 C 485.1 734, 491.1 731.2, 493.5 729.2 C 499.1 724.5, 513 728.4, 513 734.7 C 513 737, 513.2 737, 517.9 736.4 C 522.9 735.8, 527 738.1, 527 741.7 C 527 742.4, 528.6 744.5, 530.5 746.4 C 533 748.9, 534 750.8, 534 753 C 534 755.8, 534.2 756, 536.8 755.3 C 544.7 753, 549.2 755, 552.2 761.9 C 553.6 765.3, 554.3 766.1, 555.2 765.2 C 556.1 764.3, 555.9 762.9, 554.2 759.4 C 551.5 753.9, 546.8 751.5, 540.3 752.4 L 536 753 536 749.6 C 536 746.5, 534 743.3, 532.8 744.5 C 532.5 744.8, 531.3 743.1, 530.2 740.7 C 527.6 735.1, 526.4 734.2, 521.1 733.8 L 516.7 733.5 516.9 723 C 517 717.3, 517.3 712.4, 517.4 712.2 C 517.6 712.1, 525.3 711.7, 534.6 711.4 C 543.9 711.1, 552 710.7, 552.5 710.7 C 553.1 710.6, 553.7 712.7, 554 715.4 C 554.4 719.6, 554.7 720.1, 555.8 718.7 C 556.7 717.7, 556.9 715.9, 556.4 713.6 L 555.8 710 577.9 710 C 590.1 710, 600.3 710, 600.8 710 C 601.6 710, 601.7 725.2, 600.9 729 C 600.5 730.8, 599.6 731.6, 597.5 731.8 C 590.7 732.6, 583.4 740.8, 581.5 749.8 C 580.9 752.6, 580.4 753, 577.6 753 C 575.8 753, 573.5 752.3, 572.4 751.5 C 568 748.1, 562.6 750.8, 558.5 758.3 C 557.5 760.3, 557 762.3, 557.4 762.7 C 557.9 763.1, 558.5 763, 558.7 762.3 C 559.5 760, 565.1 752.9, 566.6 752.3 C 568.5 751.6, 571 753.7, 571 756.1 C 571 758.4, 572.8 758.6, 573.6 756.5 C 575.2 752.5, 588 759.3, 588 764.1 C 588 765.1, 588.5 766, 589 766 C 589.6 766, 590 763.5, 590 760.5 C 590 752.5, 592.6 748.8, 601 744.9 C 604.1 743.5, 606.6 743, 609.1 743.4 C 612.2 743.9, 613 743.6, 614.4 741.6 C 617.1 737.4, 622.4 734, 627.3 733.4 L 632 732.7 632 736.9 C 632 739.2, 632.5 742, 633 743 C 633.7 744.3, 633.7 745.1, 633 745.5 C 630.6 747, 632.5 747.5, 640.5 747.5 C 645.6 747.5, 649.4 748, 649.8 748.6 C 650.2 749.2, 651.2 749.7, 652 749.8 C 652.8 749.8, 655 750.1, 656.8 750.5 C 658.5 750.9, 660 750.9, 660 750.4 C 660 748.2, 647.7 745, 639.5 745 L 635.2 745 634.8 738.8 C 634.2 731.2, 634.7 730.7, 642.1 731.5 C 647.6 732.1, 647.8 732, 648.5 729.3 C 650.6 720.7, 665 725.7, 665 735 C 665 736.6, 665.7 737, 668.4 737 C 671.2 737, 672 737.5, 673.4 740.3 C 674.9 743.3, 675.5 742.8, 675.1 738.8 C 675 737.8, 676.2 736.4, 677.9 735.6 C 686.6 731.1, 692.7 736.5, 700.4 755.3 C 702.2 759.7, 704.4 761.8, 705.5 760.1 C 705.7 759.6, 704.1 755.2, 701.9 750.4 C 697.4 740.7, 696.1 737.8, 693.2 731 C 692.2 728.5, 689.4 724.3, 687.1 721.5 C 684.8 718.8, 682.3 715.2, 681.6 713.5 C 680.9 711.9, 679 709.9, 677.4 709.1 C 675.8 708.4, 673.8 707.4, 673 707 C 671.2 706.1, 670.4 683.5, 671.5 665.3 C 672.1 655.5, 672.4 654, 673.9 654 C 675.9 654, 680 658, 680 660 C 680 660.9, 681 660.4, 682.8 658.8 C 687.9 653.9, 694 655.1, 694 661 C 694 663.6, 696.7 663.6, 697.5 661 C 697.8 659.9, 699 659, 700 659 C 702 659, 703.2 661.3, 702.4 663.5 C 701.7 665.2, 702.8 665.4, 704.9 664.1 C 706.9 662.8, 710 664.6, 710 667 C 710 670.1, 712.4 669.3, 713.7 665.9 C 715.2 662.1, 714.5 660.7, 711.8 661.6 C 709.7 662.2, 706 660.8, 702.8 658.2 C 701.8 657.4, 699.8 656.9, 698.2 657.2 C 696.2 657.5, 694.9 657.1, 694.2 655.9 C 692.6 653.4, 688.3 652.7, 684.8 654.4 C 682 655.9, 681.6 655.8, 678.6 653.6 C 676.9 652.3, 674.6 651, 673.5 650.8 C 671.6 650.5, 671.5 649.6, 671.3 637.5 C 671.2 630.4, 671.5 624.1, 672 623.5 C 672.4 623, 673.3 619.1, 673.8 615 C 675.1 605.4, 676.8 599.4, 679.5 595 C 684 587.6, 686.1 579.9, 686.7 568.8 C 687.4 555.6, 687.1 555, 679.2 555.5 C 676.1 555.7, 673.1 555.5, 672.5 555 C 672 554.6, 670.4 554, 669 553.8 L 666.5 553.5 666.5 524 C 666.5 495.3, 666.6 494.5, 668.5 494.2 C 669.6 494, 671.2 493.2, 672 492.5 C 672.8 491.8, 674.4 491, 675.5 490.8 C 677.4 490.5, 677.5 489.7, 677.5 478.5 L 677.5 466.5 672.5 466.2 C 664.8 465.7, 665 466.3, 665 443.6 C 665 418.4, 664.9 419, 671.1 419 L 675.9 419 676.5 414.3 C 676.9 411.6, 677.6 407.9, 678 406 C 678.5 404.1, 679.2 399.2, 679.5 395.2 C 680 390.1, 680.7 387.7, 681.7 387.3 C 682.8 386.9, 683 385.8, 682.5 383.4 C 682 380.3, 682.1 380, 684.5 380 C 687.5 380, 687.7 378.2, 685 374.7 C 681.4 370.1, 675.7 357.9, 671.5 345.5 C 668.1 335.3, 665.6 325.4, 663 311 C 661.9 304.7, 660.5 297.5, 660 295 C 657 280.4, 655.7 267.7, 656.8 264.8 C 657.5 262.8, 657.6 261, 656.9 259.4 C 656.4 258, 656 252.8, 656 247.8 L 656 238.7 660.3 239.5 C 677.4 242.4, 688.6 242.7, 691.6 240.5 C 693.4 239.2, 693.2 239.1, 689.3 239 C 687 239, 684.9 238.6, 684.6 238.1 C 684.3 237.7, 682.5 237, 680.6 236.7 C 673.5 235.6, 657.4 226.3, 656 222.5 C 654.9 219.6, 653.8 219.4, 652 221.5 C 651 222.7, 650.7 227.4, 650.9 239.8 C 651.1 255.7, 651 256.7, 648.9 259.3 C 646.9 262, 646.8 262.2, 648.6 264.1 C 650.3 266, 650.3 266.5, 648.7 277.3 C 642.1 319.9, 628.6 360.5, 616.7 373.4 L 612.9 377.5 613.5 360 C 614.2 340.6, 615.9 328.7, 618.7 322.3 C 621.1 317, 628.6 307.6, 631.7 305.9 C 633.5 304.9, 634 303.8, 634.1 300.6 C 634.3 295.3, 634.5 293.9, 636 285.3 C 637.5 277.2, 637 275, 633.8 275 C 631.6 275, 631.5 274.8, 631.8 266.4 L 632.2 257.8 635.6 255.8 C 640.4 253, 640.3 249.3, 635 243.6 L 631 239.3 631 219.6 L 631 199.9 633.7 200.2 C 636.2 200.5, 636.5 200.1, 637.3 196.4 C 638.2 192.6, 637.9 191.7, 634.2 185.6 C 630.8 179.9, 628.5 174.2, 624.1 159.5 C 618.1 140, 610.6 100.6, 611.4 93.6 C 612 89.5, 611.8 88.1, 610.6 87 C 608.8 85.6, 608.2 66.6, 609.9 65.6 C 611.2 64.7, 617 67, 621.6 70.1 C 629 75.1, 633.2 76.3, 639 75.1 C 643.7 74.1, 644.3 74.2, 648.3 76.7 C 658.9 83.6, 667 83.7, 674.8 77.1 C 677.5 74.7, 677.9 71.4, 675.3 72.6 C 667.1 76.1, 658 71.9, 651.7 61.8 C 649 57.4, 649.5 55, 653 55 C 654.7 55, 656 54.6, 656 54 C 656 53.5, 655.2 53, 654.3 53 C 653.3 53, 650.7 51.9, 648.5 50.5 C 638.5 44.3, 636.2 43.7, 625.1 43.8 C 614.5 44, 611 42.9, 611 39.5 C 611 37.3, 605.1 32.7, 604.9 34.8 M 607.7 51.2 L 607.9 62.5 610.7 62.8 C 614.8 63.2, 618.8 64.9, 624.6 68.8 C 630.1 72.4, 633.4 72.9, 641.6 71.6 C 646.4 70.9, 646.9 71, 650 73.8 C 654.1 77.6, 660.5 79.4, 666.2 78.5 L 670.5 77.7 665.7 76.5 C 661.3 75.4, 657.8 72.9, 652.8 67.5 C 651.8 66.4, 649.4 62.4, 647.5 58.5 C 642.3 47.9, 639.6 46.5, 625.2 46.8 C 614.1 47, 613.8 46.9, 611.4 44.3 C 610.1 42.9, 609 41.3, 609 40.9 C 609 40.4, 608.7 40, 608.3 40 C 607.8 40, 607.6 45.1, 607.7 51.2 M 605 92.3 C 605.4 94.4, 605.2 98.7, 604.4 103.1 C 603.7 107.2, 602.6 113.7, 602 117.5 C 601.3 121.4, 600.2 126.4, 599.4 128.8 C 597.1 135.6, 597.2 135.7, 605.3 135.9 C 614.8 136.1, 615 135.9, 613.3 128 C 609.6 110.9, 607.8 99, 608.2 94 C 608.4 90.1, 608.2 89.5, 606.3 89.2 C 604.4 88.9, 604.3 89.2, 605 92.3 M 538.3 120.8 C 537 121, 536 121.7, 536 122.4 C 536 124.7, 531.4 138.3, 529.2 142.7 C 525.9 149.1, 525.6 149, 541 149 C 548.7 149, 555 148.8, 555 148.6 C 555 148.4, 553.8 145.6, 552.4 142.4 C 551 139.1, 548.7 133.1, 547.3 128.9 C 544.8 120.9, 543.8 120, 538.3 120.8 M 597.2 138.3 C 596.6 138.9, 595.9 140.9, 595.5 142.5 C 592.9 155, 585.8 175.7, 580.9 185.3 C 579.9 187.5, 579 189.3, 579 189.4 C 579 189.6, 581.8 189, 585.3 188.2 C 599.5 184.8, 626.4 186, 631.8 190.3 C 633.7 191.8, 633.2 190.1, 630.2 185.1 C 625.3 176.9, 622 166.9, 617.5 146.5 C 615.2 136.5, 615.8 137, 606.5 137 C 601.1 137, 597.9 137.4, 597.2 138.3 M 532.6 153.3 C 530.8 159, 530.4 158.7, 540.9 158.2 C 551.9 157.7, 551.4 157.9, 550.6 154.5 C 550 152.1, 549.7 152, 541.5 152 C 535.5 152, 532.8 152.4, 532.6 153.3 M 533.5 160.9 C 530.5 161.5, 529.3 163.7, 529.1 169 L 529 171.5 541.5 171.2 C 553 170.9, 554 170.7, 554 169 C 554 166.4, 552.1 161.7, 550.7 160.8 C 549.3 159.9, 537.8 160, 533.5 160.9 M 527.1 176.8 C 526.6 178.8, 526 181.8, 525.8 183.5 L 525.5 186.4 540.7 186.5 C 549 186.5, 556.2 186.8, 556.6 187.3 C 557 187.7, 549.9 188, 540.8 188 L 524.3 188 522.6 194.8 C 521.6 198.5, 520.6 202.3, 520.3 203.3 C 519.9 204.8, 520.2 204.9, 522.5 204 C 525.4 202.9, 532.7 202.6, 531.7 203.6 C 531.4 204, 528.5 204.8, 525.3 205.4 C 518.8 206.7, 519.7 205.3, 515.4 221 C 514.5 224, 512.5 230, 510.9 234.3 C 507.9 242.4, 507.4 244.5, 508.8 243.6 C 510.6 242.5, 529.5 240.1, 540.5 239.6 C 551.5 239.1, 566.2 240, 573.4 241.6 C 576.5 242.3, 576.5 241.8, 573.2 234.1 C 572.4 232.1, 571.6 229.8, 571.4 229 C 571.3 228.2, 570.5 225.5, 569.7 223 C 568.2 218.1, 568.3 218.2, 554.7 216.6 C 547.8 215.8, 551.5 214.9, 559.2 215.6 L 567.9 216.3 566.8 211.9 C 566.2 209.5, 565.3 207.1, 564.9 206.6 C 564.4 206, 564 204.7, 564 203.6 C 564 202.4, 563.3 200.2, 562.5 198.6 C 561.7 197.1, 561 195, 561 194.1 C 561 193.2, 560.3 191.2, 559.5 189.6 C 558.7 188.1, 558 186, 558 185.1 C 558 184.1, 557.3 181, 556.5 178.2 L 554.9 173 541.5 173 L 528.1 173 527.1 176.8 M 254.7 176.4 C 252.6 177.2, 250 178.6, 248.9 179.6 C 247.2 181.1, 246.5 181.2, 243.6 180.2 C 225.9 173.8, 196.8 193.1, 190.1 215.8 C 187.7 223.7, 184.7 243.1, 185.5 245.2 C 186.2 247, 183.9 252.6, 179.5 259.5 C 177.6 262.5, 176 265.3, 176 265.8 C 176 269.2, 162.6 277, 155 278.1 C 149.9 278.8, 150 278.9, 156.8 278.5 C 161.5 278.3, 163.8 278.5, 163.4 279.1 C 163.1 279.7, 162.2 279.9, 161.4 279.6 C 160.6 279.3, 160 279.5, 160 280 C 160 281.3, 143.5 281.3, 139 280 C 136.5 279.3, 133.6 279.4, 128.5 280.5 C 111.9 284, 110.2 285.4, 121.3 286.4 C 125.2 286.8, 131.2 287.7, 134.5 288.5 C 149.5 292.1, 165 287.9, 175.3 277.5 C 178.3 274.4, 178.5 273.7, 177 271 C 175.4 268.1, 176.7 266.5, 182.3 264.6 C 185.2 263.6, 189 262.1, 190.8 261.3 C 192.6 260.5, 194.8 260, 195.8 260.2 C 198.1 260.6, 192.3 263.9, 184.7 266.4 C 178 268.7, 178.2 269, 187.4 273.9 C 191.9 276.3, 194.6 277, 198.7 277 C 206 277, 209.6 278.7, 217.6 286.2 C 225.9 293.9, 237.9 299, 247.7 299 L 250.2 299 247.1 301.9 C 245.4 303.5, 244 305.5, 244 306.4 C 244 308.4, 242.4 308.5, 241.6 306.5 C 241.3 305.7, 239.9 305, 238.4 305 C 236.4 305, 235.9 305.4, 236.4 306.6 C 236.8 307.5, 237.5 310.3, 238.2 312.7 C 241 323.8, 256.1 329.4, 264.3 322.2 C 266.3 320.4, 266.7 311.2, 264.9 307.8 C 263.5 305.2, 264.6 304.2, 266.7 306.2 C 269.1 308.7, 269.5 316.8, 267.3 321 C 264.1 327.2, 255.3 329.7, 247.7 326.5 C 244.1 325, 237 318.5, 237 316.8 C 237 316.3, 235.9 313.4, 234.5 310.4 C 232.3 305.5, 231.7 305, 229.7 305.6 C 226.5 306.6, 226.5 306.5, 229.3 312.2 C 230.7 315.1, 232.7 319.9, 233.7 322.9 C 236.1 330, 240.6 332.3, 252.6 332.3 C 259.9 332.4, 261.2 332.1, 266.3 329.2 C 271.8 326.1, 273.8 326.1, 270.3 329.2 C 264.1 334.7, 249.6 336.7, 240.5 333.5 C 238.3 332.7, 236.4 332, 236.3 332 C 235.3 332, 236.3 337.6, 238 341.5 C 239.1 344.1, 240 346.9, 239.9 347.8 C 239.9 349.3, 239.8 349.3, 239.2 347.7 C 238.6 346.2, 215.6 382.3, 211.8 390.9 C 210.5 393.7, 176.6 445.1, 174.4 447.4 C 173.9 448, 170.3 453.2, 166.5 459 C 162.8 464.8, 156.7 474, 153 479.5 C 149.3 485, 144.4 492.9, 142 497 C 139.6 501.1, 136.8 505.6, 135.8 506.9 C 133.6 509.8, 133.5 512, 135.5 512 C 136.3 512, 137 511.1, 137 510 C 137 507.3, 138.2 507.5, 140.9 510.6 C 143 513, 143 513.1, 141.2 512.5 C 137.5 511.4, 138.1 513.6, 142.5 518 C 147.3 522.7, 148.8 521.6, 144.8 516.4 L 142.5 513.5 146 515.6 C 148.8 517.2, 149.6 518.3, 150 521.5 L 150.5 525.5 154.9 516.5 C 157.3 511.6, 162.2 502.8, 165.8 497 C 172.2 486.7, 183 468.9, 187.1 462 C 188.2 460.1, 191.6 454.5, 194.7 449.5 C 200.5 440.1, 203 435.7, 211.3 420 C 214 414.8, 218.3 406.7, 220.8 402 C 230.9 383.1, 232.9 378.9, 235.9 370.3 C 237.6 365.4, 239 360.5, 239 359.5 C 239 358.4, 239.7 355.7, 240.5 353.5 C 242.2 348.8, 242.5 351.9, 241 358.5 C 240.5 360.7, 239.6 364.8, 239 367.5 C 237.6 374.2, 235.5 379.2, 224.9 400.4 C 215 420.2, 208.9 431.6, 205.3 437.2 C 204.1 439.3, 203 441.2, 203 441.5 C 203 442, 182.7 476.2, 172.5 493 C 167.1 501.7, 154 526.9, 154 528.4 C 154 528.8, 153 530.7, 151.7 532.8 C 150.4 534.8, 147 541, 144.1 546.5 C 141.2 552, 136.6 559.4, 133.8 563 L 128.8 569.5 132.7 571.2 C 137.5 573.4, 140.4 573.4, 146.4 571.4 C 150.2 570.1, 151.6 570, 154 571 C 157.4 572.4, 157.2 572.1, 157.5 577.3 C 157.8 582.3, 159.9 584.4, 166.8 586.5 C 182.8 591.3, 185.6 592.4, 189.2 595.4 C 192.6 598.3, 193.9 598.8, 200.7 599.4 C 220.3 601, 230.3 599.6, 236.1 594.4 C 237.5 593.1, 237.9 593.1, 239 594.5 C 241.3 597.3, 252.3 595.7, 256.1 591.9 C 260.2 587.8, 265.4 590.7, 268 598.6 C 269.4 602.8, 270 602.8, 272.9 599 C 275.7 595.1, 282.6 590.8, 285.2 591.2 C 287.4 591.5, 287.6 591.9, 290.4 598.3 C 292.6 603.4, 294.7 602.9, 298.1 596.6 C 301.6 590.2, 302.6 589.7, 309.4 591.5 C 312.5 592.3, 315.5 593, 316 593 C 316.6 593, 317 589.2, 317 584.5 L 317 576.1 312 571.4 C 305.8 565.6, 303.6 561.1, 301 548.5 C 298.8 538.3, 298.6 537.5, 295.6 530.6 C 294.3 527.7, 293.6 521.8, 293 509.6 C 292.5 500.2, 291.6 488, 291 482.5 C 289.8 469.8, 289.8 462.4, 291 466 C 291.9 468.6, 293.1 480.3, 295.4 509.5 C 296.1 518.9, 297.3 527.9, 298 529.5 C 298.7 531.2, 299.7 533.6, 300.2 535 C 300.8 536.4, 301.8 538.9, 302.6 540.5 C 303.3 542.2, 304.2 546.5, 304.6 550.2 C 304.9 553.8, 306.1 558.2, 307.1 559.9 C 308.9 562.9, 309.1 563, 312.2 561.7 L 315.5 560.3 315.2 553.9 C 315 549.9, 314.3 547.1, 313.4 546.4 C 311.2 544.7, 311.7 543, 314.4 543 C 316.9 543, 318.3 544.3, 318.6 547 C 318.6 547.8, 319.1 551.6, 319.5 555.5 C 320.2 562.1, 320.2 562.4, 318.5 561 C 316.9 559.7, 316.8 559.8, 317.1 561.5 C 317.5 563.1, 318.3 563.3, 324.5 563.1 C 328.3 563, 331.7 562.6, 332 562.4 C 332.6 561.8, 332.1 548.6, 331.4 544.9 C 331 542.7, 331.3 542.2, 333.5 541.8 C 336.1 541.3, 338 542.7, 336.3 543.9 C 334.7 544.9, 333.9 550.8, 335.3 551.4 C 336.2 551.7, 336.2 552.1, 335.4 552.7 C 334.6 553.2, 334.5 554.9, 334.9 557.4 C 335.5 561.2, 335.6 561.4, 339.5 561.4 C 343.2 561.5, 343.6 561.2, 345.2 557.5 C 348.9 548.7, 347 542.1, 340.8 542 C 337.5 542, 337.1 540.4, 340 539.5 C 341.2 539.1, 343.6 539.6, 345.8 540.8 L 349.5 542.7 350 550.8 C 350.6 560, 351.3 561.1, 356.6 561.3 C 361.8 561.6, 362.1 564.4, 356.9 564.8 C 353 565.1, 348 562, 348 559.2 C 348 556.8, 346.2 559, 345.8 562 C 345.6 563.5, 344.7 564.6, 343.5 564.8 C 340.2 565.4, 339.8 566.6, 340.5 572.9 C 341 577.6, 341.6 579, 342.8 579 C 344.3 579.1, 344.3 579.2, 342.8 580.4 C 340.5 582.1, 340 665.9, 342.3 666.1 C 360.8 667.3, 363.6 667, 362.6 664.4 C 362.3 663.6, 362.1 640.6, 362.1 613.2 C 362.1 585.9, 362.1 560.6, 362 557 C 362 549.3, 363 546.9, 365.5 549 C 366.7 550, 367.1 551.7, 366.8 555.9 L 366.5 561.5 371.9 561.5 L 377.4 561.5 379.4 552.8 C 382.2 541.4, 383 540.9, 383 551 C 383 557.7, 382.7 559.5, 381.3 560.6 C 378.6 562.5, 382.3 563.7, 386.4 562.2 C 388.2 561.5, 390.4 561, 391.2 561 C 393 561, 393.9 558.1, 394.1 551.5 C 394.4 546, 393.3 543.2, 390.7 542.7 C 389 542.4, 389.2 542.2, 391.5 542.2 C 396.8 541.9, 397.3 542.8, 396.9 553.1 L 396.5 562.4 402 563.5 C 406.1 564.3, 407.6 565, 407.8 566.4 C 408.6 570.6, 401.3 571.3, 396.8 567.5 C 393.3 564.6, 387 564.1, 384.9 566.6 C 383.8 567.9, 383.5 567.9, 382.8 566.7 C 382.2 565.6, 379.9 565.2, 373.5 565.1 L 365 565 364.8 573.8 C 364.6 578.6, 364.5 601.3, 364.5 624.3 L 364.5 666.1 392.2 665.9 C 407.5 665.9, 420.4 666.1, 421 666.5 C 421.6 666.8, 422 671, 422 676.1 L 422 685 407.8 685 C 399.9 685, 387.1 685.3, 379.2 685.7 L 364.9 686.3 365.5 691.4 C 366.9 702.8, 366.1 702, 374.9 702 C 385.2 702, 392.2 703, 391.7 704.4 C 391.5 705.1, 387.2 705.5, 379.4 705.5 C 367.8 705.5, 367.5 705.6, 367.2 707.8 C 366.9 710, 367 710, 379.8 710 C 386.9 710, 399.5 710.3, 407.8 710.7 L 423 711.3 423 698.7 C 423 691.8, 423.4 685.9, 423.9 685.6 C 424.8 685, 426 694.3, 426 702.1 L 426 707 455 707 L 484 707 483.6 693.3 C 483.4 685.7, 483.1 676.7, 483.1 673.3 C 483 668.4, 482.7 667, 481.5 667 C 480.2 667, 480.1 669.6, 480.7 686 L 481.3 705 474.4 705 C 470.6 705.1, 459.2 705.2, 449 705.3 L 430.5 705.5 430.7 698.5 C 431.7 661.1, 433 630.6, 433.9 626.2 C 437.2 608.9, 451.7 600.3, 459.8 610.9 C 467.5 620.8, 467.3 619.3, 467.4 665.7 C 467.5 693.7, 467.8 703.4, 468.7 703.7 C 469.6 704, 469.9 699.3, 470 685.3 C 470 675, 470.3 662.5, 470.6 657.5 C 471.1 646.4, 471.2 626.8, 470.6 624.9 C 467.3 613.5, 466.3 611.3, 461.2 606.3 C 455.3 600.4, 454.5 600.1, 453.5 603.3 L 452.7 605.5 452.3 603.3 C 451.2 597.7, 446.3 597.1, 441.3 602 C 431.8 611.1, 429.1 624.1, 429 660.6 C 429 680.8, 428.1 692.6, 426.9 689.5 C 426.5 688.4, 426.1 678, 426.1 666.4 L 426 645.3 420.7 645.1 C 414.6 644.9, 413.3 645.8, 412.8 651 C 411.9 659.2, 409.7 593.1, 409.6 554.5 L 409.5 542.5 415.5 541.7 C 418.8 541.3, 434.9 541.1, 451.4 541.2 L 481.2 541.5 480.7 535.6 C 480.4 532.3, 479.6 529.4, 478.9 528.9 C 476.9 527.6, 472.6 527.8, 471.2 529.2 C 470.3 530.1, 470 529.3, 470 525.3 C 470 522.4, 469.5 519.8, 468.9 519.4 C 468.1 519, 468.2 518.5, 469.1 517.9 C 470.9 516.8, 470.2 516.4, 465.3 515.7 L 461 515.2 461 519 C 461 523.1, 459.3 528.7, 458.4 527.7 C 457.9 527.2, 457.7 518.8, 457.9 512.9 C 458 512.1, 460.4 511.9, 466 512.3 C 474.6 512.9, 474.5 513, 470.4 507.5 C 465.3 500.6, 458 483.3, 455 471 C 454.4 468.5, 453.2 463.8, 452.4 460.5 C 450.8 454.2, 449.2 446.2, 446.5 432 C 443.6 416.7, 443 412.6, 443 408.8 C 443 406.7, 442.6 405, 442 405 C 441.5 405, 441 405.6, 441 406.3 C 441 409.6, 438.9 426, 438.1 429.5 C 437.5 431.7, 436.2 437.6, 435 442.5 C 430.3 462.6, 421.1 489.8, 415.5 499.8 C 414.1 502.3, 413 504.4, 413 504.5 C 413 504.6, 416.5 503.9, 420.8 502.9 C 433.7 499.8, 454.8 501.5, 456.4 505.7 C 456.7 506.5, 456.6 506.9, 456.1 506.6 C 453.2 504.8, 435.7 504, 424.3 505.1 C 413.2 506.3, 412 506.6, 411.1 508.7 C 409.7 511.9, 409.8 511.9, 426.1 510.7 C 441.2 509.6, 450.6 510.6, 454.7 513.5 C 456 514.5, 453.7 514.7, 442.9 514.6 L 429.5 514.5 429.2 516.9 C 428.9 519, 429.1 519.2, 431.2 518.6 C 436.3 517.2, 446.9 515.9, 449.6 516.4 C 451.2 516.6, 452.8 516.9, 453.1 516.9 C 453.5 517, 454 518.7, 454.3 520.8 C 454.6 522.8, 455.1 525.5, 455.5 526.7 C 456.1 528.5, 455.8 529, 453.6 529.6 C 450 530.5, 449.7 530, 449.9 523.9 L 450 518.7 442.7 519.4 C 432.4 520.4, 430.8 520.9, 431.5 522.9 C 431.9 523.8, 432.4 525.1, 432.7 525.7 C 433.4 527.4, 430 528.6, 429 527 C 428.6 526.3, 427.9 523.1, 427.6 519.9 C 426.9 514, 426.9 514, 423.5 514 C 418.6 514, 416.9 514.9, 417.9 516.9 C 419 519.1, 417.8 529.2, 416.4 529.7 C 415.7 529.9, 414.6 529.5, 413.9 528.8 C 412 527, 407 526.8, 407 528.6 C 407 530.4, 407.2 530.4, 402.2 528 C 398.3 526.1, 398 525.7, 398 522 C 398 518.2, 397.8 518, 395 518 C 391.9 518, 390.5 521.3, 393.3 522.3 C 394.2 522.6, 394.2 523, 393.1 524.3 C 391.6 526.2, 389.4 526.5, 388.8 525 C 387.7 521.9, 354.8 519.1, 334.9 520.4 C 321.9 521.3, 321.4 521.6, 323 526.4 C 324.1 529.8, 324.4 530, 328.6 530 C 332 530, 334 529.3, 336.7 527.3 L 340.2 524.6 360.8 526.9 C 372.2 528.2, 387.1 529.7, 394 530.4 C 404.5 531.3, 406.5 531.8, 406.8 533.3 C 407.3 535.8, 400.6 535.3, 373 531 C 366.6 530, 353 528.9, 343.9 528.6 C 341 528.6, 338.5 529.1, 337.4 530 C 336.3 531, 333 531.7, 329.5 531.9 C 326.2 532.1, 321.5 532.6, 319 533.1 C 316.5 533.6, 312.7 534.3, 310.4 534.6 L 306.3 535.2 305.6 530.9 C 305.2 528.5, 304.4 526.2, 303.7 525.7 C 302.8 525, 302.8 524.7, 303.8 524.3 C 304.5 524, 305 521.9, 305 519 C 305 514.8, 305.3 514.1, 307.8 513.1 C 310.7 511.9, 315 506.4, 315 503.8 C 315 502.9, 316.4 500.8, 318 499 C 321.6 495.1, 321.6 495.9, 318.4 483.5 C 310.1 451.4, 300.9 419.4, 298 412.5 C 297.6 411.4, 296.2 407.6, 294.9 404 C 293.7 400.4, 291.3 395, 289.7 392 C 275.3 365.3, 273.8 360.6, 273.1 341 C 272.1 315.5, 273 310.2, 276.6 319.5 C 278 323.4, 278.7 324, 281.1 324 L 284 324 284 316.5 C 284 304.2, 279.6 297.6, 273.5 300.8 C 271.9 301.6, 268.4 302.4, 265.8 302.4 C 261.5 302.5, 261.1 302.7, 261.6 304.7 C 262.4 307.8, 261.2 310.7, 259 311.3 C 257.2 311.8, 257.1 311.4, 257.6 308.2 C 257.9 306.1, 257.7 303.4, 257.2 302 C 256.2 299.5, 256.2 299.5, 262.4 299.5 C 267 299.4, 269.6 298.8, 272.9 297 C 275.3 295.6, 278.4 293.9, 279.9 293.1 C 285.4 290.1, 292.4 281.6, 294.3 275.9 C 296.1 269.9, 296.6 262.5, 295.1 261.5 C 294.5 261.2, 293.8 258.9, 293.4 256.5 C 292.6 250.7, 291.3 249.9, 290.5 254.7 C 289.4 260.9, 289 261.9, 286.9 262.5 C 284.9 263.2, 284.9 263.2, 286.7 264.6 C 287.7 265.3, 289.6 266, 291 266 C 293.2 266.1, 293.3 266.2, 291.7 267.1 C 289 268.7, 278.8 263.2, 277.6 259.4 C 277.1 257.8, 276.3 255.5, 275.7 254.3 C 274.5 251.7, 275.4 245.1, 277.2 243.4 C 282.1 238.8, 285.9 242.2, 287 252.3 C 287.4 256, 287.8 257.1, 287.9 255.1 C 287.9 253.2, 288.6 250.1, 289.2 248.2 C 290.4 245.1, 290.3 244.6, 288.2 243 C 286.7 241.7, 286.3 240.9, 287.1 240.4 C 287.8 240, 288.9 240.5, 289.6 241.4 C 290.8 243.1, 290.9 243, 291.9 241.1 C 293.4 238.5, 293.4 235.2, 291.9 236.7 C 291.2 237.4, 289.8 237.3, 287.2 236.4 C 285.2 235.7, 280.5 235.1, 276.8 235 C 273 235, 270 234.7, 270 234.4 C 270 232.7, 275.8 225.9, 277.8 225.4 C 281.1 224.5, 291.5 229.8, 289.8 231.5 C 289.6 231.7, 287.2 230.8, 284.4 229.4 C 279.4 226.9, 279.3 226.9, 276.2 228.7 C 270.4 232, 271.5 232.8, 281.3 232.5 C 289.5 232.3, 290.5 232.1, 290.8 230.4 C 291.2 227.6, 286.2 223, 275.8 216.6 C 270.7 213.5, 264.3 209.4, 261.7 207.5 C 259 205.6, 255.1 203.6, 252.9 203 C 248.7 201.8, 246.6 198, 248.9 195.7 C 250.4 194.2, 259.7 194.3, 261.2 195.8 C 262.1 196.7, 261.2 197, 257.3 197 C 254 197, 251.8 197.5, 251 198.5 C 249.9 199.8, 250.2 200, 252.4 200 C 255.6 200, 257.3 200.8, 266 206.5 C 274.8 212.2, 277.9 214.1, 282 216.3 C 290.6 220.9, 294.3 226.2, 295 234.8 C 295.7 243.2, 297.5 242.3, 297.6 233.5 C 297.6 229.7, 297.7 226.1, 297.9 225.5 C 298.2 223.9, 300.7 232, 301.5 237.2 C 302.3 243.3, 311.8 259.4, 314.8 259.8 C 317.1 260.2, 319.5 256.8, 318.6 254.5 C 318.3 253.7, 314.6 248.6, 310.4 243.1 L 302.8 233.1 302 223.8 C 301.2 214.8, 299.6 207.6, 298 205.5 C 296.6 203.6, 295.8 200, 296.9 200 C 298 200, 304 212.2, 304.1 214.8 C 304.1 215.8, 304.4 216, 304.7 215.3 C 305.4 213.4, 302.2 203.1, 298.7 196.7 C 290.7 181.5, 268.4 171.3, 254.7 176.4 M 229.5 207.3 C 221 216.3, 209.3 230.9, 208.2 234 C 207.7 235.3, 212.1 230.3, 223.7 216.5 C 225.1 214.9, 229.7 210, 233.9 205.8 C 238.5 201, 240.8 198, 239.8 198 C 238.9 198, 234.3 202.2, 229.5 207.3 M 260.7 198.6 C 260 199.3, 263.2 201.2, 276.6 208 C 284.7 212.1, 293 219.1, 293 221.7 C 293 222.4, 293.5 223, 294 223 C 295.6 223, 295.2 222.1, 291.5 217 C 287.7 211.9, 282.8 208.4, 271.5 202.9 C 267.7 201, 264.4 199.2, 264.2 198.8 C 263.8 197.8, 261.6 197.8, 260.7 198.6 M 275.5 200.5 C 276.6 201.3, 277.9 202, 278.3 202 C 284 202.2, 292.8 210.1, 297.1 218.7 C 300 224.4, 300 224.4, 299.4 220.5 C 297.7 209.9, 289.1 201.8, 277 199.6 C 273.8 199, 273.7 199.1, 275.5 200.5 M 242.5 205.3 C 241.7 206.6, 240.5 209.1, 239.9 211 C 234.8 227, 227.3 236.2, 215 241.7 C 210.9 243.6, 206.2 245.7, 204.5 246.4 C 202.9 247.2, 199.4 248.6, 196.8 249.7 C 191.5 251.7, 190.1 253.5, 195.3 251.7 C 197 251, 198.7 250.2, 199 249.9 C 199.6 249.2, 208.3 247, 210.2 247 C 212.2 247.1, 204.8 250.6, 198.5 252.5 C 194.9 253.7, 192.6 253.9, 191.8 253.3 C 190.9 252.7, 189.7 252.7, 188.2 253.5 C 186.9 254.2, 186.3 255.1, 186.8 255.4 C 187.4 255.7, 188.1 255.6, 188.5 255 C 189.5 253.5, 191.3 253.8, 190.7 255.4 C 189.9 257.4, 195.5 256.4, 203.4 253.3 C 207.2 251.8, 209.7 251.4, 210.5 252 C 211.2 252.6, 212 252.2, 212.8 250.9 C 213.5 249.9, 214.7 249, 215.6 249 C 216.4 249, 216.8 248.5, 216.4 247.9 C 216 247.1, 216.4 247, 217.9 247.5 C 219.1 247.9, 220 247.7, 220 247.1 C 220 246.5, 219.5 246, 218.9 246 C 217.5 246, 229.8 236.7, 234.6 234.1 C 236.7 232.9, 239.1 232, 239.8 232 C 240.5 232, 241.3 231.4, 241.6 230.6 C 241.9 229.8, 242.7 229.3, 243.3 229.5 C 245.3 230.2, 248.2 225, 248.7 220.1 L 249.1 215.5 247 219.9 C 244.7 224.8, 241.1 228.3, 234.7 231.7 C 229.3 234.7, 229.2 234.3, 233.9 227.2 C 236.1 223.9, 238.9 219.3, 240 216.9 C 241.2 214.5, 242.5 211.8, 243 211 C 244.1 208.8, 245.3 203, 244.6 203 C 244.3 203, 243.4 204, 242.5 205.3 M 359 212.1 C 356.5 217.5, 351.5 224, 349.9 224 C 349.4 224, 347.7 222.2, 346.1 220 C 342.2 214.6, 341.9 215.6, 344.9 224.6 L 347.4 232.2 344.7 237.4 C 331.4 262.6, 314.6 278.4, 283.8 294.5 C 279.7 296.6, 279.2 297.5, 281.4 298.7 C 283 299.7, 286 305.3, 286 307.5 C 286 309.6, 286.7 309.4, 293.3 305.7 C 309.4 296.7, 325.1 283.4, 334.6 270.7 C 339.5 264.1, 351 243.4, 351 241.1 C 351 240.5, 351.8 238.7, 352.9 237.2 C 360.7 225.8, 365 216.9, 365 212.1 C 365 210.4, 364.1 211.5, 361.9 215.9 C 358 223.6, 357 223.1, 359.9 215 C 362.8 207.1, 362.2 205.2, 359 212.1 M 656 232 C 656 237, 656 237, 659.3 237 C 661 237, 664.3 237.4, 666.5 237.9 C 672.7 239.3, 684.7 240.2, 679.6 238.9 C 677.4 238.4, 675.2 237.6, 674.6 237.1 C 674 236.6, 672.4 235.9, 671.1 235.5 C 669.7 235.1, 665.8 233, 662.3 230.9 L 656 227 656 232 M 520 243.9 C 509.7 245.5, 502.6 248, 506.1 248.8 C 507 248.9, 512.1 248.4, 517.4 247.5 C 528.9 245.7, 551.5 245.5, 565.7 247.2 C 571.4 247.8, 576.3 248, 576.7 247.7 C 581.4 243, 542.3 240.4, 520 243.9 M 230.6 248.1 C 223.5 254.3, 224.2 262, 232.1 266.1 C 237.7 268.9, 246.7 268, 248 264.4 C 250.4 258.2, 245 251, 238.1 251 C 232.1 251, 229.4 255.4, 231.4 262 L 232.1 264.5 230.1 262.1 C 227.6 259.4, 227.5 257.2, 229.4 252.5 C 232 246.3, 238.3 245.1, 243.1 249.9 C 246.9 253.8, 247.8 252.1, 244.1 248.1 C 240.1 243.9, 235.4 243.8, 230.6 248.1 M 529.8 249.6 C 529.5 249.9, 527.3 250.1, 524.9 250.1 C 516.6 250.1, 515.1 250.8, 514.5 254.8 C 513.3 261.8, 512.1 263, 512.1 257.2 C 512 252.1, 511.9 251.9, 509.8 252.6 C 506.4 253.6, 505.6 254.5, 504.1 258.7 C 501 267.5, 491.4 287.6, 488.5 291.4 C 487.1 293.2, 486 295, 486 295.3 C 486 295.9, 492 293, 493 292 C 494.8 290.1, 517.1 286.3, 535.8 284.8 C 546.8 283.9, 549.9 283.3, 549.5 282.3 C 549.2 281.6, 548.7 280.3, 548.4 279.5 C 548 278.5, 548.4 278, 549.4 278 C 550.5 278, 551 278.9, 551 280.9 C 551 284.4, 551.8 284.6, 571.4 285.6 C 583.7 286.2, 584.3 286.1, 583.5 284.4 C 582 280.8, 581.8 278, 582.9 278 C 583.5 278, 584 278.9, 584 279.9 C 584 281, 584.5 282.2, 585 282.5 C 585.6 282.8, 586 284, 586 285.1 C 586 286.7, 586.7 287, 591 287 C 593.8 287, 596 286.8, 596 286.5 C 596 286.2, 593.8 283.2, 591 279.8 C 585.9 273.5, 580.6 263.7, 578.6 256.7 C 576.9 250.8, 574.6 250.5, 575.4 256.1 C 575.7 258.5, 575.7 259.8, 575.4 259 C 572.5 251.4, 572.4 251.3, 565.9 250.6 C 556.1 249.6, 554.2 249.8, 553.7 251.8 C 553.3 253.3, 553.2 253.3, 553.1 251.9 C 553 249.7, 544.3 248.8, 542.4 250.7 C 541.4 251.7, 541.1 251.7, 540.6 250.5 C 539.2 246.8, 531.9 249.8, 530.7 254.7 C 530.5 255.7, 530.4 254.8, 530.6 252.8 C 531 249, 530.9 248.5, 529.8 249.6 M 587 251.7 C 580.6 252.7, 580.3 252.9, 580.8 255.5 C 581 256.9, 581.6 258.3, 582.1 258.6 C 582.6 258.9, 583 259.8, 583 260.6 C 583 261.4, 584 264.3, 585.2 266.9 L 587.5 271.7 608.1 271.6 L 628.8 271.5 629.2 264.3 C 629.5 260.3, 630.3 256.4, 631 255.5 C 632.5 253.7, 632.5 253.6, 628.1 252.1 C 624.9 251.1, 593.1 250.7, 587 251.7 M 200.7 255.7 C 200.3 256, 200 257.3, 200 258.4 C 200 260.5, 190.6 271, 188.9 271 C 187.6 271, 187.8 268.6, 189.2 267.2 C 190.1 266.3, 190.1 266, 188.9 266 C 188 266, 186.5 266.9, 185.6 267.9 C 183.8 269.8, 183.9 269.9, 187.6 271.5 L 191.5 273.1 194.7 269.4 C 197.5 266.1, 197.8 266, 197.3 268.1 C 196.7 270.2, 196.9 270.3, 198.2 269.2 C 199.1 268.5, 200 266.6, 200.4 264.9 C 201.1 261.3, 203.7 261.5, 203.2 265.1 C 202.7 269, 200.8 272, 198.8 272 C 197.8 272, 197 272.5, 197 273.1 C 197 273.7, 198.2 274, 199.7 273.8 C 201.8 273.6, 202.6 272.6, 203.9 269.3 C 204.7 266.9, 206.2 264.7, 207.2 264.4 C 208.2 264.1, 209 263, 209 261.9 C 209 260.8, 208.5 260.2, 208 260.5 C 206 261.7, 203 259.9, 203 257.4 C 203 255.1, 202 254.3, 200.7 255.7 M 651.8 271.5 C 651.5 275.9, 650.5 283.3, 649.6 288 C 648.7 292.7, 647.3 299.7, 646.6 303.5 C 645.8 307.4, 644.6 313.1, 644 316.3 C 642.6 322.6, 642.9 323.6, 645.7 322.3 C 646.7 321.8, 649.1 321.7, 651 322 L 654.5 322.6 651 323.3 C 649.1 323.7, 646.2 324.1, 644.6 324.2 C 641.9 324.5, 641.6 325, 637.4 337.7 C 632.9 351.5, 629.4 359.3, 623.5 368.4 L 620.1 373.8 623.8 372.5 C 625.8 371.8, 628.4 370.8, 629.5 370.4 C 630.6 370, 631.8 369.6, 632.3 369.5 C 632.7 369.3, 633.1 369.2, 633.3 369.1 C 633.4 369, 638.9 368.6, 645.5 368.3 C 657.4 367.8, 662.3 368.4, 673 371.4 C 676 372.2, 678.6 372.8, 678.8 372.6 C 679 372.4, 677.4 368.5, 675.2 363.9 C 673 359.3, 671 354.8, 670.7 353.9 C 670.4 353.1, 668.4 351.8, 666.1 351 C 663.8 350.3, 662 349.3, 662 348.8 C 662 347.6, 665.4 347.8, 666.8 349.2 C 669.1 351.5, 669.4 348.9, 667.5 343.5 C 666.5 340.4, 665.1 337.5, 664.4 336.9 C 663.8 336.4, 663.4 335.2, 663.6 334.2 C 663.9 333.3, 663.4 329.1, 662.6 325 C 658.8 305, 654.7 281.1, 653.2 269.5 L 652.4 263.5 651.8 271.5 M 176.6 278.1 C 173.2 282.9, 165.7 288, 158 290.6 C 151.8 292.7, 137.6 292.9, 132.6 291.1 C 126.7 288.8, 112.8 288.6, 106.4 290.6 L 100.5 292.5 111 293.1 C 116.8 293.4, 123.3 294.3, 125.5 295.1 C 132.1 297.3, 151.1 296.9, 158.8 294.2 C 167.6 291.2, 174.7 287, 180 281.5 C 184.3 277.1, 184.4 276.8, 182.6 275.4 C 179.9 273.5, 179.9 273.5, 176.6 278.1 M 592.9 274.8 C 591.5 275.4, 592 276.4, 596 280.9 C 600.6 286.1, 600.8 286.2, 604.8 285.5 L 609 284.8 609 279.4 L 609 274 601.8 274.1 C 597.8 274.1, 593.8 274.4, 592.9 274.8 M 613 279.5 L 613 285 616.3 285 C 618 285.1, 622.5 285.7, 626.3 286.4 L 633 287.7 633 282.3 C 633 277.7, 632.8 277, 631 277 C 629.5 277, 629 277.7, 629 279.5 C 629 281.1, 628.4 282, 627.4 282 C 626.1 282, 625.9 281.2, 626.2 278.5 C 626.7 274.4, 626 274, 618.4 274 L 613 274 613 279.5 M 275.7 278.3 C 272.3 283.5, 259.3 284.5, 251 280.1 C 242.7 275.8, 241.7 279.9, 249.1 287.6 C 256.8 295.4, 265.9 298, 271.8 293.9 C 273.5 292.7, 272.6 292.5, 265.4 292.9 L 257 293.2 250.9 287 C 247.6 283.6, 245 280.6, 245.3 280.4 C 245.5 280.2, 248.4 281.2, 251.6 282.7 C 258.9 286, 266.2 286.8, 271.2 284.7 C 275 283.1, 278.5 279, 277.8 276.9 C 277.6 276.2, 276.7 276.9, 275.7 278.3 M 183.3 281.9 C 179.5 286.4, 168.5 293.9, 162 296.3 C 151.1 300.5, 129.3 300.7, 119 296.8 C 114.5 295.1, 97.1 295.6, 89 297.8 C 81.1 299.8, 68.6 305.2, 67.5 307.1 C 67.1 307.7, 68.3 307.4, 70 306.5 C 76.2 303.3, 83.2 303.1, 101.5 305.7 C 110.8 307, 120.3 307.9, 122.5 307.6 C 161.4 302.6, 177.3 297.2, 187.8 285.5 C 192.4 280.3, 192.7 279.5, 190.4 278.6 C 187.6 277.5, 186.5 278, 183.3 281.9 M 189.6 287.4 C 177.7 299.7, 169.4 303.2, 142 307.5 C 137.3 308.2, 130.5 309.4, 126.8 310.1 C 119.8 311.3, 115.4 311, 95.6 307.6 C 79.4 304.8, 63.5 309.3, 57.7 318.2 C 55.2 322.2, 55.6 324, 58.2 320.3 C 65.4 310.3, 83.9 307.6, 111.5 312.6 C 126.4 315.3, 142 315, 151 311.8 C 155.1 310.3, 162.3 308.2, 167 307 C 187.8 301.8, 198.8 296, 205.7 286.7 L 208 283.6 205.2 281.8 C 200 278.4, 197.5 279.3, 189.6 287.4 M 523.5 289.5 C 519.1 290.3, 512.8 291.6, 509.5 292.4 C 493.9 296.3, 494 296.3, 495.1 297.7 C 496 298.7, 495.9 299, 494.9 299 C 494.1 299, 492.9 299.9, 492.2 301 C 490.2 304.3, 493.3 304.6, 498.6 301.6 C 501.2 300.2, 503.8 299, 504.5 299 C 505.3 299, 506 298.7, 506.2 298.2 C 506.6 297.3, 518.6 293.5, 526 292 C 531.9 290.7, 582.1 291.2, 589.4 292.5 C 592.4 293.1, 593.2 293, 592.8 291.9 C 591.8 289, 537 287.1, 523.5 289.5 M 603.1 288.7 C 597.1 289.9, 592.7 297, 597.9 297 C 599 297, 600.1 297.8, 600.4 298.8 C 600.9 300.3, 602.1 300.5, 609.2 300.2 C 615.5 299.9, 619 300.4, 623.5 301.9 C 630.8 304.3, 631.4 303.8, 631.5 296.3 L 631.5 290.6 627.5 289.9 C 621.7 288.8, 605.9 288.1, 603.1 288.7 M 526.8 294.6 C 522.1 295.3, 515.6 296.8, 512.4 297.8 C 506.9 299.6, 506.7 299.9, 508.9 300.7 C 511 301.6, 510.6 301.8, 505.7 302.3 C 498 303.1, 497.5 303.6, 501.4 307.1 L 504.8 310 509.6 307.9 C 515.5 305.4, 532 303.8, 539.8 305 C 545.6 306, 553 308.9, 553 310.2 C 553 311.6, 549.7 311.1, 546.5 309.3 C 544.1 307.9, 540.9 307.6, 530 307.6 C 514.3 307.6, 509.4 309, 508.7 313.7 C 508.3 316.4, 508.3 316.4, 507.5 314.3 C 506.5 311.1, 505.1 311.4, 504.4 315 C 504 316.6, 503.4 317.7, 502.9 317.4 C 502.4 317.1, 502 320.3, 502 324.5 C 502 332.7, 503.9 334.7, 505.1 327.9 C 505.7 324.9, 505.8 324.8, 505.9 327.3 C 506.1 332.8, 511.4 330, 511.8 324.1 C 512.2 318.4, 514.5 314.5, 518.9 312.4 C 520.9 311.5, 523.3 310.3, 524.2 309.9 C 525.2 309.4, 526.8 309, 527.7 309 C 529.3 309, 529.3 309.2, 527.4 310.8 C 525.5 312.3, 525.4 313.3, 525.8 320.3 C 526.4 330.4, 529 330.7, 529 320.7 C 529 318.4, 529.3 315.5, 529.6 314.3 C 530.4 311.5, 533 311.3, 533 314 C 533 315.4, 533.5 315.8, 534.7 315.3 C 536.1 314.7, 536.2 315.4, 535.8 321.3 L 535.2 328 540.6 328 C 546.5 328, 546 328.6, 547.7 319 C 549 312.2, 552.3 311.9, 551.3 318.7 C 550.2 326.3, 550.4 327.4, 552.3 327.8 C 553.9 328.1, 554.1 327.5, 553.9 322.3 C 553.6 314.9, 554.2 314, 559.1 314 C 563.7 314, 564.5 315.2, 564.4 322.3 C 564.3 329, 563.4 329.5, 553.3 329.2 L 544.7 328.9 545.3 331.9 L 546 335 538.2 334.9 C 530.1 334.9, 530.5 333.2, 538.8 333.1 C 542.1 333, 543 332.6, 543 331.2 C 543 329.6, 542.3 329.5, 533.8 330.2 C 528.7 330.7, 524.3 331.5, 524.2 332 C 524 332.6, 523.3 332.7, 522.7 332.3 C 522.1 331.9, 520.9 331.5, 520 331.4 C 511.5 330.6, 509.3 330.9, 506 333.5 C 504 335.1, 500.2 336, 498.4 335.3 C 497.3 334.9, 497.1 333.4, 497.6 328.2 L 498.3 321.7 494.4 322.5 C 486.5 323.9, 483.8 325.7, 484.4 328.7 C 485.5 333.9, 487 355.9, 486.4 357.4 C 485.3 360.2, 486.9 360.7, 492.2 359.2 C 495.1 358.4, 500.4 357.3, 504 356.6 C 507.6 356, 511 355.2, 511.5 354.8 C 514.4 352.9, 553 351.8, 591.5 352.4 C 598.4 352.5, 598.5 352.5, 598.8 349.8 C 599 348.2, 598.8 347, 598.3 346.9 C 597.9 346.9, 596.6 346.6, 595.5 346.4 C 589 344.9, 549.4 344, 538 345 C 520.9 346.6, 509.3 347.1, 512.5 346 C 515.4 345, 532.6 343.6, 557.3 342.4 C 563.9 342.1, 573.5 342.3, 578.8 342.9 C 584.2 343.5, 590.8 344.1, 593.6 344.3 L 598.7 344.7 598.6 340.9 C 598.5 335.8, 598.8 335.8, 574.8 335.2 C 561.4 334.9, 554.3 334.4, 554.7 333.7 C 555 333.2, 557.9 333, 561.5 333.3 C 568.2 333.8, 570.3 333.2, 569.8 330.9 C 569.3 328.4, 574.4 328.6, 575.5 331.2 C 576.4 333.2, 577.4 333.5, 583.5 333.9 C 595.8 334.6, 597.5 334.5, 597.8 333.5 C 598.2 332.1, 594.5 331.2, 587.7 331.1 C 581.1 331, 581.3 331.2, 580.2 321.8 C 579.3 314.1, 579.8 313, 584.6 313 C 589.3 313, 590.4 315, 589.6 322.2 L 589 328.3 592.7 327.7 C 594.8 327.3, 596.9 327.5, 597.7 328.2 C 598.8 329, 599 327.7, 599 321.3 C 599 314, 598.8 313.2, 596.8 312.3 C 590.3 309.2, 575.9 306.7, 568.2 307.4 C 562.6 307.9, 562 307.8, 563 306.5 C 565.3 303.8, 579.1 304.6, 588.8 308 C 595.6 310.3, 597.2 310.6, 597.7 309.4 C 598.8 306.5, 597 305.4, 588.3 303.2 C 573.6 299.6, 564.8 300.2, 559.2 305.3 C 557.7 306.7, 556.6 307, 556 306.4 C 553.9 304.3, 564.6 297, 569.7 297 C 573.4 297, 588.7 300.4, 592.7 302.1 C 596.4 303.6, 597.7 302.9, 596 300.3 C 594.9 298.6, 594.9 298.6, 595.4 300.3 C 595.8 301.5, 595.6 302, 594.8 301.7 C 594.1 301.5, 593.6 300.3, 593.7 299.1 C 593.9 297.9, 593.6 297.1, 593.1 297.5 C 592.6 297.8, 591.9 297.6, 591.6 297.1 C 589.7 294.2, 542.6 292.4, 526.8 294.6 M 526 298.1 C 523 298.6, 518.5 299.2, 516.1 299.6 C 513.4 299.9, 512.1 300.5, 512.7 301.1 C 513.3 301.7, 517.3 301.6, 523.6 300.9 C 534.5 299.7, 546.5 300.4, 551.6 302.5 C 555.1 304, 557 303, 554.5 301 C 550.4 297.6, 537.6 296.3, 526 298.1 M 606.6 302.9 C 604.4 303.2, 602.5 304, 602.3 304.6 C 601.8 306.1, 606.1 307.2, 607.6 305.9 C 608.5 305.2, 609.1 305.4, 609.9 306.7 C 610.9 308.4, 610.9 308.4, 611 306.8 C 611 305.8, 611.5 305, 612.1 305 C 612.8 305, 613.9 305.8, 614.6 306.8 C 615.9 308.4, 616 308.4, 615.4 306.8 C 614.7 304.7, 616.9 304.3, 618.8 306.2 C 620.7 308.1, 620.2 309.8, 617.6 309.8 C 616.2 309.8, 612.8 310.6, 609.9 311.6 C 602.5 314.3, 602.3 314.8, 601.6 346 C 600 415.1, 600.1 417.3, 605 414 C 606.2 413.2, 606.3 412.9, 605.1 412.1 C 603.6 411.1, 604.3 410.6, 608.2 409.6 C 611.8 408.8, 612.7 410.6, 610.1 413.4 C 608.9 414.6, 608 416.4, 608 417.3 C 608 418.3, 607.2 419, 606 419 C 604.7 419, 604.2 418.5, 604.6 417.5 C 605 416.5, 604.6 416, 603.2 416 C 601.6 416, 600.9 416.9, 600.4 419.7 C 599.8 422.7, 600.6 443, 601.3 443.6 C 601.4 443.7, 605.7 444, 610.8 444.2 L 620 444.7 620 440.1 C 620 427.2, 618.8 419, 616.8 419 C 615.2 419, 615.1 418.7, 616.2 417 C 617.1 415.6, 617.2 414.7, 616.5 414.2 C 615.9 413.8, 614.6 411.6, 613.6 409.4 C 612.6 407, 611.2 405.3, 610.3 405.4 C 607.9 405.6, 608.6 377.4, 612 341.5 C 613.2 328, 616.5 318.5, 622.6 310.3 C 623.9 308.6, 625 306.7, 625 306.1 C 625 303.9, 613 301.8, 606.6 302.9 M 224 308.7 C 224 309.3, 223.1 310.1, 222 310.5 C 218 311.8, 203.3 331.8, 188.8 355.8 C 185.1 362, 181 368.4, 179.8 370.2 C 178.3 372.2, 177.9 373.4, 178.7 373.7 C 179.3 373.9, 181.1 375.2, 182.7 376.6 L 185.5 379 187.8 376.3 C 189 374.7, 191.2 371.5, 192.7 369 C 194.2 366.5, 197 362.3, 199 359.5 C 201 356.8, 205.1 350.5, 208.2 345.5 C 214.1 336.2, 225.1 324, 227.7 324 C 228.5 324, 226.7 326.7, 223.3 330.4 C 216.1 338.2, 214.2 341.6, 215.8 343.2 C 217.1 344.5, 225.4 339.4, 230.4 334.1 C 232.9 331.5, 233.2 330.8, 232.2 328.3 C 231.6 326.8, 230.2 322.4, 229.1 318.5 C 227.2 312, 224.1 306, 224 308.7 M 518.2 319 C 515.3 320.8, 514.9 321.5, 515.2 324.8 C 515.5 328.4, 515.6 328.5, 519.8 328.6 C 523.8 328.8, 524.1 328.6, 523.6 326.6 C 523.3 325.5, 523 322.8, 523 320.8 C 523 316.4, 522.7 316.3, 518.2 319 M 177.5 320.6 C 155 325.1, 142 329, 142 331.1 C 142 331.8, 142.9 331.6, 144.5 330.6 C 148.5 328, 150.1 328.5, 148.9 331.9 C 148.3 333.6, 148 335.9, 148.3 337.2 C 148.7 339.3, 148.7 339.2, 148.9 336.8 C 149.1 331.8, 155.3 328.7, 173 324.5 C 177.1 323.5, 182.5 322.1, 185 321.4 L 189.5 320.1 184.5 320.2 C 181.8 320.2, 178.6 320.4, 177.5 320.6 M 198 324.9 C 197.2 325.4, 194.5 326.1, 192 326.5 C 189.5 326.9, 184.9 329, 181.6 331.1 C 178.3 333.3, 174.5 335, 173.2 335 C 171.9 335, 171.2 335.4, 171.5 336 C 172.5 337.7, 178.1 337.1, 182.7 334.9 C 185.1 333.8, 186.7 332.4, 186.4 331.8 C 186 331.2, 186.5 331, 187.9 331.5 C 189.4 331.9, 190 331.7, 190 330.7 C 190 329.8, 191.4 329, 193.4 328.6 C 196.8 328, 203 325.3, 203 324.4 C 203 323.7, 199.6 324, 198 324.9 M 364.6 334 C 364.2 337.3, 363.5 341.2, 363 342.7 C 362.6 344.3, 361.2 350, 359.9 355.5 C 356.1 372.9, 349.3 397.8, 348 399.5 C 347.6 400.1, 346.1 403.7, 344.8 407.7 C 343.4 411.7, 341.7 415.6, 341 416.5 C 339.2 418.6, 340.2 419.3, 343.4 418 C 344.9 417.5, 347.5 417, 349.3 417 C 351.7 417, 352.1 416.7, 351.2 415.8 C 349.3 413.9, 349.7 410, 351.8 410 C 353.9 410, 359.4 415.3, 358.3 416.3 C 358 416.7, 359.7 417, 362.2 417 C 366.4 417, 367 416.7, 368.9 413.5 C 371.4 409.2, 373.5 409.1, 375.8 412.9 C 376.7 414.5, 379.1 416.6, 381.2 417.5 C 383.3 418.4, 384.8 419.5, 384.5 420 C 383.6 421.5, 379 421.7, 377.9 420.4 C 377.3 419.6, 376.2 419, 375.5 419 C 374.7 419, 374.4 418.2, 374.7 417.1 C 375.5 413.8, 372.9 413.5, 370.5 416.6 L 368.2 419.5 357.5 419.2 C 351.6 419.1, 346.3 419.4, 345.6 419.9 C 345 420.4, 343 421.1, 341.3 421.5 C 337.4 422.3, 337.3 423, 340.2 430.1 C 343.1 437.4, 344.3 438.4, 343.8 433.5 C 343.4 428.7, 345.9 427.8, 347.4 432.2 C 348.2 434.4, 348 435.3, 346.8 436.2 C 345.4 437.3, 345.3 438.3, 346.2 443 C 346.8 446.1, 347 455.6, 346.7 465 C 346.2 482, 344.5 489.5, 338.5 500.2 C 336.4 503.8, 336.3 503.7, 342.4 503.2 C 348.8 502.7, 350.4 504.4, 349.8 511.5 L 349.5 515.8 353.5 516.4 C 355.7 516.8, 363.8 517.7, 371.5 518.5 C 379.2 519.3, 386.6 520.2, 387.8 520.6 C 389.9 521.2, 390.1 521, 389.8 518.9 C 389.7 517.6, 388.9 516.4, 388.3 516.4 C 387.6 516.3, 386.1 516.2, 385 516.1 C 383.6 516, 383 515.3, 383 513.5 C 383 511.5, 382.5 511, 380.5 511 C 377.8 511, 377.2 508.9, 379.3 507.1 C 381.8 505.1, 386 474.9, 387.5 448.3 L 388.2 436.1 382.4 435.8 L 376.5 435.5 376.8 431 C 377.3 424.8, 380 421.9, 380 427.6 L 380 431.7 387.2 432.3 C 395.7 433, 394.9 433.5, 395.2 427.5 C 395.5 422.9, 395.4 422.6, 392.5 421.9 C 389 420.9, 387.9 418.7, 384.5 406.7 C 383.2 402.2, 381.2 395.1, 380 391 C 378.8 386.9, 377.5 381.7, 377 379.5 C 376.5 377.3, 375.4 372.6, 374.5 369 C 372.3 360.1, 370.4 350.4, 368.4 338.3 C 366.5 326.5, 365.5 325.5, 364.6 334 M 228 350.1 C 219.5 355, 216.8 358.1, 208.8 373 C 201.7 386, 198.5 391.7, 193.2 400.5 C 173.1 433.8, 131.7 481, 117 487.3 C 115.6 487.9, 114.3 488.5, 114.1 488.7 C 113.7 489, 130.3 507, 131 507 C 131.3 507, 132.9 504.8, 134.6 502.2 C 147.4 482.8, 159 465.6, 162.7 460.8 C 165 457.7, 167 454.9, 167 454.5 C 167 454.2, 167.9 452.7, 168.9 451.2 C 169.9 449.7, 173.4 444.5, 176.5 439.5 C 179.7 434.6, 184.4 427.3, 186.9 423.3 C 189.4 419.4, 196 409.1, 201.5 400.5 C 207 391.9, 216.4 377.5, 222.3 368.4 C 232.7 352.5, 235.8 347, 234.2 347 C 233.8 347, 231 348.4, 228 350.1 M 279.4 356.8 C 281.2 360.5, 283.9 366, 285.3 369 C 290.2 379.5, 305.6 422.3, 307.9 431.8 C 308.9 435.9, 313 450.8, 318.3 470 C 320.2 476.9, 322.1 484.1, 322.5 486 C 323.8 493, 326.5 500.6, 328.8 504.4 L 331.2 508.2 333.6 504.4 C 340.7 492.8, 344.4 475.6, 343.8 457.1 C 343.5 445.1, 343.3 444, 340.8 440.8 C 338.3 437.6, 335 429.4, 335 426.6 C 335 425.8, 334.4 425, 333.7 424.7 C 333 424.5, 329.3 419, 325.5 412.5 C 321.6 406.1, 317.6 399.4, 316.6 397.7 C 312.7 391.1, 307.4 383.3, 302.6 377 C 297.2 369.9, 278.1 350, 276.8 350 C 276.3 350, 277.5 353, 279.4 356.8 M 546.8 354.1 C 545 354.5, 537.8 355.1, 530.8 355.5 C 523.7 355.9, 518 356.5, 518 356.9 C 518.1 359.8, 519.9 360.2, 531.6 359.5 C 547 358.5, 588.3 358.5, 593.8 359.4 C 597.8 360.1, 598 360.1, 598 357.6 C 598 355, 597.9 355, 590.3 354.9 C 586 354.9, 581.2 354.7, 579.6 354.6 C 577.9 354.5, 576.6 355, 576.2 355.9 C 575.8 357, 575.5 356.9, 574.9 355.3 C 573.8 352.2, 562.3 352.1, 561 355.3 C 560.2 357.3, 560.1 357.3, 560.1 355.5 C 560 353.3, 554 352.7, 546.8 354.1 M 513.7 356.7 C 513.3 357.1, 509.7 357.9, 505.7 358.6 C 494.7 360.6, 488 362.2, 488 362.9 C 488 363.7, 501.8 363.1, 504 362.3 C 504.8 362, 506.9 361.8, 508.5 361.9 C 513.4 362.2, 516.9 360.5, 516.3 358.1 C 515.8 355.9, 514.9 355.5, 513.7 356.7 M 515.1 364.5 C 510 365.2, 505.3 366.3, 504.6 367 C 503.3 368.3, 503.6 433.1, 505 444.5 C 505.5 448.3, 505.7 451.7, 505.4 452.1 C 504.6 453.5, 501 451.7, 501 449.9 C 501 447.2, 499.2 446.6, 498.8 449.2 C 498.3 452.9, 491 453.2, 491 449.6 C 491 445.8, 487.3 446, 486.8 449.8 C 486.4 453.3, 482.7 453.7, 482.2 450.3 C 481.6 446.2, 479 447.6, 479 451.9 C 479 454.1, 478.7 456.6, 478.4 457.4 C 477.8 458.9, 479.8 459, 498 458.8 L 518.2 458.5 520 453 C 521.1 450, 522.4 446.7, 523 445.8 C 525.7 441.2, 527.6 429.4, 528.9 409 C 530.3 388, 530.3 367.4, 529 364.9 C 527.8 362.8, 528.1 362.8, 515.1 364.5 M 492.4 366.5 C 493.5 367.3, 495.2 368, 496.2 368 C 498.5 368, 498.5 368.8, 496.3 371.3 C 494 373.8, 494 385.7, 496.3 413.7 C 499.9 458.7, 501 457.1, 501 407.1 L 501 368.2 497.6 366.6 C 493 364.4, 489.6 364.4, 492.4 366.5 M 636 373 C 625.2 375, 620 376.5, 615.2 378.6 C 609.7 381.2, 612.2 381.3, 623.2 379 C 637.9 375.9, 654.8 375.3, 668.8 377.4 C 681.4 379.3, 684.9 378.7, 676.9 376 C 662.7 371.2, 650.5 370.3, 636 373 M 550.9 374.1 C 549.1 375.9, 548.9 377.1, 549.2 384.8 L 549.5 393.5 553.8 393.7 L 558 393.8 558 385.1 C 558 373.4, 555.5 369.5, 550.9 374.1 M 168 377 C 159.3 377.5, 158.7 377.6, 160.7 379 C 162.3 380, 162.6 380.7, 161.8 381.7 C 161 382.6, 161.1 383, 162 383 C 163 383, 163 383.3, 162 384.5 C 161.3 385.3, 160.1 386, 159.2 386 C 158.4 386, 158 386.3, 158.3 386.7 C 158.7 387, 160.7 386.5, 162.8 385.6 C 164.9 384.6, 167 384, 167.6 384.1 C 168.1 384.2, 169.3 384, 170.3 383.6 C 172.9 382.4, 175.2 383.7, 174.5 385.9 C 174.2 387, 174.5 388.2, 175.1 388.6 C 175.8 389, 176 388.9, 175.7 388.2 C 175.3 387.7, 175.3 386.4, 175.6 385.5 C 176.2 384.1, 176.5 384.2, 178.7 386.2 C 180.7 388.1, 181.2 388.2, 182 387 C 184.3 383.5, 182.5 378.5, 178.5 376.9 C 178 376.7, 173.2 376.7, 168 377 M 633.5 380.1 C 633.2 380.5, 630.9 381.2, 628.5 381.6 C 623.9 382.2, 622.3 384, 626.3 384 C 627.5 384, 633.4 383.5, 639.3 383 C 649.7 382, 673.4 383.1, 677.6 384.7 C 681 386, 677.9 383, 674.2 381.3 C 670.2 379.5, 634.5 378.4, 633.5 380.1 M 636.5 385.6 C 619.4 388, 613 389.4, 612.9 390.9 C 612.5 397.9, 613.5 404.2, 615.5 408.7 C 618.8 415.9, 619.5 415.8, 619.2 408.2 C 618.9 399.9, 620.4 396.6, 624.6 396.2 C 628.9 395.8, 630.7 398.4, 632.1 407 C 633.4 415.8, 633.7 416.5, 635.6 414.9 C 636.6 414.1, 637 411.5, 637 406.4 C 637 402.1, 637.4 399, 638 399 C 638.6 399, 639 398.4, 639 397.7 C 639 395.5, 642.6 392.8, 645.1 393.2 C 649.4 393.8, 652 399.3, 652 407.7 C 652 414.3, 652.2 415.1, 653.7 414.8 C 655.1 414.6, 655.7 413.1, 656.2 408.8 C 657 402.6, 660.2 395.2, 662.5 394.4 C 663.3 394.1, 665.3 394.8, 667 396 C 670.1 398.2, 670.1 398.2, 669.9 406.9 C 669.7 414.9, 669.8 415.5, 671.7 415.8 C 674.2 416.2, 676.1 408.6, 676.7 395.9 L 677.1 388.3 672.5 387.1 C 667.8 385.9, 641.9 384.8, 636.5 385.6 M 642.7 397.4 C 642.3 398.4, 641.7 402.6, 641.3 406.6 L 640.7 414 645 414 L 649.2 414 648.6 408.3 C 647.6 399.8, 647 397, 645.9 397 C 645.4 397, 645 397.8, 644.9 398.8 C 644.8 399.9, 644.5 399.6, 644.1 398 C 643.5 395.7, 643.3 395.7, 642.7 397.4 M 635.5 417.8 C 633.9 417.9, 630.1 418.3, 627.3 418.6 L 622.1 419.1 622.2 441.9 L 622.4 464.7 642.4 464.7 L 662.5 464.8 662.7 441.5 L 662.9 418.3 652.8 417.6 C 647.2 417.3, 642.4 417.3, 642 417.7 C 641.7 418.2, 641.7 425.5, 642 434 C 642.3 442.5, 642.4 449.9, 642.1 450.4 C 640.9 452.8, 639.7 445.2, 639.1 432 L 638.5 417.5 635.5 417.8 M 551 420.4 C 550.4 422, 548.5 425.4, 546.8 427.9 C 540.5 437.2, 536.7 446, 534.9 455.2 C 533.1 463.9, 532.7 479.8, 534 483 C 535.5 486.6, 534.4 488.9, 532.4 486.3 C 531.6 485.2, 531 481.6, 530.9 477 C 530.8 472.7, 530.5 470.6, 530.1 472 C 529.1 476.1, 527.8 477.5, 522.6 480.1 C 517.4 482.6, 515 485.3, 515 488.4 C 515 490.1, 515.5 490.2, 521.1 489.6 C 524.5 489.3, 539.2 489, 553.7 489 C 578.5 489, 580 488.9, 579.2 487.3 C 578.7 486.3, 578 482.8, 577.6 479.5 C 574.3 450.2, 571.2 442.3, 554 420 L 552.1 417.5 551 420.4 M 368 462.9 C 368 493.9, 367.8 500.2, 366.6 500.6 C 365.8 500.9, 364.6 502.5, 364 504.1 C 363.3 505.7, 362.2 506.9, 361.6 506.7 C 360.7 506.5, 356 498.4, 354.7 494.7 C 353.4 491.1, 353 495.6, 354.2 499.5 C 355.6 503.7, 355.6 504, 353.9 504 C 348.6 504, 352.2 507, 359.5 508.6 C 361.2 509, 363.1 509.7, 363.8 510.3 C 365.3 511.5, 367 509.7, 367 506.8 C 367 505.7, 367.8 505, 368.9 505 C 370.5 505, 370.9 505.8, 371.2 509.6 C 371.7 516.9, 375.7 518.6, 376.6 511.9 C 377.3 506.5, 376.1 503, 372.8 501 L 369.8 499.2 369.9 467.4 C 370.1 440.2, 370.3 435.4, 371.6 434.7 C 372.6 434.1, 372.8 433.5, 372.2 432.7 C 371.6 432, 371 430.4, 370.8 429.1 C 370.7 427.7, 369.9 426.5, 369.3 426.2 C 368.3 425.9, 368 433.7, 368 462.9 M 547.2 432.3 C 542.9 438, 541.7 440.7, 542.9 441.4 C 543.4 441.7, 545.2 439.6, 547 436.7 C 548.9 433.6, 550.5 432.1, 550.8 432.8 C 551 433.6, 550.7 434.7, 550.1 435.3 C 549.5 435.9, 549 437.5, 548.9 439 C 548.9 440.4, 548.6 440.9, 548.3 440.2 C 547.6 438.3, 546 439.8, 546 442.6 C 546 444.3, 546.6 445, 547.9 445 C 549.3 445, 549.7 445.5, 549.3 447 C 548.7 449.1, 546.1 449, 543.3 446.8 C 542.3 446, 542 447.1, 542 452 C 542 456.9, 542.3 458, 543.3 457.2 C 544.2 456.4, 544.5 457.1, 544.5 460.2 C 544.5 463.9, 544.4 464.1, 541.8 463.6 C 539.3 463.1, 539.2 463.3, 538.7 467.8 C 538.5 470.4, 537.7 475.1, 537 478.3 C 535.7 484.3, 536 486, 538.3 484.2 C 539.1 483.5, 541.2 483.3, 543.3 483.7 C 545.7 484.1, 547 483.9, 547 483.1 C 547 482.5, 545.3 482, 542.9 482 C 539 482, 538.8 481.9, 539.4 479.5 C 541.1 472.9, 544 468.7, 544 472.9 C 544 474.1, 543.6 475, 543.2 475 C 542.7 475, 542.5 476.4, 542.8 478 C 543.4 482.3, 545.8 481.8, 546.5 477.3 C 546.8 475.2, 547.6 472.7, 548.1 471.7 C 549.5 469.1, 548.2 467.8, 544.5 468.2 C 542.6 468.4, 541.4 468.2, 541.6 467.8 C 541.9 467.4, 544.1 467, 546.6 467 L 551 467 551 475.9 C 551 482.9, 551.3 485, 552.6 486.1 C 554.1 487.4, 554.2 486.6, 553.8 477.2 L 553.3 467 556.7 467 C 559 467, 560 467.5, 560 468.5 C 560 469.3, 560.4 470, 560.9 470 C 561.4 470, 562.1 473.2, 562.5 477 C 562.9 480.9, 563.6 484, 564 484 C 565.4 484, 566.8 481.5, 567.4 477.8 C 569.2 466.3, 569.4 467.3, 565.8 467.6 C 562.8 467.9, 562.7 467.9, 565 467.1 C 569.9 465.4, 570 465.5, 570 474.5 C 570 482.3, 570.2 483, 572 483 C 574.3 483, 574.3 483.1, 572.7 472.1 C 571.5 464, 571.3 463.7, 568.7 463.6 C 567.2 463.5, 566 463.8, 566 464.2 C 566 464.6, 565.3 465, 564.5 465 C 563.3 465, 563 463.6, 563 458 C 563 451.8, 563.2 450.9, 565.4 449.5 C 567.8 447.9, 567.8 447.8, 566.2 443.7 C 563.6 436.6, 555.7 427, 552.5 427 C 551.7 427, 549.3 429.4, 547.2 432.3 M 553.9 433.8 C 553.8 435.1, 554.1 448.5, 554.3 448.6 C 554.4 448.7, 556.4 449, 558.8 449.3 L 563 449.8 563 446.4 C 563 442.2, 560.5 437, 558.5 437 C 557.7 437, 557 436.4, 557 435.6 C 557 434.2, 554.1 432.5, 553.9 433.8 M 600 452 C 600 456.9, 601.3 457.7, 611.3 458.6 L 619 459.3 619 456.8 C 619 455.4, 619.3 452.8, 619.6 451.1 L 620.3 448 610.1 448 L 600 448 600 452 M 601 475.5 C 601 489.4, 601.2 491.1, 602.8 491.7 C 603.7 492.1, 605 493.1, 605.7 493.9 C 606.3 494.8, 607.2 495.2, 607.6 494.7 C 608 494.3, 607.8 493.4, 607.2 492.8 C 606.5 492.1, 606 490.8, 606 489.9 C 606 489, 605.1 485.4, 604 481.9 C 601.3 473.4, 602.1 472.2, 605.6 479.5 C 607.2 482.8, 608.8 485.7, 609.1 486 C 609.4 486.3, 609.9 487.3, 610.3 488.3 C 611.7 492.1, 612.7 488.8, 611.8 483.3 C 611.3 480.1, 611 473.8, 611.2 469.3 C 611.5 460.1, 611.5 460, 604.9 460 L 601 460 601 475.5 M 389 470.1 C 389 472.5, 388.5 477.2, 387.9 480.5 C 386.4 488.8, 384.2 505.4, 384.5 505.8 C 384.6 505.9, 387.7 506.3, 391.4 506.7 C 399.3 507.4, 399.4 507.1, 395.5 495.7 C 394.2 491.7, 392.4 483.6, 391.5 477.5 C 389.7 465.4, 389 463.4, 389 470.1 M 629.5 468 C 626.8 468.5, 622 468.9, 618.9 468.9 L 613.3 469 614.3 474.3 C 614.8 477.1, 615.6 481.5, 616 484 C 616.4 486.5, 616.8 487.7, 616.9 486.8 C 616.9 485.8, 617.4 485, 618 485 C 618.5 485, 618.7 485.7, 618.3 486.6 C 617.9 487.8, 618.3 488.1, 620.6 487.8 C 623.4 487.5, 623.5 487.4, 623.8 480.8 C 624.2 472.5, 626 471.7, 626 479.8 C 626 486.3, 627.4 489.5, 629 487 C 630.1 485.2, 631.7 486.5, 632.3 490 C 632.6 491.6, 632.8 491, 632.9 488.3 C 633 484.3, 635 481.9, 635 485.7 C 635 490.4, 635.8 485.3, 636.5 476.8 C 637.1 468.9, 636.9 467, 635.8 467.1 C 635.1 467.2, 632.3 467.6, 629.5 468 M 639.7 468.7 C 639.3 469, 639 473.1, 639 477.7 L 639 486 642.9 486 C 646.9 486, 650 483.2, 650 479.5 C 650 478.7, 650.4 478, 650.9 478 C 652.1 478, 653 480.5, 653 483.8 C 653 488.5, 654.1 489.2, 658.6 487.4 C 663 485.7, 665 481.2, 665 473.1 L 665 469.3 658.3 468.7 C 649.4 467.8, 640.5 467.8, 639.7 468.7 M 496.7 470.7 C 495.8 471.5, 495.8 493.2, 496.6 498.3 C 497.1 501, 497.7 502, 499.1 502 C 500.9 502, 501 501, 501 486 C 501 471.2, 500.9 470, 499.2 470 C 498.2 470, 497 470.3, 496.7 470.7 M 667.5 471.3 C 667.3 471.9, 666.9 475.8, 666.5 479.8 C 665.9 486.3, 666.1 487, 667.7 487 C 668.7 487, 670.5 487.3, 671.8 487.6 C 674 488.2, 674 488.1, 674 479.1 L 674 470 671 470 C 669.3 470, 667.8 470.6, 667.5 471.3 M 203 477.9 C 203 478.4, 201.6 481.9, 199.9 485.7 C 198.2 489.4, 196.2 494.1, 195.4 496 C 194.5 497.9, 193.5 500.4, 193 501.5 C 191.1 506, 187 517, 184.5 524.5 C 183.1 528.9, 181.5 533.4, 181 534.5 C 180.5 535.6, 179.1 539.4, 178 543 C 176.8 546.6, 175.5 550.3, 174.9 551.3 C 173.7 553.5, 172.4 562.8, 173.5 561.8 C 174.1 561.2, 178.6 549, 184 533 C 184.6 531.1, 185.5 528.6, 186 527.5 C 186.4 526.4, 188.9 519.7, 191.5 512.5 C 194.1 505.4, 197.1 497.6, 198.1 495.3 C 199.2 493, 200 490.7, 200 490.2 C 200 489.3, 202.2 484.2, 204.1 480.8 C 205.3 478.5, 205.3 477, 204 477 C 203.5 477, 203 477.4, 203 477.9 M 244.3 484.3 C 243.6 486.6, 242.8 490.1, 242.5 492 C 242.1 493.9, 241.4 496.9, 240.9 498.5 C 240.4 500.2, 239.1 505.3, 238 510 C 235.7 519.7, 235.4 520.8, 228.4 546 C 226.3 553.2, 224 560.1, 223 562.1 C 221.4 565.1, 220.6 571.4, 221.9 570.6 C 222.5 570.2, 223 569.4, 223 568.8 C 223 568.3, 223.6 566.4, 224.4 564.7 C 226.1 560.8, 231.2 545.2, 234 535 C 235.1 530.9, 236.4 526.2, 236.9 524.5 C 237.4 522.9, 238.8 517, 239.9 511.5 C 241.1 506, 242.5 499.9, 243.1 498 C 244.2 493.7, 246.2 480.9, 245.7 480.4 C 245.6 480.2, 244.9 482, 244.3 484.3 M 644 491.3 L 643.9 494.5 641.9 492 C 639 488.5, 635 488.3, 635 491.6 C 635 494.5, 633 494.7, 630.6 492.1 C 629.6 491, 627.6 490.2, 626.1 490.2 L 623.4 490.3 623.4 522.2 L 623.4 554.2 627.4 553.6 C 629.7 553.2, 633.1 552.7, 635.1 552.4 C 637.7 552, 639.6 552.3, 641.6 553.7 C 644.9 555.8, 648.9 556, 650.9 554.2 C 651.8 553.3, 654.1 553, 657.4 553.2 L 662.5 553.5 663 521.7 C 663.3 504.3, 663.2 490, 662.8 490 C 662.4 490, 661.6 490.9, 661 492 C 659.7 494.5, 654.9 494.3, 654.2 491.7 C 653.9 490.6, 653.2 490.1, 652.3 490.4 C 651.5 490.8, 650.4 491, 649.9 491 C 649.4 491, 649 492, 649 493.3 C 649 498.3, 647.2 498.2, 646.5 493.1 C 645.7 487.4, 644 486.2, 644 491.3 M 613 491.3 C 613 491.5, 613.6 493.9, 614.4 496.6 C 615.3 499.5, 616 507.6, 616.2 516.5 L 616.5 531.5 608.8 531.8 L 601.1 532.1 601.3 542.8 L 601.5 553.5 610.7 553.7 L 619.8 553.8 620.6 543.2 C 621 537.3, 621 524, 620.7 513.5 C 620.1 495.3, 620 494.5, 617.8 492.8 C 615.8 491.3, 613 490.4, 613 491.3 M 602 500.9 C 602 504.1, 601.7 509.5, 601.4 512.9 L 600.7 519 607.4 519 L 614 519 614 515.1 C 614 511.4, 613.8 511.1, 609.8 509.7 L 605.5 508.2 609.8 507.5 C 613.8 506.8, 614 506.6, 614 503.4 C 614 501, 613.4 499.7, 611.8 498.8 C 609.9 497.8, 603.1 495.1, 602.3 495 C 602.1 495, 602 497.6, 602 500.9 M 551.5 500.8 C 549.9 501.9, 547.9 503.4, 547.2 504.3 C 545 507, 542.8 539.2, 544.7 541.1 C 545.3 541.7, 549.1 541.8, 555.1 541.3 L 564.5 540.5 565.2 531 C 567.2 506.3, 561.8 494.5, 551.5 500.8 M 318 501.9 C 316 505.8, 316.7 507.1, 320.4 506.5 C 324.2 505.7, 326.1 507.4, 323.7 509.3 C 322.8 510, 322 511.8, 321.8 513.4 C 321.4 517.2, 319.3 517.9, 318 514.6 C 316.9 511.7, 314.7 511, 315.2 513.8 C 315.5 515.8, 314.3 518, 312.9 518 C 312.4 518, 312 517.3, 312 516.5 C 312 515.2, 311.6 515.1, 310 516 C 308.8 516.6, 308 518.1, 308 519.6 C 308 521.9, 308.2 522, 311.8 521.4 C 313.8 521, 316.6 520.3, 317.9 519.8 C 319.2 519.3, 326.1 518.4, 333.2 517.8 C 344.2 516.8, 346 516.4, 345.4 515 C 345 514.2, 344.4 511.9, 344.1 510 C 343.5 507, 343.1 506.6, 341 506.8 C 335.5 507.6, 334 508.8, 334 512.4 C 334 514.3, 333.4 516, 332.6 516.3 C 331 516.9, 329 515.2, 329 513.2 C 329 512.4, 328.2 510.6, 327.2 509.2 C 326.2 507.7, 324.8 505, 324.1 503.3 C 322.6 499.6, 319.7 498.9, 318 501.9 M 555.2 503.8 C 554.8 504.7, 554.5 509.6, 554.5 514.5 L 554.5 523.5 558.8 523.8 L 563 524.1 563 518.2 C 563 507.5, 557.7 497.7, 555.2 503.8 M 273.2 517.3 C 272.5 521.9, 272 528.5, 272 532 C 272 535.5, 271.6 540.9, 271 543.9 C 270.5 547, 269.6 553.3, 269.1 558 C 267.9 568.5, 266.6 574.6, 264.6 578.5 C 262.6 582.2, 263.6 583.2, 266 580 C 268.4 576.9, 269.9 570.9, 271.1 560 C 271.6 555.3, 272.4 548.1, 273 544 C 274 536.1, 275.4 509, 274.8 509 C 274.6 509, 273.9 512.7, 273.2 517.3 M 602.3 521.6 C 601.6 521.9, 601 523.7, 601 525.6 L 601 529.1 607.3 528.8 L 613.5 528.5 613.5 525 L 613.5 521.5 608.5 521.3 C 605.8 521.2, 602.9 521.3, 602.3 521.6 M 312.7 524 C 307.8 524.9, 307.6 525.2, 309 529.5 C 309.9 532.3, 310.6 533, 311.9 532.4 C 312.8 532.1, 314.5 531.5, 315.8 531.2 C 318.2 530.7, 318.4 530.5, 319.4 525.8 C 320.1 522.7, 319.7 522.6, 312.7 524 M 554.2 531.8 L 554.5 537.5 558.3 537.8 L 562 538.1 562 533.6 C 562 531.2, 562.3 528.5, 562.6 527.6 C 563.1 526.3, 562.4 526, 558.6 526 L 553.9 526 554.2 531.8 M 425.4 544.4 C 425.1 545.3, 425 547.9, 425.4 550.2 C 426.8 561.7, 427.3 562.7, 430.5 562 C 431 561.9, 436 561.8, 441.6 561.8 L 451.8 561.8 452.4 558.8 C 453.2 554.5, 453.1 544.2, 452.3 543.7 C 451.8 543.4, 448.9 543.5, 445.7 543.8 L 439.8 544.3 440.2 550.9 C 440.4 556.5, 440.2 557.5, 438.8 557.8 C 437.3 558.1, 437 557.1, 436.8 550.8 L 436.5 543.5 431.2 543.2 C 427.2 543, 425.8 543.3, 425.4 544.4 M 456 549.3 C 456 552.9, 455.6 557, 455.1 558.4 C 453.9 561.4, 454.6 561.7, 462.7 561.2 L 469 560.8 470.2 556.7 C 470.8 554.4, 471.7 552.1, 472.1 551.5 C 472.5 551, 473.1 549, 473.5 547.3 L 474.2 544 469.7 544 C 467.3 544, 463.2 543.7, 460.6 543.4 L 456 542.7 456 549.3 M 412 547.4 C 412 549.2, 412.3 553.5, 412.6 556.9 L 413.3 563 419.1 563 C 424.9 563, 425 563, 425 560.1 C 425 558.5, 424.4 557, 423.5 556.6 C 422.3 556.2, 422.1 554.9, 422.7 550 L 423.3 544 417.6 544 L 412 544 412 547.4 M 475.4 548.7 C 475 550.8, 474.4 553, 474 553.5 C 473.6 554.1, 473 556.2, 472.6 558.3 L 471.9 562.1 476.7 561.8 L 481.5 561.5 481.5 553.5 C 481.5 545.6, 481.5 545.5, 478.8 545.2 C 476.4 544.9, 476 545.3, 475.4 548.7 M 633.8 555.7 C 632.4 556, 632 557.2, 632 561.1 L 632 566 637.1 566 L 642.2 566 641.7 561.5 C 640.8 554.9, 639.8 554.1, 633.8 555.7 M 648 556.7 C 645 557.3, 644 558.6, 644 562.3 C 644 565.1, 644.1 565.1, 649.3 564.8 L 654.5 564.5 654.5 560.5 C 654.5 556.2, 653.5 555.7, 648 556.7 M 658 561.4 L 658 567 663.6 567 L 669.1 567 668.8 561.8 L 668.5 556.5 663.3 556.2 L 658 555.9 658 561.4 M 601.6 559.3 C 599.9 565.7, 600.6 567, 605.9 567 L 610.7 567 609.7 562 C 608.8 557.2, 608.6 557, 605.5 557 C 603 557, 602.1 557.5, 601.6 559.3 M 613.2 561.3 L 613.5 565.5 620.9 565.8 L 628.3 566.1 627.7 563 C 627.3 561.3, 627.5 560, 628 560 C 628.6 560, 629 559.3, 629 558.5 C 629 557.3, 627.4 557, 620.9 557 L 612.9 557 613.2 561.3 M 672.8 561.9 L 672.5 566.9 676 567.5 C 677.9 567.9, 680.5 568.4, 681.8 568.7 C 683.9 569.2, 684 568.9, 684 563.7 C 684 557.2, 682.4 555.4, 680.7 559.9 C 679.5 563.3, 677 564.1, 677 561.2 C 677 559.4, 675.2 557, 673.9 557 C 673.5 557, 673 559.2, 672.8 561.9 M 328.2 565.7 C 322.5 566.1, 322.4 566.2, 321.7 573.2 C 321.3 577.4, 321.5 577.9, 323.5 578.3 C 326.8 578.9, 331.3 576.7, 333.3 573.7 C 335 571.1, 335.7 564.8, 334.3 565.2 C 333.8 565.3, 331.1 565.5, 328.2 565.7 M 336.4 568.8 C 337.5 575.9, 328.5 583.9, 323.3 580.4 C 321.9 579.6, 320.5 579.1, 320.2 579.5 C 319.8 579.9, 319.3 599.5, 319.1 623.1 L 318.8 666 324.2 666 C 327.3 666, 331.8 666.3, 334.4 666.6 L 339 667.3 339 625.9 C 339 582.3, 338.3 565, 336.7 565 C 336.2 565, 336 566.6, 336.4 568.8 M 420.5 565.9 L 412.5 566.5 412.5 572.3 C 412.6 575.4, 412.7 592.9, 412.8 611 L 413 644 419.5 644 L 426 644 426 638.9 C 426 623.8, 431.6 606.6, 439 599.2 C 450 588.1, 458.5 588.5, 470.4 600.6 C 480.8 611.2, 482.2 616.9, 481.3 645.1 C 480.8 662.7, 480.9 665, 482.2 665 C 483.9 665, 484 608.8, 482.5 578.9 L 481.8 566.2 478.1 565.6 C 473.8 564.9, 431.9 565.1, 420.5 565.9 M 486.6 566.7 C 484.9 567.2, 484.8 567.9, 485.3 576.3 C 485.7 581.4, 486.3 590.3, 486.6 596.3 L 487.3 607 492.1 607 C 495 607, 497 607.5, 497 608.1 C 497 608.8, 495.2 609.1, 492 608.8 L 487 608.5 487 620.6 L 487 632.7 490.8 632.6 C 493.5 632.5, 494.5 632.9, 494.5 634 C 494.5 635, 493.4 635.5, 491 635.5 C 489.1 635.5, 487.4 635.8, 487.3 636.3 C 487.1 636.7, 487 648.1, 487 661.6 L 487 686.3 490.3 685.4 C 492 685, 497.8 684.5, 503 684.4 C 508.2 684.2, 512.7 684.1, 513 684.1 C 513.3 684, 513.5 680.7, 513.5 676.8 C 513.5 672.8, 513.9 646.2, 514.4 617.8 L 515.2 566 501.9 566.1 C 494.5 566.2, 487.7 566.4, 486.6 566.7 M 606.3 570.2 L 601 571.2 601 578.3 C 601 590.5, 601 590.4, 609.9 589.4 C 618.2 588.4, 656.5 588.4, 667 589.4 L 673.5 590 670.2 588.2 C 667 586.5, 666.8 585, 669.8 585 C 670.6 585, 672.8 586.1, 674.6 587.5 C 678.3 590.3, 678.8 590, 681.3 583 C 684.8 573, 684.7 572.2, 679.8 571.6 C 657.2 568.9, 617.7 568.1, 606.3 570.2 M 149.7 573.8 C 148.7 574.8, 148 576.5, 148 577.5 C 148 579, 147.8 579, 146.5 578 C 143.9 575.8, 143 578.1, 142.4 589.3 L 141.7 600 145.3 601.5 C 151.4 604, 151.4 604.1, 150.6 592.6 C 150 582.3, 150 582.3, 152.5 580.6 C 155.7 578.5, 156.2 572, 153.2 572 C 152.1 572, 150.6 572.8, 149.7 573.8 M 128 583.9 C 128 596.3, 127.3 595.1, 135.7 597.8 C 140 599.1, 140 599.1, 140 587.5 L 140 577.4 134.8 575.4 C 131.9 574.4, 129.2 573.4, 128.8 573.2 C 128.4 573, 128 577.8, 128 583.9 M 553.2 587.3 C 544.2 600.5, 541 611.6, 543.9 619.2 C 544.4 620.5, 544.9 623.8, 545.1 626.5 C 545.5 631.1, 545.3 631.5, 543.2 631.8 C 540.9 632.1, 540.9 632, 541 624.8 C 541.1 620.8, 541.1 616.9, 541.1 616.3 C 541 615.4, 539.2 615, 535.6 615 C 526.7 615, 527 614.6, 527 628 C 527 639.9, 528.3 644.4, 529.6 637.3 C 530.5 632.3, 530.9 632.1, 539.3 633.6 C 543.3 634.2, 546.8 634.6, 547.1 634.4 C 548.3 633.7, 548.8 628.5, 547.8 627.3 C 547.2 626.6, 546.7 621.6, 546.6 616.3 C 546.5 606.6, 546.5 606.4, 551 597.6 C 553.5 592.6, 556 588.7, 556.5 588.8 C 557.1 588.8, 559.4 592.6, 561.8 597.1 C 566.5 606.1, 568.4 615.9, 567.7 626.5 C 567.2 633.4, 567.9 634.6, 571.6 633.2 C 573.4 632.6, 573.8 632.1, 572.8 632.1 C 571.3 632, 571 631, 571 625.1 C 571 617.5, 571.5 617, 578.8 617 L 582 617 582 624.9 C 582 630.2, 582.4 633.1, 583.3 633.9 C 585 635.2, 586 634.4, 586 631.7 C 586 630.1, 586.6 629.8, 590 630.2 C 592.6 630.4, 594 630.1, 594 629.4 C 594 628, 591.7 627, 588.5 627 C 586.3 627, 586.1 626.6, 585.8 620.8 L 585.5 614.5 578.2 614.5 C 572.5 614.5, 571 614.2, 571 613 C 570.9 607.3, 560.4 584.8, 557.3 583.6 C 556.6 583.3, 554.8 585, 553.2 587.3 M 153.5 585 C 153 585.8, 153.9 606, 154.4 606 C 154.5 606, 157 606.9, 160 608.1 C 194.2 621, 204.4 622.2, 237 617.5 C 256.8 614.7, 264.5 614.1, 290.3 613.4 L 316 612.7 316 605.6 C 316 596.9, 315.8 596.7, 309.2 595.2 C 302.1 593.6, 302.5 593.5, 301.2 597.8 C 299.9 602.2, 297.7 604.5, 294 605.3 C 290.6 606.1, 289.6 605.3, 287 599.8 C 284.3 593.9, 282.1 593.6, 278.3 598.7 C 270.6 608.7, 269.1 608.8, 264.9 599.3 C 261.5 592, 262.1 592.3, 257.5 595.5 C 255.2 597, 251.7 598.2, 248 598.6 C 242.3 599.2, 242.2 599.3, 243.2 601.6 C 244.1 603.4, 244 604.4, 243.2 605.2 C 242.3 606.1, 241.6 605.4, 240.3 602.2 C 239.3 599.9, 238.2 598, 237.9 598 C 235.6 598, 227.7 602.5, 227.3 604.1 C 226.7 606.2, 225.5 606.6, 224.5 605 C 224.2 604.5, 220.3 604, 215.9 604 L 208 604 208 608 C 208 613.2, 206.4 613.2, 205.7 607.9 C 205 602.7, 205.4 603, 197.5 602.7 C 191.2 602.4, 190.6 602.2, 187.4 598.7 L 184 595 184 598.5 C 184 600.4, 183.6 602, 183 602 C 182.5 602, 182 601.1, 182 599.9 C 182 596.4, 180.1 594.1, 176.2 593 C 171.6 591.8, 170.7 591.7, 171.5 593 C 171.8 593.5, 171.7 596.3, 171.3 599.2 L 170.5 604.5 170 597.5 L 169.5 590.5 166.3 590.2 C 163.1 589.9, 163 590, 162.9 593.7 C 162.6 602, 161.2 603.7, 161.1 595.8 C 161 588.8, 160.8 588, 158.4 586.1 C 155.4 583.7, 154.4 583.5, 153.5 585 M 350.5 588.3 C 350.2 590.6, 350 601.7, 350.2 613 C 350.5 632.2, 350.6 633.5, 352.4 633.8 C 353.8 634.1, 354.1 633.8, 353.6 632.5 C 353.3 631.6, 353 620.3, 353 607.4 C 353 585.4, 352 577.8, 350.5 588.3 M 624.9 590.8 C 620.3 591.2, 620 592, 620 607.3 L 620 619 623.6 619 C 626 619, 626.9 619.4, 626.4 620.1 C 625.9 620.9, 623.3 621.1, 617.9 620.7 C 608.8 620, 609 619.8, 609.5 630.2 C 609.7 634.2, 609.6 644.1, 609.3 652.3 C 608.7 665.7, 608.5 667, 606.8 667 C 605.1 667, 605 668.2, 605 686.3 L 605 705.5 636.5 705.5 L 668 705.5 668 664.3 L 668 623.1 664.3 622.5 C 662.2 622.1, 660 621.7, 659.4 621.5 C 658.1 621.1, 662.2 602.7, 665.7 593.3 C 666.1 592.3, 664.4 592, 659.2 592 L 652.3 592 651.2 599.3 C 649.3 612.1, 648.8 620, 649.9 620 C 651.3 620, 652.5 617.8, 652.3 615.5 C 652.2 613.9, 652.2 613.9, 652.6 615.3 C 652.9 616.2, 653.6 617, 654.1 617 C 654.6 617, 655 617.7, 655 618.5 C 655 619.3, 654.4 620, 653.6 620 C 652.8 620, 651.9 620.7, 651.6 621.5 C 651.1 622.9, 650.7 622.9, 648.1 621.5 C 646.4 620.7, 642.7 620, 639.8 619.9 C 633.8 619.8, 636.5 618.3, 643.1 618.1 L 646.7 618 647.4 607.9 C 647.7 602.4, 648.5 596.9, 649.1 595.8 C 650.6 593, 649.5 591, 646.2 591 C 644.3 591, 643.4 591.5, 643.3 592.8 C 643.2 593.7, 642.9 599, 642.5 604.5 C 641.7 617, 641.3 618.3, 639.5 615 C 637.4 611.3, 637.5 594.1, 639.5 593.4 C 641.9 592.5, 641.3 590, 638.7 590 C 634.4 590, 634 591.5, 634 608 C 634 616.5, 633.5 624.2, 633 625 C 632.3 626.1, 632 625.7, 632 623.3 C 632 621, 631.5 620, 630.5 620 C 629.4 620, 629.1 619.1, 629.5 616.2 C 629.8 614.2, 630.2 607.7, 630.4 601.8 C 630.9 590.2, 631 590.3, 624.9 590.8 M 615.7 591.7 C 614 592.1, 613.9 593, 614.4 599.8 C 614.8 606, 614.7 606.6, 614 603 C 613.5 600.5, 612.8 597, 612.4 595.3 C 611.8 592, 610.6 591.3, 608.3 592.8 C 607.4 593.4, 607.3 596.4, 608 605.3 C 609 618.4, 609.2 619, 612.6 619 C 614.8 619, 615 618.7, 615 613.7 C 615 610.8, 615.4 608, 615.9 607.5 C 616.4 606.9, 617 603, 617.2 598.8 C 617.5 594.5, 617.7 591.1, 617.6 591.1 C 617.5 591.2, 616.7 591.4, 615.7 591.7 M 602 593 C 601.9 593.3, 601.7 604, 601.5 616.8 L 601.2 640 603.8 640 L 606.3 640 605.7 620.8 C 605.4 607.5, 604.7 600.1, 603.7 597 C 602.9 594.5, 602.1 592.7, 602 593 M 669.3 594.3 C 668.1 595.7, 665.6 603.4, 664 610.5 C 663.4 613.3, 662.6 616.5, 662.3 617.8 C 661.8 619.8, 662.1 620, 665.3 620 C 669.2 620, 669.2 620.1, 671 610.5 C 671.7 607.2, 672.8 602.6, 673.6 600.2 C 674.4 597.9, 675 595.3, 675 594.5 C 675 592.7, 670.6 592.5, 669.3 594.3 M 448.5 596 C 446.4 596.9, 447.2 597.3, 450.7 597.1 C 459.1 596.4, 470.6 609.6, 473.2 623 C 474.6 630, 474.8 650.5, 473.5 651.8 C 473.2 652.1, 473 655.2, 473 658.7 C 473 664.1, 473.2 665, 474.8 665 C 476.5 665, 476.8 663.5, 477.6 647.8 C 479.1 621.3, 476.9 611.7, 467.6 602.7 C 460.6 595.8, 454.1 593.6, 448.5 596 M 123 607.7 C 120.7 608.5, 119 611.1, 119 613.7 C 119 616.4, 118.9 616.4, 115.6 614.9 C 112.1 613.3, 108.8 614.5, 106.8 618.1 C 104.9 621.4, 104.4 625.5, 105.9 626.4 C 106.4 626.7, 107.1 628.6, 107.4 630.6 C 107.8 632.7, 108.6 634, 109.3 633.7 C 110 633.4, 110.3 632.6, 110.1 631.9 C 107.3 621.9, 108.3 616.7, 112.7 617.2 C 114.6 617.4, 115.9 618.4, 116.8 620.3 C 118.5 623.9, 120 622.9, 120 618 C 120 612.9, 120.8 611, 123 611 C 124 611, 126.1 610.5, 127.7 609.9 C 132 608.3, 127.5 606.1, 123 607.7 M 448.9 609.6 C 447.8 610.9, 447.5 618, 447.4 642.9 C 447.3 660.3, 446.9 681.1, 446.5 689.3 C 445.8 703.7, 445.8 704, 447.8 704 C 450.5 704, 451 700.3, 450.8 682.5 L 450.7 668.5 458 668.9 C 463.7 669.1, 465.1 668.9, 464.8 667.8 C 464.4 666.9, 462.4 666.5, 457.7 666.6 L 451 666.7 450.9 659.1 C 450.7 636.6, 451 615.2, 451.5 611.8 C 452.2 607.8, 451.2 606.9, 448.9 609.6 M 442.5 613.6 C 439.6 616.7, 436.7 624, 437.2 626.6 C 437.6 628.9, 443.7 629, 445.1 626.8 C 446 625.4, 446.3 611, 445.5 611 C 445.2 611, 443.8 612.2, 442.5 613.6 M 454.6 612.8 C 454 613.8, 453.5 626.9, 454.1 627.4 C 454.3 627.6, 456.8 628, 459.7 628.3 L 464.9 628.9 464.3 625.7 C 462.9 618.3, 456.5 609.7, 454.6 612.8 M 152.8 632.7 C 153 643.1, 153.5 651.9, 154 652.4 C 154.7 653.1, 155 646.7, 155 634.9 C 155 621.8, 155.4 616, 156.2 615.2 C 157.1 614.3, 156.9 614, 155 614 L 152.5 614 152.8 632.7 M 289 617 L 280.5 617.5 280 637.9 C 279.7 650.4, 279.1 658.5, 278.5 658.7 C 277.8 658.9, 277.6 652, 277.8 638 L 278.2 617 271.7 617 C 262.5 617, 259.7 618.2, 261 621.5 C 262.3 625, 262.3 650.7, 261 651.5 C 260.5 651.8, 260 655.7, 260 660.1 L 260 668.1 275.5 667.9 C 288.8 667.8, 291.1 667.6, 292 666.2 C 292.5 665.2, 293 665, 293 665.8 C 293 666.5, 294.3 667, 296 667 L 299 667 299 642.1 C 299 628.3, 298.7 617, 298.3 616.8 C 297.8 616.6, 293.7 616.7, 289 617 M 301.7 621.4 C 300.7 631.1, 302.1 647, 303.9 647.1 C 305 647.1, 304.7 647.4, 303.3 648 C 301.1 648.9, 301 649.5, 301 658 L 301 667 308.7 667 L 316.3 667 315.7 654.3 C 315.3 647.2, 315 635.8, 315 628.8 C 315 620.9, 314.6 616, 314 616 C 313.4 616, 313 620.6, 313 627.9 C 313 639.8, 311.8 644.4, 310.6 637.2 C 310.3 635.2, 310 629.6, 310 624.8 L 310 616 306.1 616 L 302.3 616 301.7 621.4 M 88.7 619 C 86.8 620.5, 86 622.1, 86 624.2 L 86 627.2 82.6 625.1 C 78.4 622.5, 75.6 622.4, 73 625 C 70.6 627.4, 70.4 631.7, 72.7 634.2 C 74 635.7, 74 636, 72.9 636 C 72.1 636, 69.9 637.3, 68 638.8 C 64 642.2, 63.3 647.5, 66.5 651 C 69.2 654, 70.3 653.4, 68.5 649.9 C 65.2 643.5, 69.8 637.5, 77.3 638.3 C 80.9 638.8, 80.7 638.1, 76.5 634.7 C 68.7 628.5, 75.8 622.2, 84.1 628.1 C 87.7 630.6, 88.8 629.9, 89.2 624.5 C 89.7 617.6, 95.6 618.5, 98.8 626 L 100.4 629.5 101 626.5 C 102.4 620.3, 93.7 615.1, 88.7 619 M 530.7 617.6 C 530.3 618, 530 621, 530 624.2 L 530 630 533.5 630 C 537.3 630, 537.8 629, 538.3 621.5 C 538.5 617.6, 538.4 617.5, 535 617.2 C 533 617, 531.1 617.2, 530.7 617.6 M 243.6 619.7 C 239 620.1, 238.8 620.2, 239.4 622.8 C 239.7 624.3, 240.2 630.7, 240.5 637 C 240.8 643.3, 241.3 650, 241.5 651.8 C 241.8 654.1, 241.5 655, 240.4 655 C 239.3 655, 239 653.3, 239 646.9 C 239 642.4, 238.5 634.8, 237.8 630.1 L 236.7 621.4 228.9 622.5 L 221.1 623.5 220.8 646.8 L 220.5 670.2 224 669.6 C 225.9 669.3, 229.6 669, 232.3 669 L 237 669 236.4 662 C 235.9 657.5, 236.1 655, 236.7 655 C 238.1 655, 239 658.5, 239 664.4 L 239 669.3 245.8 668.7 C 249.5 668.3, 253.6 668, 255 668 L 257.5 668 257.1 658.9 C 256.8 650.8, 257 649.8, 258.4 650.3 C 260.4 651.1, 260.8 627.5, 258.9 622.1 C 256.4 615, 254.8 621.8, 255.1 638 C 255.2 643.5, 255.1 648.2, 254.8 648.6 C 253.8 649.5, 252.8 629.4, 253.5 624.1 L 254.2 619 251.3 619.2 C 249.8 619.3, 246.3 619.5, 243.6 619.7 M 434.5 636.3 C 434.1 639.1, 434 643.1, 434.2 645 C 434.5 648.4, 434.6 648.5, 439.3 648.6 L 444 648.8 444 640.5 L 444 632.3 440.9 631.6 C 435.4 630.5, 435.2 630.7, 434.5 636.3 M 453.5 639.7 L 453.5 648.5 459.3 648.8 L 465.1 649.1 464.8 640.3 L 464.5 631.5 459 631.2 L 453.5 630.9 453.5 639.7 M 96 641.9 C 89.7 642.8, 82.5 646.6, 77.9 651.3 C 74.4 655, 74 655.9, 74.1 660.5 L 74.2 665.5 75 661.3 C 76.1 655.9, 78.2 652.8, 82.9 649.7 C 91.2 644.2, 99.4 642.4, 102 645.5 C 103.6 647.4, 105 647.4, 105 645.6 C 105 644, 102.3 640.9, 101.2 641.1 C 100.8 641.2, 98.5 641.6, 96 641.9 M 434 658 L 434 664 439 664 C 442.3 664, 444.1 663.6, 444.2 662.8 C 444.2 662.1, 444.4 659.4, 444.4 656.8 L 444.5 652 439.3 652 L 434 652 434 658 M 453.4 653.4 C 452.8 655, 453.4 662.7, 454.2 663.5 C 454.5 663.8, 456.7 664.3, 459.3 664.6 C 464.5 665.3, 465.3 664.2, 464.7 656.5 L 464.4 652.5 459.2 652.2 C 455.2 652, 453.8 652.3, 453.4 653.4 M 53.8 654.7 C 50.6 656.7, 49 659.9, 49 664.5 C 49 668, 49 668, 44.5 668 C 36.4 668, 29.8 676.8, 32.8 683.5 C 33.4 684.9, 35.7 687.1, 38 688.5 C 40.2 689.9, 42 691.5, 42 692.1 C 42 693.2, 34.1 701, 33 701 C 28.7 701, 21.8 714.5, 25 716.5 C 25.6 716.8, 26 716.1, 26 714.8 C 26 711, 29.6 706.3, 36.2 701.5 C 39.6 699, 43.2 695.7, 44.2 694.1 L 46.1 691.2 43.1 688.9 C 41.5 687.6, 39 685.7, 37.6 684.7 C 34 682.2, 34.1 678, 38 674.2 C 41.8 670.4, 48.3 669, 51 671.5 C 53 673.3, 54.4 672.2, 52.9 670 C 52.4 669.2, 52 666.6, 52 664.4 C 52 658.5, 54.3 656.1, 60.8 655.3 C 63.7 655, 66.3 654.3, 66.6 653.9 C 67.6 652.3, 56.6 653, 53.8 654.7 M 717.7 660.7 C 716.5 661.9, 717 663, 718.8 663 C 719.7 663, 722.3 664.7, 724.5 666.8 C 728.3 670.3, 728.5 670.8, 728.5 676.5 L 728.5 682.5 733 682.8 C 739.4 683.3, 741.3 685.4, 740.7 691 C 740.5 693.5, 739.9 696.3, 739.5 697.3 C 738.9 698.6, 739.5 699.3, 741.9 700.1 C 748.3 702.3, 748.5 710.4, 742.4 716.6 C 739.7 719.2, 739.3 720, 740.7 720 C 744.3 720, 746.9 718.8, 746.3 717.4 C 746.1 716.7, 746.5 715.1, 747.4 713.8 C 750.9 708.8, 748.5 699.7, 743.1 697.9 C 742.1 697.5, 742.2 696.6, 743.6 693.7 C 745.2 690.3, 745.3 689.8, 743.8 686.7 C 742 683, 736.9 680, 732.5 680 C 730 680, 729.9 679.8, 730.6 676.8 C 731.8 671.2, 731.3 669.7, 726.1 664.8 C 721.4 660.2, 719.2 659.2, 717.7 660.7 M 531.8 665.7 L 517 666.1 517 686.9 C 517 702.5, 517.3 707.9, 518.2 708.2 C 519.5 708.7, 535.4 708.4, 576.8 707.4 L 602 706.8 602 687 L 602 667.3 595.8 666.7 C 592.3 666.3, 582.8 665.7, 574.6 665.4 C 560.1 664.7, 559.7 664.7, 560.6 666.6 C 561.1 667.6, 561.5 672.6, 561.5 677.5 L 561.5 686.5 558.6 686.8 C 554.7 687.3, 554 685.8, 554 676.9 C 554 669.4, 554.9 666.8, 558 665.7 C 558.8 665.4, 556.6 665.2, 553 665.3 C 549.4 665.4, 539.9 665.6, 531.8 665.7 M 472.6 673.1 C 471.6 683.1, 471.8 685.7, 473.8 686.5 C 475.4 687.1, 475.4 687.2, 473.8 688.4 C 472.4 689.4, 472 691.2, 472 696.4 C 472 702.8, 472.1 703.1, 474.3 702.8 C 477.7 702.3, 478.8 667, 475.4 667 C 473.5 667, 473.2 667.8, 472.6 673.1 M 408.3 668.6 C 407.4 669, 407 671.5, 407 676.1 L 407 683 410.8 683 C 418.7 683, 419.1 682.5, 418.8 675.1 L 418.5 668.5 414 668.3 C 411.5 668.2, 408.9 668.3, 408.3 668.6 M 380.7 669.7 L 363.9 670 364.2 676.8 L 364.5 683.5 367.8 683.4 C 369.5 683.4, 378.7 683.3, 388 683.2 L 405 683 405 676.6 C 405 670.3, 405 670.2, 401.9 669.6 C 400.2 669.3, 398.5 669.1, 398.1 669.2 C 397.8 669.3, 389.9 669.6, 380.7 669.7 M 263.8 670.7 L 261 671.1 261 682.4 C 261 688.6, 260.7 695.7, 260.4 698.2 C 259.6 703.7, 260.6 704.3, 269.6 703.4 C 275.9 702.7, 276 702.7, 276.1 699.6 C 276.3 693.1, 277.8 691.2, 277.9 697.3 L 278 703 290.1 702.6 C 296.7 702.4, 302.3 702.1, 302.5 701.9 C 302.6 701.7, 302.4 699, 301.9 696.1 C 301.5 693.1, 301.2 690.4, 301.5 690.2 C 302.5 689.1, 304 691.5, 304 694.3 C 304 701.2, 304.7 702, 310.6 702 L 316 702 316 686 L 316 670 291.3 670.2 C 277.6 670.2, 265.3 670.5, 263.8 670.7 M 319 685.5 L 319 701 322.3 701 C 324 701, 330.2 700.3, 336 699.5 C 341.8 698.7, 347.9 698.1, 349.5 698.1 C 352.4 698.1, 352.4 698.1, 350.6 699.5 C 348.8 700.9, 349.3 701, 356.3 701 L 363.9 701 363.4 695.8 C 362.6 687.5, 362.1 686, 360.2 686 C 358.6 685.9, 358.6 685.9, 360.3 684.9 C 361.7 684.1, 362 682.5, 362 677 L 362 670 340.5 670 L 319 670 319 685.5 M 230 671.8 C 219.2 672.3, 220 670.9, 220 688.5 L 220 704 228.8 704 L 237.6 704 237.2 697.9 C 236.9 694.2, 237.2 691.4, 237.9 690.7 C 238.7 689.9, 239 691.5, 239 696.8 L 239 704 248.7 704 C 255.4 704, 258.1 704.3, 257.4 705 C 256.7 705.7, 249.8 706, 238.2 705.8 L 220 705.5 220 723.2 L 220 740.9 223.3 739.8 C 225 739.3, 234.2 738.6, 243.5 738.4 L 260.5 737.9 260.8 721.5 C 260.9 712.4, 260.7 705, 260.2 705 C 259 705, 258.9 704.4, 258.4 687 L 258 671.5 246.8 671.5 C 240.6 671.5, 233 671.6, 230 671.8 M 434 679 L 434 687 437.4 687 C 443.6 687, 444 686.5, 444 678.4 L 444 671 439 671 L 434 671 434 679 M 454 678.5 L 454 686.1 459.3 685.8 L 464.5 685.5 464.5 678.5 L 464.4 671.5 459.2 671.2 L 454 670.9 454 678.5 M 325.5 677.8 C 324.9 682.9, 326.2 695.5, 327.4 696.8 C 328.6 698, 330.8 695.9, 331.4 692.9 C 331.7 691.1, 332.8 688.8, 333.7 687.8 C 335.2 686.1, 335.2 686, 333.1 686 C 331.8 686, 330.5 685.1, 330 683.8 C 329.1 681.9, 329.1 682.2, 329.5 685.2 C 330.1 689.1, 329.3 694, 328.1 694 C 327.7 694, 327.5 689.3, 327.8 683.6 C 328.3 672.1, 326.7 667.9, 325.5 677.8 M 490.8 686.7 L 487 687.1 487 698 C 487 704.2, 486.6 709.1, 486 709.5 C 484.9 710.2, 484.6 729.2, 485.6 730.3 C 485.9 730.6, 488.4 729.5, 491.1 727.8 C 496.9 724.3, 507.1 724, 510.8 727.3 C 511.8 728.2, 512.9 729, 513.3 729 C 513.7 729, 513.8 719.4, 513.7 707.8 L 513.4 686.5 504 686.4 C 498.8 686.3, 492.8 686.5, 490.8 686.7 M 434 696.5 L 434 704.1 437.8 703.4 C 442.7 702.5, 442.8 702.5, 443.2 695.5 L 443.5 689.5 438.8 689.2 L 434 688.9 434 696.5 M 453.7 689.8 C 453.5 690.2, 453.4 693.4, 453.4 697 L 453.5 703.5 459 703.5 L 464.5 703.5 464.8 696.3 L 465.1 689 459.6 689 C 456.6 689, 453.9 689.3, 453.7 689.8 M 688 698.6 C 685 699.9, 681.5 701, 680.2 701 C 678.9 701, 678.2 701.4, 678.5 702 C 679.5 703.6, 689.9 703.2, 691.6 701.5 C 693.7 699.4, 695 699.6, 695 701.9 C 695 703.3, 694.2 704, 692.3 704.2 L 689.5 704.6 693.1 706.2 C 695.1 707.1, 697.1 708.3, 697.4 708.9 C 697.8 709.5, 699.8 710, 701.9 710 C 704 710, 706.3 710.6, 706.9 711.4 C 707.5 712.2, 709.3 713.3, 710.9 714 C 713.1 714.9, 713.6 715.6, 713.3 717.5 C 712.9 719.2, 713.7 720.6, 715.9 722.6 C 719.3 725.6, 719.8 727, 717.5 727 C 716.7 727, 716 727.9, 716 729 C 716 731, 716.1 731, 718.5 729.4 C 719.9 728.5, 721 726.9, 721 725.8 C 721 724.7, 719.9 722.9, 718.5 721.8 C 716.7 720.4, 716 718.9, 716 716.4 C 716 713, 713.1 711.1, 709.1 711.9 C 708.1 712.1, 707.9 711.4, 708.3 709.2 C 709.1 705.4, 708.5 704.9, 705.2 706.6 C 699.6 709.5, 697.3 707.9, 696.8 701 C 696.4 695.6, 695.5 695.3, 688 698.6 M 341 702.1 C 338.5 702.5, 332.9 702.9, 328.6 702.9 L 320.6 703 328 708.1 C 332.1 710.9, 338.8 716, 343 719.5 C 347.1 722.9, 353.7 727.6, 357.5 730 C 361.4 732.3, 366.6 736, 369.3 738.2 L 374 742.1 374 727.6 L 374 713.1 369.8 712.8 L 365.5 712.5 365 707.6 L 364.5 702.6 356.5 702.6 C 352.1 702.5, 347.8 702.2, 347 701.9 C 346.2 701.5, 343.5 701.6, 341 702.1 M 278 721 L 278 738 288 738 L 298 738 298.2 722.5 C 298.2 714, 298.3 706.4, 298.4 705.8 C 298.5 704.8, 295.7 704.4, 288.3 704.2 L 278 703.9 278 721 M 299.6 706.3 C 299.3 707.5, 299 715.1, 299 723.3 L 299 738 308 738 L 317 738 317 726.3 C 317 707.5, 316.3 704, 312.9 704 C 310.2 704, 310.1 704.2, 309.8 709.7 C 309.6 714.3, 309.1 715.6, 307.8 715.8 C 306.2 716.1, 306 715.3, 306 710.1 C 306 704, 306 704, 303.1 704 C 301 704, 300.1 704.6, 299.6 706.3 M 263.7 705.7 C 263.3 706, 263 713.5, 263 722.2 L 263 738 270 738 L 277 738 277 732.2 C 277 728.9, 276.7 721.5, 276.3 715.7 L 275.7 705 270 705 C 266.9 705, 264 705.3, 263.7 705.7 M 320 721.8 C 320 736.8, 320.1 737.8, 321.8 737.3 C 323 737, 326.5 738.9, 331.3 742.4 C 339.9 748.5, 355.7 756.5, 363.4 758.7 C 366.2 759.5, 369.3 760.4, 370.3 760.7 C 371.8 761.2, 372 760.4, 372 752.7 L 372 744.2 367.8 740.5 C 365.4 738.5, 360.1 734.8, 356 732.3 C 351.9 729.8, 344.9 724.8, 340.5 721.1 C 333.6 715.3, 325.4 709.1, 321.3 706.6 C 320.3 706, 320 709.3, 320 721.8 M 621 707.7 C 619.1 707.8, 614.7 708.2, 611.4 708.6 L 605.3 709.1 604.8 719.5 C 604.5 725.7, 603.8 730.5, 603.1 731.4 C 602.1 732.6, 602.3 733.5, 604.7 736.5 C 607.9 740.5, 610.8 741, 613.6 737.9 C 617.9 733.1, 629.2 729.7, 641.3 729.6 C 645.9 729.5, 647 729.2, 647 727.8 C 647 726.3, 645.9 725.2, 639 720 C 637.6 719, 636.8 717.8, 637.2 717.4 C 638.1 716.6, 644.4 719.7, 646.6 722.2 C 647.8 723.5, 649.3 723.7, 653.5 723.3 C 660.1 722.6, 662.7 724, 665.5 729.9 C 667.9 734.9, 672.6 736.4, 677.3 733.7 C 680.6 731.8, 686.2 731.5, 689.2 733.1 C 692.3 734.8, 692.3 733.6, 689.1 728.8 C 685.6 723.6, 683 721.1, 683 722.9 C 683 725.5, 681.1 722.8, 680.5 719.2 C 679.6 714, 678.2 712.5, 672.5 710.5 C 665.8 708.3, 633.5 706.5, 621 707.7 M 22.2 722.3 C 17.9 726.5, 16.3 732.8, 19 734.5 C 19.6 734.9, 19.8 735.6, 19.4 736.1 C 19 736.7, 18.4 736.7, 17.6 736.1 C 16.9 735.5, 16 735.3, 15.7 735.7 C 14.6 736.7, 14.9 743.8, 16 744.5 C 16.6 744.9, 17 743.9, 17 742.1 C 17 739, 20.4 736.9, 22.9 738.5 C 25.4 740, 25.7 737.8, 23.3 735.4 C 18.5 730.6, 22.7 721, 29.6 721 C 34.1 721, 35.7 723.2, 34.1 727.6 C 32.6 731.7, 33.1 732.7, 37.3 733.8 C 39.7 734.4, 41 735.6, 42.4 738.5 C 44.3 742.3, 44.4 742.3, 45.4 740.1 C 46.8 737, 45.4 735, 39.7 732.1 C 35.2 729.9, 33.9 727.8, 36 726.5 C 37.5 725.6, 37.2 721.4, 35.5 720 C 31.8 717, 26.7 717.8, 22.2 722.3 M 184.6 730.1 C 180.2 734, 179.8 734.1, 178.6 732.4 C 175.4 728, 166.5 731.2, 163 738 C 160.4 743.2, 160.5 744.1, 163.3 740.5 C 170 731.7, 173.7 730, 176.6 734.5 C 178.7 737.7, 179.4 737.6, 182.7 734.1 C 186.4 730.4, 189.2 729, 191.8 729.7 C 194.2 730.3, 194.7 729.1, 192.8 727.2 C 190.9 725.3, 189.6 725.7, 184.6 730.1 M 718.1 733 C 718.1 733.9, 715.7 735.2, 712.2 736.3 C 706.2 738.3, 702.2 740.6, 703.2 741.6 C 703.5 741.9, 704.6 741.7, 705.7 741.1 C 710.9 738.3, 716.9 737.1, 718.5 738.6 C 719.6 739.7, 721.2 739.9, 725 739.4 C 729.5 738.8, 730.3 739, 731.6 740.9 C 732.7 742.4, 734.2 743, 736.7 743 C 742.2 743, 746 746.3, 746 751 L 746 755 750.4 754.8 C 756.9 754.5, 759.4 757, 758.6 762.9 C 758.1 766.7, 758.2 767.1, 759.5 766 C 764.2 762.1, 759.2 752, 752.5 752 C 749.4 752, 749 751.7, 749 749.4 C 749 745.4, 743.7 741, 739 741 C 736 741, 735 740.5, 734.5 739.1 C 733.7 736.3, 731 735.8, 725.5 737 C 720.3 738.2, 719.4 737.8, 718.7 734 C 718.5 732.6, 718.2 732.2, 718.1 733 M 593.3 736 C 590.6 737.1, 586.9 742.8, 584.5 749.3 L 582.7 754.1 585.3 756.8 L 588 759.5 588 756.7 C 588 750.8, 592.5 745.4, 600.5 741.9 L 605.4 739.7 602.6 737.4 C 599.8 734.9, 597 734.5, 593.3 736 M 673.5 744.9 C 672.8 746.2, 673.7 746.6, 679 747.5 C 688.3 749, 693.9 753.9, 696.6 763.1 C 698.3 768.6, 700 769.6, 700 765 C 700 760.7, 696.7 754.7, 692.2 751 C 686.3 745.9, 675.1 742.4, 673.5 744.9 M 642.3 752.3 C 638.6 754, 638.1 754.8, 637.8 757.9 C 637.5 761.3, 637.3 761.5, 633.4 762.1 C 629.1 762.6, 624 765.3, 624 767 C 624 768.5, 625.1 768.2, 628.8 766 C 632.7 763.6, 637.6 763.4, 639.7 765.5 C 641.7 767.5, 642.5 766.8, 641.1 764.2 C 638.6 759.4, 640.2 755.9, 646.3 752.7 C 650.6 750.4, 647.1 750.1, 642.3 752.3" stroke="none" fill="#1b1f3a" fill-rule="evenodd"/></svg>