<svg xmlns="http://www.w3.org/2000/svg" viewBox="0 0 768 768" version="1.1" preserveAspectRatio="xMidYMid meet">
	<path d="M 193.426 48.647 C 192.632 53.938, 188.420 59, 184.811 59 C 182.072 59, 183.087 61.417, 186.005 61.843 C 189.896 62.411, 192.832 64.955, 194.070 68.832 C 195.791 74.222, 196.663 74.610, 197.463 70.343 C 198.566 64.467, 199.706 63.103, 204.532 61.888 C 209.302 60.686, 210.538 59, 206.648 59 C 202.151 59, 197.596 54.865, 196.500 49.788 C 195.107 43.333, 194.269 43.022, 193.426 48.647 M 441.500 83.081 C 381.970 86.574, 319.918 124.884, 289.375 177 C 283.635 186.794, 283.711 186.637, 277.051 202.500 C 268.503 222.861, 264.517 250.206, 266.034 278.062 C 267.467 304.361, 277.858 332.759, 293.147 352.167 L 296.036 355.833 293.045 356.490 C 289.322 357.308, 284 362.154, 284 364.727 C 284 366.845, 287.001 369.843, 291.240 371.959 C 293.532 373.103, 294.636 373.110, 297.995 372.002 C 300.203 371.273, 302.345 371.013, 302.755 371.423 C 304.705 373.378, 303.100 408.103, 299.493 442 C 298.645 449.975, 297.289 464.375, 296.481 474 C 295.672 483.625, 294.574 496, 294.041 501.500 C 293.508 507, 293.055 514.118, 293.036 517.317 C 293.007 521.946, 292.490 523.803, 290.500 526.411 C 285.917 532.419, 287.098 533.803, 306.801 545.520 C 315.414 550.641, 320.769 554.499, 321.994 556.465 C 324.189 559.985, 326.387 561.482, 332.262 563.456 C 353.424 570.565, 417.302 570.568, 438.162 563.461 C 442.885 561.851, 443.682 561.215, 449.107 554.717 C 452.655 550.467, 469.443 540, 472.712 540 C 476.773 540, 477.894 538.888, 478.599 534.161 C 479.008 531.420, 480.040 528.974, 481.105 528.223 C 483.214 526.735, 482.662 524.406, 480.037 523.720 C 478.430 523.300, 478.153 521.767, 477.719 510.871 C 477.447 504.067, 476.490 490.175, 475.593 480 C 474.695 469.825, 473.287 453.175, 472.464 443 C 468.848 398.290, 466.991 383.753, 464.553 381.059 C 462.638 378.942, 464.518 375.818, 469.148 373.423 C 471.033 372.449, 472.908 370.202, 474.117 367.469 C 477.385 360.081, 475.112 356.238, 465 352.054 C 449.625 345.693, 428.341 333.349, 423.474 327.972 C 420.548 324.739, 422.531 311.603, 426 311.234 C 435.473 310.225, 437.580 307.737, 436.823 298.456 C 436.509 294.616, 436.339 294.449, 431 292.750 C 426.982 291.472, 425.058 290.221, 423.859 288.109 C 422.502 285.718, 421.334 285.096, 417.109 284.515 C 412.240 283.845, 410.844 282.832, 412.976 281.515 C 413.512 281.183, 415.616 277.936, 417.650 274.298 C 421.758 266.952, 423.150 256.715, 421.193 248.244 C 419.701 241.785, 421.179 242.408, 424.950 249.827 C 435.296 270.179, 450.726 283.896, 477.585 296.616 C 493.149 303.988, 510 308.929, 510 306.122 C 510 304.524, 507.582 303.287, 500 301.003 C 477.304 294.166, 448.015 274.685, 436.854 259 C 430.407 249.939, 420.362 232.013, 417.802 225 C 412.960 211.733, 412.568 209.079, 412.558 189.500 C 412.545 163.955, 414.644 156.552, 426.617 139.923 C 443.630 116.294, 471.935 97.739, 502.815 89.973 C 509.065 88.401, 507.585 86.613, 499.421 85.872 C 495.615 85.527, 489.350 84.773, 485.500 84.196 C 475.821 82.747, 455.832 82.240, 441.500 83.081 M 435 88.673 C 423.350 89.849, 399.872 95.541, 392.500 98.978 C 391.400 99.491, 388.813 100.583, 386.750 101.404 L 383 102.898 383.015 109.699 C 383.023 113.440, 383.679 118.300, 384.471 120.500 C 386.292 125.553, 386.465 134.885, 384.750 135.542 C 383.772 135.917, 383.559 144.912, 383.772 176.874 L 384.043 217.727 388.852 218.296 C 397.399 219.308, 411.770 227.772, 415.088 233.748 C 417.700 238.453, 416.996 234.872, 413.732 226.851 C 408.237 213.349, 407.500 208.633, 407.500 187 C 407.500 164.374, 408.555 159.527, 416.369 146.258 C 429.385 124.156, 446.982 108.374, 472 96.364 C 477.225 93.855, 482.580 91.285, 483.900 90.652 C 486.230 89.535, 486.187 89.481, 482.400 88.808 C 478.494 88.114, 441.584 88.009, 435 88.673 M 370.500 108.858 C 327.320 132.481, 295.267 167.011, 282.076 204.112 C 280.827 207.625, 279.448 211.400, 279.013 212.500 C 268.786 238.329, 267.982 281.816, 277.201 310.500 C 281.829 324.899, 297.285 353, 300.577 353 C 301.360 353, 302 352.588, 302 352.085 C 302 349.759, 308.924 345.210, 324.059 337.594 L 340.500 329.320 340.788 320.754 L 341.075 312.188 336.788 311.521 C 329.754 310.427, 329.116 310.055, 326.440 305.487 C 323.329 300.179, 324.257 297, 328.919 297 C 330.847 297, 331.923 296.404, 332.250 295.153 C 332.899 292.670, 338.431 288.722, 344.271 286.574 L 349.043 284.818 345.909 279.341 C 336.430 262.773, 337.068 245.580, 347.628 233.030 C 354.081 225.361, 367.475 218, 374.975 218 L 378 218 378.004 189.250 C 378.006 173.438, 378.301 154.755, 378.659 147.734 L 379.310 134.969 376.908 135.234 C 375.108 135.434, 374.429 134.961, 374.196 133.347 C 373.814 130.689, 377.347 128, 381.223 128 C 384.501 128, 384.691 127.065, 382.065 123.861 C 380.403 121.833, 379.845 121.674, 378.111 122.730 C 374.843 124.720, 374.330 122.110, 377.494 119.587 C 380.133 117.482, 380.214 117.148, 379.523 111.198 C 379.127 107.789, 378.510 105.006, 378.152 105.014 C 377.793 105.022, 374.350 106.751, 370.500 108.858 M 371.793 223.988 C 366.938 225.452, 357.763 231.243, 353.686 235.416 C 343.435 245.912, 342.140 262.498, 350.545 275.638 L 354.003 281.044 356.752 279.301 C 358.263 278.343, 361.525 275.922, 364 273.921 C 366.475 271.921, 370.636 269.433, 373.246 268.392 C 377.868 266.549, 377.993 266.389, 377.996 262.238 C 377.998 259.894, 378.156 250.106, 378.346 240.488 C 378.731 221.021, 379.042 221.803, 371.793 223.988 M 384 244.454 C 384 267.802, 384.094 268.203, 389.850 269.467 C 391.430 269.814, 395.486 272.326, 398.866 275.049 C 406.054 280.842, 405.873 280.803, 409.203 277.250 C 419.132 266.654, 418.556 245.414, 408.056 234.996 C 403.381 230.358, 393.026 224.710, 387.250 223.648 L 384 223.050 384 244.454 M 367.724 277.422 C 361.664 279.915, 359 281.655, 359 283.122 C 359 283.605, 368.745 284, 380.655 284 L 402.310 284 400.405 281.870 C 393.719 274.395, 379.720 272.490, 367.724 277.422 M 349.670 289.578 C 337.085 292.626, 339.927 292.939, 380.464 292.970 C 416.243 292.997, 420.269 292.841, 418.907 291.478 C 415.405 287.977, 362.303 286.519, 349.670 289.578 M 338.500 297.911 L 334.500 298.538 337.875 299.269 C 342.736 300.322, 429.773 300.176, 430.430 299.114 C 430.731 298.626, 429.970 297.957, 428.739 297.627 C 425.801 296.840, 343.686 297.098, 338.500 297.911 M 331 305.455 C 331 307.886, 335.608 308.085, 384.929 307.787 C 430.099 307.514, 432.274 307.417, 430.607 305.750 C 428.157 303.300, 331 303.012, 331 305.455 M 154.185 310.241 C 152.417 316.229, 151.697 317.110, 147.954 317.876 C 146.137 318.247, 144.450 319.150, 144.206 319.881 C 143.867 320.900, 144.549 321.044, 147.132 320.494 C 151.436 319.578, 153.827 317.446, 154.812 313.644 L 155.595 310.626 157.384 314.398 C 158.453 316.650, 160.345 318.662, 162.080 319.392 C 164.929 320.590, 164.521 323, 161.469 323 C 160.239 323, 158.455 326.176, 157.677 329.750 C 157.408 330.988, 157.565 332, 158.027 332 C 158.489 332, 159.010 330.762, 159.184 329.250 C 159.427 327.130, 160.531 325.980, 164 324.231 C 169.399 321.509, 169.662 320.070, 165.044 318.515 C 161.511 317.325, 158.471 313.289, 157.835 308.943 C 157.274 305.114, 155.513 305.740, 154.185 310.241 M 404.474 313.410 C 404.286 314.009, 403.964 318.550, 403.756 323.500 C 403.161 337.726, 397.188 345.119, 384.540 347.286 C 365.148 350.608, 353.096 340.078, 353.024 319.750 C 353.005 314.427, 352.683 313, 351.500 313 C 349.043 313, 349.369 333.849, 351.903 338.790 C 361.293 357.100, 397.250 358.056, 407.692 340.272 C 410.220 335.967, 410.529 334.412, 410.851 324.379 L 411.208 313.257 408.011 312.788 C 406.180 312.520, 404.669 312.785, 404.474 313.410 M 356.176 321.750 C 356.664 333.144, 358.572 337.140, 365.393 341.052 C 375.306 346.738, 389.064 344.756, 397.250 336.465 C 401.424 332.238, 402.709 328.123, 398.750 331.664 C 391.076 338.528, 381.162 340.859, 372.207 337.903 C 364.813 335.463, 360.581 329.255, 359.440 319.176 C 358.937 314.725, 358.331 313, 357.271 313 C 356.061 313, 355.867 314.547, 356.176 321.750 M 364 317.099 C 364 329.478, 374.464 335.503, 388.146 331.001 C 396.647 328.203, 399 325.482, 399 318.444 L 399 313 381.500 313 L 364 313 364 317.099 M 413.729 325.887 C 412.957 343.243, 409.863 349.119, 399 353.855 C 380.366 361.978, 354.507 355.180, 347.766 340.386 L 346.687 338.019 341.996 342.407 C 336.938 347.138, 323.286 354.192, 316 355.839 C 300.932 359.246, 292.180 362.543, 292.750 364.598 C 292.887 365.094, 294.575 365.478, 296.500 365.450 C 298.425 365.422, 338.250 365.310, 385 365.200 C 452.246 365.042, 469.993 364.739, 469.968 363.750 C 469.870 359.901, 465.829 358.351, 448.500 355.515 C 434.911 353.292, 421.964 345.275, 417.009 336.018 C 415.851 333.854, 416.060 327.245, 417.619 316.750 C 418.099 313.516, 417.909 313, 416.239 313 C 414.453 313, 414.257 314.004, 413.729 325.887 M 421 334.325 C 421 338.512, 430.110 345.458, 440.168 348.939 C 452.124 353.077, 456.554 352.444, 446.233 348.071 C 441.280 345.973, 435.157 342.319, 423.750 334.652 C 421.431 333.094, 421 333.042, 421 334.325 M 340 334.736 C 339.175 335.054, 336.700 336.446, 334.500 337.829 C 332.300 339.213, 325.760 342.691, 319.967 345.559 C 311.081 349.957, 305.045 354, 307.363 354 C 309.082 354, 326.165 347.838, 330.500 345.654 C 340.731 340.500, 348.646 331.403, 340 334.736 M 309.250 369.669 C 306.506 370.761, 307.859 375.719, 311.485 377.859 C 318.558 382.032, 320.918 382.171, 384.045 382.126 L 444.749 382.083 452.192 378.550 C 456.286 376.607, 460.629 373.960, 461.843 372.668 L 464.050 370.318 432.275 369.649 C 396.470 368.894, 311.162 368.908, 309.250 369.669 M 309.506 384.250 C 309.269 384.938, 308.370 395.400, 307.509 407.500 C 306.648 419.600, 305.280 435.575, 304.470 443 C 303.133 455.236, 301.554 471.556, 299.001 499.500 C 298.498 505, 298.068 512.215, 298.044 515.534 L 298 521.569 302.681 523.303 C 308.209 525.352, 308.641 525.043, 309.382 518.500 C 310.494 508.667, 312.927 482.265, 313.943 469 C 314.937 456.015, 315.810 446.613, 318.118 424 C 319.973 405.823, 320.344 393.120, 319.065 391.579 C 318.270 390.620, 318.234 389.974, 318.951 389.530 C 320.470 388.592, 320.240 386, 318.638 386 C 317.266 386, 316.595 390.403, 312.507 426.251 C 308.885 458.012, 306.660 479.408, 304.942 499 C 303.792 512.113, 302.405 517.805, 300.759 516.159 C 299.841 515.241, 300.013 512.757, 303.056 483 C 303.647 477.225, 304.752 466.425, 305.511 459 C 306.271 451.575, 307.360 440.775, 307.931 435 C 308.502 429.225, 309.401 421.350, 309.928 417.500 C 310.455 413.650, 311.159 407.350, 311.492 403.500 C 311.825 399.650, 312.810 394.143, 313.681 391.263 C 314.961 387.035, 315.024 385.734, 314.010 384.513 C 312.488 382.678, 310.096 382.539, 309.506 384.250 M 458.517 385.333 C 456.790 387.970, 457.344 401.998, 460.421 433.500 C 461.227 441.750, 462.365 453.675, 462.950 460 C 463.535 466.325, 464.470 475.100, 465.028 479.500 C 466.382 490.187, 467.905 512.085, 467.387 513.427 C 467.159 514.017, 465.623 514.548, 463.973 514.607 C 462.323 514.666, 460.156 515.454, 459.158 516.357 C 458.159 517.261, 455.915 518, 454.171 518 C 451.084 518, 451 518.119, 451 522.452 L 451 526.904 455.595 525.522 C 460.024 524.188, 463.157 522.157, 465.653 519 C 466.641 517.750, 467.372 517.702, 470.049 518.712 L 473.259 519.924 472.689 509.712 C 472.375 504.095, 471.402 491.400, 470.526 481.500 C 468.542 459.091, 466.448 433.234, 464.978 413 C 463.679 395.127, 462.195 384.239, 460.954 383.472 C 460.478 383.177, 459.381 384.015, 458.517 385.333 M 378.908 386.727 L 337.316 387.022 336.186 393.761 C 334.870 401.603, 332.379 424.739, 331.530 437 C 331.206 441.675, 330.521 450, 330.007 455.500 C 328.033 476.629, 326.678 509.078, 327.727 510.127 C 328.293 510.693, 330.332 511.511, 332.260 511.946 L 335.764 512.736 336.424 508.118 C 336.786 505.578, 337.744 483.025, 338.551 458 C 339.535 427.502, 340.525 409.697, 341.553 404 C 342.397 399.325, 343.180 394.468, 343.293 393.206 C 343.583 389.988, 342.971 390.036, 387.500 389.753 C 422.276 389.533, 427.500 389.304, 427.500 388 C 427.500 386.959, 426.430 386.490, 424 386.466 C 422.075 386.448, 401.784 386.565, 378.908 386.727 M 448.840 387.344 C 446.432 388.415, 446.314 388.709, 447.590 390.454 C 448.434 391.608, 449.002 394.814, 449.005 398.441 C 449.008 401.774, 449.929 414.850, 451.051 427.500 C 453.795 458.446, 455.868 485.015, 456.651 499.283 C 457.354 512.106, 457.567 512.610, 461.520 510.809 C 463.964 509.695, 464.135 509.249, 463.534 505.546 C 463.172 503.321, 462.242 494.750, 461.465 486.500 C 460.689 478.250, 459.378 465.425, 458.552 458 C 457.087 444.838, 456.026 433.995, 453.996 411.441 C 453.448 405.359, 453 397.147, 453 393.191 C 453 385.563, 452.964 385.512, 448.840 387.344 M 323.388 388.431 C 323.052 389.308, 323.334 390.698, 324.016 391.520 C 325.459 393.258, 324.961 406.003, 322.549 429 C 320.919 444.548, 318.736 469.576, 316.965 493 C 316.363 500.975, 315.495 509.975, 315.037 513 C 314.007 519.810, 314.229 520.059, 317.709 515.978 C 322.041 510.898, 321.974 511.210, 323.007 491.312 C 323.544 480.965, 324.452 467.550, 325.025 461.500 C 325.598 455.450, 326.485 445.100, 326.996 438.500 C 329.355 408.045, 330.908 391.358, 331.533 389.750 C 331.908 388.788, 332.053 387.983, 331.857 387.962 C 331.661 387.941, 329.812 387.680, 327.750 387.381 C 324.894 386.966, 323.854 387.217, 323.388 388.431 M 431.309 396.750 C 431.606 402.113, 432.549 414.375, 433.403 424 C 437.738 472.831, 439.227 495.279, 438.842 506 L 438.500 515.500 435 516.694 C 432.495 517.548, 418.220 517.903, 384.769 517.944 L 338.038 518 337.547 520.250 C 336.035 527.179, 330.180 526.470, 391.297 526.759 L 446.094 527.017 445.515 523.759 C 445.197 521.966, 444.271 504.750, 443.458 485.500 C 441.263 433.543, 438.849 395.701, 437.317 389.250 C 436.910 387.534, 436.070 387, 433.775 387 L 430.767 387 431.309 396.750 M 442.621 389.144 C 442.207 390.048, 442.344 397.248, 442.927 405.144 C 447.002 460.379, 448.084 477.163, 448.860 497.189 C 449.545 514.873, 450.011 517.389, 452.198 515.202 C 453.601 513.799, 450.738 464.200, 448.002 442.500 C 447.447 438.100, 446.494 427.750, 445.883 419.500 C 443.783 391.124, 443.390 387.468, 442.621 389.144 M 345.512 396.250 C 345.116 397.488, 344.212 418.525, 343.503 443 C 342.794 467.475, 341.887 490.556, 341.487 494.290 L 340.758 501.080 347.629 500.468 C 351.408 500.131, 357.811 499.212, 361.857 498.427 C 365.903 497.642, 372.203 496.986, 375.857 496.968 C 381.916 496.939, 382.329 496.807, 380.559 495.468 C 379.491 494.661, 377.691 493.996, 376.559 493.990 C 370.610 493.962, 358.058 485.253, 353.522 478.006 C 344.801 464.071, 346.476 441.553, 356.929 432.200 C 371.527 419.138, 394.965 418.295, 408.649 430.340 C 411.210 432.594, 414.587 436.207, 416.153 438.369 C 419.468 442.946, 419.797 441.550, 417.371 433.205 C 412.248 415.582, 399.709 406.500, 380.500 406.500 C 368.587 406.500, 361.552 410.009, 353.711 419.863 C 347.499 427.670, 345.955 426.101, 351.429 417.544 C 364.976 396.367, 399.480 396.961, 414.654 418.633 C 421.063 427.786, 422 431.716, 422 449.446 C 422 468.900, 420.584 473.348, 411.412 482.702 C 404.792 489.453, 397.992 493.234, 389.171 495.067 C 381.874 496.584, 383.356 497.324, 393.226 497.093 C 398.364 496.973, 403.043 497.446, 405.571 498.342 C 407.810 499.136, 414.465 500.304, 420.360 500.939 C 426.255 501.573, 431.690 502.328, 432.438 502.615 C 435.176 503.665, 435.181 501.053, 432.503 470.500 C 432.214 467.200, 431.529 457.750, 430.980 449.500 C 430.432 441.250, 429.487 427.075, 428.881 418 C 428.275 408.925, 427.460 401.154, 427.071 400.731 C 426.681 400.308, 424.886 402.239, 423.083 405.022 C 419.795 410.095, 415.492 413.826, 414.302 412.635 C 413.952 412.285, 415.018 410.312, 416.670 408.250 C 420.529 403.434, 425 396.332, 425 395.020 C 425 394.344, 411.717 394, 385.617 394 L 346.233 394 345.512 396.250 M 372.892 427.354 C 353.227 435.444, 346.243 453.128, 354.825 473.103 C 362.076 489.980, 387.327 497.378, 401.500 486.778 C 414.095 477.358, 420.904 463.586, 418.123 453.156 C 412.258 431.158, 391.890 419.539, 372.892 427.354 M 122.068 503.076 C 122.002 506.527, 120.017 509.294, 115.942 511.613 C 114.641 512.354, 115.012 513.118, 118.192 516.250 C 121.456 519.464, 122 519.710, 122 517.969 C 122 516.851, 121.325 515.678, 120.500 515.362 C 116.413 513.793, 121.167 509.683, 125.959 510.642 C 129.398 511.330, 129.580 511.698, 127.578 513.921 C 125.231 516.526, 124.482 521, 126.392 521 C 127.332 521, 128 520.172, 128 519.006 C 128 517.820, 129.671 515.802, 132.126 514.023 C 136.482 510.868, 136.354 510.631, 129.704 509.524 C 127.065 509.085, 125.651 508.223, 125.063 506.696 C 122.226 499.319, 122.141 499.216, 122.068 503.076 M 375.250 500.785 C 369.613 500.942, 365 501.455, 365 501.926 C 365 505.881, 390.192 507.570, 398.852 504.196 C 407.715 500.742, 402.725 500.021, 375.250 500.785 M 406.064 503.880 C 402.228 511.048, 372.152 512.167, 363.369 505.468 C 359.696 502.667, 357.862 502.516, 348.019 504.204 L 341 505.407 341 509.046 L 341 512.684 359.160 513.342 C 380.542 514.117, 409.429 514.023, 423.500 513.133 C 433.488 512.501, 433.500 512.497, 433.816 509.750 C 433.990 508.238, 433.911 507, 433.639 507 C 430.858 507, 416.411 504.557, 412.568 503.437 C 406.557 501.685, 407.265 501.637, 406.064 503.880 M 319.103 518.040 C 315.277 520.812, 313.173 523.522, 314.126 524.450 C 314.332 524.650, 319.113 525.139, 324.750 525.536 L 335 526.258 334.992 521.879 C 334.985 518.105, 334.613 517.327, 332.293 516.250 C 327.833 514.179, 323.650 514.746, 319.103 518.040 M 459 528.300 L 452.500 530.500 452.200 536.250 C 451.853 542.908, 451.787 542.882, 459.573 539.189 C 462.833 537.643, 467.413 535.771, 469.750 535.029 C 474.201 533.616, 474.626 532.777, 473.025 528.565 C 471.783 525.298, 468.077 525.228, 459 528.300 M 295 529.801 C 295 532.241, 295.968 533.153, 302.506 536.872 C 306.634 539.221, 312.304 542.686, 315.106 544.571 C 321.177 548.657, 321 548.627, 321 545.571 C 321 542.926, 319.749 541.402, 314.163 537.241 C 312.149 535.740, 310.275 534.232, 310 533.891 C 308.889 532.513, 298.225 527, 296.669 527 C 295.508 527, 295 527.852, 295 529.801 M 312.854 532.466 C 320.425 537.713, 322.997 538.446, 327.390 536.610 C 329.798 535.604, 331 534.449, 331 533.139 C 331 530.950, 329.287 530.538, 315.500 529.410 L 307.500 528.756 312.854 532.466 M 335.750 531.555 C 335.337 531.983, 335 533.833, 335 535.667 L 335 539 389 539.188 C 418.700 539.291, 444.238 539.403, 445.750 539.438 C 448.219 539.494, 448.532 539.117, 448.810 535.750 L 449.121 532 400.211 532 C 373.311 532, 347.971 531.725, 343.901 531.389 C 339.830 531.052, 336.163 531.127, 335.750 531.555 M 328.206 542.120 C 326.632 542.702, 326 543.759, 326 545.810 L 326 548.684 344.750 549.339 C 373.516 550.344, 416.323 550.123, 424.016 548.930 C 427.811 548.341, 432.172 548.028, 433.708 548.234 C 436.355 548.590, 436.241 548.736, 431.500 551.055 L 426.500 553.500 377 553.477 C 332.196 553.456, 328.354 553.579, 336.500 554.773 C 341.807 555.550, 359.657 556.312, 380 556.629 C 418.026 557.222, 425.369 556.463, 438.134 550.624 C 444.535 547.697, 446.814 543.967, 442.156 544.044 C 425.535 544.317, 336.623 542.739, 333.956 542.122 C 332.007 541.672, 329.419 541.671, 328.206 542.120 M 432 557.066 C 418.861 560.956, 364.824 562.160, 344.500 559.017 C 329.863 556.754, 330.385 556.796, 332.319 558.023 C 339.777 562.753, 401.173 565.167, 421.781 561.540 C 431.422 559.843, 441 556.991, 441 555.817 C 441 554.657, 439.382 554.881, 432 557.066 M 515 634.365 C 515 636.621, 510.992 641, 508.927 641 C 505.891 641, 506.680 642.986, 509.978 643.646 C 513.727 644.395, 514.752 645.636, 515.168 649.927 C 515.649 654.877, 518 655.186, 518 650.299 C 518 646.316, 521.363 643, 525.404 643 C 526.282 643, 527 642.550, 527 642 C 527 641.450, 525.953 641, 524.674 641 C 522.289 641, 518.779 637.864, 517.680 634.750 C 516.951 632.682, 515 632.402, 515 634.365 M 57.380 685.452 C 57.074 686.251, 57.077 687.316, 57.388 687.818 C 57.727 688.367, 190.630 688.785, 389.856 688.864 C 739.630 689.002, 726.069 689.157, 723.527 685.044 C 722.395 683.211, 58.084 683.619, 57.380 685.452 M 56.501 702.999 C 56.160 703.549, 56.160 704.450, 56.500 705 C 56.910 705.663, 169.368 706, 390.632 706 C 707.727 706, 724.130 705.914, 723.810 704.250 C 723.490 702.588, 706.698 702.487, 390.296 702.249 C 168.657 702.081, 56.913 702.332, 56.501 702.999" stroke="none" fill="#1b1f3a" fill-rule="evenodd"/>
</svg>