<svg xmlns="http://www.w3.org/2000/svg" viewBox="0 0 768 768" version="1.1" preserveAspectRatio="xMidYMid meet"><path d="M 193.4 48.6 C 192.6 53.9, 188.4 59, 184.8 59 C 182.1 59, 183.1 61.4, 186 61.8 C 189.9 62.4, 192.8 65, 194.1 68.8 C 195.8 74.2, 196.7 74.6, 197.5 70.3 C 198.6 64.5, 199.7 63.1, 204.5 61.9 C 209.3 60.7, 210.5 59, 206.6 59 C 202.2 59, 197.6 54.9, 196.5 49.8 C 195.1 43.3, 194.3 43, 193.4 48.6 M 441.5 83.1 C 382 86.6, 319.9 124.9, 289.4 177 C 283.6 186.8, 283.7 186.6, 277.1 202.5 C 268.5 222.9, 264.5 250.2, 266 278.1 C 267.5 304.4, 277.9 332.8, 293.1 352.2 L 296 355.8 293 356.5 C 289.3 357.3, 284 362.2, 284 364.7 C 284 366.8, 287 369.8, 291.2 372 C 293.5 373.1, 294.6 373.1, 298 372 C 300.2 371.3, 302.3 371, 302.8 371.4 C 304.7 373.4, 303.1 408.1, 299.5 442 C 298.6 450, 297.3 464.4, 296.5 474 C 295.7 483.6, 294.6 496, 294 501.5 C 293.5 507, 293.1 514.1, 293 517.3 C 293 521.9, 292.5 523.8, 290.5 526.4 C 285.9 532.4, 287.1 533.8, 306.8 545.5 C 315.4 550.6, 320.8 554.5, 322 556.5 C 324.2 560, 326.4 561.5, 332.3 563.5 C 353.4 570.6, 417.3 570.6, 438.2 563.5 C 442.9 561.9, 443.7 561.2, 449.1 554.7 C 452.7 550.5, 469.4 540, 472.7 540 C 476.8 540, 477.9 538.9, 478.6 534.2 C 479 531.4, 480 529, 481.1 528.2 C 483.2 526.7, 482.7 524.4, 480 523.7 C 478.4 523.3, 478.2 521.8, 477.7 510.9 C 477.4 504.1, 476.5 490.2, 475.6 480 C 474.7 469.8, 473.3 453.2, 472.5 443 C 468.8 398.3, 467 383.8, 464.6 381.1 C 462.6 378.9, 464.5 375.8, 469.1 373.4 C 471 372.4, 472.9 370.2, 474.1 367.5 C 477.4 360.1, 475.1 356.2, 465 352.1 C 449.6 345.7, 428.3 333.3, 423.5 328 C 420.5 324.7, 422.5 311.6, 426 311.2 C 435.5 310.2, 437.6 307.7, 436.8 298.5 C 436.5 294.6, 436.3 294.4, 431 292.8 C 427 291.5, 425.1 290.2, 423.9 288.1 C 422.5 285.7, 421.3 285.1, 417.1 284.5 C 412.2 283.8, 410.8 282.8, 413 281.5 C 413.5 281.2, 415.6 277.9, 417.7 274.3 C 421.8 267, 423.2 256.7, 421.2 248.2 C 419.7 241.8, 421.2 242.4, 425 249.8 C 435.3 270.2, 450.7 283.9, 477.6 296.6 C 493.1 304, 510 308.9, 510 306.1 C 510 304.5, 507.6 303.3, 500 301 C 477.3 294.2, 448 274.7, 436.9 259 C 430.4 249.9, 420.4 232, 417.8 225 C 413 211.7, 412.6 209.1, 412.6 189.5 C 412.5 164, 414.6 156.6, 426.6 139.9 C 443.6 116.3, 471.9 97.7, 502.8 90 C 509.1 88.4, 507.6 86.6, 499.4 85.9 C 495.6 85.5, 489.4 84.8, 485.5 84.2 C 475.8 82.7, 455.8 82.2, 441.5 83.1 M 435 88.7 C 423.4 89.8, 399.9 95.5, 392.5 99 C 391.4 99.5, 388.8 100.6, 386.8 101.4 L 383 102.9 383 109.7 C 383 113.4, 383.7 118.3, 384.5 120.5 C 386.3 125.6, 386.5 134.9, 384.8 135.5 C 383.8 135.9, 383.6 144.9, 383.8 176.9 L 384 217.7 388.9 218.3 C 397.4 219.3, 411.8 227.8, 415.1 233.7 C 417.7 238.5, 417 234.9, 413.7 226.9 C 408.2 213.3, 407.5 208.6, 407.5 187 C 407.5 164.4, 408.6 159.5, 416.4 146.3 C 429.4 124.2, 447 108.4, 472 96.4 C 477.2 93.9, 482.6 91.3, 483.9 90.7 C 486.2 89.5, 486.2 89.5, 482.4 88.8 C 478.5 88.1, 441.6 88, 435 88.7 M 370.5 108.9 C 327.3 132.5, 295.3 167, 282.1 204.1 C 280.8 207.6, 279.4 211.4, 279 212.5 C 268.8 238.3, 268 281.8, 277.2 310.5 C 281.8 324.9, 297.3 353, 300.6 353 C 301.4 353, 302 352.6, 302 352.1 C 302 349.8, 308.9 345.2, 324.1 337.6 L 340.5 329.3 340.8 320.8 L 341.1 312.2 336.8 311.5 C 329.8 310.4, 329.1 310.1, 326.4 305.5 C 323.3 300.2, 324.3 297, 328.9 297 C 330.8 297, 331.9 296.4, 332.3 295.2 C 332.9 292.7, 338.4 288.7, 344.3 286.6 L 349 284.8 345.9 279.3 C 336.4 262.8, 337.1 245.6, 347.6 233 C 354.1 225.4, 367.5 218, 375 218 L 378 218 378 189.3 C 378 173.4, 378.3 154.8, 378.7 147.7 L 379.3 135 376.9 135.2 C 375.1 135.4, 374.4 135, 374.2 133.3 C 373.8 130.7, 377.3 128, 381.2 128 C 384.5 128, 384.7 127.1, 382.1 123.9 C 380.4 121.8, 379.8 121.7, 378.1 122.7 C 374.8 124.7, 374.3 122.1, 377.5 119.6 C 380.1 117.5, 380.2 117.1, 379.5 111.2 C 379.1 107.8, 378.5 105, 378.2 105 C 377.8 105, 374.4 106.8, 370.5 108.9 M 371.8 224 C 366.9 225.5, 357.8 231.2, 353.7 235.4 C 343.4 245.9, 342.1 262.5, 350.5 275.6 L 354 281 356.8 279.3 C 358.3 278.3, 361.5 275.9, 364 273.9 C 366.5 271.9, 370.6 269.4, 373.2 268.4 C 377.9 266.5, 378 266.4, 378 262.2 C 378 259.9, 378.2 250.1, 378.3 240.5 C 378.7 221, 379 221.8, 371.8 224 M 384 244.5 C 384 267.8, 384.1 268.2, 389.9 269.5 C 391.4 269.8, 395.5 272.3, 398.9 275 C 406.1 280.8, 405.9 280.8, 409.2 277.3 C 419.1 266.7, 418.6 245.4, 408.1 235 C 403.4 230.4, 393 224.7, 387.3 223.6 L 384 223.1 384 244.5 M 367.7 277.4 C 361.7 279.9, 359 281.7, 359 283.1 C 359 283.6, 368.7 284, 380.7 284 L 402.3 284 400.4 281.9 C 393.7 274.4, 379.7 272.5, 367.7 277.4 M 349.7 289.6 C 337.1 292.6, 339.9 292.9, 380.5 293 C 416.2 293, 420.3 292.8, 418.9 291.5 C 415.4 288, 362.3 286.5, 349.7 289.6 M 338.5 297.9 L 334.5 298.5 337.9 299.3 C 342.7 300.3, 429.8 300.2, 430.4 299.1 C 430.7 298.6, 430 298, 428.7 297.6 C 425.8 296.8, 343.7 297.1, 338.5 297.9 M 331 305.5 C 331 307.9, 335.6 308.1, 384.9 307.8 C 430.1 307.5, 432.3 307.4, 430.6 305.8 C 428.2 303.3, 331 303, 331 305.5 M 154.2 310.2 C 152.4 316.2, 151.7 317.1, 148 317.9 C 146.1 318.2, 144.5 319.2, 144.2 319.9 C 143.9 320.9, 144.5 321, 147.1 320.5 C 151.4 319.6, 153.8 317.4, 154.8 313.6 L 155.6 310.6 157.4 314.4 C 158.5 316.7, 160.3 318.7, 162.1 319.4 C 164.9 320.6, 164.5 323, 161.5 323 C 160.2 323, 158.5 326.2, 157.7 329.8 C 157.4 331, 157.6 332, 158 332 C 158.5 332, 159 330.8, 159.2 329.3 C 159.4 327.1, 160.5 326, 164 324.2 C 169.4 321.5, 169.7 320.1, 165 318.5 C 161.5 317.3, 158.5 313.3, 157.8 308.9 C 157.3 305.1, 155.5 305.7, 154.2 310.2 M 404.5 313.4 C 404.3 314, 404 318.6, 403.8 323.5 C 403.2 337.7, 397.2 345.1, 384.5 347.3 C 365.1 350.6, 353.1 340.1, 353 319.8 C 353 314.4, 352.7 313, 351.5 313 C 349 313, 349.4 333.8, 351.9 338.8 C 361.3 357.1, 397.3 358.1, 407.7 340.3 C 410.2 336, 410.5 334.4, 410.9 324.4 L 411.2 313.3 408 312.8 C 406.2 312.5, 404.7 312.8, 404.5 313.4 M 356.2 321.8 C 356.7 333.1, 358.6 337.1, 365.4 341.1 C 375.3 346.7, 389.1 344.8, 397.3 336.5 C 401.4 332.2, 402.7 328.1, 398.8 331.7 C 391.1 338.5, 381.2 340.9, 372.2 337.9 C 364.8 335.5, 360.6 329.3, 359.4 319.2 C 358.9 314.7, 358.3 313, 357.3 313 C 356.1 313, 355.9 314.5, 356.2 321.8 M 364 317.1 C 364 329.5, 374.5 335.5, 388.1 331 C 396.6 328.2, 399 325.5, 399 318.4 L 399 313 381.5 313 L 364 313 364 317.1 M 413.7 325.9 C 413 343.2, 409.9 349.1, 399 353.9 C 380.4 362, 354.5 355.2, 347.8 340.4 L 346.7 338 342 342.4 C 336.9 347.1, 323.3 354.2, 316 355.8 C 300.9 359.2, 292.2 362.5, 292.8 364.6 C 292.9 365.1, 294.6 365.5, 296.5 365.5 C 298.4 365.4, 338.3 365.3, 385 365.2 C 452.2 365, 470 364.7, 470 363.8 C 469.9 359.9, 465.8 358.4, 448.5 355.5 C 434.9 353.3, 422 345.3, 417 336 C 415.9 333.9, 416.1 327.2, 417.6 316.8 C 418.1 313.5, 417.9 313, 416.2 313 C 414.5 313, 414.3 314, 413.7 325.9 M 421 334.3 C 421 338.5, 430.1 345.5, 440.2 348.9 C 452.1 353.1, 456.6 352.4, 446.2 348.1 C 441.3 346, 435.2 342.3, 423.8 334.7 C 421.4 333.1, 421 333, 421 334.3 M 340 334.7 C 339.2 335.1, 336.7 336.4, 334.5 337.8 C 332.3 339.2, 325.8 342.7, 320 345.6 C 311.1 350, 305 354, 307.4 354 C 309.1 354, 326.2 347.8, 330.5 345.7 C 340.7 340.5, 348.6 331.4, 340 334.7 M 309.3 369.7 C 306.5 370.8, 307.9 375.7, 311.5 377.9 C 318.6 382, 320.9 382.2, 384 382.1 L 444.7 382.1 452.2 378.6 C 456.3 376.6, 460.6 374, 461.8 372.7 L 464.1 370.3 432.3 369.6 C 396.5 368.9, 311.2 368.9, 309.3 369.7 M 309.5 384.3 C 309.3 384.9, 308.4 395.4, 307.5 407.5 C 306.6 419.6, 305.3 435.6, 304.5 443 C 303.1 455.2, 301.6 471.6, 299 499.5 C 298.5 505, 298.1 512.2, 298 515.5 L 298 521.6 302.7 523.3 C 308.2 525.4, 308.6 525, 309.4 518.5 C 310.5 508.7, 312.9 482.3, 313.9 469 C 314.9 456, 315.8 446.6, 318.1 424 C 320 405.8, 320.3 393.1, 319.1 391.6 C 318.3 390.6, 318.2 390, 319 389.5 C 320.5 388.6, 320.2 386, 318.6 386 C 317.3 386, 316.6 390.4, 312.5 426.3 C 308.9 458, 306.7 479.4, 304.9 499 C 303.8 512.1, 302.4 517.8, 300.8 516.2 C 299.8 515.2, 300 512.8, 303.1 483 C 303.6 477.2, 304.8 466.4, 305.5 459 C 306.3 451.6, 307.4 440.8, 307.9 435 C 308.5 429.2, 309.4 421.4, 309.9 417.5 C 310.5 413.7, 311.2 407.4, 311.5 403.5 C 311.8 399.7, 312.8 394.1, 313.7 391.3 C 315 387, 315 385.7, 314 384.5 C 312.5 382.7, 310.1 382.5, 309.5 384.3 M 458.5 385.3 C 456.8 388, 457.3 402, 460.4 433.5 C 461.2 441.8, 462.4 453.7, 463 460 C 463.5 466.3, 464.5 475.1, 465 479.5 C 466.4 490.2, 467.9 512.1, 467.4 513.4 C 467.2 514, 465.6 514.5, 464 514.6 C 462.3 514.7, 460.2 515.5, 459.2 516.4 C 458.2 517.3, 455.9 518, 454.2 518 C 451.1 518, 451 518.1, 451 522.5 L 451 526.9 455.6 525.5 C 460 524.2, 463.2 522.2, 465.7 519 C 466.6 517.8, 467.4 517.7, 470 518.7 L 473.3 519.9 472.7 509.7 C 472.4 504.1, 471.4 491.4, 470.5 481.5 C 468.5 459.1, 466.4 433.2, 465 413 C 463.7 395.1, 462.2 384.2, 461 383.5 C 460.5 383.2, 459.4 384, 458.5 385.3 M 378.9 386.7 L 337.3 387 336.2 393.8 C 334.9 401.6, 332.4 424.7, 331.5 437 C 331.2 441.7, 330.5 450, 330 455.5 C 328 476.6, 326.7 509.1, 327.7 510.1 C 328.3 510.7, 330.3 511.5, 332.3 511.9 L 335.8 512.7 336.4 508.1 C 336.8 505.6, 337.7 483, 338.6 458 C 339.5 427.5, 340.5 409.7, 341.6 404 C 342.4 399.3, 343.2 394.5, 343.3 393.2 C 343.6 390, 343 390, 387.5 389.8 C 422.3 389.5, 427.5 389.3, 427.5 388 C 427.5 387, 426.4 386.5, 424 386.5 C 422.1 386.4, 401.8 386.6, 378.9 386.7 M 448.8 387.3 C 446.4 388.4, 446.3 388.7, 447.6 390.5 C 448.4 391.6, 449 394.8, 449 398.4 C 449 401.8, 449.9 414.9, 451.1 427.5 C 453.8 458.4, 455.9 485, 456.7 499.3 C 457.4 512.1, 457.6 512.6, 461.5 510.8 C 464 509.7, 464.1 509.2, 463.5 505.5 C 463.2 503.3, 462.2 494.8, 461.5 486.5 C 460.7 478.3, 459.4 465.4, 458.6 458 C 457.1 444.8, 456 434, 454 411.4 C 453.4 405.4, 453 397.1, 453 393.2 C 453 385.6, 453 385.5, 448.8 387.3 M 323.4 388.4 C 323.1 389.3, 323.3 390.7, 324 391.5 C 325.5 393.3, 325 406, 322.5 429 C 320.9 444.5, 318.7 469.6, 317 493 C 316.4 501, 315.5 510, 315 513 C 314 519.8, 314.2 520.1, 317.7 516 C 322 510.9, 322 511.2, 323 491.3 C 323.5 481, 324.5 467.6, 325 461.5 C 325.6 455.5, 326.5 445.1, 327 438.5 C 329.4 408, 330.9 391.4, 331.5 389.8 C 331.9 388.8, 332.1 388, 331.9 388 C 331.7 387.9, 329.8 387.7, 327.8 387.4 C 324.9 387, 323.9 387.2, 323.4 388.4 M 431.3 396.8 C 431.6 402.1, 432.5 414.4, 433.4 424 C 437.7 472.8, 439.2 495.3, 438.8 506 L 438.5 515.5 435 516.7 C 432.5 517.5, 418.2 517.9, 384.8 517.9 L 338 518 337.5 520.3 C 336 527.2, 330.2 526.5, 391.3 526.8 L 446.1 527 445.5 523.8 C 445.2 522, 444.3 504.8, 443.5 485.5 C 441.3 433.5, 438.8 395.7, 437.3 389.3 C 436.9 387.5, 436.1 387, 433.8 387 L 430.8 387 431.3 396.8 M 442.6 389.1 C 442.2 390, 442.3 397.2, 442.9 405.1 C 447 460.4, 448.1 477.2, 448.9 497.2 C 449.5 514.9, 450 517.4, 452.2 515.2 C 453.6 513.8, 450.7 464.2, 448 442.5 C 447.4 438.1, 446.5 427.8, 445.9 419.5 C 443.8 391.1, 443.4 387.5, 442.6 389.1 M 345.5 396.3 C 345.1 397.5, 344.2 418.5, 343.5 443 C 342.8 467.5, 341.9 490.6, 341.5 494.3 L 340.8 501.1 347.6 500.5 C 351.4 500.1, 357.8 499.2, 361.9 498.4 C 365.9 497.6, 372.2 497, 375.9 497 C 381.9 496.9, 382.3 496.8, 380.6 495.5 C 379.5 494.7, 377.7 494, 376.6 494 C 370.6 494, 358.1 485.3, 353.5 478 C 344.8 464.1, 346.5 441.6, 356.9 432.2 C 371.5 419.1, 395 418.3, 408.6 430.3 C 411.2 432.6, 414.6 436.2, 416.2 438.4 C 419.5 442.9, 419.8 441.6, 417.4 433.2 C 412.2 415.6, 399.7 406.5, 380.5 406.5 C 368.6 406.5, 361.6 410, 353.7 419.9 C 347.5 427.7, 346 426.1, 351.4 417.5 C 365 396.4, 399.5 397, 414.7 418.6 C 421.1 427.8, 422 431.7, 422 449.4 C 422 468.9, 420.6 473.3, 411.4 482.7 C 404.8 489.5, 398 493.2, 389.2 495.1 C 381.9 496.6, 383.4 497.3, 393.2 497.1 C 398.4 497, 403 497.4, 405.6 498.3 C 407.8 499.1, 414.5 500.3, 420.4 500.9 C 426.3 501.6, 431.7 502.3, 432.4 502.6 C 435.2 503.7, 435.2 501.1, 432.5 470.5 C 432.2 467.2, 431.5 457.8, 431 449.5 C 430.4 441.3, 429.5 427.1, 428.9 418 C 428.3 408.9, 427.5 401.2, 427.1 400.7 C 426.7 400.3, 424.9 402.2, 423.1 405 C 419.8 410.1, 415.5 413.8, 414.3 412.6 C 414 412.3, 415 410.3, 416.7 408.3 C 420.5 403.4, 425 396.3, 425 395 C 425 394.3, 411.7 394, 385.6 394 L 346.2 394 345.5 396.3 M 372.9 427.4 C 353.2 435.4, 346.2 453.1, 354.8 473.1 C 362.1 490, 387.3 497.4, 401.5 486.8 C 414.1 477.4, 420.9 463.6, 418.1 453.2 C 412.3 431.2, 391.9 419.5, 372.9 427.4 M 122.1 503.1 C 122 506.5, 120 509.3, 115.9 511.6 C 114.6 512.4, 115 513.1, 118.2 516.3 C 121.5 519.5, 122 519.7, 122 518 C 122 516.9, 121.3 515.7, 120.5 515.4 C 116.4 513.8, 121.2 509.7, 126 510.6 C 129.4 511.3, 129.6 511.7, 127.6 513.9 C 125.2 516.5, 124.5 521, 126.4 521 C 127.3 521, 128 520.2, 128 519 C 128 517.8, 129.7 515.8, 132.1 514 C 136.5 510.9, 136.4 510.6, 129.7 509.5 C 127.1 509.1, 125.7 508.2, 125.1 506.7 C 122.2 499.3, 122.1 499.2, 122.1 503.1 M 375.3 500.8 C 369.6 500.9, 365 501.5, 365 501.9 C 365 505.9, 390.2 507.6, 398.9 504.2 C 407.7 500.7, 402.7 500, 375.3 500.8 M 406.1 503.9 C 402.2 511, 372.2 512.2, 363.4 505.5 C 359.7 502.7, 357.9 502.5, 348 504.2 L 341 505.4 341 509 L 341 512.7 359.2 513.3 C 380.5 514.1, 409.4 514, 423.5 513.1 C 433.5 512.5, 433.5 512.5, 433.8 509.8 C 434 508.2, 433.9 507, 433.6 507 C 430.9 507, 416.4 504.6, 412.6 503.4 C 406.6 501.7, 407.3 501.6, 406.1 503.9 M 319.1 518 C 315.3 520.8, 313.2 523.5, 314.1 524.5 C 314.3 524.7, 319.1 525.1, 324.8 525.5 L 335 526.3 335 521.9 C 335 518.1, 334.6 517.3, 332.3 516.3 C 327.8 514.2, 323.7 514.7, 319.1 518 M 459 528.3 L 452.5 530.5 452.2 536.3 C 451.9 542.9, 451.8 542.9, 459.6 539.2 C 462.8 537.6, 467.4 535.8, 469.8 535 C 474.2 533.6, 474.6 532.8, 473 528.6 C 471.8 525.3, 468.1 525.2, 459 528.3 M 295 529.8 C 295 532.2, 296 533.2, 302.5 536.9 C 306.6 539.2, 312.3 542.7, 315.1 544.6 C 321.2 548.7, 321 548.6, 321 545.6 C 321 542.9, 319.7 541.4, 314.2 537.2 C 312.1 535.7, 310.3 534.2, 310 533.9 C 308.9 532.5, 298.2 527, 296.7 527 C 295.5 527, 295 527.9, 295 529.8 M 312.9 532.5 C 320.4 537.7, 323 538.4, 327.4 536.6 C 329.8 535.6, 331 534.4, 331 533.1 C 331 531, 329.3 530.5, 315.5 529.4 L 307.5 528.8 312.9 532.5 M 335.8 531.6 C 335.3 532, 335 533.8, 335 535.7 L 335 539 389 539.2 C 418.7 539.3, 444.2 539.4, 445.8 539.4 C 448.2 539.5, 448.5 539.1, 448.8 535.8 L 449.1 532 400.2 532 C 373.3 532, 348 531.7, 343.9 531.4 C 339.8 531.1, 336.2 531.1, 335.8 531.6 M 328.2 542.1 C 326.6 542.7, 326 543.8, 326 545.8 L 326 548.7 344.8 549.3 C 373.5 550.3, 416.3 550.1, 424 548.9 C 427.8 548.3, 432.2 548, 433.7 548.2 C 436.4 548.6, 436.2 548.7, 431.5 551.1 L 426.5 553.5 377 553.5 C 332.2 553.5, 328.4 553.6, 336.5 554.8 C 341.8 555.6, 359.7 556.3, 380 556.6 C 418 557.2, 425.4 556.5, 438.1 550.6 C 444.5 547.7, 446.8 544, 442.2 544 C 425.5 544.3, 336.6 542.7, 334 542.1 C 332 541.7, 329.4 541.7, 328.2 542.1 M 432 557.1 C 418.9 561, 364.8 562.2, 344.5 559 C 329.9 556.8, 330.4 556.8, 332.3 558 C 339.8 562.8, 401.2 565.2, 421.8 561.5 C 431.4 559.8, 441 557, 441 555.8 C 441 554.7, 439.4 554.9, 432 557.1 M 515 634.4 C 515 636.6, 511 641, 508.9 641 C 505.9 641, 506.7 643, 510 643.6 C 513.7 644.4, 514.8 645.6, 515.2 649.9 C 515.6 654.9, 518 655.2, 518 650.3 C 518 646.3, 521.4 643, 525.4 643 C 526.3 643, 527 642.6, 527 642 C 527 641.5, 526 641, 524.7 641 C 522.3 641, 518.8 637.9, 517.7 634.8 C 517 632.7, 515 632.4, 515 634.4 M 57.4 685.5 C 57.1 686.3, 57.1 687.3, 57.4 687.8 C 57.7 688.4, 190.6 688.8, 389.9 688.9 C 739.6 689, 726.1 689.2, 723.5 685 C 722.4 683.2, 58.1 683.6, 57.4 685.5 M 56.5 703 C 56.2 703.5, 56.2 704.5, 56.5 705 C 56.9 705.7, 169.4 706, 390.6 706 C 707.7 706, 724.1 705.9, 723.8 704.3 C 723.5 702.6, 706.7 702.5, 390.3 702.2 C 168.7 702.1, 56.9 702.3, 56.5 703" stroke="none" fill="#1b1f3a" fill-rule="evenodd"/></svg>