<svg xmlns="http://www.w3.org/2000/svg" viewBox="0 0 768 768" version="1.1" preserveAspectRatio="xMidYMid meet"><path d="M 152.3 92 C 143.4 96.5, 132.7 106.6, 127.6 115.6 C 127.5 115.7, 126 116.1, 124.1 116.5 L 120.7 117.2 121.4 109.6 C 121.8 104.9, 121.7 102, 121.1 102 C 119 102, 114.3 109.3, 112 116.2 C 109.6 123.2, 108.9 124.1, 97.3 135.5 C 90.5 142.1, 82.6 150.6, 79.8 154.4 C 76.9 158.2, 73.3 162.2, 71.9 163.2 C 68.7 165.6, 60 165.9, 56.5 163.6 C 51 160, 50.3 163.2, 55.4 168.8 C 58.6 172.2, 59.3 172.5, 64.2 172.5 L 69.6 172.5 65.4 179.1 C 59 189, 54.4 198.7, 52.5 206.5 C 50.2 215.7, 50.2 232.5, 52.5 240 C 59.3 261.8, 63.5 271.6, 70.5 282 L 74.2 287.5 73 293.2 C 70.5 304.9, 74.6 315.5, 84.3 322.4 C 89.8 326.2, 90.6 326.5, 97.1 326.5 C 101.6 326.5, 104 326.9, 104 327.6 C 104 331.4, 119.8 349.3, 128.8 355.7 C 132.2 358.2, 135 360.8, 135 361.5 C 135 364.1, 131 367.8, 127.3 368.4 C 125.2 368.8, 122.2 369.5, 120.5 370 C 118.9 370.5, 113.7 371.8, 108.9 372.9 C 93.7 376.5, 83.4 382.3, 76.2 391.5 C 72.6 396, 63 413.6, 63 415.7 C 63 416.1, 62.4 417.7, 61.7 419.1 C 59.5 423.2, 51.3 449.7, 48.9 460.5 C 47.7 466, 46.1 472.4, 45.4 474.8 C 43.3 481.1, 43.6 485.6, 46.2 487.9 C 48.1 489.7, 50 490.3, 56.7 491.3 C 57.6 491.4, 58.1 495.3, 58.4 505 C 58.9 521.5, 57.1 534.5, 51.9 550.3 C 50.9 553.4, 50 557.6, 50 559.5 C 50 561.6, 48.4 566.2, 45.8 571.1 C 39.8 583, 39.3 591.7, 44.3 601.1 C 47.6 607.5, 47.7 607.9, 46.3 611.6 C 45.5 613.8, 44.7 619.2, 44.5 623.8 C 44.2 631.5, 43.9 632.4, 40.8 636.3 C 32.7 646.3, 22.5 664, 20.6 671.3 C 20.3 672.7, 18.7 676.7, 17.1 680.2 C 8.1 699.7, 4.8 725.3, 7.9 753.5 C 8.5 759.3, 8.5 759.4, 9.7 756.5 C 11.5 751.8, 11.9 748.2, 13 728.2 C 14.1 709.2, 14.8 705.4, 20.2 689.5 C 26.2 671.9, 26.1 672, 38.8 672 C 53.3 672, 66.6 673.5, 98.5 678.5 C 110.7 680.5, 125.7 682.6, 136 683.9 C 144.2 685, 149.2 685.5, 182 688.5 C 190.5 689.3, 204.3 690.7, 212.5 691.5 C 220.8 692.4, 235.2 693.7, 244.5 694.5 C 253.9 695.2, 267.8 696.5, 275.5 697.1 C 293.2 698.7, 371.7 698.7, 388.5 697.2 C 411.2 695, 428.5 693, 438.5 691.5 C 444 690.7, 452.3 689.5, 457 688.8 C 466.7 687.6, 473.2 685.1, 467 685.1 C 465.1 685.1, 457.9 685.7, 451 686.5 C 409 691.6, 397.3 692.6, 364 693.9 C 340.3 694.9, 297.3 693.6, 270.5 691 C 264.5 690.4, 252.5 689.5, 244 689 C 222.7 687.7, 170.5 683.2, 145 680.5 C 128.3 678.8, 119.9 677.7, 76 671.5 C 61.8 669.5, 38.1 668.1, 32.3 669 C 28.3 669.6, 28 669.5, 28.6 667.7 C 32.1 656.7, 57.3 627.2, 73.5 615 C 76.8 612.6, 82.7 608, 86.5 605 C 95.8 597.6, 123.6 579.8, 129.3 577.7 C 130.2 577.4, 134.8 574.6, 139.4 571.5 C 148.7 565.4, 148.8 565.4, 155.1 567.4 C 157.5 568.2, 162.2 569.6, 165.5 570.5 C 168.8 571.4, 174.7 573.2, 178.5 574.5 C 182.4 575.8, 189.1 577.8, 193.4 578.9 C 207.3 582.5, 209.3 581.1, 196 577.1 C 191.9 575.8, 187.6 574.4, 186.5 574 C 184 572.9, 165 566.7, 158.8 564.9 C 156.1 564.2, 154 563.2, 154 562.8 C 154 562.4, 159.8 559.3, 166.9 555.8 C 174.1 552.3, 179.9 549.1, 179.9 548.5 C 180 548, 182.5 547.4, 185.5 547.2 C 190.8 546.9, 191 547, 191 549.4 C 191 552.9, 195.8 558.1, 201.7 560.9 C 204.3 562.2, 208.3 565.3, 210.4 567.7 C 217.8 575.9, 231.9 585.4, 239.5 587.3 C 240.6 587.5, 238.2 587.8, 234.2 587.9 C 228.9 588, 225.5 587.4, 221.7 585.9 C 218.8 584.8, 215.5 583.4, 214.2 582.9 C 208.5 580.6, 190.2 582.8, 186.6 586.1 C 185.3 587.2, 180.7 587.3, 179.5 586.2 C 176.6 583.7, 168 581.5, 161 581.6 C 150.9 581.6, 143.7 584.1, 135.1 590.7 C 131.7 593.2, 129.7 594, 126.5 594 C 118.3 594, 98.2 601.9, 90.8 608 C 72.3 623.3, 95.8 650.9, 137 662.4 C 144.5 664.4, 165.9 668.1, 183 670.1 C 194.8 671.6, 241.7 671.6, 251.5 670.2 C 255.9 669.5, 262.7 668.6, 266.5 668 C 289.6 664.7, 302.9 659.1, 313.6 648.1 L 320.9 640.6 325.4 642.7 C 334 646.9, 350.2 650.2, 388.5 655.6 C 412.6 659, 463.6 662.4, 480.6 661.8 C 498.9 661.1, 499.3 659.4, 481.3 658.7 C 443.1 657, 399.1 652.9, 365 647.6 C 348.7 645.1, 333 641.3, 333 639.8 C 333 639.3, 333.8 639.1, 334.8 639.4 C 357.3 646, 374.2 648.2, 441 653 C 456.1 654.1, 474.9 655.7, 482.7 656.6 C 493.8 657.8, 502.2 658, 520.7 657.5 C 549.7 656.8, 558.1 656.7, 573 657.1 C 584.3 657.5, 591.8 656.5, 611 652.4 C 615.1 651.6, 621.7 650.3, 625.5 649.5 C 629.4 648.8, 635.2 647.3, 638.5 646.2 L 644.5 644.2 640.5 647.6 C 634.6 652.7, 621.1 659.3, 607.5 663.7 C 577.5 673.7, 576.4 674, 562 677.4 C 541.4 682.4, 527.7 684.9, 495.5 689.5 C 479.4 691.9, 467 693.9, 459 695.4 C 428.2 701.5, 422.7 702.4, 398.5 705 C 382.7 706.7, 373.3 707, 342.5 707 C 319.3 706.9, 305.4 707.3, 305.2 707.9 C 304 711.4, 380.3 713.9, 401.5 711.1 C 422.7 708.2, 432.4 706.7, 447 704 C 470.9 699.5, 478.4 698.2, 493.5 696 C 501.2 694.9, 509.8 693.6, 512.5 693.1 C 515.3 692.6, 519.8 691.9, 522.5 691.5 C 542.6 689, 582 679.3, 609 670.3 C 632.6 662.4, 654.5 649.1, 662.1 638 C 681.4 610, 672.6 592.5, 630 573.7 C 626.3 572.1, 611.7 567.2, 603.9 565 L 599.3 563.6 602.1 559.7 C 603.7 557.5, 605 555.1, 605 554.4 C 605 553.7, 605.4 552, 606 550.5 L 607 547.9 609.2 550.1 C 611.7 552.4, 621.5 559, 622.6 559 C 622.9 559, 624.6 559.7, 626.3 560.5 C 634.8 564.4, 652.5 571, 654.5 571 C 659.4 571, 683.8 584.9, 701.8 597.8 C 721.5 612, 759 649.6, 761.4 657.6 C 763.4 664.2, 747.5 680.8, 733.5 686.9 C 724 691.1, 718 692.3, 703 693.1 C 681.2 694.2, 668.4 697.6, 657.9 705 C 652.4 709, 654.8 710.4, 660.8 706.7 C 670.5 700.7, 682.3 698, 702.5 697.3 C 719.4 696.7, 719.5 696.7, 727.5 693 C 731.9 691, 738.2 688.3, 741.5 687 C 744.8 685.7, 748.9 683.6, 750.7 682.3 C 752.4 681, 754.1 680, 754.4 680 C 756.2 680, 753.6 696.2, 750.5 704.1 C 749 708, 749.3 708.8, 753 711.3 C 756.6 713.8, 758.2 713.5, 757 710.6 C 756.2 708.3, 756.4 706.7, 760.1 692.5 C 760.7 690.3, 761 685.8, 760.7 682.5 C 760.3 676.9, 760.6 676.2, 763.6 672.1 C 772.1 661, 768.5 649.9, 750.9 632.9 L 742 624.3 742.6 618.2 C 743.6 609.2, 742.5 605.9, 735.3 595.4 C 731.1 589.1, 728.3 583.9, 727.5 580.6 C 726.9 577.8, 725.4 573.5, 724.2 571 C 723 568.5, 721.2 564.1, 720 561.2 C 716.4 551.8, 711.9 542.9, 707.9 537 C 703.1 529.9, 703.1 529.9, 708.2 527.7 C 716.9 523.9, 727 514.5, 733.2 504.5 C 742 490.2, 740.7 469.1, 730.1 455 C 727.6 451.6, 727.5 451, 727.5 437.5 C 727.4 415.3, 723.6 404.4, 708.5 383.5 C 704.5 378, 700.1 371.3, 698.6 368.6 C 695.7 363.4, 689.5 355, 682.9 347.4 C 680.8 344.9, 679 342.5, 679 342.1 C 679 341.7, 683.6 338.2, 689.3 334.3 C 705 323.4, 709.6 317.8, 717.7 299.5 C 727.6 277.2, 726.4 243.3, 715 218.7 C 706.8 201, 693.2 182.4, 680.6 171.6 C 648.6 144.3, 591.2 140.1, 554.3 162.4 C 548.1 166.1, 546 166.8, 539.8 167.3 C 523.9 168.7, 508.2 177.2, 487.6 195.5 C 481.7 200.7, 475.6 205.7, 473.9 206.5 C 456.5 215.6, 451 237.6, 461.2 257.9 C 466 267.3, 481.2 281, 490.1 283.9 C 493.6 285, 494.3 286.1, 501.9 301 C 510.8 318.6, 511.9 324.2, 508.6 334.2 C 505 344.7, 504 351.8, 505.1 357.3 C 507.9 370.1, 518.1 380.6, 535.7 388.6 C 546.1 393.3, 546.6 393.6, 553 396 C 568 401.9, 568.4 402.3, 561.8 404.1 C 546.4 408.1, 534.4 416.5, 518 434.6 C 506 447.8, 504.1 450.3, 504 453.3 C 504 454.3, 503.2 455, 502.1 455 C 501.1 455, 498.6 457, 496.6 459.5 L 492.9 463.9 481.2 463.8 C 468.9 463.7, 462.5 465.3, 459.1 469.3 C 457.4 471.4, 455 471.5, 452.4 469.5 C 449.4 467.3, 442 467.7, 436.6 470.4 L 431.9 472.8 428.9 469.9 C 426.3 467.5, 424.2 466.7, 420 466.8 C 419.7 466.8, 418.6 467.1, 417.4 467.4 C 415.8 467.9, 415.1 467.4, 413.9 464.8 C 412.4 461.3, 411.8 461.2, 404 462.1 C 400.7 462.5, 400.5 462.3, 400.2 459.5 C 398.7 444.8, 385.5 425.9, 373.6 421.7 C 350.1 413.3, 341.9 412.7, 322 417.7 C 297.3 423.9, 276 441.9, 276 456.6 C 276 459.5, 273.9 463, 272.2 463 C 271.8 463, 269.1 460.3, 266.2 457 L 260.9 451 263.3 449.9 C 269.4 447.1, 268.9 443.5, 261 433.5 C 255.7 426.8, 248 415.4, 248 414.5 C 248 414.1, 245.4 409.5, 242.3 404.2 C 235.9 393.6, 227.7 384.1, 222.9 381.8 L 219.9 380.3 224.2 378 C 235.6 372.1, 257.2 353.9, 262.8 345.5 C 273.8 329.1, 274.7 314.7, 265.8 296.8 C 264.3 293.6, 263 289.8, 263 288.3 C 263 284.5, 265.5 277.4, 271 265.7 C 272.8 261.9, 275.3 255.9, 276.6 252.2 C 278.1 247.7, 279.8 244.9, 282 243.2 C 284.9 240.9, 290.4 233.4, 297.6 222 C 300.7 217, 304 206.5, 304 201.4 C 304 196, 300.7 186.3, 296.9 180.6 L 293 174.7 294.6 170.3 C 296.7 164.8, 296 152.5, 293.2 146 C 289.3 136.9, 273.6 127.1, 260 125.3 C 255.6 124.7, 255.3 124.3, 257.5 121.4 C 263.4 113.7, 254.4 101.4, 242.4 100.8 C 237.1 100.5, 237.1 100.4, 238.6 107.6 C 239.5 112.1, 237.5 113.2, 229.3 112.8 C 225.2 112.5, 217.9 110.9, 211 108.7 C 186.6 100.9, 159.6 99.8, 147.8 106.1 C 146.8 106.6, 146 106.7, 146 106.2 C 146 104.9, 155.1 98.4, 161.3 95.4 C 168.1 92, 168.6 89.7, 162.5 89.2 C 159.6 89, 156.8 89.8, 152.3 92 M 163 112 C 155.3 112.8, 148.6 114.9, 139 119.6 C 135.1 121.5, 131.3 123, 130.6 123 C 127.1 123, 125.8 124.2, 127.7 125.7 C 128.7 126.5, 129 126.9, 128.3 126.6 C 127.7 126.2, 126.8 126.5, 126.4 127.1 C 126 127.8, 126.1 128, 126.8 127.6 C 127.4 127.3, 128.2 127.6, 128.7 128.4 C 129.1 129.2, 131.1 130.3, 133 130.8 C 134.9 131.4, 135.7 131.9, 134.8 131.9 C 133.8 132, 133 132.4, 133 133 C 133 133.5, 133.7 133.7, 134.5 133.4 C 135.3 133, 136.7 133.3, 137.5 134 C 138.6 134.9, 139.7 134.9, 142.5 133.8 C 145.8 132.7, 146.3 132.7, 147.6 134.5 C 148.4 135.5, 149 135.8, 149 135.2 C 149 133.1, 150.8 133.9, 151.3 136.3 L 151.7 138.5 151.9 136.3 C 152 133.7, 153 133.4, 154.8 135.2 C 155.7 136.1, 156.3 136.1, 157.2 135.2 C 158.9 133.5, 160 133.7, 160 135.8 C 160.1 137.2, 160.4 137.1, 162 135.1 C 163.2 133.8, 164 133.3, 164 134.1 C 163.9 137.3, 162.3 138.2, 157.9 137.6 C 153.5 137, 153.5 137, 156.5 138.3 C 160.6 140.2, 167 137.6, 167 134 C 167 132.6, 172.3 133.6, 172.8 135.1 C 173 135.6, 175.4 136, 178 136 C 183.4 136, 185.2 137.4, 182.4 139.5 C 181.3 140.3, 181 141, 181.6 141 C 185 141.1, 186 136.3, 182.8 135 L 180.5 134.1 182.7 134.1 C 183.9 134, 185.2 134.5, 185.5 135 C 185.8 135.6, 187.1 135.8, 188.3 135.6 C 189.5 135.5, 190 135.5, 189.3 135.7 C 187 136.5, 187 139, 189.3 138.7 C 190.5 138.6, 191.7 138.2, 192 137.8 C 193.4 136.1, 210.5 141.3, 210.3 143.5 C 210.2 144.8, 210.7 145, 212.3 144.6 C 213.5 144.3, 216.1 144, 218 144 C 221.3 143.9, 221.4 143.9, 219.6 142.5 C 217.7 141.1, 217.8 141, 221.3 141 C 225.8 141, 230 139.2, 230 137.2 C 230 135.5, 238.9 136.4, 240.3 138.3 C 240.9 139.1, 241 138.8, 240.6 137.8 C 240.3 136.6, 240.6 136, 241.6 136 C 242.5 136, 244 135, 244.9 133.9 C 246.6 131.7, 246.8 131.7, 251.1 133.4 C 260.1 136.9, 267 145.3, 267 153 C 267 156.3, 267.3 157.1, 268 156 C 268.5 155.2, 269 155, 269 155.5 C 269 156.1, 269.5 155.8, 270.1 155 C 270.9 153.9, 271.3 153.8, 271.7 154.8 C 271.9 155.4, 273.5 156, 275 156 C 276.6 156, 278.2 156.5, 278.5 157.1 C 278.9 157.7, 279.8 157.9, 280.6 157.6 C 281.4 157.3, 282 157.7, 282 158.6 C 282 159.4, 282.7 160.3, 283.5 160.7 C 284.9 161.2, 284.8 161.4, 283.3 162.7 C 281.6 164.1, 281.6 164.1, 283.3 163.6 C 284.7 163.1, 285 163.4, 284.5 164.9 C 284.2 166, 284.3 167.1, 284.8 167.4 C 286.1 168.2, 286.7 165.4, 286.4 160.5 C 285.5 147, 278.2 139.3, 261.5 134.5 C 258.2 133.6, 254.7 132.4, 253.8 131.9 C 252.8 131.4, 251.1 131, 250 131 C 249 131, 245.2 129.5, 241.8 127.6 C 237.8 125.5, 232.7 123.8, 228 123 C 221.4 121.9, 215.6 120.1, 208.5 117 C 203.6 114.8, 194.1 112.8, 184.7 112 C 173.5 111, 172.4 111, 163 112 M 122.3 127.3 C 121.9 128, 118.4 130.7, 114.5 133.2 C 110.7 135.8, 104.7 140.4, 101.3 143.4 C 94.4 149.7, 78.4 168, 79.8 168 C 80.3 168, 81.3 167.3, 82 166.5 C 82.7 165.6, 83.5 165.2, 83.8 165.5 C 84.1 165.8, 85.8 163.9, 87.5 161.2 C 91.6 155.2, 99.3 148.2, 107.8 142.7 C 122 133.6, 124.7 132, 126.3 132 C 128.6 132, 127.4 129.3, 124.7 128.6 C 122.9 128.1, 122.7 127.8, 124 127 C 124.9 126.4, 125 126, 124.3 126 C 123.6 126, 122.7 126.6, 122.3 127.3 M 593 157 C 578 159.5, 567.5 163.3, 554 171 C 552 172.2, 548.7 173, 546.2 173 C 531.5 173, 509.5 183.4, 498.3 195.8 C 493.5 201.1, 493.3 201.5, 495.7 202.4 C 496.8 202.8, 497.7 202.4, 498.4 201.3 C 500.4 197.7, 509.4 188.9, 511.7 188.4 C 515.3 187.5, 515.7 188.7, 512.6 191.1 C 509.2 193.8, 501.7 203.1, 502.4 203.8 C 502.7 204.1, 506.4 201.1, 510.5 197.1 C 514.7 193.1, 519.3 189.4, 520.8 188.7 C 522.3 188.1, 526 186, 529 184 C 536.3 179.2, 543.2 176.7, 546.9 177.5 C 548.6 177.8, 550.1 177.7, 550.5 177.1 C 551.3 175.6, 553 175.7, 553 177.2 C 553 179.1, 548.1 184.9, 544 187.9 L 540.2 190.7 548.8 190.8 C 553.7 190.8, 559.7 191.5, 562.5 192.4 C 570.3 194.9, 573.2 194.6, 572.4 191.5 C 571.5 187.9, 572.8 182, 574.5 182 C 576.3 182, 577.1 184.9, 576.8 190.1 C 576.7 192.4, 577 194.5, 577.6 194.7 C 581.1 195.9, 595.9 205.4, 599.6 208.8 C 605.2 214.2, 605.6 214.1, 602 208.3 C 597.4 201.1, 598.4 200, 604 206.2 C 615.4 219, 666.1 257.1, 682.3 265 C 687.5 267.6, 689.7 269.6, 688.5 270.8 C 687.7 271.7, 658.6 271.5, 652.8 270.6 C 649.2 270, 648.8 270.1, 650 271.5 C 650.7 272.3, 651.6 273, 652 273 C 652.4 273, 655.9 274.8, 659.8 276.9 C 664.2 279.3, 670.1 281.5, 675.1 282.6 C 693.4 286.5, 702.1 299.5, 697.7 316.5 L 697 319.5 699.4 316.5 C 706 308.6, 710 295.1, 710 280.4 C 710 273.8, 707.8 261.3, 706 257.9 C 705.5 257, 705.4 255.9, 705.7 255.6 C 707.9 253.4, 712.1 268.5, 712.8 281 C 713.3 291.6, 713.4 292.3, 714.6 289.4 C 719.5 277.5, 718.1 246.5, 711.8 229.5 C 699.7 196.8, 672.3 167.7, 646.6 160.3 C 628.8 155.1, 610.4 154, 593 157 M 535.5 183.5 C 520.3 191.1, 504.9 204.3, 507.8 207.2 C 508.7 208.1, 509.9 207.6, 512.8 204.7 C 516.7 200.9, 531.3 192, 533.7 192 C 534.4 192, 535 191.3, 535 190.5 C 535 189.7, 537.7 187.3, 540.9 185 C 552 177.5, 549 176.7, 535.5 183.5 M 252.3 189.2 C 251.8 189.9, 250.1 192.6, 248.7 195.2 C 245.1 201.4, 236 209.4, 227.8 213.6 C 215.7 219.7, 205.3 221.4, 182.5 220.7 C 165.6 220.2, 159.5 219, 147 213.6 C 145.8 213.1, 145.5 214.1, 145.4 219.7 C 145.3 228.3, 142.4 234.9, 134.5 244.5 C 125.4 255.6, 122.4 263.8, 120.9 282.4 C 119.2 302.1, 118.5 302.8, 110.1 293.1 C 97.4 278.4, 87.3 277.2, 81.1 289.5 C 73.2 305.4, 88.6 326.8, 103.5 320.6 C 105.5 319.7, 107.4 319, 107.5 319 C 107.7 319, 108.1 320.3, 108.5 321.9 C 109.8 327.9, 123.6 343.5, 136.1 353 C 149.6 363.4, 162.1 369.3, 183.5 375.6 C 187.6 376.8, 193.1 377.4, 201 377.4 C 212.4 377.5, 212.5 377.5, 219.6 373.7 C 235.4 365.3, 255.7 346.1, 261.1 334.5 C 267.6 320.4, 267.4 312.1, 259.9 298.5 C 256.4 292.1, 256 285, 258.9 278.7 C 277.4 237, 276.2 216.3, 253.5 188.2 C 253.4 188.1, 252.8 188.5, 252.3 189.2 M 541 196.4 C 537.4 197.1, 533.1 198.3, 531.4 199.1 L 528.3 200.5 543.9 215.3 C 558.1 228.7, 575.7 243, 578.2 243 C 578.7 243, 577.2 240.4, 574.8 237.3 C 567.8 228.1, 559 214.3, 559 212.5 C 559 211, 561.5 213.8, 567.9 222.3 C 585.2 245.4, 603.4 257.8, 629.9 264.5 C 639 266.8, 642 266.1, 634.5 263.3 C 617.9 257.1, 595.6 240.5, 584 225.5 C 577 216.5, 569 202.5, 569 199.3 C 569 198.1, 568.7 196.9, 568.3 196.7 C 566.2 195.4, 546.9 195.2, 541 196.4 M 570.9 199.3 C 572.3 203, 579.8 214.9, 584.5 221 C 600.4 241.5, 627.6 258.1, 655.5 264.4 C 681.1 270.2, 683 270.2, 674.3 265.1 C 658.6 255.8, 631.1 236, 614.6 222.2 C 611.1 219.3, 608 217.5, 607 217.7 C 606.1 218, 603 216.2, 599.9 213.8 C 591.9 207.3, 574.2 197, 571 197 C 570.4 197, 570.4 197.9, 570.9 199.3 M 523.3 209.3 C 515.9 217.3, 516.5 225.7, 525.2 235.5 C 528.6 239.4, 538.7 246.8, 543.5 248.9 C 553.2 253.2, 572.4 257.1, 582.6 256.9 L 587.5 256.9 583.2 254.9 C 570.9 249.5, 543.3 226.4, 531.6 211.8 C 527.3 206.4, 526.2 206.1, 523.3 209.3 M 480.2 211 C 473.6 213.2, 471.7 214.9, 467.2 223 C 458.2 238.9, 466.2 261.9, 484.9 273.9 C 492.9 279.1, 493.1 278, 485.6 269.1 C 472.8 254.1, 468.6 235.8, 475.1 223.6 L 477.1 219.9 473.3 220.6 C 471.2 221, 469.8 220.9, 470.2 220.5 C 471.3 219.3, 489.8 212, 491.8 212 C 493.2 211.9, 493.3 211.8, 492 211.1 C 488.8 209.3, 485.3 209.3, 480.2 211 M 492.2 214.1 C 486.5 215.8, 479.6 220.7, 477.5 224.6 C 474 231.2, 474.7 245.7, 478.9 254.2 C 482 260.5, 486.7 266.5, 484.5 261.5 C 484 260.4, 483.5 255.8, 483.2 251.2 C 482.4 234.8, 489.5 225.3, 505.5 221.6 L 510.5 220.4 507.7 218 C 502.7 213.6, 498 212.5, 492.2 214.1 M 608 222.3 C 608 226.1, 652.3 261, 657.1 261 C 659.3 261, 657.5 258.8, 652.5 255.3 C 639.9 246.6, 625 235.4, 618.5 229.7 C 607.3 219.9, 608 220.5, 608 222.3 M 502.2 226.9 C 495.7 229.1, 490.6 233.9, 488.4 239.7 C 486.3 245.1, 486.8 260, 489.3 264.5 L 490.9 267.5 491 260.2 C 491 246.9, 494.9 239.7, 506.8 230.9 C 514.8 224.8, 512.9 223.2, 502.2 226.9 M 242.6 228.6 C 239.3 231.8, 241.5 235, 247 235 C 251.1 235, 258.4 239.2, 261.7 243.4 C 265.3 247.9, 267.5 246.1, 266 239.7 C 265 235.1, 261.6 230.4, 258 228.5 C 254.1 226.5, 244.6 226.5, 242.6 228.6 M 174 235.7 C 165.2 238.7, 156.1 247.9, 154.5 255.2 C 153.4 259.8, 154.5 259.6, 159.9 254.1 C 167.9 245.9, 180 242.5, 187 246.5 C 191.5 249.1, 193 248.5, 193 244.2 C 193 236.1, 184.3 232.2, 174 235.7 M 509.8 238.5 C 495 250.4, 493.2 267, 504.2 293 C 507 299.7, 509.2 303.8, 511.7 306.8 C 513.8 309.5, 513.8 309.5, 515.9 307.6 C 517.3 306.3, 518 304.5, 518 302 C 518 296.8, 520.7 294, 525.7 294 C 533.3 294, 540.4 302.7, 545.9 318.8 C 548.7 327, 548.6 328.7, 545 334.3 C 539.7 342.7, 541.9 346.9, 551.5 347.1 L 556.5 347.1 552.5 348.6 C 545.2 351.3, 539 347.9, 539 341.2 C 539 339.1, 539.6 336.6, 540.4 335.5 C 544.3 329.8, 543.9 329.5, 532.1 329.5 C 520.6 329.5, 518 328.6, 518 324.7 C 518 322.8, 518.1 322.8, 519.8 324.3 C 522.6 326.8, 523 326.4, 521.5 322.3 C 520.7 320.2, 519.9 317.3, 519.5 315.8 C 519.1 313.9, 518.3 313, 517 313 C 514.7 313, 514.4 315.1, 516.2 318.3 C 517.8 321.2, 517.3 326.5, 514.4 338.2 C 511.5 350, 511.4 355.4, 514 361.4 C 517.7 370.2, 530.7 379.7, 551 388.6 C 556.8 391.1, 562.3 393.6, 563.3 394.1 C 572.9 399.3, 572.9 399.3, 578.8 398.3 C 590.1 396.3, 607.5 388.9, 620 380.9 C 633.1 372.5, 650.2 352.6, 653.5 341.9 C 654.8 337.6, 655.9 337, 662.4 337.2 C 681.9 337.8, 698.4 314.4, 690 298 C 684.5 287.3, 666.5 286.9, 658.6 297.2 C 654.9 302.2, 651.9 310.7, 651.3 318.2 C 650.9 322.7, 650.3 325, 649.5 325 C 647.5 325, 646.9 322.4, 645.9 309.5 C 644.3 290.7, 644.5 291.3, 638.2 285 C 630.7 277.6, 614.6 270.3, 601.6 268.5 L 596.6 267.8 599.8 271.4 C 602.6 274.6, 604.1 279, 602.4 279 C 602.1 279, 600 277.6, 597.9 275.9 C 589.9 269.6, 577 267, 571.5 270.6 C 567.5 273.2, 565.6 271.8, 566.3 266.5 C 567 262, 567 262, 563.9 262 C 550.4 262, 529.6 251, 520.5 239.2 C 518.4 236.3, 516.3 234, 516 234 C 515.7 234, 513 236, 509.8 238.5 M 245.5 251.9 C 238.2 254.9, 231 273.1, 231 288.5 C 231 298.4, 232.3 299.7, 241.3 298.6 C 252.4 297.4, 254.2 295.2, 255.7 281.7 C 256.9 270.1, 248 262.7, 239.2 268.2 L 235.7 270.4 238.5 265.1 C 244.4 254.3, 250.6 251.6, 257.2 257 C 260.9 260.1, 263 259.6, 260.9 256.2 C 258.1 251.8, 250.8 249.8, 245.5 251.9 M 168 260.4 C 164.4 262.8, 161.2 267.5, 162.3 268.6 C 162.7 269, 164.8 267.6, 167 265.6 C 172.6 260.6, 180.1 260.4, 185.5 265.1 C 189.6 268.7, 189.6 269.7, 185.4 267.5 C 181.7 265.6, 173.7 265.6, 169.7 267.5 C 163.9 270.3, 161.5 275.3, 161.4 284.7 C 161.4 289.3, 161.1 293.3, 160.7 293.6 C 158.9 295.5, 160.7 296, 169.3 296 C 174.5 296, 180.6 296.7, 183.4 297.5 C 189.9 299.5, 190.3 299.4, 192.2 296.3 C 197.4 287.2, 196.1 274.9, 188.6 263.7 C 184.5 257.7, 174.6 256.1, 168 260.4 M 170.8 270.6 C 162.9 274.8, 161.1 295, 168.9 292.5 C 170.6 292, 170.7 291.3, 170.3 286.1 C 169.7 279.3, 170.7 276.8, 175.1 274.6 C 180.8 271.8, 186.3 273, 189.3 277.8 C 190.3 279.4, 191 279.9, 191 279 C 191 276.7, 186.4 272.2, 182.3 270.5 C 177.9 268.6, 174.3 268.7, 170.8 270.6 M 514.1 269.7 C 508.9 271.8, 504 280.2, 504 287 C 504 292.8, 505.5 292.7, 509.4 286.6 C 513.3 280.5, 517.1 278, 522.5 278 C 525.7 278, 526 277.7, 526 275.2 C 526 270.2, 519.9 267.4, 514.1 269.7 M 239 273 C 237.3 274.9, 235.7 278, 235.1 281.1 C 232.9 291.3, 234.3 295, 240.3 295 L 243.5 294.9 240.9 293.5 C 235.9 290.8, 234.9 283.2, 238.6 277.3 C 240.2 274.7, 247.6 274, 249.8 276.2 C 250.7 277.1, 251 276.9, 251 275.3 C 251 269.9, 243.3 268.5, 239 273 M 576.8 287 C 569.4 291, 565.8 298.7, 568 306.5 C 569.8 312.8, 570.7 312.1, 571.2 304 C 572.4 281.8, 600 287, 600 309.4 C 600 317.2, 597.5 317.2, 596.7 309.4 C 596 303, 594.2 299.7, 589.7 297 C 579.6 290.8, 568.9 302.2, 574.5 313.1 C 575.4 314.7, 575.8 316.5, 575.5 317 C 575.2 317.5, 575.5 317.7, 576.3 317.4 C 579.9 316.1, 578.6 320, 574.4 322.9 C 566.7 328.5, 568.5 329.4, 578.6 325.1 C 591.6 319.6, 598.8 317.7, 604.6 318.3 C 610.9 319, 612.5 317.7, 607.5 315.9 C 604.2 314.7, 604 314.3, 604 310 C 604 307.5, 603.6 304.1, 603.1 302.4 C 602.4 300.1, 602.7 298.9, 604.2 297.1 C 606.2 294.5, 605.9 293, 603.7 294.9 C 602.6 295.7, 601.4 295.2, 598.2 292.1 C 591.4 285.6, 583.2 283.7, 576.8 287 M 87.6 292.2 C 84.1 297.2, 86.7 306.4, 92.4 309.5 C 95.9 311.4, 100 310.4, 100 307.6 C 100 306.9, 100.9 305.5, 102 304.5 C 107.1 299.9, 101.1 290, 93.2 290 C 90.1 290, 88.7 290.5, 87.6 292.2 M 90 294.9 C 87.6 299.5, 90.1 308, 93.9 308 C 96 308, 100 302.8, 100 300.2 C 100 294.8, 92.3 290.7, 90 294.9 M 670 298.6 C 665.5 300.6, 661.3 304.5, 658.9 309.2 C 655.6 315.6, 657 318.6, 660.8 313.3 C 664.7 308, 666.4 313.3, 663 320 C 660.6 324.7, 660.5 326, 662.5 326 C 665.6 326, 667.3 321.4, 666.8 314 C 666.3 307.2, 666.4 306.9, 669.2 304.5 C 675.6 299.1, 683 303.6, 683 313 C 683 314.8, 683.4 315.9, 684 315.5 C 684.6 315.2, 685 312.4, 685 309.3 C 685 304.4, 684.6 303.4, 681.6 300.4 C 677.8 296.6, 675.4 296.3, 670 298.6 M 224 302.5 C 224 303.3, 224.6 304, 225.4 304 C 227.9 304, 233 309, 233 311.5 C 233 314, 227 318.9, 222.3 320.4 C 219 321.4, 219.5 323, 223 323 C 228.8 323, 238 316.2, 238 311.8 C 238 311.1, 237.1 309, 236 307.2 C 233.1 302.5, 224 298.9, 224 302.5 M 182.1 323.1 C 178 324.7, 171 331, 171 333.1 C 171 335.6, 171.8 335.5, 176.2 332.5 C 180.4 329.6, 180.2 329.4, 185.4 340 C 191 351.3, 193.4 353.3, 204.9 356.6 C 217.4 360, 222.2 357.3, 230 342.2 L 234.5 333.5 240.3 331.7 C 243.7 330.6, 246 329.3, 246 328.4 C 246 327.6, 245.6 327, 245 327 C 243.1 327, 232.7 330, 231.6 330.9 C 227.1 334.6, 204.9 334.7, 192.5 331 C 181.8 327.8, 182.5 328.2, 184.4 326.2 C 187.5 322.7, 186.5 321.3, 182.1 323.1 M 193.3 337.3 C 194.9 342.3, 212.9 344.4, 220.4 340.4 L 224.3 338.3 212.9 338.2 C 206.6 338.2, 199.6 337.7, 197.2 337.2 C 194.1 336.5, 193 336.5, 193.3 337.3 M 672.6 348.3 C 674.6 355, 687.9 376.5, 694.5 383.9 C 701.8 392.1, 713 408.3, 714.9 413.6 C 718.6 423.5, 716.4 423.1, 711.1 413 C 707.1 405.6, 703.5 400.5, 691.7 385.7 C 682.7 374.6, 676.1 364.9, 671.5 356 C 667.8 349.1, 668 349.3, 667.1 350.9 C 664.5 355, 671.7 370.2, 688.2 395.2 C 695 405.5, 702.7 417.5, 705.4 421.7 C 713.4 434.4, 719.2 443, 719.8 443 C 721.2 443, 719 419.1, 717 413.5 C 711.4 397.3, 668 333.7, 672.6 348.3 M 584.2 349.7 C 584.5 352.1, 584 352.5, 580 353.8 C 570.1 356.9, 560.3 359, 554.1 359.6 C 548.4 360.1, 545.9 359.8, 538 357.9 C 534.4 357, 536.6 361.2, 540.4 362.5 C 544.3 363.9, 548.7 367.5, 556.6 375.9 C 560.7 380.3, 560.9 380.4, 567.2 380.4 C 578.3 380.4, 586.1 374.1, 589.5 362.3 C 590.7 358.1, 591.5 357, 592.6 357.4 C 596.2 358.8, 599 359.2, 599 358.2 C 599 355.3, 593.3 350.6, 586.5 348 C 584.1 347.1, 583.9 347.2, 584.2 349.7 M 192 354.3 C 192 359.6, 203.6 365.9, 210.9 364.5 C 218.9 363, 219.4 359.1, 211.5 359.8 C 203.8 360.4, 199.5 359.4, 195.5 355.8 C 193 353.7, 192 353.2, 192 354.3 M 657.5 354.7 C 656.4 355, 654.9 355.7, 654.3 356.2 C 649.4 360.1, 660.4 389.2, 668.3 393.7 C 673.1 396.4, 673.1 395.6, 668.5 378.6 C 662.6 356.8, 661.7 354, 660.6 354.1 C 660 354.2, 658.6 354.5, 657.5 354.7 M 581.6 356.1 C 578.2 358.2, 565.1 361.9, 559 362.6 C 552.6 363.3, 551.3 364.5, 555.8 365.7 C 563.2 367.7, 578.1 363, 583.6 356.9 C 585.5 354.8, 584.5 354.5, 581.6 356.1 M 137.1 369.1 C 135.8 371.8, 133.9 374.7, 132.9 375.3 C 130.4 376.9, 130.5 379, 133.4 382.1 C 148.4 398.2, 173.4 402.8, 184.7 391.5 C 189.4 386.8, 189.1 384.4, 183.8 383 C 176.7 381.2, 159.1 374, 149.1 368.9 C 144 366.2, 139.7 364, 139.6 364 C 139.5 364, 138.3 366.3, 137.1 369.1 M 645.1 368.8 C 641.5 374.5, 641.3 376, 644 378.5 C 645.1 379.5, 646.3 382.1, 646.7 384.3 C 647.2 387.7, 647.8 388.4, 651.7 390.1 C 659.5 393.4, 660.4 392.9, 657.2 386.8 C 653.3 379.4, 650 370.4, 650 366.9 C 650 362.8, 648.7 363.3, 645.1 368.8 M 126 373.9 C 123 374.8, 123 377.3, 126.3 383.8 C 132.5 396.2, 151.8 407, 168 407 C 183.1 407, 197.1 397.5, 197.4 387.1 C 197.5 382.6, 195.1 382.2, 193.7 386.5 C 189 401.2, 165.8 406.6, 146.5 397.5 C 136 392.5, 125.1 379.3, 127.8 374.9 C 128.5 373.8, 128.9 373, 128.8 373.1 C 128.6 373.2, 127.4 373.5, 126 373.9 M 118.5 375.6 C 114.8 376.4, 97 382.3, 97 382.7 C 97 382.9, 99.6 385.5, 102.8 388.4 C 118.4 402.9, 124.6 425.9, 125.2 471.3 C 125.5 490.7, 125.4 491, 119.6 491 C 116.9 491, 116.8 491.2, 117.4 494.1 C 117.7 495.8, 118 501.2, 118 506.1 L 118 514.9 120.8 514 C 122.3 513.5, 127.1 512.6, 131.5 512 C 139.2 511.1, 153.2 508.8, 161.5 507.2 C 165.3 506.5, 165.4 506.3, 167 500.4 C 169 492.7, 172.6 486.6, 178.8 480.8 C 183.6 476.3, 183.8 476.2, 192.4 475.5 C 201.2 474.7, 211.2 475.2, 214.1 476.4 C 216.3 477.3, 217.1 460.7, 215.9 437.5 C 214.7 411.1, 214.7 407.3, 216.4 409 C 217.2 409.8, 218.5 414.3, 219.2 418.9 C 220.5 427, 220.6 427.2, 222.1 424.9 C 224.2 421.6, 226.7 413.6, 227.5 407.3 C 228.7 397.8, 230.3 399.8, 229.8 410.1 C 229.4 418.6, 228.9 420.5, 225.2 428.4 C 222.9 433.3, 221 437.4, 221 437.6 C 221 438.6, 223.8 437.7, 226 436 C 231.2 431.9, 231.6 435.1, 226.5 440 L 222.9 443.5 223.1 453.7 C 223.4 468.3, 224.4 468.1, 246.7 448.2 C 251.8 443.6, 256 439.5, 256 439.1 C 256 438.6, 254.5 436.3, 252.7 433.9 C 247.9 427.5, 242.9 419.6, 237.5 410 C 226.4 390.3, 220 384.7, 208.8 384.6 L 201.6 384.5 200.8 388.3 C 196.1 410.7, 164.1 418.2, 139.5 402.5 C 130.4 396.7, 122.2 386.3, 120.1 377.9 C 119.8 376.5, 119.1 375.4, 118.5 375.6 M 581.3 378.3 C 578.5 382.7, 573.9 383.5, 561 381.8 C 557.2 381.3, 557.9 384.2, 562 386.2 C 566.1 388.2, 574.5 388.5, 577.8 386.6 C 580.3 385.3, 584 380.3, 584 378.3 C 584 376.6, 582.3 376.6, 581.3 378.3 M 671 378.1 C 671 379, 671.7 381.1, 672.5 382.6 C 673.3 384.2, 674 386.3, 674 387.2 C 674 388.1, 674.4 389.1, 674.9 389.5 C 675.4 389.8, 676.1 391.3, 676.5 392.8 C 676.9 394.7, 678.4 396.2, 682 398.1 C 688.1 401.4, 688.1 401.4, 682.3 393.6 C 679.6 390.1, 676.1 384.8, 674.3 381.9 C 672.5 378.9, 671.1 377.2, 671 378.1 M 625.5 385.4 C 618.1 390.4, 606.1 396.4, 597.6 399.5 C 591.4 401.7, 590 402.7, 590 404.4 C 589.9 405.5, 588.6 408.1, 587 410 C 580.1 418, 587 426.8, 599.3 425.8 C 612.8 424.7, 632.6 409.7, 635.9 398.1 C 636.8 395.1, 636.6 394.3, 634.5 391.8 C 632.4 389.3, 631.4 385.9, 631.9 382.8 C 632.1 381.4, 630.5 382, 625.5 385.4 M 91.3 386 C 81.4 390, 70.3 411.3, 60.6 445 C 55.2 463.6, 53.1 471.4, 53.3 471.7 C 53.5 471.8, 56.9 471.4, 61 470.8 C 74.6 468.9, 99.2 471.5, 115.4 476.5 L 120.3 478 119.7 455.2 C 118.8 419.3, 112.1 397.6, 98.9 388 C 94.3 384.7, 94.4 384.7, 91.3 386 M 640.6 396.3 C 638.6 407.1, 622.5 422.9, 608 428.3 C 595.3 433.1, 581.7 427.6, 580.3 417.1 C 579.6 411.7, 578 410.8, 578 415.7 C 578.1 430.4, 597.3 436.8, 614.9 428.1 C 629.7 420.7, 642.6 406.5, 644.1 396 C 644.7 391.9, 641.4 392.2, 640.6 396.3 M 645.8 402.8 C 636.6 422.1, 616.8 436, 598.4 436 C 586.3 436, 580.1 432.2, 576.4 422.3 C 574.3 417, 576 409.3, 579.1 409.8 C 580.1 409.9, 581 409.1, 581.3 407.9 C 581.9 405.8, 581.6 405.8, 576.4 406.3 C 569.3 407, 554.3 412.3, 546.6 416.8 C 541.1 420.1, 513 447.1, 513 449.3 C 513 449.7, 513.7 450, 514.6 450 C 516.5 450, 525.4 458.9, 530.1 465.4 L 533.4 470 534.8 465.8 C 535.6 463.4, 537.5 458.7, 539 455.3 C 540.6 451.9, 542.2 447.5, 542.6 445.5 C 543.2 442.3, 545 440.5, 545 443.1 C 545 445.1, 546.8 443, 550.9 436.1 C 554.6 429.9, 558.7 425.4, 559.7 426.4 C 559.9 426.6, 557.8 430.8, 555 435.6 C 543.3 456.2, 535.6 475, 538.1 477.4 C 538.3 477.7, 541.7 477, 545.5 476 C 563 471.2, 572.9 473.6, 589.1 486.6 C 594.3 490.8, 601 495.3, 604 496.7 C 613.7 501.1, 633 507.9, 640.8 509.5 L 644 510.2 644 504.6 L 644 499.1 639.8 498.8 C 635.8 498.5, 635.5 498.3, 634.7 494.5 C 632.6 484.9, 635.6 460.1, 641.5 438.5 C 642.4 435.2, 643.5 430.7, 644.1 428.5 C 645.6 422.6, 653.6 407, 657 403.3 C 658.6 401.6, 660.1 399.6, 660.2 399 C 660.4 398.1, 653.3 395.3, 650 395 C 649.7 395, 647.8 398.5, 645.8 402.8 M 662.4 401.9 C 654.6 407.1, 649.9 418.3, 645 443.5 C 643.9 449.6, 642.5 456.3, 642 458.5 C 641.5 460.7, 640.8 467, 640.4 472.5 L 639.7 482.5 667.1 482.5 C 691.1 482.5, 695 482.7, 698.9 484.3 C 701.3 485.3, 703.5 485.9, 703.7 485.6 C 704.5 484.8, 698.8 439.2, 696.4 426.6 C 694.1 415.1, 690.6 410.1, 680.4 404.4 C 672.5 400, 666.6 399.2, 662.4 401.9 M 339.8 420.5 C 339.4 420.9, 340 422.4, 341 423.8 C 345.2 429.1, 341 429.8, 336.2 424.5 C 332.3 420.3, 327.8 420.7, 315 426.2 C 295.9 434.4, 286.8 441.9, 282.5 452.8 C 279.5 460.1, 281.7 463.8, 294.2 472.6 C 301.6 477.7, 303.4 478.5, 311.5 480.1 C 323.4 482.4, 349.6 483.8, 365.7 483.1 C 366.3 483, 367.8 481.4, 368.9 479.4 C 370.5 476.7, 371.5 475.9, 373.1 476.3 C 374.3 476.6, 377 475.6, 380.3 473.4 C 383.1 471.5, 387.5 469.2, 389.9 468.3 L 394.3 466.6 393.6 459.6 C 392.1 443.4, 377.9 427, 363.1 424.5 C 360.8 424.1, 357.7 423.2, 356.2 422.5 C 353 420.9, 340.8 419.5, 339.8 420.5 M 703 432.3 C 703 433.5, 703.5 437.4, 704.1 441 C 707.4 461.8, 708.2 467.7, 709.5 479.4 C 710.4 486.5, 711.3 492.6, 711.5 493.1 C 712.8 495.1, 707.4 499.1, 702.5 499.8 L 697.5 500.5 697.5 506 L 697.5 511.5 701.4 511.8 C 712 512.7, 722.8 507.5, 726.5 499.7 C 735.4 480.8, 731.4 466.2, 709.6 437.8 C 703 429.1, 703 429.1, 703 432.3 M 249 450.3 C 240.3 458.8, 235.9 462.2, 226.8 467.4 C 223.9 469.2, 223.7 469.4, 225.6 469.8 C 229.7 470.4, 240.7 462.6, 256.1 448 C 260.5 443.9, 261.8 440.9, 259.2 441 C 258.8 441, 254.2 445.2, 249 450.3 M 507.6 454.8 C 507.4 455.2, 508.3 456.1, 509.8 456.8 C 513.5 458.5, 519.6 464.2, 526.3 472.2 C 531.7 478.7, 534.9 480, 531.3 474.3 C 522.9 460.7, 510.3 450.4, 507.6 454.8 M 248 461.7 C 243 465.9, 233.1 473.1, 230.2 474.6 C 229.8 474.8, 246.1 500.5, 249 504 C 251.4 507.1, 252 507.3, 253.7 506.2 C 259.9 501.9, 262 500.9, 266.5 499.6 C 269.3 498.8, 273.1 497.9, 275.1 497.6 L 278.7 497 278.2 491.7 C 278 488.7, 278.4 484.8, 279.3 482.3 L 280.7 478.2 276.3 477.5 C 272.9 477, 270.9 477.3, 268 478.8 C 263.2 481.1, 262.7 480.7, 264.5 476.3 C 267 470.4, 265.6 465.6, 259.7 459.3 C 255.8 455.1, 255.7 455.1, 248 461.7 M 499.8 464.9 C 496.7 467.7, 496.6 467.9, 498.5 468.5 C 508.1 471.7, 511 474.9, 511 482.1 C 511 486.9, 511 487, 514.1 487 C 518.4 487, 525.1 484.9, 525.7 483.4 C 526.4 481.4, 523.1 476, 517.6 470.2 C 509.2 461.3, 505.1 460.1, 499.8 464.9 M 406 468.5 C 404.6 469.3, 402.6 469.7, 401.5 469.4 C 400.2 469, 399.9 469.2, 400.7 469.7 C 401.6 470.4, 400 472.7, 394.7 478.1 C 390.7 482.2, 385.9 487.7, 384.1 490.3 C 382.3 493, 380.6 494.9, 380.2 494.6 C 379.9 494.3, 380.4 493.2, 381.2 492.3 C 383 490.2, 384.2 487, 383.2 487 C 382 487.1, 377 491.8, 377 493 C 377 493.5, 376.6 494, 376 494 C 373.8 494, 375.2 491.4, 379.7 487.3 C 384.1 483.2, 386.9 481.7, 385.4 484.2 C 385 484.8, 385.1 485, 385.8 484.7 C 386.3 484.3, 386.6 483, 386.2 481.8 C 385.9 480.3, 386 479.9, 386.9 480.4 C 387.6 480.9, 390.1 479.1, 393.5 475.6 C 396.4 472.5, 398.7 470, 398.5 470 C 396.3 470, 382.6 477.6, 379.7 480.4 C 371.5 488.5, 369.4 497.7, 376 496.4 C 377.6 496, 383.5 496.3, 389.1 497 C 399 498.1, 399.4 498.1, 402.2 496 C 405.6 493.5, 406.9 493.8, 404 496.5 C 401.1 499.1, 401.4 499.5, 407.8 501.9 C 417.1 505.4, 428.3 514, 423.6 514 C 422.4 514, 422 515, 422 517.5 L 422 520.9 429.1 514 C 435.8 507.5, 436.2 507, 435.2 504.3 C 434.6 502.8, 434.1 502.2, 434.1 503.1 C 434 505.2, 430.2 510, 428.7 510 C 428.1 510, 428.8 508.7, 430.3 507.2 C 434.1 503.2, 433.7 497.2, 429.3 492.1 C 427.2 489.6, 424.7 489.4, 423 491.5 C 421.5 493.3, 422.3 493.4, 425 491.8 C 429 489.2, 431.2 495.2, 428.3 501.1 C 426.3 505.2, 425.3 506, 421.9 506 C 417.3 506, 416.4 503.7, 419.3 498.6 C 420.7 496.2, 421.2 494.4, 420.5 494.6 C 419.9 494.9, 418.3 496.9, 417.1 499 C 415.9 501.2, 414.5 503, 413.9 503 C 411.9 503, 413.2 498.6, 416.9 492.2 C 419.1 488.5, 421.4 483.5, 422 481.1 C 422.6 478.7, 423.7 475.9, 424.3 474.8 C 425.3 473.3, 425.2 472.7, 424 472 C 420.8 469.9, 417.1 473.3, 415.9 479.4 C 415.4 482, 413.8 485.9, 412.3 488 C 409.3 492.2, 406.8 493.3, 407.7 490 C 408.4 487.5, 406.5 487.4, 405.1 489.8 C 404.5 490.7, 404 491.1, 404 490.6 C 404 490.1, 404.7 488.9, 405.5 488 C 406.3 487.1, 408.2 483.9, 409.8 480.7 C 411.4 477.6, 412.9 475.2, 413.2 475.5 C 413.4 475.8, 413.5 474.6, 413.2 473 C 412.6 468.7, 411.7 469.2, 407.2 476.8 C 403.2 483.6, 400.4 486.8, 399.5 485.8 C 398.6 484.9, 402.2 477.5, 406.1 472.3 C 410.2 466.8, 410.2 466.1, 406 468.5 M 479 469.7 C 486.1 470.2, 489.6 473.2, 488.1 477.3 C 487.5 479, 487.3 479, 485.2 477.2 C 484 476.2, 483.3 475, 483.6 474.7 C 484.6 473.7, 481.7 471.4, 479.3 471.3 C 476 471.1, 475.7 473.8, 478.8 477.7 C 480.6 480.2, 481.1 481.5, 480.2 481.8 C 478.7 482.3, 478.6 484.7, 480.2 485.2 C 481 485.5, 481 485.9, 480.4 486.3 C 479.8 486.6, 477.8 485.6, 475.9 484 C 474 482.4, 471.8 481.1, 470.9 481 C 468 481, 468 479.8, 471.1 476.9 L 474.1 474.1 472.1 472.1 C 469.1 469.1, 467 469.5, 462.1 473.6 C 456.7 478.3, 456.6 482.3, 461.9 485.4 C 464.4 486.8, 465.5 487, 465.8 486.2 C 466.4 484.4, 472 484.7, 472 486.5 C 472 488, 471 488.4, 467.8 488.1 C 466.8 488, 466 488.4, 466 488.9 C 466 489.5, 466.5 490, 467 490 C 467.6 490, 468 491.1, 468 492.5 C 468 493.9, 467.6 495, 467 495 C 466.5 495, 466 493.9, 466 492.5 C 466 490.8, 465.5 490, 464.2 490 C 463.2 490, 462 489.6, 461.5 489.1 C 459.9 487.7, 455.2 486.9, 454.5 488 C 454.1 488.6, 454.6 488.7, 455.7 488.3 C 457 487.8, 456.8 488.4, 454.8 490.9 C 449.9 496.6, 451.7 502.3, 457.4 499.2 C 459.6 498.1, 463.2 497.5, 469.7 497.5 C 478.4 497.4, 479 497.2, 481.5 494.6 C 483.6 492.3, 483.8 491.6, 482.9 489.7 C 481.7 487.6, 481.7 487.6, 484.3 489.3 C 488.1 491.8, 493.9 491.4, 497.3 488.5 C 500.5 485.7, 500.6 484.9, 498.2 482.6 C 496.8 481.5, 495.4 481.2, 493.1 481.6 C 489.1 482.4, 487.7 480.8, 489.3 477.3 C 490.6 474.4, 494.4 474.2, 496.7 477 C 497.7 478.1, 499 479, 499.7 479 C 500.3 479, 501.3 479.7, 501.8 480.7 C 502.4 481.7, 503.4 482.1, 504.4 481.7 C 509 479.9, 502 473, 495.4 473 C 493.1 473, 490.5 472.2, 489 471 C 487 469.5, 485.1 469.1, 480 469.2 L 473.5 469.4 479 469.7 M 58.6 474.5 C 53.5 475.6, 49.1 478.4, 50.4 479.8 C 50.6 480, 55.6 479.4, 61.5 478.5 C 71.3 476.9, 73.2 476.9, 85.9 478.4 C 99.9 480, 111.1 482.1, 116.3 484.2 C 120.3 485.8, 122.1 483.8, 118.7 481.6 C 109.3 475.4, 73.7 471.2, 58.6 474.5 M 437.5 475.5 C 434.8 476.9, 431.7 478, 430.8 478 C 428.8 478, 425.4 482.3, 427 482.8 C 427.6 483, 428.9 482.1, 429.9 480.8 C 432.2 478.1, 433.7 478.9, 431.9 481.8 C 430.8 483.5, 430.9 484.4, 432 486.5 L 433.4 489.1 434.9 486.2 C 437.2 481.9, 441 477.8, 445 475.3 L 448.5 473 445.5 473 C 443.9 473.1, 440.3 474.2, 437.5 475.5 M 288.3 477.3 C 284 482, 281.5 492.5, 284.1 494.7 C 286.2 496.4, 296.4 494, 303.8 490.2 C 311.4 486.2, 311.5 485.6, 304.3 484.1 C 297.8 482.8, 295.9 483.8, 293.8 489.6 C 292.6 493, 291 493.3, 291 490.1 C 291 489.2, 291.9 486.4, 293.1 484.1 C 295.3 479.4, 295.1 477.7, 292.2 476.1 C 290.7 475.3, 289.9 475.5, 288.3 477.3 M 440.8 482 C 434.2 488.6, 433.9 490.1, 437.5 497.3 C 438.3 499, 439 501.4, 439 502.7 C 439 505.7, 439.4 505.6, 444.1 501.9 C 446.6 499.9, 448 498, 448 496.5 C 448 495.2, 448.9 491.4, 449.9 488.1 C 452.3 480.5, 451 480.3, 446.9 487.5 C 445.2 490.5, 443.6 493, 443.4 493 C 442.4 493, 443.1 490, 444.4 488.7 C 447.9 485.2, 451.3 478.1, 448.8 479.6 C 448.1 480, 448.4 479.4, 449.4 478.2 C 451.3 476, 451.3 476, 449.1 476 C 447.7 476, 444.6 478.3, 440.8 482 M 548 480.7 C 540.8 483.1, 534.7 486, 532.4 488.2 C 531 489.5, 530 489.8, 529.5 489.1 C 528.5 487.4, 525 489.7, 525 492.1 C 525 493.2, 524.6 493.8, 524 493.5 C 523.5 493.2, 523 493.8, 523 494.9 C 523 497.3, 523.3 497.4, 525.8 496.1 C 526.7 495.6, 532 494.2, 537.5 493 C 543 491.7, 550 490.1, 553 489.4 C 560.1 487.6, 564.6 487.5, 563.2 489.3 C 562.1 490.6, 558.9 491.8, 550 494.3 C 534.7 498.7, 529.8 500.3, 528.5 501.7 C 526.7 503.4, 526.7 503.2, 528 506.4 C 529.3 509.9, 533.3 509.8, 548.5 505.9 C 555.1 504.2, 561.5 502.5, 562.8 502.3 C 566 501.6, 565.6 503.8, 562.3 505.1 C 560.7 505.8, 558.6 506.6, 557.5 507.1 C 555.2 508, 542.7 511.6, 538.8 512.4 C 535.7 513.1, 535.3 514.5, 537.5 517.4 C 539 519.4, 548.9 519.2, 552.8 517.1 C 556.2 515.3, 567 514.6, 567 516.2 C 567 517.1, 564.4 518.2, 559 519.4 C 545.9 522.3, 550.1 525.5, 566 524.7 C 575.5 524.2, 578.9 523.2, 585.3 518.8 C 589 516.2, 590.6 516.9, 588.1 520.1 C 585.6 523.3, 585.3 523, 599 533.1 C 634.4 559.4, 655.5 567.9, 670 561.7 C 677.4 558.5, 684.4 545.5, 686.5 531 C 686.8 528.5, 687.5 524.5, 688 522 C 689.5 515, 691 497.6, 690.2 496.8 C 689.1 495.8, 660.9 494.7, 654.7 495.4 L 649.2 496.1 649.3 504.8 L 649.5 513.5 653.9 514.9 C 656.3 515.7, 660.2 518.1, 662.7 520.6 C 667.8 525.4, 667.8 528.5, 662.7 524.6 C 658.7 521.5, 651.7 518.5, 646.5 517.6 C 644.3 517.2, 641.2 516.5, 639.5 516 C 637.9 515.5, 633.1 514.1, 629 512.9 C 609 507.1, 597.9 501.5, 584.6 490.6 C 573.8 481.7, 569.3 479.7, 560 479.4 C 555.4 479.2, 550.8 479.7, 548 480.7 M 190.3 480.7 C 182.1 481.3, 175.5 488.8, 171 502.5 C 169.7 506.4, 168.2 510, 167.6 510.6 C 165.6 512.6, 150.8 515.7, 125.5 519.5 C 107 522.3, 102 523.7, 96.4 528.1 C 89 533.8, 87.4 532.6, 93.1 525.7 C 96.6 521.5, 99.9 519.5, 107.2 517.3 L 112.2 515.9 111.5 502.7 C 111.1 495.4, 110.5 489.2, 110.1 488.8 C 109.1 487.8, 89.2 485.2, 76.8 484.5 L 65 483.8 65 497.4 C 65 523.8, 71.1 547.2, 81.3 559.5 C 93.5 574.3, 132 568.4, 167.9 546.3 C 172.1 543.7, 175.7 541.3, 176 540.9 C 177.6 538.8, 181 538.1, 184 539.1 C 187.3 540.3, 195.4 539.7, 197.4 538.1 C 198 537.7, 199.9 536.8, 201.5 536.2 L 204.5 535.2 200.5 535.1 C 195 534.9, 186.7 532.7, 186.2 531.2 C 185.9 530.3, 188.5 530.1, 197.2 530.6 C 207.8 531.2, 208.6 531.1, 210.3 529.2 C 211.3 528.1, 212 526.3, 211.8 525.3 C 211.5 523.5, 211 523.4, 197.7 521 C 189 519.4, 183.4 515, 191.8 516.3 C 208.8 519, 215 520, 216.3 520.6 C 218.9 521.6, 222 519.2, 222 516.1 C 222 511.9, 219.1 510.1, 208.3 507.4 C 190.5 502.9, 187 501.6, 188.7 499.9 C 189.9 498.8, 207.6 502.2, 217.8 505.6 C 223.8 507.6, 225 507.4, 225 504.6 C 225 497.3, 221.8 494.7, 210 492.5 C 197.9 490.2, 195.8 489.6, 196.2 488.5 C 196.5 487.4, 205.2 487.7, 212 489.1 C 223.2 491.4, 224 491.4, 224 489.1 C 224 487.8, 222.6 486.2, 220 484.5 C 213.4 480.3, 207.2 479.6, 190.3 480.7 M 227.5 483.5 C 227.9 484.6, 228.4 488.2, 228.5 491.6 C 228.7 495.4, 229.5 499.2, 230.8 501.6 C 232 503.7, 233.1 506.3, 233.4 507.3 C 233.8 508.6, 235 509, 238.5 509 L 243 509 240.9 504.8 C 239.7 502.4, 237.9 499.4, 237 498 C 236 496.6, 233.7 492.7, 231.9 489.5 C 228.6 483.2, 226.1 479.9, 227.5 483.5 M 653 485.6 C 652.2 485.7, 648.9 486.2, 645.8 486.5 C 640.6 487.1, 640 487.4, 640 489.4 C 640 491.7, 640 491.7, 646.8 490.4 C 657.9 488.2, 682.1 488.6, 694 491.1 C 699.5 492.3, 704.3 493, 704.7 492.7 C 705.8 491.5, 702.8 489, 699.1 488 C 691.8 486.1, 658.8 484.3, 653 485.6 M 325.5 487.6 C 324.4 487.9, 322.6 488.5, 321.5 489 C 320.4 489.5, 316.4 490.9, 312.5 492.1 C 306.1 494.2, 296 499.4, 296 500.7 C 296 501, 297.2 502.7, 298.8 504.5 C 300.3 506.3, 302.4 509, 303.5 510.4 C 307.7 515.7, 322.8 515.8, 335.3 510.5 C 337.3 509.7, 340.8 508.8, 343 508.7 C 345.8 508.5, 347.9 507.6, 350.2 505.3 C 352.9 502.8, 354.5 502.1, 359.3 501.8 C 366.6 501.2, 367 500.7, 366.3 493.7 C 365.7 488.1, 364 485.6, 364 490.5 C 364 493, 362.6 493.9, 361.5 492.1 C 359.4 488.6, 343 486.1, 343 489.3 C 343 491.1, 339.1 495.2, 338 494.5 C 337 493.9, 330.9 496.5, 326.7 499.3 C 324.7 500.7, 323.5 500.9, 322.8 500.2 C 321.4 498.8, 327 493.3, 331.9 491.3 C 336.8 489.2, 331.6 486.2, 325.5 487.6 M 498.3 501.2 C 493.2 503.7, 496.3 505.6, 506.5 506.4 C 511.5 506.8, 517 507.3, 518.8 507.6 C 521.7 508.2, 522 508, 522 505.8 C 522 503.5, 521.4 503.3, 514.3 502.1 C 502.4 500.1, 500.7 500, 498.3 501.2 M 267.2 505.4 C 258.4 508.7, 258.5 509, 268.4 509 C 278.5 509, 286.3 511.3, 292.2 516.1 C 295.9 519, 296.2 519.1, 298.5 517.6 L 300.9 516 298.9 512.5 C 294.5 505.2, 290.5 503, 281.5 503.1 C 275.7 503.1, 271.8 503.7, 267.2 505.4 M 459.2 504.7 C 459.7 507.1, 466.1 508.8, 475.1 508.9 C 483.4 509, 494 507.3, 494 505.8 C 494 505.3, 492.5 505.2, 490.6 505.5 C 488.4 506, 486.2 505.6, 484.2 504.6 C 479.5 502.2, 458.7 502.3, 459.2 504.7 M 392.4 505.4 C 390.7 506, 388.7 507, 387.9 507.6 C 387.1 508.2, 384.4 509.5, 381.8 510.5 C 379.1 511.5, 377 512.5, 377 512.7 C 377 513.8, 385.2 511.4, 390.2 508.7 C 393.3 507.1, 396.4 506, 397.2 506.2 C 397.9 506.5, 395.6 508.1, 392 509.8 C 384.2 513.6, 385.5 513.9, 395.2 510.5 C 399.1 509.1, 402.5 508.2, 402.8 508.5 C 403 508.7, 402.1 509.2, 400.6 509.6 C 399.2 509.9, 398 510.6, 398 511.1 C 398 511.6, 397.4 512, 396.6 512 C 395.9 512, 394 512.6, 392.6 513.4 L 389.9 514.7 392.2 515.4 C 393.5 515.7, 395.4 515.9, 396.5 515.9 C 398.2 515.8, 398.1 515.7, 396.1 515.1 C 394.1 514.6, 394.7 514.1, 400.1 512.3 C 403.8 511, 407 510.4, 407.8 510.9 C 408.8 511.5, 407.8 512, 404.7 512.4 C 402.1 512.8, 399.7 513.6, 399.4 514.2 C 398.9 514.9, 400.2 515.1, 403.5 514.6 C 408.9 513.7, 413.2 512.1, 412.5 511 C 411.6 509.6, 403 506, 400.6 506 C 399.2 506, 397.8 505.6, 397.5 505 C 396.8 503.8, 396.5 503.9, 392.4 505.4 M 445.1 508 L 440.6 511.9 443.6 512.5 C 445.2 512.8, 448.1 513.5, 450 514 C 451.9 514.4, 456 515.1, 459 515.5 C 471.5 517, 481.7 519.2, 490.3 522.1 C 499.2 525.1, 499.9 525.2, 512 524.7 C 529.4 523.9, 534.4 521.6, 529.4 516.6 C 525.2 512.3, 502.6 509.8, 492.7 512.5 C 489.1 513.4, 482.6 514, 475.4 514 C 462.4 514, 458.6 512.9, 453 507.5 L 449.5 504.2 445.1 508 M 229.4 517.9 C 227.4 522.6, 225.3 524.9, 221.1 526.6 C 219.2 527.4, 217.9 528.2, 218.1 528.4 C 218.6 529, 228.2 527, 229.5 526.1 C 230.1 525.7, 234 524.3, 238.2 522.9 C 242.5 521.6, 246 520, 246 519.3 C 246 518, 241.2 516, 235.2 515 C 231 514.3, 230.9 514.4, 229.4 517.9 M 446.3 520.1 C 448.6 521.3, 451 521.9, 452.3 521.5 C 453.8 521.1, 454.1 521.1, 453.1 521.8 C 451.2 523.1, 453.4 524.3, 456.3 523.5 C 457.7 523.1, 458.1 523.2, 457.2 523.8 C 456.3 524.4, 456.6 524.9, 458.5 525.8 C 460.6 526.8, 461.3 526.6, 463.6 524.3 C 465 522.9, 466.5 522.1, 466.9 522.7 C 467.2 523.2, 468.2 524, 469 524.3 C 469.8 524.7, 472 525.9, 473.7 527 C 476 528.3, 477.9 528.8, 480 528.3 L 483.1 527.7 480.4 526.4 C 479 525.6, 477.1 525, 476.4 525 C 475.6 525, 475 524.6, 475 524.2 C 475 523.4, 469.4 522.1, 454.5 519.5 C 442.9 517.6, 441.7 517.6, 446.3 520.1 M 430.6 522.6 C 430 524.3, 433.5 527.9, 435.8 528 C 436.7 528, 436.9 528.7, 436.5 529.9 C 435.9 531.9, 440.4 540, 442.1 540 C 444.3 540, 462.1 533.6, 460.9 533.2 C 458.1 532.3, 451.3 529, 444.1 525.1 C 436.3 520.8, 431.6 519.9, 430.6 522.6 M 277.5 524.6 C 275.9 525.5, 273.5 526.4, 272.3 526.5 C 271.1 526.7, 268.6 527.9, 266.8 529.3 C 265 530.7, 262.4 532.1, 261 532.5 C 250.7 535.3, 245.9 540.2, 245.3 548.4 C 245.2 551.2, 245.3 552.8, 245.6 552 C 251 537.8, 256.5 533.8, 271.3 533.2 L 281 532.8 286.2 528.2 C 289 525.7, 290.8 523.4, 290.2 523.2 C 289.7 523.1, 288 524.1, 286.5 525.5 C 283.1 528.6, 280.4 528.9, 282 526.1 C 283.9 522.4, 282.4 522, 277.5 524.6 M 302.2 523.7 C 300.7 524, 300 524.7, 300.4 525.6 C 300.8 526.7, 300.4 526.9, 298.7 526.5 C 297 526.1, 295.1 527.2, 290.5 531.4 C 287.2 534.4, 284.9 536.9, 285.3 537 C 286.9 537.1, 293.6 533.1, 295.9 530.7 C 297.5 529, 299.2 528.2, 301.3 528.2 C 303.4 528.3, 304.8 527.6, 305.8 526.2 C 306.6 525, 308.1 524, 309.2 524 C 310.9 524, 311 524.3, 310 525.5 C 309.3 526.3, 308.3 527, 307.8 527 C 305.6 527, 298.9 533.3, 299.9 534.3 C 300.6 535, 301.5 534.6, 302.9 532.9 C 305.1 530, 314 526.6, 317.6 527.3 C 318.9 527.5, 320.3 527.2, 320.7 526.6 C 321 526, 321 525.8, 320.5 526.2 C 320.1 526.6, 319.2 526.3, 318.6 525.5 C 317.4 523.9, 306.6 522.7, 302.2 523.7 M 528.5 526.6 C 525.8 527.4, 521.7 528.4, 519.5 528.9 C 516.4 529.6, 518.1 529.8, 527.5 529.9 C 538.8 530, 542.3 530.4, 558 533 C 581.8 536.9, 594 542.7, 595.6 550.8 C 596.5 555.1, 590.8 560.6, 582.4 563.6 C 564.8 570, 561 571.6, 555.7 574.6 C 550 577.9, 547 578.8, 547 577.2 C 547 576.8, 548.7 575.4, 550.8 574.2 L 554.5 572 550.6 572 C 547.5 572, 546.9 572.3, 547.4 573.6 C 548 575, 547.4 575.2, 543.5 574.8 C 541.1 574.5, 539.3 574.6, 539.5 575 C 539.8 575.4, 538.2 576.5, 536 577.4 C 533.8 578.3, 532 579.4, 532 579.8 C 532 581, 527.5 583, 524.7 583.1 C 523.5 583.1, 524.8 583.8, 527.5 584.6 C 533.5 586.3, 536.3 585.8, 545.5 581.5 C 549.4 579.7, 554.1 577.7, 556 577 C 562 574.8, 568.3 572, 572.4 569.8 C 574.5 568.6, 576 568.2, 575.6 568.9 C 575.2 569.5, 575.5 570, 576.4 570 C 577.2 570, 578.2 569.1, 578.5 567.9 C 578.9 566.6, 579.7 566.1, 580.7 566.4 C 586.2 568.6, 602 554.5, 602 547.4 C 602 542.4, 581.9 533.9, 565.5 532 C 556.1 530.9, 549.2 529.3, 547.5 528 C 546.6 527.3, 544.1 526.8, 536 525.5 C 534.6 525.3, 531.3 525.8, 528.5 526.6 M 362.6 526.8 C 361.2 527.1, 360.9 527.8, 361.4 530.1 C 361.8 532.2, 361.6 533, 360.6 533 C 358.8 533, 356.8 530.5, 357.8 529.5 C 358.2 529.1, 356.7 529, 354.5 529.3 C 345.5 530.7, 341.4 539.7, 343.4 553.5 C 344.1 557.6, 346 560, 346 556.6 C 346 554.8, 349.7 550.3, 352.2 548.9 C 353.7 548.1, 353.1 549.5, 350 554 L 345.6 560.1 347.5 563.6 C 350.1 568.5, 353 567.7, 353 562 C 353 561.1, 353.8 559.6, 354.7 558.9 C 356.4 557.5, 356.3 558.7, 354.4 565.3 C 354 566.5, 354.4 567, 355.8 567 C 357.2 567, 357.7 566.3, 357.7 564.3 C 357.7 560, 360.5 550.6, 362.8 546.5 C 365.5 542.1, 365.7 538.5, 363.4 539.4 C 361.5 540.1, 362.2 535.6, 364.4 533 C 367.6 529.2, 366.6 525.9, 362.6 526.8 M 416 527 C 420.6 528.4, 429 533.7, 429 535 C 429 535.5, 426 534.3, 422.3 532.4 C 418.6 530.5, 414.4 529, 413 529.1 C 411.6 529.1, 411.2 529.4, 412 529.6 C 424.6 533.7, 436.3 545.1, 440 557 L 440.8 559.5 440.9 556.8 C 441.1 551.2, 434 538.1, 427.4 531.8 C 424.2 528.9, 418.1 526, 415.3 526.1 C 414.1 526.1, 414.3 526.4, 416 527 M 319.9 530.7 C 315.5 534.5, 312 542.7, 312 549.5 C 312 556.5, 313.8 565, 315.8 567.3 C 318.1 569.9, 321 569.5, 321 566.4 C 321 564, 323.1 556, 325 551.5 C 326.5 547.9, 328.9 539.5, 328.5 539.2 C 327.9 538.6, 323.2 545.5, 322.8 547.5 C 322.6 548.6, 322 549.4, 321.5 549.2 C 320.3 548.8, 320.8 545.6, 322.1 545.2 C 322.6 545, 323 544.1, 323 543.2 C 323 542.3, 325 539.3, 327.5 536.6 C 332.7 531, 332.8 530.7, 329.5 529.2 C 325.6 527.4, 323.5 527.7, 319.9 530.7 M 400.5 529 C 400.2 529.4, 401.2 530.1, 402.7 530.5 C 404.2 530.8, 407.7 532.2, 410.5 533.4 C 413.2 534.7, 416.4 536, 417.4 536.4 C 419.8 537.2, 430.8 545.2, 431.4 546.5 C 431.6 547.1, 432.6 549.3, 433.4 551.5 L 435.1 555.5 432.5 552.7 C 431.1 551.2, 430 549.2, 430 548.5 C 430 547.7, 428.8 546.3, 427.3 545.3 C 425.7 544.4, 423 542.3, 421.2 540.8 C 419.4 539.3, 417.4 538, 416.7 538 C 416 538, 413.6 537.1, 411.3 536 C 401.7 531.4, 398.7 530.8, 396.7 533.1 C 393.1 537.6, 393.4 539.8, 398.3 544.6 C 402.4 548.5, 405 553.6, 405 557.8 C 405 558.5, 405.4 558.9, 405.9 558.6 C 406.4 558.3, 407 558.7, 407.4 559.5 C 407.7 560.3, 407.1 561.4, 406.2 562 C 404.9 562.9, 405.6 563, 409.3 562.6 C 416.1 561.8, 416.5 561.3, 413.4 557.3 C 409.9 552.6, 411.1 551.9, 415 556.4 C 418.1 559.8, 418.5 560, 424.6 560 C 428.2 560, 431 559.6, 431 559 C 431 557.1, 427 554, 424.5 554 C 422.9 554, 422 553.4, 422 552.5 C 422 551.6, 420.1 550.1, 417.8 549.1 C 414.5 547.7, 413.9 547.1, 415.2 546.5 C 416.1 546.2, 418.3 546.6, 420 547.5 C 425.3 550.2, 424.3 548.6, 418.5 544.9 C 413.7 541.9, 411.8 540, 413.5 540 C 414.6 540, 425 547, 425 547.7 C 425 549.1, 434.2 558, 435.6 558 C 437.4 558, 437.3 554, 435.5 551.6 C 434.7 550.5, 434 549, 434 548.3 C 434 544.5, 422 535.5, 411.7 531.6 C 409.1 530.6, 407.2 529.5, 407.4 529.1 C 407.7 528.7, 406.3 528.3, 404.4 528.3 C 402.5 528.2, 400.8 528.6, 400.5 529 M 221.6 534.7 C 213.4 537.6, 204.4 547.4, 207.5 550 C 208.3 550.7, 209 551.9, 209 552.7 C 209 556.8, 221.3 566, 226.8 566 C 227.7 566, 225.5 564.5, 222 562.7 C 216.3 559.8, 215.4 559, 214.6 555.7 C 212.9 548.9, 217.4 540.4, 226 534.8 C 229 532.7, 227 532.7, 221.6 534.7 M 293.4 536.8 C 288.7 542.4, 287.8 544.7, 289 546.9 C 290.4 549.6, 290.3 552, 288.7 552 C 287.9 552, 286.1 549.1, 284.5 545.5 C 283 541.9, 281.3 538.9, 280.6 538.9 C 275 538.3, 265.7 543.8, 255.3 553.8 C 249.4 559.3, 248.4 563.1, 252.1 565 C 254.3 566.2, 257.5 565.6, 256.6 564.1 C 256 563.2, 261.3 555.6, 266.4 550.2 C 271.8 544.4, 282 539.7, 282 543 C 282 543.8, 279.7 545.7, 269.1 553.4 C 253.9 564.5, 261.6 571.5, 280 563.5 C 284.7 561.4, 289 559.4, 289.5 559 C 290.1 558.6, 293.2 557.5, 296.4 556.4 C 299.7 555.4, 301.8 554.4, 301.2 554.2 C 300.5 554, 300.2 553.4, 300.6 552.9 C 300.9 552.4, 302 552.4, 303.1 553.1 C 305.7 554.4, 305.4 554.8, 307.4 546.9 C 309.4 538.6, 309.4 538, 307 538 C 305.9 538, 305 538.4, 305 539 C 305 539.5, 305.7 539.7, 306.5 539.4 C 308.8 538.5, 308.3 540.4, 305.6 542.9 C 304.2 544.2, 302.7 544.9, 302.1 544.6 C 300.4 543.5, 296 548.8, 296 552 C 296 555.4, 294.5 556, 293.7 553 C 293 550.3, 294.4 545.4, 295.8 545.7 C 296.4 545.9, 296.7 545.3, 296.4 544.5 C 296.1 543.7, 296.8 541.4, 298.1 539.4 C 301.6 533.6, 298.1 535.7, 294.1 541.8 C 292.2 544.6, 290.4 546.7, 290.1 546.5 C 289.6 545.9, 293.8 538.1, 295.7 536.2 C 296.8 535, 297.5 533, 296.8 533 C 296.6 533, 295.1 534.7, 293.4 536.8 M 536.7 534.9 C 539.6 535.9, 542.9 537.5, 544.2 538.4 C 547.1 540.4, 550.9 540.5, 552.4 538.4 C 553.4 537, 553.8 537, 556.5 538.4 C 558.2 539.3, 560.2 540, 561 540 C 564.1 540, 579.3 546, 582.6 548.5 C 584.9 550.2, 586.7 550.9, 588 550.5 C 590.8 549.6, 590.6 552.1, 587.8 554.7 C 586.5 555.8, 583.1 558, 580.2 559.5 C 571.4 564.2, 575.7 563.5, 587 558.3 C 596.8 553.8, 594.6 548, 580.9 542.6 C 569 538, 564.6 537.1, 536 533.5 L 531.5 532.9 536.7 534.9 M 61.3 540 C 60.8 543.6, 60.7 546.9, 61.2 547.5 C 61.6 548, 62 549.6, 62 551.1 C 62 552.5, 62.9 557.4, 64 561.9 C 66 570, 65.9 572.5, 63.7 571.7 C 61.7 571, 56 582, 56 586.6 C 56 591.2, 57.2 592.4, 67.6 598.7 C 76.2 603.9, 76 604, 87.8 596.2 C 98.9 589, 117.3 578, 118.3 578 C 118.6 578, 121.5 576.4, 124.7 574.5 C 131.2 570.6, 130.9 570.3, 122.5 572.7 C 111.7 575.7, 94.9 575.1, 87 571.4 C 75.6 566.1, 66.9 552.8, 62.5 534.5 C 62.4 534, 61.9 536.4, 61.3 540 M 692 537.3 C 692 540, 686.8 553, 683.8 557.9 C 680.7 562.8, 678.6 564.8, 673.4 567.4 L 668.9 569.7 673.2 571.6 C 680.5 574.8, 688.8 579.9, 698.3 587.1 C 703.3 590.9, 707.7 594, 708.2 594 C 710.2 594, 708.3 574.7, 705.4 566 C 704.5 563.3, 702.3 558.8, 700.4 555.9 C 696.2 549.3, 696.1 547.7, 700.1 551.6 C 707 558.2, 712 573.8, 712 589 C 712 597.6, 712.1 597.9, 714.9 599.9 C 718.7 602.6, 719 601.8, 719 589.2 C 719 577.5, 717.3 571.6, 709.3 554 C 708.4 552.1, 705.7 547, 703.2 542.8 C 699.1 535.5, 698.6 535, 695.4 535 C 692.5 535, 692 535.4, 692 537.3 M 492.8 538.1 C 485.9 539.1, 480.6 541.7, 476.5 546 C 474.9 547.8, 471.7 550.1, 469.5 551.3 L 465.5 553.4 469 554 C 472.7 554.7, 474 555.3, 483.5 561.1 L 489.5 564.8 507.6 565.5 L 525.6 566.2 532.1 563.3 C 538.2 560.5, 544 555.3, 544 552.6 C 544 550.6, 539.8 544.9, 536.8 542.7 C 534.4 540.9, 532.4 540.6, 522.1 540.5 C 515.5 540.5, 509.8 540.1, 509.4 539.7 C 509 539.3, 511.7 539, 515.5 539 C 519.3 539, 522.1 538.8, 521.9 538.6 C 521 537.7, 498.1 537.3, 492.8 538.1 M 492.5 541 C 491.4 541.4, 489 542.4, 487.1 543.1 C 482.2 544.9, 479.6 549.5, 481.6 553 C 484.8 558.3, 493.7 561, 502.8 559.3 C 509.8 558, 507.7 556.7, 498.7 556.8 C 492.4 556.8, 491.1 556.6, 493 555.8 C 494.4 555.3, 497.3 555.1, 499.6 555.5 C 511.2 557.2, 512.5 547.8, 501.2 544.4 C 498.1 543.5, 497.8 543.2, 499.4 542.5 C 500.5 542, 502.6 542.2, 504.4 542.9 C 509.3 544.9, 512.4 545.5, 511.6 544.2 C 511.2 543.6, 509.4 542.8, 507.5 542.4 C 505.5 542.1, 503.7 541.4, 503.4 540.9 C 502.7 539.8, 495.2 539.8, 492.5 541 M 376.4 541.7 C 372.7 542.4, 368.1 549.7, 368 554.8 C 368 557.6, 370 555.7, 371.1 551.8 C 373.5 543.4, 380.8 539, 379.4 546.8 C 378.7 550.4, 378.8 550.5, 380.7 548.8 C 381.8 547.8, 383.4 547, 384.4 547 C 385.7 547, 386 546.5, 385.4 544.8 C 384.8 542.8, 384.9 542.7, 386.4 543.9 C 387.3 544.6, 388 546.6, 388 548.2 C 388 551.4, 385.2 560.9, 383.9 562.5 C 382.2 564.3, 382.8 566.4, 384.6 564.9 C 389.6 560.8, 391.8 548.4, 388.3 544.1 C 386.5 542, 380.5 540.8, 376.4 541.7 M 554.2 543.3 C 554.5 544, 556.8 544.6, 559.8 544.8 C 566.6 545.2, 566.5 547, 559.8 547.1 C 554.8 547.2, 554.7 547.2, 557.8 548.1 C 562.7 549.5, 567.5 552.5, 567.6 554.1 C 567.8 561.2, 571.4 562.2, 578.1 556.9 C 580.1 555.3, 582.3 554, 582.9 554 C 585.2 554, 583.9 551.4, 580.8 549.7 C 576.4 547.5, 559.1 542, 556.2 542 C 554.7 542, 554 542.5, 554.2 543.3 M 517.8 545 C 514.8 547.3, 513.5 551, 515.6 551 C 516.4 551, 517.3 551.7, 517.6 552.5 C 518.3 554.2, 521 554.6, 521 553 C 521 552.5, 521.9 552, 522.9 552 C 524 552, 525.2 551.5, 525.6 550.9 C 526.1 550, 525.5 549.9, 523.5 550.4 C 521 551, 520.8 550.9, 521.9 549.6 C 523.5 547.6, 525.4 547.6, 526.9 549.4 C 528.7 551.5, 527.1 554, 524 554 C 522.5 554, 520.6 554.7, 519.9 555.6 C 517.8 558.2, 524.7 556.4, 528.8 553.3 C 530.5 552, 532 551.4, 532 551.9 C 532 553.6, 527.8 557, 525.6 557 C 524.6 557, 523.9 557.3, 524.3 557.6 C 525.4 558.7, 531.1 556.8, 533 554.7 C 539.6 547.7, 525.6 538.8, 517.8 545 M 328 548.9 C 327.4 551.4, 326 556.6, 324.8 560.3 C 322.4 567.9, 323 569.4, 327.5 568.2 C 333.2 566.6, 336.9 557.6, 335.6 548.6 C 335 544.7, 334.7 544.3, 332 544.3 C 329.4 544.3, 329 544.8, 328 548.9 M 363 554.3 C 361.8 558.2, 360.5 562.3, 359.9 563.2 C 358.6 565.7, 358.8 567, 360.5 567 C 361.3 567, 362 566.3, 362 565.4 C 362 564.6, 362.5 564.2, 363 564.5 C 363.6 564.9, 363.8 565.6, 363.5 566.1 C 362.8 567.1, 368.2 567.3, 371.6 566.4 C 374.7 565.6, 380.2 553.9, 378.1 552.6 C 377.5 552.2, 376.8 553.5, 376.4 555.4 C 375.7 559.2, 373 562.6, 373 559.6 C 373 558.7, 373.9 555.7, 375 552.8 C 377.4 546.5, 377.4 546.4, 375.5 548 C 374.7 548.7, 374 549.8, 374 550.5 C 374 551.2, 373.1 552.9, 372 554.3 C 370.9 555.7, 369.7 558.2, 369.4 559.9 C 367.8 567.7, 366.1 561.1, 366.9 550.3 C 367.3 544.6, 365.1 546.7, 363 554.3 M 57.2 552.9 C 56.6 554.8, 56 558.6, 56 561.3 C 56 565.2, 55.2 567.8, 52.3 572.9 C 48.9 579, 48.6 580.1, 48.6 588.1 C 48.5 596.3, 48.7 597, 51.8 601.3 C 55.1 605.9, 55.8 608.8, 54 610.6 C 53.4 611.2, 52.7 614.8, 52.4 618.6 L 51.8 625.5 58.6 618.9 C 62.4 615.3, 67.5 610.8, 69.9 609 C 72.7 606.8, 73.8 605.5, 72.9 605.2 C 68.8 604, 60.7 599.4, 57 596.3 L 52.8 592.7 53.2 586.5 C 53.5 581.3, 54.2 579.4, 57.8 574 C 61.9 568, 62 567.5, 60.9 564.1 C 60.2 562.1, 59.4 558, 59.1 555 L 58.5 549.5 57.2 552.9 M 547.1 553.8 C 547 557.4, 539 564.4, 532 567 C 526.3 569.1, 524.9 569.2, 512.4 568.6 C 504.9 568.2, 496.9 567.7, 494.4 567.3 C 491.7 567, 490 567.1, 490 567.8 C 490 568.4, 497.2 569, 509.3 569.5 C 527.2 570.2, 528.9 570.1, 534.4 568.1 C 542.8 565.2, 549.5 557.4, 547.7 552.8 C 547.4 552.1, 547.1 552.5, 547.1 553.8 M 302.5 556.7 C 299.2 557.4, 293 559.9, 283.7 564.3 L 274.8 568.5 278.7 569.2 C 280.8 569.5, 288.7 569.6, 296.3 569.3 C 309.7 568.7, 310 568.6, 309.4 566.6 C 309.1 565.4, 308.4 564.1, 307.9 563.6 C 306.9 562.5, 298 564.9, 296.1 566.8 C 295.4 567.5, 294.1 567.9, 293.2 567.5 C 292.4 567.2, 290.2 567.4, 288.4 568 C 286.5 568.7, 284.2 569, 283.3 568.8 C 281.4 568.4, 292 563, 294.6 563 C 298.2 563, 307 559.5, 306.8 558.1 C 306.5 556.4, 305.3 556.1, 302.5 556.7 M 446 568 C 442.4 569.5, 437.3 571.1, 434.5 571.5 C 425.7 572.6, 413.1 577.7, 413 580.1 C 413 581.3, 423.4 582.6, 427.4 581.9 C 429.6 581.4, 434.5 581.1, 438.2 581 L 444.8 581 447.5 576.3 C 449 573.6, 451.4 570, 452.7 568.3 C 455.6 564.3, 454.7 564.3, 446 568 M 459.3 565.8 C 458.4 566.4, 458.6 567, 460 568 C 461.1 568.8, 462 570, 462 570.7 C 462 571.4, 463.7 572.8, 465.7 573.8 C 469.6 575.6, 471.4 576.9, 475.6 581 C 477.2 582.5, 477.7 583.6, 477 583.8 C 476.3 584.1, 474.7 583, 473.5 581.4 C 471.8 579.3, 470.8 578.8, 470 579.6 C 468.3 581.3, 471.6 584.4, 479.9 589 C 484 591.2, 487.5 593, 487.7 593 C 488.6 593, 478.5 579.4, 476.7 578.1 C 475.6 577.3, 473.4 575.3, 471.9 573.7 C 470.3 572.1, 469 571.2, 469 571.9 C 469 572.5, 468.6 573, 468 573 C 467.5 573, 467 572.2, 467 571.2 C 467 570.1, 465.7 568.9, 463.5 568.1 C 461.6 567.4, 460.2 566.4, 460.5 565.9 C 461.2 564.8, 460.9 564.8, 459.3 565.8 M 394 568.6 C 374.8 570.7, 360.7 571.8, 335 573 C 321.5 573.6, 308.3 574.2, 305.5 574.4 C 302.8 574.5, 311.1 574.7, 324 574.8 C 336.9 574.9, 351.6 574.5, 356.5 574 C 361.5 573.4, 371.1 572.6, 378 572 C 395 570.8, 409 568.8, 408.4 567.8 C 408.1 567.4, 407.3 567.1, 406.7 567.1 C 406 567.2, 400.3 567.9, 394 568.6 M 585 571 C 581.4 572.6, 575.1 574.9, 571 576 C 556 580.3, 555.6 580.6, 564.6 581.3 C 569.5 581.7, 575.6 583, 580.6 584.8 C 588.1 587.5, 589.2 587.7, 597.6 586.9 C 616.2 585.3, 619.2 585.6, 624.4 589.5 C 626.9 591.5, 629 593.7, 629 594.6 C 629 595.4, 632.2 599.2, 636 603 C 639.9 606.9, 643.5 611.2, 644 612.6 C 646.7 619.7, 643.8 627.5, 637 631.4 L 633.5 633.4 637.8 628.7 C 641.8 624.2, 642.4 622.5, 642 617 C 641.8 613.5, 637.9 607.9, 633.1 604.1 C 628.1 600.2, 627.6 601.8, 632.4 606.3 C 637.3 610.8, 640 615.9, 640 620.3 C 640 625, 632 633.6, 625.7 635.9 C 620.3 637.7, 618.8 635.9, 623.7 633.4 C 636.1 627.2, 638.9 618.8, 631.5 610.4 L 628.8 607.3 625.9 609.9 C 624.3 611.4, 620.4 613.4, 617.3 614.5 C 614.1 615.5, 611.3 616.5, 611.2 616.6 C 611 616.8, 612.2 618.6, 613.9 620.7 C 620.2 628.7, 620.9 633.4, 616.7 639.4 L 614.6 642.3 618.4 641.7 C 620.5 641.4, 625.3 639.9, 629.2 638.4 C 633 637, 636.4 636.1, 636.7 636.4 C 637.6 637.3, 634 639.8, 630.5 640.6 C 628.9 641, 626.9 641.6, 626 642.1 C 623.8 643.3, 598.7 648.2, 589.5 649.2 C 582.9 650, 569.8 649.8, 555.1 648.7 C 553.8 648.6, 552.5 649, 552.3 649.6 C 551.2 652.8, 587.4 652, 607 648.4 C 645.9 641.2, 656.1 636.6, 663 623 C 673.4 602.7, 655 586, 605.3 570.6 C 595.9 567.7, 592.2 567.8, 585 571 M 239 573.1 C 239 576.5, 247.3 584, 251 584 C 253.1 584, 251.9 582.2, 249.3 581.5 C 241.1 579.5, 243.4 578.5, 255.9 578.7 C 266.1 578.9, 267.8 578.7, 265 577.9 C 263.1 577.3, 260.6 576.4, 259.5 576 C 256.4 574.8, 239 572.3, 239 573.1 M 266.4 575.8 C 266.7 576.3, 268.9 577.1, 271.3 577.5 C 273.6 577.8, 278.1 579, 281.3 580.1 C 284.4 581.1, 287.6 582, 288.4 582 C 291.7 582, 297.7 587.9, 300.9 594.4 C 304.8 602.4, 306 602.1, 306 593 C 306 579.5, 305.6 579.2, 271.1 575.3 C 267.4 574.9, 265.9 575, 266.4 575.8 M 506.6 576.9 C 506.2 577.5, 503.6 577.7, 499.8 577.4 C 494.2 576.9, 493.8 577, 494.5 578.7 C 495.1 580.4, 496.6 584.8, 497.6 587.8 C 497.8 588.7, 498.9 588.5, 501.5 587 C 503.5 585.9, 505.6 585.3, 506.2 585.6 C 507.1 586.2, 504.1 588, 500 589.3 C 498.7 589.7, 498.6 591.4, 499.2 601 C 499.6 607.2, 500.2 612.5, 500.5 612.8 C 500.8 613.1, 504 610.5, 507.6 606.8 C 511.8 602.5, 516.4 599.1, 520.7 597 L 527.3 593.8 522.6 591.7 C 518.1 589.8, 516.4 587, 519.7 587 C 520.6 587, 521.1 586.7, 520.7 586.4 C 519.7 585.3, 515.9 587.1, 515.2 589 C 514.7 590.3, 514.1 590.7, 513.1 590.1 C 512 589.4, 512.3 588.7, 514.5 586.6 C 516 585.2, 516.9 584, 516.4 584 C 514.9 584.1, 512 586.6, 512 587.9 C 512 588.5, 511.6 589, 511.1 589 C 510.1 589, 510.2 590.4, 511.4 593.2 C 513.2 597.2, 511.8 598.5, 505.5 598.6 C 502.2 598.7, 501.2 598.5, 503.3 598.3 C 505.7 598, 507 597.4, 507 596.4 C 507 595.6, 507.5 595, 508 595 C 508.6 595, 509 594.5, 509 594 C 509 593.4, 508 593.2, 506.6 593.6 C 502.7 594.6, 502.8 592.5, 507 589.4 C 509.8 587.3, 510.6 586.2, 509.8 585.3 C 509 584.3, 509.2 584, 510.2 584 C 511 584, 512.5 583.1, 513.5 582 C 515.3 580, 515.2 580, 512.7 580 C 511.2 580, 510 579.6, 510 579 C 510 578.5, 511.6 578, 513.5 578 C 515.4 578, 517 578.5, 517 579.1 C 517 579.6, 517.5 579.8, 518.1 579.4 C 519.8 578.4, 516.8 577, 511.6 576.4 C 509 576, 507 576.3, 506.6 576.9 M 369.5 579.5 C 366.8 580.7, 366.7 580.8, 368.8 580.9 C 372.2 581, 370.5 582.7, 366.2 583.5 C 364.2 583.8, 360.7 585, 358.5 586.1 L 354.5 588 358.5 587.5 C 360.7 587.1, 364.7 586.4, 367.3 585.9 C 369.9 585.4, 374 585, 376.3 584.9 L 380.5 584.8 377 583.8 C 371.5 582.3, 371.5 581.4, 377 580.3 C 381.6 579.4, 382.2 579.5, 383.5 581.3 C 384.3 582.4, 384.7 583.6, 384.5 584 C 383.9 585, 391 586.1, 393.8 585.4 C 396.2 584.7, 396.8 581.2, 394.8 579.2 C 393.1 577.5, 373.4 577.7, 369.5 579.5 M 333.7 585.8 C 334.1 592.6, 333.2 595.8, 331.1 594.6 C 330.5 594.2, 330 593.1, 330 592.1 C 330 591.1, 329.3 587.9, 328.3 585.1 L 326.7 580 317.4 580 L 308.1 580 309.6 582.8 C 310.3 584.3, 311 586.3, 311 587.2 C 311 588.3, 311.5 588.7, 312.5 588.4 C 313.6 588, 314 588.5, 314.1 590.1 C 314.1 591.4, 314.4 591.9, 314.7 591.3 C 315.8 588.4, 317 590.3, 317.1 595.3 C 317.2 598.1, 317.5 599.4, 317.7 598 C 318.5 593.4, 320 593.4, 320 597.9 C 320 601.7, 320.2 602.1, 321.5 601 C 322.9 599.9, 323.4 600.3, 323.1 602.3 C 323.1 602.7, 324.9 603, 327.1 603 C 331 603, 331.8 602.4, 340.1 594.1 C 345 589.1, 351 583.9, 353.5 582.5 C 356 581, 358 579.6, 358 579.4 C 358 579.2, 352.4 579, 345.6 579 L 333.3 579 333.7 585.8 M 592.3 580.3 C 586.4 582.5, 587.7 582.9, 601.3 582.9 C 608.7 582.9, 616.5 583.2, 618.6 583.6 C 622.1 584.2, 622.3 584.1, 621 582.8 C 617.9 579.7, 598.5 578, 592.3 580.3 M 435 584.2 C 430.9 584.8, 427.3 585.4, 427.1 585.6 C 426.9 585.8, 430.2 592, 431.6 593.9 C 431.8 594.1, 433 593.6, 434.2 592.8 C 435.5 592, 439.3 590.5, 442.8 589.5 C 449 587.5, 450 586.4, 447.8 584.2 C 446.5 582.9, 445.6 582.9, 435 584.2 M 405.2 588.7 C 403.2 589, 402.2 589.5, 402.6 590.2 C 403.1 590.9, 402.4 591.1, 400.6 590.6 C 398.7 590.1, 398 590.3, 398 591.4 C 398 592.2, 397.3 593, 396.5 593.4 C 395.7 593.7, 395 593.5, 395 592.9 C 395 592.3, 392.9 593.1, 390.3 594.6 C 387.7 596.1, 383.4 598.5, 380.7 599.9 C 377.7 601.5, 374.3 604.6, 371.8 608 C 369.5 611, 367.2 613.9, 366.6 614.3 C 366 614.7, 367.2 614.9, 369.2 614.8 C 373.8 614.4, 374.7 616.4, 370.2 616.8 C 367.7 617.1, 367 617.5, 367.4 618.6 C 367.7 619.4, 367.4 620, 366.7 619.9 C 362.1 619.3, 361.1 620.1, 357.9 626.5 C 355.2 632.1, 354.9 633.4, 355.8 635.5 C 356.9 638, 359.4 638.8, 360.4 637.1 C 361 636.1, 372.1 632.4, 377 631.6 C 380.2 631.1, 380.3 631.2, 378.7 632.4 C 377.7 633.2, 374.7 634.1, 372.1 634.5 C 369.5 634.8, 366 636.1, 364.4 637.2 L 361.5 639.2 364.3 638.7 C 365.8 638.5, 367 638.7, 367 639.2 C 367 640.7, 388.1 639.4, 392.4 637.6 C 397.5 635.5, 405.7 628.5, 407.7 624.6 C 408.5 622.9, 410 620.6, 411 619.5 C 412 618.4, 413.8 615.5, 415.1 613 C 416.4 610.5, 417.7 608.3, 418 608 C 418.3 607.7, 420.2 605.3, 422.2 602.7 C 426.1 597.6, 426.2 593.3, 422.6 593.6 C 421.4 593.8, 421.1 593.2, 421.5 591.6 C 421.7 590.5, 421.7 590.1, 421.4 590.8 C 420.6 592.6, 418.7 592.3, 419.4 590.5 C 419.9 589.2, 419.4 589, 416.3 589.6 C 413.7 590.1, 412.9 590, 413.4 589.1 C 414.1 588, 412.1 587.9, 405.2 588.7 M 161.7 592 C 155.4 593.1, 149.6 595.4, 144.2 599.1 C 141.8 600.7, 139.5 602, 139 602 C 137.2 602, 138 600.1, 140 599.5 C 141.1 599.2, 142 598.5, 142 598 C 142 597.5, 142.9 596.8, 144.1 596.5 C 145.7 596, 145.9 595.5, 144.9 594.4 C 144 593.3, 144 593, 145 593 C 145.8 593, 146.1 592.7, 145.7 592.4 C 143.8 590.5, 130 603.7, 130 607.3 C 130 608.2, 129 609.6, 127.8 610.4 L 125.6 612 127.7 612 C 128.9 612, 130.2 611.5, 130.5 610.9 C 130.9 610.3, 131.8 610.1, 132.6 610.4 C 133.3 610.7, 133.7 610.4, 133.4 609.6 C 133 608.4, 138.1 603, 139.7 603 C 140.2 603, 142.8 601.8, 145.5 600.3 C 151.9 596.9, 162.6 593, 165.6 593 C 166.9 593, 168 592.6, 168 592 C 168 591.5, 167.7 591.1, 167.3 591.1 C 166.8 591.2, 164.3 591.6, 161.7 592 M 349.4 592.9 C 346.2 594.8, 337 606.3, 337 608.3 C 337 609, 337.9 608, 339 606.3 C 340.9 603.1, 343 601.9, 343 604 C 343 604.6, 343.7 605, 344.5 605 C 347.2 605, 346.1 606.8, 342 609.3 C 338.3 611.5, 338.1 611.8, 339.7 613.1 C 341.2 614.3, 341.3 614.3, 340.7 612.8 C 340.2 611.5, 340.6 611, 342 611 C 344.4 611, 344.5 611.8, 342.5 614.6 C 341.7 615.8, 341.4 617, 341.7 617.4 C 342.1 617.8, 342.3 620.8, 342.2 624.2 C 341.9 630.2, 342 630.2, 344.5 629.8 C 345.9 629.5, 347 629.7, 347.1 630.4 C 347.1 631, 347.6 630.4, 348.1 629 C 348.7 627.4, 349.4 627, 349.8 627.7 C 350.3 628.4, 351.3 627.6, 352.8 625.4 C 354 623.5, 354.7 622, 354.2 622 C 353.1 622, 346.8 626.7, 345.9 628.2 C 345.5 628.9, 344.8 629.1, 344.3 628.7 C 343 627.3, 345.6 624.6, 350.7 621.9 C 360.3 617, 370.9 606.8, 368.1 605.1 C 366.7 604.2, 367.6 601.3, 370.3 598.3 L 372.3 596 368.8 596 C 366.7 596, 363.8 597, 361.5 598.5 C 357.6 601.2, 355.8 601.2, 358 598.5 C 360.5 595.5, 364.8 594, 369.9 594.2 C 372.9 594.4, 374.9 594.1, 374.7 593.5 C 374.3 591.7, 359.8 592.5, 358.5 594.4 C 357.8 595.3, 356.9 596, 356.4 596 C 356 596, 354.3 597.2, 352.7 598.8 C 350.6 600.7, 349.9 601, 350.3 599.8 C 351.2 597.3, 349.3 597.5, 348 600 C 346.8 602.3, 344 602.7, 344 600.6 C 344 599.4, 347 596.7, 352.9 592.3 C 354.7 591, 351.8 591.5, 349.4 592.9 M 450 592.7 C 444.9 593.7, 433 599.9, 428.4 604.1 C 422.9 609.2, 416 619.4, 416 622.5 C 416 625, 419.4 628.5, 423 629.5 C 425.4 630.2, 425.4 630.2, 423.5 628.7 C 420.4 626.3, 422.4 625.6, 426.5 627.6 C 429.5 629, 430.6 629.1, 432.2 628.1 C 434.4 626.7, 437 627.7, 434.9 629.2 C 433.9 629.9, 434.1 630, 435.8 629.7 C 437 629.4, 438.3 629.7, 438.8 630.4 C 440.3 632.9, 448 635.5, 450.1 634.2 C 451.1 633.5, 453 633, 454.3 633 C 455.7 633, 457.5 631.8, 458.8 630 C 460.1 628.4, 461.9 627, 463 627 C 464.6 627, 465 627.7, 465 630 C 465 632, 465.5 633, 466.5 633 C 467.4 633, 468.3 633.7, 468.6 634.5 C 469.7 637.2, 473.2 636.1, 478.7 631.4 C 482.7 627.9, 483.9 626.3, 483.5 624.9 C 483.1 623.8, 483.3 623, 483.9 623 C 484.5 623, 485 623.7, 485 624.7 C 485 626.1, 485.2 626.1, 487 624.5 C 488.1 623.5, 489 622.2, 489 621.6 C 489 621, 488.5 621.2, 487.9 622 C 487 623.3, 486.9 623.3, 487.3 622 C 487.5 621.2, 488.4 620.5, 489.2 620.5 C 492.4 620.5, 494 617.9, 494 612.6 C 493.9 608.1, 493.8 607.7, 492.6 609.3 C 491.9 610.2, 490.4 611, 489.4 611 C 487.6 610.9, 487.6 610.9, 489.5 609.8 C 491.4 608.7, 491.4 608.7, 489.5 607.9 C 487.6 607.2, 487.7 607.1, 489.8 607.1 C 491.3 607, 492 606.4, 492 605 C 492 602.9, 490.5 603.1, 486 605.9 C 480.2 609.6, 479.4 610.1, 477.1 611 C 475.8 611.6, 474.2 611.9, 473.6 611.7 C 472.3 611.3, 480.4 606, 482.4 606 C 485.1 606, 489.6 601, 488 599.9 C 485.2 598.2, 478.9 596.9, 477.7 597.8 C 476 599.1, 469.1 600, 468.5 599 C 468.2 598.5, 469 597.4, 470.2 596.5 C 472.5 594.9, 472.5 594.9, 469.5 595.6 C 466.8 596.2, 466.7 596.1, 467.8 594.8 C 468.8 593.6, 468.8 593, 467.9 592.5 C 467.3 592.1, 466.4 592.4, 465.9 593.1 C 465.2 594.2, 464.7 594.3, 463 593.3 C 461.1 592, 455.1 591.8, 450 592.7 M 195 593.7 C 194.2 594, 191.8 595.1, 189.6 596.1 C 187.5 597.1, 185.4 597.7, 184.9 597.5 C 184.5 597.2, 183.8 597.4, 183.5 598 C 183.1 598.6, 181.9 598.8, 180.8 598.4 C 179.4 598, 179 598.2, 179.4 598.9 C 179.8 599.6, 179.3 600, 178.1 600 C 176.9 600, 176 600.4, 176 600.8 C 176 601.3, 175 601.6, 173.9 601.6 C 172.6 601.5, 171.5 602.3, 171 603.6 C 170.2 605.7, 170.3 605.7, 174.2 604.3 C 178.8 602.7, 180 603.2, 177.8 605.7 C 176 607.8, 172 616.7, 172 618.6 C 172 619.4, 171.6 620, 171 620 C 169.6 620, 169.8 617.5, 171.5 613.3 C 173.6 608.3, 172.6 608, 169.6 612.9 C 167 616.9, 166.1 623, 168 623 C 169.6 623, 169.2 624.4, 166.8 627 C 164.7 629.2, 164.6 629.2, 163.9 627.4 C 162.7 624.4, 162.9 623.9, 164.8 624.2 C 166 624.4, 166.4 623.9, 166.2 622.5 C 165.6 619.4, 165 619.3, 163 622 C 160.7 624.9, 160.5 626.9, 162.1 630.4 C 162.8 631.8, 162.9 633.7, 162.5 634.7 C 161.9 636.2, 161.4 635.8, 159.9 632.5 C 157.8 628.1, 157.5 624.4, 159 623.5 C 159.6 623.2, 160 622, 160 620.9 C 160 619.9, 160.4 619, 160.9 619 C 161.4 619, 161.6 618.1, 161.3 617 C 160.7 614.8, 162.5 614.2, 163.4 616.3 C 163.7 616.9, 163.7 616.5, 163.4 615.2 C 163.1 613.8, 163.7 611.6, 164.9 609.4 C 167.6 604.9, 167.5 604.2, 164.9 606.6 C 161 610, 157 619.9, 157 626.1 C 157 635.3, 165.1 645.8, 171.2 644.5 C 172.9 644.1, 174 644.3, 174 644.9 C 174 646.4, 177.4 646.3, 181.3 644.6 C 184.1 643.5, 184.9 642.3, 186.4 637.4 C 190.8 623.5, 192.5 619.2, 195.8 614.7 C 199.1 610.1, 206 603.8, 209 602.7 C 209.9 602.4, 210 602.1, 209.3 602.1 C 208.6 602, 208 601.3, 208 600.3 C 208 598.8, 208.2 598.8, 209.8 600.3 C 211.3 601.6, 211.8 601.7, 214 600.5 C 216.4 599.1, 216.4 599.1, 214.3 599 C 211.7 599, 206 595.9, 206 594.5 C 206 593.4, 197.4 592.8, 195 593.7 M 723 595.6 C 722.4 597.2, 721.4 599.8, 720.8 601.3 C 719.8 604, 720 604.5, 726.6 611.1 C 732.2 616.8, 733.6 617.7, 734.3 616.4 C 735.9 613.5, 734.3 608.5, 729.1 600.6 L 724 592.8 723 595.6 M 452.3 595.6 C 451.9 596.6, 452.1 597.5, 452.8 597.8 C 453.5 598, 453.8 598.6, 453.4 599.1 C 453.1 599.6, 453.4 600, 453.9 600 C 454.5 600, 455 600.5, 455 601 C 455 601.6, 453.6 602, 451.9 602 C 450 602, 449.1 602.4, 449.6 603.1 C 449.9 603.7, 451.5 604, 453.1 603.8 C 454.6 603.5, 455.7 603.7, 455.4 604.2 C 455.1 604.6, 454.2 605, 453.3 605 C 450.8 605, 443 609.2, 443 610.6 C 443 612.7, 444.4 613, 448.4 611.6 C 450.7 610.8, 451.8 610, 451.1 609.6 C 450.4 609.2, 449.2 609.4, 448.4 610.1 C 446.8 611.4, 445 610.5, 446.6 609.1 C 447.7 608.1, 458.3 606, 459 606.6 C 459.4 607.1, 457.5 608.6, 455.5 609.3 C 452.7 610.4, 456.4 611, 459.4 610 C 463.5 608.7, 464.8 607.2, 462.6 606.5 C 457.4 604.9, 457.4 604.8, 460.5 603.4 L 463.5 602.1 460.3 602 C 456.9 602, 454.7 599.5, 455.2 596.3 C 455.6 594.1, 453.2 593.4, 452.3 595.6 M 163.5 595.7 C 155.5 597.5, 150.3 600.3, 141 607.9 C 136.2 611.7, 135.9 612.2, 138.4 611.6 C 140.1 611.2, 143 609.5, 145.1 607.9 C 147.1 606.3, 153.1 602.8, 158.5 600 C 167.6 595.3, 168.5 594.6, 163.5 595.7 M 586.5 596.1 C 586.9 597.2, 586 597.4, 582 597.2 C 578.8 596.9, 577 597.2, 577 597.9 C 577 598.6, 579.2 599, 582.5 599 C 587.9 599, 588.1 599.1, 588.7 602 C 589 603.7, 589.9 605, 590.7 605 C 591.9 605, 594.5 609.8, 593.7 610.6 C 593.5 610.8, 591.9 610.5, 590.1 609.9 C 587.9 609.1, 587.2 608.5, 588 608 C 589.7 606.9, 585.4 604.6, 583.3 605.4 C 581.8 606, 574.5 604.3, 572.5 603 C 572 602.6, 568.6 601.9, 565 601.6 C 561.4 601.2, 555.8 600.2, 552.5 599.4 C 544.2 597.5, 542.7 597.7, 548 600.2 C 550.5 601.3, 555.1 603.5, 558.3 605.1 C 561.4 606.7, 565.8 608.4, 568 609 C 572.9 610.3, 573.5 612.5, 568.8 611.5 C 567 611.1, 564.2 610.2, 562.5 609.5 C 560.9 608.8, 558 607.7, 556.3 607 C 554.5 606.3, 553 605.4, 553 604.9 C 553 604.4, 552 604, 550.8 604.1 L 548.5 604.1 550.8 605 C 552 605.5, 553 606.4, 553 606.9 C 553 607.4, 554.9 608.5, 557.3 609.3 C 560.7 610.5, 561 610.9, 559 610.9 C 556.4 611, 549.2 607.8, 548.1 606.2 C 547.8 605.7, 546.2 605, 544.5 604.6 C 541.6 603.9, 541.6 604, 545.6 607 C 550.1 610.5, 558.8 613.9, 563.3 614 C 564.8 614, 567.2 614.7, 568.5 615.6 C 570.8 617.1, 573.6 616.7, 572.5 615 C 572.2 614.6, 572.9 614.4, 573.9 614.7 C 575 615, 578.2 614.5, 581.2 613.6 C 584.1 612.8, 589.1 612, 592.3 611.9 C 599.2 611.6, 599.2 611.4, 593.6 603.6 C 589 597.2, 585.5 593.4, 586.5 596.1 M 263.5 597.8 C 261.9 598.6, 258.3 601.4, 255.6 604 L 250.7 608.7 252.9 613.4 C 255.2 618.1, 257 619.4, 257 616.3 C 257 614.1, 261.8 608, 263.6 608 C 264.6 608, 265 609.3, 265 612.9 C 265 618.7, 262 623.4, 258.9 622.5 C 257.2 621.9, 257 622.4, 257 626.8 C 257 629.5, 256.7 633.3, 256.4 635.1 L 255.9 638.5 258.9 635.1 C 260.6 633.2, 262.6 630.2, 263.5 628.4 C 265.6 624, 267.3 623, 266.4 626.7 C 266 628.2, 265.1 630.9, 264.3 632.5 L 262.9 635.5 266 632 C 267.6 630.1, 269.3 627.1, 269.6 625.3 C 269.9 623.5, 270.6 622, 271.1 622 C 271.6 622, 271.8 620.8, 271.4 619.3 L 270.8 616.5 272.4 619.4 C 274.2 622.5, 273 627.8, 269.1 634 L 267.5 636.5 269.9 634.9 C 271.3 634.1, 272.9 631.6, 273.5 629.4 C 274.2 627, 274.9 626.1, 275.2 627 C 275.5 627.8, 275.6 627.3, 275.4 625.8 C 275.2 624.3, 275.6 622.8, 276.2 622.4 C 277.3 621.7, 276.7 611.8, 275.1 606.5 L 274.2 603.5 274.1 607.3 C 274 611, 272 612.7, 272 609 C 272 607.9, 271.5 606.1, 270.8 605 C 270.1 604, 269.9 602.7, 270.3 602.3 C 270.8 601.9, 271.5 602.2, 272 603 C 272.6 603.8, 273 604.1, 273 603.5 C 273 599.9, 270.9 599.6, 268 602.8 C 266.4 604.5, 264.4 606, 263.7 606 C 263 606, 261.4 607.1, 260.2 608.5 C 257.6 611.4, 255.2 612, 257.2 609.1 C 259.5 605.8, 265.7 599.4, 268.1 597.7 C 271.3 595.4, 267.9 595.5, 263.5 597.8 M 120.3 599 C 110 601.1, 94.6 608.9, 91 614 C 86.1 620.9, 91.2 631.1, 102.5 637 C 104.7 638.1, 105.5 638.8, 104.3 638.5 C 103 638.1, 102 638.1, 102 638.4 C 102 639.5, 113.4 647.3, 117.8 649.2 C 120.4 650.2, 123.4 651.5, 124.5 652 C 133.8 656.3, 154.2 660.2, 187.5 664.1 C 203.4 666, 241.4 665.7, 257.5 663.6 C 270 662, 288.1 657.5, 294.7 654.5 C 296.4 653.7, 298.1 653, 298.5 653 C 299.7 653, 307 646.9, 311.1 642.5 C 316.3 637.1, 320.3 628.5, 319.6 624.7 C 319 621.8, 319.1 621.8, 322.2 622.4 C 323.9 622.7, 326.1 623.7, 327 624.5 C 327.9 625.3, 329.1 626, 329.6 626 C 330.1 625.9, 329.4 625, 328.1 624 C 326.8 622.9, 326.1 621.4, 326.4 620.8 C 326.8 620.1, 327.7 618.4, 328.5 617 C 332.4 610.2, 327.1 607.9, 307.9 608.1 L 298.5 608.1 304.5 611.1 C 307.8 612.7, 312.1 615.5, 314.1 617.3 C 317.7 620.6, 317.7 620.6, 316.9 626.4 C 315.9 633.7, 313.3 636.7, 303.4 641.6 C 293.1 646.7, 279.5 650.4, 265 652.1 C 260.3 652.6, 253.3 654.2, 249.5 655.5 C 233.2 661.2, 217.6 663.2, 209.8 660.6 C 201.8 657.9, 197.2 657, 185.3 655.5 C 167.7 653.3, 158.3 651.4, 146.9 647.6 C 141.2 645.8, 134.5 643.9, 132.1 643.5 C 129.7 643.1, 125.8 641.8, 123.4 640.5 C 121.1 639.3, 117.1 637.9, 114.6 637.6 C 102.2 635.7, 88.8 621.6, 94.2 616.2 C 96.1 614.3, 96.9 614.8, 96.9 617.8 C 97.1 622.4, 97.3 623.9, 97.9 623.8 C 100.2 623.6, 101.1 624.2, 100.6 625.6 C 100.2 626.6, 100.4 626.9, 101.2 626.4 C 101.9 625.9, 102.1 626.2, 101.8 627.2 C 101.4 628.2, 103 629.6, 107.2 631.9 C 113.2 635.3, 115.5 635.4, 112.8 632.3 C 107.2 625.9, 107.4 622.9, 114 615.5 C 115.5 613.9, 118 610.7, 119.6 608.6 L 122.5 604.6 120 605.4 C 118.6 605.8, 115.7 606.6, 113.5 607.1 C 107.1 608.6, 103.2 611, 103.8 613.2 C 104.1 614.4, 103.7 615, 102.5 615 C 101.4 615, 101 614.3, 101.2 612.8 C 101.7 609.4, 109.8 605.5, 121.2 603.3 C 122.6 603, 124.9 601.7, 126.1 600.4 C 128.7 597.6, 128.1 597.5, 120.3 599 M 520 604.7 C 514.1 608.5, 510 611.9, 510 613.1 C 510 613.5, 511.7 614.1, 513.8 614.5 C 515.8 614.9, 518 615.5, 518.5 615.9 C 519.1 616.3, 521.8 617.5, 524.5 618.5 C 527.3 619.5, 531.1 621.2, 533 622.3 C 534.9 623.4, 536.2 624, 535.8 623.5 C 535.4 623.1, 535.5 622.1, 536.2 621.3 C 537 620.2, 536.9 620.1, 535.7 620.6 C 533.5 621.4, 526.5 617.1, 527.9 615.7 C 529.1 614.5, 532.5 615.4, 536.9 618.1 C 539.6 619.7, 540 620.4, 538.9 621 C 537.8 621.8, 537.8 622.2, 539.4 623.3 C 540.5 624.1, 541 625.2, 540.7 625.7 C 540.3 626.3, 541.1 627.1, 542.5 627.4 C 543.9 627.8, 545 628.5, 545 629 C 545 629.5, 547.2 630.2, 549.9 630.6 C 552.6 630.9, 555.3 631.6, 556 632 C 558.2 633.3, 556.1 634.8, 552.8 634.3 L 549.7 633.8 552.8 637.8 C 557.3 643.4, 561.9 644.5, 581 644.4 C 597.5 644.4, 605.5 642.9, 611.3 638.8 C 615 636.2, 614.2 635.6, 609.7 637.5 C 607.7 638.3, 605.3 639, 604.3 638.9 C 603.3 638.8, 604.2 638.3, 606.3 637.8 C 608.3 637.3, 610 636.4, 610 635.9 C 610 635.4, 610.6 635, 611.3 635 C 613.6 635, 615.2 630.8, 614.1 628 C 613.2 625.8, 613.1 625.7, 613.1 627.6 C 612.9 632, 605.8 636, 594.6 638 C 587.6 639.2, 575 639.3, 575 638.2 C 575 637.8, 573.4 636.8, 571.4 636.1 C 568.7 635.1, 568.1 634.5, 569 633.5 C 569.8 632.6, 569.3 632.1, 566.9 631.6 C 565.2 631.3, 560.8 629, 557.1 626.6 C 553.5 624.2, 548.5 621, 546 619.5 C 543.5 618, 541.3 616.4, 541 616 C 540.7 615.6, 536.9 612.9, 532.5 610 C 528.1 607, 524.3 604.5, 524.1 604.3 C 522.7 603.3, 525.4 602.8, 527 603.8 C 529.2 605.1, 529.7 604.1, 527.8 602.2 C 526.2 600.6, 526.3 600.6, 520 604.7 M 182.1 602.9 C 181.4 603.4, 181 604.2, 181.3 604.7 C 181.6 605.1, 180.5 607.4, 178.9 609.8 C 176 614, 174.8 618.6, 177.1 616.3 C 178 615.4, 178.7 615.4, 180.1 616.3 C 181.5 617.2, 182.2 617.2, 183.1 616.3 C 184.7 614.7, 183.4 613.1, 181 613.7 C 178.3 614.4, 178.5 612.4, 181.5 609.5 C 183 607.9, 185.1 607, 186.9 607 C 188.5 607, 190.2 606.5, 190.6 605.8 C 191.1 605.1, 192.1 605.6, 193.6 607.5 L 195.8 610.3 199 607.7 C 200.7 606.2, 202.8 605, 203.6 605 C 204.4 605, 205 604.3, 205 603.3 C 205 601.8, 204.8 601.9, 203 603.5 C 201.8 604.6, 200.4 605, 199.3 604.5 C 196.2 603.2, 191.2 602.9, 190.5 604 C 190.2 604.5, 188.9 605, 187.8 605 C 185.7 605, 185.7 605, 187.6 603.5 C 189.4 602.1, 189.4 602.1, 186.5 602 C 184.9 602, 182.9 602.4, 182.1 602.9 M 224.5 603.6 C 226.4 605.1, 226.2 605.2, 222 604.6 C 218.8 604.2, 218.1 604.3, 219.6 604.9 C 222.9 606.4, 223.5 608, 220.7 608 C 217.5 608, 215.5 610.3, 217.3 611.8 C 218.3 612.7, 219 612.6, 219.8 611.8 C 222.4 609.2, 221.8 612.1, 218.3 619.6 L 214.5 627.5 214.5 641.5 L 214.5 655.5 217.7 655.8 C 220.1 656, 220.9 655.8, 220.5 654.8 C 219.7 652.5, 221.6 650.4, 223.3 651.8 C 224.4 652.8, 225 652.7, 226 651.5 C 226.7 650.6, 228.1 650.2, 229.1 650.5 C 230.5 651, 231 650.6, 231 649.1 C 231 647.9, 231.5 647, 232 647 C 232.6 647, 233 646.4, 233 645.7 C 233 643.9, 236.9 640.8, 238.5 641.4 C 239.3 641.7, 240 640.9, 240.3 639.4 C 240.7 636.9, 239.5 636, 238.7 638.3 C 238.5 638.9, 237.9 639.2, 237.5 638.7 C 237 638.3, 237.2 637.4, 237.8 636.8 C 238.5 636.1, 239 635.3, 239 634.8 C 239 633.8, 235.8 635.1, 234 636.9 C 232.7 638.2, 232.7 638.3, 234.3 637.7 C 236.4 636.9, 236.5 638.3, 234.5 640 C 233.7 640.7, 233 641.8, 233 642.4 C 233 643.1, 232.4 644.5, 231.6 645.5 C 230.3 647.3, 230.2 647.3, 229.1 645.1 C 228 643.2, 228.1 642.6, 229.5 641.6 C 231 640.5, 231.1 640.1, 229.9 638.2 C 228.3 635.7, 232.2 627, 236.7 622.8 C 239.8 619.9, 239.6 620.8, 235.5 628.4 C 232.4 634.2, 230.5 639.3, 233.1 634.8 C 233.6 633.8, 234.8 633, 235.6 633 C 236.6 633, 236.9 632.4, 236.5 631.1 C 236 629.4, 237.6 627.9, 240.3 627.6 C 240.8 627.5, 241.8 626.7, 242.5 625.7 C 243.3 624.6, 244.3 624.1, 244.9 624.4 C 246.1 625.2, 245.3 627.6, 242.9 630.8 C 241.9 632.1, 241.4 633.8, 241.7 634.6 C 242.6 637, 243.7 636.2, 244.4 632.4 C 245.4 627.4, 247.5 628.6, 247.3 634.1 C 247.1 638.3, 247.2 638.4, 248.4 636 C 250.8 631.4, 251.3 627.7, 249.5 628.4 C 246.8 629.4, 245.7 628, 247.6 625.9 C 248.9 624.5, 249.1 623.1, 248.6 619.5 C 247.8 614.2, 247.7 614.2, 244.2 617.5 C 241.1 620.4, 239.8 620.7, 240.7 618.3 C 241.2 617.1, 240.2 617.4, 237.2 619.6 C 234.9 621.2, 233 623, 233 623.7 C 233 624.3, 231.4 627.2, 229.5 630.1 C 227.6 633, 225.9 635.9, 225.7 636.5 C 225.4 637, 224.9 637.2, 224.5 636.8 C 224.1 636.4, 225.5 633.4, 227.6 630.3 C 232.8 622.6, 232.7 622.8, 228.7 623.5 C 226.7 623.9, 225 623.8, 224.6 623.1 C 223.7 621.7, 237.7 606, 239.8 606 C 244.5 605.8, 234.7 602.6, 229 602.4 C 223 602.1, 222.6 602.2, 224.5 603.6 M 287 610.9 C 287 612, 287.5 613.2, 288 613.5 C 288.6 613.8, 289 615, 289 616 C 289 617.3, 290.4 618.4, 293.8 619.6 C 304.3 623.5, 307.5 630.3, 301.5 636.3 C 298.8 639, 302 638.3, 306.5 635.2 C 317.6 627.5, 313.4 618.2, 295.7 611.5 C 287.5 608.5, 287 608.5, 287 610.9 M 141.5 613.1 C 139.9 613.6, 135 614, 130.7 613.9 C 123.9 613.7, 122.6 614, 120.7 615.8 C 117.8 618.7, 118.1 618.8, 129.9 617.7 C 140.3 616.8, 140.4 616.8, 142.2 619.1 C 143.2 620.4, 145 622.5, 146 623.6 L 148 625.8 143.8 626.3 C 141.4 626.6, 135.3 627.4, 130.2 628 C 125.1 628.7, 120.2 628.9, 119.4 628.6 C 117.7 628, 117.9 625.9, 119.5 625.8 C 120.1 625.8, 121 625.4, 121.7 624.8 C 123.2 623.6, 125 624.6, 125 626.7 C 125 628, 125.3 628, 126.5 627 C 127.3 626.3, 130.4 625.7, 133.4 625.5 C 136.3 625.4, 139.2 625, 139.9 624.6 C 141.1 623.8, 141.4 619.4, 140.2 618.6 C 139.3 618.1, 127.9 620.4, 126 621.5 C 125.1 622, 124.9 621.9, 125.4 621.2 C 126.5 619.4, 121.4 619.7, 118.5 621.6 C 115.4 623.6, 115.4 625.2, 118.2 629.1 C 120.2 631.8, 120.9 632, 124.5 631.6 C 126.7 631.3, 132.1 630.8, 136.5 630.5 C 148.7 629.6, 150 629.2, 150 626.6 C 150 625.3, 150.3 624, 150.7 623.6 C 151.2 623.2, 152 620.7, 152.6 618 L 153.7 613.2 150.7 612.6 C 147 611.8, 145.2 611.9, 141.5 613.1 M 582.5 619.2 C 578.1 620.2, 572.3 621.6, 569.5 622.1 C 563.6 623.3, 561.6 623.9, 562.1 624.4 C 562.5 624.8, 570.1 623.5, 587.7 619.9 C 596.5 618.1, 599.3 617.9, 600.2 618.8 C 602.4 621, 599.4 622.5, 593.2 622.4 C 589.8 622.4, 588.5 622.6, 590 623 C 592 623.5, 592.2 623.7, 590.8 624.2 C 589.9 624.6, 588.3 624.6, 587.1 624.3 C 585.8 624, 585 624.2, 585 625 C 585 625.8, 583.6 626.1, 580.6 625.9 C 578.1 625.7, 576.4 625.9, 576.8 626.4 C 577.1 626.9, 574.9 627, 571.4 626.6 C 565.7 626, 565.6 626, 568.4 627.5 C 573.7 630.3, 592.3 628.8, 600.5 625 C 601.6 624.5, 603.8 623.6, 605.4 623 L 608.3 621.9 606 619.5 C 603 616.3, 594.4 616.2, 582.5 619.2 M 197.5 623.5 C 195 628.6, 194.5 630.6, 194.6 636.7 C 194.6 643.8, 194.7 644, 198.5 647.6 C 202.1 650.9, 208.7 654.6, 209.6 653.8 C 209.8 653.6, 208.4 652.6, 206.5 651.5 C 203 649.7, 201.9 648, 204.3 648 C 205 648, 205.7 646.9, 205.8 645.5 C 205.9 644.1, 205.6 643, 205.1 643 C 204.6 643, 203.2 641.4, 201.9 639.5 C 200.6 637.6, 199.2 636, 198.8 636 C 197.1 636, 198.2 638, 201.6 641.7 C 203.7 643.9, 204.7 645.6, 204 645.8 C 202.4 646.4, 195 637.9, 195.3 636 C 195.5 635.2, 196.1 634.6, 196.8 634.7 C 197.6 634.9, 197.7 634, 197.3 631.9 C 196.8 629, 196.9 628.8, 198.9 629.5 C 200.8 630.1, 201 629.8, 200.9 626.8 C 200.9 624.2, 200.7 623.9, 200.1 625.4 C 199.5 626.9, 199.2 627.1, 198.5 626 C 198 625.2, 198.3 624.2, 199.4 623.4 C 200.5 622.7, 201 621.2, 200.8 619.8 C 200.5 617.9, 199.9 618.6, 197.5 623.5 M 503.7 620.8 C 501.8 622.9, 501.4 624.5, 503.1 623.4 C 504.1 622.8, 510.4 625, 514 627.1 C 514.8 627.6, 516.6 628.5, 518 629 C 519.4 629.6, 521.3 630.5, 522.2 631 C 523.2 631.6, 524.7 632, 525.5 632 C 526.3 632, 527 632.5, 527 633 C 527 633.6, 528.2 634.5, 529.7 635.1 C 531.2 635.7, 534.7 637.2, 537.5 638.6 L 542.5 641 539.5 638.5 C 537.9 637.1, 536.1 636, 535.7 636 C 535.2 636, 535.2 635.5, 535.6 634.8 C 536 634.1, 535.9 634, 535.1 634.4 C 534.5 634.8, 533.7 634.4, 533.4 633.6 C 533.1 632.7, 532.2 632, 531.4 632 C 530.6 632, 530 631.4, 530 630.7 C 530 630, 528.1 628.8, 525.8 627.9 C 523.3 627.1, 521.6 625.9, 521.8 625.1 C 522 624.2, 521.2 624, 519 624.5 C 517.1 624.9, 516 624.8, 516 624.1 C 516 623.5, 516.6 623, 517.3 623 C 517.9 623, 517.2 622.3, 515.6 621.5 C 512.1 619.6, 511.6 619.6, 512.4 621.5 C 512.7 622.3, 512.6 623, 512.1 623 C 511.6 623, 511 622.1, 510.7 621 C 510 618.4, 505.9 618.3, 503.7 620.8 M 289 621 C 289 621.6, 290.2 622.5, 291.6 623 C 293 623.6, 293.8 624.5, 293.4 625.1 C 293 625.9, 292.5 625.9, 291.7 625.1 C 290 623.4, 288.8 623.8, 289.2 626 C 289.4 627, 288.6 628.6, 287.5 629.4 C 285 631.2, 286.4 632.9, 289 631.2 C 291.4 629.7, 295 629.6, 295 631 C 295 631.6, 294.1 632, 293 632 C 291.9 632, 291 632.5, 291 633.1 C 291 633.7, 291.7 633.9, 292.6 633.6 C 297.4 631.8, 299 631.8, 299 633.6 C 299.1 635.4, 299.1 635.4, 300.5 633.6 C 303.6 629.5, 301.4 625.3, 294.6 621.9 C 290.1 619.7, 289 619.6, 289 621 M 174.5 624.5 C 172.3 625.3, 170.4 626, 170.3 626 C 170.1 626, 170 627.5, 170 629.4 C 170 632.4, 169.7 632.9, 167.3 633.2 C 165.5 633.4, 164.4 634.2, 164.2 635.4 C 163.9 636.8, 164.2 637.1, 165.5 636.6 C 166.7 636.2, 167.1 636.4, 166.7 637.4 C 166.4 638.2, 166.4 639.1, 166.7 639.4 C 167.7 640.4, 170 637.9, 170 635.8 C 170 634.7, 170.5 633, 171 631.9 C 172.4 629.5, 176 631, 176 634 C 176 636.5, 178 636.7, 178 634.3 C 178.1 633.3, 178.9 630.7, 180 628.5 C 183 622.3, 182.2 621.7, 174.5 624.5 M 323.4 631.5 C 322.6 637.4, 323.2 637.9, 328.4 635.2 C 332.5 633, 332.8 633, 336.1 634.6 C 341.9 637.5, 342.4 637.7, 347 638.5 C 354.1 639.6, 350.2 636.8, 340.1 633.6 C 335.5 632.1, 330.4 630, 328.6 628.9 C 324.4 626.3, 324.2 626.4, 323.4 631.5 M 495.6 632.9 C 496.4 637.1, 494.2 636.8, 492.1 632.4 C 491.1 630.4, 490.5 630, 490.2 631 C 489.9 631.8, 489.3 633.3, 488.8 634.2 C 488.1 635.6, 488.3 635.8, 489.7 635.3 C 491.3 634.7, 491.3 634.8, 490.1 636.3 C 489.4 637.2, 488.1 638, 487.4 638 C 486.6 638, 486 638.6, 486 639.4 C 486 640.1, 484.6 641.4, 482.9 642.2 L 479.9 643.7 483.1 646.5 C 484.9 648, 487.3 649.5, 488.4 650 C 491.8 651.2, 520 652.3, 520 651.2 C 520 649.6, 517.9 649.2, 510.5 649.7 C 504 650.1, 503.2 649.9, 499.1 647.1 C 495.7 644.8, 494.3 644.4, 493.3 645.2 C 492.3 646, 491.6 646, 490.8 645.2 C 489.9 644.3, 489.9 644, 490.8 644 C 491.5 644, 492 642.9, 492 641.6 C 492 637.6, 493.7 637.6, 500.3 641.8 C 503.7 643.9, 508.1 646.5, 510 647.5 C 513.4 649.2, 513.4 649.2, 509.1 645.4 C 506.6 643.2, 503.8 640.9, 502.8 640.2 C 500.3 638.4, 500.5 637.2, 503.5 635.8 C 506.2 634.6, 506.9 631, 504.5 631 C 503.7 631, 503 630.6, 503 630 C 503 629.5, 501.2 629.1, 499 629.3 C 495 629.5, 495 629.5, 495.6 632.9 M 508.5 636 C 508.1 636.6, 507.1 636.9, 506.3 636.8 C 503.5 636.3, 503.8 638.9, 506.7 640.1 C 508.2 640.7, 510.4 641.6, 511.5 642.1 C 512.6 642.6, 514.2 642.9, 515 642.8 C 515.8 642.7, 517.4 642.8, 518.5 642.9 C 520.2 643.2, 520.2 643.3, 518.1 643.9 C 515.8 644.5, 515.7 644.7, 517.4 646 C 518.3 646.8, 519.6 648, 520.3 648.6 C 521.2 649.5, 521.8 649, 522.8 646.7 C 524.2 643.3, 522.9 641.6, 517.7 640.5 C 516.2 640.1, 514.2 638.7, 513.4 637.4 C 511.7 634.9, 509.6 634.3, 508.5 636 M 295.5 638.9 C 293.7 640.4, 264.5 645.9, 256.5 646.1 L 251.5 646.3 256 647.1 C 265.5 648.8, 286.1 644.9, 297 639.3 C 298.5 638.5, 298.9 638, 298 638 C 297.1 638, 296 638.4, 295.5 638.9 M 547.5 645.1 C 546.2 649.1, 542.6 651.7, 543.2 648.3 C 543.6 646, 539 646.3, 537.3 648.7 C 536.1 650.3, 536 650.3, 536 648.7 C 536 647.4, 535.1 647, 532.5 647 C 530.1 647, 529 647.5, 529 648.5 C 529 649.3, 528.1 650, 527 650 C 525.9 650, 525 650.5, 525 651.1 C 525 652, 527.7 652.1, 534.7 651.6 C 547.4 650.7, 548.9 650.3, 549.6 647.3 C 550.5 644, 548.5 642, 547.5 645.1 M 564 660.4 C 561.6 661.7, 549.3 666, 538.2 669.4 C 530.5 671.8, 517.8 674.4, 501 677.1 C 496.9 677.7, 492.6 678.9, 491.5 679.7 C 489.6 681, 489.8 681.1, 493 680.6 C 494.9 680.3, 499 679.8, 502 679.5 C 523.7 677.2, 568 664, 568 659.8 C 568 658.7, 566.9 658.8, 564 660.4" stroke="none" fill="#1b1f3a" fill-rule="evenodd"/></svg>