<svg xmlns="http://www.w3.org/2000/svg" viewBox="0 0 768 768" version="1.1" preserveAspectRatio="xMidYMid meet"><path d="M 38 32.2 C 38 70.9, 38 71, 30.4 71 C 23.7 71, 22.9 72.3, 27 76.5 C 30.2 79.8, 30.2 79.9, 29.5 86.9 C 29.1 90.8, 29.1 94, 29.4 94 C 29.7 94, 32.2 92.4, 34.9 90.5 C 40.9 86.2, 40.9 86.2, 47 90.6 C 53.3 95.1, 53.8 94.7, 51.5 86.5 C 49.6 79.2, 49.4 79.5, 56.3 75.3 C 60.3 72.8, 59.7 72, 53.6 72 C 47.4 72, 45.8 70.9, 44 65.3 C 43.3 63.2, 42.3 60.9, 41.7 60.1 C 40.9 59.2, 40.7 49.4, 40.9 29.4 C 41.2 3, 41 0, 39.6 0 C 38.2 0, 38 3.4, 38 32.2 M 77 5.3 C 77 8.1, 76.8 46.5, 76.5 90.5 C 75.9 186.9, 76 186, 65.8 186 C 63.1 186, 59.9 186.5, 58.8 187.1 C 56.9 188.1, 57 188.4, 61.1 192.6 L 65.4 197 63.8 202.2 C 59.7 215.5, 60.1 216.1, 69 210 C 76.3 205.1, 77.2 205.1, 85.6 210 C 93.8 214.8, 94.9 214.1, 91.6 206.5 C 88 198.5, 88.2 196.4, 93 192.3 C 98.4 187.6, 98.3 186, 92.3 186 C 84.7 186, 83.4 185.3, 81.1 180 C 79 175.2, 79 174.1, 79 87.6 C 79 29.9, 78.7 0, 78 0 C 77.5 0, 77 2.4, 77 5.3 M 147 66.4 C 147 149.4, 148.1 144, 131.4 144 C 124.3 144, 124.3 144.6, 131.3 149.4 L 137.5 153.5 137.4 158.8 C 137.3 161.7, 136.7 164.7, 136 165.5 C 133.4 168.6, 136.2 168.9, 140.9 166 C 143.6 164.3, 146 163, 146.4 163 C 146.7 163, 147.1 186.7, 147.2 215.7 C 147.4 250, 147.9 268.5, 148.5 268.7 C 149.2 268.9, 149.4 253.4, 149.3 222.3 C 149.1 196.5, 149.3 172.8, 149.8 169.5 C 150.7 162.5, 152 162.1, 159 166.5 C 164.7 170.1, 165.2 169.7, 163 163.8 C 159.9 155.6, 160.3 152.7, 165 149 C 170.5 144.7, 170.1 144.1, 161.8 143.8 L 154.6 143.5 152.8 138 C 151.3 133, 151.1 126, 151.1 66.3 C 151 0.7, 151 0, 149 0 C 147 0, 147 0.7, 147 66.4 M 192.5 38.8 C 193 84.1, 192.8 79.9, 194 77.9 C 195 76.2, 195.5 29.2, 194.6 28.2 C 194.3 27.9, 194.5 27.1, 195.1 26.4 C 195.8 25.6, 195.8 25, 195 24.5 C 194.4 24.1, 194 19.2, 194 11.9 C 194 5.2, 193.6 0, 193.1 0 C 192.5 0, 192.3 15.2, 192.5 38.8 M 221 5.4 C 221 8.3, 221.4 13, 222 15.8 C 222.9 20.5, 222.2 28, 220.4 34.2 C 220.1 35.2, 218.1 36.5, 215.9 37.1 C 211.4 38.5, 211.4 38.4, 214 41.8 C 215.8 44, 216 45.2, 215.4 50.2 C 214.8 55.9, 216.1 58.4, 217.4 54.2 C 218.5 50.8, 222.7 49.4, 225.8 51.2 C 236.5 57.5, 236.3 57.6, 235.1 50.1 C 234.2 44.2, 235.7 41.6, 241.9 38.9 C 247.2 36.6, 244.5 34.6, 236.7 35 C 230.2 35.4, 229.6 35.2, 228.3 32.3 C 225.7 26.2, 224.4 18.7, 223.1 1.3 C 223 0.6, 222.6 0, 222 0 C 221.5 0, 221 2.4, 221 5.4 M 251 87.4 L 251 174.7 247.9 180.6 C 242.7 190.4, 242.8 190.3, 233.3 189.6 C 228.7 189.3, 225 189.2, 225 189.6 C 225 189.9, 227.8 192.8, 231.1 196 L 237.3 201.8 236.6 207.5 C 236.3 210.7, 235.5 214.1, 234.9 215.2 C 234.3 216.3, 234.1 217.8, 234.4 218.6 C 235 220.2, 234.8 220.3, 244.7 214.5 C 250.6 211.1, 256 210.4, 256 213.1 C 256 213.6, 256.4 214, 257 214 C 257.5 214, 260.1 215.4, 262.7 217 C 265.3 218.7, 267.8 220, 268.2 220 C 269.6 220, 269.1 215.7, 267 209.7 C 264.4 202.4, 264.2 203.3, 270.6 196.2 C 273.7 192.8, 275.8 190, 275.3 189.9 C 274.9 189.8, 271.6 189.8, 268 189.9 C 259.9 190.1, 259.6 189.8, 256.5 181.9 L 253.9 175.5 254 87.8 C 254 10, 253.9 0, 252.5 0 C 251.2 0, 251 10, 251 87.4 M 276.9 15.8 C 276.9 27.6, 276.4 32.7, 275.2 36.5 L 273.5 41.5 267.2 42.5 L 260.9 43.5 264.5 47.5 C 268 51.3, 268.1 51.7, 267.5 56.7 C 266.7 63.4, 267.4 64.6, 270.6 61.7 C 276.9 55.9, 278.1 55.7, 283.5 60.1 C 286.3 62.2, 288.8 64, 289.1 64 C 289.5 64, 289.5 61, 289.3 57.3 C 288.8 50.8, 288.9 50.4, 291.8 47.3 C 295.4 43.6, 295.1 43, 289.4 43 C 281 43, 279.7 39.4, 279.9 17.3 C 280.1 2.2, 279.9 0, 278.6 0 C 277.2 0, 277 2.2, 276.9 15.8 M 319 31.6 C 319 72.3, 318.4 75, 309.9 75 C 303.5 75, 302.4 77, 308.7 77.1 C 318 77.3, 317.7 77.4, 319.5 72.4 L 320.8 68.6 322.6 72.5 C 324.4 76.3, 324.7 76.5, 330 77 L 335.5 77.5 331.3 80.3 C 328.9 81.8, 327 83.2, 327 83.4 C 327 83.6, 327.7 85.3, 328.5 87.3 L 330 90.8 325.9 89.2 C 322.1 87.7, 321.8 87.8, 319 89.8 C 315.1 92.7, 315 92.7, 315 87.6 C 315 82.9, 313.1 80, 310.1 80 C 309.2 80, 308 79.6, 307.5 79.1 C 305.8 77.6, 302 76.8, 302 77.9 C 302 78.5, 304.2 80, 306.9 81.1 L 311.7 83.2 312.4 115.5 C 313.2 149, 312.7 155.5, 309.2 163 L 307.5 166.5 298 167 L 288.5 167.5 292.1 171 C 294 172.9, 297.1 175.6, 298.9 177 L 302.3 179.5 299.6 187.2 C 298.2 191.4, 297 195.1, 297 195.4 C 297 196.3, 300.5 196.1, 301.6 195.1 C 303.3 193.4, 314 188.2, 314.2 188.8 C 314.4 189.2, 314.4 221.4, 314.2 260.4 C 313.9 330.9, 313.9 331.2, 311.9 331.7 C 309.7 332.3, 306.6 338.4, 305.5 344.3 L 304.8 347.7 294.7 348.6 C 288.5 349.2, 284.5 350, 284.3 350.7 C 284 351.4, 287.3 354.3, 291.5 357.2 C 296.9 360.9, 298.9 362.9, 298.4 364 C 296.7 368.2, 293.9 381.3, 294.4 382.6 C 295.1 384.5, 297.7 383.2, 307 376.3 L 313.4 371.4 321.9 378.2 C 329.6 384.4, 333 386.3, 333 384.3 C 333 383.8, 332.1 379.5, 331 374.6 C 328.4 362.7, 328.4 362.7, 333.3 360 C 344.4 353.9, 347.5 349.1, 340.3 348.9 C 338.2 348.8, 335.6 348.7, 334.5 348.6 C 333.4 348.5, 330.4 348.3, 327.8 348.2 C 323.2 348, 323.1 347.9, 322.4 344.4 C 322 342.4, 320.8 338.4, 319.6 335.6 C 317.5 330.6, 317.5 329.2, 317.2 259.3 L 317 188 324.4 192 C 328.4 194.2, 332 195.7, 332.3 195.4 C 332.6 195.1, 331.7 191.5, 330.3 187.4 C 327.2 178.7, 327.2 178.7, 337.6 171.8 C 347 165.7, 346.3 164.7, 333.3 165.1 C 321.2 165.5, 322.7 166.5, 317.6 154.9 C 315.2 149.5, 315.1 148.4, 314.9 122.5 L 314.6 95.8 317.1 93.9 C 320.2 91.5, 324.1 91.5, 329 93.9 C 333.8 96.2, 334.1 95.9, 332.4 91.2 C 330.3 85.2, 330.7 83.8, 335.6 80.2 C 341.4 75.9, 340.4 74.2, 331.7 73.8 L 325.6 73.5 323.9 68.5 C 322.3 64.1, 322.1 59.5, 322 31.8 C 322 4.2, 321.8 0, 320.5 0 C 319.2 0, 319 4.2, 319 31.6 M 362.5 13.3 C 361 41.1, 362.4 55.7, 366.3 53.3 C 366.7 53, 368.3 53.1, 369.7 53.5 L 372.3 54.1 371.7 63.8 L 371.1 73.5 373.3 70.5 C 378.8 63, 379.6 62.8, 384.9 67.5 C 389.1 71.3, 391.7 72.1, 390.5 69.3 C 390.1 68.3, 389.3 64.8, 388.7 61.6 C 387.7 56, 387.8 55.5, 389.8 54.2 C 392.9 52.2, 392.5 51.2, 388.8 50.8 C 385.5 50.5, 384.8 49.6, 382 42.5 L 380.8 39.5 379.3 44 C 377.1 50.4, 376.4 51, 370.4 51 L 365 51 365 25.5 C 365 -2, 363.7 -8.6, 362.5 13.3 M 368 25 C 368 41, 368.4 50, 369 50 C 369.6 50, 370 41, 370 25 C 370 9, 369.6 0, 369 0 C 368.4 0, 368 9, 368 25 M 408 83.8 L 408 167.5 405.9 164 C 404.7 162.1, 403.3 159, 402.8 157.2 C 401.4 152.2, 399.8 153.8, 397.1 162.8 L 394.6 171 384.3 171 C 378.6 171, 374 171.3, 374 171.8 C 374 172.2, 376.9 175.1, 380.5 178.3 C 388.1 185.1, 388.4 186.4, 384 195 C 380.7 201.6, 381.3 202.4, 387.2 199.2 C 389 198.2, 391.7 196.9, 393.2 196.3 L 395.8 195.1 395.4 223.8 C 394.5 288.6, 394.8 285.9, 386.7 296.4 C 383.3 300.8, 383.3 301, 384.2 307.1 C 385.4 314.5, 385.6 314.2, 371.4 323.8 C 363.3 329.3, 360.7 331.8, 357 337.2 C 354.5 340.9, 351.6 344.8, 350.6 345.9 C 348.8 347.9, 348.7 349.6, 348.9 370.3 C 349.3 416, 346.9 572.4, 345.8 573.7 C 345.2 574.4, 343.3 575, 341.5 575 C 336 575, 334.9 577.6, 339 581.3 L 342.5 584.4 342.3 594 C 342 610.6, 347.9 613, 388.4 613 C 423.5 613, 436 610.9, 436 604.8 C 436 603.9, 437.3 601.6, 439 599.7 C 441.7 596.6, 441.8 596.2, 440.3 594.7 C 439.2 593.7, 438.7 591.4, 438.7 588.3 C 438.7 585.7, 438.4 583.1, 438 582.5 C 437.4 581.8, 428.8 581.8, 412.8 582.2 C 381.2 583.2, 345.4 581.9, 341.4 579.6 C 338.5 577.9, 338.5 577.9, 344 578.6 C 353.1 579.6, 435.4 580.6, 436.5 579.6 C 437.2 579.1, 437.1 578.6, 436.3 578.3 C 435.6 578, 435 577.1, 435 576.1 C 435 575.2, 434.3 573.4, 433.4 572.2 C 431.2 569, 430.6 508.4, 431.8 416 C 432.7 347.5, 432.6 344.4, 430.9 342 C 429.9 340.6, 427.8 337.1, 426.3 334.1 C 423.9 329.6, 422.6 328.2, 417.2 325.4 C 401.8 317.2, 399.3 314.4, 402.1 308.5 C 404.7 303, 404.5 301.6, 400.4 294.9 L 396.9 289 396.9 264.8 C 397 251.4, 397.3 229.8, 397.6 216.8 C 398.4 189, 397.8 190, 409.2 198 C 416.6 203.2, 418.7 203.3, 416.9 198.1 C 416.4 196.7, 415.9 193.1, 415.7 190.1 L 415.5 184.7 419.7 182.6 C 424.6 180, 428 177.2, 428 175.4 C 428 174.2, 424.9 173.6, 414.5 172.8 L 411.5 172.5 411.2 86.3 C 411 10.5, 410.8 0, 409.5 0 C 408.2 0, 408 10.1, 408 83.8 M 464 43.3 C 464 88.4, 463.9 89, 459.8 89 C 458.5 89, 458 89.8, 458 92.1 C 458 95.9, 459.6 99, 461.5 99 C 463.2 99, 463.5 97.4, 462 96.5 C 460.6 95.6, 460.7 91.7, 462.2 90.2 C 463.9 88.5, 464.8 88.7, 465.5 91.1 C 466.1 92.8, 466.4 93, 467.1 91.9 C 467.8 90.8, 467.6 94, 466.6 98 C 466.1 100.1, 468.9 98.7, 470.8 96 C 473.7 91.7, 473.6 91.1, 470 89.9 L 467 88.8 467 65.4 C 467 51.1, 467.4 42, 468 42 C 468.5 42, 471.3 44, 474.2 46.3 L 479.5 50.7 479.2 56 C 479 58.9, 478.5 62.1, 477.9 63.2 C 475.9 67, 478.3 66.9, 483.7 63 C 490.6 58.1, 490 58.1, 497.1 63 C 504.1 67.8, 505.5 68, 504.6 64.3 C 504.2 62.7, 503.7 59.3, 503.4 56.5 L 502.8 51.5 507.9 47.7 C 510.7 45.7, 513 43.5, 513 43 C 513 42.5, 509.5 42, 505.3 41.8 C 496.6 41.5, 496 41, 493.5 31.1 C 491.8 24.6, 490.6 25, 487.5 33.5 C 484.4 42, 483.3 42.7, 475.2 41.6 C 466.2 40.3, 467 42.3, 467 19.9 C 467 2.9, 466.8 0, 465.5 0 C 464.2 0, 464 5.5, 464 43.3 M 527 81.1 C 527 165.9, 527 165.3, 522.8 176.3 L 521.8 179 511.4 179 C 505.1 179, 500.9 179.4, 500.4 180.1 C 499.7 181.3, 506.7 188.9, 511.8 192.3 C 514.2 193.9, 515 195.1, 514.6 196.5 C 514.4 197.6, 513.2 202.1, 512.1 206.5 C 509.5 216.1, 509.8 217.7, 513.7 215.7 C 520.9 212, 520.6 211.2, 519.9 228.8 C 519.5 237.4, 519.2 259, 519.1 276.7 C 519 307.1, 518.9 308.9, 517.1 309.5 C 512.2 311, 509.7 327, 514.5 326.2 C 523.4 324.7, 524.2 324.9, 525.4 328.6 C 526 330.4, 525.7 330.7, 523.6 330.3 C 522.3 330, 520.9 330.3, 520.6 330.9 C 519.7 332.2, 518 332.4, 518 331.1 C 518 330.6, 519.4 329.8, 521.1 329.5 C 523.1 329, 523.8 328.5, 523.1 328 C 521.7 327.2, 517.2 327.9, 516.5 329.1 C 516.2 329.5, 515.4 329.7, 514.6 329.4 C 512.9 328.8, 508.2 335.7, 506.6 341.2 C 505.4 345.3, 504.9 345.7, 496.9 349.6 C 487.7 354.1, 487.2 354.5, 484.5 360.8 C 483 364.2, 482.9 365.4, 483.9 367.3 C 485 369.5, 484.9 437.4, 483.6 470.5 C 483.3 477.7, 482.8 503.2, 482.4 527.3 C 481.8 570.3, 481.7 571.2, 479.6 573.2 L 477.5 575.3 483.9 574.6 C 487.4 574.3, 493.9 574, 498.4 574 C 504 574, 506 573.7, 505 573 C 504.2 572.5, 501.5 572, 499.1 572 C 495.6 572, 494.9 571.7, 495.4 570.4 C 495.7 569.5, 496 568.5, 496 568 C 496 567.6, 498.1 566.2, 500.8 564.9 C 503.4 563.7, 506.2 562.1, 507 561.5 C 510.5 558.6, 519 554.9, 520.8 555.4 C 521.8 555.8, 526 558.5, 530 561.5 C 539.1 568.3, 540.2 568.5, 533.7 562 C 531 559.3, 528.5 557, 528.3 557 C 528.1 557, 526.2 555.9, 524 554.5 C 518.8 551.2, 518.1 551.3, 510.6 556 C 507.1 558.2, 503.9 560, 503.4 560 C 502.9 560, 501.7 560.8, 500.8 561.8 C 498.2 564.5, 496.2 566, 495.1 566 C 494.6 566, 493.2 567.4, 492 569 C 490.6 570.9, 489 572, 487.4 572 L 485 572 485 553.8 L 485 535.6 488.6 539.1 C 493.6 543.8, 500 552.6, 500 554.7 C 500 556, 500.3 556.1, 501.1 555.3 C 503 553.4, 499.8 547.9, 492 539.5 C 488.1 535.4, 485 531.6, 485 531.1 C 485 530.4, 493.9 526, 495.5 526 C 496.8 526, 511.5 514.6, 514.7 511.1 L 518 507.5 519.6 509.8 C 523.5 515.4, 539.9 527.3, 546.9 529.5 C 549.9 530.4, 549.6 531.1, 544.3 535.2 C 538.2 539.9, 530.2 548, 531.7 548 C 532.4 548, 533.3 547.4, 533.7 546.6 C 534.5 545.2, 547.9 535, 548.9 535 C 549.8 535, 549.6 570.7, 548.7 571.6 C 548.3 572, 547.9 566.1, 547.9 558.4 L 547.7 544.5 546.8 557 C 545.8 570.6, 545.1 572, 539.6 572 C 532.3 572, 538.7 573.1, 548.5 573.5 C 559.4 573.9, 560.6 574.2, 559.7 575.8 C 558.7 577.4, 509.9 578.2, 485 577 C 472.1 576.4, 470 578, 481.5 579.7 C 490 580.9, 533.8 581.2, 552 580.1 L 562.5 579.5 562.8 576.6 C 563.2 573.1, 561.8 572, 556.7 572 L 552.9 572 553.1 549.8 C 553.2 533.8, 552.9 527.5, 552.1 527.2 C 551.3 526.9, 550.9 522, 551 510.7 C 551 501.8, 550.8 465.5, 550.4 430 L 549.8 365.5 546.8 360.6 C 543.4 355, 542.9 354.5, 537.5 350.5 C 531.5 346.1, 531.1 345.4, 532.3 341.5 C 533.1 338.7, 532.9 337.5, 531.1 334 C 529.9 331.7, 528.3 327.1, 527.5 323.7 C 525.8 316.6, 523 312.9, 520.6 315 C 518.8 316.4, 518.4 320, 520 320 C 520.6 320, 521 319.3, 521 318.5 C 521 316.1, 523 316.8, 524 319.6 C 524.6 321, 525 322.3, 525 322.6 C 525 322.8, 522.8 323, 520 323 L 515 323 515.2 318.5 C 515.5 313.1, 517.7 312, 524.4 313.8 L 528.5 314.8 524.8 311.6 L 521.1 308.4 522.1 259.5 L 523.1 210.5 525.8 208.3 C 529.6 205.1, 530.4 205.3, 539.6 211.5 C 551.4 219.4, 551.6 219.3, 547.2 203 L 545.2 195.5 553.1 188.2 C 557.4 184.1, 561 180.4, 561 179.9 C 561 179.4, 555.9 179, 549.7 179 L 538.3 179 537 174.8 C 535.3 169.4, 532.1 161.9, 530.7 160.2 C 530.1 159.4, 529.8 132.1, 529.9 79.5 C 530 9.1, 529.9 -0, 528.5 -0 C 527.2 -0, 527 9.3, 527 81.1 M 576.4 75.3 C 576.7 116.6, 577 190.8, 577 240 C 577 289.2, 577.1 331.8, 577.1 334.5 C 577.2 337.3, 577.3 353.9, 577.4 371.5 C 577.5 408.8, 577.1 411.2, 570 414.4 C 564.1 417, 564.3 420.5, 570.6 422.1 C 578.4 424.1, 577.9 419.2, 578.5 498.8 L 579.1 570 576.5 571 C 575 571.6, 574 572.7, 574 573.9 C 574 575, 573.7 576.5, 573.4 577.3 C 573.1 578.1, 573.6 579.5, 574.5 580.4 C 576.1 581.9, 575.9 582.5, 572.6 589 C 569.1 595.6, 568.1 601.4, 569.6 605.4 C 572.2 612.1, 635.6 615.6, 661.6 610.4 C 665.1 609.7, 666.5 604.9, 664.3 601 C 659.9 593.2, 659.1 591.4, 659 589.3 C 659 588.1, 658.6 586, 658.1 584.7 C 657.4 582.8, 657.6 581.2, 659.1 578.3 C 661.1 574.4, 660.5 572.7, 656.2 570.8 C 655.8 570.6, 655.7 539.3, 655.8 501.2 L 656.2 431.9 658.7 429.6 C 660.3 428.1, 661.1 426.6, 660.7 425.6 C 660.1 424.2, 661.1 423.5, 663.3 423.9 C 664.7 424.1, 668 422, 668 420.8 C 668 420.1, 666.6 418.2, 665 416.5 L 662 413.4 661.8 377.3 L 661.6 341.3 664.4 338.9 C 667.9 335.8, 667.2 334.2, 661 330.7 C 656.5 328.2, 656.1 327.6, 655.4 323.2 C 654.6 317.9, 651.1 310.2, 648.3 308 C 647.3 307.2, 644.4 304.9, 641.8 303 C 639 301, 636.9 298.4, 636.5 296.9 C 635.9 294.1, 637.6 285.3, 639.3 283.2 C 640.9 281.2, 640.9 -0, 639.3 -0 C 638.3 -0, 638 26.2, 638 127.7 L 638 255.4 631.2 248.7 C 627.5 245, 623.9 242, 623.3 242 C 621.8 242, 620 236.6, 620 232.1 C 620 227.8, 623 222.4, 626 221.5 C 628.4 220.7, 628.2 218.7, 625.6 218.2 C 623.1 217.7, 619.2 221.7, 617.9 226.1 C 616.7 230.1, 617.5 240.6, 619.1 241.6 C 620.4 242.4, 619.2 244, 616.5 245 C 610.9 247.1, 602.2 265.5, 603.3 272.7 C 604.3 278.5, 608 285.1, 611.6 287.2 C 613.9 288.5, 614.7 289.6, 614.3 290.7 C 613.8 292.1, 614.2 292.2, 617 291.7 C 618.8 291.3, 622 291, 624.2 291 C 626.9 291, 627.9 290.6, 627.4 289.8 C 627 289.1, 627.1 289, 627.8 289.4 C 630.7 291.2, 628.9 292.9, 623.8 293.3 L 618.5 293.6 623.8 293.8 C 626.9 293.9, 629 294.5, 629 295.1 C 629 296, 626.8 296.1, 621.5 295.7 C 615 295.2, 614 295.4, 613.8 296.8 C 613.8 297.7, 613.4 296.3, 613.1 293.5 C 612.7 290, 612.1 288.5, 611 288.5 C 609.4 288.5, 609.2 290.5, 610.4 295.5 C 611 298.3, 610.7 298.7, 605.8 301.4 C 599.8 304.8, 589.2 315.1, 584 322.5 L 580.5 327.5 579.9 179 C 579.1 -16.9, 579.3 0, 577.4 -0 C 575.9 -0, 575.8 6.1, 576.4 75.3 M 606 18.9 L 606 37.9 602.8 40.4 C 599.8 42.7, 599.7 43, 601.2 44.7 C 602 45.7, 603.4 48.2, 604.1 50.3 C 605.4 53.9, 607.2 55, 608.5 53 C 608.9 52.4, 609.5 52.2, 610 52.5 C 610.4 52.8, 611.3 51.7, 611.8 50.1 C 612.7 47.7, 613.3 47.3, 615.1 47.7 C 617 48.2, 617.2 48, 616.8 46.2 C 616.3 44.5, 616.6 44, 618.1 44 C 620.4 44, 620.6 42.4, 618.4 41.6 C 615.3 40.4, 613 41, 613 42.9 C 613 44.8, 609.4 50, 608.1 50 C 607.2 50, 604 44.6, 604 43 C 604 42.3, 605.3 40.6, 606.9 39.1 L 609.7 36.4 608.9 28 C 608.5 23.3, 608.1 15.1, 608.1 9.8 C 608 4, 607.6 0, 607 0 C 606.4 0, 606 7, 606 18.9 M 680.8 15.8 L 680.5 31.5 677.1 37 C 675.2 40, 673.6 42.6, 673.5 42.8 C 673.4 42.9, 670.7 42.1, 667.6 41 C 661.3 38.6, 660 38.9, 660 43 C 660 44.6, 659.3 46, 658.4 46.4 C 656.2 47.3, 657.5 48.7, 662.6 51.1 C 667.6 53.3, 667.7 53.8, 664.3 63.8 C 662.4 69.6, 662.9 69.9, 670 66.2 C 677.5 62.2, 677.8 62.3, 682.3 66.3 L 685.9 69.5 686.2 126.3 L 686.5 183 678.8 183 C 667.1 183, 665.3 184.5, 671.3 189.5 C 673 191, 676 193.6, 677.9 195.2 L 681.3 198.2 678.2 207.5 C 673.5 221.1, 673.7 221.3, 686.8 213.4 C 695.7 208, 696.1 208, 703.4 213.5 C 713.4 221.1, 714.3 220, 709.5 205.9 L 707.3 199.2 713.7 193.2 C 721.9 185.4, 721.6 184.5, 711.2 184.5 C 706.8 184.5, 702.8 184.2, 702.5 183.8 C 702.1 183.5, 701 179.7, 699.9 175.3 C 697 164.1, 697.3 49.4, 700.3 47.6 C 702.6 46.2, 702.5 45, 700 45 C 698.1 45, 698 44.3, 698 22.5 C 698 10.1, 697.6 0, 697.2 0 C 696.1 0, 694.8 31.9, 695.6 38.8 L 696.3 44 690.8 44 L 685.2 44 684.6 35.8 C 684.3 31.2, 683.8 21.3, 683.4 13.8 C 683 6.2, 682.4 0, 681.9 0 C 681.5 0, 681 7.1, 680.8 15.8 M 725.8 38.3 L 725.5 76.7 722.8 80.2 C 720.5 83.2, 719.3 83.9, 714.8 84.4 C 706.7 85.4, 706.4 86.1, 712.3 90.1 C 716.6 93, 717.6 94.2, 717.8 96.9 L 718.1 100.3 719.6 97.5 C 721.3 94.2, 719.7 90.7, 716 89.5 C 713.2 88.6, 713.5 87.1, 716.8 86.4 C 721.4 85.4, 723.4 84.1, 725.4 80.7 L 727.3 77.5 728.4 80.9 C 730 85.5, 732.3 86.9, 737.3 86.3 C 741.8 85.7, 741.8 86, 735.8 90.4 C 731 93.9, 731 95.9, 736.1 105.2 C 739.2 111, 734.3 108, 729.8 101.4 C 727.1 97.4, 725.1 97.2, 720.8 100.3 C 718.4 102, 717.6 102.2, 717.2 101.1 C 717 100.3, 716 101.4, 715 103.6 C 712.8 108.6, 714.1 110.2, 717.7 106.8 C 724.8 100.4, 724.5 100.4, 732.1 108.1 C 738.6 114.7, 743.1 117.2, 741.5 113.3 C 741.1 112.3, 740.4 110.2, 739.9 108.5 C 739.4 106.9, 738.3 104, 737.4 102.2 C 734.5 96.1, 735 93.9, 740 90.5 C 746.2 86.4, 746 85.7, 738.8 84.5 C 728 82.8, 728.2 83.4, 728.1 37.8 C 728 14.2, 727.6 0, 727 0 C 726.4 0, 726 14.5, 725.8 38.3 M 223.1 33.4 C 222.2 37.1, 221.3 38.4, 219 39.3 C 216.8 40.3, 216.3 40.9, 217 42 C 217.6 42.8, 218 45, 218 46.9 C 218 50.2, 218.1 50.3, 219.9 48.6 C 222.1 46.6, 224.8 47.1, 229.2 50.1 C 232.5 52.5, 233.3 52.5, 232 50.1 C 229.8 46, 230.8 42.4, 234.6 40.4 L 238.1 38.5 232.9 38 C 227.9 37.5, 227.7 37.4, 226 33.1 L 224.3 28.7 223.1 33.4 M 109.1 34.9 C 108.5 36, 108 37.5, 108 38.4 C 108 41, 105 43, 101 43 C 95.6 43, 95.4 44.2, 100 47.9 C 104.1 51.2, 105 54.2, 103 58 C 101.2 61.3, 104 61.4, 107.4 58.1 C 111.3 54.3, 111.4 54.3, 115.7 58.1 C 118.9 60.9, 121.7 61.5, 121.4 59.4 C 121.3 58.9, 121 56.6, 120.6 54.4 C 120.1 50.8, 120.4 49.9, 122.5 47.9 C 125.5 45, 125.6 44, 123 44 C 119.4 44, 116.4 41.9, 114.5 37.8 C 112.1 33, 110.6 32.1, 109.1 34.9 M 490 35 C 490 37.8, 484.9 43.9, 482 44.5 C 479.4 45.1, 477.7 46.9, 479.8 47 C 482.2 47.1, 484.1 52.1, 483 55.6 C 481.4 60.3, 482 60.6, 486.8 57.9 L 490.8 55.5 495.5 58.9 C 498 60.7, 500.3 62, 500.5 61.8 C 500.9 61.4, 499.6 55.5, 498.5 52.8 C 498 51.6, 499 50.5, 502.7 48.3 L 507.5 45.5 501.8 45 C 498.7 44.7, 496 44.3, 495.7 44 C 494.7 42.8, 492 36.6, 492 35.3 C 492 34.6, 491.6 34, 491 34 C 490.5 34, 490 34.5, 490 35 M 678.5 39.7 C 675.5 45.2, 672.5 47, 666.3 47 C 660.3 47, 660 48.2, 665.6 50.5 C 670 52.3, 670.5 53.8, 668.5 59.5 C 666.5 65.5, 666.7 65.6, 671.5 61.4 C 676.5 57.1, 676.5 57.1, 681.7 62.2 L 686 66.4 686 60 L 686 53.5 690.8 50.5 L 695.5 47.5 690 47.2 C 683.7 46.9, 682 45.4, 682 40.4 C 682 35.8, 680.7 35.5, 678.5 39.7 M 276.6 39.3 C 275.7 43.1, 272.5 46, 269.3 46 L 266.5 46 269.4 48.3 C 272 50.4, 272.1 50.8, 271.2 54.3 C 270 58.5, 270.5 58.8, 274 56 C 277.3 53.4, 278.7 53.5, 282.6 56.5 C 287 59.9, 287.3 59.7, 286.5 54.4 C 286 50.8, 286.2 49.4, 287.6 47.9 C 289.2 46.1, 289.2 46, 286.3 46 C 283.1 46, 280.2 43.5, 278.4 39.2 L 277.3 36.5 276.6 39.3 M 109.7 40.9 C 109.2 43, 108.2 44.1, 105.4 45.2 C 101.9 46.6, 101.8 46.8, 103.8 47.4 C 106.1 48.2, 106.3 48.7, 106 53.3 L 105.8 56.2 108 54 C 110.3 51.7, 113.1 52, 116.3 54.8 C 118.2 56.5, 120 55.6, 118.2 53.8 C 116.5 52.1, 116.7 48, 118.5 47.4 C 120.9 46.4, 120.2 45.2, 117.3 44.8 C 115.3 44.6, 114.1 43.6, 113.1 41.3 C 111.3 37.2, 110.4 37.1, 109.7 40.9 M 380.4 50.5 C 380.8 51.5, 380.3 52, 379 52 C 376.6 52, 374 56.7, 374 61 C 374 63.9, 375.3 65, 376.5 63 C 377.5 61.4, 382.2 61.8, 384.2 63.7 C 387.1 66.3, 386.8 55.3, 383.9 51.6 C 381.7 48.8, 379.4 48.1, 380.4 50.5 M 695 50.8 C 695 51.2, 693.6 52.3, 692 53.2 L 689 54.9 689 116.2 L 689 177.5 691.2 174 C 692.4 172.1, 694 170.2, 694.6 169.8 C 695.7 169.1, 696.5 50, 695.4 50 C 695.2 50, 695 50.3, 695 50.8 M 38.9 70.3 C 37.5 73.1, 36.7 73.5, 33 73.8 L 28.7 74.1 31.6 77.1 C 34.2 79.8, 34.3 80.3, 33.2 83.3 C 31.2 88.7, 31.8 89.1, 36.5 85.8 L 41 82.6 45.5 85.8 C 49.9 88.9, 49.9 88.9, 49 86.4 C 47.3 81.9, 47.8 77.2, 50 76.5 C 53.3 75.4, 52.2 74, 48.1 74 C 44.5 74, 44 73.7, 42.9 70.5 C 41.3 66.2, 40.9 66.2, 38.9 70.3 M 608 74.4 C 610 77, 608.8 80.5, 605.8 80.8 C 602.8 81.2, 602.5 80.5, 604 76.6 C 604.9 74.3, 604.7 74, 602.5 74 C 600.3 74, 600.1 74.3, 600.2 80 C 600.3 86.2, 600.9 87.1, 603 84.5 C 604.4 82.8, 607.7 82.6, 610 83.9 C 612.1 85.3, 613.2 84.2, 612 82 C 611.2 80.6, 611.3 79.5, 612.2 78 C 613.3 76.2, 613.2 75.7, 611.6 74.4 C 608.9 72.5, 606.3 72.5, 608 74.4 M 193.9 84.1 C 193.3 85.3, 192.3 88.1, 191.6 90.4 L 190.4 94.5 181.7 94.8 C 171.2 95.1, 170.7 96.1, 178.5 101.9 C 184.6 106.5, 184.3 105.3, 181.5 116.2 C 179.7 123.5, 181.3 123.9, 189.7 118.1 C 196 113.6, 196 113.6, 203.9 119.7 C 206.3 121.5, 208.9 123, 209.6 123 C 211.2 123, 211.5 120.9, 210.1 119.5 C 209.3 118.6, 207.4 111.5, 206.7 107.2 C 206.6 106.4, 209.2 103.9, 212.4 101.6 C 220.9 95.6, 220.8 95, 210.7 95 L 202.2 95 200.9 91.3 C 199.5 86.8, 196.9 82, 195.8 82 C 195.4 82, 194.6 83, 193.9 84.1 M 275.4 85.8 C 274.1 90.7, 272 93, 268.6 93 C 260.8 93, 258.8 95.6, 264 98.7 C 266.9 100.4, 267.4 101.7, 267 107.2 C 266.7 111.6, 267.8 112.1, 271.2 108.9 C 275.2 105.3, 274.8 105.3, 281.6 109.1 L 287.1 112.3 286.5 106.3 C 285.8 100.6, 285.9 100.2, 288.6 97.6 C 290.2 96.2, 292.1 95, 292.9 95 C 297 95, 291.8 93.1, 287.1 92.8 C 281.8 92.5, 281.6 92.4, 280.7 89 C 279.1 82.7, 276.5 81.1, 275.4 85.8 M 194.7 87.7 C 194.3 88, 194 89.3, 194 90.4 C 193.9 95.8, 191.9 97.5, 184.6 98 L 177.7 98.5 182.9 101.8 C 185.7 103.6, 188 105.2, 188 105.4 C 188 105.5, 187.1 108.1, 186 111.3 C 183.4 118.7, 183.5 119.6, 186.7 116.6 C 193 110.7, 195.2 110.3, 200.4 114 C 206 118.1, 206.6 117.7, 204.6 110.9 C 202.8 105, 203.5 103.4, 209.5 100.2 L 212.5 98.6 210 98 C 208.6 97.6, 206 97.5, 204.2 97.8 C 200.3 98.4, 199.5 97.5, 197.9 91.3 C 196.8 87.1, 196 86.3, 194.7 87.7 M 276 90.1 C 274.3 94.4, 273.4 95, 268.7 95 L 264.8 95 267.9 97.6 C 269.8 99.1, 271 101.1, 271 102.6 C 271 104.7, 271.3 104.9, 273.9 104.4 C 276 103.9, 278 104.4, 280.6 106.1 L 284.3 108.4 283.6 105.9 C 281.7 99.6, 281.7 99.3, 285 97.4 L 288.2 95.5 284.4 95 C 280.8 94.5, 280.1 93.9, 278.3 89.1 C 277.4 86.7, 277.4 86.7, 276 90.1 M 480.8 98.6 C 475.2 106.2, 474.6 110.5, 478.2 117.6 C 481.9 125, 483.5 122.8, 480 115.2 C 477.6 109.8, 478 107.7, 483.1 100 C 489.8 90, 487.9 88.8, 480.8 98.6 M 37 123.3 C 37 138.9, 36.7 155.1, 36.4 159.3 C 35.8 166, 35.9 167, 37.4 167 C 38.9 167, 39 163.8, 39 131.6 C 39 109, 38.6 95.9, 38 95.5 C 37.3 95.1, 37 104.6, 37 123.3 M 356.5 100.3 C 352.5 113.2, 351.9 113.7, 342.3 113.9 C 339.5 114, 336.9 114.4, 336.6 114.8 C 336 115.8, 340 119.8, 344.3 122.5 C 347.1 124.3, 347.7 126.8, 346.1 129.8 C 345.6 130.7, 344.9 133.4, 344.5 135.8 C 343.6 141.4, 345.7 141.4, 353 136 C 359.5 131.2, 358.5 131.2, 365.6 136 C 374.3 141.9, 375 141.6, 372.5 133.4 C 370.2 125.9, 370.5 124.8, 375.3 121.8 C 385.5 115.3, 385.1 113, 373.7 113 L 365.5 113 362.2 106 C 359 99.3, 357.4 97.6, 356.5 100.3 M 497.7 104.8 C 496.2 106.3, 495 108.2, 495 109 C 495 109.7, 494.4 111.1, 493.6 111.9 C 491.9 113.9, 490.7 119, 491.9 119 C 492.4 119, 493.8 117.8, 494.9 116.4 C 497 113.8, 497 113.8, 501 115.4 C 506.3 117.5, 506.3 117.5, 505.5 114 C 505 111.6, 505.3 110.6, 507.2 109 L 509.5 107.1 507.3 107 C 506 107, 504.3 105.9, 503.4 104.5 C 501.3 101.4, 501 101.4, 497.7 104.8 M 358 105.4 C 358 106.2, 357.1 108.9, 356.1 111.4 L 354.1 115.9 347.3 116.2 L 340.5 116.5 345 119.4 C 350.9 123.2, 351 123.3, 349.3 129.7 C 348.5 132.7, 348 135.4, 348.3 135.6 C 348.5 135.8, 351 134.2, 353.9 132 L 359.1 128.1 364 131.5 C 366.8 133.4, 369.1 135, 369.3 135 C 369.5 135, 369.2 132.5, 368.6 129.3 C 367.7 123.9, 367.7 123.6, 370 122.1 C 371.3 121.2, 373.6 119.5, 375 118.3 L 377.5 116.1 370.2 116 L 363 116 362.3 113 C 362 111.3, 361.4 109.7, 360.9 109.4 C 360.4 109.1, 360 108, 360 107 C 360 106, 359.6 104.8, 359 104.5 C 358.5 104.2, 358 104.5, 358 105.4 M 463 115.5 C 462.3 116.8, 461.3 117.7, 460.9 117.4 C 460.5 117.2, 460.2 117.8, 460.2 118.7 C 460.2 119.7, 460.1 121, 459.9 121.5 C 459 123.7, 461.6 123.1, 462.7 120.9 C 463.7 118.9, 464 122.6, 464 141.6 C 464 154.3, 463.7 165, 463.3 165.4 C 462.8 165.8, 461.6 168.9, 460.5 172.3 L 458.5 178.5 453.6 178.8 C 451 179, 447.4 178.6, 445.7 178 C 440 176.1, 440.3 178.5, 446.5 184.5 C 452.8 190.7, 452.7 190.5, 449.9 201.3 C 448.1 208.2, 449.4 208.6, 457 203.5 C 465.1 198, 465.9 198, 474.3 203.6 C 478 206.1, 481.4 207.9, 481.7 207.6 C 482 207.3, 481.3 203.8, 480.1 199.8 C 477.2 189.9, 477.3 189.6, 483 183.6 C 485.8 180.7, 488 178.1, 488 177.8 C 488 177.5, 484.3 177.3, 479.9 177.4 L 471.7 177.5 469.5 171.4 C 465.9 161.4, 464.9 115.5, 468.3 118.9 C 470.1 120.7, 471.1 120.1, 470 118.1 C 467.3 112.9, 464.9 112, 463 115.5 M 609.4 125.8 C 608.8 126.2, 607.5 128.9, 606.5 131.9 C 603.9 139.9, 602.3 141, 594 141 C 590.2 141, 587 141.3, 587 141.8 C 587 142.2, 589.7 145, 593.1 148 L 599.2 153.6 597.6 159 C 594.9 168.1, 595.4 168.6, 603.4 164.4 C 609.2 161.3, 612 161.6, 619.3 166.1 C 625.3 169.8, 625.9 169.4, 623.7 163.2 C 620.6 154.6, 621.1 152.8, 628.5 147.3 C 632.1 144.7, 635 142.2, 635 141.8 C 635 141.3, 631 141, 626.1 141 C 616.2 141, 615.1 140.3, 613.5 133 C 612.5 128, 610.7 125, 609.4 125.8 M 433.9 132.8 C 433.7 137.2, 430.5 140.5, 425.9 140.8 C 421.8 141.1, 417.6 143, 421.1 143 C 424.6 143, 426.3 146.6, 425.6 152.6 L 425 158.2 428.7 155.1 C 433.4 151.3, 434.7 151.2, 439 155 C 443.7 159, 443.9 158.9, 443.3 152 L 442.7 146.1 446.4 144.4 C 451.2 142, 451 141.3, 445 140.8 C 439.3 140.2, 437.1 138.2, 437 133.8 C 437 130.7, 434.1 129.8, 433.9 132.8 M 608.7 135.6 C 606 142.1, 604.6 143.2, 598.4 143.9 L 592.8 144.5 597.5 147.9 C 602.5 151.5, 602.7 152.3, 600.4 160.8 L 599.7 163.1 603.4 161.1 C 607.8 158.6, 611.6 158.4, 615.9 160.6 C 619.8 162.5, 620.7 161.9, 619.2 158.5 C 618.5 157.1, 618 155.1, 618 154.1 C 618 152.2, 624.2 146, 626.1 146 C 626.7 146, 626.9 145.6, 626.6 145.2 C 626.3 144.7, 624.7 144.5, 623 144.8 C 621.3 145, 618.7 144.7, 617.1 144 C 614.1 142.8, 613.9 142.5, 611.7 135.6 L 610.4 131.6 608.7 135.6 M 147.1 141.4 L 145.9 145.8 140.1 146.4 C 132.6 147.3, 132.2 147.8, 137.1 150.3 C 141.8 152.6, 142.7 154.2, 141.2 157.3 C 137.8 164.2, 138.8 165.5, 144 161 C 145.9 159.4, 148.1 158.1, 148.8 158 C 150.1 158, 156 161.8, 157.2 163.5 C 158.7 165.6, 159.2 162.8, 158 157.9 L 156.7 152.7 160.6 149.3 L 164.5 145.9 158.6 146.2 L 152.6 146.5 151.1 141.8 C 149.1 135.9, 148.8 135.9, 147.1 141.4 M 433.6 139.5 C 433.2 140.9, 431.8 142.6, 430.4 143.2 C 428.5 144.1, 428 144.9, 428.4 146.4 C 428.7 147.6, 429 149.4, 429 150.5 C 429 152, 429.3 152.1, 430.2 151.2 C 431.7 149.7, 436.6 149.6, 437.5 151 C 438.7 153, 439.7 151.9, 440.3 148 C 440.7 144.6, 440.4 143.5, 438.4 141.5 C 437.1 140.2, 436 138.6, 436 138 C 436 136, 434.2 137.1, 433.6 139.5 M 195.1 149.5 L 192.8 156 184.1 156 C 171.7 156, 171.2 157.6, 181.4 163.7 C 184.7 165.7, 187.6 167.4, 187.8 167.5 C 187.9 167.6, 187.1 171.4, 185.9 175.9 C 184.7 180.3, 184 184.3, 184.4 184.7 C 185.3 185.7, 191.2 182.6, 195.3 179.1 C 199.6 175.3, 198.8 175.2, 206.8 180.5 C 213 184.7, 217 186.1, 217 184.2 C 217 183.8, 215.9 180.1, 214.6 176 C 213.2 171.9, 212.4 168.2, 212.8 167.8 C 213.2 167.5, 216.3 164.9, 219.7 162.2 C 223.1 159.5, 225.6 157, 225.3 156.6 C 225 156.3, 220.8 156, 216.1 156 C 205.9 156, 206.1 156.1, 202.7 148.8 C 199.3 141.4, 197.9 141.5, 195.1 149.5 M 197.6 151.2 C 196.7 153.3, 196 155.6, 196 156.3 C 196 159.2, 193.2 160.3, 187.5 159.5 C 180.8 158.7, 180.5 159.9, 186.4 162.8 C 192 165.6, 192.2 166.4, 189.9 173.4 C 187.4 180.7, 187.8 181.1, 193.3 176.6 C 198.7 172.2, 199.1 172.2, 206 176.5 C 209 178.3, 211.6 179.7, 211.8 179.5 C 212 179.3, 211.3 176.6, 210.1 173.6 C 207.6 166.9, 207.8 166.3, 213.8 162.5 L 218.5 159.5 211.3 159 C 207.4 158.7, 204 158.3, 203.8 158 C 203.3 157.4, 200.4 151.1, 199.7 149 C 199.4 148, 198.7 148.8, 197.6 151.2 M 313.6 159.2 C 311.8 168, 310.2 169.5, 302 170 L 294.5 170.5 299.8 173.9 C 305.3 177.4, 305.8 178.8, 303.9 183.7 C 303.3 185.2, 302.4 187.7, 302 189.3 L 301.1 192 305.3 189.5 C 315.1 183.4, 314.8 183.4, 321.5 187.4 C 324.7 189.4, 327.7 191, 328.2 191 C 329.3 191, 329.2 189.6, 328.1 188.5 C 327.4 187.7, 325 179.3, 325 177.7 C 325 177.4, 327.7 175.5, 331.1 173.4 L 337.2 169.5 329.1 169.2 L 321 168.9 319 165 C 317.9 162.8, 317 160.4, 317 159.7 C 317 158.9, 316.4 157.7, 315.6 157.1 C 314.5 156.2, 314.1 156.6, 313.6 159.2 M 398.5 167.4 C 396.1 174.6, 394 175.6, 385.5 174.4 C 381.9 173.8, 379 173.5, 379 173.7 C 379 173.8, 381.5 175.8, 384.5 178.1 C 390.9 182.9, 391.6 184.4, 389.5 189.3 C 386.7 196, 387.5 196.4, 394.5 191.9 C 400.2 188.3, 401.3 188, 402.8 189.1 C 403.7 189.9, 406.7 192.2, 409.3 194.3 L 414.1 198.2 413.4 193.9 C 413.1 191.5, 412.4 188.3, 412 186.8 C 411 183.7, 410.7 184, 419.4 179.6 L 425.5 176.5 420 176.3 C 409 175.8, 408.7 175.6, 404.9 168.5 C 403 164.9, 401.2 162, 400.9 162 C 400.6 162, 399.5 164.4, 398.5 167.4 M 528.2 171.2 C 527.5 173.5, 526.3 176.8, 525.5 178.7 L 524.1 182 514.4 182 C 503.3 182, 503.2 182.7, 513.1 189.1 C 518.8 192.7, 519 193.7, 516 203.1 C 512.9 212.6, 513.5 212.9, 522.2 206.6 L 529.9 201.1 538 206.5 L 546.1 211.9 545.4 208.2 C 545 206.2, 544.4 203.8, 544 203 C 543.6 202.2, 542.9 199.7, 542.6 197.5 C 541.9 193.4, 541.9 193.4, 548.6 188 L 555.4 182.5 546.5 182.2 C 536 181.9, 535.8 181.8, 532.9 173.5 C 530.2 165.8, 529.9 165.7, 528.2 171.2 M 464 171.1 C 464 171.7, 463 174.4, 461.8 177.2 L 459.7 182.2 453.1 181.8 L 446.6 181.4 449.5 183.4 C 457.1 189, 456.7 188, 454.7 195.3 C 452.5 203.8, 452.5 203.7, 456.3 200.8 C 458 199.4, 461 197.5, 462.9 196.6 L 466.3 194.8 471.3 198.4 C 477.5 202.6, 477.7 202.5, 475.6 196.1 C 473.4 189.1, 473.5 188.6, 478.3 184.6 L 482.5 181 476.4 181 C 469.8 181, 469 180.2, 466.5 172.3 C 465.9 170, 464 169.1, 464 171.1 M 693.1 178.1 C 689.6 186.8, 690.1 186.5, 681.2 187 L 673 187.5 679.1 192.4 C 683.2 195.6, 685 197.7, 684.7 198.9 C 684.5 199.8, 683.1 203.6, 681.7 207.3 C 680.2 211.1, 679.6 213.8, 680.3 213.3 C 681 212.9, 684.3 210.7, 687.7 208.3 C 695.3 203.1, 694.4 203, 701.4 208.5 C 708.2 213.7, 709.2 214, 708 210.3 C 707.5 208.7, 706.4 205.3, 705.6 202.7 C 704.7 200.1, 704 197.8, 704 197.6 C 704 197.5, 706.8 195.1, 710.3 192.4 L 716.5 187.5 708.1 187 L 699.6 186.5 697.5 179.6 L 695.4 172.7 693.1 178.1 M 76 180.4 C 76 184.5, 72.5 188, 67.8 188.6 C 62.1 189.4, 62 189.7, 66.2 193.1 L 69.4 195.8 67.2 201.6 C 66 204.8, 65.2 207.6, 65.4 207.7 C 65.6 207.9, 68.1 206.6, 70.9 204.9 L 76 201.7 82 204.8 C 88.6 208.3, 89.8 208.6, 88.3 206.8 C 87.4 205.6, 85 197.3, 85 195.2 C 85 194.8, 86.8 193.4, 89 192.1 C 94.5 189, 94 188, 87.1 188 L 81.2 188 79.3 183.5 C 77.5 179.1, 76 177.7, 76 180.4 M 249.6 184.3 C 246.3 191.3, 244 193, 237.4 193 L 231.6 193 234.9 195.4 C 240.1 199.2, 241.4 201.6, 240.1 204.8 C 239.6 206.3, 238.8 209.2, 238.4 211.3 L 237.8 215.1 243.6 211.9 C 246.9 210.2, 250 208.4, 250.7 207.8 C 252 206.7, 253.6 207.4, 260.4 212 C 266.1 215.9, 266.1 215.9, 263.9 210 C 261.3 203, 261.4 201.9, 266.1 197.5 L 270.1 193.5 264.3 193 L 258.5 192.5 255.5 186.3 C 253.9 182.8, 252.3 180, 252 180 C 251.7 180, 250.6 182, 249.6 184.3 M 463.7 210.7 C 463.3 216.1, 463 223.6, 463 227.5 C 463 234.4, 459.9 247.2, 457.6 249.8 C 456.7 250.7, 455.2 250.8, 450.7 249.9 C 444 248.5, 442.7 249.2, 445.8 252.3 C 454.1 260.5, 455.7 264.7, 453.5 271.8 C 452.3 275.5, 455.1 274.4, 459.4 269.5 C 464.1 264.1, 463.4 264, 469.4 269.6 C 474.2 273.9, 477.7 275, 477.3 272 C 477.2 271.2, 476.6 267.8, 476 264.5 C 474.7 258, 475.2 257.2, 483 251.7 C 486.3 249.4, 485.1 248.7, 477.4 248.6 C 467.3 248.4, 466.8 247.2, 466.1 221.8 C 465.8 211, 465.2 201.9, 464.9 201.6 C 464.6 201.2, 464 205.4, 463.7 210.7 M 232.9 233.8 C 232.1 237.4, 233.2 307.4, 234 305.5 C 235.2 302.8, 235.2 233.3, 234.1 232.6 C 233.6 232.3, 233.1 232.8, 232.9 233.8 M 194.5 243.3 L 192.5 247.5 186 247.5 C 177.3 247.5, 176.6 249.9, 183.5 255.6 C 188.6 259.7, 188.7 260.5, 186.1 270.9 C 184.5 277.1, 185.3 277.1, 191.3 271.2 C 197.2 265.4, 198.7 265, 201.9 268.4 C 204.6 271.3, 210.7 274.7, 211.6 273.8 C 211.9 273.4, 211.2 269.9, 210 266 C 207.5 257.8, 207.4 258.1, 215.2 253.5 C 223.1 248.8, 222.6 248, 212.2 248 C 202.5 248, 200.8 247.2, 199.5 241.8 C 198.5 237.9, 196.8 238.4, 194.5 243.3 M 461.8 247 L 459.2 253 453.9 253 L 448.7 253 451.1 255.3 C 455 258.9, 457 262.2, 457 265.3 L 457 268.2 460.1 265.6 C 464 262.3, 464.4 262.3, 469.6 266.6 C 474.4 270.5, 474.5 270.4, 472.9 262.8 L 471.7 257.6 475.6 254.3 C 479.7 250.8, 479.3 250.3, 474.1 252.1 C 470.1 253.5, 468.9 252.5, 466.3 245.8 L 464.5 241 461.8 247 M 195.4 247.9 C 194.2 250.9, 193.3 251.9, 192.1 251.6 C 187.5 250.3, 182 249.9, 182 250.9 C 182 251.4, 184.1 253.3, 186.6 255.1 C 191.1 258.2, 191.2 258.3, 190.6 262.3 C 190.2 264.6, 189.4 267, 188.8 267.7 C 186.4 270.6, 188.9 269.8, 192.6 266.5 C 197.6 262, 198.8 262.1, 203.9 267.1 C 208.6 271.8, 209.7 271.8, 207.4 267.2 C 204.8 261.8, 205.9 256.9, 210.4 254 L 214.3 251.5 207.5 251 C 201 250.5, 200.6 250.4, 198.9 247.1 L 197.1 243.7 195.4 247.9 M 617 248.3 C 612.7 251.1, 607.9 259.4, 607.4 264.5 L 607.1 268.5 608 264.3 C 609.7 256.5, 615.8 251, 622.9 251 C 626.8 251, 632.6 256.1, 635.7 262.1 C 638.2 266.9, 638.8 265, 636.6 259.6 C 634.4 254.4, 623 243.8, 623 247.1 C 623 247.9, 622.7 248, 621.6 247.1 C 620.6 246.3, 619.5 246.5, 617 248.3 M 614.9 257.3 C 613.1 259, 610.9 262.5, 610 265 C 609.1 267.5, 607.8 269.4, 607.2 269.3 C 605.6 268.9, 605.7 274.7, 607.4 278.5 C 608.6 281.3, 608.7 281.2, 608.2 275.9 C 607.6 268.3, 611.1 265.8, 622.7 265.7 C 631.4 265.7, 634.8 268, 635.2 274.3 C 635.3 276.1, 635.4 278.4, 635.5 279.5 C 635.5 280.6, 634.3 282.8, 632.8 284.4 C 631.4 286.1, 630.4 287.8, 630.7 288.4 C 631.1 288.9, 632.1 288.4, 633 287.2 C 634 286, 635 285.4, 635.4 285.7 C 635.7 286.1, 636 285.4, 636 284.4 C 636 283.3, 636.5 281.9, 637.1 281.3 C 638.5 279.9, 635.7 267.8, 632.9 263.4 C 627.2 254, 620.3 251.7, 614.9 257.3 M 78.9 265.5 C 77.7 269.7, 77.3 270, 74.1 270 C 70.8 270, 62.2 266.5, 60.8 264.5 C 60.4 264, 59.8 263.9, 59.4 264.3 C 57.8 265.9, 69.4 272.1, 74.3 272.4 C 77 272.5, 77.8 273.2, 79.5 276.6 C 84 285.6, 97.4 300.3, 99.4 298.3 C 100.9 296.8, 100 293, 98.1 293 C 95.8 293, 86 284.4, 86 282.4 C 86 281.6, 86.5 281, 87.1 281 C 87.7 281, 86.8 279.6, 85 278 C 81.8 275, 81.8 274.9, 82.4 268 C 83.3 259.5, 81.1 258, 78.9 265.5 M 617.7 268 C 611.8 269.1, 610.6 270.8, 610.9 278.1 C 611.1 283.8, 613.9 286, 621 286 C 630 286, 632.7 282.8, 632.2 272.8 C 631.9 268.6, 625.5 266.5, 617.7 268 M 269.1 286.7 C 267 292.3, 263.9 294.8, 258 295.6 L 252.8 296.3 256.8 299.9 C 261.2 303.9, 262.7 307.9, 260.8 310.9 C 258.9 313.9, 260.5 314.5, 264.3 312.1 C 269 309.2, 271.9 309.5, 276.8 313 L 280.9 315.9 281.2 310.3 C 281.5 304.2, 281.1 304.8, 289.6 299.3 C 292.1 297.7, 289.9 296, 285.5 296 C 280.9 296, 276.3 292.6, 274 287.5 C 271.5 282, 270.8 281.9, 269.1 286.7 M 269.7 292 C 267.7 295.3, 263.4 298, 259.8 298.1 C 258.3 298.1, 258 298.4, 259 298.7 C 262.7 300.1, 264 302.2, 263.4 306.1 C 262.7 310.5, 263 310.7, 266.5 308.4 C 269.3 306.6, 273.4 307.1, 276.3 309.7 C 277.9 311.2, 278 311.1, 278 307.9 C 278 303.6, 278.6 302.7, 283 300.4 C 286.4 298.6, 286.4 298.5, 284 298.2 C 279.4 297.6, 275.2 295, 273.8 292 C 272.2 288.3, 271.9 288.3, 269.7 292 M 392.3 292.3 C 391.7 292.9, 390.1 295.4, 388.6 297.8 L 386 302 393.5 302 C 402.1 302, 402.3 301.7, 398 295.4 C 394.7 290.7, 393.8 290.2, 392.3 292.3 M 696.4 297.1 C 694.2 304.3, 693 305, 683.4 305 C 674.8 305, 675.1 307.1, 684.6 312.6 C 687.9 314.6, 688.9 315.7, 688.5 316.9 C 687.2 320, 685.7 330, 686.3 330.6 C 686.6 331, 689.7 329.2, 693.1 326.7 L 699.3 322.1 705.7 326.7 C 712.9 331.8, 713.9 331.7, 712.1 325.7 C 709.1 315.9, 709.3 314.8, 714.9 311.7 C 717.7 310.2, 720.5 308, 721 306.9 C 722 305.1, 721.7 305, 714.7 305 C 706.2 305, 705.5 304.5, 701.9 296.3 C 699 289.6, 698.6 289.7, 696.4 297.1 M 159.9 298.5 C 156.6 301.5, 155.8 301.8, 152.7 301 C 150.7 300.6, 148.1 300.5, 146.8 300.7 C 145.1 301, 143.3 300.3, 141.1 298.5 C 137.3 295.2, 136.2 295.7, 139.1 299.4 C 140.9 301.7, 141.1 302.5, 140 305 C 138.5 308.5, 139.2 310.6, 142.9 314.6 L 145.9 317.8 143.7 319.7 C 142.5 320.7, 139.7 322.8, 137.5 324.3 C 133.4 327, 129.4 331.5, 127 336 C 125.7 338.4, 125 340.8, 122.8 349.8 C 121.9 353.6, 121.1 354.5, 116.4 357.1 C 107.8 362, 105.5 366.9, 111 368.9 L 114 369.9 114 403.8 C 114 432.8, 113.8 437.9, 112.5 439 C 110.6 440.6, 110.6 442.9, 112.5 445 C 113.8 446.5, 114.1 454.9, 114.4 508.6 L 114.7 570.5 111.8 573 C 108.3 576, 108.3 577.3, 111.6 579.9 C 114.7 582.3, 114.5 583.1, 108.9 590.5 C 103.8 597.3, 102.6 603.4, 105.9 606.4 C 107 607.4, 108.6 608, 109.5 607.7 C 111.6 606.8, 111.4 605, 109.1 605 C 104.6 605, 106.2 597.6, 111.8 592 C 114.3 589.5, 114.3 589.5, 112.9 591.9 C 112.1 593.2, 110.9 595.2, 110.3 596.4 C 107.6 601, 111.3 605.5, 115.8 603.1 C 116.9 602.5, 118.8 602, 119.9 602 C 121.2 602, 122.5 600.8, 123.5 599 C 124.4 597.4, 125.6 596, 126.2 596 C 127.1 596, 127.1 595.7, 126.2 594.8 C 125.5 594.1, 125 592.9, 125 592.1 C 125 589.4, 118.4 585.8, 117 587.5 C 116.3 588.3, 115.3 589, 114.7 589 C 114.1 589, 114.4 588.2, 115.5 587.2 C 118.6 584.3, 129 585.3, 128.2 588.3 C 127.7 590.2, 127.9 590.3, 129.2 589.3 C 130 588.6, 131.1 588.4, 131.5 588.8 C 132 589.2, 132 588.7, 131.7 587.8 C 131.2 586.5, 131.6 586, 133.1 586 C 134.2 586, 134.8 586.5, 134.5 587 C 134.2 587.6, 134.4 588, 134.9 588 C 135.5 588, 136 587.6, 136 587 C 136 585.5, 142.7 585.8, 143.3 587.3 C 143.7 588.1, 144.1 588.1, 144.7 587.5 C 146.5 585.3, 149.2 585.8, 148.5 588.2 L 147.8 590.5 149.5 588.3 C 150.9 586.2, 152 586, 159.1 586 C 163.7 586, 167 586.4, 167 587 C 167 587.6, 167.5 588, 168.1 588 C 168.6 588, 168.9 587.6, 168.5 587.1 C 168.2 586.5, 171.6 586, 176.5 585.8 C 185.3 585.5, 186.7 586.2, 183.6 589.3 C 182.7 590.2, 182.4 591.7, 182.7 593 C 183.1 594.6, 183 595.1, 182.2 594.6 C 181.5 594.2, 181 594.5, 181 595.4 C 181 596.3, 181.4 597, 181.8 597 C 183.3 597, 185 594.6, 185 592.3 C 185 591, 185.4 590, 186 590 C 186.5 590, 186.9 589.1, 186.7 588.1 C 186.6 587, 187 586.2, 187.5 586.3 C 188.1 586.4, 188.5 587.5, 188.5 588.8 C 188.4 590, 188.8 591, 189.2 591 C 189.7 591, 189.5 591.9, 188.8 593 C 188.1 594.1, 187 595, 186.3 595 C 185.6 595, 184.4 596.2, 183.7 597.6 C 182.8 599.3, 182 599.9, 181.6 599.1 C 181.2 598.5, 180.4 598, 179.9 598 C 179.3 598, 179.1 598.4, 179.4 598.9 C 180 599.8, 177.1 601.4, 176.3 600.6 C 176 600.4, 176.3 598.5, 176.9 596.4 C 177.9 592.6, 177.7 591, 175.9 591 C 175.3 591, 175.1 591.4, 175.4 591.9 C 175.7 592.3, 175.6 594.1, 175.1 595.7 C 173.9 599.9, 175.4 602, 179.8 602.2 C 188.8 602.6, 149.8 603.7, 134.3 603.4 C 124.8 603.2, 117 603.5, 117 603.9 C 117 606.7, 191.4 605.6, 196 602.8 C 197 602.1, 198.2 601.9, 198.6 602.2 C 200 603.6, 197.9 606.1, 194.8 606.7 C 192.2 607.2, 191.9 607.5, 193.5 608 C 197 609.2, 158.6 609.9, 138.9 608.9 C 124.3 608.3, 119.3 608.3, 118.2 609.2 C 116.5 610.7, 89.1 611.1, 87.3 609.7 C 86.4 609, 86 609.2, 86 610.4 C 86 611.3, 85.3 612, 84.5 612 C 83.7 612, 83 612.5, 83 613.1 C 83 613.9, 84.1 614, 86.3 613.5 C 90.3 612.6, 105.8 612.3, 161.2 611.8 C 204.5 611.4, 208.4 611.1, 206.6 608.1 C 206.1 607.4, 205.2 607.4, 203.5 608.2 C 200.7 609.5, 199 608.6, 200.8 606.8 C 202.4 605.2, 202.3 602.9, 200.4 599 C 199.2 596.7, 198.9 594.4, 199.3 590.8 C 199.9 586, 199.8 585.8, 196.7 584.5 L 193.5 583.2 193.4 574.8 C 193.1 541, 191.9 472.1, 191.4 460.9 C 190.9 447.8, 190.9 447.2, 193 445.2 C 195 443.4, 195 443, 193.7 440.4 C 192.6 438.1, 192.1 430.4, 191.5 405.2 L 190.8 372.8 194 369.5 C 197.9 365.5, 197.6 361.9, 193.2 359.6 C 187.2 356.5, 184.4 352.5, 180.5 341.5 C 178.4 335.9, 168.2 324.3, 164.3 323.4 C 163 323, 162 322.4, 162 321.9 C 162 321.4, 161.3 321, 160.5 321 C 158.3 321, 158.2 318.1, 160.2 311.7 C 161.1 308.8, 161 307.5, 160 305.6 C 158.6 302.9, 159.6 299.8, 161.1 302.1 C 161.8 303.2, 162 303.2, 162 301.8 C 162 300.9, 162.5 300, 163.1 299.8 C 163.7 299.6, 164 298.5, 163.8 297.3 C 163.5 295.2, 163.3 295.3, 159.9 298.5 M 697.6 302 C 696.9 306.5, 696.4 306.8, 689.4 307.9 L 684.5 308.6 688.3 310.5 C 692.3 312.5, 692.9 314.5, 691.1 320.8 C 689.9 324.8, 690.2 324.8, 695.2 320.9 L 699.1 317.7 703 320.9 C 708.6 325.4, 708.6 325.3, 706.3 315.3 C 705.9 313.5, 706.6 312.7, 710.2 310.9 L 714.5 308.6 709.9 308 C 704.2 307.3, 702.2 305.8, 701.4 301.4 C 700.5 296.8, 698.4 297.1, 697.6 302 M 533 303 C 533 304.2, 531.9 306.3, 530.6 307.7 C 527.4 311.1, 528.2 312.7, 531.5 309.4 C 534.6 306.4, 535.8 306.4, 537.2 309.5 C 538.4 312.2, 535.3 317, 532.3 317 C 530.5 317, 530.7 318.9, 532.5 319.6 C 533.4 320, 535 319.2, 536.5 317.6 C 537.8 316.2, 539.4 315, 540 315 C 541.7 315, 540.1 307.9, 537.9 305.4 C 536.8 304.3, 536 302.8, 536 302.2 C 536 301.5, 535.3 301, 534.5 301 C 533.7 301, 533 301.9, 533 303 M 605.5 304.9 C 597.8 309.9, 594.2 313.3, 589.7 320 C 585.6 326, 585.7 328.2, 589.8 323.3 C 598.6 312.8, 600.2 311, 601.2 311 C 601.8 311, 601.7 311.7, 600.9 312.8 C 599.6 314.4, 600.9 313.6, 605 310.1 C 605.3 309.9, 604.6 310, 603.6 310.4 C 602 310.9, 601.9 310.8, 603 309.5 C 603.7 308.7, 604.7 308.3, 605.3 308.7 C 605.9 309, 606 308.8, 605.6 308.2 C 605.2 307.5, 605.4 307, 605.9 307 C 606.5 307, 608.1 306, 609.6 304.8 C 611 303.5, 613.1 302.2, 614.3 301.9 C 616.4 301.2, 616.4 301.2, 614 301.1 C 612.6 301.1, 608.8 302.8, 605.5 304.9 M 627.6 310.2 C 628.3 313.6, 628.7 316.7, 628.4 317.2 C 627.5 318.7, 626 318, 626 316.1 C 626 314.7, 625.4 314.4, 623.3 314.7 L 620.5 315.2 623 313.8 C 625.9 312.2, 626.1 311.3, 623.9 308.3 C 621.1 304.4, 617.8 304.9, 616.7 309.4 C 616 312.3, 616.1 313.4, 617.1 314.1 C 618.2 314.8, 618 315, 616.4 315 C 614.8 315, 614.1 315.8, 613.6 318.1 C 612.6 323.2, 612.8 324, 615.5 324 C 617.7 324, 618 323.7, 617.4 321.5 C 616.6 318.4, 617.8 318.2, 618.9 321.3 C 620.1 324.5, 631.1 324.7, 632.2 321.5 C 632.8 319.6, 632.8 319.7, 632.9 321.8 C 633.1 326.1, 635 323.9, 635 319.3 C 635 315.4, 634.4 313.8, 630.9 309.3 C 628.6 306.4, 626.7 304, 626.5 304 C 626.4 304, 626.9 306.8, 627.6 310.2 M 606.8 312.7 C 603.6 314.7, 601 316.9, 601 317.7 C 601 318.5, 600.4 319, 599.8 318.7 C 599.1 318.5, 598.6 317.8, 598.7 317.2 C 598.9 316.6, 598.3 316.3, 597.5 316.7 C 596.2 317.1, 596.2 317.5, 597.2 318.8 C 598.3 320.1, 598.2 320.3, 596.7 319.7 C 595.2 319.1, 595.1 319.3, 596.1 321.2 C 597 322.8, 597.4 323, 598.1 321.9 C 599 320.4, 606 319.8, 606 321.2 C 606 321.6, 607 321.8, 608.3 321.7 C 609.9 321.4, 610.7 320.3, 611.5 317.2 C 612.1 315, 612.8 312.8, 613.3 312.4 C 614.2 311.4, 614.2 309, 613.3 309.1 C 612.8 309.2, 609.9 310.8, 606.8 312.7 M 390 313.9 C 388.5 314.4, 387.6 315.3, 387.6 316.4 C 387.7 317.3, 387.3 317.9, 386.6 317.7 C 386 317.4, 384.4 318.3, 383 319.5 C 381.6 320.7, 378.5 322.9, 376.2 324.2 C 373.5 325.8, 372.3 327, 373 327.5 C 373.6 327.9, 374.7 327.7, 375.4 327.1 C 377.3 325.5, 379 327.9, 377.9 330.5 C 376.8 333.4, 376.8 341.9, 377.9 340 C 378.5 339.2, 378.6 338.2, 378.4 337.8 C 378.1 337.4, 378.4 337, 378.9 337 C 379.5 337, 380 335, 380 332.5 C 380 329.6, 380.4 328, 381.3 327.9 C 381.9 327.9, 383.7 327.6, 385.3 327.4 C 387.6 327, 388 327.3, 388 329.4 C 388 330.8, 387.6 332.2, 387 332.5 C 385.8 333.3, 385.7 341, 386.9 341 C 387.4 341, 388.1 338.4, 388.4 335.3 C 389.4 327.4, 389.9 326, 391.8 326 C 393 326, 393.1 326.3, 392.2 327.2 C 391.5 327.9, 391 329.4, 391 330.7 C 391 332, 390.5 333.9, 389.8 334.9 C 388.9 336.3, 389 337.2, 390.3 339.1 C 392 341.4, 392 341.4, 392 336.3 C 392 333, 392.6 330.6, 393.5 329.6 C 394.3 328.8, 395 327.7, 395 327.1 C 395 325.5, 396.7 325.8, 397.4 327.5 C 397.7 328.3, 398.8 329, 399.9 329 C 401.1 329, 402 329.9, 402.5 331.7 C 403 333.7, 403.4 334, 404 333.1 C 404.4 332.3, 405.5 332, 406.3 332.3 C 407.3 332.7, 408 332.1, 408.4 330.4 C 409.2 327.3, 408.5 326, 405.9 326 C 404.9 326, 404 325.5, 404 325 C 404 324.3, 401.5 324.1, 397.5 324.3 C 393.9 324.6, 389.5 324.4, 387.7 324 C 385.4 323.4, 387 323.2, 393.5 323.1 C 405.5 323, 410.6 324.9, 410.6 329.6 C 410.6 333.5, 411.6 334.8, 413.2 333.2 C 414.1 332.3, 414.1 331.7, 413.2 330.8 C 411.5 329.1, 411.7 328, 413.6 328 C 414.5 328, 415.4 328.9, 415.7 330 C 416 331.1, 416.9 332, 417.6 332 C 418.4 332, 419 332.8, 419 333.8 C 419 334.8, 419.3 336, 419.8 336.4 C 420.2 336.8, 420.5 337.7, 420.5 338.3 C 420.5 338.8, 421.1 339.5, 421.9 339.8 C 422.9 340.1, 423.1 339.8, 422.7 338.6 C 422.3 337.6, 422 335.6, 422 334.1 C 422 331.6, 420.8 330.6, 411.8 325.2 C 405.6 321.6, 400.7 317.9, 399.5 316.1 C 397.4 312.9, 395.3 312.4, 390 313.9 M 145.4 327.5 C 144.9 328.2, 142.8 330.8, 140.7 333.4 C 136.1 338.8, 133.4 347.8, 135.6 350.7 C 137.2 353, 138 352.2, 138.4 347.9 C 139.4 339.5, 140.4 336.4, 142.9 334.3 C 146 331.7, 149 331.1, 147 333.5 C 145.7 335.1, 146 335.3, 148.4 334.4 C 149.2 334.1, 149.6 333.2, 149.3 332.4 C 148.6 330.4, 152.5 330.6, 156 332.7 C 158.8 334.3, 159.1 335.2, 160.8 344.5 C 162 351.1, 164.9 350.5, 164.9 343.7 C 164.9 338.8, 164.6 338.1, 162.3 337.1 C 160.9 336.5, 160 335.7, 160.3 335.4 C 160.6 335.1, 161.8 335.3, 162.9 336 C 167.8 338.6, 164.6 332.8, 158.7 328.3 C 156 326.2, 155.7 326.2, 153.4 327.7 C 151.2 329.1, 150.8 329.1, 148.7 327.7 C 146.8 326.5, 146.2 326.4, 145.4 327.5 M 234.4 329.5 C 233.3 335.4, 236.6 341.3, 238.8 337.4 C 239.5 336.2, 239.9 336.1, 240.5 336.9 C 241.3 338.3, 240.4 339.5, 238.7 339.5 C 238 339.5, 237.6 340.4, 237.8 341.4 C 238.2 343.5, 234 349.8, 230.9 352 C 226 355.3, 224.8 357.1, 225.4 360.1 C 225.9 362.5, 225.5 363.2, 223.2 364.4 C 216.2 368.1, 210.7 375.6, 209.5 383.6 C 209.1 386.1, 207.9 388.7, 206.4 390.1 C 203.2 393.1, 203.4 394.9, 207 396.3 L 210.1 397.5 210.3 432 C 210.4 451, 210.5 487.4, 210.6 513 C 210.7 538.6, 211.1 561.2, 211.5 563.2 C 212.6 568.6, 211.6 571.4, 208 572.7 C 204 574.2, 204.2 576.3, 208.5 579 C 212.6 581.6, 212.9 583.5, 209.5 586.2 C 204.2 590.4, 202.3 598.7, 205.8 602.9 C 214.5 613.3, 260.2 616.6, 278 608.1 C 286.8 603.9, 287.9 597.7, 281.1 590.4 C 276.3 585.2, 275.5 581.9, 278 576.9 C 280.4 572.3, 279.4 570, 274.9 570 C 274 570, 273 569.4, 272.8 568.8 C 272.4 567.6, 271.5 462.6, 271.5 415.5 L 271.5 395.5 274.3 395.2 C 277.6 394.8, 277.8 392.9, 274.7 388.7 C 273.4 386.9, 271.3 383, 270 380 C 266.7 372.6, 263.9 369.1, 258.6 365.5 C 254.8 363, 254 362, 254 359.4 C 254 356.5, 251.5 353, 249.4 353 C 245.7 353, 240 340.3, 242.9 338.5 C 244.3 337.7, 244.3 331.7, 242.8 328.5 C 240.9 324.3, 235.3 324.9, 234.4 329.5 M 605.5 327.1 C 601.7 327.5, 595.1 328.2, 590.8 328.5 C 586.4 328.9, 582.4 329.8, 581.3 330.7 C 579.6 332.1, 579.6 332.1, 581.5 331.5 C 585.6 330.2, 614.9 328.8, 628 329.3 C 641.3 329.8, 652.5 331.7, 658.7 334.5 C 662.9 336.5, 663.7 336.4, 661.6 334.1 C 656.1 328, 627.9 324.5, 605.5 327.1 M 164 328.3 C 164 328.7, 164.8 330.5, 165.7 332.3 C 166.9 334.5, 167.3 337.3, 167.1 341.7 C 166.9 347.1, 167.1 348, 168.9 349 C 171.5 350.3, 171.6 348.5, 169.5 342.5 C 167.8 337.8, 167.8 338, 168.8 338 C 169.6 338, 171.6 342.3, 172.6 346.3 C 173.3 349.5, 175.7 351, 179.7 350.9 C 182.1 350.9, 182.2 350.8, 180.5 350.1 C 178.1 349.1, 173.6 341.4, 174.9 340.6 C 175.4 340.2, 176.1 341.3, 176.5 343 C 177.1 345.9, 179 347.2, 179 344.8 C 179 342.6, 173 333, 171.7 333 C 170.9 333, 170.8 333.2, 171.6 333.8 C 172.2 334.2, 173 335.6, 173.4 337 L 174.1 339.5 172.3 337.2 C 168.9 332.7, 164.1 327.5, 164 328.3 M 618.3 332.7 C 614.3 333.1, 612.6 334.4, 615 335.2 C 615.6 335.4, 614.7 338.1, 613 341.4 C 611.4 344.7, 610 348.2, 610 349.1 C 610 350.1, 609.6 351.2, 609 351.5 C 607.6 352.4, 607.8 349.2, 609.5 344.5 C 611 340.2, 610.8 339.1, 608.7 340.8 C 607.3 342, 605.3 341.9, 603.3 340.7 C 602.3 340.1, 602 340.8, 602 343 C 602 345.5, 601.7 346.1, 600.4 345.6 C 599.5 345.3, 598 345, 597 345 C 595.7 345, 595.3 344.5, 595.7 343.1 C 596.3 340.8, 591.4 339.4, 590.6 341.7 C 589.5 344.4, 590 346, 591.5 345.4 C 592.3 345, 593 345.2, 593 345.8 C 593 346.3, 592.3 347, 591.5 347.4 C 590.2 347.8, 590 351, 590 367 C 590 377.4, 590.2 386, 590.5 386 C 590.8 386, 594.7 383, 599.1 379.4 C 608.5 371.6, 612.4 366.6, 611 363.9 C 609.6 361.5, 609.7 359, 611 361 C 611.8 362.2, 612 362.1, 612 360.2 C 612 355.1, 619.5 344, 621.9 345.4 C 625.2 347.5, 626.6 361.3, 623.7 364.8 C 623 365.7, 623.5 367.1, 625.7 369.8 C 628.6 373.4, 641.5 384, 643 384 C 643.4 384, 643.9 376.1, 644.2 366.5 C 644.5 356.5, 645.1 348.5, 645.7 347.9 C 646.4 347.2, 646.6 353.3, 646.2 367.2 C 645.8 386.3, 645.9 387.6, 647.7 389.2 C 649.7 391, 649.8 398, 647.9 398 C 647.4 398, 647 398.7, 647 399.5 C 647 400.3, 646.6 401, 646 401 C 645.5 401, 645 400.4, 645 399.6 C 645 398.8, 645.5 397.8, 646 397.5 C 647.3 396.7, 647.3 391.3, 646 390.5 C 645.5 390.2, 645.2 391.4, 645.4 393.5 C 645.5 395.9, 645.2 397, 644.3 397 C 642.7 397, 642.7 397.1, 644 400.6 L 645.1 403.3 647.3 401.3 C 648.5 400.2, 650 399.4, 650.5 399.6 C 651.2 399.9, 651.4 391.5, 651.2 375.3 C 650.9 350.5, 650.2 345.5, 646.9 343.4 C 646.3 343.1, 646.6 342.2, 647.7 341.3 C 649.3 340, 649 339.9, 644.3 340.3 C 641.4 340.5, 638.8 340.5, 638.6 340.2 C 638.3 340, 636 339.7, 633.5 339.6 C 629.5 339.5, 629 339.7, 629 341.8 C 629 343, 628.5 344, 627.9 344 C 627.3 344, 627 343.3, 627.3 342.5 C 627.7 341.7, 627.5 340.8, 627 340.5 C 626.4 340.1, 626 340.7, 626 341.7 C 625.9 343.4, 625.9 343.4, 624.6 341.8 C 623.9 340.8, 622.7 340, 621.9 340 C 620.3 340, 617.5 336.1, 618.4 335.2 C 618.7 334.9, 619.9 335.5, 621 336.5 C 623 338.3, 623 338.3, 623 335.2 C 623 333.4, 622.9 332.1, 622.8 332.2 C 622.6 332.3, 620.6 332.5, 618.3 332.7 M 36.6 337.5 C 35.2 347.3, 35.4 347, 31 347 C 26.2 347, 26 347.9, 30.1 350.3 C 33 351.9, 33.2 352.3, 32.6 356 C 31.8 360.8, 32.4 360.9, 36.7 356.8 C 39.8 353.8, 40.1 353.7, 41.8 355.3 C 44.4 357.7, 45 357.4, 44.4 354.1 C 43.9 351.5, 44.2 350.9, 47.1 349.3 L 50.5 347.5 46.5 347 C 40.2 346.2, 39.1 345.1, 38.2 338.5 L 37.3 332.5 36.6 337.5 M 363.3 333.6 C 361.5 334.4, 355.6 344, 356.5 344.8 C 356.8 345.2, 362.4 345.6, 368.8 345.8 C 385 346.2, 384.2 347, 367.7 347 C 356.2 347, 354 347.2, 354 348.5 C 354 349.3, 353.6 350, 353.1 350 C 352.5 350, 350.6 499.6, 350.5 563 C 350.5 570.3, 350.7 571.5, 352.3 571.8 C 354 572.1, 354.1 570.6, 354 544.4 L 353.8 516.7 356.7 514.3 C 358.2 513, 362.2 509.9, 365.5 507.3 C 368.8 504.7, 373.8 500.7, 376.6 498.3 C 379.4 495.9, 382 494, 382.5 494 C 383.4 494, 402.2 509.4, 413.3 519.3 L 422 527.1 422 501.1 L 422 475 419.6 475 C 414.7 475, 413.2 473.5, 417.5 473 C 421 472.6, 421.5 472.1, 421.8 469.8 C 422.2 466.1, 420.9 466.2, 412.2 470.6 C 408.3 472.6, 404.6 474, 403.9 473.8 C 403.3 473.6, 405.7 471.9, 409.4 470 C 413 468.1, 416 466.3, 416 465.9 C 416 465.5, 417 465, 418.3 464.8 C 420.4 464.5, 420.5 464.1, 421.2 448.5 C 422.4 422.6, 423.5 385.9, 423.1 385.5 C 422.2 384.6, 415.1 389.7, 413 392.7 C 411.1 395.5, 410.8 396.9, 411.3 401 C 411.9 406.2, 411.2 407.2, 408.9 404.3 C 406 400.8, 397.7 395, 395.7 395 C 393.2 395.1, 382.4 403.5, 371.9 413.5 C 365.6 419.5, 360.5 423, 359.7 421.9 C 359.5 421.7, 359.6 414.9, 359.8 406.8 L 360.2 392 363.9 392.1 C 367 392.2, 367.2 392.3, 365 392.9 C 362.5 393.6, 362.5 393.7, 362.2 406.5 L 361.9 419.4 364.2 417.4 C 365.5 416.4, 369.7 412.5, 373.5 408.8 C 381.5 401.2, 390.3 394.3, 393.9 392.9 C 396.4 391.9, 401.6 394.4, 405.6 398.6 C 408.2 401.3, 409 400.8, 409 396.5 C 409 394.5, 409.8 392.6, 411.3 391.3 C 414.6 388.3, 422.9 383, 424.3 383 C 425.2 383, 425.3 391.2, 424.7 418.7 C 424.3 438.4, 424.1 480, 424.3 511.3 C 424.4 542.5, 424.3 568, 423.9 568 C 422.9 568, 422 556.7, 422 543.5 L 422 531.3 413.8 523.3 C 402.8 512.7, 396.6 507.1, 390.5 502.6 L 385.5 498.8 384.9 508.7 C 384.5 514.1, 384.1 526.4, 384 536 C 383.9 545.6, 383.4 556.4, 383 560 C 382.6 563.6, 382.5 551.6, 382.8 533.4 C 383.1 515.1, 383 499.5, 382.7 498.6 C 382.1 497.1, 377.1 499.9, 373 504 C 372.7 504.3, 370.9 505.7, 369 507.2 C 363.2 511.6, 358.3 516.4, 357.1 518.7 C 356.4 520.1, 356 529.7, 356 545.9 L 356 571 362.8 571.1 C 366.5 571.2, 371.5 571.5, 374 571.7 C 379.6 572.1, 400.5 572.2, 416.6 571.8 L 428.6 571.5 428.6 514.5 C 428.5 483.2, 428.7 432.8, 428.9 402.5 L 429.4 347.5 412.2 347.4 C 402.8 347.4, 394.7 347.1, 394.4 346.7 C 393.6 345.9, 394.8 345.8, 406 345.6 C 410.1 345.5, 417.3 345.2, 422 345 C 438.2 344.3, 401.1 343.2, 378.8 343.7 L 358.1 344.1 359.8 340.8 C 361.3 337.8, 361.5 337.7, 361.8 339.8 C 362.4 343.6, 364.1 342.2, 363.8 338.3 C 363.6 335.6, 363.9 334.6, 364.8 334.8 C 365.6 334.9, 365.9 334.6, 365.5 334 C 365.2 333.5, 364.8 333, 364.7 333.1 C 364.6 333.1, 364 333.4, 363.3 333.6 M 635.8 333.5 C 635.3 334, 630 334.8, 626.1 334.9 C 623 335.1, 626.3 336.4, 630.3 336.7 C 645.6 337.7, 652.6 337.8, 654.1 336.9 C 655.2 336.3, 656.1 336.4, 656.5 337 C 656.8 337.5, 656.5 338, 655.8 338 C 655.1 338, 654.4 339.2, 654.3 340.8 C 653.9 347.1, 654 371.8, 654.6 389 C 655.2 407, 655.3 407.6, 657.6 409.3 C 659.3 410.6, 660 410.7, 660.1 409.8 C 660.6 402.4, 659.6 343.2, 659 341 C 658.4 338.9, 658.5 338, 659.3 338 C 660 338, 659.3 337.3, 657.8 336.6 C 656.2 335.7, 653.4 335.3, 651.3 335.5 C 648 335.9, 647.9 335.8, 650 335 C 651.8 334.3, 651 334.2, 646.9 334.6 C 643.3 335, 641 334.8, 640.6 334.1 C 639.9 333, 636.7 332.6, 635.8 333.5 M 143 335.7 C 143 336.1, 143.7 337.4, 144.5 338.4 C 145.3 339.5, 146 341.4, 146 342.6 C 146 343.8, 146.6 345, 147.3 345.3 C 147.9 345.5, 148.2 346, 147.9 346.4 C 146.6 347.8, 144 345.7, 144 343.1 C 144 340.1, 142.1 336.4, 141.9 339 C 141.8 339.8, 141.9 341.3, 141.9 342.3 C 142 343.2, 141.6 344, 141.1 344 C 140.5 344, 140 345.4, 140 347 C 140 349, 140.5 350, 141.5 350 C 142.3 350, 143 349.3, 143 348.5 C 143 347.7, 143.7 347, 144.5 347 C 145.3 347, 146 347.4, 146 347.9 C 146 348.3, 148.7 348.8, 152 348.9 C 158.8 349, 159.1 348.7, 155.4 345.3 C 153.5 343.6, 152.4 343.2, 151.7 343.9 C 150.2 345.4, 149 345.3, 149 343.5 C 149 342.7, 148.6 342, 148.1 342 C 147.7 342, 146.9 340.6, 146.4 338.8 C 145.6 336, 143 333.5, 143 335.7 M 309.6 341.4 C 308.7 344.4, 308 347.5, 308 348.3 C 308 349.9, 306.2 350.3, 294.8 351.6 L 289 352.2 295.1 356.1 C 302.4 360.9, 302.5 361.1, 300 368.9 C 296.5 380.1, 297.2 380.4, 306.9 372 C 310.7 368.7, 314 366.5, 314.2 367.1 C 314.9 369.3, 328.5 379.9, 328.8 378.5 C 329 377.7, 328.7 376.3, 328.2 375.3 C 327.6 374.3, 326.9 370.6, 326.5 367 L 325.9 360.5 333.7 356.3 L 341.5 352.1 334 352 C 321.1 351.8, 320.7 351.6, 319 344.6 C 318.3 341.5, 317.4 339, 317 339 C 315.5 339, 314 341.6, 314 344.3 C 314 346.1, 313.6 346.9, 312.9 346.4 C 312.2 346, 312 344, 312.3 340.9 C 313.1 334.4, 311.5 334.7, 309.6 341.4 M 513.2 336.7 C 511.2 337.1, 508 341, 509.6 341 C 510 341, 509.3 342.1, 508 343.5 C 505.6 346.1, 505.9 348.2, 508.4 346.1 C 509.2 345.5, 510.2 345, 510.6 345.1 C 511.1 345.2, 512.2 345, 513 344.7 C 513.8 344.3, 517.9 343.9, 522 343.8 C 529 343.5, 529.5 343.4, 529.8 341.1 C 530 339.8, 529.8 338.4, 529.3 337.9 C 528.3 336.9, 516.4 336, 513.2 336.7 M 585.5 337 C 585.1 337.6, 584 337.8, 583 337.5 C 581.6 337, 581.1 337.6, 580.7 340.7 C 580 346.5, 580.1 388.8, 580.8 394.4 L 581.5 399.2 584.3 394 C 587.1 388.9, 587.1 388.6, 587.4 367.9 C 587.7 351.1, 587.5 346.8, 586.4 345.9 C 585.5 345.2, 585.3 344.3, 585.9 343.6 C 586.6 342.6, 587.1 336, 586.4 336 C 586.2 336, 585.8 336.5, 585.5 337 M 527 347.8 C 527 349.2, 526.8 349.3, 526 348 C 523.9 344.6, 523.7 348.6, 525.7 356.8 C 527.7 364.7, 527.5 368.8, 525.3 366.6 C 524.9 366.2, 525.2 365.5, 525.9 365.1 C 526.7 364.5, 526.8 364, 526.2 363.6 C 525.6 363.3, 524.4 359.5, 523.5 355.2 C 521.5 345.8, 519.3 344.6, 516.4 351.3 C 514.7 355.4, 511 361, 511 359.6 C 511 359.3, 512.2 356.7, 513.6 353.9 C 516.2 349, 516.1 345.7, 513.5 349.5 C 512.7 350.6, 511.7 352, 511.3 352.5 C 509.3 355, 507.9 359.5, 508.9 359.8 C 510.8 360.4, 510.1 361.8, 507.5 362.2 C 504.5 362.8, 504.3 361.3, 506.8 357.9 C 507.7 356.6, 509.3 354, 510.3 352.3 C 512.1 349.1, 512.1 349, 510.1 349 C 508.9 349, 508 349.4, 508 349.9 C 508 350.4, 507.3 351.1, 506.4 351.4 C 505.2 351.9, 504.9 351.6, 505.4 350.5 C 505.7 349.6, 505.6 349.1, 505.2 349.3 C 504.8 349.5, 503.6 350, 502.5 350.4 C 500.9 351, 500.8 351.3, 502 352.1 C 503.2 352.9, 503 353, 501.3 352.5 C 498.2 351.7, 488 357, 488 359.5 C 488 359.8, 489.3 359.2, 490.9 358.1 C 494.9 355.2, 495.3 355.5, 493 359.5 C 491.9 361.5, 491 363.7, 491 364.5 C 491 366.1, 496.9 367.5, 500.1 366.7 C 502.2 366.1, 504.4 369, 502.4 369.7 C 501.8 369.9, 501.6 371.4, 501.8 373 C 502.1 374.8, 501.8 376, 501.1 376 C 500.5 376, 500 375.1, 500 374 C 500 371.7, 499.6 371.6, 496.7 373.2 C 493.5 374.9, 491.3 377.2, 493.1 377 C 495.7 376.6, 497 377, 497 378.1 C 497 378.9, 495.9 379, 493.8 378.6 L 490.6 378 494.9 381.9 C 498.4 385.2, 498.8 385.9, 497.3 386.3 C 495.9 386.7, 495.9 386.8, 497.8 386.9 C 499.4 387, 500 387.6, 500 389.2 C 500 391.2, 499.9 391.3, 498 389.5 C 496.9 388.5, 495.8 387.9, 495.5 388.2 C 494.5 389.2, 496.2 392, 497.7 392 C 498.7 392, 499 392.6, 498.6 393.6 C 498.3 394.5, 498 395.8, 498 396.6 C 498 397.4, 497.2 398, 496.2 398 C 494.9 398, 494 396.3, 492.6 391.3 C 491.5 387.5, 490.5 384, 490.3 383.3 C 490 382.6, 490.7 382.3, 492.2 382.6 L 494.5 383.1 492.3 382.1 C 491.1 381.5, 489.8 380.1, 489.6 378.8 C 489.3 377.5, 488.7 374.5, 488.1 372 C 487.5 369, 487.2 381.6, 487.2 410.2 L 487.1 452.9 511.8 452.4 C 525.4 452.1, 537.1 451.7, 537.8 451.4 C 538.7 451.2, 539 446.9, 539 434.7 L 539 418.3 533.8 417.7 C 530.9 417.5, 528 417.6, 527.3 418.2 C 526.5 418.8, 526 418.1, 525.5 415.8 C 524.5 411.4, 521.1 401.4, 519.4 398.1 C 518.6 396.7, 518 394.7, 518 393.8 C 518 388.2, 513.2 395.3, 507.6 409.4 C 505.6 414.3, 505.4 414, 509.4 414 C 514.6 414, 518 412.4, 518 410 C 518 408.8, 518.5 408.2, 519 408.5 C 520.7 409.5, 520.2 436.1, 518.5 438.4 C 516.3 441.3, 515.6 439.6, 516.9 434.6 C 517.5 432.1, 518 426.7, 518 422.6 L 518 415.1 512.8 415.7 C 504.3 416.6, 504.7 415.8, 504.9 433.3 C 505 443.4, 504.7 449, 504.1 449.5 C 503.3 449.9, 503 445.1, 503 434.1 L 503 418 500.1 418 C 498.5 418, 496 418.4, 494.7 418.9 L 492.2 419.9 492.1 435.6 C 491.9 456.8, 491.2 456.4, 490.8 435 C 490.5 415.6, 489.5 417.9, 498.9 414.8 C 502.9 413.5, 503.5 412.9, 505.4 407.9 C 506.6 404.9, 508.4 400.9, 509.5 399 C 510.5 397.1, 512.5 393.4, 513.8 390.8 C 516 386.2, 518 384.6, 518 387.3 C 518 388.1, 518.8 390.2, 519.7 392.1 C 520.7 394, 522.8 399.5, 524.5 404.4 L 527.5 413.3 532.5 414.6 C 535.3 415.3, 537.9 415.9, 538.4 416 C 538.9 416, 539.1 410.1, 538.8 402.3 C 538.3 390.2, 538.4 388.9, 539.5 392 C 540.3 394, 540.9 399.9, 540.9 405.8 C 541 414.8, 541.2 416, 542.8 416 C 544.4 416.1, 544.4 416.1, 542.8 417.4 C 541.2 418.6, 541 420.7, 541 435.4 L 541 452 544.5 452 L 548 452 548 422.7 C 548 406.5, 547.7 388.6, 547.4 382.9 L 546.7 372.5 541.4 372.4 C 538.4 372.4, 536 372.7, 536 373.2 C 536 373.7, 535.6 373.9, 535.1 373.6 C 534.7 373.3, 534.5 371.9, 534.8 370.5 C 535.3 367.8, 534.2 367.2, 532.2 369.2 C 531.2 370.2, 530.7 370.2, 530 369 C 529.2 367.8, 529 368, 529 369.8 C 529 371, 528.6 372, 528 372 C 526.6 372, 526.7 369.7, 528.2 368.2 C 529.9 366.5, 536 366.6, 536 368.4 C 536 369.2, 536.7 370, 537.5 370.4 C 539.3 371.1, 539.5 369.4, 537.8 368.3 C 535.6 366.9, 542.3 366.3, 545 367.7 C 548.3 369.4, 548.5 368.8, 546.1 364.2 C 542.1 356.3, 527 343.4, 527 347.8 M 239.2 352 C 237.4 352.4, 235.6 353.1, 235.2 353.5 C 234.8 353.9, 235.5 354, 236.6 353.6 C 238.1 353.2, 239 353.4, 239.4 354.5 C 239.9 356, 237.2 356.5, 231.3 356 C 229.8 355.9, 229 356.4, 229 357.4 C 229 358.3, 229.6 358.7, 230.4 358.4 C 231.2 358.1, 232.1 358.3, 232.5 358.9 C 232.8 359.5, 232.4 360, 231.6 360 C 230.7 360, 230 360.5, 230 361 C 230 361.6, 234.2 362, 240.5 362 C 251 362, 251 362, 251 359.6 C 251 356.5, 250 355.9, 244.7 355.5 C 240.2 355.2, 238.2 353, 242.5 353 C 244 353, 244.9 352.6, 244.5 352 C 243.8 350.9, 243.8 350.9, 239.2 352 M 131 353.7 C 126.9 354.6, 122.4 356.1, 121.1 357.1 C 118.5 359.1, 119 359.6, 122 358 C 127.1 355.3, 153.3 354, 172 355.5 C 179.4 356.2, 185.7 356.5, 185.8 356.4 C 186 356.3, 184.7 355.4, 182.8 354.4 C 178 351.8, 141.9 351.3, 131 353.7 M 726.5 359.5 L 724.7 364.1 720.3 363.4 C 717.4 363, 716 363.1, 716 363.9 C 716 364.5, 716.4 365, 717 365 C 719.4 365, 721.2 369.9, 720.1 373.1 C 718.7 377.2, 719.2 377.7, 721.9 374.9 C 724.1 372.5, 724.7 368.5, 723 367.5 C 721.3 366.4, 721.9 365.2, 724.5 364.6 C 725.9 364.2, 727.5 362.9, 727.9 361.7 C 728.8 359.5, 728.8 359.5, 729.9 362.3 C 730.5 363.8, 731.3 365, 731.8 365 C 732.3 365, 732.6 366.6, 732.6 368.5 C 732.5 371.6, 732.3 371.9, 730 371.4 C 727.7 370.9, 727.8 371.1, 731 373.9 C 735.9 378.2, 737.4 378, 735.5 373.4 C 733.5 368.6, 733.5 368.4, 737 366.3 C 740.9 364, 740.8 363, 736.6 363 C 732.9 363, 731.5 361.8, 730.5 357.7 C 729.5 353.9, 728.7 354.3, 726.5 359.5 M 143.3 357.9 C 143 359.1, 142.2 359.6, 141.4 359.3 C 140.6 359, 140 359.4, 140 360.4 C 140 362.5, 131.5 362.7, 130.7 360.6 C 130.1 359.2, 125.3 358.7, 124.5 360 C 124.2 360.4, 124.8 361.1, 125.7 361.5 C 126.7 361.8, 127.6 361.6, 127.8 361.1 C 128 360.5, 128.6 360.2, 129.1 360.6 C 131.5 362, 129.3 362.8, 121 363.5 C 116.1 363.9, 112 364.5, 112 365 C 112 365.4, 114.1 365.6, 116.8 365.4 C 127.6 364.6, 145.1 363.9, 154.3 363.9 C 163.9 363.8, 164 363.8, 164 361.4 C 164 359.9, 163.4 359, 162.5 359 C 161.7 359, 161 358.3, 161 357.5 C 161 356.7, 160.6 356, 160.2 356 C 159.8 356, 159.4 356.9, 159.4 358 C 159.4 359.1, 159.8 360, 160.2 360 C 160.6 360, 161 360.5, 161 361 C 161 363.3, 158.9 361.7, 158.4 359 C 157.6 355.5, 152.7 354.7, 150.4 357.8 C 149.1 359.4, 149.1 359.4, 149 357.8 C 149 355.2, 144 355.4, 143.3 357.9 M 166 360.1 C 166 361.2, 165.9 362.3, 165.8 362.8 C 165.6 363.2, 168.9 363.6, 173 363.7 C 177.1 363.8, 183.4 364.3, 187 364.8 C 194.5 365.9, 195.4 365.6, 192 363 C 186.9 359.1, 166 356.8, 166 360.1 M 615.5 367.7 C 613.3 373.7, 610.2 378.9, 607.3 381.6 C 606.1 382.8, 604.4 386.1, 603.6 389.1 L 602.1 394.5 602.1 390.5 C 602 388, 601.7 387, 601.2 387.8 C 600.4 389, 596.9 388.5, 597.1 387.1 C 597.1 386.8, 600.2 383.9, 603.9 380.8 C 607.7 377.6, 611 374, 611.3 372.8 C 611.8 370.7, 611.7 370.8, 609.8 373.3 C 608.7 374.9, 604.8 378.3, 601.1 381 C 591.6 388.1, 591.7 388, 593 389.5 C 594.2 391, 593.4 393.6, 591.5 394.4 C 590.6 394.7, 590.3 394.4, 590.6 393.6 C 590.9 392.8, 590.6 391.9, 589.9 391.4 C 589.2 391, 588.9 391.1, 589.4 391.8 C 589.7 392.3, 589.4 393, 588.8 393.3 C 587.8 393.7, 587.8 394, 588.7 395 C 590.2 396.6, 595 397.3, 595 395.9 C 595 393.7, 599 395.1, 599.6 397.6 C 600.4 400.7, 598.8 402.5, 594 403.8 L 590.5 404.8 595.2 404.9 C 597.8 405, 600.2 404.5, 600.6 403.9 C 601 403.1, 601.5 403.2, 602 404.1 C 602.6 405, 606.7 405.4, 617.1 405.5 C 627.1 405.6, 631.5 406, 631.8 406.8 C 632 407.6, 630.5 408, 626.8 408.1 C 582 409, 579.5 409.2, 579.5 412.1 C 579.5 412.9, 578.4 413.5, 576.7 413.6 C 575.2 413.7, 573.4 414.2, 572.7 414.9 C 571.9 415.7, 580.7 416, 608.6 416 C 628.9 416, 649.3 416.3, 654 416.7 L 662.5 417.3 660.5 415.1 C 657.5 411.6, 655.3 410.8, 652.9 412 C 650.2 413.5, 649.1 412.4, 651.6 410.6 C 653.3 409.3, 653.2 409.1, 649.5 408.6 C 647.3 408.2, 643.4 407.6, 640.8 407.1 C 637.8 406.6, 635.7 406.7, 635 407.4 C 634.5 407.9, 634 408.2, 633.9 408 C 633.8 406.9, 633.1 401, 632.5 395.5 C 632.1 392.2, 630.8 387.5, 629.5 385 C 628.2 382.5, 626.1 378, 624.7 375 C 623.4 372, 621.7 368.8, 620.8 368 C 620 367.2, 618.9 365.7, 618.4 364.7 C 617.5 363.1, 617.1 363.5, 615.5 367.7 M 233.5 365 C 233.8 365.5, 232.9 367.2, 231.5 368.7 C 228.8 371.5, 228.8 371.5, 229.5 369.1 C 230.1 367.1, 229.9 366.8, 228.6 367.3 C 227.7 367.7, 227 367.5, 227 367 C 227 366.4, 226.5 366, 225.9 366 C 225.1 366, 225.1 366.4, 225.9 367.4 C 226.5 368.1, 226.7 369.6, 226.3 370.5 C 225.9 371.8, 226 372.1, 226.8 371.6 C 228.8 370.4, 228.1 372.9, 225.9 375.1 C 223.5 377.5, 223.7 381.5, 226.2 381.5 C 227.1 381.5, 228.2 381.8, 228.6 382.2 C 228.9 382.6, 230 382, 230.9 380.9 C 232.5 378.9, 232.5 378.9, 234.6 380.8 C 236.8 382.9, 239 382.1, 240.3 379 C 240.7 377.8, 240.9 377.9, 240.9 379.4 C 241 380.6, 241.5 381, 242.6 380.6 C 243.5 380.3, 244.3 380, 244.5 380 C 244.7 380, 244.5 379, 244.2 377.8 C 243.7 375.6, 243.7 375.6, 245.4 377.2 C 246.3 378.2, 246.9 379.4, 246.5 379.9 C 245.6 381.5, 247.8 382.2, 250.1 380.9 C 252 379.9, 252.2 380, 251.7 381.3 C 251.3 382.4, 251.7 382.8, 253.1 382.7 C 255.3 382.6, 255.5 381.9, 253.8 380.1 C 253.1 379.4, 253 378.9, 253.5 379 C 258.6 380, 259 378.4, 254.9 374.2 C 253.2 372.4, 252.2 371, 252.8 371 C 254.9 371, 254.9 367.9, 252.8 366 C 250.4 363.8, 232.2 362.8, 233.5 365 M 132.2 370.4 C 131 373.2, 128.4 374.1, 129.4 371.4 C 129.9 370, 129.3 369.9, 124.5 370.4 C 121.5 370.7, 118.8 370.5, 118.5 369.9 C 115.8 365.7, 115.4 375.1, 116.7 415.3 C 117.2 431.9, 117.6 437, 118.6 437 C 119.3 437, 120.2 436.1, 120.5 434.9 C 120.9 433.8, 121.5 433.1, 121.8 433.4 C 122.1 433.8, 124 432.4, 126.1 430.4 C 128.1 428.4, 132.2 425.1, 135 423.1 C 138.6 420.7, 141.5 417.4, 144.1 413 C 151.4 401, 153.3 399.5, 154.5 405.1 C 154.9 406.8, 155.8 409.3, 156.6 410.8 C 157.4 412.3, 158 414, 158 414.6 C 158 415.2, 159.7 417.3, 161.7 419.3 C 163.7 421.4, 164.8 423, 164.2 423 C 161.6 423, 155.8 416.2, 153.6 410.7 L 151.3 404.9 147.7 411.8 C 145 416.9, 142.6 419.8, 138 423.4 C 134.7 426, 130.4 429.7, 128.4 431.6 L 124.7 435 127.4 435 C 128.8 435, 133.1 434, 136.8 432.7 C 140.9 431.4, 145.7 430.5, 149.2 430.6 C 152.3 430.6, 154.7 430.3, 154.4 429.8 C 153.6 428.5, 155.7 428.9, 163.3 431.4 C 167.3 432.7, 172.8 434.1, 175.5 434.5 L 180.5 435.1 176.5 431.6 C 174.3 429.6, 171.7 427.8, 170.8 427.4 C 169.8 427.1, 169 426.4, 169 425.9 C 169 425.4, 168.2 425, 167.3 425 C 166 425, 165.9 424.7, 166.7 423.9 C 167.6 423, 167.6 422.1, 166.6 420.1 C 164.4 415.7, 163.6 405, 165.5 405 C 166.3 405, 167 404.6, 167 404 C 167 403.5, 167.5 403, 168 403 C 168.7 403, 168.8 404.3, 168.4 406.5 C 168.1 408.5, 168.1 412.9, 168.4 416.3 C 169.1 422.5, 169.2 422.7, 174.7 427 L 180.3 431.4 179.7 414.4 C 179.2 400.9, 178.7 397.3, 177.5 396.4 C 175.9 395.2, 175.4 393.5, 177 394.5 C 177.6 394.8, 178 394.4, 178 393.6 C 178 392.7, 178.8 392, 179.8 392 C 181.2 391.9, 181.2 391.7, 179.2 390 C 177.9 388.9, 177.4 387.9, 178 387.5 C 178.5 387.2, 179 387.4, 179 387.9 C 179 388.5, 179.6 389, 180.4 389 C 181.6 389, 181.8 392.9, 181.9 411.3 C 182.1 433, 182.1 433.5, 184.3 435.2 C 189 438.9, 189 439, 189 406 C 189 375.7, 189 375, 187 375 C 185.9 375, 185 374.7, 185 374.2 C 185 373.8, 182.9 373.7, 180.4 373.9 C 177.7 374.1, 175.3 373.7, 174.7 373 C 173.8 372.1, 173.9 371.9, 175 372 C 179.6 372.7, 181.4 370.1, 177.5 368.6 C 176.7 368.3, 176.3 368.6, 176.6 369.3 C 176.9 370.2, 175.1 370.6, 169.5 370.6 C 164.7 370.7, 162 370.3, 162 369.6 C 162 369, 161.1 369.6, 160 371 C 158.5 373, 158 373.1, 158 371.8 C 158 369.5, 156.4 368.7, 154.2 369.9 C 152.9 370.6, 151.8 370.5, 150.4 369.6 C 148.1 368, 145 367.9, 143.3 369.3 C 142.4 369.9, 142 369.9, 142 369.1 C 142 368.5, 141.6 368, 141 368 C 140.5 368, 140 368.7, 140 369.7 C 140 371.2, 139.8 371.2, 138.1 369.6 C 135.8 367.5, 134.3 369.2, 136.5 371.3 C 137.3 372.2, 138 373.2, 138 373.6 C 138 374.8, 134.8 371.6, 134.1 369.7 C 133.5 368, 133.3 368.1, 132.2 370.4 M 618.5 374.3 C 617.7 377.4, 614.4 379.8, 613.7 377.7 C 613.5 377.1, 612.6 378.1, 611.7 380 C 610.8 381.9, 609.6 384.2, 609.1 385 C 607.7 387.3, 606.6 390.4, 607 391.5 C 607.1 392.1, 607.6 393.9, 608.1 395.5 C 608.8 398, 608.9 397.6, 608.6 393.7 C 608.3 389.8, 608.5 389, 609.7 389.4 C 610.8 389.9, 611 389.5, 610.5 387.9 C 610 386.4, 610.1 386, 610.9 386.4 C 611.5 386.8, 612 386.4, 612 385.6 C 612 384.7, 612.5 384, 613.1 384 C 613.6 384, 613.9 383.6, 613.6 383.1 C 613.1 382.4, 615.1 381, 616.6 381 C 617.5 381, 616.9 384.9, 616 385.5 C 615.4 385.9, 615 386.9, 615.1 387.8 C 615.4 390.8, 615 391.5, 613.9 390 C 613 388.8, 612.9 389, 613.3 390.8 C 613.8 392.9, 611.8 398.4, 610.1 399.4 C 609.1 400, 607.5 398.9, 606.2 396.5 C 605.1 394.6, 605.1 394.7, 605 397.1 C 605 398.7, 605.7 400, 606.7 400.4 C 608.4 401.1, 628 401.1, 629.1 400.4 C 630.9 399.4, 627.8 387.6, 624.3 382.2 C 622.2 379.1, 620.2 375.4, 619.9 374 L 619.3 371.5 618.5 374.3 M 148.7 380.8 C 147.8 382.8, 146.7 385.6, 146.2 387 C 144.1 392.5, 139.8 401.2, 137.5 404.6 C 135.6 407.4, 135 409.6, 135 413.6 C 135 421.4, 136.5 421, 137.9 412.8 C 138.8 407.4, 140.2 403.8, 143.4 398.5 C 145.8 394.6, 148.3 389.7, 148.9 387.7 C 150.1 384.1, 152 382.7, 152 385.4 C 152 386.1, 152.7 389.1, 153.6 391.9 C 155.3 397, 157.6 398, 156.7 393.1 C 154.9 383.8, 152.5 377, 151 377 C 150.7 377, 149.6 378.7, 148.7 380.8 M 618.1 378.3 C 618.6 380.6, 616.8 390.5, 615.6 391.9 C 614.8 393, 614.8 393.4, 615.8 393.8 C 616.8 394.1, 616.7 394.6, 615.4 396.1 C 613.5 398.2, 614.2 399.9, 616.3 398.2 C 617.2 397.4, 618 397.4, 618.7 398.1 C 619.4 398.8, 620.9 398.8, 623.1 398.3 C 626.1 397.5, 626.5 396.9, 626.8 393.9 C 627 391.3, 626.8 390.9, 626 392 C 625.2 393.2, 624.8 393.2, 624.2 392.2 C 623.7 391.5, 622.6 391.2, 621.7 391.6 C 619.8 392.3, 619.4 391, 621.1 389.3 C 621.9 388.5, 621.9 387.6, 621 386 C 620.4 384.8, 620.1 383.6, 620.4 383.3 C 621.4 382.3, 622.9 384.1, 623.5 387 C 623.9 388.7, 624.6 390, 625.1 390 C 626.3 390, 626.3 387.2, 625 385.7 C 620.9 380.9, 620 379.5, 620 378.3 C 620 377.6, 619.5 377, 619 377 C 618.4 377, 618 377.6, 618.1 378.3 M 629.5 380.6 C 631.4 385.1, 632 385.9, 632 383.7 C 632 381.8, 633.5 381.4, 634.5 383.1 C 634.9 383.7, 634.4 384.7, 633.4 385.5 C 631.8 386.6, 631.8 387.2, 632.8 389.5 C 633.5 390.9, 633.7 392.6, 633.4 393.2 C 633 393.8, 633.3 394.1, 634.1 393.8 C 634.9 393.5, 635.4 392.3, 635.2 391.2 C 635 389.7, 635.4 389, 636.4 389 C 637.3 389, 638 388.3, 638 387.4 C 638 385.1, 640.4 386.3, 640.8 388.8 C 641.1 390.5, 640.6 391, 639 391 C 636.9 391, 636.9 391, 638.9 393.1 C 641.3 395.7, 640.6 398, 637.4 398 C 635.4 398, 635 398.5, 635 400.9 C 635 403.6, 635.3 403.8, 640.6 404.4 C 648 405.3, 648.4 404.6, 641.6 403.1 C 637.5 402.2, 636.3 401.5, 636.7 400.4 C 637 399.7, 637.5 399.2, 637.9 399.4 C 638.3 399.7, 639.7 399, 641 397.9 C 643.1 396.3, 643.3 395.9, 642 395.1 C 640.7 394.2, 640.7 393.7, 642.3 391.1 C 644.5 387.3, 643.4 386.1, 629.2 377.6 C 628.2 377, 628.3 377.8, 629.5 380.6 M 218.7 385.4 C 212.8 386.4, 210.1 387.8, 210 390 C 210 390.9, 270.5 389.9, 271.4 389 C 271.8 388.6, 271 387.4, 269.5 386.4 C 266.3 384.3, 230.4 383.6, 218.7 385.4 M 214.3 392.9 C 211.5 393.3, 208.8 393.9, 208.3 394.3 C 207.3 395.4, 269.9 394, 272.5 392.9 C 274.8 392, 222 392, 214.3 392.9 M 233.1 396.7 L 211.7 397 212.3 405.3 C 212.7 409.8, 213 423.7, 213 436.3 C 213 458.1, 213.1 459, 214.9 459 C 216 459, 217.1 458.6, 217.4 458.1 C 217.8 457.6, 218.8 457.4, 219.9 457.7 C 222.8 458.4, 223.3 455.9, 223.8 437.1 C 224.2 422.7, 224 419.8, 222.9 420.2 C 221.9 420.5, 221.4 423, 221 428.1 L 220.6 435.5 220 426.5 C 219.5 417.6, 220.4 410.7, 222.3 408.2 C 224.7 405.1, 225.3 409.7, 225.4 432.5 L 225.5 456.2 229.3 455.6 C 231.4 455.2, 234.1 454.3, 235.3 453.6 C 239.2 451.1, 242 450.7, 242 452.5 C 242 454.2, 246.1 453.7, 246.8 451.9 C 247.4 450.4, 249.6 450.9, 254.1 453.5 C 261.5 457.7, 261.3 458.3, 260.9 437 C 260.5 419.3, 260.4 418, 258.6 418 C 257.5 418, 257 417.5, 257.3 416.7 C 257.6 415.9, 257.4 414.7, 256.9 413.9 C 256.2 412.8, 256 412.8, 256 413.8 C 256 414.5, 255.3 415.8, 254.5 416.7 C 253.1 418.1, 253 418, 253.6 415.4 C 255.9 405.8, 258.7 403.7, 261.4 409.4 C 262.7 412.2, 263 416.6, 263 433.8 C 263 455.6, 263.3 458, 265.6 458 C 266.4 458, 267 458.5, 267 459 C 267 459.6, 267.5 460, 268 460 C 268.7 460, 268.9 449.2, 268.8 428.3 L 268.5 396.5 261.5 396.5 C 257.7 396.4, 244.9 396.6, 233.1 396.7 M 67 402.7 C 67 404.5, 69.2 409, 70.2 409 C 70.6 409, 71 411.8, 71 415.2 L 71 421.4 68.1 418.2 C 64.5 414.3, 64 414.3, 60.2 417.5 C 58.5 418.9, 57 420, 56.7 420 C 55.9 420, 59 413.8, 60.8 411.8 C 62.2 410.2, 62.1 410, 60.7 410 C 59.7 410, 59 409.6, 59 409 C 59 408.5, 59.6 408.3, 60.4 408.6 C 61.8 409.2, 63.7 405.4, 62.6 404.3 C 62.3 403.9, 62 404.4, 62 405.2 C 62 407, 56.3 408.2, 51.7 407.3 C 47.8 406.5, 48.8 408.3, 53.5 410.6 C 57.4 412.4, 57.6 413, 55.6 416.8 C 54.8 418.3, 53.8 421.3, 53.4 423.5 L 52.7 427.4 57.7 423.2 C 63.7 418.1, 64.7 418, 69 422.5 C 73.8 427.4, 74.3 427, 73.5 419.1 L 72.8 412.1 76.1 411.8 C 80.8 411.4, 81.1 409, 76.5 409 C 72.9 409, 72.8 408.9, 73.4 406 C 73.9 403.1, 73.8 403, 71.4 403.6 C 69.7 404, 68.5 403.8, 67.9 402.9 C 67.3 402, 67 401.9, 67 402.7 M 236.2 414.3 C 230.9 425.3, 231.2 430, 236.5 419.5 L 238.5 415.6 239.1 419.1 L 239.6 422.5 240.5 418.6 L 241.3 414.7 243.1 417.1 C 244.1 418.4, 245.2 420.7, 245.5 422.3 C 246.2 425.2, 247 425.6, 248.7 423.9 C 250 422.6, 248.3 418.8, 243.7 412.3 C 239.8 406.8, 239.7 406.8, 236.2 414.3 M 573 420.1 C 578.3 421.5, 665.4 422, 664 420.6 C 663.2 419.8, 649 419.5, 616.2 419.3 C 585.8 419.2, 570.7 419.5, 573 420.1 M 598 424 C 588.8 424.6, 589.1 424.6, 604 424.9 C 612.5 425.1, 620.1 425.2, 620.8 425.1 C 621.4 425, 622 425.3, 622 425.7 C 622 426.1, 626.1 426.5, 631.1 426.6 C 637.7 426.7, 640.4 427.1, 641.1 428.1 C 641.8 429.2, 642 429.3, 642 428.2 C 642 427.1, 643.3 427, 647.8 427.5 C 652.7 428, 653.8 427.9, 655.3 426.2 C 657 424.4, 656.7 424.3, 641.9 423.7 C 625.4 422.9, 612.8 423, 598 424 M 581.2 496.7 C 581.5 564.9, 581.6 569.5, 583.2 569.8 C 584.9 570.1, 585 566.5, 585 508 C 585 473.9, 585.2 444.9, 585.6 443.6 C 586.1 441.4, 586.4 441.3, 589.2 442.2 C 593.1 443.6, 594.8 441.1, 594.1 435.3 C 594 434.6, 594.4 434, 595 434 C 595.5 434, 596 435.7, 596 437.8 C 596.1 440.3, 596.3 441, 596.9 440 C 597.3 439.2, 597.7 437.2, 597.6 435.6 C 597.5 433, 597.1 432.7, 593.8 432.3 C 590.1 432, 590 432, 590 435.4 C 590 437.6, 589.4 439, 588.4 439.4 C 585.6 440.5, 585.1 440.1, 585.2 437 C 585.3 433.3, 587 433, 587 436.7 C 587 440.2, 588.2 438.9, 588.5 435 C 588.7 433.2, 588.3 432, 587.6 432.1 C 585.1 432.4, 584 431.9, 584 430.5 C 584 429.7, 584.5 429, 585 429 C 585.6 429, 586 428.6, 586 428 C 586 427.5, 585.3 427, 584.4 427 C 583.4 427, 583 426.5, 583.4 425.5 C 583.7 424.6, 583.4 424, 582.4 424 C 581.1 424, 580.9 432.1, 581.2 496.7 M 624.3 428.7 C 623.6 428.9, 623 429.6, 623 430.1 C 623 430.7, 623.5 430.8, 624 430.5 C 625.2 429.8, 629 430.8, 629 431.8 C 629 432.2, 622.3 432.5, 614.1 432.5 L 599.3 432.5 599.2 437.5 C 599.1 448.1, 599.3 447.5, 597 445.5 C 595.9 444.5, 594.7 443.9, 594.4 444.2 C 594.1 444.5, 592.3 444.4, 590.4 444 L 586.9 443.2 587.4 459.3 C 587.7 468.2, 587.9 481.7, 587.9 489.3 C 588 504.2, 588.5 505.2, 593.8 501.4 C 595.9 500, 596 499.2, 596 486.4 C 596 478.1, 595.6 473, 595 473 C 594.5 473, 594 472.3, 594 471.5 C 594 470.6, 594.9 470, 596.4 470 C 601.5 470, 608 463.5, 614.3 452 C 617.6 446.1, 618.1 446.1, 620.9 451.9 C 622.1 454.6, 625.9 459.4, 629.2 462.6 C 642.9 475.9, 644.6 478, 641.4 478 C 637.3 478, 604.5 496.2, 598 502.1 L 595 504.9 595 516.5 L 595 528.1 605 520.3 C 610.5 516, 618.5 509.8, 622.7 506.5 C 626.9 503.2, 631.9 498.4, 633.9 495.8 C 637.8 490.6, 639.3 490.3, 636.8 495.3 C 634 500.9, 633.8 502.1, 633.9 519.5 C 633.9 528.9, 633.3 543.3, 632.5 551.5 C 631.2 566.4, 631.2 566.3, 631.7 534.1 L 632.3 501.8 622.4 509.4 C 601.2 525.9, 596.1 530.4, 594.9 533.9 C 593.9 536.9, 594.2 569.6, 595.2 570.5 C 596.3 571.5, 635.6 571.8, 636.7 570.9 C 637.7 570, 638 570.1, 638 571.1 C 638 572.1, 638.3 572.1, 639.1 571.3 C 639.8 570.6, 641.1 570.5, 642.5 571 L 644.8 571.9 645.3 549.7 C 646.2 514.6, 646.6 446.3, 645.9 444.3 C 645.5 443, 645.7 439.2, 646.3 438.3 C 646.8 437.6, 646.2 436.6, 644.8 435.9 C 642.7 434.8, 642.7 434.7, 644.5 433.4 C 647.2 431.4, 646.3 431.1, 637.2 430.9 C 631.7 430.8, 628.7 430.3, 627.9 429.4 C 626.7 427.9, 626.3 427.8, 624.3 428.7 M 648.2 501.5 C 648 570.7, 648 572, 649.9 572 C 651 572, 652.1 571.6, 652.4 571.2 C 652.7 570.8, 653.1 539, 653.4 500.7 L 653.9 431 651.2 431 L 648.4 431 648.2 501.5 M 137.6 435.7 C 137.5 435.8, 133.2 436.4, 128 437.1 C 111.2 439.2, 115.3 439.6, 151.3 439.6 C 177.1 439.5, 186.1 439.2, 184.6 438.5 C 180.7 436.5, 139.3 434, 137.6 435.7 M 361.2 442.6 C 360.5 444, 359.6 444.9, 359.1 444.6 C 357.6 443.6, 357 449.7, 356.1 479.2 C 355.6 495.1, 354.8 508.4, 354.5 509 C 354.2 509.5, 354.2 510.5, 354.5 511.1 C 354.9 511.7, 355.9 510.8, 356.8 509.1 C 357.8 507.3, 363.1 502.8, 369.5 498.4 C 380.2 490.9, 391.8 481, 389.9 481 C 389.4 481, 388.2 481.8, 387.2 482.8 C 382.9 487, 358.2 504.5, 357.5 503.8 C 357.3 503.6, 357.6 492, 358 478 C 358.7 456.2, 359.2 451.6, 360.9 446.6 C 363.1 440.5, 363.2 438, 361.2 442.6 M 127.5 441.9 C 112.9 442.6, 116.5 444, 133 444 C 154.7 444, 191.9 442.7, 191.4 441.9 C 190.9 441, 146.7 441.1, 127.5 441.9 M 301.3 442.3 C 300.7 442.9, 299.5 446, 298.6 449.1 C 296 457.4, 296 457.5, 288.4 457.5 C 280.1 457.6, 279.6 458.6, 285.5 463.8 C 290.5 468.2, 290.9 469.8, 288.3 477.1 C 286 483.5, 286.8 483.9, 294 479.6 C 301.5 475.2, 300.8 475.2, 307.8 479.9 C 314.6 484.6, 315.8 484.1, 314.2 476.9 C 312.4 469.4, 312.7 467.3, 315.6 465.3 C 325.6 458.3, 325.7 457.3, 316.1 456.8 C 309 456.5, 309.3 456.8, 306 447.3 C 303.7 440.8, 303 440.1, 301.3 442.3 M 456.6 444.1 C 455.8 445.3, 454 447, 452.7 447.9 L 450.2 449.5 453 452.8 C 456 456.4, 457.8 456.3, 463 452.1 L 465.5 450.1 462.7 448 C 461.2 446.8, 460 445.2, 460 444.5 C 460 442.1, 458.2 441.9, 456.6 444.1 M 117.8 446.8 C 117.6 447.2, 117.7 475.2, 118 509 C 118.5 568.4, 118.6 570.5, 120.4 570.8 C 123.2 571.3, 123.6 569.8, 122.9 561.3 C 122.5 557, 122.1 529.3, 122.1 499.8 C 122 447.2, 122 446, 120.1 446 C 119 446, 118 446.3, 117.8 446.8 M 124.1 473.3 C 124.2 488.2, 124.5 507.5, 124.9 516 L 125.5 531.5 131.8 523.2 C 138.1 514.7, 138.6 513.1, 138.1 504.8 C 138 502.7, 138.3 501, 138.8 501 C 141.8 501, 142.7 519.6, 141 548.5 L 140.4 560.5 140.2 542 C 140.1 531.8, 139.7 522.5, 139.4 521.3 C 138.8 519, 137 518.1, 137 520.1 C 137 520.7, 134.3 524.4, 131 528.4 L 125 535.7 125 553.2 L 125 570.7 146.6 571.4 C 160.5 571.8, 168.7 571.7, 169.5 571 C 170.3 570.4, 171 570.4, 171.8 571.2 C 172.6 572, 173.3 572, 174.3 571.2 C 175.3 570.4, 176 570.4, 176.7 571.1 C 177.3 571.7, 178.5 572, 179.5 571.8 C 182.1 571.3, 181.8 529.6, 179.2 526.4 C 178.3 525.2, 175 521.3, 172 517.7 L 166.5 511.1 157.3 520.2 C 152.2 525.3, 147.8 529.1, 147.4 528.7 C 147 528.3, 153.2 521.5, 161.1 513.4 C 169 505.4, 175.4 498.5, 175.3 498.1 C 175.2 497.7, 176.1 497.4, 177.3 497.4 C 179.4 497.5, 179.5 497.1, 180 485.7 L 180.5 473.9 175.3 465.7 C 172.4 461.2, 169.6 457.4, 169 457.2 C 167.5 456.7, 163.1 460.5, 157.8 466.8 C 153.6 471.7, 153.3 472.5, 154.7 473.5 C 156.2 474.6, 156.2 475, 154.8 478.1 C 153.9 480, 152.5 483.2, 151.7 485.2 C 150.8 487.4, 148.9 489.5, 147 490.5 C 142.9 492.6, 142.4 492, 145.5 488.6 C 148.2 485.7, 153 476.9, 153 474.9 C 153 472.3, 139.8 458, 137.4 458 C 136.8 458, 135.1 459.8, 133.6 462 C 132.2 464.2, 130.5 466, 130 466 C 128.8 466, 128.7 464.3, 129.8 463.8 C 130.2 463.7, 131.5 461.7, 132.7 459.5 C 135.8 453.7, 138.8 453.7, 143.1 459.2 C 147.1 464.3, 151.8 469, 152.8 469 C 153.2 469, 157 465.4, 161.3 461 C 165.6 456.6, 169.4 453, 169.8 453 C 170.3 453, 171.8 455.1, 173.2 457.8 C 177.9 466.3, 179.5 469, 180.1 469 C 181.2 469, 182 463, 182 454.4 L 182 446 153 446 L 124 446 124.1 473.3 M 183.5 477.3 C 183.5 494.4, 183.6 522.5, 183.8 539.7 L 184 570.8 186.8 570.1 L 189.5 569.4 189.5 550.2 C 189.5 539.6, 189.4 511.9, 189.2 488.5 L 189 446 186.3 446 L 183.5 446 183.5 477.3 M 300.6 452.6 C 298 459.5, 297.4 460, 291.6 460 L 286.5 460 290.3 463.5 C 294.4 467.3, 294.3 467, 293.1 470.2 C 290.2 478.1, 290.8 479.5, 295.4 475.5 C 299.9 471.6, 301.6 471.5, 306.2 474.9 C 311 478.5, 311.6 478.3, 310.1 473.9 C 308.1 468.2, 308.7 466.3, 313 463.9 C 317.8 461.2, 317.3 460, 311.4 460 C 307.5 460, 306.8 459.7, 305.9 457.3 C 305.2 455.7, 304.4 453.6, 303.9 452.5 C 303.5 451.4, 303 449.9, 302.8 449.1 C 302.6 448.3, 301.6 449.9, 300.6 452.6 M 614.8 455.7 C 612.2 461.1, 602 472, 599.6 472 C 598.2 472, 598 473.9, 598 485.4 L 598 498.8 606.2 493.4 C 610.7 490.4, 614.7 488, 615.2 488 C 615.7 488, 617.9 486.8, 620.3 485.3 C 622.6 483.8, 627.9 480.9, 632 478.9 L 639.5 475.2 631.1 467.4 C 626.5 463, 621.4 457.6, 619.9 455.2 L 617.2 450.9 614.8 455.7 M 504.1 454.9 C 492.3 455.3, 487.5 455.9, 487.2 456.8 C 486.9 457.7, 493.4 458, 517.4 458 C 545.2 458, 551.3 457.5, 548 455.5 C 546.5 454.6, 522.2 454.2, 504.1 454.9 M 232 457.2 C 218.8 460.6, 218 461, 225.5 460.2 C 229.4 459.8, 239.1 459.5, 247.3 459.5 C 255.4 459.5, 262 459.2, 262 458.8 C 262 458.3, 260.8 458, 259.3 458 C 257.7 458, 255.2 457.3, 253.6 456.5 C 249.8 454.5, 241.2 454.8, 232 457.2 M 227.3 462.9 C 219.5 463.2, 212.8 463.9, 212.3 464.4 C 211.8 464.9, 214.6 465, 218.9 464.6 C 223 464.3, 235.6 464.3, 246.9 464.7 L 267.5 465.5 255 466.5 C 248.1 467.1, 242 467.2, 241.4 466.8 C 240.9 466.4, 234.3 466.3, 226.9 466.7 L 213.5 467.3 213.5 511.6 C 213.5 536, 213.8 556, 214.1 556 C 215.1 556, 220 552, 227.5 545.2 C 237.2 536.2, 244.1 531.2, 247 530.8 C 249 530.6, 251.1 532.1, 257.8 539.2 C 270.4 552.5, 268.4 554.2, 255.6 541.1 C 249.6 535.1, 248.2 534.1, 246.1 534.7 C 244 535.2, 236.4 540.4, 234 543 C 232.1 545, 219 555.9, 216.8 557.3 C 214.2 558.9, 214 559.6, 214 565.4 L 214 571.7 216.8 571.2 C 218.3 571, 220.1 570.1, 220.8 569.2 C 221.7 568, 222.3 567.9, 223.1 568.7 C 223.7 569.3, 224.9 569.6, 225.6 569.3 C 226.4 569, 227 569.3, 227 570 C 227 570.7, 227.6 571, 228.4 570.7 C 229.2 570.4, 230.1 570.7, 230.4 571.3 C 230.9 572.2, 231.1 572.2, 231.6 571.3 C 232 570.4, 232.7 570.3, 234.1 571 C 235.4 571.7, 236 571.7, 236 571 C 236 569.4, 239 569.8, 239.6 571.5 C 240.1 572.6, 240.6 572.7, 241.4 572.1 C 242.8 570.9, 246.8 570.6, 252.3 571.3 C 254.3 571.6, 256 571.4, 256 570.8 C 256 570.3, 256.6 570.2, 257.3 570.7 C 260 572.4, 264.1 571.8, 264.9 569.7 L 265.7 567.5 266.4 569.8 C 266.8 571, 267.8 572, 268.7 572 C 270 572, 270.2 568.6, 269.8 544 C 269.7 528.6, 269.3 516, 269 516 C 268.7 516, 267.4 517.6, 266 519.6 C 263.4 523.5, 259.3 526.7, 258.3 525.7 C 258 525.3, 259.6 523.2, 261.9 521 C 266.4 516.6, 266.8 515.8, 264.3 516.1 C 257 517, 252.9 513.4, 247.5 501.2 L 245.6 496.8 243.8 499.2 C 242.9 500.5, 242 501.9, 242 502.4 C 241.9 506.5, 231.7 513.9, 226.1 514 C 224.1 514, 224.8 514.7, 229.7 518 C 236.1 522.3, 242.7 528.6, 241.8 529.5 C 241.5 529.8, 239.7 528.7, 237.9 527 C 236 525.3, 230.7 521.6, 226 518.8 C 221.3 516, 217.3 513.5, 217.1 513.3 C 215.9 512.4, 218.5 511.7, 222.7 511.8 C 229.6 512, 234.5 508.9, 240.2 500.7 C 242.7 496.9, 245.2 493.9, 245.5 493.9 C 245.9 493.9, 248.1 497.6, 250.4 502.1 C 252.7 506.7, 255.8 511.3, 257.3 512.3 C 259.8 514.2, 265.8 514.9, 268 513.5 C 269.6 512.5, 269.3 464, 267.8 463.5 C 265.1 462.7, 240.9 462.3, 227.3 462.9 M 486.5 463.3 C 485.3 467.2, 485 527, 486.2 527 C 486.9 527, 490.4 525.5, 493.9 523.7 L 500.4 520.5 500.6 501.5 C 500.7 491.1, 501.1 478.3, 501.5 473.3 L 502.3 464 497.2 464 C 494.4 464, 491 463.6, 489.5 463 C 487.6 462.3, 486.8 462.4, 486.5 463.3 M 523.7 463.1 C 512.8 463.5, 503.8 463.9, 503.6 464.1 C 503 464.8, 502.1 513.7, 502.7 515.9 L 503.2 518 506.1 516 C 507.6 514.9, 510.6 512.2, 512.6 510 C 517.4 505, 517.6 505, 522.9 510.5 C 525.3 513, 530 516.8, 533.4 519.1 L 539.5 523.2 540 494.2 C 540.3 478.2, 540.8 464.8, 541.3 464.4 C 541.7 464, 542 477.4, 542 494.2 L 542 524.7 544.5 525.8 C 545.9 526.5, 547.3 527, 547.6 527 C 547.8 527, 547.9 512.5, 547.8 494.8 C 547.5 463.3, 547.5 462.5, 545.5 462.5 C 544.4 462.5, 534.6 462.8, 523.7 463.1 M 727.5 476.3 C 726.9 477.7, 725.4 478.6, 723.5 478.8 L 720.6 479.2 722.9 480.9 C 724.9 482.5, 725.1 483, 724 484.9 C 722.5 487.9, 723.5 488.8, 726 486.5 C 727.3 485.3, 728.7 485, 730.4 485.4 C 732.4 485.9, 732.8 485.7, 732.4 484.5 C 732.1 483.7, 732.6 482.3, 733.6 481.3 C 735.2 479.6, 735.2 479.5, 732.9 479 C 731.4 478.6, 730.4 477.6, 730.2 476.2 C 729.8 473.4, 728.7 473.4, 727.5 476.3 M 672.4 501.8 C 670 508, 669.5 508.5, 665.1 508.8 C 660.3 509.2, 660.1 509.7, 663.8 513.3 C 665.5 514.9, 666.7 517.2, 666.8 519.2 C 667.1 523.4, 667.3 523.5, 672.1 522 C 675.9 520.7, 676.6 520.8, 680.1 522.7 C 684.4 525.1, 685.5 524.5, 684 520.5 C 682.8 517.2, 685 512.8, 688.9 510.9 C 691.4 509.6, 691.4 509.6, 686.5 509 C 680.1 508.3, 679.2 507.7, 676.8 502.4 C 674.5 497.1, 674.3 497, 672.4 501.8 M 173.6 504.4 C 168 509.5, 168 510.3, 174.5 517.5 C 176.9 520.3, 179 522.8, 179 523.3 C 179 523.7, 179.4 524, 179.9 524 C 180.4 524, 180.7 522.5, 180.6 520.8 C 180.4 519, 180.2 513.6, 180.1 508.8 C 180.1 503.9, 179.7 500, 179.3 500 C 178.8 500.1, 176.3 502, 173.6 504.4 M 673.6 505.6 C 673.2 506.8, 671.8 509, 670.4 510.5 C 668.7 512.4, 668.2 513.6, 668.9 514.4 C 669.5 515.1, 669.6 516.7, 669.3 518 C 668.8 520, 668.9 520.2, 670.6 519.5 C 674.6 517.8, 677.7 517.8, 679.3 519.5 C 680.9 521, 681 520.9, 681 517.9 C 681 516.1, 681.7 513.8, 682.7 512.8 C 684.2 511.1, 684.2 511, 681.8 511 C 679.4 511, 675.7 507.9, 674.8 505 C 674.4 503.9, 674.1 504, 673.6 505.6 M 589.3 505.7 L 587 506.1 587 538.1 L 587 570 590 570 L 593 570 593 537.5 C 593 519.6, 592.7 505.1, 592.3 505.1 C 591.8 505.2, 590.5 505.5, 589.3 505.7 M 213.3 573.8 C 203.6 574.5, 210.1 575.8, 226.8 576.5 C 253 577.6, 277.9 576.6, 275.9 574.5 C 275.3 574, 219.8 573.3, 213.3 573.8 M 578.5 573.9 C 576.9 576.6, 597.9 578.2, 629 577.8 C 652.6 577.5, 656.5 577.3, 656.8 576 C 657 574.6, 652.7 574.5, 620.8 574.5 C 600.8 574.5, 583.3 574.2, 581.8 573.7 C 580.3 573.3, 578.9 573.4, 578.5 573.9 M 114.1 574.9 C 111.7 576.4, 118.7 576.8, 154.2 576.9 C 187.9 577, 192 576.8, 192 574.9 C 192 573.7, 116 573.7, 114.1 574.9 M 348.5 575.1 C 347.7 576.3, 356.6 576.9, 385.6 577.6 C 414.3 578.3, 431.4 577.6, 430.8 575.8 C 430.4 574.7, 349.2 573.9, 348.5 575.1 M 220.4 580.1 C 219.8 581.1, 249.3 582, 261.6 581.3 C 281.5 580.2, 274.9 579.4, 247.4 579.4 C 232.8 579.5, 220.6 579.8, 220.4 580.1 M 470.4 580.4 C 470.1 581.2, 470.3 584.4, 470.9 587.6 C 472.5 595.8, 472.3 597.1, 469.5 600.4 C 464.4 606.4, 467.1 609.2, 480.1 611.4 C 492.4 613.5, 514.5 614.2, 530.5 613 C 560.7 610.9, 566 608.6, 566 597.6 C 566 591.5, 565 592.2, 563.9 599.2 C 563.3 602.7, 562.3 605, 560.9 606.1 C 555.7 610, 506.6 612.7, 488.2 610.1 C 484.5 609.5, 479 608.8, 475.8 608.5 C 469.3 607.8, 468.1 606.3, 470.7 601.9 C 472.1 599.6, 472.7 599.2, 473.5 600.3 C 474.6 601.7, 479.5 603.8, 482 603.9 C 482.8 603.9, 491.8 604.4, 502 605 C 523.6 606.2, 547.2 605.1, 553.3 602.5 C 555.4 601.6, 557.9 599.6, 558.8 598 C 559.7 596.3, 561.2 595, 561.9 595 C 562.9 595, 562.2 593.8, 560.2 591.7 C 556.9 588.3, 556.1 586.4, 558.3 587.3 C 559.4 587.7, 559.4 587.1, 558.6 584.5 C 557.7 581.6, 557.2 581.2, 554.5 581.6 C 527.1 585.3, 481.8 584.3, 473.8 579.9 C 471.5 578.7, 471 578.7, 470.4 580.4 M 135.2 580.7 C 132.4 581, 131 581.5, 131.3 582.3 C 131.5 583.1, 135.6 583.6, 144.1 583.8 C 156.4 584.1, 175.8 583, 171 582.2 C 169.6 582, 168.1 581.4, 167.6 580.9 C 166.6 580, 144.3 579.9, 135.2 580.7 M 592.8 580.7 C 595.9 581.1, 596 581.3, 594.4 582.5 C 591.3 584.7, 594.4 587.3, 599.2 586.5 C 601.3 586.1, 603 586.1, 603 586.5 C 603 588, 600.1 590, 598.7 589.4 C 595.8 588.3, 594.5 597, 597.2 599.5 C 597.9 600.2, 598 599.5, 597.5 597.3 C 596.6 593, 598.9 590.3, 602 592 C 604.2 593.2, 604.6 594.6, 603 595.2 C 601.6 595.6, 601.2 600.9, 602.5 601 C 603.1 601.1, 604 600.3, 604.5 599.3 C 605.1 598.3, 605.8 597.2, 606.3 596.9 C 606.7 596.6, 606.3 594.4, 605.5 592 C 604.5 589, 604.3 587.3, 605 586.6 C 605.7 585.9, 606 586.2, 606 587.6 C 606.1 590.4, 608.6 593.5, 609.6 591.9 C 610 591.2, 609.8 590.4, 609.2 590.2 C 607.3 589.6, 607.8 587.4, 610.3 585.7 C 612.4 584.2, 612.2 584.1, 605.8 584.1 C 602.1 584, 598.8 583.5, 598.4 582.9 C 597.9 582.1, 602.8 581.9, 615.6 582 C 636.2 582.3, 640.6 582, 630 581 C 622.2 580.2, 587 580, 592.8 580.7 M 63 585 C 60.4 588.3, 60 589.3, 61 590.5 C 62.6 592.5, 63.8 591.6, 66.1 586.6 C 67.5 583.4, 68 583, 68 584.8 C 68 586.1, 67.5 588, 66.9 589.2 C 65.7 591.5, 66.7 593.1, 68 591 C 68.8 589.7, 69 589.8, 69 591.3 C 69 592.2, 69.5 593, 70 593 C 70.6 593, 71 593.5, 71 594.1 C 71 594.7, 70.4 595, 69.6 594.7 C 68.8 594.4, 67.9 594.8, 67.6 595.6 C 67.1 596.8, 67.6 596.8, 70.8 595.5 C 72.8 594.6, 74.6 594.3, 74.8 594.9 C 75 595.4, 77 595.6, 79.3 595.4 L 83.5 594.9 80 596.4 C 78.1 597.2, 75.7 598.2, 74.8 598.6 C 73.8 598.9, 73 599.6, 73 600.1 C 73 600.5, 74.6 600.2, 76.5 599.4 C 80.4 597.8, 80.5 597.8, 78.7 601.1 C 76 606.2, 73.7 609.1, 72.6 608.7 C 71.8 608.4, 71.5 609.4, 71.8 611.9 C 72.1 615.1, 72 615.3, 70.9 613.5 C 68.8 610.1, 64.6 606.7, 65.5 609.3 C 65.9 610.1, 64.9 610.5, 62.6 610.6 C 59.6 610.7, 59.1 610.4, 58.6 607.9 C 58.1 605.2, 56 603.7, 56 606 C 56 607.5, 50.2 610.2, 49.5 609 C 49.2 608.4, 49.6 608, 50.4 608 C 51.3 608, 52 607.6, 52 607 C 52 606.5, 52.9 605.1, 54 604 L 56 602 52.8 600 C 51 598.9, 50.2 598, 51 598 C 51.9 598, 53.5 598.7, 54.7 599.5 C 55.9 600.3, 57.1 600.6, 57.4 600.1 C 58 599.2, 56.5 597.6, 54 596.7 C 52.8 596.3, 52.8 596.1, 54.2 596.1 C 55.1 596, 56.2 596.5, 56.5 597 C 57.5 598.6, 59.3 598.2, 58.6 596.5 C 58.3 595.6, 58.6 594.1, 59.2 593 C 60.8 590.4, 59.5 589.3, 57.2 591.3 C 56.1 592.4, 53.2 593, 48.7 593.2 L 42 593.5 46.4 598 C 51.9 603.4, 51.8 603.1, 47.4 608 C 45.4 610.2, 43.9 612.2, 44.2 612.5 C 45.1 613.4, 54.3 609.9, 55.6 608.3 C 56.3 607.3, 57.1 606.8, 57.5 607.1 C 57.8 607.5, 55.8 609.8, 52.9 612.4 C 49 615.9, 48.2 617.1, 49.3 617.6 C 51.3 618.3, 91.8 618.5, 206.5 618.2 C 257.7 618, 390.9 618, 502.5 618.1 C 614.2 618.2, 708.5 617.9, 712.2 617.5 C 720.2 616.6, 723.3 614.4, 716.4 614.5 C 713.6 614.5, 712 614.9, 712 615.8 C 712 617.3, 709.8 617.4, 708.2 615.8 C 707.3 614.9, 707 614.9, 707 615.9 C 707 616.6, 706.5 616.8, 706 616.5 C 705 615.9, 707.1 613, 708.5 613 C 709.9 613, 712.1 610, 711.5 608.9 C 711.1 608.3, 711.7 607.2, 712.9 606.4 C 714.8 605, 715 602.3, 713 603.5 C 712.6 603.8, 711.7 603.4, 711.1 602.7 C 710.3 601.6, 711 600.8, 714.1 599.1 C 719.9 595.8, 719.1 593.5, 712 593.4 C 704.5 593.2, 704.6 593.3, 707.5 590.5 C 709.2 588.7, 710 586.8, 710 584.4 L 710 581 707.3 582.7 C 705.4 584, 704.5 584.1, 704.2 583.2 C 703.7 581.7, 700.8 581.6, 699.2 583.2 C 698.3 584.1, 698 584, 698 582.5 C 698 581, 697.7 580.9, 696.8 581.8 C 695.9 582.7, 695.9 583.3, 696.8 584.2 C 698.2 585.6, 698.4 589, 697.1 589 C 696.6 589, 695.2 587.8, 694.1 586.3 C 692.6 584.3, 692.1 584, 692 585.1 C 692 586.1, 691.3 586.7, 690.3 586.6 C 687.7 586.4, 688.1 589.4, 690.8 589.8 C 693.8 590.3, 693.6 592, 690.6 592 C 687.2 592, 686.5 593.7, 689.5 594.4 C 690.9 594.8, 692 595.4, 692 595.9 C 692 596.4, 691.1 596.6, 690 596.3 C 687.6 595.7, 687.3 597.5, 689.6 598.4 C 692.3 599.4, 693 599.1, 694.1 596.3 L 695.1 593.5 696.8 596.3 C 698.7 599.4, 699.8 599.7, 700.6 597.5 C 701.1 596.3, 701.6 596.2, 702.6 597.1 C 703.7 598, 704 597.9, 704 596.4 C 704.1 594.6, 704.1 594.6, 705.1 596.3 C 705.6 597.2, 705.8 598.5, 705.5 599 C 705.2 599.6, 705.4 600, 705.9 600 C 706.5 600, 707 600.6, 707 601.4 C 707 602.2, 708 603.6, 709.2 604.4 L 711.3 605.9 708.7 607.1 C 706.6 608, 706.3 608.6, 707.1 609.7 C 708.9 611.7, 707.2 611.2, 705 609 C 703 607, 703 607, 705 607 C 706.1 607, 707 606.5, 707 605.9 C 707 605.2, 705.8 604.9, 704 605.2 C 700.7 605.7, 700.2 604.9, 702.4 603 C 703.2 602.4, 703.6 601.2, 703.3 600.4 C 702.6 598.5, 701 598.6, 701 600.6 C 701 601.9, 700.3 602.1, 697.6 601.7 C 693.6 601.1, 691.6 602.7, 692.2 606.2 C 692.6 608.5, 692.7 608.5, 693.8 605.8 C 695 603, 699.4 602.7, 698.3 605.6 C 698 606.4, 698.3 607.7, 699 608.5 C 699.7 609.3, 699.9 610.7, 699.6 611.6 C 698.7 614, 700.2 615.8, 701.2 613.4 C 701.8 611.8, 701.9 611.9, 701.7 614 C 701.3 618.2, 698.5 617.1, 698.2 612.5 C 697.7 607.3, 696.2 605.3, 694.4 607.7 C 692.8 609.8, 692.6 613.6, 694 614.5 C 695.2 615.2, 694.4 617, 692.9 617 C 692.4 617, 692 615.4, 692 613.6 C 692 611.3, 691.4 609.7, 690.3 609.1 C 688.8 608.2, 688.7 607.9, 689.9 607.1 C 690.7 606.6, 690.9 605.7, 690.5 604.9 C 689.3 603.1, 688.1 606.5, 688.2 611.5 C 688.2 614.9, 688.3 615.1, 689 613 C 689.8 610.6, 689.8 610.6, 689.9 613.7 L 690 616.8 684.3 616.3 C 679.4 616, 611.1 616, 522 616.4 C 473.9 616.6, 464.1 615.5, 464 609.7 C 464 608.7, 463.6 608.2, 463 608.5 C 462.4 608.9, 462 607.5, 462 605.1 C 462 601.2, 460.7 599.6, 459.8 602.3 C 458.9 604.9, 459.8 610.5, 461 610.2 C 461.8 610, 462 610.5, 461.6 611.6 C 461.2 612.7, 461.4 613.1, 462.4 612.7 C 463.5 612.3, 465 613.8, 465 615.3 C 465 616, 308.2 615.3, 307.3 614.7 C 305.2 613.4, 305.8 611, 308.3 611 C 310.5 610.9, 310.5 610.9, 308.5 609.2 C 307.3 608.2, 306.6 606.6, 306.8 605.3 C 307 604, 306.6 603, 305.9 603 C 305.1 603, 304.9 604.1, 305.3 606.3 C 306 611, 301.6 614.5, 299.8 610.6 C 297.9 606.3, 291.7 606.1, 293.3 610.4 C 294.2 612.7, 295.9 612.4, 295.3 610 C 295 608.9, 295.2 608, 295.7 608 C 297.2 608, 299 610.3, 299 612.2 C 299 614.5, 301.9 614.5, 303.6 612.3 C 304.8 610.6, 304.9 610.7, 305 612.8 C 305 614.8, 304 615.5, 301.6 615.1 C 301.1 615, 282.9 615, 261.1 615 C 173.4 615.3, 116.4 615.8, 95.2 616.4 C 77 617, 73 616.9, 73.7 615.8 C 74.1 615.1, 75.2 612.5, 76 610 C 77.2 606.3, 78 605.4, 80.5 604.9 C 82.2 604.5, 82.7 604.2, 81.6 604.1 C 79.3 604, 80.2 599.3, 82.8 597.4 C 89 592.9, 89.1 593.1, 80.3 593 L 72.1 593 71 588.8 C 68.9 580.2, 67.4 579.5, 63 585 M 225.9 583.8 C 225.3 585.2, 221 586.3, 221 585.1 C 221 584.5, 220.1 584, 218.9 584 C 217.1 584, 216.9 584.4, 217.5 587.3 C 218.3 591, 220 593.2, 220.7 591.3 C 221.2 589.9, 224 589.5, 224 590.8 C 223.9 592.6, 222.2 594, 220.7 593.5 C 219.7 593.1, 218.7 593.6, 217.9 595.2 C 217.2 596.5, 216 598, 215.1 598.7 C 213.7 599.8, 213.8 599.9, 215.8 600 C 217 600, 218 599.5, 218 598.9 C 218 598.3, 218.7 597.2, 219.5 596.4 C 220.8 595, 221 595.2, 221 597.8 C 221 600.5, 221.4 600.9, 225.4 601.9 C 232.3 603.6, 240.7 603.3, 241.4 601.4 C 242 599.9, 241.8 599.9, 240.3 601.1 C 238.8 602.4, 238.7 602.3, 239.4 600 C 239.8 598.6, 240.2 596.6, 240.3 595.5 C 240.6 592.1, 245.4 592.8, 245.8 596.3 C 246 597.8, 246.6 599, 247.2 599 C 247.8 599, 248 597.7, 247.8 596 C 247.3 592.6, 248.5 591.9, 249.5 595 C 249.9 596.3, 249.3 598.1, 247.9 600.2 L 245.6 603.3 256.8 602.7 C 262.9 602.4, 268.4 601.9, 268.9 601.6 C 270.2 600.8, 268.6 595.4, 267.1 595.8 C 265.5 596.1, 265.8 592.5, 267.5 591 C 268.3 590.3, 269 589.3, 269 588.7 C 269 588, 268.6 588, 267.8 588.8 C 265.5 591.1, 263.8 590.2, 265.5 587.6 C 266.5 586.2, 266.7 584.9, 266.2 584.6 C 265 583.9, 260.6 588.3, 260.4 590.2 C 260.4 590.9, 260.2 592.6, 260.1 594 C 259.9 596.5, 259.9 596.5, 258.3 594.5 C 256.8 592.6, 256.8 592.6, 257.4 595.4 C 258 598, 257.9 598.2, 256.6 597.1 C 254.6 595.4, 254.6 593.6, 256.5 592 C 257.6 591.1, 257.8 590.4, 257 589.6 C 256.5 589.1, 256 587.9, 256 587.1 C 256 585.8, 256.2 585.7, 256.9 586.9 C 257.4 587.6, 258.3 587.9, 258.9 587.5 C 259.8 587, 259.8 586.5, 258.9 585.4 C 258.1 584.4, 255 584, 246.9 584 L 236.1 584 234.3 587 C 232.4 590.3, 228.4 591.1, 227.3 588.4 C 226.5 586.2, 228.6 584.2, 230.2 585.8 C 231.8 587.4, 233 587.3, 233 585.5 C 233 584.7, 232.1 584, 231.1 584 C 230 584, 228.5 583.7, 227.7 583.4 C 226.9 583.1, 226.1 583.3, 225.9 583.8 M 643.4 584.1 C 642.6 585.4, 644.7 587.7, 645.7 586.6 C 646.1 586.2, 645.8 585.4, 645 584.9 C 643.9 584.1, 644.4 584, 647 584.4 C 651.8 585.3, 652.2 586, 652.7 593.4 C 653.1 598.4, 652.9 600, 651.8 600.1 C 651.1 600.1, 649.1 600.3, 647.3 600.6 C 645.5 600.8, 643.8 600.5, 643.5 600 C 643.1 599.4, 642.3 599.3, 641.7 599.7 C 640 600.7, 637.8 601, 635.9 600.4 C 634.2 599.9, 631.5 595, 632.9 595 C 633.4 595, 633.7 593.8, 633.7 592.3 C 633.6 590.7, 634.1 588.5, 634.8 587.4 C 636.3 584.5, 635.5 584, 629.8 584 C 624.8 584, 623.4 585.4, 627.2 586.6 L 629.4 587.3 627.1 589.2 C 624.4 591.3, 625.1 593, 628 591.2 C 629.2 590.5, 630.1 590.4, 630.5 591 C 630.9 591.6, 630.4 592.3, 629.5 592.6 C 628.6 593, 628.1 593.9, 628.4 594.7 C 629.2 596.6, 626.3 600.8, 624.2 601 C 623.3 601, 619.4 601.3, 615.6 601.6 C 610.9 602, 608.5 601.8, 608 601 C 607.5 600.2, 607.1 600.4, 606.6 601.6 C 606 603.2, 607.3 603.3, 627.2 602.7 C 638.9 602.3, 651.1 602, 654.2 602 L 659.9 602 658.4 597.8 C 657.6 595.4, 656.6 591.3, 656.2 588.6 L 655.5 583.6 649.8 583.3 C 646.5 583.2, 643.8 583.5, 643.4 584.1 M 355.3 585.6 C 357.3 586.2, 357.3 586.4, 356.1 588.8 C 354.4 591.9, 353.7 594.4, 353.6 598 C 353.5 601.1, 353.8 601.5, 356.3 601.8 C 357.8 602, 359 601.7, 359 601.1 C 359 600.5, 358.6 600, 358.2 600 C 356.3 600, 354.8 594.7, 356.4 593.8 C 357.2 593.3, 357.7 592.3, 357.4 591.6 C 357.1 590.8, 357.3 589.9, 357.8 589.6 C 358.3 589.3, 359 590.4, 359.2 592 C 359.5 593.6, 359.2 595.1, 358.7 595.3 C 358.2 595.4, 358.5 597.2, 359.3 599.1 L 360.8 602.7 375.1 603.4 C 388.9 604, 410.6 603.5, 419.9 602.4 L 424.2 601.8 423.7 598.2 C 423.2 595.4, 423.6 593.9, 425 592 C 426.5 590.1, 427 589.9, 427 591.2 C 427 592.1, 426.6 593.1, 426.1 593.5 C 425.5 593.8, 425.2 595.8, 425.3 598 C 425.4 601.5, 425.7 602, 427.8 602 C 429.5 602, 430 601.6, 429.7 600.5 C 429.3 599.7, 429.5 598.8, 430 598.5 C 430.6 598.1, 431 598.7, 431 599.7 C 431 601.2, 431.2 601.3, 432 600 C 433.7 597.4, 433.2 595.8, 431 596.5 C 429.9 596.8, 428.5 596.8, 428 596.5 C 426.3 595.5, 429 592.9, 431 593.5 C 431.9 593.8, 432.7 593.5, 432.7 592.8 C 432.7 592.1, 432.9 591.1, 433 590.5 C 433.8 587.3, 432.8 586.1, 428.9 585.5 C 425.9 585, 424.5 585.2, 423.8 586.1 C 423.1 587.2, 422.7 587.2, 422.3 586.3 C 422 585.3, 417.4 585.2, 402.7 585.6 C 370.3 586.5, 366.8 586.5, 366.3 585.8 C 365.6 584.6, 362 584.9, 362 586.1 C 362 586.8, 361.5 586.9, 360.8 586.3 C 360.1 585.8, 358.2 585.4, 356.5 585.3 C 354.9 585.2, 354.3 585.4, 355.3 585.6 M 490.1 588.6 C 487.9 591.1, 487.9 594, 490 594 C 490.7 594, 490.9 593.2, 490.5 592 C 490.2 590.9, 490.1 590, 490.4 590 C 491.4 590, 495 593.9, 495 595 C 495 596.6, 496.4 596.2, 498.7 594 C 500.5 592.4, 500.9 592.3, 501.4 593.6 C 501.7 594.4, 501.3 595.3, 500.5 595.6 C 498.1 596.6, 498.5 602.4, 501 601.7 C 502 601.4, 503.1 601.7, 503.4 602.4 C 503.7 603, 503.7 602, 503.4 600.3 C 502.7 596.1, 504.8 595.8, 505.7 600 C 506.2 603, 506.4 603, 511.6 602.9 C 516.5 602.7, 517 602.5, 517 600.3 C 517 599.1, 517.4 598, 517.9 598 C 519.4 598, 520.2 599.8, 519 600.5 C 517.3 601.6, 517.9 603, 520.1 603 C 521.2 603, 521.8 602.6, 521.5 602 C 521.2 601.5, 521.3 601, 521.9 601 C 522.4 601, 523.2 601.5, 523.5 602 C 524.4 603.4, 543 603.3, 543 601.9 C 543 601.3, 543.9 601.1, 545.1 601.5 C 547.1 602.2, 547.1 602.1, 545.5 599.6 C 543.7 596.9, 542 597, 542 599.8 C 541.9 601, 541.5 600.8, 540.5 599 C 539.7 597.6, 539.1 597.1, 539 597.9 C 539 598.9, 538.7 599, 537.7 598.1 C 536.7 597.3, 536 597.4, 535.2 598.2 C 533.8 599.6, 533.5 599.3, 532.6 595.5 C 532.1 593.1, 532.2 592.9, 533 594.3 C 534.4 596.4, 536 596.5, 536 594.4 C 536 593.3, 536.5 593, 537.6 593.4 C 538.7 593.8, 539 593.5, 538.8 592.2 C 538.7 591.3, 538.9 589.9, 539.4 589.2 C 539.8 588.5, 540 587.6, 539.7 587.3 C 538.7 586.4, 498.8 587, 497.1 588 C 495.7 588.8, 495.8 588.9, 497.5 589 C 499.3 589, 499.3 589.1, 497.7 590.8 C 495.7 592.7, 494 591.3, 494 587.8 C 494 585.3, 492.7 585.6, 490.1 588.6 M 282 599.3 C 275.3 605.6, 229.8 607.8, 215.5 602.6 C 213.3 601.7, 210.4 601.1, 209 601.1 C 206.5 601.1, 206.5 601.1, 208.5 602.6 C 221.7 612.9, 272.3 612.8, 282.1 602.4 C 284.5 599.8, 284.4 597.1, 282 599.3 M 571 601.4 C 571.1 605.6, 578.8 607.6, 602.1 609.6 C 625.9 611.5, 658.7 609.7, 662.2 606.3 C 663.9 604.6, 662.3 604.5, 624.2 604.4 C 587.1 604.4, 584.1 604.2, 577.8 602.3 C 573.4 601, 571 600.7, 571 601.4 M 345.1 602.7 C 349.6 610, 383.8 613.3, 415.9 609.5 C 430.1 607.8, 431.6 607.5, 432.4 605.4 C 432.9 604.1, 431.5 604, 420.7 604.7 C 398.3 606.2, 362.4 605.5, 355 603.5 C 343.6 600.4, 343.6 600.4, 345.1 602.7 M 719 610.9 C 719 611.6, 719.5 611.8, 720 611.5 C 721.5 610.6, 729 614.3, 731.8 617.3 L 734.1 619.7 711.3 620.4 C 698.8 620.8, 536.2 621, 350 620.8 C 49.8 620.5, 11.5 620.7, 11.2 622 C 10.9 623.5, 40.6 623.6, 682 624 C 740 624.1, 756 623.6, 756 621.9 C 756 621.4, 752 621, 747.2 621 C 738.7 621, 738.3 620.9, 735.4 617.9 C 730.1 612.4, 719 607.6, 719 610.9 M 11.5 646.9 C 11.2 647.4, 11.4 648.1, 11.9 648.4 C 13 649.1, 741.1 649.2, 741.8 648.5 C 742.1 648.2, 742 647.7, 741.6 647.3 C 740.5 646.1, 12.2 645.8, 11.5 646.9" stroke="none" fill="#1b1f3a" fill-rule="evenodd"/></svg>