<svg xmlns="http://www.w3.org/2000/svg" viewBox="0 0 768 768" version="1.1" preserveAspectRatio="xMidYMid meet"><path d="M 571 218 C 555.7 221.2, 544.7 225.4, 531.7 233.1 C 517.5 241.6, 498.5 258, 497.3 262.9 C 497 264.3, 494.3 268.1, 491.4 271.3 C 486.1 277.2, 479 290.2, 479 293.9 C 479 296.6, 479.4 296.5, 483.3 293.6 C 485.1 292.4, 487 291, 487.5 290.7 C 488.1 290.4, 488.5 293.7, 488.5 299.8 C 488.5 310.6, 490 314.9, 495.9 320.4 C 499.6 323.9, 500.8 323.4, 498.6 319.1 C 496.4 315, 496.6 307.2, 498.9 301.9 C 501.3 296.7, 506 291.9, 515.5 285.5 C 524.1 279.6, 523.5 280.1, 522.7 279.3 C 521.8 278.4, 512.6 283.5, 505.8 288.7 C 499.5 293.5, 495.8 297.8, 494 302.5 C 491.9 307.7, 490.5 302.6, 492 295.5 C 493.5 288.4, 498.2 282.8, 506.4 278.6 C 509.5 277, 512 275.5, 512 275.2 C 512 273.2, 496.5 279.4, 490 284 C 486.4 286.6, 485.6 286.5, 487.1 283.8 C 490.4 277.6, 502.4 265.7, 509.5 261.5 C 513.1 259.4, 516.3 257.2, 516.7 256.7 C 517.9 254.8, 510.8 257, 505.9 260 C 500.3 263.4, 499.8 263.2, 503.8 259.5 C 508.4 255, 515 251.7, 520.9 250.8 C 524 250.3, 526.9 249.5, 527.4 249 C 528.6 247.8, 524.4 246.8, 520.7 247.5 L 517.5 248.2 520 245.6 C 527.3 238.2, 553.8 226.3, 571.5 222.5 C 581.4 220.3, 604 220, 612 221.9 C 637.7 227.9, 654.4 236.6, 663.6 248.7 L 666.5 252.5 663.9 250.8 C 657.4 246.6, 645 240.2, 644.6 240.9 C 644.2 241.5, 655.2 248.8, 663.3 253.2 C 667.6 255.6, 669.1 257.8, 668.4 260.7 C 667.9 262.4, 668.4 263.7, 669.9 265.1 C 672.3 267.3, 672.7 269.2, 670.6 268.4 C 669.1 267.8, 664.8 273.8, 665.7 275.3 C 666 275.8, 667.5 274.9, 669 273.5 L 671.9 270.8 674.9 272.9 L 677.9 275 677.4 284.3 C 677 290.9, 677.1 293.1, 677.9 292 C 678.5 291.2, 679 289.4, 679 288 C 679 284, 681 277.8, 682.2 278.2 C 682.8 278.4, 684.1 281.9, 685.1 286 C 686.1 290.1, 687.4 294.3, 688 295.2 C 688.5 296.2, 689 297.7, 689 298.7 C 689 299.9, 689.3 300.1, 690 299.4 C 690.7 298.7, 690.6 296.5, 689.5 292.5 C 688.7 289.2, 688 285.1, 688 283.2 L 688 279.8 690.4 282.7 C 711.1 307.6, 707.1 352.6, 681.6 382.1 C 670.1 395.4, 652.7 405.5, 638 407.4 C 630.4 408.4, 630 406.8, 636.6 401.9 C 650.2 391.5, 654.8 386, 657 376.9 C 659.3 367.6, 653.5 356.4, 644.9 353.9 L 641.3 352.8 640.7 344.6 C 640 335, 637.3 324, 633.5 315 C 631.4 310, 630.9 307.5, 631.2 303.8 C 631.7 299.1, 630.8 297.4, 629.6 300.6 C 628.5 303.4, 629 309, 630.6 312.8 C 634.3 321.3, 638 338.8, 638 347.6 C 638 352.7, 638 352.8, 634.6 353.4 C 630.8 354.1, 627.1 357.8, 621.5 366.6 C 617.7 372.6, 615.8 373.2, 618.1 367.8 C 619.9 363.6, 620 343.4, 618.3 340.5 C 617.3 338.8, 617 340.3, 617 349 L 616.9 359.5 614.9 352.1 C 613.8 348.1, 612.3 343.6, 611.6 342.1 C 609.1 337.1, 607.6 326.4, 607.6 314.3 C 607.6 305.8, 607.3 302.3, 606.5 303.1 C 605.3 304.3, 605.1 328.7, 606.2 333.8 C 607.5 339.6, 604.8 337, 600.6 328.5 C 595.7 318.9, 594.5 320.7, 598.5 331.5 C 600.7 337.4, 595.8 329.6, 593 322.8 C 589 313.1, 587.5 311.9, 588.2 318.9 C 588.8 325.1, 588.2 325.6, 583.9 322.7 C 579.4 319.7, 575.3 313.4, 574.5 308.5 C 573.5 302.4, 572.9 300.9, 571.8 301.6 C 571.1 302, 571 304.5, 571.4 308.4 L 572 314.5 569 309.8 C 567.4 307.2, 565.8 304, 565.4 302.5 C 564.6 299.4, 563.4 298.5, 562.6 300.5 C 562 302.1, 563.7 307.8, 565.5 310 C 569.4 314.9, 567.2 313.5, 561.1 307.3 L 554 300 554 292.1 C 554 284.6, 554.7 281.9, 558.6 273.2 C 561.1 267.7, 559.4 268.4, 555.6 274.3 C 547.2 287.3, 547.7 299.5, 556.8 308.9 C 561.3 313.5, 570.8 320, 573.1 320 C 573.7 320, 575.6 321.1, 577.2 322.5 C 582.2 326.7, 587.9 329.3, 589.5 328 C 590.5 327.2, 590.9 327.5, 591.4 329.5 C 592.2 332.7, 599.4 340, 601.8 340 C 604.8 340.1, 607.9 343.6, 611.1 350.7 C 614.2 357.5, 614.4 361.1, 612.8 373 C 612.6 375, 613 375.6, 614.9 375.8 C 618.7 376.4, 621.7 374.1, 624.9 368.1 C 630.7 357.2, 636.9 354.2, 644.8 358.5 C 655.7 364.4, 656.6 377.8, 646.8 388.6 C 643.6 392.1, 635.3 394.7, 630.4 393.7 C 629 393.5, 627.7 393.7, 627.4 394.2 C 626.6 395.5, 628.9 398, 630.5 397.4 C 631.3 397.1, 632.6 397.2, 633.5 397.8 C 634.9 398.5, 634.7 398.9, 632.1 400 C 630.4 400.7, 627.9 402.6, 626.5 404.1 C 623.4 407.9, 622.8 407.8, 623.5 403.3 L 624.1 399.5 621 404.5 C 612.2 418.5, 594.6 425.6, 569.5 425.4 C 537.3 425.1, 508.7 407.9, 504 386.1 C 502.9 380.9, 503 379.6, 505 372.9 C 506.2 368.8, 507.7 363.6, 508.3 361.4 L 509.5 357.3 511.3 359.6 C 513.5 362.5, 517.1 362.7, 518.7 360.1 C 522.1 354.7, 520.6 344.9, 516.1 343.5 C 513.9 342.8, 513.3 340.6, 515 339.5 C 516.9 338.4, 519.9 340.1, 522 343.4 C 526.1 350.2, 524 360.3, 517.1 366.4 C 514.4 368.9, 514.4 371.2, 517.3 374.5 C 519.3 376.9, 519.8 377, 522.5 375.9 C 525.5 374.7, 525.5 374.6, 523 374.2 C 520.5 373.8, 517.8 371.1, 518.6 369.8 C 518.9 369.3, 521 368.9, 523.3 368.9 L 527.5 368.7 523.6 368.1 C 520 367.6, 519.8 367.4, 521.4 366.1 C 528.7 360.1, 528.1 343.1, 520.4 337.1 C 517.1 334.5, 514.8 334.4, 512.5 337 C 509.9 339.9, 509.5 339.6, 507.5 332.9 C 503.6 320, 505.5 314.6, 514.7 313.1 C 519.8 312.3, 519.9 309.6, 514.8 309.2 C 511.9 309, 510.5 309.5, 507.6 312.1 C 503.1 316, 502.1 315.3, 504 309.8 C 505.7 304.9, 507.3 304.3, 516.8 304.1 C 520.2 304, 523 303.6, 523 303.1 C 523 301.7, 512.9 300.9, 507.8 301.8 C 505.2 302.3, 502.9 302.5, 502.6 302.3 C 500.1 299.7, 499.3 320.8, 501.7 325.5 C 507.6 336.9, 508.2 354.1, 503.3 366.8 C 495.1 387.8, 502.2 403.3, 526.5 417.7 C 531.4 420.6, 539.1 424.2, 543.7 425.6 L 552 428.2 547.2 432 C 544.6 434.1, 540.9 438.1, 539 440.8 L 535.6 445.9 527 446.5 C 516.4 447.4, 512.1 449.6, 512.1 454 C 512.1 455.2, 512.3 455.1, 513.1 453.7 C 514.8 450.8, 520.7 449, 528.8 449 C 536.2 449, 536.3 448.9, 539.4 445.4 C 545.4 438.3, 551.1 432.9, 552 433.5 C 552.5 433.8, 553.2 435.5, 553.5 437.3 C 554.5 442, 558.5 450.3, 560.6 452.1 C 563.5 454.6, 571.8 457, 577.5 457 C 585.5 457, 594.9 453.8, 607.7 446.8 C 622 438.8, 623.4 438.4, 626.5 440.4 C 632.7 444.5, 641 468.2, 644.6 492 C 645.7 500, 652.4 525.3, 655 531.5 C 657.8 538.4, 666.2 566.9, 665.8 568.6 C 665.2 571.7, 654.8 576.3, 636.5 581.3 C 603.5 590.4, 567.4 585.7, 550.8 570.2 C 545.9 565.7, 547.1 564.7, 560.8 561.5 C 564.8 560.5, 568.3 559.4, 568.5 558.9 C 569.1 558.1, 569.7 546.6, 569.9 533.3 L 570 526.2 575.3 525.7 C 578.1 525.4, 585.8 524.7, 592.3 524.1 C 614.3 522.1, 626.6 515.5, 632.9 502.3 C 634.1 499.7, 635.5 496.7, 636.1 495.8 C 638.3 491.6, 640 477.2, 638.8 471.6 C 637.3 463.9, 636.4 465.3, 635.7 476.7 C 634.4 497.6, 625.3 511.2, 609.2 516.4 C 603.6 518.2, 585.7 520.2, 573.5 520.4 L 566.5 520.5 566.2 506.4 L 565.9 492.3 574 491.6 C 582.1 490.9, 587.9 489.4, 595.5 486 C 597.8 485, 601.5 483.5, 603.8 482.8 C 607.9 481.5, 609.4 480, 606.5 480 C 604.2 480, 604.7 478.3, 608.8 472.3 C 610.8 469.3, 613 466.1, 613.5 465.2 C 614.1 464.3, 614.9 463.2, 615.5 462.8 C 616 462.4, 616.1 461.8, 615.6 461.3 C 615.2 460.9, 612.8 462.7, 610.4 465.3 C 607.9 467.9, 605.7 470, 605.4 470 C 604.5 470, 605.1 463.5, 606.6 458.4 C 608.7 451.2, 607.8 449.3, 605.2 455.2 C 602.8 460.6, 601 469.4, 601 475.6 C 601 477.9, 600.4 480.2, 599.8 480.7 C 596.9 482.9, 578.2 488, 573.3 488 L 568.1 488 568.8 482.3 C 569.2 479.1, 569.5 474.7, 569.5 472.5 L 569.5 468.5 562 467.5 C 557.9 466.9, 552.4 465.8, 549.8 465 L 545 463.6 545 457 C 545 452.6, 544.5 449.7, 543.5 448.4 C 542.1 446.7, 542 447.3, 542.6 455.4 L 543.3 464.3 540 463.6 C 538.1 463.3, 536.4 462.6, 536.1 462.2 C 535.7 461.8, 533.6 461.4, 531.2 461.3 C 528.9 461.3, 526.4 460.7, 525.7 460.2 C 525 459.6, 522.8 458.9, 520.8 458.5 C 517.3 457.8, 517.1 457.6, 517.7 455.2 L 518.3 452.6 514.4 455.7 C 510 459.2, 505.6 460.7, 504.6 459.1 C 504.2 458.6, 504.8 457.5, 505.8 456.8 C 509.1 454.5, 513 447.9, 513 444.6 C 513 422.9, 487.7 424, 482.3 445.9 C 481.3 449.8, 479.9 450.7, 477.8 448.7 C 475.4 446.3, 465.9 442.5, 457.7 440.6 C 454.4 439.8, 451.4 441.3, 450.5 444 C 450.1 445.1, 449 446, 447.9 446 C 444.3 446, 437.1 449.9, 434.5 453.3 C 430.8 458.3, 431.3 460.4, 437.5 464.5 C 440.1 466.2, 442.2 466.5, 453.5 466.5 C 464.5 466.5, 467.2 466.9, 471 468.6 C 473.5 469.8, 476.6 471.2, 478 471.8 L 480.5 472.9 477.8 472.9 C 476.3 473, 473.6 473.6, 471.8 474.4 C 470 475.2, 464.5 477.3, 459.5 479 C 454.6 480.8, 449 482.9, 447.1 483.8 L 443.8 485.3 444.5 491.4 C 445 494.8, 445.6 501.3, 445.9 506 C 446.6 515.2, 446.3 514.9, 454.1 516.5 C 457.5 517.1, 458 519.6, 458 537 C 458 553, 457.7 552.5, 467.5 553.4 C 471.4 553.8, 476.2 554.6, 478.3 555.1 C 480.3 555.6, 484.8 556.5, 488.3 557 C 500.8 558.7, 526.7 563.3, 535.8 565.4 C 542 566.7, 548.8 572.1, 549 575.7 C 549 576.9, 544.9 597.6, 542.5 608 C 536.1 635.9, 536 639.4, 541.3 643.4 C 544.4 645.7, 551.3 649.1, 555.8 650.4 C 557.7 651.1, 558 651.8, 558 656.5 C 558 661.1, 557.7 662.1, 555.8 663.2 C 551 665.8, 542.4 669, 539.9 669 C 531.9 669, 521 678.3, 520.2 685.8 C 519.7 691.8, 522.5 694.7, 532.2 697.9 C 544.4 701.8, 550.8 701.7, 571.4 697 C 576.3 695.9, 580.5 695.2, 580.8 695.4 C 581 695.7, 580.6 698.4, 579.9 701.4 C 577.9 710.6, 580.6 713.6, 593.3 716.1 C 609.4 719.3, 627.1 716.3, 651 706.3 C 663.7 701, 665 698.8, 660.5 689.3 C 659.1 686.4, 657.1 680.7, 656.1 676.7 C 654.3 669.4, 651.8 663.6, 650 662.5 C 649.5 662.2, 649 660.4, 649 658.6 C 649 655.5, 649.6 654.9, 656.8 650.8 C 668.8 643.7, 668.8 643.8, 665.5 633.8 C 661.1 620.4, 659.2 608.6, 658.9 593.1 L 658.6 578.9 664.8 575.2 C 669.4 572.5, 671 571, 671 569.4 C 671 566.9, 660.1 531.8, 657 524.5 C 654 517.2, 648.6 494.7, 646.5 480 C 645.2 471.1, 640.1 455.2, 635.7 446.5 C 633.5 442.2, 619.5 428, 617.4 428 C 615.8 428, 607 423.8, 607 423.1 C 607 422.7, 611.4 419.9, 616.8 416.8 C 626.3 411.2, 626.6 411.1, 632.2 411.7 C 650.4 413.6, 679.6 396, 692.9 375.1 C 708.8 350, 712.3 317.1, 701.5 293.4 C 698.5 286.8, 698.5 287, 701.3 287 C 704 286.9, 707 284.8, 707 282.8 C 707 282, 708.1 280.3, 709.4 279 C 714.5 274.3, 716.2 264.2, 713.5 256.2 C 709.4 244.5, 702.5 238.3, 690.5 235.5 C 681.4 233.4, 678.2 233.6, 674.5 236.4 C 671.6 238.6, 670.5 240.5, 668.6 246.4 C 668 248.2, 667.8 248.2, 666.3 245.9 C 651.6 223.8, 606.5 210.6, 571 218 M 576 224.6 C 564.7 226.6, 547.1 232.8, 548.6 234.3 C 548.9 234.6, 550 234.5, 550.9 234 C 557.5 230.4, 577.1 227, 591 227 C 605.4 227, 626.4 230.8, 630.7 234.2 C 631.4 234.8, 632.5 235, 633.2 234.8 C 635.3 234.1, 625.3 228.9, 617.7 226.8 C 610.7 224.9, 582.8 223.4, 576 224.6 M 593.5 236.6 C 582.3 238.2, 572.6 242.3, 568.6 247 C 564.7 251.7, 565.5 252.6, 570.3 248.8 C 579 241.8, 591 239, 612.5 239 C 622.8 238.9, 626 238.7, 624.7 237.9 C 622.8 236.8, 598.9 235.8, 593.5 236.6 M 676.2 240.3 C 672.9 243.8, 672.2 247.6, 673 256.9 C 673.7 264.7, 673.9 265.3, 677.5 269 C 684.9 276.6, 697.6 280.4, 704 277 C 710.5 273.5, 712.1 261.1, 707.1 252.4 C 702.5 244.4, 694.9 239.9, 683.4 238.6 C 679 238.1, 678.1 238.3, 676.2 240.3 M 615 245.7 C 600.6 250.4, 588.4 265, 587.2 278.9 C 586.6 286.7, 588.4 286.6, 589.3 278.8 C 590.8 265.1, 602.9 251.8, 618.3 247 C 620.3 246.4, 622 245.7, 622 245.4 C 622 244.9, 616.9 245, 615 245.7 M 557.4 260.2 C 548.5 267.9, 543.6 274.1, 538.6 284 C 536.4 288.4, 535.4 298.3, 536.8 303.3 C 538.1 307.9, 537.3 308, 533.4 303.8 C 529.9 299.9, 527.4 294.7, 526.5 289.4 C 526.1 287.2, 525.7 284.9, 525.5 284.2 C 524.7 281.9, 506.2 294.8, 503.9 299.3 L 502.7 301.4 505.6 299.5 C 507.2 298.5, 508.9 297.3, 509.5 296.8 C 512.8 294, 522.6 287, 523.3 287 C 523.7 287, 524 288.3, 524 290 C 524 300.3, 533.8 313.5, 540.1 311.5 C 542.4 310.7, 542.4 310.9, 540.3 301.5 C 538.3 292.2, 539.6 286.8, 546 277.6 C 548.2 274.5, 550 271.5, 550 271.1 C 550 270.6, 552.8 267.6, 556.3 264.5 C 567 254.5, 568 250.9, 557.4 260.2 M 149.5 260 C 123.8 264.9, 102.3 278.6, 90 297.7 C 87 302.5, 86.6 302.8, 85.4 301.2 C 84.5 300.1, 83.8 299.9, 83.3 300.5 C 82.8 301.1, 80.7 302.7, 78.4 304.2 C 74.3 306.8, 74.3 306.8, 67.9 305.3 C 44.6 299.9, 24 323.8, 29 350.8 C 30.4 358.8, 34.6 369.1, 40.6 379.4 C 49.6 394.7, 51.1 399.5, 49.1 406.1 C 47.2 412.2, 42.2 417, 37.5 417 C 30.3 417, 27.8 420.6, 32.3 424.7 C 36.7 428.9, 49.2 432, 53.1 429.9 C 55.5 428.7, 56.9 429.5, 55.2 431.2 C 51.6 434.8, 56.7 435, 62.7 431.4 C 70.7 426.7, 75.3 418.1, 76.7 404.6 L 77.5 397.6 80.4 402.1 C 85.4 409.6, 93.1 417, 100 420.7 C 106.9 424.6, 114.7 430.3, 116.8 433.2 C 119.5 436.9, 131.7 441.4, 141.5 442.4 C 146.8 442.9, 152 444.7, 152 446.1 C 152 446.6, 149.7 448.1, 146.9 449.6 C 132.3 457, 126.5 468.1, 120.6 500.5 C 119.7 505.5, 118.5 511.3, 118 513.5 C 116.2 521.4, 114.1 532.6, 113 539.9 C 112.4 544, 111.8 547.6, 111.6 547.9 C 111.3 548.3, 110.2 555.1, 109 563 C 107.9 571, 106.2 580.8, 105.4 584.9 C 103.7 593.2, 104.2 594.5, 109.3 595.5 C 113.4 596.3, 117 598.1, 117 599.3 C 117 599.9, 118.4 604.6, 120 609.9 C 121.7 615.2, 123.9 623.6, 125 628.5 C 126.2 633.5, 127.3 638.5, 127.7 639.8 C 128 641.1, 127.2 644.2, 125.5 647.8 C 120.8 657.7, 119.8 660.9, 120.3 663.8 C 120.9 666.6, 119.4 676.9, 117.9 680.5 C 111.4 696.2, 112.2 699.7, 123.8 705.5 C 140.7 714, 170.9 715.9, 187.9 709.6 C 192.3 708, 197.6 707, 203.5 706.6 C 215.4 705.9, 223.8 702.6, 227.7 697.1 C 229.4 694.6, 227 686.3, 223.8 683.3 C 221.2 681, 214.7 678, 212 678 C 211.1 678, 208.3 676.5, 205.9 674.6 C 203.4 672.8, 199.9 670.4, 198 669.3 C 186.9 663.2, 184.8 654.2, 190.1 635 C 190.9 632.3, 191.4 623.7, 191.4 613.5 L 191.5 596.6 195.3 595.7 C 199.8 594.6, 205 589.7, 205 586.6 C 205 585.3, 204.5 581.8, 204 578.9 C 203 573.7, 202.1 563, 200 532.5 C 199.5 524.8, 198.8 517.1, 198.5 515.4 C 197.8 511.6, 200.5 510.7, 208.9 511.7 L 213.9 512.3 214.2 524.3 C 214.5 538, 213.8 536.8, 225 540.1 C 229.1 541.2, 235.7 543.2, 239.5 544.5 C 252.9 548.8, 265.5 552.8, 273 555 C 277.1 556.2, 281.4 557.5, 282.5 558 C 290.1 561.5, 296.8 562.7, 298.6 561.1 C 299.1 560.6, 302.9 559.2, 307 558 C 328 551.7, 335.8 549.3, 355.5 542.6 L 367.4 538.5 368.6 533.7 C 370.8 525.1, 372.9 473.7, 371.4 465.3 C 370.8 462.4, 370.6 462.2, 368.4 463.2 C 365.7 464.5, 365.2 466, 367.5 466 C 368.7 466, 369 467.8, 369 476 L 369 486 365.4 486 L 361.9 486 362.2 476 C 362.6 464.1, 363.3 464.5, 349.5 469.2 C 344.3 471, 339.7 472.1, 339.3 471.7 C 338.1 470.4, 340.5 467.5, 343.1 467.2 C 346.4 466.8, 359.1 463.1, 361.2 461.9 C 362.2 461.4, 364.1 461, 365.5 461 C 369.8 461, 368.3 458.4, 361.3 453.7 C 351.3 447.2, 350.6 446.9, 341.1 446.3 C 333.7 445.8, 331.7 446, 327.7 447.8 C 322.8 450, 321.8 451.5, 324.8 452.3 C 325.7 452.6, 324.6 452.8, 322.2 452.9 L 317.9 453 320 450.8 C 322.3 448.3, 322.4 447.7, 320.9 444.7 C 316.2 435.6, 307.2 434.5, 298.8 442 L 294.4 445.8 291.5 442.9 C 284.1 435.4, 272.2 437.8, 270.3 447.2 C 269.7 450.1, 269.7 450.1, 267.9 448.1 C 256 435.3, 233 435, 233 447.7 C 233 450.4, 238.2 456.6, 241.3 457.6 C 243.3 458.3, 243.1 458.5, 240 459.1 C 233.4 460.4, 219.5 464.7, 217.4 466 C 216.2 466.7, 214.7 469.2, 214 471.4 C 212.8 475.6, 210.4 479, 208.8 479 C 205.8 479, 199.1 472.2, 197.9 468 C 197 464.9, 195.1 462, 191.8 458.8 C 189.2 456.2, 187 453.6, 187 453.1 C 187 452.6, 190.3 451.9, 194.3 451.5 C 217.4 449.3, 239.1 436.5, 247.5 420 C 252.1 411, 252.3 399.8, 247.9 389.5 C 243.2 378.5, 243 362.7, 247.3 354.3 C 255.4 338.6, 256 319.1, 248.8 304 C 245 296.1, 237.4 286.9, 231 282.6 C 228.5 280.9, 228.5 280.9, 233.4 281.2 C 236.6 281.4, 238.4 281.1, 238.7 280.3 C 239 279.6, 238.6 279, 238 279 C 237.3 279, 235.4 278.4, 233.7 277.6 C 231.9 276.9, 226.7 274.8, 222 273 C 217.3 271.2, 212.2 269.1, 210.5 268.4 C 208.9 267.8, 204.8 266.4, 201.5 265.4 C 198.2 264.5, 194.8 263.1, 193.9 262.3 C 189.2 258.3, 164.9 257, 149.5 260 M 78.1 309.8 C 74 314.7, 76.4 326, 81.5 326 C 86 326, 88.9 312.9, 85.1 309.1 C 82.3 306.3, 80.8 306.4, 78.1 309.8 M 174 310.4 C 174 311.2, 174.4 312, 174.9 312.2 C 175.4 312.4, 176.1 314.4, 176.5 316.8 C 177.1 320.4, 176.9 320.9, 175.6 320.4 C 174.7 320.1, 174 320.3, 174 320.9 C 174 321.5, 174.5 322, 175 322 C 175.6 322, 176 322.9, 176 324 C 176 325.1, 175.6 326, 175 326 C 174.5 326, 174 326.7, 174 327.5 C 174 328.3, 174.5 329, 175 329 C 175.6 329, 176 329.8, 176 330.8 C 175.9 332.2, 175.7 332.2, 174.1 330.3 C 171.7 327.4, 170 327.4, 170 330.1 C 170 331.2, 170.5 331.8, 171 331.5 C 172.3 330.7, 173.4 333.5, 172.5 335.1 C 171.9 335.9, 171.4 335.7, 170.7 334.4 C 169.7 332.7, 169.6 332.7, 168.9 334.5 C 167.7 337.7, 167.9 339.6, 169.8 341.8 L 171.7 343.9 173 341.5 C 173.7 340.2, 174 338.4, 173.6 337.5 C 173.3 336.6, 173.4 336.1, 173.9 336.4 C 176.1 337.8, 178 323.3, 177 312.8 C 176.7 309.2, 174 307.1, 174 310.4 M 551.7 315.8 C 549.3 318.4, 550.8 319.5, 556.9 319.6 C 562.1 319.6, 562.5 319.8, 567.2 324.9 C 570.7 328.8, 572.4 330, 573.2 329.2 C 575.3 327.1, 572 322.2, 565.8 318 C 559.1 313.6, 554.4 312.8, 551.7 315.8 M 94.3 320 C 95.7 321.1, 97.1 322, 97.4 322 C 97.7 322, 99.1 323.2, 100.6 324.7 C 103 327.1, 103.4 327.2, 104.5 325.7 C 105.2 324.8, 106.1 324, 106.5 324 C 106.9 324, 106.7 324.7, 106 325.5 C 104.7 327.1, 105.4 332, 107 332 C 107.6 332, 108 332.7, 108 333.5 C 108 334.3, 108.4 335, 108.9 335 C 109.3 335, 109.5 336.2, 109.2 337.8 C 109 339.3, 109.1 340.1, 109.6 339.7 C 110 339.3, 111 340, 111.7 341.2 C 112.6 342.9, 112.9 343.1, 113 341.8 C 113 340.9, 112.3 339.4, 111.4 338.5 C 110.1 337.3, 110 336.6, 110.9 335.7 C 111.5 335.1, 112 333.9, 112 333.1 C 112 331.8, 111.8 331.8, 111.1 332.8 C 110.5 333.9, 110.1 333.8, 109.6 332.4 C 109.2 331.5, 109.4 330.2, 110 329.6 C 110.6 329, 110.4 328, 109.3 326.8 C 107.2 324.4, 108.1 324.5, 110.9 326.9 C 112.1 328, 112.6 329, 112 329.2 C 111.2 329.4, 111.4 330.4, 112.4 332.4 C 113.2 334, 113.6 335.9, 113.3 336.8 C 112.9 337.8, 113.1 338.1, 113.9 337.6 C 114.6 337.2, 114.8 335.9, 114.5 334.7 C 113.9 332.6, 113.9 332.5, 115.4 334.4 C 116.3 335.5, 117 337.2, 117 338.1 C 117 339.1, 117.5 340.2, 118 340.5 C 118.6 340.8, 119 341.9, 119 342.8 C 119 344.3, 118.8 344.3, 118 343 C 117.5 342.2, 117 342, 117 342.6 C 117 343.2, 117.7 344.3, 118.5 345 C 119.8 346.1, 120 345.8, 120 343.7 C 120 342.3, 119.6 340.8, 119 340.5 C 118.5 340.2, 118 339.2, 118 338.3 C 118 335.7, 114.8 330, 113.7 330.7 C 113.1 331.1, 112.9 330.7, 113.3 329.7 C 113.7 328.6, 112.4 326.7, 108.9 323.7 C 104 319.4, 100.4 318, 94.1 318 L 91.7 318 94.3 320 M 681.7 320.6 C 681.4 321, 681.5 322, 681.9 322.9 C 682.4 323.8, 683.1 326.5, 683.5 329 C 683.9 331.4, 684.6 334.1, 685.1 335 C 685.5 335.8, 686.4 339.4, 687 343 C 687.7 346.6, 688.5 351.4, 688.9 353.8 C 690.2 360.7, 692.4 361.8, 691.5 355 C 689.9 342.6, 683.2 319.1, 681.7 320.6 M 89.2 323.2 C 87.6 324.8, 87.7 327, 89.5 331.3 C 90.3 333.3, 91 336.1, 91 337.5 C 91 338.9, 91.5 340, 92.1 340 C 93.4 340, 92.9 349.9, 91.5 350.3 C 91 350.4, 90.2 348.9, 89.8 347 C 88.5 340.5, 85.2 328.5, 85 329.5 C 84.6 331.7, 85.2 338.6, 86 339.5 C 86.4 340.1, 87.1 342.9, 87.5 345.8 C 87.9 348.6, 88.5 351, 89 351 C 89.4 351, 90 352.8, 90.4 355 C 91 358.8, 93 360.7, 93 357.5 C 93 356.7, 92.6 356, 92 356 C 91.5 356, 91 355.2, 91 354.3 C 91 352.9, 91.3 353, 92.6 354.8 C 93.5 356.1, 94 358.1, 93.7 359.2 C 93.1 361.3, 96.3 368.2, 100.1 373 C 101.7 375.1, 102.1 375.3, 103 374 C 103.8 372.9, 103.9 373.1, 103.5 375.1 C 103 377.1, 103.4 378, 105.4 379.3 C 108.6 381.4, 109.6 381.5, 108 379.5 C 106.2 377.3, 107.6 376.4, 109.8 378.3 C 110.8 379.3, 112 379.7, 112.3 379.3 C 113.8 377.9, 112.9 380.5, 111.3 382.2 C 109.9 383.7, 109.9 384, 111.2 384 C 112.6 384, 115.5 377.1, 114.5 376.1 C 114.2 375.9, 114 376.2, 114 376.8 C 114 378.9, 109.8 378.1, 109.3 376 C 109 374.9, 108.4 374, 108 374 C 107.6 374, 107 374.9, 106.7 376 C 105.9 379.2, 104.3 378.3, 104.8 375 C 105.2 371.9, 104.2 371.2, 102.2 373.2 C 101.4 374, 101 374.1, 101 373.3 C 101 372.7, 101.7 371.5, 102.5 370.7 C 103.3 369.9, 103.6 368.9, 103.3 368.6 C 102.9 368.2, 102 369, 101.3 370.2 C 100.3 372, 100.1 372.2, 100 370.8 C 100 369.8, 99.6 369, 99 369 C 97.2 369, 94.8 361.8, 96.2 360.8 C 97.1 360.3, 97.1 360, 96.4 360 C 94.7 360, 94 354.8, 95.3 353.1 C 96.3 351.9, 96.2 351.8, 94.7 352.3 C 93.2 352.9, 93 352.5, 93.5 349.7 C 93.8 348, 94.1 344.9, 94.3 342.8 C 94.4 340.8, 94.8 339.4, 95.1 339.6 C 95.5 339.8, 95.5 342.1, 95.3 344.7 L 94.8 349.5 96.6 347 C 97.6 345.6, 98.9 344.1, 99.4 343.7 C 100 343.2, 99.5 343.2, 98.3 343.5 C 95.7 344.2, 95.4 343.3, 97.6 340.5 C 99 338.6, 99.1 338.6, 101.5 341.2 C 102.8 342.6, 103.6 344.1, 103.2 344.6 C 102.8 345, 103 345, 103.7 344.7 C 104.9 343.9, 104.3 340, 102.9 340 C 102.4 340, 102 339.3, 102 338.5 C 102 337.7, 102.4 337, 102.9 337 C 104.2 337, 106.3 339.8, 105.7 340.7 C 105.4 341.2, 105.8 342.4, 106.6 343.5 C 107.9 345.2, 108.2 345.3, 109.6 343.8 C 110.7 342.7, 110.8 342, 110.1 341.6 C 109.5 341.2, 109 341.4, 109 341.9 C 109 342.5, 108.5 343, 108 343 C 107.4 343, 107 342.4, 107.1 341.8 C 107.4 340.1, 104.9 335, 103.8 335 C 103.4 335, 103 334.4, 103 333.6 C 103 332.2, 92.5 322, 91.1 322 C 90.7 322, 89.9 322.5, 89.2 323.2 M 235.5 327.3 C 236 331.1, 235.8 332, 234.6 332 C 233.7 332, 233 332.7, 233 333.6 C 233 334.4, 232.5 334.8, 232 334.5 C 231.3 334.1, 231.3 333.3, 232 332 C 233.8 328.6, 233 327.5, 231 330.7 C 228.8 334.3, 221.9 339.7, 218.2 340.7 C 214.3 341.7, 212.8 339.3, 214.4 334.5 C 216.4 328.5, 217.1 324, 216 324 C 215.4 324, 215 324.6, 215 325.2 C 215 325.9, 213.4 328.8, 211.4 331.7 C 207.1 337.9, 202.6 340.3, 192.1 342 C 184.9 343.2, 184.5 343.2, 182.9 341.1 C 180.9 338.7, 181.1 338.4, 176.3 347.8 C 169.3 361.5, 157 374.9, 145 381.9 C 134.5 388.1, 134.4 388.2, 133 394.5 C 131.2 402.6, 130.7 402.8, 126.7 397.1 C 121.8 390.4, 118.9 388.6, 112.6 388.6 C 104.2 388.6, 98 394.1, 98 401.6 C 98 404.5, 101.1 411, 103.4 412.9 C 105 414.3, 105.1 413.5, 103.5 405.4 C 102.9 402.7, 104.6 396.9, 106.2 395.8 C 106.9 395.4, 109.4 395, 111.7 395 C 119.9 395, 124.7 402.4, 120.1 408.1 C 118.4 410.3, 118 410.3, 115.6 409.1 C 112.7 407.5, 112 404.6, 114.8 405.2 C 115.7 405.4, 116.4 406.2, 116.2 406.9 C 116.1 407.6, 116.5 408, 117.2 407.8 C 119.4 407, 119.3 401.3, 117.1 399.1 C 114.8 396.8, 109.1 396.3, 107.2 398.2 C 105.5 399.9, 105.7 411.1, 107.5 413.7 C 110.4 417.8, 121.3 420.2, 126.4 417.9 C 128.7 416.8, 129.3 417.1, 134.3 422.1 C 137.2 425.1, 142.6 429, 146.3 430.9 C 153.2 434.5, 154.6 437, 148.2 434.4 C 140 431, 137.4 429.5, 132.8 425.2 C 127.6 420.3, 126.6 420.9, 130.4 426.8 C 133.8 432.2, 135.5 433.5, 147.1 438.8 C 162.5 446, 164.9 446.5, 185.5 446.5 C 209.3 446.5, 220.3 442.9, 233.6 430.7 C 247.6 417.8, 249.7 407, 242.1 385.6 C 239.7 378.9, 239.5 373, 241.1 357.9 C 242.4 346.4, 241.2 338, 236.9 327.4 L 234.9 322.5 235.5 327.3 M 81.2 340.1 C 81 345.5, 84 354.3, 90.5 367.5 C 97.6 381.6, 99.8 384.4, 104.5 384.8 L 108.5 385.1 104.5 382.2 C 102.3 380.6, 99.7 378.3, 98.6 377.2 C 97.6 376, 96.3 375.3, 95.7 375.7 C 95.1 376, 95 375.8, 95.4 375.1 C 95.8 374.5, 94.8 371.8, 93.2 369.2 C 91.6 366.6, 88.9 360.7, 87 356 C 85.2 351.3, 83.3 346.6, 82.9 345.5 C 82.4 344.4, 81.9 341.7, 81.7 339.5 L 81.3 335.5 81.2 340.1 M 554.2 342 C 548.3 344.4, 544.9 364.3, 549.6 369.1 C 554.4 373.8, 561.9 368.1, 562.7 359.1 C 563.1 355.6, 562.6 353.4, 560.7 349.8 C 558 344.5, 558.4 343.9, 562.4 347.1 C 566.8 350.6, 569 356.1, 569 363.7 C 569.1 369.9, 569.2 370.3, 570.5 368.6 C 572.6 365.8, 572.5 354.8, 570.3 350.3 C 567.2 343.6, 559.8 339.8, 554.2 342 M 227.3 344.6 C 222.3 348.5, 223 349.7, 229.9 349.6 C 234.3 349.5, 236.3 350, 237.8 351.3 C 240.7 354, 241.6 351.6, 239 348 C 237.3 345.6, 232.3 342, 230.8 342 C 230.6 342, 229 343.2, 227.3 344.6 M 77.2 356.1 C 77.2 369.2, 78.4 376, 82.1 384 C 84.7 389.7, 93 402, 94.1 402 C 95.9 402, 94.9 399.3, 92 396.5 C 87.9 392.5, 88.2 391.4, 92.8 394.2 L 96.5 396.5 92.4 391.5 C 83.6 380.8, 79 368.6, 78 353.5 L 77.3 343.5 77.2 356.1 M 181.7 347 C 178.4 348, 175.6 351, 172.9 356.2 C 170 361.9, 170.8 365.4, 174 361.5 C 177.2 357.6, 181.7 355.5, 187.5 355 C 193.2 354.5, 193.5 354.4, 193.2 352 C 192.7 347.4, 187.6 345.1, 181.7 347 M 135.1 357.2 C 135 362.8, 134.6 367.2, 133.9 367.5 C 133.3 367.9, 133.2 369.4, 133.5 371.2 C 134 373.1, 133.8 374, 133.2 373.6 C 132.7 373.3, 131.9 373.7, 131.6 374.6 C 131.2 375.6, 131.4 375.9, 132.3 375.5 C 132.9 375.1, 132.8 375.4, 131.9 376.2 C 131 376.9, 129.9 378.6, 129.5 379.9 C 129.1 381.3, 127.7 383.5, 126.4 384.9 C 124 387.5, 123.2 389.6, 125 388.5 C 125.6 388.2, 126 388.5, 126 389.2 C 126 389.9, 127.6 388.1, 129.5 385.1 C 131.4 382.2, 133 379.2, 133 378.5 C 133 377.7, 133.4 376.8, 134 376.5 C 134.6 376.1, 134.7 376.6, 134.3 377.7 C 133.2 380.7, 134.6 378.8, 137.8 372.7 C 140.1 368.4, 140.8 366, 140.4 363.2 C 140.1 360.1, 140.2 359.9, 140.9 362 C 141.5 363.7, 141.8 363.9, 141.9 362.8 C 142 360.6, 145.1 356.9, 146.2 357.6 C 146.6 357.9, 147 359.6, 147 361.5 C 147 363.4, 147.5 365.2, 148.1 365.5 C 149.7 366.5, 150.5 365.1, 149.2 363.8 C 148.5 363.1, 148 361.8, 148 360.9 C 148 360, 147.3 357.9, 146.5 356.4 C 145.6 354.7, 145 354.2, 145 355.1 C 145 356, 143.4 357.5, 141.5 358.4 C 138.5 359.9, 138.1 360.4, 138.6 362.9 C 139 364.5, 138.7 367.5, 138 369.5 C 136.9 372.8, 136.7 373, 135.4 371.3 C 134.7 370.3, 134 369.1, 134 368.6 C 134 368, 134.6 368.4, 135.3 369.4 C 136.5 371, 136.6 370.5, 136.5 365.4 C 136.3 362.1, 136.7 358.9, 137.2 358.3 C 137.9 357.4, 137.9 357, 137.1 357 C 136.5 357, 136 356.1, 136 355 C 136 353.8, 136.7 353, 137.7 353 C 139.2 353, 139.2 352.9, 137.8 351.8 C 136.9 351.1, 136 349.8, 135.7 349 C 135.4 348.2, 135.1 351.9, 135.1 357.2 M 635.4 364.9 C 629.8 368.3, 628.6 373.7, 633 376 C 634.9 377, 635 376.9, 634.8 372.8 C 634.5 369, 634.8 368.5, 637.4 367.6 C 639.9 366.7, 640.5 366.9, 642.7 369.4 C 647.4 375, 642.8 385.4, 635 386.6 C 632.8 387, 630.5 387.9, 629.8 388.8 C 628.7 390.1, 628.9 390.3, 631.8 389.7 C 640.8 387.9, 645.9 383, 646.8 375.4 C 647.7 367.5, 641.1 361.4, 635.4 364.9 M 225 368.8 C 221.9 371.5, 221.6 372.2, 221.2 378.5 C 220.8 385.2, 222.8 392, 225.2 392 C 226.5 392, 226.2 391.1, 224.2 389 C 221.6 386.1, 222.8 374.4, 226 371.8 C 228.6 369.7, 231.1 369.5, 232.8 371.2 C 234.3 372.7, 234.4 374.4, 232.9 373.5 C 232.4 373.1, 230.8 373.1, 229.5 373.4 C 224.1 374.8, 224 388.9, 229.4 391 C 235.4 393.2, 237.9 389.6, 238.3 378.2 C 238.5 371.2, 238.3 370.7, 235.7 368.4 C 232 365.3, 229.2 365.4, 225 368.8 M 180.5 371 C 177.8 372.1, 174.4 375.9, 173.5 378.8 C 172.9 380.8, 173.4 380.6, 176.2 377.6 C 181.3 372, 186 371.6, 190.5 376.4 C 192.4 378.5, 194 381.1, 194 382.3 C 193.9 384.1, 193.5 383.8, 191.9 380.8 C 188.7 374.7, 185.3 373.6, 181.5 377.5 C 176.3 382.6, 180.3 393.9, 187.4 394.1 C 191.7 394.2, 184.7 396.1, 179.2 396.3 C 175.5 396.4, 173.7 396.1, 173 395 C 172.2 393.7, 172 393.7, 172 395.1 C 171.9 402.2, 192.8 397.8, 196 390 C 197.7 385.9, 196.8 377.6, 194.4 374.9 C 190.9 370.9, 184.8 369.2, 180.5 371 M 550.3 384.7 C 553 387.8, 548.7 389.5, 538.1 389.5 C 530.5 389.4, 529 389.1, 525.3 386.7 C 519 382.7, 520.1 388.3, 528.2 402.2 C 534 412, 541.3 412.7, 549.6 404.4 L 553.9 400.1 555.6 402.9 C 556.5 404.4, 558.1 406.2, 559.2 406.9 C 561 408, 561 407.9, 559.8 405.9 C 559.1 404.7, 557.9 402.8, 557.3 401.6 C 556.6 400.4, 556 396.1, 556 391.8 C 556 386.2, 555.6 384, 554.8 384 C 554.1 384, 552.4 383.7, 551 383.3 C 548.6 382.7, 548.6 382.7, 550.3 384.7 M 217.4 396.5 C 217.8 397.5, 217.3 398, 215.8 398 C 213 398, 214.6 399.5, 218.3 400.4 C 220.3 400.9, 221 400.7, 221 399.5 C 221 398.7, 221.7 398, 222.5 398 C 224.9 398, 224.3 403.3, 221.6 405.9 C 219.8 407.6, 218.3 408.1, 215.4 407.8 C 211.8 407.5, 211.5 407.3, 211.5 404.4 C 211.5 402.3, 211.1 401.4, 210.3 401.7 C 208.6 402.4, 208.6 407.4, 210.3 408.8 C 217.2 414.6, 232.3 404.6, 227.5 397.4 C 225.6 394.5, 216.3 393.7, 217.4 396.5 M 190.2 412.2 C 188.5 413.9, 188.7 424.5, 190.4 427.9 C 194 434.8, 203.2 439.6, 208 437 C 212.8 434.5, 219.9 424.6, 220 420.5 C 220 417.9, 221.8 416, 224.1 416 C 226.4 416, 227.6 414, 226 413 C 224.4 412, 220.2 413.7, 217.7 416.2 C 213.9 420, 193.4 416.9, 194.3 412.7 C 194.6 411.1, 191.7 410.7, 190.2 412.2 M 193 424.2 C 193 427.9, 197.9 433.8, 201.7 434.6 C 206.1 435.4, 208.8 434.3, 210.6 430.8 C 212.6 427, 212 426.5, 204 424.5 C 200.4 423.6, 196.5 422.6, 195.3 422.3 C 193.4 421.9, 193 422.2, 193 424.2 M 459.5 425.8 C 456.3 428.1, 451 440.3, 454 438.5 C 454.4 438.3, 455 436.4, 455.3 434.4 C 456.1 429.7, 459.3 427, 464 427 C 470.5 427, 474.8 432.1, 476.4 441.6 C 477.1 445.7, 479.5 449.8, 480.6 448.8 C 481.6 447.8, 477.8 433.7, 475.8 430.7 C 472.5 426, 463.1 423.1, 459.5 425.8 M 604 427 C 604 427.6, 603.1 428, 602.1 428 C 601 428, 599.9 428.4, 599.6 428.9 C 597.6 432.1, 578.4 434.4, 573.8 431.9 C 572.7 431.3, 571.6 431.1, 571.3 431.3 C 570.3 432.4, 573.1 435.8, 576 437 C 579.6 438.5, 593.5 437.9, 595.3 436.1 C 596.6 434.8, 598 434.6, 598 435.8 C 598 437.7, 591.5 440.2, 585.2 440.6 C 576.9 441.3, 572.4 439.3, 569.7 433.8 C 568 430.3, 567.5 430, 563.5 430 C 561.1 430, 558.4 429.7, 557.4 429.3 C 553.4 427.8, 559.2 445.1, 564.4 449.9 C 566.4 451.8, 568.4 452.4, 573.7 452.7 C 585.2 453.6, 589.7 452.1, 611.5 440.7 C 615.3 438.7, 619.2 437, 620.3 437 C 623.2 437, 621.2 435, 618.2 434.9 C 616.7 434.9, 616.1 434.6, 616.8 434.3 C 618.5 433.6, 618.3 432.3, 616.4 431.6 C 615.4 431.2, 612 433.1, 607 436.9 C 592 448.2, 579.9 451.6, 570.7 447 C 566.1 444.7, 562.3 439.6, 563.2 436.9 C 563.5 436, 564.2 436.6, 565.3 438.7 C 571.2 450, 587.4 448.6, 604.7 435.1 L 610.9 430.3 608 428.2 C 604.7 425.8, 604 425.5, 604 427 M 494.5 433.9 C 491.8 435.3, 489.6 437.5, 487.8 440.9 C 483.9 447.7, 484.3 448.9, 489 444.6 C 495.7 438.6, 503.3 440, 506.8 447.9 L 508.5 451.5 508.8 448 C 510.1 435.3, 503.9 429.2, 494.5 433.9 M 241 442.2 C 235.9 444.8, 234.7 447.9, 237.6 451.1 C 240.2 454, 247.8 457.9, 252.2 458.6 C 259.3 459.8, 257.3 462.1, 249.5 461.9 C 244.7 461.7, 231 464, 231 465 C 231 466, 253.3 465.1, 260 463.8 C 263 463.2, 268.4 462.2, 272 461.5 L 278.5 460.3 274 459.8 C 265.4 458.8, 252.1 455.7, 252.7 454.7 C 253 454.2, 252 454.1, 250.1 454.5 C 247.7 455, 247.1 454.9, 247.5 453.7 C 248 452.7, 247.4 452.4, 245.2 452.8 C 242 453.2, 236.2 449.2, 237.3 447.3 C 238.6 445.2, 244.9 443, 249.7 443 C 254.7 442.9, 254.2 441.8, 248.5 440.6 C 246.4 440.1, 244.2 440.6, 241 442.2 M 303.7 441.6 C 300.9 443.1, 296.7 448.9, 295.8 452.8 C 295.3 454.6, 295.6 455, 297.6 455 C 299.7 455, 299.9 454.6, 299.5 452.7 C 299 450.9, 299.5 449.9, 301.4 448.7 C 304.2 446.8, 306 448.1, 304 450.5 C 303.1 451.6, 303.1 452, 303.9 452 C 304.5 452, 305 451.6, 305 451.1 C 305 448.3, 316.3 445.7, 317.3 448.3 C 317.6 448.9, 317.9 448.5, 317.9 447.3 C 318.1 441.7, 309.7 438.3, 303.7 441.6 M 279.1 445.1 C 277.2 449.4, 277.1 454.4, 279 454.7 C 279.8 454.9, 281 454, 281.5 452.8 C 282.1 451.6, 284 449.6, 285.8 448.4 C 288.8 446.3, 288.9 446.1, 287.4 444.5 C 286.5 443.6, 285.1 443.1, 284.3 443.4 C 283.5 443.7, 283.2 443.5, 283.5 443 C 283.8 442.4, 283.3 442, 282.3 442 C 281.2 442, 279.9 443.3, 279.1 445.1 M 255.7 443.7 C 255.3 444, 252.5 444.7, 249.4 445.1 C 242.7 446, 239.3 448.4, 243.1 449.4 C 247.7 450.7, 252.6 451.9, 259 453.4 C 262.6 454.2, 266.6 455.2, 268 455.6 C 270.4 456.3, 270.3 456.1, 266.9 451.9 C 264.9 449.5, 262 446.8, 260.4 446 C 258.8 445.2, 257.2 444.2, 256.9 443.7 C 256.6 443.3, 256.1 443.3, 255.7 443.7 M 453.3 444.7 C 452.6 444.9, 452 445.9, 452 446.8 C 452 448.1, 451 448.5, 447.7 448.6 C 437.6 448.9, 432.5 456.2, 438.6 461.8 C 440.9 463.8, 442.1 464, 452.6 464 C 461.4 464, 464.1 463.7, 463.8 462.8 C 463.5 462.1, 462.5 461.3, 461.4 461.2 C 459.1 460.7, 452.8 454.1, 453.6 452.9 C 453.9 452.4, 453.6 452, 453.1 452 C 452.5 452, 452 451.5, 452 450.9 C 452 450.2, 454.2 452.1, 456.9 455 L 461.8 460.3 463.4 456.6 C 464.2 454.6, 465.7 452.7, 466.6 452.3 C 468.1 451.7, 468.1 451.6, 466.4 450.3 C 464.8 449.2, 465.2 449, 469.6 449 C 474.4 449, 474.4 449, 471.8 447.6 C 466.9 445, 456.5 443.4, 453.3 444.7 M 343.3 454 C 339.4 456.1, 335.2 458, 334.1 458.3 C 332.9 458.6, 332 459.3, 332 459.9 C 332 461.3, 336.7 461.4, 337.5 460 C 337.8 459.5, 338.9 459, 339.8 459 C 340.8 459, 343.3 458.1, 345.4 456.9 C 347.5 455.8, 349.7 455.1, 350.2 455.2 C 351.1 455.5, 344.6 459.1, 337.3 462.3 C 335.5 463.1, 335.4 463.5, 336.4 464.5 C 337.4 465.6, 338.8 465.5, 343.6 464.3 C 346.8 463.5, 352.4 462.2, 356 461.3 C 359.6 460.5, 362.9 459.5, 363.4 458.9 C 364.9 457.5, 361 455.1, 357.3 455 C 355.1 455, 354 454.5, 354 453.5 C 354 450.1, 350.6 450.3, 343.3 454 M 146.5 454 C 135 459.2, 130 470.8, 123 509 C 120.3 523.9, 119.5 527.8, 116.4 544 C 112.6 563.5, 112.3 561.9, 120 564 C 139.6 569.4, 171.7 569.4, 188.4 564 C 199.1 560.5, 198.4 562.7, 196.4 537.5 C 195.5 525.4, 194.6 515.3, 194.4 515.1 C 194.2 514.9, 192.8 515.3, 191.3 516.1 C 182.3 520.9, 154.4 513.7, 140.9 503 C 133.5 497, 136.2 496.3, 145.2 501.8 C 163.5 513, 183.8 516.1, 196.7 509.6 C 199.6 508.2, 202.4 507, 202.9 507 C 203.5 507, 203.5 505.7, 202.9 503.8 C 202.4 502, 201.5 497, 201 492.6 C 200.5 488.3, 199.9 484.5, 199.7 484.3 C 199.4 484.1, 196.2 484.4, 192.4 484.9 C 179.3 486.8, 171.8 486.9, 172.4 485.4 C 173 483.7, 171.6 483.6, 168.9 485 C 167.4 485.8, 167 485.7, 167 484.6 C 167 483.8, 167.9 482.8, 169 482.5 C 172 481.5, 171.5 480.6, 164.8 474.6 C 161.4 471.6, 158.9 468.8, 159.2 468.5 C 160.3 467.4, 167.5 472.6, 171.6 477.5 C 175 481.6, 176.2 482.3, 180.2 482.7 C 186.7 483.5, 192 482.3, 192 480.2 C 192 478.7, 190.9 478.5, 184 478.5 C 177.8 478.5, 175.7 478.1, 174.3 476.8 C 172.2 474.6, 173.1 473.5, 175.8 474.9 C 178.7 476.4, 188.5 476.3, 189.8 474.7 C 191.5 472.7, 191.7 464.7, 190.1 463.4 C 188.9 462.5, 188.2 462.7, 186.9 464.4 C 185.5 466.1, 184.2 466.5, 179.3 466.4 C 172.6 466.3, 169.5 464.9, 159.5 457.4 C 151.5 451.4, 152 451.5, 146.5 454 M 468.2 454.3 C 463.9 458.9, 466.1 464, 474.2 468.1 C 477.5 469.8, 478.8 470, 480.7 469.1 C 482 468.5, 484.5 468, 486.1 468 C 487.8 468, 490 467.5, 491.2 466.9 C 493.2 465.8, 493.2 465.8, 490.5 463 C 487.1 459.4, 483 458.4, 479.3 460.2 C 476 461.8, 475.3 464.2, 477.5 466.4 C 478.4 467.3, 478.7 468, 478.1 468 C 476.4 468, 473 464.2, 473 462.4 C 473 461.6, 474.3 459.5, 475.9 457.9 C 478.9 454.9, 477.9 453.9, 473.8 456.1 C 472.7 456.7, 471.5 456.9, 471.2 456.5 C 470.3 455.6, 473.8 453.7, 477.5 452.9 C 479.9 452.4, 479.5 452.2, 475.4 452.1 C 471.3 452, 469.9 452.4, 468.2 454.3 M 163 456.5 C 171.2 462.5, 181.2 465.2, 184.2 462.2 C 185.3 461.1, 185.2 460.6, 183.8 459.6 C 182.8 458.9, 182.3 458, 182.7 457.7 C 183 457.3, 181.1 457, 178.4 457 C 175.7 457, 171 456.3, 168 455.5 C 160.2 453.4, 159.1 453.6, 163 456.5 M 272.7 463.7 C 268.4 465.1, 265.1 466.5, 265.4 466.7 C 266.7 468.1, 281 468.8, 286.3 467.8 C 293.1 466.5, 293.6 464.9, 288 462.6 C 282.9 460.6, 282.1 460.6, 272.7 463.7 M 516 462.5 L 519.5 463.8 515.3 463.9 C 511.7 464, 510.9 464.4, 509.6 467.2 C 507.9 470.5, 508.8 473, 511.6 473 C 513.3 473, 513.5 470, 511.8 469.9 C 511.1 469.9, 514 468.7, 518.3 467.4 C 522.5 466, 526 464.6, 526 464.2 C 526 462.9, 519.7 461, 515.9 461.1 L 512.5 461.2 516 462.5 M 316.6 462.7 C 316.2 463.1, 313.5 463.7, 310.7 464 L 305.5 464.6 311.5 465.9 C 314.8 466.5, 319.3 467.6, 321.5 468.3 L 325.5 469.5 325.8 483.9 L 326.1 498.3 329.7 497.7 C 335 496.8, 335.2 496.5, 335.7 480.8 L 336.3 466.5 333.9 465.3 C 329.7 463.2, 317.9 461.4, 316.6 462.7 M 260.3 469.8 C 259.9 471.6, 258.6 471.9, 248.4 472.5 C 240.2 473, 237 473.6, 237 474.5 C 237 475.5, 238 475.6, 240.8 475 C 242.8 474.5, 247.9 474, 252 473.8 L 259.5 473.5 259.2 484.6 C 258.9 495.3, 259 495.9, 261.2 497.4 C 265.3 500.3, 265.5 499.7, 265.3 483.8 C 265.1 469, 265.1 468.5, 263 468.2 C 261.5 467.9, 260.7 468.5, 260.3 469.8 M 302 469.1 L 299.5 470.1 302.7 471.5 C 304.5 472.3, 307.5 473.6, 309.4 474.5 C 312.7 476.1, 313.2 476.1, 317.5 474.4 C 323.2 472.3, 322.5 471.5, 313.2 469.5 C 304.8 467.8, 305.3 467.8, 302 469.1 M 357 469.9 C 357 470.4, 356.2 470.7, 355.3 470.6 C 353.7 470.5, 353.5 471.5, 353.6 478.8 C 353.7 488.1, 354.5 489.7, 357.8 487.4 C 359.8 486.1, 361.1 482.2, 359.2 483.4 C 358.8 483.6, 358.6 480.5, 358.8 476.4 C 359.1 471.4, 358.9 469, 358.1 469 C 357.5 469, 357 469.4, 357 469.9 M 546 469.9 L 541.5 470.5 545.5 471.3 C 552.1 472.6, 557.8 475.9, 560.9 480.2 C 564.4 485, 565.1 484.2, 565.4 475.9 L 565.5 470.8 562 470.6 C 560.1 470.4, 556.7 470.1, 554.5 469.8 C 552.3 469.5, 548.5 469.5, 546 469.9 M 288 471.9 C 288 472.5, 288.6 473, 289.4 473 C 290.2 473, 292.2 473.8, 293.9 474.8 C 297 476.5, 297.9 478, 296 478 C 295.5 478, 295 477.6, 295 477.2 C 295 474.7, 270 470.6, 268.5 473 C 267.7 474.3, 277.9 478.8, 286.2 480.7 C 292.5 482.1, 293.4 482.1, 299 480.4 C 307.6 477.8, 308.2 476.6, 302.3 473.9 C 296.8 471.4, 288 470.1, 288 471.9 M 229.5 472.7 C 217.7 473.6, 217.2 473.9, 213.8 478.8 C 210.8 483.1, 210.5 484.1, 210.7 490.2 C 210.9 500.2, 211.1 500.5, 218.4 501.8 C 226.5 503.3, 233.1 503.3, 236.7 501.8 C 239.4 500.6, 239.3 500.6, 234 500 C 226.7 499.3, 227.8 497.4, 235.3 497.8 C 241.2 498.2, 244.3 496.9, 243.4 494.7 C 243.1 494, 240.5 493.5, 236.5 493.5 C 227.2 493.4, 226 491.4, 234.8 490.8 C 242.3 490.2, 244.2 489.6, 243.4 487.7 C 243.1 486.9, 240.9 486.6, 236.5 486.8 C 223.1 487.5, 231 484.3, 248.5 481.9 C 257.1 480.7, 258 480.4, 258 478.8 C 258 477.5, 244.8 478.5, 241.8 480.1 C 238.9 481.7, 224.8 481.8, 224.3 480.3 C 224 479.6, 224.5 479, 225.4 479 C 227.8 479, 234 475, 234 473.4 C 234 472.6, 233.9 472.1, 233.8 472.2 C 233.6 472.3, 231.7 472.5, 229.5 472.7 M 342.8 474.1 C 341.7 474.7, 341.3 475.7, 341.7 476.7 C 342.1 477.7, 341.9 478.1, 341.2 477.6 C 340.5 477.2, 339.9 478.6, 339.5 481.7 C 339.2 484.4, 338.7 488.4, 338.4 490.8 C 337.8 495.4, 338.9 496.1, 341.8 493.2 C 342.7 492.3, 344.3 491.6, 345.3 491.8 C 347.1 492.2, 346.9 486.8, 344.9 481.3 C 344.4 480, 344.3 477.7, 344.7 476 C 345.3 472.7, 345.2 472.6, 342.8 474.1 M 316.5 477.2 C 306.2 481.4, 307 480.4, 307 489.4 C 307 493.9, 306.6 499.2, 306.1 501.3 C 305 505.8, 305.1 505.8, 315.2 502.4 L 323 499.8 323 487.4 C 323 480.6, 322.7 475, 322.3 475.1 C 321.8 475.2, 319.3 476.1, 316.5 477.2 M 538.7 478.5 C 537.2 479.9, 534.7 481, 533.2 481 C 530.8 481, 531 481.3, 535.2 483.9 C 543.1 488.9, 543.2 491.6, 535.4 487.5 C 528 483.6, 523.1 483.2, 519.8 486.3 C 516.3 489.6, 516.9 489.9, 528.8 491.1 C 534.1 491.6, 539.6 492.5, 540.9 493.1 C 542.8 493.9, 544.6 493.4, 550.6 490.4 C 559.8 485.9, 560.6 485, 557.9 482.2 C 552.3 476.1, 543.4 474.4, 538.7 478.5 M 268.4 488.6 C 268.7 494.6, 269 500.1, 269 500.8 C 269 502.1, 277 506, 279.6 506 C 280.7 506, 281 503.7, 281 494 L 281 482 277.3 480.4 C 275.2 479.6, 272.2 478.6, 270.6 478.3 L 267.7 477.7 268.4 488.6 M 468.4 479.7 C 463.3 481.5, 461.4 483.4, 465.5 482.7 C 467.1 482.4, 472.3 482.7, 477.1 483.3 C 483.8 484.1, 487.1 484.1, 491.4 483.1 C 498.6 481.5, 497.8 480.4, 488.8 479.5 C 477 478.3, 472.4 478.3, 468.4 479.7 M 299.7 483.3 C 298.3 484.4, 297.4 496.2, 297.9 507.7 C 298 508.7, 298.6 508.7, 300.5 507.8 C 303.4 506.5, 303.8 504.5, 304.2 491.2 C 304.5 481.5, 303.8 480.2, 299.7 483.3 M 283 494.8 C 283 507.9, 283.6 509, 290.9 509 C 293.7 509, 293.7 508.9, 294.4 501.3 C 294.7 497.1, 295 491.6, 295 489 L 295 484.3 290.4 483.6 C 287.8 483.3, 285.1 483, 284.4 483 C 283.3 483, 283 485.5, 283 494.8 M 452 486 C 452 486.6, 452.1 487, 452.3 487 C 462.7 488.3, 476.3 490.2, 478.8 490.6 C 481.3 491.1, 482 490.9, 482 489.6 C 482 488.7, 482.6 487.9, 483.3 487.9 C 485 487.7, 460.3 485.2, 455.8 485.1 C 453.7 485, 452 485.5, 452 486 M 498.7 487.6 C 498.1 488.2, 496.1 488.5, 487.6 488.9 L 484.7 489 485.3 515.3 C 485.7 529.7, 486.3 544.1, 486.6 547.2 L 487.3 552.9 491.9 553.5 C 494.4 553.8, 497.5 554.3, 498.6 554.5 L 500.8 555 500.6 521 C 500.6 502.3, 500.2 487, 499.9 487 C 499.6 487, 499 487.3, 498.7 487.6 M 353.8 492.8 C 346.8 495.4, 340.7 498, 340.1 498.5 C 339.6 499.1, 338.9 509.7, 338.5 522.2 L 337.8 544.9 344.7 542.5 C 348.4 541.3, 354.2 539.4, 357.5 538.5 C 360.8 537.5, 364 536.2, 364.6 535.6 C 366.8 533.4, 369.3 487.9, 367.3 488 C 366.8 488.1, 360.8 490.2, 353.8 492.8 M 557.7 490.6 L 555 492.1 555.6 506.8 C 556 514.9, 556.6 521.9, 557 522.3 C 558.3 523.7, 561.8 522.1, 562.5 519.8 C 563.3 517.4, 562 489, 561.1 489 C 560.8 489.1, 559.3 489.8, 557.7 490.6 M 448.8 500.1 C 449.2 511.5, 449.8 513, 454.3 513 C 457.5 513, 465.3 514.3, 475.3 516.4 C 478.4 517.1, 481.2 517.4, 481.5 517.2 C 481.8 516.9, 482 511.6, 482 505.4 C 482 493, 482 493, 475.2 493 C 473.1 493, 470.1 492.6, 468.3 492.1 C 466.6 491.6, 461.4 490.9, 456.8 490.5 L 448.5 489.8 448.8 500.1 M 503 492.9 C 503 493.7, 507.2 494.5, 527 497.5 C 532.3 498.3, 537.4 499.2, 538.4 499.6 C 539.8 500.1, 540.1 499.9, 539.8 498.4 C 539.4 496.4, 539.8 496.4, 516.5 493.5 C 502.2 491.7, 503 491.8, 503 492.9 M 250.5 496.7 C 249.4 497, 246.2 499, 243.3 501.1 C 236.5 506.2, 230.9 507.7, 223.3 506.4 L 217.5 505.5 217.8 519 C 218.2 535, 218.1 534.6, 221.7 535.4 C 226 536.4, 237.4 539.9, 248.6 543.6 C 254.2 545.5, 259.3 547, 259.9 547 C 261.1 547, 261.5 516.6, 260.3 507.2 C 259.7 502.1, 255.7 495.8, 253.3 496.1 C 252.9 496.2, 251.6 496.5, 250.5 496.7 M 503.2 508.3 L 503.5 520.5 510.5 521.7 C 514.4 522.3, 520.2 523.3, 523.5 523.9 C 526.8 524.4, 531.5 525, 534 525.2 L 538.5 525.5 538.5 513 L 538.5 500.5 529 499.7 C 523.8 499.3, 516.3 498.3, 512.3 497.5 C 508.3 496.7, 504.6 496, 504 496 C 503.3 496, 503 500, 503.2 508.3 M 545.7 496.7 C 544.4 497.9, 545 500, 546.5 500 C 547.3 500, 548 500.5, 548 501 C 548 501.6, 547 502, 545.9 502 C 544.1 502, 543.8 502.5, 544.2 505 C 544.5 506.9, 544.2 508.1, 543.3 508.5 C 541 509.3, 542.7 510.8, 545.4 510.3 C 546.7 510, 548.1 510.3, 548.4 510.9 C 548.9 511.6, 547.9 512, 545.5 512 C 542.9 512, 542.1 512.3, 542.6 513.2 C 543.7 515, 543.8 518, 542.8 518.6 C 540.2 520.2, 542.2 522.2, 545.7 521.5 C 553.2 520.1, 553.4 519.9, 552.7 509.8 C 552 499, 549 493.4, 545.7 496.7 M 327.8 501.7 L 322.1 503.2 321.6 509.3 C 321.3 512.7, 320.8 523.2, 320.5 532.7 L 319.9 549.8 325.2 548.3 C 328.1 547.5, 331.5 546.6, 332.8 546.3 C 334.9 545.8, 335 545.3, 335 537.1 C 335 532.4, 335.3 522.1, 335.7 514.3 C 336.2 502.3, 336.1 500, 334.9 500.1 C 334.1 500.2, 330.9 500.9, 327.8 501.7 M 264.3 512.1 C 264.7 516.7, 265 526.9, 265 534.6 L 265 548.7 270.8 550.5 C 273.9 551.4, 279.9 553.4, 284 555 C 290.5 557.4, 291.5 557.5, 291.7 556.1 C 291.8 555.2, 292.1 545, 292.3 533.3 L 292.6 512.2 288.4 511.5 C 286.1 511.2, 280.5 509.5, 275.9 507.9 C 262.2 502.9, 263.6 502.4, 264.3 512.1 M 315 505.7 C 314.2 505.9, 312.6 506.5, 311.5 507 C 310.4 507.5, 308.2 508.3, 306.5 508.7 L 303.6 509.6 303.9 519.1 C 304 524.3, 303.6 534.3, 303 541.3 C 302.3 548.4, 302.1 554.4, 302.4 554.8 C 302.8 555.1, 306.1 554.5, 309.8 553.4 L 316.5 551.5 317.1 542.5 C 318.1 529.6, 318.1 505, 317.3 505.1 C 316.8 505.1, 315.8 505.4, 315 505.7 M 297.9 511.7 C 295.9 512.2, 295 521.3, 295 542.7 C 295 558.1, 295.3 559.4, 298.6 557.2 C 299.2 556.8, 300 551.3, 300.4 544 C 300.7 537.1, 301.3 526.9, 301.6 521.3 C 302.3 510.5, 302.3 510.5, 297.9 511.7 M 461 527 C 461 532.3, 461.3 539.4, 461.6 542.7 L 462.2 548.6 470.9 549.9 C 475.6 550.6, 480.3 551.4, 481.3 551.7 C 482.9 552.1, 483 551.1, 482.8 536.8 L 482.5 521.5 476.5 520.3 C 473.2 519.6, 468.4 518.7, 465.8 518.2 L 461 517.3 461 527 M 505 525.4 C 504.7 525.6, 504.7 532.5, 505 540.6 L 505.5 555.4 509 556.1 C 518 558, 535.7 561, 537.3 561 C 538.9 561, 539 559.8, 538.8 545.5 C 538.6 537, 538.2 529.9, 537.8 529.8 C 537.4 529.7, 534.2 529.3, 530.8 528.9 C 523.5 528, 511.6 526.2, 508 525.5 C 506.6 525.2, 505.2 525.1, 505 525.4 M 559 527.1 C 555.4 527.5, 550.1 528.1, 547.3 528.5 L 542 529.3 542 545 C 542 553.6, 542.2 560.9, 542.5 561.2 C 542.8 561.5, 547 560.9, 551.8 559.8 C 556.6 558.8, 561.4 557.7, 562.6 557.5 C 564.6 557.1, 564.7 556.2, 565.4 541.9 C 565.8 533.6, 566 526.7, 565.8 526.6 C 565.6 526.5, 562.6 526.8, 559 527.1 M 111.7 569.3 C 111.4 571.6, 110.6 577.3, 110 581.9 C 108.4 592.1, 106 590.3, 130.4 597.6 C 144.4 601.9, 171.1 600.6, 184.5 595 C 185.6 594.6, 188.7 593.4, 191.5 592.4 C 200.9 589.1, 202 586.2, 198.9 574 C 198.4 572.1, 198 569.3, 198 567.8 C 198 564.5, 196.6 564.3, 191.3 566.5 C 176.1 572.9, 132.7 572.6, 115.7 566.1 C 114.1 565.5, 112.7 565, 112.5 565 C 112.4 565, 112 566.9, 111.7 569.3 M 550.7 586.8 C 549 596.6, 547.3 605.3, 544.5 617 C 539.9 636.3, 540.1 639.2, 546.1 642.2 C 560 649.1, 565.2 650.4, 577.7 650.5 C 590.1 650.5, 589.8 650.6, 591.2 645.3 C 591.7 643.2, 592.8 638.8, 593.6 635.5 C 594.5 632.2, 595.4 626.5, 595.7 622.8 L 596.2 616.1 589.1 614 C 582.1 611.9, 574.7 607, 576.2 605.4 C 576.7 605, 577.8 605.4, 578.7 606.2 C 579.7 607, 581.2 608, 582 608.4 C 582.8 608.8, 582.6 608.4, 581.6 607.6 C 577.8 604.5, 581.1 604.7, 585.5 607.8 C 590.8 611.5, 591.4 611.7, 590 609.1 C 587.8 604.9, 591.4 604.7, 595.2 608.8 C 600.5 614.4, 601.3 620.3, 598.4 633.5 C 597.6 637.4, 596.7 642.9, 596.3 645.7 L 595.8 651 601.6 653.7 C 606.9 656.2, 608.6 656.4, 619 656.4 C 635.7 656.4, 645.9 653.6, 658.3 645.7 C 663.7 642.2, 663.8 641.5, 661 632.8 C 657.4 621.9, 657.1 620.6, 656.1 614.5 C 655.5 611.2, 654.4 604.9, 653.6 600.5 C 651.3 588.6, 651.6 583.6, 654 591.5 L 655.8 597.5 655.9 589.1 C 656 579.5, 657.7 580.1, 642.5 584.3 C 624.4 589.2, 622.3 589.5, 601 589.5 L 580.5 589.4 572.1 586.2 C 567.5 584.5, 561.3 581.7, 558.4 580 C 555.4 578.4, 552.9 577, 552.7 577 C 552.5 577, 551.6 581.4, 550.7 586.8 M 121 600.5 C 121 601.2, 122.5 606.7, 124.4 612.6 C 126.2 618.6, 128.7 627.6, 129.9 632.7 L 132 641.9 129.8 647.8 C 127.2 655.1, 127.6 656.4, 133.4 657.9 C 142.8 660.2, 153.8 658, 156.2 653.2 C 157 651.7, 158.4 649.2, 159.4 647.5 C 161.1 644.7, 161.1 644.7, 158.1 648 C 155.2 651.2, 154.9 651.3, 155.6 649 C 156.5 645.3, 160.2 641.6, 161.2 643.2 C 161.8 644.2, 162 644.1, 162 642.9 C 162 642, 162.7 639.9, 163.5 638.4 C 164.5 636.5, 165 632.6, 165 627.4 C 165 620.5, 165.5 618.1, 168 612.2 C 171.9 602.9, 172.1 603.2, 164.3 604.2 C 156.9 605.2, 143.5 604.6, 136.7 603 C 121.5 599.4, 121 599.3, 121 600.5 M 184 599.8 C 184 600.4, 182.1 601.1, 179.8 601.5 C 174.2 602.4, 173 603.5, 173 607.5 C 173 609.9, 173.8 611.5, 175.8 613.2 C 177.3 614.5, 178.9 616, 179.3 616.7 C 180.4 618.5, 176.4 617, 174.4 614.9 C 170.3 610.4, 169 613.2, 169 626.6 C 169 634.6, 168.6 636.7, 166 642.8 C 162.9 650.1, 162.3 653, 163.9 653 C 166.8 653, 180.4 649.9, 181.5 649 C 182.2 648.4, 183.1 646.7, 183.4 645.2 C 186.6 632.2, 187.3 628.2, 187.7 619 C 188.1 607.6, 187.2 599.9, 185.2 599.2 C 184.6 599, 184 599.3, 184 599.8 M 178.8 654.1 C 177.9 654.6, 173.9 655.4, 170 655.8 L 162.8 656.5 165 659.3 C 166.8 661.6, 167.9 662, 171.8 662 C 176.4 662, 183 659.1, 183 657.1 C 183 656.6, 183.3 655.5, 183.6 654.6 C 184.3 652.8, 181.5 652.4, 178.8 654.1 M 561.2 654.5 C 561.8 657.6, 581.8 661.2, 586 659 C 588.7 657.5, 588.6 655, 585.8 655 C 583.9 655, 583.8 655.2, 585 656.1 C 586.1 656.9, 585.8 657, 583.5 656.5 C 581.9 656.1, 577.6 655.4, 574 654.9 C 570.4 654.4, 566 653.7, 564.2 653.4 C 561.3 652.8, 560.9 653, 561.2 654.5 M 591.7 656.8 C 591.3 658.7, 591.9 660.6, 593.8 663.3 C 595.7 666.2, 596.1 667.3, 595.1 667.9 C 594.2 668.5, 594.1 670.4, 594.6 674.9 C 595.2 680.9, 595.3 681, 597.4 679.6 C 598.5 678.9, 599.4 677.5, 599.2 676.6 C 599 675.6, 599.4 675.2, 600.3 675.6 C 601.1 675.9, 602 675.4, 602.3 674.6 C 602.7 673.7, 605.3 672.6, 608.7 672 C 614.3 670.9, 614.6 670.7, 615.8 666.9 C 617.4 661.6, 617.3 661, 614.9 661 C 610.6 661, 597.9 657.2, 592.9 654.4 C 592.5 654.2, 592 655.3, 591.7 656.8 M 642 659.8 C 642 661.2, 641.8 661.2, 641.1 660.1 C 640.4 659.1, 639.8 658.9, 638.8 659.6 C 638.1 660.2, 636.4 660.7, 635 660.8 C 629.6 661, 626 662.1, 626 663.5 C 626 664.7, 627.7 665, 634.3 665 C 643.9 665, 645.5 664.3, 644.6 660.6 C 643.9 657.7, 642 657.1, 642 659.8 M 124 660.4 C 124 663.8, 129.8 665.4, 142.5 665.4 C 155.4 665.5, 161.4 664.1, 160.8 661.1 C 160.4 659.3, 159.2 659.3, 148.1 660.9 C 141.1 661.9, 136.6 661.6, 126.8 659.4 C 124.6 658.9, 124 659.1, 124 660.4 M 124 668.9 C 124 673.7, 126.1 674.5, 138.4 674.3 C 149.9 674.2, 155 673, 155 670.7 C 155 669.6, 152.2 669.2, 142.8 668.7 C 136 668.4, 129 667.7, 127.3 667.1 C 124.1 666.2, 124 666.2, 124 668.9 M 557 666.9 C 557 667.4, 558.6 669.1, 560.6 670.6 C 562.6 672.1, 565.2 675.4, 566.4 677.9 C 571.4 688.2, 571.4 688.2, 585.7 683.6 C 591.9 681.5, 592.5 681.1, 592.8 678.4 C 593.4 671.9, 592 670.6, 584.9 670.9 C 581.4 671, 578.3 671.6, 578 672.1 C 577.6 672.6, 574.5 671.4, 570.9 669.5 C 564.8 666.2, 561.3 665.1, 562.4 666.8 C 562.6 667.2, 564.6 668.4, 566.7 669.4 C 573.1 672.7, 577.1 675.2, 576.7 675.7 C 576.4 675.9, 575.4 675.7, 574.3 675.1 C 573.3 674.5, 570.3 673.1, 567.5 671.9 C 564.8 670.7, 561.3 668.9, 559.8 667.8 C 558.2 666.7, 557 666.3, 557 666.9 M 642.8 667.5 C 642.5 667.8, 636.8 668.1, 630.1 668.1 C 616.1 668.2, 615.4 668.9, 624.6 673.5 L 630.5 676.5 627 677 C 623.7 677.5, 623.6 677.6, 626 678.3 C 629.7 679.3, 637 679.2, 637 678 C 637 677.5, 638.5 677.3, 640.3 677.5 C 642.8 677.9, 643.1 677.8, 641.5 677.1 L 639.5 676.1 641.5 676 C 642.6 675.8, 644.1 675.8, 644.8 675.9 C 645.4 676, 646 675.6, 646 675 C 646 674.5, 646.6 674, 647.4 674 C 649.5 674, 650.2 672.5, 649.4 669.5 C 648.8 667.1, 644.5 665.8, 642.8 667.5 M 547.7 670.7 C 547.4 671, 548.4 673.5, 550 676.4 C 551.6 679.2, 553.2 683.3, 553.6 685.5 C 554.6 691.1, 554.4 691.1, 561.6 689.1 C 570.1 686.7, 570 686.9, 564.6 681.3 C 560.2 676.6, 548.9 669.5, 547.7 670.7 M 535.3 673.2 C 532 674.1, 524 680.8, 524 682.8 C 524 684.9, 544 691, 550.8 691 C 553.3 691, 549 677.9, 545.4 674.9 C 543.2 673.1, 538.6 672.3, 535.3 673.2 M 200 681.8 C 196.9 683.9, 194.8 686, 192.8 688.9 C 190.2 692.6, 192.9 697, 197.8 697 C 209.8 696.9, 224.4 689.6, 221 685.4 C 216.8 680.4, 205 678.4, 200 681.8 M 121 683.5 C 117.6 692.4, 119.9 694.9, 135.9 700 C 145.2 702.9, 146.2 702.8, 148.3 697.6 C 150.2 692.9, 158.4 684.1, 161 683.9 C 161.8 683.9, 161.2 683.4, 159.6 682.8 C 157.4 682, 156.5 682, 156.2 682.9 C 156 683.5, 155 684, 153.9 684 C 152.9 684, 152 684.5, 152 685.1 C 152 685.7, 151.3 685.9, 150.4 685.6 C 149.6 685.3, 149.2 685.4, 149.5 686 C 149.8 686.6, 149.7 687, 149.1 687 C 148.5 687, 146.5 688.6, 144.5 690.6 C 141.2 693.8, 140.8 694, 139.3 692.5 C 137.7 690.8, 137.7 690.7, 142.4 687.2 C 146.4 684.2, 143.3 684.4, 138.8 687.5 C 134.2 690.6, 134 690.6, 134 687.4 C 134 685.3, 133.7 685, 131.9 685.5 C 130.7 685.9, 129.2 685.6, 128.2 684.7 C 124 681.1, 122 680.7, 121 683.5 M 592.3 686.6 C 584.7 690.4, 581.4 699.6, 586.8 702.3 C 594 706, 611.4 707.6, 621 705.5 C 632.8 703, 634.8 699.1, 627.9 691.7 L 624.9 688.5 627.5 692.4 C 628.9 694.5, 630 697.2, 629.9 698.4 L 629.9 700.5 629 698.4 C 628.1 696.1, 618.1 686.8, 617.1 687.4 C 616.8 687.6, 613.1 687.2, 609 686.4 C 599.2 684.7, 596.2 684.7, 592.3 686.6 M 158.7 689.1 C 155.5 691.7, 148.4 701.8, 149.2 702.5 C 149.4 702.7, 150.6 703.1, 152 703.4 C 154.2 703.9, 154.7 703.5, 156.4 699.8 C 157.5 697.5, 159.8 694, 161.7 691.9 C 165.4 687.8, 165.6 687.4, 163.6 686.7 C 162.9 686.4, 160.7 687.5, 158.7 689.1 M 167 689.5 C 163.3 692.2, 155.4 702.8, 156.4 703.7 C 156.7 704, 161.5 704.3, 166.9 704.3 C 182 704.3, 192.5 698.5, 187.5 693 C 182.3 687.3, 172.3 685.6, 167 689.5 M 523.2 688.7 C 524 692.7, 543.3 698.7, 551.9 697.7 C 554.4 697.4, 559.4 696.4, 563 695.6 C 566.6 694.7, 572.3 693.5, 575.7 692.9 C 579.6 692.2, 582.6 691, 583.7 689.7 C 585.5 687.8, 585.4 687.7, 580.5 688.4 C 574.9 689.2, 563 691.7, 558.6 693.1 C 552.1 695.1, 541.9 693.7, 529 689 C 522.4 686.6, 522.8 686.6, 523.2 688.7 M 651.5 697 C 628.7 707.7, 624.1 709, 608.8 709 C 597.3 709, 588.1 707.2, 584.7 704.2 C 582.9 702.6, 582.9 702.7, 583.2 706 C 583.7 711.1, 589.4 712.8, 606.5 712.9 C 620.6 713, 626.6 711.8, 641.6 706.2 C 655.8 700.9, 659 699.1, 659 696.4 C 659 693.5, 658.9 693.5, 651.5 697 M 118 696.9 C 123 706.4, 164 713.8, 180.7 708.2 C 186.1 706.4, 190 703.8, 190 702 C 190 700.6, 189 700.7, 187.1 702.4 C 179.1 709.3, 149.9 708.6, 128 700.9 C 126.1 700.3, 123.1 698.7, 121.3 697.4 C 117.5 694.5, 116.6 694.4, 118 696.9" stroke="none" fill="#1b1f3a" fill-rule="evenodd"/></svg>