<svg xmlns="http://www.w3.org/2000/svg" viewBox="0 0 768 768" version="1.1" preserveAspectRatio="xMidYMid meet">
	<path d="M 571 218.003 C 555.696 221.203, 544.743 225.420, 531.749 233.116 C 517.501 241.554, 498.535 257.980, 497.310 262.942 C 496.963 264.349, 494.319 268.117, 491.435 271.315 C 486.122 277.207, 479 290.163, 479 293.938 C 479 296.552, 479.425 296.524, 483.317 293.648 C 485.068 292.354, 486.950 291.047, 487.500 290.743 C 488.136 290.392, 488.501 293.709, 488.503 299.845 C 488.506 310.580, 490.047 314.868, 495.898 320.427 C 499.572 323.918, 500.750 323.352, 498.574 319.143 C 496.428 314.994, 496.595 307.166, 498.942 301.877 C 501.260 296.653, 506.030 291.923, 515.500 285.460 C 524.081 279.603, 523.464 280.130, 522.672 279.338 C 521.751 278.417, 512.630 283.477, 505.765 288.716 C 499.524 293.480, 495.795 297.835, 493.960 302.504 C 491.925 307.683, 490.517 302.646, 492.001 295.497 C 493.467 288.435, 498.225 282.847, 506.405 278.584 C 509.482 276.980, 512 275.467, 512 275.222 C 512 273.185, 496.519 279.358, 490.016 283.989 C 486.386 286.574, 485.646 286.529, 487.100 283.813 C 490.447 277.560, 502.377 265.703, 509.536 261.517 C 513.130 259.415, 516.349 257.244, 516.691 256.692 C 517.861 254.798, 510.803 256.950, 505.854 259.995 C 500.347 263.384, 499.774 263.242, 503.750 259.476 C 508.436 255.037, 515.018 251.694, 520.881 250.776 C 523.972 250.292, 526.883 249.514, 527.351 249.047 C 528.648 247.753, 524.363 246.766, 520.728 247.521 L 517.500 248.192 520 245.638 C 527.275 238.204, 553.771 226.280, 571.500 222.460 C 581.351 220.338, 604.049 220.014, 612 221.882 C 637.720 227.925, 654.358 236.571, 663.551 248.671 L 666.460 252.500 663.882 250.826 C 657.423 246.634, 644.982 240.220, 644.578 240.874 C 644.173 241.529, 655.238 248.834, 663.310 253.242 C 667.563 255.564, 669.083 257.819, 668.355 260.722 C 667.929 262.420, 668.374 263.699, 669.876 265.099 C 672.271 267.331, 672.700 269.206, 670.634 268.413 C 669.123 267.833, 664.788 273.848, 665.678 275.288 C 665.976 275.770, 667.488 274.949, 669.038 273.463 L 671.857 270.762 674.862 272.902 L 677.867 275.042 677.354 284.271 C 676.982 290.949, 677.135 293.085, 677.905 292 C 678.490 291.175, 678.979 289.375, 678.990 288 C 679.024 283.987, 681.034 277.845, 682.188 278.229 C 682.771 278.424, 684.081 281.939, 685.098 286.041 C 686.115 290.144, 687.409 294.281, 687.974 295.236 C 688.538 296.191, 689 297.744, 689 298.686 C 689 299.863, 689.323 300.077, 690.031 299.369 C 690.740 298.660, 690.583 296.497, 689.531 292.459 C 688.689 289.225, 688 285.065, 688 283.213 L 688 279.847 690.352 282.673 C 711.074 307.581, 707.096 352.571, 681.559 382.138 C 670.093 395.412, 652.734 405.483, 638 407.408 C 630.449 408.395, 630.049 406.845, 636.574 401.883 C 650.233 391.495, 654.753 385.974, 657.011 376.917 C 659.343 367.564, 653.508 356.431, 644.926 353.860 L 641.281 352.768 640.689 344.634 C 639.989 334.993, 637.324 323.970, 633.532 315.028 C 631.413 310.030, 630.893 307.469, 631.247 303.778 C 631.695 299.116, 630.822 297.415, 629.607 300.582 C 628.516 303.426, 628.968 308.990, 630.599 312.782 C 634.253 321.277, 637.955 338.750, 637.984 347.639 C 638 352.702, 637.950 352.787, 634.576 353.420 C 630.754 354.137, 627.097 357.818, 621.474 366.608 C 617.653 372.582, 615.820 373.222, 618.115 367.782 C 619.898 363.556, 620.019 343.358, 618.279 340.500 C 617.269 338.842, 617.045 340.294, 616.970 349 L 616.879 359.500 614.896 352.117 C 613.806 348.056, 612.326 343.556, 611.608 342.117 C 609.102 337.097, 607.553 326.412, 607.569 314.257 C 607.580 305.762, 607.266 302.334, 606.543 303.059 C 605.342 304.261, 605.104 328.698, 606.243 333.830 C 607.513 339.550, 604.833 337.043, 600.559 328.512 C 595.729 318.871, 594.484 320.707, 598.534 331.500 C 600.744 337.392, 595.831 329.618, 593.004 322.752 C 589.025 313.085, 587.543 311.887, 588.215 318.884 C 588.814 325.124, 588.240 325.636, 583.912 322.720 C 579.445 319.710, 575.264 313.401, 574.488 308.500 C 573.515 302.361, 572.949 300.913, 571.800 301.624 C 571.132 302.037, 570.970 304.521, 571.359 308.388 L 571.974 314.500 569.020 309.806 C 567.396 307.225, 565.777 303.958, 565.422 302.547 C 564.638 299.420, 563.405 298.501, 562.647 300.478 C 562.008 302.144, 563.682 307.752, 565.489 310 C 569.417 314.884, 567.186 313.494, 561.085 307.256 L 554 300.013 554 292.128 C 554 284.575, 554.656 281.901, 558.648 273.169 C 561.136 267.726, 559.378 268.370, 555.593 274.287 C 547.242 287.342, 547.681 299.453, 556.848 308.901 C 561.310 313.500, 570.840 320, 573.121 320 C 573.721 320, 575.574 321.147, 577.239 322.548 C 582.189 326.713, 587.941 329.294, 589.461 328.032 C 590.468 327.197, 590.918 327.535, 591.410 329.499 C 592.207 332.673, 599.387 339.988, 601.750 340.033 C 604.815 340.092, 607.916 343.627, 611.074 350.662 C 614.162 357.543, 614.444 361.118, 612.838 373 C 612.568 374.997, 612.983 375.568, 614.899 375.839 C 618.748 376.383, 621.652 374.129, 624.862 368.107 C 630.653 357.242, 636.934 354.206, 644.782 358.478 C 655.709 364.425, 656.601 377.799, 646.790 388.581 C 643.592 392.095, 635.341 394.681, 630.362 393.729 C 629.036 393.475, 627.699 393.678, 627.390 394.178 C 626.553 395.533, 628.938 397.961, 630.512 397.357 C 631.264 397.069, 632.622 397.249, 633.531 397.757 C 634.925 398.538, 634.698 398.883, 632.071 399.971 C 630.360 400.679, 627.873 402.551, 626.544 404.130 C 623.357 407.918, 622.786 407.752, 623.526 403.250 L 624.142 399.500 620.988 404.500 C 612.175 418.471, 594.630 425.579, 569.500 425.359 C 537.263 425.078, 508.653 407.928, 504.023 386.109 C 502.917 380.898, 503.013 379.567, 504.970 372.907 C 506.168 368.833, 507.682 363.648, 508.336 361.385 L 509.526 357.270 511.310 359.635 C 513.451 362.474, 517.073 362.713, 518.691 360.123 C 522.083 354.691, 520.557 344.946, 516.091 343.529 C 513.898 342.833, 513.287 340.558, 515.009 339.494 C 516.854 338.354, 519.876 340.063, 521.950 343.420 C 526.111 350.152, 523.990 360.269, 517.130 366.405 C 514.396 368.850, 514.434 371.230, 517.257 374.512 C 519.331 376.923, 519.756 377.035, 522.507 375.889 C 525.483 374.650, 525.486 374.641, 523.039 374.224 C 520.485 373.790, 517.827 371.089, 518.648 369.761 C 518.906 369.342, 521.004 368.936, 523.309 368.858 L 527.500 368.716 523.585 368.108 C 520.023 367.555, 519.826 367.371, 521.401 366.073 C 528.656 360.092, 528.062 343.127, 520.385 337.088 C 517.055 334.469, 514.813 334.444, 512.500 337 C 509.863 339.914, 509.505 339.621, 507.464 332.880 C 503.552 319.960, 505.516 314.577, 514.685 313.086 C 519.781 312.258, 519.890 309.616, 514.847 309.195 C 511.918 308.951, 510.474 309.523, 507.563 312.078 C 503.148 315.955, 502.117 315.273, 504.044 309.750 C 505.721 304.944, 507.280 304.251, 516.750 304.100 C 520.188 304.045, 523 303.602, 523 303.115 C 523 301.703, 512.944 300.858, 507.782 301.836 C 505.187 302.328, 502.861 302.527, 502.613 302.279 C 500.064 299.730, 499.253 320.760, 501.716 325.542 C 507.585 336.939, 508.222 354.082, 503.250 366.835 C 495.094 387.752, 502.211 403.334, 526.503 417.743 C 531.365 420.627, 539.096 424.156, 543.685 425.586 L 552.027 428.186 547.229 432.006 C 544.590 434.108, 540.892 438.083, 539.010 440.841 L 535.588 445.855 527.044 446.549 C 516.358 447.417, 512.066 449.551, 512.062 454 C 512.061 455.164, 512.290 455.106, 513.085 453.740 C 514.803 450.791, 520.726 449, 528.763 449 C 536.173 449, 536.328 448.947, 539.391 445.365 C 545.406 438.331, 551.106 432.947, 551.971 433.482 C 552.452 433.780, 553.156 435.480, 553.535 437.261 C 554.547 442.025, 558.482 450.260, 560.630 452.112 C 563.506 454.591, 571.795 457, 577.450 457 C 585.535 457, 594.948 453.813, 607.680 446.763 C 622.025 438.821, 623.380 438.364, 626.502 440.410 C 632.703 444.472, 641.010 468.219, 644.551 492 C 645.738 499.971, 652.433 525.270, 655.005 531.500 C 657.844 538.379, 666.168 566.889, 665.837 568.600 C 665.230 571.736, 654.805 576.254, 636.463 581.330 C 603.546 590.441, 567.416 585.746, 550.750 570.192 C 545.904 565.670, 547.064 564.659, 560.759 561.470 C 564.751 560.541, 568.253 559.399, 568.541 558.934 C 569.068 558.081, 569.673 546.562, 569.885 533.343 L 570 526.185 575.250 525.690 C 578.138 525.418, 585.805 524.713, 592.288 524.124 C 614.335 522.121, 626.633 515.502, 632.870 502.280 C 634.111 499.651, 635.543 496.726, 636.052 495.780 C 638.302 491.606, 639.964 477.154, 638.839 471.552 C 637.295 463.866, 636.407 465.324, 635.695 476.714 C 634.392 497.550, 625.250 511.217, 609.158 516.385 C 603.622 518.163, 585.690 520.172, 573.500 520.381 L 566.500 520.500 566.223 506.396 L 565.947 492.292 574.018 491.619 C 582.063 490.948, 587.872 489.421, 595.542 485.963 C 597.764 484.960, 601.477 483.549, 603.792 482.827 C 607.948 481.529, 609.413 480, 606.500 480 C 604.183 480, 604.679 478.309, 608.750 472.337 C 610.813 469.312, 612.950 466.085, 613.500 465.168 C 614.050 464.251, 614.937 463.187, 615.471 462.804 C 616.005 462.422, 616.084 461.751, 615.646 461.313 C 615.208 460.875, 612.834 462.650, 610.370 465.258 C 607.906 467.866, 605.690 470, 605.445 470 C 604.459 470, 605.094 463.486, 606.577 458.384 C 608.653 451.240, 607.788 449.255, 605.183 455.188 C 602.825 460.558, 601 469.446, 601 475.561 C 601 477.868, 600.438 480.179, 599.750 480.696 C 596.868 482.867, 578.227 488.029, 573.322 488.015 L 568.145 488 568.802 482.250 C 569.163 479.087, 569.468 474.707, 569.479 472.516 L 569.500 468.533 562 467.470 C 557.875 466.885, 552.362 465.767, 549.750 464.985 L 545 463.563 545 456.973 C 545 452.614, 544.488 449.725, 543.488 448.441 C 542.119 446.683, 542.039 447.341, 542.638 455.405 L 543.300 464.310 539.950 463.640 C 538.107 463.271, 536.352 462.639, 536.050 462.235 C 535.747 461.831, 533.574 461.432, 531.221 461.348 C 528.867 461.265, 526.392 460.742, 525.721 460.188 C 525.049 459.633, 522.816 458.864, 520.758 458.480 C 517.333 457.840, 517.072 457.560, 517.670 455.178 L 518.323 452.576 514.352 455.721 C 509.992 459.175, 505.568 460.728, 504.592 459.149 C 504.248 458.593, 504.812 457.544, 505.845 456.818 C 509.084 454.546, 513 447.859, 512.994 444.610 C 512.956 422.944, 487.668 424.032, 482.256 445.932 C 481.293 449.829, 479.866 450.723, 477.841 448.698 C 475.440 446.297, 465.935 442.463, 457.729 440.585 C 454.406 439.825, 451.370 441.258, 450.500 443.999 C 450.146 445.116, 448.987 446, 447.878 446 C 444.294 446, 437.148 449.939, 434.549 453.347 C 430.777 458.292, 431.344 460.438, 437.500 464.514 C 440.101 466.236, 442.227 466.503, 453.500 466.523 C 464.520 466.542, 467.185 466.862, 471 468.623 C 473.475 469.766, 476.625 471.187, 478 471.783 L 480.500 472.865 477.784 472.932 C 476.290 472.970, 473.590 473.636, 471.784 474.414 C 469.978 475.192, 464.450 477.272, 459.500 479.037 C 454.550 480.801, 448.988 482.940, 447.140 483.789 L 443.779 485.333 444.548 491.416 C 444.971 494.762, 445.583 501.316, 445.908 505.980 C 446.553 515.216, 446.294 514.886, 454.122 516.450 C 457.544 517.134, 458 519.553, 458 537.003 C 458 552.972, 457.718 552.483, 467.500 553.447 C 471.350 553.827, 476.188 554.574, 478.251 555.108 C 480.314 555.641, 484.814 556.478, 488.251 556.967 C 500.772 558.749, 526.707 563.329, 535.795 565.362 C 541.985 566.747, 548.832 572.108, 548.958 575.669 C 549.004 576.941, 544.879 597.552, 542.487 608 C 536.098 635.920, 535.981 639.383, 541.292 643.371 C 544.437 645.733, 551.291 649.088, 555.750 650.448 C 557.721 651.050, 558 651.805, 558 656.532 C 558 661.093, 557.651 662.123, 555.750 663.179 C 550.976 665.829, 542.385 668.991, 539.946 668.995 C 531.876 669.010, 520.966 678.297, 520.249 685.762 C 519.667 691.813, 522.523 694.702, 532.217 697.866 C 544.402 701.844, 550.776 701.708, 571.423 697.032 C 576.330 695.921, 580.533 695.199, 580.762 695.428 C 580.991 695.657, 580.616 698.356, 579.929 701.424 C 577.872 710.619, 580.573 713.583, 593.305 716.099 C 609.353 719.271, 627.050 716.266, 651 706.301 C 663.749 700.996, 664.957 698.831, 660.466 689.336 C 659.072 686.390, 657.117 680.721, 656.122 676.739 C 654.275 669.353, 651.813 663.620, 650.007 662.504 C 649.453 662.162, 649 660.394, 649 658.576 C 649 655.507, 649.556 654.946, 656.750 650.757 C 668.789 643.746, 668.780 643.765, 665.506 633.795 C 661.121 620.437, 659.202 608.637, 658.889 593.106 L 658.603 578.876 664.801 575.220 C 669.373 572.523, 671 570.994, 671 569.393 C 671 566.906, 660.065 531.807, 657.014 524.500 C 653.962 517.192, 648.634 494.677, 646.482 480 C 645.184 471.144, 640.059 455.203, 635.720 446.528 C 633.531 442.152, 619.537 428, 617.399 428 C 615.760 428, 606.993 423.821, 607.018 423.051 C 607.028 422.748, 611.415 419.933, 616.768 416.796 C 626.272 411.225, 626.634 411.105, 632.229 411.683 C 650.417 413.563, 679.565 395.957, 692.859 375.063 C 708.831 349.960, 712.318 317.056, 701.510 293.428 C 698.468 286.777, 698.477 287.007, 701.250 286.968 C 704.025 286.929, 707 284.779, 707 282.814 C 707 282.008, 708.102 280.313, 709.449 279.048 C 714.452 274.348, 716.249 264.171, 713.481 256.223 C 709.413 244.545, 702.509 238.321, 690.544 235.546 C 681.360 233.416, 678.225 233.591, 674.491 236.439 C 671.598 238.646, 670.494 240.503, 668.559 246.423 C 667.969 248.226, 667.830 248.195, 666.316 245.923 C 651.568 223.792, 606.480 210.584, 571 218.003 M 576 224.603 C 564.663 226.610, 547.143 232.809, 548.623 234.290 C 548.949 234.616, 549.955 234.485, 550.858 234 C 557.518 230.420, 577.133 227, 591 227 C 605.443 227, 626.367 230.810, 630.716 234.232 C 631.385 234.758, 632.500 235, 633.192 234.769 C 635.342 234.053, 625.343 228.896, 617.736 226.798 C 610.712 224.861, 582.826 223.394, 576 224.603 M 593.500 236.597 C 582.320 238.225, 572.608 242.300, 568.626 247.033 C 564.678 251.725, 565.465 252.559, 570.250 248.756 C 579.013 241.792, 590.992 239.017, 612.500 238.970 C 622.821 238.947, 626.023 238.662, 624.684 237.883 C 622.822 236.800, 598.885 235.813, 593.500 236.597 M 676.160 240.330 C 672.910 243.790, 672.175 247.615, 672.987 256.852 C 673.673 264.650, 673.930 265.344, 677.487 268.987 C 684.913 276.591, 697.588 280.432, 703.976 277.013 C 710.492 273.525, 712.056 261.118, 707.075 252.433 C 702.451 244.372, 694.892 239.943, 683.434 238.582 C 678.981 238.053, 678.100 238.265, 676.160 240.330 M 615 245.650 C 600.612 250.370, 588.407 264.989, 587.239 278.901 C 586.581 286.739, 588.438 286.628, 589.281 278.779 C 590.751 265.100, 602.897 251.779, 618.250 247.010 C 620.313 246.369, 622 245.655, 622 245.422 C 622 244.861, 616.899 245.027, 615 245.650 M 557.406 260.154 C 548.515 267.913, 543.627 274.108, 538.590 284 C 536.358 288.382, 535.437 298.305, 536.803 303.250 C 538.074 307.851, 537.283 307.967, 533.400 303.750 C 529.883 299.929, 527.382 294.719, 526.486 289.351 C 526.133 287.233, 525.667 284.935, 525.451 284.244 C 524.731 281.941, 506.242 294.811, 503.850 299.281 L 502.702 301.425 505.575 299.543 C 507.155 298.507, 508.910 297.274, 509.474 296.803 C 512.841 293.988, 522.620 287.049, 523.250 287.027 C 523.663 287.012, 524 288.334, 524 289.965 C 524 300.297, 533.819 313.462, 540.050 311.484 C 542.409 310.735, 542.405 310.898, 540.334 301.475 C 538.297 292.206, 539.587 286.777, 545.998 277.624 C 548.199 274.482, 550 271.539, 550 271.083 C 550 270.628, 552.813 267.644, 556.250 264.453 C 567.011 254.463, 567.956 250.946, 557.406 260.154 M 149.500 259.989 C 123.843 264.939, 102.292 278.618, 90.042 297.729 C 87.008 302.462, 86.564 302.794, 85.364 301.229 C 84.529 300.140, 83.753 299.873, 83.269 300.509 C 82.846 301.065, 80.662 302.709, 78.416 304.164 C 74.348 306.799, 74.307 306.803, 67.916 305.322 C 44.554 299.906, 24.041 323.825, 28.950 350.758 C 30.409 358.762, 34.639 369.132, 40.632 379.398 C 49.580 394.727, 51.078 399.460, 49.084 406.113 C 47.249 412.240, 42.199 417, 37.534 417 C 30.315 417, 27.834 420.636, 32.250 424.746 C 36.701 428.889, 49.246 432.009, 53.119 429.936 C 55.522 428.650, 56.897 429.503, 55.183 431.217 C 51.595 434.805, 56.700 434.952, 62.704 431.433 C 70.721 426.735, 75.251 418.064, 76.737 404.569 L 77.500 397.637 80.429 402.068 C 85.410 409.602, 93.126 416.975, 99.960 420.732 C 106.929 424.563, 114.652 430.292, 116.816 433.236 C 119.509 436.900, 131.749 441.420, 141.547 442.369 C 146.839 442.881, 152 444.745, 152 446.144 C 152 446.596, 149.690 448.137, 146.867 449.567 C 132.268 456.965, 126.519 468.103, 120.578 500.500 C 119.671 505.450, 118.516 511.300, 118.013 513.500 C 116.218 521.352, 114.088 532.617, 113.021 539.897 C 112.424 543.965, 111.762 547.576, 111.550 547.920 C 111.337 548.264, 110.205 555.060, 109.033 563.022 C 107.862 570.985, 106.236 580.812, 105.420 584.860 C 103.741 593.195, 104.217 594.496, 109.319 595.494 C 113.444 596.301, 117 598.076, 117 599.327 C 117 599.871, 118.352 604.632, 120.004 609.908 C 121.656 615.184, 123.926 623.550, 125.048 628.500 C 126.170 633.450, 127.346 638.513, 127.661 639.751 C 128.013 641.135, 127.185 644.215, 125.510 647.751 C 120.815 657.662, 119.755 660.942, 120.334 663.764 C 120.909 666.561, 119.418 676.902, 117.922 680.500 C 111.399 696.180, 112.230 699.712, 123.799 705.503 C 140.719 713.971, 170.882 715.910, 187.894 709.624 C 192.254 708.012, 197.559 706.999, 203.500 706.643 C 215.421 705.928, 223.777 702.619, 227.661 697.074 C 229.375 694.627, 227.022 686.293, 223.768 683.287 C 221.238 680.950, 214.685 678, 212.022 678 C 211.068 678, 208.292 676.476, 205.854 674.614 C 203.415 672.752, 199.863 670.371, 197.960 669.323 C 186.854 663.207, 184.803 654.238, 190.110 635 C 190.855 632.298, 191.381 623.723, 191.425 613.541 L 191.500 596.582 195.279 595.685 C 199.809 594.609, 205 589.736, 205 586.560 C 205 585.302, 204.534 581.849, 203.964 578.886 C 202.972 573.725, 202.061 562.984, 200.029 532.500 C 199.515 524.800, 198.839 517.096, 198.527 515.379 C 197.845 511.637, 200.520 510.682, 208.901 511.675 L 213.941 512.272 214.220 524.279 C 214.539 537.959, 213.760 536.819, 225 540.058 C 229.125 541.247, 235.650 543.242, 239.500 544.492 C 252.880 548.835, 265.544 552.792, 273 554.960 C 277.125 556.160, 281.400 557.547, 282.500 558.043 C 290.075 561.461, 296.790 562.749, 298.550 561.121 C 299.072 560.638, 302.875 559.237, 307 558.008 C 328.017 551.745, 335.789 549.268, 355.450 542.571 L 367.400 538.500 368.608 533.704 C 370.788 525.051, 372.863 473.681, 371.370 465.316 C 370.845 462.371, 370.623 462.215, 368.401 463.227 C 365.712 464.452, 365.209 466, 367.500 466 C 368.733 466, 369 467.778, 369 476 L 369 486 365.434 486 L 361.867 486 362.184 475.998 C 362.559 464.133, 363.279 464.519, 349.502 469.206 C 344.319 470.969, 339.739 472.072, 339.324 471.658 C 338.081 470.414, 340.532 467.522, 343.102 467.200 C 346.406 466.786, 359.114 463.105, 361.236 461.947 C 362.191 461.426, 364.104 461, 365.486 461 C 369.838 461, 368.298 458.350, 361.250 453.708 C 351.292 447.150, 350.645 446.912, 341.136 446.296 C 333.669 445.812, 331.716 446.032, 327.700 447.809 C 322.796 449.978, 321.777 451.534, 324.750 452.311 C 325.712 452.562, 324.570 452.820, 322.211 452.884 L 317.922 453 319.961 450.811 C 322.315 448.285, 322.408 447.660, 320.875 444.684 C 316.213 435.633, 307.232 434.522, 298.790 441.954 L 294.445 445.778 291.542 442.875 C 284.055 435.388, 272.184 437.831, 270.301 447.246 C 269.738 450.058, 269.712 450.068, 267.895 448.118 C 255.965 435.313, 233 435.029, 233 447.688 C 233 450.353, 238.212 456.597, 241.312 457.644 C 243.256 458.300, 243.110 458.461, 240 459.089 C 233.421 460.417, 219.496 464.673, 217.352 466.012 C 216.175 466.747, 214.670 469.183, 214.007 471.424 C 212.786 475.556, 210.420 479, 208.803 479 C 205.819 479, 199.085 472.200, 197.909 468 C 197.044 464.913, 195.134 462.019, 191.824 458.781 C 189.171 456.185, 187 453.643, 187 453.132 C 187 452.621, 190.262 451.895, 194.250 451.518 C 217.414 449.331, 239.140 436.483, 247.548 420 C 252.141 410.997, 252.256 399.840, 247.863 389.451 C 243.216 378.463, 242.964 362.667, 247.303 354.280 C 255.435 338.560, 255.997 319.086, 248.754 304 C 244.955 296.086, 237.366 286.938, 231 282.598 C 228.501 280.894, 228.502 280.894, 233.395 281.197 C 236.643 281.398, 238.437 281.080, 238.728 280.250 C 238.969 279.563, 238.635 279, 237.984 279 C 237.334 279, 235.384 278.392, 233.651 277.648 C 231.918 276.905, 226.675 274.812, 222 272.999 C 217.325 271.185, 212.150 269.135, 210.500 268.443 C 208.850 267.751, 204.800 266.396, 201.500 265.432 C 198.200 264.467, 194.779 263.066, 193.898 262.318 C 189.154 258.291, 164.897 257.018, 149.500 259.989 M 78.105 309.750 C 74.028 314.696, 76.363 326, 81.462 326 C 86.017 326, 88.867 312.867, 85.125 309.125 C 82.313 306.313, 80.830 306.445, 78.105 309.750 M 174 310.417 C 174 311.196, 174.397 311.983, 174.882 312.167 C 175.367 312.350, 176.082 314.414, 176.470 316.753 C 177.075 320.394, 176.948 320.917, 175.588 320.396 C 174.715 320.060, 174 320.284, 174 320.893 C 174 321.502, 174.450 322, 175 322 C 175.550 322, 176 322.900, 176 324 C 176 325.100, 175.550 326, 175 326 C 174.450 326, 174 326.675, 174 327.500 C 174 328.325, 174.450 329, 175 329 C 175.550 329, 175.985 329.788, 175.967 330.750 C 175.938 332.246, 175.661 332.174, 174.056 330.250 C 171.715 327.443, 170 327.362, 170 330.059 C 170 331.191, 170.453 331.838, 171.007 331.496 C 172.286 330.705, 173.417 333.516, 172.450 335.081 C 171.941 335.905, 171.416 335.708, 170.697 334.423 C 169.712 332.663, 169.639 332.668, 168.906 334.544 C 167.656 337.738, 167.893 339.570, 169.845 341.821 L 171.690 343.948 172.978 341.542 C 173.686 340.218, 173.986 338.406, 173.644 337.516 C 173.303 336.625, 173.401 336.130, 173.862 336.415 C 176.071 337.780, 178 323.331, 177.023 312.750 C 176.695 309.210, 174 307.129, 174 310.417 M 551.706 315.773 C 549.334 318.394, 550.848 319.494, 556.905 319.551 C 562.134 319.600, 562.471 319.777, 567.218 324.939 C 570.737 328.766, 572.431 329.969, 573.207 329.193 C 575.302 327.098, 572.039 322.192, 565.766 318.002 C 559.142 313.579, 554.375 312.823, 551.706 315.773 M 94.273 320 C 95.671 321.100, 97.062 322, 97.362 322 C 97.663 322, 99.114 323.205, 100.588 324.678 C 103.033 327.124, 103.373 327.211, 104.493 325.678 C 105.168 324.755, 106.063 324, 106.483 324 C 106.902 324, 106.690 324.669, 106.011 325.487 C 104.660 327.115, 105.416 332, 107.019 332 C 107.559 332, 108 332.675, 108 333.500 C 108 334.325, 108.388 335, 108.861 335 C 109.335 335, 109.499 336.238, 109.225 337.750 C 108.951 339.262, 109.102 340.148, 109.561 339.719 C 110.020 339.289, 110.966 339.964, 111.663 341.219 C 112.623 342.948, 112.938 343.094, 112.965 341.821 C 112.984 340.898, 112.264 339.407, 111.364 338.507 C 110.144 337.286, 110.017 336.583, 110.864 335.736 C 111.489 335.111, 111.993 333.903, 111.985 333.050 C 111.973 331.819, 111.795 331.775, 111.124 332.834 C 110.455 333.888, 110.138 333.801, 109.606 332.417 C 109.237 331.454, 109.393 330.207, 109.954 329.646 C 110.646 328.954, 110.446 328.045, 109.331 326.814 C 107.180 324.436, 108.105 324.489, 110.888 326.903 C 112.118 327.969, 112.598 328.967, 111.981 329.173 C 111.230 329.423, 111.351 330.447, 112.361 332.394 C 113.175 333.964, 113.576 335.942, 113.251 336.788 C 112.854 337.823, 113.058 338.082, 113.871 337.580 C 114.555 337.157, 114.824 335.890, 114.489 334.666 C 113.910 332.551, 113.933 332.546, 115.448 334.441 C 116.302 335.509, 117 337.170, 117 338.132 C 117 339.095, 117.450 340.160, 118 340.500 C 118.550 340.840, 118.993 341.879, 118.985 342.809 C 118.971 344.266, 118.835 344.293, 118 343 C 117.467 342.175, 117.024 342.007, 117.015 342.628 C 117.007 343.248, 117.675 344.315, 118.500 345 C 119.767 346.052, 120 345.847, 120 343.681 C 120 342.272, 119.550 340.840, 119 340.500 C 118.450 340.160, 118 339.189, 118 338.342 C 118 335.665, 114.831 329.986, 113.720 330.673 C 113.063 331.079, 112.897 330.710, 113.284 329.702 C 113.719 328.568, 112.377 326.736, 108.852 323.652 C 104.014 319.419, 100.410 318.040, 94.115 318.011 L 91.730 318 94.273 320 M 681.734 320.600 C 681.369 320.965, 681.452 321.991, 681.919 322.881 C 682.386 323.772, 683.101 326.508, 683.508 328.962 C 683.914 331.415, 684.619 334.115, 685.073 334.962 C 685.527 335.808, 686.414 339.425, 687.045 343 C 687.675 346.575, 688.530 351.434, 688.945 353.799 C 690.158 360.727, 692.367 361.767, 691.495 355 C 689.895 342.586, 683.231 319.102, 681.734 320.600 M 89.200 323.200 C 87.606 324.794, 87.687 327.007, 89.500 331.346 C 90.325 333.320, 91 336.075, 91 337.468 C 91 338.861, 91.474 340, 92.052 340 C 93.394 340, 92.876 349.936, 91.517 350.263 C 90.976 350.393, 90.215 348.925, 89.826 347 C 88.500 340.451, 85.209 328.496, 85.007 329.500 C 84.565 331.703, 85.231 338.562, 85.979 339.500 C 86.417 340.050, 87.094 342.863, 87.482 345.750 C 87.870 348.637, 88.538 351, 88.966 351 C 89.394 351, 90.032 352.800, 90.384 355 C 90.990 358.787, 93 360.708, 93 357.500 C 93 356.675, 92.550 356, 92 356 C 91.450 356, 91 355.225, 91 354.277 C 91 352.882, 91.304 352.988, 92.600 354.840 C 93.481 356.096, 93.958 358.051, 93.662 359.184 C 93.122 361.250, 96.346 368.218, 100.065 373.020 C 101.701 375.133, 102.139 375.278, 103.023 374 C 103.816 372.854, 103.919 373.112, 103.462 375.090 C 102.991 377.130, 103.401 378.033, 105.397 379.340 C 108.559 381.413, 109.634 381.469, 107.980 379.476 C 106.159 377.282, 107.645 376.369, 109.825 378.342 C 110.836 379.256, 111.963 379.703, 112.331 379.336 C 113.792 377.874, 112.893 380.461, 111.345 382.171 C 109.948 383.715, 109.922 384, 111.177 384 C 112.595 384, 115.467 377.134, 114.468 376.134 C 114.210 375.877, 114 376.192, 114 376.833 C 114 378.873, 109.849 378.139, 109.290 376 C 109.002 374.900, 108.422 374, 108 374 C 107.578 374, 106.998 374.900, 106.710 376 C 105.885 379.155, 104.298 378.330, 104.787 375 C 105.247 371.864, 104.238 371.162, 102.200 373.200 C 101.351 374.049, 101 374.070, 101 373.271 C 101 372.651, 101.654 371.489, 102.452 370.690 C 103.251 369.892, 103.612 368.945, 103.254 368.588 C 102.897 368.230, 102.034 368.964, 101.337 370.219 C 100.323 372.047, 100.064 372.152, 100.035 370.750 C 100.016 369.788, 99.556 369, 99.013 369 C 97.232 369, 94.763 361.768, 96.227 360.838 C 97.051 360.316, 97.100 360.025, 96.367 360.015 C 94.737 359.993, 93.964 354.764, 95.339 353.063 C 96.285 351.891, 96.168 351.750, 94.708 352.298 C 93.153 352.880, 92.990 352.540, 93.480 349.735 C 93.790 347.956, 94.147 344.856, 94.272 342.847 C 94.397 340.839, 94.783 339.369, 95.129 339.582 C 95.475 339.794, 95.541 342.113, 95.277 344.734 L 94.796 349.500 96.590 347 C 97.577 345.625, 98.860 344.133, 99.442 343.684 C 100.024 343.236, 99.487 343.154, 98.250 343.502 C 95.654 344.232, 95.441 343.324, 97.552 340.532 C 99.014 338.598, 99.082 338.609, 101.461 341.174 C 102.792 342.610, 103.571 344.131, 103.191 344.553 C 102.811 344.975, 103.020 345.023, 103.656 344.659 C 104.936 343.927, 104.284 340, 102.883 340 C 102.398 340, 102 339.325, 102 338.500 C 102 337.675, 102.395 337, 102.878 337 C 104.164 337, 106.255 339.779, 105.675 340.717 C 105.401 341.160, 105.817 342.397, 106.598 343.466 C 107.896 345.240, 108.158 345.271, 109.606 343.823 C 110.685 342.743, 110.842 342.020, 110.096 341.559 C 109.493 341.187, 109 341.359, 109 341.941 C 109 342.523, 108.530 343, 107.956 343 C 107.382 343, 107.010 342.438, 107.129 341.750 C 107.413 340.115, 104.920 335, 103.839 335 C 103.378 335, 103 334.370, 103 333.600 C 103 332.225, 92.528 322, 91.119 322 C 90.724 322, 89.860 322.540, 89.200 323.200 M 235.529 327.250 C 236.015 331.142, 235.841 332, 234.561 332 C 233.703 332, 233 332.702, 233 333.559 C 233 334.416, 232.549 334.839, 231.997 334.498 C 231.327 334.084, 231.327 333.257, 231.997 332.005 C 233.844 328.555, 233.018 327.459, 231.029 330.720 C 228.822 334.340, 221.856 339.747, 218.226 340.658 C 214.253 341.655, 212.793 339.306, 214.398 334.496 C 216.406 328.477, 217.079 324, 215.975 324 C 215.439 324, 215 324.559, 215 325.241 C 215 325.924, 213.384 328.829, 211.409 331.696 C 207.130 337.910, 202.620 340.319, 192.059 342.036 C 184.915 343.197, 184.548 343.159, 182.881 341.101 C 180.900 338.654, 181.143 338.406, 176.311 347.815 C 169.307 361.455, 156.955 374.928, 145.041 381.921 C 134.484 388.118, 134.414 388.191, 133.011 394.452 C 131.189 402.583, 130.743 402.772, 126.694 397.137 C 121.845 390.388, 118.852 388.570, 112.598 388.576 C 104.208 388.583, 98 394.110, 98 401.574 C 98 404.474, 101.132 411.035, 103.426 412.939 C 105.048 414.285, 105.052 413.493, 103.457 405.415 C 102.920 402.700, 104.611 396.864, 106.232 395.836 C 106.929 395.393, 109.378 395.024, 111.673 395.015 C 119.917 394.985, 124.711 402.431, 120.107 408.116 C 118.370 410.261, 118.001 410.339, 115.607 409.057 C 112.665 407.483, 112.027 404.641, 114.750 405.236 C 115.712 405.447, 116.373 406.197, 116.219 406.903 C 116.064 407.610, 116.514 407.998, 117.219 407.767 C 119.444 407.036, 119.340 401.340, 117.059 399.059 C 114.763 396.763, 109.128 396.272, 107.200 398.200 C 105.464 399.936, 105.671 411.086, 107.488 413.679 C 110.355 417.772, 121.301 420.187, 126.419 417.855 C 128.738 416.798, 129.342 417.125, 134.269 422.105 C 137.205 425.072, 142.602 429.036, 146.262 430.912 C 153.240 434.490, 154.642 436.962, 148.228 434.377 C 139.966 431.048, 137.418 429.536, 132.811 425.227 C 127.574 420.328, 126.649 420.913, 130.370 426.770 C 133.841 432.231, 135.528 433.450, 147.053 438.826 C 162.488 446.024, 164.871 446.500, 185.500 446.500 C 209.273 446.500, 220.297 442.877, 233.591 430.696 C 247.648 417.815, 249.678 407.044, 242.089 385.595 C 239.708 378.865, 239.508 373.018, 241.141 357.939 C 242.389 346.421, 241.225 337.974, 236.940 327.431 L 234.935 322.500 235.529 327.250 M 81.168 340.131 C 80.973 345.515, 83.984 354.307, 90.542 367.500 C 97.568 381.635, 99.834 384.439, 104.541 384.824 L 108.500 385.148 104.500 382.221 C 102.300 380.610, 99.652 378.338, 98.616 377.170 C 97.580 376.002, 96.273 375.331, 95.712 375.678 C 95.120 376.044, 94.997 375.814, 95.418 375.133 C 95.818 374.486, 94.839 371.829, 93.243 369.228 C 91.647 366.628, 88.851 360.675, 87.030 356 C 85.210 351.325, 83.345 346.600, 82.887 345.500 C 82.429 344.400, 81.892 341.700, 81.695 339.500 L 81.336 335.500 81.168 340.131 M 554.224 342.041 C 548.285 344.426, 544.902 364.347, 549.633 369.077 C 554.399 373.844, 561.923 368.126, 562.734 359.122 C 563.051 355.609, 562.566 353.361, 560.711 349.750 C 558.025 344.519, 558.389 343.945, 562.393 347.095 C 566.794 350.556, 568.996 356.068, 569.032 363.710 C 569.061 369.898, 569.194 370.328, 570.532 368.559 C 572.586 365.842, 572.465 354.782, 570.331 350.285 C 567.157 343.596, 559.768 339.814, 554.224 342.041 M 227.250 344.584 C 222.316 348.472, 222.983 349.740, 229.890 349.611 C 234.288 349.528, 236.290 349.960, 237.791 351.315 C 240.737 353.975, 241.579 351.621, 238.984 347.978 C 237.273 345.574, 232.309 341.955, 230.800 342.011 C 230.635 342.017, 229.037 343.175, 227.250 344.584 M 77.238 356.089 C 77.208 369.243, 78.377 375.958, 82.097 384 C 84.727 389.686, 92.952 402, 94.120 402 C 95.944 402, 94.893 399.271, 92 396.500 C 87.866 392.539, 88.240 391.368, 92.750 394.151 L 96.500 396.465 92.412 391.482 C 83.647 380.801, 79.001 368.593, 77.957 353.500 L 77.266 343.500 77.238 356.089 M 181.675 346.983 C 178.403 348.007, 175.593 350.963, 172.902 356.210 C 170.003 361.865, 170.768 365.395, 174.039 361.453 C 177.226 357.613, 181.661 355.487, 187.500 355 C 193.194 354.525, 193.486 354.373, 193.218 352.004 C 192.694 347.360, 187.579 345.136, 181.675 346.983 M 135.079 357.191 C 135.033 362.844, 134.559 367.155, 133.941 367.536 C 133.320 367.920, 133.158 369.441, 133.548 371.220 C 133.971 373.146, 133.849 374.024, 133.212 373.631 C 132.661 373.290, 131.943 373.707, 131.616 374.558 C 131.226 375.574, 131.447 375.889, 132.261 375.478 C 132.943 375.133, 132.778 375.449, 131.896 376.180 C 131.013 376.910, 129.945 378.598, 129.522 379.931 C 129.099 381.263, 127.684 383.507, 126.376 384.917 C 123.976 387.506, 123.156 389.640, 125 388.500 C 125.550 388.160, 126 388.461, 126 389.168 C 126 389.876, 127.575 388.063, 129.500 385.140 C 131.425 382.217, 133 379.216, 133 378.472 C 133 377.727, 133.445 376.843, 133.989 376.507 C 134.578 376.143, 134.716 376.624, 134.329 377.698 C 133.235 380.741, 134.612 378.779, 137.814 372.732 C 140.099 368.418, 140.763 366.025, 140.448 363.232 C 140.099 360.128, 140.177 359.921, 140.914 362 C 141.519 363.706, 141.832 363.948, 141.900 362.761 C 142.025 360.593, 145.071 356.926, 146.178 357.610 C 146.630 357.890, 147 359.640, 147 361.500 C 147 363.360, 147.480 365.179, 148.067 365.541 C 149.664 366.528, 150.544 365.144, 149.183 363.783 C 148.532 363.133, 148 361.841, 148 360.914 C 148 359.987, 147.328 357.940, 146.506 356.364 C 145.618 354.662, 145.010 354.163, 145.006 355.136 C 145.003 356.036, 143.439 357.513, 141.531 358.418 C 138.476 359.868, 138.131 360.407, 138.638 362.942 C 138.955 364.526, 138.672 367.463, 138.010 369.469 C 136.898 372.838, 136.701 372.979, 135.435 371.309 C 134.681 370.314, 134.049 369.076, 134.032 368.559 C 134.014 368.041, 134.596 368.433, 135.326 369.431 C 136.476 371.003, 136.625 370.466, 136.452 365.372 C 136.342 362.142, 136.700 358.938, 137.248 358.250 C 137.926 357.401, 137.885 357, 137.122 357 C 136.505 357, 136 356.100, 136 355 C 136 353.788, 136.667 353, 137.691 353 C 139.218 353, 139.229 352.879, 137.806 351.750 C 136.939 351.063, 135.989 349.825, 135.694 349 C 135.399 348.175, 135.122 351.861, 135.079 357.191 M 635.416 364.897 C 629.797 368.321, 628.618 373.655, 632.967 375.982 C 634.937 377.037, 635.033 376.871, 634.774 372.847 C 634.524 368.977, 634.754 368.508, 637.354 367.570 C 639.893 366.654, 640.484 366.861, 642.707 369.445 C 647.449 374.959, 642.758 385.375, 634.971 386.621 C 632.808 386.967, 630.467 387.944, 629.769 388.793 C 628.656 390.148, 628.909 390.256, 631.830 389.678 C 640.761 387.908, 645.908 382.997, 646.761 375.428 C 647.653 367.511, 641.104 361.431, 635.416 364.897 M 225.020 368.842 C 221.872 371.470, 221.582 372.201, 221.179 378.527 C 220.753 385.220, 222.755 392, 225.157 392 C 226.456 392, 226.169 391.098, 224.196 388.980 C 221.557 386.147, 222.792 374.397, 226.003 371.797 C 228.575 369.714, 231.093 369.493, 232.800 371.200 C 234.281 372.681, 234.387 374.357, 232.943 373.465 C 232.362 373.106, 230.804 373.083, 229.480 373.416 C 224.061 374.776, 224.031 388.921, 229.443 390.978 C 235.391 393.240, 237.887 389.615, 238.261 378.169 C 238.487 371.242, 238.346 370.706, 235.694 368.419 C 232.021 365.252, 229.185 365.365, 225.020 368.842 M 180.500 370.954 C 177.840 372.054, 174.400 375.940, 173.519 378.840 C 172.925 380.796, 173.357 380.585, 176.154 377.555 C 181.292 371.989, 185.968 371.626, 190.507 376.439 C 192.428 378.476, 193.980 381.123, 193.956 382.321 C 193.920 384.066, 193.521 383.760, 191.948 380.781 C 188.727 374.682, 185.311 373.599, 181.455 377.455 C 176.289 382.620, 180.281 393.854, 187.356 394.063 C 191.718 394.192, 184.746 396.120, 179.216 396.315 C 175.453 396.447, 173.658 396.068, 172.981 395 C 172.155 393.696, 172.029 393.713, 172.015 395.128 C 171.949 402.218, 192.768 397.803, 195.981 390.045 C 197.685 385.933, 196.811 377.563, 194.396 374.852 C 190.863 370.887, 184.785 369.182, 180.500 370.954 M 550.251 384.673 C 553.031 387.827, 548.747 389.511, 538.087 389.455 C 530.495 389.416, 529.007 389.096, 525.250 386.693 C 519.010 382.702, 520.081 388.262, 528.237 402.187 C 533.971 411.979, 541.312 412.741, 549.644 404.409 L 553.948 400.104 555.591 402.884 C 556.494 404.413, 558.107 406.210, 559.176 406.878 C 560.983 408.006, 561.027 407.939, 559.810 405.924 C 559.089 404.732, 557.944 402.799, 557.265 401.628 C 556.578 400.445, 556.023 396.058, 556.015 391.750 C 556.004 386.232, 555.640 383.996, 554.750 383.986 C 554.063 383.979, 552.375 383.683, 551 383.329 C 548.575 382.705, 548.552 382.745, 550.251 384.673 M 217.362 396.500 C 217.764 397.549, 217.285 398, 215.769 398 C 212.995 398, 214.577 399.524, 218.250 400.390 C 220.328 400.880, 221 400.667, 221 399.519 C 221 398.684, 221.675 398, 222.500 398 C 224.939 398, 224.341 403.331, 221.614 405.893 C 219.813 407.584, 218.280 408.057, 215.364 407.817 C 211.771 407.522, 211.500 407.281, 211.502 404.377 C 211.504 402.285, 211.090 401.412, 210.252 401.734 C 208.628 402.357, 208.630 407.448, 210.256 408.797 C 217.211 414.569, 232.257 404.620, 227.516 397.384 C 225.622 394.494, 216.280 393.680, 217.362 396.500 M 190.229 412.171 C 188.529 413.871, 188.677 424.475, 190.449 427.901 C 194.041 434.847, 203.180 439.579, 208.011 436.994 C 212.761 434.452, 219.873 424.603, 219.958 420.450 C 220.010 417.928, 221.822 416, 224.141 416 C 226.409 416, 227.620 414.001, 225.970 412.982 C 224.444 412.038, 220.220 413.686, 217.711 416.204 C 213.942 419.988, 193.442 416.933, 194.282 412.713 C 194.599 411.123, 191.670 410.730, 190.229 412.171 M 193 424.222 C 193 427.924, 197.938 433.815, 201.663 434.559 C 206.123 435.449, 208.774 434.338, 210.596 430.814 C 212.559 427.018, 212.038 426.521, 204 424.512 C 200.425 423.619, 196.488 422.635, 195.250 422.327 C 193.375 421.860, 193 422.177, 193 424.222 M 459.500 425.765 C 456.318 428.103, 451.011 440.347, 453.973 438.517 C 454.390 438.259, 454.994 436.422, 455.317 434.433 C 456.079 429.738, 459.284 427, 464.018 427 C 470.485 427, 474.803 432.073, 476.447 441.602 C 477.145 445.650, 479.537 449.796, 480.575 448.758 C 481.571 447.763, 477.811 433.690, 475.761 430.735 C 472.478 426.003, 463.084 423.132, 459.500 425.765 M 604 427 C 604 427.550, 603.127 428, 602.059 428 C 600.991 428, 599.873 428.396, 599.574 428.880 C 597.583 432.101, 578.419 434.365, 573.849 431.919 C 572.738 431.324, 571.606 431.061, 571.333 431.333 C 570.278 432.389, 573.069 435.786, 575.983 436.993 C 579.619 438.499, 593.511 437.889, 595.253 436.147 C 596.574 434.826, 598 434.638, 598 435.784 C 598 437.684, 591.491 440.155, 585.247 440.625 C 576.857 441.258, 572.368 439.276, 569.668 433.750 C 567.970 430.275, 567.517 430, 563.499 430 C 561.115 430, 558.382 429.700, 557.427 429.334 C 553.357 427.772, 559.235 445.053, 564.435 449.939 C 566.367 451.754, 568.394 452.367, 573.726 452.748 C 585.243 453.572, 589.717 452.140, 611.452 440.669 C 615.276 438.651, 619.240 437, 620.261 437 C 623.181 437, 621.198 435.009, 618.191 434.921 C 616.711 434.878, 616.063 434.615, 616.750 434.338 C 618.478 433.640, 618.314 432.335, 616.407 431.603 C 615.384 431.210, 612.016 433.100, 607 436.879 C 592.008 448.176, 579.855 451.565, 570.710 446.998 C 566.079 444.685, 562.294 439.603, 563.200 436.915 C 563.516 435.981, 564.237 436.577, 565.324 438.671 C 571.219 450.029, 587.374 448.583, 604.718 435.146 L 610.936 430.329 608.008 428.164 C 604.745 425.752, 604 425.535, 604 427 M 494.500 433.946 C 491.761 435.334, 489.633 437.521, 487.750 440.884 C 483.929 447.707, 484.313 448.853, 489.003 444.616 C 495.652 438.610, 503.307 440.011, 506.833 447.881 L 508.455 451.500 508.807 448.026 C 510.096 435.332, 503.866 429.201, 494.500 433.946 M 241 442.228 C 235.933 444.786, 234.719 447.927, 237.577 451.085 C 240.222 454.008, 247.831 457.949, 252.169 458.643 C 259.320 459.786, 257.329 462.146, 249.459 461.856 C 244.690 461.680, 231 464.033, 231 465.028 C 231 466.020, 253.345 465.073, 260 463.798 C 263.025 463.219, 268.425 462.198, 272 461.530 L 278.500 460.314 274 459.803 C 265.398 458.826, 252.093 455.659, 252.670 454.725 C 253.017 454.164, 251.995 454.062, 250.126 454.472 C 247.666 455.013, 247.117 454.858, 247.544 453.746 C 247.953 452.679, 247.381 452.437, 245.203 452.757 C 242.020 453.224, 236.166 449.159, 237.324 447.285 C 238.609 445.206, 244.912 442.999, 249.651 442.970 C 254.742 442.938, 254.192 441.801, 248.500 440.593 C 246.387 440.144, 244.169 440.628, 241 442.228 M 303.739 441.578 C 300.850 443.145, 296.739 448.901, 295.760 452.750 C 295.283 454.622, 295.594 455, 297.613 455 C 299.656 455, 299.946 454.632, 299.451 452.660 C 299.006 450.886, 299.472 449.921, 301.380 448.671 C 304.194 446.827, 305.976 448.119, 303.964 450.544 C 303.113 451.569, 303.087 452, 303.878 452 C 304.495 452, 305 451.583, 305 451.073 C 305 448.274, 316.304 445.687, 317.338 448.250 C 317.615 448.938, 317.878 448.506, 317.921 447.290 C 318.120 441.717, 309.720 438.334, 303.739 441.578 M 279.135 445.056 C 277.214 449.397, 277.146 454.354, 279.002 454.739 C 279.828 454.911, 280.953 454.038, 281.502 452.800 C 282.051 451.562, 283.970 449.565, 285.767 448.363 C 288.799 446.333, 288.916 446.059, 287.388 444.531 C 286.483 443.626, 285.102 443.131, 284.319 443.431 C 283.531 443.734, 283.169 443.536, 283.507 442.989 C 283.843 442.445, 283.301 442, 282.303 442 C 281.241 442, 279.927 443.267, 279.135 445.056 M 255.681 443.652 C 255.305 444.028, 252.457 444.680, 249.351 445.101 C 242.729 446, 239.295 448.394, 243.138 449.432 C 247.747 450.677, 252.583 451.886, 259 453.396 C 262.575 454.238, 266.625 455.245, 268 455.634 C 270.387 456.310, 270.336 456.142, 266.888 451.921 C 264.902 449.490, 261.977 446.825, 260.388 446 C 258.800 445.175, 257.244 444.156, 256.932 443.735 C 256.619 443.314, 256.056 443.277, 255.681 443.652 M 453.250 444.662 C 452.563 444.940, 451.997 445.917, 451.994 446.833 C 451.989 448.107, 450.987 448.529, 447.744 448.622 C 437.564 448.914, 432.468 456.235, 438.607 461.750 C 440.898 463.808, 442.093 464, 452.639 464 C 461.416 464, 464.067 463.702, 463.750 462.750 C 463.522 462.063, 462.472 461.346, 461.417 461.158 C 459.129 460.749, 452.837 454.073, 453.590 452.854 C 453.881 452.384, 453.641 452, 453.059 452 C 452.477 452, 452 451.486, 452 450.858 C 452 450.231, 454.215 452.101, 456.921 455.014 L 461.843 460.312 463.376 456.642 C 464.220 454.623, 465.668 452.681, 466.595 452.325 C 468.146 451.730, 468.135 451.572, 466.449 450.339 C 464.828 449.154, 465.185 448.999, 469.559 448.994 C 474.397 448.988, 474.444 448.959, 471.827 447.593 C 466.863 445.003, 456.469 443.363, 453.250 444.662 M 343.312 454.036 C 339.358 456.070, 335.195 457.977, 334.062 458.274 C 332.928 458.570, 332 459.305, 332 459.906 C 332 461.276, 336.662 461.355, 337.500 460 C 337.840 459.450, 338.886 459, 339.824 459 C 340.762 459, 343.253 458.077, 345.358 456.948 C 347.464 455.819, 349.662 455.054, 350.242 455.247 C 351.147 455.549, 344.648 459.100, 337.314 462.312 C 335.544 463.087, 335.370 463.513, 336.399 464.542 C 337.428 465.571, 338.799 465.527, 343.586 464.311 C 346.838 463.485, 352.425 462.152, 356 461.349 C 359.575 460.546, 362.926 459.466, 363.446 458.948 C 364.885 457.518, 361.010 455.069, 357.250 455.032 C 355.077 455.011, 354 454.515, 354 453.535 C 354 450.133, 350.586 450.293, 343.312 454.036 M 146.500 453.953 C 134.950 459.184, 129.975 470.839, 123.002 509 C 120.275 523.923, 119.544 527.791, 116.388 544 C 112.602 563.450, 112.331 561.948, 120 564.044 C 139.604 569.402, 171.685 569.359, 188.420 563.952 C 199.062 560.514, 198.388 562.742, 196.439 537.465 C 195.508 525.384, 194.577 515.312, 194.371 515.082 C 194.165 514.852, 192.797 515.302, 191.330 516.082 C 182.272 520.899, 154.446 513.650, 140.942 502.954 C 133.472 497.038, 136.219 496.320, 145.232 501.834 C 163.503 513.009, 183.780 516.071, 196.745 509.613 C 199.630 508.176, 202.411 507, 202.925 507 C 203.499 507, 203.486 505.743, 202.892 503.750 C 202.359 501.962, 201.503 496.950, 200.990 492.611 C 200.476 488.273, 199.880 484.546, 199.664 484.331 C 199.449 484.116, 196.174 484.376, 192.386 484.910 C 179.280 486.756, 171.811 486.935, 172.404 485.390 C 173.036 483.743, 171.620 483.598, 168.934 485.035 C 167.430 485.840, 167 485.744, 167 484.603 C 167 483.795, 167.900 482.849, 169 482.500 C 172.021 481.541, 171.539 480.640, 164.787 474.626 C 161.371 471.582, 158.853 468.814, 159.193 468.474 C 160.280 467.387, 167.468 472.616, 171.577 477.484 C 175.028 481.573, 176.169 482.265, 180.214 482.721 C 186.749 483.457, 192 482.336, 191.999 480.205 C 191.998 478.741, 190.870 478.500, 184.034 478.500 C 177.825 478.500, 175.690 478.120, 174.345 476.774 C 172.198 474.627, 173.138 473.468, 175.849 474.919 C 178.666 476.427, 188.511 476.294, 189.809 474.730 C 191.534 472.652, 191.710 464.664, 190.060 463.374 C 188.939 462.498, 188.239 462.718, 186.905 464.366 C 185.495 466.107, 184.152 466.469, 179.345 466.401 C 172.550 466.305, 169.468 464.905, 159.451 457.366 C 151.458 451.350, 151.957 451.481, 146.500 453.953 M 468.174 454.314 C 463.878 458.888, 466.092 463.966, 474.183 468.094 C 477.501 469.786, 478.752 469.978, 480.692 469.094 C 482.013 468.492, 484.453 468, 486.113 468 C 487.773 468, 490.048 467.510, 491.167 466.911 C 493.164 465.842, 493.151 465.767, 490.461 462.959 C 487.088 459.438, 482.985 458.419, 479.298 460.186 C 475.984 461.774, 475.300 464.157, 477.521 466.379 C 478.413 467.270, 478.661 468, 478.071 468 C 476.447 468, 473 464.210, 473 462.423 C 473 461.556, 474.315 459.531, 475.923 457.923 C 478.947 454.899, 477.860 453.934, 473.849 456.081 C 472.738 456.676, 471.533 456.867, 471.173 456.506 C 470.301 455.634, 473.760 453.652, 477.500 452.882 C 479.901 452.387, 479.486 452.237, 475.424 452.132 C 471.309 452.025, 469.937 452.438, 468.174 454.314 M 163.019 456.514 C 171.194 462.545, 181.209 465.215, 184.218 462.165 C 185.262 461.106, 185.178 460.628, 183.766 459.584 C 182.812 458.879, 182.324 458.009, 182.682 457.651 C 183.040 457.293, 181.121 456.995, 178.417 456.988 C 175.713 456.982, 171.025 456.312, 168 455.500 C 160.220 453.412, 159.118 453.636, 163.019 456.514 M 272.715 463.701 C 268.434 465.111, 265.146 466.479, 265.408 466.741 C 266.744 468.078, 280.991 468.819, 286.250 467.826 C 293.063 466.539, 293.618 464.865, 287.980 462.609 C 282.858 460.559, 282.090 460.614, 272.715 463.701 M 516 462.500 L 519.500 463.848 515.323 463.924 C 511.671 463.990, 510.949 464.396, 509.575 467.150 C 507.912 470.484, 508.792 473, 511.622 473 C 513.341 473, 513.464 470.031, 511.750 469.917 C 511.063 469.872, 513.987 468.733, 518.250 467.387 C 522.513 466.041, 526 464.594, 526 464.171 C 526 462.939, 519.667 460.993, 515.929 461.076 L 512.500 461.152 516 462.500 M 316.605 462.728 C 316.205 463.128, 313.542 463.712, 310.689 464.024 L 305.500 464.592 311.500 465.851 C 314.800 466.543, 319.300 467.648, 321.500 468.305 L 325.500 469.500 325.778 483.876 L 326.056 498.253 329.692 497.663 C 335.035 496.795, 335.153 496.467, 335.738 480.842 L 336.276 466.485 333.888 465.281 C 329.715 463.175, 317.903 461.431, 316.605 462.728 M 260.335 469.828 C 259.869 471.607, 258.627 471.888, 248.408 472.527 C 240.208 473.039, 237 473.598, 237 474.514 C 237 475.464, 237.951 475.580, 240.750 474.969 C 242.813 474.519, 247.875 474.004, 252 473.825 L 259.500 473.500 259.187 484.649 C 258.887 495.303, 258.975 495.869, 261.159 497.399 C 265.328 500.319, 265.509 499.725, 265.321 483.751 C 265.148 468.994, 265.072 468.489, 262.998 468.171 C 261.534 467.946, 260.689 468.471, 260.335 469.828 M 302 469.136 L 299.500 470.145 302.725 471.514 C 304.499 472.266, 307.520 473.627, 309.438 474.538 C 312.703 476.087, 313.222 476.081, 317.510 474.443 C 323.164 472.284, 322.463 471.491, 313.170 469.536 C 304.835 467.783, 305.311 467.800, 302 469.136 M 357 469.889 C 357 470.378, 356.212 470.715, 355.250 470.639 C 353.705 470.516, 353.513 471.472, 353.608 478.808 C 353.729 488.115, 354.512 489.731, 357.791 487.434 C 359.758 486.056, 361.129 482.184, 359.235 483.355 C 358.814 483.615, 358.638 480.491, 358.844 476.414 C 359.096 471.426, 358.856 469, 358.109 469 C 357.499 469, 357 469.400, 357 469.889 M 546 469.899 L 541.500 470.538 545.500 471.334 C 552.103 472.647, 557.758 475.906, 560.938 480.231 C 564.409 484.950, 565.140 484.232, 565.364 475.882 L 565.500 470.800 562 470.550 C 560.075 470.412, 556.700 470.066, 554.500 469.780 C 552.300 469.494, 548.475 469.547, 546 469.899 M 288 471.873 C 288 472.493, 288.639 473, 289.419 473 C 290.199 473, 292.222 473.788, 293.913 474.750 C 296.957 476.483, 297.931 478, 296 478 C 295.450 478, 295 477.643, 295 477.207 C 295 474.655, 269.963 470.633, 268.528 472.955 C 267.678 474.330, 277.857 478.767, 286.249 480.679 C 292.516 482.107, 293.431 482.087, 299.045 480.405 C 307.609 477.840, 308.228 476.613, 302.324 473.902 C 296.790 471.362, 288 470.116, 288 471.873 M 229.500 472.668 C 217.744 473.645, 217.194 473.859, 213.761 478.810 C 210.816 483.058, 210.525 484.132, 210.675 490.209 C 210.921 500.243, 211.082 500.485, 218.379 501.830 C 226.526 503.331, 233.129 503.318, 236.685 501.793 C 239.419 500.621, 239.342 500.571, 234 500.043 C 226.667 499.319, 227.793 497.403, 235.301 497.830 C 241.156 498.163, 244.304 496.940, 243.423 494.677 C 243.140 493.950, 240.490 493.482, 236.486 493.454 C 227.198 493.388, 225.955 491.415, 234.802 490.782 C 242.328 490.244, 244.163 489.593, 243.448 487.718 C 243.129 486.884, 240.939 486.606, 236.491 486.835 C 223.131 487.525, 230.973 484.311, 248.484 481.919 C 257.108 480.741, 258 480.448, 258 478.797 C 258 477.460, 244.775 478.515, 241.838 480.087 C 238.887 481.666, 224.809 481.797, 224.269 480.250 C 224.030 479.563, 224.520 479, 225.360 479 C 227.756 479, 234 474.954, 234 473.401 C 234 472.631, 233.887 472.076, 233.750 472.168 C 233.613 472.261, 231.700 472.486, 229.500 472.668 M 342.792 474.057 C 341.749 474.665, 341.328 475.691, 341.711 476.690 C 342.115 477.743, 341.944 478.084, 341.234 477.645 C 340.511 477.198, 339.920 478.612, 339.527 481.731 C 339.196 484.354, 338.689 488.413, 338.401 490.750 C 337.829 495.389, 338.853 496.147, 341.761 493.239 C 342.730 492.270, 344.316 491.630, 345.286 491.817 C 347.137 492.173, 346.931 486.811, 344.880 481.250 C 344.423 480.013, 344.320 477.651, 344.650 476 C 345.312 472.690, 345.249 472.624, 342.792 474.057 M 316.500 477.234 C 306.208 481.422, 307.003 480.405, 306.976 489.419 C 306.963 493.864, 306.560 499.188, 306.081 501.250 C 305.024 505.802, 305.068 505.808, 315.247 502.418 L 323 499.836 323 487.418 C 323 480.588, 322.663 475.045, 322.250 475.100 C 321.837 475.155, 319.250 476.115, 316.500 477.234 M 538.694 478.532 C 537.151 479.889, 534.700 481, 533.248 481 C 530.840 481, 531.010 481.254, 535.185 483.902 C 543.054 488.893, 543.202 491.646, 535.378 487.486 C 527.992 483.559, 523.142 483.205, 519.757 486.346 C 516.276 489.577, 516.900 489.907, 528.751 491.103 C 534.113 491.644, 539.564 492.531, 540.864 493.074 C 542.786 493.876, 544.600 493.383, 550.574 490.431 C 559.776 485.884, 560.572 484.992, 557.944 482.170 C 552.285 476.096, 543.377 474.412, 538.694 478.532 M 268.351 488.599 C 268.685 494.595, 268.968 500.078, 268.979 500.786 C 269 502.084, 276.963 506, 279.583 506 C 280.727 506, 281 503.690, 281 494.013 L 281 482.027 277.250 480.449 C 275.188 479.580, 272.205 478.607, 270.622 478.284 L 267.743 477.699 268.351 488.599 M 468.361 479.732 C 463.311 481.480, 461.418 483.443, 465.479 482.720 C 467.117 482.429, 472.349 482.681, 477.106 483.282 C 483.752 484.120, 487.059 484.081, 491.390 483.112 C 498.630 481.492, 497.833 480.390, 488.754 479.465 C 477.018 478.271, 472.407 478.331, 468.361 479.732 M 299.730 483.250 C 298.264 484.358, 297.396 496.249, 297.942 507.729 C 297.986 508.673, 298.574 508.696, 300.483 507.826 C 303.380 506.506, 303.835 504.494, 304.226 491.249 C 304.516 481.450, 303.798 480.173, 299.730 483.250 M 283 494.839 C 283 507.934, 283.595 509, 290.900 509 C 293.674 509, 293.714 508.912, 294.353 501.349 C 294.709 497.141, 295 491.577, 295 488.985 L 295 484.272 290.360 483.636 C 287.809 483.286, 285.109 483, 284.360 483 C 283.290 483, 283 485.522, 283 494.839 M 452 486 C 452 486.550, 452.113 487.014, 452.250 487.031 C 462.721 488.338, 476.307 490.183, 478.750 490.631 C 481.320 491.102, 482 490.889, 482 489.613 C 482 488.726, 482.563 487.940, 483.250 487.868 C 485.029 487.679, 460.264 485.164, 455.750 485.074 C 453.688 485.033, 452 485.450, 452 486 M 498.690 487.643 C 498.103 488.230, 496.084 488.451, 487.595 488.860 L 484.690 489 485.327 515.250 C 485.677 529.688, 486.257 544.069, 486.617 547.209 L 487.271 552.918 491.886 553.514 C 494.424 553.841, 497.467 554.307, 498.649 554.548 L 500.798 554.988 500.649 520.998 C 500.567 502.304, 500.238 487.007, 499.917 487.004 C 499.596 487.002, 499.044 487.290, 498.690 487.643 M 353.784 492.809 C 346.791 495.406, 340.653 497.974, 340.144 498.516 C 339.636 499.057, 338.902 509.708, 338.513 522.183 L 337.806 544.867 344.653 542.546 C 348.419 541.270, 354.200 539.431, 357.500 538.461 C 360.800 537.490, 363.995 536.202, 364.600 535.598 C 366.809 533.393, 369.343 487.923, 367.250 488.043 C 366.837 488.067, 360.778 490.211, 353.784 492.809 M 557.748 490.573 L 554.996 492.066 555.626 506.783 C 555.972 514.877, 556.603 521.882, 557.027 522.349 C 558.260 523.707, 561.838 522.087, 562.548 519.849 C 563.332 517.380, 562.024 488.983, 561.129 489.040 C 560.783 489.062, 559.262 489.752, 557.748 490.573 M 448.821 500.134 C 449.176 511.529, 449.804 513, 454.312 513 C 457.494 513, 465.331 514.279, 475.255 516.417 C 478.420 517.099, 481.232 517.434, 481.505 517.162 C 481.777 516.890, 482 511.615, 482 505.440 C 482 493.009, 481.995 493, 475.162 493 C 473.140 493, 470.071 492.594, 468.342 492.098 C 466.612 491.602, 461.440 490.882, 456.848 490.498 L 448.500 489.801 448.821 500.134 M 503 492.879 C 503 493.733, 507.171 494.531, 527.020 497.474 C 532.256 498.251, 537.364 499.203, 538.372 499.589 C 539.803 500.139, 540.123 499.878, 539.838 498.396 C 539.445 496.350, 539.790 496.423, 516.500 493.530 C 502.159 491.749, 503 491.789, 503 492.879 M 250.500 496.716 C 249.400 496.983, 246.164 498.950, 243.309 501.089 C 236.514 506.177, 230.851 507.687, 223.268 506.433 L 217.456 505.472 217.789 518.986 C 218.183 534.999, 218.080 534.564, 221.669 535.410 C 226.024 536.437, 237.437 539.919, 248.627 543.636 C 254.196 545.486, 259.259 547, 259.877 547 C 261.122 547, 261.480 516.641, 260.346 507.200 C 259.737 502.130, 255.735 495.790, 253.349 496.116 C 252.882 496.180, 251.600 496.450, 250.500 496.716 M 503.219 508.250 L 503.500 520.500 510.500 521.657 C 514.350 522.293, 520.200 523.280, 523.500 523.850 C 526.800 524.420, 531.525 525.016, 534 525.174 L 538.500 525.461 538.500 512.980 L 538.500 500.500 529 499.726 C 523.775 499.301, 516.256 498.288, 512.292 497.476 C 508.328 496.664, 504.601 496, 504.011 496 C 503.291 496, 503.031 500.020, 503.219 508.250 M 545.667 496.667 C 544.449 497.885, 544.978 500, 546.500 500 C 547.325 500, 548 500.450, 548 501 C 548 501.550, 547.049 502, 545.887 502 C 544.113 502, 543.843 502.477, 544.208 504.962 C 544.490 506.885, 544.157 508.109, 543.258 508.455 C 541.030 509.309, 542.725 510.775, 545.359 510.272 C 546.683 510.019, 548.070 510.304, 548.442 510.906 C 548.884 511.621, 547.865 512, 545.500 512 C 542.888 512, 542.094 512.343, 542.644 513.232 C 543.719 514.972, 543.827 517.989, 542.836 518.601 C 540.208 520.226, 542.158 522.193, 545.732 521.523 C 553.192 520.123, 553.351 519.855, 552.700 509.805 C 551.999 498.986, 548.983 493.351, 545.667 496.667 M 327.819 501.735 L 322.138 503.198 321.603 509.349 C 321.309 512.732, 320.803 523.229, 320.477 532.675 L 319.886 549.849 325.193 548.342 C 328.112 547.513, 331.512 546.595, 332.750 546.301 C 334.868 545.798, 335 545.260, 335.004 537.133 C 335.006 532.385, 335.301 522.087, 335.659 514.250 C 336.204 502.333, 336.081 500.022, 334.906 500.136 C 334.132 500.210, 330.944 500.930, 327.819 501.735 M 264.334 512.091 C 264.694 516.716, 264.991 526.851, 264.994 534.613 L 265 548.726 270.750 550.456 C 273.913 551.407, 279.875 553.438, 284 554.970 C 290.530 557.393, 291.526 557.543, 291.703 556.127 C 291.815 555.232, 292.061 544.975, 292.251 533.333 L 292.596 512.166 288.417 511.540 C 286.118 511.195, 280.472 509.545, 275.869 507.874 C 262.217 502.915, 263.581 502.417, 264.334 512.091 M 315 505.652 C 314.175 505.924, 312.600 506.530, 311.500 507 C 310.400 507.470, 308.172 508.254, 306.549 508.744 L 303.599 509.634 303.871 519.067 C 304.020 524.255, 303.619 534.271, 302.980 541.325 C 302.341 548.379, 302.090 554.423, 302.423 554.756 C 302.756 555.089, 306.059 554.492, 309.764 553.429 L 316.500 551.496 317.144 542.498 C 318.066 529.619, 318.136 504.986, 317.250 505.079 C 316.837 505.122, 315.825 505.380, 315 505.652 M 297.893 511.662 C 295.853 512.207, 295 521.348, 295 542.651 C 295 558.122, 295.321 559.423, 298.601 557.235 C 299.241 556.808, 299.975 551.264, 300.355 544 C 300.714 537.125, 301.296 526.888, 301.649 521.250 C 302.324 510.478, 302.323 510.477, 297.893 511.662 M 461 526.990 C 461 532.334, 461.280 539.387, 461.623 542.662 L 462.245 548.618 470.873 549.884 C 475.618 550.580, 480.299 551.375, 481.276 551.650 C 482.931 552.117, 483.034 551.103, 482.776 536.826 L 482.500 521.500 476.500 520.283 C 473.200 519.613, 468.363 518.662, 465.750 518.169 L 461 517.273 461 526.990 M 504.952 525.378 C 504.703 525.624, 504.725 532.487, 505 540.628 L 505.500 555.430 509 556.140 C 517.994 557.964, 535.683 561.007, 537.275 561.004 C 538.911 561, 539.029 559.782, 538.775 545.498 C 538.624 536.971, 538.172 529.908, 537.770 529.802 C 537.369 529.695, 534.219 529.272, 530.770 528.862 C 523.488 527.995, 511.632 526.228, 507.952 525.461 C 506.550 525.169, 505.200 525.131, 504.952 525.378 M 559 527.106 C 555.425 527.452, 550.138 528.083, 547.250 528.507 L 542 529.279 542 544.973 C 542 553.604, 542.236 560.903, 542.525 561.192 C 542.814 561.481, 546.977 560.858, 551.775 559.808 C 556.574 558.758, 561.445 557.705, 562.601 557.468 C 564.585 557.061, 564.741 556.195, 565.406 541.907 C 565.794 533.586, 565.973 526.709, 565.805 526.626 C 565.637 526.543, 562.575 526.759, 559 527.106 M 111.695 569.250 C 111.416 571.587, 110.632 577.259, 109.952 581.853 C 108.428 592.148, 106.008 590.276, 130.372 597.647 C 144.437 601.901, 171.104 600.619, 184.500 595.044 C 185.600 594.586, 188.731 593.416, 191.457 592.444 C 200.893 589.079, 202.045 586.228, 198.909 574 C 198.415 572.075, 198.009 569.263, 198.006 567.750 C 197.999 564.549, 196.623 564.295, 191.311 566.515 C 176.087 572.876, 132.694 572.628, 115.685 566.083 C 114.137 565.487, 112.719 565, 112.536 565 C 112.352 565, 111.973 566.913, 111.695 569.250 M 550.730 586.750 C 549.040 596.644, 547.264 605.257, 544.492 617 C 539.943 636.275, 540.133 639.187, 546.135 642.176 C 559.978 649.071, 565.177 650.439, 577.667 650.471 C 590.124 650.503, 589.800 650.627, 591.151 645.329 C 591.689 643.223, 592.811 638.800, 593.647 635.500 C 594.482 632.200, 595.402 626.496, 595.691 622.825 L 596.217 616.149 589.061 614.018 C 582.084 611.940, 574.687 606.979, 576.245 605.422 C 576.653 605.013, 577.778 605.358, 578.744 606.187 C 579.710 607.017, 581.175 608.023, 582 608.422 C 582.825 608.821, 582.633 608.445, 581.573 607.584 C 577.777 604.504, 581.122 604.701, 585.544 607.818 C 590.795 611.519, 591.445 611.700, 590.035 609.066 C 587.822 604.930, 591.422 604.709, 595.191 608.750 C 600.488 614.429, 601.256 620.314, 598.422 633.500 C 597.594 637.350, 596.655 642.862, 596.335 645.749 L 595.753 650.997 601.626 653.711 C 606.939 656.165, 608.598 656.424, 619 656.421 C 635.691 656.416, 645.910 653.628, 658.250 645.711 C 663.667 642.235, 663.816 641.526, 660.972 632.754 C 657.446 621.878, 657.112 620.632, 656.073 614.500 C 655.514 611.200, 654.384 604.900, 653.563 600.500 C 651.344 588.612, 651.587 583.618, 654 591.500 L 655.837 597.500 655.919 589.133 C 656.012 579.497, 657.706 580.110, 642.500 584.279 C 624.446 589.229, 622.267 589.501, 601 589.469 L 580.500 589.438 572.122 586.242 C 567.513 584.484, 561.333 581.686, 558.387 580.023 C 555.441 578.360, 552.888 577, 552.713 577 C 552.539 577, 551.647 581.388, 550.730 586.750 M 121 600.543 C 121 601.222, 122.517 606.665, 124.372 612.639 C 126.227 618.612, 128.695 627.630, 129.857 632.679 L 131.970 641.857 129.830 647.804 C 127.190 655.144, 127.637 656.419, 133.358 657.860 C 142.804 660.238, 153.849 658.004, 156.242 653.230 C 156.995 651.729, 158.426 649.150, 159.422 647.500 C 161.132 644.669, 161.054 644.698, 158.057 648 C 155.151 651.202, 154.938 651.287, 155.555 649 C 156.542 645.343, 160.153 641.638, 161.169 643.239 C 161.758 644.167, 161.973 644.068, 161.985 642.864 C 161.993 641.965, 162.672 639.940, 163.494 638.364 C 164.460 636.511, 164.990 632.624, 164.994 627.355 C 164.999 620.546, 165.492 618.052, 168 612.160 C 171.930 602.923, 172.070 603.218, 164.250 604.239 C 156.920 605.196, 143.498 604.583, 136.740 602.983 C 121.455 599.364, 121 599.293, 121 600.543 M 184 599.829 C 184 600.376, 182.088 601.140, 179.750 601.525 C 174.233 602.435, 173 603.533, 173 607.534 C 173 609.906, 173.778 611.477, 175.794 613.173 C 177.331 614.466, 178.906 616.039, 179.295 616.669 C 180.445 618.530, 176.354 617.049, 174.410 614.900 C 170.318 610.379, 169.034 613.174, 169.014 626.645 C 169.002 634.555, 168.595 636.743, 166 642.840 C 162.916 650.089, 162.317 653, 163.912 653 C 166.755 653, 180.431 649.887, 181.506 648.995 C 182.206 648.414, 183.079 646.715, 183.446 645.219 C 186.647 632.171, 187.287 628.183, 187.654 619 C 188.111 607.555, 187.173 599.891, 185.236 599.245 C 184.556 599.019, 184 599.281, 184 599.829 M 178.799 654.052 C 177.864 654.598, 173.884 655.372, 169.955 655.772 L 162.811 656.500 164.978 659.250 C 166.791 661.551, 167.910 661.999, 171.823 661.996 C 176.417 661.993, 183 659.107, 183 657.096 C 183 656.583, 183.273 655.452, 183.607 654.582 C 184.309 652.753, 181.548 652.449, 178.799 654.052 M 561.152 654.510 C 561.758 657.586, 581.838 661.227, 585.978 659.012 C 588.720 657.544, 588.575 654.996, 585.750 655.015 C 583.885 655.028, 583.756 655.213, 585 656.096 C 586.132 656.900, 585.764 656.991, 583.500 656.468 C 581.850 656.086, 577.575 655.376, 574 654.891 C 570.425 654.405, 565.993 653.724, 564.152 653.376 C 561.309 652.840, 560.857 653.011, 561.152 654.510 M 591.683 656.762 C 591.295 658.710, 591.893 660.604, 593.757 663.325 C 595.724 666.197, 596.063 667.343, 595.121 667.925 C 594.206 668.491, 594.056 670.371, 594.566 674.884 C 595.249 680.914, 595.319 681.032, 597.383 679.638 C 598.547 678.852, 599.369 677.494, 599.210 676.621 C 599.024 675.604, 599.428 675.227, 600.331 675.573 C 601.107 675.871, 602 675.442, 602.316 674.619 C 602.652 673.742, 605.309 672.646, 608.729 671.974 C 614.308 670.876, 614.622 670.652, 615.784 666.928 C 617.433 661.645, 617.336 661, 614.894 661 C 610.588 661, 597.861 657.175, 592.864 654.379 C 592.515 654.183, 591.983 655.256, 591.683 656.762 M 641.985 659.750 C 641.972 661.187, 641.807 661.243, 641.061 660.064 C 640.421 659.053, 639.760 658.927, 638.826 659.637 C 638.097 660.192, 636.375 660.702, 635 660.769 C 629.562 661.037, 626 662.136, 626 663.545 C 626 664.702, 627.691 664.997, 634.250 664.985 C 643.888 664.967, 645.536 664.271, 644.616 660.607 C 643.880 657.674, 642.008 657.064, 641.985 659.750 M 124 660.358 C 124 663.773, 129.820 665.372, 142.500 665.438 C 155.434 665.505, 161.370 664.099, 160.769 661.110 C 160.406 659.306, 159.237 659.288, 148.078 660.910 C 141.080 661.927, 136.608 661.607, 126.750 659.386 C 124.643 658.912, 124 659.139, 124 660.358 M 124 668.947 C 124 673.729, 126.106 674.517, 138.412 674.343 C 149.887 674.181, 155 673.049, 155 670.670 C 155 669.605, 152.213 669.158, 142.750 668.707 C 136.012 668.386, 129.037 667.677, 127.250 667.131 C 124.120 666.176, 124 666.243, 124 668.947 M 557 666.881 C 557 667.440, 558.614 669.129, 560.587 670.634 C 562.560 672.139, 565.175 675.424, 566.398 677.935 C 571.384 688.170, 571.392 688.173, 585.653 683.561 C 591.914 681.537, 592.525 681.094, 592.797 678.389 C 593.444 671.949, 592.036 670.609, 584.920 670.900 C 581.399 671.044, 578.264 671.573, 577.953 672.076 C 577.643 672.578, 574.488 671.427, 570.944 669.518 C 564.844 666.231, 561.304 665.090, 562.358 666.750 C 562.620 667.163, 564.559 668.371, 566.667 669.436 C 573.115 672.694, 577.128 675.205, 576.650 675.683 C 576.400 675.934, 575.363 675.673, 574.347 675.104 C 573.331 674.536, 570.250 673.098, 567.500 671.909 C 564.750 670.720, 561.263 668.874, 559.750 667.806 C 558.237 666.738, 557 666.322, 557 666.881 M 642.797 667.536 C 642.502 667.831, 636.780 668.101, 630.080 668.136 C 616.123 668.209, 615.430 668.882, 624.565 673.500 L 630.500 676.500 627 677.025 C 623.706 677.519, 623.647 677.592, 626 678.262 C 629.683 679.309, 637 679.152, 637 678.025 C 637 677.489, 638.462 677.272, 640.250 677.544 C 642.821 677.935, 643.082 677.840, 641.500 677.089 L 639.500 676.141 641.500 675.952 C 642.600 675.848, 644.063 675.836, 644.750 675.925 C 645.438 676.015, 646 675.618, 646 675.044 C 646 674.470, 646.648 674, 647.441 674 C 649.489 674, 650.161 672.490, 649.422 669.546 C 648.820 667.147, 644.498 665.835, 642.797 667.536 M 547.682 670.651 C 547.367 670.966, 548.402 673.536, 549.983 676.362 C 551.563 679.188, 553.173 683.300, 553.560 685.500 C 554.551 691.138, 554.356 691.052, 561.562 689.054 C 570.050 686.700, 569.976 686.887, 564.648 681.259 C 560.222 676.585, 548.856 669.478, 547.682 670.651 M 535.267 673.188 C 531.963 674.067, 524 680.831, 524 682.758 C 524 684.855, 543.953 691, 550.763 691 C 553.346 691, 548.998 677.903, 545.432 674.944 C 543.223 673.110, 538.576 672.308, 535.267 673.188 M 200.022 681.802 C 196.929 683.921, 194.831 685.976, 192.799 688.877 C 190.202 692.584, 192.947 697.008, 197.823 696.976 C 209.757 696.896, 224.400 689.597, 220.955 685.446 C 216.784 680.420, 205.028 678.374, 200.022 681.802 M 120.999 683.504 C 117.625 692.378, 119.919 694.919, 135.880 699.978 C 145.222 702.939, 146.187 702.753, 148.312 697.587 C 150.246 692.882, 158.424 684.052, 160.968 683.921 C 161.810 683.878, 161.172 683.360, 159.550 682.771 C 157.381 681.984, 156.498 682.005, 156.217 682.850 C 156.006 683.482, 154.971 684, 153.917 684 C 152.863 684, 152 684.498, 152 685.107 C 152 685.716, 151.302 685.946, 150.448 685.618 C 149.558 685.277, 149.157 685.445, 149.507 686.011 C 149.843 686.555, 149.656 687, 149.092 687 C 148.528 687, 146.468 688.599, 144.514 690.552 C 141.243 693.824, 140.834 693.977, 139.345 692.488 C 137.653 690.796, 137.716 690.685, 142.385 687.171 C 146.395 684.153, 143.294 684.436, 138.785 687.500 C 134.221 690.601, 134 690.598, 134 687.433 C 134 685.291, 133.657 684.974, 131.928 685.523 C 130.688 685.916, 129.183 685.593, 128.178 684.719 C 124 681.080, 122.046 680.749, 120.999 683.504 M 592.287 686.630 C 584.679 690.381, 581.410 699.649, 586.750 702.329 C 593.962 705.950, 611.427 707.584, 621 705.535 C 632.762 703.018, 634.753 699.060, 627.939 691.742 L 624.920 688.500 627.460 692.390 C 628.857 694.529, 629.971 697.229, 629.937 698.390 L 629.873 700.500 629.036 698.432 C 628.080 696.070, 618.127 686.818, 617.147 687.380 C 616.791 687.585, 613.125 687.150, 609 686.416 C 599.216 684.672, 596.178 684.711, 592.287 686.630 M 158.713 689.085 C 155.532 691.707, 148.419 701.752, 149.194 702.528 C 149.365 702.698, 150.628 703.104, 152.002 703.430 C 154.183 703.947, 154.744 703.489, 156.422 699.824 C 157.479 697.515, 159.841 693.968, 161.672 691.941 C 165.417 687.796, 165.554 687.427, 163.629 686.688 C 162.876 686.399, 160.663 687.478, 158.713 689.085 M 167.036 689.474 C 163.326 692.210, 155.422 702.756, 156.370 703.703 C 156.701 704.034, 161.452 704.304, 166.929 704.304 C 182.016 704.304, 192.507 698.532, 187.491 692.990 C 182.319 687.275, 172.341 685.560, 167.036 689.474 M 523.189 688.742 C 523.953 692.712, 543.254 698.709, 551.935 697.675 C 554.446 697.376, 559.425 696.428, 563 695.568 C 566.575 694.708, 572.301 693.489, 575.725 692.858 C 579.568 692.151, 582.629 690.950, 583.725 689.720 C 585.479 687.751, 585.439 687.735, 580.500 688.411 C 574.892 689.178, 563.011 691.720, 558.601 693.096 C 552.107 695.121, 541.871 693.706, 529.014 689.006 C 522.400 686.588, 522.777 686.605, 523.189 688.742 M 651.500 696.962 C 628.748 707.697, 624.130 709, 608.823 709 C 597.255 709, 588.083 707.161, 584.670 704.156 C 582.933 702.627, 582.856 702.723, 583.170 706.022 C 583.655 711.134, 589.371 712.820, 606.500 712.903 C 620.608 712.971, 626.564 711.835, 641.552 706.215 C 655.761 700.888, 659 699.064, 659 696.390 C 659 693.458, 658.912 693.465, 651.500 696.962 M 117.950 696.906 C 123.018 706.376, 164.020 713.754, 180.737 708.205 C 186.091 706.428, 190 703.813, 190 702.010 C 190 700.619, 188.952 700.746, 187.079 702.363 C 179.058 709.288, 149.870 708.589, 128 700.947 C 126.075 700.274, 123.068 698.661, 121.317 697.362 C 117.462 694.502, 116.601 694.385, 117.950 696.906" stroke="none" fill="#1b1f3a" fill-rule="evenodd"/>
</svg>