<svg xmlns="http://www.w3.org/2000/svg" viewBox="0 0 768 768" version="1.1" preserveAspectRatio="xMidYMid meet"><path d="M 363 55.1 C 314.7 60.6, 289.4 67.8, 247 88.3 C 241.2 91.1, 230.1 97.4, 218.6 104.5 C 203 114.1, 177.2 135.5, 164.7 149.2 C 76.9 245.8, 56.6 381.4, 112.8 497 C 140.9 554.9, 193 606.7, 250.8 634 C 257.1 637, 258 637.7, 258 640.1 C 258 643.5, 259.7 646.7, 265.2 653.8 C 285.4 679.8, 328.5 691.6, 393 688.8 C 436.8 687, 465.2 675.2, 483.6 651.5 C 489.2 644.3, 489.8 641, 486.7 635 C 485.2 632.1, 484 629.7, 484 629.5 C 484 629.4, 486.4 628.5, 489.3 627.5 C 499.4 624.2, 524.2 612.3, 537.1 604.5 C 586 574.9, 630.8 522, 653.4 467 C 654.9 463.4, 656.7 459.2, 657.4 457.5 C 676.9 412.9, 684.8 345.5, 676.6 294 C 665.7 225.2, 631.3 165.2, 577.6 121 C 558.4 105.2, 531.5 88.6, 509.5 79 C 506.8 77.8, 503.2 76.3, 501.5 75.5 C 493.6 72, 467.8 64, 455 61.1 C 426.5 54.7, 388.2 52.2, 363 55.1 M 352 63.6 C 324.8 66.9, 295.6 74.4, 274.5 83.6 C 232.1 101.9, 204.5 119.9, 176.8 147.2 C 144.5 179.1, 114.1 228.7, 103 267.5 C 102.4 269.7, 101.2 273.8, 100.4 276.5 C 99.6 279.3, 98.2 284.7, 97.4 288.5 C 96.5 292.4, 95.2 298.2, 94.4 301.5 C 85.1 341.2, 86.7 394.3, 98.5 439.5 C 100.9 448.9, 106 465, 108 469.5 C 108.5 470.6, 110.6 475.6, 112.6 480.5 C 123.1 505.6, 140.1 533, 157.5 552.9 C 186.9 586.6, 217 610.2, 252.2 627.4 C 264.6 633.4, 264.3 633.5, 279.9 616.5 C 289.2 606.3, 290.2 603.4, 287.4 595.2 C 281.8 579.2, 280.1 537, 283.4 492.1 L 285 470.8 270.1 455.5 C 262 447.1, 253.2 437.6, 250.8 434.3 C 243.7 425.2, 231.7 407.1, 227.5 399.5 C 225.4 395.6, 222.6 390.5, 221.2 388 C 209.8 367.3, 203.9 347.7, 199.5 316 C 195.9 289.9, 199.7 251.6, 208 231.5 C 208.4 230.4, 209.6 227.3, 210.5 224.5 C 213.7 215.2, 219.9 201.9, 224.8 193.5 C 228.9 186.6, 246.7 162.4, 249.9 159.6 C 254.4 155.5, 252.5 159, 243.8 170.5 C 230.1 188.8, 224.3 198.2, 219 210.5 C 217.8 213.3, 216.2 216.9, 215.4 218.7 C 214.6 220.4, 214 222.2, 214 222.8 C 214 223.3, 213.3 225.1, 212.5 226.6 C 211.7 228.2, 211 230.2, 211 231.1 C 211 231.9, 210.6 233, 210.1 233.6 C 209.7 234.1, 208.3 239, 207.1 244.5 C 205.9 250, 204.5 256.4, 203.9 258.7 C 200.9 272.1, 201 307.4, 204 322 C 204.5 324.5, 205.2 328.5, 205.6 331 C 206.2 335.5, 209 346.9, 210.8 352.5 C 211.4 354.2, 212.6 358.2, 213.5 361.5 C 217.2 374.3, 234.9 405.3, 250.9 427 C 258.5 437.4, 282.5 464, 284.2 464 C 284.7 464, 286.2 457, 287.5 448.9 C 288 445.7, 287.7 445, 285.4 443.5 C 275.8 437.3, 275.5 431, 284.4 424.1 C 290.3 419.5, 290.3 419.4, 290.6 413.8 C 290.8 409.9, 292 405.8, 294.3 400.8 C 296.6 395.8, 297.9 391.3, 298.3 386.7 C 298.7 382.5, 299.7 378.6, 301 376.6 L 303 373.3 300.4 370.9 C 290.9 362, 274.6 329.8, 268.6 308 C 262.3 284.8, 262.7 252.6, 269.6 231.3 C 281.9 193.7, 307.7 161.9, 347 136 C 357.6 129, 382.8 116.5, 396.3 111.5 C 398.9 110.5, 401 109.4, 401 109 C 401 108.6, 404.3 108, 408.4 107.7 C 412.4 107.3, 416.9 106.6, 418.4 106 C 432 100.9, 482.4 102.6, 506.5 109.1 C 531.1 115.7, 566 133, 566 138.6 C 566 140.8, 564.2 140.3, 557.7 136.3 C 551.1 132.3, 533.3 124, 531.2 124 C 530.5 124, 529.2 123.6, 528.2 123.1 C 521.4 119.5, 499.6 113.9, 482.5 111.4 C 469 109.4, 437.9 109.2, 427.5 111.1 L 420.2 112.4 419.6 118.2 C 419.3 121.4, 418.4 125.6, 417.5 127.6 C 416.4 130.4, 416 135.5, 416 149.4 C 416 159.3, 415.5 170.2, 415 173.5 C 413.7 182.5, 411.3 194.6, 409.1 203.3 C 407.1 211.8, 406.9 211.4, 413.1 212.4 C 422.6 214, 430.8 223.4, 431.7 233.9 C 432.3 240.2, 430.6 252, 428.7 255.1 C 427.8 256.6, 427.8 257.5, 428.8 259.1 C 430.5 261.8, 429.5 262.8, 427.2 260.7 C 423.6 257.4, 423 259.1, 426.5 262.5 C 428.4 264.5, 430.6 267.5, 431.4 269.3 C 433.9 275.2, 451.8 296.4, 454.9 297.2 C 457.3 297.9, 458 298.9, 459.4 303.7 C 460.3 306.9, 461.8 311.8, 462.6 314.5 C 463.6 317.8, 465.3 320.7, 467.8 323 C 473.7 328.5, 481.8 338.2, 482.9 341.3 C 483.5 342.9, 484 347, 484 350.5 C 484 354, 484.5 358.1, 485.2 359.5 C 486.2 361.8, 486.1 362.4, 483.7 364.8 C 479.8 368.6, 479 366.8, 479 353.7 C 479 344.3, 478.7 342.4, 476.9 339.9 C 474.1 336, 472.7 336.2, 474.8 340.3 C 476.5 343.5, 476.9 355.8, 475.6 367 C 475.4 369.5, 475.4 370.7, 475.6 369.8 C 475.9 368.8, 476.6 368, 477.1 368 C 478.3 368, 478.3 370.5, 477.1 372.8 C 476.6 373.7, 475.7 376.4, 475.1 378.8 C 474.4 381.1, 473.5 383, 473 383 C 472.4 383, 472 383.7, 472 384.5 C 472 385.4, 473 386, 474.6 386 C 482.4 386, 487.1 392.2, 488.2 403.9 C 488.7 408.6, 489.3 414.7, 489.6 417.4 C 490 420.1, 489.7 424.8, 489 428 C 487.8 433.6, 487.6 433.9, 480.3 439 L 472.7 444.2 473.4 493.4 C 474.3 556.8, 473.8 564.2, 467 585.2 C 464.2 593.6, 462.1 601.4, 462.2 602.5 C 462.4 603.8, 464.5 605.4, 468.3 607.2 C 474.4 610.1, 477.2 613.6, 479.1 620.3 C 479.6 622.3, 480.6 624, 481.2 624 C 482.9 624, 500.1 616.5, 514.5 609.5 C 571 582, 622.6 525.2, 648.5 462 C 649.9 458.4, 651.8 454.1, 652.5 452.4 C 654.8 447.5, 660.9 428.4, 664.1 416 C 675.9 371.5, 676.7 318.4, 666.4 275 C 662.9 260.6, 656.5 241.6, 650.8 229.1 C 649.2 225.6, 646.9 220.4, 645.7 217.6 C 633.2 188.4, 598.7 146.2, 567.9 122.3 C 534.6 96.4, 489.8 75.7, 449.5 67.4 C 423.6 62.1, 379.1 60.4, 352 63.6 M 351 72.1 C 337.9 73.9, 312.1 80.6, 317.1 81 C 318.7 81.1, 328.7 78.9, 330.5 78.1 C 332.7 77.1, 341.7 75.3, 352 73.9 C 355.6 73.4, 360.1 72.6, 362 72.1 L 365.5 71.2 361 71.2 C 358.5 71.3, 354 71.6, 351 72.1 M 379.5 87.1 C 375.1 87.8, 368 89, 352 92 C 349.5 92.4, 346.4 93.3, 345 93.8 C 343.6 94.4, 339.1 95.9, 335 97.1 C 330.9 98.3, 326.8 99.7, 326 100.1 C 325.2 100.5, 321 102.5, 316.8 104.5 C 309.3 108.1, 304.4 111.7, 305.4 112.7 C 305.7 113, 308.1 111.9, 310.9 110.2 C 317.9 105.8, 322.9 103.7, 337 99 C 343.9 96.7, 350.2 94.6, 351 94.3 C 351.8 94, 354.1 93.6, 356 93.5 C 357.9 93.3, 363.1 92.5, 367.5 91.6 C 378.7 89.3, 388.5 88.1, 395.5 88 C 398.8 88, 402.2 87.5, 403 87 C 404.8 85.8, 386.9 85.9, 379.5 87.1 M 468.5 91 C 468.8 91.6, 470.1 92, 471.3 92 C 474.1 92, 487 94.9, 489 95.9 C 489.9 96.4, 492.1 97.1, 494 97.5 C 495.9 97.9, 498.1 98.6, 499 99 C 502.3 100.8, 510.1 103.1, 511.1 102.8 C 514.7 101.6, 498.7 95.7, 479.7 91.1 C 473.8 89.7, 467.7 89.6, 468.5 91 M 413.5 94.6 C 408 95.4, 402.6 96.4, 401.5 96.8 C 398.7 98.1, 393.7 99.8, 384.5 102.7 C 380.1 104.1, 375.6 105.9, 374.5 106.7 L 372.5 108.2 374.5 107.7 C 375.6 107.4, 378.1 106.8, 380 106.5 C 384.7 105.6, 393.3 102.9, 394.5 101.9 C 398.4 98.9, 405.3 97.8, 421.5 97.3 C 439.1 96.9, 442 96.5, 440.4 95.1 C 438.7 93.5, 423.6 93.3, 413.5 94.6 M 399.5 117 C 399.2 117.6, 398.2 118, 397.3 118 C 395.7 118, 393.8 118.8, 379.1 125.6 C 303.8 160.8, 260.4 226.5, 270.6 289.8 C 272 298.4, 272.9 302.4, 277.2 317 C 281.2 330.9, 302.5 367.9, 306.5 367.9 C 307.1 367.9, 309.2 365.2, 311.3 361.9 C 316.7 353.6, 320.4 351, 329.6 349.5 C 338.8 347.9, 338.5 348.1, 338.5 341.5 C 338.5 336.6, 338.2 335.9, 334 331.4 C 328.3 325.3, 326.3 320.7, 327.7 317.1 C 328.6 314.6, 353.3 281.4, 358.2 276 C 359.5 274.6, 362.8 271.7, 365.5 269.5 C 368.3 267.4, 372.8 263.5, 375.5 261 C 378.3 258.4, 381.4 255.9, 382.5 255.3 C 384.6 254.1, 384.3 253.2, 380.1 246.5 C 374 237, 381.3 220.7, 394.3 214.5 C 396.7 213.4, 398 212, 398.4 210.2 C 398.7 208.7, 400.1 202.1, 401.5 195.5 C 402.9 188.9, 404.5 178.1, 405 171.5 C 405.6 164.9, 406.5 156.1, 407 152 C 407.5 147.9, 407.9 141.1, 408 137 C 408.1 124.3, 402.7 111.8, 399.5 117 M 261.8 129.3 C 261.1 130, 259.3 131.3, 257.8 132.3 C 251.7 136.1, 235.4 153, 227.7 163.4 C 208.9 188.6, 201.6 202.4, 193.1 229.1 C 191.8 233.3, 190.4 246, 191.3 246 C 191.6 246, 192.4 243.4, 193 240.3 C 194.4 233, 196.8 224, 198.1 221.8 C 198.6 220.8, 199 219.5, 199 218.9 C 199 214.3, 214.9 184.4, 225.2 169.7 C 233.7 157.5, 245.5 144.6, 255.9 136 C 262 130.9, 264 129, 264 128.4 C 264 127.7, 263.2 128, 261.8 129.3 M 409.6 167 C 409.3 173, 408 182.3, 406.9 187.7 C 404.8 197.6, 402 211.3, 402 211.8 C 402 211.9, 402.5 212, 403 212 C 403.6 212, 404 211.1, 404 210.1 C 404 209.1, 405.3 202.7, 406.9 195.9 C 411 178.9, 413.4 156, 411.2 156 C 410.7 156, 410 160.9, 409.6 167 M 236 163.9 C 228 173.3, 220.8 184.4, 213.4 199.1 C 210.9 204, 210 208.4, 212.4 204 C 219.1 191.4, 221.4 187.3, 222.6 185.9 C 223.4 185.1, 224 183.9, 224 183.3 C 224 182.7, 224.4 182, 224.8 181.8 C 225.2 181.7, 226.7 179.7, 228 177.5 C 230.8 173, 230.9 172.8, 234.8 168 C 238 164, 241.2 159, 240.6 159 C 240.4 159, 238.3 161.2, 236 163.9 M 215.9 164.8 C 213.8 167.2, 205.3 179.4, 202.5 184.1 C 194.6 197.4, 188.6 210.7, 190.1 211.5 C 190.6 211.9, 191 211.4, 191 210.5 C 191 209.6, 192.3 206.6, 193.9 203.7 C 195.5 200.8, 198.5 195.4, 200.5 191.5 C 204.1 184.7, 214.7 168, 216 167 C 216.9 166.4, 219.2 162, 218.7 162 C 218.5 162, 217.2 163.2, 215.9 164.8 M 322.4 180.8 C 321.7 182.3, 320.4 188, 319.4 193.5 C 317.6 204.1, 316.3 207.5, 313.4 210.1 C 310.9 212.2, 302.5 215, 298.4 215 C 294.1 215, 289 216.1, 289 217 C 289 217.9, 295.9 219.7, 302.1 220.4 C 311.5 221.5, 314.9 225.4, 317.1 237.6 C 318.7 246.9, 323.5 261, 325 261 C 325.3 261, 325.6 254.4, 325.6 246.3 C 325.5 226.2, 327.9 222.2, 341.5 220.5 C 349.6 219.5, 356.1 217.7, 355.7 216.6 C 355.5 216, 351 215.3, 345.4 215 C 327.1 214, 322.9 208.4, 324.4 187.3 C 325.1 177.9, 324.4 175.7, 322.4 180.8 M 562.5 187.2 C 562.3 187.9, 562.1 189.2, 562.2 190 C 563 199.4, 560.5 203, 553.1 203 C 551.4 203, 550 203.4, 550 203.9 C 550 205.1, 553.7 206, 558.8 206 L 563 206 563 210.1 C 563 215.3, 565.4 214.9, 565.8 209.7 C 566.1 206, 566.2 206, 570.6 206 C 573.8 206, 575 205.6, 575 204.5 C 575 203.5, 574 203, 572.2 203 C 567.4 203, 566 201.2, 565.3 193.7 C 564.7 187.2, 563.5 184.4, 562.5 187.2 M 319 209.3 C 318.2 211, 315.8 213.6, 313.7 215 C 310.3 217.1, 310.1 217.5, 311.8 218.1 C 314.6 219.1, 318.9 225.1, 319.6 228.8 C 320.4 233, 321.7 232.9, 322.6 228.5 C 323 226.2, 324.6 223.8, 327.2 221.4 C 331.4 217.6, 331.4 217.6, 326.8 214.9 C 325.8 214.4, 324.1 212.1, 323 210 C 320.6 205.2, 320.9 205.3, 319 209.3 M 407 221.8 C 407 225.7, 403.3 226.8, 397.8 224.5 C 396.7 224.1, 395 224.9, 392.3 227.3 C 388.8 230.6, 388.5 231.2, 388.6 236.7 C 388.6 240.2, 389.3 243.8, 390.3 245.8 C 392 249, 392.1 249, 395 247.5 C 398.7 245.6, 401.4 245.6, 411.2 247.6 C 418.8 249.1, 419.2 249.1, 420.5 247.4 C 422.5 244.8, 422.5 231.8, 420.5 228 C 417.6 222.4, 407 217.5, 407 221.8 M 562.2 242.7 C 561.7 243.7, 561 246.5, 560.7 248.9 C 559.9 255.3, 557.9 256.8, 549 257.6 C 536.4 258.6, 536 259.3, 547.1 261.6 C 551.1 262.4, 555 263.6, 555.8 264.2 C 557.8 265.9, 560 271.8, 560 275.5 C 560 288.1, 563.4 287.9, 565 275.1 C 566 267.5, 567.3 266, 574.7 263.9 C 581.4 262.1, 582.9 260, 577.5 260 C 570.1 260, 566.4 256.2, 565.4 247.7 C 564.7 241.5, 563.6 239.9, 562.2 242.7 M 414 265.2 C 412.5 267.1, 412.9 267.6, 419.6 274.4 C 432 286.8, 430.7 295, 416.2 296.7 C 412.1 297.1, 411.1 296.9, 408.7 294.6 C 406.2 292.2, 405.1 292, 397.7 292 C 393.2 292, 388.8 291.5, 388 290.9 C 386.9 290.2, 390.6 290.1, 400.5 290.5 C 420.5 291.4, 420 291.4, 421.3 290.1 C 423.3 288.1, 420.9 283.5, 418 283.7 C 416.6 283.8, 416.1 283.7, 416.8 283.4 C 419.2 282.3, 418 281.1, 415.4 282.1 C 413.6 282.7, 410.9 282.7, 407.2 282 C 404.1 281.5, 399.6 281, 397.1 281 C 388.2 280.9, 395.3 279.1, 405.7 278.8 C 412.6 278.6, 415.6 278.2, 415 277.5 C 414.5 276.9, 411.7 276.6, 408.7 276.7 C 405.8 276.9, 402.3 276.6, 401 276 C 398.6 275, 398.6 275, 401.5 275.4 C 403.2 275.7, 406.5 275.5, 409 275.1 L 413.5 274.3 408 274 C 405 273.9, 401.2 273.4, 399.5 273 C 396.7 272.3, 396.8 272.2, 401 272 L 405.5 271.8 401.5 270.6 C 398.2 269.6, 397.9 269.2, 399.5 268.7 C 400.6 268.4, 399.7 268.3, 397.5 268.5 C 395.3 268.8, 390.7 269, 387.2 269 C 383.1 269, 381.1 269.4, 381.5 270 C 381.9 270.6, 382.7 271, 383.3 270.9 C 386 270.6, 388.1 271.1, 387.5 271.9 C 387.2 272.4, 387.5 273.2, 388.2 273.6 C 390.2 274.9, 385.9 275.8, 380.9 275.3 C 377.7 274.9, 376 275.2, 375.5 276 C 375 276.9, 375.1 277.1, 375.9 276.6 C 376.6 276.1, 378.3 276.1, 379.8 276.5 L 382.5 277.2 379 278.7 C 375.5 280.3, 375.5 280.3, 378 281 C 380.3 281.7, 380.3 281.8, 378.3 281.9 C 375.8 282, 374.4 283.6, 376.2 284.3 C 376.9 284.6, 375.5 284.9, 373 285 C 370.5 285.1, 366.7 285.5, 364.5 285.9 C 360.9 286.7, 361.3 286.8, 368 286.9 C 375.4 287, 376.6 288.8, 369.5 289.1 C 366.6 289.2, 366.5 289.2, 369 290 C 371.1 290.7, 370.6 290.8, 366.5 291.1 C 363.8 291.2, 361.1 291.4, 360.5 291.5 C 360 291.7, 358.2 291.9, 356.5 292.1 C 354.9 292.2, 356.9 292.6, 361 292.9 L 368.5 293.5 362 294.6 L 355.5 295.7 361 295.9 C 369 296.1, 365.1 298.9, 356.6 299.1 L 350.5 299.3 356.3 300 C 365 301.1, 364.2 301.8, 353.1 302.5 C 341.1 303.4, 339.5 304.5, 348.8 305.4 C 357.5 306.2, 360.6 307, 358.9 308.1 C 358 308.6, 358.8 309.2, 361.1 309.9 C 364.2 310.9, 364.1 310.9, 359.5 310.4 C 349.8 309.3, 341 309, 341 309.8 C 341 310.2, 345.3 311.1, 350.5 311.6 C 360.5 312.7, 362.6 313.5, 359.7 315.1 C 357.1 316.6, 357.6 318, 360.8 318.1 C 362.3 318.1, 364.4 318.5, 365.5 319 C 367.3 319.8, 367.3 319.9, 365 320 C 362.5 320.1, 362.5 320.1, 364.7 321.3 C 366.5 322.3, 363.9 322.5, 350.4 322.5 C 341.4 322.5, 334 322.8, 334 323.3 C 334 326.5, 344.5 332.3, 354.5 334.6 C 358.4 335.4, 362.3 336.6, 363.3 337.1 C 365.4 338.2, 376.8 339.9, 387.8 340.7 C 391.7 341, 395 341.7, 395 342.3 C 395 343.6, 373.4 341.4, 364.5 339.2 C 362.3 338.6, 357.8 338, 354.5 337.6 L 348.5 337.1 353 338.7 C 355.5 339.5, 359.5 340.6, 362 341.1 C 364.5 341.5, 368.5 342.3, 371 342.9 C 373.5 343.5, 378.6 343.9, 382.3 344 C 386.9 344, 388.9 344.4, 388.5 345.1 C 388.1 345.7, 384.7 346.1, 380.7 346.1 C 376.7 346, 369.9 346.3, 365.5 346.7 L 357.5 347.5 362.2 348.8 C 364.8 349.4, 368.7 350, 371 350 C 373.5 350, 374.9 350.4, 374.5 351 C 373.7 352.3, 364.4 352.3, 361.9 351 C 360.7 350.3, 359.4 350.3, 358.4 350.8 C 353 353.8, 415.5 356.1, 425.5 353.3 C 427.7 352.7, 431.9 351.5, 434.8 350.7 C 437.7 349.9, 440.3 349, 440.7 348.6 C 442 347.4, 440.2 347, 437.6 348 C 433.1 349.7, 412.2 351.9, 409.2 351 C 407 350.3, 407.4 350.1, 412 350 L 417.5 349.8 412.2 348.6 C 406.9 347.5, 406.1 346, 410.7 346 C 412 346, 413 345.6, 413 345.1 C 413 344.7, 416.7 344, 421.3 343.6 C 436.9 342.4, 436.4 341.1, 420.5 341.6 C 404.4 342.1, 402.8 340.7, 418.1 339.5 C 432.1 338.5, 435 338, 435 336.5 C 435 335.4, 434.3 335.3, 431.8 336.1 C 427.3 337.4, 409.5 337.4, 407.3 336.1 C 405.9 335.3, 406.7 335, 411 334.9 C 416.2 334.8, 416.3 334.7, 412.7 334 C 406.8 332.9, 407.1 332, 413.5 332 C 420.1 332, 420.1 330.4, 413.5 329.7 C 411.3 329.5, 414.3 329.4, 420.3 329.5 C 426.2 329.6, 430.8 329.5, 430.6 329.3 C 429.4 328.1, 420.2 326.4, 418.5 327.1 C 415.7 328.2, 405.8 328.2, 404.1 327.1 C 403.1 326.5, 404.4 326, 408.3 325.5 C 411.4 325.1, 413.8 324.4, 413.5 324 C 413.2 323.5, 413.8 323, 414.7 322.7 C 415.7 322.5, 412.9 322, 408.5 321.6 C 395.6 320.4, 395.8 320.3, 410.5 320 L 424.5 319.7 413 318.9 C 406.7 318.4, 394.1 317.7, 385 317.2 C 368.2 316.4, 366 316, 366 313.5 C 366 309.9, 374 308, 389.6 308 C 399.1 308, 405 307.6, 405.7 306.9 C 406.4 306.2, 407.4 306.1, 408.6 306.8 C 412 308.6, 424.4 310, 434 309.8 C 443 309.5, 443.5 309.6, 443.8 311.6 C 444 312.8, 443.3 314.5, 442.4 315.5 C 440.5 317.4, 440.3 318.1, 439.4 325.1 C 438.6 331.5, 441.3 341.9, 444.4 344.5 C 445.7 345.6, 447.5 348.1, 448.3 350.1 C 449.2 352.4, 451.9 355.4, 455.2 357.9 C 460.8 362.2, 463.9 366.1, 466.5 372.4 C 469.3 379, 470.3 375.6, 470.4 359 L 470.5 343.9 466.8 340.4 C 464.7 338.5, 462.1 337, 460.9 337 C 456.7 337, 452 332.3, 452 328.2 L 452.1 324.5 454.8 327.6 C 457.6 330.8, 466.8 336.6, 467.6 335.7 C 467.9 335.4, 465.4 333.1, 462.1 330.5 C 456.5 326.1, 455.9 325.3, 454 318.6 C 447.7 297.5, 447.5 297.1, 437.5 285.5 C 433.2 280.6, 428 274.1, 425.8 271.3 C 423.4 268, 420.9 265.8, 419.2 265.4 C 417.7 265, 416.3 264.4, 416 264 C 415.7 263.6, 414.8 264.1, 414 265.2 M 109.2 270.3 C 106.2 280.3, 104.1 298.9, 104.1 315.5 C 104.1 326.3, 104.5 331.3, 106.6 350.3 C 107.5 358.1, 109.3 359.1, 108.7 351.4 C 105.5 314.7, 105.6 301.7, 109.4 277.5 C 111.2 266.3, 111.1 263.7, 109.2 270.3 M 638.9 299.4 C 635.4 301.1, 635.2 305.4, 638.4 307.5 C 641 309.2, 643.4 308.6, 645.9 305.6 C 648.9 302, 643.4 297.1, 638.9 299.4 M 377 311.9 C 374.1 312.7, 388 313.7, 412.5 314.4 C 426.7 314.8, 427.3 314.8, 418 314 C 412.2 313.5, 405.9 312.7, 404 312.1 C 400.2 310.9, 381 310.8, 377 311.9 M 349.3 326.7 C 335.9 327.4, 342.6 331.1, 358 331.6 C 367.7 331.9, 368.3 331.9, 365.5 330.5 C 363.9 329.7, 361.2 329, 359.5 328.9 C 356.8 328.8, 356.9 328.7, 361 327.5 L 365.5 326.2 361 326.3 C 358.5 326.4, 353.2 326.6, 349.3 326.7 M 125.7 338.2 C 125.9 341.1, 126.5 345.5, 127 348 C 127.5 350.5, 128.2 355.2, 128.6 358.5 C 129 361.8, 129.6 365, 130 365.5 C 130.4 366.1, 131.1 368.9, 131.5 371.7 C 131.9 374.6, 132.6 377.3, 133.1 377.6 C 133.6 377.9, 134 378.9, 134 379.9 C 134 382.1, 137.1 392.2, 137.7 391.7 C 138.2 391.2, 136.1 379.8, 135 377.5 C 133.3 373.6, 129.5 353.9, 128.1 341.3 C 127.3 333.3, 125.1 330.6, 125.7 338.2 M 331 357.3 C 340 360.8, 398.2 363.6, 418.5 361.6 C 439.1 359.5, 444 358.7, 445.2 357.2 C 446.4 355.8, 446 355.8, 442.5 356.4 C 428.2 359, 373.6 360, 352.5 357.9 C 331.7 355.9, 327.1 355.8, 331 357.3 M 437.8 362.5 C 425.1 364.6, 385.2 365.4, 360.5 363.9 C 334.8 362.4, 331.2 362.4, 329.6 364 C 328.8 365, 329.1 365.1, 331.1 364.8 C 333.5 364.4, 357.2 366.2, 371.5 367.9 C 377.5 368.6, 377.3 369, 370 370.4 C 368.6 370.7, 371.3 370.7, 376 370.6 C 380.7 370.4, 383.5 370.4, 382.3 370.7 C 381 370.9, 380 371.5, 380 372 C 380 372.5, 381.5 372.4, 383.2 371.9 C 387.6 370.7, 391.3 370.8, 394.7 372.2 C 397.2 373.3, 396.5 373.5, 387.5 374.1 C 373.2 375.1, 349.2 375.1, 348.6 374.2 C 348.4 373.8, 351.4 373.6, 355.3 373.7 C 361.4 373.9, 362 373.8, 359 373 C 357.1 372.4, 352.8 372.1, 349.5 372.2 C 345.5 372.4, 343.5 372.1, 343.5 371.3 C 343.5 369.1, 342.2 368.8, 338.5 370.1 C 335.2 371.3, 335.1 371.6, 336.6 372.7 C 338 373.7, 338.1 374, 336.9 374.1 C 327.5 374.8, 370.3 378.6, 399 379.6 C 414.8 380.2, 419.6 379.7, 448.3 374.7 C 458.4 372.9, 458.1 374.7, 447.9 377.2 C 428.5 382, 413.1 383.4, 392.8 382 C 355.1 379.5, 345.5 380.2, 378 383.1 C 403.1 385.3, 405.3 385.8, 388 385.4 C 361.2 384.7, 345.7 383.8, 347 383 C 347.7 382.6, 345.6 381.9, 342.3 381.5 C 333 380.4, 328.1 380.5, 326.8 381.9 C 325.7 382.9, 326.4 383, 330.4 382.4 C 334.2 381.9, 335.1 382, 334.5 383 C 334 383.9, 332 384.1, 327.6 383.7 C 323.1 383.2, 320.9 383.5, 319 384.6 L 316.5 386.1 319.7 385.6 C 322.8 385.1, 334.1 386.4, 337 387.7 C 338 388.1, 337.6 388.5, 335.5 389 C 333.3 389.6, 334.1 389.7, 338.4 389.6 C 342.1 389.5, 344.5 389.9, 344.7 390.6 C 345 391.5, 341.4 391.7, 331.3 391.5 C 320.7 391.3, 318.8 391.4, 323 392.1 C 326 392.6, 330.3 393.4, 332.5 393.9 C 336.3 394.7, 336.4 394.8, 333.5 395 C 324.4 395.9, 369.2 398.9, 391.5 398.9 C 425.1 399, 460.9 395.1, 467.7 390.7 C 469.4 389.6, 459.4 372.6, 452.6 365.3 C 448.4 360.6, 448.7 360.7, 437.8 362.5 M 108.5 374.3 C 108.1 375.3, 108.2 377.2, 108.9 378.6 C 109.5 380, 110 381.9, 110 382.9 C 110 383.9, 110.7 387, 111.5 389.6 C 112.3 392.3, 113.9 397.9, 115 402 C 116.2 406.1, 117.5 410.4, 118 411.5 C 118.4 412.6, 119.6 415.8, 120.5 418.5 C 122.1 423.1, 123.1 425.5, 127.7 436 C 130.9 443.4, 138.5 458.5, 139.3 458.8 C 139.7 459, 140 459.6, 140 460.2 C 140 461.4, 146.8 472.9, 148.7 474.8 C 150.4 476.6, 150.4 475, 148.7 472.5 C 144.9 466.9, 130 438.1, 130 436.3 C 130 435.6, 129.6 435, 129 435 C 128.5 435, 128 434.3, 128 433.5 C 128 432.7, 127.1 430.3, 126 428.3 C 124.9 426.2, 124 423.8, 124 422.8 C 124 421.9, 123.6 420.8, 123 420.5 C 122.5 420.2, 122 419.3, 122 418.5 C 122 417.7, 121.5 415.9, 120.8 414.3 C 118.7 409.3, 114.2 394.2, 112.4 386 C 109.1 371.7, 109.4 372.4, 108.5 374.3 M 346.5 389.5 C 348.1 390.2, 389.4 392.9, 400 393.1 C 412.3 393.2, 414.5 392.9, 409 391.9 C 402.9 390.7, 344.1 388.5, 346.5 389.5 M 320.8 400.7 C 318.9 403.9, 319.1 406.8, 321.2 407.3 C 322.4 407.7, 323.6 407.7, 323.9 407.5 C 324.1 407.2, 323.8 407, 323.2 407 C 322.6 407, 322.3 406.3, 322.6 405.5 C 323.4 403.6, 326.6 403.6, 332.7 405.5 C 346.2 409.7, 348 410.4, 347.6 410.8 C 347.3 411, 343.4 410.2, 338.9 409.1 C 334.3 407.9, 330.1 407, 329.6 407 C 326.6 407.1, 343.3 413, 346.4 413 C 347.3 413, 348 413.5, 348 414 C 348 415.2, 344.6 415.3, 342.2 414.1 C 338.9 412.4, 325.9 408.8, 325.3 409.4 C 324.9 409.7, 325.2 410, 325.9 410 C 326.6 410, 329.2 411, 331.8 412.2 C 334.4 413.3, 337.9 414.7, 339.5 415.1 L 342.5 415.8 339 415.9 C 337.1 415.9, 334.2 415.3, 332.7 414.5 C 331.2 413.7, 329.3 413.3, 328.5 413.6 C 327.7 413.9, 324.7 413.7, 321.9 413.1 C 318.8 412.4, 316.3 412.3, 315.8 412.8 C 315.2 413.4, 316.3 414, 318.2 414.5 C 321.5 415.2, 321.5 415.2, 319 416.1 C 317.3 416.7, 318.2 416.7, 321.8 416.4 C 325.9 415.9, 327 416.1, 327 417.2 C 327 418, 327.6 418.7, 328.3 418.7 C 328.9 418.7, 338.7 419.3, 350 420.1 C 380.4 422.2, 447.5 421.3, 436.5 419 C 432.9 418.3, 434.5 417.6, 442.4 416.5 C 447.1 415.9, 447.5 414.8, 443.5 413.6 C 442.4 413.3, 443.8 413.2, 446.7 413.4 C 452.4 413.7, 452.8 412.6, 447.7 411.1 L 444.5 410.2 448.1 410.1 C 450.1 410, 453.3 409.3, 455.1 408.5 L 458.5 406.9 453 407.5 C 450 407.8, 446.3 408.9, 444.9 410 C 441.7 412.3, 440.8 411.7, 442.1 408.3 C 443.4 404.9, 443.2 404, 441.4 404 C 440.6 404, 440.1 404.4, 440.5 404.9 C 441.4 406.5, 439 407.2, 437.3 405.9 C 435.9 404.7, 436 404.5, 438.1 403.9 C 443.1 402.5, 446 402.9, 446 405 C 446 406.5, 446.6 407, 448.8 406.9 C 451.4 406.9, 451.4 406.8, 449.3 406 C 446.7 404.9, 446.5 404, 448.3 402.1 C 449.3 401, 448.4 400.9, 443.3 401.4 C 425.2 403.2, 424.6 403.3, 422.8 405.4 C 420.8 407.7, 420.8 412.2, 422.8 412.6 C 423.5 412.7, 423.6 412.6, 423 412.3 C 420.8 411.3, 422.2 410, 425.5 410 C 427.4 410, 430.1 409.5, 431.5 408.8 C 434.7 407.4, 435.4 408.1, 434.5 411.9 C 433.4 417.2, 423.8 418.9, 419.5 414.5 C 416.4 411.5, 416.4 409.3, 419.2 406.3 L 421.3 404 415.4 404 C 412.2 404.1, 407.8 404.7, 405.8 405.4 C 403.2 406.3, 400.6 406.5, 397 405.9 C 389.9 404.8, 368.8 402.9, 368.4 403.3 C 368.2 403.5, 370 404.7, 372.5 405.9 C 376.8 408, 378.1 410.2, 376 411.5 C 375.5 411.8, 374.3 411.6, 373.3 411.1 C 372.3 410.5, 369.8 409.4, 367.8 408.5 C 365.7 407.5, 363.8 406, 363.5 404.9 C 363 403.3, 361.9 403, 357.1 403 C 353.9 403, 349.8 402.7, 348.1 402.4 C 346.1 402, 345 402.1, 345 402.9 C 345 403.5, 345.5 404, 346.1 404 C 347.8 404, 355.8 407.9, 356.6 409.1 C 357 409.8, 356.6 410, 355.4 409.6 C 354.3 409.3, 350.6 408.3, 347 407.4 C 337.6 405, 336.1 404.1, 338.6 402.3 C 340.3 401, 339.9 400.9, 334.5 401 C 331.2 401.1, 326.9 400.9, 324.9 400.5 C 322.9 400.1, 321 400.2, 320.8 400.7 M 537.2 416.3 C 536.6 417.9, 536 419.7, 536 420.4 C 536 422.4, 534 423.7, 529.6 424.4 C 525.4 425.2, 525.5 425.9, 530.3 427.5 C 533.2 428.4, 533.6 429.1, 534.5 433.9 C 535.8 440.7, 537.6 441.5, 538.5 435.8 C 539.5 430.4, 541 428, 543.5 428 C 544.7 428, 546.5 427.3, 547.6 426.5 C 549.5 425.1, 549.5 425.1, 547.4 425 C 541.5 424.9, 539.1 423.1, 538.8 418.2 C 538.5 413.5, 538.4 413.5, 537.2 416.3 M 298 418.9 C 298 420.8, 310.8 424.3, 324.5 426 C 345.9 428.6, 354.2 428.9, 404 428.8 C 432.9 428.7, 451.6 428.4, 445.5 428.1 C 434.1 427.5, 433.2 426, 444.3 426 C 447.7 426, 451.2 425.5, 452 424.9 C 453.1 424.2, 451.7 424.1, 447.5 424.7 C 438.2 425.8, 356 425.5, 343 424.2 C 336.7 423.6, 326.3 422.6, 320 422 C 313.7 421.4, 306.3 420.2, 303.6 419.4 C 297.8 417.7, 298 417.8, 298 418.9 M 186.7 430 C 186.4 430.8, 185.9 433.4, 185.7 435.8 C 185 441.3, 183.7 442.8, 178.3 444.2 C 173.2 445.4, 173.1 447.2, 178.1 447.7 C 185 448.4, 186.8 451.3, 188.2 463.4 C 189.5 474.9, 190.6 474.7, 191.3 462.8 C 192.1 448.4, 191.4 449.3, 203.4 446.5 C 207.9 445.5, 205.2 444.1, 198 443.8 L 191.5 443.5 189.8 437.2 C 187.5 428.6, 187.3 428.2, 186.7 430 M 324.5 430.7 C 326.7 430.9, 328.7 431.5, 329 431.9 C 329.3 432.4, 334.7 433.3, 341 433.9 C 347.3 434.5, 356.6 435.5, 361.5 436 C 366.5 436.5, 373.6 437, 377.3 437 C 381.8 437, 383.9 437.4, 383.5 438 C 382.7 439.2, 349.1 439.2, 336.5 438 C 321.5 436.5, 315.1 436.2, 319.5 437 C 322.2 437.6, 320.4 437.7, 314 437.4 C 304.9 437, 304.7 437.1, 308.5 438.4 C 313.1 439.9, 336 442.6, 353 443.6 C 359.3 444, 365.4 444.6, 366.5 445.1 C 369.3 446.2, 345.2 446.1, 336 444.9 C 320.7 443, 317.5 442.8, 318.2 443.5 C 318.6 444, 320.7 444.6, 322.7 445 L 326.5 445.8 321.5 446 L 316.5 446.2 322.5 447.4 C 325.8 448.1, 333 449, 338.5 449.4 C 352.5 450.3, 364.7 451.9, 370 453.5 C 374.3 454.8, 374.2 454.8, 365 454.4 C 351.6 453.7, 327.2 451.1, 323 450 C 321.1 449.4, 318.2 449, 316.5 449.1 C 314.3 449.1, 314.9 449.5, 319 450.5 C 358.8 460.2, 440.2 457.3, 462.1 445.4 C 469.3 441.4, 466.7 441.3, 458.9 445.1 C 452.7 448.2, 452 448.3, 438 448.7 C 423 449, 421.5 448.7, 431 447.1 C 436.2 446.3, 435.9 446.2, 426 446 C 410.2 445.7, 417.7 444.1, 439 443.3 C 458.5 442.5, 454.6 441.5, 429.3 440.8 C 417.4 440.5, 414.8 439.1, 424.9 438.5 C 437.6 437.6, 456.5 435.8, 465 434.6 L 474.5 433.2 463 433.7 C 456.7 433.9, 448.6 434.5, 445 434.9 C 441.4 435.3, 435.8 435.4, 432.5 435 L 426.5 434.3 434 434.1 C 438.1 434, 445.3 433.3, 450 432.5 L 458.5 431.1 446.5 431.5 C 411.5 432.8, 358.8 433.2, 349.5 432.2 C 344 431.6, 335.2 430.9, 330 430.7 C 324.8 430.4, 322.3 430.5, 324.5 430.7 M 456.4 466.5 C 454.8 483.1, 456 539.8, 458.5 563 C 459.3 570.6, 457.5 593.7, 455.9 595.7 C 455 596.7, 455.1 597, 456.3 597 C 458.7 597, 464 576.1, 464 566.6 C 464 562.4, 465.9 562.6, 466.1 566.8 C 466.2 569, 466.4 568.8, 467.3 565.5 C 469.7 556.2, 468 456.3, 465.5 464.5 L 464.3 468.5 463.8 464.5 C 463.6 462.3, 463.3 465.9, 463.2 472.5 C 463.1 479.1, 462.7 489, 462.3 494.5 L 461.6 504.5 460.4 499.5 C 459.7 496.8, 459.1 487.1, 459 478 C 458.8 458.3, 457.7 453.3, 456.4 466.5 M 324.9 461.8 C 324.8 462.2, 324.8 462.8, 324.9 463.3 C 324.9 463.7, 324.6 464, 324 464 C 323.5 464, 323 464.9, 323 466 C 323 467.1, 322.6 468, 322 468 C 321.5 468, 321 468.9, 321 470 C 321 471.1, 320.6 472, 320.1 472 C 319.1 472, 319 472.8, 316.1 492 C 314.6 501.8, 313.9 513.2, 313.4 533.5 L 312.8 561.5 318.8 569.5 C 327.7 581.3, 343.2 594.2, 347.9 593.9 C 349.2 593.8, 349.1 593.7, 347.8 593.3 C 346.8 593.1, 346 592.5, 346 592 C 346 591.5, 345.1 590.8, 343.9 590.5 C 342.8 590.1, 342.1 589.6, 342.3 589.3 C 343.2 588.5, 351 593.4, 351 594.9 C 351 595.7, 351.6 596, 352.6 595.6 C 353.5 595.2, 354.8 595.4, 355.4 595.8 C 356 596.3, 360.4 597.3, 365.2 597.9 C 370 598.6, 374.7 599.8, 375.7 600.6 C 376.7 601.3, 379.5 601.9, 382 601.8 L 386.5 601.7 381.9 600.7 C 376.2 599.5, 372.7 594.8, 375.6 592.1 C 377.1 590.6, 377.2 590.7, 376.8 592.6 C 375.4 598.2, 380.7 599.9, 391.3 597.4 C 402.5 594.7, 411 591.4, 417.4 587 C 423.2 583, 428.9 581.1, 424.1 584.8 C 418.8 588.8, 415 592.3, 415.4 592.8 C 415.7 593, 417.5 591.9, 419.5 590.1 C 421.5 588.4, 423.6 587, 424.2 587 C 424.8 587, 426.1 586.3, 427.1 585.4 C 429.6 583.2, 433.5 586.9, 432.6 590.6 C 432 592.8, 432.2 592.9, 433.7 591.9 C 435.2 591, 435.5 589.6, 435.3 583.7 C 435.3 579.8, 435.6 575.5, 436.2 574.1 C 436.7 572.7, 437.3 564.5, 437.5 556 C 437.7 547.5, 438.4 537.4, 439 533.5 C 440.6 523.5, 440 468.7, 438.3 470.9 C 437.2 472.3, 437.1 472.3, 437 470.9 C 437 469.1, 431.3 463.4, 430.4 464.3 C 430 464.6, 431.1 466.5, 432.9 468.5 C 437.6 473.9, 436.6 474.1, 431.5 468.8 C 429 466.1, 426.2 464, 425.2 464 C 424 464, 424.5 464.9, 427.2 467.5 C 429.3 469.4, 431.7 472.2, 432.7 473.7 C 433.7 475.4, 432 474.2, 428.5 470.8 C 425.2 467.6, 421.6 465, 420.6 465 C 419.2 465, 420.3 466.5, 424.6 470.4 C 432.5 477.5, 436 484.2, 436 492 C 436 495.3, 435.6 498.2, 435 498.5 C 434.4 498.9, 434 496.9, 434 493.1 C 434 486.3, 431.7 480, 427.2 474.9 C 423.5 470.7, 415.3 464.7, 414.7 465.7 C 413.6 467.4, 351 466.6, 341.6 464.7 C 330 462.5, 329.9 462.5, 327.3 466.3 C 326 468, 325 468.9, 325 468.3 C 325 467.7, 325.7 466.5, 326.5 465.6 C 327.3 464.8, 328 463.7, 328 463.2 C 328 462, 325.1 460.7, 324.9 461.8 M 300.6 463.7 C 300.2 464.7, 299.6 468.3, 299.3 471.7 C 298.7 478.4, 297.1 479.3, 296.9 473.2 C 296.8 470.9, 296.3 472.7, 295.5 477.8 C 293.8 489.1, 293 489.1, 292.9 477.9 C 292.9 468.6, 291.8 462.8, 290.7 466 C 289.4 469.8, 287.5 516.5, 287.6 543 C 287.7 572.7, 288.7 584.7, 291.5 589.9 C 292.9 592.4, 292.9 592.4, 293.2 587 C 293.3 584, 293.5 580.4, 293.6 579 C 293.7 577.6, 293.9 575.4, 294 574 C 294.3 569.8, 295.8 574.7, 295.9 580 C 296 582.5, 296.6 586.3, 297.4 588.4 C 298.6 592, 298.7 591.2, 298.3 578.9 C 297.7 563, 299.6 512, 301 503.5 C 302.1 497.7, 302.6 463.3, 301.7 462.4 C 301.5 462.1, 300.9 462.7, 300.6 463.7 M 305.5 464.3 C 304.9 466.7, 304.5 481.7, 304.9 489.5 C 305 492.3, 304.4 506.7, 303.5 521.5 C 301.5 556.4, 300.7 585, 301.9 585 C 302.4 585, 303.1 586, 303.5 587.3 C 304 589, 304.3 589.1, 304.7 588 C 305 587.2, 305.7 586.2, 306.3 585.9 C 306.9 585.5, 307.6 571.6, 308.1 550.4 C 308.5 531.2, 309.1 514.1, 309.5 512.4 C 309.9 510.5, 309.8 509, 309.1 508.6 C 308.3 508.1, 308 510.2, 308 515.4 C 308 520, 307.6 523.2, 306.8 523.6 C 306 524.1, 305.9 520.4, 306.4 508.4 C 306.9 499.7, 307.1 491.6, 307 490.5 C 306.8 489.4, 306.8 482.5, 306.8 475.3 C 306.9 462.3, 306.6 459.7, 305.5 464.3 M 448.8 481.1 C 448.7 490.1, 448.8 510.2, 449 525.8 C 449.2 545, 448.9 554, 448.2 554 C 447.6 554, 446.9 553.4, 446.7 552.8 C 446.4 552.1, 446.1 556, 446.1 561.5 C 446 567, 445.8 576.5, 445.6 582.5 C 445.4 588.6, 445.4 591.5, 445.6 589 C 445.9 586.5, 446.5 583.6, 447 582.5 C 447.5 581.4, 448.1 579.4, 448.3 578 C 448.5 576.6, 448.5 580.7, 448.2 587 C 447.7 598.4, 446.8 602.6, 445 601.5 C 444.4 601.1, 444 599.7, 444 598.2 C 444 596.7, 443.6 596, 443.2 596.6 C 440.7 600.5, 430.8 602.6, 402.4 605.5 C 380 607.7, 346 606.5, 335.5 603.1 C 333.9 602.6, 329.1 601.1, 325 599.9 C 320.9 598.7, 316.8 597.2, 315.9 596.7 C 314.1 595.6, 311 596.4, 311 598 C 311 598.5, 312.2 599, 313.6 599 C 315.4 599, 316.1 599.4, 315.7 600.4 C 315.3 601.3, 316 602, 317.5 602.3 C 318.9 602.5, 319.7 602.3, 319.4 601.9 C 318.7 600.8, 320.1 600.8, 321.9 601.9 C 322.6 602.4, 322.9 603.3, 322.5 604 C 321.9 604.9, 322.4 605, 324.1 604.5 C 326.3 603.8, 326.4 603.8, 325 605.5 C 323.6 607.2, 323.7 607.3, 326.5 606.6 C 328.6 606.1, 329.1 606.2, 328 606.9 C 326.8 607.7, 326.9 608, 328.5 608.5 C 329.6 608.9, 331.5 609.6, 332.7 610.2 C 333.8 610.8, 335.3 611, 335.8 610.6 C 336.4 610.3, 337.1 610.4, 337.5 611 C 337.8 611.5, 339.1 612, 340.3 612 C 342.1 612, 342.2 611.8, 341 610.9 C 339.9 610.2, 340.4 610.1, 343 610.6 C 344.9 611, 347 611.9, 347.6 612.8 C 348.4 613.9, 352.3 614.6, 362.9 615.3 C 383.6 616.9, 407.5 615.1, 423.5 611 C 434.6 608.1, 447.3 602.9, 448.6 600.8 C 448.9 600.3, 449.6 593, 450.2 584.7 C 452.3 553.2, 452.5 551.3, 453.4 554.4 C 454.2 557, 453.9 567.2, 452.4 590 C 452 596.6, 452.1 598.1, 453 596.7 C 456.1 591.9, 456.5 551.7, 454 518 C 453.4 511.1, 452.8 499, 452.5 491 C 452 476.6, 450.9 466.6, 449.6 465.3 C 449.3 465, 448.9 472.1, 448.8 481.1 M 579.2 473.7 C 578.5 474.9, 578 478.3, 578 481.2 C 577.9 487.9, 576.2 490.2, 570.8 490.9 C 564.5 491.8, 564.7 495.1, 571 496.3 C 576.2 497.4, 577.2 498.4, 579.5 506.2 C 581.4 512.7, 583 513, 583 506.7 C 583 498.3, 585.2 496, 593 496 C 595.1 496, 597.2 495.5, 597.5 495 C 598.2 493.8, 597.1 493.4, 590.7 492.5 C 584.7 491.7, 583.5 489.9, 581.7 479.5 C 580.5 472.4, 580.2 471.8, 579.2 473.7 M 245.5 493.3 C 244 502.1, 240.5 506.7, 234.4 507.6 C 232 507.9, 229.7 508.6, 229.5 509.1 C 228.8 510.1, 232.2 512, 234.7 512 C 238.8 512, 244.3 520.3, 245.4 528.3 C 245.8 530.9, 246.5 533, 247 533 C 247.5 533, 248.2 530.9, 248.6 528.3 C 249.8 519.6, 254.2 512, 258 512 C 258.9 512, 260.5 511.3, 261.6 510.5 C 263.4 509.1, 263.4 509.1, 261 509 C 255 508.9, 250.7 504.4, 249.5 497 C 248.1 487.7, 246.6 486.3, 245.5 493.3 M 536 537.4 C 536 541.3, 532.4 545, 528.4 545 C 526 545, 525 545.5, 525 546.5 C 525 547.6, 526.1 548, 529.1 548 C 532.7 548, 533.2 548.3, 534.6 551.5 C 535.3 553.4, 536 555.9, 536 557.1 C 536 560.6, 538.4 558.6, 539.1 554.5 C 539.8 550.1, 542.1 548, 546.3 548 C 550.1 548, 549.4 545.6, 545.4 545.2 C 541.9 544.8, 539 542.4, 539 539.9 C 539 537.5, 538 535, 536.9 535 C 536.4 535, 536 536.1, 536 537.4 M 463.5 609.8 C 463.5 611.5, 463.8 612.6, 464.3 612.3 C 464.7 612.1, 465.3 612.7, 465.6 613.7 C 466 614.7, 467.5 618.2, 469.1 621.4 C 470.7 624.7, 472 627.8, 472 628.5 C 472 630.4, 457.3 643.2, 450.1 647.5 C 446.8 649.4, 450.9 645, 456.5 640.5 C 459.8 637.8, 462.9 635.1, 463.3 634.3 C 463.7 633.6, 464.6 633, 465.3 633 C 466.9 633, 469.3 629.1, 469.6 626 L 469.9 623.5 467.5 626.5 C 466.2 628.1, 464.8 629.1, 464.4 628.7 C 464 628.4, 464.3 627.3, 465.1 626.3 C 465.9 625.3, 464 626.6, 461.1 629.2 C 454.6 634.8, 453 634.7, 458.5 629 C 463.2 624.2, 462.8 622.9, 458 627.3 C 452.4 632.4, 445.2 637.1, 444.5 636.1 C 444.2 635.5, 445.2 634.3, 446.7 633.3 C 451.3 630.5, 460.1 622.8, 459.5 622.2 C 459.2 621.9, 457.3 623.2, 455.2 625.2 C 448.5 631.6, 438.7 636.5, 444.8 630.4 C 446.4 628.7, 446.4 628.6, 444.7 629.3 C 443.7 629.7, 442.6 630, 442.4 630 C 441 630, 445.9 645.9, 448.6 649.8 C 448.7 650, 451.2 648.4, 454.2 646.3 C 459.1 642.8, 460.6 641.6, 466.6 636.3 C 467.7 635.3, 470.3 632.7, 472.3 630.4 L 476 626.3 472.7 620.1 C 471 616.6, 468.2 612.2, 466.5 610.3 L 463.5 606.8 463.5 609.8 M 439.3 612.5 C 439.9 613.9, 439.5 614.1, 436.7 613.5 C 434.3 613, 433.9 613.1, 435 613.9 C 436.2 614.8, 435.9 615, 433.5 615 C 431.9 615, 426.9 615.7, 422.5 616.5 C 406.2 619.5, 399.2 620.2, 382.6 620.3 C 364.8 620.5, 335.4 619.7, 338.3 619.2 C 340.1 618.8, 340.7 617, 339 617 C 338.4 617, 337.1 617.5, 336.1 618.2 C 334.6 619.1, 333.3 619.1, 330.2 618.1 C 328 617.3, 325.4 617, 324.5 617.4 C 323.5 617.7, 323.1 617.6, 323.5 616.9 C 323.9 616.3, 323.3 616.1, 321.8 616.5 C 320.5 616.9, 317.4 616.4, 314.9 615.6 C 309.4 613.7, 306.4 613.6, 310.5 615.4 C 316.3 618.1, 324.2 620.1, 326.2 619.4 C 327.4 619, 328 619.2, 327.6 619.8 C 327.3 620.3, 329.2 621, 332.3 621.4 C 335.1 621.7, 339.5 622.3, 342 622.8 C 346.2 623.6, 346.3 623.7, 343.8 624.4 C 342.3 624.8, 340.7 625, 340.3 624.7 C 339.8 624.4, 335.9 623.7, 331.5 623.1 C 324.3 622.1, 320.7 621.1, 306.3 616.5 C 300.5 614.6, 300.9 616.1, 306.8 618.3 C 309.4 619.3, 312.9 620.8, 314.5 621.6 L 317.5 623 313.5 622.4 C 311.3 622.1, 309.1 621.4, 308.6 620.9 C 308 620.4, 307 620, 306.2 620 C 305.4 620, 302.4 618.6, 299.6 616.9 C 296.2 614.8, 295.1 614.4, 296.3 615.7 C 298.8 618.5, 312.8 625.2, 320.3 627.1 C 352.1 635.3, 393.4 636.4, 422.9 630 C 438.7 626.5, 444.8 623.6, 453.6 615.6 C 458.6 611, 458.4 609.1, 453.3 613.4 C 450.1 616.1, 443.9 619.5, 442.8 619.2 C 442.3 619.1, 442 619.5, 442 620.1 C 442 620.7, 441.3 620.9, 440.4 620.6 C 439.5 620.3, 437.9 620.7, 436.7 621.5 C 435.5 622.3, 433.6 623, 432.3 623 C 431.1 623, 429.9 623.4, 429.5 623.9 C 429.2 624.5, 426.8 625.2, 424.2 625.5 C 421.6 625.9, 418.2 626.5, 416.5 627 C 413.1 627.9, 401.7 629.1, 404 628.3 C 404.8 628, 406.3 627.1, 407.2 626.2 C 408.2 625.4, 409.7 625, 410.6 625.4 C 411.5 625.7, 412.8 625.6, 413.4 625.2 C 414 624.7, 417.8 624, 421.9 623.6 C 428.4 623, 436.8 620.4, 435.7 619.3 C 435.4 619.1, 433.3 619.4, 430.9 620.1 C 428.5 620.7, 425.5 621.3, 424.3 621.4 C 423 621.5, 421.7 622, 421.3 622.3 C 421 622.7, 419.8 623, 418.8 623 C 415.6 623, 417.7 621.3, 421.7 620.5 C 427 619.6, 434.8 617.1, 439.3 615 C 443.1 613.2, 443.1 613.1, 440.9 612 C 439 610.9, 438.8 611, 439.3 612.5 M 273 631.9 C 273 632.6, 272.5 632.8, 272 632.5 C 270.4 631.5, 268 634.4, 269.1 636.1 C 269.7 637.1, 270 637.1, 270 636.3 C 270 633.8, 272 635.1, 274.6 639.2 C 276.1 641.5, 278.2 644.2, 279.4 645.2 C 280.7 646.3, 281 646.9, 280.2 647 C 279.2 647, 279.3 647.4, 280.5 648.6 C 281.3 649.5, 282.7 649.9, 283.6 649.6 C 284.5 649.2, 284.8 649.4, 284.4 650.1 C 284.1 650.7, 284.4 651.6, 285.1 652.1 C 287.2 653.4, 288 653.2, 287.4 651.5 C 287 650.7, 287.3 650, 287.9 650 C 288.5 650, 289 650.9, 289 652.1 C 289 653.9, 289.4 654.1, 291.7 653.5 C 294 653, 294.2 653.1, 293.1 654.4 C 291.5 656.3, 288.6 656.5, 286.8 654.8 C 285.2 653.3, 281.3 651, 280.4 651 C 280 651, 280.2 651.6, 280.7 652.3 C 281.2 652.9, 281.7 654.5, 281.8 655.8 C 281.9 658, 281.7 657.9, 277.2 654.8 C 274.6 653, 272.2 651.1, 271.8 650.5 C 271.3 649.8, 271 649.8, 271 650.5 C 271 652, 281.5 661, 287.5 664.6 C 296.3 669.9, 312.9 676.1, 324.5 678.4 C 354 684.2, 395.6 684.2, 424 678.4 C 437.5 675.6, 450 671.3, 450 669.5 C 450 667.3, 448.8 665, 447.8 665 C 447.2 665, 447.3 665.6, 448 666.5 C 449 667.7, 448.8 668.1, 446.9 668.8 C 443.5 670, 413.3 670.3, 412.6 669.1 C 411.7 667.7, 414.7 667, 420.3 667.4 C 423.2 667.6, 424 667.5, 422.3 667.3 C 416.9 666.6, 418.6 665, 424.8 665 C 430 664.9, 430.3 664.8, 428.6 663.5 C 426.7 662.1, 426.7 662, 429.5 662 C 433.8 662, 447 658.7, 447 657.7 C 447 657.2, 445.8 657, 444.3 657.3 C 409.4 664.2, 364.1 666.3, 339 662 C 311.1 657.3, 300.2 654.5, 292.2 649.9 C 290.4 648.9, 288.3 648, 287.6 648 C 284 648, 271.9 635.3, 274.2 633.9 C 275.2 633.2, 275.2 632.8, 274.2 631.8 C 273.3 630.9, 273 630.9, 273 631.9 M 472.8 636 C 470.8 638.6, 464.6 644.1, 459.1 648.2 C 450.9 654.2, 449.1 655.9, 449.6 657.5 C 449.9 658.6, 450.7 661.5, 451.3 664 C 451.9 666.5, 452.5 668.7, 452.6 668.8 C 453.9 670.6, 474.8 653.1, 480.1 645.6 C 483.6 640.8, 483.7 639.5, 480.5 634.7 C 477.3 630.1, 477.3 630.1, 472.8 636 M 302.6 633.8 C 301.9 634.4, 309.5 638, 311.6 638 C 312.4 638, 313 638.5, 313 639 C 313 639.6, 314.7 640, 316.8 640.1 C 319.9 640.1, 320.2 640.3, 318.5 641.1 C 317 641.8, 317.7 641.9, 321 641.5 C 325.3 641, 325.4 641.1, 323.5 642.6 C 321.6 644.1, 321.7 644.2, 325.5 643.5 C 329.1 643, 329.6 643.1, 329.6 644.9 C 329.6 646.9, 324.9 646.9, 321 645 C 320.2 644.6, 317.5 643.9, 315 643.5 C 312.5 643.1, 310.1 642.4, 309.5 642 C 308.6 641.4, 300 639, 298.6 639 C 298.3 639, 298 639.3, 298 639.8 C 298 640.7, 303.3 642.8, 316.5 647.2 C 325.3 650.1, 328.6 651.7, 327.6 652.7 C 327.1 653.2, 307.6 648.8, 306.5 648 C 306 647.6, 304 646.9, 302.3 646.5 C 300.5 646.2, 299 645.5, 299 645 C 299 643.6, 295.1 643.2, 294.6 644.6 C 293.8 646.8, 302.8 650.6, 318 654.4 C 335.3 658.7, 348.4 659.9, 378.5 659.9 C 403.1 659.9, 410 659.4, 425 656.6 C 446.5 652.5, 445.1 653, 444.4 650.6 C 443.5 647.6, 443.3 647.5, 440.7 648.8 C 436.6 650.8, 413.7 653, 415.5 651.2 C 416.1 650.6, 419.4 649.9, 423 649.6 C 429.8 649.1, 440.4 647.4, 438.3 647.1 C 437.6 647.1, 437 646.5, 437 645.9 C 437 645.3, 437.9 645.1, 439.1 645.5 C 441.1 646.2, 441.2 646, 440.6 643.4 C 440.2 641.8, 439.7 640.3, 439.5 640.1 C 439.3 639.9, 433.6 640.5, 426.8 641.3 C 404.3 644.2, 396.4 645, 389.9 644.9 C 382.5 644.7, 382.9 644.6, 401.5 642.5 C 409.2 641.7, 418.9 640.4, 423 639.8 L 430.5 638.5 424 637.8 C 420.4 637.4, 408.2 637.6, 396.9 638.2 C 381.7 639, 371.4 639, 358 638.1 C 347.9 637.5, 339.4 637.2, 339.2 637.5 C 338.9 637.8, 340.5 638, 342.8 638 C 345.1 638, 347 638.5, 347 639 C 347 639.6, 348.7 640, 350.8 640.1 C 352.8 640.2, 355.6 640.5, 357 641 L 359.5 641.7 356.8 642.5 C 355.3 642.9, 352.3 643, 350.3 642.7 C 348.2 642.4, 342 641.7, 336.6 641.1 C 331.1 640.4, 325.9 639.5, 324.9 638.9 C 323.9 638.4, 321.6 638, 319.8 638 C 318 637.9, 314.7 637.2, 312.5 636.4 C 305.7 633.8, 303.2 633.2, 302.6 633.8 M 362 655.1 C 362 656.5, 365.4 657, 376.5 657 C 388.5 657, 394.3 656.3, 393.4 654.9 C 392.8 653.9, 362 654, 362 655.1 M 284.2 658.2 C 284.9 663.1, 307.8 670.9, 311.9 667.6 C 313 666.8, 313.2 666.8, 312.6 667.8 C 312.1 668.6, 312.6 669, 313.9 669 C 316.3 669, 316.6 667.7, 314.6 666.1 C 313.6 665.3, 312.5 665.2, 311.3 665.8 C 309.2 666.9, 301.8 666.2, 302.5 665 C 302.8 664.6, 302.2 663.9, 301.2 663.5 C 300.3 663.2, 299.5 663, 299.5 663.1 C 299.5 663.2, 297.7 662.2, 295.5 660.9 C 287.1 655.7, 283.7 654.9, 284.2 658.2 M 424.5 672.1 C 409.4 674.3, 400.4 675, 386.5 675 C 370.3 675, 367 675.5, 367 677.6 C 367 678.8, 369.5 678.9, 381.3 678.4 C 411.7 677.3, 429.4 675, 432.4 672 C 433.5 670.9, 433.3 670.9, 424.5 672.1" stroke="none" fill="#1b1f3a" fill-rule="evenodd"/></svg>