<svg xmlns="http://www.w3.org/2000/svg" viewBox="0 0 768 768" version="1.1" preserveAspectRatio="xMidYMid meet">
	<path d="M 363 55.112 C 314.729 60.607, 289.438 67.846, 247 88.314 C 241.171 91.125, 230.102 97.439, 218.622 104.500 C 203.006 114.105, 177.178 135.538, 164.718 149.233 C 76.886 245.766, 56.638 381.388, 112.799 497 C 140.941 554.935, 193.033 606.660, 250.750 633.981 C 257.092 636.984, 258 637.749, 258 640.092 C 258 643.508, 259.685 646.720, 265.209 653.833 C 285.371 679.797, 328.451 691.597, 393 688.837 C 436.765 686.966, 465.247 675.232, 483.626 651.500 C 489.183 644.324, 489.798 640.991, 486.677 634.975 C 485.205 632.137, 484 629.684, 484 629.523 C 484 629.362, 486.363 628.460, 489.250 627.519 C 499.374 624.220, 524.197 612.258, 537.050 604.485 C 585.974 574.896, 630.781 521.971, 653.445 467 C 654.919 463.425, 656.714 459.150, 657.433 457.500 C 676.871 412.930, 684.766 345.549, 676.589 294 C 665.682 225.239, 631.302 165.151, 577.600 120.991 C 558.417 105.217, 531.481 88.622, 509.500 79.036 C 506.750 77.837, 503.150 76.250, 501.500 75.510 C 493.633 71.981, 467.849 64.007, 455 61.128 C 426.477 54.738, 388.247 52.238, 363 55.112 M 352 63.632 C 324.838 66.914, 295.558 74.442, 274.500 83.557 C 232.084 101.916, 204.511 119.886, 176.780 147.241 C 144.496 179.086, 114.052 228.706, 102.995 267.500 C 102.368 269.700, 101.203 273.750, 100.406 276.500 C 99.609 279.250, 98.243 284.650, 97.371 288.500 C 96.499 292.350, 95.156 298.200, 94.387 301.500 C 85.139 341.203, 86.713 394.324, 98.476 439.500 C 100.917 448.877, 106.046 465.011, 108.012 469.500 C 108.494 470.600, 110.574 475.550, 112.635 480.500 C 123.089 505.611, 140.059 533.018, 157.489 552.940 C 186.899 586.555, 216.963 610.174, 252.213 627.356 C 264.558 633.373, 264.345 633.456, 279.884 616.476 C 289.188 606.310, 290.220 603.385, 287.375 595.244 C 281.752 579.152, 280.145 536.977, 283.447 492.136 L 285.019 470.771 270.145 455.486 C 261.964 447.078, 253.236 437.556, 250.750 434.324 C 243.709 425.175, 231.665 407.138, 227.470 399.460 C 225.378 395.632, 222.553 390.475, 221.193 388 C 209.833 367.332, 203.927 347.695, 199.540 316 C 195.927 289.897, 199.746 251.612, 207.971 231.500 C 208.420 230.400, 209.568 227.250, 210.521 224.500 C 213.729 215.242, 219.871 201.920, 224.812 193.500 C 228.891 186.551, 246.741 162.406, 249.882 159.589 C 254.424 155.516, 252.496 158.996, 243.831 170.510 C 230.066 188.802, 224.254 198.159, 218.989 210.500 C 217.815 213.250, 216.213 216.918, 215.428 218.651 C 214.642 220.384, 214 222.245, 214 222.787 C 214 223.328, 213.328 225.060, 212.506 226.636 C 211.685 228.211, 211.010 230.198, 211.006 231.050 C 211.003 231.903, 210.608 233.028, 210.129 233.550 C 209.651 234.073, 208.274 239, 207.071 244.500 C 205.868 250, 204.462 256.376, 203.948 258.669 C 200.939 272.074, 200.954 307.443, 203.974 322 C 204.487 324.475, 205.206 328.525, 205.571 331 C 206.238 335.518, 209.019 346.897, 210.826 352.500 C 211.358 354.150, 212.572 358.200, 213.524 361.500 C 217.208 374.274, 234.894 405.270, 250.896 427 C 258.520 437.353, 282.485 464, 284.171 464 C 284.694 464, 286.234 456.969, 287.483 448.879 C 287.967 445.745, 287.682 445.022, 285.366 443.504 C 275.847 437.267, 275.534 430.956, 284.404 424.067 C 290.263 419.516, 290.310 419.437, 290.616 413.776 C 290.826 409.883, 292 405.756, 294.312 400.785 C 296.634 395.794, 297.896 391.348, 298.321 386.666 C 298.699 382.493, 299.724 378.564, 300.954 376.575 L 302.967 373.318 300.423 370.928 C 290.905 361.986, 274.646 329.786, 268.649 308 C 262.260 284.793, 262.655 252.566, 269.587 231.330 C 281.886 193.654, 307.686 161.883, 347 136.004 C 357.611 129.019, 382.799 116.482, 396.250 111.491 C 398.863 110.521, 401 109.405, 401 109.011 C 401 108.616, 404.318 108.013, 408.373 107.670 C 412.428 107.327, 416.935 106.595, 418.389 106.042 C 431.967 100.880, 482.350 102.647, 506.500 109.132 C 531.082 115.733, 566 133.038, 566 138.619 C 566 140.776, 564.236 140.288, 557.716 136.328 C 551.125 132.324, 533.266 124.013, 531.236 124.005 C 530.541 124.002, 529.191 123.590, 528.236 123.089 C 521.424 119.513, 499.602 113.940, 482.500 111.407 C 468.998 109.407, 437.899 109.218, 427.466 111.071 L 420.248 112.354 419.640 118.171 C 419.306 121.370, 418.350 125.620, 417.516 127.616 C 416.354 130.398, 415.995 135.472, 415.980 149.372 C 415.969 159.342, 415.549 170.200, 415.046 173.500 C 413.677 182.496, 411.290 194.550, 409.139 203.324 C 407.068 211.778, 406.910 211.416, 413.106 212.440 C 422.598 214.010, 430.774 223.420, 431.721 233.863 C 432.299 240.237, 430.631 252.017, 428.716 255.084 C 427.776 256.589, 427.800 257.450, 428.829 259.097 C 430.534 261.828, 429.524 262.784, 427.177 260.661 C 423.604 257.426, 422.987 259.054, 426.468 262.534 C 428.411 264.478, 430.629 267.516, 431.396 269.284 C 433.942 275.156, 451.835 296.430, 454.910 297.243 C 457.278 297.868, 457.988 298.894, 459.411 303.743 C 460.341 306.909, 461.764 311.750, 462.575 314.500 C 463.553 317.818, 465.316 320.677, 467.816 323 C 473.724 328.490, 481.756 338.221, 482.931 341.315 C 483.519 342.863, 484 347.005, 484 350.518 C 484 354.031, 484.532 358.073, 485.181 359.499 C 486.231 361.802, 486.060 362.394, 483.651 364.796 C 479.801 368.633, 479.034 366.788, 479.015 353.654 C 479.002 344.308, 478.714 342.407, 476.932 339.904 C 474.142 335.986, 472.749 336.215, 474.827 340.250 C 476.508 343.516, 476.878 355.763, 475.633 367 C 475.359 369.475, 475.363 370.713, 475.641 369.750 C 475.919 368.788, 476.564 368, 477.073 368 C 478.256 368, 478.267 370.516, 477.094 372.764 C 476.595 373.719, 475.677 376.413, 475.053 378.750 C 474.430 381.088, 473.488 383, 472.960 383 C 472.432 383, 472 383.675, 472 384.500 C 472 385.441, 472.950 386, 474.550 386 C 482.367 386, 487.070 392.172, 488.202 403.918 C 488.657 408.638, 489.297 414.693, 489.625 417.373 C 489.953 420.053, 489.672 424.833, 489.001 427.994 C 487.810 433.608, 487.606 433.864, 480.259 438.972 L 472.737 444.201 473.436 493.351 C 474.339 556.826, 473.817 564.236, 466.968 585.161 C 464.207 593.598, 462.072 601.391, 462.224 602.480 C 462.406 603.785, 464.465 605.402, 468.256 607.216 C 474.373 610.144, 477.229 613.592, 479.051 620.250 C 479.615 622.313, 480.568 624, 481.167 624 C 482.861 624, 500.139 616.473, 514.500 609.479 C 570.977 581.973, 622.585 525.158, 648.462 462 C 649.926 458.425, 651.752 454.124, 652.518 452.441 C 654.772 447.495, 660.853 428.405, 664.125 416 C 675.874 371.466, 676.722 318.375, 666.378 275 C 662.945 260.602, 656.510 241.601, 650.838 229.112 C 649.243 225.599, 646.948 220.424, 645.740 217.612 C 633.190 188.413, 598.683 146.152, 567.898 122.279 C 534.567 96.431, 489.808 75.683, 449.500 67.396 C 423.638 62.079, 379.083 60.359, 352 63.632 M 351 72.056 C 337.908 73.871, 312.135 80.643, 317.114 80.961 C 318.711 81.063, 328.727 78.901, 330.500 78.072 C 332.672 77.056, 341.708 75.303, 352 73.900 C 355.575 73.413, 360.075 72.608, 362 72.110 L 365.500 71.205 361 71.249 C 358.525 71.274, 354.025 71.637, 351 72.056 M 379.500 87.058 C 375.101 87.770, 367.966 89.047, 352 91.980 C 349.525 92.435, 346.375 93.273, 345 93.842 C 343.625 94.410, 339.125 95.874, 335 97.093 C 330.875 98.312, 326.825 99.652, 326 100.070 C 325.175 100.488, 321.045 102.492, 316.823 104.523 C 309.312 108.135, 304.354 111.687, 305.384 112.717 C 305.668 113.001, 308.128 111.862, 310.851 110.186 C 317.939 105.825, 322.863 103.724, 337 99.029 C 343.875 96.745, 350.175 94.612, 351 94.289 C 351.825 93.966, 354.075 93.590, 356 93.454 C 357.925 93.318, 363.100 92.483, 367.500 91.599 C 378.741 89.342, 388.497 88.098, 395.500 88.029 C 398.800 87.996, 402.175 87.533, 403 87 C 404.842 85.810, 386.943 85.854, 379.500 87.058 M 468.500 91 C 468.840 91.550, 470.104 91.999, 471.309 91.997 C 474.050 91.994, 486.971 94.874, 489.033 95.948 C 489.876 96.387, 492.111 97.085, 494 97.500 C 495.889 97.915, 498.124 98.607, 498.967 99.038 C 502.334 100.761, 510.069 103.144, 511.137 102.788 C 514.712 101.596, 498.714 95.660, 479.736 91.136 C 473.790 89.718, 467.662 89.644, 468.500 91 M 413.500 94.616 C 408 95.357, 402.600 96.353, 401.500 96.832 C 398.657 98.067, 393.702 99.788, 384.500 102.737 C 380.100 104.146, 375.600 105.949, 374.500 106.742 L 372.500 108.185 374.500 107.667 C 375.600 107.382, 378.075 106.846, 380 106.476 C 384.665 105.578, 393.250 102.886, 394.508 101.926 C 398.433 98.931, 405.294 97.764, 421.500 97.333 C 439.131 96.864, 441.980 96.527, 440.417 95.093 C 438.713 93.531, 423.563 93.262, 413.500 94.616 M 399.500 117 C 399.160 117.550, 398.189 118, 397.342 118 C 395.701 118, 393.839 118.782, 379.128 125.646 C 303.849 160.773, 260.387 226.475, 270.567 289.761 C 271.951 298.367, 272.934 302.420, 277.173 317 C 281.227 330.942, 302.539 367.930, 306.500 367.897 C 307.050 367.893, 309.225 365.208, 311.333 361.932 C 316.711 353.575, 320.409 351.048, 329.593 349.453 C 338.777 347.858, 338.500 348.104, 338.500 341.538 C 338.500 336.637, 338.161 335.878, 333.963 331.371 C 328.288 325.279, 326.279 320.743, 327.652 317.126 C 328.594 314.646, 353.336 281.366, 358.228 276 C 359.481 274.625, 362.755 271.715, 365.503 269.534 C 368.251 267.353, 372.750 263.499, 375.500 260.970 C 378.250 258.441, 381.379 255.881, 382.454 255.282 C 384.575 254.099, 384.321 253.167, 380.062 246.500 C 374.015 237.032, 381.280 220.706, 394.288 214.533 C 396.742 213.369, 398.041 211.986, 398.393 210.165 C 398.676 208.699, 400.053 202.100, 401.452 195.500 C 402.852 188.900, 404.460 178.100, 405.027 171.500 C 405.594 164.900, 406.475 156.125, 406.985 152 C 407.495 147.875, 407.938 141.125, 407.971 137 C 408.069 124.333, 402.742 111.755, 399.500 117 M 261.821 129.263 C 261.095 129.958, 259.282 131.305, 257.794 132.257 C 251.726 136.139, 235.420 152.989, 227.656 163.400 C 208.875 188.582, 201.603 202.421, 193.104 229.149 C 191.785 233.296, 190.414 246, 191.284 246 C 191.600 246, 192.356 243.412, 192.964 240.250 C 194.357 233.002, 196.830 224.030, 198.059 221.764 C 198.576 220.809, 199 219.527, 199 218.915 C 199 214.338, 214.949 184.369, 225.214 169.657 C 233.667 157.541, 245.462 144.579, 255.881 135.954 C 262.033 130.861, 264 129.038, 264 128.429 C 264 127.658, 263.167 127.977, 261.821 129.263 M 409.635 166.966 C 409.268 172.998, 408.032 182.335, 406.888 187.716 C 404.793 197.568, 402.003 211.286, 402.001 211.750 C 402.001 211.887, 402.450 212, 403 212 C 403.550 212, 404 211.148, 404 210.108 C 404 209.067, 405.321 202.654, 406.935 195.858 C 410.964 178.891, 413.385 156, 411.150 156 C 410.683 156, 410.001 160.935, 409.635 166.966 M 235.964 163.928 C 227.957 173.291, 220.845 184.368, 213.355 199.145 C 210.910 203.968, 209.992 208.406, 212.351 204 C 219.082 191.425, 221.440 187.276, 222.622 185.921 C 223.380 185.053, 224 183.853, 224 183.255 C 224 182.656, 224.357 182.017, 224.793 181.833 C 225.229 181.650, 226.677 179.700, 228.011 177.500 C 230.754 172.977, 230.877 172.804, 234.759 168 C 238.016 163.970, 241.248 159, 240.612 159 C 240.374 159, 238.282 161.218, 235.964 163.928 M 215.896 164.750 C 213.767 167.155, 205.337 179.363, 202.500 184.149 C 194.630 197.427, 188.625 210.650, 190.060 211.537 C 190.577 211.857, 191 211.392, 191 210.505 C 191 209.618, 192.298 206.554, 193.885 203.696 C 195.471 200.838, 198.450 195.350, 200.503 191.500 C 204.134 184.692, 214.718 168.005, 216.042 167 C 216.875 166.368, 219.197 162, 218.700 162 C 218.497 162, 217.235 163.238, 215.896 164.750 M 322.352 180.750 C 321.727 182.262, 320.421 188, 319.449 193.500 C 317.570 204.138, 316.324 207.532, 313.352 210.114 C 310.913 212.234, 302.474 215, 298.447 215 C 294.121 215, 289 216.081, 289 216.995 C 289 217.911, 295.894 219.702, 302.123 220.405 C 311.493 221.463, 314.890 225.368, 317.051 237.565 C 318.705 246.897, 323.492 261, 325.007 261 C 325.349 261, 325.600 254.363, 325.564 246.250 C 325.477 226.190, 327.919 222.248, 341.500 220.529 C 349.584 219.506, 356.064 217.692, 355.689 216.556 C 355.492 215.959, 351.034 215.271, 345.421 214.973 C 327.113 214.001, 322.888 208.420, 324.441 187.265 C 325.128 177.900, 324.430 175.721, 322.352 180.750 M 562.524 187.187 C 562.271 187.909, 562.120 189.175, 562.189 190 C 562.980 199.402, 560.450 203, 553.050 203 C 551.372 203, 550 203.398, 550 203.883 C 550 205.093, 553.651 205.970, 558.750 205.986 L 563 206 563 210.083 C 563 215.294, 565.365 214.948, 565.810 209.673 C 566.117 206.041, 566.170 206, 570.560 206 C 573.840 206, 575 205.608, 575 204.500 C 575 203.523, 574.021 203, 572.191 203 C 567.391 203, 566.031 201.157, 565.337 193.718 C 564.732 187.229, 563.508 184.387, 562.524 187.187 M 319 209.272 C 318.175 211.047, 315.786 213.605, 313.691 214.956 C 310.304 217.139, 310.098 217.492, 311.835 218.135 C 314.565 219.145, 318.860 225.050, 319.617 228.834 C 320.449 232.996, 321.749 232.857, 322.562 228.519 C 322.992 226.231, 324.593 223.793, 327.235 221.407 C 331.408 217.636, 331.405 217.596, 326.753 214.933 C 325.793 214.383, 324.096 212.148, 322.983 209.967 C 320.567 205.231, 320.854 205.281, 319 209.272 M 407 221.798 C 407 225.719, 403.255 226.841, 397.822 224.549 C 396.666 224.062, 394.960 224.927, 392.339 227.329 C 388.752 230.616, 388.535 231.151, 388.568 236.658 C 388.589 240.212, 389.280 243.777, 390.332 245.760 C 392.030 248.960, 392.115 248.992, 394.981 247.510 C 398.678 245.598, 401.393 245.613, 411.214 247.604 C 418.783 249.137, 419.189 249.126, 420.532 247.354 C 422.474 244.790, 422.463 231.796, 420.515 228.029 C 417.620 222.430, 407 217.534, 407 221.798 M 562.186 242.722 C 561.683 243.700, 561.019 246.479, 560.711 248.897 C 559.891 255.331, 557.864 256.830, 549 257.554 C 536.352 258.588, 536.022 259.278, 547.076 261.583 C 551.125 262.427, 555.040 263.618, 555.776 264.229 C 557.781 265.893, 560 271.813, 560 275.497 C 560 288.107, 563.379 287.850, 565.018 275.116 C 566.001 267.479, 567.287 265.998, 574.721 263.939 C 581.415 262.085, 582.895 260, 577.518 260 C 570.147 260, 566.381 256.185, 565.404 247.728 C 564.686 241.514, 563.642 239.891, 562.186 242.722 M 413.974 265.230 C 412.535 267.106, 412.864 267.638, 419.642 274.416 C 432.011 286.785, 430.746 294.950, 416.196 296.658 C 412.105 297.139, 411.139 296.874, 408.698 294.605 C 406.157 292.241, 405.137 291.999, 397.698 291.985 C 393.189 291.976, 388.825 291.497, 388 290.919 C 386.939 290.177, 390.599 290.052, 400.500 290.494 C 420.463 291.384, 420.008 291.392, 421.254 290.146 C 423.274 288.126, 420.883 283.459, 417.964 283.725 C 416.609 283.848, 416.063 283.698, 416.750 283.391 C 419.214 282.292, 417.951 281.068, 415.367 282.051 C 413.600 282.722, 410.906 282.714, 407.183 282.026 C 404.130 281.462, 399.578 280.986, 397.066 280.970 C 388.240 280.911, 395.323 279.147, 405.701 278.820 C 412.618 278.601, 415.553 278.168, 414.960 277.452 C 414.480 276.874, 411.692 276.557, 408.749 276.745 C 405.811 276.933, 402.304 276.615, 400.954 276.038 C 398.597 275.032, 398.618 275.008, 401.500 275.431 C 403.150 275.674, 406.525 275.507, 409 275.061 L 413.500 274.250 408 274.007 C 404.975 273.873, 401.150 273.420, 399.500 273 C 396.723 272.293, 396.834 272.222, 401 272.041 L 405.500 271.846 401.500 270.592 C 398.218 269.563, 397.859 269.223, 399.500 268.700 C 400.600 268.350, 399.700 268.269, 397.500 268.520 C 395.300 268.772, 390.661 268.983, 387.191 268.989 C 383.133 268.996, 381.108 269.366, 381.516 270.027 C 381.865 270.591, 382.679 270.988, 383.325 270.908 C 386.048 270.572, 388.078 271.064, 387.543 271.931 C 387.226 272.443, 387.507 273.196, 388.167 273.603 C 390.193 274.856, 385.940 275.827, 380.885 275.266 C 377.745 274.917, 376.018 275.162, 375.481 276.031 C 374.951 276.888, 375.090 277.063, 375.902 276.560 C 376.569 276.149, 378.326 276.117, 379.807 276.489 L 382.500 277.167 379 278.718 C 375.514 280.264, 375.510 280.273, 378 281.035 C 380.317 281.745, 380.340 281.808, 378.309 281.900 C 375.757 282.016, 374.415 283.598, 376.244 284.336 C 376.935 284.614, 375.475 284.904, 373 284.979 C 370.525 285.054, 366.700 285.488, 364.500 285.943 C 360.934 286.680, 361.314 286.784, 368 286.900 C 375.358 287.028, 376.583 288.813, 369.500 289.084 C 366.553 289.197, 366.544 289.213, 369 290 C 371.055 290.658, 370.611 290.845, 366.500 291.053 C 363.750 291.191, 361.050 291.409, 360.500 291.537 C 359.950 291.665, 358.150 291.902, 356.500 292.065 C 354.850 292.227, 356.875 292.621, 361 292.939 L 368.500 293.517 362 294.631 L 355.500 295.745 361 295.904 C 368.976 296.135, 365.107 298.946, 356.559 299.131 L 350.500 299.262 356.289 300.003 C 365.012 301.120, 364.206 301.754, 353.059 302.544 C 341.100 303.392, 339.465 304.469, 348.778 305.364 C 357.479 306.201, 360.575 307.026, 358.899 308.062 C 358.046 308.590, 358.756 309.197, 361.065 309.914 C 364.236 310.899, 364.115 310.936, 359.500 310.396 C 349.826 309.266, 341 308.978, 341 309.793 C 341 310.246, 345.278 311.081, 350.506 311.648 C 360.514 312.733, 362.607 313.521, 359.742 315.125 C 357.149 316.576, 357.633 317.991, 360.750 318.070 C 362.262 318.109, 364.400 318.527, 365.500 319 C 367.339 319.790, 367.299 319.868, 365 319.965 C 362.501 320.071, 362.501 320.071, 364.684 321.285 C 366.468 322.277, 363.856 322.499, 350.434 322.493 C 341.395 322.489, 334 322.848, 334 323.291 C 334 326.520, 344.458 332.262, 354.541 334.568 C 358.369 335.444, 362.323 336.600, 363.328 337.137 C 365.376 338.232, 376.783 339.892, 387.750 340.691 C 391.741 340.981, 395 341.684, 395 342.254 C 395 343.580, 373.430 341.417, 364.500 339.195 C 362.300 338.647, 357.800 337.950, 354.500 337.646 L 348.500 337.093 353 338.660 C 355.475 339.522, 359.525 340.598, 362 341.051 C 364.475 341.504, 368.525 342.333, 371 342.894 C 373.475 343.454, 378.564 343.932, 382.309 343.956 C 386.858 343.986, 388.900 344.353, 388.460 345.064 C 388.087 345.668, 384.708 346.096, 380.651 346.055 C 376.718 346.014, 369.900 346.326, 365.500 346.747 L 357.500 347.512 362.193 348.756 C 364.774 349.440, 368.738 350, 371.002 350 C 373.491 350, 374.874 350.395, 374.500 351 C 373.685 352.319, 364.406 352.287, 361.921 350.958 C 360.719 350.314, 359.355 350.262, 358.357 350.820 C 352.988 353.825, 415.497 356.139, 425.500 353.305 C 427.700 352.682, 431.875 351.521, 434.777 350.725 C 437.680 349.930, 440.342 348.991, 440.694 348.639 C 441.979 347.354, 440.207 346.971, 437.585 347.968 C 433.120 349.665, 412.226 351.896, 409.233 350.995 C 406.951 350.308, 407.407 350.139, 412 349.974 L 417.500 349.776 412.163 348.638 C 406.927 347.522, 406.064 346, 410.667 346 C 411.950 346, 413 345.616, 413 345.148 C 413 344.679, 416.712 344.002, 421.250 343.645 C 436.882 342.413, 436.403 341.098, 420.500 341.586 C 404.445 342.079, 402.807 340.672, 418.121 339.542 C 432.072 338.512, 435 337.986, 435 336.509 C 435 335.438, 434.291 335.344, 431.750 336.079 C 427.294 337.366, 409.491 337.383, 407.290 336.102 C 405.879 335.281, 406.665 335.030, 411 334.915 C 416.231 334.777, 416.316 334.734, 412.739 334.041 C 406.800 332.889, 407.146 332, 413.533 332 C 420.085 332, 420.061 330.390, 413.500 329.734 C 411.300 329.514, 414.341 329.412, 420.258 329.508 C 426.174 329.604, 430.833 329.500, 430.611 329.278 C 429.418 328.085, 420.198 326.415, 418.488 327.083 C 415.723 328.163, 405.798 328.158, 404.090 327.077 C 403.118 326.462, 404.437 325.964, 408.328 325.478 C 411.435 325.090, 413.752 324.408, 413.476 323.962 C 413.201 323.516, 413.769 322.970, 414.738 322.747 C 415.707 322.525, 412.900 322.017, 408.500 321.619 C 395.574 320.449, 395.772 320.287, 410.500 319.983 L 424.500 319.693 413 318.858 C 406.675 318.398, 394.066 317.658, 384.980 317.212 C 368.239 316.391, 366 315.957, 366 313.530 C 366 309.876, 374.010 308, 389.616 308 C 399.119 308, 405 307.600, 405.693 306.907 C 406.428 306.172, 407.393 306.134, 408.643 306.790 C 412.023 308.565, 424.358 310.005, 434 309.750 C 443.017 309.513, 443.515 309.608, 443.803 311.625 C 443.970 312.794, 443.320 314.537, 442.359 315.499 C 440.477 317.380, 440.263 318.074, 439.391 325.122 C 438.606 331.462, 441.316 341.903, 444.419 344.500 C 445.733 345.600, 447.484 348.141, 448.310 350.146 C 449.223 352.363, 451.907 355.387, 455.156 357.860 C 460.841 362.187, 463.903 366.100, 466.520 372.382 C 469.287 379.023, 470.291 375.556, 470.400 358.982 L 470.500 343.865 466.765 340.433 C 464.710 338.545, 462.053 337, 460.859 337 C 456.687 337, 451.997 332.326, 452.027 328.199 L 452.054 324.500 454.777 327.604 C 457.550 330.765, 466.766 336.567, 467.635 335.699 C 467.897 335.436, 465.409 333.097, 462.106 330.502 C 456.536 326.126, 455.944 325.264, 453.967 318.641 C 447.670 297.545, 447.465 297.133, 437.463 285.500 C 433.208 280.550, 427.978 274.144, 425.841 271.264 C 423.434 268.018, 420.920 265.773, 419.229 265.360 C 417.728 264.992, 416.275 264.365, 416 263.965 C 415.725 263.566, 414.813 264.135, 413.974 265.230 M 109.167 270.298 C 106.212 280.308, 104.142 298.926, 104.142 315.500 C 104.142 326.342, 104.495 331.316, 106.608 350.268 C 107.476 358.060, 109.349 359.055, 108.676 351.368 C 105.469 314.746, 105.601 301.747, 109.428 277.508 C 111.197 266.306, 111.104 263.740, 109.167 270.298 M 638.893 299.360 C 635.443 301.070, 635.166 305.408, 638.373 307.508 C 641.018 309.242, 643.392 308.642, 645.915 305.603 C 648.921 301.981, 643.437 297.106, 638.893 299.360 M 377 311.915 C 374.124 312.738, 387.952 313.708, 412.500 314.406 C 426.706 314.809, 427.323 314.765, 418 314.010 C 412.225 313.543, 405.928 312.675, 404.007 312.080 C 400.170 310.894, 380.978 310.776, 377 311.915 M 349.250 326.743 C 335.901 327.378, 342.604 331.118, 358 331.624 C 367.727 331.944, 368.279 331.864, 365.500 330.530 C 363.850 329.738, 361.150 329.026, 359.500 328.947 C 356.794 328.818, 356.941 328.676, 361 327.500 L 365.500 326.196 361 326.297 C 358.525 326.352, 353.238 326.553, 349.250 326.743 M 125.699 338.191 C 125.928 341.111, 126.525 345.525, 127.025 348 C 127.525 350.475, 128.229 355.200, 128.590 358.500 C 128.951 361.800, 129.591 364.950, 130.011 365.500 C 130.432 366.050, 131.094 368.862, 131.482 371.749 C 131.870 374.636, 132.595 377.250, 133.094 377.558 C 133.592 377.866, 134 378.940, 134 379.944 C 134 382.072, 137.148 392.186, 137.653 391.680 C 138.167 391.166, 136.056 379.792, 135.020 377.500 C 133.263 373.610, 129.525 353.931, 128.140 341.280 C 127.266 333.295, 125.099 330.553, 125.699 338.191 M 331 357.334 C 339.996 360.800, 398.213 363.615, 418.500 361.565 C 439.057 359.487, 444.019 358.681, 445.218 357.225 C 446.355 355.844, 446.048 355.751, 442.500 356.402 C 428.154 359.036, 373.591 359.969, 352.500 357.941 C 331.731 355.944, 327.050 355.812, 331 357.334 M 437.849 362.493 C 425.138 364.633, 385.200 365.357, 360.500 363.896 C 334.808 362.376, 331.182 362.392, 329.643 364.032 C 328.758 364.976, 329.083 365.148, 331.085 364.795 C 333.458 364.378, 357.176 366.196, 371.500 367.895 C 377.539 368.611, 377.291 369.028, 370 370.416 C 368.625 370.678, 371.325 370.743, 376 370.560 C 380.675 370.378, 383.488 370.434, 382.250 370.684 C 381.012 370.934, 380 371.526, 380 372 C 380 372.473, 381.460 372.442, 383.243 371.930 C 387.634 370.671, 391.313 370.761, 394.685 372.209 C 397.222 373.298, 396.511 373.484, 387.500 374.091 C 373.169 375.057, 349.203 375.137, 348.637 374.222 C 348.372 373.794, 351.383 373.552, 355.328 373.684 C 361.432 373.889, 361.979 373.781, 359 372.959 C 357.075 372.429, 352.800 372.108, 349.501 372.247 C 345.453 372.418, 343.502 372.121, 343.501 371.333 C 343.499 369.142, 342.150 368.816, 338.518 370.130 C 335.236 371.316, 335.054 371.567, 336.634 372.722 C 337.992 373.714, 338.060 374.023, 336.941 374.102 C 327.546 374.770, 370.325 378.577, 399 379.625 C 414.750 380.201, 419.564 379.716, 448.286 374.654 C 458.382 372.875, 458.133 374.701, 447.936 377.227 C 428.509 382.039, 413.128 383.373, 392.809 382.006 C 355.116 379.471, 345.520 380.158, 378 383.066 C 403.062 385.310, 405.264 385.821, 388 385.387 C 361.207 384.714, 345.681 383.815, 346.978 383.014 C 347.658 382.593, 345.622 381.941, 342.346 381.530 C 332.988 380.355, 328.141 380.457, 326.774 381.858 C 325.728 382.931, 326.374 383.036, 330.392 382.447 C 334.205 381.889, 335.113 382.008, 334.507 382.989 C 333.950 383.890, 331.988 384.080, 327.614 383.659 C 323.065 383.220, 320.860 383.459, 319 384.595 L 316.500 386.121 319.665 385.602 C 322.774 385.093, 334.053 386.448, 337 387.685 C 338.040 388.121, 337.579 388.534, 335.500 389.030 C 333.314 389.552, 334.105 389.713, 338.413 389.623 C 342.071 389.547, 344.473 389.938, 344.712 390.647 C 344.993 391.483, 341.350 391.713, 331.299 391.494 C 320.674 391.263, 318.765 391.396, 323 392.075 C 326.025 392.560, 330.300 393.364, 332.500 393.863 C 336.312 394.727, 336.359 394.783, 333.500 395.047 C 324.421 395.884, 369.161 398.863, 391.500 398.909 C 425.067 398.977, 460.902 395.134, 467.671 390.740 C 469.407 389.613, 459.358 372.566, 452.645 365.250 C 448.366 360.587, 448.749 360.658, 437.849 362.493 M 108.522 374.314 C 108.083 375.329, 108.235 377.221, 108.869 378.611 C 109.491 379.977, 110 381.921, 110 382.932 C 110 383.943, 110.655 386.960, 111.455 389.635 C 112.255 392.311, 113.862 397.875, 115.025 402 C 116.189 406.125, 117.512 410.400, 117.965 411.500 C 118.418 412.600, 119.572 415.750, 120.529 418.500 C 122.118 423.066, 123.094 425.460, 127.661 436 C 130.887 443.444, 138.536 458.516, 139.250 458.833 C 139.662 459.017, 140 459.633, 140 460.203 C 140 461.430, 146.842 472.918, 148.706 474.821 C 150.407 476.558, 150.369 474.984, 148.650 472.473 C 144.854 466.928, 130.048 438.142, 130.019 436.250 C 130.009 435.563, 129.550 435, 129 435 C 128.450 435, 128 434.323, 128 433.496 C 128 432.669, 127.100 430.314, 126 428.261 C 124.900 426.209, 124 423.762, 124 422.824 C 124 421.886, 123.550 420.840, 123 420.500 C 122.450 420.160, 122 419.263, 122 418.506 C 122 417.749, 121.473 415.863, 120.828 414.315 C 118.738 409.294, 114.244 394.229, 112.382 386 C 109.144 371.695, 109.365 372.365, 108.522 374.314 M 346.500 389.487 C 348.070 390.150, 389.444 392.911, 400 393.057 C 412.348 393.227, 414.520 392.945, 409 391.888 C 402.918 390.724, 344.079 388.463, 346.500 389.487 M 320.756 400.654 C 318.915 403.900, 319.114 406.796, 321.216 407.346 C 322.424 407.662, 323.620 407.714, 323.873 407.460 C 324.126 407.207, 323.822 407, 323.198 407 C 322.574 407, 322.322 406.325, 322.638 405.500 C 323.369 403.595, 326.640 403.595, 332.715 405.501 C 346.170 409.723, 347.973 410.360, 347.579 410.754 C 347.345 410.989, 343.432 410.240, 338.886 409.090 C 334.339 407.941, 330.142 407.010, 329.560 407.023 C 326.582 407.087, 343.279 413, 346.438 413 C 347.297 413, 348 413.450, 348 414 C 348 415.240, 344.569 415.305, 342.236 414.110 C 338.854 412.375, 325.909 408.758, 325.293 409.374 C 324.948 409.718, 325.216 410, 325.888 410 C 326.560 410, 329.223 410.972, 331.805 412.160 C 334.387 413.347, 337.850 414.651, 339.500 415.057 L 342.500 415.795 339 415.891 C 337.075 415.944, 334.249 415.335, 332.719 414.537 C 331.190 413.739, 329.295 413.333, 328.509 413.635 C 327.724 413.936, 324.734 413.680, 321.867 413.065 C 318.825 412.412, 316.283 412.317, 315.764 412.836 C 315.245 413.355, 316.255 414.038, 318.188 414.477 C 321.469 415.221, 321.476 415.237, 319 416.079 C 317.319 416.651, 318.220 416.746, 321.750 416.371 C 325.892 415.930, 327 416.114, 327 417.239 C 327 418.024, 327.563 418.680, 328.250 418.696 C 328.938 418.712, 338.725 419.349, 350 420.113 C 380.415 422.171, 447.515 421.322, 436.500 419.018 C 432.909 418.266, 434.530 417.573, 442.371 416.505 C 447.116 415.858, 447.547 414.764, 443.500 413.637 C 442.400 413.331, 443.847 413.219, 446.716 413.390 C 452.356 413.725, 452.844 412.593, 447.701 411.106 L 444.500 410.180 448.135 410.090 C 450.135 410.041, 453.285 409.304, 455.135 408.453 L 458.500 406.905 453 407.492 C 449.975 407.815, 446.313 408.937, 444.863 409.986 C 441.725 412.255, 440.784 411.699, 442.064 408.332 C 443.369 404.899, 443.240 404, 441.441 404 C 440.584 404, 440.141 404.419, 440.457 404.931 C 441.441 406.523, 438.997 407.243, 437.323 405.853 C 435.906 404.677, 435.991 404.463, 438.117 403.867 C 443.119 402.465, 446 402.879, 446 405 C 446 406.531, 446.646 406.985, 448.750 406.937 C 451.393 406.876, 451.413 406.838, 449.250 405.969 C 446.697 404.943, 446.450 403.982, 448.250 402.076 C 449.283 400.982, 448.415 400.860, 443.250 401.376 C 425.216 403.177, 424.576 403.303, 422.789 405.409 C 420.812 407.739, 420.803 412.208, 422.775 412.598 C 423.476 412.737, 423.589 412.621, 423.025 412.342 C 420.848 411.262, 422.156 410, 425.453 410 C 427.352 410, 430.054 409.477, 431.457 408.838 C 434.663 407.377, 435.364 408.065, 434.532 411.853 C 433.365 417.166, 423.786 418.877, 419.455 414.545 C 416.427 411.518, 416.352 409.318, 419.174 406.314 L 421.349 404 415.424 404.044 C 412.166 404.068, 407.841 404.680, 405.813 405.404 C 403.249 406.320, 400.563 406.474, 396.999 405.911 C 389.934 404.794, 368.800 402.866, 368.367 403.299 C 368.173 403.494, 370.036 404.662, 372.507 405.896 C 376.779 408.030, 378.140 410.178, 376.041 411.475 C 375.513 411.801, 374.276 411.624, 373.291 411.082 C 372.306 410.540, 369.829 409.357, 367.787 408.452 C 365.744 407.547, 363.802 405.950, 363.469 404.904 C 362.967 403.320, 361.889 403, 357.058 403 C 353.863 403, 349.844 402.719, 348.125 402.375 C 346.106 401.971, 345 402.148, 345 402.875 C 345 403.494, 345.475 404, 346.055 404 C 347.783 404, 355.823 407.905, 356.565 409.105 C 357.012 409.828, 356.599 410.013, 355.375 409.635 C 354.344 409.316, 350.575 408.318, 347 407.417 C 337.555 405.035, 336.084 404.145, 338.570 402.319 C 340.308 401.041, 339.905 400.913, 334.500 401.031 C 331.200 401.102, 326.866 400.856, 324.868 400.485 C 322.871 400.113, 321.020 400.189, 320.756 400.654 M 537.225 416.315 C 536.551 417.863, 536 419.721, 536 420.443 C 536 422.382, 533.977 423.653, 529.648 424.434 C 525.374 425.205, 525.528 425.923, 530.298 427.465 C 533.166 428.392, 533.609 429.067, 534.541 433.930 C 535.834 440.679, 537.569 441.510, 538.527 435.840 C 539.453 430.358, 540.964 428, 543.549 428 C 544.687 428, 546.491 427.339, 547.559 426.532 C 549.464 425.091, 549.461 425.063, 547.399 425.032 C 541.480 424.942, 539.119 423.063, 538.777 418.170 C 538.453 413.540, 538.440 413.524, 537.225 416.315 M 298 418.879 C 298 420.847, 310.761 424.264, 324.500 425.975 C 345.936 428.645, 354.232 428.937, 404 428.775 C 432.875 428.681, 451.550 428.356, 445.500 428.052 C 434.065 427.478, 433.237 426.012, 444.332 425.985 C 447.724 425.976, 451.175 425.506, 452 424.941 C 453.053 424.219, 451.712 424.137, 447.500 424.666 C 438.172 425.838, 355.957 425.462, 343 424.188 C 336.675 423.566, 326.325 422.568, 320 421.970 C 313.675 421.372, 306.281 420.234, 303.568 419.441 C 297.750 417.741, 298 417.766, 298 418.879 M 186.699 430 C 186.405 430.825, 185.943 433.430, 185.672 435.789 C 185.040 441.293, 183.725 442.789, 178.320 444.150 C 173.222 445.433, 173.094 447.228, 178.064 447.731 C 184.953 448.428, 186.810 451.317, 188.167 463.443 C 189.451 474.920, 190.603 474.681, 191.279 462.797 C 192.100 448.361, 191.435 449.254, 203.395 446.545 C 207.924 445.519, 205.215 444.139, 198.011 443.803 L 191.523 443.500 189.818 437.171 C 187.518 428.629, 187.336 428.210, 186.699 430 M 324.484 430.697 C 326.675 430.939, 328.700 431.502, 328.984 431.948 C 329.268 432.393, 334.675 433.269, 341 433.894 C 347.325 434.519, 356.550 435.466, 361.500 435.997 C 366.450 436.529, 373.564 436.972, 377.309 436.982 C 381.752 436.994, 383.895 437.360, 383.477 438.037 C 382.735 439.238, 349.100 439.178, 336.500 437.952 C 321.537 436.497, 315.091 436.151, 319.500 437.041 C 322.203 437.586, 320.419 437.709, 314 437.422 C 304.932 437.016, 304.682 437.059, 308.500 438.370 C 313.066 439.938, 335.998 442.640, 353 443.613 C 359.325 443.975, 365.400 444.631, 366.500 445.072 C 369.305 446.196, 345.208 446.090, 336 444.938 C 320.677 443.021, 317.518 442.771, 318.239 443.532 C 318.645 443.960, 320.670 444.639, 322.739 445.041 L 326.500 445.770 321.500 445.965 L 316.500 446.159 322.500 447.440 C 325.800 448.144, 333 449.018, 338.500 449.383 C 352.474 450.309, 364.704 451.911, 370 453.508 C 374.349 454.820, 374.181 454.849, 365 454.364 C 351.631 453.658, 327.167 451.094, 323 449.962 C 321.075 449.439, 318.150 449.041, 316.500 449.078 C 314.280 449.127, 314.930 449.493, 319 450.486 C 358.777 460.188, 440.206 457.265, 462.099 445.350 C 469.266 441.449, 466.684 441.266, 458.912 445.124 C 452.740 448.187, 451.956 448.319, 438 448.651 C 423.039 449.007, 421.523 448.678, 431 447.131 C 436.211 446.281, 435.949 446.223, 426 446.031 C 410.202 445.726, 417.678 444.140, 439 443.273 C 458.515 442.479, 454.620 441.492, 429.333 440.822 C 417.426 440.507, 414.803 439.126, 424.864 438.471 C 437.605 437.641, 456.515 435.808, 465 434.581 L 474.500 433.208 463 433.679 C 456.675 433.938, 448.575 434.491, 445 434.907 C 441.425 435.324, 435.800 435.357, 432.500 434.980 L 426.500 434.294 434 434.105 C 438.125 434, 445.325 433.273, 450 432.488 L 458.500 431.061 446.500 431.516 C 411.481 432.844, 358.789 433.194, 349.500 432.162 C 344 431.551, 335.225 430.872, 330 430.654 C 324.775 430.435, 322.293 430.455, 324.484 430.697 M 456.379 466.500 C 454.762 483.054, 456.026 539.817, 458.526 563 C 459.347 570.603, 457.454 593.748, 455.854 595.675 C 455.021 596.679, 455.136 597, 456.326 597 C 458.731 597, 464 576.119, 464 566.591 C 464 562.357, 465.942 562.558, 466.100 566.809 C 466.183 569.029, 466.384 568.800, 467.250 565.500 C 469.692 556.185, 467.950 456.292, 465.488 464.500 L 464.288 468.500 463.812 464.500 C 463.550 462.300, 463.258 465.900, 463.163 472.500 C 463.068 479.100, 462.675 489, 462.290 494.500 L 461.591 504.500 460.392 499.500 C 459.732 496.750, 459.117 487.075, 459.026 478 C 458.828 458.348, 457.667 453.306, 456.379 466.500 M 324.882 461.781 C 324.816 462.177, 324.816 462.837, 324.882 463.250 C 324.947 463.663, 324.550 464, 324 464 C 323.450 464, 323 464.900, 323 466 C 323 467.100, 322.550 468, 322 468 C 321.450 468, 321 468.900, 321 470 C 321 471.100, 320.599 472, 320.109 472 C 319.120 472, 318.963 472.781, 316.065 492 C 314.589 501.788, 313.854 513.198, 313.393 533.500 L 312.757 561.500 318.790 569.500 C 327.682 581.289, 343.160 594.238, 347.936 593.884 C 349.159 593.793, 349.118 593.668, 347.750 593.311 C 346.788 593.059, 346 592.467, 346 591.994 C 346 591.521, 345.066 590.838, 343.925 590.476 C 342.783 590.114, 342.069 589.598, 342.338 589.329 C 343.196 588.471, 350.984 593.446, 350.992 594.857 C 350.997 595.698, 351.618 595.977, 352.627 595.590 C 353.521 595.246, 354.759 595.353, 355.377 595.827 C 355.995 596.301, 360.410 597.251, 365.188 597.939 C 369.966 598.626, 374.691 599.807, 375.688 600.563 C 376.685 601.318, 379.525 601.889, 382 601.830 L 386.500 601.725 381.943 600.731 C 376.164 599.470, 372.718 594.786, 375.582 592.084 C 377.128 590.626, 377.222 590.668, 376.762 592.608 C 375.438 598.188, 380.725 599.946, 391.255 597.429 C 402.528 594.733, 410.970 591.364, 417.385 587.002 C 423.245 583.017, 428.885 581.124, 424.095 584.750 C 418.757 588.791, 414.966 592.299, 415.433 592.766 C 415.708 593.041, 417.539 591.856, 419.501 590.133 C 421.464 588.410, 423.581 587, 424.206 587 C 424.831 587, 426.129 586.288, 427.090 585.419 C 429.554 583.189, 433.487 586.922, 432.562 590.611 C 432.024 592.751, 432.167 592.913, 433.725 591.940 C 435.181 591.032, 435.473 589.556, 435.347 583.725 C 435.263 579.816, 435.641 575.467, 436.186 574.059 C 436.731 572.652, 437.330 564.525, 437.516 556 C 437.703 547.475, 438.368 537.350, 438.993 533.500 C 440.612 523.541, 439.988 468.665, 438.282 470.902 C 437.191 472.333, 437.060 472.336, 437.032 470.937 C 436.994 469.064, 431.295 463.371, 430.377 464.289 C 430.023 464.643, 431.144 466.539, 432.867 468.501 C 437.645 473.943, 436.589 474.134, 431.491 468.750 C 429.017 466.137, 426.207 464.012, 425.246 464.027 C 423.952 464.047, 424.462 464.949, 427.214 467.508 C 429.257 469.407, 431.712 472.208, 432.670 473.731 C 433.699 475.368, 431.981 474.150, 428.464 470.750 C 425.193 467.587, 421.649 465, 420.588 465 C 419.182 465, 420.281 466.468, 424.644 470.416 C 432.456 477.486, 436 484.232, 436 492.033 C 436 495.250, 435.550 498.160, 435 498.500 C 434.376 498.886, 434 496.871, 434 493.142 C 434 486.258, 431.655 479.953, 427.213 474.897 C 423.529 470.703, 415.304 464.700, 414.662 465.736 C 413.614 467.427, 350.996 466.570, 341.619 464.737 C 330.036 462.472, 329.882 462.488, 327.250 466.253 C 326.012 468.023, 325 468.948, 325 468.307 C 325 467.667, 325.675 466.468, 326.500 465.643 C 327.325 464.818, 328 463.709, 328 463.178 C 328 462.045, 325.056 460.726, 324.882 461.781 M 300.564 463.695 C 300.188 464.674, 299.618 468.280, 299.298 471.709 C 298.678 478.352, 297.066 479.348, 296.901 473.191 C 296.840 470.918, 296.308 472.690, 295.515 477.803 C 293.766 489.086, 293.013 489.119, 292.930 477.917 C 292.860 468.597, 291.783 462.828, 290.705 466 C 289.399 469.843, 287.509 516.484, 287.585 543 C 287.670 572.701, 288.666 584.671, 291.486 589.861 C 292.889 592.443, 292.925 592.380, 293.155 587 C 293.284 583.975, 293.486 580.375, 293.603 579 C 293.720 577.625, 293.889 575.375, 293.978 574 C 294.251 569.794, 295.843 574.652, 295.945 580 C 295.992 582.475, 296.644 586.264, 297.395 588.421 C 298.639 591.994, 298.716 591.152, 298.267 578.921 C 297.683 562.975, 299.556 512.036, 301.041 503.500 C 302.059 497.650, 302.613 463.279, 301.704 462.370 C 301.453 462.119, 300.940 462.715, 300.564 463.695 M 305.481 464.250 C 304.867 466.731, 304.524 481.658, 304.901 489.500 C 305.033 492.250, 304.418 506.650, 303.534 521.500 C 301.459 556.384, 300.706 585, 301.865 585 C 302.361 585, 303.075 586.013, 303.451 587.250 C 303.969 588.956, 304.276 589.137, 304.717 588 C 305.038 587.175, 305.749 586.207, 306.298 585.850 C 306.905 585.454, 307.596 571.555, 308.064 550.350 C 308.486 531.182, 309.140 514.092, 309.517 512.371 C 309.936 510.454, 309.775 508.979, 309.101 508.562 C 308.337 508.090, 308 510.179, 308 515.382 C 308 520.005, 307.554 523.158, 306.837 523.601 C 305.959 524.143, 305.862 520.415, 306.441 508.410 C 306.863 499.659, 307.094 491.600, 306.956 490.500 C 306.817 489.400, 306.754 482.538, 306.816 475.250 C 306.926 462.307, 306.609 459.694, 305.481 464.250 M 448.824 481.083 C 448.727 490.113, 448.788 510.212, 448.960 525.750 C 449.172 545.045, 448.937 554, 448.219 554 C 447.640 554, 446.940 553.438, 446.662 552.750 C 446.385 552.063, 446.120 556, 446.074 561.500 C 446.028 567, 445.823 576.450, 445.617 582.500 C 445.411 588.550, 445.423 591.475, 445.643 589 C 445.862 586.525, 446.464 583.600, 446.980 582.500 C 447.495 581.400, 448.086 579.375, 448.294 578 C 448.501 576.625, 448.459 580.675, 448.200 587 C 447.735 598.387, 446.787 602.605, 444.950 601.469 C 444.427 601.146, 443.993 599.671, 443.985 598.191 C 443.976 596.689, 443.645 595.996, 443.235 596.622 C 440.720 600.462, 430.785 602.619, 402.428 605.479 C 380 607.742, 345.974 606.548, 335.500 603.131 C 333.850 602.592, 329.125 601.148, 325 599.921 C 320.875 598.694, 316.772 597.239, 315.882 596.687 C 314.078 595.568, 311 596.376, 311 597.969 C 311 598.536, 312.173 599, 313.607 599 C 315.428 599, 316.052 599.421, 315.678 600.397 C 315.333 601.297, 315.995 601.957, 317.541 602.253 C 318.860 602.505, 319.702 602.326, 319.411 601.856 C 318.730 600.754, 320.105 600.781, 321.878 601.904 C 322.648 602.391, 322.924 603.315, 322.503 603.995 C 321.949 604.891, 322.377 605.015, 324.117 604.463 C 326.309 603.767, 326.374 603.846, 324.992 605.522 C 323.596 607.215, 323.694 607.287, 326.500 606.635 C 328.601 606.148, 329.059 606.232, 328.028 606.916 C 326.790 607.738, 326.869 607.995, 328.528 608.537 C 329.613 608.891, 331.470 609.644, 332.655 610.209 C 333.840 610.774, 335.271 610.950, 335.836 610.602 C 336.400 610.253, 337.144 610.425, 337.490 610.984 C 337.835 611.543, 339.104 611.993, 340.309 611.985 C 342.124 611.972, 342.243 611.790, 341 610.924 C 339.898 610.156, 340.424 610.062, 342.986 610.571 C 344.903 610.951, 346.970 611.944, 347.579 612.777 C 348.407 613.909, 352.274 614.555, 362.922 615.341 C 383.557 616.862, 407.540 615.137, 423.500 610.983 C 434.584 608.098, 447.304 602.935, 448.635 600.781 C 448.944 600.282, 449.648 593.040, 450.201 584.687 C 452.289 553.157, 452.490 551.268, 453.425 554.396 C 454.215 557.041, 453.933 567.233, 452.438 590 C 452.005 596.588, 452.136 598.094, 453.021 596.695 C 456.062 591.881, 456.547 551.718, 453.970 518 C 453.444 511.125, 452.786 498.975, 452.508 491 C 452.004 476.601, 450.885 466.551, 449.646 465.313 C 449.291 464.957, 448.921 472.054, 448.824 481.083 M 579.176 473.684 C 578.529 474.886, 577.986 478.261, 577.968 481.184 C 577.928 487.922, 576.243 490.200, 570.757 490.932 C 564.549 491.760, 564.677 495.076, 570.964 496.319 C 576.223 497.360, 577.153 498.436, 579.468 506.165 C 581.433 512.725, 582.993 512.956, 583.014 506.691 C 583.041 498.295, 585.182 496, 592.988 496 C 595.130 496, 597.162 495.547, 597.504 494.993 C 598.246 493.793, 597.062 493.359, 590.731 492.511 C 584.717 491.705, 583.476 489.911, 581.704 479.468 C 580.510 472.426, 580.216 471.754, 579.176 473.684 M 245.470 493.250 C 244.002 502.085, 240.457 506.659, 234.373 507.571 C 231.954 507.934, 229.743 508.606, 229.460 509.065 C 228.816 510.106, 232.229 512, 234.747 512 C 238.822 512, 244.273 520.290, 245.431 528.250 C 245.812 530.862, 246.517 533, 247 533 C 247.483 533, 248.185 530.862, 248.562 528.250 C 249.812 519.570, 254.201 512, 257.983 512 C 258.882 512, 260.491 511.339, 261.559 510.532 C 263.433 509.114, 263.414 509.062, 261 509.028 C 254.983 508.943, 250.680 504.425, 249.543 497 C 248.118 487.695, 246.621 486.318, 245.470 493.250 M 536 537.365 C 536 541.325, 532.355 545, 528.427 545 C 526.047 545, 525 545.458, 525 546.500 C 525 547.586, 526.117 548, 529.051 548 C 532.728 548, 533.236 548.320, 534.551 551.468 C 535.348 553.375, 536 555.888, 536 557.051 C 536 560.623, 538.447 558.620, 539.116 554.500 C 539.833 550.092, 542.137 548, 546.274 548 C 550.086 548, 549.370 545.617, 545.423 545.166 C 541.938 544.769, 539 542.371, 539 539.927 C 539 537.452, 537.951 535, 536.893 535 C 536.402 535, 536 536.064, 536 537.365 M 463.500 609.811 C 463.500 611.460, 463.841 612.598, 464.257 612.341 C 464.673 612.084, 465.294 612.689, 465.635 613.687 C 465.977 614.684, 467.549 618.159, 469.128 621.410 C 470.708 624.660, 472 627.829, 472 628.452 C 472 630.434, 457.262 643.241, 450.124 647.461 C 446.842 649.401, 450.851 645.005, 456.500 640.469 C 459.800 637.819, 462.860 635.055, 463.300 634.326 C 463.740 633.597, 464.644 633, 465.309 633 C 466.912 633, 469.296 629.127, 469.618 626 L 469.876 623.500 467.482 626.461 C 466.166 628.089, 464.779 629.113, 464.402 628.735 C 464.024 628.357, 464.342 627.256, 465.107 626.288 C 465.873 625.319, 464.049 626.644, 461.052 629.233 C 454.609 634.799, 452.982 634.651, 458.500 629 C 463.216 624.170, 462.799 622.859, 457.960 627.303 C 452.393 632.416, 445.189 637.114, 444.536 636.058 C 444.206 635.524, 445.188 634.297, 446.718 633.330 C 451.274 630.450, 460.091 622.758, 459.506 622.173 C 459.208 621.874, 457.284 623.236, 455.232 625.199 C 448.510 631.626, 438.715 636.466, 444.750 630.377 C 446.417 628.696, 446.413 628.645, 444.668 629.306 C 443.661 629.688, 442.648 630, 442.418 630 C 440.966 630, 445.919 645.916, 448.586 649.819 C 448.706 649.994, 451.211 648.420, 454.152 646.322 C 459.070 642.814, 460.596 641.584, 466.565 636.321 C 467.701 635.319, 470.279 632.656, 472.294 630.402 L 475.958 626.304 472.729 620.051 C 470.953 616.612, 468.150 612.226, 466.500 610.306 L 463.500 606.814 463.500 609.811 M 439.347 612.463 C 439.904 613.913, 439.527 614.066, 436.749 613.519 C 434.332 613.043, 433.884 613.146, 435 613.924 C 436.191 614.754, 435.881 614.977, 433.500 615.004 C 431.850 615.024, 426.900 615.700, 422.500 616.507 C 406.216 619.494, 399.218 620.164, 382.557 620.330 C 364.824 620.507, 335.448 619.740, 338.341 619.177 C 340.124 618.829, 340.667 617, 338.986 617 C 338.429 617, 337.117 617.535, 336.071 618.188 C 334.588 619.114, 333.285 619.084, 330.159 618.052 C 327.953 617.324, 325.417 617.010, 324.522 617.353 C 323.539 617.730, 323.148 617.570, 323.532 616.948 C 323.934 616.298, 323.289 616.140, 321.774 616.521 C 320.458 616.851, 317.382 616.426, 314.940 615.575 C 309.443 613.661, 306.433 613.557, 310.500 615.421 C 316.262 618.062, 324.162 620.083, 326.198 619.437 C 327.438 619.044, 328.009 619.176, 327.642 619.770 C 327.287 620.345, 329.215 621.006, 332.267 621.357 C 335.145 621.688, 339.525 622.342, 342 622.811 C 346.208 623.607, 346.325 623.711, 343.807 624.425 C 342.326 624.845, 340.738 624.956, 340.279 624.672 C 339.819 624.388, 335.856 623.664, 331.472 623.063 C 324.294 622.080, 320.709 621.142, 306.250 616.469 C 300.461 614.598, 300.858 616.059, 306.754 618.323 C 309.364 619.325, 312.850 620.797, 314.500 621.593 L 317.500 623.041 313.500 622.443 C 311.300 622.114, 309.072 621.429, 308.550 620.922 C 308.027 620.415, 306.952 620, 306.161 620 C 305.369 620, 302.421 618.592, 299.611 616.871 C 296.160 614.757, 295.073 614.382, 296.263 615.714 C 298.770 618.519, 312.824 625.172, 320.294 627.090 C 352.078 635.250, 393.388 636.410, 422.890 629.971 C 438.702 626.520, 444.848 623.641, 453.608 615.581 C 458.630 610.960, 458.398 609.126, 453.327 613.359 C 450.080 616.069, 443.857 619.509, 442.750 619.206 C 442.337 619.093, 442 619.498, 442 620.107 C 442 620.716, 441.288 620.941, 440.419 620.607 C 439.549 620.273, 437.874 620.675, 436.696 621.500 C 435.519 622.325, 433.557 623, 432.337 623 C 431.116 623, 429.856 623.424, 429.536 623.942 C 429.215 624.460, 426.826 625.172, 424.227 625.523 C 421.627 625.874, 418.150 626.535, 416.500 626.990 C 413.082 627.934, 401.709 629.108, 404 628.281 C 404.825 627.983, 406.271 627.068, 407.213 626.248 C 408.155 625.428, 409.674 625.045, 410.590 625.396 C 411.505 625.747, 412.759 625.638, 413.377 625.154 C 413.995 624.669, 417.826 623.977, 421.891 623.616 C 428.422 623.036, 436.774 620.440, 435.668 619.334 C 435.446 619.112, 433.292 619.438, 430.882 620.057 C 428.472 620.677, 425.491 621.290, 424.257 621.418 C 423.024 621.547, 421.711 621.955, 421.341 622.326 C 420.970 622.697, 419.815 623, 418.774 623 C 415.638 623, 417.712 621.275, 421.739 620.536 C 427.001 619.570, 434.801 617.102, 439.338 614.969 C 443.092 613.203, 443.127 613.138, 440.936 611.966 C 438.982 610.920, 438.780 610.984, 439.347 612.463 M 273 631.859 C 273 632.551, 272.547 632.838, 271.992 632.495 C 270.406 631.515, 268.032 634.439, 269.075 636.088 C 269.707 637.085, 269.974 637.133, 269.985 636.250 C 270.015 633.794, 272.018 635.068, 274.629 639.204 C 276.089 641.517, 278.232 644.202, 279.392 645.171 C 280.690 646.256, 280.992 646.946, 280.179 646.967 C 279.193 646.992, 279.263 647.406, 280.454 648.597 C 281.333 649.476, 282.738 649.931, 283.578 649.609 C 284.532 649.242, 284.849 649.435, 284.424 650.123 C 284.050 650.728, 284.364 651.616, 285.122 652.096 C 287.181 653.401, 288.007 653.181, 287.362 651.500 C 287.045 650.675, 287.284 650, 287.893 650 C 288.502 650, 289 650.949, 289 652.108 C 289 653.895, 289.409 654.114, 291.675 653.546 C 294.018 652.957, 294.189 653.068, 293.052 654.437 C 291.490 656.319, 288.645 656.461, 286.783 654.750 C 285.179 653.276, 281.299 651, 280.391 651 C 280.041 651, 280.181 651.563, 280.701 652.250 C 281.221 652.938, 281.698 654.521, 281.762 655.769 C 281.875 657.972, 281.743 657.943, 277.189 654.769 C 274.610 652.971, 272.169 651.050, 271.765 650.500 C 271.277 649.835, 271.025 649.838, 271.015 650.509 C 270.993 651.996, 281.532 661.025, 287.469 664.605 C 296.302 669.931, 312.937 676.133, 324.500 678.412 C 353.968 684.221, 395.617 684.198, 424 678.357 C 437.463 675.586, 450 671.296, 450 669.460 C 450 667.303, 448.849 665, 447.771 665 C 447.180 665, 447.271 665.621, 447.986 666.483 C 449.003 667.709, 448.807 668.111, 446.859 668.796 C 443.520 669.970, 413.287 670.273, 412.587 669.140 C 411.676 667.667, 414.724 666.970, 420.330 667.370 C 423.174 667.573, 424.038 667.546, 422.250 667.309 C 416.881 666.599, 418.586 665.002, 424.750 664.968 C 430.024 664.939, 430.339 664.815, 428.559 663.468 C 426.707 662.067, 426.749 662, 429.487 662 C 433.773 662, 447 658.731, 447 657.671 C 447 657.165, 445.762 656.996, 444.250 657.297 C 409.437 664.220, 364.080 666.257, 339 662.022 C 311.125 657.315, 300.177 654.479, 292.193 649.898 C 290.374 648.854, 288.324 648, 287.637 648 C 283.965 648, 271.877 635.312, 274.189 633.883 C 275.220 633.246, 275.230 632.830, 274.242 631.842 C 273.253 630.853, 273 630.856, 273 631.859 M 472.801 635.973 C 470.766 638.645, 464.586 644.132, 459.067 648.166 C 450.878 654.152, 449.138 655.868, 449.601 657.500 C 449.914 658.600, 450.661 661.525, 451.261 664 C 451.862 666.475, 452.462 668.651, 452.595 668.835 C 453.898 670.640, 474.756 653.080, 480.142 645.645 C 483.647 640.807, 483.686 639.474, 480.464 634.732 C 477.302 630.079, 477.286 630.081, 472.801 635.973 M 302.580 633.754 C 301.918 634.415, 309.541 638, 311.609 638 C 312.374 638, 313 638.450, 313 639 C 313 639.550, 314.688 640.032, 316.750 640.070 C 319.875 640.129, 320.167 640.298, 318.500 641.087 C 317.044 641.775, 317.724 641.893, 321 641.518 C 325.252 641.031, 325.390 641.090, 323.500 642.596 C 321.607 644.105, 321.716 644.156, 325.536 643.543 C 329.094 642.973, 329.571 643.128, 329.571 644.851 C 329.571 646.857, 324.925 646.926, 321 644.977 C 320.175 644.567, 317.475 643.904, 315 643.503 C 312.525 643.102, 310.050 642.440, 309.500 642.031 C 308.621 641.378, 300.035 639, 298.557 639 C 298.251 639, 298.002 639.337, 298.004 639.750 C 298.008 640.665, 303.328 642.801, 316.500 647.174 C 325.333 650.107, 328.590 651.743, 327.587 652.746 C 327.105 653.229, 307.609 648.832, 306.500 647.990 C 305.950 647.573, 304.038 646.918, 302.250 646.536 C 300.462 646.154, 299 645.479, 299 645.037 C 299 643.550, 295.144 643.184, 294.593 644.619 C 293.754 646.804, 302.786 650.561, 318 654.357 C 335.286 658.670, 348.403 659.870, 378.500 659.893 C 403.054 659.912, 410.014 659.418, 425 656.594 C 446.490 652.544, 445.121 652.964, 444.407 650.638 C 443.486 647.636, 443.274 647.528, 440.748 648.770 C 436.598 650.812, 413.742 653.005, 415.500 651.193 C 416.050 650.626, 419.425 649.931, 423 649.648 C 429.809 649.110, 440.402 647.364, 438.250 647.134 C 437.563 647.060, 437 646.520, 437 645.933 C 437 645.298, 437.865 645.140, 439.136 645.543 C 441.072 646.158, 441.205 645.954, 440.555 643.363 C 440.160 641.790, 439.670 640.337, 439.465 640.132 C 439.261 639.927, 433.560 640.474, 426.797 641.347 C 404.344 644.246, 396.426 645.001, 389.932 644.864 C 382.457 644.706, 382.918 644.613, 401.500 642.539 C 409.200 641.680, 418.875 640.429, 423 639.759 L 430.500 638.540 424 637.816 C 420.425 637.418, 408.220 637.583, 396.877 638.184 C 381.698 638.987, 371.425 638.974, 357.964 638.134 C 347.904 637.506, 339.447 637.220, 339.170 637.497 C 338.893 637.773, 340.542 638, 342.833 638 C 345.125 638, 347 638.450, 347 639 C 347 639.550, 348.688 640.045, 350.750 640.100 C 352.813 640.155, 355.625 640.540, 357 640.956 L 359.500 641.713 356.760 642.462 C 355.253 642.875, 352.328 642.986, 350.260 642.710 C 348.192 642.435, 342.038 641.688, 336.585 641.052 C 331.132 640.415, 325.874 639.468, 324.901 638.947 C 323.928 638.426, 321.639 637.980, 319.816 637.956 C 317.992 637.932, 314.700 637.232, 312.500 636.400 C 305.734 633.842, 303.174 633.159, 302.580 633.754 M 362 655.060 C 362 656.538, 365.441 657, 376.457 657 C 388.477 657, 394.295 656.286, 393.448 654.916 C 392.816 653.893, 362 654.034, 362 655.060 M 284.180 658.181 C 284.899 663.082, 307.816 670.887, 311.942 667.636 C 313.049 666.764, 313.210 666.790, 312.633 667.750 C 312.129 668.588, 312.560 669, 313.941 669 C 316.341 669, 316.606 667.748, 314.564 666.053 C 313.611 665.262, 312.518 665.174, 311.314 665.791 C 309.235 666.857, 301.768 666.184, 302.502 664.996 C 302.770 664.564, 302.204 663.908, 301.244 663.540 C 300.285 663.172, 299.500 662.977, 299.500 663.106 C 299.500 663.235, 297.700 662.236, 295.500 660.885 C 287.050 655.697, 283.699 654.897, 284.180 658.181 M 424.500 672.122 C 409.367 674.290, 400.420 674.967, 386.500 674.996 C 370.308 675.030, 367 675.475, 367 677.618 C 367 678.759, 369.510 678.905, 381.250 678.448 C 411.695 677.262, 429.364 675.036, 432.396 672.004 C 433.539 670.861, 433.273 670.865, 424.500 672.122" stroke="none" fill="#1b1f3a" fill-rule="evenodd"/>
</svg>