<svg xmlns="http://www.w3.org/2000/svg" viewBox="0 0 768 768" version="1.1" preserveAspectRatio="xMidYMid meet"><path d="M 404 41 L 404 82 328.8 82 C 287.4 82, 239 82.3, 221.3 82.7 L 189 83.3 189 89.9 C 189 93.5, 189.3 97.6, 189.7 98.9 L 190.3 101.2 362.9 101 C 457.8 100.8, 537 100.8, 538.8 100.9 L 542 101 542 130 L 542 159 402 159 C 259.6 159, 253 159.2, 253 162.6 C 253 163.3, 255.1 164, 258.3 164.3 C 267.2 165.1, 548 165.1, 548 164.3 C 548 163.8, 548.2 146.2, 548.3 125 C 548.5 103.8, 548.8 85.6, 549 84.5 C 549.5 82.5, 548.9 82.5, 479.8 82.2 L 410 82 410 41 L 410 0 407 0 L 404 0 404 41 M 299.2 87.8 L 193.9 88 194.2 91.7 L 194.5 95.3 253 95.3 C 285.2 95.3, 363.4 95.2, 426.8 95.1 L 542 95 542 91.5 L 542 88 473.3 87.8 C 435.4 87.6, 357.1 87.6, 299.2 87.8 M 345.5 111 C 266.3 111.5, 261.5 111.6, 261.2 113.3 C 260.9 114.9, 266.8 115, 385.7 114.8 C 454.3 114.6, 511 114.1, 511.7 113.7 C 512.4 113.3, 512.6 112.2, 512.3 111.4 C 511.8 110, 507.2 109.8, 470.6 110.2 C 448 110.3, 391.7 110.7, 345.5 111 M 628.5 227 C 576.7 236.5, 548.5 261.2, 553.8 292.3 C 555.1 300.3, 563 314.7, 569.6 321.3 C 575.4 327.1, 576.9 332.2, 577.7 349.2 L 578.2 359.9 573.8 365.7 C 563.9 378.7, 564 388.8, 574.3 405.9 C 585 423.7, 598.4 432.9, 614 433 C 619.4 433, 620 433.4, 622.2 438.2 C 623.9 441.9, 623.9 442, 621.8 443.1 C 617 445.7, 609.7 453.7, 607.3 459 C 601.5 472, 602.1 471.2, 599.2 470.5 C 582.8 466.7, 573.1 458.4, 564 440.7 C 561.6 436.1, 557.6 431.7, 554.8 430.8 C 554 430.5, 554.1 429.7, 555.3 428 C 558.6 423.2, 556.9 413.7, 552.2 411.4 C 551 410.8, 550.2 410.1, 550.5 409.8 C 550.8 409.5, 550.1 408.5, 549 407.5 C 547.9 406.5, 547 404.8, 547 403.6 C 547 399.6, 543.8 393, 541.6 392.4 C 538.4 391.6, 534.3 393.5, 533.5 396.1 C 532.8 398.1, 532.6 397.9, 531.4 394.4 C 530.7 392.3, 528.3 388.8, 526 386.7 C 520.8 381.8, 518.1 382, 516.1 387.5 C 514.2 392.7, 514.5 392.5, 511.8 390.6 C 508.7 388.4, 506 388.5, 506 390.9 C 506 392.5, 505.2 392.9, 502.3 393.2 C 498.7 393.5, 498.5 393.7, 498.6 397 C 498.6 398.9, 499 401.3, 499.4 402.3 C 500.1 403.7, 499.7 404, 497.7 404 C 493.4 404, 490.6 408.2, 493.1 410.7 C 493.9 411.5, 493.8 412.3, 492.9 413.8 C 491.1 416.7, 492.4 418.7, 496.5 419.4 C 500 420.1, 500.1 420.2, 498.5 422 C 493.6 427.4, 498.2 435.8, 506.4 436.7 L 511 437.3 507 441.4 C 504.8 443.6, 502.5 446.2, 501.8 447.1 C 500.9 448.2, 498.5 448.9, 494.7 449.2 C 485.2 449.9, 480 456.8, 480 468.4 C 480 471.9, 479.6 473, 478.4 473 C 477.5 473, 475.2 474.6, 473.3 476.5 C 469 480.8, 469.2 484.5, 474 494.2 C 478.5 503.2, 482.2 507.3, 490.7 512.6 C 497.8 517, 498.2 517.5, 496 518.1 C 491.5 519.4, 488.3 519, 485.9 517.1 C 484.5 516, 481.6 514.7, 479.3 514.1 C 475.4 513, 475.1 512.7, 474 507.8 C 473.1 504.4, 471.7 501.7, 469.8 499.9 C 467.3 497.7, 466.7 496.3, 466.3 491.1 C 466 487.8, 465.4 485, 465.1 485 C 463.2 485, 462 487.9, 462 492.2 C 462 496.9, 462 497, 458.8 497 L 455.6 497 457.8 494.8 L 460 492.6 456.8 489.3 L 453.6 486 456.1 485.8 C 457.4 485.8, 459.4 485.8, 460.5 485.9 C 462 486, 462.2 485.8, 461.3 484.9 C 460.6 484.2, 456 483.4, 451 483 C 446 482.5, 441.3 481.6, 440.5 481 C 439.3 480, 439 475.9, 439 457.4 C 439 435.2, 439 435.1, 441.4 432.7 C 443.6 430.5, 443.7 429.7, 443.5 420.9 L 443.3 411.5 440.1 411.2 C 436.6 410.8, 436.6 410.9, 438.1 404.3 C 439.5 398.5, 437.6 393.6, 433.5 392 C 431.7 391.3, 431.1 390.2, 430.8 387.3 C 430.5 382.9, 428.2 382.6, 424.3 386.3 L 422 388.3 422 384.1 C 422 378.8, 419.6 373, 417.4 373 C 416.5 373, 413.8 375, 411.4 377.5 L 407.1 382.1 405.5 378.5 C 403.1 373.6, 400.4 373.8, 398.1 379.3 L 396.2 383.5 395 380.3 C 393 374.9, 389.6 374.8, 388.5 380.2 C 388 382.1, 385.6 385.6, 382.4 388.8 C 379.4 391.8, 377 394.7, 377 395.3 C 377 395.8, 375.9 397.5, 374.5 399.2 C 371.8 402.4, 371.4 405.3, 373 409.4 C 373.7 411.5, 373.5 412.7, 372 415.3 C 369.3 419.6, 369.5 422.6, 372.5 424.6 C 373.9 425.5, 375 427, 375 427.9 C 375 428.9, 376 430.7, 377.3 432 C 379.5 434.5, 380.7 442, 380.9 455.6 L 381 460.7 375.3 461.4 C 372.2 461.8, 369.2 462.4, 368.6 462.9 C 368 463.4, 365.2 464.2, 362.5 464.8 C 359.7 465.4, 356.8 466.1, 355.9 466.5 C 355 466.8, 353.2 466, 351.5 464.6 C 345.3 459.2, 340.1 461.3, 335.4 470.9 L 332.3 477.2 326.7 477.4 L 321.1 477.5 321.7 471.9 C 322.5 464.1, 320 455.9, 315.8 452.6 C 312.6 450.1, 312.5 450, 312.9 443 C 313.3 434.1, 310.7 429.5, 302.6 425 C 298.8 422.8, 297 421.1, 296.5 419.2 C 293.7 407.7, 276.4 403.8, 266.3 412.4 C 264.4 414, 263.7 414.1, 261.1 413 C 255.4 410.7, 242.4 418.9, 238.5 427.3 C 235.6 433.6, 233.5 435.6, 227.8 437 C 221.1 438.7, 215.2 442, 212.5 445.6 C 210.2 448.6, 203 462.9, 203 464.4 C 203 464.7, 201.9 467.3, 200.6 470 C 198.7 473.8, 198.5 475, 199.6 475 C 200.4 475, 201 475.8, 201 476.8 C 201 477.8, 201.5 479.1, 202.2 479.8 C 203.8 481.4, 203.2 481.8, 198.1 482.6 C 193.8 483.3, 193.7 483.3, 194.2 480.7 C 194.9 477.2, 194.9 477.2, 185.2 483 C 175.4 488.9, 176 488.8, 176 485 C 176 478.7, 167.3 451.2, 163.3 444.7 C 160.8 440.7, 152.9 435, 149.8 435 C 148.6 435, 148 434.3, 148 432.8 C 148 428.8, 149.2 428, 153.5 429 C 171.7 433.3, 194 424.3, 206.5 407.8 C 219 391.3, 221.4 377.4, 214.6 360.3 C 211.1 351.7, 211.1 351.7, 213.1 349.2 C 215.6 346, 215.5 343.8, 213 342.2 C 209.9 340.3, 211 320, 214.7 312.1 C 226.2 286.8, 213.8 263.9, 187.6 262.3 C 182.2 261.9, 178.4 261.1, 176.1 259.9 C 172.9 258, 170 257.4, 153 254.9 C 138.9 252.8, 110.9 255.1, 101.5 259 C 100.4 259.5, 98.4 260.2, 97 260.6 C 90.1 262.5, 74.5 271.1, 65.9 277.7 C 59.6 282.6, 58.9 282.8, 54.9 279.9 C 53.1 278.7, 52.1 278.3, 52.2 279.1 C 52.4 279.9, 50.9 280.6, 48.4 281.1 C 34.3 283.6, 23.3 295.4, 19.5 311.7 C 16.7 323.9, 18.6 354.9, 23.1 367.6 C 24.2 370.9, 25.4 374.3, 25.7 375.2 C 26 376.1, 25.3 378.2, 24.2 379.7 C 11.6 397.6, 7.5 422.9, 12.4 452.3 C 14.4 464.1, 16.8 479.4, 18 488 C 19.1 496.1, 21.1 509.2, 23.5 524.8 C 24.4 530.1, 25.5 537.7, 26 541.5 C 26.6 545.4, 27.4 550.8, 28 553.5 C 28.5 556.3, 29.6 562.1, 30.4 566.5 C 35.1 592.1, 36.2 597.9, 37 601.5 C 37.5 603.7, 38.9 609.6, 40 614.5 C 41.1 619.5, 42.5 624.4, 42.9 625.5 C 43.4 626.6, 44.8 629.7, 46 632.3 L 48.2 637.1 45.5 641.3 C 43.9 643.6, 40.1 648.9, 37 653 C 17.7 678.6, 13.8 684.6, 14.2 687.7 L 14.5 690.5 156.5 691 C 306.6 691.6, 726.3 690.4, 748.7 689.4 C 766.2 688.6, 766.4 688.1, 755.4 673.5 C 752.5 669.7, 745.7 661.1, 740.2 654.5 L 730.2 642.5 733.1 640.8 C 736 639, 736.4 637.8, 737.4 627 C 738 621.2, 739.9 607.7, 742.5 592 C 745.2 576, 747 561.9, 747.7 553.4 L 748.3 545.3 745.1 543.9 C 741.5 542.3, 741.5 542.3, 743.5 532.7 C 745.5 522.8, 747.4 511, 751.4 485 C 752.2 479.8, 753.6 471, 754.5 465.5 C 756.3 454.1, 758.6 439.7, 760.1 429.5 C 760.7 425.7, 761 419.6, 760.8 416 C 759.7 400.4, 746.5 384.5, 730.6 379.5 C 724.2 377.5, 724.1 377.4, 727.7 371.7 C 737.6 356.1, 742.7 335.9, 741.7 317.1 C 741.2 308.9, 741.4 305.5, 742.7 301.6 C 745.9 291.8, 741.7 279.4, 733.7 275.4 C 731.9 274.5, 730.4 273.6, 730.2 273.5 C 730.1 273.4, 730.7 271.6, 731.5 269.5 C 736.1 258.6, 718.7 244.4, 706.6 249 C 704.3 249.8, 704 249.7, 704 247.7 C 704 242.2, 696 234.7, 685.9 230.8 C 674.2 226.3, 643.3 224.2, 628.5 227 M 631.5 232.6 C 619.2 234.4, 600.2 240.3, 588.1 246.2 C 567.6 256.1, 555.5 276.7, 559.8 294.5 C 560.8 298.3, 560.8 298.2, 560.9 291.4 C 561.1 280.4, 564 275.4, 576 266 C 582.5 260.9, 595.3 254.8, 598.3 255.2 C 599.9 255.4, 597.3 257.1, 589.6 260.9 C 576.7 267.4, 566.6 276.3, 565.4 282.5 C 564.1 289.5, 565.4 305.2, 567.7 308.8 L 569.7 312 570.8 309.6 C 571.4 308.3, 572.2 305.6, 572.6 303.6 C 572.9 301.6, 573.7 299.6, 574.4 299.2 C 575 298.8, 576.8 295.8, 578.5 292.6 C 585.3 278.9, 593.8 271.1, 615.7 258.3 C 625.7 252.4, 625.8 254.5, 615.8 261.5 C 603.4 270.3, 599 277.5, 599 289.2 C 599 300.8, 602.8 312, 608.7 317.8 C 611.6 320.7, 611.7 319.8, 608.8 315.9 C 606 312.2, 605.1 298.6, 607 291.2 C 608.5 285.5, 612 278, 613.2 278 C 614.4 278, 614.2 278.9, 612 285.3 C 608.5 295.1, 609.6 313.8, 613.8 316.4 C 614.5 316.8, 614.6 316, 613.9 313.8 C 612.8 309.9, 612.8 303.3, 613.9 300.5 C 614.4 299.2, 614.9 300.9, 615.3 305.7 C 615.8 312.4, 617.8 318.1, 619.9 319.4 C 620.4 319.8, 620.2 317.6, 619.4 314.8 C 617.6 307.8, 617.6 295.1, 619.5 292.6 C 621.4 290, 621.7 291.2, 622.3 303 C 622.8 314.2, 625.9 322, 631.2 325.7 C 635.2 328.5, 635.3 328.4, 633.4 323 C 629.7 312.5, 633.8 294.1, 641.4 287.1 C 644.8 283.9, 644.7 284.8, 641 291.3 C 635.2 301.6, 633.7 311.2, 636.3 320.8 L 637.5 325.5 638.1 315 C 638.7 304.1, 641.1 296.6, 646 291 C 648.6 288.1, 648.5 289.6, 645.9 296.2 C 643.6 302.1, 642.3 316.1, 643.4 323.4 C 644.6 331.4, 654.6 338.6, 657.7 333.8 C 658.2 333, 658.7 336.4, 659.1 341.5 L 659.6 350.5 659.8 339.8 C 659.9 333.2, 660.4 328.9, 661.1 328.4 C 663.2 327.2, 664 330.5, 664 340.5 C 664 351.1, 665.5 359.1, 668.4 363.4 L 670.1 366 673.8 362.4 C 680.7 355.6, 689.7 353.7, 696.7 357.3 C 703.5 360.9, 708.3 373.7, 706.3 382.6 C 705 388.1, 705.6 388.1, 710.5 382.4 C 730.3 359.4, 738.5 332.7, 734 306 C 733.3 301.9, 732.4 296.2, 732.1 293.3 C 731.7 290.4, 731.2 287.9, 731 287.7 C 728.4 285.8, 724.9 284.1, 722.2 283.5 L 718.9 282.8 722.4 286.3 C 730.1 294, 732.7 307.8, 729.2 322.5 C 728.6 325.3, 727.4 332.2, 726.6 338 L 725.1 348.5 725.6 336.4 C 725.8 329.8, 726.5 322.8, 727 320.9 C 729.6 312.1, 727.2 297.8, 722.4 292 C 718.9 287.9, 718.5 288.7, 720 296.4 C 722 306.4, 717.4 329.8, 712.9 332.6 C 711.4 333.5, 710.6 332.3, 711.7 330.8 C 715.8 325.4, 718.5 306.4, 716.9 294.3 C 716.5 290.5, 716.1 286.8, 716 286 C 716 285.2, 714.8 286, 713.1 288 C 711.5 289.9, 709.9 291.2, 709.4 290.8 C 709 290.3, 709.5 289.1, 710.5 288 C 712.7 285.6, 712.5 285.6, 707 287.5 C 699.6 290.1, 698.6 288.6, 705 284.5 C 709.9 281.4, 710.3 279.6, 705.8 280.6 C 702.1 281.4, 692 287.5, 692 288.9 C 692 289.4, 689.1 292.1, 685.5 294.9 C 681.8 297.8, 679 299.4, 679 298.7 C 679 297.3, 690.5 285.9, 697 280.8 L 700.5 278 695.2 278 C 691.2 278, 688 278.9, 682.4 281.4 C 676.4 284.2, 675.2 284.5, 676 283 C 678.7 278, 695.5 272.9, 698.7 276.1 C 699.4 276.8, 701.2 277, 703.5 276.6 C 707.1 275.9, 707.2 275.8, 705.4 273.8 C 701.4 269.5, 710.3 267.4, 719.7 270.6 C 725.4 272.6, 727.5 270.9, 726.6 265.1 C 724.9 254, 709.4 250.2, 704.2 259.6 C 702.8 262.2, 701.4 260.6, 699.4 254 C 697.1 246.2, 693.4 241.8, 685.8 238.1 C 679.1 234.7, 674.6 233.8, 679.5 236.9 C 683.7 239.4, 691 247.9, 691 250.1 C 691 252.9, 690.3 252.5, 684.9 246.6 C 680.2 241.4, 676.4 239.2, 664.5 234.8 C 659.5 232.9, 638.8 231.6, 631.5 232.6 M 627.3 235.5 C 621.1 236.9, 615 239.7, 615 241.2 C 615 242.5, 617.5 242.1, 622.7 240.3 C 628.9 238.1, 652.8 237.8, 657.7 239.8 C 661.8 241.6, 664.2 240.3, 660.4 238.4 C 652.6 234.3, 638.5 233.1, 627.3 235.5 M 116 262.5 C 97.5 266.2, 94.6 268.1, 83.9 283.5 C 68.4 306.1, 62.8 346, 72.6 364.7 C 73.3 366.3, 74 368, 74 368.5 C 74 369.1, 74.9 370.6, 76 372 L 78 374.5 78 370.5 C 78 366.2, 80.8 359.3, 83.2 357.2 C 84.3 356.3, 84.6 354.7, 84.2 351.1 C 83.5 343.9, 87.2 323.8, 91 314.5 C 98.1 296.8, 108.5 280.4, 119.6 269.3 C 128.8 260, 128.8 260, 116 262.5 M 131 263.1 C 118.7 270.6, 99.3 298.9, 93 318.5 C 91.8 322.4, 90.4 326.9, 89.8 328.5 C 89.3 330.2, 88.6 336.2, 88.3 342 L 87.9 352.5 90.8 346.5 C 92.4 343.2, 96.2 337.1, 99.2 333 C 102.1 328.9, 107.4 321.2, 111 316 C 122.3 299.3, 139.5 276.7, 146.7 269.2 C 150.5 265.2, 153.4 261.7, 153.1 261.5 C 151.5 259.8, 134.3 261.2, 131 263.1 M 155.4 265.8 C 146.5 272.3, 135.1 287, 109.5 324.5 C 95.9 344.4, 95.4 345.2, 93.5 349.3 C 92.5 351.4, 92 353.4, 92.4 353.7 C 93.6 354.9, 109.3 337.8, 116.3 327.9 C 149.4 280.6, 158.1 269.9, 166.4 266.5 C 171.1 264.5, 169.8 263, 163.4 263 C 160.5 263, 158.2 263.8, 155.4 265.8 M 671 266.6 C 663.8 267.5, 650.4 270.3, 648.1 271.5 C 644.8 273.2, 647.1 274.4, 651.3 273.1 C 656.3 271.6, 668.6 269.7, 678 269.1 C 682.7 268.8, 686 268.2, 685.4 267.8 C 684 266.9, 675.2 266.1, 671 266.6 M 176.6 271 C 171.2 273.1, 167 276.6, 167 278.8 C 167 279.7, 166.4 281.1, 165.6 281.9 C 164.9 282.8, 163.1 286.4, 161.7 290 C 159.2 296.3, 156.7 301, 151.4 309.5 C 148.9 313.5, 148.9 313.5, 153.4 308.6 C 157.9 303.7, 163.7 293, 166 285.3 C 166.7 282.9, 167.6 281, 167.9 281 C 170.5 281.1, 182.5 284.2, 185.2 285.5 C 188.1 286.9, 187.8 286.4, 183.1 282 C 180.1 279.3, 178.3 277, 179.1 277 C 181.6 277, 189.2 282.4, 193.8 287.3 C 198.4 292.4, 199.2 291.7, 195.9 285.5 C 193.3 280.5, 189.2 276.1, 186.3 274.9 C 183.5 273.8, 183.2 271.6, 186 272.5 C 192.5 274.6, 206 285.8, 206 289.1 C 206 289.6, 206.4 290, 206.9 290 C 208.3 290, 206.3 284.7, 202.9 279.8 C 201.4 277.4, 200.5 275.3, 201.1 275.1 C 202.6 274.6, 207.8 279.8, 210 284 C 211.1 285.9, 211.9 286.8, 211.9 286 C 211.9 282, 206.3 275.6, 199.9 272.3 C 192.8 268.7, 183.6 268.2, 176.6 271 M 595.7 274.6 C 585.2 282.8, 576.4 298.8, 578.9 305.3 C 580.2 308.6, 582 308.8, 582 305.6 C 582 299.8, 591.1 282.5, 596.5 278 C 598.9 276, 602.3 271, 601.2 271 C 600.7 271, 598.3 272.6, 595.7 274.6 M 78.8 277.2 C 64.2 285.8, 62.2 288.7, 55.3 311.5 C 50.9 326, 51.8 341.8, 58 357.5 C 60.8 364.6, 80 390.2, 80 386.8 C 80 386.5, 77.7 381.8, 75 376.3 C 67 360.7, 65.5 355, 65.6 338.5 C 65.6 325.4, 67.1 314.6, 70 307.5 C 70.4 306.4, 71.6 303.3, 72.5 300.5 C 75.1 293.2, 80.6 282.3, 83.8 278.2 C 89.7 270.7, 89.8 270.7, 78.8 277.2 M 169.3 290.3 C 169 299.1, 162 310.2, 150.5 320.6 C 146.2 324.4, 139.8 330.2, 136.1 333.6 C 132.5 336.9, 127.6 341.1, 125.2 342.9 C 121.9 345.5, 121.2 346.5, 122.1 347.6 C 122.9 348.6, 122.6 350.2, 120.6 354.4 C 119.2 357.4, 118 361.2, 118 362.7 C 118 369.4, 116 369.9, 107.4 365.6 C 96.2 359.9, 91.1 359.6, 86.5 364.4 C 76.5 375, 87.7 395.5, 102.9 394.8 C 108.3 394.5, 108.4 394.5, 109.4 397.8 C 111 403.3, 128 415.3, 140.5 419.7 C 147.8 422.2, 149.7 422.5, 162.5 422.5 C 176.5 422.5, 176.5 422.5, 183.4 419 C 206.8 407.2, 218.6 379.6, 208.6 360.1 C 205.9 354.8, 205.2 354.1, 204.8 355.8 C 204 358.7, 201.4 358.6, 199.4 355.5 C 197.7 352.9, 197.8 348.1, 199.6 338.1 C 200.1 335.5, 200 334.8, 198.9 335.2 C 196.8 335.9, 193.8 345, 194.2 349.3 C 194.4 351.8, 194.1 353, 193.3 353 C 190.2 353, 193.2 336.1, 197.1 331.4 C 197.7 330.6, 199.5 330, 201.1 330 C 207 330, 207.2 322.2, 201.4 319.9 C 198.3 318.8, 198.5 315.6, 201.8 315.2 C 204.4 314.8, 204.5 314.1, 202.5 309.4 C 200.8 305.2, 190.7 294.4, 186.6 292.3 C 184.4 291.2, 170.4 286, 169.6 286 C 169.5 286, 169.4 287.9, 169.3 290.3 M 44.4 288.7 C 26.8 294.8, 20.1 315.8, 24.9 349.5 C 28 370.4, 29 373.6, 32.5 373.2 C 36.5 372.7, 36.5 372.7, 34.3 367.3 C 30.3 357.9, 28.7 349.1, 28.7 336 C 28.6 314.6, 33.5 304.6, 50.7 290.8 C 55.6 286.8, 52.6 285.8, 44.4 288.7 M 593 293.1 C 590.9 297, 587 313.2, 587 317.6 C 587 318.8, 587.7 320.3, 588.5 321 C 592.5 324.3, 588.6 326, 582.8 323.5 C 581.2 322.9, 581 323.5, 581 329.4 L 581 336 584.8 335.4 C 592.5 334.2, 598 343.3, 598 357.1 C 598 366.5, 595.8 371.2, 590.1 374.4 L 585.4 376.9 586 382.4 C 586.7 388.7, 587.9 390.4, 593.4 393.1 C 598 395.3, 608.5 395.7, 613.7 393.8 C 617.5 392.4, 617.8 391.5, 615 390 C 612.5 388.7, 612.4 387, 614.8 387 C 617.1 387.1, 619.7 389.1, 621.4 392.5 C 623.6 396.8, 621.3 400.1, 618.6 396.5 C 617.6 395.2, 616.4 395.4, 609 398.2 C 604.3 400, 600.4 401.8, 600.2 402.2 C 600 402.6, 598.3 403.4, 596.4 404 C 592.1 405.5, 591.8 408, 596.1 408 C 598.5 408, 599.1 408.4, 598.8 409.8 C 598.6 411, 597.5 411.5, 595.5 411.5 C 592.9 411.5, 592.2 410.8, 590.3 407 C 587.3 401, 587.3 401.1, 593.3 400.8 C 599.5 400.4, 599.7 399.4, 594 396.4 C 586.3 392.3, 584 389.5, 584 384.6 C 584 381, 583.5 379.8, 581.4 378.1 L 578.8 376.1 585.3 373.1 C 595.2 368.7, 597.4 363.4, 594.5 351.9 C 592.7 345.1, 589.8 341, 586.8 341 C 584.5 341, 584.5 342.5, 586.9 345.8 C 589.3 349.3, 590 354.2, 588.9 360.9 C 587.8 367.9, 586.5 369.3, 583.9 366.1 C 581.6 363.3, 581.8 363.2, 575.8 372.5 C 570.1 381.1, 571.9 391.8, 581 404.8 C 586.4 412.5, 595.4 422, 597.3 422 C 598 422, 599.9 422.8, 601.5 423.7 C 606 426.3, 635.9 426.3, 644.5 423.7 C 661.8 418.4, 667.5 415.6, 675.7 408.6 C 682.4 402.8, 682.4 402.9, 675.8 399.6 C 668.8 396.1, 669.7 387.4, 676.9 388.6 C 679.7 389, 681.5 388.7, 683.4 387.5 C 687 385.1, 687.8 386.3, 684.7 389.4 C 682.7 391.3, 681.1 392, 678 392 C 673 392, 672.6 394.2, 677.3 396.6 C 688.7 402.6, 701.1 393.1, 701.3 378.3 C 701.4 364.4, 692.3 357.4, 681.5 363.1 C 678 364.9, 676.4 366.3, 671.8 371.9 C 669.4 374.8, 658.9 360.2, 655.5 349.1 C 653.6 343, 653.1 342.3, 649 340.3 C 643.9 337.8, 641.3 337.5, 640.8 339.2 C 640.5 339.9, 638.4 338.5, 635.8 335.7 C 632.8 332.7, 630.3 331, 628.8 331 L 626.5 331.1 628.7 332.3 C 631.4 333.8, 635.4 338.9, 634.6 339.7 C 634.3 340.1, 632.9 339.8, 631.5 339.2 C 630.2 338.6, 626.9 337.8, 624.2 337.4 C 617.3 336.5, 616.3 335.8, 617.8 332.6 C 618.7 330.6, 619.7 330, 622.2 329.9 C 625.4 329.8, 625.3 329.8, 621 328.6 C 604.7 324, 595.5 312.2, 595.5 295.8 C 595.5 292, 595.4 289, 595.3 289 C 595.1 289, 594.1 290.8, 593 293.1 M 56 295.8 C 38.2 317.1, 40.9 358.3, 61.4 379.5 C 63.6 381.8, 62.6 379.8, 59.4 375.5 C 56.2 371.2, 50 358.9, 50 356.8 C 50 355.9, 49.5 353.9, 48.8 352.5 C 47.9 350.6, 47.9 349.7, 48.8 348.8 C 49.7 347.9, 50 348.1, 50 349.8 C 50 351, 50.4 352.8, 50.9 353.8 C 51.4 354.7, 53.3 358.8, 55.1 362.9 C 59.6 372.6, 69.9 386.7, 75.1 390.2 C 81.3 394.3, 82.9 393.6, 77.3 389.2 C 67.6 381.4, 58.4 367.4, 52.5 351 C 50.4 345.4, 49.4 325.4, 50.8 318.5 C 53.4 306.1, 57.7 294.6, 60.4 292.8 C 61.2 292.3, 61.1 292, 60.3 292 C 59.7 292, 57.7 293.7, 56 295.8 M 39.4 309.3 C 32.4 317.3, 30.1 333.2, 33.5 350.6 C 36.3 364.6, 37.9 368.7, 42.2 372.8 C 44.3 374.8, 47 378, 48.1 379.8 C 49.3 381.5, 50.6 383, 51.2 383 C 51.7 383, 51.3 381.8, 50.2 380.3 C 49.1 378.7, 47.2 375, 46 372 C 44.7 369, 43.3 366.1, 42.9 365.5 C 41.5 363.5, 38.1 349.2, 37 340.5 C 36 331.9, 37.4 317.5, 39.5 313.9 C 40.3 312.8, 42 307, 41.6 307 C 41.5 307, 40.5 308, 39.4 309.3 M 157 322.7 C 152.2 324.7, 147 329.9, 147 332.7 C 147 335.7, 149.1 335.6, 152.1 332.4 C 155 329.3, 161.1 326, 164 326 C 166.5 326, 167.8 323.1, 165.9 321.9 C 163.9 320.7, 161.1 320.9, 157 322.7 M 160.7 338.8 C 155.3 344.4, 153.2 356.3, 156.5 362 C 157.3 363.4, 158.3 365.3, 158.6 366.3 C 159.2 367.9, 160 368.1, 165.9 367.5 C 176.6 366.4, 177.4 365.5, 176.5 355.3 C 176.1 350.6, 175.4 345.4, 174.9 343.7 C 172.7 336.1, 165.7 333.6, 160.7 338.8 M 165.4 342.8 C 162.9 344.4, 160.8 350.6, 160.3 357.6 L 159.7 365 166.4 365 C 172.7 365, 173 364.9, 172 363.1 C 171.5 362, 171 357.7, 171 353.5 C 171 343.6, 169.2 340.2, 165.4 342.8 M 616.4 346.5 C 614.5 349.4, 614.9 362.1, 617 369.3 C 619.9 379, 631.9 367.9, 632 355.4 C 632 346.8, 620.5 340.2, 616.4 346.5 M 721.3 348.3 C 720.7 348.9, 720 351.1, 719.6 353 C 718.8 357.4, 717.5 360.6, 712.7 370 L 708.8 377.5 711.8 374.6 C 715.5 371.2, 720.7 361.7, 721.8 356.4 C 722.3 354.2, 723.1 352.6, 723.7 352.7 C 724.8 352.9, 724.2 348.2, 723 347.5 C 722.6 347.2, 721.8 347.6, 721.3 348.3 M 192 362.9 C 192 364, 197.8 369, 199 369 C 200.2 369, 201 371.8, 200.3 373.5 C 200 374.4, 197.8 375.6, 195.4 376.2 C 189.2 377.9, 189.5 380.2, 195.8 379.6 C 198.4 379.3, 200.8 379.1, 201.2 379.1 C 203 378.9, 204.1 372, 202.8 369.4 C 201.1 365.8, 192 360.4, 192 362.9 M 90.4 365.8 C 87.4 367.8, 85.7 377.1, 88 378.5 C 88.6 378.9, 89 378, 89 376.5 C 89 370.5, 94.4 366.5, 99.1 369 C 101.6 370.4, 101.5 372.1, 98.9 374.4 C 96.7 376.2, 96.7 376.2, 97.3 373 C 97.8 370.8, 97.6 370, 96.8 370.2 C 92.8 371.6, 94 386.3, 98.2 387.3 C 101.4 388.2, 102.4 387, 100.1 385.3 C 95.4 382.1, 98.3 374.5, 104.5 373.8 L 107.5 373.5 103.4 369.2 C 99.2 365, 93.7 363.5, 90.4 365.8 M 680.4 369.4 C 676.2 373.6, 675.5 379.6, 678.7 383.3 C 681.3 386.1, 682.2 385.3, 681.5 380.6 C 681.1 378, 681.2 376, 681.8 375.6 C 683.1 374.8, 687 379.7, 687 382.1 C 687 383.2, 687.5 384, 688 384 C 688.6 384, 689 382.4, 689 380.5 C 689 376.8, 686.2 373, 683.5 373 C 682.7 373, 682 372.6, 682 372.1 C 682 370.7, 687.6 369.7, 691 370.5 C 694.9 371.4, 694.8 370.5, 690.8 368 C 686.2 365.2, 684.3 365.5, 680.4 369.4 M 32.2 383 C 27.5 384.9, 26.7 389.7, 28.5 404.9 C 30.3 420.3, 32.2 434.2, 34.5 448 C 35.3 453.2, 36.7 461.8, 37.5 467 C 38.3 472.2, 39.6 480.6, 40.5 485.5 C 41.3 490.5, 42.6 499, 43.4 504.5 C 46.4 524.5, 49.9 542.8, 51.8 548 C 52.9 551.1, 55.3 534.1, 55.4 522.5 C 55.5 511.2, 48.8 447.5, 44.5 418.5 C 43.7 413, 42.6 403.1, 41.9 396.5 C 40.5 382.1, 39.2 380.3, 32.2 383 M 163.6 386.3 C 159.6 390.2, 159.1 392, 161.8 392.7 C 162.8 392.9, 164.2 394.7, 164.9 396.6 C 170.8 413, 193.8 414.4, 196.6 398.5 C 196.9 396.3, 197.9 393.6, 198.6 392.5 C 201.7 388.2, 200.3 386.6, 196.3 389.8 C 189.4 395.1, 181.6 396.4, 174.4 393.4 C 168.5 391, 166.9 389.2, 168.3 386.9 C 169.2 385.5, 169.2 384.8, 168.3 383.9 C 167.4 383, 166.3 383.5, 163.6 386.3 M 390.3 387.9 C 390.6 390.6, 391.8 394.8, 392.9 397.2 C 395.3 402.6, 396.7 409.6, 395.2 408.6 C 394.6 408.2, 391.7 404.3, 388.8 399.8 C 383.7 391.9, 383.5 391.7, 383.2 394.7 C 383 396.5, 383.6 399.2, 384.4 400.9 C 385.3 402.5, 386 405.8, 386 408.1 L 386 412.3 382.7 408.5 C 378.8 404, 377 404.1, 378.2 408.8 C 379.5 413.5, 381.4 413.9, 403.7 413.7 L 423.5 413.5 423.2 411.1 C 422.9 408.3, 417.1 401.4, 415.4 401.8 C 414.7 401.9, 414.4 401.3, 414.7 400.2 C 415.2 398, 410.6 392, 408.3 392 C 407 392, 406.9 393.1, 407.5 398.8 L 408.2 405.5 405.8 403.2 C 404 401.4, 403.5 399.8, 403.4 395.2 C 403.2 389.5, 401.5 383.2, 400.3 384.3 C 400 384.6, 399.7 387.1, 399.5 389.7 C 399.3 393.8, 399 394.5, 397.4 394.2 C 394.3 393.6, 393.1 392.1, 392.4 387.4 C 391.5 381.2, 389.6 381.7, 390.3 387.9 M 721.8 394.2 C 719.8 406.8, 718.3 413.9, 717.1 416.5 C 716.5 417.6, 715.9 419.4, 715.6 420.5 C 715.3 421.6, 715.4 420, 715.7 417 C 716 414, 716.9 409.1, 717.6 406.1 C 718.4 403.1, 719.3 397.3, 719.6 393.1 L 720.2 385.5 718.2 387.5 C 716.1 389.5, 713.8 406.1, 713.8 419.5 C 713.8 422.3, 713.1 428.6, 712.3 433.5 C 710.5 444.9, 708.5 460.4, 706.4 479.1 L 704.9 493.7 708.8 503.1 C 711 508.3, 713 513.4, 713.4 514.4 C 714.8 518.5, 716 513.2, 719.5 486 C 721.1 474.2, 722.7 463.8, 725.5 447 C 727.2 436.4, 729.6 420.4, 731 409 C 732.2 399.2, 734.2 390, 735.1 390 C 736.9 390, 737 392.3, 735.6 399.2 C 734.8 403.2, 733.6 410.1, 733 414.5 C 730.6 431.4, 729.1 441.8, 727.5 451 C 725.6 462.6, 723.5 476.7, 721.5 492 C 720.7 498.3, 719.4 508, 718.6 513.5 L 717.3 523.5 720.1 532.3 C 724.9 547.2, 724.1 548.6, 728.5 516.5 C 730.4 502.3, 732.8 486.1, 734.5 474.5 C 735.4 469, 736.7 460, 737.5 454.5 C 738.9 444.7, 740.8 433, 743 420 C 743.6 416.4, 743.9 412, 743.5 410.3 C 742.8 406.3, 744.5 405.9, 746.2 409.5 C 747.4 412.1, 746.7 417.9, 742.5 444.5 C 741.7 449.5, 740.3 458.2, 739.5 464 C 738.7 469.8, 737.3 479.2, 736.5 485 C 734.6 497.4, 732.3 513.4, 731 524.3 C 730.4 528.7, 729.5 534.1, 729 536.3 C 727.5 542.8, 727.9 552, 729.9 557.9 L 731.7 563.3 732.8 557.4 C 734 551.6, 734.8 547.1, 737.5 529.5 C 738.3 524.6, 739.6 516.2, 740.5 511 C 741.4 505.8, 742.7 497.2, 743.5 492 C 745 482, 746.8 470.8, 749.5 455 C 755.7 418.1, 755.6 414.1, 749 403 C 744.6 395.5, 742.7 393.6, 734.5 388.7 C 723.7 382.2, 723.7 382.2, 721.8 394.2 M 44.4 391.6 C 44.8 394.9, 45.8 402.9, 46.5 409.5 C 47.3 416.1, 48.6 426.2, 49.5 432 C 50.3 437.8, 51.7 448.4, 52.5 455.5 C 53.9 467.9, 56.2 486.4, 57.9 499.5 L 58.7 505.5 59.4 501.5 C 59.8 499.3, 60.8 493.9, 61.6 489.5 C 62.4 485.1, 63.5 479.2, 64.2 476.3 C 65.4 470.6, 64.9 459.5, 62.6 442.5 C 60.8 429.7, 59.7 419.9, 57.9 403.9 L 56.7 392.3 51.1 389.4 C 48 387.8, 45.1 386.4, 44.6 386.1 C 44.1 385.9, 44 388.2, 44.4 391.6 M 423.9 391.2 C 423.1 391.9, 421.6 393.8, 420.6 395.3 C 418.9 398.1, 418.9 398.2, 422.9 403.4 C 425.2 406.3, 427 409.7, 427 410.9 C 427 415.6, 430.4 412.8, 431.9 406.9 C 434 398.8, 433 397.1, 428.5 400.6 C 423.8 404.2, 421.9 402.8, 424.4 397.5 C 426.6 393, 426.3 389.2, 423.9 391.2 M 60 394.8 C 60.1 399, 64 433.9, 66 448 C 68.4 464.1, 67.7 463.3, 71.5 454.7 C 73.3 450.5, 75 445.1, 75.3 442.8 C 76 438.1, 73.7 400.4, 72.8 399.4 C 72.4 399.1, 69.4 397.5, 66.1 396 C 60.8 393.5, 60 393.3, 60 394.8 M 169.4 397.8 C 173.7 405.9, 185.2 408.4, 190 402.3 C 193.3 398.1, 192.7 397.1, 187.8 398.2 C 182.5 399.4, 174.5 398.6, 171.4 396.5 C 168.1 394.4, 167.7 394.6, 169.4 397.8 M 21.7 401.2 C 19.5 406.8, 17 420.3, 17 426 C 17 440.7, 27 493.9, 36 527 C 43.8 556.1, 47.3 567, 48.5 566.7 C 50 566.2, 49.6 556.6, 47.8 548.5 C 44.9 535.8, 42.1 521.6, 41.5 516.5 C 41.2 513.8, 40.5 509.5, 40 507 C 38.8 501, 34.1 470.6, 30.6 446.5 C 29.7 440.5, 28.5 433, 28 430 C 27.5 427, 26.4 418.5, 25.5 411.1 C 24.7 403.7, 23.8 397.5, 23.6 397.3 C 23.4 397.1, 22.6 398.9, 21.7 401.2 M 697 402.1 C 686.7 407.6, 674.7 416, 677.2 416 C 679.9 416, 698.5 405, 705.3 399.3 C 709.5 395.9, 707.6 396.5, 697 402.1 M 706.7 403.6 C 701 410, 701 409.6, 695.4 459.5 C 694.9 463.6, 695.5 466.5, 698.3 474.9 C 702.3 486.8, 702.4 486.8, 704.5 468.5 C 707.7 441.1, 708 438.4, 709 433.5 C 709.9 428.7, 712.2 398.9, 711.7 398.4 C 711.6 398.2, 709.3 400.6, 706.7 403.6 M 77.4 413.3 C 77.9 420, 78.5 429, 78.9 433.3 L 79.5 441.1 84.4 436.1 L 89.3 431.1 88 417.6 L 86.6 404.1 82.5 402.6 C 80.3 401.7, 78 401, 77.6 401 C 77.1 401, 77 406.4, 77.4 413.3 M 109 412.6 C 109 421.7, 107.1 431.8, 104.8 434.7 C 103.3 436.6, 105.9 439.7, 113 444.4 C 128.2 454.4, 145.4 455.6, 149 446.9 C 150.3 443.7, 149.7 442, 147.2 442 C 146.2 442, 144.4 441.3, 143.1 440.4 C 140.7 438.7, 140.7 438, 142.8 429.7 C 143.7 426.4, 143.6 425.8, 142.2 425.4 C 135.5 423.5, 124.8 416.8, 118.1 410.3 C 114 406.3, 110.3 403, 109.8 403 C 109.4 403, 109 407.3, 109 412.6 M 90.5 413.8 C 91.5 428.5, 91.7 429.2, 94.3 427.6 C 95.5 426.9, 97.7 426, 99.1 425.6 C 101.6 425, 101.8 424.6, 102.5 416.4 C 103.3 406.4, 103.3 406.4, 95.7 405.7 L 89.9 405.1 90.5 413.8 M 691.6 415 C 688.4 417.1, 682.3 419.9, 678.2 421.2 C 669.9 423.8, 668.7 425.3, 669.2 432.4 C 669.5 436, 669.9 436.7, 673.2 438.2 C 675.3 439.2, 677.7 441.2, 678.7 442.7 C 679.6 444.3, 682 447.5, 684 450 C 686 452.5, 688.6 456.1, 689.8 458 C 692.7 462.8, 692.6 463.3, 695.4 434.5 C 696.3 426.3, 697.2 417.6, 697.6 415.3 C 698.4 410.1, 698.8 410.2, 691.6 415 M 271.3 415 C 267.7 417.2, 265.8 419.8, 263.9 425.3 C 261.7 431.7, 258.1 434.3, 252.6 433.5 C 246.2 432.5, 246.6 430.4, 253.2 430.5 C 259.4 430.5, 260.7 428.6, 255.8 426.5 L 252.5 425.1 256.8 425 C 260.7 425, 261.1 424.8, 260.8 422.9 C 260.2 418.7, 257.5 418.2, 251.5 421.4 C 245.3 424.6, 242.8 427.6, 241.1 433.5 C 239.8 438.2, 241 439.6, 246.9 440.6 C 248.9 440.9, 252.7 441.8, 255.4 442.6 C 261.5 444.3, 263.1 444.4, 262.8 442.8 C 262.6 442, 263.8 441.4, 265.5 441.2 C 272.8 440.5, 280.8 451.3, 275.9 455.3 C 272.6 458, 269.3 458.4, 266.4 456.5 C 265 455.6, 263.7 455, 263.5 455.2 C 263.4 455.4, 262.2 457.5, 261 460 C 259.8 462.5, 257.7 465.9, 256.4 467.7 C 255.1 469.4, 254 471.5, 254 472.4 C 254 474.7, 267.4 486.3, 274.3 489.8 C 280.6 493.1, 280.6 493.1, 290.1 492.2 C 298.8 491.4, 300 491, 304.8 487.5 C 308.6 484.8, 309.9 483.3, 309.5 482.1 C 309.2 481, 309.8 479.6, 311.1 478.4 C 315 474.9, 317.7 467, 315 467 C 314.5 467, 314 467.7, 314 468.5 C 314 474.4, 307.1 482.4, 298.6 486.6 C 290.9 490.4, 289.5 490.7, 290.4 488.5 C 290.8 487.2, 289.5 487, 282.2 486.9 C 277.4 486.9, 271.9 486.2, 270 485.5 C 265.5 483.8, 265.4 483.8, 278.8 483.4 C 292.6 483, 299.9 481.1, 303.3 477 C 306.8 472.9, 307.5 470.2, 305.7 468.2 C 303.8 465.9, 304.6 459, 306.8 459 C 307.6 459, 309.1 459.7, 310 460.5 C 311.6 461.9, 311.8 461.9, 312.3 460.6 C 313.1 458.7, 309.4 455, 306.8 455 C 304.6 455, 304.5 453.5, 306.5 448 C 309 440.9, 308.5 438.4, 303.5 433.2 L 299.1 428.5 299.1 436.2 C 299.2 443.6, 296.7 451, 294.2 451 C 293.8 451, 292.4 452.6, 291.1 454.5 C 288.9 457.8, 285 459.3, 285 456.9 C 285 456.3, 287.5 452.9, 290.5 449.4 C 296.1 442.7, 296.7 441.2, 295 438 C 294.4 436.9, 294.4 435.9, 294.9 435.6 C 295.9 435, 294.6 427, 293.1 424.1 C 292.5 423.1, 289.9 421.5, 287.3 420.5 C 278.8 417.4, 279.2 416.2, 288 418.5 C 290.3 419.1, 290.2 418.9, 287 416.1 C 282.8 412.3, 276.4 411.9, 271.3 415 M 429.5 416.6 C 423.3 418.3, 390 418.5, 383.4 416.9 C 378.5 415.6, 376 416.7, 376 420 C 376 422.5, 388.4 423.4, 415 422.8 C 435.7 422.4, 436.3 422.3, 437.4 417.8 C 438.1 414.5, 437.3 414.4, 429.5 416.6 M 659.6 422 C 656.9 423.6, 650.1 426.3, 644.4 428.2 C 633.3 431.7, 633.2 431.9, 635.5 437.3 C 637.5 442.1, 637.4 444.2, 634.9 449.5 C 632.3 455, 633 457.6, 637.8 459.6 C 645.3 462.8, 659.7 459.3, 669 451.9 C 674.9 447.3, 674.9 447, 670.7 444.9 C 664.3 441.8, 661 430.5, 664 422.4 C 665.4 418.8, 665.2 418.8, 659.6 422 M 381.5 427.9 C 381.2 428.1, 381.5 429.1, 382 430 C 385.3 436.2, 438 435, 438 428.8 C 438 427.6, 382.7 426.7, 381.5 427.9 M 385.5 446.2 C 386.4 461.1, 386.2 460.6, 391.7 461.4 C 402.4 462.8, 411.6 467, 417.6 473.1 C 422.1 477.7, 422.7 478, 427.6 478 C 432.1 478, 432.8 477.7, 433.4 475.8 C 434.2 472.8, 434.2 457.6, 433.4 446.4 L 432.7 437.5 411.6 437.5 C 400 437.5, 389.2 437.1, 387.7 436.7 L 384.9 435.9 385.5 446.2 M 550.4 438.4 L 547.4 440.6 551.2 443.3 C 556.6 447.1, 559.2 452.7, 556.5 454.6 C 555.5 455.4, 555.1 456, 555.6 456 C 557.9 456, 564.9 463.2, 565.6 466.3 C 567 473, 572 479.5, 584.1 490.8 C 599.6 505.2, 602.8 506.5, 608.9 501.4 C 613.1 497.9, 612.8 495.7, 607.2 486.4 L 602.4 478.5 592.4 474.5 C 575.5 467.6, 569.2 462.2, 562.4 448.4 C 558.7 440.8, 555.4 435.9, 554.2 436.1 C 553.8 436.1, 552.1 437.2, 550.4 438.4 M 89 439.7 C 86.3 441.6, 78.6 452.6, 76.5 457.5 C 72.1 468, 68.2 485.8, 64.5 513.5 C 63.2 523, 61.7 532.5, 58.4 552 C 55.6 568.6, 53 589.6, 53 595.5 C 53 601.3, 53.1 601.6, 56.3 603.3 C 69.6 610.3, 88.2 609.3, 106.8 600.4 C 119.3 594.4, 130.1 591, 136.6 591 C 139.6 591, 142 590.6, 142 590 C 142 589.5, 141.4 589, 140.6 589 C 139.9 589, 138.1 588.1, 136.7 587 C 133.3 584.3, 128.4 585.5, 113.5 592.6 C 96.5 600.7, 90.1 602.3, 77 601.8 C 70.1 601.6, 65.6 601, 64.8 600.2 C 63.9 599.3, 66 599, 75.1 599 C 88 599, 97.4 596.6, 112 589.4 C 120.9 585, 129.4 582, 132.7 582 C 136.3 582, 135.4 580.8, 129.1 576.9 C 122.1 572.5, 113 561.1, 105.9 547.6 C 101.6 539.5, 100.8 538.5, 98.3 538.5 C 94.3 538.5, 91.9 534.1, 86.1 516.6 C 79.9 497.5, 78.3 487.3, 79.9 477.9 C 81.1 471.5, 83.1 467.8, 84.4 469.8 C 84.7 470.3, 84.5 472.2, 84 474.1 C 81.9 481.5, 83.1 490.4, 88.4 506.5 C 89.7 510.4, 91.6 516.1, 92.5 519.3 C 94.5 525.8, 94.6 525.8, 103.2 522.9 C 110.4 520.6, 110.7 520.5, 121.5 515.5 C 125.9 513.4, 130.9 511.1, 132.7 510.4 L 135.9 509 132.1 500.8 C 128.2 492.5, 126.5 488.5, 123.9 482.1 C 123.1 480.2, 120.6 474.6, 118.2 469.7 C 115.8 464.7, 114.1 460.1, 114.4 459.4 C 114.7 458.7, 113.6 457.7, 112 457 C 110.4 456.3, 105 451.9, 100 447.1 C 91.7 439.1, 90.8 438.5, 89 439.7 M 224.8 443 C 218.9 444.8, 215.8 448.1, 210.9 458.4 C 205.1 470.5, 204.5 475.6, 208.5 479.6 C 211.3 482.4, 213.4 482.2, 218.1 478.9 C 219.6 477.9, 225.4 475.9, 231.1 474.4 C 236.8 473, 243.7 470.6, 246.4 469.2 C 251.9 466.2, 251 464.9, 245.3 467.7 C 242.7 468.9, 239.2 469.5, 234 469.5 C 225.3 469.5, 223.1 467.8, 230.5 466.9 C 239.1 465.8, 246.5 463.2, 252.9 458.9 C 260.6 453.8, 260.3 453, 252.2 457.1 C 245.5 460.4, 230.8 462.9, 225.6 461.6 C 221.4 460.6, 223.5 459.2, 230.5 458.5 C 237.1 457.8, 254.4 452.6, 257.4 450.4 C 260.2 448.4, 258.9 447.7, 255.4 449.4 C 251.1 451.5, 242.1 452.2, 236.6 451 C 231.2 449.8, 221 451.2, 217.6 453.6 C 214.8 455.5, 213.4 455.4, 215.1 453.3 C 218.7 449, 226.5 447, 239.8 446.9 L 252.5 446.8 245.5 444.5 C 238.4 442.1, 229.8 441.5, 224.8 443 M 154 447.8 C 154 451.8, 146.5 456.5, 138.9 457.5 C 133.6 458.1, 121.5 455.4, 118.3 452.8 C 117 451.8, 115 452.5, 115 454 C 115 455.7, 129.8 461, 134.5 461 C 144.7 461, 155 454.9, 155 448.9 C 155 447.3, 154.8 446, 154.5 446 C 154.2 446, 154 446.8, 154 447.8 M 623.4 449.9 C 617.9 453.3, 612.7 461, 607.4 473.6 C 606.2 476.5, 606.3 477, 609.7 482.1 C 611.7 485.1, 614.2 488.5, 615.2 489.7 C 616.3 490.9, 616.9 492.3, 616.6 492.8 C 616.3 493.3, 616.6 494.2, 617.3 494.8 C 618.2 495.6, 618.4 492.7, 618.2 481.2 C 618 466.5, 619.3 456.1, 621.6 455.3 C 622.3 455.1, 622.9 462.9, 623.4 480.7 C 623.7 494.9, 624.3 512.2, 624.7 519.3 L 625.3 532 632.2 534.1 C 640 536.4, 640.5 536.3, 641.4 531.7 C 641.8 529.8, 643.1 525.5, 644.5 522 C 646.6 516.5, 646.8 515.6, 645.5 514.3 C 643.6 512.5, 643.6 508.1, 645.4 503.3 C 646.2 501.2, 647.6 496.8, 648.5 493.5 C 651.9 481.3, 657.6 469.4, 661.4 466.8 C 662.1 466.3, 662.1 466, 661.5 466 C 660.9 466, 659.5 466.7, 658.4 467.5 C 643.4 477.9, 623.2 467.8, 626.9 451.8 C 627.9 447.5, 627.6 447.3, 623.4 449.9 M 158 450.8 C 158 458.8, 148.4 464.5, 135 464.5 C 128.1 464.5, 125.7 464, 122.2 462.2 C 116.6 459.3, 116.3 459.4, 119.5 463.1 C 121.8 465.9, 133 487.7, 133 489.5 C 133 490.5, 136.8 498.8, 141.1 507.2 C 145.3 515.3, 146 519.4, 143.4 520.8 C 142 521.6, 142 522.2, 144.1 527.1 C 147 534.2, 147.8 535.1, 149.9 534.1 C 150.8 533.7, 154.2 532.7, 157.4 532 L 163.3 530.6 162.8 498.8 C 162.4 474.1, 162.5 466.7, 163.5 465.3 C 164.6 463.8, 164.5 462.4, 162.8 457.5 C 160.4 450.5, 158 447.1, 158 450.8 M 675.5 453.1 C 672.4 456.3, 658 462.9, 651.5 464.1 C 644.3 465.4, 636.9 464.5, 633.5 461.8 C 629.8 458.9, 629.4 460.2, 633 463.6 C 639.6 469.9, 651.1 469.1, 668 461.2 C 671.6 459.5, 675.3 458.6, 678.6 458.6 L 683.7 458.6 681.1 454.8 C 678.1 450.5, 678.1 450.5, 675.5 453.1 M 670 464.8 C 664.2 467.9, 659.5 476.1, 655.5 490 C 653.6 496.8, 652.1 502.4, 652.3 502.5 C 655.5 505.1, 667.9 508.9, 676.9 510.1 C 686.8 511.4, 687.2 511.2, 689 502.1 C 690.4 495.1, 693 488, 694.1 488 C 695.4 488, 695.2 496.2, 693.6 504.3 C 692.8 508.3, 691.9 513.3, 691.5 515.4 C 690.6 520.7, 688.4 523.8, 685.2 524.2 C 683 524.4, 682.4 525.2, 681.8 528 C 679.9 538, 674 556.6, 669.6 566.3 C 666.3 573.9, 663.6 577.6, 658.9 581 L 655 583.8 662.1 585.4 C 681.7 589.8, 705.7 585.8, 722.4 575.3 C 726.1 572.9, 726.2 572.7, 725.6 568.4 C 725.3 566, 724.6 563.2, 724.1 562.3 C 723.5 561.3, 721.3 555.1, 719.1 548.5 C 715.1 536.2, 710.7 524, 709 520.5 C 708.5 519.4, 706.5 514.5, 704.5 509.5 C 702.5 504.6, 699.8 498.3, 698.6 495.5 C 697.3 492.8, 695.3 487.1, 694.1 483 C 691.7 474.8, 688.8 468.8, 685.7 465.3 C 683.1 462.4, 675.1 462.1, 670 464.8 M 378.5 466.5 C 378 466.7, 376.3 467.1, 374.8 467.4 C 373.3 467.7, 371.4 468.8, 370.5 469.7 C 369.4 470.8, 367 471.4, 363.4 471.4 C 360.5 471.5, 357.5 472.1, 356.8 472.8 C 355.7 473.9, 356.3 474, 360 473.5 C 365 472.8, 365.2 472.4, 357.8 478.1 C 356.3 479.2, 353.4 482.4, 351.4 485.1 C 347.8 489.7, 345 491.4, 345 488.8 C 345 488.2, 344.7 487.9, 344.4 488.3 C 344.1 488.6, 344.2 489.5, 344.6 490.2 C 345.1 490.9, 345.5 491.8, 345.5 492.1 C 345.5 492.5, 347.9 494.9, 350.8 497.5 L 356 502.2 356 497.5 C 356 484.2, 372.9 468, 386.8 468 C 390.1 468, 391.9 467.6, 391.5 467 C 390.9 466.1, 380.9 465.7, 378.5 466.5 M 297.4 471 C 291.5 477, 274.5 479.2, 265.8 475.2 C 258.4 471.7, 256.6 472.8, 262 477.3 C 266.5 481.1, 271.4 482.3, 279.4 481.7 C 289.9 480.8, 297.1 478, 299.4 474.1 C 301.7 470.2, 300.4 468.1, 297.4 471 M 389.7 474.3 C 384.2 478.2, 384 478.5, 386.2 479.1 C 389.4 479.9, 393.7 482.7, 398 486.7 C 401.3 489.8, 405 491.1, 405 489.1 C 405 487.9, 400.9 482.8, 398.7 481.2 C 390.4 475, 389.8 472.2, 397.9 477 C 400.8 478.6, 403.7 480, 404.5 480 C 405.3 480, 406.2 480.5, 406.5 481 C 406.8 481.6, 406.4 482, 405.6 482 C 404.3 482, 404.4 482.6, 406.1 485.5 C 408.4 489.4, 408.4 489.4, 411.1 488 C 413.8 486.5, 413.5 485, 410.5 485 C 409.1 485, 408 484.6, 408 484 C 408 483.5, 408.7 483, 409.5 483 C 411.7 483, 411.3 481.7, 408.3 478.8 C 405.3 476, 398.9 473, 395.8 473 C 394.8 473, 394.2 472.6, 394.5 472 C 394.8 471.5, 397.2 471, 399.7 471 C 403.9 471, 404.6 471.4, 410.1 477 C 413.4 480.4, 416 483.5, 416 484 C 416 484.6, 416.7 485, 417.6 485 C 420 485, 418.7 487.3, 415.9 488.1 C 413.3 488.9, 413.4 489, 416.8 489.4 C 419.4 489.7, 421.7 491.6, 420.6 492.7 C 420.2 493.1, 419 492.9, 418 492.2 C 413.7 489.6, 401 492.1, 401 495.5 C 401 496.3, 401.4 497, 401.9 497 C 402.4 497, 403 497.7, 403.3 498.4 C 403.7 499.5, 402.5 499.1, 399.3 497.4 C 394.1 494.7, 390.4 494.4, 387.6 496.5 C 383.2 499.8, 386.7 506.2, 395.5 510.9 C 398.4 512.4, 398.9 513.1, 397.7 513.5 C 396.9 513.9, 395.1 513.6, 393.9 512.9 C 390.7 511.2, 385.1 511.6, 379.9 513.9 L 375.5 515.7 384.3 516.5 C 394.5 517.4, 409.8 516, 418.7 513.3 C 425.6 511.3, 428 507.8, 428 499.6 C 428 495.9, 422 485, 419.9 485 C 419.4 485, 419 484.2, 419 483.2 C 419 481.3, 411 473, 407.3 471.1 C 402.4 468.6, 395.9 469.8, 389.7 474.3 M 248.9 477.8 C 243.3 483.9, 243.3 483.8, 247.4 487.2 C 249.5 488.9, 252.3 492.1, 253.7 494.3 L 256.2 498.3 262.8 497.7 C 266.5 497.3, 271.2 496.4, 273.3 495.7 L 277.2 494.3 273.1 492.2 C 265.2 488, 261.3 485.1, 257 480.1 C 251.9 474.1, 252.1 474.2, 248.9 477.8 M 505.1 481.4 C 504.4 482.2, 503.2 482.6, 502.4 482.3 C 501.5 482, 500 482.7, 498.8 484 C 497 486, 496.6 486, 495.8 484.6 C 495.3 483.7, 493.9 483.1, 492.7 483.2 C 491.5 483.2, 489.7 482.9, 488.8 482.5 C 487.7 482.1, 487 482.2, 487 482.9 C 487 483.5, 487.6 484, 488.3 484 C 489.1 484, 489.1 484.3, 488.1 484.9 C 487.1 485.5, 486.9 486.9, 487.3 489.6 C 488 494, 488.6 494.7, 492.5 495.5 L 495.5 496.2 492.6 494.2 C 491 493, 489.5 491.5, 489.4 490.8 C 489.3 490.1, 488.8 488.6, 488.4 487.5 C 487.7 485.7, 487.8 485.7, 489.1 487 C 489.9 487.8, 490.9 489.3, 491.3 490.3 C 491.6 491.2, 492.4 492, 493 492 C 494.5 492, 498.2 495.9, 497.6 496.9 C 497 497.8, 504.6 499.5, 506.5 499 C 507.1 498.9, 508.1 498.7, 508.8 498.7 C 510.3 498.7, 510.4 495.4, 508.9 494.4 C 508.3 494.1, 508 492.5, 508.4 490.9 C 509 487.7, 507.7 487, 506.2 489.7 C 505.6 490.7, 504.6 491.1, 503.6 490.7 C 501.7 489.9, 501.5 488, 503.3 488 C 504 488, 505.5 487.3, 506.6 486.5 C 508.4 485, 508.4 485, 506.6 485.2 C 505.6 485.4, 504.5 484.9, 504.3 484.3 C 504 483.4, 505 483, 507.2 482.9 C 509 482.9, 509.8 482.6, 509 482.3 C 508.2 482, 507.2 481.3, 506.9 480.8 C 506.6 480.3, 505.8 480.6, 505.1 481.4 M 365.5 484.8 C 362.1 488.4, 359 496.3, 359 501.2 C 359 503.7, 369.5 515, 371.8 515 C 372.4 515, 375.2 513.6, 378 511.9 C 381.9 509.5, 383.8 508.9, 386.1 509.4 L 389.1 510 386.5 506.6 C 385.1 504.8, 384 502.8, 384 502.1 C 384 501.3, 383.5 501.2, 382.1 502 C 381 502.5, 375.5 503, 369.8 503 C 360.5 502.9, 359.7 502.8, 361.4 501.5 C 362.8 500.4, 365.9 500, 371.8 500 L 380.2 500 383.9 496 C 387.4 492.1, 387.8 492, 393.9 492 C 401.5 492, 401.2 491.3, 391.6 485 C 385.7 481.1, 385.2 481, 377.2 481 L 368.9 481 365.5 484.8 M 425.4 485.7 C 425.7 486.1, 426.7 486.5, 427.4 486.6 C 432.5 487.3, 436 493.2, 434.1 498.1 L 433.2 500.5 432.2 498 C 431.3 495.9, 431.1 496.8, 431.1 502.8 C 431 511.3, 432.6 512.3, 437.6 506.8 C 444.4 499.2, 444.8 494.9, 439.2 489 C 435.6 485.3, 434.9 485, 430 485 C 427.1 485, 425 485.3, 425.4 485.7 M 179.6 491 C 176.5 493.2, 172.6 495.7, 171 496.5 C 168 498, 168 498.1, 168 506.5 C 168 511.2, 168.4 515, 168.8 515 C 169.8 515, 175.7 508.8, 180.1 503 C 182 500.6, 185 497.2, 186.8 495.5 C 189.6 493, 190 492, 189.5 489.7 C 188.5 486, 186.4 486.3, 179.6 491 M 566.7 487.7 C 565.3 488.1, 565.9 488.8, 569.4 491.1 C 574.3 494.1, 575.3 496, 572 496 C 568.9 496, 569.6 498.5, 573.5 501.4 C 575.5 503, 576.7 504.6, 576.4 505.4 C 575.4 508, 573.3 507.9, 569.9 505 C 567 502.5, 565.6 502.1, 560.8 502 C 555.3 502, 553.2 503.1, 556.5 504.4 C 558.1 505, 558.5 507.6, 557.2 508.4 C 556.7 508.7, 554.3 508.3, 551.9 507.6 C 548.5 506.5, 546.1 506.5, 542.2 507.2 C 533.6 508.9, 495.3 503.6, 486.7 499.5 L 481.8 497.2 484.5 500 C 489.6 505.4, 514.3 510.3, 536.7 510.4 C 553.3 510.5, 555.2 510.9, 553 513.5 C 550.3 516.7, 516.8 514.7, 502.5 510.4 C 501.2 510, 500.9 510.1, 501.5 510.7 C 503.3 512.4, 514.2 514.8, 525 516 C 530.8 516.6, 537.1 517.5, 539.1 518 C 542.7 519, 547.9 523.5, 546.7 524.7 C 546.3 525, 545.4 524.6, 544.7 523.7 C 543.8 522.5, 541 522, 533 521.6 C 523.1 521.1, 522.7 521.1, 526.5 522.5 C 528.7 523.2, 532.1 523.9, 534 524 C 535.9 524, 539.3 524.9, 541.5 526 C 543.7 527, 545.7 527.4, 545.8 526.9 C 546.4 525.2, 548 526, 548 528 C 548 529.9, 557.1 538, 559.3 538 C 559.8 538, 562.2 536.9, 564.4 535.6 C 568.9 533, 571.2 533.3, 574.4 536.9 C 575.5 538, 577 539, 577.9 539 C 578.8 539, 587.2 544.5, 596.5 551.1 C 619.9 567.9, 636.3 575.7, 649.1 576.2 C 655.1 576.5, 655.3 576.4, 658.4 572.8 C 660.2 570.7, 663.3 565.1, 665.4 560.3 C 667.5 555.5, 669.5 550.8, 669.9 550 C 670.4 549.2, 671.7 545.1, 672.9 541 C 674.2 536.9, 675.8 531.6, 676.6 529.2 C 677.4 526.9, 678 524.8, 678 524.6 C 678 524.4, 675.7 524, 672.9 523.6 C 670.1 523.2, 664.8 521.8, 661.2 520.4 C 657.5 519, 653.8 517.6, 652.9 517.3 C 651.6 516.9, 651 518, 650 522.1 C 649.3 525, 647.7 530, 646.4 533.4 C 645.1 536.7, 644 540.6, 644 542.2 C 644 544.9, 642.7 545.9, 641.6 544.1 C 641.2 543.6, 637.7 542, 633.7 540.5 C 597.8 527.1, 594.7 525.3, 589.2 515.3 C 586.8 511, 583.3 505.5, 581.4 503.1 C 577.7 498.3, 577.3 497, 579.3 497 C 581.2 497, 587.6 504.1, 593.9 513.2 C 598.1 519.2, 600 521.1, 602.4 521.6 C 604.1 521.9, 607.5 523.3, 610 524.5 C 612.5 525.7, 615.6 527.1, 616.9 527.5 L 619.2 528.2 618.8 515.6 C 618.6 508.7, 618.1 502.8, 617.8 502.4 C 617.4 502.1, 615.3 503.3, 613 505.2 C 609 508.3, 608.3 508.5, 601.1 508.5 L 593.4 508.5 582.5 497.8 C 576.5 491.8, 570.9 487.1, 570 487.1 C 569.2 487.2, 567.7 487.4, 566.7 487.7 M 195.3 496.7 C 193.3 497.4, 193.7 505.4, 195.8 507.3 C 198.1 509.3, 202.4 510.4, 205.5 509.6 C 208.8 508.8, 208.1 507.8, 201.4 503.9 C 196.6 501.2, 195.9 500.5, 196.4 498.4 C 196.8 497.1, 196.9 496, 196.8 496.1 C 196.6 496.1, 195.9 496.4, 195.3 496.7 M 285.5 497.1 C 283.3 497.5, 277.5 498.9, 272.5 500.3 C 267.6 501.7, 261.8 503.1, 259.8 503.4 C 257 503.9, 256 504.6, 256 506 C 256 507.6, 256.5 507.8, 259.5 507.3 C 265.1 506.4, 263.5 508.4, 256.8 510.8 C 249.9 513.3, 245.7 515.6, 249.8 514.7 C 256.9 513.1, 258.6 526.6, 251.9 532.6 C 249.2 535.1, 249.5 536.1, 252.7 534.9 C 257.9 532.9, 271 532.6, 278 534.3 C 289.3 537.1, 301.5 539, 307.5 539 C 318.5 539, 342.2 533.9, 345.5 530.9 C 347.8 528.6, 346.4 528.5, 341.3 530.4 C 321.9 537.9, 294.3 537.7, 276.1 530.2 C 268.5 527, 265.3 522.3, 264.3 512.7 C 263.6 505.5, 266.2 504.2, 277.5 506.2 C 281.4 506.9, 281.7 506.8, 285.9 501.9 C 290.8 496.1, 290.8 496.2, 285.5 497.1 M 326.8 498.7 C 321.4 499.5, 323.6 502.8, 331 505 C 336.9 506.8, 342.7 510.1, 343.7 512.2 C 344.8 514.5, 353 510.7, 353 507.9 C 353 500, 342.4 496.3, 326.8 498.7 M 179.7 510.3 C 169.2 521.1, 166.9 524.8, 168.3 528.5 C 168.8 529.6, 169.5 529.8, 171.2 529.1 C 175.8 527.2, 188.5 523.6, 189.8 523.8 C 190.4 524, 189.9 522.4, 188.5 520.4 C 185.2 515.6, 185.3 511.5, 188.9 504.6 C 190.6 501.5, 191.6 499, 191.2 499 C 190.8 499, 185.6 504.1, 179.7 510.3 M 447.2 503.2 C 446.5 503.9, 446 504.9, 446 505.6 C 446 510.7, 433.6 519.6, 420.3 524 C 401.7 530, 375.3 530.3, 358.2 524.5 C 353.1 522.7, 349.7 523.9, 350.2 527.2 C 350.4 529, 351.8 529.7, 357.7 531.1 C 385.1 537.9, 441.3 533.7, 452.3 524.1 C 454.1 522.5, 456.4 521, 457.5 520.6 C 461 519.5, 470 510.3, 470 507.8 C 469.9 502.9, 468 502, 457.8 502 C 451.8 502, 448 502.4, 447.2 503.2 M 297.6 505.1 C 295.4 505.6, 292.9 506.7, 292.1 507.4 C 291.2 508.1, 289.9 508.5, 289.3 508.3 C 288 507.8, 287.5 509.7, 287.8 513.3 C 287.9 514.3, 287.6 514.8, 287 514.5 C 285.7 513.7, 281.6 516, 282.6 517 C 283.1 517.4, 285.8 518, 288.5 518.4 C 291.3 518.7, 292.9 518.7, 292.3 518.4 C 290 517.4, 290.8 511.5, 293.5 509 C 295.6 507.1, 297.3 506.6, 304.1 506.2 C 309.1 505.9, 311.7 505.4, 310.8 504.9 C 309.1 503.8, 302.7 503.9, 297.6 505.1 M 650 508.8 C 650 511.4, 650.5 511.8, 657.3 513.9 C 661.2 515.1, 665.6 516.6, 666.9 517.1 C 670.2 518.5, 680.3 519.4, 683.4 518.6 C 688.5 517.3, 686.3 515.3, 679.1 514.6 C 672.4 514, 654.5 508.8, 652.6 506.9 C 650.9 505.3, 650 505.9, 650 508.8 M 28.1 509 C 28 511.9, 28.8 516.9, 33 541.5 C 37.7 568.8, 38.8 574.7, 40.5 584 C 41.4 588.7, 42.7 596.1, 43.5 600.5 C 47.9 625.4, 48.8 629.1, 50.9 630.5 C 51.6 630.9, 52 629.1, 52 625.2 C 52 619.8, 51.7 619.1, 49.4 617.5 L 46.7 615.8 47.3 592.4 C 47.7 573.1, 47.6 568.9, 46.4 567.9 C 45.6 567.3, 45 566.3, 45 565.8 C 45 565.2, 44.4 563.4, 43.6 561.7 C 40.9 555.6, 31.1 521.5, 29.2 511.5 C 28.7 508.8, 28.2 507.6, 28.1 509 M 313.8 509.1 C 312.8 509.6, 310.6 512.2, 308.9 514.7 L 305.7 519.3 317.6 518.7 C 335.2 517.8, 342.4 514.4, 334.8 510.5 C 333 509.6, 328.7 508.6, 325.3 508.3 C 319.3 507.7, 319.1 507.8, 319.7 509.9 C 320 511, 320.9 512, 321.7 512 C 322.7 512, 323 512.6, 322.6 513.6 C 322.3 514.5, 322 515.4, 322 515.6 C 322 516.8, 318.9 515.8, 318.3 514.5 C 317.8 513.1, 317.6 513.1, 316 514.5 C 313.3 517, 312.3 514.4, 314.9 511.6 C 318.1 508.2, 317.5 506.9, 313.8 509.1 M 134 513.2 C 132.6 513.9, 129 515.5, 126 516.8 C 123 518.2, 115.1 521.4, 108.5 524 C 98.4 527.9, 96.6 529, 96.8 530.6 C 97.4 533.4, 97.5 533.4, 103.7 531.6 C 112 529.1, 114.3 528.2, 125.8 522.8 C 131.5 520.2, 136.5 518, 137 518 C 138.9 518, 139.8 515.5, 138.6 513.7 C 137.1 511.8, 137.3 511.8, 134 513.2 M 351 515 C 342.7 521, 317.6 525.8, 300.4 524.5 C 292.4 524, 275.7 520.6, 270.8 518.5 C 266 516.5, 271.1 522.6, 276.5 525.3 C 287.7 530.9, 316.1 532.7, 329.5 528.7 C 338 526.2, 347.4 521.2, 351.1 517.4 C 354.8 513.6, 354.7 512.3, 351 515 M 418.5 517.2 C 407.9 520, 397.7 521, 385.2 520.2 C 375.1 519.6, 370.6 520, 372 521.3 C 372.3 521.6, 376.8 522.2, 382 522.8 C 395.8 524.3, 409.5 522.7, 421.3 518.3 C 431.6 514.5, 430.3 514, 418.5 517.2 M 236 520.4 C 229 523.2, 214.1 526.6, 202.6 528 C 197.7 528.6, 189.4 530.2, 184.3 531.5 C 179.2 532.9, 169.3 535.1, 162.3 536.6 C 155.1 538, 148.4 540, 146.9 541.1 C 143.3 543.7, 143 543.6, 143 539.5 C 143 537.6, 142.6 535.2, 142.1 534.2 C 141.5 533.3, 140.1 530.4, 138.9 527.8 C 137.7 525.1, 136.5 523, 136.4 523 C 136.3 523, 133.6 524.3, 130.4 525.9 C 122.8 529.6, 116.7 532.3, 110.8 534.5 C 105.3 536.5, 105.5 536.1, 107.6 540.3 C 116.6 557.6, 132.4 575, 139.1 575 C 143.2 575, 160.2 569.5, 171 564.7 C 178.5 561.4, 196.4 552.5, 201.2 549.6 C 204.8 547.5, 207.5 546.8, 212.7 546.5 C 217.6 546.3, 222.5 545, 230.4 542 C 245.7 536.2, 249.6 533.4, 238 536.5 C 231.1 538.3, 229 538.4, 229 536.6 C 229 535.8, 230.9 534.8, 233.6 534.1 C 240.5 532.3, 245.4 529.5, 248.9 525.3 C 252.7 520.6, 253 518.7, 249.3 522.2 C 243.2 527.9, 229.5 531.8, 228.3 528.3 C 228 527.6, 228.6 527, 229.5 527 C 231.5 527, 239.8 522.8, 243 520.1 C 246.5 517.3, 243.5 517.4, 236 520.4 M 347.3 535.8 C 345.8 537.9, 344.2 538.6, 341.3 538.8 C 333.5 539.3, 333.4 539.4, 332 553.3 C 330.8 565.7, 326.3 576.6, 320.9 580.4 C 319.6 581.3, 318.8 582.1, 319.1 582.4 C 319.3 582.6, 329 582.6, 340.6 582.3 L 361.7 581.7 362.4 571.1 C 362.8 565.3, 363.8 555.4, 364.6 549.2 C 365.5 542.9, 365.9 537.6, 365.7 537.3 C 365.4 537.1, 362.3 536.3, 358.9 535.5 C 355.4 534.8, 351.8 533.9, 351 533.6 C 350.1 533.3, 348.6 534.2, 347.3 535.8 M 441.8 533.6 C 440.6 534.7, 419.2 538, 412.8 538 L 406 538 406 553.3 C 406 561.6, 406.3 571.5, 406.7 575.3 L 407.3 582 420.8 582 L 434.2 582 433.6 579.3 C 433.2 577.7, 431.9 575.7, 430.7 574.7 C 422.5 568.2, 420.8 566.4, 419 563 C 416.5 558.1, 416.5 555.9, 418.9 551.1 C 421.8 545.4, 432.7 538.3, 441.1 536.6 C 443.9 536, 446 533, 443.6 533 C 442.9 533, 442.1 533.2, 441.8 533.6 M 367.1 552.1 C 366.4 560, 365.5 570, 365.3 574.3 L 364.8 582 384.5 582 L 404.2 582 403.7 577.8 C 403.3 575.4, 402.8 565.7, 402.4 556.3 L 401.7 539 391 539 C 385.1 539, 377.6 538.7, 374.4 538.4 L 368.4 537.8 367.1 552.1 M 544 539.7 C 544 540.2, 545.3 541.9, 546.9 543.4 C 557.8 553.9, 549.8 567.2, 529 572.8 C 507.6 578.6, 480.9 577.6, 448.6 569.8 C 426.3 564.4, 420.7 552.7, 436.7 544.9 C 442.1 542.3, 444.8 539.9, 442.3 540 C 439.7 540.1, 427.5 546, 425 548.4 C 403.5 568.6, 476.4 588.1, 527.1 575.6 C 550.4 569.8, 559.1 560.5, 552.7 548.1 C 550.6 544, 544 537.6, 544 539.7 M 291.5 542.5 C 293.7 543.3, 298.2 545, 301.5 546.1 C 309.7 548.9, 321.1 554.6, 324.3 557.5 C 325.7 558.9, 327.2 559.6, 327.5 559 C 328.2 557.9, 330.9 541.7, 330.5 541.2 C 330.3 541, 325.6 541.4, 319.9 542.1 C 310.7 543.1, 301.4 542.9, 291 541.4 L 287.5 540.9 291.5 542.5 M 292.1 548.9 C 294.8 552.3, 295.4 554.1, 295.9 559.6 L 296.5 566.2 299.3 563.5 C 304.2 558.6, 301.3 551.3, 292.8 546.9 L 288.8 544.9 292.1 548.9 M 439.5 547.3 C 429.9 553, 429.4 554.4, 434.9 559.2 C 449.5 571.7, 513.2 576.9, 535 567.4 C 541.9 564.4, 543.2 563.5, 546.1 560.3 C 550.6 555.1, 550 552.2, 545.3 556.5 C 531.8 568.8, 495.4 573.5, 466.8 566.6 C 451.8 563, 444.6 557.8, 443.3 549.5 C 442.7 545.7, 442.5 545.5, 439.5 547.3 M 578.5 547.5 C 578 547.7, 575.9 548.1, 574 548.4 C 567.3 549.6, 567.3 549.4, 576.9 568.1 C 585.4 584.7, 586 585.5, 588.7 585.3 C 608.1 584.1, 610.1 583.8, 609.4 581.6 C 607.5 575, 602 566, 596.1 559.7 C 586.7 549.7, 581.9 546.4, 578.5 547.5 M 740.7 548.7 C 740.5 549.1, 739.9 552.2, 739.5 555.5 C 738.7 562.6, 736.5 572.9, 734.5 578.5 C 733.8 580.7, 732.4 585.2, 731.4 588.5 C 730.5 591.8, 728.4 596.4, 726.8 598.7 C 723.6 603.5, 723.4 605, 725.6 616.2 C 727.7 627.4, 728 628.1, 729.1 625.1 C 730.3 622, 733.6 606.2, 734.5 599.5 C 734.9 596.8, 736.2 590.4, 737.5 585.4 C 741.5 570, 744 550.6, 742.2 548.8 C 741.7 548.3, 741 548.2, 740.7 548.7 M 559.8 554.3 C 560.4 559.1, 557.6 564.4, 552 569.2 L 547.3 573.2 549.5 578.7 C 550.8 581.7, 552.2 584.5, 552.6 585 C 554.1 586.3, 582 587, 582 585.7 C 581.9 585, 578.2 577.1, 573.6 568 C 565.9 552.7, 565 551.5, 562.3 551.2 C 559.5 550.9, 559.4 551.1, 559.8 554.3 M 307.2 554.8 C 321.3 569.8, 314.2 575.7, 270.5 585.2 C 264 586.6, 221.1 587.1, 215.3 585.8 C 213.5 585.4, 212 585.4, 212 585.8 C 212 586.2, 215.7 587.4, 220.3 588.5 C 238.6 592.9, 265.1 590.8, 297 582.5 C 300 581.8, 305.4 580.4, 309 579.4 C 318.5 577, 320.4 575.7, 323.6 569.5 L 326.5 564 323.5 561.5 C 319.9 558.6, 311.6 554.1, 307.6 552.9 L 304.7 552 307.2 554.8 M 204.9 557.7 C 203.8 560.4, 203.1 563.4, 203.5 564.7 C 204.1 567.4, 205.7 567.7, 206.3 565.3 C 206.6 563.8, 206.9 564, 208 566.3 C 208.8 567.9, 210.2 569, 211.4 569.1 C 212.6 569.1, 212.9 569.4, 212.2 569.7 C 211.6 569.9, 211.2 570.6, 211.5 571 C 211.8 571.5, 212.8 571.6, 213.7 571.3 C 214.6 570.9, 215.1 571.1, 214.7 571.6 C 214.4 572.2, 215.5 573.1, 217.2 573.8 L 220.3 575 217.2 571.8 C 213.7 568.5, 212.5 565.3, 213.2 561.5 C 213.8 558.4, 211.6 558.1, 209.8 561 C 207 565.4, 206.3 562.2, 208.5 555.3 C 209.9 550.9, 207 552.9, 204.9 557.7 M 197.9 557.8 C 193.9 560.4, 193.2 561.4, 190.8 568.8 C 186.7 580.8, 186.8 581.4, 193.8 583.5 C 196.9 584.4, 201.4 585.9, 203.7 586.7 C 206 587.6, 208.6 588, 209.5 587.7 C 212.1 586.7, 211.2 584.3, 208 583.6 C 200.3 582.1, 192.1 569.5, 194.9 563.4 C 196.6 559.7, 197.5 560.5, 198.8 566.8 C 200.9 576.8, 206.3 580.2, 223.9 582.5 C 245.7 585.4, 270.4 582.8, 293 575.3 C 307.8 570.4, 312.3 565.1, 307 558.9 L 305 556.5 305.7 559.8 C 306.2 562.7, 305.8 563.5, 302.3 566.8 C 298.6 570.3, 297.1 571, 281 576.1 C 267.2 580.5, 229.4 582, 217 578.6 C 203.8 575, 197.2 567.2, 200.9 559.7 C 203.5 554.5, 203.3 554.4, 197.9 557.8 M 180.3 566.4 C 175.4 568.8, 174.1 570, 174.1 571.8 C 174 574.7, 175.7 578, 177.3 578 C 178 578, 179.7 578.7, 181.2 579.4 C 184.5 581.1, 184.8 580.7, 186 573.8 C 186.4 570.9, 187.1 567.3, 187.5 565.8 C 188.4 562.4, 188.2 562.5, 180.3 566.4 M 166.5 572.9 C 165.2 574.1, 147.7 579.7, 142.6 580.5 C 139 581.1, 138.8 581.3, 140.4 582.8 C 141.7 584.1, 144.7 584.6, 154.3 585 C 161 585.3, 167.1 585.9, 167.8 586.3 C 169.9 587.7, 170.3 584.5, 168.8 578 C 167.9 574.1, 167.1 572.3, 166.5 572.9 M 542.5 575.8 C 541.2 576.8, 532.3 579.6, 523.5 581.6 C 519.7 582.5, 509.1 583.6, 500 584 L 483.5 584.7 505.5 584.9 C 517.6 584.9, 532.3 585.3, 538.3 585.6 C 550.5 586.4, 550.7 586.2, 547 579 C 544.9 574.9, 544.1 574.4, 542.5 575.8 M 310.5 585.2 C 298.4 587.2, 286.8 590, 285.7 591 C 284 592.5, 281.3 615.7, 278 655.5 C 277.4 662.1, 276.5 670.2, 276 673.6 C 275.4 676.9, 275 681.1, 275 682.8 L 275 686 294 686 L 313 686 313 669.3 C 313 660.2, 313.5 638.5, 314.1 621.1 C 315.4 582.2, 315.6 584.3, 310.5 585.2 M 183.2 587.1 C 182.5 588.1, 182 589.4, 182 589.9 C 182 591, 192.8 595.2, 193.9 594.5 C 194.4 594.3, 195.6 595, 196.6 596.1 C 197.6 597.3, 199.8 598.9, 201.3 599.7 C 215 606.7, 221.5 621.7, 218.6 639 C 217 648, 214.1 656.2, 211.3 659.3 C 207.2 663.7, 217 661.4, 226.3 655.7 C 238.3 648.4, 244.2 630.4, 239 616.7 C 236.8 610.8, 229.8 602.6, 225 600.3 C 214.9 595.5, 199.3 589.7, 197.8 590.3 C 197.1 590.5, 195.6 590, 194.5 589 C 191 586, 184.5 584.9, 183.2 587.1 M 318.1 598.8 C 317.5 605.8, 316.7 628.3, 316.3 648.8 L 315.7 686 339.5 686 L 363.3 686 362.7 655.3 C 362.3 638.3, 362 615.8, 362 605.3 L 362 586 340.7 586 L 319.3 586 318.1 598.8 M 365 613.3 C 365 628.4, 365.3 650.9, 365.7 663.3 L 366.3 686 385.8 686 L 405.3 686 404.7 658.3 C 404.3 643, 404 620.5, 404 608.3 L 404 586 384.5 586 L 365 586 365 613.3 M 407 605.3 C 407 615.8, 407.3 638.3, 407.7 655.3 L 408.3 686 424.3 686 L 440.3 686 439.6 682.3 C 438.2 674.5, 434.2 607.5, 434 589.8 L 434 586 420.5 586 L 407 586 407 605.3 M 437.4 600 C 437.7 607.4, 438.5 623.2, 439 635 C 439.9 655, 441.4 675.1, 442.6 682.8 L 443.1 686 458.6 686 L 474.1 686 473.5 675.3 C 473.2 669.3, 472.5 659.1, 472 652.5 C 470.7 637.3, 469.1 613.7, 468.3 599.8 C 468 593.8, 467.2 588.6, 466.6 588.1 C 466 587.6, 459 587, 451.1 586.8 L 436.7 586.5 437.4 600 M 720 589 C 720 590.8, 719.5 592, 718.7 592 C 717 592, 713 596.2, 713 597.9 C 713 599.7, 709.1 607.9, 706.7 611.1 L 704.7 613.9 708.9 618.7 C 711.2 621.3, 716.1 627.1, 719.8 631.5 L 726.5 639.4 726.8 636.2 C 727 634.1, 726.3 631.4, 724.7 628.7 C 723.3 626.4, 720.8 620.1, 718.9 614.7 C 715.8 605.2, 715.7 604.7, 717.3 601.7 C 721.6 593.3, 723.3 586, 721 586 C 720.5 586, 720 587.4, 720 589 M 470.4 594.1 C 471.6 604.7, 473.9 638, 475.2 662.7 L 476.4 685.9 533.2 686 C 594.1 686, 591.8 686.2, 589 681.2 C 588.5 680.3, 586.6 675.7, 584.8 671.2 L 581.5 662.8 574.5 662.4 C 569.5 662.1, 566.8 661.4, 565 660 C 563.6 658.9, 559.7 656.6, 556.2 654.9 C 539.3 646.3, 531.9 627.9, 539.5 613 C 543.1 605.9, 551.3 597.3, 557 594.9 C 559.5 593.8, 562.9 592.2, 564.5 591.5 L 567.5 590 564.5 590 C 562.9 589.9, 554.1 589.7, 545.1 589.4 L 528.7 589 529.3 592.3 C 529.6 594, 530.6 598.6, 531.4 602.3 C 533.6 612.6, 535.5 637.6, 534.4 643.5 L 533.6 648.5 532.9 641.5 C 530.1 609.8, 528.5 598.9, 525.8 591.8 L 524.8 589 512.4 589 L 500 589 500 592.8 C 500 594.8, 500.4 598.1, 501 600 C 501.9 603.4, 502.6 609.1, 505.5 635 C 507.4 651.7, 508.7 662.2, 509.9 670 C 512 683.6, 512.1 684.6, 510.6 682.4 C 509.9 681.4, 509 678.9, 508.7 677 C 507.1 667, 504.7 650.2, 503.5 639.5 C 500.9 618, 499.1 604.7, 497.8 596.8 L 496.6 589 486.4 589 C 480.8 589, 474.8 588.7, 473 588.3 L 469.7 587.7 470.4 594.1 M 611 589.2 C 594.4 590.7, 570.6 595.7, 562.5 599.4 C 542.2 608.8, 536.1 628.5, 549.1 642 C 559.2 652.4, 580.7 655.2, 590 647.3 C 593.6 644.3, 593.7 642.8, 590.7 637.5 C 588.9 634.4, 588.6 632.9, 589.3 631.3 C 592.7 623.6, 620.8 617.3, 647.3 618.2 C 654.3 618.5, 660 618.3, 660 617.8 C 660 617.4, 659.2 617, 658.2 617 C 657.2 617, 655.8 616.4, 655.1 615.8 C 654.1 614.8, 653.6 614.8, 653.3 615.6 C 652.6 617.6, 649.2 615.9, 646.3 612.1 C 644.8 610.1, 643.4 608.3, 643.1 608 C 641.7 606.8, 636.2 598.1, 634.1 594 C 630.7 587.3, 631.4 587.4, 611 589.2 M 274 592.7 C 269.9 593.4, 262 594.5, 256.5 595.2 C 251 595.9, 246.1 596.9, 245.7 597.4 C 245.3 598, 245 606.2, 245 615.5 C 245.1 624.9, 244.8 644.5, 244.5 659.3 L 243.8 686 257.9 686 C 271.7 686, 272 686, 272.4 683.8 C 273 681, 273.6 674.4, 275.5 653.5 C 278.5 620.2, 280 605.3, 281 599.6 C 282.5 591.2, 282.7 591.3, 274 592.7 M 643 591.9 C 643 594, 644.3 596, 645.6 596 C 646.4 596, 647 596.6, 647 597.4 C 647 598.8, 650.6 600.6, 652.3 600.2 C 652.8 600.1, 652.3 601, 651.3 602.3 C 649.8 604.4, 649.1 604.6, 646.8 603.8 C 645.2 603.2, 644.3 602.3, 644.6 601.5 C 644.9 600.8, 644.3 599.7, 643.1 599.1 C 640 597.4, 639.9 597.7, 642.7 602 C 644.8 605.1, 646 606, 648.4 606.2 C 650.1 606.2, 652.7 606.4, 654.3 606.5 C 655.8 606.6, 657 606.3, 657 605.9 C 657 605.4, 657.5 605, 658 605 C 659.9 605, 659 606.7, 656.3 607.9 C 654.5 608.7, 654 609.4, 654.7 610.1 C 655.5 610.9, 656.6 610.7, 658.4 609.5 C 659.8 608.6, 661.5 608, 662.2 608.3 C 662.9 608.6, 661.8 609.5, 659.8 610.4 C 657.7 611.3, 656 612.5, 656 613 C 656 614.4, 658 614.2, 661.2 612.6 C 663.6 611.3, 663.9 611.4, 664.3 613.2 C 664.7 614.6, 664.5 614.9, 663.6 614.1 C 661.5 612.4, 659.1 614.6, 661 616.5 C 662.3 617.7, 663.5 617.9, 667.5 617.1 C 670.3 616.6, 675.7 615.9, 679.5 615.5 C 689.6 614.6, 692.6 613.4, 695.2 609.2 C 697.1 606.2, 701 598.3, 701 597.6 C 701 597.5, 698.5 597.9, 695.5 598.4 C 691.7 599.1, 690.1 599.8, 690.4 600.7 C 690.7 601.4, 690.3 602, 689.5 602 C 688.6 602, 688.3 601.4, 688.6 600.5 C 689.1 599.3, 688.2 599, 683.9 599 C 680.9 598.9, 675.1 598.5, 671 598 C 663.7 597.2, 660.4 597.5, 664.8 598.7 C 666 599, 667 599.7, 667 600.3 C 667 600.9, 668 602.4, 669.2 603.7 C 670.4 605, 671 606.3, 670.7 606.6 C 670.3 607, 669.1 606.1, 667.9 604.6 C 666.5 602.8, 665.2 602.1, 664.2 602.5 C 663.3 602.8, 662.9 602.8, 663.2 602.4 C 664.6 601.1, 661.9 598, 659.5 598 C 657.9 598, 657 597.4, 657 596.4 C 657 595.2, 656.4 594.9, 654.5 595.4 C 652.6 595.9, 652.2 595.7, 652.6 594.5 C 653.3 592.8, 650.5 592.4, 649.5 594 C 648.4 595.8, 646.9 595, 647.5 593 C 648 591.4, 647.7 591, 645.6 591 C 644.2 591, 643 591.4, 643 591.9 M 225.5 593.9 C 226.1 594.4, 228.6 596.6, 231.2 598.7 C 233.7 600.8, 237.2 604.2, 238.8 606.2 L 241.7 609.9 242.4 603.4 C 243.2 595.2, 243.1 595, 236 595 C 232.8 595, 228.9 594.5, 227.3 593.9 C 225.7 593.3, 224.9 593.3, 225.5 593.9 M 128.4 597.8 C 126.1 598.7, 123.7 600, 122.9 600.6 C 116.6 605.8, 92.5 619, 87.4 620.1 C 80.6 621.6, 69.7 621.8, 62.6 620.5 L 57.7 619.7 58.4 625.5 C 60.1 640.6, 70 650.1, 88.8 654.6 C 96.3 656.4, 98.2 656.1, 96 653.5 C 95.2 652.6, 93.1 652, 90.5 652 C 88.1 652, 85.5 651.7, 84.6 651.4 C 81.4 650.2, 83.1 649, 88.2 649 C 91.8 649, 94 648.5, 95.4 647.1 C 97.1 645.6, 99.8 645.1, 110.3 644.6 L 123.1 644 124.6 647.5 C 126.8 652.7, 127.8 652.7, 140.2 647 C 156.6 639.4, 157.1 639.2, 162.3 637.5 C 167.5 635.7, 171.3 636.3, 170.8 638.7 C 170.6 639.7, 168.4 640.8, 165 641.7 C 162 642.4, 158.4 643.7, 157 644.4 C 155.6 645.2, 150.9 647.7, 146.5 650 C 142.1 652.3, 138.1 654.4, 137.6 654.8 C 136.7 655.3, 152.2 663, 154.1 663 C 154.6 663, 155.8 663.4, 156.8 663.9 C 166.1 668.9, 186.2 670.5, 193.5 666.9 C 203.7 661.8, 211.1 650.7, 214.1 636.1 C 217.8 618.3, 203.5 601.9, 180.9 598 C 168.9 595.9, 133.1 595.8, 128.4 597.8 M 679.7 618.1 C 678.8 618.6, 677.5 618.8, 677 618.5 C 676.4 618.2, 676 618.3, 676 618.8 C 676 621.1, 666.3 622.1, 642 622.4 C 614.5 622.8, 607.7 623.8, 597.1 629.2 C 589 633.4, 590.3 640, 598.8 637.5 C 606.7 635.2, 618 633.1, 629 632 C 657.5 629.1, 680.2 623.6, 685.8 618.3 C 687.5 616.7, 682.5 616.5, 679.7 618.1 M 694.9 620.6 C 692.5 623.3, 683.2 628, 680.5 628 C 679.7 628, 679 628.3, 679 628.7 C 679 629.4, 686.8 638.7, 693.6 646 C 695.9 648.5, 699.6 652.7, 701.8 655.3 C 704 658, 710.6 665.5, 716.6 672 L 727.5 683.8 741.8 684.1 C 749.6 684.3, 756 684.1, 756 683.6 C 756 682.8, 736.6 659.1, 725 646 C 721.4 641.9, 715.4 634.9, 711.7 630.4 C 705.4 622.8, 700.1 618, 698.2 618 C 697.7 618, 696.3 619.2, 694.9 620.6 M 667.5 631.6 C 661.9 633.2, 646.6 635.5, 631 637 C 609 639.2, 600.7 641.5, 599.2 645.9 C 597.7 650, 593.9 653.7, 588.5 656.4 C 584.5 658.4, 584 658.9, 585.9 658.9 C 588.2 659, 588.2 659.1, 586.6 660.3 C 584.7 661.7, 585.3 666.5, 588.4 673.5 C 589.2 675.2, 590.6 678.5, 591.6 680.9 L 593.5 685.3 657.8 684.7 C 693.2 684.4, 722.5 683.9, 722.8 683.5 C 723.1 683.2, 720 679.5, 715.8 675.2 C 711.7 671, 705.2 663.9, 701.5 659.5 C 673.6 626.7, 676.5 629, 667.5 631.6 M 49.4 644.3 C 44.5 652.2, 39.2 659.7, 28.6 673.5 C 24 679.5, 20.3 684.7, 20.5 685 C 20.7 685.3, 27.3 685.3, 35.3 685 L 49.8 684.5 55.6 676.5 C 68.2 658.9, 71 655, 71 654.7 C 71 654.5, 68.7 652.9, 65.9 651.1 C 63.1 649.2, 59.5 645.6, 57.7 642.9 C 55.9 640.2, 54.2 638, 53.8 638 C 53.5 638, 51.4 640.8, 49.4 644.3 M 238.6 650.9 C 233.2 659.5, 222 666.4, 210.6 668.1 C 206.7 668.7, 201.4 670.3, 198.9 671.6 C 196.4 672.8, 191.3 674.4, 187.7 675 C 181.3 676.2, 181.2 676.2, 178.6 681.1 L 176.1 686 209 686 L 242 686 242 666.5 C 242 655.8, 241.8 647, 241.5 647 C 241.2 647, 239.9 648.7, 238.6 650.9 M 70.9 660.7 C 67.7 665.3, 58.9 677.4, 57.2 679.6 C 56.2 680.7, 54 684.7, 54 685.2 C 54 685.4, 80.7 685.7, 113.4 685.9 C 179 686.3, 173.8 686.8, 177.4 679.7 C 179.7 675.2, 179.7 675.1, 172.3 674 C 166.8 673.3, 159.2 671.1, 154.5 669.1 C 153.4 668.6, 149.4 666.8, 145.6 665.1 C 135.5 660.5, 131.4 659.8, 125.5 661.5 C 122.9 662.3, 118.9 663, 116.8 663 C 112.4 663, 104.4 664.6, 101.8 666.1 C 100.3 666.9, 100.1 666.6, 100.6 664.1 L 101.2 661.3 95.2 661.1 C 91.9 661, 86.5 660, 83.3 658.9 C 80.1 657.8, 76.8 656.6, 75.9 656.4 C 74.7 656, 73.2 657.3, 70.9 660.7" stroke="none" fill="#1b1f3a" fill-rule="evenodd"/></svg>