<svg xmlns="http://www.w3.org/2000/svg" viewBox="0 0 768 768" version="1.1" preserveAspectRatio="xMidYMid meet">
	<path d="M 404 41 L 404 82 328.750 82.002 C 287.363 82.003, 238.988 82.300, 221.250 82.663 L 189 83.323 189.014 89.912 C 189.021 93.535, 189.313 97.567, 189.662 98.871 L 190.296 101.241 362.898 100.980 C 457.829 100.836, 536.962 100.782, 538.750 100.859 L 542 101 542 130 L 542 159 402.014 159 C 259.618 159, 253 159.160, 253 162.611 C 253 163.328, 255.104 163.995, 258.250 164.276 C 267.216 165.076, 547.999 165.058, 548.012 164.257 C 548.018 163.841, 548.151 146.175, 548.306 125 C 548.461 103.825, 548.793 85.600, 549.044 84.500 C 549.496 82.517, 548.920 82.498, 479.750 82.243 L 410 81.986 410 40.993 L 410 0 407 0 L 404 0 404 41 M 299.190 87.755 L 193.880 88.009 194.190 91.664 L 194.500 95.320 253 95.308 C 285.175 95.301, 363.362 95.229, 426.750 95.148 L 542 95 542 91.514 L 542 88.027 473.250 87.764 C 435.438 87.619, 357.110 87.615, 299.190 87.755 M 345.514 111 C 266.271 111.472, 261.508 111.600, 261.187 113.265 C 260.864 114.946, 266.838 115.018, 385.674 114.765 C 454.328 114.619, 511.043 114.148, 511.706 113.718 C 512.370 113.288, 512.642 112.232, 512.312 111.371 C 511.778 109.978, 507.187 109.844, 470.606 110.153 C 447.998 110.344, 391.706 110.725, 345.514 111 M 628.500 226.975 C 576.726 236.532, 548.516 261.171, 553.759 292.254 C 555.109 300.254, 563.010 314.716, 569.649 321.339 C 575.416 327.091, 576.894 332.222, 577.680 349.212 L 578.175 359.925 573.774 365.712 C 563.891 378.709, 564.013 388.754, 574.261 405.863 C 584.958 423.721, 598.411 432.909, 614 433.003 C 619.393 433.036, 620.002 433.423, 622.224 438.229 C 623.914 441.885, 623.905 441.980, 621.786 443.115 C 616.958 445.698, 609.659 453.703, 607.300 459 C 601.515 471.990, 602.053 471.227, 599.162 470.540 C 582.822 466.657, 573.093 458.390, 563.988 440.652 C 561.641 436.079, 557.580 431.693, 554.849 430.783 C 553.952 430.484, 554.076 429.730, 555.312 427.965 C 558.640 423.213, 556.879 413.745, 552.236 411.430 C 551.013 410.821, 550.237 410.096, 550.512 409.821 C 550.787 409.546, 550.110 408.504, 549.006 407.506 C 547.903 406.507, 547 404.762, 547 403.628 C 547 399.613, 543.786 392.984, 541.569 392.428 C 538.449 391.645, 534.281 393.539, 533.465 396.111 C 532.829 398.114, 532.624 397.945, 531.420 394.419 C 530.684 392.263, 528.250 388.783, 526.010 386.685 C 520.780 381.785, 518.122 382.004, 516.110 387.500 C 514.224 392.651, 514.491 392.457, 511.842 390.602 C 508.688 388.393, 506 388.548, 506 390.940 C 506 392.459, 505.188 392.946, 502.250 393.190 C 498.674 393.486, 498.503 393.662, 498.573 397 C 498.613 398.925, 498.998 401.288, 499.430 402.250 C 500.063 403.663, 499.725 404, 497.678 404 C 493.407 404, 490.552 408.152, 493.082 410.682 C 493.858 411.458, 493.814 412.326, 492.924 413.750 C 491.102 416.668, 492.359 418.657, 496.518 419.437 C 500.040 420.098, 500.123 420.206, 498.497 422.003 C 493.642 427.368, 498.161 435.813, 506.382 436.740 L 511 437.260 507.027 441.380 C 504.842 443.646, 502.480 446.241, 501.777 447.148 C 500.942 448.225, 498.497 448.947, 494.718 449.233 C 485.245 449.949, 480 456.768, 480 468.366 C 480 471.947, 479.636 473, 478.400 473 C 477.520 473, 475.214 474.586, 473.276 476.524 C 469.030 480.770, 469.189 484.461, 474.035 494.230 C 478.490 503.208, 482.203 507.296, 490.729 512.610 C 497.812 517.025, 498.245 517.479, 495.974 518.111 C 491.517 519.353, 488.310 519.032, 485.850 517.096 C 484.519 516.049, 481.576 514.694, 479.312 514.084 C 475.424 513.037, 475.124 512.685, 473.952 507.799 C 473.135 504.395, 471.704 501.703, 469.772 499.939 C 467.314 497.694, 466.743 496.253, 466.278 491.128 C 465.972 487.757, 465.425 485, 465.061 485 C 463.230 485, 462 487.892, 462 492.200 C 462 496.940, 461.960 497, 458.778 497 L 455.556 497 457.768 494.788 L 459.980 492.575 456.794 489.288 L 453.608 486 456.054 485.842 C 457.399 485.754, 459.390 485.767, 460.479 485.870 C 461.997 486.014, 462.183 485.783, 461.280 484.880 C 460.632 484.232, 456.017 483.364, 451.023 482.950 C 446.030 482.537, 441.281 481.649, 440.472 480.977 C 439.256 479.968, 439 475.864, 439 457.423 C 439 435.236, 439.015 435.075, 441.380 432.711 C 443.591 430.500, 443.743 429.664, 443.518 420.916 L 443.276 411.500 440.138 411.187 C 436.582 410.832, 436.599 410.890, 438.127 404.272 C 439.454 398.523, 437.586 393.553, 433.515 392.006 C 431.673 391.305, 431.055 390.229, 430.813 387.299 C 430.453 382.928, 428.222 382.575, 424.250 386.261 L 422 388.349 422 384.142 C 422 378.750, 419.627 373, 417.401 373 C 416.465 373, 413.771 375.042, 411.414 377.537 L 407.129 382.074 405.450 378.537 C 403.100 373.584, 400.427 373.841, 398.052 379.250 L 396.186 383.500 395.023 380.330 C 393.024 374.880, 389.639 374.813, 388.456 380.199 C 388.042 382.087, 385.575 385.595, 382.379 388.842 C 379.421 391.848, 377 394.736, 377 395.259 C 377 395.783, 375.875 397.548, 374.500 399.182 C 371.834 402.351, 371.399 405.288, 372.979 409.445 C 373.746 411.463, 373.531 412.722, 371.983 415.260 C 369.311 419.642, 369.476 422.610, 372.500 424.592 C 373.875 425.493, 375 426.993, 375 427.926 C 375 428.859, 376.012 430.710, 377.250 432.038 C 379.532 434.487, 380.710 442.049, 380.920 455.612 L 381 460.725 375.316 461.393 C 372.190 461.760, 369.152 462.445, 368.566 462.914 C 367.980 463.383, 365.249 464.240, 362.498 464.820 C 359.747 465.399, 356.796 466.141, 355.941 466.469 C 355.046 466.813, 353.174 466.023, 351.524 464.605 C 345.289 459.247, 340.089 461.267, 335.404 470.864 L 332.298 477.229 326.690 477.364 L 321.082 477.500 321.664 471.931 C 322.486 464.074, 319.994 455.923, 315.756 452.606 C 312.588 450.127, 312.535 449.950, 312.857 442.979 C 313.269 434.053, 310.696 429.539, 302.585 424.961 C 298.772 422.809, 297.002 421.128, 296.531 419.210 C 293.699 407.691, 276.369 403.782, 266.289 412.388 C 264.367 414.029, 263.686 414.113, 261.075 413.031 C 255.378 410.671, 242.419 418.863, 238.543 427.274 C 235.638 433.577, 233.457 435.550, 227.799 436.992 C 221.102 438.699, 215.233 442.006, 212.471 445.627 C 210.195 448.611, 203 462.865, 203 464.390 C 203 464.731, 201.916 467.258, 200.590 470.005 C 198.745 473.830, 198.511 475, 199.590 475 C 200.366 475, 201 475.810, 201 476.800 C 201 477.790, 201.532 479.133, 202.183 479.783 C 203.777 481.377, 203.178 481.788, 198.067 482.605 C 193.762 483.294, 193.715 483.270, 194.216 480.651 C 194.879 477.180, 194.862 477.185, 185.190 483.002 C 175.387 488.898, 176 488.763, 176 485.021 C 176 478.744, 167.301 451.187, 163.272 444.700 C 160.790 440.703, 152.871 435, 149.804 435 C 148.595 435, 148.005 434.258, 148.015 432.750 C 148.042 428.780, 149.168 428.021, 153.525 429.031 C 171.733 433.252, 194.046 424.299, 206.549 407.757 C 219.022 391.254, 221.358 377.422, 214.564 360.309 C 211.128 351.655, 211.128 351.653, 213.064 349.192 C 215.551 346.030, 215.519 343.805, 212.961 342.208 C 209.887 340.288, 211.025 320.024, 214.653 312.088 C 226.222 286.783, 213.817 263.926, 187.622 262.284 C 182.227 261.946, 178.374 261.132, 176.145 259.859 C 172.939 258.029, 169.957 257.390, 153 254.903 C 138.902 252.835, 110.906 255.081, 101.500 259.034 C 100.400 259.496, 98.375 260.184, 97 260.563 C 90.071 262.472, 74.466 271.075, 65.938 277.687 C 59.571 282.624, 58.880 282.763, 54.875 279.911 C 53.132 278.670, 52.054 278.336, 52.220 279.089 C 52.392 279.869, 50.906 280.646, 48.355 281.108 C 34.349 283.648, 23.278 295.368, 19.501 311.653 C 16.651 323.941, 18.624 354.873, 23.073 367.648 C 24.194 370.866, 25.358 374.265, 25.659 375.200 C 25.961 376.135, 25.318 378.160, 24.232 379.700 C 11.637 397.553, 7.518 422.923, 12.441 452.329 C 14.419 464.144, 16.775 479.363, 17.963 488 C 19.075 496.087, 21.061 509.221, 23.519 524.752 C 24.367 530.113, 25.495 537.650, 26.025 541.500 C 26.555 545.350, 27.432 550.750, 27.975 553.500 C 28.517 556.250, 29.614 562.100, 30.413 566.500 C 35.056 592.085, 36.151 597.888, 37.014 601.500 C 37.540 603.700, 38.892 609.550, 40.018 614.500 C 41.143 619.450, 42.460 624.400, 42.942 625.500 C 43.425 626.600, 44.809 629.655, 46.018 632.288 L 48.215 637.076 45.452 641.288 C 43.932 643.605, 40.145 648.875, 37.036 653 C 17.715 678.636, 13.817 684.557, 14.181 687.724 L 14.500 690.500 156.500 691.019 C 306.642 691.567, 726.325 690.421, 748.715 689.401 C 766.230 688.603, 766.436 688.114, 755.418 673.500 C 752.516 669.650, 745.657 661.111, 740.177 654.525 L 730.212 642.549 733.052 640.822 C 736.008 639.024, 736.393 637.805, 737.417 627 C 737.969 621.176, 739.932 607.709, 742.519 592 C 745.151 576.016, 747.032 561.898, 747.663 553.392 L 748.264 545.285 745.132 543.898 C 741.524 542.301, 741.520 542.278, 743.463 532.708 C 745.481 522.769, 747.433 511.041, 751.404 485 C 752.200 479.775, 753.582 471, 754.475 465.500 C 756.332 454.058, 758.595 439.679, 760.140 429.500 C 760.725 425.650, 761 419.575, 760.751 416 C 759.665 400.381, 746.543 384.502, 730.571 379.478 C 724.150 377.459, 724.114 377.362, 727.673 371.730 C 737.579 356.056, 742.749 335.902, 741.684 317.106 C 741.218 308.865, 741.440 305.530, 742.718 301.624 C 745.919 291.836, 741.652 279.416, 733.698 275.372 C 731.939 274.477, 730.382 273.647, 730.237 273.526 C 730.092 273.406, 730.683 271.611, 731.549 269.537 C 736.099 258.647, 718.728 244.351, 706.565 248.975 C 704.284 249.842, 704 249.702, 704 247.707 C 704 242.203, 695.979 234.731, 685.878 230.826 C 674.181 226.303, 643.349 224.234, 628.500 226.975 M 631.500 232.612 C 619.178 234.402, 600.168 240.333, 588.101 246.152 C 567.561 256.056, 555.461 276.740, 559.818 294.500 C 560.754 298.316, 560.804 298.171, 560.900 291.372 C 561.054 280.384, 564.027 275.397, 576 266.043 C 582.547 260.928, 595.279 254.750, 598.330 255.208 C 599.855 255.436, 597.263 257.141, 589.607 260.944 C 576.659 267.375, 566.589 276.344, 565.440 282.470 C 564.124 289.485, 565.447 305.216, 567.652 308.750 L 569.679 312.001 570.777 309.589 C 571.382 308.263, 572.180 305.557, 572.552 303.575 C 572.924 301.593, 573.739 299.641, 574.364 299.236 C 574.989 298.831, 576.839 295.824, 578.475 292.554 C 585.328 278.859, 593.753 271.088, 615.666 258.250 C 625.689 252.378, 625.790 254.472, 615.822 261.500 C 603.386 270.269, 599 277.498, 599 289.228 C 599 300.809, 602.801 312.045, 608.663 317.790 C 611.623 320.692, 611.663 319.815, 608.750 315.877 C 605.996 312.153, 605.051 298.603, 607.027 291.165 C 608.523 285.530, 612.041 278, 613.177 278 C 614.374 278, 614.222 278.936, 612 285.260 C 608.536 295.117, 609.636 313.803, 613.834 316.397 C 614.541 316.834, 614.574 316, 613.936 313.776 C 612.835 309.938, 612.821 303.318, 613.908 300.539 C 614.427 299.210, 614.868 300.880, 615.273 305.714 C 615.831 312.375, 617.770 318.122, 619.903 319.440 C 620.408 319.752, 620.192 317.643, 619.422 314.754 C 617.563 307.771, 617.610 295.099, 619.504 292.597 C 621.436 290.045, 621.749 291.221, 622.275 303 C 622.774 314.157, 625.863 322.037, 631.183 325.721 C 635.188 328.494, 635.256 328.407, 633.352 322.961 C 629.702 312.524, 633.830 294.094, 641.389 287.076 C 644.760 283.946, 644.681 284.824, 641.007 291.334 C 635.223 301.583, 633.678 311.152, 636.250 320.807 L 637.500 325.500 638.067 315 C 638.658 304.066, 641.116 296.632, 646.001 290.999 C 648.556 288.053, 648.534 289.625, 645.926 296.239 C 643.608 302.118, 642.331 316.051, 643.434 323.411 C 644.630 331.387, 654.560 338.588, 657.691 333.750 C 658.153 333.035, 658.740 336.355, 659.061 341.500 L 659.622 350.500 659.811 339.809 C 659.927 333.241, 660.429 328.853, 661.112 328.431 C 663.182 327.151, 663.969 330.467, 663.985 340.532 C 664.001 351.100, 665.534 359.113, 668.366 363.436 L 670.067 366.031 673.783 362.416 C 680.740 355.648, 689.730 353.661, 696.742 357.342 C 703.456 360.865, 708.310 373.749, 706.274 382.645 C 705.017 388.136, 705.554 388.099, 710.500 382.351 C 730.264 359.380, 738.478 332.678, 733.988 306 C 733.294 301.875, 732.428 296.153, 732.064 293.284 C 731.700 290.416, 731.199 287.917, 730.951 287.732 C 728.357 285.794, 724.883 284.133, 722.176 283.539 L 718.882 282.815 722.365 286.298 C 730.094 294.027, 732.695 307.752, 729.228 322.500 C 728.581 325.250, 727.385 332.225, 726.570 338 L 725.088 348.500 725.562 336.431 C 725.822 329.793, 726.478 322.821, 727.018 320.938 C 729.551 312.104, 727.248 297.825, 722.351 292.005 C 718.907 287.912, 718.515 288.654, 720.049 296.369 C 722.045 306.409, 717.435 329.759, 712.905 332.559 C 711.394 333.493, 710.552 332.262, 711.685 330.774 C 715.755 325.430, 718.498 306.367, 716.938 294.269 C 716.458 290.546, 716.051 286.842, 716.033 286.038 C 716.014 285.192, 714.776 286.036, 713.098 288.038 C 711.501 289.942, 709.854 291.165, 709.437 290.756 C 709.020 290.347, 709.496 289.110, 710.494 288.006 C 712.669 285.603, 712.462 285.573, 707 287.500 C 699.613 290.106, 698.578 288.554, 705 284.500 C 709.921 281.394, 710.268 279.563, 705.750 280.553 C 702.096 281.353, 692 287.479, 692 288.896 C 692 289.403, 689.075 292.116, 685.500 294.926 C 681.787 297.843, 679 299.443, 679 298.657 C 679 297.274, 690.465 285.875, 697 280.761 L 700.500 278.022 695.184 278.011 C 691.222 278.003, 687.976 278.874, 682.434 281.435 C 676.358 284.243, 675.180 284.532, 675.991 283.018 C 678.650 278.048, 695.531 272.931, 698.725 276.125 C 699.426 276.826, 701.237 276.990, 703.523 276.562 C 707.138 275.883, 707.167 275.842, 705.361 273.846 C 701.393 269.462, 710.323 267.436, 719.653 270.603 C 725.421 272.562, 727.519 270.904, 726.611 265.107 C 724.874 254.022, 709.437 250.248, 704.190 259.625 C 702.758 262.184, 701.386 260.568, 699.421 254.007 C 697.075 246.174, 693.383 241.847, 685.826 238.071 C 679.096 234.708, 674.585 233.840, 679.539 236.861 C 683.691 239.393, 691 247.862, 691 250.141 C 691 252.906, 690.321 252.512, 684.946 246.632 C 680.150 241.384, 676.391 239.200, 664.500 234.753 C 659.548 232.902, 638.780 231.554, 631.500 232.612 M 627.266 235.513 C 621.110 236.851, 615 239.691, 615 241.216 C 615 242.450, 617.532 242.143, 622.715 240.280 C 628.869 238.067, 652.773 237.771, 657.690 239.846 C 661.790 241.577, 664.166 240.317, 660.444 238.387 C 652.565 234.299, 638.472 233.079, 627.266 235.513 M 116 262.512 C 97.477 266.182, 94.603 268.063, 83.938 283.500 C 68.352 306.059, 62.758 345.972, 72.550 364.744 C 73.341 366.260, 74 367.950, 74.016 368.500 C 74.032 369.050, 74.924 370.625, 76 372 L 77.956 374.500 78 370.500 C 78.047 366.178, 80.757 359.266, 83.195 357.249 C 84.303 356.332, 84.581 354.695, 84.237 351.110 C 83.541 343.868, 87.246 323.769, 90.986 314.500 C 98.119 296.822, 108.512 280.404, 119.632 269.250 C 128.845 260.009, 128.825 259.971, 116 262.512 M 131 263.137 C 118.746 270.591, 99.304 298.943, 93.034 318.500 C 91.800 322.350, 90.352 326.850, 89.815 328.500 C 89.279 330.150, 88.618 336.225, 88.347 342 L 87.855 352.500 90.819 346.500 C 92.449 343.200, 96.205 337.125, 99.167 333 C 102.128 328.875, 107.447 321.225, 110.986 316 C 122.273 299.336, 139.500 276.735, 146.653 269.207 C 150.464 265.197, 153.376 261.709, 153.124 261.457 C 151.508 259.841, 134.266 261.150, 131 263.137 M 155.400 265.848 C 146.532 272.322, 135.079 286.955, 109.493 324.500 C 95.936 344.393, 95.393 345.235, 93.504 349.286 C 92.533 351.368, 92.042 353.375, 92.413 353.747 C 93.565 354.899, 109.345 337.819, 116.279 327.915 C 149.416 280.584, 158.122 269.913, 166.421 266.461 C 171.109 264.511, 169.819 263.039, 163.400 263.015 C 160.457 263.004, 158.200 263.803, 155.400 265.848 M 671 266.627 C 663.766 267.452, 650.412 270.276, 648.107 271.468 C 644.786 273.186, 647.137 274.424, 651.270 273.134 C 656.268 271.573, 668.617 269.695, 678 269.068 C 682.675 268.756, 686.024 268.189, 685.443 267.810 C 683.985 266.859, 675.245 266.143, 671 266.627 M 176.611 270.950 C 171.177 273.131, 167 276.562, 167 278.846 C 167 279.669, 166.384 281.053, 165.631 281.921 C 164.878 282.790, 163.107 286.428, 161.696 290.007 C 159.224 296.278, 156.737 300.994, 151.418 309.500 C 148.925 313.486, 148.932 313.483, 153.382 308.614 C 157.898 303.673, 163.651 293.041, 166.025 285.250 C 166.737 282.913, 167.586 281.008, 167.910 281.017 C 170.530 281.094, 182.494 284.181, 185.164 285.468 C 188.084 286.877, 187.822 286.449, 183.060 282.038 C 180.067 279.267, 178.292 277, 179.114 277 C 181.594 277, 189.231 282.383, 193.750 287.316 C 198.389 292.380, 199.179 291.706, 195.898 285.485 C 193.287 280.536, 189.212 276.075, 186.250 274.924 C 183.453 273.837, 183.213 271.616, 185.988 272.496 C 192.524 274.570, 206 285.757, 206 289.108 C 206 289.599, 206.427 290, 206.948 290 C 208.347 290, 206.283 284.722, 202.945 279.760 C 201.368 277.417, 200.547 275.338, 201.119 275.140 C 202.585 274.633, 207.824 279.833, 210.046 284 C 211.072 285.925, 211.916 286.825, 211.920 286 C 211.944 281.981, 206.311 275.582, 199.872 272.312 C 192.762 268.702, 183.557 268.163, 176.611 270.950 M 595.711 274.598 C 585.184 282.799, 576.428 298.767, 578.901 305.250 C 580.194 308.637, 582 308.843, 582 305.604 C 582 299.808, 591.125 282.461, 596.535 277.971 C 598.878 276.027, 602.265 271, 601.232 271 C 600.735 271, 598.250 272.619, 595.711 274.598 M 78.782 277.166 C 64.215 285.773, 62.181 288.749, 55.314 311.500 C 50.936 326.006, 51.847 341.848, 57.958 357.474 C 60.758 364.633, 80 390.234, 80 386.799 C 80 386.465, 77.736 381.761, 74.970 376.346 C 66.957 360.663, 65.548 354.984, 65.575 338.500 C 65.597 325.392, 67.130 314.617, 69.986 307.500 C 70.427 306.400, 71.576 303.250, 72.540 300.500 C 75.112 293.156, 80.581 282.326, 83.827 278.150 C 89.650 270.659, 89.756 270.680, 78.782 277.166 M 169.321 290.250 C 168.950 299.059, 162.041 310.175, 150.462 320.594 C 146.240 324.392, 139.797 330.228, 136.143 333.562 C 132.489 336.895, 127.573 341.107, 125.218 342.921 C 121.857 345.509, 121.178 346.509, 122.059 347.571 C 122.912 348.599, 122.560 350.237, 120.591 354.400 C 119.166 357.412, 118 361.168, 118 362.747 C 118 369.394, 115.974 369.940, 107.439 365.592 C 96.239 359.886, 91.055 359.602, 86.489 364.443 C 76.544 374.988, 87.690 395.525, 102.947 394.770 C 108.335 394.503, 108.404 394.536, 109.361 397.818 C 110.966 403.325, 128.008 415.286, 140.500 419.675 C 147.798 422.239, 149.729 422.486, 162.500 422.493 C 176.487 422.500, 176.506 422.497, 183.354 419.040 C 206.766 407.222, 218.619 379.558, 208.609 360.095 C 205.879 354.787, 205.218 354.059, 204.751 355.845 C 203.992 358.748, 201.418 358.567, 199.387 355.468 C 197.735 352.947, 197.807 348.057, 199.641 338.123 C 200.123 335.509, 199.952 334.849, 198.883 335.206 C 196.818 335.894, 193.793 344.965, 194.198 349.250 C 194.440 351.810, 194.148 353, 193.276 353 C 190.200 353, 193.163 336.123, 197.065 331.422 C 197.714 330.640, 199.549 330, 201.144 330 C 207.017 330, 207.191 322.164, 201.366 319.949 C 198.278 318.775, 198.537 315.640, 201.760 315.180 C 204.395 314.805, 204.489 314.107, 202.536 309.431 C 200.787 305.247, 190.702 294.415, 186.559 292.272 C 184.442 291.177, 170.422 286, 169.575 286 C 169.534 286, 169.419 287.913, 169.321 290.250 M 44.359 288.687 C 26.791 294.774, 20.074 315.803, 24.936 349.500 C 27.952 370.402, 28.969 373.569, 32.538 373.174 C 36.539 372.732, 36.546 372.708, 34.251 367.280 C 30.304 357.947, 28.721 349.060, 28.678 336 C 28.607 314.611, 33.482 304.599, 50.695 290.786 C 55.625 286.829, 52.607 285.829, 44.359 288.687 M 592.969 293.061 C 590.940 297.037, 587 313.208, 587 317.557 C 587 318.766, 587.675 320.315, 588.500 321 C 592.515 324.332, 588.625 326.047, 582.750 323.534 C 581.184 322.865, 581 323.483, 581 329.405 L 581 336.024 584.808 335.415 C 592.454 334.192, 598 343.289, 598 357.054 C 598 366.502, 595.843 371.223, 590.098 374.350 L 585.385 376.915 585.984 382.354 C 586.680 388.679, 587.872 390.408, 593.360 393.060 C 598.018 395.310, 608.450 395.690, 613.679 393.799 C 617.500 392.417, 617.817 391.507, 615 390 C 612.533 388.680, 612.391 386.989, 614.750 387.032 C 617.144 387.075, 619.675 389.145, 621.400 392.469 C 623.638 396.783, 621.309 400.148, 618.610 396.499 C 617.643 395.191, 616.404 395.411, 609 398.209 C 604.325 399.976, 600.358 401.751, 600.185 402.154 C 600.012 402.558, 598.325 403.398, 596.435 404.021 C 592.074 405.461, 591.843 408, 596.073 408 C 598.462 408, 599.072 408.390, 598.810 409.750 C 598.578 410.951, 597.535 411.500, 595.486 411.500 C 592.941 411.500, 592.174 410.836, 590.291 407 C 587.341 400.989, 587.266 401.147, 593.250 400.802 C 599.488 400.443, 599.659 399.417, 593.986 396.383 C 586.324 392.285, 584 389.534, 584 384.565 C 584 381.006, 583.498 379.750, 581.422 378.118 L 578.845 376.090 585.331 373.149 C 595.162 368.692, 597.446 363.405, 594.495 351.938 C 592.743 345.127, 589.849 341, 586.826 341 C 584.498 341, 584.511 342.496, 586.866 345.846 C 589.307 349.318, 589.972 354.228, 588.909 360.926 C 587.800 367.912, 586.486 369.269, 583.898 366.101 C 581.645 363.343, 581.839 363.191, 575.759 372.480 C 570.138 381.069, 571.891 391.836, 581.029 404.847 C 586.423 412.528, 595.400 421.996, 597.298 422.006 C 597.959 422.010, 599.850 422.791, 601.500 423.743 C 605.971 426.323, 635.913 426.265, 644.500 423.660 C 661.845 418.399, 667.535 415.647, 675.712 408.563 C 682.363 402.802, 682.362 402.933, 675.801 399.612 C 668.820 396.079, 669.689 387.447, 676.910 388.602 C 679.677 389.044, 681.483 388.730, 683.403 387.472 C 687.027 385.097, 687.791 386.300, 684.652 389.439 C 682.748 391.343, 681.053 392, 678.045 392 C 672.978 392, 672.597 394.220, 677.250 396.636 C 688.736 402.599, 701.131 393.112, 701.259 378.262 C 701.378 364.372, 692.348 357.433, 681.485 363.067 C 677.957 364.896, 676.422 366.296, 671.783 371.913 C 669.363 374.844, 658.931 360.230, 655.468 349.056 C 653.589 342.998, 653.096 342.334, 648.968 340.309 C 643.856 337.802, 641.344 337.469, 640.760 339.220 C 640.524 339.928, 638.427 338.458, 635.766 335.720 C 632.819 332.688, 630.342 331.013, 628.839 331.035 L 626.500 331.071 628.666 332.285 C 631.359 333.795, 635.442 338.892, 634.618 339.715 C 634.283 340.050, 632.900 339.820, 631.544 339.202 C 630.189 338.585, 626.870 337.786, 624.168 337.428 C 617.313 336.518, 616.328 335.770, 617.785 332.572 C 618.680 330.609, 619.732 329.979, 622.229 329.911 C 625.351 329.825, 625.294 329.763, 621 328.554 C 604.652 323.952, 595.505 312.187, 595.502 295.755 C 595.501 292.041, 595.397 289.002, 595.270 289.001 C 595.144 289.001, 594.108 290.827, 592.969 293.061 M 56.026 295.750 C 38.239 317.129, 40.860 358.252, 61.364 379.500 C 63.629 381.847, 62.608 379.789, 59.358 375.454 C 56.151 371.178, 50 358.945, 50 356.845 C 50 355.882, 49.472 353.936, 48.827 352.520 C 47.930 350.551, 47.930 349.670, 48.827 348.773 C 49.724 347.876, 50 348.120, 50 349.814 C 50 351.031, 50.393 352.809, 50.873 353.764 C 51.354 354.719, 53.266 358.825, 55.123 362.889 C 59.552 372.580, 69.869 386.666, 75.125 390.195 C 81.310 394.349, 82.933 393.597, 77.340 389.168 C 67.583 381.443, 58.397 367.357, 52.450 351 C 50.406 345.378, 49.408 325.364, 50.830 318.500 C 53.389 306.149, 57.684 294.619, 60.417 292.765 C 61.170 292.255, 61.141 292.026, 60.323 292.015 C 59.675 292.007, 57.742 293.688, 56.026 295.750 M 39.379 309.250 C 32.370 317.255, 30.122 333.179, 33.536 350.643 C 36.258 364.572, 37.872 368.711, 42.157 372.756 C 44.339 374.815, 47.033 377.962, 48.144 379.750 C 49.255 381.538, 50.607 383, 51.150 383 C 51.692 383, 51.261 381.762, 50.192 380.250 C 49.123 378.738, 47.216 375.025, 45.954 372 C 44.691 368.975, 43.334 366.050, 42.937 365.500 C 41.461 363.454, 38.102 349.206, 37.044 340.500 C 36.002 331.929, 37.360 317.462, 39.537 313.940 C 40.263 312.765, 41.980 307, 41.605 307 C 41.464 307, 40.462 308.012, 39.379 309.250 M 157 322.664 C 152.157 324.742, 147 329.915, 147 332.696 C 147 335.736, 149.076 335.616, 152.076 332.403 C 154.974 329.298, 161.111 326, 163.992 326 C 166.504 326, 167.836 323.143, 165.896 321.914 C 163.937 320.674, 161.077 320.916, 157 322.664 M 160.740 338.750 C 155.319 344.410, 153.150 356.302, 156.499 362 C 157.307 363.375, 158.260 365.317, 158.618 366.315 C 159.191 367.918, 160.043 368.052, 165.884 367.461 C 176.603 366.377, 177.362 365.509, 176.512 355.307 C 176.123 350.630, 175.409 345.426, 174.926 343.742 C 172.725 336.069, 165.682 333.591, 160.740 338.750 M 165.390 342.765 C 162.949 344.380, 160.799 350.615, 160.270 357.617 L 159.711 365 166.391 365 C 172.685 365, 173.011 364.888, 172.035 363.066 C 171.466 362.002, 171 357.697, 171 353.500 C 171 343.642, 169.218 340.232, 165.390 342.765 M 616.384 346.536 C 614.532 349.363, 614.869 362.074, 616.987 369.250 C 619.865 379, 631.911 367.883, 631.978 355.417 C 632.024 346.798, 620.510 340.240, 616.384 346.536 M 721.254 348.261 C 720.719 348.942, 719.983 351.072, 719.617 352.992 C 718.779 357.401, 717.461 360.622, 712.659 369.999 L 708.818 377.500 711.828 374.640 C 715.472 371.178, 720.662 361.701, 721.826 356.382 C 722.293 354.247, 723.132 352.590, 723.690 352.701 C 724.825 352.925, 724.199 348.241, 722.994 347.496 C 722.572 347.235, 721.789 347.580, 721.254 348.261 M 192 362.911 C 192 363.968, 197.759 369, 198.970 369 C 200.180 369, 201.023 371.775, 200.348 373.536 C 200.024 374.381, 197.788 375.599, 195.379 376.244 C 189.248 377.883, 189.506 380.206, 195.750 379.589 C 198.363 379.332, 200.803 379.093, 201.172 379.060 C 202.951 378.901, 204.118 372.019, 202.818 369.356 C 201.094 365.824, 192 360.406, 192 362.911 M 90.400 365.765 C 87.408 367.763, 85.658 377.052, 88 378.500 C 88.571 378.853, 89 377.979, 89 376.463 C 89 370.481, 94.367 366.520, 99.066 369.035 C 101.584 370.383, 101.515 372.115, 98.852 374.395 C 96.708 376.230, 96.705 376.227, 97.343 373.037 C 97.790 370.800, 97.628 369.957, 96.804 370.232 C 92.821 371.560, 94.039 386.254, 98.222 387.348 C 101.370 388.171, 102.448 387.002, 100.073 385.339 C 95.401 382.066, 98.300 374.529, 104.500 373.828 L 107.500 373.489 103.368 369.244 C 99.239 365.004, 93.747 363.531, 90.400 365.765 M 680.400 369.400 C 676.192 373.608, 675.479 379.588, 678.748 383.250 C 681.304 386.113, 682.165 385.280, 681.465 380.618 C 681.073 378, 681.217 375.984, 681.824 375.609 C 683.127 374.804, 687 379.687, 687 382.135 C 687 383.161, 687.450 384, 688 384 C 688.550 384, 689 382.425, 689 380.500 C 689 376.811, 686.205 373, 683.500 373 C 682.675 373, 682 372.586, 682 372.079 C 682 370.718, 687.554 369.743, 691 370.500 C 694.895 371.355, 694.806 370.462, 690.750 367.989 C 686.220 365.227, 684.313 365.487, 680.400 369.400 M 32.206 383.048 C 27.492 384.939, 26.673 389.709, 28.455 404.889 C 30.269 420.347, 32.198 434.180, 34.465 448 C 35.322 453.225, 36.685 461.775, 37.494 467 C 38.303 472.225, 39.644 480.550, 40.474 485.500 C 41.304 490.450, 42.642 499, 43.447 504.500 C 46.377 524.529, 49.894 542.835, 51.802 547.995 C 52.941 551.072, 55.349 534.075, 55.415 522.500 C 55.479 511.232, 48.814 447.457, 44.547 418.500 C 43.736 413, 42.550 403.100, 41.911 396.500 C 40.520 382.131, 39.166 380.254, 32.206 383.048 M 163.550 386.250 C 159.587 390.213, 159.118 391.957, 161.825 392.664 C 162.828 392.927, 164.207 394.685, 164.890 396.571 C 170.843 413.034, 193.825 414.434, 196.563 398.500 C 196.941 396.300, 197.869 393.612, 198.625 392.527 C 201.662 388.170, 200.307 386.592, 196.250 389.760 C 189.411 395.100, 181.624 396.396, 174.372 393.400 C 168.535 390.989, 166.856 389.203, 168.281 386.921 C 169.174 385.492, 169.172 384.772, 168.275 383.875 C 167.375 382.975, 166.269 383.531, 163.550 386.250 M 390.306 387.934 C 390.627 390.648, 391.774 394.811, 392.854 397.184 C 395.311 402.581, 396.739 409.574, 395.189 408.617 C 394.590 408.247, 391.715 404.265, 388.800 399.768 C 383.695 391.893, 383.489 391.708, 383.191 394.732 C 383.022 396.459, 383.584 399.229, 384.441 400.887 C 385.299 402.544, 386 405.798, 386 408.117 L 386 412.333 382.701 408.516 C 378.767 403.966, 376.960 404.075, 378.207 408.790 C 379.462 413.532, 381.435 413.912, 403.669 413.694 L 423.500 413.500 423.239 411.119 C 422.927 408.283, 417.137 401.383, 415.396 401.774 C 414.652 401.941, 414.365 401.322, 414.661 400.188 C 415.233 397.999, 410.569 392, 408.295 392 C 407.007 392, 406.876 393.059, 407.463 398.750 L 408.160 405.500 405.830 403.222 C 403.975 401.409, 403.470 399.779, 403.355 395.222 C 403.210 389.497, 401.471 383.195, 400.347 384.320 C 400.018 384.648, 399.650 387.073, 399.529 389.709 C 399.340 393.815, 399.036 394.451, 397.404 394.155 C 394.256 393.585, 393.131 392.060, 392.435 387.418 C 391.505 381.214, 389.566 381.684, 390.306 387.934 M 721.806 394.196 C 719.813 406.830, 718.315 413.868, 717.058 416.500 C 716.533 417.600, 715.878 419.400, 715.604 420.500 C 715.329 421.600, 715.362 420.025, 715.677 417 C 715.991 413.975, 716.879 409.072, 717.649 406.105 C 718.420 403.138, 719.318 397.288, 719.646 393.105 L 720.242 385.500 718.180 387.500 C 716.091 389.526, 713.819 406.121, 713.798 419.500 C 713.793 422.250, 713.128 428.550, 712.318 433.500 C 710.459 444.864, 708.457 460.410, 706.444 479.109 L 704.871 493.718 708.807 503.109 C 710.972 508.274, 713.036 513.352, 713.395 514.393 C 714.814 518.514, 715.962 513.191, 719.520 486 C 721.059 474.234, 722.651 463.791, 725.468 447 C 727.243 436.411, 729.570 420.377, 730.981 409 C 732.191 399.246, 734.218 390, 735.147 390 C 736.853 390, 736.959 392.294, 735.571 399.189 C 734.762 403.210, 733.597 410.100, 732.983 414.500 C 730.619 431.438, 729.062 441.848, 727.524 451 C 725.576 462.588, 723.507 476.713, 721.518 492 C 720.695 498.325, 719.399 508, 718.638 513.500 L 717.255 523.500 720.092 532.276 C 724.908 547.170, 724.139 548.613, 728.505 516.500 C 730.442 502.252, 732.762 486.094, 734.536 474.500 C 735.378 469, 736.716 460, 737.510 454.500 C 738.922 444.718, 740.788 433.025, 743.015 420 C 743.626 416.425, 743.853 412.038, 743.518 410.250 C 742.784 406.328, 744.521 405.855, 746.192 409.522 C 747.350 412.064, 746.721 417.947, 742.452 444.500 C 741.656 449.450, 740.339 458.225, 739.525 464 C 738.711 469.775, 737.329 479.225, 736.454 485 C 734.579 497.368, 732.344 513.368, 730.957 524.348 C 730.412 528.665, 729.535 534.065, 729.007 536.348 C 727.519 542.797, 727.879 551.965, 729.855 557.922 L 731.654 563.344 732.837 557.422 C 734.006 551.570, 734.756 547.078, 737.498 529.500 C 738.270 524.550, 739.615 516.225, 740.487 511 C 741.358 505.775, 742.720 497.225, 743.513 492 C 745.031 481.995, 746.846 470.760, 749.488 455 C 755.682 418.055, 755.648 414.132, 749.045 403 C 744.579 395.471, 742.689 393.613, 734.500 388.701 C 723.672 382.208, 723.699 382.196, 721.806 394.196 M 44.403 391.616 C 44.794 394.852, 45.756 402.900, 46.541 409.500 C 47.326 416.100, 48.649 426.225, 49.481 432 C 50.312 437.775, 51.662 448.350, 52.479 455.500 C 53.892 467.858, 56.167 486.425, 57.869 499.500 L 58.651 505.500 59.415 501.500 C 59.835 499.300, 60.823 493.900, 61.611 489.500 C 62.399 485.100, 63.548 479.169, 64.164 476.321 C 65.413 470.550, 64.896 459.495, 62.581 442.500 C 60.831 429.650, 59.666 419.938, 57.949 403.886 L 56.707 392.273 51.103 389.408 C 48.022 387.832, 45.093 386.360, 44.597 386.137 C 44.071 385.901, 43.990 388.195, 44.403 391.616 M 423.930 391.197 C 423.067 391.914, 421.573 393.769, 420.612 395.319 C 418.867 398.132, 418.872 398.150, 422.932 403.411 C 425.169 406.312, 427 409.689, 427 410.916 C 427 415.580, 430.425 412.782, 431.917 406.898 C 433.963 398.826, 433.026 397.115, 428.463 400.596 C 423.788 404.162, 421.939 402.755, 424.423 397.521 C 426.570 392.997, 426.278 389.248, 423.930 391.197 M 60.021 394.792 C 60.072 399.044, 64.021 433.934, 66.043 448 C 68.353 464.078, 67.712 463.286, 71.454 454.678 C 73.274 450.491, 75.025 445.138, 75.345 442.783 C 75.981 438.103, 73.748 400.415, 72.777 399.444 C 72.447 399.114, 69.437 397.548, 66.089 395.964 C 60.813 393.470, 60.003 393.313, 60.021 394.792 M 169.396 397.750 C 173.662 405.859, 185.198 408.377, 190.018 402.251 C 193.258 398.131, 192.660 397.060, 187.750 398.192 C 182.523 399.397, 174.544 398.586, 171.409 396.532 C 168.118 394.376, 167.741 394.605, 169.396 397.750 M 21.667 401.228 C 19.537 406.836, 17 420.319, 17 426.029 C 17 440.653, 26.997 493.872, 35.968 527 C 43.835 556.054, 47.309 567.044, 48.500 566.651 C 49.962 566.169, 49.572 556.562, 47.763 548.500 C 44.918 535.820, 42.133 521.582, 41.504 516.500 C 41.164 513.750, 40.489 509.475, 40.004 507 C 38.824 500.973, 34.083 470.634, 30.550 446.500 C 29.664 440.450, 28.515 433.025, 27.997 430 C 27.479 426.975, 26.363 418.458, 25.518 411.074 C 24.673 403.690, 23.825 397.492, 23.635 397.302 C 23.445 397.111, 22.559 398.878, 21.667 401.228 M 697 402.142 C 686.657 407.626, 674.684 416, 677.186 416 C 679.916 416, 698.513 404.992, 705.327 399.343 C 709.498 395.885, 707.591 396.526, 697 402.142 M 706.654 403.579 C 700.964 410.033, 701.048 409.613, 695.373 459.500 C 694.912 463.556, 695.463 466.458, 698.296 474.872 C 702.324 486.834, 702.350 486.807, 704.489 468.500 C 707.685 441.146, 708.043 438.361, 708.978 433.500 C 709.895 428.739, 712.210 398.877, 711.703 398.369 C 711.570 398.236, 709.298 400.581, 706.654 403.579 M 77.448 413.250 C 77.862 419.988, 78.493 429.009, 78.850 433.297 L 79.500 441.095 84.405 436.106 L 89.309 431.117 87.976 417.626 L 86.642 404.135 82.538 402.568 C 80.280 401.705, 78.042 401, 77.565 401 C 77.080 401, 77.028 406.409, 77.448 413.250 M 109 412.596 C 109 421.712, 107.082 431.844, 104.822 434.672 C 103.306 436.568, 105.943 439.690, 113 444.354 C 128.221 454.413, 145.421 455.641, 149.030 446.927 C 150.347 443.748, 149.685 442, 147.163 442 C 146.218 442, 144.402 441.269, 143.127 440.376 C 140.695 438.673, 140.675 437.964, 142.827 429.684 C 143.668 426.449, 143.566 425.796, 142.160 425.398 C 135.544 423.524, 124.818 416.765, 118.119 410.250 C 114.019 406.262, 110.290 403, 109.832 403 C 109.375 403, 109 407.318, 109 412.596 M 90.502 413.817 C 91.509 428.521, 91.704 429.228, 94.294 427.613 C 95.507 426.857, 97.684 425.964, 99.131 425.630 C 101.647 425.048, 101.793 424.645, 102.479 416.409 C 103.311 406.418, 103.319 406.429, 95.703 405.694 L 89.907 405.135 90.502 413.817 M 691.601 414.976 C 688.356 417.132, 682.342 419.931, 678.236 421.198 C 669.892 423.771, 668.676 425.284, 669.202 432.440 C 669.465 436.026, 669.931 436.699, 673.224 438.244 C 675.272 439.205, 677.727 441.231, 678.679 442.746 C 679.630 444.261, 682.030 447.525, 684.011 450 C 685.993 452.475, 688.576 456.064, 689.751 457.976 C 692.687 462.750, 692.552 463.308, 695.438 434.500 C 696.265 426.250, 697.239 417.587, 697.602 415.250 C 698.396 410.145, 698.841 410.165, 691.601 414.976 M 271.304 414.956 C 267.705 417.151, 265.817 419.779, 263.904 425.258 C 261.662 431.680, 258.080 434.284, 252.614 433.465 C 246.219 432.506, 246.596 430.403, 253.153 430.457 C 259.375 430.509, 260.663 428.623, 255.837 426.528 L 252.500 425.078 256.820 425.039 C 260.661 425.004, 261.104 424.762, 260.820 422.852 C 260.195 418.658, 257.487 418.234, 251.459 421.389 C 245.299 424.612, 242.757 427.589, 241.117 433.500 C 239.818 438.179, 240.955 439.566, 246.924 440.586 C 248.891 440.922, 252.719 441.827, 255.432 442.598 C 261.510 444.326, 263.072 444.358, 262.750 442.750 C 262.603 442.017, 263.754 441.377, 265.532 441.203 C 272.838 440.487, 280.829 451.291, 275.928 455.259 C 272.550 457.995, 269.303 458.428, 266.406 456.530 C 264.987 455.601, 263.696 454.989, 263.536 455.170 C 263.376 455.352, 262.239 457.525, 261.009 460 C 259.778 462.475, 257.698 465.932, 256.386 467.683 C 255.074 469.434, 254 471.535, 254 472.352 C 254 474.749, 267.388 486.277, 274.274 489.808 C 280.605 493.056, 280.616 493.057, 290.082 492.187 C 298.789 491.387, 299.980 491.011, 304.808 487.542 C 308.587 484.828, 309.908 483.287, 309.516 482.052 C 309.194 481.037, 309.836 479.553, 311.088 478.420 C 315.011 474.870, 317.707 467, 315 467 C 314.450 467, 314 467.693, 314 468.540 C 314 474.367, 307.114 482.441, 298.585 486.616 C 290.891 490.381, 289.519 490.695, 290.362 488.500 C 290.845 487.241, 289.538 486.988, 282.219 486.924 C 277.423 486.882, 271.925 486.241, 270 485.500 C 265.539 483.782, 265.416 483.811, 278.824 483.425 C 292.599 483.028, 299.878 481.122, 303.344 477.003 C 306.763 472.940, 307.496 470.221, 305.726 468.178 C 303.784 465.937, 304.581 459, 306.781 459 C 307.640 459, 309.110 459.694, 310.048 460.543 C 311.580 461.930, 311.813 461.930, 312.342 460.550 C 313.055 458.694, 309.373 455, 306.811 455 C 304.608 455, 304.543 453.546, 306.500 448 C 309.006 440.896, 308.510 438.419, 303.532 433.192 L 299.064 428.500 299.125 436.232 C 299.182 443.561, 296.693 450.981, 294.168 451.007 C 293.801 451.011, 292.429 452.586, 291.121 454.507 C 288.893 457.778, 285 459.317, 285 456.926 C 285 456.336, 287.475 452.935, 290.500 449.369 C 296.147 442.713, 296.731 441.235, 294.997 437.995 C 294.437 436.948, 294.382 435.882, 294.872 435.579 C 295.856 434.971, 294.603 426.995, 293.075 424.140 C 292.535 423.132, 289.936 421.504, 287.297 420.522 C 278.787 417.355, 279.187 416.197, 288 418.489 C 290.294 419.085, 290.215 418.886, 287.038 416.069 C 282.810 412.322, 276.372 411.866, 271.304 414.956 M 429.500 416.570 C 423.278 418.301, 389.974 418.526, 383.439 416.880 C 378.531 415.644, 376 416.716, 376 420.029 C 376 422.464, 388.446 423.363, 414.954 422.841 C 435.744 422.432, 436.317 422.302, 437.390 417.750 C 438.149 414.528, 437.297 414.401, 429.500 416.570 M 659.620 422.016 C 656.936 423.561, 650.082 426.327, 644.389 428.162 C 633.335 431.727, 633.207 431.858, 635.500 437.346 C 637.495 442.119, 637.395 444.181, 634.915 449.457 C 632.305 455.010, 633.035 457.560, 637.823 459.604 C 645.327 462.809, 659.696 459.260, 669.002 451.904 C 674.878 447.259, 674.945 446.986, 670.727 444.917 C 664.338 441.783, 660.969 430.472, 664.028 422.426 C 665.408 418.796, 665.242 418.781, 659.620 422.016 M 381.454 427.881 C 381.243 428.091, 381.498 429.062, 382.020 430.038 C 385.320 436.203, 437.999 435.039, 438 428.801 C 438.001 427.589, 382.654 426.689, 381.454 427.881 M 385.512 446.219 C 386.394 461.119, 386.189 460.617, 391.687 461.371 C 402.424 462.842, 411.587 466.997, 417.631 473.133 C 422.139 477.710, 422.733 478, 427.596 478 C 432.113 478, 432.843 477.716, 433.370 475.750 C 434.163 472.792, 434.162 457.584, 433.368 446.404 L 432.736 437.500 411.618 437.482 C 400.003 437.472, 389.241 437.120, 387.702 436.701 L 384.904 435.938 385.512 446.219 M 550.436 438.361 L 547.372 440.550 551.204 443.278 C 556.585 447.109, 559.198 452.651, 556.539 454.595 C 555.482 455.368, 555.073 456, 555.629 456 C 557.949 456, 564.876 463.161, 565.557 466.262 C 567.044 473.042, 571.957 479.541, 584.138 490.844 C 599.575 505.167, 602.817 506.549, 608.923 501.411 C 613.085 497.909, 612.835 495.718, 607.211 486.441 L 602.422 478.540 592.430 474.487 C 575.487 467.614, 569.224 462.174, 562.433 448.429 C 558.662 440.798, 555.406 435.930, 554.177 436.086 C 553.805 436.133, 552.121 437.157, 550.436 438.361 M 88.997 439.715 C 86.327 441.585, 78.595 452.599, 76.511 457.500 C 72.064 467.958, 68.220 485.835, 64.469 513.500 C 63.187 522.959, 61.684 532.519, 58.419 552 C 55.643 568.561, 53.034 589.581, 53.017 595.523 C 53.001 601.304, 53.130 601.614, 56.250 603.268 C 69.584 610.337, 88.193 609.280, 106.770 600.399 C 119.305 594.406, 130.125 591, 136.628 591 C 139.582 591, 142 590.550, 142 590 C 142 589.450, 141.386 589, 140.635 589 C 139.884 589, 138.109 588.087, 136.691 586.971 C 133.277 584.286, 128.445 585.453, 113.500 592.571 C 96.513 600.661, 90.091 602.293, 76.996 601.845 C 70.123 601.609, 65.612 601.012, 64.835 600.235 C 63.855 599.255, 65.978 599, 75.127 599 C 88.042 599, 97.351 596.578, 112.047 589.393 C 120.942 585.045, 129.430 582, 132.657 582 C 136.250 582, 135.436 580.829, 129.090 576.868 C 122.055 572.479, 113.017 561.082, 105.911 547.641 C 101.619 539.521, 100.773 538.500, 98.340 538.500 C 94.288 538.500, 91.851 534.134, 86.141 516.642 C 79.895 497.508, 78.265 487.320, 79.946 477.916 C 81.093 471.495, 83.127 467.778, 84.382 469.809 C 84.690 470.307, 84.505 472.239, 83.971 474.101 C 81.861 481.459, 83.094 490.389, 88.444 506.500 C 89.723 510.350, 91.558 516.087, 92.522 519.250 C 94.507 525.764, 94.594 525.794, 103.246 522.929 C 110.372 520.568, 110.659 520.451, 121.500 515.455 C 125.900 513.427, 130.943 511.147, 132.706 510.389 L 135.912 509.010 132.070 500.755 C 128.221 492.485, 126.468 488.482, 123.884 482.063 C 123.123 480.172, 120.567 474.587, 118.205 469.652 C 115.842 464.716, 114.125 460.117, 114.388 459.432 C 114.654 458.738, 113.585 457.656, 111.970 456.987 C 110.377 456.328, 104.997 451.863, 100.014 447.066 C 91.697 439.060, 90.793 438.457, 88.997 439.715 M 224.791 442.988 C 218.855 444.778, 215.818 448.146, 210.879 458.414 C 205.091 470.450, 204.516 475.607, 208.517 479.608 C 211.278 482.369, 213.408 482.210, 218.124 478.891 C 219.567 477.875, 225.417 475.869, 231.124 474.433 C 236.831 472.997, 243.684 470.640, 246.354 469.196 C 251.908 466.190, 251.029 464.934, 245.295 467.682 C 242.668 468.940, 239.192 469.500, 234 469.500 C 225.336 469.500, 223.069 467.797, 230.523 466.887 C 239.054 465.845, 246.479 463.196, 252.923 458.893 C 260.579 453.780, 260.279 453.021, 252.196 457.060 C 245.487 460.413, 230.821 462.925, 225.604 461.615 C 221.388 460.557, 223.545 459.173, 230.513 458.464 C 237.142 457.790, 254.413 452.634, 257.427 450.430 C 260.180 448.417, 258.857 447.735, 255.412 449.392 C 251.110 451.461, 242.055 452.245, 236.596 451.021 C 231.160 449.803, 221.028 451.166, 217.583 453.579 C 214.829 455.509, 213.447 455.373, 215.128 453.338 C 218.690 449.026, 226.450 447.004, 239.779 446.916 L 252.500 446.832 245.500 444.484 C 238.371 442.091, 229.817 441.474, 224.791 442.988 M 154 447.813 C 154 451.759, 146.518 456.549, 138.911 457.473 C 133.563 458.123, 121.459 455.385, 118.294 452.809 C 117.036 451.785, 115 452.500, 115 453.966 C 115 455.673, 129.801 461, 134.546 461 C 144.729 461, 155 454.935, 155 448.923 C 155 447.315, 154.775 446, 154.500 446 C 154.225 446, 154 446.816, 154 447.813 M 623.420 449.885 C 617.902 453.250, 612.663 461.003, 607.398 473.592 C 606.189 476.483, 606.337 477.033, 609.689 482.092 C 611.660 485.066, 614.159 488.479, 615.241 489.676 C 616.324 490.873, 616.942 492.284, 616.616 492.813 C 616.289 493.341, 616.580 494.237, 617.261 494.804 C 618.239 495.617, 618.446 492.741, 618.242 481.167 C 617.983 466.484, 619.335 456.055, 621.595 455.302 C 622.344 455.052, 622.888 462.910, 623.355 480.720 C 623.726 494.899, 624.317 512.239, 624.669 519.254 L 625.308 532.007 632.172 534.051 C 640.019 536.388, 640.542 536.252, 641.405 531.653 C 641.753 529.800, 643.139 525.473, 644.485 522.037 C 646.637 516.548, 646.756 515.613, 645.467 514.324 C 643.613 512.470, 643.593 508.124, 645.416 503.270 C 646.195 501.197, 647.577 496.800, 648.488 493.500 C 651.859 481.291, 657.619 469.394, 661.434 466.765 C 662.129 466.287, 662.142 466.025, 661.473 466.015 C 660.907 466.007, 659.510 466.655, 658.368 467.455 C 643.421 477.924, 623.193 467.822, 626.920 451.750 C 627.915 447.457, 627.641 447.311, 623.420 449.885 M 158 450.835 C 158 458.810, 148.408 464.505, 135 464.491 C 128.147 464.484, 125.670 464.048, 122.219 462.241 C 116.612 459.306, 116.319 459.402, 119.465 463.141 C 121.755 465.862, 133 487.747, 133 489.482 C 133 490.481, 136.822 498.839, 141.080 507.153 C 145.277 515.346, 145.961 519.363, 143.405 520.793 C 141.974 521.594, 142.043 522.243, 144.075 527.093 C 147.041 534.170, 147.838 535.142, 149.855 534.144 C 150.760 533.696, 154.151 532.719, 157.391 531.971 L 163.283 530.613 162.775 498.839 C 162.379 474.120, 162.548 466.663, 163.535 465.254 C 164.584 463.756, 164.454 462.409, 162.784 457.471 C 160.435 450.526, 158 447.149, 158 450.835 M 675.500 453.144 C 672.369 456.313, 657.952 462.892, 651.539 464.077 C 644.345 465.407, 636.857 464.462, 633.466 461.795 C 629.752 458.873, 629.372 460.236, 632.955 463.625 C 639.589 469.900, 651.108 469.104, 668 461.204 C 671.591 459.524, 675.266 458.621, 678.588 458.601 L 683.676 458.571 681.088 454.824 C 678.086 450.477, 678.123 450.488, 675.500 453.144 M 669.984 464.832 C 664.238 467.852, 659.499 476.114, 655.532 490.029 C 653.600 496.807, 652.127 502.437, 652.259 502.542 C 655.480 505.081, 667.897 508.885, 676.927 510.101 C 686.840 511.435, 687.231 511.177, 689.027 502.118 C 690.414 495.121, 692.991 488, 694.136 488 C 695.448 488, 695.170 496.218, 693.585 504.292 C 692.807 508.256, 691.874 513.253, 691.512 515.396 C 690.617 520.700, 688.372 523.821, 685.186 524.191 C 683.031 524.441, 682.393 525.168, 681.837 528 C 679.867 538.047, 673.957 556.615, 669.648 566.298 C 666.257 573.917, 663.574 577.571, 658.868 580.980 L 655 583.783 662.122 585.391 C 681.662 589.804, 705.693 585.762, 722.374 575.258 C 726.126 572.895, 726.228 572.681, 725.646 568.431 C 725.315 566.018, 724.600 563.246, 724.057 562.272 C 723.514 561.297, 721.300 555.100, 719.137 548.500 C 715.094 536.164, 710.712 524.030, 709.025 520.500 C 708.500 519.400, 706.450 514.450, 704.469 509.500 C 702.489 504.550, 699.843 498.250, 698.588 495.500 C 697.333 492.750, 695.321 487.125, 694.116 483 C 691.728 474.826, 688.845 468.759, 685.680 465.250 C 683.070 462.356, 675.099 462.143, 669.984 464.832 M 378.500 466.491 C 377.950 466.675, 376.294 467.090, 374.820 467.414 C 373.346 467.738, 371.388 468.755, 370.470 469.673 C 369.351 470.791, 367.031 471.369, 363.449 471.422 C 360.491 471.465, 357.518 472.082, 356.800 472.801 C 355.733 473.869, 356.306 473.991, 360 473.483 C 364.957 472.801, 365.168 472.361, 357.805 478.054 C 356.323 479.199, 353.418 482.356, 351.350 485.069 C 347.785 489.743, 345 491.394, 345 488.833 C 345 488.192, 344.730 487.937, 344.400 488.267 C 344.070 488.597, 344.175 489.459, 344.635 490.183 C 345.094 490.908, 345.476 491.780, 345.485 492.122 C 345.493 492.465, 347.863 494.869, 350.750 497.465 L 356 502.185 356 497.452 C 356 484.218, 372.935 468, 386.755 468 C 390.076 468, 391.883 467.619, 391.500 467 C 390.938 466.090, 380.883 465.697, 378.500 466.491 M 297.437 471.007 C 291.460 476.984, 274.544 479.211, 265.805 475.171 C 258.377 471.737, 256.553 472.763, 261.975 477.325 C 266.514 481.145, 271.356 482.349, 279.417 481.662 C 289.861 480.772, 297.076 478.034, 299.381 474.087 C 301.674 470.161, 300.361 468.083, 297.437 471.007 M 389.654 474.259 C 384.160 478.187, 383.954 478.478, 386.241 479.089 C 389.432 479.943, 393.672 482.696, 398 486.725 C 401.290 489.787, 405 491.064, 405 489.135 C 405 487.939, 400.948 482.788, 398.723 481.155 C 390.370 475.023, 389.828 472.182, 397.923 476.955 C 400.764 478.630, 403.717 480, 404.485 480 C 405.253 480, 406.160 480.450, 406.500 481 C 406.840 481.550, 406.432 482, 405.593 482 C 404.328 482, 404.421 482.599, 406.133 485.500 C 408.445 489.420, 408.395 489.394, 411.066 487.965 C 413.767 486.519, 413.477 485, 410.500 485 C 409.125 485, 408 484.550, 408 484 C 408 483.450, 408.675 483, 409.500 483 C 411.722 483, 411.334 481.689, 408.250 478.780 C 405.256 475.956, 398.899 473, 395.819 473 C 394.754 473, 394.160 472.550, 394.500 472 C 394.840 471.450, 397.171 471, 399.681 471 C 403.947 471, 404.627 471.394, 410.122 477.044 C 413.355 480.369, 416 483.519, 416 484.044 C 416 484.570, 416.712 485, 417.583 485 C 419.954 485, 418.709 487.345, 415.926 488.123 C 413.264 488.867, 413.381 489.043, 416.785 489.419 C 419.437 489.711, 421.699 491.635, 420.638 492.695 C 420.237 493.096, 419.036 492.879, 417.968 492.212 C 413.749 489.578, 401 492.058, 401 495.513 C 401 496.331, 401.402 497, 401.893 497 C 402.384 497, 403.035 497.650, 403.340 498.444 C 403.726 499.450, 402.501 499.147, 399.298 497.444 C 394.129 494.695, 390.393 494.388, 387.625 496.483 C 383.220 499.819, 386.701 506.156, 395.539 510.893 C 398.399 512.426, 398.947 513.083, 397.749 513.543 C 396.873 513.879, 395.120 513.600, 393.854 512.922 C 390.698 511.233, 385.108 511.607, 379.875 513.857 L 375.500 515.739 384.267 516.489 C 394.534 517.368, 409.829 515.973, 418.707 513.349 C 425.613 511.308, 428 507.786, 428 499.636 C 428 495.861, 421.991 485, 419.903 485 C 419.406 485, 419 484.196, 419 483.212 C 419 481.304, 410.953 472.973, 407.316 471.116 C 402.447 468.629, 395.898 469.794, 389.654 474.259 M 248.887 477.750 C 243.287 483.942, 243.308 483.805, 247.404 487.182 C 249.459 488.875, 252.277 492.063, 253.669 494.267 L 256.198 498.273 262.849 497.663 C 266.507 497.328, 271.228 496.433, 273.340 495.674 L 277.180 494.296 273.122 492.181 C 265.180 488.041, 261.283 485.123, 256.984 480.095 C 251.892 474.141, 252.097 474.201, 248.887 477.750 M 505.089 481.393 C 504.409 482.212, 503.186 482.625, 502.371 482.312 C 501.542 481.994, 499.966 482.733, 498.798 483.986 C 496.956 485.964, 496.602 486.040, 495.813 484.629 C 495.320 483.749, 493.923 483.084, 492.709 483.150 C 491.494 483.216, 489.712 482.937, 488.750 482.528 C 487.690 482.079, 487 482.223, 487 482.893 C 487 483.502, 487.563 484.007, 488.250 484.015 C 489.143 484.026, 489.101 484.284, 488.103 484.915 C 487.113 485.542, 486.884 486.897, 487.317 489.564 C 488.044 494.044, 488.575 494.654, 492.500 495.521 L 495.500 496.183 492.567 494.152 C 490.955 493.035, 489.536 491.531, 489.414 490.810 C 489.293 490.090, 488.837 488.600, 488.403 487.500 C 487.700 485.722, 487.779 485.667, 489.112 487 C 489.937 487.825, 490.910 489.288, 491.275 490.250 C 491.639 491.212, 492.401 492, 492.969 492 C 494.486 492, 498.159 495.934, 497.555 496.912 C 497.036 497.751, 504.614 499.537, 506.500 499.020 C 507.050 498.869, 508.063 498.728, 508.750 498.706 C 510.293 498.657, 510.408 495.370, 508.899 494.438 C 508.273 494.051, 508.047 492.516, 508.374 490.879 C 509.001 487.747, 507.659 487, 506.173 489.654 C 505.616 490.650, 504.601 491.061, 503.624 490.686 C 501.682 489.941, 501.455 488, 503.309 488 C 504.029 488, 505.491 487.313, 506.559 486.473 C 508.436 484.996, 508.438 484.955, 506.604 485.223 C 505.561 485.375, 504.511 484.938, 504.270 484.250 C 503.981 483.421, 504.957 482.973, 507.167 482.921 C 509 482.878, 509.825 482.585, 509 482.271 C 508.175 481.957, 507.235 481.296, 506.912 480.803 C 506.588 480.309, 505.768 480.575, 505.089 481.393 M 365.453 484.750 C 362.090 488.411, 359 496.280, 359 501.185 C 359 503.682, 369.457 515, 371.764 515 C 372.427 515, 375.248 513.598, 378.033 511.885 C 381.893 509.510, 383.807 508.911, 386.086 509.367 L 389.075 509.965 386.538 506.638 C 385.142 504.808, 384 502.775, 384 502.120 C 384 501.253, 383.475 501.211, 382.066 501.965 C 381.002 502.534, 375.489 502.986, 369.816 502.968 C 360.527 502.940, 359.693 502.790, 361.441 501.468 C 362.791 500.447, 365.947 500, 371.807 500 L 380.231 500 383.887 496 C 387.418 492.137, 387.761 492, 393.894 492 C 401.457 492, 401.217 491.259, 391.633 484.996 C 385.740 481.146, 385.213 481, 377.207 481 L 368.898 481 365.453 484.750 M 425.362 485.696 C 425.745 486.078, 426.662 486.480, 427.400 486.588 C 432.540 487.343, 435.997 493.231, 434.136 498.061 L 433.196 500.500 432.161 498 C 431.309 495.939, 431.116 496.774, 431.063 502.750 C 430.989 511.281, 432.565 512.253, 437.554 506.750 C 444.376 499.224, 444.764 494.938, 439.155 489.042 C 435.602 485.307, 434.905 485, 429.988 485 C 427.061 485, 424.980 485.313, 425.362 485.696 M 179.636 490.990 C 176.504 493.184, 172.604 495.670, 170.970 496.515 C 168.031 498.035, 168 498.140, 168 506.526 C 168 511.187, 168.359 515, 168.797 515 C 169.814 515, 175.650 508.810, 180.077 503.037 C 181.960 500.582, 184.998 497.200, 186.828 495.521 C 189.595 492.984, 190.040 492.008, 189.470 489.735 C 188.528 485.982, 186.396 486.254, 179.636 490.990 M 566.689 487.701 C 565.273 488.068, 565.875 488.803, 569.439 491.063 C 574.301 494.147, 575.262 496, 572 496 C 568.945 496, 569.611 498.466, 573.461 501.402 C 575.513 502.967, 576.702 504.612, 576.383 505.444 C 575.393 508.025, 573.266 507.868, 569.870 504.963 C 567.023 502.528, 565.608 502.075, 560.750 502.041 C 555.286 502.002, 553.249 503.114, 556.500 504.362 C 558.109 504.979, 558.536 507.550, 557.171 508.394 C 556.715 508.676, 554.326 508.301, 551.863 507.559 C 548.472 506.539, 546.131 506.460, 542.215 507.234 C 533.579 508.941, 495.268 503.618, 486.663 499.515 L 481.825 497.208 484.473 499.972 C 489.628 505.353, 514.261 510.278, 536.665 510.407 C 553.295 510.503, 555.192 510.859, 553.020 513.476 C 550.331 516.716, 516.759 514.658, 502.511 510.379 C 501.230 509.994, 500.863 510.118, 501.500 510.718 C 503.263 512.381, 514.191 514.815, 525 515.954 C 530.775 516.562, 537.102 517.488, 539.060 518.013 C 542.748 519.001, 547.856 523.477, 546.660 524.673 C 546.286 525.048, 545.421 524.630, 544.740 523.745 C 543.794 522.517, 541.010 522.008, 533 521.597 C 523.125 521.091, 522.738 521.141, 526.500 522.452 C 528.700 523.219, 532.075 523.896, 534 523.957 C 535.925 524.018, 539.300 524.922, 541.500 525.967 C 543.700 527.011, 545.650 527.446, 545.833 526.933 C 546.444 525.223, 548 525.972, 548 527.977 C 548 529.931, 557.059 538, 559.252 538 C 559.842 538, 562.164 536.930, 564.412 535.621 C 568.901 533.009, 571.180 533.296, 574.405 536.882 C 575.453 538.047, 577.042 539, 577.937 539 C 578.831 539, 587.196 544.461, 596.525 551.136 C 619.885 567.850, 636.329 575.704, 649.093 576.242 C 655.055 576.493, 655.316 576.396, 658.440 572.784 C 660.207 570.740, 663.347 565.115, 665.417 560.284 C 667.487 555.453, 669.520 550.825, 669.935 550 C 670.350 549.175, 671.706 545.125, 672.949 541 C 674.191 536.875, 675.835 531.572, 676.603 529.215 C 677.372 526.858, 678 524.779, 678 524.594 C 678 524.409, 675.715 523.955, 672.922 523.584 C 670.129 523.214, 664.842 521.776, 661.172 520.390 C 657.502 519.003, 653.767 517.635, 652.870 517.349 C 651.596 516.943, 650.966 517.975, 649.980 522.082 C 649.287 524.971, 647.658 530.045, 646.360 533.357 C 645.062 536.669, 644 540.644, 644 542.190 C 644 544.922, 642.695 545.934, 641.553 544.086 C 641.243 543.583, 637.728 541.955, 633.744 540.468 C 597.817 527.055, 594.700 525.296, 589.184 515.312 C 586.810 511.015, 583.322 505.514, 581.434 503.086 C 577.715 498.305, 577.265 497, 579.337 497 C 581.211 497, 587.622 504.112, 593.945 513.204 C 598.125 519.215, 599.984 521.055, 602.401 521.577 C 604.106 521.945, 607.525 523.258, 610 524.494 C 612.475 525.730, 615.568 527.072, 616.874 527.477 L 619.249 528.214 618.830 515.646 C 618.600 508.734, 618.124 502.791, 617.772 502.439 C 617.420 502.087, 615.256 503.307, 612.963 505.150 C 609.045 508.299, 608.332 508.500, 601.099 508.500 L 593.403 508.500 582.496 497.750 C 576.497 491.837, 570.894 487.052, 570.044 487.116 C 569.195 487.180, 567.685 487.443, 566.689 487.701 M 195.250 496.662 C 193.299 497.449, 193.674 505.396, 195.750 507.267 C 198.060 509.349, 202.387 510.371, 205.541 509.579 C 208.841 508.751, 208.142 507.800, 201.400 503.943 C 196.565 501.177, 195.920 500.453, 196.440 498.382 C 196.769 497.072, 196.917 496.036, 196.769 496.079 C 196.621 496.122, 195.938 496.385, 195.250 496.662 M 285.500 497.085 C 283.300 497.467, 277.450 498.911, 272.500 500.293 C 267.550 501.676, 261.813 503.096, 259.750 503.449 C 256.964 503.926, 256 504.577, 256 505.982 C 256 507.586, 256.533 507.788, 259.500 507.306 C 265.128 506.393, 263.536 508.440, 256.750 510.843 C 249.944 513.253, 245.743 515.559, 249.768 514.676 C 256.927 513.104, 258.554 526.568, 251.929 532.564 C 249.177 535.054, 249.546 536.123, 252.737 534.910 C 257.897 532.948, 271.046 532.649, 278 534.335 C 289.320 537.081, 301.459 539, 307.500 539 C 318.471 539, 342.216 533.903, 345.472 530.850 C 347.839 528.630, 346.381 528.488, 341.270 530.441 C 321.864 537.855, 294.289 537.740, 276.057 530.167 C 268.483 527.021, 265.297 522.278, 264.306 512.674 C 263.566 505.504, 266.198 504.221, 277.520 506.235 C 281.425 506.930, 281.665 506.805, 285.877 501.915 C 290.846 496.147, 290.846 496.157, 285.500 497.085 M 326.750 498.716 C 321.392 499.528, 323.571 502.752, 331 505.004 C 336.881 506.787, 342.713 510.071, 343.708 512.160 C 344.833 514.522, 353 510.737, 353 507.854 C 353 500.017, 342.436 496.340, 326.750 498.716 M 179.677 510.252 C 169.221 521.098, 166.933 524.776, 168.347 528.463 C 168.792 529.622, 169.480 529.764, 171.216 529.056 C 175.807 527.183, 188.535 523.601, 189.750 523.841 C 190.437 523.977, 189.874 522.430, 188.500 520.404 C 185.221 515.573, 185.337 511.463, 188.947 504.602 C 190.567 501.521, 191.580 499.006, 191.197 499.013 C 190.813 499.020, 185.630 504.078, 179.677 510.252 M 447.200 503.200 C 446.540 503.860, 446 504.917, 446 505.550 C 446 510.743, 433.587 519.631, 420.252 523.986 C 401.686 530.048, 375.286 530.250, 358.232 524.460 C 353.050 522.701, 349.692 523.866, 350.189 527.249 C 350.443 528.974, 351.829 529.688, 357.734 531.136 C 385.136 537.854, 441.294 533.659, 452.287 524.072 C 454.054 522.531, 456.413 520.985, 457.528 520.638 C 461.027 519.548, 470.003 510.265, 469.968 507.772 C 469.900 502.893, 468.024 502, 457.840 502 C 451.831 502, 447.964 502.436, 447.200 503.200 M 297.550 505.126 C 295.378 505.635, 292.903 506.656, 292.050 507.395 C 291.198 508.134, 289.938 508.535, 289.250 508.286 C 288.031 507.845, 287.523 509.654, 287.840 513.308 C 287.926 514.303, 287.557 514.844, 287.019 514.512 C 285.677 513.683, 281.575 515.992, 282.643 516.976 C 283.114 517.411, 285.750 518.031, 288.500 518.355 C 291.250 518.678, 292.938 518.693, 292.250 518.388 C 290.015 517.396, 290.788 511.547, 293.490 509.010 C 295.559 507.066, 297.349 506.591, 304.082 506.201 C 309.085 505.912, 311.671 505.407, 310.842 504.881 C 309.143 503.805, 302.683 503.924, 297.550 505.126 M 650 508.818 C 650 511.441, 650.500 511.791, 657.250 513.897 C 661.237 515.141, 665.560 516.584, 666.855 517.105 C 670.219 518.459, 680.344 519.381, 683.404 518.613 C 688.536 517.325, 686.336 515.318, 679.050 514.641 C 672.409 514.024, 654.546 508.810, 652.550 506.906 C 650.859 505.294, 650 505.938, 650 508.818 M 28.132 509 C 28.025 511.907, 28.780 516.930, 33.016 541.500 C 37.716 568.758, 38.772 574.748, 40.514 584 C 41.394 588.675, 42.744 596.100, 43.514 600.500 C 47.875 625.419, 48.796 629.138, 50.938 630.462 C 51.642 630.897, 52 629.112, 52 625.174 C 52 619.848, 51.725 619.050, 49.350 617.494 L 46.701 615.758 47.261 592.428 C 47.727 573.064, 47.582 568.898, 46.411 567.926 C 45.635 567.282, 45 566.316, 45 565.779 C 45 565.242, 44.365 563.384, 43.589 561.651 C 40.862 555.563, 31.066 521.488, 29.172 511.500 C 28.650 508.750, 28.182 507.625, 28.132 509 M 313.773 509.067 C 312.822 509.621, 310.616 512.152, 308.868 514.691 L 305.692 519.308 317.596 518.695 C 335.232 517.786, 342.441 514.371, 334.804 510.545 C 332.987 509.635, 328.713 508.627, 325.307 508.306 C 319.347 507.743, 319.135 507.802, 319.674 509.861 C 319.982 511.037, 320.904 512, 321.724 512 C 322.672 512, 322.993 512.575, 322.607 513.582 C 322.273 514.452, 322 515.352, 322 515.582 C 322 516.754, 318.855 515.786, 318.345 514.457 C 317.816 513.077, 317.565 513.084, 315.976 514.522 C 313.289 516.953, 312.323 514.350, 314.895 511.612 C 318.074 508.228, 317.488 506.902, 313.773 509.067 M 134 513.243 C 132.625 513.852, 129.025 515.470, 126 516.838 C 122.975 518.206, 115.100 521.428, 108.500 523.997 C 98.431 527.916, 96.556 528.976, 96.845 530.584 C 97.355 533.418, 97.467 533.434, 103.727 531.564 C 111.984 529.098, 114.275 528.191, 125.827 522.810 C 131.507 520.165, 136.515 518, 136.955 518 C 138.865 518, 139.818 515.471, 138.557 513.747 C 137.099 511.754, 137.309 511.777, 134 513.243 M 350.998 514.972 C 342.664 521.005, 317.591 525.751, 300.424 524.543 C 292.443 523.982, 275.718 520.584, 270.750 518.515 C 265.952 516.516, 271.128 522.587, 276.500 525.258 C 287.749 530.851, 316.084 532.683, 329.500 528.684 C 337.989 526.153, 347.378 521.237, 351.145 517.350 C 354.804 513.575, 354.724 512.274, 350.998 514.972 M 418.500 517.165 C 407.870 520.040, 397.677 520.965, 385.165 520.189 C 375.117 519.566, 370.581 519.963, 372.029 521.339 C 372.288 521.585, 376.782 522.246, 382.016 522.808 C 395.750 524.283, 409.488 522.718, 421.250 518.339 C 431.564 514.498, 430.320 513.967, 418.500 517.165 M 236 520.408 C 229.019 523.240, 214.092 526.642, 202.566 528.028 C 197.653 528.619, 189.436 530.192, 184.306 531.525 C 179.176 532.858, 169.256 535.128, 162.261 536.569 C 155.110 538.042, 148.373 540.023, 146.868 541.094 C 143.264 543.660, 143 543.551, 143 539.486 C 143 537.554, 142.578 535.191, 142.063 534.236 C 141.547 533.281, 140.117 530.362, 138.885 527.750 C 137.653 525.138, 136.546 523, 136.425 523 C 136.304 523, 133.572 524.297, 130.353 525.882 C 122.817 529.593, 116.690 532.287, 110.750 534.501 C 105.297 536.534, 105.506 536.145, 107.642 540.274 C 116.602 557.601, 132.352 575, 139.076 575 C 143.188 575, 160.200 569.527, 170.950 564.747 C 178.532 561.375, 196.351 552.464, 201.230 549.605 C 204.754 547.540, 207.518 546.797, 212.687 546.523 C 217.610 546.263, 222.527 545.015, 230.409 542.027 C 245.684 536.235, 249.595 533.388, 238 536.500 C 231.119 538.347, 229 538.375, 229 536.619 C 229 535.810, 230.922 534.754, 233.634 534.070 C 240.512 532.339, 245.431 529.513, 248.903 525.301 C 252.740 520.646, 252.955 518.731, 249.250 522.203 C 243.183 527.889, 229.528 531.825, 228.272 528.250 C 228.031 527.563, 228.561 527, 229.450 527 C 231.527 527, 239.784 522.822, 243.010 520.138 C 246.466 517.263, 243.468 517.378, 236 520.408 M 347.349 535.842 C 345.767 537.854, 344.179 538.642, 341.349 538.820 C 333.488 539.314, 333.439 539.390, 332.038 553.267 C 330.782 565.705, 326.299 576.576, 320.852 580.391 C 319.625 581.251, 318.819 582.146, 319.060 582.381 C 319.302 582.616, 329.005 582.562, 340.623 582.259 L 361.746 581.710 362.415 571.105 C 362.783 565.272, 363.771 555.394, 364.611 549.153 C 365.451 542.911, 365.927 537.594, 365.669 537.336 C 365.411 537.077, 362.342 536.260, 358.850 535.519 C 355.357 534.777, 351.825 533.932, 351 533.639 C 350.116 533.325, 348.617 534.229, 347.349 535.842 M 441.783 533.551 C 440.633 534.700, 419.207 537.974, 412.750 537.987 L 406 538 406.007 553.250 C 406.011 561.638, 406.301 571.538, 406.652 575.250 L 407.289 582 420.753 582 L 434.217 582 433.566 579.250 C 433.208 577.737, 431.921 575.707, 430.707 574.738 C 422.472 568.164, 420.756 566.442, 418.985 562.971 C 416.504 558.107, 416.494 555.912, 418.934 551.129 C 421.838 545.437, 432.723 538.296, 441.140 536.561 C 443.870 535.999, 445.971 533, 443.635 533 C 442.919 533, 442.086 533.248, 441.783 533.551 M 367.095 552.130 C 366.365 560.033, 365.547 569.987, 365.278 574.250 L 364.788 582 384.508 582 L 404.227 582 403.657 577.750 C 403.344 575.413, 402.785 565.737, 402.416 556.250 L 401.744 539 391.019 539 C 385.120 539, 377.622 538.721, 374.358 538.380 L 368.423 537.759 367.095 552.130 M 544 539.685 C 544 540.202, 545.302 541.873, 546.894 543.398 C 557.836 553.882, 549.759 567.159, 529 572.811 C 507.604 578.637, 480.863 577.647, 448.642 569.835 C 426.303 564.420, 420.707 552.694, 436.734 544.886 C 442.120 542.262, 444.767 539.931, 442.250 540.029 C 439.670 540.129, 427.452 546.024, 424.972 548.364 C 403.487 568.643, 476.424 588.079, 527.086 575.575 C 550.382 569.825, 559.067 560.525, 552.740 548.104 C 550.649 544, 544 537.595, 544 539.685 M 291.500 542.484 C 293.700 543.341, 298.200 544.958, 301.500 546.078 C 309.702 548.860, 321.079 554.591, 324.264 557.544 C 325.748 558.920, 327.158 559.553, 327.501 558.998 C 328.201 557.865, 330.914 541.660, 330.483 541.182 C 330.325 541.006, 325.582 541.400, 319.942 542.055 C 310.739 543.125, 301.368 542.922, 291 541.429 L 287.500 540.925 291.500 542.484 M 292.063 548.928 C 294.788 552.319, 295.438 554.124, 295.920 559.625 L 296.500 566.242 299.250 563.485 C 304.168 558.553, 301.343 551.256, 292.835 546.916 L 288.785 544.850 292.063 548.928 M 439.500 547.306 C 429.917 553.002, 429.366 554.445, 434.946 559.222 C 449.513 571.690, 513.242 576.895, 535 567.393 C 541.859 564.398, 543.205 563.531, 546.084 560.251 C 550.618 555.088, 550.019 552.168, 545.312 556.481 C 531.823 568.838, 495.404 573.535, 466.807 566.605 C 451.808 562.971, 444.647 557.761, 443.308 549.510 C 442.686 545.680, 442.458 545.548, 439.500 547.306 M 578.500 547.497 C 577.950 547.684, 575.925 548.105, 574 548.433 C 567.291 549.576, 567.263 549.383, 576.887 568.083 C 585.422 584.667, 585.986 585.492, 588.675 585.324 C 608.099 584.113, 610.057 583.761, 609.423 581.598 C 607.488 574.994, 601.999 565.974, 596.097 559.697 C 586.665 549.667, 581.881 546.350, 578.500 547.497 M 740.738 548.663 C 740.469 549.123, 739.929 552.200, 739.537 555.500 C 738.698 562.563, 736.459 572.871, 734.543 578.500 C 733.793 580.700, 732.397 585.200, 731.439 588.500 C 730.481 591.800, 728.415 596.381, 726.849 598.680 C 723.552 603.517, 723.442 605.043, 725.582 616.230 C 727.714 627.377, 727.987 628.055, 729.137 625.064 C 730.297 622.047, 733.618 606.237, 734.508 599.500 C 734.871 596.750, 736.219 590.425, 737.505 585.444 C 741.484 570.027, 743.997 550.597, 742.238 548.838 C 741.681 548.281, 741.006 548.202, 740.738 548.663 M 559.792 554.346 C 560.350 559.124, 557.596 564.375, 552.010 569.187 L 547.317 573.230 549.538 578.694 C 550.759 581.699, 552.150 584.518, 552.629 584.957 C 554.122 586.326, 582.006 586.991, 581.963 585.656 C 581.942 585.020, 578.172 577.075, 573.584 568 C 565.871 552.743, 565.022 551.477, 562.316 551.201 C 559.526 550.916, 559.409 551.062, 559.792 554.346 M 307.232 554.772 C 321.322 569.763, 314.207 575.655, 270.500 585.191 C 263.972 586.615, 221.051 587.069, 215.250 585.775 C 213.463 585.376, 212.001 585.376, 212.002 585.775 C 212.003 586.174, 215.716 587.386, 220.252 588.470 C 238.608 592.854, 265.107 590.808, 297 582.546 C 300.025 581.762, 305.425 580.368, 309 579.447 C 318.483 577.005, 320.380 575.719, 323.600 569.546 L 326.500 563.988 323.500 561.542 C 319.879 558.590, 311.594 554.096, 307.584 552.908 L 304.668 552.045 307.232 554.772 M 204.909 557.712 C 203.768 560.374, 203.139 563.419, 203.464 564.712 C 204.144 567.423, 205.687 567.720, 206.257 565.250 C 206.581 563.844, 206.922 564.041, 207.991 566.250 C 208.782 567.886, 210.168 569.032, 211.411 569.079 C 212.560 569.122, 212.935 569.386, 212.244 569.664 C 211.553 569.943, 211.230 570.563, 211.526 571.042 C 211.822 571.521, 212.798 571.631, 213.696 571.286 C 214.636 570.926, 215.073 571.073, 214.726 571.634 C 214.395 572.170, 215.520 573.135, 217.227 573.779 L 220.329 574.950 217.150 571.843 C 213.687 568.457, 212.512 565.335, 213.248 561.482 C 213.834 558.415, 211.577 558.103, 209.768 561 C 207.027 565.388, 206.334 562.186, 208.523 555.250 C 209.884 550.937, 206.959 552.929, 204.909 557.712 M 197.928 557.832 C 193.911 560.380, 193.245 561.398, 190.750 568.794 C 186.714 580.759, 186.840 581.377, 193.750 583.457 C 196.912 584.409, 201.396 585.875, 203.712 586.715 C 206.029 587.556, 208.617 587.977, 209.462 587.653 C 212.054 586.658, 211.172 584.284, 207.972 583.644 C 200.322 582.114, 192.107 569.451, 194.853 563.423 C 196.557 559.684, 197.494 560.490, 198.801 566.814 C 200.859 576.782, 206.289 580.168, 223.936 582.493 C 245.691 585.359, 270.352 582.788, 293 575.291 C 307.790 570.395, 312.281 565.131, 307.019 558.861 L 305.037 556.500 305.650 559.780 C 306.189 562.667, 305.790 563.507, 302.330 566.780 C 298.622 570.288, 297.100 570.953, 281 576.087 C 267.222 580.481, 229.403 581.964, 217 578.597 C 203.816 575.017, 197.200 567.215, 200.940 559.657 C 203.476 554.531, 203.299 554.424, 197.928 557.832 M 180.302 566.399 C 175.434 568.835, 174.092 569.997, 174.052 571.816 C 173.987 574.733, 175.692 577.998, 177.285 578.006 C 177.953 578.010, 179.730 578.654, 181.233 579.438 C 184.470 581.127, 184.826 580.700, 185.963 573.764 C 186.437 570.869, 187.138 567.263, 187.521 565.750 C 188.357 562.447, 188.168 562.464, 180.302 566.399 M 166.480 572.884 C 165.229 574.088, 147.735 579.677, 142.608 580.511 C 138.969 581.103, 138.825 581.253, 140.388 582.817 C 141.702 584.130, 144.682 584.600, 154.280 585.008 C 161.001 585.293, 167.066 585.887, 167.757 586.327 C 169.857 587.663, 170.256 584.530, 168.813 578.033 C 167.940 574.104, 167.112 572.275, 166.480 572.884 M 542.450 575.795 C 541.209 576.833, 532.300 579.574, 523.500 581.625 C 519.650 582.522, 509.075 583.583, 500 583.984 L 483.500 584.711 505.500 584.852 C 517.600 584.929, 532.337 585.283, 538.250 585.640 C 550.459 586.375, 550.677 586.208, 546.980 578.960 C 544.923 574.929, 544.140 574.381, 542.450 575.795 M 310.500 585.156 C 298.356 587.234, 286.776 589.953, 285.667 590.988 C 284.024 592.522, 281.263 615.673, 277.975 655.500 C 277.431 662.100, 276.538 670.237, 275.992 673.582 C 275.447 676.927, 275 681.089, 275 682.832 L 275 686 294 686 L 313 686 313 669.333 C 313 660.167, 313.490 638.452, 314.090 621.077 C 315.433 582.160, 315.644 584.276, 310.500 585.156 M 183.150 587.131 C 182.518 588.144, 182 589.397, 182 589.915 C 182 591.048, 192.812 595.234, 193.940 594.537 C 194.376 594.268, 195.579 594.983, 196.614 596.126 C 197.649 597.269, 199.761 598.859, 201.307 599.659 C 214.960 606.719, 221.538 621.706, 218.559 638.966 C 217.004 647.979, 214.060 656.170, 211.268 659.256 C 207.240 663.708, 216.969 661.417, 226.269 655.724 C 238.300 648.359, 244.159 630.436, 239.012 616.738 C 236.771 610.772, 229.804 602.602, 225 600.305 C 214.885 595.468, 199.282 589.731, 197.756 590.287 C 197.065 590.539, 195.600 589.966, 194.500 589.013 C 191.043 586.018, 184.521 584.936, 183.150 587.131 M 318.146 598.750 C 317.511 605.763, 316.695 628.263, 316.334 648.750 L 315.676 686 339.499 686 L 363.323 686 362.663 655.250 C 362.300 638.337, 362.003 615.837, 362.002 605.250 L 362 586 340.650 586 L 319.300 586 318.146 598.750 M 365 613.338 C 365 628.375, 365.297 650.875, 365.660 663.338 L 366.319 686 385.820 686 L 405.322 686 404.663 658.250 C 404.300 642.987, 404.003 620.487, 404.002 608.250 L 404 586 384.500 586 L 365 586 365 613.338 M 407.002 605.250 C 407.003 615.837, 407.300 638.337, 407.663 655.250 L 408.323 686 424.292 686 L 440.262 686 439.597 682.250 C 438.223 674.493, 434.195 607.519, 434.034 589.750 L 434 586 420.500 586 L 407 586 407.002 605.250 M 437.377 600 C 437.742 607.425, 438.474 623.175, 439.002 635 C 439.897 655.016, 441.407 675.123, 442.587 682.750 L 443.091 686 458.577 686 L 474.063 686 473.505 675.250 C 473.198 669.337, 472.501 659.100, 471.956 652.500 C 470.702 637.310, 469.064 613.658, 468.304 599.755 C 467.981 593.834, 467.220 588.602, 466.609 588.101 C 465.999 587.600, 459.023 587.035, 451.106 586.845 L 436.713 586.500 437.377 600 M 720 589 C 720 590.825, 719.481 592, 718.674 592 C 717.038 592, 713 596.177, 713 597.869 C 713 599.680, 709.100 607.946, 706.738 611.141 L 704.702 613.894 708.894 618.697 C 711.199 621.339, 716.104 627.081, 719.793 631.457 L 726.500 639.415 726.817 636.159 C 727.022 634.056, 726.267 631.417, 724.686 628.702 C 723.339 626.391, 720.754 620.073, 718.939 614.661 C 715.761 605.180, 715.700 604.707, 717.270 601.661 C 721.581 593.293, 723.318 586, 721 586 C 720.450 586, 720 587.350, 720 589 M 470.433 594.096 C 471.632 604.661, 473.940 637.990, 475.185 662.722 L 476.354 685.945 533.177 685.958 C 594.139 685.972, 591.816 686.169, 589.013 681.236 C 588.471 680.281, 586.558 675.749, 584.763 671.165 L 581.500 662.830 574.500 662.411 C 569.526 662.114, 566.776 661.424, 565 660.026 C 563.625 658.944, 559.663 656.622, 556.195 654.865 C 539.290 646.302, 531.946 627.906, 539.490 613.020 C 543.094 605.907, 551.346 597.331, 556.963 594.859 C 559.458 593.762, 562.850 592.229, 564.500 591.454 L 567.500 590.046 564.500 589.954 C 562.850 589.903, 554.130 589.674, 545.122 589.445 L 528.743 589.029 529.319 592.264 C 529.636 594.044, 530.560 598.565, 531.373 602.312 C 533.595 612.557, 535.462 637.616, 534.442 643.500 L 533.575 648.500 532.944 641.500 C 530.088 609.832, 528.514 598.862, 525.805 591.750 L 524.757 589 512.379 589 L 500 589 500.006 592.750 C 500.009 594.813, 500.435 598.075, 500.952 600 C 501.867 603.405, 502.616 609.115, 505.540 635 C 507.429 651.727, 508.742 662.162, 509.944 670 C 512.022 683.551, 512.074 684.553, 510.596 682.423 C 509.861 681.365, 509.009 678.925, 508.702 677 C 507.100 666.980, 504.748 650.150, 503.460 639.500 C 500.866 618.049, 499.105 604.652, 497.841 596.750 L 496.602 589 486.426 589 C 480.829 589, 474.778 588.706, 472.978 588.346 L 469.707 587.691 470.433 594.096 M 611 589.228 C 594.358 590.679, 570.584 595.669, 562.483 599.413 C 542.249 608.761, 536.055 628.542, 549.140 642.025 C 559.197 652.388, 580.688 655.182, 590.010 647.338 C 593.597 644.320, 593.699 642.765, 590.659 637.450 C 588.931 634.427, 588.577 632.874, 589.266 631.331 C 592.701 623.632, 620.835 617.269, 647.250 618.216 C 654.263 618.468, 660 618.297, 660 617.837 C 660 617.377, 659.190 617, 658.200 617 C 657.210 617, 655.804 616.438, 655.075 615.750 C 654.109 614.839, 653.635 614.810, 653.327 615.644 C 652.592 617.632, 649.175 615.920, 646.340 612.143 C 644.836 610.139, 643.357 608.275, 643.053 608 C 641.743 606.815, 636.172 598.133, 634.070 594 C 630.652 587.280, 631.449 587.445, 611 589.228 M 274 592.735 C 269.875 593.427, 262 594.533, 256.500 595.195 C 251 595.856, 246.142 596.870, 245.704 597.449 C 245.266 598.027, 244.957 606.150, 245.017 615.500 C 245.078 624.850, 244.830 644.538, 244.466 659.250 L 243.806 686 257.884 686 C 271.681 686, 271.971 685.955, 272.418 683.750 C 272.973 681.013, 273.648 674.410, 275.509 653.500 C 278.475 620.178, 279.995 605.311, 281.021 599.580 C 282.529 591.156, 282.661 591.284, 274 592.735 M 643 591.918 C 643 593.970, 644.297 596, 645.607 596 C 646.373 596, 647 596.645, 647 597.433 C 647 598.794, 650.581 600.644, 652.312 600.177 C 652.759 600.057, 652.315 601.032, 651.325 602.344 C 649.801 604.364, 649.110 604.586, 646.823 603.789 C 645.174 603.214, 644.323 602.322, 644.638 601.500 C 644.923 600.759, 644.250 599.669, 643.143 599.077 C 639.988 597.388, 639.941 597.730, 642.736 602 C 644.781 605.123, 646.029 606.034, 648.428 606.157 C 650.117 606.243, 652.737 606.401, 654.250 606.507 C 655.763 606.614, 657 606.319, 657 605.851 C 657 605.383, 657.450 605, 658 605 C 659.938 605, 658.969 606.693, 656.348 607.887 C 654.503 608.728, 654.014 609.414, 654.741 610.141 C 655.468 610.868, 656.570 610.672, 658.361 609.499 C 659.777 608.571, 661.513 608.029, 662.218 608.294 C 662.923 608.560, 661.813 609.508, 659.750 610.402 C 657.688 611.296, 656 612.471, 656 613.013 C 656 614.395, 658.032 614.232, 661.161 612.599 C 663.586 611.334, 663.867 611.384, 664.332 613.163 C 664.709 614.602, 664.526 614.852, 663.638 614.114 C 661.539 612.373, 659.137 614.564, 661.048 616.476 C 662.304 617.733, 663.530 617.850, 667.548 617.100 C 670.272 616.591, 675.650 615.892, 679.500 615.546 C 689.603 614.638, 692.562 613.441, 695.208 609.191 C 697.073 606.195, 701 598.335, 701 597.598 C 701 597.497, 698.515 597.870, 695.477 598.427 C 691.675 599.123, 690.107 599.838, 690.446 600.719 C 690.716 601.424, 690.290 602, 689.500 602 C 688.633 602, 688.291 601.405, 688.638 600.500 C 689.105 599.285, 688.197 598.992, 683.857 598.956 C 680.911 598.932, 675.125 598.521, 671 598.043 C 663.655 597.191, 660.416 597.512, 664.794 598.656 C 666.007 598.974, 667 599.714, 667 600.302 C 667 600.890, 667.977 602.411, 669.171 603.682 C 670.364 604.952, 671.046 606.288, 670.685 606.649 C 670.323 607.010, 669.068 606.084, 667.894 604.592 C 666.517 602.842, 665.191 602.096, 664.160 602.492 C 663.281 602.830, 662.869 602.798, 663.245 602.421 C 664.567 601.099, 661.917 598, 659.465 598 C 657.867 598, 657 597.434, 657 596.392 C 657 595.180, 656.390 594.936, 654.527 595.404 C 652.587 595.891, 652.179 595.698, 652.634 594.512 C 653.287 592.809, 650.516 592.356, 649.500 594 C 648.382 595.809, 646.852 595.043, 647.500 593 C 648.022 591.355, 647.680 591, 645.567 591 C 644.155 591, 643 591.413, 643 591.918 M 225.500 593.851 C 226.050 594.388, 228.601 596.554, 231.168 598.664 C 233.735 600.774, 237.162 604.173, 238.783 606.218 L 241.730 609.936 242.397 603.425 C 243.240 595.200, 243.088 595, 236.006 595 C 232.774 595, 228.863 594.522, 227.315 593.937 C 225.677 593.319, 224.918 593.283, 225.500 593.851 M 128.394 597.779 C 126.136 598.725, 123.661 600.014, 122.894 600.642 C 116.620 605.782, 92.512 619.014, 87.393 620.127 C 80.592 621.605, 69.677 621.790, 62.594 620.546 L 57.688 619.685 58.365 625.450 C 60.149 640.630, 70 650.052, 88.842 654.600 C 96.288 656.397, 98.170 656.115, 96.020 653.524 C 95.246 652.591, 93.088 652, 90.459 652 C 88.097 652, 85.452 651.727, 84.582 651.393 C 81.384 650.166, 83.140 649, 88.186 649 C 91.849 649, 93.977 648.451, 95.436 647.129 C 97.130 645.594, 99.794 645.142, 110.293 644.611 L 123.087 643.964 124.575 647.525 C 126.753 652.738, 127.820 652.701, 140.216 646.983 C 156.643 639.406, 157.052 639.230, 162.292 637.486 C 167.533 635.743, 171.288 636.288, 170.807 638.723 C 170.619 639.672, 168.376 640.818, 165.033 641.673 C 162.026 642.441, 158.426 643.675, 157.033 644.415 C 155.640 645.154, 150.900 647.658, 146.500 649.978 C 142.100 652.299, 138.095 654.446, 137.600 654.750 C 136.743 655.277, 152.199 663, 154.111 663 C 154.615 663, 155.809 663.418, 156.764 663.928 C 166.076 668.904, 186.212 670.533, 193.489 666.898 C 203.652 661.823, 211.130 650.676, 214.136 636.120 C 217.822 618.273, 203.517 601.881, 180.859 597.986 C 168.941 595.937, 133.125 595.796, 128.394 597.779 M 679.742 618.085 C 678.775 618.648, 677.538 618.832, 676.992 618.495 C 676.446 618.158, 676 618.300, 676 618.811 C 676 621.074, 666.334 622.099, 642 622.419 C 614.496 622.780, 607.674 623.817, 597.113 629.240 C 588.995 633.408, 590.348 639.966, 598.812 637.476 C 606.667 635.164, 617.959 633.111, 629 631.986 C 657.536 629.078, 680.235 623.595, 685.821 618.262 C 687.505 616.654, 682.451 616.507, 679.742 618.085 M 694.924 620.635 C 692.492 623.279, 683.227 628, 680.471 628 C 679.662 628, 679 628.303, 679 628.672 C 679 629.395, 686.833 638.670, 693.634 646 C 695.931 648.475, 699.595 652.672, 701.776 655.326 C 703.958 657.980, 710.638 665.466, 716.621 671.960 L 727.500 683.768 741.752 684.134 C 749.590 684.335, 756.002 684.114, 756.002 683.642 C 756 682.752, 736.570 659.146, 725.020 646 C 721.396 641.875, 715.412 634.874, 711.722 630.443 C 705.374 622.819, 700.143 618, 698.215 618 C 697.738 618, 696.258 619.186, 694.924 620.635 M 667.500 631.612 C 661.863 633.228, 646.641 635.494, 631 637.045 C 609.043 639.223, 600.721 641.535, 599.164 645.893 C 597.698 649.997, 593.906 653.737, 588.491 656.421 C 584.517 658.391, 583.997 658.905, 585.941 658.947 C 588.195 658.996, 588.246 659.100, 586.600 660.303 C 584.688 661.701, 585.349 666.460, 588.431 673.500 C 589.153 675.150, 590.589 678.481, 591.622 680.902 L 593.500 685.303 657.840 684.728 C 693.227 684.412, 722.453 683.880, 722.787 683.547 C 723.120 683.213, 719.995 679.466, 715.842 675.220 C 711.689 670.974, 705.232 663.900, 701.494 659.500 C 673.611 626.680, 676.484 629.037, 667.500 631.612 M 49.356 644.250 C 44.528 652.213, 39.211 659.718, 28.632 673.499 C 23.989 679.548, 20.328 684.723, 20.497 684.999 C 20.666 685.274, 27.328 685.275, 35.302 685 L 49.799 684.500 55.558 676.500 C 68.221 658.908, 71 654.979, 71 654.665 C 71 654.484, 68.719 652.859, 65.931 651.052 C 63.070 649.198, 59.476 645.647, 57.681 642.902 C 55.931 640.225, 54.195 638.028, 53.822 638.018 C 53.450 638.008, 51.440 640.813, 49.356 644.250 M 238.592 650.854 C 233.162 659.456, 221.976 666.367, 210.643 668.121 C 206.714 668.729, 201.425 670.276, 198.889 671.560 C 196.352 672.843, 191.334 674.406, 187.736 675.032 C 181.273 676.158, 181.165 676.230, 178.645 681.086 L 176.096 686 209.048 686 L 242 686 242 666.500 C 242 655.775, 241.781 647, 241.513 647 C 241.244 647, 239.930 648.734, 238.592 650.854 M 70.920 660.662 C 67.729 665.343, 58.949 677.397, 57.152 679.563 C 56.219 680.688, 53.999 684.650, 54.002 685.184 C 54.003 685.358, 80.749 685.674, 113.437 685.887 C 178.972 686.314, 173.793 686.812, 177.411 679.729 C 179.740 675.169, 179.662 675.083, 172.289 674.041 C 166.769 673.261, 159.167 671.136, 154.500 669.069 C 153.400 668.581, 149.373 666.774, 145.552 665.051 C 135.462 660.504, 131.365 659.785, 125.536 661.539 C 122.866 662.343, 118.928 663, 116.784 663 C 112.447 663, 104.429 664.634, 101.777 666.058 C 100.286 666.859, 100.130 666.600, 100.621 664.144 L 101.189 661.305 95.164 661.124 C 91.850 661.025, 86.520 660.031, 83.320 658.916 C 80.119 657.801, 76.761 656.649, 75.859 656.356 C 74.713 655.985, 73.221 657.286, 70.920 660.662" stroke="none" fill="#1b1f3a" fill-rule="evenodd"/>
</svg>