<svg xmlns="http://www.w3.org/2000/svg" viewBox="0 0 768 768" version="1.1" preserveAspectRatio="xMidYMid meet"><path d="M 0.2 323.3 C 0.3 501, 0.7 640.4, 1.1 633 C 2.1 614.6, 1.9 0, 0.8 0 C 0.4 0, 0.1 145.5, 0.2 323.3 M 767.2 384 C 767.1 595.4, 767.3 768, 767.8 767.5 C 768.2 766.9, 768.3 593.9, 768 383 L 767.5 -0.5 767.2 384 M 601.5 108.9 C 592.3 113, 585 124, 585 133.6 C 585 154.3, 607.9 169.2, 626.4 160.5 C 644.9 151.7, 649.6 130, 636.1 115.6 C 628.3 107.3, 611.9 104.1, 601.5 108.9 M 612 110.8 C 598.4 112.7, 589.8 121.5, 589.8 133.5 C 589.8 157.3, 621.2 167.5, 635.2 148.1 C 639.9 141.6, 640.1 128.8, 635.7 122.2 C 631 115.1, 619.8 109.7, 612 110.8 M 372 119 C 365.1 119.4, 357.7 120.2, 355.5 120.8 C 353.3 121.3, 349.3 122.1, 346.5 122.5 C 328.3 124.8, 309.1 129.9, 275.5 141.3 C 222.4 159.2, 169.9 200, 137.2 248.7 C 128.6 261.5, 130.1 264.3, 139.7 253.3 C 171.8 216.4, 186.4 202.6, 211.1 185.7 C 230.4 172.5, 246.5 163.7, 264 156.6 C 267.6 155.1, 271.4 153.5, 272.5 153 C 273.6 152.5, 277.4 151.1, 281 150 C 284.6 148.8, 288.4 147.5, 289.5 147 C 294.3 145.1, 305.2 141.7, 315.5 139 C 322.2 137.3, 347 132.4, 359.2 130.5 C 384 126.6, 428.6 128.6, 477.5 135.9 C 486.4 137.3, 518.1 145.4, 520.5 147 C 521.1 147.4, 523.8 148.5, 526.5 149.5 C 549.5 157.8, 578.1 173.6, 595.8 187.9 C 638.1 221.8, 669.7 268.1, 686.7 321 C 698 356.3, 702 410.5, 696 446.5 C 693.8 459.7, 691.7 469.8, 689.8 476.5 C 688.7 480.4, 687.4 485.1, 686.9 487 C 685.5 491.9, 683 498.9, 681.4 502.7 C 680.6 504.4, 680 506.1, 680 506.5 C 680 510.9, 652.6 555.9, 649.9 556 C 649.5 556, 648.6 554.5, 647.9 552.8 C 646.2 548.6, 640.5 542.3, 636.6 540.3 C 629.4 536.6, 625.7 536.8, 608.6 542.4 C 593.8 547.3, 581.8 545.4, 577.1 537.5 C 576 535.5, 575 533.6, 575 533.2 C 575 532.8, 584.1 532.5, 595.3 532.5 C 613.5 532.5, 616.1 532.2, 622 530.2 C 635.3 525.6, 637.3 523, 639.1 507.4 C 642.2 479.9, 634.5 457.6, 618.9 448.8 L 615.1 446.7 617.1 443.8 C 620.6 438.9, 621.3 435, 621.9 413.8 C 622.2 402.5, 622.8 392.9, 623.1 392.5 C 623.5 392.2, 626.4 393.3, 629.6 395 C 643.7 402.3, 658.2 396.7, 665.2 381.2 C 668.4 374.3, 668.3 359.3, 665.1 353.2 C 657.5 338.6, 641.6 331.7, 623.5 335.3 C 619.6 336, 619.5 336, 617.2 332 C 607.3 314.5, 572 315.3, 551.5 333.5 C 546.5 337.9, 546.9 338, 544.5 331.8 C 541.6 324.4, 538.1 322.7, 527 323.3 C 517.7 323.8, 513.5 325.3, 508.3 330.3 L 505.1 333.3 502 330.7 C 495.7 325.3, 482.6 323, 473 325.4 C 460.2 328.7, 455.4 335.8, 456.3 350 C 460.6 413, 460.6 416.1, 456.5 411.9 C 453.9 409.3, 452.2 394.3, 451.5 367.3 C 450.6 334.7, 449.4 330.7, 439.2 325.5 C 432.4 322.2, 415.5 323.9, 407.4 328.9 C 400 333.4, 398.5 337.1, 398.5 350.1 L 398.5 361.8 396.2 355.7 C 389 336.2, 381.3 328.8, 365.4 325.8 C 350.9 323.2, 318.6 327, 307.3 332.8 C 301.9 335.6, 302.4 335.8, 301.6 330.3 C 300 318.4, 292.2 311.7, 279.4 311.2 C 266.1 310.6, 256.9 316.2, 248.6 329.9 C 245.2 335.5, 243 337.5, 243 335 C 243 332.4, 229.4 319.8, 223.3 316.8 C 203.1 306.9, 182.5 318.6, 182.6 340 C 182.6 354.6, 189.4 366.8, 202.5 375.4 C 209.3 380, 209.2 379.6, 207.3 385.5 C 203.9 396.5, 198.9 410.5, 198.1 411.3 C 197.7 411.7, 195.6 407.5, 193.5 401.8 C 191.5 396.1, 189.4 390.6, 189 389.5 C 188.6 388.4, 186.8 383.5, 185 378.5 C 177.3 356.9, 172.1 349.2, 162.2 344.3 C 153.5 340, 132.3 340.2, 120.5 344.7 C 110.5 348.4, 105 351.9, 101.3 356.6 C 98.7 360.1, 98.5 361, 98.6 368.9 C 98.6 377.2, 98.8 377.8, 103.8 387.7 C 109.9 399.6, 109.7 398.6, 106.5 399.4 C 105.1 399.8, 102.6 401.9, 100.9 404.3 C 94.8 412.6, 97.9 424.7, 107.2 429.6 C 111.4 431.8, 119.2 431.4, 122.4 428.9 C 126.1 426, 126.8 426.6, 132.4 436.7 C 140.3 451.1, 147.5 461.2, 156.6 470.9 L 165.1 479.9 163 490.7 C 161.9 496.6, 160.4 504.1, 159.7 507.3 L 158.6 513.1 152.9 506.8 C 149.8 503.3, 146.9 500.8, 146.4 501.3 C 145.3 502.3, 147.6 506.2, 153.2 512.4 C 158.3 518.1, 158.7 519.8, 156.9 526.5 L 155.8 530.4 142.3 516.5 C 119.7 493, 106.5 474.6, 95 450.5 C 81.3 421.6, 76.5 400.3, 76.5 367.5 C 76.5 340.2, 77.7 332.7, 86.2 306 C 87.9 300.8, 89.6 296.1, 90 295.5 C 90.4 295, 91.1 293.4, 91.5 292 C 93.6 284.9, 109.5 256.6, 120.3 240.6 C 126.9 230.9, 139.5 216.3, 152.9 203 C 165.4 190.5, 167.9 188.3, 175.5 182.4 C 183.1 176.6, 182.5 177.7, 171.8 188.9 C 165.9 195.1, 159.1 202.7, 156.7 205.8 C 146.7 219, 141.8 232.3, 151.3 220.5 C 158.3 211.8, 174 196, 183.9 187.7 C 188.6 183.8, 195.4 177.8, 199 174.5 C 209.8 164.5, 230.5 150.8, 247 142.8 C 260.5 136.3, 265.7 134, 267 134 C 268.1 134, 268.1 133.7, 267.2 132.8 C 264.3 129.9, 225.1 146.2, 207.9 157.6 C 204.2 160, 200.8 162, 200.2 162 C 199.6 162, 198.5 162.8, 197.8 163.8 C 196.9 165.1, 194.7 165.9, 190.7 166.3 C 167 168.7, 117.1 219.4, 94 264.6 L 88.2 275.9 86.7 271.5 C 83.2 261.3, 73.2 257.3, 63.3 262.1 C 51.3 267.9, 50.7 284.8, 62.3 290 C 67 292.2, 76.9 292.7, 78.8 290.8 C 80.8 288.8, 81.3 290.6, 79.7 294.2 C 69.2 318, 64.9 351.7, 68 385.7 C 69.2 399.1, 74.3 424.4, 76.1 426.5 C 76.6 427, 77 428.2, 77 429.1 C 77 430.6, 82.6 446.3, 85 451.5 C 85.5 452.6, 87.2 456.6, 88.9 460.3 C 98.8 482.3, 115 504.5, 138.2 527.7 L 153.3 542.9 152 550.2 C 151.3 554.2, 150.4 559.5, 149.9 562 C 145.6 585.6, 152.6 598.5, 173.5 605.3 C 203.1 615, 220.9 609, 221 589.3 C 221 583.9, 221.8 582.9, 224 585.5 C 231 594, 275 618, 294.5 624 C 298.4 625.2, 302.4 626.6, 303.5 627 C 328.2 636.8, 395.6 640, 428.5 632.9 C 440.5 630.3, 450.7 627.9, 453 627.1 C 454.4 626.6, 458.9 625.2, 463 623.9 C 467.1 622.7, 470.9 621.3, 471.5 620.8 C 472 620.4, 473 620, 473.8 620 C 474.6 620, 476.6 619.4, 478.3 618.6 C 480.1 617.8, 485.8 615.5, 491 613.6 C 507.5 607.3, 518.9 600.8, 527.8 592.6 L 531.1 589.5 532.9 591.6 C 536.8 596.4, 545.7 602.1, 554.5 605.5 C 590.3 619, 645.5 599.9, 649.7 572.6 C 650.1 569.4, 651.6 567.1, 656 562.5 C 659.1 559.2, 662.5 555.2, 663.6 553.5 C 664.6 551.9, 665.7 550.3, 666 550 C 667.2 549, 673.8 537.4, 678.3 528.5 C 687.8 509.8, 694.8 491, 699 473.4 C 700.1 468.5, 701.5 462.7, 702 460.5 C 702.6 458.3, 703.5 453.1, 704.1 449 C 704.7 444.9, 705.6 438.6, 706.2 435 C 707.5 426.4, 707.5 383.9, 706.1 372.5 C 704.5 359.2, 702.3 345.4, 700.5 338 C 699.6 334.4, 698.5 329.6, 698 327.3 C 694.3 310.4, 681.8 279.9, 669.5 258 C 642.4 209.6, 593 166.3, 541 145 C 538 143.8, 534.2 142.2, 532.5 141.5 C 521.3 136.9, 506.4 132.2, 494 129.5 C 489.9 128.6, 484.7 127.4, 482.5 126.9 C 477.4 125.7, 461.1 123.3, 442.8 121 C 433.7 119.9, 396.8 117.9, 389 118.2 C 386.5 118.3, 378.9 118.6, 372 119 M 390 134.6 C 383.4 135.4, 378 137.2, 378 138.7 C 378 139.8, 378.9 140, 382.3 139.5 C 390.8 138.2, 440.3 138.5, 452.8 139.9 C 459.6 140.6, 465.4 140.9, 465.8 140.6 C 466.9 139.5, 463.8 138.1, 459 137.5 C 456.5 137.2, 452.7 136.4, 450.5 135.9 C 446.5 134.9, 396.7 133.8, 390 134.6 M 101.3 138.9 C 89.2 146.5, 94.8 166, 109.1 166 C 122.5 166, 129 151.9, 120.2 142 C 116.6 137.9, 116 137.6, 110.4 137.3 C 105.8 137, 103.8 137.3, 101.3 138.9 M 103.3 142 C 96.8 145.9, 96 153.2, 101.4 158.6 C 108.6 165.8, 120 161.6, 120 151.8 C 120 142.5, 111.1 137.2, 103.3 142 M 413.8 141.1 C 414.5 141.8, 418.1 142.7, 421.8 143.1 C 442 145.2, 450.2 146.2, 456.2 147.5 C 464.3 149.3, 464.1 149.3, 463.4 147.6 C 462.2 144.5, 445.5 141.3, 426 140.4 C 414.8 139.9, 412.7 140, 413.8 141.1 M 303.6 152.1 C 286.1 154.7, 251 170.8, 251 176.2 C 251 178.4, 252.3 178.5, 253.9 176.6 C 255 175.4, 262.2 171.6, 274 166.1 C 276.5 165, 282.6 162.5, 287.5 160.7 C 295.5 157.7, 300.1 156.3, 310.3 154.1 C 311.8 153.8, 313.1 153.1, 313.3 152.5 C 313.6 151.2, 310.7 151, 303.6 152.1 M 427.5 152.8 C 428.1 153.4, 432.3 154.3, 437 154.9 C 446 156, 459.9 158.2, 468.9 159.9 C 475.7 161.3, 476.3 161.3, 475.8 159.8 C 475.3 158.4, 473 157.7, 460 154.9 C 449.2 152.6, 425.9 151.1, 427.5 152.8 M 524 155.5 C 524 155.8, 527.5 157.7, 531.8 159.8 C 550.5 169.1, 581.8 189.8, 588.6 197.3 C 591.3 200.3, 599.2 208.9, 606.2 216.4 C 631.6 243.6, 642.8 259.5, 657.4 289.5 C 669.8 314.9, 677 338.4, 677 353.1 C 677 355.1, 677.4 356, 678.3 355.7 C 680.2 355.1, 679.7 335, 677.6 327.5 C 668.4 295.7, 655.5 269.7, 636.3 244.8 C 629.8 236.3, 626.9 233.2, 604.1 209 C 587.3 191.4, 587.8 190.6, 606.4 205.2 C 611.8 209.5, 616.6 212.8, 616.9 212.4 C 617.5 211.8, 605 199.5, 590.5 186.5 C 584.3 181, 570.2 171, 568.5 171 C 568.2 171, 564.8 169.4, 560.9 167.5 C 557.1 165.6, 552.4 163.8, 550.5 163.4 C 548.6 163.1, 547 162.5, 547 162.1 C 547 161.7, 546.2 161.4, 545.3 161.3 C 544.3 161.2, 539.7 159.8, 535 158.1 C 526.9 155.1, 524 154.4, 524 155.5 M 507 162.2 C 507 164.1, 522 170.3, 524.3 169.4 C 525.7 168.9, 532.2 171.3, 538.2 174.5 C 541.5 176.4, 543 176.4, 543 174.6 C 543 172, 521.3 163, 511.3 161.4 C 507.8 160.9, 507 161, 507 162.2 M 659.3 179.1 C 653.4 180.9, 649.2 188.7, 650.4 195.5 C 653.4 211.5, 678.5 210, 679.7 193.8 C 680.5 182.8, 670.6 175.6, 659.3 179.1 M 658.4 183.8 C 650 190.6, 654.3 202.9, 665 203 C 676 203, 680.7 190.6, 672.2 183.9 C 669 181.4, 661.4 181.4, 658.4 183.8 M 554.7 183.7 C 554.1 184.3, 560.4 187.9, 562.2 188 C 564.2 188.1, 575.8 196, 583.6 202.5 C 593 210.5, 595.4 211.8, 592.1 207.2 C 584.1 195.9, 558.5 179.8, 554.7 183.7 M 48.5 191.7 C 35.7 194.8, 31.5 213.7, 41.7 223.1 C 50.4 231.3, 62.1 231, 70.3 222.5 C 84 208.4, 68.7 186.8, 48.5 191.7 M 48.5 196.4 C 42.9 198.8, 40 203.4, 40 209.7 C 40 215.1, 40.2 215.5, 44.5 219.7 C 48.8 223.8, 49.3 224, 55.1 224 C 66.5 224, 73.7 214.6, 69.6 204.9 C 66.1 196.6, 56.7 192.8, 48.5 196.4 M 225 199.8 C 208.9 210.6, 182.7 238, 188.5 238 C 188.8 238, 195.2 231.8, 202.8 224.2 C 210.3 216.6, 219.3 208.2, 222.8 205.5 C 230 199.9, 231.9 195.2, 225 199.8 M 182.5 214.1 C 176.4 219.3, 174.6 221.2, 168.4 228.6 C 165.4 232.2, 163.9 236, 165.6 236 C 166.2 236, 192 209.9, 192 209.3 C 192 207.6, 187.3 210, 182.5 214.1 M 678.3 227 C 668.9 230.8, 674.3 244.2, 684.1 241.4 C 691.8 239.2, 692.3 229.7, 684.9 227.1 C 681.2 225.8, 681.2 225.8, 678.3 227 M 676.9 231.4 C 674.3 237, 681.4 241.5, 685.5 237 C 688.5 233.7, 686.5 229.6, 681.7 229.2 C 678.6 228.9, 677.8 229.3, 676.9 231.4 M 601.3 232.6 C 598.8 233.7, 599.9 236, 602.8 236 C 606.2 236, 613.7 242.7, 612 244.4 C 610.3 246.1, 610.9 247.2, 613.2 246.8 C 617.8 246.2, 616.3 240, 610.5 235.5 C 607.1 233, 603.3 231.8, 601.3 232.6 M 123.3 251.8 C 113.9 264.1, 111.4 268, 112.8 268 C 114.6 268, 134 243.3, 134 241 C 134 238.4, 131.6 240.8, 123.3 251.8 M 155.7 242.1 C 150.2 245, 144 256.5, 145.4 261.1 C 145.6 261.9, 146.1 263.8, 146.4 265.3 C 147.3 269.3, 152.3 272, 159 272 C 169.7 272, 178 265.1, 178 256.2 C 178 243.9, 166.3 236.5, 155.7 242.1 M 158.1 244.7 C 155.5 245.8, 152.8 248.5, 150.9 252.2 C 144.1 265.4, 159 274, 170.4 263.5 C 179.1 255.4, 169.3 240.3, 158.1 244.7 M 65.5 265 C 57.3 269, 55.3 278.5, 61.4 284.6 C 65.7 288.9, 74.8 289.6, 79.3 285.9 C 86.3 280.5, 84.2 268.1, 75.7 264.5 C 71 262.6, 70.3 262.6, 65.5 265 M 123.2 278 C 120.1 282.7, 116 290.4, 112.6 297.9 C 111.7 299.7, 110.7 302.8, 110.4 304.9 C 109.7 308.2, 109.8 308.4, 111.3 307.1 C 112.3 306.4, 113 305.1, 113 304.4 C 113 303.6, 113.4 302.2, 113.9 301.2 C 114.4 300.3, 116.8 295.7, 119.1 291 C 121.4 286.3, 124.4 280.8, 125.7 278.8 C 130.2 271.5, 128 270.7, 123.2 278 M 104.2 282.9 C 98.2 292, 93 302.9, 90.5 311 C 89.6 314, 88.5 317.5, 88 318.7 C 85.8 324.1, 83.8 345.2, 85.1 347.8 C 86.4 350.1, 86.6 349.3, 87.6 338.9 C 88.7 328, 89.8 323.4, 94.2 311 C 96.9 303.2, 107.1 280.8, 108.8 278.8 C 109.6 277.9, 110 276.6, 109.8 276 C 109.6 275.3, 107.1 278.5, 104.2 282.9 M 271.4 322.1 C 266.4 323.5, 261 330, 253.3 343.7 C 249.4 350.7, 245.7 356.6, 245.1 356.8 C 244.6 357, 242.9 355.2, 241.4 352.8 C 234.1 341.1, 229.1 334.2, 225.6 330.7 C 211.9 317.2, 191.4 322.3, 193.5 338.7 C 194.7 348.3, 197.3 352.7, 207.9 363 C 213.3 368.2, 218.1 373.5, 218.4 374.7 C 219.9 379.6, 215.7 398.6, 210.5 410.5 C 209.8 412.2, 208.3 415.5, 207.2 418 C 203.7 426.3, 200.1 431.2, 197.8 430.8 C 195 430.4, 187.4 416, 180.9 398.5 C 168.1 364.5, 164.6 357.9, 157.4 354.4 C 144.5 348.1, 114 354.4, 109.2 364.3 C 107.6 367.6, 110.4 374, 119 387 C 121.7 391.1, 126.5 399, 129.6 404.5 C 152.2 444.6, 162.2 458.8, 175 469.1 L 179.5 472.7 178.2 477.1 C 177.5 479.5, 175.8 487.4, 174.5 494.5 C 173.1 501.7, 170.8 513.1, 169.5 520 C 158.7 575.3, 158.6 583.5, 168.5 590.1 C 176.6 595.5, 196.3 600, 202.5 597.9 C 208.7 595.8, 209.8 592.5, 211.5 570.9 C 214.5 532.8, 215.2 526.1, 217.1 510.5 C 219.4 491.6, 220.5 485.7, 223.2 477 C 226 468, 229.9 459.5, 249.2 420.2 C 264.2 389.6, 267.2 383, 270.6 373.5 C 272.5 368.1, 276.8 359.8, 281.1 353.5 C 285.9 346.3, 290 338.1, 290.6 334.2 C 292.1 324.3, 283.2 318.7, 271.4 322.1 M 579.5 330.9 C 569.3 334.2, 562.6 338.3, 555.4 345.4 C 547.3 353.5, 545.6 357.4, 544.4 371.7 C 543.8 379.7, 542.2 382.7, 540.3 379.7 C 539.9 379, 539.3 368.9, 539 357.1 L 538.5 335.7 535.9 333.8 C 533.3 331.9, 533 331.9, 525.4 333.4 C 521 334.3, 516.4 335.9, 515 336.9 L 512.5 338.7 512.5 358.1 C 512.6 377.7, 515 413.5, 517.1 424.5 C 520.5 442.7, 533.5 449.4, 549.5 441.2 C 557.3 437.3, 558.1 434.2, 556.4 415.8 C 555.4 404.8, 555.4 401.1, 556.5 394.5 C 559.2 379, 566.5 369, 575.1 369 C 581.5 369, 581.5 368.8, 581.5 403.9 C 581.5 421.3, 581.9 436.2, 582.3 437.1 C 583.4 439.3, 587.3 440, 598.2 440 L 607.1 440 608.7 436.3 C 609.9 433.5, 610.5 427.1, 611 412 C 611.8 389, 612.9 385, 619.9 380.3 C 624.4 377.3, 624.6 377.3, 631.9 382.1 C 645.2 390.7, 654.1 386.8, 657 371.1 C 660.1 354, 646.5 341.3, 629.3 345.1 C 623.5 346.4, 622.7 347, 614.1 357 L 611.1 360.5 611 353 C 611 339, 607.7 333.5, 597.6 330.6 C 590.9 328.6, 586 328.7, 579.5 330.9 M 418.5 335 C 409.2 337.3, 408 338.4, 408 344.7 C 408 361.2, 410.2 399.5, 411.6 406.5 C 417.6 437.7, 422.9 448.5, 435 454.3 C 441.7 457.5, 454.7 457.4, 461.2 454.1 C 471.6 448.8, 479 439.4, 479 431.6 C 479 423.3, 480.9 429.8, 481.2 439 L 481.5 448.5 486.2 449.2 C 496.3 450.9, 502.5 445.9, 502.4 436.2 C 502.3 424.5, 498.9 348.4, 498.3 345 C 497.1 337.8, 491.2 334.5, 479.8 334.5 C 473 334.6, 471.7 334.9, 469.4 337 C 466.5 339.8, 466.4 343, 469.1 370.5 C 471.1 392, 470.9 416.9, 468.5 420.8 C 464.6 427.3, 457 428.7, 451.4 423.8 C 443.9 417.2, 441.6 404, 440.4 361.2 C 439.6 332.7, 440.1 333.9, 428.5 334.1 C 424.7 334.2, 420.2 334.5, 418.5 335 M 347.6 335.7 C 347.3 336.1, 341.6 336.7, 335.1 337.1 C 315.7 338.3, 303.8 343.3, 292 355 C 281.1 365.9, 277.7 374.2, 281.7 380 C 285.5 385.5, 288.5 385.3, 296.4 379.1 C 308.2 369.8, 316.1 366.1, 329.3 363.9 C 346.6 361, 353.9 367.3, 356.5 387.2 C 358.1 398.9, 358.5 421.7, 357.2 423.6 C 356.3 425, 343 433.9, 337.5 436.8 C 317.9 447.2, 303 444.3, 303 430.1 C 303 421.7, 307.5 414.9, 316.5 410 C 321.6 407.1, 339.1 405.1, 344.4 406.7 C 348.8 408.1, 349.1 407.4, 348 398.1 C 346.9 389.7, 343.5 382, 340 380.2 C 336.8 378.5, 323.2 379.3, 317 381.5 C 296.6 388.7, 279.4 402.2, 273.5 415.5 C 268.7 426.4, 268.5 427.3, 268.6 438.5 C 268.7 459.1, 276.2 468.4, 295.1 471.7 C 303.3 473.1, 304.9 473.1, 314.2 471.5 C 319.8 470.6, 325 469.5, 325.9 469 C 326.8 468.6, 331.1 467, 335.5 465.5 C 352.8 459.7, 359 459, 359 462.9 C 359 467.7, 365.4 469.9, 373.6 467.9 L 378 466.8 375.5 464.4 C 373.1 462.2, 372.2 460, 373.8 460 C 375.3 460, 379 463.2, 379 464.5 C 379 467.2, 385.2 464, 386.4 460.8 C 387.4 458.1, 387.8 457.9, 390.9 458.4 C 400.1 459.9, 396.2 468.7, 383.5 474.8 C 371.7 480.6, 364.1 481, 354.9 476.3 C 349.7 473.7, 344.4 474.3, 330.4 478.9 C 307.6 486.5, 284.8 484.4, 270.4 473.4 C 268.5 471.9, 266.8 470.9, 266.6 471.1 C 265 472.8, 259.6 485.7, 258.5 490.8 C 254.2 509.2, 258.1 525.8, 270.8 543.5 C 282.6 559.9, 284.9 565.2, 281.6 567.9 C 279.9 569.4, 278.1 567.7, 273.3 560.3 C 271.5 557.4, 268 552.6, 265.7 549.8 C 252 532.9, 248.5 523.7, 248.5 504.5 C 248.6 487.6, 253.6 472.9, 261 467.7 C 263.2 466.2, 263.2 465.9, 261.8 462.8 C 258.7 456.1, 257.8 450.1, 258.2 440.5 C 258.4 435.3, 258.3 431.3, 257.9 431.8 C 255.5 434.2, 236.1 475, 234.2 481.5 C 231.2 491.7, 227.2 526.8, 228.8 527.9 C 233.6 531.2, 237.4 541, 238.4 552.2 C 240.1 572.6, 259.5 590.1, 299.5 607 C 300.6 607.5, 303.6 608.8, 306.2 609.9 C 308.8 611.1, 311.4 612, 312 612 C 312.5 612, 313.8 612.4, 314.8 612.9 C 321.9 616.7, 340.9 621.2, 361.5 624 C 389.9 627.9, 421.7 625.6, 450 617.4 C 453 616.6, 456.9 615.5, 458.5 615.1 C 462 614.1, 479.3 608.2, 483.3 606.5 L 486 605.4 481.5 602 C 478.4 599.7, 476.1 596.8, 474.1 592.6 C 467.3 578.4, 466.5 571.1, 470 557.4 C 477.6 527.9, 481.4 484.3, 477.9 465.4 C 476.5 457.4, 476.1 457.2, 468.7 461.8 C 453.2 471.1, 433.1 469.7, 420.2 458.4 C 409.4 449, 404.7 438.1, 400 412 C 397.1 396.3, 395 386, 394 383 C 393.5 381.6, 392.2 377.1, 391 373 C 383.5 347.4, 380.6 342.4, 370 337 C 366.1 335, 349.3 334, 347.6 335.7 M 689.9 383.8 C 689.9 384.2, 689.9 389.7, 689.9 396 C 690.1 412.2, 687.2 439.9, 684.8 446.2 C 684.3 447.7, 684.2 449.4, 684.6 450.1 C 686.4 453, 690.6 434.3, 692.1 417.5 C 693.1 405, 692.4 383, 690.9 383 C 690.4 383, 690 383.3, 689.9 383.8 M 569.5 390.5 C 566.2 395.3, 567.3 426.7, 570.9 430.3 C 572.4 431.8, 572.5 430, 572 408.5 L 571.5 387.5 569.5 390.5 M 108.3 405.5 C 104.5 407.1, 103 409.7, 103 414.7 C 103 423.8, 114.8 429.3, 120.5 423 C 122.5 420.8, 120.6 414.2, 116.3 408.3 C 113.3 404.3, 112.1 403.9, 108.3 405.5 M 325.3 417.7 C 320.4 419.4, 314 426.2, 314 429.7 C 314 431.6, 314.5 432, 317.3 432 C 324.3 432, 336 426.9, 336 423.9 C 336 423.4, 335 423.8, 333.8 425 C 331.7 426.9, 329 427.7, 329 426.4 C 329 425, 334.5 419.4, 337.4 417.8 L 340.5 416.1 335 416.1 C 332 416.1, 327.6 416.8, 325.3 417.7 M 511.4 446.7 C 510.2 453.2, 500.6 459.9, 492.5 460 L 488.5 460 488.4 487.3 C 488.4 503.1, 487.9 517.6, 487.2 522 C 485.4 533.4, 484.2 539.3, 483.4 541.4 C 482.7 543.2, 482.9 543.2, 486.4 541.1 C 494.1 536.3, 500.3 533.9, 508.3 532.7 L 516.5 531.4 517.8 522.5 C 520.7 501.6, 528.6 487.2, 541.5 478.6 C 545.2 476.2, 546.2 476, 557.2 476 C 563.6 476, 569.1 475.6, 569.4 475.1 C 570 474.1, 566.8 473, 563 473 C 561.6 473, 559.2 472.3, 557.7 471.5 C 555.4 470.3, 554.5 470.3, 552.9 471.3 C 550.9 472.6, 542.8 469.2, 537.9 464.9 C 535.8 463.1, 535.8 463.1, 542 463.4 C 545.4 463.7, 548.9 464.5, 549.8 465.3 C 551.6 466.8, 558 468.4, 569.5 470.1 C 588.4 472.9, 595 477.6, 595 488.1 L 595 492.3 591 491.6 C 588.8 491.3, 584.9 490.2, 582.3 489.3 C 574.6 486.6, 552.8 486.9, 547.3 489.8 C 533.8 496.9, 526.2 521.2, 529 548 C 532.4 579.4, 545.8 594, 575.3 598.1 C 595.8 601, 622.6 592.4, 634.1 579.3 C 638.1 574.7, 639 572.1, 639 564.9 C 639 558.2, 638.1 556, 633.7 551.3 C 629.9 547.3, 627.5 547.2, 619.1 550.5 C 601.8 557.2, 588.8 557.6, 577.2 551.6 C 569.9 547.9, 564 536.7, 564 526.9 C 564 519.1, 565.2 518.4, 575.7 519.8 C 594.3 522.3, 619.1 520.7, 623.8 516.7 C 630.9 510.9, 630.6 482.2, 623.3 468.8 C 616.6 456.4, 598.2 449, 574.3 449 C 569.3 449, 568.2 448.7, 568.6 447.5 C 569.7 444.8, 567.9 443.7, 565.6 445.8 C 564.5 446.9, 559.2 449.7, 554 452.1 C 544.8 456.4, 544.2 456.5, 535.3 456.4 C 525.1 456.2, 524.4 456.7, 528.1 461.4 C 529.2 462.8, 529.7 464, 529.2 464 C 527.5 464, 524 459.4, 524 457.1 C 524 455.6, 521.9 452.8, 518 449 L 512 443.3 511.4 446.7 M 653.6 468 C 649.7 469.2, 645.3 473.6, 643.9 477.7 C 639.9 490, 654 500.7, 665.4 493.9 C 680.5 485, 670.4 463, 653.6 468 M 650.7 475 C 642.1 485.1, 656 497.7, 665.4 488.3 C 671.6 482.1, 667.5 473.1, 658.2 472.2 C 653.7 471.8, 653.2 472, 650.7 475 M 444.8 486 C 444.5 486.8, 444.7 489.1, 445.3 491 C 446.2 494.5, 443.7 513.2, 442 515.5 C 441.6 516.1, 441 518.2, 440.6 520.3 C 439.7 524.9, 441.6 525.4, 442.5 520.8 C 442.9 519, 443.6 517, 444 516.5 C 444.5 515.9, 445.6 511.2, 446.6 505.9 C 448.1 497.3, 448.1 495.8, 446.8 490.5 C 446 487.2, 445.1 485.2, 444.8 486 M 62.5 491.3 C 51.5 497.6, 51.5 511.4, 62.6 517.7 C 71 522.5, 81.3 519.2, 85.2 510.3 C 91.2 496.7, 75.8 483.8, 62.5 491.3 M 423 492.7 C 418.5 504.9, 405.9 516.6, 390.5 522.5 C 383.4 525.3, 364.6 525.3, 357.5 522.6 C 351.2 520.1, 348.3 518.4, 344.3 514.7 C 341.4 511.9, 341.2 511.5, 342.5 509.6 C 344.1 507.4, 344.5 504, 343.3 504 C 341.5 504, 327.5 515.7, 327.2 517.4 C 326.7 519.8, 328.9 521.1, 331.3 519.8 C 333.5 518.7, 335 520.1, 335 523.2 C 335 527.1, 339.5 537.9, 343.7 544.2 C 357.7 565.5, 380.5 570.7, 402.5 557.5 C 418.5 547.9, 430.2 527.5, 433 504.2 C 434 495.9, 433.2 492.5, 429.8 491.5 C 428.5 491.1, 426.7 490.6, 425.8 490.4 C 424.5 490, 423.7 490.7, 423 492.7 M 65.1 494.2 C 58.2 497.9, 56.6 507, 61.8 512.3 C 69.5 520, 83 514.8, 83 504.1 C 83 496.8, 71.8 490.6, 65.1 494.2 M 706.5 503.2 C 692.8 508, 691.5 526.1, 704.3 532.4 C 722.2 541.4, 738.2 521.6, 725.2 506.7 C 721.5 502.5, 713 500.9, 706.5 503.2 M 709.5 505.7 C 703.1 507.3, 698.4 514.7, 699.7 521.1 C 701.7 531, 719.2 533.4, 724 524.5 C 727.4 518.1, 724.1 509.2, 717.4 506.4 C 714 505, 713 504.9, 709.5 505.7 M 414.5 523.2 C 403.9 531.5, 385.9 538, 373.8 538 C 368.4 538, 358.4 535.8, 353.3 533.4 C 347.3 530.7, 346.8 532.3, 351.3 540 C 356 548.1, 362.3 552.7, 372.7 555.5 C 385.5 559.1, 402.5 551.3, 411.5 537.7 C 414.6 533, 420.5 520.1, 419.8 519.5 C 419.6 519.4, 417.3 521.1, 414.5 523.2 M 471.9 525.5 C 471.5 526.1, 470.9 527.9, 470.5 529.7 C 468 541.7, 457.7 562.5, 449.7 571.8 C 430.6 594, 410.2 602.3, 374.3 602.4 C 355.9 602.4, 353.6 603.2, 366.3 604.9 C 381.2 607, 400.2 605.9, 414.8 602.1 C 434.9 596.9, 459.4 573.5, 467.3 552 C 471.4 540.7, 474.9 520.8, 471.9 525.5 M 226.6 535.6 C 226.2 539.4, 225.2 549, 224.3 556.9 C 222.7 570.3, 222.7 571.3, 224.3 572.2 C 225.3 572.7, 229.3 575.7, 233.3 578.9 C 252.2 594.2, 291.2 614.7, 306.1 617.4 L 309.5 618 306 616.5 C 304.1 615.7, 301.6 614.7, 300.5 614.3 C 297.7 613.4, 273.8 601.1, 272 599.6 C 271.2 598.9, 267.8 596.8, 264.5 595 C 253.1 588.7, 241.9 578.8, 236.6 570.3 C 233.8 565.8, 231.9 557, 230.2 541.3 C 228.8 528.8, 227.5 526.7, 226.6 535.6 M 79.5 542.9 C 62.7 552.6, 69.5 577.3, 89 577.3 C 109.7 577.3, 115.4 549.5, 96.3 541.5 C 90.7 539.2, 85.2 539.6, 79.5 542.9 M 502.5 544.4 C 492.6 547.5, 485.3 553.9, 481.3 562.9 C 476.3 574.2, 479.1 589.3, 487.3 595.4 C 493.9 600.3, 507.8 596.2, 519.3 585.9 C 525.3 580.5, 525.9 578.6, 522.9 573 C 521.1 569.7, 519 561.1, 518.1 553.2 C 517.5 548.6, 516.8 544.5, 516.5 543.9 C 515.6 542.6, 507.3 542.9, 502.5 544.4 M 82 545.9 C 67.6 553.5, 73.8 573.8, 90.2 572.7 C 109.1 571.5, 107.9 544, 89 544 C 87.1 544, 83.9 544.8, 82 545.9 M 534.5 552.3 C 534.1 554, 534.2 556.1, 534.9 557.6 C 535.5 559, 536 560.8, 536 561.6 C 536 562.4, 537 565.2, 538.1 567.8 C 546.5 586.3, 565 595.7, 588.4 593.5 C 599.4 592.5, 596.6 591.3, 582 590.7 C 565.6 590.1, 557.9 587, 548.3 577.4 C 541.2 570.1, 538.8 565.3, 536.1 553 L 535.3 549.5 534.5 552.3 M 681.8 551.1 C 679.5 552.4, 679.4 558.5, 681.6 559.4 C 684.5 560.5, 687.7 560, 689.3 558.2 C 691.6 555.7, 691.4 554.5, 688.4 552.1 C 685.4 549.8, 684.3 549.6, 681.8 551.1 M 168 556.9 C 167.2 558.8, 166.9 563.8, 167.2 571.3 C 167.5 582, 167.7 583, 170 585.5 C 176.3 592.3, 198.4 597.8, 202 593.5 C 202.7 592.7, 203.1 592, 202.9 592 C 202.7 592, 199.1 591.8, 195 591.6 C 184.5 591.2, 174.5 587.6, 171 583 L 168.2 579.5 169.1 567 C 170 553.4, 169.9 552.5, 168 556.9 M 685 581.3 C 669.8 589, 670.3 609.4, 685.9 616.3 C 702.8 623.8, 720.8 606.1, 712.7 590 C 707.6 580, 695.2 576, 685 581.3 M 687.2 584.6 C 676.3 590.2, 676.1 606.5, 686.9 612 C 700.6 618.9, 715.4 604.3, 707.9 591.1 C 703.8 583.9, 694.4 580.9, 687.2 584.6 M 301 592.9 C 301 596.8, 328.1 610.2, 330.8 607.6 C 331.8 606.5, 329.8 605.4, 319.9 601.6 C 314.7 599.6, 308.3 596.7, 305.7 595 C 303.1 593.4, 301 592.4, 301 592.9 M 449.5 596.6 C 435.9 602.2, 417.7 607.2, 406.5 608.4 C 387.2 610.6, 376.1 610.9, 362.7 609.4 C 348.6 607.8, 344.6 607.9, 349 609.8 C 366.2 616.8, 415 614, 443.1 604.5 C 451.4 601.6, 452.2 601.5, 449.5 603.3 C 443 607.6, 416.1 614, 398 615.5 C 384.1 616.7, 386.4 618.2, 401 617.6 C 435.3 616.1, 466.3 605, 462.7 595.6 C 461.8 593.3, 456.6 593.7, 449.5 596.6 M 173.4 638.1 C 154.4 642, 158.1 670.3, 177.6 670.4 C 187.6 670.4, 194.5 663.6, 194.5 653.6 C 194.5 642.6, 185 635.7, 173.4 638.1 M 170.8 643.2 C 158.1 650.6, 166.7 670.1, 180.9 666 C 192.3 662.8, 194.5 650, 184.7 643.7 C 179.8 640.5, 175.8 640.3, 170.8 643.2 M 269.4 653.2 C 263.3 654.8, 261.4 662.5, 265.9 667.1 C 269.6 670.8, 273.1 670.8, 277.2 667.2 C 284.2 660.9, 278.5 650.8, 269.4 653.2 M 267.2 656.2 C 264.7 658.7, 265.7 664.8, 268.8 666.4 C 275 669.6, 281.3 661.3, 276.2 656.7 C 274 654.7, 268.9 654.5, 267.2 656.2 M 403.5 663.9 C 391.1 670.1, 388.2 681.8, 396.5 692.1 C 407.2 705.4, 429 697, 429 679.6 C 429 667.6, 414.3 658.6, 403.5 663.9 M 522.2 665.7 C 507.1 675.5, 517.4 698, 535.5 694.6 C 540.4 693.6, 546.6 687.5, 547.5 682.7 C 550.2 668.3, 534.5 657.7, 522.2 665.7 M 404 667.9 C 396.2 672, 393.9 680.5, 398.6 687.6 C 403.3 694.8, 410.4 696.7, 417.4 692.7 C 433.6 683.5, 420.4 659.1, 404 667.9 M 526 667.7 C 514.9 672.3, 518.1 689.4, 530.3 690.7 C 542.1 692.1, 548.5 679.1, 540.2 670.7 C 537.2 667.7, 529.7 666.1, 526 667.7" stroke="none" fill="#1b1f3a" fill-rule="evenodd"/></svg>