<svg xmlns="http://www.w3.org/2000/svg" viewBox="0 0 768 768" version="1.1" preserveAspectRatio="xMidYMid meet">
	<path d="M 0.163 323.250 C 0.252 501.038, 0.671 640.425, 1.093 633 C 2.140 614.577, 1.896 0, 0.841 0 C 0.379 0, 0.073 145.462, 0.163 323.250 M 767.236 383.950 C 767.106 595.397, 767.337 767.972, 767.750 767.450 C 768.163 766.927, 768.269 593.925, 767.986 383 L 767.473 -0.500 767.236 383.950 M 601.500 108.862 C 592.328 113.030, 585.028 123.968, 585.010 133.572 C 584.970 154.311, 607.927 169.243, 626.409 160.500 C 644.909 151.748, 649.622 130.001, 636.132 115.630 C 628.346 107.336, 611.922 104.126, 601.500 108.862 M 612 110.779 C 598.425 112.701, 589.750 121.542, 589.750 133.455 C 589.750 157.302, 621.233 167.484, 635.159 148.141 C 639.850 141.624, 640.137 128.828, 635.741 122.186 C 631.036 115.076, 619.796 109.676, 612 110.779 M 372 119.010 C 365.125 119.389, 357.700 120.175, 355.500 120.758 C 353.300 121.341, 349.250 122.108, 346.500 122.464 C 328.266 124.823, 309.093 129.898, 275.500 141.258 C 222.401 159.215, 169.858 200.024, 137.153 248.708 C 128.580 261.469, 130.135 264.296, 139.685 253.314 C 171.779 216.408, 186.393 202.579, 211.125 185.713 C 230.448 172.536, 246.541 163.661, 264 156.556 C 267.575 155.101, 271.400 153.494, 272.500 152.984 C 273.600 152.475, 277.425 151.113, 281 149.958 C 284.575 148.802, 288.400 147.487, 289.500 147.034 C 294.297 145.061, 305.234 141.689, 315.500 139.019 C 322.214 137.273, 347.042 132.441, 359.203 130.514 C 383.987 126.586, 428.572 128.630, 477.500 135.936 C 486.354 137.258, 518.133 145.431, 520.500 146.995 C 521.050 147.358, 523.750 148.469, 526.500 149.463 C 549.520 157.781, 578.086 173.599, 595.844 187.860 C 638.117 221.807, 669.689 268.079, 686.688 321 C 698.021 356.284, 702.048 410.496, 696.010 446.500 C 693.789 459.748, 691.706 469.847, 689.825 476.500 C 688.736 480.350, 687.400 485.075, 686.856 487 C 685.487 491.851, 683.021 498.896, 681.378 502.651 C 680.620 504.384, 680 506.108, 680 506.481 C 680 510.879, 652.591 555.913, 649.871 555.984 C 649.526 555.993, 648.638 554.541, 647.899 552.757 C 646.168 548.578, 640.490 542.305, 636.634 540.311 C 629.398 536.569, 625.720 536.847, 608.605 542.434 C 593.781 547.273, 581.786 545.388, 577.124 537.486 C 575.956 535.506, 575 533.574, 575 533.193 C 575 532.812, 584.112 532.488, 595.250 532.474 C 613.548 532.450, 616.126 532.232, 622 530.216 C 635.332 525.641, 637.317 522.987, 639.074 507.391 C 642.168 479.915, 634.467 457.573, 618.883 448.814 L 615.090 446.682 617.116 443.837 C 620.644 438.882, 621.263 434.998, 621.900 413.822 C 622.242 402.450, 622.796 392.871, 623.131 392.536 C 623.466 392.201, 626.373 393.293, 629.592 394.963 C 643.684 402.275, 658.227 396.668, 665.240 381.220 C 668.386 374.289, 668.324 359.300, 665.122 353.151 C 657.530 338.566, 641.647 331.747, 623.500 335.278 C 619.581 336.041, 619.453 335.974, 617.191 331.979 C 607.303 314.510, 571.992 315.308, 551.511 333.464 C 546.528 337.881, 546.883 337.963, 544.500 331.836 C 541.612 324.410, 538.140 322.718, 526.967 323.288 C 517.652 323.764, 513.523 325.305, 508.309 330.251 L 505.118 333.277 502.012 330.663 C 495.657 325.316, 482.622 322.956, 473.024 325.415 C 460.175 328.707, 455.363 335.794, 456.333 350 C 460.631 413.010, 460.637 416.064, 456.452 411.880 C 453.862 409.290, 452.182 394.305, 451.458 367.320 C 450.583 334.676, 449.419 330.722, 439.167 325.545 C 432.444 322.151, 415.516 323.946, 407.366 328.918 C 400.033 333.391, 398.498 337.068, 398.520 350.098 L 398.540 361.834 396.242 355.667 C 388.999 336.235, 381.268 328.757, 365.398 325.833 C 350.859 323.154, 318.596 327.046, 307.290 332.842 C 301.936 335.586, 302.364 335.782, 301.611 330.250 C 300.001 318.409, 292.197 311.701, 279.397 311.153 C 266.105 310.585, 256.888 316.191, 248.550 329.917 C 245.160 335.498, 243 337.483, 243 335.019 C 243 332.379, 229.424 319.842, 223.302 316.828 C 203.138 306.901, 182.518 318.629, 182.562 340 C 182.591 354.589, 189.442 366.789, 202.454 375.426 C 209.319 379.983, 209.155 379.642, 207.325 385.543 C 203.924 396.508, 198.943 410.457, 198.142 411.258 C 197.674 411.726, 195.606 407.471, 193.546 401.804 C 191.486 396.137, 189.442 390.600, 189.004 389.500 C 188.566 388.400, 186.758 383.450, 184.986 378.500 C 177.253 356.900, 172.088 349.156, 162.161 344.281 C 153.504 340.028, 132.314 340.217, 120.500 344.652 C 110.505 348.404, 104.964 351.869, 101.330 356.638 C 98.717 360.066, 98.505 361.009, 98.559 368.925 C 98.616 377.234, 98.779 377.815, 103.809 387.674 C 109.877 399.566, 109.660 398.618, 106.491 399.413 C 105.111 399.759, 102.596 401.946, 100.903 404.271 C 94.840 412.597, 97.852 424.706, 107.200 429.589 C 111.354 431.759, 119.216 431.405, 122.395 428.904 C 126.077 426.008, 126.828 426.591, 132.380 436.654 C 140.341 451.087, 147.517 461.229, 156.580 470.856 L 165.119 479.927 163.019 490.713 C 161.864 496.646, 160.389 504.113, 159.741 507.307 L 158.562 513.115 152.885 506.807 C 149.762 503.338, 146.860 500.838, 146.435 501.252 C 145.314 502.344, 147.638 506.194, 153.156 512.385 C 158.282 518.137, 158.730 519.830, 156.885 526.475 L 155.782 530.449 142.305 516.475 C 119.650 492.982, 106.496 474.636, 95.002 450.500 C 81.256 421.636, 76.510 400.341, 76.504 367.500 C 76.499 340.168, 77.669 332.738, 86.190 306 C 87.855 300.775, 89.563 296.050, 89.986 295.500 C 90.409 294.950, 91.088 293.375, 91.495 292 C 93.589 284.926, 109.467 256.581, 120.298 240.580 C 126.871 230.870, 139.509 216.295, 152.904 202.977 C 165.449 190.504, 167.898 188.275, 175.500 182.418 C 183.100 176.562, 182.459 177.670, 171.767 188.867 C 165.863 195.050, 159.086 202.672, 156.707 205.804 C 146.657 219.034, 141.795 232.318, 151.336 220.478 C 158.337 211.789, 174.015 196.038, 183.912 187.748 C 188.635 183.792, 195.428 177.843, 199.007 174.528 C 209.825 164.507, 230.511 150.848, 247 142.838 C 260.493 136.283, 265.672 134, 267.046 134 C 268.080 134, 268.123 133.723, 267.230 132.830 C 264.254 129.854, 225.098 146.197, 207.866 157.607 C 204.217 160.023, 200.755 162, 200.172 162 C 199.590 162, 198.525 162.829, 197.807 163.842 C 196.903 165.116, 194.713 165.866, 190.706 166.274 C 166.980 168.691, 117.082 219.386, 93.973 264.553 L 88.159 275.916 86.653 271.495 C 83.181 261.305, 73.198 257.305, 63.253 262.120 C 51.271 267.920, 50.678 284.774, 62.271 290.036 C 67.042 292.202, 76.931 292.669, 78.783 290.817 C 80.762 288.838, 81.258 290.639, 79.707 294.169 C 69.233 318.008, 64.921 351.703, 67.990 385.737 C 69.192 399.059, 74.258 424.352, 76.145 426.450 C 76.615 426.972, 77 428.171, 77 429.114 C 77 430.641, 82.571 446.321, 84.953 451.500 C 85.459 452.600, 87.248 456.560, 88.927 460.300 C 98.796 482.271, 115.010 504.463, 138.167 527.692 L 153.312 542.885 152.032 550.192 C 151.328 554.212, 150.385 559.525, 149.936 562 C 145.646 585.641, 152.633 598.492, 173.500 605.339 C 203.063 615.039, 220.895 608.996, 220.978 589.250 C 221.001 583.868, 221.811 582.862, 223.999 585.499 C 231.036 593.977, 275.016 618.020, 294.500 624.040 C 298.350 625.229, 302.400 626.561, 303.500 626.999 C 328.219 636.849, 395.642 640.028, 428.500 632.893 C 440.517 630.283, 450.686 627.860, 453 627.054 C 454.375 626.575, 458.875 625.157, 463 623.903 C 467.125 622.650, 470.927 621.259, 471.450 620.812 C 471.972 620.365, 473.029 620, 473.799 620 C 474.568 620, 476.616 619.362, 478.349 618.582 C 480.082 617.802, 485.775 615.544, 491 613.565 C 507.543 607.297, 518.928 600.807, 527.824 592.576 L 531.148 589.500 532.853 591.588 C 536.809 596.432, 545.684 602.120, 554.500 605.464 C 590.278 619.032, 645.480 599.943, 649.657 572.559 C 650.133 569.433, 651.583 567.121, 655.964 562.500 C 659.092 559.200, 662.507 555.150, 663.553 553.500 C 664.598 551.850, 665.717 550.275, 666.038 550 C 667.162 549.038, 673.798 537.423, 678.323 528.500 C 687.805 509.799, 694.845 490.987, 698.963 473.350 C 700.099 468.483, 701.478 462.700, 702.027 460.500 C 702.576 458.300, 703.502 453.125, 704.084 449 C 704.666 444.875, 705.597 438.575, 706.152 435 C 707.490 426.388, 707.465 383.881, 706.115 372.500 C 704.543 359.242, 702.277 345.374, 700.480 338 C 699.608 334.425, 698.488 329.619, 697.991 327.321 C 694.335 310.419, 681.795 279.906, 669.509 258.015 C 642.351 209.629, 593.031 166.257, 541 145.007 C 537.975 143.772, 534.150 142.198, 532.500 141.510 C 521.346 136.857, 506.362 132.181, 494 129.492 C 489.875 128.596, 484.700 127.437, 482.500 126.918 C 477.436 125.723, 461.126 123.300, 442.814 121.023 C 433.736 119.894, 396.777 117.943, 389 118.183 C 386.525 118.259, 378.875 118.631, 372 119.010 M 390 134.609 C 383.400 135.397, 378 137.234, 378 138.691 C 378 139.807, 378.937 139.984, 382.250 139.493 C 390.843 138.222, 440.314 138.479, 452.806 139.861 C 459.574 140.610, 465.411 140.923, 465.777 140.557 C 466.857 139.476, 463.826 138.100, 459 137.481 C 456.525 137.163, 452.700 136.442, 450.500 135.879 C 446.518 134.860, 396.669 133.814, 390 134.609 M 101.304 138.897 C 89.153 146.530, 94.751 166, 109.097 166 C 122.463 166, 128.979 151.868, 120.183 141.956 C 116.620 137.940, 115.970 137.629, 110.433 137.272 C 105.762 136.971, 103.820 137.317, 101.304 138.897 M 103.314 141.950 C 96.798 145.923, 95.966 153.166, 101.400 158.600 C 108.599 165.799, 120 161.630, 120 151.799 C 120 142.459, 111.098 137.204, 103.314 141.950 M 413.762 141.093 C 414.457 141.825, 418.057 142.736, 421.762 143.116 C 442.009 145.192, 450.159 146.242, 456.197 147.549 C 464.347 149.315, 464.057 149.312, 463.407 147.617 C 462.221 144.528, 445.538 141.305, 426 140.392 C 414.775 139.867, 412.713 139.985, 413.762 141.093 M 303.554 152.093 C 286.058 154.694, 251 170.798, 251 176.234 C 251 178.350, 252.321 178.523, 253.906 176.613 C 254.954 175.350, 262.195 171.578, 274 166.143 C 276.475 165.004, 282.550 162.545, 287.500 160.679 C 295.458 157.678, 300.114 156.333, 310.255 154.105 C 311.770 153.772, 313.120 153.050, 313.255 152.500 C 313.585 151.154, 310.689 151.032, 303.554 152.093 M 427.500 152.809 C 428.050 153.389, 432.325 154.320, 437 154.877 C 446.002 155.952, 459.941 158.162, 468.886 159.933 C 475.681 161.279, 476.256 161.268, 475.768 159.805 C 475.305 158.416, 472.966 157.688, 460 154.904 C 449.249 152.595, 425.867 151.088, 427.500 152.809 M 524 155.495 C 524 155.767, 527.487 157.715, 531.750 159.823 C 550.507 169.100, 581.833 189.759, 588.580 197.301 C 591.286 200.326, 599.215 208.910, 606.199 216.377 C 631.621 243.554, 642.794 259.512, 657.398 289.500 C 669.762 314.891, 677 338.368, 677 353.084 C 677 355.112, 677.428 356.020, 678.250 355.738 C 680.189 355.073, 679.691 334.954, 677.551 327.500 C 668.408 295.650, 655.463 269.687, 636.318 244.805 C 629.799 236.334, 626.934 233.155, 604.090 209.049 C 587.321 191.354, 587.794 190.572, 606.397 205.238 C 611.840 209.529, 616.565 212.756, 616.897 212.410 C 617.479 211.800, 604.954 199.524, 590.500 186.537 C 584.342 181.004, 570.207 171, 568.547 171 C 568.216 171, 564.794 169.443, 560.943 167.540 C 557.093 165.637, 552.380 163.787, 550.471 163.429 C 548.562 163.070, 547 162.474, 547 162.103 C 547 161.732, 546.212 161.374, 545.250 161.308 C 544.288 161.242, 539.697 159.795, 535.048 158.094 C 526.929 155.122, 524 154.433, 524 155.495 M 507 162.246 C 507 164.060, 522.012 170.317, 524.278 169.447 C 525.716 168.895, 532.235 171.288, 538.154 174.541 C 541.499 176.379, 543 176.392, 543 174.583 C 543 171.982, 521.339 162.996, 511.250 161.412 C 507.841 160.876, 507 161.041, 507 162.246 M 659.286 179.058 C 653.365 180.864, 649.153 188.673, 650.430 195.478 C 653.435 211.497, 678.519 210.037, 679.722 193.772 C 680.536 182.753, 670.609 175.605, 659.286 179.058 M 658.367 183.772 C 649.983 190.564, 654.259 202.888, 665.027 202.967 C 676.019 203.047, 680.688 190.620, 672.181 183.928 C 669.015 181.438, 661.356 181.351, 658.367 183.772 M 554.650 183.683 C 554.052 184.281, 560.371 187.876, 562.178 187.966 C 564.165 188.065, 575.773 195.967, 583.553 202.517 C 592.979 210.452, 595.396 211.769, 592.141 207.198 C 584.102 195.908, 558.490 179.843, 554.650 183.683 M 48.500 191.718 C 35.658 194.838, 31.542 213.742, 41.661 223.136 C 50.409 231.257, 62.056 230.992, 70.319 222.484 C 84.032 208.363, 68.740 186.801, 48.500 191.718 M 48.450 196.407 C 42.900 198.824, 40 203.403, 40 209.748 C 40 215.077, 40.215 215.549, 44.518 219.671 C 48.833 223.806, 49.308 224, 55.113 224 C 66.530 224, 73.656 214.583, 69.587 204.872 C 66.108 196.567, 56.717 192.806, 48.450 196.407 M 225 199.776 C 208.877 210.551, 182.695 238, 188.540 238 C 188.837 238, 195.249 231.787, 202.790 224.194 C 210.330 216.600, 219.313 208.209, 222.750 205.546 C 230.049 199.892, 231.890 195.171, 225 199.776 M 182.500 214.149 C 176.432 219.339, 174.633 221.187, 168.431 228.603 C 165.387 232.243, 163.944 236, 165.589 236 C 166.165 236, 192 209.876, 192 209.294 C 192 207.627, 187.343 210.007, 182.500 214.149 M 678.308 227.010 C 668.910 230.795, 674.316 244.206, 684.109 241.398 C 691.830 239.183, 692.342 229.709, 684.881 227.108 C 681.226 225.834, 681.226 225.834, 678.308 227.010 M 676.864 231.399 C 674.328 236.965, 681.410 241.519, 685.527 236.970 C 688.516 233.668, 686.528 229.589, 681.738 229.190 C 678.576 228.927, 677.838 229.261, 676.864 231.399 M 601.250 232.641 C 598.849 233.650, 599.919 236, 602.779 236 C 606.228 236, 613.679 242.721, 612.044 244.356 C 610.327 246.073, 610.855 247.160, 613.240 246.820 C 617.810 246.168, 616.284 239.980, 610.458 235.536 C 607.079 232.958, 603.313 231.775, 601.250 232.641 M 123.252 251.776 C 113.864 264.140, 111.372 268, 112.778 268 C 114.583 268, 134 243.341, 134 241.048 C 134 238.401, 131.554 240.843, 123.252 251.776 M 155.746 242.070 C 150.188 245.004, 143.951 256.509, 145.407 261.143 C 145.641 261.889, 146.108 263.751, 146.443 265.281 C 147.336 269.346, 152.288 271.992, 159.015 271.996 C 169.656 272.003, 178 265.073, 178 256.228 C 178 243.947, 166.296 236.501, 155.746 242.070 M 158.109 244.709 C 155.474 245.754, 152.833 248.510, 150.919 252.210 C 144.120 265.357, 159.029 274.043, 170.364 263.539 C 179.144 255.402, 169.298 240.274, 158.109 244.709 M 65.467 264.998 C 57.314 269.034, 55.341 278.541, 61.400 284.600 C 65.671 288.871, 74.757 289.553, 79.341 285.946 C 86.311 280.464, 84.206 268.073, 75.702 264.520 C 71.028 262.567, 70.310 262.601, 65.467 264.998 M 123.212 277.974 C 120.135 282.674, 116.028 290.359, 112.590 297.851 C 111.745 299.694, 110.745 302.844, 110.370 304.851 C 109.748 308.168, 109.837 308.375, 111.343 307.128 C 112.254 306.373, 113 305.129, 113 304.364 C 113 303.599, 113.417 302.191, 113.926 301.236 C 114.435 300.281, 116.753 295.675, 119.078 291 C 121.402 286.325, 124.360 280.821, 125.652 278.770 C 130.244 271.475, 127.955 270.728, 123.212 277.974 M 104.186 282.902 C 98.244 292.025, 92.963 302.870, 90.503 311 C 89.588 314.025, 88.453 317.474, 87.980 318.664 C 85.817 324.114, 83.756 345.175, 85.134 347.750 C 86.367 350.054, 86.573 349.316, 87.620 338.881 C 88.710 328.018, 89.802 323.362, 94.160 311 C 96.923 303.164, 107.063 280.818, 108.769 278.808 C 109.559 277.877, 110.034 276.602, 109.824 275.973 C 109.615 275.345, 107.078 278.463, 104.186 282.902 M 271.386 322.084 C 266.428 323.521, 261.035 329.977, 253.338 343.686 C 249.399 350.701, 245.712 356.596, 245.145 356.785 C 244.578 356.974, 242.897 355.187, 241.409 352.814 C 234.068 341.104, 229.146 334.232, 225.550 330.671 C 211.933 317.190, 191.436 322.323, 193.482 338.702 C 194.685 348.327, 197.274 352.682, 207.933 363 C 213.331 368.225, 218.055 373.499, 218.431 374.719 C 219.945 379.631, 215.730 398.622, 210.488 410.500 C 209.760 412.150, 208.298 415.533, 207.240 418.019 C 203.725 426.277, 200.111 431.157, 197.765 430.813 C 194.958 430.401, 187.426 416.017, 180.853 398.518 C 168.082 364.513, 164.576 357.918, 157.406 354.410 C 144.497 348.094, 113.963 354.374, 109.175 364.329 C 107.609 367.586, 110.393 374.023, 118.981 387 C 121.710 391.125, 126.480 399, 129.580 404.500 C 152.161 444.560, 162.177 458.815, 174.991 469.129 L 179.482 472.744 178.230 477.122 C 177.542 479.530, 175.846 487.350, 174.462 494.500 C 173.078 501.650, 170.846 513.125, 169.503 520 C 158.695 575.319, 158.578 583.511, 168.500 590.081 C 176.645 595.474, 196.273 599.961, 202.500 597.854 C 208.688 595.759, 209.765 592.533, 211.496 570.897 C 214.541 532.843, 215.165 526.095, 217.082 510.500 C 219.402 491.620, 220.476 485.740, 223.206 477 C 226.021 467.990, 229.906 459.491, 249.154 420.246 C 264.201 389.566, 267.185 383.047, 270.551 373.500 C 272.464 368.075, 276.789 359.843, 281.064 353.494 C 285.895 346.318, 289.964 338.077, 290.568 334.249 C 292.136 324.303, 283.223 318.650, 271.386 322.084 M 579.486 330.853 C 569.343 334.186, 562.559 338.288, 555.391 345.423 C 547.301 353.477, 545.649 357.441, 544.445 371.691 C 543.771 379.658, 542.205 382.673, 540.282 379.706 C 539.852 379.043, 539.275 368.872, 539 357.105 L 538.500 335.711 535.878 333.756 C 533.347 331.869, 532.982 331.857, 525.378 333.415 C 521.045 334.302, 516.375 335.859, 515 336.875 L 512.500 338.721 512.531 358.110 C 512.561 377.722, 514.998 413.481, 517.054 424.500 C 520.454 442.724, 533.466 449.436, 549.500 441.238 C 557.273 437.263, 558.108 434.184, 556.397 415.809 C 555.370 404.773, 555.395 401.129, 556.546 394.470 C 559.219 378.999, 566.500 369.022, 575.128 369.007 C 581.537 368.995, 581.500 368.792, 581.500 403.904 C 581.500 421.282, 581.866 436.237, 582.314 437.138 C 583.383 439.290, 587.319 440, 598.176 440 L 607.102 440 608.684 436.250 C 609.850 433.487, 610.459 427.106, 610.998 412 C 611.820 388.979, 612.946 384.966, 619.898 380.287 C 624.352 377.289, 624.555 377.319, 631.873 382.075 C 645.208 390.740, 654.126 386.849, 656.978 371.121 C 660.081 354.008, 646.546 341.273, 629.346 345.122 C 623.450 346.441, 622.713 347.014, 614.083 357 L 611.059 360.500 611.024 353 C 610.959 338.996, 607.657 333.496, 597.553 330.558 C 590.935 328.634, 585.992 328.715, 579.486 330.853 M 418.500 334.953 C 409.235 337.264, 408 338.411, 408.006 344.699 C 408.023 361.185, 410.243 399.502, 411.586 406.500 C 417.569 437.664, 422.877 448.502, 435 454.309 C 441.697 457.517, 454.724 457.408, 461.218 454.089 C 471.595 448.785, 478.972 439.430, 478.991 431.550 C 479.010 423.333, 480.926 429.756, 481.209 438.988 L 481.500 448.458 486.151 449.236 C 496.295 450.931, 502.543 445.923, 502.440 436.178 C 502.317 424.460, 498.890 348.358, 498.335 345 C 497.146 337.810, 491.230 334.477, 479.780 334.547 C 473.007 334.589, 471.736 334.896, 469.415 337.047 C 466.452 339.794, 466.419 343.026, 469.071 370.500 C 471.146 392.005, 470.864 416.893, 468.500 420.833 C 464.592 427.348, 456.965 428.664, 451.407 423.784 C 443.881 417.176, 441.557 404.012, 440.361 361.201 C 439.563 332.670, 440.115 333.934, 428.527 334.102 C 424.662 334.159, 420.150 334.541, 418.500 334.953 M 347.648 335.685 C 347.271 336.062, 341.643 336.703, 335.140 337.109 C 315.746 338.321, 303.769 343.291, 292.023 355 C 281.076 365.913, 277.674 374.155, 281.692 380.027 C 285.455 385.527, 288.519 385.342, 296.358 379.144 C 308.179 369.797, 316.132 366.116, 329.276 363.908 C 346.574 361.001, 353.897 367.263, 356.528 387.211 C 358.063 398.850, 358.506 421.687, 357.235 423.612 C 356.338 424.970, 343.006 433.876, 337.500 436.796 C 317.933 447.171, 303 444.254, 303 430.056 C 303 421.688, 307.532 414.943, 316.491 409.976 C 321.595 407.146, 339.136 405.092, 344.401 406.708 C 348.821 408.065, 349.110 407.367, 347.952 398.146 C 346.895 389.730, 343.478 382.018, 340 380.198 C 336.787 378.517, 323.241 379.279, 317 381.491 C 296.638 388.708, 279.440 402.162, 273.530 415.497 C 268.699 426.395, 268.499 427.328, 268.584 438.500 C 268.742 459.121, 276.200 468.443, 295.134 471.683 C 303.298 473.080, 304.929 473.065, 314.185 471.518 C 319.752 470.587, 325.025 469.456, 325.904 469.004 C 326.782 468.553, 331.100 466.971, 335.500 465.490 C 352.796 459.665, 359 458.994, 359 462.946 C 359 467.746, 365.439 469.925, 373.571 467.878 L 378.028 466.755 375.514 464.425 C 373.062 462.153, 372.217 460, 373.777 460 C 375.344 460, 379 463.153, 379 464.505 C 379 467.157, 385.159 464.040, 386.393 460.763 C 387.391 458.112, 387.837 457.876, 390.919 458.375 C 400.139 459.869, 396.181 468.668, 383.511 474.846 C 371.717 480.596, 364.131 480.992, 354.871 476.341 C 349.654 473.721, 344.434 474.275, 330.358 478.941 C 307.605 486.484, 284.847 484.375, 270.444 473.389 C 268.520 471.922, 266.779 470.896, 266.575 471.111 C 264.962 472.804, 259.646 485.717, 258.464 490.812 C 254.187 509.249, 258.053 525.778, 270.786 543.500 C 282.587 559.924, 284.912 565.169, 281.606 567.912 C 279.868 569.355, 278.050 567.680, 273.312 560.273 C 271.460 557.379, 268.026 552.646, 265.680 549.756 C 251.970 532.866, 248.480 523.652, 248.534 504.500 C 248.583 487.628, 253.582 472.909, 261.037 467.687 C 263.170 466.192, 263.207 465.949, 261.781 462.807 C 258.724 456.071, 257.757 450.102, 258.175 440.537 C 258.405 435.296, 258.268 431.344, 257.873 431.754 C 255.480 434.235, 236.053 475.028, 234.182 481.500 C 231.233 491.700, 227.152 526.796, 228.783 527.929 C 233.556 531.243, 237.418 541.045, 238.356 552.228 C 240.069 572.642, 259.547 590.104, 299.500 607.043 C 300.600 607.509, 303.613 608.815, 306.195 609.945 C 308.777 611.075, 311.371 612, 311.959 612 C 312.546 612, 313.809 612.410, 314.764 612.911 C 321.938 616.677, 340.949 621.200, 361.500 624.030 C 389.904 627.942, 421.695 625.575, 450 617.442 C 453.025 616.572, 456.850 615.506, 458.500 615.071 C 462.014 614.145, 479.258 608.193, 483.254 606.526 L 486.008 605.377 481.507 602.005 C 478.393 599.672, 476.113 596.765, 474.103 592.567 C 467.336 578.431, 466.489 571.116, 470.030 557.377 C 477.616 527.934, 481.359 484.315, 477.919 465.434 C 476.451 457.373, 476.137 457.248, 468.665 461.755 C 453.248 471.053, 433.082 469.663, 420.223 458.414 C 409.417 448.961, 404.674 438.092, 399.970 412 C 397.136 396.276, 395.016 385.982, 394.001 383 C 393.532 381.625, 392.166 377.125, 390.965 373 C 383.508 347.395, 380.607 342.412, 370.012 337.006 C 366.062 334.991, 349.330 334.003, 347.648 335.685 M 689.919 383.750 C 689.874 384.163, 689.879 389.675, 689.930 396 C 690.059 412.194, 687.247 439.946, 684.843 446.190 C 684.273 447.669, 684.150 449.433, 684.568 450.111 C 686.352 452.996, 690.632 434.349, 692.055 417.500 C 693.113 404.963, 692.355 383, 690.864 383 C 690.389 383, 689.963 383.337, 689.919 383.750 M 569.500 390.463 C 566.248 395.282, 567.346 426.746, 570.891 430.291 C 572.420 431.820, 572.512 430.010, 572 408.500 L 571.500 387.500 569.500 390.463 M 108.276 405.526 C 104.460 407.130, 103 409.672, 103 414.712 C 103 423.774, 114.759 429.343, 120.500 422.999 C 122.515 420.773, 120.601 414.164, 116.255 408.337 C 113.254 404.314, 112.114 403.912, 108.276 405.526 M 325.259 417.659 C 320.355 419.395, 314 426.180, 314 429.680 C 314 431.641, 314.514 432, 317.318 432 C 324.321 432, 336 426.929, 336 423.888 C 336 423.357, 335.015 423.840, 333.811 424.961 C 331.739 426.892, 329 427.708, 329 426.394 C 329 424.999, 334.475 419.372, 337.370 417.792 L 340.500 416.084 335 416.121 C 331.975 416.141, 327.592 416.833, 325.259 417.659 M 511.402 446.672 C 510.177 453.203, 500.616 459.934, 492.500 459.978 L 488.500 460 488.448 487.250 C 488.418 503.146, 487.901 517.625, 487.208 522 C 485.405 533.376, 484.246 539.297, 483.402 541.444 C 482.693 543.247, 482.908 543.220, 486.383 541.072 C 494.108 536.298, 500.311 533.924, 508.285 532.691 L 516.500 531.420 517.776 522.460 C 520.742 501.639, 528.553 487.200, 541.482 478.637 C 545.216 476.164, 546.194 476, 557.173 476 C 563.613 476, 569.128 475.601, 569.430 475.114 C 570.047 474.114, 566.760 473.037, 563 473.007 C 561.625 472.997, 559.236 472.328, 557.691 471.522 C 555.435 470.346, 554.496 470.298, 552.926 471.278 C 550.853 472.573, 542.801 469.164, 537.904 464.917 C 535.770 463.066, 535.808 463.052, 541.951 463.438 C 545.386 463.654, 548.900 464.473, 549.826 465.272 C 551.601 466.804, 558.022 468.373, 569.500 470.082 C 588.403 472.896, 595 477.551, 595 488.078 L 595 492.256 591 491.616 C 588.800 491.264, 584.863 490.217, 582.250 489.289 C 574.590 486.567, 552.849 486.862, 547.336 489.762 C 533.793 496.887, 526.155 521.163, 529.013 548 C 532.361 579.439, 545.771 593.955, 575.281 598.083 C 595.778 600.951, 622.560 592.377, 634.075 579.261 C 638.110 574.666, 639 572.066, 639 564.869 C 639 558.158, 638.142 555.960, 633.684 551.250 C 629.937 547.291, 627.516 547.163, 619.068 550.473 C 601.805 557.239, 588.782 557.593, 577.214 551.610 C 569.947 547.853, 564 536.710, 564 526.853 C 564 519.126, 565.207 518.401, 575.743 519.804 C 594.268 522.270, 619.055 520.680, 623.844 516.718 C 630.903 510.879, 630.571 482.185, 623.289 468.780 C 616.587 456.441, 598.195 449.019, 574.281 449.004 C 569.257 449.001, 568.170 448.721, 568.620 447.548 C 569.683 444.777, 567.919 443.732, 565.645 445.787 C 564.465 446.852, 559.225 449.698, 554 452.112 C 544.825 456.350, 544.184 456.496, 535.250 456.378 C 525.135 456.244, 524.430 456.734, 528.073 461.365 C 529.212 462.814, 529.741 464, 529.247 464 C 527.522 464, 524 459.352, 524 457.076 C 524 455.580, 521.917 452.773, 518.021 449.020 L 512.042 443.260 511.402 446.672 M 653.604 468.038 C 649.687 469.211, 645.286 473.603, 643.939 477.686 C 639.875 489.999, 653.981 500.664, 665.411 493.920 C 680.480 485.029, 670.433 463.003, 653.604 468.038 M 650.681 474.967 C 642.124 485.137, 656.023 497.704, 665.427 488.300 C 671.587 482.140, 667.544 473.143, 658.214 472.247 C 653.730 471.816, 653.159 472.022, 650.681 474.967 M 444.814 486.031 C 444.540 486.839, 444.745 489.068, 445.270 490.984 C 446.223 494.468, 443.732 513.186, 442.006 515.500 C 441.596 516.050, 440.957 518.188, 440.585 520.250 C 439.749 524.887, 441.553 525.350, 442.536 520.750 C 442.918 518.962, 443.594 517.046, 444.038 516.491 C 444.482 515.936, 445.613 511.185, 446.551 505.933 C 448.086 497.340, 448.109 495.792, 446.785 490.473 C 445.975 487.222, 445.089 485.223, 444.814 486.031 M 62.520 491.287 C 51.460 497.551, 51.498 511.389, 62.594 517.734 C 71.012 522.547, 81.260 519.188, 85.178 510.331 C 91.191 496.737, 75.775 483.780, 62.520 491.287 M 422.974 492.683 C 418.517 504.906, 405.851 516.550, 390.500 522.536 C 383.370 525.317, 364.638 525.330, 357.500 522.559 C 351.175 520.104, 348.312 518.393, 344.298 514.670 C 341.353 511.939, 341.213 511.534, 342.548 509.628 C 344.084 507.435, 344.513 503.996, 343.250 504.006 C 341.525 504.020, 327.486 515.717, 327.159 517.412 C 326.691 519.845, 328.898 521.125, 331.323 519.827 C 333.457 518.685, 334.957 520.086, 334.985 523.246 C 335.018 527.061, 339.499 537.859, 343.690 544.222 C 357.714 565.519, 380.527 570.655, 402.511 557.464 C 418.451 547.900, 430.154 527.466, 433.016 504.202 C 434.043 495.854, 433.190 492.481, 429.807 491.506 C 428.538 491.141, 426.713 490.622, 425.751 490.354 C 424.515 490.009, 423.700 490.693, 422.974 492.683 M 65.096 494.209 C 58.240 497.893, 56.580 507.041, 61.818 512.280 C 69.507 519.969, 83 514.771, 83 504.120 C 83 496.806, 71.801 490.606, 65.096 494.209 M 706.500 503.206 C 692.845 507.978, 691.458 526.063, 704.257 532.441 C 722.161 541.363, 738.220 521.552, 725.150 506.667 C 721.489 502.498, 713.022 500.927, 706.500 503.206 M 709.500 505.718 C 703.128 507.266, 698.389 514.696, 699.675 521.124 C 701.655 531.023, 719.216 533.438, 724.015 524.471 C 727.402 518.143, 724.124 509.203, 717.383 506.387 C 713.976 504.963, 712.961 504.877, 709.500 505.718 M 414.500 523.199 C 403.855 531.487, 385.933 538, 373.772 538 C 368.387 538, 358.415 535.778, 353.349 533.449 C 347.326 530.680, 346.799 532.343, 351.273 540 C 356.025 548.132, 362.269 552.653, 372.731 555.536 C 385.527 559.062, 402.505 551.255, 411.483 537.718 C 414.643 532.954, 420.528 520.098, 419.804 519.540 C 419.637 519.412, 417.250 521.058, 414.500 523.199 M 471.868 525.500 C 471.520 526.050, 470.926 527.941, 470.549 529.701 C 467.979 541.689, 457.653 562.521, 449.692 571.781 C 430.603 593.985, 410.153 602.280, 374.261 602.375 C 355.939 602.424, 353.598 603.176, 366.322 604.925 C 381.205 606.970, 400.216 605.854, 414.808 602.079 C 434.897 596.880, 459.383 573.504, 467.264 552 C 471.401 540.714, 474.867 520.757, 471.868 525.500 M 226.606 535.609 C 226.245 539.399, 225.203 548.961, 224.290 556.857 C 222.734 570.325, 222.736 571.273, 224.324 572.161 C 225.254 572.682, 229.275 575.726, 233.258 578.925 C 252.243 594.172, 291.180 614.728, 306.093 617.377 L 309.500 617.982 306 616.489 C 304.075 615.667, 301.600 614.703, 300.500 614.345 C 297.674 613.426, 273.810 601.051, 272 599.565 C 271.175 598.888, 267.800 596.845, 264.500 595.025 C 253.077 588.724, 241.875 578.779, 236.615 570.270 C 233.848 565.793, 231.887 556.995, 230.157 541.288 C 228.780 528.793, 227.458 526.678, 226.606 535.609 M 79.500 542.903 C 62.687 552.603, 69.510 577.323, 89 577.323 C 109.722 577.323, 115.412 549.466, 96.319 541.489 C 90.734 539.155, 85.189 539.621, 79.500 542.903 M 502.500 544.399 C 492.644 547.516, 485.280 553.949, 481.280 562.935 C 476.265 574.205, 479.063 589.343, 487.280 595.389 C 493.928 600.281, 507.793 596.177, 519.318 585.905 C 525.335 580.541, 525.887 578.572, 522.926 573.033 C 521.126 569.666, 519.015 561.067, 518.054 553.187 C 517.497 548.615, 516.780 544.453, 516.461 543.937 C 515.645 542.616, 507.261 542.893, 502.500 544.399 M 81.984 545.852 C 67.586 553.503, 73.814 573.796, 90.236 572.742 C 109.094 571.533, 107.910 544, 89 544 C 87.058 544, 83.901 544.833, 81.984 545.852 M 534.532 552.324 C 534.060 554.018, 534.197 556.137, 534.873 557.621 C 535.493 558.981, 536 560.773, 536 561.602 C 536 562.431, 536.958 565.223, 538.128 567.805 C 546.498 586.269, 565.005 595.734, 588.442 593.538 C 599.431 592.508, 596.636 591.287, 582 590.725 C 565.564 590.093, 557.850 587.037, 548.338 577.389 C 541.187 570.135, 538.754 565.294, 536.079 553 L 535.317 549.500 534.532 552.324 M 681.750 551.080 C 679.474 552.406, 679.350 558.536, 681.582 559.393 C 684.503 560.514, 687.677 560.014, 689.345 558.171 C 691.620 555.658, 691.431 554.484, 688.365 552.073 C 685.427 549.761, 684.303 549.593, 681.750 551.080 M 168.047 556.888 C 167.247 558.819, 166.941 563.815, 167.162 571.342 C 167.475 581.993, 167.685 583.043, 170 585.523 C 176.294 592.266, 198.442 597.787, 202 593.500 C 202.685 592.675, 203.077 591.989, 202.872 591.975 C 202.668 591.962, 199.125 591.805, 195 591.628 C 184.543 591.179, 174.537 587.588, 170.960 583 L 168.230 579.500 169.063 567.031 C 169.970 553.437, 169.874 552.476, 168.047 556.888 M 685.020 581.250 C 669.821 589.015, 670.337 609.395, 685.906 616.283 C 702.798 623.755, 720.802 606.072, 712.666 590 C 707.581 579.956, 695.214 576.042, 685.020 581.250 M 687.177 584.620 C 676.280 590.196, 676.127 606.453, 686.921 611.960 C 700.581 618.929, 715.391 604.252, 707.932 591.136 C 703.819 583.903, 694.375 580.938, 687.177 584.620 M 301 592.933 C 301 596.832, 328.144 610.189, 330.757 607.576 C 331.816 606.517, 329.762 605.391, 319.939 601.641 C 314.680 599.633, 308.267 596.653, 305.689 595.017 C 303.110 593.382, 301 592.444, 301 592.933 M 449.500 596.625 C 435.914 602.170, 417.741 607.164, 406.500 608.444 C 387.249 610.634, 376.143 610.877, 362.727 609.401 C 348.575 607.843, 344.557 607.947, 349 609.755 C 366.216 616.763, 415 614.023, 443.084 604.472 C 451.416 601.638, 452.199 601.496, 449.473 603.318 C 443.001 607.641, 416.101 614.006, 397.952 615.508 C 384.087 616.656, 386.376 618.211, 401 617.579 C 435.305 616.098, 466.296 605.033, 462.663 595.564 C 461.797 593.308, 456.603 593.727, 449.500 596.625 M 173.365 638.053 C 154.405 641.969, 158.142 670.341, 177.627 670.410 C 187.630 670.446, 194.456 663.626, 194.484 653.569 C 194.513 642.648, 184.991 635.652, 173.365 638.053 M 170.835 643.171 C 158.094 650.558, 166.698 670.102, 180.899 666.029 C 192.295 662.761, 194.475 649.997, 184.717 643.669 C 179.771 640.463, 175.755 640.318, 170.835 643.171 M 269.364 653.172 C 263.271 654.777, 261.357 662.511, 265.923 667.077 C 269.633 670.787, 273.060 670.811, 277.151 667.156 C 284.172 660.884, 278.533 650.756, 269.364 653.172 M 267.200 656.200 C 264.747 658.653, 265.733 664.810, 268.834 666.414 C 274.979 669.592, 281.250 661.251, 276.171 656.655 C 274.040 654.726, 268.933 654.467, 267.200 656.200 M 403.500 663.908 C 391.053 670.077, 388.150 681.788, 396.500 692.148 C 407.173 705.390, 428.961 696.953, 428.994 679.566 C 429.017 667.643, 414.256 658.577, 403.500 663.908 M 522.212 665.716 C 507.116 675.504, 517.417 697.958, 535.451 694.575 C 540.388 693.649, 546.621 687.537, 547.521 682.741 C 550.225 668.324, 534.502 657.747, 522.212 665.716 M 404.017 667.851 C 396.222 672.032, 393.890 680.515, 398.577 687.636 C 403.319 694.841, 410.370 696.748, 417.425 692.734 C 433.591 683.533, 420.404 659.063, 404.017 667.851 M 526 667.677 C 514.924 672.306, 518.073 689.352, 530.258 690.726 C 542.102 692.061, 548.531 679.070, 540.167 670.706 C 537.155 667.694, 529.749 666.111, 526 667.677" stroke="none" fill="#1b1f3a" fill-rule="evenodd"/>
</svg>