<svg xmlns="http://www.w3.org/2000/svg" viewBox="0 0 768 768" version="1.1" preserveAspectRatio="xMidYMid meet">
	<path d="M 417.568 38.039 C 413.559 43.619, 406.619 48.523, 400.500 50.100 C 381.027 55.121, 359.232 68.798, 351.963 80.559 C 350.780 82.474, 349.016 84, 347.987 84 C 346.969 84, 345.126 85.463, 343.892 87.250 C 342.658 89.037, 341.545 90.645, 341.419 90.822 C 341.293 90.998, 340.307 90.387, 339.228 89.463 C 336.924 87.490, 327.549 83.895, 324.103 83.662 C 319.747 83.368, 314.704 95.994, 312.876 111.768 C 311.770 121.316, 311.562 121.947, 309.907 120.768 C 291.897 107.938, 281.662 102.333, 265.500 96.449 C 257.831 93.657, 250.872 88.839, 245.606 82.676 C 238.178 73.981, 233.937 73.908, 228.556 82.383 C 222.518 91.890, 223.001 95.600, 231.274 103.250 L 236.410 108 232.455 108 C 222.616 108.001, 203.981 113.700, 199.550 118.064 C 198.137 119.456, 201.247 119.227, 206.215 117.574 C 208.572 116.790, 217.475 115.607, 226 114.945 C 234.525 114.283, 243.878 113.532, 246.784 113.276 C 250.233 112.972, 252.603 113.256, 253.612 114.093 C 255.906 115.997, 259.634 123.838, 261.327 130.320 L 262.818 136.031 260.172 137.418 C 258.716 138.181, 255.945 141.404, 254.013 144.581 C 251.414 148.854, 248.939 151.338, 244.500 154.128 C 233.249 161.200, 227.702 163.996, 226.591 163.153 C 223.186 160.571, 199.056 153.751, 189 152.530 C 181.388 151.605, 176.735 150.025, 175.189 147.841 C 171.491 142.614, 159.706 141.281, 152.373 145.260 C 150.103 146.492, 145.828 148.789, 142.873 150.364 C 135.683 154.197, 134 155.820, 134 158.926 C 134 161.323, 133.509 161.636, 128.146 162.655 C 124.927 163.267, 120.764 164.456, 118.896 165.297 C 117.028 166.138, 112.125 167.826, 108 169.049 C 94.547 173.036, 89.227 176.783, 90.397 181.447 C 90.962 183.697, 90.523 184.214, 86.393 186.155 C 80.550 188.902, 69 199.810, 69 202.582 C 69 203.804, 66.949 206.381, 63.902 208.987 C 50.921 220.087, 45.558 233, 53.928 233 C 55.518 233, 55.297 234.181, 51.917 243.750 C 44.596 264.475, 43.194 274.709, 47.453 276.344 C 48.753 276.843, 48.668 277.586, 46.838 281.711 C 43.534 289.158, 42.908 308.908, 45.881 311.881 C 47.046 313.046, 48 315.214, 48 316.698 C 48 318.183, 49.081 323.020, 50.403 327.448 C 51.724 331.877, 53.113 338.200, 53.490 341.500 C 54.194 347.676, 56.543 358.877, 57.292 359.625 C 58.228 360.561, 60.657 358.721, 63.442 354.966 C 67.046 350.107, 67.585 350.057, 68.308 354.511 C 69.153 359.717, 76.263 373.577, 81.949 381.102 C 88.977 390.403, 96.214 396.270, 104 398.978 C 107.575 400.221, 111.918 401.860, 113.651 402.619 C 115.384 403.379, 117.303 404, 117.915 404 C 118.527 404, 119.809 404.414, 120.764 404.920 C 122.345 405.757, 128.890 407.998, 138 410.820 C 139.925 411.417, 143.913 412.216, 146.861 412.596 C 151.745 413.226, 152.904 413.921, 159.861 420.394 C 164.063 424.302, 169.412 429.001, 171.750 430.834 C 174.088 432.668, 176 434.631, 176 435.196 C 176 436.455, 167.369 461.279, 165.411 465.651 C 164.635 467.384, 164 469.495, 164 470.342 C 164 471.189, 163.600 472.129, 163.111 472.432 C 162.622 472.734, 161.922 474.223, 161.556 475.741 C 161.190 477.258, 155.789 492.225, 149.553 509 C 143.317 525.775, 135.397 547.228, 131.952 556.673 L 125.689 573.845 119.633 576.054 C 108.734 580.027, 99.478 591.001, 94.372 606 C 91.679 613.913, 91.645 645.635, 94.321 654.500 C 106.615 695.230, 130.266 718.038, 160.154 717.985 C 168.282 717.971, 173.800 716.706, 180.223 713.385 C 182.987 711.955, 183.566 711.997, 188.113 713.953 C 194.313 716.620, 206.731 717.652, 213.963 716.101 C 232.460 712.134, 249.768 694.149, 257.367 671 C 264.407 649.550, 264.659 623.875, 257.978 608.500 C 257.500 607.400, 256.185 604.387, 255.055 601.805 C 252.619 596.239, 252.620 596.260, 254.368 590.785 C 255.120 588.428, 256.722 583.350, 257.929 579.500 C 259.136 575.650, 260.499 571.600, 260.958 570.500 C 262.505 566.794, 267.854 551.530, 268.842 548 C 269.909 544.194, 277.825 521.829, 278.243 521.443 C 278.384 521.312, 287.168 521.046, 297.762 520.851 C 314.589 520.542, 316.945 520.687, 316.405 521.999 C 306.328 546.460, 301.646 574.648, 304.357 594.529 C 309.030 628.804, 325.280 649.736, 352.500 656.543 C 365.860 659.884, 402.106 657.230, 412.561 652.146 C 441.945 637.857, 451.525 596.221, 435.030 554.500 C 431.859 546.480, 430.347 542.812, 428.234 538.022 C 426.906 535.010, 424.960 530.285, 423.910 527.522 C 422.860 524.760, 422.001 522.500, 422 522.500 C 422 522.500, 439.748 522.500, 461.441 522.500 L 500.883 522.500 502.518 528 C 503.417 531.025, 504.520 534.400, 504.968 535.500 C 506.204 538.533, 511.034 553.037, 512.128 557 C 512.660 558.925, 513.483 561.400, 513.958 562.500 C 514.432 563.600, 515.579 566.975, 516.506 570 C 517.433 573.025, 519.085 577.468, 520.177 579.873 C 522.074 584.053, 522.092 584.553, 520.581 591.245 C 511.474 631.572, 535.062 686.630, 568.495 703.086 C 578.529 708.025, 587.311 709.031, 599.776 706.668 C 607.577 705.190, 608.559 705.211, 616.880 707.027 C 625.029 708.805, 626.249 708.840, 632.752 707.485 C 657.491 702.326, 677.690 678.464, 686.164 644.386 C 690.469 627.074, 689.311 593.539, 683.993 581.500 C 683.507 580.400, 682.134 577.276, 680.942 574.558 C 673.151 556.789, 659.708 548.561, 634.750 546.284 C 628.082 545.676, 627.666 545.007, 632.518 542.693 C 636.303 540.888, 637.086 539.561, 639.515 530.837 C 640.977 525.583, 641.631 524.768, 648.546 519.563 L 656 513.952 656 507.881 C 656 499.095, 652.319 494, 645.972 494 C 644.674 494, 643.842 493.096, 643.441 491.250 C 643.113 489.738, 642.472 487.600, 642.018 486.500 C 641.563 485.400, 639.751 479.775, 637.990 474 C 636.230 468.225, 633.535 459.675, 632.003 455 C 630.471 450.325, 628.221 443.125, 627.004 439 C 624.340 429.974, 610.257 387.324, 609.007 384.500 C 608.521 383.400, 607.150 379.350, 605.960 375.500 C 604.771 371.650, 603.414 367.600, 602.946 366.500 C 602.478 365.400, 601.666 362.925, 601.142 361 C 600.619 359.075, 598.091 351.650, 595.524 344.500 C 592.958 337.350, 589.738 328.125, 588.370 324 C 587.001 319.875, 585.502 315.600, 585.038 314.500 C 584.575 313.400, 583.207 309.575, 582 306 C 580.793 302.425, 579.401 298.600, 578.907 297.500 C 577.293 293.905, 574.268 283.596, 573.519 279.136 C 573.115 276.735, 570.857 270.660, 568.499 265.636 C 562.642 253.151, 560.884 248.783, 561.478 248.189 C 562.168 247.498, 573.537 253.537, 575.793 255.793 C 576.797 256.797, 579.720 261.080, 582.288 265.309 L 586.957 273 580.478 273 C 573.290 273, 572.372 273.822, 577.250 275.890 C 579.038 276.648, 581.850 277.862, 583.500 278.589 C 596.940 284.509, 601.619 284.372, 603.489 278 C 604.957 272.998, 607.233 269.061, 608.977 268.507 C 609.959 268.196, 611.022 266.639, 611.341 265.047 C 611.659 263.455, 612.949 261.194, 614.208 260.021 C 616.781 257.624, 617.090 251.833, 614.986 245.457 C 613.649 241.405, 614.692 239.327, 618.323 238.810 C 620.899 238.443, 621.830 233.420, 619.967 229.939 C 618.976 228.087, 619.232 227.347, 621.796 224.643 C 625.804 220.416, 627.603 216.600, 628.903 209.567 C 630.150 202.820, 630.454 202.302, 632.281 203.818 C 633.715 205.008, 643.117 206.524, 654.773 207.444 L 662.046 208.018 662.674 204.880 L 663.302 201.741 678.401 202.262 C 692.352 202.743, 694.324 203.058, 704.332 206.400 C 710.290 208.389, 715.544 209.782, 716.009 209.495 C 716.946 208.915, 715.833 204.384, 713.435 199.015 C 706.938 184.470, 703 174.295, 703 172.053 C 703 170.753, 701.875 168.214, 700.500 166.411 C 698.793 164.173, 698 161.860, 698 159.119 C 698 155.557, 697.294 154.367, 691.731 148.552 C 688.284 144.949, 685.949 142, 686.543 142 C 691.475 142, 703.929 132.003, 711.195 122.212 C 714.766 117.400, 721.994 103.460, 722.004 101.365 C 722.006 100.889, 725.156 94.287, 729.004 86.694 C 736.535 71.833, 736.813 70.920, 734.427 68.940 C 732.742 67.541, 731.871 67.674, 715.500 71.809 C 703.972 74.721, 679.129 77.343, 670.574 76.550 C 652.676 74.891, 650.533 74.884, 641.306 76.457 C 636.038 77.355, 630.461 78.744, 628.914 79.545 C 624.850 81.646, 624.188 81.385, 624.353 77.750 L 624.500 74.500 610 73.910 C 593.458 73.238, 588.339 72.021, 586.977 68.440 C 586.350 66.791, 585.273 66, 583.655 66 C 582.338 66, 578.389 65.064, 574.880 63.919 C 565.533 60.870, 551.399 61.652, 541 65.794 C 533.660 68.717, 533.462 68.740, 531.711 66.890 C 529.349 64.394, 527.928 64.499, 521.717 67.627 C 515.769 70.623, 502.990 83.364, 497.009 92.262 C 486.961 107.210, 482.537 128.762, 487.070 140.684 C 488.378 144.124, 487.343 145.058, 479 147.964 C 475.425 149.209, 471.033 150.875, 469.239 151.666 C 466.001 153.094, 464 152.796, 464 150.886 C 464 150.024, 462.413 146.101, 458.990 138.500 C 458.495 137.400, 456.892 133.578, 455.429 130.006 C 453.966 126.434, 450.946 119.909, 448.717 115.506 C 446.488 111.103, 443.561 105.250, 442.212 102.500 C 440.864 99.750, 438.885 96.540, 437.816 95.367 C 435.888 93.252, 435.889 93.200, 437.935 89.382 C 440.656 84.306, 440.540 81.795, 437.411 78.077 C 434.029 74.057, 433.969 74.067, 422.949 80.607 C 410.286 88.122, 402.176 92, 399.127 92 L 396.608 92 399.645 88.750 C 408.103 79.701, 418.287 64.297, 420.622 57.021 L 422.380 51.542 423.671 56.521 C 424.381 59.259, 424.970 63.404, 424.981 65.731 C 424.998 69.469, 425.309 70.040, 427.656 70.628 C 434.248 72.283, 434.601 58.875, 428.403 42.279 C 424.381 31.511, 422.723 30.862, 417.568 38.039 M 409.500 54.024 C 405.650 56.084, 400.925 58.064, 399 58.425 C 393.941 59.374, 389.944 61.100, 390.547 62.077 C 390.834 62.541, 389.319 65.526, 387.181 68.711 C 381.798 76.724, 380.696 78.870, 375.470 91.500 C 373.635 95.936, 370.850 110.188, 371.663 110.989 C 372.640 111.954, 384.554 98.452, 387.212 93.368 C 391.716 84.754, 395.876 77.165, 398.240 73.246 C 399.483 71.186, 401.358 67.813, 402.407 65.750 C 403.457 63.688, 404.694 62, 405.157 62 C 406.264 62, 406.227 63.602, 405.071 65.764 C 400.299 74.682, 395.105 86, 395.784 86 C 397.689 86, 411.557 65.940, 418.071 53.764 C 420.623 48.994, 418.798 49.049, 409.500 54.024 M 379.940 66.322 C 369.207 73.158, 362.021 78.932, 359.391 82.831 C 349.052 98.163, 346.401 104.913, 347.535 113.014 C 350.201 132.040, 351.660 136.102, 354.513 132.441 C 355.723 130.889, 355.904 128.697, 355.418 121.500 C 354.774 111.956, 356.046 102.057, 358.530 97.295 C 359.332 95.758, 360 94.050, 360.016 93.500 C 360.062 91.874, 363.805 87.471, 364.527 88.194 C 364.892 88.559, 363.798 92.849, 362.095 97.727 C 359.049 106.455, 357.514 124, 359.797 124 C 360.235 124, 362.214 122.313, 364.194 120.250 C 367.710 116.588, 367.804 116.282, 368.206 107.242 C 368.440 101.953, 369.128 97.472, 369.808 96.792 C 370.464 96.136, 371 94.971, 371 94.201 C 371 93.432, 371.639 91.384, 372.419 89.651 C 373.199 87.918, 375.261 83.351, 377.001 79.503 C 378.741 75.654, 381.622 70.704, 383.403 68.503 C 389.778 60.623, 389.330 60.341, 379.940 66.322 M 559.500 70.884 C 558.400 71.261, 556.276 72.182, 554.780 72.932 C 552.664 73.991, 551.740 74.029, 550.625 73.104 C 548.809 71.597, 545.022 72.503, 538.500 76.007 C 535.750 77.484, 531.700 79.116, 529.500 79.632 C 526.271 80.391, 525.101 81.335, 523.428 84.536 C 518.421 94.116, 515.090 108.064, 514.299 122.763 L 513.693 134.026 517.596 132.449 C 528.856 127.901, 529.725 127.283, 530.456 123.302 C 532.993 109.493, 548.413 82, 553.621 82 C 555.109 82, 555.112 82.187, 553.652 84.250 C 542.882 99.468, 537.341 110.795, 534.573 123.250 C 533.153 129.641, 538.618 124.949, 542.490 116.452 C 548.563 103.126, 557.947 90.946, 567.311 84.236 C 574.595 79.017, 573.542 81.978, 565.024 90.669 C 555.568 100.318, 543.372 118.705, 545.210 120.543 C 545.469 120.803, 548.566 118.848, 552.091 116.200 C 565.084 106.438, 607.369 84.358, 604.652 88.753 C 604.064 89.705, 585.625 101, 584.660 101 C 584.388 101, 580.740 103.025, 576.554 105.500 C 572.368 107.975, 568.752 110, 568.519 110 C 567.638 110, 555 119.185, 554.997 119.827 C 554.996 120.197, 563.228 120.094, 573.290 119.598 L 591.586 118.696 594.314 113.810 C 595.814 111.123, 599.419 105.679, 602.326 101.712 C 608.372 93.460, 614 84.431, 614 82.985 C 614 81.740, 602.655 81.739, 598 82.984 C 583.470 86.869, 581.960 86.801, 586.053 82.443 C 588.075 80.292, 588.218 79.748, 586.974 78.951 C 584.643 77.458, 578.963 75.962, 573.116 75.301 C 569.152 74.853, 567.611 74.230, 567.274 72.939 C 567.021 71.974, 565.844 70.924, 564.658 70.606 C 562.217 69.951, 562.226 69.951, 559.500 70.884 M 519.400 78.888 C 501.254 92.324, 490.767 113.509, 492.290 133.649 C 492.943 142.287, 492.863 142.110, 495.794 141.344 C 497.874 140.800, 498 140.222, 498 131.249 C 498 122.144, 499.300 114.639, 501.248 112.500 C 501.796 111.898, 501.874 116.969, 501.444 125.250 C 501.051 132.813, 501.007 139, 501.345 139 C 501.683 139, 503.769 138.276, 505.980 137.391 L 510 135.783 510 128.141 C 510 120.045, 511.895 108.105, 514.624 99 C 516.371 93.173, 521.580 81.894, 522.928 81.020 C 524.168 80.216, 525.251 76, 524.217 76 C 523.713 76, 521.545 77.300, 519.400 78.888 M 423.475 83.462 C 419.639 85.915, 413.821 89.402, 410.546 91.210 C 404.688 94.443, 404.639 94.505, 407.546 95.060 L 410.500 95.625 407.273 96.387 C 405.498 96.806, 401.069 97.194, 397.431 97.249 C 391.456 97.340, 390.664 97.598, 389.226 99.925 C 388.352 101.341, 386.523 103.722, 385.163 105.216 L 382.691 107.932 385.411 108.966 C 395.322 112.734, 417.568 107.335, 419.564 100.677 C 419.923 99.480, 422.607 95.347, 425.528 91.493 C 430.553 84.864, 433.278 79, 431.333 79 C 430.847 79, 427.311 81.008, 423.475 83.462 M 717.125 82.629 C 714.719 83.962, 710.444 85.994, 707.625 87.145 C 704.806 88.297, 701.150 89.808, 699.500 90.503 C 697.850 91.198, 689.750 93.881, 681.500 96.464 C 665.669 101.422, 662.345 102.540, 657.500 104.536 C 655.850 105.216, 651.575 106.767, 648 107.984 C 644.425 109.200, 640.600 110.557, 639.500 110.998 C 637.248 111.902, 619.490 118.206, 613.750 120.139 C 609.237 121.659, 609.129 122.126, 612.911 123.800 C 625.523 129.383, 642.772 131.959, 656.697 130.340 C 664.452 129.438, 666.262 128.822, 671.905 125.158 L 678.310 121 669.277 121 C 662.468 121, 659.938 120.631, 659 119.500 C 657.916 118.194, 658.581 117.990, 664.128 117.923 C 667.632 117.881, 671.400 117.683, 672.500 117.482 C 673.600 117.281, 675.955 116.846, 677.734 116.516 C 681.086 115.893, 692 110.080, 692 108.917 C 692 108.553, 690.179 107.964, 687.953 107.608 C 682.979 106.813, 683.677 105, 688.957 105 C 692.239 105, 694.516 103.703, 704.648 96.059 C 721.525 83.327, 727.522 76.872, 717.125 82.629 M 645.500 84.434 C 631.798 86.295, 620.423 90.984, 614.215 97.332 C 609.486 102.167, 598.635 116.968, 599.318 117.651 C 599.726 118.059, 613.764 113.632, 617.145 112.029 C 618.600 111.339, 622.036 107.563, 624.780 103.637 C 633.915 90.572, 638.676 88.720, 630.077 101.577 C 627.248 105.806, 625.172 109.505, 625.464 109.797 C 626.783 111.117, 637.576 106.300, 640.448 103.110 C 650.407 92.049, 654.759 87.665, 657.225 86.208 C 663.043 82.771, 660.538 82.392, 645.500 84.434 M 235.619 86.551 C 234.140 90.403, 243.737 97.071, 260 103.491 C 277.699 110.477, 285.776 114.810, 284.245 116.498 C 283.835 116.949, 284.288 117.036, 285.250 116.691 C 286.212 116.345, 287 116.403, 287 116.819 C 287 117.235, 289.890 119.476, 293.423 121.799 C 304.974 129.393, 315.562 140.586, 317.410 147.154 C 318.284 150.264, 319 153.526, 319 154.404 C 319 155.363, 319.845 156, 321.117 156 C 322.830 156, 323.114 155.571, 322.609 153.750 C 322.266 152.512, 321.699 148.912, 321.350 145.750 C 320.938 142.018, 320.258 140, 319.413 140 C 318.696 140, 313.475 135.667, 307.810 130.371 C 292.784 116.324, 285.391 111.683, 265 103.497 C 254.366 99.228, 246.783 94.608, 240.981 88.864 C 236.554 84.482, 236.433 84.429, 235.619 86.551 M 669.500 85.902 C 661.871 86.662, 655.790 90.171, 649.104 97.672 C 646.314 100.803, 644.199 103.533, 644.405 103.739 C 644.886 104.219, 654.729 101.015, 658 99.313 C 659.375 98.598, 660.950 98.005, 661.500 97.996 C 662.050 97.986, 664.750 96.188, 667.500 94 C 673.207 89.459, 678.655 88.167, 673.694 92.532 C 668.642 96.976, 673.174 95.308, 682 89.474 C 684.475 87.838, 687.175 86.194, 688 85.820 C 689.792 85.008, 677.952 85.061, 669.500 85.902 M 234.268 96.500 C 237.328 102.453, 245.009 107, 252.007 107 C 253.522 107, 257.751 108.125, 261.404 109.500 C 265.057 110.875, 268.575 112, 269.223 112 C 271.995 112, 267.831 110.037, 257.521 106.484 C 247.337 102.974, 239.179 98.914, 234.613 95.083 C 232.786 93.550, 232.775 93.595, 234.268 96.500 M 323.764 97.250 C 322.959 99.037, 321.810 101.850, 321.211 103.500 C 320.093 106.577, 318.270 126.149, 318.393 133.750 C 318.493 139.948, 320.717 139.171, 321.255 132.750 C 321.873 125.385, 323.784 116.422, 326.061 110.212 C 328.438 103.730, 328.443 104, 325.941 104 C 324.769 104, 324.159 103.552, 324.525 102.959 C 324.879 102.387, 325.972 102.174, 326.954 102.485 C 329.575 103.317, 330.772 97.038, 328.333 95.254 C 325.851 93.439, 325.390 93.641, 323.764 97.250 M 340.919 109.069 C 339.500 110.956, 337.513 114.821, 336.505 117.658 C 334.512 123.263, 335.310 129.611, 339.847 144.273 L 341.634 150.045 344.664 145.273 C 349.185 138.152, 349.245 138.009, 348.261 136.706 C 346.277 134.079, 344.641 125.998, 344.085 116.069 L 343.500 105.638 340.919 109.069 M 410.500 109.887 C 405.760 112.364, 404.771 112.494, 391.490 112.382 C 377.737 112.265, 377.446 112.308, 375.636 114.707 C 373.832 117.099, 373.839 117.199, 375.942 119.438 C 379.046 122.742, 387.066 125, 395.698 125 C 406.548 125, 405.241 127.397, 394.176 127.790 C 384.150 128.147, 378.591 126.745, 374.733 122.887 C 372.234 120.388, 371.535 120.132, 370.171 121.218 C 367.668 123.209, 361.026 130.422, 361.012 131.165 C 360.974 133.206, 385.029 133.343, 396.405 131.366 C 401.720 130.443, 400.411 132.322, 394.249 134.462 C 388.326 136.518, 370.260 137.556, 363.215 136.244 C 357.654 135.209, 354.337 137.108, 355.665 140.569 C 356.746 143.385, 367.049 147.822, 376.250 149.434 C 381.452 150.345, 380.952 152, 375.475 152 C 370.205 152, 361.386 149.123, 356.931 145.951 L 353.820 143.736 351.688 145.868 L 349.555 148 352.028 149.734 C 356.664 152.985, 361.495 155.076, 365.750 155.674 C 370.440 156.334, 371.293 157.637, 367.634 158.556 C 364.311 159.390, 357.108 157.276, 353.201 154.320 C 351.387 152.947, 349.249 152.074, 348.451 152.380 C 346.182 153.251, 346.744 154.719, 349.623 155.442 C 351.066 155.804, 356.010 157.930, 360.609 160.167 L 368.970 164.234 373.586 162.064 C 377.133 160.397, 378.546 159.020, 379.686 156.118 C 380.788 153.313, 382.067 152.016, 384.652 151.081 C 388.222 149.790, 398.743 141.074, 409.371 130.604 L 415.356 124.707 413.178 122.943 C 410.287 120.602, 410.427 118.974, 414 113.339 C 418.586 106.108, 418.290 105.816, 410.500 109.887 M 700.846 108.369 C 695.890 109.574, 692.430 112.071, 691.453 115.149 C 691.124 116.185, 689.079 117.940, 686.908 119.047 C 683.631 120.719, 683.124 121.364, 683.921 122.852 C 684.652 124.219, 684.397 124.984, 682.848 126.072 C 671.655 133.934, 670.909 135.567, 678.880 134.764 C 691.053 133.537, 709.790 117.262, 700.750 115.767 C 698.903 115.462, 699.178 115.193, 702.281 114.270 C 705.683 113.257, 709.880 109.696, 709.967 107.750 C 710.011 106.750, 706.534 106.986, 700.846 108.369 M 435.693 114.015 C 433.953 115.711, 434.046 116.035, 438.175 122.638 C 440.535 126.412, 446.073 136.664, 450.483 145.419 C 454.892 154.175, 459.034 161.515, 459.686 161.731 C 460.893 162.131, 457.094 151.393, 452.599 141.696 C 451.274 138.838, 448.979 133.800, 447.499 130.500 C 439.621 112.936, 438.460 111.316, 435.693 114.015 M 422.555 115.750 C 425.798 123.132, 422.234 131.040, 411.247 140.843 C 408.086 143.663, 403.449 147.958, 400.943 150.387 C 398.292 152.957, 394.633 155.329, 392.193 156.060 C 387.516 157.462, 387.590 157.365, 389.069 160.130 C 389.860 161.607, 389.804 162.531, 388.854 163.676 C 387.639 165.140, 378.060 169.982, 376.314 170.015 C 373.049 170.077, 373.080 171.890, 376.443 177.475 C 378.370 180.676, 380.711 185.366, 381.646 187.897 C 382.580 190.429, 383.665 192.950, 384.057 193.500 C 384.449 194.050, 385.103 196.060, 385.512 197.967 C 385.920 199.874, 386.608 202.124, 387.041 202.967 C 387.911 204.663, 393.156 219.372, 394.987 225.250 C 396.142 228.959, 398 230.368, 398 227.535 C 398 226.729, 398.624 224.142, 399.387 221.785 C 400.149 219.428, 401.974 213.675, 403.442 209 C 414.005 175.356, 421.365 166.216, 443.250 159.562 C 446.413 158.601, 449 157.576, 449 157.285 C 449 155.157, 432.165 125.486, 427.136 118.750 C 423.623 114.046, 421.072 112.375, 422.555 115.750 M 330.513 117.707 C 329.198 120.920, 328.048 135.370, 328.676 140.803 C 329.243 145.717, 329.571 146.250, 333.144 148.073 C 337.607 150.350, 337.615 150.336, 335.080 144.739 C 330.947 135.618, 329.728 129.060, 330.981 122.693 C 332.137 116.816, 331.902 114.314, 330.513 117.707 M 267.364 121.651 C 271.452 135.110, 270.588 144.503, 264.721 150.370 L 262.331 152.760 267.916 159.314 C 270.987 162.918, 273.764 165.898, 274.086 165.934 C 274.408 165.970, 276.658 164.458, 279.086 162.574 C 284.987 157.995, 292.108 155.331, 302.444 153.836 C 311.927 152.465, 311.837 152.562, 308.929 146.861 C 303.402 136.027, 286.692 123.768, 274.500 121.604 C 272.300 121.213, 269.668 120.648, 268.651 120.348 C 267.212 119.923, 266.927 120.212, 267.364 121.651 M 479.525 127.023 C 476.864 134.068, 470.926 146.099, 468.846 148.661 C 466.798 151.183, 469.833 150.777, 472.186 148.214 C 476.982 142.989, 480.910 135.178, 482.059 128.583 C 483.711 119.093, 482.744 118.498, 479.525 127.023 M 575.500 123.080 C 571.100 123.526, 563.112 124.183, 557.749 124.539 C 551.721 124.940, 548.231 125.565, 548.609 126.176 C 550.597 129.393, 566.555 137, 571.315 137 C 572.107 137, 573.373 137.749, 574.128 138.664 C 575.385 140.189, 575.080 140.279, 570.489 139.740 C 563.115 138.873, 554.824 135.448, 549.136 130.919 L 544.119 126.924 533.059 131.564 C 526.977 134.116, 522 136.376, 522 136.587 C 522 139.176, 552.730 149.014, 560.738 148.988 C 567.819 148.965, 578.931 139.997, 587.246 127.595 C 591.455 121.317, 591.749 121.431, 575.500 123.080 M 597.500 124.765 C 596.425 125.555, 590.772 136.138, 591.226 136.510 C 591.661 136.865, 604.964 140.619, 611 142.089 C 614.164 142.859, 621.844 143.413, 629.080 143.393 L 641.660 143.358 651.330 138.559 C 656.648 135.919, 661.001 133.476, 661.001 133.130 C 661.002 132.783, 654.461 132.646, 646.465 132.824 C 629.054 133.213, 623.002 132.113, 609.723 126.146 C 604.955 124.004, 599.392 123.375, 597.500 124.765 M 513.581 140.516 C 510.877 142.562, 513.023 144.732, 522.295 149.328 C 531.998 154.137, 533.590 154.407, 543.737 152.963 L 552.500 151.716 547.500 150.331 C 537.340 147.516, 529.350 144.666, 523.779 141.871 C 517.297 138.619, 516.269 138.482, 513.581 140.516 M 654.469 144.853 C 647.852 147.409, 640.820 150.465, 638.843 151.643 C 636.865 152.822, 634.179 154.126, 632.873 154.540 C 629.282 155.678, 623 159.878, 623 161.140 C 623 162.943, 629.867 161.377, 636.900 157.971 C 640.399 156.275, 644.434 155.029, 645.878 155.196 C 648.190 155.465, 647.849 155.813, 643 158.137 C 639.975 159.586, 636.600 161.484, 635.500 162.354 C 631.427 165.576, 636.696 164.098, 643 160.250 C 653.692 153.723, 654.403 153.368, 659.193 152.172 C 669.450 149.610, 668.753 151.666, 658 155.691 C 654.975 156.823, 649.860 159.342, 646.633 161.288 L 640.766 164.827 645.007 167.505 C 649.711 170.474, 652.010 170.489, 664.174 167.631 C 667.844 166.768, 673.919 165.595, 677.674 165.024 C 688.524 163.372, 689.002 163.191, 688.985 160.731 C 688.964 157.735, 688.284 156.901, 682.840 153.198 C 679.457 150.897, 678.312 149.524, 678.660 148.191 C 679.032 146.771, 677.785 145.631, 673.180 143.177 C 669.902 141.430, 667.058 140.047, 666.860 140.103 C 666.662 140.160, 661.086 142.298, 654.469 144.853 M 501.608 144.641 C 495.861 146.406, 496.182 147.047, 505.232 151.889 C 511.632 155.314, 521.689 157.289, 526.989 156.164 L 530.478 155.423 524.243 153.091 C 520.814 151.808, 516.025 149.013, 513.601 146.880 C 508.696 142.562, 508.499 142.526, 501.608 144.641 M 586.645 146.556 C 587.047 147.625, 589.086 150.300, 591.177 152.500 C 593.268 154.700, 594.983 156.868, 594.989 157.317 C 595.004 158.465, 591.140 157.109, 587 154.514 C 580.411 150.384, 574 150.177, 574 154.095 C 574 155.903, 573.510 156.005, 567.723 155.413 C 563.348 154.964, 560.090 155.216, 556.973 156.244 C 554.513 157.055, 550.378 158.325, 547.784 159.067 C 542.468 160.588, 542.516 160.485, 541.064 173.459 C 539.801 184.752, 541.207 191.420, 547.613 204.505 C 555.410 220.434, 554.227 221.676, 545.437 206.789 C 536.990 192.485, 535.019 181.001, 538.520 166.500 C 540.359 158.883, 540.377 159.089, 537.936 159.727 C 530.067 161.785, 530.623 180.545, 539.068 197.980 C 540.681 201.309, 542 204.261, 542 204.540 C 542 204.820, 543.847 207.974, 546.105 211.549 C 553.610 223.433, 569.295 231.230, 598.239 237.464 C 606.103 239.159, 608.555 238.888, 607.612 236.431 C 607.323 235.679, 607.586 234.756, 608.195 234.379 C 608.963 233.905, 608.860 233.358, 607.860 232.597 C 602.886 228.816, 599.463 215.192, 602.209 210.112 C 604.526 205.827, 605.513 207.703, 605.184 215.763 C 604.931 221.983, 605.266 224.284, 606.895 227.500 C 608.009 229.700, 608.938 230.735, 608.960 229.800 C 608.982 228.865, 609.563 227.740, 610.250 227.300 C 615.035 224.238, 622.589 201.089, 621.300 193.440 C 620.537 188.916, 613.123 174.335, 608.814 168.884 C 604.806 163.814, 604.955 162.603, 609.177 165.924 C 611.518 167.766, 613.331 170.232, 619.405 179.842 C 623.140 185.749, 623.743 184.446, 620.473 177.534 C 615.183 166.352, 604.812 155.472, 594.500 150.286 C 591.750 148.903, 588.693 147.061, 587.707 146.192 C 586.048 144.730, 585.968 144.757, 586.645 146.556 M 610.550 153.580 C 616.453 158.587, 617.324 159.025, 618.824 157.735 C 621.325 155.584, 626.754 153.137, 630.647 152.406 C 632.543 152.051, 633.960 151.631, 633.797 151.472 C 633.535 151.219, 623.181 149.983, 608.726 148.479 L 603.953 147.983 610.550 153.580 M 155.872 154.017 C 150.637 154.902, 147.522 156.319, 144.239 159.309 L 141.979 161.368 144.599 164.103 C 148.329 167.997, 147.023 168.998, 138.191 169.015 C 132.856 169.026, 130.960 169.328, 132 170 C 132.825 170.533, 135.412 170.976, 137.750 170.985 C 140.088 170.993, 142 171.381, 142 171.847 C 142 172.313, 145.262 173.199, 149.250 173.816 C 153.238 174.433, 159.650 175.623, 163.500 176.461 C 176.812 179.358, 181.534 180.009, 189.784 180.085 L 198.068 180.161 207.284 174.222 C 212.353 170.955, 217.561 167.727, 218.857 167.049 C 221.610 165.608, 220.851 164.578, 216 163.171 C 201.658 159.010, 197.468 157.914, 190.923 156.611 C 183.876 155.207, 164.299 152.866, 161.711 153.118 C 161.045 153.182, 158.417 153.587, 155.872 154.017 M 583.826 162.113 C 586.727 164.954, 589.978 168.997, 591.051 171.099 C 593.288 175.485, 593.693 184.918, 591.775 187.989 C 590.800 189.549, 590.814 190.211, 591.842 191.225 C 595.146 194.484, 598.310 181.317, 596.043 173.749 C 594.573 168.841, 586.118 159.585, 581.698 158.044 C 578.745 157.015, 578.876 157.266, 583.826 162.113 M 495.343 166.617 C 500.273 171.189, 498.543 171.500, 468.198 171.500 L 440.500 171.500 435.906 174.201 C 428.292 178.677, 420.994 191.848, 415.375 211.250 C 414.619 213.863, 413.371 218.137, 412.603 220.750 C 402.500 255.101, 402.895 249.900, 409.021 268 C 411.348 274.875, 414.962 285.225, 417.052 291 C 419.142 296.775, 421.636 304.067, 422.594 307.205 C 424.290 312.757, 426 314.041, 426 309.762 C 426 308.596, 426.434 306.260, 426.965 304.571 C 427.495 302.882, 428.905 297, 430.098 291.500 C 433.933 273.811, 440.618 248.982, 441.887 247.713 C 442.732 246.868, 444.838 250.736, 449.941 262.500 C 451.133 265.250, 452.514 268.400, 453.010 269.500 C 453.505 270.600, 456.199 277.350, 458.998 284.500 C 463.575 296.197, 465.101 299.917, 468.023 306.500 C 470.300 311.630, 474.490 322.222, 478.447 332.849 C 483.605 346.700, 493.563 372.269, 495.448 376.500 C 499.536 385.673, 515 429.817, 515 432.311 C 515 433.380, 512.392 433.849, 503.750 434.332 C 477.031 435.826, 421.180 439.209, 393 441.040 C 347.414 444.001, 272.453 446.594, 266.873 445.402 C 262.511 444.470, 262.501 444.458, 262.849 440.484 C 263.392 434.269, 263.078 434.359, 286.747 433.666 C 326.722 432.495, 387.059 429.130, 433 425.510 C 443.175 424.708, 461.625 423.357, 474 422.507 C 486.375 421.658, 497.046 420.767, 497.714 420.527 C 498.984 420.070, 497.712 414.583, 495.864 412.550 C 495.389 412.028, 494.985 410.903, 494.966 410.050 C 494.947 409.198, 494.063 406.700, 493 404.500 C 491.937 402.300, 491.053 399.802, 491.034 398.950 C 491.015 398.097, 490.624 396.972, 490.165 396.450 C 489.706 395.927, 488.522 393.250, 487.535 390.500 C 484.346 381.622, 476.021 360.552, 474.996 358.764 C 474.448 357.809, 474 356.527, 474 355.915 C 474 355.303, 473.378 353.384, 472.618 351.651 C 471.857 349.918, 468.913 342.425, 466.076 335 C 463.238 327.575, 460.487 320.600, 459.962 319.500 C 459.437 318.400, 455.944 309.295, 452.200 299.266 L 445.393 281.033 444.143 287.266 C 443.455 290.695, 442.281 296.200, 441.534 299.500 C 438.608 312.425, 434.704 330.969, 431.535 347 C 430.176 353.875, 428.365 362.650, 427.509 366.500 C 426.654 370.350, 425.494 375.975, 424.931 379 C 422.981 389.479, 420.689 398.506, 419.636 399.856 C 418.245 401.641, 410.368 400.797, 408.202 398.631 C 406.658 397.086, 408.841 385.642, 415 363 C 419.878 345.066, 419.941 342.755, 415.908 329.592 C 414.208 324.041, 411.717 315.900, 410.373 311.500 C 406.241 297.973, 397.841 271.612, 396.989 269.500 C 396.546 268.400, 394.522 262.100, 392.491 255.500 C 390.461 248.900, 387.509 239.900, 385.933 235.500 C 384.356 231.100, 382.336 225.025, 381.443 222 C 380.551 218.975, 379.455 215.600, 379.008 214.500 C 378.561 213.400, 377.208 209.575, 376 206 C 369.778 187.574, 362.031 173.298, 355.869 168.903 C 352.940 166.813, 351.456 166.516, 344.500 166.619 C 330.017 166.835, 309.621 166.865, 302.500 166.681 C 285.468 166.241, 278.856 174.251, 267.983 208.500 C 266.237 214, 264.432 219.400, 263.972 220.500 C 262.756 223.408, 254.832 247.564, 250.521 261.500 C 248.480 268.100, 245.761 276.425, 244.479 280 C 243.197 283.575, 238.986 295.950, 235.120 307.500 C 231.255 319.050, 226.029 334.350, 223.508 341.500 C 220.986 348.650, 217.787 357.875, 216.399 362 C 215.011 366.125, 213.498 370.400, 213.036 371.500 C 212.573 372.600, 211.207 376.425, 210 380 C 208.793 383.575, 207.440 387.400, 206.995 388.500 C 204.816 393.882, 185.121 447.824, 184.541 450 C 184.174 451.375, 183.499 453.400, 183.040 454.500 C 181.535 458.106, 173.156 481.356, 170.966 488 C 169.788 491.575, 168.226 495.850, 167.496 497.500 C 166.765 499.150, 165.255 503.200, 164.140 506.500 C 163.024 509.800, 160.242 517.675, 157.957 524 C 155.672 530.325, 153.159 537.300, 152.374 539.500 C 151.588 541.700, 150.556 544.400, 150.079 545.500 C 149.602 546.600, 148.432 549.750, 147.479 552.500 C 146.526 555.250, 145.173 558.850, 144.472 560.500 C 143.771 562.150, 142.727 564.962, 142.151 566.750 L 141.104 570 155.441 570 L 169.777 570 170.456 566.250 C 172.218 556.510, 182.607 548.750, 187.429 553.571 C 189.402 555.544, 189.440 560.503, 187.523 565.934 C 186.151 569.823, 186.169 570.085, 187.773 569.619 C 192.496 568.250, 201.319 567.938, 208.206 568.896 C 216.217 570.010, 225.777 573.776, 224.969 575.500 C 224.435 576.638, 223.390 576.599, 213 575.053 C 205.118 573.880, 199.100 574.286, 190.034 576.605 C 183.439 578.292, 182.333 579.316, 181.513 584.500 L 180.880 588.500 183.476 585.500 L 186.072 582.500 185.061 585.250 C 183.683 588.997, 186.383 588.945, 198.159 585 C 211.074 580.673, 221.366 581.308, 231.612 587.063 C 235.536 589.267, 236.959 589.559, 235.200 587.800 C 233.207 585.807, 233.832 580.576, 237.111 571.814 C 241.875 559.079, 243.155 555.769, 244.636 552.349 C 245.386 550.616, 246 548.697, 246 548.085 C 246 547.473, 246.414 546.191, 246.920 545.236 C 247.426 544.281, 249.715 539.527, 252.006 534.670 C 254.298 529.814, 256.370 526.036, 256.609 526.276 C 256.849 526.516, 255.010 532.960, 252.523 540.596 C 250.035 548.232, 248 554.829, 248 555.256 C 248 555.683, 246.008 561.537, 243.574 568.266 C 238.203 583.111, 237.263 586.574, 238.873 585.578 C 241.727 583.815, 249.147 564.538, 255.454 542.500 C 256.398 539.200, 258.471 532.225, 260.060 527 C 261.649 521.775, 263.236 515.808, 263.587 513.741 C 264.397 508.974, 262.544 509.276, 297 508.304 C 337.681 507.156, 368.772 507.307, 397.500 508.792 C 411.250 509.502, 442.075 510.279, 466 510.518 C 489.925 510.756, 509.807 510.963, 510.183 510.976 C 510.558 510.989, 511.156 512.013, 511.511 513.250 C 511.867 514.487, 513.205 518.425, 514.485 522 C 515.765 525.575, 519.126 535.700, 521.954 544.500 C 524.782 553.300, 527.801 562.388, 528.663 564.695 L 530.229 568.889 534.010 564.107 C 540.784 555.536, 550.088 549.922, 563.827 546.115 C 567.757 545.026, 571.437 543.848, 572.006 543.496 C 573.171 542.777, 578.313 544.271, 585 547.271 C 590.001 549.516, 598 550.778, 598 549.323 C 598 548.374, 585.068 541.084, 577.250 537.625 C 572.593 535.565, 572.214 534.897, 574.584 532.930 C 575.814 531.910, 576.540 531.879, 577.834 532.794 C 578.750 533.441, 581.075 534.814, 583 535.843 C 590.524 539.867, 596.668 543.524, 600.400 546.202 C 602.545 547.741, 605.389 549, 606.719 549 C 608.938 549, 608.616 548.369, 602.829 541.373 C 592.298 528.641, 583.991 523.329, 578.886 526.061 C 576.217 527.489, 575.840 527.236, 576.184 524.250 C 576.694 519.816, 582.460 519.903, 591.416 524.480 C 597.144 527.407, 599.935 529.755, 605.997 536.745 C 611.882 543.531, 613.571 544.972, 613.855 543.445 C 614.053 542.375, 614.644 540.971, 615.169 540.324 C 615.798 539.547, 615.295 536.999, 613.687 532.824 C 609.959 523.143, 607.813 515.349, 608.174 512.803 C 608.855 507.994, 621.104 510.295, 622.405 515.476 C 623.002 517.856, 623.468 517.460, 629.515 509.442 L 635.987 500.862 634.112 496.681 C 631.993 491.954, 628.289 481.110, 624.999 470 C 623.777 465.875, 622.109 460.250, 621.292 457.500 C 615.872 439.248, 600.024 392.317, 587.524 357.500 C 584.957 350.350, 582.257 342.700, 581.525 340.500 C 580.793 338.300, 578.086 330.650, 575.508 323.500 C 572.931 316.350, 570.368 309.150, 569.812 307.500 C 569.257 305.850, 568.172 303.082, 567.401 301.349 C 566.631 299.616, 566 297.697, 566 297.085 C 566 296.473, 565.588 295.191, 565.085 294.236 C 564.582 293.281, 562.051 286.650, 559.460 279.500 C 554.531 265.902, 546.738 245.633, 544.464 240.500 C 543.733 238.850, 541.505 233.450, 539.514 228.500 C 535.505 218.531, 534.549 216.282, 528.466 202.500 C 518.820 180.648, 513.887 174.732, 498.478 166.540 C 492.440 163.329, 491.813 163.344, 495.343 166.617 M 676 168.066 C 671.875 169.135, 667.719 170.458, 666.764 171.005 C 665.809 171.552, 664.346 172, 663.514 172 C 662.681 172, 662 172.367, 662 172.817 C 662 174.141, 673.843 175.941, 682.834 175.981 C 695.416 176.039, 698.333 178.340, 686.661 179 L 677.821 179.500 687.027 183.913 C 692.091 186.340, 697.550 189.433, 699.159 190.787 C 700.768 192.141, 702.344 192.989, 702.662 192.672 C 703.699 191.635, 699.468 185.558, 696.155 183.326 C 693.334 181.424, 693.136 181.023, 694.610 180.199 C 696.892 178.921, 695.884 174.026, 692.397 169.454 C 689.266 165.349, 687.166 165.171, 676 168.066 M 233 169.564 C 227.333 172.762, 226 174.519, 226 178.789 L 226 182.196 229.250 180.188 C 231.037 179.084, 233.365 176.339, 234.421 174.090 C 237.191 168.194, 240.109 169.500, 239.135 176.200 C 239.079 176.585, 240.883 176.247, 243.142 175.450 C 245.402 174.652, 248.368 174, 249.733 174 C 251.527 174, 252.055 173.585, 251.638 172.500 C 251.204 171.368, 251.853 170.976, 254.281 170.900 C 262.909 170.633, 262.216 169.361, 252.808 168.198 C 239.554 166.560, 238.152 166.656, 233 169.564 M 622 167.477 C 622 167.740, 623.281 170.328, 624.846 173.227 C 626.411 176.127, 628.247 180.192, 628.927 182.261 C 630.138 185.948, 633.461 189.104, 639.500 192.302 C 648.072 196.842, 657.419 199.255, 656.427 196.672 C 656.129 195.894, 656.473 195.043, 657.193 194.781 C 658.908 194.154, 693.622 195.622, 697.500 196.485 L 700.500 197.153 698.242 195.316 C 694.913 192.609, 680.530 185.422, 672.500 182.453 C 668.650 181.030, 663.813 179.241, 661.750 178.477 C 657.217 176.799, 657.116 177.229, 661 181.653 C 663.909 184.966, 664.772 187, 663.268 187 C 662.866 187, 660.278 184.595, 657.518 181.655 C 650.410 174.084, 646.034 173.026, 651.068 180.096 C 652.206 181.693, 652.740 183, 652.257 183 C 650.861 183, 647.155 179.200, 645.580 176.154 C 644.194 173.475, 636.597 169.070, 635.410 170.257 C 635.097 170.570, 635.603 171.991, 636.535 173.413 C 639.024 177.212, 636.204 176.871, 632.437 172.918 C 629.348 169.676, 622 165.846, 622 167.477 M 211.500 177.647 C 206 181.186, 201.342 184.803, 201.149 185.686 C 200.884 186.895, 200.605 186.980, 200.017 186.028 C 199.459 185.125, 197.801 186.153, 194.202 189.633 L 189.167 194.500 190.143 200 C 190.680 203.025, 192.172 208.650, 193.458 212.500 C 197.553 224.756, 199.142 231.188, 198.490 232.867 C 197.276 235.991, 194.450 228.130, 186.406 199.248 L 185.500 195.997 182.704 198.248 L 179.908 200.500 181.494 215 C 182.366 222.975, 183.336 231.185, 183.649 233.245 C 184.562 239.257, 183.138 241.330, 181.415 236.500 C 179.934 232.351, 177.246 215.851, 176.772 208 L 176.500 203.500 168.247 211.500 L 159.995 219.500 161.497 226.500 C 162.324 230.349, 162.968 236.199, 162.930 239.500 C 162.765 253.540, 159.662 251.093, 158.491 236 C 157.418 222.170, 156.945 221.281, 152.795 225.305 C 148.813 229.166, 142.815 234.324, 135.520 240.160 L 130.095 244.500 130.047 252.262 C 129.995 260.825, 124.981 282.389, 122.443 284.964 C 120.453 286.984, 120.522 285.231, 122.910 273.157 C 125.140 261.876, 126.345 250, 125.259 250 C 124.268 250.001, 117.234 258.255, 113.266 264.073 C 111.417 266.784, 109.163 272.346, 107.730 277.732 C 106.400 282.729, 104.388 288.277, 103.259 290.060 L 101.206 293.302 101.623 286.401 C 101.939 281.155, 101.796 280.056, 101.027 281.819 C 100.469 283.094, 100.089 287.819, 100.182 292.319 C 100.297 297.902, 99.901 301.215, 98.935 302.750 C 96.489 306.637, 95.932 305.253, 96.620 297 C 97.377 287.928, 97.109 287.510, 93.903 292.750 C 89.149 300.519, 88.740 301.678, 88.242 308.797 C 87.821 314.814, 87.447 316.041, 86.115 315.789 C 84.947 315.567, 84.362 314, 84 310.123 L 83.500 304.764 79.070 313.830 C 76.633 318.816, 74.313 322.693, 73.913 322.446 C 73.514 322.199, 73.424 322.905, 73.714 324.013 C 74.089 325.448, 73.842 325.876, 72.857 325.499 C 71.994 325.167, 70.753 326.303, 69.564 328.511 C 68.299 330.861, 67.320 331.720, 66.661 331.061 C 65.579 329.979, 67.967 323.834, 71.532 318.525 C 72.649 316.861, 74.664 313.700, 76.009 311.500 L 78.455 307.500 75.477 309.474 C 71.209 312.305, 61.721 316.992, 60.250 316.996 C 56.415 317.008, 60.478 313.212, 68 309.754 C 71.025 308.364, 75.075 306.039, 77 304.587 C 80.304 302.096, 92.186 288.853, 91.623 288.289 C 90.877 287.544, 75.925 292.504, 69.811 295.525 C 61.874 299.448, 62 299.410, 62 297.860 C 62 295.325, 71.573 290.043, 82.875 286.344 C 94.465 282.550, 96.451 281.411, 99.562 276.776 C 101.141 274.424, 103.741 270.790, 105.341 268.699 L 108.249 264.898 102.874 265.563 C 95.990 266.415, 89.345 268.360, 80.214 272.199 C 76.207 273.884, 72.614 274.947, 72.229 274.563 C 71.057 273.390, 76.020 270.259, 86 265.877 C 114.547 253.340, 113.998 253.615, 118.798 249.472 C 124.098 244.897, 123.855 244.638, 114.519 244.911 C 108.276 245.093, 107.108 244.883, 107.576 243.664 C 108.299 241.779, 110.678 241.176, 120.500 240.389 C 130.122 239.618, 132.094 238.538, 141.810 228.719 L 149.121 221.331 139.810 221.182 C 134.690 221.099, 124.039 220.350, 116.143 219.516 C 108.247 218.682, 100.908 218, 99.834 218 C 98.760 218, 98.160 217.550, 98.500 217 C 99.338 215.644, 116.763 215.714, 131.543 217.133 C 151.388 219.038, 153.037 218.424, 172 202.061 L 174.500 199.904 171.500 200.446 C 164.505 201.711, 158.738 201.569, 146 199.821 C 138.575 198.801, 128.116 197.378, 122.757 196.657 C 113.235 195.377, 110.999 194.668, 112.318 193.348 C 113.112 192.555, 137.735 194.714, 144 196.126 C 152.909 198.135, 174.080 197.510, 178.805 195.100 C 181.112 193.922, 183 192.624, 183 192.213 C 183 191.803, 185.588 189.900, 188.750 187.984 L 194.500 184.500 190 184.272 C 184.010 183.967, 172.794 182.175, 166 180.436 C 148.019 175.833, 143.708 175.297, 127 175.586 C 113.348 175.822, 109.572 176.220, 105.123 177.896 C 98.565 180.365, 98.581 180.349, 99.919 182.849 C 101.853 186.462, 101.135 187.784, 96.250 189.603 C 90.398 191.781, 82.311 196.847, 79.086 200.354 C 76.819 202.818, 76.773 203.092, 78.336 204.818 C 80.536 207.249, 80.437 208.726, 78.025 209.492 C 74.286 210.679, 64.222 218.020, 61.573 221.494 L 58.919 224.973 63.478 224.348 C 68.595 223.647, 68.536 223.106, 64.314 232 C 62.148 236.565, 58.821 246.135, 57.580 251.376 C 56.988 253.874, 57.136 254.157, 58.699 253.524 C 62.598 251.945, 71.359 249, 72.157 249 C 74.142 249, 72.754 251.714, 69.910 253.394 C 64.804 256.410, 60.292 260.826, 57.571 265.470 C 54.430 270.829, 54.423 271, 57.333 271 C 61.076 271, 61.041 271.770, 56.960 279.336 C 53.232 286.249, 49.533 298.435, 50.626 300.204 C 50.918 300.676, 52.696 300.772, 54.578 300.419 C 57.571 299.858, 58 300.035, 58 301.830 C 58 302.958, 57.576 304.144, 57.058 304.464 C 55.163 305.635, 54.676 313.857, 56.350 316.411 C 57.797 318.619, 59.302 325.317, 60.639 335.500 C 60.928 337.700, 61.347 340.085, 61.570 340.799 C 62.075 342.418, 66.926 337.035, 69.778 331.692 C 70.900 329.588, 72.103 328.357, 72.464 328.942 C 72.824 329.524, 72.840 330.450, 72.500 331 C 70.835 333.693, 76.083 331.435, 82.411 326.734 C 86.310 323.838, 91.525 320.170, 94 318.584 C 96.475 316.997, 100.587 313.967, 103.139 311.849 C 105.823 309.622, 108.843 308, 110.305 308 C 111.696 308, 112.983 307.636, 113.167 307.192 C 113.350 306.747, 115.750 304.848, 118.500 302.972 C 128.213 296.345, 135.354 287.134, 137.423 278.561 C 138.347 274.736, 141.746 270, 143.568 270 C 145.134 270, 145.538 272.550, 144.111 273.432 C 143.622 273.734, 142.914 275.208, 142.537 276.708 C 141.075 282.534, 134.241 295.253, 131.529 297.196 C 128.604 299.291, 132.450 298.741, 135.886 296.572 C 138.127 295.157, 140.829 294, 141.891 294 C 143.764 294, 149 299.212, 149 301.077 C 149 302.829, 151.218 301.993, 153.176 299.503 C 155.661 296.344, 166.573 289.831, 175.016 286.466 C 178.582 285.046, 182.918 283.234, 184.651 282.442 C 186.384 281.649, 188.195 281, 188.674 281 C 190.306 281, 204.979 275.060, 207.618 273.331 L 210.246 271.609 207.672 269.395 C 201.040 263.690, 191.466 261.993, 180.395 264.560 C 171.714 266.574, 169.261 267.899, 159.931 275.618 C 151.372 282.699, 150.680 283.778, 151.589 288.624 C 152.366 292.763, 150.205 294.020, 146.492 291.587 C 139.028 286.696, 150.551 272.239, 169.420 262.823 C 172.764 261.154, 176.545 258.486, 177.822 256.894 C 179.100 255.302, 180.840 254, 181.689 254 C 186.091 254, 195.728 244.447, 199.300 236.541 C 200.290 234.350, 202.136 231.194, 203.402 229.528 C 206.956 224.852, 209 220.377, 209 217.272 C 209 215.717, 209.729 213.404, 210.620 212.132 C 212.025 210.127, 212.058 209.477, 210.870 207.258 C 208.134 202.145, 209.129 190.365, 212.940 182.750 C 217.117 174.404, 220.288 173.178, 216.564 181.349 C 215.774 183.082, 214.685 186.188, 214.145 188.250 L 213.161 192 217.014 192 L 220.867 192 221.184 181.750 C 221.358 176.113, 221.500 171.435, 221.500 171.356 C 221.500 171.277, 217 174.108, 211.500 177.647 M 248.885 182.825 C 245.796 185.469, 241.016 189.286, 238.262 191.307 C 231.339 196.390, 222.410 210, 226 210 C 226.680 210, 226.880 210.802, 226.500 212 C 226.005 213.560, 226.320 214, 227.933 214 C 229.358 214, 230 213.356, 230 211.925 C 230 206.502, 239.796 193.457, 251.502 183.291 C 254.801 180.426, 256.825 178.067, 256 178.050 C 255.175 178.032, 251.973 180.181, 248.885 182.825 M 262.792 179.096 C 261.411 179.869, 249.355 203.130, 242.629 218 C 241.325 220.882, 241.042 221.097, 241.023 219.218 C 240.984 215.357, 244.911 204.993, 250.482 194.250 C 253.406 188.613, 255.298 184, 254.687 184 C 251.331 184, 228.035 214.845, 230.716 215.739 C 231.353 215.951, 235.152 218.797, 239.159 222.062 C 247.512 228.871, 247.759 228.954, 248.547 225.250 C 249.864 219.055, 257.362 196.895, 261.102 188.141 C 265.345 178.210, 265.458 177.604, 262.792 179.096 M 242 180.195 C 240.625 180.778, 236.688 182.576, 233.250 184.190 L 227 187.125 227 193.306 L 227 199.487 231.250 194.814 C 233.588 192.244, 238.595 187.634, 242.377 184.571 C 249.265 178.991, 249.109 177.181, 242 180.195 M 219.038 221.057 L 222.500 224.113 218.656 223.494 C 215 222.904, 212.149 224.515, 212.032 227.237 C 211.967 228.731, 219.632 232.704, 223.868 233.372 C 227.993 234.023, 238.822 238.777, 241.791 241.241 C 243.077 242.308, 244.936 240.919, 244.985 238.855 C 245.017 237.483, 225.047 220.918, 221.650 219.498 C 216.116 217.186, 215.243 217.707, 219.038 221.057 M 127 224.095 C 115.442 224.993, 102.220 227.486, 98.344 229.496 C 94.990 231.236, 97.114 232.429, 101.270 231.140 C 103.046 230.588, 107.875 229.853, 112 229.506 C 119.850 228.846, 130.369 226.818, 138 224.494 C 143.100 222.941, 142.242 222.910, 127 224.095 M 553.659 229.801 C 555.737 236.135, 558.373 240.205, 561.749 242.290 C 565.086 244.350, 580.939 251, 582.513 251 C 583.631 251, 593.463 255.791, 595.498 257.328 C 599.156 260.089, 596.462 259.992, 588.186 257.066 C 580.328 254.287, 578.620 254.220, 581.191 256.791 C 581.847 257.447, 584.277 261.468, 586.593 265.728 C 591.390 274.552, 593.591 276.527, 595.353 273.587 C 595.984 272.534, 598.350 268.908, 600.612 265.528 C 611.726 248.921, 611.196 247.619, 591.499 243.136 C 586.548 242.009, 580.529 240.392, 578.123 239.544 C 571.677 237.269, 570.167 237.466, 572.693 240.250 C 575.360 243.188, 578.405 248, 577.597 248 C 576.757 248, 570.503 241.526, 567.348 237.390 C 563.624 232.508, 552.529 226.357, 553.659 229.801 M 206.750 234.470 C 204.235 237.928, 204.539 238.670, 208.750 239.348 C 210.813 239.680, 214.190 240.815, 216.256 241.871 C 223.109 245.373, 221.958 238.221, 215.029 234.250 C 210.114 231.433, 208.935 231.464, 206.750 234.470 M 169.241 236.370 C 168.647 237.673, 167.833 240.928, 167.432 243.603 C 167.031 246.278, 166.095 249.922, 165.351 251.701 C 163.838 255.324, 163.540 261, 164.863 261 C 165.337 261, 167.104 258.188, 168.789 254.750 C 172.432 247.316, 174.358 234, 171.790 234 C 170.982 234, 169.835 235.066, 169.241 236.370 M 223.776 241.018 C 224.301 246.482, 221.736 255.629, 217.383 263.817 C 214.668 268.922, 214.476 269.680, 216.275 268.187 C 218.165 266.619, 226.143 264.079, 231.479 263.348 C 236.591 262.647, 236.824 262.339, 239.682 252.500 C 240.481 249.750, 241.357 246.808, 241.628 245.963 C 242.049 244.654, 226.614 235.977, 223.897 235.996 C 223.565 235.998, 223.511 238.258, 223.776 241.018 M 201.975 244.565 C 201.439 245.976, 201 247.302, 201 247.513 C 201 247.723, 203.363 248.031, 206.250 248.198 L 211.500 248.500 207.610 250.799 C 204.373 252.712, 203.224 252.925, 200.769 252.069 C 198.195 251.172, 197.193 251.450, 192.924 254.244 L 188.030 257.448 195.818 259.509 C 200.102 260.643, 205.296 262.567, 207.360 263.785 C 211.861 266.440, 212 266.457, 212 264.329 C 212 263.410, 212.702 261.882, 213.560 260.934 C 214.418 259.986, 216.200 256.125, 217.520 252.355 L 219.919 245.500 214.210 244.774 C 211.069 244.374, 207.466 243.587, 206.203 243.024 C 203.098 241.640, 203.086 241.645, 201.975 244.565 M 229.500 268.126 C 225.928 268.951, 217.073 271.931, 216.139 272.622 C 215.696 272.949, 223.093 296.201, 223.973 297.252 C 224.320 297.665, 225.406 295.640, 226.387 292.752 C 227.367 289.863, 228.555 286.600, 229.026 285.500 C 229.946 283.348, 235 268.026, 235 267.386 C 235 266.905, 234.472 266.976, 229.500 268.126 M 321.596 272.814 C 320.796 274.362, 315.853 288.424, 310.612 304.064 C 298.967 338.814, 293.139 355.859, 291.999 358.500 C 291.524 359.600, 289.762 364.550, 288.083 369.500 C 286.404 374.450, 284.159 380.972, 283.094 383.993 C 281.721 387.889, 281.462 389.851, 282.202 390.743 C 283.410 392.199, 352.528 392.586, 354.792 391.150 C 356.254 390.222, 356.049 389.157, 351.018 371.500 C 349.294 365.450, 346.099 353.300, 343.919 344.500 C 341.739 335.700, 339.547 326.925, 339.049 325 C 338.551 323.075, 337.450 318.575, 336.602 315 C 325.169 266.771, 324.986 266.258, 321.596 272.814 M 210.250 278.346 C 209.012 279.569, 208 280.944, 208 281.401 C 208 281.857, 206.034 285.217, 203.631 288.866 C 197.248 298.560, 196.681 299.938, 196.870 305.288 C 197.048 310.316, 195.701 310.960, 194.025 306.648 C 192.619 303.032, 189.979 310.824, 189.827 319.036 C 189.675 327.282, 190.045 327.896, 193.518 325.165 C 194.960 324.030, 198.140 322.802, 200.583 322.435 C 203.026 322.069, 205.273 321.368, 205.576 320.877 C 205.880 320.386, 209.451 317.527, 213.513 314.523 C 223.641 307.033, 223.876 305.548, 217.017 292.389 C 212.954 284.595, 211.970 281.812, 212.369 279.250 C 212.647 277.462, 212.790 276.027, 212.687 276.060 C 212.584 276.094, 211.488 277.122, 210.250 278.346 M 197.500 282.234 C 190.858 284.937, 189.613 285.409, 182 288.114 C 167.500 293.267, 152 303.734, 152 308.372 C 152 309.570, 159.613 326.894, 160.582 327.900 C 160.794 328.121, 163.266 327.108, 166.076 325.650 C 172.625 322.253, 174.482 322.314, 176.659 326 C 177.634 327.650, 178.784 329, 179.216 329 C 180.506 329, 180.103 331.670, 178.626 332.895 C 177.548 333.790, 176.882 333.468, 175.526 331.399 C 173.963 329.014, 173.404 328.830, 169.650 329.466 C 158.528 331.350, 159.866 331.802, 155.928 324.827 C 153.963 321.347, 151.579 316.813, 150.631 314.750 C 149.682 312.688, 148.531 311, 148.073 311 C 146.145 311, 129.258 336.460, 127.490 342.033 C 127.146 343.115, 126.446 344, 125.933 344 C 125.420 344, 125 344.567, 125 345.261 C 125 345.954, 122.975 349.540, 120.500 353.229 C 118.025 356.919, 115.970 360.289, 115.934 360.719 C 115.810 362.172, 109.443 370.352, 108.083 370.806 C 104.850 371.883, 129.447 328.016, 139.664 314.483 C 148.196 303.183, 147.762 304.077, 145.519 302.413 C 142.130 299.896, 133.544 303.059, 122 311.078 C 118.975 313.179, 115.200 315.128, 113.611 315.408 C 110.639 315.933, 109.795 316.452, 94.471 327.179 C 75.085 340.751, 72.735 342.987, 73.314 347.307 C 74.112 353.251, 82.476 369.070, 88.809 376.610 C 96.885 386.226, 101.037 389.045, 112.514 392.708 C 152.404 405.441, 148.515 404.497, 161.032 404.498 C 173.607 404.500, 176.575 403.676, 186.628 397.388 C 192.225 393.887, 193.099 392.152, 200.925 369 C 202.691 363.775, 204.521 358.600, 204.993 357.500 C 206.786 353.314, 213.646 331.694, 216.654 320.750 C 217.517 317.609, 214.741 318.891, 210.260 323.703 C 206.418 327.828, 205.644 328.258, 203.954 327.203 C 200.980 325.346, 199.525 325.719, 195 329.500 C 188.459 334.965, 187.498 334.101, 186.491 321.847 C 185.671 311.876, 187.048 308.180, 198.243 290.308 C 205.641 278.495, 205.679 278.906, 197.500 282.234 M 312.570 334.750 C 307.748 349.462, 303.557 362.175, 303.258 363 C 302.959 363.825, 301.656 367.425, 300.361 371 C 299.067 374.575, 298.007 378.063, 298.004 378.750 C 298.001 379.712, 302.986 380, 319.607 380 C 339.789 380, 341.167 379.885, 340.504 378.250 C 340.114 377.288, 338.716 372.450, 337.397 367.500 C 336.079 362.550, 334.600 357.150, 334.111 355.500 C 333.622 353.850, 330.813 342.488, 327.868 330.250 C 324.923 318.012, 322.249 308, 321.926 308 C 321.603 308, 317.393 320.038, 312.570 334.750 M 184.310 407.090 C 183.711 407.689, 179.771 409.175, 175.555 410.392 L 167.890 412.604 173.997 417.916 C 177.356 420.838, 180.268 423.065, 180.468 422.864 C 180.667 422.664, 181.948 419.575, 183.313 416 C 184.679 412.425, 186.115 408.712, 186.505 407.750 C 187.295 405.800, 185.992 405.408, 184.310 407.090 M 638.968 508.691 C 632.314 514.895, 622.994 528.188, 623.010 531.454 C 623.016 532.803, 624.422 531.285, 627.135 527 C 632.572 518.412, 637.878 512.176, 642.875 508.500 C 646.687 505.695, 648.236 503, 646.036 503 C 645.506 503, 642.325 505.561, 638.968 508.691 M 639.045 516.795 C 635.857 519.983, 632.337 524.370, 631.222 526.545 C 630.107 528.720, 627.982 531.625, 626.500 533 C 621.719 537.436, 618.953 544.465, 616.543 558.302 C 614.610 569.404, 617.933 567.269, 620.128 556 C 621.446 549.226, 624.992 540.980, 628.513 536.500 C 630.242 534.300, 632.475 530.250, 633.474 527.500 C 634.670 524.212, 637.241 520.532, 640.986 516.750 C 644.118 513.587, 646.266 511, 645.760 511 C 645.254 511, 642.232 513.608, 639.045 516.795 M 330.285 520.803 C 327.941 522.292, 320.797 542.908, 317.978 556.316 C 309.570 596.310, 320.645 629.878, 346.424 642.538 C 358.621 648.527, 364.513 648.904, 391.786 645.438 C 404.671 643.801, 408.936 642.011, 416.249 635.171 C 433.126 619.384, 436.345 586.902, 423.945 557.500 C 423.481 556.400, 421.780 552.350, 420.164 548.500 C 414.578 535.188, 408.703 523.911, 406.833 522.910 C 403.755 521.263, 332.642 519.305, 330.285 520.803 M 565 553.124 C 550.162 557.123, 538.345 569.602, 532.562 587.378 C 527.763 602.133, 529.400 627.765, 536.313 646.108 C 542.376 662.196, 549.373 673.484, 559.586 683.658 C 572.923 696.942, 586.595 700.880, 603.943 696.436 C 609.481 695.017, 610.548 695.017, 615.428 696.436 C 618.387 697.296, 623.383 698, 626.531 698 C 644.592 698, 667.658 673.857, 674.974 647.295 C 684.929 611.153, 675.671 569.181, 655.654 559.703 C 643.478 553.938, 622 553.904, 622 559.650 C 622 561.060, 622.278 561.048, 624.587 559.535 C 628.067 557.255, 628.898 558.415, 625.996 561.504 C 622.990 564.704, 625.253 564.940, 630.739 562 C 635.356 559.525, 648.468 559.159, 651.558 561.419 C 653.423 562.783, 653.392 562.864, 650.736 563.530 C 649.217 563.911, 645.843 563.953, 643.237 563.624 C 639.389 563.137, 638.966 563.220, 640.985 564.067 C 643.460 565.105, 643.452 565.120, 638.860 567.979 C 625.797 576.109, 600.996 576.178, 589.969 568.115 C 582.140 562.390, 572.464 560.352, 565.565 562.975 C 561.687 564.450, 562.201 561.458, 566.250 558.989 C 570.247 556.552, 579.425 556.315, 584.686 558.513 C 589.461 560.508, 589.920 559.788, 585.816 556.739 C 579.713 552.206, 572.837 551.012, 565 553.124 M 592 557.500 C 592 561.601, 595.283 564, 600.895 564 L 605.790 564 606.163 560.093 C 606.523 556.308, 606.425 556.168, 603.018 555.604 C 594.985 554.275, 592 554.788, 592 557.500 M 158.500 578.048 C 142.720 579.447, 129.363 581.746, 124.474 583.903 C 102.137 593.762, 95.076 628.640, 108.365 663.475 C 122.636 700.884, 153.378 717.878, 178.500 702.245 C 180.720 700.864, 181.212 701.487, 172.750 694.967 C 171.238 693.801, 170 692.207, 170 691.424 C 170 689.545, 171.435 689.614, 173.061 691.573 C 173.779 692.438, 176.102 694.032, 178.223 695.114 C 180.345 696.196, 182.497 698.176, 183.005 699.513 C 184.271 702.844, 187.746 703.478, 197.360 702.135 C 208.257 700.612, 208.829 700.626, 206.964 702.369 C 205.162 704.053, 199.595 705.965, 196.101 706.100 C 194.094 706.178, 194.414 706.423, 197.500 707.175 C 201.807 708.225, 213.076 707.510, 215.820 706.013 C 216.744 705.509, 219.185 704.350, 221.244 703.437 C 232.048 698.648, 243.118 681.525, 249.647 659.500 C 252.311 650.511, 252.260 624.464, 249.564 617.500 C 240.447 593.946, 219.225 583.495, 197.564 591.892 C 184.865 596.815, 173.862 598.439, 161.795 597.171 C 148.503 595.774, 145.513 593.234, 155.978 592.228 C 162.107 591.639, 162.120 591.346, 156.203 587.223 C 146.705 580.605, 147.191 581.068, 149.713 581.032 C 151.891 581.001, 160.840 584.067, 164.236 586.008 C 167.341 587.782, 168 587.081, 168 582 C 168 579.250, 167.662 577.076, 167.250 577.169 C 166.838 577.262, 162.900 577.658, 158.500 578.048 M 126.500 586 C 123.098 588.253, 123.029 588.225, 132.500 588.468 C 136.350 588.568, 140.738 589.001, 142.250 589.433 C 144.405 590.047, 145 589.881, 145 588.665 C 145 584.018, 132.263 582.183, 126.500 586 M 670.994 621.250 C 670.991 625.237, 670.576 630.075, 670.071 632 C 668.076 639.609, 667.717 646, 669.285 646 C 673.232 646, 676.797 623.858, 674.025 616.565 C 672.238 611.865, 671 613.778, 670.994 621.250 M 240.439 619.525 C 242.333 629.623, 239.204 658.223, 235.081 668.500 C 234.640 669.600, 232.820 674.100, 231.037 678.500 C 226.297 690.196, 226.125 690.995, 228.875 688.566 C 240.622 678.188, 250.215 631.986, 243.371 618.751 C 241.318 614.780, 239.632 615.225, 240.439 619.525 M 409.500 630.687 C 402.466 636.819, 398.665 638.158, 385.500 639.142 C 378.900 639.635, 370.739 640.293, 367.364 640.603 C 359.870 641.291, 352.924 638.429, 346.224 631.891 C 341.738 627.515, 339.609 627.228, 342.320 631.365 C 344.235 634.288, 351.342 640.164, 355.535 642.290 C 360.607 644.862, 365.012 645.193, 379.047 644.058 C 399.525 642.401, 408.546 638.705, 412.956 630.164 C 414.749 626.692, 413.942 626.814, 409.500 630.687 M 137.390 660.117 C 139.225 671.796, 147.872 689.964, 155.622 698.424 L 159.055 702.171 155.777 701.462 C 150.316 700.279, 140.362 694.969, 134.006 689.848 C 126.253 683.601, 126.228 686.005, 133.969 693.389 C 141.959 701.010, 148.719 704.063, 157.099 703.834 C 160.620 703.737, 164.485 704.187, 165.689 704.832 C 169.758 707.013, 169.012 704.258, 164.478 700.364 C 154.684 691.952, 147.148 679.691, 141.656 663.231 C 139.009 655.298, 136.326 653.340, 137.390 660.117 M 560.355 664.026 C 561.496 669.732, 568.182 681.855, 572.733 686.472 C 582.771 696.653, 603.548 696.685, 614.723 686.535 C 619.661 682.051, 619.988 679.237, 615.210 682.353 C 604.497 689.337, 597.567 690.346, 588.892 686.182 C 581.609 682.686, 580.720 682.732, 584.674 686.399 C 587.413 688.939, 587.426 689, 585.220 689 C 579.304 689, 570.756 680.316, 564.959 668.415 C 561.305 660.916, 559.363 659.064, 560.355 664.026 M 644.214 680.653 C 639.230 685.704, 633.865 688.678, 628.070 689.605 C 623.196 690.384, 621.966 691.702, 625.325 692.545 C 631.220 694.025, 642.050 688.674, 647.005 681.834 C 652.191 674.675, 650.726 674.055, 644.214 680.653" stroke="none" fill="#1b1f3a" fill-rule="evenodd"/>
</svg>