<svg xmlns="http://www.w3.org/2000/svg" viewBox="0 0 768 768" version="1.1" preserveAspectRatio="xMidYMid meet"><path d="M 417.6 38 C 413.6 43.6, 406.6 48.5, 400.5 50.1 C 381 55.1, 359.2 68.8, 352 80.6 C 350.8 82.5, 349 84, 348 84 C 347 84, 345.1 85.5, 343.9 87.3 C 342.7 89, 341.5 90.6, 341.4 90.8 C 341.3 91, 340.3 90.4, 339.2 89.5 C 336.9 87.5, 327.5 83.9, 324.1 83.7 C 319.7 83.4, 314.7 96, 312.9 111.8 C 311.8 121.3, 311.6 121.9, 309.9 120.8 C 291.9 107.9, 281.7 102.3, 265.5 96.4 C 257.8 93.7, 250.9 88.8, 245.6 82.7 C 238.2 74, 233.9 73.9, 228.6 82.4 C 222.5 91.9, 223 95.6, 231.3 103.3 L 236.4 108 232.5 108 C 222.6 108, 204 113.7, 199.6 118.1 C 198.1 119.5, 201.2 119.2, 206.2 117.6 C 208.6 116.8, 217.5 115.6, 226 114.9 C 234.5 114.3, 243.9 113.5, 246.8 113.3 C 250.2 113, 252.6 113.3, 253.6 114.1 C 255.9 116, 259.6 123.8, 261.3 130.3 L 262.8 136 260.2 137.4 C 258.7 138.2, 255.9 141.4, 254 144.6 C 251.4 148.9, 248.9 151.3, 244.5 154.1 C 233.2 161.2, 227.7 164, 226.6 163.2 C 223.2 160.6, 199.1 153.8, 189 152.5 C 181.4 151.6, 176.7 150, 175.2 147.8 C 171.5 142.6, 159.7 141.3, 152.4 145.3 C 150.1 146.5, 145.8 148.8, 142.9 150.4 C 135.7 154.2, 134 155.8, 134 158.9 C 134 161.3, 133.5 161.6, 128.1 162.7 C 124.9 163.3, 120.8 164.5, 118.9 165.3 C 117 166.1, 112.1 167.8, 108 169 C 94.5 173, 89.2 176.8, 90.4 181.4 C 91 183.7, 90.5 184.2, 86.4 186.2 C 80.6 188.9, 69 199.8, 69 202.6 C 69 203.8, 66.9 206.4, 63.9 209 C 50.9 220.1, 45.6 233, 53.9 233 C 55.5 233, 55.3 234.2, 51.9 243.8 C 44.6 264.5, 43.2 274.7, 47.5 276.3 C 48.8 276.8, 48.7 277.6, 46.8 281.7 C 43.5 289.2, 42.9 308.9, 45.9 311.9 C 47 313, 48 315.2, 48 316.7 C 48 318.2, 49.1 323, 50.4 327.4 C 51.7 331.9, 53.1 338.2, 53.5 341.5 C 54.2 347.7, 56.5 358.9, 57.3 359.6 C 58.2 360.6, 60.7 358.7, 63.4 355 C 67 350.1, 67.6 350.1, 68.3 354.5 C 69.2 359.7, 76.3 373.6, 81.9 381.1 C 89 390.4, 96.2 396.3, 104 399 C 107.6 400.2, 111.9 401.9, 113.7 402.6 C 115.4 403.4, 117.3 404, 117.9 404 C 118.5 404, 119.8 404.4, 120.8 404.9 C 122.3 405.8, 128.9 408, 138 410.8 C 139.9 411.4, 143.9 412.2, 146.9 412.6 C 151.7 413.2, 152.9 413.9, 159.9 420.4 C 164.1 424.3, 169.4 429, 171.8 430.8 C 174.1 432.7, 176 434.6, 176 435.2 C 176 436.5, 167.4 461.3, 165.4 465.7 C 164.6 467.4, 164 469.5, 164 470.3 C 164 471.2, 163.6 472.1, 163.1 472.4 C 162.6 472.7, 161.9 474.2, 161.6 475.7 C 161.2 477.3, 155.8 492.2, 149.6 509 C 143.3 525.8, 135.4 547.2, 132 556.7 L 125.7 573.8 119.6 576.1 C 108.7 580, 99.5 591, 94.4 606 C 91.7 613.9, 91.6 645.6, 94.3 654.5 C 106.6 695.2, 130.3 718, 160.2 718 C 168.3 718, 173.8 716.7, 180.2 713.4 C 183 712, 183.6 712, 188.1 714 C 194.3 716.6, 206.7 717.7, 214 716.1 C 232.5 712.1, 249.8 694.1, 257.4 671 C 264.4 649.6, 264.7 623.9, 258 608.5 C 257.5 607.4, 256.2 604.4, 255.1 601.8 C 252.6 596.2, 252.6 596.3, 254.4 590.8 C 255.1 588.4, 256.7 583.4, 257.9 579.5 C 259.1 575.7, 260.5 571.6, 261 570.5 C 262.5 566.8, 267.9 551.5, 268.8 548 C 269.9 544.2, 277.8 521.8, 278.2 521.4 C 278.4 521.3, 287.2 521, 297.8 520.9 C 314.6 520.5, 316.9 520.7, 316.4 522 C 306.3 546.5, 301.6 574.6, 304.4 594.5 C 309 628.8, 325.3 649.7, 352.5 656.5 C 365.9 659.9, 402.1 657.2, 412.6 652.1 C 441.9 637.9, 451.5 596.2, 435 554.5 C 431.9 546.5, 430.3 542.8, 428.2 538 C 426.9 535, 425 530.3, 423.9 527.5 C 422.9 524.8, 422 522.5, 422 522.5 C 422 522.5, 439.7 522.5, 461.4 522.5 L 500.9 522.5 502.5 528 C 503.4 531, 504.5 534.4, 505 535.5 C 506.2 538.5, 511 553, 512.1 557 C 512.7 558.9, 513.5 561.4, 514 562.5 C 514.4 563.6, 515.6 567, 516.5 570 C 517.4 573, 519.1 577.5, 520.2 579.9 C 522.1 584.1, 522.1 584.6, 520.6 591.2 C 511.5 631.6, 535.1 686.6, 568.5 703.1 C 578.5 708, 587.3 709, 599.8 706.7 C 607.6 705.2, 608.6 705.2, 616.9 707 C 625 708.8, 626.2 708.8, 632.8 707.5 C 657.5 702.3, 677.7 678.5, 686.2 644.4 C 690.5 627.1, 689.3 593.5, 684 581.5 C 683.5 580.4, 682.1 577.3, 680.9 574.6 C 673.2 556.8, 659.7 548.6, 634.8 546.3 C 628.1 545.7, 627.7 545, 632.5 542.7 C 636.3 540.9, 637.1 539.6, 639.5 530.8 C 641 525.6, 641.6 524.8, 648.5 519.6 L 656 514 656 507.9 C 656 499.1, 652.3 494, 646 494 C 644.7 494, 643.8 493.1, 643.4 491.3 C 643.1 489.7, 642.5 487.6, 642 486.5 C 641.6 485.4, 639.8 479.8, 638 474 C 636.2 468.2, 633.5 459.7, 632 455 C 630.5 450.3, 628.2 443.1, 627 439 C 624.3 430, 610.3 387.3, 609 384.5 C 608.5 383.4, 607.2 379.4, 606 375.5 C 604.8 371.7, 603.4 367.6, 602.9 366.5 C 602.5 365.4, 601.7 362.9, 601.1 361 C 600.6 359.1, 598.1 351.7, 595.5 344.5 C 593 337.4, 589.7 328.1, 588.4 324 C 587 319.9, 585.5 315.6, 585 314.5 C 584.6 313.4, 583.2 309.6, 582 306 C 580.8 302.4, 579.4 298.6, 578.9 297.5 C 577.3 293.9, 574.3 283.6, 573.5 279.1 C 573.1 276.7, 570.9 270.7, 568.5 265.6 C 562.6 253.2, 560.9 248.8, 561.5 248.2 C 562.2 247.5, 573.5 253.5, 575.8 255.8 C 576.8 256.8, 579.7 261.1, 582.3 265.3 L 587 273 580.5 273 C 573.3 273, 572.4 273.8, 577.3 275.9 C 579 276.6, 581.9 277.9, 583.5 278.6 C 596.9 284.5, 601.6 284.4, 603.5 278 C 605 273, 607.2 269.1, 609 268.5 C 610 268.2, 611 266.6, 611.3 265 C 611.7 263.5, 612.9 261.2, 614.2 260 C 616.8 257.6, 617.1 251.8, 615 245.5 C 613.6 241.4, 614.7 239.3, 618.3 238.8 C 620.9 238.4, 621.8 233.4, 620 229.9 C 619 228.1, 619.2 227.3, 621.8 224.6 C 625.8 220.4, 627.6 216.6, 628.9 209.6 C 630.2 202.8, 630.5 202.3, 632.3 203.8 C 633.7 205, 643.1 206.5, 654.8 207.4 L 662 208 662.7 204.9 L 663.3 201.7 678.4 202.3 C 692.4 202.7, 694.3 203.1, 704.3 206.4 C 710.3 208.4, 715.5 209.8, 716 209.5 C 716.9 208.9, 715.8 204.4, 713.4 199 C 706.9 184.5, 703 174.3, 703 172.1 C 703 170.8, 701.9 168.2, 700.5 166.4 C 698.8 164.2, 698 161.9, 698 159.1 C 698 155.6, 697.3 154.4, 691.7 148.6 C 688.3 144.9, 685.9 142, 686.5 142 C 691.5 142, 703.9 132, 711.2 122.2 C 714.8 117.4, 722 103.5, 722 101.4 C 722 100.9, 725.2 94.3, 729 86.7 C 736.5 71.8, 736.8 70.9, 734.4 68.9 C 732.7 67.5, 731.9 67.7, 715.5 71.8 C 704 74.7, 679.1 77.3, 670.6 76.6 C 652.7 74.9, 650.5 74.9, 641.3 76.5 C 636 77.4, 630.5 78.7, 628.9 79.5 C 624.9 81.6, 624.2 81.4, 624.4 77.8 L 624.5 74.5 610 73.9 C 593.5 73.2, 588.3 72, 587 68.4 C 586.4 66.8, 585.3 66, 583.7 66 C 582.3 66, 578.4 65.1, 574.9 63.9 C 565.5 60.9, 551.4 61.7, 541 65.8 C 533.7 68.7, 533.5 68.7, 531.7 66.9 C 529.3 64.4, 527.9 64.5, 521.7 67.6 C 515.8 70.6, 503 83.4, 497 92.3 C 487 107.2, 482.5 128.8, 487.1 140.7 C 488.4 144.1, 487.3 145.1, 479 148 C 475.4 149.2, 471 150.9, 469.2 151.7 C 466 153.1, 464 152.8, 464 150.9 C 464 150, 462.4 146.1, 459 138.5 C 458.5 137.4, 456.9 133.6, 455.4 130 C 454 126.4, 450.9 119.9, 448.7 115.5 C 446.5 111.1, 443.6 105.3, 442.2 102.5 C 440.9 99.8, 438.9 96.5, 437.8 95.4 C 435.9 93.3, 435.9 93.2, 437.9 89.4 C 440.7 84.3, 440.5 81.8, 437.4 78.1 C 434 74.1, 434 74.1, 422.9 80.6 C 410.3 88.1, 402.2 92, 399.1 92 L 396.6 92 399.6 88.8 C 408.1 79.7, 418.3 64.3, 420.6 57 L 422.4 51.5 423.7 56.5 C 424.4 59.3, 425 63.4, 425 65.7 C 425 69.5, 425.3 70, 427.7 70.6 C 434.2 72.3, 434.6 58.9, 428.4 42.3 C 424.4 31.5, 422.7 30.9, 417.6 38 M 409.5 54 C 405.7 56.1, 400.9 58.1, 399 58.4 C 393.9 59.4, 389.9 61.1, 390.5 62.1 C 390.8 62.5, 389.3 65.5, 387.2 68.7 C 381.8 76.7, 380.7 78.9, 375.5 91.5 C 373.6 95.9, 370.9 110.2, 371.7 111 C 372.6 112, 384.6 98.5, 387.2 93.4 C 391.7 84.8, 395.9 77.2, 398.2 73.2 C 399.5 71.2, 401.4 67.8, 402.4 65.8 C 403.5 63.7, 404.7 62, 405.2 62 C 406.3 62, 406.2 63.6, 405.1 65.8 C 400.3 74.7, 395.1 86, 395.8 86 C 397.7 86, 411.6 65.9, 418.1 53.8 C 420.6 49, 418.8 49, 409.5 54 M 379.9 66.3 C 369.2 73.2, 362 78.9, 359.4 82.8 C 349.1 98.2, 346.4 104.9, 347.5 113 C 350.2 132, 351.7 136.1, 354.5 132.4 C 355.7 130.9, 355.9 128.7, 355.4 121.5 C 354.8 112, 356 102.1, 358.5 97.3 C 359.3 95.8, 360 94.1, 360 93.5 C 360.1 91.9, 363.8 87.5, 364.5 88.2 C 364.9 88.6, 363.8 92.8, 362.1 97.7 C 359 106.5, 357.5 124, 359.8 124 C 360.2 124, 362.2 122.3, 364.2 120.3 C 367.7 116.6, 367.8 116.3, 368.2 107.2 C 368.4 102, 369.1 97.5, 369.8 96.8 C 370.5 96.1, 371 95, 371 94.2 C 371 93.4, 371.6 91.4, 372.4 89.7 C 373.2 87.9, 375.3 83.4, 377 79.5 C 378.7 75.7, 381.6 70.7, 383.4 68.5 C 389.8 60.6, 389.3 60.3, 379.9 66.3 M 559.5 70.9 C 558.4 71.3, 556.3 72.2, 554.8 72.9 C 552.7 74, 551.7 74, 550.6 73.1 C 548.8 71.6, 545 72.5, 538.5 76 C 535.8 77.5, 531.7 79.1, 529.5 79.6 C 526.3 80.4, 525.1 81.3, 523.4 84.5 C 518.4 94.1, 515.1 108.1, 514.3 122.8 L 513.7 134 517.6 132.4 C 528.9 127.9, 529.7 127.3, 530.5 123.3 C 533 109.5, 548.4 82, 553.6 82 C 555.1 82, 555.1 82.2, 553.7 84.3 C 542.9 99.5, 537.3 110.8, 534.6 123.3 C 533.2 129.6, 538.6 124.9, 542.5 116.5 C 548.6 103.1, 557.9 90.9, 567.3 84.2 C 574.6 79, 573.5 82, 565 90.7 C 555.6 100.3, 543.4 118.7, 545.2 120.5 C 545.5 120.8, 548.6 118.8, 552.1 116.2 C 565.1 106.4, 607.4 84.4, 604.7 88.8 C 604.1 89.7, 585.6 101, 584.7 101 C 584.4 101, 580.7 103, 576.6 105.5 C 572.4 108, 568.8 110, 568.5 110 C 567.6 110, 555 119.2, 555 119.8 C 555 120.2, 563.2 120.1, 573.3 119.6 L 591.6 118.7 594.3 113.8 C 595.8 111.1, 599.4 105.7, 602.3 101.7 C 608.4 93.5, 614 84.4, 614 83 C 614 81.7, 602.7 81.7, 598 83 C 583.5 86.9, 582 86.8, 586.1 82.4 C 588.1 80.3, 588.2 79.7, 587 79 C 584.6 77.5, 579 76, 573.1 75.3 C 569.2 74.9, 567.6 74.2, 567.3 72.9 C 567 72, 565.8 70.9, 564.7 70.6 C 562.2 70, 562.2 70, 559.5 70.9 M 519.4 78.9 C 501.3 92.3, 490.8 113.5, 492.3 133.6 C 492.9 142.3, 492.9 142.1, 495.8 141.3 C 497.9 140.8, 498 140.2, 498 131.2 C 498 122.1, 499.3 114.6, 501.2 112.5 C 501.8 111.9, 501.9 117, 501.4 125.3 C 501.1 132.8, 501 139, 501.3 139 C 501.7 139, 503.8 138.3, 506 137.4 L 510 135.8 510 128.1 C 510 120, 511.9 108.1, 514.6 99 C 516.4 93.2, 521.6 81.9, 522.9 81 C 524.2 80.2, 525.3 76, 524.2 76 C 523.7 76, 521.5 77.3, 519.4 78.9 M 423.5 83.5 C 419.6 85.9, 413.8 89.4, 410.5 91.2 C 404.7 94.4, 404.6 94.5, 407.5 95.1 L 410.5 95.6 407.3 96.4 C 405.5 96.8, 401.1 97.2, 397.4 97.2 C 391.5 97.3, 390.7 97.6, 389.2 99.9 C 388.4 101.3, 386.5 103.7, 385.2 105.2 L 382.7 107.9 385.4 109 C 395.3 112.7, 417.6 107.3, 419.6 100.7 C 419.9 99.5, 422.6 95.3, 425.5 91.5 C 430.6 84.9, 433.3 79, 431.3 79 C 430.8 79, 427.3 81, 423.5 83.5 M 717.1 82.6 C 714.7 84, 710.4 86, 707.6 87.1 C 704.8 88.3, 701.2 89.8, 699.5 90.5 C 697.9 91.2, 689.8 93.9, 681.5 96.5 C 665.7 101.4, 662.3 102.5, 657.5 104.5 C 655.9 105.2, 651.6 106.8, 648 108 C 644.4 109.2, 640.6 110.6, 639.5 111 C 637.2 111.9, 619.5 118.2, 613.8 120.1 C 609.2 121.7, 609.1 122.1, 612.9 123.8 C 625.5 129.4, 642.8 132, 656.7 130.3 C 664.5 129.4, 666.3 128.8, 671.9 125.2 L 678.3 121 669.3 121 C 662.5 121, 659.9 120.6, 659 119.5 C 657.9 118.2, 658.6 118, 664.1 117.9 C 667.6 117.9, 671.4 117.7, 672.5 117.5 C 673.6 117.3, 676 116.8, 677.7 116.5 C 681.1 115.9, 692 110.1, 692 108.9 C 692 108.6, 690.2 108, 688 107.6 C 683 106.8, 683.7 105, 689 105 C 692.2 105, 694.5 103.7, 704.6 96.1 C 721.5 83.3, 727.5 76.9, 717.1 82.6 M 645.5 84.4 C 631.8 86.3, 620.4 91, 614.2 97.3 C 609.5 102.2, 598.6 117, 599.3 117.7 C 599.7 118.1, 613.8 113.6, 617.1 112 C 618.6 111.3, 622 107.6, 624.8 103.6 C 633.9 90.6, 638.7 88.7, 630.1 101.6 C 627.2 105.8, 625.2 109.5, 625.5 109.8 C 626.8 111.1, 637.6 106.3, 640.4 103.1 C 650.4 92, 654.8 87.7, 657.2 86.2 C 663 82.8, 660.5 82.4, 645.5 84.4 M 235.6 86.6 C 234.1 90.4, 243.7 97.1, 260 103.5 C 277.7 110.5, 285.8 114.8, 284.2 116.5 C 283.8 116.9, 284.3 117, 285.3 116.7 C 286.2 116.3, 287 116.4, 287 116.8 C 287 117.2, 289.9 119.5, 293.4 121.8 C 305 129.4, 315.6 140.6, 317.4 147.2 C 318.3 150.3, 319 153.5, 319 154.4 C 319 155.4, 319.8 156, 321.1 156 C 322.8 156, 323.1 155.6, 322.6 153.8 C 322.3 152.5, 321.7 148.9, 321.4 145.8 C 320.9 142, 320.3 140, 319.4 140 C 318.7 140, 313.5 135.7, 307.8 130.4 C 292.8 116.3, 285.4 111.7, 265 103.5 C 254.4 99.2, 246.8 94.6, 241 88.9 C 236.6 84.5, 236.4 84.4, 235.6 86.6 M 669.5 85.9 C 661.9 86.7, 655.8 90.2, 649.1 97.7 C 646.3 100.8, 644.2 103.5, 644.4 103.7 C 644.9 104.2, 654.7 101, 658 99.3 C 659.4 98.6, 661 98, 661.5 98 C 662.1 98, 664.8 96.2, 667.5 94 C 673.2 89.5, 678.7 88.2, 673.7 92.5 C 668.6 97, 673.2 95.3, 682 89.5 C 684.5 87.8, 687.2 86.2, 688 85.8 C 689.8 85, 678 85.1, 669.5 85.9 M 234.3 96.5 C 237.3 102.5, 245 107, 252 107 C 253.5 107, 257.8 108.1, 261.4 109.5 C 265.1 110.9, 268.6 112, 269.2 112 C 272 112, 267.8 110, 257.5 106.5 C 247.3 103, 239.2 98.9, 234.6 95.1 C 232.8 93.6, 232.8 93.6, 234.3 96.5 M 323.8 97.3 C 323 99, 321.8 101.9, 321.2 103.5 C 320.1 106.6, 318.3 126.1, 318.4 133.8 C 318.5 139.9, 320.7 139.2, 321.3 132.8 C 321.9 125.4, 323.8 116.4, 326.1 110.2 C 328.4 103.7, 328.4 104, 325.9 104 C 324.8 104, 324.2 103.6, 324.5 103 C 324.9 102.4, 326 102.2, 327 102.5 C 329.6 103.3, 330.8 97, 328.3 95.3 C 325.9 93.4, 325.4 93.6, 323.8 97.3 M 340.9 109.1 C 339.5 111, 337.5 114.8, 336.5 117.7 C 334.5 123.3, 335.3 129.6, 339.8 144.3 L 341.6 150 344.7 145.3 C 349.2 138.2, 349.2 138, 348.3 136.7 C 346.3 134.1, 344.6 126, 344.1 116.1 L 343.5 105.6 340.9 109.1 M 410.5 109.9 C 405.8 112.4, 404.8 112.5, 391.5 112.4 C 377.7 112.3, 377.4 112.3, 375.6 114.7 C 373.8 117.1, 373.8 117.2, 375.9 119.4 C 379 122.7, 387.1 125, 395.7 125 C 406.5 125, 405.2 127.4, 394.2 127.8 C 384.2 128.1, 378.6 126.7, 374.7 122.9 C 372.2 120.4, 371.5 120.1, 370.2 121.2 C 367.7 123.2, 361 130.4, 361 131.2 C 361 133.2, 385 133.3, 396.4 131.4 C 401.7 130.4, 400.4 132.3, 394.2 134.5 C 388.3 136.5, 370.3 137.6, 363.2 136.2 C 357.7 135.2, 354.3 137.1, 355.7 140.6 C 356.7 143.4, 367 147.8, 376.3 149.4 C 381.5 150.3, 381 152, 375.5 152 C 370.2 152, 361.4 149.1, 356.9 146 L 353.8 143.7 351.7 145.9 L 349.6 148 352 149.7 C 356.7 153, 361.5 155.1, 365.8 155.7 C 370.4 156.3, 371.3 157.6, 367.6 158.6 C 364.3 159.4, 357.1 157.3, 353.2 154.3 C 351.4 152.9, 349.2 152.1, 348.5 152.4 C 346.2 153.3, 346.7 154.7, 349.6 155.4 C 351.1 155.8, 356 157.9, 360.6 160.2 L 369 164.2 373.6 162.1 C 377.1 160.4, 378.5 159, 379.7 156.1 C 380.8 153.3, 382.1 152, 384.7 151.1 C 388.2 149.8, 398.7 141.1, 409.4 130.6 L 415.4 124.7 413.2 122.9 C 410.3 120.6, 410.4 119, 414 113.3 C 418.6 106.1, 418.3 105.8, 410.5 109.9 M 700.8 108.4 C 695.9 109.6, 692.4 112.1, 691.5 115.1 C 691.1 116.2, 689.1 117.9, 686.9 119 C 683.6 120.7, 683.1 121.4, 683.9 122.9 C 684.7 124.2, 684.4 125, 682.8 126.1 C 671.7 133.9, 670.9 135.6, 678.9 134.8 C 691.1 133.5, 709.8 117.3, 700.8 115.8 C 698.9 115.5, 699.2 115.2, 702.3 114.3 C 705.7 113.3, 709.9 109.7, 710 107.8 C 710 106.8, 706.5 107, 700.8 108.4 M 435.7 114 C 434 115.7, 434 116, 438.2 122.6 C 440.5 126.4, 446.1 136.7, 450.5 145.4 C 454.9 154.2, 459 161.5, 459.7 161.7 C 460.9 162.1, 457.1 151.4, 452.6 141.7 C 451.3 138.8, 449 133.8, 447.5 130.5 C 439.6 112.9, 438.5 111.3, 435.7 114 M 422.6 115.8 C 425.8 123.1, 422.2 131, 411.2 140.8 C 408.1 143.7, 403.4 148, 400.9 150.4 C 398.3 153, 394.6 155.3, 392.2 156.1 C 387.5 157.5, 387.6 157.4, 389.1 160.1 C 389.9 161.6, 389.8 162.5, 388.9 163.7 C 387.6 165.1, 378.1 170, 376.3 170 C 373 170.1, 373.1 171.9, 376.4 177.5 C 378.4 180.7, 380.7 185.4, 381.6 187.9 C 382.6 190.4, 383.7 193, 384.1 193.5 C 384.4 194.1, 385.1 196.1, 385.5 198 C 385.9 199.9, 386.6 202.1, 387 203 C 387.9 204.7, 393.2 219.4, 395 225.3 C 396.1 229, 398 230.4, 398 227.5 C 398 226.7, 398.6 224.1, 399.4 221.8 C 400.1 219.4, 402 213.7, 403.4 209 C 414 175.4, 421.4 166.2, 443.3 159.6 C 446.4 158.6, 449 157.6, 449 157.3 C 449 155.2, 432.2 125.5, 427.1 118.8 C 423.6 114, 421.1 112.4, 422.6 115.8 M 330.5 117.7 C 329.2 120.9, 328 135.4, 328.7 140.8 C 329.2 145.7, 329.6 146.3, 333.1 148.1 C 337.6 150.4, 337.6 150.3, 335.1 144.7 C 330.9 135.6, 329.7 129.1, 331 122.7 C 332.1 116.8, 331.9 114.3, 330.5 117.7 M 267.4 121.7 C 271.5 135.1, 270.6 144.5, 264.7 150.4 L 262.3 152.8 267.9 159.3 C 271 162.9, 273.8 165.9, 274.1 165.9 C 274.4 166, 276.7 164.5, 279.1 162.6 C 285 158, 292.1 155.3, 302.4 153.8 C 311.9 152.5, 311.8 152.6, 308.9 146.9 C 303.4 136, 286.7 123.8, 274.5 121.6 C 272.3 121.2, 269.7 120.6, 268.7 120.3 C 267.2 119.9, 266.9 120.2, 267.4 121.7 M 479.5 127 C 476.9 134.1, 470.9 146.1, 468.8 148.7 C 466.8 151.2, 469.8 150.8, 472.2 148.2 C 477 143, 480.9 135.2, 482.1 128.6 C 483.7 119.1, 482.7 118.5, 479.5 127 M 575.5 123.1 C 571.1 123.5, 563.1 124.2, 557.7 124.5 C 551.7 124.9, 548.2 125.6, 548.6 126.2 C 550.6 129.4, 566.6 137, 571.3 137 C 572.1 137, 573.4 137.7, 574.1 138.7 C 575.4 140.2, 575.1 140.3, 570.5 139.7 C 563.1 138.9, 554.8 135.4, 549.1 130.9 L 544.1 126.9 533.1 131.6 C 527 134.1, 522 136.4, 522 136.6 C 522 139.2, 552.7 149, 560.7 149 C 567.8 149, 578.9 140, 587.2 127.6 C 591.5 121.3, 591.7 121.4, 575.5 123.1 M 597.5 124.8 C 596.4 125.6, 590.8 136.1, 591.2 136.5 C 591.7 136.9, 605 140.6, 611 142.1 C 614.2 142.9, 621.8 143.4, 629.1 143.4 L 641.7 143.4 651.3 138.6 C 656.6 135.9, 661 133.5, 661 133.1 C 661 132.8, 654.5 132.6, 646.5 132.8 C 629.1 133.2, 623 132.1, 609.7 126.1 C 605 124, 599.4 123.4, 597.5 124.8 M 513.6 140.5 C 510.9 142.6, 513 144.7, 522.3 149.3 C 532 154.1, 533.6 154.4, 543.7 153 L 552.5 151.7 547.5 150.3 C 537.3 147.5, 529.4 144.7, 523.8 141.9 C 517.3 138.6, 516.3 138.5, 513.6 140.5 M 654.5 144.9 C 647.9 147.4, 640.8 150.5, 638.8 151.6 C 636.9 152.8, 634.2 154.1, 632.9 154.5 C 629.3 155.7, 623 159.9, 623 161.1 C 623 162.9, 629.9 161.4, 636.9 158 C 640.4 156.3, 644.4 155, 645.9 155.2 C 648.2 155.5, 647.8 155.8, 643 158.1 C 640 159.6, 636.6 161.5, 635.5 162.4 C 631.4 165.6, 636.7 164.1, 643 160.3 C 653.7 153.7, 654.4 153.4, 659.2 152.2 C 669.5 149.6, 668.8 151.7, 658 155.7 C 655 156.8, 649.9 159.3, 646.6 161.3 L 640.8 164.8 645 167.5 C 649.7 170.5, 652 170.5, 664.2 167.6 C 667.8 166.8, 673.9 165.6, 677.7 165 C 688.5 163.4, 689 163.2, 689 160.7 C 689 157.7, 688.3 156.9, 682.8 153.2 C 679.5 150.9, 678.3 149.5, 678.7 148.2 C 679 146.8, 677.8 145.6, 673.2 143.2 C 669.9 141.4, 667.1 140, 666.9 140.1 C 666.7 140.2, 661.1 142.3, 654.5 144.9 M 501.6 144.6 C 495.9 146.4, 496.2 147, 505.2 151.9 C 511.6 155.3, 521.7 157.3, 527 156.2 L 530.5 155.4 524.2 153.1 C 520.8 151.8, 516 149, 513.6 146.9 C 508.7 142.6, 508.5 142.5, 501.6 144.6 M 586.6 146.6 C 587 147.6, 589.1 150.3, 591.2 152.5 C 593.3 154.7, 595 156.9, 595 157.3 C 595 158.5, 591.1 157.1, 587 154.5 C 580.4 150.4, 574 150.2, 574 154.1 C 574 155.9, 573.5 156, 567.7 155.4 C 563.3 155, 560.1 155.2, 557 156.2 C 554.5 157.1, 550.4 158.3, 547.8 159.1 C 542.5 160.6, 542.5 160.5, 541.1 173.5 C 539.8 184.8, 541.2 191.4, 547.6 204.5 C 555.4 220.4, 554.2 221.7, 545.4 206.8 C 537 192.5, 535 181, 538.5 166.5 C 540.4 158.9, 540.4 159.1, 537.9 159.7 C 530.1 161.8, 530.6 180.5, 539.1 198 C 540.7 201.3, 542 204.3, 542 204.5 C 542 204.8, 543.8 208, 546.1 211.5 C 553.6 223.4, 569.3 231.2, 598.2 237.5 C 606.1 239.2, 608.6 238.9, 607.6 236.4 C 607.3 235.7, 607.6 234.8, 608.2 234.4 C 609 233.9, 608.9 233.4, 607.9 232.6 C 602.9 228.8, 599.5 215.2, 602.2 210.1 C 604.5 205.8, 605.5 207.7, 605.2 215.8 C 604.9 222, 605.3 224.3, 606.9 227.5 C 608 229.7, 608.9 230.7, 609 229.8 C 609 228.9, 609.6 227.7, 610.3 227.3 C 615 224.2, 622.6 201.1, 621.3 193.4 C 620.5 188.9, 613.1 174.3, 608.8 168.9 C 604.8 163.8, 605 162.6, 609.2 165.9 C 611.5 167.8, 613.3 170.2, 619.4 179.8 C 623.1 185.7, 623.7 184.4, 620.5 177.5 C 615.2 166.4, 604.8 155.5, 594.5 150.3 C 591.8 148.9, 588.7 147.1, 587.7 146.2 C 586 144.7, 586 144.8, 586.6 146.6 M 610.6 153.6 C 616.5 158.6, 617.3 159, 618.8 157.7 C 621.3 155.6, 626.8 153.1, 630.6 152.4 C 632.5 152.1, 634 151.6, 633.8 151.5 C 633.5 151.2, 623.2 150, 608.7 148.5 L 604 148 610.6 153.6 M 155.9 154 C 150.6 154.9, 147.5 156.3, 144.2 159.3 L 142 161.4 144.6 164.1 C 148.3 168, 147 169, 138.2 169 C 132.9 169, 131 169.3, 132 170 C 132.8 170.5, 135.4 171, 137.8 171 C 140.1 171, 142 171.4, 142 171.8 C 142 172.3, 145.3 173.2, 149.3 173.8 C 153.2 174.4, 159.7 175.6, 163.5 176.5 C 176.8 179.4, 181.5 180, 189.8 180.1 L 198.1 180.2 207.3 174.2 C 212.4 171, 217.6 167.7, 218.9 167 C 221.6 165.6, 220.9 164.6, 216 163.2 C 201.7 159, 197.5 157.9, 190.9 156.6 C 183.9 155.2, 164.3 152.9, 161.7 153.1 C 161 153.2, 158.4 153.6, 155.9 154 M 583.8 162.1 C 586.7 165, 590 169, 591.1 171.1 C 593.3 175.5, 593.7 184.9, 591.8 188 C 590.8 189.5, 590.8 190.2, 591.8 191.2 C 595.1 194.5, 598.3 181.3, 596 173.7 C 594.6 168.8, 586.1 159.6, 581.7 158 C 578.7 157, 578.9 157.3, 583.8 162.1 M 495.3 166.6 C 500.3 171.2, 498.5 171.5, 468.2 171.5 L 440.5 171.5 435.9 174.2 C 428.3 178.7, 421 191.8, 415.4 211.3 C 414.6 213.9, 413.4 218.1, 412.6 220.8 C 402.5 255.1, 402.9 249.9, 409 268 C 411.3 274.9, 415 285.2, 417.1 291 C 419.1 296.8, 421.6 304.1, 422.6 307.2 C 424.3 312.8, 426 314, 426 309.8 C 426 308.6, 426.4 306.3, 427 304.6 C 427.5 302.9, 428.9 297, 430.1 291.5 C 433.9 273.8, 440.6 249, 441.9 247.7 C 442.7 246.9, 444.8 250.7, 449.9 262.5 C 451.1 265.3, 452.5 268.4, 453 269.5 C 453.5 270.6, 456.2 277.4, 459 284.5 C 463.6 296.2, 465.1 299.9, 468 306.5 C 470.3 311.6, 474.5 322.2, 478.4 332.8 C 483.6 346.7, 493.6 372.3, 495.4 376.5 C 499.5 385.7, 515 429.8, 515 432.3 C 515 433.4, 512.4 433.8, 503.8 434.3 C 477 435.8, 421.2 439.2, 393 441 C 347.4 444, 272.5 446.6, 266.9 445.4 C 262.5 444.5, 262.5 444.5, 262.8 440.5 C 263.4 434.3, 263.1 434.4, 286.7 433.7 C 326.7 432.5, 387.1 429.1, 433 425.5 C 443.2 424.7, 461.6 423.4, 474 422.5 C 486.4 421.7, 497 420.8, 497.7 420.5 C 499 420.1, 497.7 414.6, 495.9 412.6 C 495.4 412, 495 410.9, 495 410.1 C 494.9 409.2, 494.1 406.7, 493 404.5 C 491.9 402.3, 491.1 399.8, 491 399 C 491 398.1, 490.6 397, 490.2 396.5 C 489.7 395.9, 488.5 393.3, 487.5 390.5 C 484.3 381.6, 476 360.6, 475 358.8 C 474.4 357.8, 474 356.5, 474 355.9 C 474 355.3, 473.4 353.4, 472.6 351.7 C 471.9 349.9, 468.9 342.4, 466.1 335 C 463.2 327.6, 460.5 320.6, 460 319.5 C 459.4 318.4, 455.9 309.3, 452.2 299.3 L 445.4 281 444.1 287.3 C 443.5 290.7, 442.3 296.2, 441.5 299.5 C 438.6 312.4, 434.7 331, 431.5 347 C 430.2 353.9, 428.4 362.7, 427.5 366.5 C 426.7 370.4, 425.5 376, 424.9 379 C 423 389.5, 420.7 398.5, 419.6 399.9 C 418.2 401.6, 410.4 400.8, 408.2 398.6 C 406.7 397.1, 408.8 385.6, 415 363 C 419.9 345.1, 419.9 342.8, 415.9 329.6 C 414.2 324, 411.7 315.9, 410.4 311.5 C 406.2 298, 397.8 271.6, 397 269.5 C 396.5 268.4, 394.5 262.1, 392.5 255.5 C 390.5 248.9, 387.5 239.9, 385.9 235.5 C 384.4 231.1, 382.3 225, 381.4 222 C 380.6 219, 379.5 215.6, 379 214.5 C 378.6 213.4, 377.2 209.6, 376 206 C 369.8 187.6, 362 173.3, 355.9 168.9 C 352.9 166.8, 351.5 166.5, 344.5 166.6 C 330 166.8, 309.6 166.9, 302.5 166.7 C 285.5 166.2, 278.9 174.3, 268 208.5 C 266.2 214, 264.4 219.4, 264 220.5 C 262.8 223.4, 254.8 247.6, 250.5 261.5 C 248.5 268.1, 245.8 276.4, 244.5 280 C 243.2 283.6, 239 296, 235.1 307.5 C 231.3 319.1, 226 334.4, 223.5 341.5 C 221 348.7, 217.8 357.9, 216.4 362 C 215 366.1, 213.5 370.4, 213 371.5 C 212.6 372.6, 211.2 376.4, 210 380 C 208.8 383.6, 207.4 387.4, 207 388.5 C 204.8 393.9, 185.1 447.8, 184.5 450 C 184.2 451.4, 183.5 453.4, 183 454.5 C 181.5 458.1, 173.2 481.4, 171 488 C 169.8 491.6, 168.2 495.9, 167.5 497.5 C 166.8 499.2, 165.3 503.2, 164.1 506.5 C 163 509.8, 160.2 517.7, 158 524 C 155.7 530.3, 153.2 537.3, 152.4 539.5 C 151.6 541.7, 150.6 544.4, 150.1 545.5 C 149.6 546.6, 148.4 549.8, 147.5 552.5 C 146.5 555.3, 145.2 558.9, 144.5 560.5 C 143.8 562.2, 142.7 565, 142.2 566.8 L 141.1 570 155.4 570 L 169.8 570 170.5 566.3 C 172.2 556.5, 182.6 548.8, 187.4 553.6 C 189.4 555.5, 189.4 560.5, 187.5 565.9 C 186.2 569.8, 186.2 570.1, 187.8 569.6 C 192.5 568.3, 201.3 567.9, 208.2 568.9 C 216.2 570, 225.8 573.8, 225 575.5 C 224.4 576.6, 223.4 576.6, 213 575.1 C 205.1 573.9, 199.1 574.3, 190 576.6 C 183.4 578.3, 182.3 579.3, 181.5 584.5 L 180.9 588.5 183.5 585.5 L 186.1 582.5 185.1 585.3 C 183.7 589, 186.4 588.9, 198.2 585 C 211.1 580.7, 221.4 581.3, 231.6 587.1 C 235.5 589.3, 237 589.6, 235.2 587.8 C 233.2 585.8, 233.8 580.6, 237.1 571.8 C 241.9 559.1, 243.2 555.8, 244.6 552.3 C 245.4 550.6, 246 548.7, 246 548.1 C 246 547.5, 246.4 546.2, 246.9 545.2 C 247.4 544.3, 249.7 539.5, 252 534.7 C 254.3 529.8, 256.4 526, 256.6 526.3 C 256.8 526.5, 255 533, 252.5 540.6 C 250 548.2, 248 554.8, 248 555.3 C 248 555.7, 246 561.5, 243.6 568.3 C 238.2 583.1, 237.3 586.6, 238.9 585.6 C 241.7 583.8, 249.1 564.5, 255.5 542.5 C 256.4 539.2, 258.5 532.2, 260.1 527 C 261.6 521.8, 263.2 515.8, 263.6 513.7 C 264.4 509, 262.5 509.3, 297 508.3 C 337.7 507.2, 368.8 507.3, 397.5 508.8 C 411.3 509.5, 442.1 510.3, 466 510.5 C 489.9 510.8, 509.8 511, 510.2 511 C 510.6 511, 511.2 512, 511.5 513.3 C 511.9 514.5, 513.2 518.4, 514.5 522 C 515.8 525.6, 519.1 535.7, 522 544.5 C 524.8 553.3, 527.8 562.4, 528.7 564.7 L 530.2 568.9 534 564.1 C 540.8 555.5, 550.1 549.9, 563.8 546.1 C 567.8 545, 571.4 543.8, 572 543.5 C 573.2 542.8, 578.3 544.3, 585 547.3 C 590 549.5, 598 550.8, 598 549.3 C 598 548.4, 585.1 541.1, 577.3 537.6 C 572.6 535.6, 572.2 534.9, 574.6 532.9 C 575.8 531.9, 576.5 531.9, 577.8 532.8 C 578.8 533.4, 581.1 534.8, 583 535.8 C 590.5 539.9, 596.7 543.5, 600.4 546.2 C 602.5 547.7, 605.4 549, 606.7 549 C 608.9 549, 608.6 548.4, 602.8 541.4 C 592.3 528.6, 584 523.3, 578.9 526.1 C 576.2 527.5, 575.8 527.2, 576.2 524.3 C 576.7 519.8, 582.5 519.9, 591.4 524.5 C 597.1 527.4, 599.9 529.8, 606 536.7 C 611.9 543.5, 613.6 545, 613.9 543.4 C 614.1 542.4, 614.6 541, 615.2 540.3 C 615.8 539.5, 615.3 537, 613.7 532.8 C 610 523.1, 607.8 515.3, 608.2 512.8 C 608.9 508, 621.1 510.3, 622.4 515.5 C 623 517.9, 623.5 517.5, 629.5 509.4 L 636 500.9 634.1 496.7 C 632 492, 628.3 481.1, 625 470 C 623.8 465.9, 622.1 460.3, 621.3 457.5 C 615.9 439.2, 600 392.3, 587.5 357.5 C 585 350.4, 582.3 342.7, 581.5 340.5 C 580.8 338.3, 578.1 330.7, 575.5 323.5 C 572.9 316.4, 570.4 309.2, 569.8 307.5 C 569.3 305.9, 568.2 303.1, 567.4 301.3 C 566.6 299.6, 566 297.7, 566 297.1 C 566 296.5, 565.6 295.2, 565.1 294.2 C 564.6 293.3, 562.1 286.7, 559.5 279.5 C 554.5 265.9, 546.7 245.6, 544.5 240.5 C 543.7 238.9, 541.5 233.5, 539.5 228.5 C 535.5 218.5, 534.5 216.3, 528.5 202.5 C 518.8 180.6, 513.9 174.7, 498.5 166.5 C 492.4 163.3, 491.8 163.3, 495.3 166.6 M 676 168.1 C 671.9 169.1, 667.7 170.5, 666.8 171 C 665.8 171.6, 664.3 172, 663.5 172 C 662.7 172, 662 172.4, 662 172.8 C 662 174.1, 673.8 175.9, 682.8 176 C 695.4 176, 698.3 178.3, 686.7 179 L 677.8 179.5 687 183.9 C 692.1 186.3, 697.6 189.4, 699.2 190.8 C 700.8 192.1, 702.3 193, 702.7 192.7 C 703.7 191.6, 699.5 185.6, 696.2 183.3 C 693.3 181.4, 693.1 181, 694.6 180.2 C 696.9 178.9, 695.9 174, 692.4 169.5 C 689.3 165.3, 687.2 165.2, 676 168.1 M 233 169.6 C 227.3 172.8, 226 174.5, 226 178.8 L 226 182.2 229.3 180.2 C 231 179.1, 233.4 176.3, 234.4 174.1 C 237.2 168.2, 240.1 169.5, 239.1 176.2 C 239.1 176.6, 240.9 176.2, 243.1 175.5 C 245.4 174.7, 248.4 174, 249.7 174 C 251.5 174, 252.1 173.6, 251.6 172.5 C 251.2 171.4, 251.9 171, 254.3 170.9 C 262.9 170.6, 262.2 169.4, 252.8 168.2 C 239.6 166.6, 238.2 166.7, 233 169.6 M 622 167.5 C 622 167.7, 623.3 170.3, 624.8 173.2 C 626.4 176.1, 628.2 180.2, 628.9 182.3 C 630.1 185.9, 633.5 189.1, 639.5 192.3 C 648.1 196.8, 657.4 199.3, 656.4 196.7 C 656.1 195.9, 656.5 195, 657.2 194.8 C 658.9 194.2, 693.6 195.6, 697.5 196.5 L 700.5 197.2 698.2 195.3 C 694.9 192.6, 680.5 185.4, 672.5 182.5 C 668.7 181, 663.8 179.2, 661.8 178.5 C 657.2 176.8, 657.1 177.2, 661 181.7 C 663.9 185, 664.8 187, 663.3 187 C 662.9 187, 660.3 184.6, 657.5 181.7 C 650.4 174.1, 646 173, 651.1 180.1 C 652.2 181.7, 652.7 183, 652.3 183 C 650.9 183, 647.2 179.2, 645.6 176.2 C 644.2 173.5, 636.6 169.1, 635.4 170.3 C 635.1 170.6, 635.6 172, 636.5 173.4 C 639 177.2, 636.2 176.9, 632.4 172.9 C 629.3 169.7, 622 165.8, 622 167.5 M 211.5 177.6 C 206 181.2, 201.3 184.8, 201.1 185.7 C 200.9 186.9, 200.6 187, 200 186 C 199.5 185.1, 197.8 186.2, 194.2 189.6 L 189.2 194.5 190.1 200 C 190.7 203, 192.2 208.7, 193.5 212.5 C 197.6 224.8, 199.1 231.2, 198.5 232.9 C 197.3 236, 194.5 228.1, 186.4 199.2 L 185.5 196 182.7 198.2 L 179.9 200.5 181.5 215 C 182.4 223, 183.3 231.2, 183.6 233.2 C 184.6 239.3, 183.1 241.3, 181.4 236.5 C 179.9 232.4, 177.2 215.9, 176.8 208 L 176.5 203.5 168.2 211.5 L 160 219.5 161.5 226.5 C 162.3 230.3, 163 236.2, 162.9 239.5 C 162.8 253.5, 159.7 251.1, 158.5 236 C 157.4 222.2, 156.9 221.3, 152.8 225.3 C 148.8 229.2, 142.8 234.3, 135.5 240.2 L 130.1 244.5 130 252.3 C 130 260.8, 125 282.4, 122.4 285 C 120.5 287, 120.5 285.2, 122.9 273.2 C 125.1 261.9, 126.3 250, 125.3 250 C 124.3 250, 117.2 258.3, 113.3 264.1 C 111.4 266.8, 109.2 272.3, 107.7 277.7 C 106.4 282.7, 104.4 288.3, 103.3 290.1 L 101.2 293.3 101.6 286.4 C 101.9 281.2, 101.8 280.1, 101 281.8 C 100.5 283.1, 100.1 287.8, 100.2 292.3 C 100.3 297.9, 99.9 301.2, 98.9 302.8 C 96.5 306.6, 95.9 305.3, 96.6 297 C 97.4 287.9, 97.1 287.5, 93.9 292.8 C 89.1 300.5, 88.7 301.7, 88.2 308.8 C 87.8 314.8, 87.4 316, 86.1 315.8 C 84.9 315.6, 84.4 314, 84 310.1 L 83.5 304.8 79.1 313.8 C 76.6 318.8, 74.3 322.7, 73.9 322.4 C 73.5 322.2, 73.4 322.9, 73.7 324 C 74.1 325.4, 73.8 325.9, 72.9 325.5 C 72 325.2, 70.8 326.3, 69.6 328.5 C 68.3 330.9, 67.3 331.7, 66.7 331.1 C 65.6 330, 68 323.8, 71.5 318.5 C 72.6 316.9, 74.7 313.7, 76 311.5 L 78.5 307.5 75.5 309.5 C 71.2 312.3, 61.7 317, 60.3 317 C 56.4 317, 60.5 313.2, 68 309.8 C 71 308.4, 75.1 306, 77 304.6 C 80.3 302.1, 92.2 288.9, 91.6 288.3 C 90.9 287.5, 75.9 292.5, 69.8 295.5 C 61.9 299.4, 62 299.4, 62 297.9 C 62 295.3, 71.6 290, 82.9 286.3 C 94.5 282.6, 96.5 281.4, 99.6 276.8 C 101.1 274.4, 103.7 270.8, 105.3 268.7 L 108.2 264.9 102.9 265.6 C 96 266.4, 89.3 268.4, 80.2 272.2 C 76.2 273.9, 72.6 274.9, 72.2 274.6 C 71.1 273.4, 76 270.3, 86 265.9 C 114.5 253.3, 114 253.6, 118.8 249.5 C 124.1 244.9, 123.9 244.6, 114.5 244.9 C 108.3 245.1, 107.1 244.9, 107.6 243.7 C 108.3 241.8, 110.7 241.2, 120.5 240.4 C 130.1 239.6, 132.1 238.5, 141.8 228.7 L 149.1 221.3 139.8 221.2 C 134.7 221.1, 124 220.4, 116.1 219.5 C 108.2 218.7, 100.9 218, 99.8 218 C 98.8 218, 98.2 217.6, 98.5 217 C 99.3 215.6, 116.8 215.7, 131.5 217.1 C 151.4 219, 153 218.4, 172 202.1 L 174.5 199.9 171.5 200.4 C 164.5 201.7, 158.7 201.6, 146 199.8 C 138.6 198.8, 128.1 197.4, 122.8 196.7 C 113.2 195.4, 111 194.7, 112.3 193.3 C 113.1 192.6, 137.7 194.7, 144 196.1 C 152.9 198.1, 174.1 197.5, 178.8 195.1 C 181.1 193.9, 183 192.6, 183 192.2 C 183 191.8, 185.6 189.9, 188.8 188 L 194.5 184.5 190 184.3 C 184 184, 172.8 182.2, 166 180.4 C 148 175.8, 143.7 175.3, 127 175.6 C 113.3 175.8, 109.6 176.2, 105.1 177.9 C 98.6 180.4, 98.6 180.3, 99.9 182.8 C 101.9 186.5, 101.1 187.8, 96.3 189.6 C 90.4 191.8, 82.3 196.8, 79.1 200.4 C 76.8 202.8, 76.8 203.1, 78.3 204.8 C 80.5 207.2, 80.4 208.7, 78 209.5 C 74.3 210.7, 64.2 218, 61.6 221.5 L 58.9 225 63.5 224.3 C 68.6 223.6, 68.5 223.1, 64.3 232 C 62.1 236.6, 58.8 246.1, 57.6 251.4 C 57 253.9, 57.1 254.2, 58.7 253.5 C 62.6 251.9, 71.4 249, 72.2 249 C 74.1 249, 72.8 251.7, 69.9 253.4 C 64.8 256.4, 60.3 260.8, 57.6 265.5 C 54.4 270.8, 54.4 271, 57.3 271 C 61.1 271, 61 271.8, 57 279.3 C 53.2 286.2, 49.5 298.4, 50.6 300.2 C 50.9 300.7, 52.7 300.8, 54.6 300.4 C 57.6 299.9, 58 300, 58 301.8 C 58 303, 57.6 304.1, 57.1 304.5 C 55.2 305.6, 54.7 313.9, 56.4 316.4 C 57.8 318.6, 59.3 325.3, 60.6 335.5 C 60.9 337.7, 61.3 340.1, 61.6 340.8 C 62.1 342.4, 66.9 337, 69.8 331.7 C 70.9 329.6, 72.1 328.4, 72.5 328.9 C 72.8 329.5, 72.8 330.5, 72.5 331 C 70.8 333.7, 76.1 331.4, 82.4 326.7 C 86.3 323.8, 91.5 320.2, 94 318.6 C 96.5 317, 100.6 314, 103.1 311.8 C 105.8 309.6, 108.8 308, 110.3 308 C 111.7 308, 113 307.6, 113.2 307.2 C 113.4 306.7, 115.8 304.8, 118.5 303 C 128.2 296.3, 135.4 287.1, 137.4 278.6 C 138.3 274.7, 141.7 270, 143.6 270 C 145.1 270, 145.5 272.6, 144.1 273.4 C 143.6 273.7, 142.9 275.2, 142.5 276.7 C 141.1 282.5, 134.2 295.3, 131.5 297.2 C 128.6 299.3, 132.5 298.7, 135.9 296.6 C 138.1 295.2, 140.8 294, 141.9 294 C 143.8 294, 149 299.2, 149 301.1 C 149 302.8, 151.2 302, 153.2 299.5 C 155.7 296.3, 166.6 289.8, 175 286.5 C 178.6 285, 182.9 283.2, 184.7 282.4 C 186.4 281.6, 188.2 281, 188.7 281 C 190.3 281, 205 275.1, 207.6 273.3 L 210.2 271.6 207.7 269.4 C 201 263.7, 191.5 262, 180.4 264.6 C 171.7 266.6, 169.3 267.9, 159.9 275.6 C 151.4 282.7, 150.7 283.8, 151.6 288.6 C 152.4 292.8, 150.2 294, 146.5 291.6 C 139 286.7, 150.6 272.2, 169.4 262.8 C 172.8 261.2, 176.5 258.5, 177.8 256.9 C 179.1 255.3, 180.8 254, 181.7 254 C 186.1 254, 195.7 244.4, 199.3 236.5 C 200.3 234.4, 202.1 231.2, 203.4 229.5 C 207 224.9, 209 220.4, 209 217.3 C 209 215.7, 209.7 213.4, 210.6 212.1 C 212 210.1, 212.1 209.5, 210.9 207.3 C 208.1 202.1, 209.1 190.4, 212.9 182.8 C 217.1 174.4, 220.3 173.2, 216.6 181.3 C 215.8 183.1, 214.7 186.2, 214.1 188.3 L 213.2 192 217 192 L 220.9 192 221.2 181.8 C 221.4 176.1, 221.5 171.4, 221.5 171.4 C 221.5 171.3, 217 174.1, 211.5 177.6 M 248.9 182.8 C 245.8 185.5, 241 189.3, 238.3 191.3 C 231.3 196.4, 222.4 210, 226 210 C 226.7 210, 226.9 210.8, 226.5 212 C 226 213.6, 226.3 214, 227.9 214 C 229.4 214, 230 213.4, 230 211.9 C 230 206.5, 239.8 193.5, 251.5 183.3 C 254.8 180.4, 256.8 178.1, 256 178.1 C 255.2 178, 252 180.2, 248.9 182.8 M 262.8 179.1 C 261.4 179.9, 249.4 203.1, 242.6 218 C 241.3 220.9, 241 221.1, 241 219.2 C 241 215.4, 244.9 205, 250.5 194.3 C 253.4 188.6, 255.3 184, 254.7 184 C 251.3 184, 228 214.8, 230.7 215.7 C 231.4 216, 235.2 218.8, 239.2 222.1 C 247.5 228.9, 247.8 229, 248.5 225.3 C 249.9 219.1, 257.4 196.9, 261.1 188.1 C 265.3 178.2, 265.5 177.6, 262.8 179.1 M 242 180.2 C 240.6 180.8, 236.7 182.6, 233.3 184.2 L 227 187.1 227 193.3 L 227 199.5 231.3 194.8 C 233.6 192.2, 238.6 187.6, 242.4 184.6 C 249.3 179, 249.1 177.2, 242 180.2 M 219 221.1 L 222.5 224.1 218.7 223.5 C 215 222.9, 212.1 224.5, 212 227.2 C 212 228.7, 219.6 232.7, 223.9 233.4 C 228 234, 238.8 238.8, 241.8 241.2 C 243.1 242.3, 244.9 240.9, 245 238.9 C 245 237.5, 225 220.9, 221.7 219.5 C 216.1 217.2, 215.2 217.7, 219 221.1 M 127 224.1 C 115.4 225, 102.2 227.5, 98.3 229.5 C 95 231.2, 97.1 232.4, 101.3 231.1 C 103 230.6, 107.9 229.9, 112 229.5 C 119.9 228.8, 130.4 226.8, 138 224.5 C 143.1 222.9, 142.2 222.9, 127 224.1 M 553.7 229.8 C 555.7 236.1, 558.4 240.2, 561.7 242.3 C 565.1 244.4, 580.9 251, 582.5 251 C 583.6 251, 593.5 255.8, 595.5 257.3 C 599.2 260.1, 596.5 260, 588.2 257.1 C 580.3 254.3, 578.6 254.2, 581.2 256.8 C 581.8 257.4, 584.3 261.5, 586.6 265.7 C 591.4 274.6, 593.6 276.5, 595.4 273.6 C 596 272.5, 598.4 268.9, 600.6 265.5 C 611.7 248.9, 611.2 247.6, 591.5 243.1 C 586.5 242, 580.5 240.4, 578.1 239.5 C 571.7 237.3, 570.2 237.5, 572.7 240.3 C 575.4 243.2, 578.4 248, 577.6 248 C 576.8 248, 570.5 241.5, 567.3 237.4 C 563.6 232.5, 552.5 226.4, 553.7 229.8 M 206.8 234.5 C 204.2 237.9, 204.5 238.7, 208.8 239.3 C 210.8 239.7, 214.2 240.8, 216.3 241.9 C 223.1 245.4, 222 238.2, 215 234.3 C 210.1 231.4, 208.9 231.5, 206.8 234.5 M 169.2 236.4 C 168.6 237.7, 167.8 240.9, 167.4 243.6 C 167 246.3, 166.1 249.9, 165.4 251.7 C 163.8 255.3, 163.5 261, 164.9 261 C 165.3 261, 167.1 258.2, 168.8 254.8 C 172.4 247.3, 174.4 234, 171.8 234 C 171 234, 169.8 235.1, 169.2 236.4 M 223.8 241 C 224.3 246.5, 221.7 255.6, 217.4 263.8 C 214.7 268.9, 214.5 269.7, 216.3 268.2 C 218.2 266.6, 226.1 264.1, 231.5 263.3 C 236.6 262.6, 236.8 262.3, 239.7 252.5 C 240.5 249.8, 241.4 246.8, 241.6 246 C 242 244.7, 226.6 236, 223.9 236 C 223.6 236, 223.5 238.3, 223.8 241 M 202 244.6 C 201.4 246, 201 247.3, 201 247.5 C 201 247.7, 203.4 248, 206.3 248.2 L 211.5 248.5 207.6 250.8 C 204.4 252.7, 203.2 252.9, 200.8 252.1 C 198.2 251.2, 197.2 251.5, 192.9 254.2 L 188 257.4 195.8 259.5 C 200.1 260.6, 205.3 262.6, 207.4 263.8 C 211.9 266.4, 212 266.5, 212 264.3 C 212 263.4, 212.7 261.9, 213.6 260.9 C 214.4 260, 216.2 256.1, 217.5 252.4 L 219.9 245.5 214.2 244.8 C 211.1 244.4, 207.5 243.6, 206.2 243 C 203.1 241.6, 203.1 241.6, 202 244.6 M 229.5 268.1 C 225.9 269, 217.1 271.9, 216.1 272.6 C 215.7 272.9, 223.1 296.2, 224 297.3 C 224.3 297.7, 225.4 295.6, 226.4 292.8 C 227.4 289.9, 228.6 286.6, 229 285.5 C 229.9 283.3, 235 268, 235 267.4 C 235 266.9, 234.5 267, 229.5 268.1 M 321.6 272.8 C 320.8 274.4, 315.9 288.4, 310.6 304.1 C 299 338.8, 293.1 355.9, 292 358.5 C 291.5 359.6, 289.8 364.6, 288.1 369.5 C 286.4 374.5, 284.2 381, 283.1 384 C 281.7 387.9, 281.5 389.9, 282.2 390.7 C 283.4 392.2, 352.5 392.6, 354.8 391.2 C 356.3 390.2, 356 389.2, 351 371.5 C 349.3 365.5, 346.1 353.3, 343.9 344.5 C 341.7 335.7, 339.5 326.9, 339 325 C 338.6 323.1, 337.5 318.6, 336.6 315 C 325.2 266.8, 325 266.3, 321.6 272.8 M 210.3 278.3 C 209 279.6, 208 280.9, 208 281.4 C 208 281.9, 206 285.2, 203.6 288.9 C 197.2 298.6, 196.7 299.9, 196.9 305.3 C 197 310.3, 195.7 311, 194 306.6 C 192.6 303, 190 310.8, 189.8 319 C 189.7 327.3, 190 327.9, 193.5 325.2 C 195 324, 198.1 322.8, 200.6 322.4 C 203 322.1, 205.3 321.4, 205.6 320.9 C 205.9 320.4, 209.5 317.5, 213.5 314.5 C 223.6 307, 223.9 305.5, 217 292.4 C 213 284.6, 212 281.8, 212.4 279.3 C 212.6 277.5, 212.8 276, 212.7 276.1 C 212.6 276.1, 211.5 277.1, 210.3 278.3 M 197.5 282.2 C 190.9 284.9, 189.6 285.4, 182 288.1 C 167.5 293.3, 152 303.7, 152 308.4 C 152 309.6, 159.6 326.9, 160.6 327.9 C 160.8 328.1, 163.3 327.1, 166.1 325.7 C 172.6 322.3, 174.5 322.3, 176.7 326 C 177.6 327.7, 178.8 329, 179.2 329 C 180.5 329, 180.1 331.7, 178.6 332.9 C 177.5 333.8, 176.9 333.5, 175.5 331.4 C 174 329, 173.4 328.8, 169.7 329.5 C 158.5 331.4, 159.9 331.8, 155.9 324.8 C 154 321.3, 151.6 316.8, 150.6 314.8 C 149.7 312.7, 148.5 311, 148.1 311 C 146.1 311, 129.3 336.5, 127.5 342 C 127.1 343.1, 126.4 344, 125.9 344 C 125.4 344, 125 344.6, 125 345.3 C 125 346, 123 349.5, 120.5 353.2 C 118 356.9, 116 360.3, 115.9 360.7 C 115.8 362.2, 109.4 370.4, 108.1 370.8 C 104.9 371.9, 129.4 328, 139.7 314.5 C 148.2 303.2, 147.8 304.1, 145.5 302.4 C 142.1 299.9, 133.5 303.1, 122 311.1 C 119 313.2, 115.2 315.1, 113.6 315.4 C 110.6 315.9, 109.8 316.5, 94.5 327.2 C 75.1 340.8, 72.7 343, 73.3 347.3 C 74.1 353.3, 82.5 369.1, 88.8 376.6 C 96.9 386.2, 101 389, 112.5 392.7 C 152.4 405.4, 148.5 404.5, 161 404.5 C 173.6 404.5, 176.6 403.7, 186.6 397.4 C 192.2 393.9, 193.1 392.2, 200.9 369 C 202.7 363.8, 204.5 358.6, 205 357.5 C 206.8 353.3, 213.6 331.7, 216.7 320.8 C 217.5 317.6, 214.7 318.9, 210.3 323.7 C 206.4 327.8, 205.6 328.3, 204 327.2 C 201 325.3, 199.5 325.7, 195 329.5 C 188.5 335, 187.5 334.1, 186.5 321.8 C 185.7 311.9, 187 308.2, 198.2 290.3 C 205.6 278.5, 205.7 278.9, 197.5 282.2 M 312.6 334.8 C 307.7 349.5, 303.6 362.2, 303.3 363 C 303 363.8, 301.7 367.4, 300.4 371 C 299.1 374.6, 298 378.1, 298 378.8 C 298 379.7, 303 380, 319.6 380 C 339.8 380, 341.2 379.9, 340.5 378.3 C 340.1 377.3, 338.7 372.5, 337.4 367.5 C 336.1 362.6, 334.6 357.2, 334.1 355.5 C 333.6 353.9, 330.8 342.5, 327.9 330.3 C 324.9 318, 322.2 308, 321.9 308 C 321.6 308, 317.4 320, 312.6 334.8 M 184.3 407.1 C 183.7 407.7, 179.8 409.2, 175.6 410.4 L 167.9 412.6 174 417.9 C 177.4 420.8, 180.3 423.1, 180.5 422.9 C 180.7 422.7, 181.9 419.6, 183.3 416 C 184.7 412.4, 186.1 408.7, 186.5 407.8 C 187.3 405.8, 186 405.4, 184.3 407.1 M 639 508.7 C 632.3 514.9, 623 528.2, 623 531.5 C 623 532.8, 624.4 531.3, 627.1 527 C 632.6 518.4, 637.9 512.2, 642.9 508.5 C 646.7 505.7, 648.2 503, 646 503 C 645.5 503, 642.3 505.6, 639 508.7 M 639 516.8 C 635.9 520, 632.3 524.4, 631.2 526.5 C 630.1 528.7, 628 531.6, 626.5 533 C 621.7 537.4, 619 544.5, 616.5 558.3 C 614.6 569.4, 617.9 567.3, 620.1 556 C 621.4 549.2, 625 541, 628.5 536.5 C 630.2 534.3, 632.5 530.3, 633.5 527.5 C 634.7 524.2, 637.2 520.5, 641 516.8 C 644.1 513.6, 646.3 511, 645.8 511 C 645.3 511, 642.2 513.6, 639 516.8 M 330.3 520.8 C 327.9 522.3, 320.8 542.9, 318 556.3 C 309.6 596.3, 320.6 629.9, 346.4 642.5 C 358.6 648.5, 364.5 648.9, 391.8 645.4 C 404.7 643.8, 408.9 642, 416.2 635.2 C 433.1 619.4, 436.3 586.9, 423.9 557.5 C 423.5 556.4, 421.8 552.4, 420.2 548.5 C 414.6 535.2, 408.7 523.9, 406.8 522.9 C 403.8 521.3, 332.6 519.3, 330.3 520.8 M 565 553.1 C 550.2 557.1, 538.3 569.6, 532.6 587.4 C 527.8 602.1, 529.4 627.8, 536.3 646.1 C 542.4 662.2, 549.4 673.5, 559.6 683.7 C 572.9 696.9, 586.6 700.9, 603.9 696.4 C 609.5 695, 610.5 695, 615.4 696.4 C 618.4 697.3, 623.4 698, 626.5 698 C 644.6 698, 667.7 673.9, 675 647.3 C 684.9 611.2, 675.7 569.2, 655.7 559.7 C 643.5 553.9, 622 553.9, 622 559.7 C 622 561.1, 622.3 561, 624.6 559.5 C 628.1 557.3, 628.9 558.4, 626 561.5 C 623 564.7, 625.3 564.9, 630.7 562 C 635.4 559.5, 648.5 559.2, 651.6 561.4 C 653.4 562.8, 653.4 562.9, 650.7 563.5 C 649.2 563.9, 645.8 564, 643.2 563.6 C 639.4 563.1, 639 563.2, 641 564.1 C 643.5 565.1, 643.5 565.1, 638.9 568 C 625.8 576.1, 601 576.2, 590 568.1 C 582.1 562.4, 572.5 560.4, 565.6 563 C 561.7 564.5, 562.2 561.5, 566.3 559 C 570.2 556.6, 579.4 556.3, 584.7 558.5 C 589.5 560.5, 589.9 559.8, 585.8 556.7 C 579.7 552.2, 572.8 551, 565 553.1 M 592 557.5 C 592 561.6, 595.3 564, 600.9 564 L 605.8 564 606.2 560.1 C 606.5 556.3, 606.4 556.2, 603 555.6 C 595 554.3, 592 554.8, 592 557.5 M 158.5 578 C 142.7 579.4, 129.4 581.7, 124.5 583.9 C 102.1 593.8, 95.1 628.6, 108.4 663.5 C 122.6 700.9, 153.4 717.9, 178.5 702.2 C 180.7 700.9, 181.2 701.5, 172.8 695 C 171.2 693.8, 170 692.2, 170 691.4 C 170 689.5, 171.4 689.6, 173.1 691.6 C 173.8 692.4, 176.1 694, 178.2 695.1 C 180.3 696.2, 182.5 698.2, 183 699.5 C 184.3 702.8, 187.7 703.5, 197.4 702.1 C 208.3 700.6, 208.8 700.6, 207 702.4 C 205.2 704.1, 199.6 706, 196.1 706.1 C 194.1 706.2, 194.4 706.4, 197.5 707.2 C 201.8 708.2, 213.1 707.5, 215.8 706 C 216.7 705.5, 219.2 704.4, 221.2 703.4 C 232 698.6, 243.1 681.5, 249.6 659.5 C 252.3 650.5, 252.3 624.5, 249.6 617.5 C 240.4 593.9, 219.2 583.5, 197.6 591.9 C 184.9 596.8, 173.9 598.4, 161.8 597.2 C 148.5 595.8, 145.5 593.2, 156 592.2 C 162.1 591.6, 162.1 591.3, 156.2 587.2 C 146.7 580.6, 147.2 581.1, 149.7 581 C 151.9 581, 160.8 584.1, 164.2 586 C 167.3 587.8, 168 587.1, 168 582 C 168 579.3, 167.7 577.1, 167.3 577.2 C 166.8 577.3, 162.9 577.7, 158.5 578 M 126.5 586 C 123.1 588.3, 123 588.2, 132.5 588.5 C 136.4 588.6, 140.7 589, 142.3 589.4 C 144.4 590, 145 589.9, 145 588.7 C 145 584, 132.3 582.2, 126.5 586 M 671 621.3 C 671 625.2, 670.6 630.1, 670.1 632 C 668.1 639.6, 667.7 646, 669.3 646 C 673.2 646, 676.8 623.9, 674 616.6 C 672.2 611.9, 671 613.8, 671 621.3 M 240.4 619.5 C 242.3 629.6, 239.2 658.2, 235.1 668.5 C 234.6 669.6, 232.8 674.1, 231 678.5 C 226.3 690.2, 226.1 691, 228.9 688.6 C 240.6 678.2, 250.2 632, 243.4 618.8 C 241.3 614.8, 239.6 615.2, 240.4 619.5 M 409.5 630.7 C 402.5 636.8, 398.7 638.2, 385.5 639.1 C 378.9 639.6, 370.7 640.3, 367.4 640.6 C 359.9 641.3, 352.9 638.4, 346.2 631.9 C 341.7 627.5, 339.6 627.2, 342.3 631.4 C 344.2 634.3, 351.3 640.2, 355.5 642.3 C 360.6 644.9, 365 645.2, 379 644.1 C 399.5 642.4, 408.5 638.7, 413 630.2 C 414.7 626.7, 413.9 626.8, 409.5 630.7 M 137.4 660.1 C 139.2 671.8, 147.9 690, 155.6 698.4 L 159.1 702.2 155.8 701.5 C 150.3 700.3, 140.4 695, 134 689.8 C 126.3 683.6, 126.2 686, 134 693.4 C 142 701, 148.7 704.1, 157.1 703.8 C 160.6 703.7, 164.5 704.2, 165.7 704.8 C 169.8 707, 169 704.3, 164.5 700.4 C 154.7 692, 147.1 679.7, 141.7 663.2 C 139 655.3, 136.3 653.3, 137.4 660.1 M 560.4 664 C 561.5 669.7, 568.2 681.9, 572.7 686.5 C 582.8 696.7, 603.5 696.7, 614.7 686.5 C 619.7 682.1, 620 679.2, 615.2 682.4 C 604.5 689.3, 597.6 690.3, 588.9 686.2 C 581.6 682.7, 580.7 682.7, 584.7 686.4 C 587.4 688.9, 587.4 689, 585.2 689 C 579.3 689, 570.8 680.3, 565 668.4 C 561.3 660.9, 559.4 659.1, 560.4 664 M 644.2 680.7 C 639.2 685.7, 633.9 688.7, 628.1 689.6 C 623.2 690.4, 622 691.7, 625.3 692.5 C 631.2 694, 642.1 688.7, 647 681.8 C 652.2 674.7, 650.7 674.1, 644.2 680.7" stroke="none" fill="#1b1f3a" fill-rule="evenodd"/></svg>