<svg xmlns="http://www.w3.org/2000/svg" viewBox="0 0 768 768" version="1.1" preserveAspectRatio="xMidYMid meet">
	<path d="M 522 37.951 C 515.269 41.533, 515.005 42.798, 515.266 70.126 L 515.500 94.500 511.301 103.085 C 506.663 112.569, 500.651 119.865, 492.120 126.365 C 482.849 133.429, 482.410 133.442, 487.602 126.500 C 492.227 120.315, 493.968 112.075, 491.902 106.149 C 490.628 102.495, 489.783 102.309, 486.154 104.883 C 480.805 108.678, 472.326 112.743, 465.500 114.785 C 457.254 117.253, 447.029 119.362, 446.394 118.727 C 446.148 118.481, 447.581 115.855, 449.579 112.890 C 458.815 99.185, 463.243 86.668, 463.338 74 C 463.414 63.746, 462.111 58.316, 458.870 55.382 C 456.585 53.315, 456.936 53.035, 448.184 63.904 C 445.440 67.312, 433.476 77.379, 418.597 88.800 C 414.709 91.785, 414.560 91.315, 417.046 83.875 C 420.934 72.239, 423.601 66.717, 428.163 60.856 C 431.970 55.966, 432.038 52.523, 428.309 53.459 C 415.224 56.743, 390.129 76.243, 384.500 87.500 C 383.400 89.700, 382.402 91.673, 382.282 91.885 C 382.162 92.096, 378.787 89.022, 374.782 85.054 C 366.822 77.167, 356.681 70.580, 342 63.761 C 324.713 55.730, 322.533 55.377, 320.214 60.231 C 318.650 63.505, 319.247 64.876, 325.678 72.772 C 333.057 81.831, 339.446 92.953, 342.322 101.744 C 345.053 110.095, 345.018 110.147, 337.250 109.447 C 324.556 108.303, 320.574 107.191, 312.250 102.468 C 304.609 98.132, 304 97.550, 304 94.584 C 304 92.823, 303.331 90.509, 302.513 89.441 C 301.056 87.540, 300.985 87.551, 299.111 89.944 C 294.454 95.894, 293.723 125.347, 298.101 130.622 C 304.849 138.752, 272.693 133.877, 258.816 124.666 C 242.094 113.567, 235.668 87.911, 244.115 65.979 C 248.351 54.983, 247.556 50.846, 240.822 48.828 C 225.862 44.346, 203.491 62.347, 195.058 85.653 C 184.089 115.968, 191.582 155.305, 211.956 174.362 C 214.826 177.047, 216.453 179.230, 215.743 179.446 C 215.060 179.654, 212.925 180.357, 211 181.010 C 209.075 181.662, 202.201 182.439, 195.724 182.736 C 189.246 183.033, 183.685 183.701, 183.364 184.220 C 182.547 185.542, 187.176 190.124, 191.701 192.470 C 201.273 197.435, 201.517 196.655, 188.329 203.248 C 170.368 212.227, 166.423 214.869, 161.493 221.217 C 159.022 224.399, 157 227.413, 157 227.914 C 157 228.415, 159.813 229.212, 163.250 229.685 L 169.500 230.545 164.500 233.427 C 161.750 235.013, 156.125 238.429, 152 241.018 C 147.875 243.607, 142.530 246.726, 140.122 247.949 C 136.037 250.023, 135.855 250.283, 137.409 251.836 C 139.372 253.797, 151.843 253.867, 157.656 251.949 C 163.509 250.017, 162.763 251.779, 154.544 259.295 C 137.114 275.233, 130.465 279.467, 119.037 281.905 C 108.200 284.217, 109.914 289.939, 122.523 293.545 C 126.086 294.563, 129 295.706, 129 296.084 C 129 296.462, 123.713 300.650, 117.250 305.392 C 101.684 316.813, 102 316.555, 102 317.841 C 102 318.870, 103.514 319.441, 108.292 320.211 C 109.497 320.405, 107.152 322.565, 101.124 326.813 C 85.285 337.974, 73.290 354.353, 64.079 377.400 C 57.567 393.692, 55.796 402.314, 55.431 419.500 C 55.036 438.072, 53.763 444.180, 47.880 455.736 C 45.196 461.008, 43 465.458, 43 465.625 C 43 467.077, 47.523 467.950, 50.618 467.095 C 54.030 466.153, 54.175 466.212, 53.575 468.302 C 47.703 488.742, 49.235 499.262, 60.080 512.982 C 64.884 519.059, 68.860 521.304, 73.333 520.465 C 76.142 519.938, 76.770 520.201, 77.728 522.302 C 81.171 529.860, 86.064 533.294, 99.923 537.881 C 118.412 544.001, 131.867 540.266, 130.566 529.375 C 130.119 525.636, 130.280 525.250, 132.286 525.247 C 135.892 525.241, 141.962 522.252, 145.025 518.973 L 147.882 515.914 149.076 521.981 C 149.733 525.318, 150.659 528.289, 151.135 528.583 C 153.055 529.770, 151.163 542.349, 147.988 549.500 C 145.201 555.778, 140.854 571.455, 141.281 573.687 C 141.619 575.455, 140.856 577.734, 138.888 580.837 C 134.059 588.452, 135.628 590.918, 142.217 586.072 C 144.514 584.382, 147.133 583, 148.037 583 C 153.340 583, 168.390 572.095, 170.221 566.927 C 172.059 561.736, 173.018 573.073, 171.517 582.250 C 170.580 587.979, 172.913 589.004, 175.500 584 C 177.251 580.614, 179 580.057, 179 582.885 C 179 583.922, 179.733 587.185, 180.628 590.135 C 182.170 595.215, 188.585 614.778, 189.765 618 C 190.068 618.825, 192.450 625.800, 195.058 633.500 C 200.545 649.694, 200.741 648.823, 190.417 654.118 C 181.627 658.627, 174.717 664.020, 173.577 667.263 C 172.301 670.890, 173.508 671.800, 176.254 669.280 C 179.142 666.629, 188.970 660.637, 189.523 661.190 C 189.755 661.422, 187.923 664.287, 185.451 667.556 C 174.269 682.345, 170.838 697.592, 176.296 708.250 L 178.728 713 170.429 713 C 165.865 713, 160.863 713.546, 159.315 714.213 C 156.710 715.336, 157.134 715.487, 165 716.240 C 169.675 716.687, 175.750 717.055, 178.500 717.057 C 183.308 717.061, 183.404 717.115, 181 718.458 C 175.983 721.262, 181.949 721.659, 195.660 719.436 C 199.238 718.855, 200.323 719.145, 203.420 721.507 C 207.608 724.701, 213.510 725.067, 219.624 722.513 L 223.364 720.950 226.932 724.357 C 233.381 730.514, 238.874 731.548, 247.974 728.316 C 252.571 726.683, 252.871 726.698, 257.793 728.816 C 264.924 731.883, 268.485 731.669, 272.206 727.947 C 275.195 724.959, 275.327 724.927, 278.531 726.447 C 286.434 730.198, 294.093 728.457, 308.441 719.648 C 314.132 716.153, 314.784 715.995, 323.941 715.888 C 344.427 715.648, 352.500 714.703, 352.500 712.545 C 352.500 710.359, 349.697 709.257, 343.731 709.100 C 339.578 708.990, 339.664 709.467, 342.091 700 C 344.751 689.629, 340.922 668.333, 333.192 650.504 C 331.524 646.656, 330.273 643.393, 330.413 643.254 C 330.552 643.115, 333.691 643.950, 337.389 645.111 C 345.451 647.642, 346.258 647.197, 342.133 642.499 C 338.872 638.784, 338.326 635.269, 339.961 628.500 C 340.735 625.295, 340.939 625.551, 343.041 632.370 C 346.387 643.224, 351.993 652, 355.578 652 C 356.239 652, 355.271 643.869, 354.313 641.372 C 353.422 639.052, 356.507 639.845, 359.076 642.597 C 361.357 645.041, 369 649.622, 369 648.545 C 369 648.273, 370.156 648.489, 371.569 649.026 L 374.138 650.003 373.440 642.001 C 373.056 637.601, 372.987 634, 373.288 634 C 374.529 634, 380 646.901, 380 649.829 C 380 651.573, 380.413 653, 380.917 653 C 383.525 653, 394 633.221, 394 628.296 C 394 625.128, 395.243 627.972, 396.578 634.196 C 397.321 637.663, 397.946 643.039, 397.965 646.143 C 398.022 655.365, 400.048 654.881, 409.017 643.500 C 416.586 633.895, 419.445 629.294, 422.465 621.862 C 423.887 618.363, 425.528 614.656, 426.112 613.625 C 427.499 611.174, 428.600 596.135, 427.293 597.500 C 426.766 598.050, 425.333 601.200, 424.109 604.500 C 420.246 614.917, 404.673 639.939, 406.683 632.500 C 407.673 628.836, 407.649 609.575, 406.650 605.679 C 405.535 601.331, 403.707 603.033, 403.564 608.551 C 403.110 626.088, 402.921 629, 402.233 629 C 401.576 629, 398.451 621.634, 396.584 615.687 C 395.941 613.639, 394 614.328, 394 616.605 C 394 617.423, 392.912 620.136, 391.581 622.635 C 390.251 625.134, 388.366 629.839, 387.392 633.089 C 386.418 636.340, 385.301 639, 384.910 639 C 382.556 639, 374 617.041, 374 611.002 C 374 602.804, 369.812 614.702, 368.445 626.783 C 367.752 632.905, 367.693 633.007, 366.124 630.783 C 364.924 629.082, 364.434 625.569, 364.200 617 C 363.694 598.445, 362.571 599.542, 360.442 620.671 C 359.655 628.485, 360.666 632.343, 365.512 640.019 C 369.269 645.971, 366.742 644.825, 362.713 638.750 C 357.815 631.365, 356.253 627.154, 354.989 617.922 C 352.845 602.261, 351.027 603.553, 350.925 620.809 L 350.851 633.500 347.854 622.500 C 346.206 616.450, 344.472 609.096, 344.002 606.157 C 342.787 598.564, 340.985 598.110, 339.411 605 C 339.097 606.375, 338.235 609.750, 337.496 612.500 C 335.493 619.951, 332.817 631.329, 332.737 632.734 C 332.603 635.086, 328.156 630.557, 325.144 625.002 C 320.306 616.080, 317.875 610.651, 315.962 604.500 C 312.735 594.127, 312.764 594.188, 312.232 596.456 C 311.980 597.532, 312.255 600.682, 312.842 603.456 C 316.802 622.151, 315.195 623.810, 307.705 608.756 C 301.708 596.702, 297.703 584.008, 295.032 568.587 C 293.988 562.560, 293.442 561.225, 292.432 562.235 C 291.690 562.977, 293.766 585.159, 295.581 595.881 C 297.309 606.085, 297.308 606, 295.705 606 C 294.455 606, 287 597.045, 287 595.542 C 287 595.135, 286.364 593.384, 285.586 591.651 C 284.809 589.918, 283.651 586.819, 283.013 584.764 C 281.620 580.273, 280 578.951, 280 582.304 C 280 585.142, 281.544 593.623, 282.585 596.500 C 283.183 598.153, 282.796 598.023, 280.350 595.750 C 273.950 589.803, 272.992 594.143, 279.125 601.298 C 281.387 603.937, 283.461 605.872, 283.735 605.598 C 284.009 605.324, 286.152 607.103, 288.497 609.550 C 290.841 611.998, 293.602 614.064, 294.630 614.142 C 295.659 614.219, 297.576 614.332, 298.891 614.392 C 301.948 614.530, 304.392 620.750, 303.550 626.250 C 302.907 630.454, 303.808 630.975, 306.529 627.968 C 308.360 625.945, 308.387 625.957, 313.214 630.711 C 317.876 635.302, 318.084 635.396, 318.669 633.158 C 319.417 630.298, 320.503 631.676, 322.091 637.500 C 323.068 641.082, 328.576 655.057, 331.217 660.651 C 333.601 665.703, 331.050 664.833, 326.948 659.195 C 319.965 649.595, 317.821 650.248, 324.305 660 C 329.992 668.553, 335 679.903, 335 684.241 C 335 686.039, 332.686 683.582, 328.979 677.847 C 326.878 674.595, 324.922 672.317, 324.633 672.785 C 323.904 673.965, 326.381 680.823, 329.636 686.634 C 334.455 695.239, 334.988 696.458, 334.994 698.900 C 334.999 701.078, 334.738 700.940, 332.167 697.400 C 327.723 691.283, 326 690.159, 326 693.378 C 326 697.382, 324.594 696.525, 322.097 691 C 319.655 685.598, 317.321 684.164, 318.434 688.750 C 320.341 696.608, 320.225 701.505, 318.042 705.204 C 315.589 709.362, 310.128 713, 306.340 713 C 304.731 713, 301.952 714.656, 298.789 717.500 C 292.568 723.093, 287.376 723.572, 278.504 719.372 C 270.201 715.440, 266.210 707.643, 267.725 698.310 C 268.420 694.025, 266.752 694.032, 265.201 698.321 C 263.125 704.062, 264.702 715.203, 268.228 719.706 C 269.650 721.523, 268.227 723, 265.055 723 C 262.750 723, 261.921 722.307, 260.565 719.250 C 259.651 717.188, 258.467 714.707, 257.935 713.737 C 257.402 712.767, 256.684 709.266, 256.338 705.956 C 255.431 697.285, 253.581 696.975, 254.224 705.601 C 254.577 710.336, 255.539 713.990, 257.290 717.250 C 260.148 722.570, 259.599 723.382, 255.937 719.250 C 251.835 714.621, 250.718 711.814, 250.278 705.024 C 249.669 695.639, 252.422 690.564, 260.281 686.581 L 266.062 683.652 270.224 685.766 C 274.857 688.119, 276.060 687.945, 275.298 685.032 C 274.646 682.538, 273.116 681.284, 270.192 680.846 C 268.388 680.575, 269.569 679.648, 275.606 676.594 C 286.718 670.973, 291.397 671.427, 304.261 679.372 C 310.195 683.037, 311.207 682.282, 306.842 677.448 C 300.513 670.438, 292.429 666.732, 279.500 664.913 C 268.966 663.431, 255.118 664.464, 248.741 667.207 C 244.012 669.241, 243.657 669.257, 238.582 667.657 C 232.040 665.595, 230.223 665.592, 223.154 667.630 C 207.289 672.205, 195 687.024, 195 701.583 L 195 708 191.750 707.996 C 189.963 707.994, 187.050 707.108, 185.277 706.027 C 172.534 698.258, 190.518 662.301, 206.662 663.270 C 211.078 663.535, 212.070 661.189, 208.250 659.513 C 203.729 657.530, 206.618 648.901, 214.184 641.791 L 219.195 637.082 217.275 634.291 C 216.219 632.756, 214.351 629.025, 213.124 626 C 211.897 622.975, 210.498 619.600, 210.016 618.500 C 209.534 617.400, 208.623 614.813, 207.992 612.750 C 206.454 607.722, 205.588 607.995, 206.406 613.250 C 207.182 618.241, 209.537 624.786, 212.722 630.803 C 215.646 636.326, 215.589 637.776, 212.313 641.195 C 208.512 645.163, 207.373 644.726, 205.942 638.750 C 205.250 635.862, 204.003 631.925, 203.170 630 C 202.176 627.702, 201.630 623.066, 201.578 616.500 C 201.532 610.552, 201.095 606.500, 200.500 606.500 C 199.903 606.500, 199.607 609.324, 199.765 613.500 L 200.029 620.500 198.333 617.500 C 192.781 607.681, 185.714 582.675, 184.061 567 C 180.828 536.354, 180.200 531.804, 179.049 530.699 C 178.051 529.742, 177.917 531.315, 178.387 538.500 C 180.061 564.148, 180.096 567.737, 178.632 563.974 C 177.877 562.035, 176.066 554.160, 174.607 546.474 C 173.148 538.788, 171.531 530.925, 171.014 529 C 168.640 520.165, 168.888 507.944, 171.818 489.250 C 172.420 485.414, 172.323 484, 171.460 484 C 170.763 484, 170.009 486.363, 169.623 489.750 C 169.264 492.913, 168.611 497.525, 168.174 500 L 167.379 504.500 166.571 497 C 166.127 492.875, 165.075 487.767, 164.233 485.649 C 162.675 481.730, 163.510 477.328, 168.188 464.810 C 170.097 459.699, 167.855 459.585, 164.757 464.636 C 160.290 471.919, 159.665 472.211, 160.460 466.643 C 160.942 463.272, 160.825 461.990, 160.077 462.452 C 158.627 463.349, 158.659 455.241, 160.128 449.405 C 161.409 444.318, 160.710 442.733, 158.438 445.573 C 156.962 447.418, 156.925 447.394, 157.561 445 C 157.926 443.625, 159.975 438.194, 162.113 432.932 C 164.251 427.670, 166 422.832, 166 422.182 C 166 419.703, 164.268 421.173, 162.118 425.477 C 158.195 433.333, 156.876 432.877, 160.120 424.787 C 163.306 416.844, 166.550 406.391, 168.433 398 C 169.359 393.875, 170.540 388.873, 171.058 386.884 C 172.295 382.134, 172.262 376, 171 376 C 170.450 376, 170 376.871, 170 377.937 C 170 381.400, 160.603 417.094, 158.926 420 C 157.508 422.459, 157.837 413.380, 159.488 404.500 C 161.056 396.064, 163.202 388.067, 165.626 381.625 C 168.724 373.392, 165.541 376.092, 159.293 387 C 155.498 393.625, 153.738 393.492, 155.878 386.742 C 156.444 384.959, 157.177 380.125, 157.507 376 C 159.964 345.364, 164.448 320.053, 168.275 315.226 C 168.830 314.525, 168.952 313.625, 168.544 313.226 C 167.325 312.032, 159.461 321.484, 157.785 326.158 C 156.928 328.546, 155.480 334.515, 154.566 339.423 C 153.652 344.330, 152.687 348.698, 152.421 349.128 C 152.155 349.558, 147.114 352.837, 141.219 356.414 C 135.323 359.991, 129.150 364.036, 127.500 365.404 C 121.986 369.975, 128.485 367.252, 140.719 359.865 C 146.890 356.140, 152.138 353.414, 152.382 353.808 C 153.322 355.330, 150.020 359.493, 143.986 364.392 C 138.023 369.233, 134.123 374.658, 137.551 373.342 C 138.348 373.036, 139 372.464, 139 372.070 C 139 371.351, 147.097 367, 148.436 367 C 149.578 367, 143.946 371.441, 138.636 374.729 C 135.960 376.385, 134.239 378.029, 134.810 378.382 C 136.005 379.121, 144.463 374.853, 147.548 371.955 C 150.859 368.844, 151.326 369.567, 150.716 376.851 C 150.206 382.930, 149.620 384.448, 145.508 390.330 C 136.753 402.855, 132.443 404.827, 126.869 398.860 C 123.891 395.672, 117.962 394.954, 114.750 397.392 C 111.955 399.514, 112.653 399.999, 118.312 399.868 C 124.125 399.734, 128 400.614, 128 402.067 C 128 405.802, 135.321 408.093, 141.750 406.370 C 145.695 405.313, 144.260 403.780, 140 404.500 C 137.800 404.872, 136 404.932, 136 404.635 C 136 403.584, 145.363 399.968, 145.927 400.801 C 146.242 401.266, 147.288 401.936, 148.250 402.292 C 151.014 403.312, 150.388 404.436, 144.250 409.477 C 135.613 416.571, 134.165 420.446, 142 415.500 C 147.306 412.150, 148.051 412.870, 144.280 417.704 C 140.267 422.847, 137.180 431.580, 138.802 433.202 C 139.733 434.133, 140 433.933, 140 432.306 C 140 429.820, 145.145 424, 147.342 424 C 149.448 424, 150.400 425.813, 149.110 427.368 C 148.354 428.278, 148.387 428.987, 149.224 429.824 C 150.125 430.725, 149.945 431.008, 148.450 431.033 C 146.601 431.065, 146.613 431.161, 148.689 432.894 C 150.327 434.261, 150.591 435.009, 149.739 435.861 C 148.887 436.713, 148.930 437, 149.908 437 C 150.850 437, 151.007 437.770, 150.469 439.750 C 150.058 441.262, 149.759 443.326, 149.805 444.336 C 149.866 445.665, 149.422 445.991, 148.194 445.516 C 140.027 442.355, 138.842 444.242, 144.343 451.653 C 153.637 464.172, 157.798 491.060, 151.427 497.430 C 148.783 500.075, 140.780 496.142, 137.888 490.777 C 137.377 489.830, 136.288 484.279, 135.469 478.442 C 132.689 458.635, 129.264 459.255, 130.439 479.354 C 131.265 493.475, 132.508 497.036, 138.550 502.591 C 144.090 507.684, 144.088 508.743, 138.522 513.873 C 134.645 517.447, 133.435 518, 129.501 518 C 124.562 518, 117 513.952, 117 511.308 C 117 510.524, 116.616 510.119, 116.146 510.410 C 114.548 511.397, 113 505.924, 113 499.286 C 113 495.645, 112.718 492.949, 112.372 493.294 C 112.027 493.639, 111.787 496.040, 111.839 498.628 C 112.012 507.250, 109.541 501.710, 109.198 492.705 C 108.796 482.164, 108.463 481.109, 106.236 483.335 C 103.897 485.675, 103.976 501.853, 106.353 507.218 C 108.431 511.908, 108.423 512, 105.941 512 C 103.080 512, 104.360 513.622, 107.756 514.301 C 110.904 514.931, 118.190 523.103, 116.196 523.768 C 114.151 524.450, 114.887 525.842, 117 525.290 C 118.100 525.002, 119 525.255, 119 525.852 C 119 526.449, 119.656 526.685, 120.458 526.378 C 122.488 525.599, 123.806 530.876, 121.885 532.092 C 121.123 532.575, 117.949 532.976, 114.831 532.985 C 107.358 533.005, 103.684 530.832, 100.491 524.500 C 92.004 507.676, 88.452 505.099, 95.937 521.197 C 99.287 528.401, 99.275 528.462, 94.607 527.586 C 85.922 525.957, 76.724 504.884, 78.745 491.250 C 79.278 487.653, 78.113 486.987, 76.318 489.863 C 74.967 492.026, 73.101 501.501, 72.746 508 C 72.470 513.050, 70.382 513.685, 66.500 509.897 C 64.353 507.802, 62.951 492.904, 64.556 489.240 C 64.975 488.283, 65.222 487.089, 65.105 486.588 C 64.801 485.288, 66.947 480.279, 70.175 474.750 C 71.700 472.138, 72.575 470, 72.120 470 C 69.381 470, 60.820 482.055, 59.247 488.128 C 58.785 489.908, 57.857 491.548, 57.183 491.772 C 55.499 492.334, 56.439 484.972, 58.194 483.859 C 58.951 483.379, 59.038 483.024, 58.401 483.015 C 55.622 482.977, 59.763 467.444, 66.064 454.270 C 72.093 441.664, 71.342 440.823, 62.691 450.497 C 54.094 460.111, 52.211 460.745, 55.881 452.791 C 60.678 442.396, 62 439.021, 62 437.166 C 62 436.195, 62.395 434.972, 62.877 434.450 C 64.195 433.021, 68 421.321, 68 418.696 C 68 417.433, 68.392 415.972, 68.871 415.450 C 70.158 414.046, 71.177 409, 70.174 409 C 68.816 409, 66.408 412.073, 63.591 417.399 C 61.493 421.365, 61 421.828, 61 419.830 C 61 413.593, 68.699 394.143, 74.625 385.411 C 78.348 379.925, 76.450 379.882, 71.297 385.335 C 67.083 389.796, 66.795 389.944, 67.426 387.327 C 70.237 375.667, 87.956 349.399, 98.894 340.677 C 100.877 339.096, 102.387 337.256, 102.250 336.590 C 101.740 334.124, 115.531 323.474, 129.336 315.672 C 132.088 314.116, 136.963 311.062, 140.170 308.885 C 147.295 304.046, 147.368 304.324, 140.908 311.692 C 130.419 323.657, 132.147 323.965, 145.561 312.520 C 151.027 307.856, 155.639 304.447, 155.809 304.946 C 156.080 305.744, 153.808 311.573, 150.914 317.500 C 149.481 320.436, 149.325 325.219, 150.646 325.690 C 153.236 326.611, 162.597 309.008, 164.020 300.540 C 165.599 291.148, 167.995 280.877, 169.081 278.848 C 170.928 275.398, 169.328 275.615, 162.797 279.702 C 156.712 283.510, 149.102 287, 146.883 287 C 146.291 287, 147.988 284.993, 150.653 282.540 C 153.768 279.673, 154.919 278.065, 153.872 278.040 C 152.977 278.018, 151.685 278.675, 151 279.500 C 150.315 280.325, 149.248 281.015, 148.628 281.033 C 146.868 281.085, 142.783 284.840, 143.401 285.839 C 144.054 286.896, 136.908 288, 129.419 288 C 122.571 288, 121.889 286.752, 127.814 285.063 C 139.075 281.852, 154.764 270.272, 169 254.665 C 176.543 246.395, 180.829 242.731, 189.808 236.875 C 204.777 227.113, 204.586 227.252, 203.906 226.573 C 203.278 225.944, 196.817 229.187, 183 237.066 C 177.228 240.358, 171.321 242.734, 164.595 244.469 C 156.177 246.640, 152.347 247.074, 154.083 245.661 C 155.743 244.310, 175.128 233, 175.784 233 C 176.239 233, 178.161 231.855, 180.056 230.456 C 181.950 229.057, 185.975 226.745, 189 225.317 C 196.172 221.933, 205.376 216.043, 204.642 215.308 C 204.057 214.723, 193.576 218.334, 189 220.697 C 184.185 223.183, 183.551 222.044, 187.500 218 C 191.823 213.573, 191.661 213.267, 186.218 215.580 C 181.138 217.739, 170.667 221.001, 170.227 220.561 C 169.492 219.826, 176.688 215.249, 182 213.072 C 185.025 211.832, 191.550 208.890, 196.500 206.534 C 201.450 204.178, 206.963 201.689, 208.750 201.004 C 214.912 198.641, 211.936 197.011, 205.060 198.983 C 199.371 200.614, 200.328 199.233, 207.108 196.025 C 210.624 194.362, 215.075 193, 217 192.997 C 220.352 192.993, 227.785 189.452, 226.707 188.373 C 226.421 188.088, 224.458 188.338, 222.344 188.928 C 215.386 190.873, 202.878 191.303, 198.540 189.747 L 194.581 188.327 203.053 187.729 C 207.713 187.400, 212.870 186.583, 214.513 185.913 C 216.437 185.128, 224.081 184.645, 236 184.553 C 256.876 184.393, 257.844 184.182, 275.320 175.970 C 283.070 172.328, 293.185 163.518, 296.039 157.923 C 298.586 152.931, 299.584 146.409, 298.079 144.596 C 296.112 142.226, 300.512 140, 307.163 140 C 314.547 140, 314.815 139.289, 309.537 133.702 C 304.031 127.872, 301.974 121.243, 301.858 108.946 C 301.758 98.246, 302.046 97.703, 305.293 102.480 C 308.361 106.996, 313.832 110.973, 321 113.900 C 324.025 115.135, 330.041 117.913, 334.370 120.073 C 346.531 126.141, 348.825 124.662, 337.646 117.960 L 332.500 114.874 337.487 115.534 C 343.809 116.370, 347.776 118.415, 349.219 121.581 C 350.210 123.756, 359.652 134, 360.666 134 C 361.123 134, 357.815 128.712, 356.913 128 C 355.050 126.530, 353.205 120.692, 352.645 114.500 C 352.050 107.908, 346.149 90.292, 341.487 81.188 C 340.555 79.366, 339.951 77.723, 340.146 77.537 C 341.654 76.098, 363.201 93.165, 367.346 99.083 C 370.029 102.914, 370.323 100.468, 367.676 96.344 C 362.821 88.784, 352.692 80.767, 340.916 75.164 C 336.449 73.038, 330.643 68, 332.661 68 C 334.756 68, 356.729 79.699, 362.047 83.646 C 368.242 88.244, 374.086 94.144, 379.484 101.250 C 384.043 107.253, 384.333 107.210, 386.284 100.250 C 389.027 90.468, 396.358 80.689, 407.209 72.340 C 414.234 66.934, 414.371 67.275, 408.250 74.932 C 405.637 78.200, 402.199 83.490, 400.609 86.687 C 399.019 89.884, 397.332 93.281, 396.859 94.236 C 395.795 96.387, 395.754 98, 396.764 98 C 397.184 98, 398.263 96.305, 399.160 94.233 C 401.486 88.865, 410.996 73.247, 410.998 74.792 C 410.999 75.503, 410.362 79.328, 409.582 83.292 C 408.802 87.256, 407.882 92.750, 407.537 95.500 C 407.193 98.250, 406.430 101.729, 405.842 103.232 C 405.253 104.735, 405.047 106.679, 405.382 107.553 C 406.206 109.700, 409.533 107.314, 418.084 98.447 C 421.613 94.787, 429.781 87.752, 436.235 82.814 C 442.690 77.876, 449.497 71.998, 451.363 69.751 L 454.756 65.667 454.829 73.084 C 454.911 81.415, 453.148 87.792, 447.698 98.872 C 446.176 101.966, 436.138 113.701, 427.614 122.349 C 420.626 129.439, 419.957 131.024, 424.718 129.208 C 429.118 127.531, 441.795 125.208, 450.198 124.539 C 458.702 123.862, 473.796 119.403, 480.760 115.511 C 486.370 112.375, 486.375 112.375, 485.656 115.971 C 484.363 122.434, 474.016 135.148, 466.432 139.593 C 464.156 140.926, 459.303 143.063, 455.647 144.342 C 441.744 149.204, 453.414 149.360, 470.019 144.535 C 487.921 139.332, 496.073 134.374, 509 120.827 C 515.303 114.222, 523 99.155, 523 93.422 C 523 91.892, 523.920 91.797, 532.250 92.469 C 537.337 92.880, 545.775 93.505, 551 93.858 L 560.500 94.500 560.803 99.761 C 561.036 103.826, 560.746 105.160, 559.526 105.628 C 558.165 106.151, 544.776 105.089, 531.500 103.407 L 527.500 102.900 530.808 104.426 C 534.481 106.120, 547.584 108, 555.724 108 L 561 108 561 111.531 C 561 113.910, 560.454 115.272, 559.327 115.705 C 557.484 116.412, 537.502 113.297, 534.811 111.882 C 533.882 111.394, 532.902 111.350, 532.633 111.785 C 531.480 113.651, 547.058 118, 554.894 118 L 560 118 560 122.566 C 560 131.287, 558.024 132.307, 546.644 129.466 C 537.766 127.248, 531.680 124.460, 522.396 118.356 C 512.557 111.886, 514.639 114.947, 525.002 122.187 C 534.449 128.786, 541.566 131.635, 553.250 133.494 C 557.343 134.145, 558.061 136.015, 555.510 139.384 C 553.969 141.420, 547.057 141.161, 541.210 138.849 C 535.344 136.530, 528.450 133.462, 527.500 132.749 C 524.167 130.244, 514.260 123.262, 513 122.529 C 510.978 121.353, 514.512 125.612, 518.986 129.745 C 523.284 133.715, 539.032 141.642, 544.500 142.588 C 546.700 142.968, 549.543 143.667, 550.817 144.141 L 553.135 145.002 550.891 148.251 C 549.657 150.038, 548.554 151.635, 548.440 151.801 C 548.325 151.966, 544.562 151.165, 540.078 150.020 C 526.735 146.613, 518.519 142.247, 509.265 133.644 C 507.486 131.990, 505.686 130.990, 505.265 131.423 C 503.751 132.978, 517.636 144.532, 525.660 148.395 C 529.972 150.471, 534.268 152.573, 535.206 153.066 C 536.145 153.559, 538.732 154.253, 540.956 154.609 C 545.643 155.358, 545.843 155.859, 542.656 158.854 C 540.374 160.997, 540.155 161.016, 534.406 159.541 C 523.091 156.638, 514.093 151.507, 503.765 142.068 C 500.715 139.281, 497.945 137, 497.610 137 C 496.194 137, 497.320 138.800, 501.773 143.657 C 510.074 152.714, 518.829 158.145, 534.494 163.957 C 536.326 164.637, 536.246 164.820, 533.494 166.227 C 528.627 168.714, 524.898 167.894, 511.568 161.403 C 500.405 155.968, 491 146.084, 491 139.787 C 491 138.739, 490.550 138.160, 490 138.500 C 488.066 139.695, 489.032 144.706, 492.085 149.315 C 496.012 155.244, 504.303 161.828, 514.500 167.117 L 522.500 171.266 517.329 170.689 C 506.184 169.447, 489.492 158.935, 483.304 149.261 C 479.167 142.794, 477.689 143.661, 481.043 150.588 C 484.248 157.209, 491.569 164.015, 500.607 168.779 C 509.261 173.339, 509.351 173.890, 501 171.197 C 489.692 167.551, 483.936 163.307, 476.777 153.340 C 475.003 150.869, 473.390 149.331, 473.193 149.922 C 472.526 151.922, 477.248 158.468, 484.429 165.500 C 494.571 175.430, 497.814 176.471, 519 176.601 C 528.075 176.657, 537.300 177.209, 539.500 177.827 C 541.700 178.446, 545.075 178.977, 547 179.007 C 552.062 179.085, 548.385 181.049, 541.627 181.876 C 534.495 182.749, 534.369 184.890, 541.190 189.278 C 549.075 194.350, 554.717 199.310, 562.312 207.845 C 573.633 220.567, 573.036 220.572, 549 207.942 C 534.793 200.477, 531.502 200.832, 543.750 208.508 C 551.364 213.280, 578 238.597, 578 241.062 C 578 242.939, 564.160 233.993, 557.072 227.534 L 552.645 223.500 555.052 227.831 C 556.376 230.213, 560.618 235.616, 564.480 239.838 C 577.446 254.015, 582.222 260, 580.569 260 C 578.119 260, 578.688 262.507, 582.787 269.781 C 587.288 277.768, 589.933 284.475, 590.413 289.116 C 590.605 290.977, 591.956 295.425, 593.416 299 C 595.782 304.797, 597.882 311.904, 602.574 330 C 603.358 333.025, 604.248 341.800, 604.551 349.500 C 605.070 362.698, 605.013 363.307, 603.551 360.135 C 602.698 358.285, 602 356.057, 602 355.185 C 602 353.985, 601.719 353.881, 600.842 354.758 C 600.047 355.553, 600.003 356.319, 600.702 357.208 C 601.261 357.918, 601.975 359.850, 602.289 361.500 C 602.603 363.150, 603.165 365.288, 603.537 366.250 C 603.909 367.213, 603.799 368, 603.292 368 C 601.854 368, 599.344 361.998, 598.044 355.453 C 596.123 345.775, 595.712 344.952, 594.962 349.277 C 594.286 353.171, 596.409 382.123, 597.576 384.925 C 598.634 387.463, 605.887 415.447, 605.570 415.764 C 605.246 416.088, 599.722 410.066, 596.190 405.539 C 594.317 403.138, 593.709 402.852, 592.982 404.030 C 591.616 406.239, 590.674 415.652, 591.456 419.280 C 591.837 421.051, 592.354 431.351, 592.603 442.169 C 592.853 452.987, 593.417 464.821, 593.856 468.467 C 594.604 474.683, 593.942 477.896, 592.621 474.455 C 591.495 471.520, 579.704 454, 578.855 454 C 578.385 454, 578 458.500, 578 464 C 578 474.910, 575.733 490.664, 573.446 495.651 C 572.650 497.384, 571.956 499.409, 571.903 500.151 C 571.850 500.893, 571.048 498.608, 570.120 495.072 C 567.490 485.046, 566.505 486.586, 566.452 500.809 C 566.403 514.130, 566.126 515.414, 560.907 526.500 C 555.257 538.502, 554.147 544, 557.375 544 C 559.924 544, 570.132 518.494, 571.462 508.800 C 571.907 505.559, 572.656 503.926, 573.876 503.539 C 577.578 502.365, 580.038 495.588, 581.740 481.881 L 583.373 468.724 585.183 474.612 C 586.178 477.850, 587.672 482.525, 588.501 485 C 590.402 490.671, 590.749 558.732, 588.894 562.198 C 588.286 563.334, 587.418 569.492, 586.966 575.882 C 586.513 582.272, 585.701 589.982, 585.162 593.015 C 584.623 596.049, 583.852 606.303, 583.450 615.802 C 582.593 636.075, 580.804 638.986, 580 621.420 C 579.600 612.685, 579.205 610.500, 578.024 610.500 C 577.212 610.500, 576.140 611.850, 575.641 613.500 C 575.141 615.150, 574.384 617.400, 573.957 618.500 C 572.143 623.178, 572.079 624, 573.531 624 C 574.497 624, 575 622.972, 575 621 C 575 615.528, 576.895 617.896, 577.200 623.750 C 577.608 631.573, 575.817 638.180, 571.973 643.034 C 567.954 648.108, 568.755 649.135, 573.933 645.546 L 577.902 642.796 583.951 648.120 C 589.770 653.242, 591.014 655.515, 589.112 657.550 C 588.624 658.072, 587.887 659.614, 587.473 660.976 C 586.749 663.363, 586.854 663.335, 590.420 660.204 L 594.119 656.957 597.261 658.728 C 609.323 665.527, 617.120 681.886, 614.629 695.165 C 613.827 699.441, 609.638 704, 606.512 704 C 604.180 704, 604.144 703.887, 605.364 700.364 C 608.535 691.203, 600.159 675.648, 586.874 666.024 C 578.866 660.223, 569.005 662.814, 565.846 671.549 C 564.440 675.437, 564.025 675.582, 560.107 673.555 C 554.868 670.846, 547.790 670.531, 544.982 672.882 C 542.870 674.650, 542.723 675.110, 544 675.972 C 545.164 676.758, 545.711 676.427, 546.443 674.492 C 547.643 671.321, 547.529 671.305, 554.997 675.737 C 566.715 682.693, 571.381 691.694, 569.485 703.687 L 568.724 708.500 567.026 699.714 C 565.156 690.040, 562.173 684.520, 563.668 693.500 C 564.947 701.186, 564.597 714.575, 563.069 716.417 C 561.315 718.531, 556.440 718.383, 551.325 716.061 L 547.150 714.165 547.709 704.805 C 548.207 696.452, 548.028 694.975, 546.043 691.083 C 543.463 686.027, 534.813 677, 532.548 677 C 529.653 677, 530.989 675.202, 536.702 671.410 C 543.335 667.007, 551.698 666.189, 557.750 669.353 C 561.976 671.561, 562.363 669.168, 558.378 665.475 C 551.798 659.376, 539.257 661.256, 529.854 669.750 C 526.096 673.146, 525.385 673.392, 519.164 673.449 C 506.989 673.561, 496.616 682.286, 493.489 695.046 C 491.874 701.637, 491.876 703.418, 493.509 708.647 C 495.536 715.138, 469.965 711.062, 463.358 703.841 C 459.725 699.870, 459.121 688.156, 462.371 684.700 C 463.680 683.308, 468.298 677.082, 469.380 675.250 C 471.102 672.334, 468.089 674.316, 465.579 677.750 L 462.838 681.500 463.539 677 C 464.262 672.354, 467.203 665.611, 468.986 664.509 C 470.480 663.585, 470.219 662, 468.573 662 C 467.220 662, 463.095 669.587, 461.504 675 C 461.100 676.375, 458.914 681.097, 456.647 685.493 C 450.644 697.133, 450.319 690.696, 456.228 677.176 C 458.621 671.699, 458.040 669.568, 455.385 674.086 C 452.358 679.240, 449.835 687.829, 450.187 691.787 C 450.396 694.139, 450.033 695.471, 449.095 695.790 C 447.086 696.476, 448.207 684.358, 451.342 671.500 C 452.683 666, 454.959 656.494, 456.400 650.377 C 457.841 644.259, 459.916 636.651, 461.010 633.470 C 462.105 630.289, 463 627.038, 463 626.245 C 463 623.634, 466.250 617.786, 467.014 619.022 C 467.485 619.785, 468.503 619.102, 469.975 617.035 C 473.679 611.833, 473.251 614.176, 468.921 622.798 C 466.676 627.269, 465.012 631.731, 465.223 632.714 C 465.504 634.019, 466.200 633.363, 467.810 630.278 C 469.021 627.956, 471.419 624.453, 473.139 622.494 C 474.859 620.535, 475.957 618.623, 475.579 618.245 C 475.201 617.867, 474.431 618.220, 473.869 619.029 C 472.686 620.732, 472.968 619.893, 475.255 614.896 C 476.163 612.913, 478.853 609.313, 481.234 606.896 C 486.651 601.395, 491.568 595.239, 497.993 585.913 C 500.747 581.915, 503 579.147, 503 579.763 C 503 580.378, 502.621 581.116, 502.157 581.403 C 500.919 582.168, 496.785 596.669, 497.216 598.735 C 497.507 600.130, 497.890 599.890, 499.042 597.592 C 499.844 595.993, 501.400 594.193, 502.500 593.592 C 511.992 588.408, 520.928 577.836, 524.712 567.313 C 528.042 558.050, 526.504 532.334, 522.758 534.649 C 522.168 535.014, 521.975 537.464, 522.292 540.543 C 523.629 553.497, 518.743 569.363, 510.512 578.798 C 505.843 584.150, 505.233 583.740, 508.560 577.484 C 513.293 568.581, 517.447 550.370, 514.300 552.314 C 513.740 552.661, 512.997 555.368, 512.649 558.331 C 512.055 563.383, 511.233 565.949, 507.227 575.255 C 505.278 579.783, 503.618 578.819, 505.010 573.966 C 506.112 570.121, 506.328 562.019, 505.393 559.582 C 504.376 556.932, 503 557.814, 503 561.115 C 503 562.828, 501.902 566.315, 500.561 568.865 C 497.249 575.158, 494 582.650, 494 583.993 C 494 585.867, 487.421 595.495, 483.614 599.192 C 481.626 601.123, 480 603.219, 480 603.851 C 480 604.483, 479.550 605, 479 605 C 478.450 605, 478 605.498, 478 606.106 C 478 606.714, 476.875 608.548, 475.500 610.182 C 474.125 611.816, 473 612.599, 473 611.922 C 473 611.139, 472.271 611.350, 471 612.500 C 468.101 615.123, 468.540 612.982, 471.510 610.011 C 472.890 608.630, 475.660 605.025, 477.665 602 C 479.670 598.975, 482.594 595.018, 484.163 593.207 C 490.418 585.984, 497.470 564.997, 494.991 560.985 C 494.292 559.854, 491 565.636, 491 567.994 C 491 568.650, 489.155 572.857, 486.899 577.343 C 480.112 590.842, 479.382 591.026, 479.125 579.300 C 478.965 572.025, 477.584 573.394, 476.071 582.326 C 474.638 590.788, 471.565 599.179, 469.073 601.434 C 467.238 603.094, 467.224 603.037, 468.550 599.320 C 470.050 595.113, 470.496 588.035, 469.165 589.550 C 468.706 590.072, 467.580 592.544, 466.662 595.042 C 463.721 603.047, 442.758 625.091, 440.363 622.696 C 440.035 622.368, 440.927 619.098, 442.345 615.429 C 445.936 606.138, 448.725 591.325, 447.175 589.775 C 446.275 588.875, 446 589.091, 446 590.696 C 446 591.849, 444.605 596.102, 442.900 600.146 C 441.195 604.191, 439.135 609.300, 438.323 611.500 C 436.505 616.422, 433.636 620.257, 424.252 630.313 C 420.241 634.611, 417.221 638.548, 417.539 639.063 C 418.974 641.385, 422.584 639.616, 428.272 633.803 C 432.429 629.555, 434.156 628.296, 433.762 629.803 C 432.737 633.722, 437.845 632.478, 447.394 626.482 L 456.182 620.965 455.478 625.232 C 455.091 627.580, 454.417 629.950, 453.981 630.500 C 453.544 631.050, 452.865 633.750, 452.470 636.500 C 451.632 642.352, 449.572 650.561, 444.443 668.500 C 440.600 681.941, 439.379 694.908, 441.358 701.250 L 442.217 704 434.358 704.011 C 425.102 704.024, 419 704.891, 419 706.194 C 419 706.747, 426.315 706.999, 437.001 706.813 C 454.847 706.503, 458.597 707.224, 450.920 709.490 C 442.906 711.856, 443.914 714.345, 452.500 713.389 C 456.507 712.942, 458.629 713.337, 463.188 715.376 C 470.927 718.837, 480.639 720.367, 490.837 719.731 L 499.350 719.199 504.425 723.024 C 516.447 732.083, 532.121 732.466, 539.952 723.892 L 542.681 720.903 547.878 722.952 C 558.116 726.987, 566.953 725.071, 571.989 717.722 L 574.230 714.450 584.365 714.294 C 589.939 714.209, 598.037 714.107, 602.359 714.068 C 608.235 714.015, 611.389 713.448, 614.859 711.819 C 618.730 710.002, 621.782 709.571, 633.250 709.224 C 640.813 708.995, 647 708.470, 647 708.056 C 647 707.129, 632.219 704.997, 625.809 704.999 C 623.229 704.999, 620.797 704.480, 620.404 703.845 C 619.461 702.319, 642.237 703.526, 651.685 705.503 C 657.885 706.800, 660.128 706.795, 658.818 705.485 C 657.836 704.503, 647.470 702.203, 641 701.532 C 637.425 701.161, 631.800 700.413, 628.500 699.870 L 622.500 698.882 622.500 688.691 C 622.500 679.581, 622.206 677.902, 619.731 672.864 C 614.878 662.984, 606.052 654.189, 595.500 648.717 L 591.500 646.643 600.500 644.822 C 609.092 643.084, 611.724 642.296, 618.500 639.432 C 630.781 634.241, 631 634.109, 631 631.913 C 631 629.792, 630.745 629.736, 623.952 630.368 C 613.658 631.325, 604.904 629.640, 598.333 625.437 C 590.395 620.359, 589.546 617.772, 591 603.103 C 591.633 596.721, 592.405 587.050, 592.715 581.611 C 593.224 572.711, 593.413 571.961, 594.605 574.111 C 595.333 575.425, 595.945 577.568, 595.965 578.872 C 595.993 580.761, 596.278 581.014, 597.364 580.113 C 599.495 578.345, 600.957 568.879, 600.304 561.087 C 599.678 553.620, 599.962 553.191, 604 555.500 C 605.375 556.286, 607.949 556.945, 609.721 556.965 C 611.696 556.986, 614.728 558.256, 617.562 560.250 L 622.182 563.500 635.341 563.238 C 650.937 562.928, 657.833 560.405, 664.838 552.446 C 668.610 548.162, 674 538.574, 674 536.150 C 674 535.518, 674.353 535, 674.784 535 C 676.297 535, 678.870 529.373, 680.427 522.656 C 682.773 512.545, 682.475 501.717, 679.609 492.929 C 677.425 486.228, 677.350 485.395, 678.742 483.271 C 680.339 480.834, 679.932 472.843, 678.096 470.601 C 677.600 469.995, 675.571 464.584, 673.586 458.575 C 671.600 452.566, 668.294 444.691, 666.238 441.075 C 664.182 437.459, 662.368 434.216, 662.206 433.869 C 662.045 433.522, 663.057 432.951, 664.456 432.600 C 668.858 431.496, 666.820 426.722, 657.589 416.518 L 653.083 411.536 659.822 410.400 C 671.706 408.398, 679 402.556, 679 395.040 C 679 393.410, 679.653 392.996, 682.250 392.978 C 693.896 392.899, 705.351 379.407, 706.659 364.228 C 707.025 359.984, 707.800 357.052, 708.760 356.287 C 710.670 354.764, 709.856 342.212, 707.140 331.293 L 705.347 324.085 707.424 324.293 C 710.490 324.599, 709.887 321.098, 704.787 309 C 703.744 306.525, 702.514 303.600, 702.053 302.500 C 691.480 277.252, 677.830 259.237, 660.385 247.509 C 652.226 242.024, 634.396 233, 631.716 233 C 630.992 233, 629.973 232.612, 629.450 232.138 C 628.928 231.664, 626.700 230.808, 624.500 230.236 C 622.300 229.663, 613.300 227.336, 604.500 225.064 C 584.593 219.924, 581.610 218.543, 576 211.875 C 573.525 208.933, 568.668 203.520, 565.206 199.845 C 558.353 192.570, 558.314 192.796, 566.658 191.501 C 568.945 191.146, 571.645 190.227, 572.658 189.459 C 574.274 188.235, 573.211 188.051, 564 187.962 C 548.844 187.814, 548.203 187.211, 558.181 182.489 C 570.595 176.615, 585.224 161.354, 583.286 156.302 C 582.491 154.230, 581.020 154.749, 576.746 158.610 C 570.214 164.511, 563.342 167.006, 553.721 166.967 C 545.838 166.935, 545.582 166.863, 547.508 165.217 C 560.620 154.004, 568.507 132.299, 568.481 107.500 C 568.447 74.839, 555.620 48.062, 535.436 38.513 C 529.165 35.547, 526.711 35.444, 522 37.951 M 525.335 46.575 C 522.779 49.130, 522.730 49.418, 523.358 58.265 C 523.712 63.254, 524.241 67.574, 524.533 67.866 C 524.825 68.159, 527.081 67.858, 529.546 67.199 C 532.012 66.539, 536.835 65.968, 540.264 65.930 C 550.062 65.819, 550.614 65.342, 547.146 59.979 C 543.222 53.913, 536.309 47.431, 531.727 45.524 C 528.034 43.987, 527.900 44.010, 525.335 46.575 M 226.602 58.462 C 220.914 61.248, 212.018 69.556, 207.879 75.946 C 204.239 81.566, 204.273 82.023, 208.250 81.016 C 210.037 80.564, 213.525 79.902, 216 79.545 C 222.731 78.577, 219.727 80.803, 211.881 82.599 C 203.407 84.538, 203.131 84.772, 201.387 91.450 C 199.599 98.296, 199.868 98.765, 204.365 96.631 C 206.256 95.734, 208.495 95, 209.342 95 C 210.189 95, 211.160 94.550, 211.500 94 C 212.222 92.831, 215 92.644, 215 93.764 C 215 94.526, 207.740 98, 206.147 98 C 203.041 98, 199.214 101.341, 198.114 105.014 C 196.357 110.878, 197.768 111.762, 204.500 109.018 C 207.735 107.699, 219.562 104, 220.543 104 C 222.330 104, 217.395 106.732, 212.500 108.454 C 209.750 109.420, 206.600 110.569, 205.500 111.005 C 204.400 111.441, 202.016 112.357, 200.203 113.040 C 197 114.246, 196.914 114.429, 197.203 119.391 C 197.433 123.341, 197.840 124.415, 199 124.126 C 199.825 123.920, 202.237 123.344, 204.361 122.846 C 206.485 122.348, 212.964 119.703, 218.759 116.970 C 230.198 111.574, 233.834 110.585, 227.500 114.593 C 222.530 117.738, 214.635 121.496, 205.500 125.066 C 197.932 128.024, 198.132 127.663, 199.539 135.800 C 200.178 139.499, 200.615 139.496, 209 135.752 C 219.041 131.268, 237.827 121.344, 241.838 118.405 C 242.024 118.269, 241.244 116.884, 240.105 115.329 C 232.020 104.289, 229.863 81.869, 235.312 65.500 C 236.776 61.100, 237.980 57.163, 237.987 56.750 C 238.014 55.159, 231.275 56.173, 226.602 58.462 M 527 68.890 C 524.134 69.681, 522.654 77.324, 525.199 78.189 C 526.955 78.785, 550.252 77.372, 552.991 76.503 C 555.277 75.777, 555.179 72.126, 552.797 69.256 C 551.666 67.892, 531.642 67.608, 527 68.890 M 451.106 78.304 C 444.766 93.486, 436.659 103.385, 419 117.507 C 408.415 125.972, 407.765 126.599, 411.554 124.690 C 416.687 122.104, 432.303 109.569, 437.261 104.055 C 443.126 97.531, 450.542 85.413, 452.014 79.949 C 453.385 74.855, 452.908 73.989, 451.106 78.304 M 554.725 78.609 C 554.372 78.962, 547.427 79.532, 539.291 79.875 L 524.500 80.500 524.201 85.115 L 523.901 89.731 531.701 90.361 C 561.348 92.759, 560.616 92.913, 558.283 84.770 C 556.674 79.158, 555.760 77.574, 554.725 78.609 M 239.768 122.102 C 238.265 123.223, 229.922 127.822, 221.227 132.320 C 199.446 143.590, 201.400 142.055, 202.815 146.777 C 204.624 152.814, 206.003 153.504, 211.369 151.060 C 219.409 147.397, 220.367 149.178, 212.477 153.118 C 207.522 155.593, 207.193 156.453, 209.944 159.750 C 212.744 163.107, 214.674 162.550, 226 155.123 C 234.873 149.305, 238.644 145.766, 245.315 137 C 247.617 133.975, 249.838 131.350, 250.250 131.167 C 252.040 130.371, 250.720 127.132, 247.208 123.703 C 242.794 119.393, 243.263 119.494, 239.768 122.102 M 470.500 123.390 C 467.200 125.101, 464.275 126.732, 464 127.016 C 462.663 128.396, 448.565 135, 446.956 135 C 445.945 135, 444.840 135.450, 444.500 136 C 444.160 136.550, 442.896 137.007, 441.691 137.015 C 440.083 137.027, 439.861 137.259, 440.855 137.889 C 441.610 138.368, 443.380 138.364, 444.855 137.881 C 446.310 137.405, 450.313 136.237, 453.750 135.286 C 457.188 134.335, 460 133.206, 460 132.778 C 460 132.350, 461.238 131.968, 462.750 131.930 C 464.943 131.874, 465.127 131.713, 463.661 131.135 C 462.108 130.524, 462.420 130.106, 465.661 128.456 C 467.772 127.380, 469.880 126.050, 470.344 125.500 C 470.835 124.918, 470.953 125.232, 470.626 126.250 C 469.727 129.042, 471.270 128.289, 474.348 124.431 C 478.058 119.781, 477.667 119.675, 470.500 123.390 M 381.568 125.206 C 374.752 134.938, 392.026 145.845, 400.405 137.100 C 403.369 134.005, 404.486 128.060, 402.250 127.273 C 401.434 126.986, 401 127.853, 401 129.771 C 401 134.681, 396.746 138.363, 391.836 137.705 C 384.901 136.775, 380.178 129.222, 384.087 125.313 C 384.815 124.585, 384.837 124.017, 384.156 123.596 C 383.595 123.250, 382.431 123.974, 381.568 125.206 M 248.500 136.650 C 240.775 146.746, 229.471 156.575, 216.332 164.622 C 214.604 165.680, 214.642 165.859, 216.994 167.779 L 219.489 169.814 228.828 164.825 C 233.965 162.080, 238.368 160.034, 238.611 160.278 C 239.190 160.857, 233.741 164.946, 227.750 168.429 C 222.153 171.683, 221.973 172.405, 226.132 174.934 C 229.611 177.050, 230.047 176.950, 238.284 172.170 C 246.529 167.386, 247.314 168.712, 239.340 173.955 L 232.603 178.384 235.552 179.252 C 247.171 182.673, 272.164 175.999, 285.765 165.844 C 297.057 157.413, 301.269 142, 292.282 142 C 287.295 142, 273.084 139.049, 269.657 137.302 C 268.093 136.505, 266.727 135.998, 266.621 136.176 C 262.852 142.484, 258.147 148.684, 253.992 152.818 C 247.424 159.352, 246.213 158.972, 252.534 152.360 C 255.089 149.687, 258.951 144.920, 261.115 141.768 L 265.051 136.035 260.275 133.037 C 254.059 129.133, 254.310 129.056, 248.500 136.650 M 372.500 150.524 C 371.950 150.726, 365.200 151.372, 357.500 151.960 C 344.760 152.934, 340.580 153.735, 324.339 158.316 C 307.380 163.100, 289.617 176.283, 286.991 186.033 C 285.078 193.139, 287.741 194.703, 295.242 190.877 C 305.502 185.642, 309.698 184.804, 324 185.131 C 351.759 185.765, 355.236 185.592, 359.514 183.373 C 366.959 179.509, 367.510 170.001, 360.552 165.442 C 357.490 163.436, 356.057 164.260, 357.788 167.032 C 361.652 173.219, 355.669 175.072, 346.349 170.576 C 339.648 167.343, 332.932 166.001, 334.811 168.269 C 335.532 169.140, 338.118 170.673, 340.558 171.676 C 342.997 172.679, 344.994 173.873, 344.996 174.329 C 345 175.268, 342.414 174.850, 329.240 171.780 C 321.301 169.930, 319.089 169.773, 313.740 170.679 C 306.246 171.949, 305.939 171.824, 310.274 169.266 C 325.459 160.306, 345.118 156.217, 377.248 155.334 C 399.423 154.725, 411.461 156.191, 419.883 160.526 C 422.422 161.833, 427.650 163.852, 431.500 165.013 C 435.350 166.173, 439.400 167.521, 440.500 168.007 C 441.600 168.493, 444.750 169.849, 447.500 171.020 C 455.105 174.258, 463.064 178.294, 463.620 179.194 C 464.582 180.751, 467 179.979, 467 178.116 C 467 173.323, 446.173 160.844, 432.672 157.547 C 409.979 152.007, 378.488 148.331, 372.500 150.524 M 416.962 176.860 C 411.011 178.132, 404.083 182.024, 401.319 185.648 C 398.429 189.437, 399.175 192.016, 402.643 190.227 C 403.664 189.699, 406.975 189.003, 410 188.678 C 413.025 188.354, 414.825 188.322, 414 188.608 C 397.349 194.371, 384.654 207.803, 379.135 225.500 C 365.757 268.390, 400.926 308.959, 440.500 296.289 C 470.188 286.783, 485.716 253.608, 474.100 224.500 C 472.736 221.082, 468.181 211.669, 466.116 208 C 465.032 206.075, 463.015 201.919, 461.634 198.764 C 454.748 183.033, 434.509 173.108, 416.962 176.860 M 416.500 181.673 C 415.400 181.985, 413.600 182.913, 412.500 183.734 C 410.572 185.174, 410.590 185.203, 413 184.531 C 422.276 181.943, 434.630 183.600, 443.662 188.642 C 447.610 190.847, 448.027 190.919, 447.131 189.245 C 444.977 185.219, 436.152 181.797, 427 181.439 C 422.325 181.256, 417.600 181.361, 416.500 181.673 M 412.547 195.719 C 380.580 205.474, 370.118 254.788, 394.573 280.443 C 414.998 301.870, 451.563 296.305, 466.479 269.500 C 475.556 253.188, 475.019 235.304, 464.947 218.494 C 453.202 198.893, 432.144 189.740, 412.547 195.719 M 310.498 199.862 C 301.080 202.560, 295.267 205.818, 288.385 212.257 C 250.767 247.446, 274.091 313.613, 324 313.292 C 353.433 313.103, 374 290.355, 374 257.989 C 374 218.755, 343.142 190.510, 310.498 199.862 M 499.250 202.662 C 497.770 203.259, 497.628 206.876, 499 209 C 499.755 210.169, 499.973 209.893, 499.985 207.750 C 500.007 203.780, 503.461 204.066, 506.007 208.250 C 508.695 212.666, 511.679 222.277, 512.531 229.263 C 512.917 232.433, 513.703 235.316, 514.276 235.670 C 515.545 236.455, 514.547 225.382, 512.869 220.058 C 508.149 205.091, 504.568 200.516, 499.250 202.662 M 312.179 204.677 C 285.237 211.886, 269.133 241.852, 276.980 270.171 C 289.404 315.005, 345.543 321.984, 364.861 281.097 L 368.450 273.500 368.475 259 C 368.495 247.419, 368.114 243.292, 366.585 238.500 C 358.446 213.002, 335.163 198.528, 312.179 204.677 M 304.745 218.024 C 297.244 222.734, 289.960 232.743, 286.567 243 C 284.554 249.089, 284.009 267.073, 285.772 269.262 C 286.320 269.943, 287.067 271.850, 287.432 273.500 C 288.175 276.865, 290.672 280.661, 291.559 279.774 C 291.878 279.456, 291.690 278.363, 291.141 277.347 C 281.260 259.039, 288.644 231.285, 306.703 218.860 C 313.711 214.039, 312.152 213.373, 304.745 218.024 M 416 219.347 C 414.075 220.105, 411.305 221.209, 409.844 221.802 C 397.785 226.693, 391.357 247.722, 397.838 261.080 C 409.137 284.369, 440.342 284.452, 451.671 261.224 C 455.223 253.941, 455.660 241.955, 452.609 235.500 C 447.226 224.110, 439.442 218.776, 427.500 218.293 C 422.343 218.085, 418.256 218.459, 416 219.347 M 579.078 230.750 C 579.805 231.713, 581.384 233.625, 582.588 235 C 583.791 236.375, 585.081 238.512, 585.455 239.750 C 585.829 240.988, 586.536 242, 587.027 242 C 588.068 242, 593 247.132, 593 248.215 C 593 248.620, 591.846 248.512, 590.435 247.975 C 589.024 247.439, 586.719 247, 585.312 247 C 581.687 247, 583.647 249.133, 592.500 254.823 C 599.303 259.196, 600.230 261.758, 593.858 258.579 C 589.482 256.396, 589.473 256.539, 593.747 260.316 C 598.114 264.175, 609.655 271.829, 615.682 274.865 C 620.352 277.217, 622.589 279.555, 618.787 278.109 C 614.811 276.597, 604.766 270.972, 598.750 266.888 C 592.470 262.625, 590.677 263.028, 596.738 267.340 C 598.794 268.803, 600.101 270, 599.642 270 C 598.324 270, 593 266.649, 593 265.820 C 593 265.408, 592.079 264.578, 590.954 263.976 C 583.820 260.157, 596.523 271.730, 604.719 276.515 C 606.489 277.549, 608.181 279.031, 608.480 279.808 C 609.245 281.802, 604.930 280.612, 599.917 277.448 C 594.758 274.191, 594.841 276.321, 600.053 280.922 C 608.625 288.490, 620.242 300.091, 619.745 300.588 C 619.459 300.875, 614.636 297.897, 609.029 293.971 C 599.311 287.169, 595.442 285.442, 599.894 289.894 C 601.027 291.027, 601.710 292.593, 601.410 293.374 C 601.111 294.154, 601.711 295.402, 602.744 296.146 C 604.888 297.691, 607.027 300.753, 605.155 299.595 C 604.520 299.203, 604 299.332, 604 299.882 C 604 300.432, 604.450 301.160, 605 301.500 C 605.550 301.840, 607.873 306.029, 610.163 310.809 C 612.453 315.589, 615.153 320.694, 616.163 322.154 C 617.173 323.614, 618 325.077, 618 325.404 C 618 326.811, 614.442 325.825, 612.318 323.829 C 609.324 321.016, 608.801 321.689, 610.205 326.551 C 612.565 334.721, 619.944 340.114, 625.110 337.443 C 626.759 336.591, 630.276 335.636, 632.926 335.322 L 637.745 334.752 638.264 329.021 C 638.895 322.066, 641.422 316.415, 642.578 319.376 C 642.981 320.408, 642.833 322.658, 642.250 324.376 C 641.667 326.094, 640.661 329.825, 640.015 332.666 L 638.841 337.832 632.834 339.631 C 629.531 340.620, 625.719 342.458, 624.363 343.715 C 621.369 346.490, 621.361 346.490, 620.710 344 C 620.089 341.623, 617 341.295, 617 343.607 C 617 344.625, 616.450 345.003, 615.500 344.638 C 614.586 344.288, 614 344.637, 614 345.531 C 614 346.339, 614.408 347, 614.906 347 C 615.405 347, 615.577 347.900, 615.290 349 C 615.002 350.100, 615.255 351, 615.852 351 C 616.449 351, 616.718 351.573, 616.449 352.272 C 615.772 354.037, 620.824 364.227, 622.012 363.492 C 622.572 363.146, 622.701 363.616, 622.319 364.612 C 621.833 365.877, 622.013 366.110, 623 365.500 C 623.963 364.905, 624.170 365.113, 623.737 366.242 C 623.320 367.329, 624.019 368.180, 626.007 369.003 C 629.122 370.293, 631.461 369.577, 630.324 367.681 C 629.867 366.919, 630.182 366.959, 631.212 367.793 C 636.407 372.001, 647.696 361.462, 649.470 350.750 C 650.782 342.824, 653.740 349.742, 652.759 358.444 C 652.173 363.647, 650.589 365.850, 642.350 372.918 C 637.460 377.114, 636.282 378.634, 637.129 379.656 C 637.731 380.381, 637.966 381.646, 637.651 382.466 C 636.819 384.634, 642.977 389, 646.866 389 C 651.497 389, 653.485 384.629, 650.036 382.027 L 647.667 380.240 650.007 379.498 C 654.474 378.080, 656.317 383.603, 653.571 390.176 C 651.178 395.902, 654.948 400.542, 662.250 400.858 C 663.763 400.924, 665 400.513, 665 399.945 C 665 399.377, 665.788 399.045, 666.750 399.206 C 668.696 399.533, 669.167 390.946, 667.684 382.176 C 666.597 375.751, 668.637 377.933, 670.041 384.699 C 671.449 391.481, 672.518 390.415, 674.693 380.056 C 675.451 376.450, 676.485 371.700, 676.992 369.500 C 677.498 367.300, 677.932 362.039, 677.956 357.809 C 677.980 353.579, 678.414 349.862, 678.919 349.550 C 681.025 348.249, 682.423 356.790, 682.389 370.750 C 682.352 386.266, 682.637 386.919, 687.480 382.431 C 689.966 380.127, 690.189 379.395, 689.634 375.348 C 689.294 372.865, 688.732 370.375, 688.385 369.814 C 687.450 368.302, 686.944 360, 687.787 360 C 688.557 360, 689.543 362.193, 692.705 370.933 L 694.671 376.366 696.269 373.163 C 700.845 363.990, 700.757 354.223, 696.008 344.182 C 692.211 336.152, 694.605 335.999, 700.037 343.924 C 701.328 345.807, 702.543 346.871, 702.737 346.288 C 703.301 344.596, 700.312 328.350, 697.542 318.053 C 696.144 312.857, 695 307.363, 695 305.843 C 695 297.406, 673.338 267.104, 660.144 257.085 C 649.388 248.917, 633.426 241.124, 619 236.997 C 614.875 235.817, 610.375 234.443, 609 233.944 C 606.711 233.113, 581.708 229, 578.944 229 C 578.076 229, 578.112 229.472, 579.078 230.750 M 319.500 233.935 C 299.596 238.781, 292.197 267.412, 307.159 281.688 C 314.132 288.341, 324.076 290.556, 333.128 287.472 C 341.795 284.519, 347.214 278.198, 350.577 267.119 C 356.400 247.932, 338.875 229.218, 319.500 233.935 M 334.763 244.542 C 331.694 246.233, 330.558 249.527, 330.882 255.795 C 331.219 262.330, 341.300 265.503, 345.960 260.542 C 352.622 253.451, 343.151 239.918, 334.763 244.542 M 498.662 286.456 C 495.383 288.942, 496.990 291.402, 502.398 292.176 C 510.877 293.389, 510.795 295.037, 501.684 306.461 C 493.261 317.023, 479.303 327.754, 463.500 335.817 C 459.100 338.062, 452.575 342.418, 449 345.497 C 436.449 356.307, 425.114 359.642, 404.500 358.591 C 396.349 358.176, 388.491 358.468, 380 359.501 C 341.746 364.156, 298.895 363.492, 280.500 357.959 C 267.674 354.101, 263.450 352.410, 256.543 348.367 L 248.670 343.758 251.671 342.496 C 253.322 341.802, 257.389 340.919, 260.709 340.534 C 271.747 339.253, 275.679 334.675, 270.927 328.635 C 268.503 325.553, 266.979 325.202, 267.681 327.887 C 268.333 330.382, 267.150 330.988, 259.521 332.068 C 244.868 334.143, 228 346.010, 228 354.243 C 228 357.976, 228.834 358.076, 233.355 354.889 C 235.657 353.267, 238.873 351.841, 240.504 351.720 C 243.834 351.473, 243.547 350.716, 246.479 367.500 C 247.343 372.450, 248.723 378.860, 249.545 381.744 C 250.367 384.628, 251.749 389.578, 252.616 392.744 C 255.591 403.611, 258.273 410.519, 263.975 422 C 296.091 486.667, 339.474 515.172, 396.500 509.078 C 402.550 508.432, 408.850 507.488, 410.500 506.982 C 412.150 506.475, 417.473 504.884, 422.329 503.445 C 469.350 489.518, 512.140 440.310, 522.067 388.750 C 523.664 380.457, 525.257 380.083, 528.459 387.250 L 530.804 392.500 531.902 389.685 C 532.506 388.137, 533 386.439, 533 385.913 C 533 385.387, 534.125 384.445, 535.500 383.818 C 543.222 380.300, 531.207 372.289, 516.661 371.258 C 508.859 370.705, 508.823 370.713, 509.161 373.068 C 509.402 374.750, 510.439 375.701, 512.750 376.361 C 517.016 377.579, 516.867 378.648, 511.425 385.887 C 502.200 398.160, 488.834 408.153, 468.500 417.981 C 445.137 429.273, 439.520 431.105, 411.345 436.614 L 408.190 437.231 406.984 431.365 C 405.504 424.162, 402.624 411.523, 400.636 403.508 C 399.819 400.213, 399.229 397.450, 399.325 397.368 C 400.071 396.735, 409.445 394, 410.868 394 C 411.857 394, 412.951 393.716, 413.299 393.368 C 413.647 393.020, 417.434 391.505, 421.716 390 C 434.789 385.406, 436.135 384.841, 447.500 379.171 C 472.480 366.709, 488.145 353.789, 500.480 335.475 C 505.459 328.082, 508.572 322.068, 515.346 306.750 C 518.356 299.945, 519.805 299.605, 524.745 304.545 C 529.391 309.191, 531.407 308.783, 531.814 303.113 C 532.076 299.455, 531.673 298.268, 529.337 295.830 C 521.804 287.967, 503.892 282.493, 498.662 286.456 M 156.673 290.661 C 156.309 291.024, 152.117 293.056, 147.356 295.175 C 142.595 297.295, 136.041 300.844, 132.793 303.061 C 129.545 305.278, 125.900 307.483, 124.694 307.960 C 122.418 308.860, 115.176 314, 116.184 314 C 117.005 314, 123.538 311.288, 130.500 308.057 C 142.203 302.625, 143.829 302, 146.256 302 C 148.409 302, 159 292.492, 159 290.560 C 159 289.789, 157.478 289.855, 156.673 290.661 M 171.020 308.476 C 170.346 309.288, 169.653 313.001, 169.480 316.726 C 169.173 323.359, 167.200 336.635, 165.069 346.416 C 162.980 356.005, 165.405 352.704, 168.313 342 C 170.371 334.423, 173.602 307, 172.436 307 C 172.331 307, 171.694 307.664, 171.020 308.476 M 612.591 368.944 C 613.359 371.938, 614.440 374.840, 614.994 375.394 C 615.547 375.947, 616 376.942, 616 377.605 C 616 378.267, 617.972 383.015, 620.382 388.155 C 622.793 393.295, 624.556 397.853, 624.301 398.285 C 624.047 398.717, 620.423 393.881, 616.249 387.539 C 612.075 381.196, 608.464 376.203, 608.224 376.443 C 607.592 377.074, 610.930 385.647, 614.192 391.773 C 615.736 394.672, 617 397.330, 617 397.678 C 617 398.846, 612.860 394.577, 609.330 389.768 C 605.113 384.024, 603.991 383.753, 605.105 388.750 C 605.565 390.813, 606.447 394.975, 607.067 398 C 609.491 409.842, 611.313 415.705, 614.098 420.622 C 618.002 427.512, 617.894 428.390, 613.250 427.522 C 611.188 427.136, 609.050 426.481, 608.500 426.066 C 604.230 422.840, 603.818 423.592, 604.566 433.253 C 604.960 438.339, 605.874 444.188, 606.597 446.250 C 608.086 450.499, 608.003 450.570, 603.950 448.474 C 601.100 447, 601.001 447.025, 601.022 449.224 C 601.057 452.890, 604.443 459.210, 608.535 463.250 C 612.163 466.832, 612.225 467, 609.917 466.993 C 608.587 466.990, 606.150 466.093, 604.500 465 C 599.564 461.731, 599.327 462.149, 600.545 471.951 C 601.475 479.432, 602.055 481.233, 604.079 482.918 C 606.844 485.220, 605.392 485.764, 602.441 483.532 C 601.374 482.724, 599.515 482.049, 598.312 482.032 C 596.187 482.001, 596.139 482.252, 596.640 490.750 C 597.255 501.190, 597.697 503.108, 598.999 501.001 C 599.490 500.207, 600.253 499.919, 600.694 500.361 C 601.136 500.802, 600.710 501.739, 599.748 502.442 C 598.430 503.406, 598 505.154, 598 509.549 C 598 515.196, 598.055 515.317, 599.780 513.439 C 602.261 510.736, 607.587 501.885, 608.502 498.945 C 610.291 493.194, 612.850 491, 617.768 491 C 622.743 491, 622.647 492.601, 617.638 493.173 C 615.119 493.461, 614.487 494.279, 612.360 500 C 608.370 510.731, 606.138 514.895, 601.929 519.461 C 598.058 523.660, 597.942 523.989, 598.483 529.154 C 599.475 538.626, 604.875 548, 609.339 548 C 617.335 548, 629.775 528.562, 630.921 514.280 C 631.409 508.195, 631.736 507.207, 633 507.994 C 635.384 509.477, 635.103 528.219, 632.617 533.500 C 631.582 535.700, 629.854 539.413, 628.778 541.750 C 627.702 544.087, 626.446 546, 625.988 546 C 624.851 546, 619 550.987, 619 551.956 C 619 553.085, 628.842 557, 631.683 557 C 635.334 557, 639.400 554.518, 643.393 549.853 C 647.492 545.066, 647.495 545.146, 643.157 544.815 C 641.376 544.679, 639.216 543.791, 638.357 542.841 C 636.915 541.249, 636.977 541.138, 639.147 541.422 C 640.441 541.592, 642.767 542.241, 644.315 542.865 C 647.918 544.318, 647.578 544.438, 648.882 541.250 C 651.452 534.964, 653 526.393, 653 518.451 C 653 513.632, 653.419 510, 653.974 510 C 657.958 510, 659.539 529.067, 656.343 538.572 C 655.432 541.282, 653.156 545.912, 651.285 548.859 C 647.318 555.113, 647.719 556.290, 652.821 553.366 C 658.555 550.080, 664.654 541.543, 666.541 534.161 C 669.028 524.429, 665.295 509.680, 658.032 500.540 C 653.484 494.817, 654.180 492.796, 659.062 497.547 C 664.499 502.839, 668.549 509.101, 670.576 515.351 C 671.494 518.183, 672.641 520.928, 673.123 521.450 C 674.558 523.004, 674.132 508.592, 672.649 505.404 C 668.775 497.075, 668.165 495.502, 668.630 495.037 C 669.458 494.209, 672.874 499.272, 673.564 502.349 C 674.684 507.344, 675.856 503.718, 674.944 498.080 C 673.871 491.448, 672.308 488.075, 665.388 477.459 C 662.424 472.913, 660 468.925, 660 468.597 C 660 467.099, 662.872 468.315, 666.905 471.521 C 669.328 473.447, 671.515 474.818, 671.766 474.568 C 672.704 473.629, 665.552 460.569, 659.996 453.075 C 650.603 440.407, 649.860 438.274, 656.644 443.454 C 662.586 447.991, 663.727 447.937, 660.906 443.250 C 656.694 436.253, 654.571 433.512, 647.780 426.302 C 640.603 418.683, 638.820 415.110, 644.250 419.227 C 648.221 422.238, 654.875 425.458, 655.610 424.724 C 656.392 423.941, 652.598 419.495, 644.116 411.254 C 635.282 402.672, 635.431 401.664, 645.250 403.544 C 647.927 404.056, 649 403.912, 649 403.041 C 649 401.358, 644.886 398.074, 642.728 398.033 C 640.231 397.986, 632.719 390.799, 630.449 386.285 C 629.403 384.203, 625.814 379.800, 622.474 376.500 C 619.135 373.200, 615.231 368.925, 613.799 367 L 611.196 363.500 612.591 368.944 M 276.028 403.990 C 290.484 414.658, 300.411 419.609, 322 426.923 C 347.150 435.442, 361.732 437.851, 388.750 437.946 L 404 438 403.991 435.250 C 403.976 430.901, 399.892 411.851, 396.791 401.664 C 395.760 398.279, 395.322 397.889, 393.062 398.342 C 391.653 398.625, 386.295 399.547, 381.156 400.391 C 376.017 401.234, 371.067 402.155, 370.156 402.436 C 369.245 402.717, 359.950 403.631, 349.500 404.466 C 322.426 406.630, 286.199 403.658, 271.685 398.082 C 265.829 395.832, 266.844 397.212, 276.028 403.990 M 484.782 414.564 C 483.609 416.425, 455.854 429.680, 446.500 432.847 C 438.027 435.715, 423.462 439.474, 418.078 440.182 C 413.990 440.719, 414.669 442.620, 420.205 446.136 C 429.266 451.893, 446.057 450.656, 462.200 443.043 C 472.282 438.289, 486.942 421.009, 485.796 415.230 C 485.590 414.193, 485.184 413.926, 484.782 414.564 M 287 417.882 C 287 422.792, 299.916 431.319, 302.110 427.857 C 303.655 425.419, 303.061 424.498, 298.750 422.645 C 296.413 421.640, 293.068 419.734, 291.317 418.409 C 287.482 415.507, 287 415.448, 287 417.882 M 307.648 427.685 C 305.423 429.910, 307.150 436.208, 311.188 440.588 C 319.117 449.190, 324.889 451.734, 326.827 447.481 C 328.246 444.365, 330 444.265, 330 447.300 C 330 455.014, 340.488 452.277, 348.124 442.570 C 350.455 439.605, 350.853 439.853, 340 437.521 C 333.087 436.036, 316.836 430.585, 314.500 428.968 C 312.860 427.833, 308.346 426.987, 307.648 427.685 M 355.662 444.125 C 357.414 453.053, 363.173 458, 371.815 458 C 378.326 458, 380.886 456.588, 390.500 447.689 L 395.500 443.061 391 443.628 C 386.603 444.183, 364.710 442.694, 358.250 441.401 C 355.009 440.752, 355.002 440.759, 355.662 444.125 M 537.567 471.187 C 537.337 471.909, 536.939 478.800, 536.682 486.500 C 536.425 494.200, 535.878 501.400, 535.466 502.500 C 534.791 504.300, 534.876 504.350, 536.320 503 C 539.054 500.443, 541.395 471.980, 538.993 470.496 C 538.439 470.153, 537.798 470.464, 537.567 471.187 M 214.165 498.406 C 212.671 510.557, 212.682 520.119, 214.193 523.685 C 215.208 526.083, 215.509 523.843, 216.219 508.576 C 217.134 488.894, 216.015 483.353, 214.165 498.406 M 404.234 490.914 C 401.888 492.015, 397.575 495.180, 394.649 497.948 L 389.329 502.979 386.932 500.427 C 379.431 492.444, 369.006 491.215, 358.098 497.028 C 353.925 499.253, 352.307 500.592, 353.194 501.089 C 358.579 504.102, 396.230 504.698, 407.500 501.948 C 415.943 499.888, 426.371 496.929, 428.990 495.850 C 431.412 494.852, 431.427 494.785, 429.536 493.403 C 424.082 489.415, 410.315 488.061, 404.234 490.914 M 159.512 501.500 C 159.061 503.150, 158.338 504.735, 157.906 505.022 C 157.473 505.309, 157.012 507.897, 156.881 510.772 C 156.583 517.301, 155.217 517.614, 154.794 511.250 C 154.479 506.511, 154.475 506.507, 153.096 509.211 C 151.902 511.554, 151.938 512.717, 153.357 517.777 C 154.261 520.997, 155 525.964, 155 528.816 C 155 534.066, 156.801 536.321, 156.944 531.250 C 156.987 529.737, 157.088 527.825, 157.168 527 C 157.249 526.175, 156.988 524.487, 156.590 523.250 C 156.170 521.946, 156.281 521, 156.853 521 C 159.235 521, 159.307 530.384, 156.961 534.967 C 156.529 535.810, 154.291 542.575, 151.987 550 C 147.920 563.108, 145.918 568.648, 143.952 572.236 C 141.950 575.889, 143.182 576.348, 146 573 C 147.620 571.075, 148.958 569.870, 148.973 570.321 C 149.051 572.686, 157.270 561.518, 160.987 553.998 C 164.466 546.959, 166.314 534.930, 164.125 533.577 C 163.406 533.133, 163 533.785, 163 535.382 C 163 536.757, 162.601 538.129, 162.113 538.430 C 161.626 538.731, 160.939 540.513, 160.587 542.388 C 160 545.519, 158.299 549.850, 155.936 554.236 C 155.421 555.191, 155 556.654, 155 557.486 C 155 558.319, 154.523 559, 153.941 559 C 153.359 559, 153.094 559.342, 153.352 559.761 C 153.611 560.180, 153.141 561.417, 152.308 562.511 C 150.849 564.427, 150.820 564.408, 151.523 562 C 151.925 560.625, 152.871 558.285, 153.627 556.800 C 154.382 555.314, 155 553.582, 155 552.951 C 155 552.319, 155.633 550.384, 156.407 548.651 C 157.181 546.918, 158.578 542.800, 159.511 539.500 C 160.444 536.200, 161.625 532.155, 162.135 530.510 C 162.666 528.800, 162.685 527.395, 162.179 527.226 C 161.693 527.064, 161.473 523.235, 161.690 518.716 C 162.194 508.247, 160.761 496.927, 159.512 501.500 M 188 520.413 C 188 525.772, 194.246 535.269, 201.031 540.226 C 204.589 542.825, 209.244 546.426, 211.376 548.226 C 217.058 553.026, 219.550 554.387, 221.374 553.687 C 224.125 552.631, 223.239 551.479, 216.750 547.677 C 205.506 541.088, 199.596 535.765, 196.675 529.596 C 195.204 526.488, 194 523.234, 194 522.366 C 194 521.397, 193.439 521.001, 192.551 521.342 C 191.675 521.678, 190.858 521.128, 190.484 519.949 C 189.616 517.216, 188 517.518, 188 520.413 M 223.109 521.797 C 220.320 528.408, 223.630 548.603, 227.750 550.112 C 229.960 550.921, 229.975 550.875, 228.586 547.552 C 226.971 543.687, 225.076 532.104, 224.733 524 L 224.500 518.500 223.109 521.797 M 541 523.316 C 541 529.633, 538.860 538.157, 535.387 545.677 C 533.468 549.831, 532.124 553.458, 532.402 553.735 C 534.787 556.120, 550.727 542.687, 554.147 535.410 C 557.803 527.633, 556.117 525.824, 551.500 532.568 C 546.109 540.443, 543.200 543.824, 540.642 545.186 C 538.831 546.151, 538.681 546.107, 539.672 544.905 C 542.307 541.708, 544.894 525.492, 543.393 521.582 C 542.352 518.868, 541 519.848, 541 523.316 M 456.411 526.772 C 450.944 531.294, 449.600 534.793, 450.799 541.377 C 451.413 544.744, 452.197 550.984, 452.542 555.243 C 452.887 559.502, 453.650 563.284, 454.238 563.647 C 455.447 564.395, 454.554 547.264, 453.037 540.617 C 451.760 535.020, 455.654 527, 459.649 527 C 462.328 527, 465.973 541.213, 465.997 551.750 C 465.999 552.438, 466.724 553, 467.608 553 C 468.771 553, 469.066 552.377, 468.672 550.750 C 468.372 549.513, 467.628 544.801, 467.020 540.280 C 465.219 526.906, 461.687 522.408, 456.411 526.772 M 243.750 534.571 C 240.763 537.608, 246.018 567.039, 249.985 569.491 C 251.418 570.376, 251.245 567.521, 249.631 563.659 C 248.414 560.746, 245.437 544.257, 244.755 536.654 C 244.615 535.089, 244.162 534.151, 243.750 534.571 M 189.764 548 C 187.881 554.393, 190.065 587.273, 192.819 594 C 194.205 597.384, 194.059 585.601, 192.554 572.500 C 191.669 564.800, 190.845 555.575, 190.723 552 C 190.564 547.355, 190.290 546.214, 189.764 548 M 166.469 550.500 C 163.367 558.479, 159.358 566.169, 155.944 570.690 C 150.476 577.932, 152.707 577.371, 160.392 569.572 C 167.323 562.539, 169.676 556.995, 168.089 551.444 C 167.328 548.785, 167.171 548.694, 166.469 550.500 M 232.773 552.093 C 232.377 554.792, 235.040 564.377, 237.887 570.500 C 238.399 571.600, 240.207 575.586, 241.906 579.357 C 246.432 589.403, 254.307 601.974, 258.680 606.131 C 263.154 610.384, 274.859 618.616, 278.285 619.918 C 282.352 621.465, 283.688 619.570, 280.443 616.859 C 270.476 608.531, 269.260 606.986, 266.187 598.742 C 264.497 594.209, 262.831 588.700, 262.485 586.500 L 261.855 582.500 263.881 585 C 264.996 586.375, 267.296 591.169, 268.993 595.653 C 272.322 604.453, 278.773 613, 282.085 613 C 284.868 613, 284.503 611.869, 279.616 605.349 C 277.204 602.132, 273.893 596.800, 272.257 593.500 C 270.621 590.200, 266.969 583.098, 264.141 577.718 C 260.209 570.237, 259 566.900, 259 563.527 C 259 561.102, 258.598 558.870, 258.107 558.566 C 253.739 555.867, 257.741 597.074, 262.287 601.621 C 264.676 604.009, 262.435 603.835, 259.925 601.437 C 255.272 596.994, 245.827 580.623, 242.075 570.500 C 240.240 565.550, 237.898 559.612, 236.870 557.305 C 235.841 554.998, 235 552.437, 235 551.614 C 235 548.688, 233.216 549.072, 232.773 552.093 M 419 550.765 C 419 551.406, 419.773 554.083, 420.717 556.715 C 422.004 560.302, 422.442 564.819, 422.467 574.750 C 422.508 591.145, 423.420 592.196, 425.424 578.157 C 425.990 574.189, 424.161 560.998, 422.369 556.123 C 420.582 551.261, 419 548.746, 419 550.765 M 514.735 626.884 C 510.623 638.460, 514.913 648.177, 523.430 646.579 C 527.086 645.893, 531.350 641.883, 532.964 637.611 C 534.505 633.536, 533.659 633.360, 531.530 637.314 C 529.458 641.162, 524.327 645, 521.256 645 C 515.720 645, 513.299 634.896, 517 627.236 C 519.351 622.370, 519.403 622, 517.735 622 C 517.039 622, 515.689 624.198, 514.735 626.884 M 589.506 628.026 C 590.514 632.617, 592.022 634.836, 594.465 635.322 C 595.584 635.545, 594.813 635.789, 592.750 635.864 C 588.527 636.017, 587.523 638, 591.668 638 C 593.136 638, 597.298 637.499, 600.918 636.887 C 607.846 635.715, 611.329 634, 606.783 634 C 603.199 634, 596.180 630.864, 592.121 627.448 L 588.757 624.618 589.506 628.026 M 258.578 669.633 C 251.913 671.122, 247 673.397, 247 674.994 C 247 675.414, 248.350 676.317, 250 677 C 251.650 677.683, 253 678.638, 253 679.121 C 253 680.459, 251.386 680.170, 250.081 678.598 C 246.717 674.544, 241.917 675.903, 235.474 682.733 C 222.767 696.206, 224.581 723, 238.201 723 C 244.533 723, 245.107 721.942, 244.380 711.610 C 243.676 701.589, 244.995 693.326, 247.885 689.657 C 253.104 683.030, 257.958 679.392, 264.569 677.151 C 275.079 673.588, 280.379 670.979, 279.299 669.899 C 277.584 668.184, 265.745 668.031, 258.578 669.633 M 571.377 670.250 C 566.589 675.713, 566.588 675.721, 569.450 679.122 C 574.639 685.290, 579.501 697.096, 579.148 702.675 C 578.905 706.521, 580.181 707.439, 585.346 707.135 C 594.317 706.605, 600.498 698.037, 598.015 689.571 C 593.750 675.029, 577.511 663.251, 571.377 670.250 M 222.882 673.381 C 203.168 680.425, 195.765 701.933, 209 713.712 C 212.120 716.488, 214.478 716.584, 216.283 714.006 C 217.051 712.910, 217.959 712.292, 218.300 712.633 C 218.641 712.975, 218.647 709.372, 218.312 704.627 C 217.891 698.667, 218.042 696, 218.799 696 C 219.415 696, 220.035 698.303, 220.214 701.250 L 220.533 706.500 221.296 702.500 C 223.307 691.965, 226.970 684.015, 232.577 678.021 C 234.999 675.432, 236.685 673.018, 236.323 672.657 C 235.219 671.553, 226.716 672.011, 222.882 673.381 M 508.991 682.250 C 498.549 689.358, 495.977 700.093, 502.460 709.506 C 508.795 718.704, 516.076 723, 525.333 723 C 532.177 723, 534.842 721.005, 538.931 712.822 C 542.614 705.451, 542.912 699.708, 539.915 693.834 C 534.013 682.264, 517.859 676.213, 508.991 682.250" stroke="none" fill="#1b1f3a" fill-rule="evenodd"/>
</svg>