<svg xmlns="http://www.w3.org/2000/svg" viewBox="0 0 768 768" version="1.1" preserveAspectRatio="xMidYMid meet"><path d="M 522 38 C 515.3 41.5, 515 42.8, 515.3 70.1 L 515.5 94.5 511.3 103.1 C 506.7 112.6, 500.7 119.9, 492.1 126.4 C 482.8 133.4, 482.4 133.4, 487.6 126.5 C 492.2 120.3, 494 112.1, 491.9 106.1 C 490.6 102.5, 489.8 102.3, 486.2 104.9 C 480.8 108.7, 472.3 112.7, 465.5 114.8 C 457.3 117.3, 447 119.4, 446.4 118.7 C 446.1 118.5, 447.6 115.9, 449.6 112.9 C 458.8 99.2, 463.2 86.7, 463.3 74 C 463.4 63.7, 462.1 58.3, 458.9 55.4 C 456.6 53.3, 456.9 53, 448.2 63.9 C 445.4 67.3, 433.5 77.4, 418.6 88.8 C 414.7 91.8, 414.6 91.3, 417 83.9 C 420.9 72.2, 423.6 66.7, 428.2 60.9 C 432 56, 432 52.5, 428.3 53.5 C 415.2 56.7, 390.1 76.2, 384.5 87.5 C 383.4 89.7, 382.4 91.7, 382.3 91.9 C 382.2 92.1, 378.8 89, 374.8 85.1 C 366.8 77.2, 356.7 70.6, 342 63.8 C 324.7 55.7, 322.5 55.4, 320.2 60.2 C 318.7 63.5, 319.2 64.9, 325.7 72.8 C 333.1 81.8, 339.4 93, 342.3 101.7 C 345.1 110.1, 345 110.1, 337.3 109.4 C 324.6 108.3, 320.6 107.2, 312.3 102.5 C 304.6 98.1, 304 97.6, 304 94.6 C 304 92.8, 303.3 90.5, 302.5 89.4 C 301.1 87.5, 301 87.6, 299.1 89.9 C 294.5 95.9, 293.7 125.3, 298.1 130.6 C 304.8 138.8, 272.7 133.9, 258.8 124.7 C 242.1 113.6, 235.7 87.9, 244.1 66 C 248.4 55, 247.6 50.8, 240.8 48.8 C 225.9 44.3, 203.5 62.3, 195.1 85.7 C 184.1 116, 191.6 155.3, 212 174.4 C 214.8 177, 216.5 179.2, 215.7 179.4 C 215.1 179.7, 212.9 180.4, 211 181 C 209.1 181.7, 202.2 182.4, 195.7 182.7 C 189.2 183, 183.7 183.7, 183.4 184.2 C 182.5 185.5, 187.2 190.1, 191.7 192.5 C 201.3 197.4, 201.5 196.7, 188.3 203.2 C 170.4 212.2, 166.4 214.9, 161.5 221.2 C 159 224.4, 157 227.4, 157 227.9 C 157 228.4, 159.8 229.2, 163.3 229.7 L 169.5 230.5 164.5 233.4 C 161.8 235, 156.1 238.4, 152 241 C 147.9 243.6, 142.5 246.7, 140.1 247.9 C 136 250, 135.9 250.3, 137.4 251.8 C 139.4 253.8, 151.8 253.9, 157.7 251.9 C 163.5 250, 162.8 251.8, 154.5 259.3 C 137.1 275.2, 130.5 279.5, 119 281.9 C 108.2 284.2, 109.9 289.9, 122.5 293.5 C 126.1 294.6, 129 295.7, 129 296.1 C 129 296.5, 123.7 300.7, 117.3 305.4 C 101.7 316.8, 102 316.6, 102 317.8 C 102 318.9, 103.5 319.4, 108.3 320.2 C 109.5 320.4, 107.2 322.6, 101.1 326.8 C 85.3 338, 73.3 354.4, 64.1 377.4 C 57.6 393.7, 55.8 402.3, 55.4 419.5 C 55 438.1, 53.8 444.2, 47.9 455.7 C 45.2 461, 43 465.5, 43 465.6 C 43 467.1, 47.5 468, 50.6 467.1 C 54 466.2, 54.2 466.2, 53.6 468.3 C 47.7 488.7, 49.2 499.3, 60.1 513 C 64.9 519.1, 68.9 521.3, 73.3 520.5 C 76.1 519.9, 76.8 520.2, 77.7 522.3 C 81.2 529.9, 86.1 533.3, 99.9 537.9 C 118.4 544, 131.9 540.3, 130.6 529.4 C 130.1 525.6, 130.3 525.3, 132.3 525.2 C 135.9 525.2, 142 522.3, 145 519 L 147.9 515.9 149.1 522 C 149.7 525.3, 150.7 528.3, 151.1 528.6 C 153.1 529.8, 151.2 542.3, 148 549.5 C 145.2 555.8, 140.9 571.5, 141.3 573.7 C 141.6 575.5, 140.9 577.7, 138.9 580.8 C 134.1 588.5, 135.6 590.9, 142.2 586.1 C 144.5 584.4, 147.1 583, 148 583 C 153.3 583, 168.4 572.1, 170.2 566.9 C 172.1 561.7, 173 573.1, 171.5 582.3 C 170.6 588, 172.9 589, 175.5 584 C 177.3 580.6, 179 580.1, 179 582.9 C 179 583.9, 179.7 587.2, 180.6 590.1 C 182.2 595.2, 188.6 614.8, 189.8 618 C 190.1 618.8, 192.5 625.8, 195.1 633.5 C 200.5 649.7, 200.7 648.8, 190.4 654.1 C 181.6 658.6, 174.7 664, 173.6 667.3 C 172.3 670.9, 173.5 671.8, 176.3 669.3 C 179.1 666.6, 189 660.6, 189.5 661.2 C 189.8 661.4, 187.9 664.3, 185.5 667.6 C 174.3 682.3, 170.8 697.6, 176.3 708.3 L 178.7 713 170.4 713 C 165.9 713, 160.9 713.5, 159.3 714.2 C 156.7 715.3, 157.1 715.5, 165 716.2 C 169.7 716.7, 175.8 717.1, 178.5 717.1 C 183.3 717.1, 183.4 717.1, 181 718.5 C 176 721.3, 181.9 721.7, 195.7 719.4 C 199.2 718.9, 200.3 719.1, 203.4 721.5 C 207.6 724.7, 213.5 725.1, 219.6 722.5 L 223.4 721 226.9 724.4 C 233.4 730.5, 238.9 731.5, 248 728.3 C 252.6 726.7, 252.9 726.7, 257.8 728.8 C 264.9 731.9, 268.5 731.7, 272.2 727.9 C 275.2 725, 275.3 724.9, 278.5 726.4 C 286.4 730.2, 294.1 728.5, 308.4 719.6 C 314.1 716.2, 314.8 716, 323.9 715.9 C 344.4 715.6, 352.5 714.7, 352.5 712.5 C 352.5 710.4, 349.7 709.3, 343.7 709.1 C 339.6 709, 339.7 709.5, 342.1 700 C 344.8 689.6, 340.9 668.3, 333.2 650.5 C 331.5 646.7, 330.3 643.4, 330.4 643.3 C 330.6 643.1, 333.7 644, 337.4 645.1 C 345.5 647.6, 346.3 647.2, 342.1 642.5 C 338.9 638.8, 338.3 635.3, 340 628.5 C 340.7 625.3, 340.9 625.6, 343 632.4 C 346.4 643.2, 352 652, 355.6 652 C 356.2 652, 355.3 643.9, 354.3 641.4 C 353.4 639.1, 356.5 639.8, 359.1 642.6 C 361.4 645, 369 649.6, 369 648.5 C 369 648.3, 370.2 648.5, 371.6 649 L 374.1 650 373.4 642 C 373.1 637.6, 373 634, 373.3 634 C 374.5 634, 380 646.9, 380 649.8 C 380 651.6, 380.4 653, 380.9 653 C 383.5 653, 394 633.2, 394 628.3 C 394 625.1, 395.2 628, 396.6 634.2 C 397.3 637.7, 397.9 643, 398 646.1 C 398 655.4, 400 654.9, 409 643.5 C 416.6 633.9, 419.4 629.3, 422.5 621.9 C 423.9 618.4, 425.5 614.7, 426.1 613.6 C 427.5 611.2, 428.6 596.1, 427.3 597.5 C 426.8 598.1, 425.3 601.2, 424.1 604.5 C 420.2 614.9, 404.7 639.9, 406.7 632.5 C 407.7 628.8, 407.6 609.6, 406.7 605.7 C 405.5 601.3, 403.7 603, 403.6 608.6 C 403.1 626.1, 402.9 629, 402.2 629 C 401.6 629, 398.5 621.6, 396.6 615.7 C 395.9 613.6, 394 614.3, 394 616.6 C 394 617.4, 392.9 620.1, 391.6 622.6 C 390.3 625.1, 388.4 629.8, 387.4 633.1 C 386.4 636.3, 385.3 639, 384.9 639 C 382.6 639, 374 617, 374 611 C 374 602.8, 369.8 614.7, 368.4 626.8 C 367.8 632.9, 367.7 633, 366.1 630.8 C 364.9 629.1, 364.4 625.6, 364.2 617 C 363.7 598.4, 362.6 599.5, 360.4 620.7 C 359.7 628.5, 360.7 632.3, 365.5 640 C 369.3 646, 366.7 644.8, 362.7 638.8 C 357.8 631.4, 356.3 627.2, 355 617.9 C 352.8 602.3, 351 603.6, 350.9 620.8 L 350.9 633.5 347.9 622.5 C 346.2 616.5, 344.5 609.1, 344 606.2 C 342.8 598.6, 341 598.1, 339.4 605 C 339.1 606.4, 338.2 609.8, 337.5 612.5 C 335.5 620, 332.8 631.3, 332.7 632.7 C 332.6 635.1, 328.2 630.6, 325.1 625 C 320.3 616.1, 317.9 610.7, 316 604.5 C 312.7 594.1, 312.8 594.2, 312.2 596.5 C 312 597.5, 312.3 600.7, 312.8 603.5 C 316.8 622.2, 315.2 623.8, 307.7 608.8 C 301.7 596.7, 297.7 584, 295 568.6 C 294 562.6, 293.4 561.2, 292.4 562.2 C 291.7 563, 293.8 585.2, 295.6 595.9 C 297.3 606.1, 297.3 606, 295.7 606 C 294.5 606, 287 597, 287 595.5 C 287 595.1, 286.4 593.4, 285.6 591.7 C 284.8 589.9, 283.7 586.8, 283 584.8 C 281.6 580.3, 280 579, 280 582.3 C 280 585.1, 281.5 593.6, 282.6 596.5 C 283.2 598.2, 282.8 598, 280.4 595.8 C 274 589.8, 273 594.1, 279.1 601.3 C 281.4 603.9, 283.5 605.9, 283.7 605.6 C 284 605.3, 286.2 607.1, 288.5 609.6 C 290.8 612, 293.6 614.1, 294.6 614.1 C 295.7 614.2, 297.6 614.3, 298.9 614.4 C 301.9 614.5, 304.4 620.8, 303.6 626.3 C 302.9 630.5, 303.8 631, 306.5 628 C 308.4 625.9, 308.4 626, 313.2 630.7 C 317.9 635.3, 318.1 635.4, 318.7 633.2 C 319.4 630.3, 320.5 631.7, 322.1 637.5 C 323.1 641.1, 328.6 655.1, 331.2 660.7 C 333.6 665.7, 331.1 664.8, 326.9 659.2 C 320 649.6, 317.8 650.2, 324.3 660 C 330 668.6, 335 679.9, 335 684.2 C 335 686, 332.7 683.6, 329 677.8 C 326.9 674.6, 324.9 672.3, 324.6 672.8 C 323.9 674, 326.4 680.8, 329.6 686.6 C 334.5 695.2, 335 696.5, 335 698.9 C 335 701.1, 334.7 700.9, 332.2 697.4 C 327.7 691.3, 326 690.2, 326 693.4 C 326 697.4, 324.6 696.5, 322.1 691 C 319.7 685.6, 317.3 684.2, 318.4 688.8 C 320.3 696.6, 320.2 701.5, 318 705.2 C 315.6 709.4, 310.1 713, 306.3 713 C 304.7 713, 302 714.7, 298.8 717.5 C 292.6 723.1, 287.4 723.6, 278.5 719.4 C 270.2 715.4, 266.2 707.6, 267.7 698.3 C 268.4 694, 266.8 694, 265.2 698.3 C 263.1 704.1, 264.7 715.2, 268.2 719.7 C 269.7 721.5, 268.2 723, 265.1 723 C 262.8 723, 261.9 722.3, 260.6 719.3 C 259.7 717.2, 258.5 714.7, 257.9 713.7 C 257.4 712.8, 256.7 709.3, 256.3 706 C 255.4 697.3, 253.6 697, 254.2 705.6 C 254.6 710.3, 255.5 714, 257.3 717.3 C 260.1 722.6, 259.6 723.4, 255.9 719.3 C 251.8 714.6, 250.7 711.8, 250.3 705 C 249.7 695.6, 252.4 690.6, 260.3 686.6 L 266.1 683.7 270.2 685.8 C 274.9 688.1, 276.1 687.9, 275.3 685 C 274.6 682.5, 273.1 681.3, 270.2 680.8 C 268.4 680.6, 269.6 679.6, 275.6 676.6 C 286.7 671, 291.4 671.4, 304.3 679.4 C 310.2 683, 311.2 682.3, 306.8 677.4 C 300.5 670.4, 292.4 666.7, 279.5 664.9 C 269 663.4, 255.1 664.5, 248.7 667.2 C 244 669.2, 243.7 669.3, 238.6 667.7 C 232 665.6, 230.2 665.6, 223.2 667.6 C 207.3 672.2, 195 687, 195 701.6 L 195 708 191.8 708 C 190 708, 187.1 707.1, 185.3 706 C 172.5 698.3, 190.5 662.3, 206.7 663.3 C 211.1 663.5, 212.1 661.2, 208.3 659.5 C 203.7 657.5, 206.6 648.9, 214.2 641.8 L 219.2 637.1 217.3 634.3 C 216.2 632.8, 214.4 629, 213.1 626 C 211.9 623, 210.5 619.6, 210 618.5 C 209.5 617.4, 208.6 614.8, 208 612.8 C 206.5 607.7, 205.6 608, 206.4 613.3 C 207.2 618.2, 209.5 624.8, 212.7 630.8 C 215.6 636.3, 215.6 637.8, 212.3 641.2 C 208.5 645.2, 207.4 644.7, 205.9 638.8 C 205.3 635.9, 204 631.9, 203.2 630 C 202.2 627.7, 201.6 623.1, 201.6 616.5 C 201.5 610.6, 201.1 606.5, 200.5 606.5 C 199.9 606.5, 199.6 609.3, 199.8 613.5 L 200 620.5 198.3 617.5 C 192.8 607.7, 185.7 582.7, 184.1 567 C 180.8 536.4, 180.2 531.8, 179 530.7 C 178.1 529.7, 177.9 531.3, 178.4 538.5 C 180.1 564.1, 180.1 567.7, 178.6 564 C 177.9 562, 176.1 554.2, 174.6 546.5 C 173.1 538.8, 171.5 530.9, 171 529 C 168.6 520.2, 168.9 507.9, 171.8 489.3 C 172.4 485.4, 172.3 484, 171.5 484 C 170.8 484, 170 486.4, 169.6 489.8 C 169.3 492.9, 168.6 497.5, 168.2 500 L 167.4 504.5 166.6 497 C 166.1 492.9, 165.1 487.8, 164.2 485.6 C 162.7 481.7, 163.5 477.3, 168.2 464.8 C 170.1 459.7, 167.9 459.6, 164.8 464.6 C 160.3 471.9, 159.7 472.2, 160.5 466.6 C 160.9 463.3, 160.8 462, 160.1 462.5 C 158.6 463.3, 158.7 455.2, 160.1 449.4 C 161.4 444.3, 160.7 442.7, 158.4 445.6 C 157 447.4, 156.9 447.4, 157.6 445 C 157.9 443.6, 160 438.2, 162.1 432.9 C 164.3 427.7, 166 422.8, 166 422.2 C 166 419.7, 164.3 421.2, 162.1 425.5 C 158.2 433.3, 156.9 432.9, 160.1 424.8 C 163.3 416.8, 166.6 406.4, 168.4 398 C 169.4 393.9, 170.5 388.9, 171.1 386.9 C 172.3 382.1, 172.3 376, 171 376 C 170.5 376, 170 376.9, 170 377.9 C 170 381.4, 160.6 417.1, 158.9 420 C 157.5 422.5, 157.8 413.4, 159.5 404.5 C 161.1 396.1, 163.2 388.1, 165.6 381.6 C 168.7 373.4, 165.5 376.1, 159.3 387 C 155.5 393.6, 153.7 393.5, 155.9 386.7 C 156.4 385, 157.2 380.1, 157.5 376 C 160 345.4, 164.4 320.1, 168.3 315.2 C 168.8 314.5, 169 313.6, 168.5 313.2 C 167.3 312, 159.5 321.5, 157.8 326.2 C 156.9 328.5, 155.5 334.5, 154.6 339.4 C 153.7 344.3, 152.7 348.7, 152.4 349.1 C 152.2 349.6, 147.1 352.8, 141.2 356.4 C 135.3 360, 129.2 364, 127.5 365.4 C 122 370, 128.5 367.3, 140.7 359.9 C 146.9 356.1, 152.1 353.4, 152.4 353.8 C 153.3 355.3, 150 359.5, 144 364.4 C 138 369.2, 134.1 374.7, 137.6 373.3 C 138.3 373, 139 372.5, 139 372.1 C 139 371.4, 147.1 367, 148.4 367 C 149.6 367, 143.9 371.4, 138.6 374.7 C 136 376.4, 134.2 378, 134.8 378.4 C 136 379.1, 144.5 374.9, 147.5 372 C 150.9 368.8, 151.3 369.6, 150.7 376.9 C 150.2 382.9, 149.6 384.4, 145.5 390.3 C 136.8 402.9, 132.4 404.8, 126.9 398.9 C 123.9 395.7, 118 395, 114.8 397.4 C 112 399.5, 112.7 400, 118.3 399.9 C 124.1 399.7, 128 400.6, 128 402.1 C 128 405.8, 135.3 408.1, 141.8 406.4 C 145.7 405.3, 144.3 403.8, 140 404.5 C 137.8 404.9, 136 404.9, 136 404.6 C 136 403.6, 145.4 400, 145.9 400.8 C 146.2 401.3, 147.3 401.9, 148.3 402.3 C 151 403.3, 150.4 404.4, 144.3 409.5 C 135.6 416.6, 134.2 420.4, 142 415.5 C 147.3 412.2, 148.1 412.9, 144.3 417.7 C 140.3 422.8, 137.2 431.6, 138.8 433.2 C 139.7 434.1, 140 433.9, 140 432.3 C 140 429.8, 145.1 424, 147.3 424 C 149.4 424, 150.4 425.8, 149.1 427.4 C 148.4 428.3, 148.4 429, 149.2 429.8 C 150.1 430.7, 149.9 431, 148.5 431 C 146.6 431.1, 146.6 431.2, 148.7 432.9 C 150.3 434.3, 150.6 435, 149.7 435.9 C 148.9 436.7, 148.9 437, 149.9 437 C 150.9 437, 151 437.8, 150.5 439.8 C 150.1 441.3, 149.8 443.3, 149.8 444.3 C 149.9 445.7, 149.4 446, 148.2 445.5 C 140 442.4, 138.8 444.2, 144.3 451.7 C 153.6 464.2, 157.8 491.1, 151.4 497.4 C 148.8 500.1, 140.8 496.1, 137.9 490.8 C 137.4 489.8, 136.3 484.3, 135.5 478.4 C 132.7 458.6, 129.3 459.3, 130.4 479.4 C 131.3 493.5, 132.5 497, 138.6 502.6 C 144.1 507.7, 144.1 508.7, 138.5 513.9 C 134.6 517.4, 133.4 518, 129.5 518 C 124.6 518, 117 514, 117 511.3 C 117 510.5, 116.6 510.1, 116.1 510.4 C 114.5 511.4, 113 505.9, 113 499.3 C 113 495.6, 112.7 492.9, 112.4 493.3 C 112 493.6, 111.8 496, 111.8 498.6 C 112 507.3, 109.5 501.7, 109.2 492.7 C 108.8 482.2, 108.5 481.1, 106.2 483.3 C 103.9 485.7, 104 501.9, 106.4 507.2 C 108.4 511.9, 108.4 512, 105.9 512 C 103.1 512, 104.4 513.6, 107.8 514.3 C 110.9 514.9, 118.2 523.1, 116.2 523.8 C 114.2 524.5, 114.9 525.8, 117 525.3 C 118.1 525, 119 525.3, 119 525.9 C 119 526.4, 119.7 526.7, 120.5 526.4 C 122.5 525.6, 123.8 530.9, 121.9 532.1 C 121.1 532.6, 117.9 533, 114.8 533 C 107.4 533, 103.7 530.8, 100.5 524.5 C 92 507.7, 88.5 505.1, 95.9 521.2 C 99.3 528.4, 99.3 528.5, 94.6 527.6 C 85.9 526, 76.7 504.9, 78.7 491.3 C 79.3 487.7, 78.1 487, 76.3 489.9 C 75 492, 73.1 501.5, 72.7 508 C 72.5 513.1, 70.4 513.7, 66.5 509.9 C 64.4 507.8, 63 492.9, 64.6 489.2 C 65 488.3, 65.2 487.1, 65.1 486.6 C 64.8 485.3, 66.9 480.3, 70.2 474.8 C 71.7 472.1, 72.6 470, 72.1 470 C 69.4 470, 60.8 482.1, 59.2 488.1 C 58.8 489.9, 57.9 491.5, 57.2 491.8 C 55.5 492.3, 56.4 485, 58.2 483.9 C 59 483.4, 59 483, 58.4 483 C 55.6 483, 59.8 467.4, 66.1 454.3 C 72.1 441.7, 71.3 440.8, 62.7 450.5 C 54.1 460.1, 52.2 460.7, 55.9 452.8 C 60.7 442.4, 62 439, 62 437.2 C 62 436.2, 62.4 435, 62.9 434.5 C 64.2 433, 68 421.3, 68 418.7 C 68 417.4, 68.4 416, 68.9 415.5 C 70.2 414, 71.2 409, 70.2 409 C 68.8 409, 66.4 412.1, 63.6 417.4 C 61.5 421.4, 61 421.8, 61 419.8 C 61 413.6, 68.7 394.1, 74.6 385.4 C 78.3 379.9, 76.5 379.9, 71.3 385.3 C 67.1 389.8, 66.8 389.9, 67.4 387.3 C 70.2 375.7, 88 349.4, 98.9 340.7 C 100.9 339.1, 102.4 337.3, 102.3 336.6 C 101.7 334.1, 115.5 323.5, 129.3 315.7 C 132.1 314.1, 137 311.1, 140.2 308.9 C 147.3 304, 147.4 304.3, 140.9 311.7 C 130.4 323.7, 132.1 324, 145.6 312.5 C 151 307.9, 155.6 304.4, 155.8 304.9 C 156.1 305.7, 153.8 311.6, 150.9 317.5 C 149.5 320.4, 149.3 325.2, 150.6 325.7 C 153.2 326.6, 162.6 309, 164 300.5 C 165.6 291.1, 168 280.9, 169.1 278.8 C 170.9 275.4, 169.3 275.6, 162.8 279.7 C 156.7 283.5, 149.1 287, 146.9 287 C 146.3 287, 148 285, 150.7 282.5 C 153.8 279.7, 154.9 278.1, 153.9 278 C 153 278, 151.7 278.7, 151 279.5 C 150.3 280.3, 149.2 281, 148.6 281 C 146.9 281.1, 142.8 284.8, 143.4 285.8 C 144.1 286.9, 136.9 288, 129.4 288 C 122.6 288, 121.9 286.8, 127.8 285.1 C 139.1 281.9, 154.8 270.3, 169 254.7 C 176.5 246.4, 180.8 242.7, 189.8 236.9 C 204.8 227.1, 204.6 227.3, 203.9 226.6 C 203.3 225.9, 196.8 229.2, 183 237.1 C 177.2 240.4, 171.3 242.7, 164.6 244.5 C 156.2 246.6, 152.3 247.1, 154.1 245.7 C 155.7 244.3, 175.1 233, 175.8 233 C 176.2 233, 178.2 231.9, 180.1 230.5 C 182 229.1, 186 226.7, 189 225.3 C 196.2 221.9, 205.4 216, 204.6 215.3 C 204.1 214.7, 193.6 218.3, 189 220.7 C 184.2 223.2, 183.6 222, 187.5 218 C 191.8 213.6, 191.7 213.3, 186.2 215.6 C 181.1 217.7, 170.7 221, 170.2 220.6 C 169.5 219.8, 176.7 215.2, 182 213.1 C 185 211.8, 191.6 208.9, 196.5 206.5 C 201.5 204.2, 207 201.7, 208.8 201 C 214.9 198.6, 211.9 197, 205.1 199 C 199.4 200.6, 200.3 199.2, 207.1 196 C 210.6 194.4, 215.1 193, 217 193 C 220.4 193, 227.8 189.5, 226.7 188.4 C 226.4 188.1, 224.5 188.3, 222.3 188.9 C 215.4 190.9, 202.9 191.3, 198.5 189.7 L 194.6 188.3 203.1 187.7 C 207.7 187.4, 212.9 186.6, 214.5 185.9 C 216.4 185.1, 224.1 184.6, 236 184.6 C 256.9 184.4, 257.8 184.2, 275.3 176 C 283.1 172.3, 293.2 163.5, 296 157.9 C 298.6 152.9, 299.6 146.4, 298.1 144.6 C 296.1 142.2, 300.5 140, 307.2 140 C 314.5 140, 314.8 139.3, 309.5 133.7 C 304 127.9, 302 121.2, 301.9 108.9 C 301.8 98.2, 302 97.7, 305.3 102.5 C 308.4 107, 313.8 111, 321 113.9 C 324 115.1, 330 117.9, 334.4 120.1 C 346.5 126.1, 348.8 124.7, 337.6 118 L 332.5 114.9 337.5 115.5 C 343.8 116.4, 347.8 118.4, 349.2 121.6 C 350.2 123.8, 359.7 134, 360.7 134 C 361.1 134, 357.8 128.7, 356.9 128 C 355.1 126.5, 353.2 120.7, 352.6 114.5 C 352.1 107.9, 346.1 90.3, 341.5 81.2 C 340.6 79.4, 340 77.7, 340.1 77.5 C 341.7 76.1, 363.2 93.2, 367.3 99.1 C 370 102.9, 370.3 100.5, 367.7 96.3 C 362.8 88.8, 352.7 80.8, 340.9 75.2 C 336.4 73, 330.6 68, 332.7 68 C 334.8 68, 356.7 79.7, 362 83.6 C 368.2 88.2, 374.1 94.1, 379.5 101.3 C 384 107.3, 384.3 107.2, 386.3 100.3 C 389 90.5, 396.4 80.7, 407.2 72.3 C 414.2 66.9, 414.4 67.3, 408.3 74.9 C 405.6 78.2, 402.2 83.5, 400.6 86.7 C 399 89.9, 397.3 93.3, 396.9 94.2 C 395.8 96.4, 395.8 98, 396.8 98 C 397.2 98, 398.3 96.3, 399.2 94.2 C 401.5 88.9, 411 73.2, 411 74.8 C 411 75.5, 410.4 79.3, 409.6 83.3 C 408.8 87.3, 407.9 92.8, 407.5 95.5 C 407.2 98.3, 406.4 101.7, 405.8 103.2 C 405.3 104.7, 405 106.7, 405.4 107.6 C 406.2 109.7, 409.5 107.3, 418.1 98.4 C 421.6 94.8, 429.8 87.8, 436.2 82.8 C 442.7 77.9, 449.5 72, 451.4 69.8 L 454.8 65.7 454.8 73.1 C 454.9 81.4, 453.1 87.8, 447.7 98.9 C 446.2 102, 436.1 113.7, 427.6 122.3 C 420.6 129.4, 420 131, 424.7 129.2 C 429.1 127.5, 441.8 125.2, 450.2 124.5 C 458.7 123.9, 473.8 119.4, 480.8 115.5 C 486.4 112.4, 486.4 112.4, 485.7 116 C 484.4 122.4, 474 135.1, 466.4 139.6 C 464.2 140.9, 459.3 143.1, 455.6 144.3 C 441.7 149.2, 453.4 149.4, 470 144.5 C 487.9 139.3, 496.1 134.4, 509 120.8 C 515.3 114.2, 523 99.2, 523 93.4 C 523 91.9, 523.9 91.8, 532.3 92.5 C 537.3 92.9, 545.8 93.5, 551 93.9 L 560.5 94.5 560.8 99.8 C 561 103.8, 560.7 105.2, 559.5 105.6 C 558.2 106.2, 544.8 105.1, 531.5 103.4 L 527.5 102.9 530.8 104.4 C 534.5 106.1, 547.6 108, 555.7 108 L 561 108 561 111.5 C 561 113.9, 560.5 115.3, 559.3 115.7 C 557.5 116.4, 537.5 113.3, 534.8 111.9 C 533.9 111.4, 532.9 111.4, 532.6 111.8 C 531.5 113.7, 547.1 118, 554.9 118 L 560 118 560 122.6 C 560 131.3, 558 132.3, 546.6 129.5 C 537.8 127.2, 531.7 124.5, 522.4 118.4 C 512.6 111.9, 514.6 114.9, 525 122.2 C 534.4 128.8, 541.6 131.6, 553.3 133.5 C 557.3 134.1, 558.1 136, 555.5 139.4 C 554 141.4, 547.1 141.2, 541.2 138.8 C 535.3 136.5, 528.5 133.5, 527.5 132.7 C 524.2 130.2, 514.3 123.3, 513 122.5 C 511 121.4, 514.5 125.6, 519 129.7 C 523.3 133.7, 539 141.6, 544.5 142.6 C 546.7 143, 549.5 143.7, 550.8 144.1 L 553.1 145 550.9 148.3 C 549.7 150, 548.6 151.6, 548.4 151.8 C 548.3 152, 544.6 151.2, 540.1 150 C 526.7 146.6, 518.5 142.2, 509.3 133.6 C 507.5 132, 505.7 131, 505.3 131.4 C 503.8 133, 517.6 144.5, 525.7 148.4 C 530 150.5, 534.3 152.6, 535.2 153.1 C 536.1 153.6, 538.7 154.3, 541 154.6 C 545.6 155.4, 545.8 155.9, 542.7 158.9 C 540.4 161, 540.2 161, 534.4 159.5 C 523.1 156.6, 514.1 151.5, 503.8 142.1 C 500.7 139.3, 497.9 137, 497.6 137 C 496.2 137, 497.3 138.8, 501.8 143.7 C 510.1 152.7, 518.8 158.1, 534.5 164 C 536.3 164.6, 536.2 164.8, 533.5 166.2 C 528.6 168.7, 524.9 167.9, 511.6 161.4 C 500.4 156, 491 146.1, 491 139.8 C 491 138.7, 490.6 138.2, 490 138.5 C 488.1 139.7, 489 144.7, 492.1 149.3 C 496 155.2, 504.3 161.8, 514.5 167.1 L 522.5 171.3 517.3 170.7 C 506.2 169.4, 489.5 158.9, 483.3 149.3 C 479.2 142.8, 477.7 143.7, 481 150.6 C 484.2 157.2, 491.6 164, 500.6 168.8 C 509.3 173.3, 509.4 173.9, 501 171.2 C 489.7 167.6, 483.9 163.3, 476.8 153.3 C 475 150.9, 473.4 149.3, 473.2 149.9 C 472.5 151.9, 477.2 158.5, 484.4 165.5 C 494.6 175.4, 497.8 176.5, 519 176.6 C 528.1 176.7, 537.3 177.2, 539.5 177.8 C 541.7 178.4, 545.1 179, 547 179 C 552.1 179.1, 548.4 181, 541.6 181.9 C 534.5 182.7, 534.4 184.9, 541.2 189.3 C 549.1 194.4, 554.7 199.3, 562.3 207.8 C 573.6 220.6, 573 220.6, 549 207.9 C 534.8 200.5, 531.5 200.8, 543.8 208.5 C 551.4 213.3, 578 238.6, 578 241.1 C 578 242.9, 564.2 234, 557.1 227.5 L 552.6 223.5 555.1 227.8 C 556.4 230.2, 560.6 235.6, 564.5 239.8 C 577.4 254, 582.2 260, 580.6 260 C 578.1 260, 578.7 262.5, 582.8 269.8 C 587.3 277.8, 589.9 284.5, 590.4 289.1 C 590.6 291, 592 295.4, 593.4 299 C 595.8 304.8, 597.9 311.9, 602.6 330 C 603.4 333, 604.2 341.8, 604.6 349.5 C 605.1 362.7, 605 363.3, 603.6 360.1 C 602.7 358.3, 602 356.1, 602 355.2 C 602 354, 601.7 353.9, 600.8 354.8 C 600 355.6, 600 356.3, 600.7 357.2 C 601.3 357.9, 602 359.9, 602.3 361.5 C 602.6 363.2, 603.2 365.3, 603.5 366.3 C 603.9 367.2, 603.8 368, 603.3 368 C 601.9 368, 599.3 362, 598 355.5 C 596.1 345.8, 595.7 345, 595 349.3 C 594.3 353.2, 596.4 382.1, 597.6 384.9 C 598.6 387.5, 605.9 415.4, 605.6 415.8 C 605.2 416.1, 599.7 410.1, 596.2 405.5 C 594.3 403.1, 593.7 402.9, 593 404 C 591.6 406.2, 590.7 415.7, 591.5 419.3 C 591.8 421.1, 592.4 431.4, 592.6 442.2 C 592.9 453, 593.4 464.8, 593.9 468.5 C 594.6 474.7, 593.9 477.9, 592.6 474.5 C 591.5 471.5, 579.7 454, 578.9 454 C 578.4 454, 578 458.5, 578 464 C 578 474.9, 575.7 490.7, 573.4 495.7 C 572.7 497.4, 572 499.4, 571.9 500.2 C 571.9 500.9, 571 498.6, 570.1 495.1 C 567.5 485, 566.5 486.6, 566.5 500.8 C 566.4 514.1, 566.1 515.4, 560.9 526.5 C 555.3 538.5, 554.1 544, 557.4 544 C 559.9 544, 570.1 518.5, 571.5 508.8 C 571.9 505.6, 572.7 503.9, 573.9 503.5 C 577.6 502.4, 580 495.6, 581.7 481.9 L 583.4 468.7 585.2 474.6 C 586.2 477.9, 587.7 482.5, 588.5 485 C 590.4 490.7, 590.7 558.7, 588.9 562.2 C 588.3 563.3, 587.4 569.5, 587 575.9 C 586.5 582.3, 585.7 590, 585.2 593 C 584.6 596, 583.9 606.3, 583.5 615.8 C 582.6 636.1, 580.8 639, 580 621.4 C 579.6 612.7, 579.2 610.5, 578 610.5 C 577.2 610.5, 576.1 611.9, 575.6 613.5 C 575.1 615.2, 574.4 617.4, 574 618.5 C 572.1 623.2, 572.1 624, 573.5 624 C 574.5 624, 575 623, 575 621 C 575 615.5, 576.9 617.9, 577.2 623.8 C 577.6 631.6, 575.8 638.2, 572 643 C 568 648.1, 568.8 649.1, 573.9 645.5 L 577.9 642.8 584 648.1 C 589.8 653.2, 591 655.5, 589.1 657.6 C 588.6 658.1, 587.9 659.6, 587.5 661 C 586.7 663.4, 586.9 663.3, 590.4 660.2 L 594.1 657 597.3 658.7 C 609.3 665.5, 617.1 681.9, 614.6 695.2 C 613.8 699.4, 609.6 704, 606.5 704 C 604.2 704, 604.1 703.9, 605.4 700.4 C 608.5 691.2, 600.2 675.6, 586.9 666 C 578.9 660.2, 569 662.8, 565.8 671.5 C 564.4 675.4, 564 675.6, 560.1 673.6 C 554.9 670.8, 547.8 670.5, 545 672.9 C 542.9 674.7, 542.7 675.1, 544 676 C 545.2 676.8, 545.7 676.4, 546.4 674.5 C 547.6 671.3, 547.5 671.3, 555 675.7 C 566.7 682.7, 571.4 691.7, 569.5 703.7 L 568.7 708.5 567 699.7 C 565.2 690, 562.2 684.5, 563.7 693.5 C 564.9 701.2, 564.6 714.6, 563.1 716.4 C 561.3 718.5, 556.4 718.4, 551.3 716.1 L 547.2 714.2 547.7 704.8 C 548.2 696.5, 548 695, 546 691.1 C 543.5 686, 534.8 677, 532.5 677 C 529.7 677, 531 675.2, 536.7 671.4 C 543.3 667, 551.7 666.2, 557.8 669.4 C 562 671.6, 562.4 669.2, 558.4 665.5 C 551.8 659.4, 539.3 661.3, 529.9 669.8 C 526.1 673.1, 525.4 673.4, 519.2 673.4 C 507 673.6, 496.6 682.3, 493.5 695 C 491.9 701.6, 491.9 703.4, 493.5 708.6 C 495.5 715.1, 470 711.1, 463.4 703.8 C 459.7 699.9, 459.1 688.2, 462.4 684.7 C 463.7 683.3, 468.3 677.1, 469.4 675.3 C 471.1 672.3, 468.1 674.3, 465.6 677.8 L 462.8 681.5 463.5 677 C 464.3 672.4, 467.2 665.6, 469 664.5 C 470.5 663.6, 470.2 662, 468.6 662 C 467.2 662, 463.1 669.6, 461.5 675 C 461.1 676.4, 458.9 681.1, 456.6 685.5 C 450.6 697.1, 450.3 690.7, 456.2 677.2 C 458.6 671.7, 458 669.6, 455.4 674.1 C 452.4 679.2, 449.8 687.8, 450.2 691.8 C 450.4 694.1, 450 695.5, 449.1 695.8 C 447.1 696.5, 448.2 684.4, 451.3 671.5 C 452.7 666, 455 656.5, 456.4 650.4 C 457.8 644.3, 459.9 636.7, 461 633.5 C 462.1 630.3, 463 627, 463 626.2 C 463 623.6, 466.3 617.8, 467 619 C 467.5 619.8, 468.5 619.1, 470 617 C 473.7 611.8, 473.3 614.2, 468.9 622.8 C 466.7 627.3, 465 631.7, 465.2 632.7 C 465.5 634, 466.2 633.4, 467.8 630.3 C 469 628, 471.4 624.5, 473.1 622.5 C 474.9 620.5, 476 618.6, 475.6 618.2 C 475.2 617.9, 474.4 618.2, 473.9 619 C 472.7 620.7, 473 619.9, 475.3 614.9 C 476.2 612.9, 478.9 609.3, 481.2 606.9 C 486.7 601.4, 491.6 595.2, 498 585.9 C 500.7 581.9, 503 579.1, 503 579.8 C 503 580.4, 502.6 581.1, 502.2 581.4 C 500.9 582.2, 496.8 596.7, 497.2 598.7 C 497.5 600.1, 497.9 599.9, 499 597.6 C 499.8 596, 501.4 594.2, 502.5 593.6 C 512 588.4, 520.9 577.8, 524.7 567.3 C 528 558.1, 526.5 532.3, 522.8 534.6 C 522.2 535, 522 537.5, 522.3 540.5 C 523.6 553.5, 518.7 569.4, 510.5 578.8 C 505.8 584.2, 505.2 583.7, 508.6 577.5 C 513.3 568.6, 517.4 550.4, 514.3 552.3 C 513.7 552.7, 513 555.4, 512.6 558.3 C 512.1 563.4, 511.2 565.9, 507.2 575.3 C 505.3 579.8, 503.6 578.8, 505 574 C 506.1 570.1, 506.3 562, 505.4 559.6 C 504.4 556.9, 503 557.8, 503 561.1 C 503 562.8, 501.9 566.3, 500.6 568.9 C 497.2 575.2, 494 582.7, 494 584 C 494 585.9, 487.4 595.5, 483.6 599.2 C 481.6 601.1, 480 603.2, 480 603.9 C 480 604.5, 479.6 605, 479 605 C 478.5 605, 478 605.5, 478 606.1 C 478 606.7, 476.9 608.5, 475.5 610.2 C 474.1 611.8, 473 612.6, 473 611.9 C 473 611.1, 472.3 611.4, 471 612.5 C 468.1 615.1, 468.5 613, 471.5 610 C 472.9 608.6, 475.7 605, 477.7 602 C 479.7 599, 482.6 595, 484.2 593.2 C 490.4 586, 497.5 565, 495 561 C 494.3 559.9, 491 565.6, 491 568 C 491 568.7, 489.2 572.9, 486.9 577.3 C 480.1 590.8, 479.4 591, 479.1 579.3 C 479 572, 477.6 573.4, 476.1 582.3 C 474.6 590.8, 471.6 599.2, 469.1 601.4 C 467.2 603.1, 467.2 603, 468.6 599.3 C 470.1 595.1, 470.5 588, 469.2 589.6 C 468.7 590.1, 467.6 592.5, 466.7 595 C 463.7 603, 442.8 625.1, 440.4 622.7 C 440 622.4, 440.9 619.1, 442.3 615.4 C 445.9 606.1, 448.7 591.3, 447.2 589.8 C 446.3 588.9, 446 589.1, 446 590.7 C 446 591.8, 444.6 596.1, 442.9 600.1 C 441.2 604.2, 439.1 609.3, 438.3 611.5 C 436.5 616.4, 433.6 620.3, 424.3 630.3 C 420.2 634.6, 417.2 638.5, 417.5 639.1 C 419 641.4, 422.6 639.6, 428.3 633.8 C 432.4 629.6, 434.2 628.3, 433.8 629.8 C 432.7 633.7, 437.8 632.5, 447.4 626.5 L 456.2 621 455.5 625.2 C 455.1 627.6, 454.4 630, 454 630.5 C 453.5 631.1, 452.9 633.8, 452.5 636.5 C 451.6 642.4, 449.6 650.6, 444.4 668.5 C 440.6 681.9, 439.4 694.9, 441.4 701.3 L 442.2 704 434.4 704 C 425.1 704, 419 704.9, 419 706.2 C 419 706.7, 426.3 707, 437 706.8 C 454.8 706.5, 458.6 707.2, 450.9 709.5 C 442.9 711.9, 443.9 714.3, 452.5 713.4 C 456.5 712.9, 458.6 713.3, 463.2 715.4 C 470.9 718.8, 480.6 720.4, 490.8 719.7 L 499.4 719.2 504.4 723 C 516.4 732.1, 532.1 732.5, 540 723.9 L 542.7 720.9 547.9 723 C 558.1 727, 567 725.1, 572 717.7 L 574.2 714.5 584.4 714.3 C 589.9 714.2, 598 714.1, 602.4 714.1 C 608.2 714, 611.4 713.4, 614.9 711.8 C 618.7 710, 621.8 709.6, 633.3 709.2 C 640.8 709, 647 708.5, 647 708.1 C 647 707.1, 632.2 705, 625.8 705 C 623.2 705, 620.8 704.5, 620.4 703.8 C 619.5 702.3, 642.2 703.5, 651.7 705.5 C 657.9 706.8, 660.1 706.8, 658.8 705.5 C 657.8 704.5, 647.5 702.2, 641 701.5 C 637.4 701.2, 631.8 700.4, 628.5 699.9 L 622.5 698.9 622.5 688.7 C 622.5 679.6, 622.2 677.9, 619.7 672.9 C 614.9 663, 606.1 654.2, 595.5 648.7 L 591.5 646.6 600.5 644.8 C 609.1 643.1, 611.7 642.3, 618.5 639.4 C 630.8 634.2, 631 634.1, 631 631.9 C 631 629.8, 630.7 629.7, 624 630.4 C 613.7 631.3, 604.9 629.6, 598.3 625.4 C 590.4 620.4, 589.5 617.8, 591 603.1 C 591.6 596.7, 592.4 587.1, 592.7 581.6 C 593.2 572.7, 593.4 572, 594.6 574.1 C 595.3 575.4, 595.9 577.6, 596 578.9 C 596 580.8, 596.3 581, 597.4 580.1 C 599.5 578.3, 601 568.9, 600.3 561.1 C 599.7 553.6, 600 553.2, 604 555.5 C 605.4 556.3, 607.9 556.9, 609.7 557 C 611.7 557, 614.7 558.3, 617.6 560.3 L 622.2 563.5 635.3 563.2 C 650.9 562.9, 657.8 560.4, 664.8 552.4 C 668.6 548.2, 674 538.6, 674 536.2 C 674 535.5, 674.4 535, 674.8 535 C 676.3 535, 678.9 529.4, 680.4 522.7 C 682.8 512.5, 682.5 501.7, 679.6 492.9 C 677.4 486.2, 677.4 485.4, 678.7 483.3 C 680.3 480.8, 679.9 472.8, 678.1 470.6 C 677.6 470, 675.6 464.6, 673.6 458.6 C 671.6 452.6, 668.3 444.7, 666.2 441.1 C 664.2 437.5, 662.4 434.2, 662.2 433.9 C 662 433.5, 663.1 433, 664.5 432.6 C 668.9 431.5, 666.8 426.7, 657.6 416.5 L 653.1 411.5 659.8 410.4 C 671.7 408.4, 679 402.6, 679 395 C 679 393.4, 679.7 393, 682.3 393 C 693.9 392.9, 705.4 379.4, 706.7 364.2 C 707 360, 707.8 357.1, 708.8 356.3 C 710.7 354.8, 709.9 342.2, 707.1 331.3 L 705.3 324.1 707.4 324.3 C 710.5 324.6, 709.9 321.1, 704.8 309 C 703.7 306.5, 702.5 303.6, 702.1 302.5 C 691.5 277.3, 677.8 259.2, 660.4 247.5 C 652.2 242, 634.4 233, 631.7 233 C 631 233, 630 232.6, 629.5 232.1 C 628.9 231.7, 626.7 230.8, 624.5 230.2 C 622.3 229.7, 613.3 227.3, 604.5 225.1 C 584.6 219.9, 581.6 218.5, 576 211.9 C 573.5 208.9, 568.7 203.5, 565.2 199.8 C 558.4 192.6, 558.3 192.8, 566.7 191.5 C 568.9 191.1, 571.6 190.2, 572.7 189.5 C 574.3 188.2, 573.2 188.1, 564 188 C 548.8 187.8, 548.2 187.2, 558.2 182.5 C 570.6 176.6, 585.2 161.4, 583.3 156.3 C 582.5 154.2, 581 154.7, 576.7 158.6 C 570.2 164.5, 563.3 167, 553.7 167 C 545.8 166.9, 545.6 166.9, 547.5 165.2 C 560.6 154, 568.5 132.3, 568.5 107.5 C 568.4 74.8, 555.6 48.1, 535.4 38.5 C 529.2 35.5, 526.7 35.4, 522 38 M 525.3 46.6 C 522.8 49.1, 522.7 49.4, 523.4 58.3 C 523.7 63.3, 524.2 67.6, 524.5 67.9 C 524.8 68.2, 527.1 67.9, 529.5 67.2 C 532 66.5, 536.8 66, 540.3 65.9 C 550.1 65.8, 550.6 65.3, 547.1 60 C 543.2 53.9, 536.3 47.4, 531.7 45.5 C 528 44, 527.9 44, 525.3 46.6 M 226.6 58.5 C 220.9 61.2, 212 69.6, 207.9 75.9 C 204.2 81.6, 204.3 82, 208.3 81 C 210 80.6, 213.5 79.9, 216 79.5 C 222.7 78.6, 219.7 80.8, 211.9 82.6 C 203.4 84.5, 203.1 84.8, 201.4 91.5 C 199.6 98.3, 199.9 98.8, 204.4 96.6 C 206.3 95.7, 208.5 95, 209.3 95 C 210.2 95, 211.2 94.6, 211.5 94 C 212.2 92.8, 215 92.6, 215 93.8 C 215 94.5, 207.7 98, 206.1 98 C 203 98, 199.2 101.3, 198.1 105 C 196.4 110.9, 197.8 111.8, 204.5 109 C 207.7 107.7, 219.6 104, 220.5 104 C 222.3 104, 217.4 106.7, 212.5 108.5 C 209.8 109.4, 206.6 110.6, 205.5 111 C 204.4 111.4, 202 112.4, 200.2 113 C 197 114.2, 196.9 114.4, 197.2 119.4 C 197.4 123.3, 197.8 124.4, 199 124.1 C 199.8 123.9, 202.2 123.3, 204.4 122.8 C 206.5 122.3, 213 119.7, 218.8 117 C 230.2 111.6, 233.8 110.6, 227.5 114.6 C 222.5 117.7, 214.6 121.5, 205.5 125.1 C 197.9 128, 198.1 127.7, 199.5 135.8 C 200.2 139.5, 200.6 139.5, 209 135.8 C 219 131.3, 237.8 121.3, 241.8 118.4 C 242 118.3, 241.2 116.9, 240.1 115.3 C 232 104.3, 229.9 81.9, 235.3 65.5 C 236.8 61.1, 238 57.2, 238 56.8 C 238 55.2, 231.3 56.2, 226.6 58.5 M 527 68.9 C 524.1 69.7, 522.7 77.3, 525.2 78.2 C 527 78.8, 550.3 77.4, 553 76.5 C 555.3 75.8, 555.2 72.1, 552.8 69.3 C 551.7 67.9, 531.6 67.6, 527 68.9 M 451.1 78.3 C 444.8 93.5, 436.7 103.4, 419 117.5 C 408.4 126, 407.8 126.6, 411.6 124.7 C 416.7 122.1, 432.3 109.6, 437.3 104.1 C 443.1 97.5, 450.5 85.4, 452 79.9 C 453.4 74.9, 452.9 74, 451.1 78.3 M 554.7 78.6 C 554.4 79, 547.4 79.5, 539.3 79.9 L 524.5 80.5 524.2 85.1 L 523.9 89.7 531.7 90.4 C 561.3 92.8, 560.6 92.9, 558.3 84.8 C 556.7 79.2, 555.8 77.6, 554.7 78.6 M 239.8 122.1 C 238.3 123.2, 229.9 127.8, 221.2 132.3 C 199.4 143.6, 201.4 142.1, 202.8 146.8 C 204.6 152.8, 206 153.5, 211.4 151.1 C 219.4 147.4, 220.4 149.2, 212.5 153.1 C 207.5 155.6, 207.2 156.5, 209.9 159.8 C 212.7 163.1, 214.7 162.6, 226 155.1 C 234.9 149.3, 238.6 145.8, 245.3 137 C 247.6 134, 249.8 131.4, 250.3 131.2 C 252 130.4, 250.7 127.1, 247.2 123.7 C 242.8 119.4, 243.3 119.5, 239.8 122.1 M 470.5 123.4 C 467.2 125.1, 464.3 126.7, 464 127 C 462.7 128.4, 448.6 135, 447 135 C 445.9 135, 444.8 135.5, 444.5 136 C 444.2 136.6, 442.9 137, 441.7 137 C 440.1 137, 439.9 137.3, 440.9 137.9 C 441.6 138.4, 443.4 138.4, 444.9 137.9 C 446.3 137.4, 450.3 136.2, 453.8 135.3 C 457.2 134.3, 460 133.2, 460 132.8 C 460 132.4, 461.2 132, 462.8 131.9 C 464.9 131.9, 465.1 131.7, 463.7 131.1 C 462.1 130.5, 462.4 130.1, 465.7 128.5 C 467.8 127.4, 469.9 126.1, 470.3 125.5 C 470.8 124.9, 471 125.2, 470.6 126.3 C 469.7 129, 471.3 128.3, 474.3 124.4 C 478.1 119.8, 477.7 119.7, 470.5 123.4 M 381.6 125.2 C 374.8 134.9, 392 145.8, 400.4 137.1 C 403.4 134, 404.5 128.1, 402.3 127.3 C 401.4 127, 401 127.9, 401 129.8 C 401 134.7, 396.7 138.4, 391.8 137.7 C 384.9 136.8, 380.2 129.2, 384.1 125.3 C 384.8 124.6, 384.8 124, 384.2 123.6 C 383.6 123.3, 382.4 124, 381.6 125.2 M 248.5 136.7 C 240.8 146.7, 229.5 156.6, 216.3 164.6 C 214.6 165.7, 214.6 165.9, 217 167.8 L 219.5 169.8 228.8 164.8 C 234 162.1, 238.4 160, 238.6 160.3 C 239.2 160.9, 233.7 164.9, 227.8 168.4 C 222.2 171.7, 222 172.4, 226.1 174.9 C 229.6 177.1, 230 177, 238.3 172.2 C 246.5 167.4, 247.3 168.7, 239.3 174 L 232.6 178.4 235.6 179.3 C 247.2 182.7, 272.2 176, 285.8 165.8 C 297.1 157.4, 301.3 142, 292.3 142 C 287.3 142, 273.1 139, 269.7 137.3 C 268.1 136.5, 266.7 136, 266.6 136.2 C 262.9 142.5, 258.1 148.7, 254 152.8 C 247.4 159.4, 246.2 159, 252.5 152.4 C 255.1 149.7, 259 144.9, 261.1 141.8 L 265.1 136 260.3 133 C 254.1 129.1, 254.3 129.1, 248.5 136.7 M 372.5 150.5 C 372 150.7, 365.2 151.4, 357.5 152 C 344.8 152.9, 340.6 153.7, 324.3 158.3 C 307.4 163.1, 289.6 176.3, 287 186 C 285.1 193.1, 287.7 194.7, 295.2 190.9 C 305.5 185.6, 309.7 184.8, 324 185.1 C 351.8 185.8, 355.2 185.6, 359.5 183.4 C 367 179.5, 367.5 170, 360.6 165.4 C 357.5 163.4, 356.1 164.3, 357.8 167 C 361.7 173.2, 355.7 175.1, 346.3 170.6 C 339.6 167.3, 332.9 166, 334.8 168.3 C 335.5 169.1, 338.1 170.7, 340.6 171.7 C 343 172.7, 345 173.9, 345 174.3 C 345 175.3, 342.4 174.9, 329.2 171.8 C 321.3 169.9, 319.1 169.8, 313.7 170.7 C 306.2 171.9, 305.9 171.8, 310.3 169.3 C 325.5 160.3, 345.1 156.2, 377.2 155.3 C 399.4 154.7, 411.5 156.2, 419.9 160.5 C 422.4 161.8, 427.7 163.9, 431.5 165 C 435.4 166.2, 439.4 167.5, 440.5 168 C 441.6 168.5, 444.8 169.8, 447.5 171 C 455.1 174.3, 463.1 178.3, 463.6 179.2 C 464.6 180.8, 467 180, 467 178.1 C 467 173.3, 446.2 160.8, 432.7 157.5 C 410 152, 378.5 148.3, 372.5 150.5 M 417 176.9 C 411 178.1, 404.1 182, 401.3 185.6 C 398.4 189.4, 399.2 192, 402.6 190.2 C 403.7 189.7, 407 189, 410 188.7 C 413 188.4, 414.8 188.3, 414 188.6 C 397.3 194.4, 384.7 207.8, 379.1 225.5 C 365.8 268.4, 400.9 309, 440.5 296.3 C 470.2 286.8, 485.7 253.6, 474.1 224.5 C 472.7 221.1, 468.2 211.7, 466.1 208 C 465 206.1, 463 201.9, 461.6 198.8 C 454.7 183, 434.5 173.1, 417 176.9 M 416.5 181.7 C 415.4 182, 413.6 182.9, 412.5 183.7 C 410.6 185.2, 410.6 185.2, 413 184.5 C 422.3 181.9, 434.6 183.6, 443.7 188.6 C 447.6 190.8, 448 190.9, 447.1 189.2 C 445 185.2, 436.2 181.8, 427 181.4 C 422.3 181.3, 417.6 181.4, 416.5 181.7 M 412.5 195.7 C 380.6 205.5, 370.1 254.8, 394.6 280.4 C 415 301.9, 451.6 296.3, 466.5 269.5 C 475.6 253.2, 475 235.3, 464.9 218.5 C 453.2 198.9, 432.1 189.7, 412.5 195.7 M 310.5 199.9 C 301.1 202.6, 295.3 205.8, 288.4 212.3 C 250.8 247.4, 274.1 313.6, 324 313.3 C 353.4 313.1, 374 290.4, 374 258 C 374 218.8, 343.1 190.5, 310.5 199.9 M 499.3 202.7 C 497.8 203.3, 497.6 206.9, 499 209 C 499.8 210.2, 500 209.9, 500 207.8 C 500 203.8, 503.5 204.1, 506 208.3 C 508.7 212.7, 511.7 222.3, 512.5 229.3 C 512.9 232.4, 513.7 235.3, 514.3 235.7 C 515.5 236.5, 514.5 225.4, 512.9 220.1 C 508.1 205.1, 504.6 200.5, 499.3 202.7 M 312.2 204.7 C 285.2 211.9, 269.1 241.9, 277 270.2 C 289.4 315, 345.5 322, 364.9 281.1 L 368.5 273.5 368.5 259 C 368.5 247.4, 368.1 243.3, 366.6 238.5 C 358.4 213, 335.2 198.5, 312.2 204.7 M 304.7 218 C 297.2 222.7, 290 232.7, 286.6 243 C 284.6 249.1, 284 267.1, 285.8 269.3 C 286.3 269.9, 287.1 271.9, 287.4 273.5 C 288.2 276.9, 290.7 280.7, 291.6 279.8 C 291.9 279.5, 291.7 278.4, 291.1 277.3 C 281.3 259, 288.6 231.3, 306.7 218.9 C 313.7 214, 312.2 213.4, 304.7 218 M 416 219.3 C 414.1 220.1, 411.3 221.2, 409.8 221.8 C 397.8 226.7, 391.4 247.7, 397.8 261.1 C 409.1 284.4, 440.3 284.5, 451.7 261.2 C 455.2 253.9, 455.7 242, 452.6 235.5 C 447.2 224.1, 439.4 218.8, 427.5 218.3 C 422.3 218.1, 418.3 218.5, 416 219.3 M 579.1 230.8 C 579.8 231.7, 581.4 233.6, 582.6 235 C 583.8 236.4, 585.1 238.5, 585.5 239.8 C 585.8 241, 586.5 242, 587 242 C 588.1 242, 593 247.1, 593 248.2 C 593 248.6, 591.8 248.5, 590.4 248 C 589 247.4, 586.7 247, 585.3 247 C 581.7 247, 583.6 249.1, 592.5 254.8 C 599.3 259.2, 600.2 261.8, 593.9 258.6 C 589.5 256.4, 589.5 256.5, 593.7 260.3 C 598.1 264.2, 609.7 271.8, 615.7 274.9 C 620.4 277.2, 622.6 279.6, 618.8 278.1 C 614.8 276.6, 604.8 271, 598.8 266.9 C 592.5 262.6, 590.7 263, 596.7 267.3 C 598.8 268.8, 600.1 270, 599.6 270 C 598.3 270, 593 266.6, 593 265.8 C 593 265.4, 592.1 264.6, 591 264 C 583.8 260.2, 596.5 271.7, 604.7 276.5 C 606.5 277.5, 608.2 279, 608.5 279.8 C 609.2 281.8, 604.9 280.6, 599.9 277.4 C 594.8 274.2, 594.8 276.3, 600.1 280.9 C 608.6 288.5, 620.2 300.1, 619.7 300.6 C 619.5 300.9, 614.6 297.9, 609 294 C 599.3 287.2, 595.4 285.4, 599.9 289.9 C 601 291, 601.7 292.6, 601.4 293.4 C 601.1 294.2, 601.7 295.4, 602.7 296.1 C 604.9 297.7, 607 300.8, 605.2 299.6 C 604.5 299.2, 604 299.3, 604 299.9 C 604 300.4, 604.5 301.2, 605 301.5 C 605.6 301.8, 607.9 306, 610.2 310.8 C 612.5 315.6, 615.2 320.7, 616.2 322.2 C 617.2 323.6, 618 325.1, 618 325.4 C 618 326.8, 614.4 325.8, 612.3 323.8 C 609.3 321, 608.8 321.7, 610.2 326.6 C 612.6 334.7, 619.9 340.1, 625.1 337.4 C 626.8 336.6, 630.3 335.6, 632.9 335.3 L 637.7 334.8 638.3 329 C 638.9 322.1, 641.4 316.4, 642.6 319.4 C 643 320.4, 642.8 322.7, 642.3 324.4 C 641.7 326.1, 640.7 329.8, 640 332.7 L 638.8 337.8 632.8 339.6 C 629.5 340.6, 625.7 342.5, 624.4 343.7 C 621.4 346.5, 621.4 346.5, 620.7 344 C 620.1 341.6, 617 341.3, 617 343.6 C 617 344.6, 616.5 345, 615.5 344.6 C 614.6 344.3, 614 344.6, 614 345.5 C 614 346.3, 614.4 347, 614.9 347 C 615.4 347, 615.6 347.9, 615.3 349 C 615 350.1, 615.3 351, 615.9 351 C 616.4 351, 616.7 351.6, 616.4 352.3 C 615.8 354, 620.8 364.2, 622 363.5 C 622.6 363.1, 622.7 363.6, 622.3 364.6 C 621.8 365.9, 622 366.1, 623 365.5 C 624 364.9, 624.2 365.1, 623.7 366.2 C 623.3 367.3, 624 368.2, 626 369 C 629.1 370.3, 631.5 369.6, 630.3 367.7 C 629.9 366.9, 630.2 367, 631.2 367.8 C 636.4 372, 647.7 361.5, 649.5 350.8 C 650.8 342.8, 653.7 349.7, 652.8 358.4 C 652.2 363.6, 650.6 365.9, 642.4 372.9 C 637.5 377.1, 636.3 378.6, 637.1 379.7 C 637.7 380.4, 638 381.6, 637.7 382.5 C 636.8 384.6, 643 389, 646.9 389 C 651.5 389, 653.5 384.6, 650 382 L 647.7 380.2 650 379.5 C 654.5 378.1, 656.3 383.6, 653.6 390.2 C 651.2 395.9, 654.9 400.5, 662.3 400.9 C 663.8 400.9, 665 400.5, 665 399.9 C 665 399.4, 665.8 399, 666.8 399.2 C 668.7 399.5, 669.2 390.9, 667.7 382.2 C 666.6 375.8, 668.6 377.9, 670 384.7 C 671.4 391.5, 672.5 390.4, 674.7 380.1 C 675.5 376.5, 676.5 371.7, 677 369.5 C 677.5 367.3, 677.9 362, 678 357.8 C 678 353.6, 678.4 349.9, 678.9 349.6 C 681 348.2, 682.4 356.8, 682.4 370.8 C 682.4 386.3, 682.6 386.9, 687.5 382.4 C 690 380.1, 690.2 379.4, 689.6 375.3 C 689.3 372.9, 688.7 370.4, 688.4 369.8 C 687.5 368.3, 686.9 360, 687.8 360 C 688.6 360, 689.5 362.2, 692.7 370.9 L 694.7 376.4 696.3 373.2 C 700.8 364, 700.8 354.2, 696 344.2 C 692.2 336.2, 694.6 336, 700 343.9 C 701.3 345.8, 702.5 346.9, 702.7 346.3 C 703.3 344.6, 700.3 328.4, 697.5 318.1 C 696.1 312.9, 695 307.4, 695 305.8 C 695 297.4, 673.3 267.1, 660.1 257.1 C 649.4 248.9, 633.4 241.1, 619 237 C 614.9 235.8, 610.4 234.4, 609 233.9 C 606.7 233.1, 581.7 229, 578.9 229 C 578.1 229, 578.1 229.5, 579.1 230.8 M 319.5 233.9 C 299.6 238.8, 292.2 267.4, 307.2 281.7 C 314.1 288.3, 324.1 290.6, 333.1 287.5 C 341.8 284.5, 347.2 278.2, 350.6 267.1 C 356.4 247.9, 338.9 229.2, 319.5 233.9 M 334.8 244.5 C 331.7 246.2, 330.6 249.5, 330.9 255.8 C 331.2 262.3, 341.3 265.5, 346 260.5 C 352.6 253.5, 343.2 239.9, 334.8 244.5 M 498.7 286.5 C 495.4 288.9, 497 291.4, 502.4 292.2 C 510.9 293.4, 510.8 295, 501.7 306.5 C 493.3 317, 479.3 327.8, 463.5 335.8 C 459.1 338.1, 452.6 342.4, 449 345.5 C 436.4 356.3, 425.1 359.6, 404.5 358.6 C 396.3 358.2, 388.5 358.5, 380 359.5 C 341.7 364.2, 298.9 363.5, 280.5 358 C 267.7 354.1, 263.5 352.4, 256.5 348.4 L 248.7 343.8 251.7 342.5 C 253.3 341.8, 257.4 340.9, 260.7 340.5 C 271.7 339.3, 275.7 334.7, 270.9 328.6 C 268.5 325.6, 267 325.2, 267.7 327.9 C 268.3 330.4, 267.2 331, 259.5 332.1 C 244.9 334.1, 228 346, 228 354.2 C 228 358, 228.8 358.1, 233.4 354.9 C 235.7 353.3, 238.9 351.8, 240.5 351.7 C 243.8 351.5, 243.5 350.7, 246.5 367.5 C 247.3 372.5, 248.7 378.9, 249.5 381.7 C 250.4 384.6, 251.7 389.6, 252.6 392.7 C 255.6 403.6, 258.3 410.5, 264 422 C 296.1 486.7, 339.5 515.2, 396.5 509.1 C 402.6 508.4, 408.9 507.5, 410.5 507 C 412.2 506.5, 417.5 504.9, 422.3 503.4 C 469.4 489.5, 512.1 440.3, 522.1 388.8 C 523.7 380.5, 525.3 380.1, 528.5 387.3 L 530.8 392.5 531.9 389.7 C 532.5 388.1, 533 386.4, 533 385.9 C 533 385.4, 534.1 384.4, 535.5 383.8 C 543.2 380.3, 531.2 372.3, 516.7 371.3 C 508.9 370.7, 508.8 370.7, 509.2 373.1 C 509.4 374.8, 510.4 375.7, 512.8 376.4 C 517 377.6, 516.9 378.6, 511.4 385.9 C 502.2 398.2, 488.8 408.2, 468.5 418 C 445.1 429.3, 439.5 431.1, 411.3 436.6 L 408.2 437.2 407 431.4 C 405.5 424.2, 402.6 411.5, 400.6 403.5 C 399.8 400.2, 399.2 397.5, 399.3 397.4 C 400.1 396.7, 409.4 394, 410.9 394 C 411.9 394, 413 393.7, 413.3 393.4 C 413.6 393, 417.4 391.5, 421.7 390 C 434.8 385.4, 436.1 384.8, 447.5 379.2 C 472.5 366.7, 488.1 353.8, 500.5 335.5 C 505.5 328.1, 508.6 322.1, 515.3 306.8 C 518.4 299.9, 519.8 299.6, 524.7 304.5 C 529.4 309.2, 531.4 308.8, 531.8 303.1 C 532.1 299.5, 531.7 298.3, 529.3 295.8 C 521.8 288, 503.9 282.5, 498.7 286.5 M 156.7 290.7 C 156.3 291, 152.1 293.1, 147.4 295.2 C 142.6 297.3, 136 300.8, 132.8 303.1 C 129.5 305.3, 125.9 307.5, 124.7 308 C 122.4 308.9, 115.2 314, 116.2 314 C 117 314, 123.5 311.3, 130.5 308.1 C 142.2 302.6, 143.8 302, 146.3 302 C 148.4 302, 159 292.5, 159 290.6 C 159 289.8, 157.5 289.9, 156.7 290.7 M 171 308.5 C 170.3 309.3, 169.7 313, 169.5 316.7 C 169.2 323.4, 167.2 336.6, 165.1 346.4 C 163 356, 165.4 352.7, 168.3 342 C 170.4 334.4, 173.6 307, 172.4 307 C 172.3 307, 171.7 307.7, 171 308.5 M 612.6 368.9 C 613.4 371.9, 614.4 374.8, 615 375.4 C 615.5 375.9, 616 376.9, 616 377.6 C 616 378.3, 618 383, 620.4 388.2 C 622.8 393.3, 624.6 397.9, 624.3 398.3 C 624 398.7, 620.4 393.9, 616.2 387.5 C 612.1 381.2, 608.5 376.2, 608.2 376.4 C 607.6 377.1, 610.9 385.6, 614.2 391.8 C 615.7 394.7, 617 397.3, 617 397.7 C 617 398.8, 612.9 394.6, 609.3 389.8 C 605.1 384, 604 383.8, 605.1 388.8 C 605.6 390.8, 606.4 395, 607.1 398 C 609.5 409.8, 611.3 415.7, 614.1 420.6 C 618 427.5, 617.9 428.4, 613.3 427.5 C 611.2 427.1, 609.1 426.5, 608.5 426.1 C 604.2 422.8, 603.8 423.6, 604.6 433.3 C 605 438.3, 605.9 444.2, 606.6 446.3 C 608.1 450.5, 608 450.6, 604 448.5 C 601.1 447, 601 447, 601 449.2 C 601.1 452.9, 604.4 459.2, 608.5 463.3 C 612.2 466.8, 612.2 467, 609.9 467 C 608.6 467, 606.2 466.1, 604.5 465 C 599.6 461.7, 599.3 462.1, 600.5 472 C 601.5 479.4, 602.1 481.2, 604.1 482.9 C 606.8 485.2, 605.4 485.8, 602.4 483.5 C 601.4 482.7, 599.5 482, 598.3 482 C 596.2 482, 596.1 482.3, 596.6 490.8 C 597.3 501.2, 597.7 503.1, 599 501 C 599.5 500.2, 600.3 499.9, 600.7 500.4 C 601.1 500.8, 600.7 501.7, 599.7 502.4 C 598.4 503.4, 598 505.2, 598 509.5 C 598 515.2, 598.1 515.3, 599.8 513.4 C 602.3 510.7, 607.6 501.9, 608.5 498.9 C 610.3 493.2, 612.9 491, 617.8 491 C 622.7 491, 622.6 492.6, 617.6 493.2 C 615.1 493.5, 614.5 494.3, 612.4 500 C 608.4 510.7, 606.1 514.9, 601.9 519.5 C 598.1 523.7, 597.9 524, 598.5 529.2 C 599.5 538.6, 604.9 548, 609.3 548 C 617.3 548, 629.8 528.6, 630.9 514.3 C 631.4 508.2, 631.7 507.2, 633 508 C 635.4 509.5, 635.1 528.2, 632.6 533.5 C 631.6 535.7, 629.9 539.4, 628.8 541.8 C 627.7 544.1, 626.4 546, 626 546 C 624.9 546, 619 551, 619 552 C 619 553.1, 628.8 557, 631.7 557 C 635.3 557, 639.4 554.5, 643.4 549.9 C 647.5 545.1, 647.5 545.1, 643.2 544.8 C 641.4 544.7, 639.2 543.8, 638.4 542.8 C 636.9 541.2, 637 541.1, 639.1 541.4 C 640.4 541.6, 642.8 542.2, 644.3 542.9 C 647.9 544.3, 647.6 544.4, 648.9 541.3 C 651.5 535, 653 526.4, 653 518.5 C 653 513.6, 653.4 510, 654 510 C 658 510, 659.5 529.1, 656.3 538.6 C 655.4 541.3, 653.2 545.9, 651.3 548.9 C 647.3 555.1, 647.7 556.3, 652.8 553.4 C 658.6 550.1, 664.7 541.5, 666.5 534.2 C 669 524.4, 665.3 509.7, 658 500.5 C 653.5 494.8, 654.2 492.8, 659.1 497.5 C 664.5 502.8, 668.5 509.1, 670.6 515.4 C 671.5 518.2, 672.6 520.9, 673.1 521.5 C 674.6 523, 674.1 508.6, 672.6 505.4 C 668.8 497.1, 668.2 495.5, 668.6 495 C 669.5 494.2, 672.9 499.3, 673.6 502.3 C 674.7 507.3, 675.9 503.7, 674.9 498.1 C 673.9 491.4, 672.3 488.1, 665.4 477.5 C 662.4 472.9, 660 468.9, 660 468.6 C 660 467.1, 662.9 468.3, 666.9 471.5 C 669.3 473.4, 671.5 474.8, 671.8 474.6 C 672.7 473.6, 665.6 460.6, 660 453.1 C 650.6 440.4, 649.9 438.3, 656.6 443.5 C 662.6 448, 663.7 447.9, 660.9 443.3 C 656.7 436.3, 654.6 433.5, 647.8 426.3 C 640.6 418.7, 638.8 415.1, 644.3 419.2 C 648.2 422.2, 654.9 425.5, 655.6 424.7 C 656.4 423.9, 652.6 419.5, 644.1 411.3 C 635.3 402.7, 635.4 401.7, 645.3 403.5 C 647.9 404.1, 649 403.9, 649 403 C 649 401.4, 644.9 398.1, 642.7 398 C 640.2 398, 632.7 390.8, 630.4 386.3 C 629.4 384.2, 625.8 379.8, 622.5 376.5 C 619.1 373.2, 615.2 368.9, 613.8 367 L 611.2 363.5 612.6 368.9 M 276 404 C 290.5 414.7, 300.4 419.6, 322 426.9 C 347.2 435.4, 361.7 437.9, 388.8 437.9 L 404 438 404 435.3 C 404 430.9, 399.9 411.9, 396.8 401.7 C 395.8 398.3, 395.3 397.9, 393.1 398.3 C 391.7 398.6, 386.3 399.5, 381.2 400.4 C 376 401.2, 371.1 402.2, 370.2 402.4 C 369.2 402.7, 360 403.6, 349.5 404.5 C 322.4 406.6, 286.2 403.7, 271.7 398.1 C 265.8 395.8, 266.8 397.2, 276 404 M 484.8 414.6 C 483.6 416.4, 455.9 429.7, 446.5 432.8 C 438 435.7, 423.5 439.5, 418.1 440.2 C 414 440.7, 414.7 442.6, 420.2 446.1 C 429.3 451.9, 446.1 450.7, 462.2 443 C 472.3 438.3, 486.9 421, 485.8 415.2 C 485.6 414.2, 485.2 413.9, 484.8 414.6 M 287 417.9 C 287 422.8, 299.9 431.3, 302.1 427.9 C 303.7 425.4, 303.1 424.5, 298.8 422.6 C 296.4 421.6, 293.1 419.7, 291.3 418.4 C 287.5 415.5, 287 415.4, 287 417.9 M 307.6 427.7 C 305.4 429.9, 307.2 436.2, 311.2 440.6 C 319.1 449.2, 324.9 451.7, 326.8 447.5 C 328.2 444.4, 330 444.3, 330 447.3 C 330 455, 340.5 452.3, 348.1 442.6 C 350.5 439.6, 350.9 439.9, 340 437.5 C 333.1 436, 316.8 430.6, 314.5 429 C 312.9 427.8, 308.3 427, 307.6 427.7 M 355.7 444.1 C 357.4 453.1, 363.2 458, 371.8 458 C 378.3 458, 380.9 456.6, 390.5 447.7 L 395.5 443.1 391 443.6 C 386.6 444.2, 364.7 442.7, 358.3 441.4 C 355 440.8, 355 440.8, 355.7 444.1 M 537.6 471.2 C 537.3 471.9, 536.9 478.8, 536.7 486.5 C 536.4 494.2, 535.9 501.4, 535.5 502.5 C 534.8 504.3, 534.9 504.4, 536.3 503 C 539.1 500.4, 541.4 472, 539 470.5 C 538.4 470.2, 537.8 470.5, 537.6 471.2 M 214.2 498.4 C 212.7 510.6, 212.7 520.1, 214.2 523.7 C 215.2 526.1, 215.5 523.8, 216.2 508.6 C 217.1 488.9, 216 483.4, 214.2 498.4 M 404.2 490.9 C 401.9 492, 397.6 495.2, 394.6 497.9 L 389.3 503 386.9 500.4 C 379.4 492.4, 369 491.2, 358.1 497 C 353.9 499.3, 352.3 500.6, 353.2 501.1 C 358.6 504.1, 396.2 504.7, 407.5 501.9 C 415.9 499.9, 426.4 496.9, 429 495.9 C 431.4 494.9, 431.4 494.8, 429.5 493.4 C 424.1 489.4, 410.3 488.1, 404.2 490.9 M 159.5 501.5 C 159.1 503.2, 158.3 504.7, 157.9 505 C 157.5 505.3, 157 507.9, 156.9 510.8 C 156.6 517.3, 155.2 517.6, 154.8 511.3 C 154.5 506.5, 154.5 506.5, 153.1 509.2 C 151.9 511.6, 151.9 512.7, 153.4 517.8 C 154.3 521, 155 526, 155 528.8 C 155 534.1, 156.8 536.3, 156.9 531.3 C 157 529.7, 157.1 527.8, 157.2 527 C 157.2 526.2, 157 524.5, 156.6 523.3 C 156.2 521.9, 156.3 521, 156.9 521 C 159.2 521, 159.3 530.4, 157 535 C 156.5 535.8, 154.3 542.6, 152 550 C 147.9 563.1, 145.9 568.6, 144 572.2 C 142 575.9, 143.2 576.3, 146 573 C 147.6 571.1, 149 569.9, 149 570.3 C 149.1 572.7, 157.3 561.5, 161 554 C 164.5 547, 166.3 534.9, 164.1 533.6 C 163.4 533.1, 163 533.8, 163 535.4 C 163 536.8, 162.6 538.1, 162.1 538.4 C 161.6 538.7, 160.9 540.5, 160.6 542.4 C 160 545.5, 158.3 549.9, 155.9 554.2 C 155.4 555.2, 155 556.7, 155 557.5 C 155 558.3, 154.5 559, 153.9 559 C 153.4 559, 153.1 559.3, 153.4 559.8 C 153.6 560.2, 153.1 561.4, 152.3 562.5 C 150.8 564.4, 150.8 564.4, 151.5 562 C 151.9 560.6, 152.9 558.3, 153.6 556.8 C 154.4 555.3, 155 553.6, 155 553 C 155 552.3, 155.6 550.4, 156.4 548.7 C 157.2 546.9, 158.6 542.8, 159.5 539.5 C 160.4 536.2, 161.6 532.2, 162.1 530.5 C 162.7 528.8, 162.7 527.4, 162.2 527.2 C 161.7 527.1, 161.5 523.2, 161.7 518.7 C 162.2 508.2, 160.8 496.9, 159.5 501.5 M 188 520.4 C 188 525.8, 194.2 535.3, 201 540.2 C 204.6 542.8, 209.2 546.4, 211.4 548.2 C 217.1 553, 219.6 554.4, 221.4 553.7 C 224.1 552.6, 223.2 551.5, 216.8 547.7 C 205.5 541.1, 199.6 535.8, 196.7 529.6 C 195.2 526.5, 194 523.2, 194 522.4 C 194 521.4, 193.4 521, 192.6 521.3 C 191.7 521.7, 190.9 521.1, 190.5 519.9 C 189.6 517.2, 188 517.5, 188 520.4 M 223.1 521.8 C 220.3 528.4, 223.6 548.6, 227.8 550.1 C 230 550.9, 230 550.9, 228.6 547.6 C 227 543.7, 225.1 532.1, 224.7 524 L 224.5 518.5 223.1 521.8 M 541 523.3 C 541 529.6, 538.9 538.2, 535.4 545.7 C 533.5 549.8, 532.1 553.5, 532.4 553.7 C 534.8 556.1, 550.7 542.7, 554.1 535.4 C 557.8 527.6, 556.1 525.8, 551.5 532.6 C 546.1 540.4, 543.2 543.8, 540.6 545.2 C 538.8 546.2, 538.7 546.1, 539.7 544.9 C 542.3 541.7, 544.9 525.5, 543.4 521.6 C 542.4 518.9, 541 519.8, 541 523.3 M 456.4 526.8 C 450.9 531.3, 449.6 534.8, 450.8 541.4 C 451.4 544.7, 452.2 551, 452.5 555.2 C 452.9 559.5, 453.7 563.3, 454.2 563.6 C 455.4 564.4, 454.6 547.3, 453 540.6 C 451.8 535, 455.7 527, 459.6 527 C 462.3 527, 466 541.2, 466 551.8 C 466 552.4, 466.7 553, 467.6 553 C 468.8 553, 469.1 552.4, 468.7 550.8 C 468.4 549.5, 467.6 544.8, 467 540.3 C 465.2 526.9, 461.7 522.4, 456.4 526.8 M 243.8 534.6 C 240.8 537.6, 246 567, 250 569.5 C 251.4 570.4, 251.2 567.5, 249.6 563.7 C 248.4 560.7, 245.4 544.3, 244.8 536.7 C 244.6 535.1, 244.2 534.2, 243.8 534.6 M 189.8 548 C 187.9 554.4, 190.1 587.3, 192.8 594 C 194.2 597.4, 194.1 585.6, 192.6 572.5 C 191.7 564.8, 190.8 555.6, 190.7 552 C 190.6 547.4, 190.3 546.2, 189.8 548 M 166.5 550.5 C 163.4 558.5, 159.4 566.2, 155.9 570.7 C 150.5 577.9, 152.7 577.4, 160.4 569.6 C 167.3 562.5, 169.7 557, 168.1 551.4 C 167.3 548.8, 167.2 548.7, 166.5 550.5 M 232.8 552.1 C 232.4 554.8, 235 564.4, 237.9 570.5 C 238.4 571.6, 240.2 575.6, 241.9 579.4 C 246.4 589.4, 254.3 602, 258.7 606.1 C 263.2 610.4, 274.9 618.6, 278.3 619.9 C 282.4 621.5, 283.7 619.6, 280.4 616.9 C 270.5 608.5, 269.3 607, 266.2 598.7 C 264.5 594.2, 262.8 588.7, 262.5 586.5 L 261.9 582.5 263.9 585 C 265 586.4, 267.3 591.2, 269 595.7 C 272.3 604.5, 278.8 613, 282.1 613 C 284.9 613, 284.5 611.9, 279.6 605.3 C 277.2 602.1, 273.9 596.8, 272.3 593.5 C 270.6 590.2, 267 583.1, 264.1 577.7 C 260.2 570.2, 259 566.9, 259 563.5 C 259 561.1, 258.6 558.9, 258.1 558.6 C 253.7 555.9, 257.7 597.1, 262.3 601.6 C 264.7 604, 262.4 603.8, 259.9 601.4 C 255.3 597, 245.8 580.6, 242.1 570.5 C 240.2 565.6, 237.9 559.6, 236.9 557.3 C 235.8 555, 235 552.4, 235 551.6 C 235 548.7, 233.2 549.1, 232.8 552.1 M 419 550.8 C 419 551.4, 419.8 554.1, 420.7 556.7 C 422 560.3, 422.4 564.8, 422.5 574.8 C 422.5 591.1, 423.4 592.2, 425.4 578.2 C 426 574.2, 424.2 561, 422.4 556.1 C 420.6 551.3, 419 548.7, 419 550.8 M 514.7 626.9 C 510.6 638.5, 514.9 648.2, 523.4 646.6 C 527.1 645.9, 531.4 641.9, 533 637.6 C 534.5 633.5, 533.7 633.4, 531.5 637.3 C 529.5 641.2, 524.3 645, 521.3 645 C 515.7 645, 513.3 634.9, 517 627.2 C 519.4 622.4, 519.4 622, 517.7 622 C 517 622, 515.7 624.2, 514.7 626.9 M 589.5 628 C 590.5 632.6, 592 634.8, 594.5 635.3 C 595.6 635.5, 594.8 635.8, 592.8 635.9 C 588.5 636, 587.5 638, 591.7 638 C 593.1 638, 597.3 637.5, 600.9 636.9 C 607.8 635.7, 611.3 634, 606.8 634 C 603.2 634, 596.2 630.9, 592.1 627.4 L 588.8 624.6 589.5 628 M 258.6 669.6 C 251.9 671.1, 247 673.4, 247 675 C 247 675.4, 248.4 676.3, 250 677 C 251.7 677.7, 253 678.6, 253 679.1 C 253 680.5, 251.4 680.2, 250.1 678.6 C 246.7 674.5, 241.9 675.9, 235.5 682.7 C 222.8 696.2, 224.6 723, 238.2 723 C 244.5 723, 245.1 721.9, 244.4 711.6 C 243.7 701.6, 245 693.3, 247.9 689.7 C 253.1 683, 258 679.4, 264.6 677.2 C 275.1 673.6, 280.4 671, 279.3 669.9 C 277.6 668.2, 265.7 668, 258.6 669.6 M 571.4 670.3 C 566.6 675.7, 566.6 675.7, 569.5 679.1 C 574.6 685.3, 579.5 697.1, 579.1 702.7 C 578.9 706.5, 580.2 707.4, 585.3 707.1 C 594.3 706.6, 600.5 698, 598 689.6 C 593.8 675, 577.5 663.3, 571.4 670.3 M 222.9 673.4 C 203.2 680.4, 195.8 701.9, 209 713.7 C 212.1 716.5, 214.5 716.6, 216.3 714 C 217.1 712.9, 218 712.3, 218.3 712.6 C 218.6 713, 218.6 709.4, 218.3 704.6 C 217.9 698.7, 218 696, 218.8 696 C 219.4 696, 220 698.3, 220.2 701.3 L 220.5 706.5 221.3 702.5 C 223.3 692, 227 684, 232.6 678 C 235 675.4, 236.7 673, 236.3 672.7 C 235.2 671.6, 226.7 672, 222.9 673.4 M 509 682.3 C 498.5 689.4, 496 700.1, 502.5 709.5 C 508.8 718.7, 516.1 723, 525.3 723 C 532.2 723, 534.8 721, 538.9 712.8 C 542.6 705.5, 542.9 699.7, 539.9 693.8 C 534 682.3, 517.9 676.2, 509 682.3" stroke="none" fill="#1b1f3a" fill-rule="evenodd"/></svg>