<svg xmlns="http://www.w3.org/2000/svg" viewBox="0 0 768 768" version="1.1" preserveAspectRatio="xMidYMid meet">
	<path d="M 323.500 97.168 C 310.827 100.214, 301.683 104.092, 295.009 109.250 L 290.517 112.720 287.009 110.570 C 276.512 104.135, 256.156 99.034, 241 99.040 C 231.409 99.043, 207.103 103.137, 200.500 105.861 C 184.837 112.323, 170.217 121.357, 159.217 131.370 C 152.192 137.765, 151.749 138, 146.717 138 C 108.822 138.001, 72.082 167.223, 60.592 206.500 C 59.627 209.800, 58.374 213.850, 57.808 215.500 C 57.242 217.150, 56.547 225.486, 56.264 234.024 C 55.532 256.098, 59.188 268.976, 70.025 282.500 C 73.002 286.215, 80 299.297, 80 301.148 C 80 301.597, 78.238 304.844, 76.084 308.363 C 70.174 318.019, 64.636 330.854, 58.982 348 C 51.198 371.607, 47.861 402.503, 49.820 432.829 C 50.483 443.098, 51.020 455.684, 51.013 460.798 C 50.999 470.729, 53.654 496.443, 54.954 498.976 C 55.385 499.814, 56.052 502.243, 56.437 504.373 C 56.822 506.503, 57.495 508.978, 57.933 509.873 C 58.371 510.768, 59.958 514.200, 61.459 517.500 C 73.064 543.009, 95.715 560.368, 120.407 562.674 L 126.716 563.263 127.327 572.568 C 128.248 586.595, 132.297 596.157, 141.540 606.137 C 153.038 618.553, 167.953 625.499, 184.860 626.314 L 192.221 626.669 194.380 631.148 C 200.842 644.556, 217.680 657.935, 236.500 664.616 C 258.620 672.467, 287.500 664.836, 299.646 647.930 C 303.824 642.114, 303.791 642.121, 307.563 646.092 C 321.101 660.345, 343.143 671.217, 365.224 674.534 C 387.303 677.850, 404.171 674.745, 426.058 663.336 C 442.543 654.742, 447.482 650.359, 459.660 633.515 L 461.818 630.530 466.360 633.792 C 471.930 637.792, 477.948 640, 483.281 640 C 485.927 640, 488.374 640.792, 490.406 642.305 C 507.054 654.708, 531.888 660.310, 552.922 656.409 C 576.952 651.952, 593.963 642.798, 613.642 623.734 L 624.984 612.746 629.242 616.281 C 631.584 618.225, 635.463 621.669, 637.862 623.934 C 644.521 630.221, 649.889 632.280, 658.417 631.818 C 669.198 631.234, 677.820 624.163, 676.843 616.706 C 676.683 615.490, 677.719 612.407, 679.145 609.855 C 686.664 596.404, 686.603 582.802, 678.970 570.451 C 676.592 566.604, 668.336 559.559, 664.944 558.482 C 663.132 557.907, 662.980 557.308, 663.587 553.167 C 664.740 545.313, 665.297 544.584, 671.643 542.621 C 692.911 536.043, 706.826 519.006, 710.111 495.519 C 713.288 472.808, 704.408 451.845, 688.168 443.721 L 681.402 440.335 686.090 435.101 C 690.335 430.362, 694.815 422.444, 699.443 411.500 C 700.374 409.300, 701.545 406.600, 702.045 405.500 C 713.669 379.940, 716.228 322.083, 707.353 285.500 C 703.493 269.591, 696.316 254.757, 688.086 245.676 C 684.739 241.982, 682 238.124, 682 237.102 C 682 229.040, 669.144 209.220, 659.137 201.853 L 653.244 197.515 652.699 184.507 C 652.042 168.835, 651.023 164.831, 643.531 148.500 C 624.477 106.959, 569.125 84.219, 531 102.268 C 515.162 109.766, 500.196 125.723, 497.504 137.982 C 496.746 141.435, 495.084 141.761, 489.270 139.597 C 463.250 129.911, 432.721 129.947, 414 139.687 C 410.269 141.628, 409.801 141.397, 406 135.738 C 401.569 129.142, 389.065 115.952, 383.072 111.553 C 377.624 107.554, 365.144 101.012, 362.950 101.005 C 362.098 101.002, 360.973 100.606, 360.450 100.125 C 356.935 96.890, 332.721 94.952, 323.500 97.168 M 320.500 102.950 C 311.206 105.635, 301.398 110.592, 296.566 115.046 L 292.171 119.097 282.836 114.660 C 264.658 106.022, 243.765 102.728, 224.119 105.403 C 217.437 106.313, 210.964 107.453, 209.735 107.937 C 208.506 108.421, 204.350 109.820, 200.500 111.047 C 186.945 115.367, 169.932 125.354, 161.126 134.159 L 155.982 139.304 161.741 141.227 C 170.993 144.315, 181.591 149.749, 185.436 153.375 C 190.271 157.935, 189.980 159.989, 185.088 155.828 C 174.986 147.235, 161.374 142.698, 146 142.800 C 132.819 142.888, 125.804 144.562, 111.355 151.071 C 63.906 172.443, 43.864 241.896, 73.895 280.881 C 75.328 282.741, 78.100 287.437, 80.055 291.317 C 83.857 298.859, 86 300.788, 86 296.667 C 86 295.292, 85.470 293.990, 84.823 293.774 C 84.135 293.545, 83.978 292.844, 84.445 292.089 C 85.016 291.165, 85.675 291.683, 86.747 293.898 C 87.574 295.604, 88.869 297, 89.625 297 C 91.414 297, 91.410 299.629, 89.620 300.316 C 88.555 300.724, 88.431 301.832, 89.077 305.173 C 90.350 311.763, 90.177 312.495, 88 309.727 C 86.900 308.329, 86 306.018, 86 304.592 C 86 295.544, 75.723 312.253, 66.818 335.780 C 61.425 350.028, 58.199 362.332, 55.353 379.500 C 53.238 392.262, 52.373 427.025, 53.947 436 C 54.574 439.575, 55.242 450.825, 55.431 461 C 56.017 492.599, 60.270 509.346, 72.425 527.910 C 79.340 538.471, 88.460 546.100, 101 551.814 C 112.850 557.212, 128.122 558.687, 128.810 554.500 C 129.307 551.470, 132.563 544.722, 136.485 538.591 C 138.418 535.569, 140 532.694, 140 532.203 C 140 531.712, 140.975 530.453, 142.167 529.405 L 144.335 527.500 142.228 531.500 C 125.919 562.462, 127.301 586.705, 146.446 605.500 C 158.692 617.522, 181.898 625.403, 195.236 622.070 C 210.095 618.356, 216.188 615.332, 224.403 607.592 C 227.100 605.052, 229.514 603.181, 229.767 603.434 C 230.604 604.271, 225.989 610.803, 222.229 614.104 C 218.469 617.405, 203.452 625, 200.684 625 C 194.542 625, 194.745 627.261, 201.663 635.945 C 225.508 665.873, 269.008 671.577, 293 647.921 C 298.570 642.429, 303.023 633.464, 301.448 630.915 C 301.107 630.364, 301.247 629.370, 301.759 628.706 C 304.217 625.521, 305.500 616.837, 305.500 603.377 C 305.500 588.553, 306.646 585.564, 308.898 594.511 C 311.472 604.731, 309.895 621.281, 305.447 630.729 C 304.091 633.607, 304.090 634.273, 305.433 636.870 C 308.483 642.769, 323.732 654.355, 336 660.096 C 339.575 661.769, 343.180 663.493, 344.012 663.929 C 357.198 670.828, 388.366 671.863, 407.500 666.038 C 432.016 658.574, 459.526 635.416, 458.884 622.783 C 458.797 621.070, 458.653 620.940, 458.308 622.262 C 458.055 623.231, 457.442 623.773, 456.945 623.466 C 455.588 622.627, 458.140 619.117, 459.678 619.707 C 460.405 619.986, 461 620.884, 461 621.703 C 461 624.374, 464.919 628.778, 470.262 632.111 C 488.597 643.550, 516.939 623.240, 508.584 604.651 C 503.996 594.445, 500.670 581.985, 501.913 579.662 C 503.612 576.487, 510 569.379, 510 570.663 C 510 571.228, 509.117 572.489, 508.038 573.466 C 505.492 575.770, 503.643 581.442, 504.424 584.553 C 505.095 587.228, 507 587.918, 507 585.486 C 507 584.654, 507.428 583.191, 507.952 582.236 C 508.475 581.281, 509.655 578.805, 510.574 576.733 C 519.867 555.775, 553.842 558.506, 560.059 580.711 C 567.320 606.645, 537.757 626.782, 516.371 610.469 C 512.086 607.201, 512.003 607.244, 511.978 612.750 C 511.938 621.323, 505.265 630.776, 495.703 635.802 L 491.906 637.798 497.703 641.205 C 530.346 660.386, 565.655 655.983, 601.703 628.239 C 609.050 622.584, 620 611.640, 620 609.952 C 620 609.595, 618.245 608.614, 616.099 607.771 C 613.954 606.928, 611.688 605.285, 611.064 604.119 C 609.662 601.500, 610.958 601.394, 614.115 603.870 C 615.427 604.898, 617.942 606.054, 619.704 606.439 C 622.880 607.132, 622.943 607.069, 626.865 599.319 C 632.503 588.178, 641.624 574.582, 642.504 576.007 C 642.998 576.805, 643.588 576.518, 644.364 575.103 C 649.405 565.905, 651 562.639, 651 561.515 C 651 560.799, 651.619 559.976, 652.376 559.686 C 657.317 557.790, 646.938 577.100, 638.944 584.675 C 634.164 589.205, 633.858 590.752, 638.228 588.307 C 649.647 581.915, 658.067 567.359, 659.560 551.429 L 660.223 544.358 652.563 542.674 C 634.264 538.653, 623.410 526.972, 620.466 508.127 L 619.783 503.755 617.322 506.409 C 607.807 516.670, 588.410 520.161, 575.404 513.954 C 565.069 509.022, 559.848 500.493, 556.149 482.500 L 554.299 473.500 553.594 479.500 C 552.199 491.387, 547.957 500.664, 541.788 505.324 C 527.993 515.744, 502.053 510.505, 494.379 495.750 C 492.263 491.681, 491.502 492.269, 488.554 500.250 C 484.758 510.525, 482.087 514.664, 474.843 521.500 C 459.296 536.170, 450.587 540.923, 433.500 544.060 C 418.971 546.727, 391.972 534.956, 376.797 519.340 C 371.938 514.338, 365 502.327, 365 498.914 C 365 497.846, 364.566 496.191, 364.035 495.236 C 363.023 493.416, 359.734 485.747, 358.679 482.750 C 357.644 479.811, 356.552 480.760, 354.652 486.250 C 351.607 495.046, 346.974 503.564, 342.374 508.823 C 337.306 514.616, 337.183 515, 340.393 515 C 343.589 515, 344.354 517.451, 342.427 521.513 C 340.953 524.619, 340.651 524.774, 337.923 523.823 C 335.990 523.150, 335 522.118, 335 520.780 C 335 519.101, 335.254 518.966, 336.487 519.989 C 338.262 521.462, 341 520.642, 341 518.638 C 341 515.323, 337.562 516.053, 330.605 520.844 C 314.804 531.725, 303.818 535.455, 287.500 535.481 C 266.218 535.515, 250.048 529.315, 237.062 516.142 C 228.906 507.869, 226.708 502.763, 227.147 493.111 C 227.598 483.191, 230.520 478.237, 237.924 474.840 L 242.902 472.557 237.303 467.567 C 231.562 462.449, 226.072 454.821, 224.302 449.500 C 223.434 446.891, 223.214 447.672, 222.612 455.500 C 221.496 469.998, 219.922 479.233, 217.888 483.220 C 213.451 491.916, 204.454 498.605, 193.276 501.516 C 186.812 503.200, 171 503.543, 171 502 C 171 501.450, 169.988 500.968, 168.750 500.930 C 166.814 500.869, 166.752 500.760, 168.305 500.147 C 169.709 499.593, 169.028 499.046, 165.243 497.685 C 156.188 494.428, 148.935 486.492, 145.515 476.098 C 144.007 471.514, 143.827 468.484, 144.328 456.098 C 145.030 438.719, 146.603 420.642, 147.924 414.752 C 150.256 404.360, 150.283 404.510, 145.730 402.501 C 134.137 397.386, 110.031 366.692, 100.571 345 C 96.066 334.670, 92.759 317.885, 94.960 316.525 C 95.532 316.171, 96 314.784, 96 313.441 C 96 309.778, 97.099 310.445, 101.474 316.762 C 103.659 319.918, 107.069 324.300, 109.052 326.500 C 111.034 328.700, 116.401 336.125, 120.977 343 C 131.091 358.194, 142.632 373.114, 151.534 382.500 C 158.810 390.172, 157.390 387.963, 143.822 370.500 C 139.121 364.450, 130.538 352.460, 124.748 343.854 C 118.958 335.249, 112.791 326.249, 111.043 323.854 C 104.513 314.906, 95.512 298.182, 83.901 273.422 C 81.243 267.754, 78.048 252.663, 78.022 245.654 C 77.915 216.921, 107.414 195.804, 134.791 205.015 C 150.987 210.464, 159.834 221.886, 173.507 255 C 183.700 279.689, 188.551 290.366, 189.752 290.759 C 190.515 291.008, 192.404 288.104, 194.582 283.334 C 212.739 243.567, 219.035 232.344, 228.969 222.033 C 241.097 209.444, 254.135 207.079, 269.356 214.707 C 284.812 222.454, 290.205 236.623, 284.517 254.545 C 281.893 262.814, 281.912 264.147, 284.627 261.895 C 286.871 260.032, 302.342 260.011, 306.735 261.865 C 309.547 263.052, 310.816 263.001, 316.444 261.478 C 338.179 255.594, 358.585 269.869, 359.131 291.339 L 359.263 296.500 360.047 290 C 362.249 271.764, 366.375 264.922, 379.045 258.499 C 400.454 247.646, 428.501 252.978, 439.120 269.919 L 440.637 272.339 446.068 268.247 C 467.682 251.964, 504.774 256.622, 508.672 276.109 L 509.280 279.149 513.890 274.645 C 520.805 267.889, 525.189 266.497, 539.500 266.515 C 553.886 266.533, 559.944 268.808, 567.251 276.934 C 571.409 281.559, 571.708 281.709, 574.189 280.409 C 584.584 274.962, 600.790 273.817, 610.940 277.812 C 613.933 278.989, 616.515 279.818, 616.679 279.654 C 616.844 279.490, 614.721 274.888, 611.963 269.428 C 607.505 260.604, 607.284 259.885, 609.974 262.962 C 611.638 264.866, 613 266.842, 613 267.353 C 613 270.665, 618.636 277.737, 628.148 286.359 C 644.503 301.184, 649.280 311.208, 649.424 331 C 649.566 350.556, 645.980 355.806, 625.518 366 C 620.546 368.477, 620.492 368.555, 619.646 374.500 C 617.044 392.796, 610.464 401.225, 597.010 403.498 L 593.037 404.169 596.380 407.335 C 603.093 413.691, 607.203 421.727, 612.064 438 C 615.668 450.067, 617.384 453.207, 623.909 459.671 L 630.078 465.782 633.486 460.455 C 640.267 449.853, 656.905 439.982, 668.637 439.600 C 675.942 439.362, 677.597 438.201, 684.463 428.500 C 701.260 404.767, 709.933 365.038, 707.821 321.500 C 706.445 293.117, 697.034 262.272, 685.887 249.608 C 676.061 238.445, 659.068 230.442, 653.103 234.168 C 650.151 236.011, 633 233.125, 633 230.785 C 633 230.160, 634.035 230.092, 635.750 230.603 C 637.263 231.054, 643.900 231.461, 650.500 231.506 C 662.868 231.591, 667.238 232.583, 674.729 237.003 L 678 238.933 677.988 236.716 C 677.975 234.406, 672.143 220.281, 670.211 217.880 C 664.972 211.370, 660.681 207.155, 654.978 202.914 L 648.292 197.942 647.698 183.721 C 647.182 171.354, 646.707 168.364, 644.055 160.790 C 631.453 124.799, 597.207 101, 558.019 101 C 543.438 101, 535.164 103.558, 521.165 112.396 C 509.152 119.979, 493.627 146, 501.116 146 C 504.109 146, 512.507 152.435, 517.105 158.252 C 522.893 165.574, 521.835 165.942, 514.451 159.176 C 501.801 147.585, 490.212 142.497, 467.500 138.565 C 451.337 135.766, 437.631 137.006, 422.796 142.608 C 413.959 145.945, 410.666 148.507, 412.003 151.005 C 413.249 153.334, 413.282 155, 412.082 155 C 411.075 155, 406.931 148.714, 406.632 146.735 C 405.590 139.824, 385.320 117.091, 375 111.258 C 358.053 101.680, 336.349 98.372, 320.500 102.950 M 531.500 109.760 C 525.686 112.035, 517.373 118.479, 514.339 123.064 C 510.853 128.332, 512.017 129.191, 516.188 124.429 C 524.367 115.093, 532.726 110, 539.872 110 C 549.955 110, 548.675 120.191, 538.187 123.419 C 533.512 124.857, 533.509 124.861, 537 124.924 C 540.957 124.995, 545.739 122.250, 547.647 118.810 C 552.202 110.601, 542.807 105.335, 531.500 109.760 M 226.750 112.728 C 224.688 112.944, 223 113.592, 223 114.168 C 223 114.872, 226.196 114.996, 232.750 114.547 C 246.114 113.630, 259.686 115.780, 270.500 120.529 C 272.150 121.253, 274.850 122.108, 276.500 122.429 C 278.150 122.750, 278.825 122.714, 278 122.349 C 277.175 121.984, 274.925 120.710, 273 119.517 C 263.477 113.616, 244.663 110.855, 226.750 112.728 M 333.434 119.466 C 309.213 125.630, 290.017 142.400, 279.595 166.500 C 278.643 168.700, 277.468 171.400, 276.983 172.500 C 275.366 176.168, 273 187.114, 273 190.927 C 273 196.605, 277.734 204.697, 279.774 202.506 C 280.173 202.077, 279.928 201.522, 279.229 201.273 C 273.923 199.380, 274.099 184.378, 279.567 172.349 C 280.355 170.616, 281 168.774, 281 168.256 C 281 167.738, 282.119 165.331, 283.487 162.907 C 284.855 160.483, 286.283 157.825, 286.661 157 C 290.238 149.190, 304.446 135.377, 315.178 129.277 C 332.884 119.212, 358.851 117.950, 378.339 126.208 C 381.178 127.411, 383.725 128.648, 384 128.957 C 384.275 129.266, 386.391 130.744, 388.701 132.241 C 391.012 133.739, 395.062 136.989, 397.701 139.465 C 403.998 145.371, 405.675 145.305, 399.958 139.376 C 381.629 120.364, 357.857 113.249, 333.434 119.466 M 279.720 128.921 C 278.329 130.574, 276.923 132.505, 276.596 133.213 C 276.124 134.231, 275.878 134.239, 275.417 133.250 C 274.725 131.767, 271 131.557, 271 133 C 271 133.550, 271.900 134, 273 134 C 275.336 134, 275.719 136.787, 273.500 137.638 C 272.675 137.955, 272 139.034, 272 140.037 C 272 141.040, 270.614 144.929, 268.919 148.680 C 267.224 152.431, 265.199 156.918, 264.419 158.651 C 263.639 160.384, 262.986 162.409, 262.968 163.151 C 262.951 163.893, 262.276 165.374, 261.468 166.441 C 260.661 167.509, 260 169.395, 260 170.632 C 260 171.870, 259.592 173.134, 259.094 173.442 C 258.054 174.084, 256.521 183.854, 257.332 184.665 C 257.627 184.960, 258.349 183.244, 258.936 180.851 C 260.185 175.760, 262.802 167.358, 264.028 164.500 C 266.097 159.678, 270.380 150.099, 272.523 145.500 C 273.804 142.750, 275.099 139.375, 275.400 138 C 275.879 135.814, 277.058 134.083, 282.081 128.184 C 282.698 127.461, 282.987 126.654, 282.725 126.392 C 282.463 126.130, 281.111 127.268, 279.720 128.921 M 569.580 129.871 C 569.284 130.350, 567.655 131.019, 565.959 131.358 C 557.650 133.020, 541.791 147.773, 537.033 158.268 C 524.465 185.985, 531.014 207.758, 556.967 224.547 C 572.974 234.902, 590.202 240.701, 591.736 236.250 C 592.039 235.371, 590.732 234.970, 587.333 234.900 C 579.468 234.738, 576.301 233.225, 583.500 233.069 C 588.367 232.964, 589.144 232.732, 587.614 231.844 C 586.513 231.205, 583.487 230.980, 580.349 231.303 C 577.390 231.609, 575.158 231.553, 575.389 231.179 C 575.619 230.806, 574.739 230.436, 573.431 230.357 C 569.690 230.133, 551.719 217.544, 545.405 210.724 C 536.478 201.082, 534.483 195.880, 534.580 182.500 C 534.698 166.158, 540.212 153.534, 551.941 142.753 C 557.504 137.640, 568.626 131, 571.627 131 C 572.447 131, 572.840 130.550, 572.500 130 C 571.739 128.768, 570.301 128.705, 569.580 129.871 M 568.554 137.727 C 565.431 138.522, 559.177 142.801, 558.043 144.920 C 556.167 148.424, 556.940 148.368, 560.460 144.744 C 567.104 137.903, 578.533 137.071, 584.458 142.997 C 588.639 147.178, 588.922 156.316, 585 160.517 C 574.804 171.438, 557.193 167.114, 556.882 153.614 L 556.765 148.500 555.933 153.473 C 553.353 168.910, 578.041 174.135, 587.537 160.161 C 595.752 148.070, 583.733 133.865, 568.554 137.727 M 201.196 140.958 C 193.456 148.698, 199.145 157.393, 210.628 155.373 C 216.556 154.331, 218.525 145.679, 213.889 141.043 C 209.778 136.932, 205.252 136.901, 201.196 140.958 M 201.750 143.036 C 196.572 148.682, 199.731 154.049, 208.184 153.968 C 212.937 153.923, 215 151.980, 215 147.550 C 215 140.171, 206.907 137.414, 201.750 143.036 M 603 147.659 C 603 148.022, 604.737 150.619, 606.860 153.431 C 608.983 156.243, 611.063 159.659, 611.483 161.022 C 611.902 162.385, 612.684 164.049, 613.220 164.720 C 613.756 165.391, 614.209 170.133, 614.226 175.259 C 614.271 188.320, 608.788 199.809, 601.677 201.559 C 599.531 202.087, 599.141 202.523, 600.052 203.377 C 600.940 204.210, 601.364 204.191, 601.690 203.306 C 601.931 202.650, 602.715 202.337, 603.431 202.612 C 605.087 203.247, 612.846 194.503, 613.661 191.083 C 613.999 189.662, 614.675 187.990, 615.163 187.367 C 616.725 185.374, 616.272 168.568, 614.518 163.401 C 612.293 156.847, 603 144.146, 603 147.659 M 111.399 159.602 C 108.705 161.034, 106.275 162.500, 106 162.861 C 105.725 163.222, 103.925 164.582, 102 165.882 C 96.917 169.315, 84.868 184.662, 82.617 190.570 C 81.686 193.014, 82.615 191.964, 87.550 185 C 95.394 173.930, 105.853 164.240, 115.485 159.119 C 117.677 157.953, 118.757 157, 117.884 157 C 117.012 157, 114.093 158.171, 111.399 159.602 M 485.285 166.967 C 481.913 169.024, 478.200 174.193, 475.564 180.500 C 469.944 193.953, 483.195 211.333, 499.071 211.333 C 505.248 211.333, 512.152 208.713, 515.373 205.145 C 517.822 202.433, 520.144 192.501, 518.996 189.654 C 518.297 187.922, 518.114 188.341, 518.063 191.790 C 517.814 208.651, 496.803 215.239, 483.232 202.712 C 479.833 199.573, 476 190.704, 476 185.975 C 476 182.024, 479.007 176.361, 484 170.909 C 490.808 163.475, 502.934 167.281, 512.624 179.894 C 516.867 185.417, 517.036 183.907, 512.878 177.629 C 505.797 166.939, 493.271 162.099, 485.285 166.967 M 0 239 C 0 263.933, 0.280 284.053, 0.623 283.711 C 1.388 282.945, 1.315 194.982, 0.549 194.215 C 0.247 193.914, 0 214.067, 0 239 M 385.944 203.079 C 380.732 210.398, 392.065 216.595, 398.344 209.860 C 402.052 205.882, 398.266 200, 391.997 200 C 388.827 200, 387.744 200.551, 385.944 203.079 M 387.623 202.864 C 383.553 207.361, 388.947 213.567, 394.587 210.875 C 397.841 209.322, 399.059 204.875, 396.817 202.732 C 394.587 200.599, 389.608 200.671, 387.623 202.864 M 326 203.653 C 320.689 205.782, 317.766 212.606, 319.928 217.826 C 323.326 226.030, 338.673 226.032, 342.071 217.829 C 345.415 209.755, 334.594 200.210, 326 203.653 M 326.030 206.279 C 317.756 210.466, 320.254 220.838, 329.758 221.751 C 334.292 222.186, 335.146 221.945, 337.544 219.547 C 344.512 212.579, 335.074 201.703, 326.030 206.279 M 111.734 211.088 C 102.842 213.183, 93.106 220.563, 88.179 228.942 C 85.733 233.104, 85.500 234.413, 85.500 244 C 85.500 258.978, 90.623 273.028, 103.550 293.500 C 106.328 297.900, 111.706 306.675, 115.500 313 C 123.012 325.523, 124.941 328.374, 140.528 350 C 146.276 357.975, 152.888 367.650, 155.221 371.500 C 157.554 375.350, 159.808 378.650, 160.231 378.833 C 160.654 379.017, 161 379.769, 161 380.505 C 161 381.242, 162.881 383.454, 165.180 385.422 C 169.278 388.929, 169.307 389, 166.680 389 C 165.206 389, 164 388.592, 164 388.092 C 164 387.316, 152.423 369.423, 151 368 C 150.725 367.725, 148.709 365.250, 146.521 362.500 C 144.332 359.750, 142.082 356.976, 141.521 356.336 C 140.959 355.696, 139.375 353.692, 138 351.881 C 136.625 350.071, 134.456 347.444, 133.180 346.045 C 131.903 344.645, 136.211 350.700, 142.751 359.500 C 155.419 376.544, 162.361 386.870, 162.248 388.500 C 162.210 389.050, 161.285 392.650, 160.193 396.500 C 155.588 412.737, 151.193 456.187, 153.006 467.539 C 155.956 486.002, 163.599 491.467, 186.500 491.489 C 197.868 491.499, 198.720 491.357, 202.670 488.788 C 212.400 482.460, 214.528 476.094, 215.968 449 C 217.677 416.853, 218.811 403.819, 220.447 397.540 C 221.301 394.262, 222 389.922, 222 387.897 C 222 381.263, 225.612 365.692, 229.051 357.500 C 236.202 340.467, 239.352 333.742, 245.211 323 C 254.373 306.203, 267 280.230, 267 278.182 C 267 277.624, 267.342 277.017, 267.761 276.833 C 268.677 276.432, 277.476 254.145, 278.947 248.500 C 283.367 231.534, 271.515 217.676, 252.479 217.552 C 236.822 217.450, 228.832 226.067, 211.338 261.918 C 205.696 273.480, 195.727 298.752, 193.555 306.999 C 192.155 312.314, 189.589 313.493, 188.545 309.300 C 188.161 307.760, 185.150 299.975, 181.853 292 C 178.555 284.025, 173.878 272.709, 171.459 266.854 C 169.040 260.998, 165.022 251.844, 162.531 246.511 C 160.039 241.178, 158 236.664, 158 236.479 C 158 236.294, 156.384 233.431, 154.409 230.115 C 145.105 214.496, 128.567 207.122, 111.734 211.088 M 604 217.293 C 596.792 220.306, 594.910 220.922, 588.083 222.499 C 583.129 223.644, 579.005 223.993, 575.663 223.550 C 571.208 222.959, 570.802 223.057, 571.953 224.443 C 575.060 228.187, 596.328 224.761, 605.362 219.062 C 608.660 216.981, 607.707 215.744, 604 217.293 M 243.429 220.511 C 239.311 222.319, 230.963 230.747, 228.494 235.589 C 227.397 237.740, 226.275 239.725, 226 240 C 224.358 241.642, 214.470 261.205, 210.331 271 C 208.455 275.440, 205.974 280.963, 204.784 283.347 C 203.976 284.965, 204.426 287.034, 205.341 285.917 C 205.727 285.446, 210.408 275.508, 214.487 266.500 C 225.923 241.242, 235.323 226.978, 243.210 222.912 C 245.251 221.861, 247.640 221, 248.519 221 C 249.399 221, 249.840 220.550, 249.500 220 C 248.706 218.716, 247.238 218.839, 243.429 220.511 M 143 221.563 C 143 222.137, 144.326 224.409, 145.947 226.614 C 148.796 230.487, 158.267 248.711, 163.298 260 C 166.581 267.367, 169.619 274.066, 173.500 282.500 C 175.272 286.350, 177.346 291.004, 178.111 292.841 C 180.991 299.769, 185.979 309.401, 185.443 307 C 184.842 304.311, 183.020 299.611, 179.328 291.226 C 178.050 288.325, 175.851 283.150, 174.440 279.726 C 170.908 271.153, 169.610 268.302, 162.871 254.311 C 159.642 247.607, 157 241.885, 157 241.596 C 157 241.307, 154.880 237.567, 152.288 233.285 C 147.482 225.343, 143 219.687, 143 221.563 M 493.687 230.805 C 488.429 236.293, 491.469 242.370, 499.412 242.250 C 507.737 242.124, 510.528 236.820, 505.335 230.991 C 501.785 227.008, 497.392 226.937, 493.687 230.805 M 494.655 231.829 C 491.421 235.403, 492.865 239.697, 497.601 240.585 C 504.210 241.825, 508.686 235.741, 504.171 231.655 C 501.744 229.458, 496.717 229.550, 494.655 231.829 M 65.268 243.500 C 65.464 250.100, 66.123 256.400, 66.732 257.500 C 67.341 258.600, 68.846 261.525, 70.076 264 C 76.100 276.122, 77.821 279.099, 78.330 278.276 C 78.634 277.783, 77.501 274.708, 75.813 271.440 C 74.125 268.173, 72.097 264.150, 71.307 262.500 C 70.518 260.850, 69.373 258.600, 68.765 257.500 C 68.156 256.400, 67.456 250.775, 67.210 245 C 66.963 239.225, 66.344 233.825, 65.836 233 C 65.249 232.048, 65.041 235.882, 65.268 243.500 M 226.498 253.804 C 224.371 257.487, 220.843 263.875, 218.658 268 C 216.473 272.125, 214.083 276.625, 213.348 278 C 212.614 279.375, 212.010 281.025, 212.006 281.667 C 212.003 282.308, 211.662 282.983, 211.250 283.167 C 210.838 283.350, 209.384 285.975, 208.021 289 C 206.657 292.025, 204.345 296.525, 202.882 299 C 201.420 301.475, 199.889 304.604, 199.480 305.953 C 198.002 310.829, 201.362 305.693, 207 294.459 C 210.025 288.431, 212.725 283.275, 213 283 C 213.275 282.725, 216.080 277.325, 219.232 271 C 226.167 257.087, 230.209 249.712, 231.357 248.875 C 231.828 248.531, 231.797 247.993, 231.289 247.679 C 230.780 247.364, 228.624 250.121, 226.498 253.804 M 89.015 254.750 C 89.007 256.538, 89.408 258, 89.906 258 C 90.405 258, 90.591 258.849, 90.319 259.887 C 90.048 260.925, 90.315 262.077, 90.913 262.446 C 91.511 262.816, 92 263.906, 92 264.869 C 92 267.483, 100.796 284.364, 107.321 294.272 C 110.474 299.060, 113.354 303.770, 113.721 304.738 C 114.088 305.707, 114.976 307.095, 115.694 307.821 C 116.412 308.548, 117 309.786, 117 310.571 C 117 311.357, 117.450 312, 118 312 C 118.550 312, 119 312.525, 119 313.166 C 119 314.434, 127.843 329, 128.613 329 C 129.045 329, 126.370 323.826, 118.276 309 C 116.625 305.975, 112.497 299.225, 109.104 294 C 105.711 288.775, 100.889 280.225, 98.387 275 C 95.886 269.775, 93.481 264.808, 93.043 263.962 C 92.605 263.115, 91.945 260.631, 91.575 258.441 C 90.625 252.823, 89.035 250.529, 89.015 254.750 M 406.500 261.126 C 400.665 261.909, 397.235 262.834, 387 266.384 C 378.169 269.448, 377.303 269.551, 379.128 267.325 C 380.310 265.883, 380.115 265.901, 377.724 267.457 C 373.095 270.470, 371.208 274.197, 369.570 283.560 C 367.811 293.616, 367.460 307.337, 369.124 301 C 369.629 299.075, 370.434 293.450, 370.912 288.500 C 371.936 277.904, 374.051 272.797, 378.040 271.291 C 381.470 269.996, 382.872 270.876, 379.824 272.411 C 376.485 274.092, 374.015 279.506, 373.006 287.354 C 372.501 291.284, 371.319 299.225, 370.381 305 C 369.442 310.775, 368.499 321.362, 368.286 328.526 C 367.917 340.890, 368.017 341.729, 370.254 345.026 C 372.293 348.031, 373.077 348.456, 376.056 348.174 C 377.950 347.994, 388.125 347.727, 398.666 347.579 C 415.154 347.349, 418.069 347.074, 419.535 345.608 C 422.197 342.946, 422.626 344.705, 419.996 347.504 C 416.962 350.734, 418.707 350.754, 422.185 347.530 C 424.267 345.598, 424.980 343.798, 425.448 339.280 C 425.778 336.101, 426.487 329.645, 427.024 324.932 C 427.561 320.220, 427.944 314.370, 427.875 311.932 L 427.750 307.500 426.812 313 C 426.296 316.025, 425.518 321.650, 425.083 325.500 C 423.825 336.648, 423.843 326.565, 425.106 312.722 C 426.395 298.601, 427.783 293.531, 428.041 302 C 428.183 306.635, 428.498 305.537, 430.047 295.023 C 431.059 288.161, 432.362 281.502, 432.943 280.226 C 437.121 271.056, 420.729 259.216, 406.500 261.126 M 466.500 265.366 C 463.750 266.011, 461.971 266.838, 462.548 267.204 C 463.124 267.569, 464.249 267.455, 465.048 266.949 C 467.914 265.136, 473 265.808, 473 268 C 473 269.960, 470.156 270.823, 468.652 269.319 C 467.615 268.282, 458.108 268.365, 458.751 269.406 C 459.061 269.907, 458.310 270.053, 457.077 269.730 C 455.443 269.303, 454.984 269.516, 455.370 270.522 C 455.708 271.402, 455.393 271.704, 454.498 271.361 C 452.434 270.569, 446.539 275.479, 443.134 280.827 C 438.759 287.698, 436.986 295.699, 436.336 311.500 L 435.761 325.500 440.520 334.766 C 446.171 345.769, 445.398 345.431, 463.327 344.771 C 491.348 343.741, 498.638 336.704, 500.981 308.424 C 502.288 292.637, 502.137 279.301, 500.602 275.052 C 497.291 265.885, 482.357 261.643, 466.500 265.366 M 678 264.878 C 678 265.360, 678.621 266.270, 679.379 266.900 C 681.416 268.590, 682.147 273.741, 680.971 278.108 C 678.506 287.261, 664.622 291.013, 657.533 284.443 C 656.140 283.152, 655 282.545, 655 283.095 C 655 283.645, 656.161 285.171, 657.579 286.486 C 667.921 296.071, 686.950 283.774, 683.014 270.049 C 681.709 265.497, 678 261.672, 678 264.878 M 288.149 267.634 C 281.127 269.540, 278.424 271.415, 275.526 276.392 C 271.924 282.576, 267 297.718, 267 302.608 C 267 304.635, 269.014 301.303, 269.066 299.191 C 269.166 295.141, 272.553 285.468, 273.395 286.830 C 273.793 287.474, 273.754 288.563, 273.309 289.250 C 269.434 295.238, 266.725 329.476, 269.968 331.480 C 270.414 331.756, 271.069 333.140, 271.425 334.556 C 273.059 341.069, 284.586 349.015, 294.500 350.464 C 300.582 351.353, 301.989 352.103, 299.434 353.096 C 298.370 353.509, 301.284 353.584, 305.908 353.263 C 312.156 352.829, 314.132 352.977, 313.599 353.840 C 313.205 354.478, 311.671 355.007, 310.191 355.015 C 308.711 355.024, 306.825 355.467, 306 356 C 304.936 356.687, 306.191 356.974, 310.312 356.985 C 316.699 357.002, 323.811 358.881, 331.514 362.587 C 337.922 365.670, 339.429 365.621, 341.791 362.250 C 350.867 349.302, 355.540 313.820, 351.505 288.500 C 349.512 275.991, 345.859 271.364, 335 267.592 C 328.763 265.426, 325.384 265.606, 318 268.500 C 314.491 269.875, 310.608 271, 309.369 271 C 308.131 271, 306.792 271.527, 306.394 272.171 C 305.915 272.946, 305.397 272.603, 304.862 271.156 C 303.948 268.686, 298.770 266.189, 298.187 267.938 C 297.993 268.522, 296.858 268.948, 295.667 268.884 C 293.957 268.792, 293.872 268.671, 295.262 268.308 C 297.154 267.815, 296.671 265.940, 294.691 266.091 C 294.036 266.141, 291.092 266.835, 288.149 267.634 M 529.860 273.434 C 524.256 274.587, 517.893 278.463, 516.098 281.817 C 514.777 284.286, 513.246 293.406, 511.534 309 C 510.720 316.425, 509.349 327, 508.488 332.500 C 507.627 338, 506.278 347.450, 505.492 353.500 C 504.705 359.550, 503.368 369.675, 502.520 376 C 500.397 391.843, 497.937 419.377, 497.517 432 C 497.175 442.277, 497.185 442.330, 497.961 434.500 C 498.397 430.100, 499.263 420.039, 499.885 412.143 C 500.507 404.246, 501.246 396.821, 501.527 395.643 C 501.808 394.464, 502.700 388.775, 503.509 383 C 504.317 377.225, 505.677 368.900, 506.531 364.500 C 507.384 360.100, 508.507 353.125, 509.027 349 C 509.546 344.875, 510.233 340.600, 510.552 339.500 C 511.171 337.369, 513.175 324.189, 515.493 307 C 517.535 291.864, 518.110 289, 519.109 289 C 519.599 289, 520 288.025, 520 286.833 C 520 285.642, 520.256 284.923, 520.569 285.235 C 520.882 285.548, 520.606 288.436, 519.956 291.652 C 518.539 298.658, 516.308 313.483, 515.012 324.500 C 514.494 328.900, 513.802 333.625, 513.473 335 C 513.144 336.375, 512.248 341.550, 511.480 346.500 C 510.713 351.450, 509.372 359.775, 508.499 365 C 505.467 383.161, 504.008 394.578, 503.007 408 C 502.454 415.425, 501.551 426.236, 501.003 432.025 C 500.454 437.814, 499.707 450.769, 499.343 460.814 C 498.979 470.860, 498.303 479.313, 497.841 479.598 C 497.378 479.884, 496.931 472.554, 496.846 463.309 L 496.693 446.500 495.873 459.500 C 494.091 487.761, 497.899 496.727, 513.720 501.528 C 528.034 505.871, 539.600 501.060, 543.367 489.193 C 545.104 483.723, 547.499 451.436, 547.350 435.500 C 547.272 427.121, 547.440 425.572, 548.054 429 C 548.636 432.254, 548.776 430.593, 548.559 423 C 548.393 417.225, 548.454 413.971, 548.694 415.769 C 549.174 419.371, 551 419.234, 551 415.596 C 551 412.597, 554.231 409.754, 557.168 410.170 C 559.813 410.544, 559.698 408.445, 558.470 434 C 557.315 458.043, 561.536 485.106, 568.240 496.636 C 572.378 503.754, 586.859 509.708, 595.409 507.806 C 609.434 504.687, 618.959 495.479, 621.175 482.897 C 622.929 472.938, 621.750 468.867, 614.930 461.342 C 611.669 457.743, 609 454.367, 609 453.840 C 609 453.313, 608.598 453.131, 608.106 453.434 C 607.615 453.738, 607.211 452.977, 607.209 451.743 C 607.206 449.678, 602.805 432.945, 599.781 423.500 C 598.059 418.123, 593.879 410.957, 592.839 411.600 C 592.377 411.885, 592 411.477, 592 410.694 C 592 407.889, 587.930 403.813, 586.398 405.085 C 585.629 405.723, 585 405.902, 585 405.483 C 585 405.063, 585.788 404.080, 586.750 403.297 C 587.852 402.401, 588.090 401.699, 587.392 401.401 C 582.306 399.229, 582.672 398.206, 588.530 398.222 C 595.290 398.240, 602.184 395.665, 605.774 391.781 C 608.695 388.620, 609.865 384.595, 611.050 373.627 C 612.722 358.158, 618.601 350.541, 628.890 350.514 C 635.831 350.496, 636.235 351.935, 630.052 354.651 C 626.832 356.066, 624.102 358.257, 622.078 361.051 C 618.291 366.278, 617.848 369.990, 621.575 365.261 C 622.979 363.480, 626.550 360.414, 629.511 358.449 C 640.312 351.280, 644.022 341.463, 642.142 325.031 C 639.040 297.922, 623.556 283.696, 597 283.556 C 584.139 283.488, 579.966 285.148, 571.039 293.883 C 567.718 297.133, 564.944 299.614, 564.875 299.396 C 564.806 299.178, 564.682 295.962, 564.599 292.250 C 564.493 287.523, 563.889 284.664, 562.582 282.709 C 557.754 275.487, 541.828 270.972, 529.860 273.434 M 452.500 274.713 C 449.676 275.393, 445.147 279.858, 442.950 284.129 C 439.626 290.590, 436.994 310.431, 438.855 315 C 439.681 317.028, 439.885 316.060, 439.937 309.877 C 440.074 293.358, 446.889 277, 453.635 277 C 454.386 277, 455 276.325, 455 275.500 C 455 274.675, 454.887 274.052, 454.750 274.116 C 454.613 274.180, 453.600 274.449, 452.500 274.713 M 497.552 287.916 C 497.124 288.608, 497.163 289.562, 497.637 290.035 C 498.121 290.518, 498.103 296.410, 497.596 303.448 C 496.739 315.339, 495.752 318.781, 494.643 313.750 C 494.370 312.512, 494.390 314.371, 494.687 317.879 C 495.110 322.883, 494.952 324.089, 493.956 323.473 C 493.019 322.894, 492.841 323.283, 493.278 324.955 C 493.604 326.202, 493.450 327.735, 492.935 328.361 C 488.359 333.929, 487.863 334.404, 488.405 332.698 C 488.761 331.578, 488.577 331.143, 487.920 331.549 C 487.339 331.908, 487.124 332.882, 487.443 333.712 C 487.862 334.804, 487.565 335.047, 486.371 334.589 C 485.314 334.183, 484.184 334.720, 483.232 336.079 C 482.049 337.769, 481.561 337.927, 480.853 336.852 C 480.129 335.754, 479.708 335.831, 478.608 337.267 C 477.803 338.318, 476.594 338.782, 475.627 338.410 C 474.732 338.067, 474 338.188, 474 338.679 C 474 339.170, 473.212 339.615, 472.250 339.669 C 471.288 339.722, 468.925 340.013, 467 340.315 C 465.075 340.618, 460.238 340.895, 456.250 340.933 C 451.851 340.973, 449 341.417, 449 342.060 C 449 343.830, 477.360 341.776, 479.696 339.837 C 480.413 339.242, 481 339.031, 481 339.368 C 481 339.706, 483.192 338.633, 485.872 336.984 C 491.568 333.479, 495.601 327.852, 497.582 320.645 C 500.458 310.182, 500.434 283.253, 497.552 287.916 M 305 293.089 C 302.704 294.967, 302.685 295.043, 304.772 294.020 C 306.022 293.407, 309.836 293.039, 313.247 293.203 C 321.704 293.608, 322.288 294.780, 321.606 310 C 320.815 327.653, 319.500 329.185, 319.500 312.455 C 319.500 300.635, 319.221 297.755, 318 296.981 C 315.638 295.484, 306.694 295.826, 304.297 297.505 C 302.350 298.868, 302.103 298.845, 301.666 297.255 C 301.400 296.290, 301.424 297.413, 301.719 299.750 C 302.242 303.894, 300.571 306.055, 299.786 302.250 C 299.587 301.288, 299.543 306.752, 299.688 314.394 C 299.903 325.747, 300.258 328.628, 301.631 330.144 C 303.660 332.387, 305.438 332.584, 304.629 330.477 C 304.158 329.248, 304.414 329.151, 305.957 329.977 C 310.171 332.232, 319.924 329.944, 321.834 326.252 C 322.332 325.288, 323.285 320.079, 323.952 314.675 C 325.358 303.273, 324.205 295.666, 320.633 292.772 C 317.488 290.224, 308.274 290.411, 305 293.089 M 700.427 314.500 C 704.272 333.711, 705.336 352, 702.609 352 C 701.599 352, 701.071 353.984, 700.680 359.250 C 700.190 365.843, 699.325 370.702, 696.005 385.500 C 695.388 388.250, 694.505 391.400, 694.043 392.500 C 693.581 393.600, 692.226 397.650, 691.031 401.500 C 686.368 416.535, 680.172 426.144, 671.071 432.451 C 667.771 434.738, 665.920 435.214, 659.327 435.472 C 649.411 435.859, 649.755 435.794, 650.585 437.137 C 651.349 438.374, 664.862 437.747, 668.656 436.298 C 675.338 433.747, 685.429 421.307, 689.989 410 C 691.208 406.975, 692.589 403.600, 693.056 402.500 C 694.661 398.721, 698.206 385.145, 700.497 374 C 701.232 370.425, 702.610 364.350, 703.560 360.500 C 707.304 345.325, 706.125 320.099, 701.368 313.605 C 699.874 311.565, 699.845 311.593, 700.427 314.500 M 248.784 333.791 C 243.989 343.531, 238.980 354.425, 237.651 358 C 236.322 361.575, 234.881 365.400, 234.448 366.500 C 232.974 370.249, 231.176 377.499, 231.611 377.940 C 231.850 378.181, 232.807 377.281, 233.738 375.940 C 241.498 364.750, 252.638 356.758, 266.308 352.572 C 267.962 352.065, 267.892 351.725, 265.484 348.568 C 261.171 342.913, 258.766 335.326, 258.106 325.291 L 257.500 316.082 248.784 333.791 M 97.327 323.132 C 98.334 333.177, 101.873 341.984, 111.248 357.771 C 124.900 380.760, 146.497 403.103, 150.854 398.746 C 153.672 395.928, 152.070 392.215, 144.174 383.258 C 137.032 375.157, 128.931 364.269, 113.848 342.500 C 108.354 334.570, 105.807 329.822, 104.461 325 C 103.652 322.100, 101.339 319.252, 98.606 317.789 C 96.782 316.813, 96.720 317.073, 97.327 323.132 M 237.411 327.744 C 236.360 329.810, 235.275 331.725, 235 332.001 C 234.389 332.612, 231.930 337.242, 227.298 346.500 C 223.838 353.415, 222.249 356.860, 219.578 363.235 C 218.826 365.031, 217.739 367.625, 217.164 369 C 213.914 376.759, 208.915 408.558, 209.145 420 L 209.235 424.500 210.105 419.500 C 210.584 416.750, 211.414 411.125, 211.950 407 C 215.120 382.603, 216.683 374.670, 219.564 368.349 C 220.354 366.616, 221 364.697, 221 364.085 C 221 363.473, 221.421 362.191, 221.936 361.236 C 222.450 360.281, 223.516 358.150, 224.303 356.500 C 225.091 354.850, 228.993 347.061, 232.975 339.191 C 236.957 331.320, 240.014 324.680, 239.768 324.435 C 239.522 324.189, 238.462 325.678, 237.411 327.744 M 567.758 327.657 C 563.621 329.837, 561.864 335.120, 558.998 354 C 557.572 363.390, 556.251 368.525, 556.102 365.250 C 556.046 364.012, 555.521 363, 554.937 363 C 552.809 363, 554.359 369.480, 556.562 369.795 C 561.382 370.484, 573.785 362.489, 572.618 359.446 C 572.364 358.785, 572.497 357.851, 572.913 357.372 C 576.720 352.985, 578.773 335.058, 576.047 330 C 573.723 325.686, 572.276 325.277, 567.758 327.657 M 667.500 332.721 C 662.457 334.002, 657.767 343.502, 661.146 345.590 C 661.948 346.086, 662.098 345.528, 661.646 343.726 C 659.817 336.437, 671.599 331.872, 677.364 337.636 C 680.402 340.675, 680.578 341.982, 678.490 346.020 C 676.927 349.042, 673.791 351.271, 670.750 351.521 C 667.588 351.782, 667.597 353, 670.762 353 C 674.502 353, 680.517 347.775, 681.559 343.619 C 683.168 337.208, 674.941 330.831, 667.500 332.721 M 357.574 342.750 C 353.522 358.625, 351.748 362.743, 346.535 368.368 L 344.017 371.084 347.596 374.663 C 355.777 382.844, 357.788 392.121, 358.396 424.500 C 359.098 461.886, 361.868 474.930, 372.518 491 C 380.197 502.588, 392.181 509, 406.162 509 C 417.965 509, 424.881 504.896, 431.535 493.943 C 433.520 490.674, 435.483 488, 435.897 488 C 436.311 488, 437.516 490.775, 438.575 494.167 C 441.319 502.958, 445.534 506.232, 454.188 506.296 C 461.307 506.349, 464.526 505.032, 472.920 498.632 C 485.293 489.200, 487.238 481.427, 488.965 434.500 C 489.512 419.650, 490.469 398.393, 491.093 387.262 C 492.385 364.211, 492.033 360.879, 487.867 356.713 L 484.881 353.727 468.690 354.409 C 447.236 355.314, 446.461 355.487, 441.470 360.477 L 437.279 364.669 436.593 376.084 C 436.216 382.363, 435.498 392, 434.998 397.500 C 433.519 413.753, 432.785 437.678, 433.817 436 C 434.324 435.175, 435.005 429.325, 435.329 423 C 437.293 384.672, 439.723 360.632, 439.877 378 C 439.959 387.242, 438.170 430.721, 437.511 435.500 L 436.959 439.500 438.488 435 C 439.520 431.963, 440.307 423.569, 440.908 409.184 C 441.397 397.461, 442.093 387.574, 442.453 387.213 C 443.772 385.894, 444.804 389.438, 444.402 393.909 C 444.175 396.434, 443.559 405.966, 443.033 415.092 C 442.507 424.217, 441.541 433.892, 440.887 436.592 C 440.232 439.291, 439.288 443.224, 438.788 445.330 C 437.577 450.437, 432.210 456.250, 428.707 456.250 C 423.262 456.250, 418.028 450.163, 417.985 443.782 C 417.972 441.942, 417.782 441.790, 417 443 C 416.307 444.073, 416.026 442.988, 416.015 439.191 C 416.006 436.010, 416.389 434.122, 416.971 434.482 C 418.405 435.368, 418.814 432.161, 419.474 414.852 C 419.803 406.246, 420.502 396.571, 421.029 393.352 C 422.388 385.038, 423.399 366.728, 422.661 363.786 C 421.762 360.202, 413.279 356.111, 403.916 354.746 C 389.027 352.576, 370.418 357.501, 367.061 364.500 C 363.351 372.235, 363.023 448.586, 366.617 467.750 C 366.953 469.538, 366.822 471, 366.328 471 C 360.743 471, 356.345 375.678, 361.333 362.750 C 362.341 360.137, 363.548 358, 364.015 358 C 365.969 358, 365.942 354.016, 363.965 350.666 C 362.811 348.710, 361.609 344.609, 361.293 341.554 C 360.541 334.266, 359.668 334.547, 357.574 342.750 M 620.500 347.400 C 613.943 350.290, 609.831 356.388, 607.280 367 C 605.381 374.902, 605.246 379.646, 606.875 381.275 C 607.838 382.238, 608.055 381.438, 607.898 377.499 C 607.431 365.750, 612.697 354.317, 620.641 349.834 C 623.588 348.170, 626 346.627, 626 346.405 C 626 345.630, 623.481 346.087, 620.500 347.400 M 426.500 351 C 424.843 352.831, 424.824 353.148, 426.276 354.752 C 427.148 355.716, 428.494 357.723, 429.266 359.212 L 430.671 361.920 433.836 357.431 C 437.532 352.187, 437.659 351.423, 435.066 350.035 C 432.036 348.414, 428.478 348.815, 426.500 351 M 61.557 361.250 C 61.168 363.587, 60.647 366.625, 60.399 368 C 59.302 374.081, 57.938 383.146, 56.936 391 C 55.724 400.502, 56.505 424.431, 58.109 426.921 C 58.812 428.013, 58.961 424.338, 58.590 415 C 58.095 402.509, 59.077 381.871, 60.447 376 C 60.768 374.625, 61.463 370.528, 61.991 366.895 C 62.519 363.262, 63.236 359.549, 63.583 358.645 C 63.930 357.740, 63.775 357, 63.239 357 C 62.702 357, 61.945 358.913, 61.557 361.250 M 277 359.115 C 254.133 361.464, 237.485 376.542, 231.305 400.500 C 228.634 410.860, 228.716 437.479, 231.441 444.500 C 240.184 467.022, 265.087 476.606, 286.748 465.787 C 289.806 464.260, 290.615 465.413, 288.621 468.456 C 284.610 474.577, 272.791 477.995, 255.568 478.015 C 247.127 478.024, 241.626 478.472, 240.030 479.279 C 232.596 483.041, 230.687 494.434, 235.952 503.615 C 248.700 525.840, 286.472 532.523, 317.280 518.004 C 330.871 511.599, 343.978 492.477, 348.863 471.926 C 355.926 442.216, 353.036 395.486, 343.175 379.937 C 340.269 375.355, 329.640 366.539, 325 364.862 C 323.625 364.365, 321.600 363.540, 320.500 363.029 C 317.360 361.569, 305.358 359.820, 295.500 359.386 C 290.550 359.168, 285.825 358.868, 285 358.719 C 284.175 358.570, 280.575 358.748, 277 359.115 M 637.500 360.549 C 631.681 363.531, 630.423 367.976, 633.983 372.976 C 637.540 377.971, 645.097 377.492, 648.301 372.067 C 653.186 363.799, 646.037 356.176, 637.500 360.549 M 271.666 361.480 C 263.856 363.187, 256.065 367.401, 249.970 373.214 C 247.211 375.846, 245.185 378, 245.468 378 C 245.940 378, 253.208 372.730, 257.153 369.528 C 261.562 365.949, 274.935 362, 282.648 362 C 286.680 362, 287.070 362.203, 286.500 364 C 286.042 365.443, 286.320 366, 287.500 366 C 288.680 366, 288.958 365.443, 288.500 364 C 288.030 362.520, 288.337 361.969, 289.683 361.882 C 292.808 361.678, 285.709 360.237, 281.500 360.221 C 279.300 360.212, 274.875 360.779, 271.666 361.480 M 635.621 365.064 C 632.069 371.078, 637.549 376.703, 644 373.664 C 646.839 372.326, 648.046 365.966, 645.942 363.430 C 643.661 360.682, 637.647 361.634, 635.621 365.064 M 487.608 367.578 C 486.529 370.392, 485.798 414.293, 486.778 417.500 C 487.420 419.603, 487.924 412.484, 488.462 393.698 C 489.194 368.146, 489.052 363.815, 487.608 367.578 M 689.939 387.250 C 689.255 391.238, 688.314 394.928, 687.848 395.450 C 687.382 395.972, 687 397.048, 687 397.840 C 687 398.633, 686.036 401.355, 684.858 403.890 C 683.680 406.426, 681.992 410.063, 681.108 411.973 C 676.648 421.605, 666.161 430.973, 659.790 431.015 C 658.087 431.027, 657.855 431.256, 658.886 431.908 C 661.376 433.485, 669.140 429.955, 674.108 424.987 C 678.706 420.389, 686.962 405.263, 688.565 398.500 C 688.956 396.850, 689.676 394.989, 690.165 394.365 C 691.165 393.088, 692.596 380, 691.735 380 C 691.431 380, 690.622 383.262, 689.939 387.250 M 291.521 386.111 C 285.737 387.496, 277.206 396.773, 280.081 398.550 C 280.586 398.862, 281 398.502, 281 397.749 C 281 395.915, 286.870 390, 289.792 388.889 C 295.902 386.566, 304.566 388.282, 309.240 392.741 C 312.111 395.480, 314.186 395.124, 312.374 392.202 C 309.467 387.515, 298.740 384.382, 291.521 386.111 M 235.337 396.250 C 231.498 409.851, 231 413.032, 231 423.966 C 231 446.148, 236.745 456.751, 252.877 464.339 C 261.122 468.218, 273.775 468.762, 283 465.636 C 286.025 464.611, 289.151 463.671, 289.946 463.549 C 290.741 463.426, 291.566 462.802, 291.779 462.163 C 292.212 460.865, 290.744 460.589, 289.583 461.750 C 289.171 462.163, 288.533 462.539, 288.167 462.586 C 287.800 462.634, 286.825 462.966, 286 463.325 C 285.175 463.684, 282.475 464.193, 280 464.455 C 277.525 464.717, 274.280 465.221, 272.788 465.575 C 267.394 466.855, 250.815 462.646, 252.765 460.491 C 253.169 460.045, 252.965 459.986, 252.310 460.362 C 250.307 461.510, 238 452.874, 238 450.320 C 238 449.594, 237.595 449, 237.099 449 C 235.272 449, 233.663 437.107, 233.650 423.500 C 233.636 409.733, 234.544 403.195, 237.505 395.730 C 239.162 391.550, 239.423 389, 238.191 389 C 237.747 389, 236.462 392.262, 235.337 396.250 M 288.791 391.551 C 287.301 392.359, 284.658 395.091, 282.917 397.620 C 280.992 400.419, 279.482 401.779, 279.059 401.096 C 277.495 398.565, 275.794 415.300, 277.087 420.500 C 280.674 434.931, 294.922 440.644, 304.836 431.625 C 311.636 425.439, 314.145 405.816, 309.166 397.766 C 304.480 390.189, 296.042 387.615, 288.791 391.551 M 163.097 397.383 C 161.692 399.076, 160.312 406.096, 158.945 418.500 C 158.400 423.450, 157.514 430.546, 156.977 434.269 C 155.378 445.350, 155.742 466.335, 157.634 472.119 C 159.576 478.057, 163.766 482.542, 169.780 485.120 C 174.456 487.124, 184.459 487.684, 185.500 486 C 185.882 485.382, 184.105 485, 180.842 485 C 169.633 485, 162.039 480.069, 159.414 471.085 C 157.811 465.598, 157.863 438.597, 159.502 425 C 161.179 411.099, 161.885 406.992, 163.429 402.151 C 165.214 396.558, 165.103 394.966, 163.097 397.383 M 427.622 405.250 C 425.320 437.716, 425.804 449, 429.501 449 C 430.580 449, 430.534 448.373, 429.269 445.837 C 427.911 443.114, 427.777 439.430, 428.305 419.337 C 428.643 406.502, 428.775 396, 428.598 396 C 428.422 396, 427.982 400.163, 427.622 405.250 M 292.078 408.160 C 286.750 418.822, 288.210 429, 295.068 429 C 298.950 429, 300.506 425.238, 300.386 416.142 C 300.185 400.973, 297.134 398.042, 292.078 408.160 M 555.048 406.667 C 551.757 408.101, 548.698 411.031, 549.576 411.909 C 549.802 412.136, 550.819 411.569, 551.835 410.649 C 552.852 409.729, 555.442 408.870, 557.591 408.738 L 561.500 408.500 561 416.500 C 559.911 433.929, 560.579 461.318, 562.305 470 C 566.891 493.067, 571.372 499.307, 584.167 500.441 C 584.533 500.473, 585.171 500.837, 585.583 501.250 C 586.626 502.292, 590.764 502.191, 591.434 501.107 C 591.737 500.616, 588.985 499.618, 585.316 498.889 C 567.216 495.291, 563.427 483.974, 563.590 434 C 563.693 402.529, 563.795 402.857, 555.048 406.667 M 213.733 415.500 C 213.334 417.150, 212.561 424.125, 212.016 431 C 210.358 451.929, 208.943 465.334, 208.032 468.742 C 207.520 470.657, 207.541 472.216, 208.083 472.551 C 208.587 472.863, 209 472.281, 209 471.259 C 209 470.237, 209.424 468.972, 209.942 468.450 C 210.461 467.927, 211.357 461.650, 211.934 454.500 C 212.511 447.350, 213.461 436.366, 214.043 430.091 C 214.626 423.815, 214.958 417.290, 214.781 415.591 L 214.459 412.500 213.733 415.500 M 659.138 446.945 C 639.268 454.300, 625.982 476.923, 626.100 503.197 C 626.162 517.151, 627.802 521.741, 635.500 529.511 C 647.074 541.192, 665.703 542.416, 682.420 532.593 C 711.044 515.775, 714.093 465.150, 687.506 448.156 C 681.924 444.588, 667.202 443.960, 659.138 446.945 M 56 451.895 C 56 454.211, 59.595 466.330, 61.564 470.651 C 62.354 472.384, 63 474.115, 63 474.497 C 63 475.628, 67.068 481, 67.925 481 C 69.082 481, 70.168 464.025, 69.269 459.971 C 68.685 457.333, 68.380 459.119, 68 467.414 C 67.436 479.721, 66.952 479.590, 62.924 466.047 C 60.653 458.408, 57.262 450, 56.453 450 C 56.204 450, 56 450.853, 56 451.895 M 0.382 498.500 C 0.369 522.150, 0.616 535.650, 0.930 528.500 C 1.243 521.350, 1.254 502, 0.953 485.500 C 0.427 456.701, 0.404 457.222, 0.382 498.500 M 347 460.774 C 347 461.934, 346.609 463.124, 346.131 463.419 C 345.654 463.714, 344.970 465.785, 344.613 468.022 C 344.255 470.258, 343.543 472.855, 343.030 473.794 C 342.517 474.732, 341.299 477.292, 340.325 479.482 C 339.350 481.672, 336.193 486.599, 333.310 490.432 C 330.426 494.265, 328.284 497.617, 328.549 497.882 C 330.141 499.475, 341.587 484.159, 343.527 477.839 C 343.922 476.552, 344.584 475.050, 344.999 474.500 C 346.027 473.138, 348.236 459.902, 347.550 459.216 C 347.247 458.914, 347 459.615, 347 460.774 M 474 483.671 C 474 484.590, 474.745 486.165, 475.655 487.171 C 477.198 488.876, 477.193 489, 475.576 489 C 474.622 489, 471.837 491.005, 469.387 493.455 C 466.650 496.192, 464.362 497.692, 463.454 497.344 C 462.409 496.943, 462.158 497.248, 462.594 498.385 C 463.109 499.727, 462.657 499.896, 459.855 499.412 C 457.312 498.972, 456.863 499.090, 458 499.900 C 459.137 500.711, 458.169 500.965, 454 500.953 C 448.539 500.937, 443 497.964, 443 495.048 C 443 494.472, 442.523 494, 441.941 494 C 441.359 494, 441.141 493.581, 441.457 493.069 C 441.774 492.557, 441.510 491.815, 440.870 491.420 C 438.342 489.857, 441.216 496.599, 444.493 499.917 C 448.883 504.363, 456.738 504.756, 464.499 500.917 C 470.265 498.064, 480 488.939, 480 486.387 C 480 484.997, 479.733 484.867, 478.800 485.800 C 476.936 487.664, 476 487.230, 476 484.500 C 476 483.125, 475.550 482, 475 482 C 474.450 482, 474 482.752, 474 483.671 M 107.737 492.579 C 104.097 494.553, 101.999 499.575, 103.266 503.280 C 105.787 510.652, 119.255 510.721, 122.047 503.376 C 125.050 495.479, 115.573 488.328, 107.737 492.579 M 109.035 493.688 C 101.229 497.001, 103.642 506.500, 112.289 506.500 C 114.711 506.500, 117.437 505.882, 118.346 505.128 C 120.396 503.426, 120.558 496.708, 118.589 495.074 C 116.892 493.666, 111.076 492.822, 109.035 493.688 M 687.800 499.200 C 689.429 500.829, 689.310 504.501, 687.515 507.971 C 682.351 517.958, 664.604 518.751, 660.627 509.172 C 659.266 505.892, 659.098 505.772, 659.052 508.054 C 659.018 509.712, 660.248 511.816, 662.558 514.054 C 671.499 522.713, 691 515.306, 691 503.250 C 691 500.383, 689.457 498, 687.600 498 C 687.044 498, 687.133 498.533, 687.800 499.200 M 367.275 500.750 C 367.492 501.163, 368.697 503.750, 369.953 506.500 C 374.850 517.219, 393.506 531.731, 410 537.650 C 420.111 541.278, 433.328 541.482, 443.134 538.161 C 454.841 534.196, 471.316 520.677, 479.164 508.595 C 484.368 500.584, 484.037 500.159, 476.683 505.406 C 461.610 516.162, 450.971 516.860, 437.273 507.990 C 435.202 506.649, 434.785 506.804, 431.273 510.225 C 417.768 523.383, 393.549 521.323, 374.849 505.425 C 369.084 500.525, 366.234 498.765, 367.275 500.750 M 219.615 507.814 C 219.337 508.264, 220.547 509.469, 222.304 510.491 C 224.062 511.513, 225.725 512.608, 226 512.925 C 226.275 513.241, 228.750 515.279, 231.500 517.452 C 240.703 524.728, 247.862 533.662, 253.713 545.175 C 255.633 548.952, 256.531 549.964, 256.801 548.657 C 257.824 543.713, 244.835 524.942, 234.896 517 C 226.174 510.031, 220.393 506.555, 219.615 507.814 M 360.013 510.250 C 360.006 511.212, 360.420 512, 360.933 512 C 361.446 512, 362.130 512.833, 362.453 513.852 C 363.776 518.019, 378.521 531.841, 386.532 536.423 C 399.122 543.623, 420.027 550.089, 417.500 546 C 417.160 545.450, 415.981 545, 414.879 545 C 409.524 545, 388.343 536.376, 382.255 531.717 C 379.389 529.524, 364.552 514.490, 362.263 511.461 C 360.586 509.241, 360.023 508.938, 360.013 510.250 M 300.011 512.833 C 302.650 513.723, 300.617 515.019, 297.500 514.434 C 295.120 513.987, 294 514.152, 294 514.948 C 294 515.591, 293.573 515.854, 293.052 515.532 C 292.531 515.210, 287.289 515.726, 281.403 516.678 C 273.137 518.016, 271.318 518.575, 273.407 519.134 C 274.895 519.531, 277.491 519.376, 279.177 518.788 C 280.966 518.165, 286.044 517.934, 291.371 518.235 C 297.070 518.557, 299.561 518.427, 298 517.891 C 296.124 517.246, 296.623 517.142, 300 517.472 C 303.030 517.768, 303.847 517.635, 302.500 517.063 C 300.663 516.284, 300.643 516.156, 302.250 515.500 C 303.212 515.107, 304.698 515.054, 305.552 515.382 C 306.442 515.723, 306.843 515.555, 306.493 514.989 C 306.157 514.445, 306.584 514, 307.441 514 C 308.298 514, 309 513.595, 309 513.099 C 309 512.603, 306.755 512.266, 304.011 512.349 C 301.267 512.432, 299.467 512.650, 300.011 512.833 M 173.003 524.496 C 170.197 527.483, 171.464 531.155, 176.134 533.569 C 180.290 535.719, 191 531.364, 191 527.525 C 191 522.128, 177.382 519.836, 173.003 524.496 M 586.500 523 C 586.160 523.550, 585.087 524, 584.115 524 C 581.049 524, 577.756 528.509, 577.642 532.866 C 577.354 543.871, 595.215 547.881, 602.959 538.549 C 605.225 535.819, 603.411 535.781, 599.440 538.476 C 594.327 541.946, 591.548 542.501, 586.926 540.975 C 578.900 538.327, 577.327 530.695, 583.898 526.282 C 588.163 523.417, 590.253 523.452, 596.458 526.490 C 599.184 527.826, 601.611 528.723, 601.850 528.483 C 602.954 527.380, 599.345 524.951, 594.512 523.547 C 588.261 521.729, 587.325 521.665, 586.500 523 M 636 522.884 C 636 524.536, 644.142 531.131, 648.830 533.278 C 658.780 537.832, 674.593 535.664, 680.500 528.935 C 681.600 527.681, 682.050 526.883, 681.500 527.160 C 673.538 531.171, 672.216 531.470, 662.500 531.455 C 651.511 531.439, 644.452 529.239, 639.924 524.419 C 637.595 521.940, 636 521.316, 636 522.884 M 174.750 525.080 C 172.052 526.652, 172.585 529.892, 175.740 531.091 C 178.991 532.327, 183.684 531.610, 186.848 529.394 C 189.015 527.876, 189.043 527.705, 187.408 525.899 C 185.493 523.782, 177.829 523.287, 174.750 525.080 M 286.357 545.940 C 280.760 548.333, 279.245 556.154, 283.545 560.455 C 289.664 566.573, 301 562.399, 301 554.028 C 301 547.640, 292.878 543.153, 286.357 545.940 M 287.400 548.405 C 282.669 550.499, 281.660 554.699, 284.879 558.886 C 287.431 562.205, 294.541 562.286, 297.180 559.026 C 302.462 552.503, 295.419 544.855, 287.400 548.405 M 454.116 557.720 C 454.010 558.835, 457.825 568.225, 459.969 572.127 C 460.461 573.022, 461.170 575.389, 461.545 577.388 C 461.920 579.387, 462.626 581.269, 463.113 581.570 C 464.493 582.423, 464.112 585.997, 462 592 L 460.065 597.500 460.033 592.799 C 459.998 587.788, 457.864 578.442, 455.626 573.500 C 454.879 571.850, 453.648 569.038, 452.890 567.250 C 451.492 563.954, 449.204 562.530, 450.479 565.750 C 456.773 581.641, 459.591 600.138, 456.896 607.868 C 456.267 609.672, 456.122 612.212, 456.558 613.768 L 457.324 616.500 458.044 613.500 C 458.440 611.850, 458.817 611.281, 458.882 612.235 C 459.115 615.651, 465.211 623.985, 470.107 627.578 C 476.326 632.143, 485.278 633.386, 491.314 630.521 C 496.050 628.274, 504.234 619.212, 505.462 614.857 C 505.827 613.561, 506.619 611.495, 507.223 610.266 C 508.017 608.650, 508.019 607.407, 507.228 605.766 C 506.194 603.621, 506.132 603.674, 506.068 606.764 C 506.030 608.559, 505.550 610.809, 505 611.764 C 504.451 612.719, 503.531 614.625, 502.957 616 C 497.943 628.016, 485.387 633.330, 474.665 627.975 C 472.152 626.720, 469.864 625.088, 469.580 624.347 C 468.909 622.599, 469.533 622.648, 472.473 624.574 C 478.553 628.558, 492.381 625.901, 497.553 619.755 C 500.491 616.263, 499.964 614.588, 496.946 617.827 C 490.619 624.619, 480.261 624.719, 472.750 618.063 C 470.703 616.248, 470 616.012, 470 617.139 C 470 618.762, 473.541 622.395, 476 623.294 C 477.004 623.661, 477.070 623.868, 476.200 623.921 C 475.486 623.964, 473.608 623.332, 472.029 622.515 C 469.816 621.370, 469.042 621.313, 468.655 622.265 C 467.971 623.945, 466.145 621.420, 465.332 617.669 C 464.920 615.770, 464.461 615.254, 463.938 616.100 C 463.442 616.902, 462.893 615.949, 462.431 613.483 C 461.495 608.494, 463.429 596.039, 465.889 591.217 C 471.616 579.992, 484.788 574.952, 495.222 579.993 C 499.953 582.279, 500.889 582.115, 498.006 579.506 C 496.903 578.507, 496 577.025, 496 576.211 C 496 574.974, 494.384 574.810, 486.092 575.210 C 476.202 575.686, 476.176 575.694, 471.382 579.792 C 466.372 584.074, 464 584.070, 464 579.779 C 464 578.692, 463.358 576.384, 462.572 574.651 C 458.474 565.606, 457 562.009, 457 561.055 C 457 560.475, 456.583 560, 456.073 560 C 455.564 560, 454.941 559.212, 454.689 558.250 C 454.438 557.288, 454.180 557.049, 454.116 557.720 M 176.889 560.001 C 171.728 560.914, 166.889 563.422, 164 566.681 C 160.830 570.256, 158.949 573.616, 159.699 574.366 C 160.018 574.685, 161.050 573.496, 161.991 571.723 C 168.447 559.561, 189.615 558.583, 197.931 570.063 C 200.620 573.776, 201 575.119, 201 580.915 C 201 593.709, 193.078 601.980, 180.790 602.015 C 177.006 602.026, 175.927 602.307, 177 603 C 179.749 604.776, 186.716 604.095, 191.431 601.588 C 214.470 589.338, 202.619 555.445, 176.889 560.001 M 660.516 566.241 C 656.639 578.093, 648.510 587.707, 638.264 592.558 C 632.271 595.395, 631.991 595.697, 630.425 601 C 629.532 604.025, 628.332 606.791, 627.759 607.147 C 626.393 607.994, 630.386 613.667, 632.348 613.667 C 633.145 613.667, 636.206 614.731, 639.149 616.031 C 652.542 621.948, 670.262 617.610, 677.182 606.721 C 680.397 601.662, 680.500 601.174, 680.500 591 C 680.500 577.942, 676.913 569.897, 668.574 564.250 C 662.426 560.088, 662.538 560.060, 660.516 566.241 M 0.328 654 C 0.295 704.325, 0.618 743.250, 1.046 740.500 C 1.972 734.552, 1.975 666.787, 1.051 606 C 0.509 570.369, 0.379 579.052, 0.328 654 M 526.500 565.804 C 512.574 570.700, 504.880 586.879, 510.676 599.081 C 515.190 608.587, 522.658 612.491, 535.110 611.856 C 543.918 611.407, 549.584 608.224, 554.477 600.977 C 558.942 594.364, 558.947 582.643, 554.488 576.039 C 549.450 568.578, 544.179 565.572, 535.687 565.316 C 531.734 565.198, 527.600 565.417, 526.500 565.804 M 170.500 570.378 C 166.061 575.236, 164 579.367, 164 583.404 C 164 585.382, 163.525 587, 162.943 587 C 161.145 587, 164.995 592.458, 168.477 594.844 C 172.854 597.843, 178.411 599.287, 182.315 598.439 C 185.931 597.654, 192.649 593.224, 193.511 591.056 C 194.082 589.624, 190.369 592.318, 188.765 594.500 C 188.361 595.050, 188.024 595.107, 188.015 594.628 C 188.007 594.148, 187.431 594.228, 186.735 594.805 C 185.434 595.885, 180.566 596.497, 175.792 596.180 C 171.463 595.892, 165 589.103, 165 584.843 C 165 580.311, 168.162 573.883, 171.967 570.681 C 173.635 569.278, 175 567.875, 175 567.565 C 175 566.248, 173.305 567.308, 170.500 570.378 M 79.500 569.607 C 55.585 575.498, 47.317 605.863, 65.099 622.495 C 72.488 629.408, 77.704 631.403, 88.500 631.448 C 98.599 631.490, 102.750 629.931, 110.015 623.367 C 122.893 611.733, 121.990 589.425, 108.172 577.798 C 100.790 571.587, 87.211 567.707, 79.500 569.607 M 76.345 573.860 C 57.494 581.358, 52.680 604.424, 66.856 619.332 C 77.312 630.330, 93.659 631.822, 105.165 622.831 C 119.175 611.883, 117.876 587.901, 102.755 578.341 C 93.009 572.180, 84.289 570.700, 76.345 573.860 M 331.241 598.364 C 329.998 598.979, 328.731 600.274, 328.423 601.241 C 328.116 602.208, 327.446 603, 326.933 603 C 324.649 603, 325.961 612.615, 328.581 615.076 C 333.465 619.663, 343.728 617.396, 346.138 611.198 C 349.456 602.665, 339.638 594.207, 331.241 598.364 M 330.201 601.028 C 322.902 607.827, 329.067 618.261, 338.961 615.855 C 344.790 614.438, 346.724 605.075, 342 601.146 C 338.714 598.413, 333.068 598.356, 330.201 601.028 M 443.203 615.095 C 435.793 628.558, 422.629 639.490, 406.969 645.186 C 393.407 650.120, 390.986 650.500, 373.291 650.483 C 361.183 650.472, 356.589 650.768, 357.791 651.483 C 358.769 652.065, 366.767 652.500, 376.500 652.500 C 393.292 652.500, 393.616 652.458, 403 649.108 C 408.225 647.243, 412.650 645.330, 412.833 644.858 C 413.017 644.386, 413.633 644, 414.203 644 C 415.485 644, 426.634 637.278, 429.915 634.526 C 437.608 628.075, 439.274 626.356, 442.164 621.897 C 443.915 619.194, 445.397 615.862, 445.457 614.491 C 445.598 611.261, 445.265 611.350, 443.203 615.095 M 666.500 619.522 C 659.797 622.679, 647.866 622.898, 640.250 620.004 C 634.136 617.680, 633.819 618.017, 638.250 622.130 C 648.147 631.318, 662.806 632.394, 670.690 624.510 C 673.967 621.233, 675.163 616.923, 672.750 617.083 C 672.063 617.129, 669.250 618.226, 666.500 619.522 M 290.500 641.631 C 283.968 646.969, 274.224 652.798, 269 654.491 C 265.975 655.471, 262.600 656.643, 261.500 657.095 C 260.400 657.547, 258.375 658.136, 257 658.405 C 255.625 658.673, 256.975 658.698, 260 658.460 C 270.013 657.671, 280.805 652.634, 289.608 644.640 C 294.824 639.903, 295.531 637.520, 290.500 641.631 M 9.404 756.996 C 8.085 758.315, 8.896 765.023, 10.446 765.618 C 12.390 766.364, 17 764.188, 17 762.525 C 17 760.564, 15.388 760.547, 14.638 762.500 C 13.899 764.426, 12 764.451, 12 762.535 C 12 761.730, 12.957 760.558, 14.127 759.932 C 16.784 758.510, 18.296 760.329, 17.447 763.925 C 16.939 766.076, 17.058 766.196, 18.507 764.994 C 19.404 764.249, 19.925 762.821, 19.663 761.820 C 19.401 760.819, 19.595 760, 20.094 760 C 20.592 760, 21.056 760.675, 21.125 761.500 C 21.248 762.974, 21.512 764.265, 21.993 765.750 C 22.127 766.163, 22.521 765.187, 22.868 763.582 C 23.216 761.978, 24.175 760.442, 25 760.170 C 26.203 759.773, 26.264 759.961, 25.307 761.121 C 23.552 763.249, 25.096 764.892, 28.753 764.788 C 31.606 764.707, 31.897 764.436, 31.373 762.348 C 31.009 760.902, 31.226 760, 31.935 760 C 32.569 760, 32.955 760.728, 32.794 761.617 C 32.473 763.383, 35.480 765.853, 36.595 764.739 C 36.974 764.359, 36.707 763.352, 36 762.500 C 34.593 760.804, 35.232 759.407, 36.933 760.459 C 37.520 760.821, 38.014 762.104, 38.032 763.309 C 38.062 765.416, 38.156 765.395, 40.477 762.758 C 42.779 760.143, 43.067 760.075, 46.695 761.287 C 49.458 762.210, 50.415 763.047, 50.191 764.346 C 49.928 765.864, 50.194 765.966, 51.954 765.025 C 53.633 764.126, 53.827 763.545, 52.978 761.958 C 52.401 760.881, 52.159 760, 52.439 760 C 52.719 760, 53.668 761.392, 54.548 763.093 C 56.247 766.379, 57.421 766.255, 57.470 762.784 C 57.486 761.624, 57.986 760.511, 58.581 760.311 C 59.265 760.080, 59.491 761.109, 59.196 763.115 C 58.874 765.313, 59.079 766.069, 59.866 765.583 C 60.490 765.197, 61.052 763.896, 61.116 762.691 C 61.211 760.888, 61.315 760.823, 61.704 762.325 C 62.152 764.061, 62.270 764.065, 64.094 762.415 C 66.608 760.140, 67.378 761.043, 65.693 764.290 L 64.351 766.878 36.479 766.969 C 21.150 767.018, 8.396 767.271, 8.137 767.530 C 7.433 768.234, 613.582 768.098, 615.418 767.393 C 616.288 767.059, 617.014 765.822, 617.030 764.643 C 617.057 762.777, 617.186 762.715, 618.032 764.165 C 618.905 765.660, 621.969 765.824, 648.002 765.775 C 664.359 765.744, 677 765.329, 677 764.825 C 677 764.332, 677.880 764.401, 678.956 764.976 C 680.248 765.668, 694.410 765.934, 720.706 765.762 L 760.500 765.500 760.823 762.123 C 761 760.265, 760.740 758.340, 760.243 757.843 C 758.752 756.352, 665.773 756.757, 664.819 758.259 C 664.239 759.173, 664.027 759.186, 664.015 758.312 C 664.004 757.429, 657.676 757.101, 639.413 757.035 C 615.523 756.950, 614.812 757.004, 614.297 758.974 L 613.767 761 404.133 760.946 C 288.835 760.916, 179.650 760.468, 161.500 759.949 C 132.957 759.133, 103.523 758.522, 53.249 757.700 C 42.949 757.532, 40.994 757.739, 40.969 759 C 40.944 760.274, 40.799 760.261, 40.011 758.913 C 39.249 757.610, 36.795 757.295, 26.303 757.155 C 19.275 757.061, 12.822 756.761, 11.965 756.489 C 11.107 756.217, 9.955 756.445, 9.404 756.996 M 70.353 762.250 C 70.764 763.899, 70.630 765, 70.019 765 C 69.459 765, 69 764.518, 69 763.929 C 69 763.339, 68.325 763.532, 67.500 764.357 C 65.173 766.684, 65.604 766.946, 71.500 766.791 C 75.033 766.698, 77 766.217, 77 765.446 C 77 764.785, 77.675 763.685, 78.500 763 C 79.765 761.950, 80 762.146, 80 764.251 C 80 766.534, 80.389 766.754, 84.563 766.838 C 88.955 766.926, 89.114 766.828, 88.813 764.215 C 88.558 762.002, 87.986 761.491, 85.721 761.453 C 83.879 761.422, 83.105 761.833, 83.427 762.671 C 83.694 763.367, 83.413 764.245, 82.802 764.622 C 82.172 765.012, 81.970 764.858, 82.334 764.268 C 82.688 763.695, 82.365 762.718, 81.616 762.096 C 80.148 760.878, 77 761.607, 77 763.166 C 77 763.690, 76.570 763.852, 76.044 763.527 C 75.518 763.202, 75.341 762.275, 75.651 761.468 C 75.960 760.661, 75.753 760, 75.190 760 C 74.627 760, 73.977 760.563, 73.746 761.250 C 73.425 762.203, 72.890 762.143, 71.497 761 C 69.788 759.598, 69.713 759.680, 70.353 762.250" stroke="none" fill="#1b1f3a" fill-rule="evenodd"/>
</svg>