<svg xmlns="http://www.w3.org/2000/svg" viewBox="0 0 768 768" version="1.1" preserveAspectRatio="xMidYMid meet"><path d="M 323.5 97.2 C 310.8 100.2, 301.7 104.1, 295 109.3 L 290.5 112.7 287 110.6 C 276.5 104.1, 256.2 99, 241 99 C 231.4 99, 207.1 103.1, 200.5 105.9 C 184.8 112.3, 170.2 121.4, 159.2 131.4 C 152.2 137.8, 151.7 138, 146.7 138 C 108.8 138, 72.1 167.2, 60.6 206.5 C 59.6 209.8, 58.4 213.9, 57.8 215.5 C 57.2 217.2, 56.5 225.5, 56.3 234 C 55.5 256.1, 59.2 269, 70 282.5 C 73 286.2, 80 299.3, 80 301.1 C 80 301.6, 78.2 304.8, 76.1 308.4 C 70.2 318, 64.6 330.9, 59 348 C 51.2 371.6, 47.9 402.5, 49.8 432.8 C 50.5 443.1, 51 455.7, 51 460.8 C 51 470.7, 53.7 496.4, 55 499 C 55.4 499.8, 56.1 502.2, 56.4 504.4 C 56.8 506.5, 57.5 509, 57.9 509.9 C 58.4 510.8, 60 514.2, 61.5 517.5 C 73.1 543, 95.7 560.4, 120.4 562.7 L 126.7 563.3 127.3 572.6 C 128.2 586.6, 132.3 596.2, 141.5 606.1 C 153 618.6, 168 625.5, 184.9 626.3 L 192.2 626.7 194.4 631.1 C 200.8 644.6, 217.7 657.9, 236.5 664.6 C 258.6 672.5, 287.5 664.8, 299.6 647.9 C 303.8 642.1, 303.8 642.1, 307.6 646.1 C 321.1 660.3, 343.1 671.2, 365.2 674.5 C 387.3 677.9, 404.2 674.7, 426.1 663.3 C 442.5 654.7, 447.5 650.4, 459.7 633.5 L 461.8 630.5 466.4 633.8 C 471.9 637.8, 477.9 640, 483.3 640 C 485.9 640, 488.4 640.8, 490.4 642.3 C 507.1 654.7, 531.9 660.3, 552.9 656.4 C 577 652, 594 642.8, 613.6 623.7 L 625 612.7 629.2 616.3 C 631.6 618.2, 635.5 621.7, 637.9 623.9 C 644.5 630.2, 649.9 632.3, 658.4 631.8 C 669.2 631.2, 677.8 624.2, 676.8 616.7 C 676.7 615.5, 677.7 612.4, 679.1 609.9 C 686.7 596.4, 686.6 582.8, 679 570.5 C 676.6 566.6, 668.3 559.6, 664.9 558.5 C 663.1 557.9, 663 557.3, 663.6 553.2 C 664.7 545.3, 665.3 544.6, 671.6 542.6 C 692.9 536, 706.8 519, 710.1 495.5 C 713.3 472.8, 704.4 451.8, 688.2 443.7 L 681.4 440.3 686.1 435.1 C 690.3 430.4, 694.8 422.4, 699.4 411.5 C 700.4 409.3, 701.5 406.6, 702 405.5 C 713.7 379.9, 716.2 322.1, 707.4 285.5 C 703.5 269.6, 696.3 254.8, 688.1 245.7 C 684.7 242, 682 238.1, 682 237.1 C 682 229, 669.1 209.2, 659.1 201.9 L 653.2 197.5 652.7 184.5 C 652 168.8, 651 164.8, 643.5 148.5 C 624.5 107, 569.1 84.2, 531 102.3 C 515.2 109.8, 500.2 125.7, 497.5 138 C 496.7 141.4, 495.1 141.8, 489.3 139.6 C 463.3 129.9, 432.7 129.9, 414 139.7 C 410.3 141.6, 409.8 141.4, 406 135.7 C 401.6 129.1, 389.1 116, 383.1 111.6 C 377.6 107.6, 365.1 101, 363 101 C 362.1 101, 361 100.6, 360.5 100.1 C 356.9 96.9, 332.7 95, 323.5 97.2 M 320.5 103 C 311.2 105.6, 301.4 110.6, 296.6 115 L 292.2 119.1 282.8 114.7 C 264.7 106, 243.8 102.7, 224.1 105.4 C 217.4 106.3, 211 107.5, 209.7 107.9 C 208.5 108.4, 204.4 109.8, 200.5 111 C 186.9 115.4, 169.9 125.4, 161.1 134.2 L 156 139.3 161.7 141.2 C 171 144.3, 181.6 149.7, 185.4 153.4 C 190.3 157.9, 190 160, 185.1 155.8 C 175 147.2, 161.4 142.7, 146 142.8 C 132.8 142.9, 125.8 144.6, 111.4 151.1 C 63.9 172.4, 43.9 241.9, 73.9 280.9 C 75.3 282.7, 78.1 287.4, 80.1 291.3 C 83.9 298.9, 86 300.8, 86 296.7 C 86 295.3, 85.5 294, 84.8 293.8 C 84.1 293.5, 84 292.8, 84.4 292.1 C 85 291.2, 85.7 291.7, 86.7 293.9 C 87.6 295.6, 88.9 297, 89.6 297 C 91.4 297, 91.4 299.6, 89.6 300.3 C 88.6 300.7, 88.4 301.8, 89.1 305.2 C 90.4 311.8, 90.2 312.5, 88 309.7 C 86.9 308.3, 86 306, 86 304.6 C 86 295.5, 75.7 312.3, 66.8 335.8 C 61.4 350, 58.2 362.3, 55.4 379.5 C 53.2 392.3, 52.4 427, 53.9 436 C 54.6 439.6, 55.2 450.8, 55.4 461 C 56 492.6, 60.3 509.3, 72.4 527.9 C 79.3 538.5, 88.5 546.1, 101 551.8 C 112.9 557.2, 128.1 558.7, 128.8 554.5 C 129.3 551.5, 132.6 544.7, 136.5 538.6 C 138.4 535.6, 140 532.7, 140 532.2 C 140 531.7, 141 530.5, 142.2 529.4 L 144.3 527.5 142.2 531.5 C 125.9 562.5, 127.3 586.7, 146.4 605.5 C 158.7 617.5, 181.9 625.4, 195.2 622.1 C 210.1 618.4, 216.2 615.3, 224.4 607.6 C 227.1 605.1, 229.5 603.2, 229.8 603.4 C 230.6 604.3, 226 610.8, 222.2 614.1 C 218.5 617.4, 203.5 625, 200.7 625 C 194.5 625, 194.7 627.3, 201.7 635.9 C 225.5 665.9, 269 671.6, 293 647.9 C 298.6 642.4, 303 633.5, 301.4 630.9 C 301.1 630.4, 301.2 629.4, 301.8 628.7 C 304.2 625.5, 305.5 616.8, 305.5 603.4 C 305.5 588.6, 306.6 585.6, 308.9 594.5 C 311.5 604.7, 309.9 621.3, 305.4 630.7 C 304.1 633.6, 304.1 634.3, 305.4 636.9 C 308.5 642.8, 323.7 654.4, 336 660.1 C 339.6 661.8, 343.2 663.5, 344 663.9 C 357.2 670.8, 388.4 671.9, 407.5 666 C 432 658.6, 459.5 635.4, 458.9 622.8 C 458.8 621.1, 458.7 620.9, 458.3 622.3 C 458.1 623.2, 457.4 623.8, 456.9 623.5 C 455.6 622.6, 458.1 619.1, 459.7 619.7 C 460.4 620, 461 620.9, 461 621.7 C 461 624.4, 464.9 628.8, 470.3 632.1 C 488.6 643.6, 516.9 623.2, 508.6 604.7 C 504 594.4, 500.7 582, 501.9 579.7 C 503.6 576.5, 510 569.4, 510 570.7 C 510 571.2, 509.1 572.5, 508 573.5 C 505.5 575.8, 503.6 581.4, 504.4 584.6 C 505.1 587.2, 507 587.9, 507 585.5 C 507 584.7, 507.4 583.2, 508 582.2 C 508.5 581.3, 509.7 578.8, 510.6 576.7 C 519.9 555.8, 553.8 558.5, 560.1 580.7 C 567.3 606.6, 537.8 626.8, 516.4 610.5 C 512.1 607.2, 512 607.2, 512 612.8 C 511.9 621.3, 505.3 630.8, 495.7 635.8 L 491.9 637.8 497.7 641.2 C 530.3 660.4, 565.7 656, 601.7 628.2 C 609.1 622.6, 620 611.6, 620 610 C 620 609.6, 618.2 608.6, 616.1 607.8 C 614 606.9, 611.7 605.3, 611.1 604.1 C 609.7 601.5, 611 601.4, 614.1 603.9 C 615.4 604.9, 617.9 606.1, 619.7 606.4 C 622.9 607.1, 622.9 607.1, 626.9 599.3 C 632.5 588.2, 641.6 574.6, 642.5 576 C 643 576.8, 643.6 576.5, 644.4 575.1 C 649.4 565.9, 651 562.6, 651 561.5 C 651 560.8, 651.6 560, 652.4 559.7 C 657.3 557.8, 646.9 577.1, 638.9 584.7 C 634.2 589.2, 633.9 590.8, 638.2 588.3 C 649.6 581.9, 658.1 567.4, 659.6 551.4 L 660.2 544.4 652.6 542.7 C 634.3 538.7, 623.4 527, 620.5 508.1 L 619.8 503.8 617.3 506.4 C 607.8 516.7, 588.4 520.2, 575.4 514 C 565.1 509, 559.8 500.5, 556.1 482.5 L 554.3 473.5 553.6 479.5 C 552.2 491.4, 548 500.7, 541.8 505.3 C 528 515.7, 502.1 510.5, 494.4 495.8 C 492.3 491.7, 491.5 492.3, 488.6 500.3 C 484.8 510.5, 482.1 514.7, 474.8 521.5 C 459.3 536.2, 450.6 540.9, 433.5 544.1 C 419 546.7, 392 535, 376.8 519.3 C 371.9 514.3, 365 502.3, 365 498.9 C 365 497.8, 364.6 496.2, 364 495.2 C 363 493.4, 359.7 485.7, 358.7 482.8 C 357.6 479.8, 356.6 480.8, 354.7 486.3 C 351.6 495, 347 503.6, 342.4 508.8 C 337.3 514.6, 337.2 515, 340.4 515 C 343.6 515, 344.4 517.5, 342.4 521.5 C 341 524.6, 340.7 524.8, 337.9 523.8 C 336 523.2, 335 522.1, 335 520.8 C 335 519.1, 335.3 519, 336.5 520 C 338.3 521.5, 341 520.6, 341 518.6 C 341 515.3, 337.6 516.1, 330.6 520.8 C 314.8 531.7, 303.8 535.5, 287.5 535.5 C 266.2 535.5, 250 529.3, 237.1 516.1 C 228.9 507.9, 226.7 502.8, 227.1 493.1 C 227.6 483.2, 230.5 478.2, 237.9 474.8 L 242.9 472.6 237.3 467.6 C 231.6 462.4, 226.1 454.8, 224.3 449.5 C 223.4 446.9, 223.2 447.7, 222.6 455.5 C 221.5 470, 219.9 479.2, 217.9 483.2 C 213.5 491.9, 204.5 498.6, 193.3 501.5 C 186.8 503.2, 171 503.5, 171 502 C 171 501.5, 170 501, 168.8 500.9 C 166.8 500.9, 166.8 500.8, 168.3 500.1 C 169.7 499.6, 169 499, 165.2 497.7 C 156.2 494.4, 148.9 486.5, 145.5 476.1 C 144 471.5, 143.8 468.5, 144.3 456.1 C 145 438.7, 146.6 420.6, 147.9 414.8 C 150.3 404.4, 150.3 404.5, 145.7 402.5 C 134.1 397.4, 110 366.7, 100.6 345 C 96.1 334.7, 92.8 317.9, 95 316.5 C 95.5 316.2, 96 314.8, 96 313.4 C 96 309.8, 97.1 310.4, 101.5 316.8 C 103.7 319.9, 107.1 324.3, 109.1 326.5 C 111 328.7, 116.4 336.1, 121 343 C 131.1 358.2, 142.6 373.1, 151.5 382.5 C 158.8 390.2, 157.4 388, 143.8 370.5 C 139.1 364.5, 130.5 352.5, 124.7 343.9 C 119 335.2, 112.8 326.2, 111 323.9 C 104.5 314.9, 95.5 298.2, 83.9 273.4 C 81.2 267.8, 78 252.7, 78 245.7 C 77.9 216.9, 107.4 195.8, 134.8 205 C 151 210.5, 159.8 221.9, 173.5 255 C 183.7 279.7, 188.6 290.4, 189.8 290.8 C 190.5 291, 192.4 288.1, 194.6 283.3 C 212.7 243.6, 219 232.3, 229 222 C 241.1 209.4, 254.1 207.1, 269.4 214.7 C 284.8 222.5, 290.2 236.6, 284.5 254.5 C 281.9 262.8, 281.9 264.1, 284.6 261.9 C 286.9 260, 302.3 260, 306.7 261.9 C 309.5 263.1, 310.8 263, 316.4 261.5 C 338.2 255.6, 358.6 269.9, 359.1 291.3 L 359.3 296.5 360 290 C 362.2 271.8, 366.4 264.9, 379 258.5 C 400.5 247.6, 428.5 253, 439.1 269.9 L 440.6 272.3 446.1 268.2 C 467.7 252, 504.8 256.6, 508.7 276.1 L 509.3 279.1 513.9 274.6 C 520.8 267.9, 525.2 266.5, 539.5 266.5 C 553.9 266.5, 559.9 268.8, 567.3 276.9 C 571.4 281.6, 571.7 281.7, 574.2 280.4 C 584.6 275, 600.8 273.8, 610.9 277.8 C 613.9 279, 616.5 279.8, 616.7 279.7 C 616.8 279.5, 614.7 274.9, 612 269.4 C 607.5 260.6, 607.3 259.9, 610 263 C 611.6 264.9, 613 266.8, 613 267.4 C 613 270.7, 618.6 277.7, 628.1 286.4 C 644.5 301.2, 649.3 311.2, 649.4 331 C 649.6 350.6, 646 355.8, 625.5 366 C 620.5 368.5, 620.5 368.6, 619.6 374.5 C 617 392.8, 610.5 401.2, 597 403.5 L 593 404.2 596.4 407.3 C 603.1 413.7, 607.2 421.7, 612.1 438 C 615.7 450.1, 617.4 453.2, 623.9 459.7 L 630.1 465.8 633.5 460.5 C 640.3 449.9, 656.9 440, 668.6 439.6 C 675.9 439.4, 677.6 438.2, 684.5 428.5 C 701.3 404.8, 709.9 365, 707.8 321.5 C 706.4 293.1, 697 262.3, 685.9 249.6 C 676.1 238.4, 659.1 230.4, 653.1 234.2 C 650.2 236, 633 233.1, 633 230.8 C 633 230.2, 634 230.1, 635.8 230.6 C 637.3 231.1, 643.9 231.5, 650.5 231.5 C 662.9 231.6, 667.2 232.6, 674.7 237 L 678 238.9 678 236.7 C 678 234.4, 672.1 220.3, 670.2 217.9 C 665 211.4, 660.7 207.2, 655 202.9 L 648.3 197.9 647.7 183.7 C 647.2 171.4, 646.7 168.4, 644.1 160.8 C 631.5 124.8, 597.2 101, 558 101 C 543.4 101, 535.2 103.6, 521.2 112.4 C 509.2 120, 493.6 146, 501.1 146 C 504.1 146, 512.5 152.4, 517.1 158.3 C 522.9 165.6, 521.8 165.9, 514.5 159.2 C 501.8 147.6, 490.2 142.5, 467.5 138.6 C 451.3 135.8, 437.6 137, 422.8 142.6 C 414 145.9, 410.7 148.5, 412 151 C 413.2 153.3, 413.3 155, 412.1 155 C 411.1 155, 406.9 148.7, 406.6 146.7 C 405.6 139.8, 385.3 117.1, 375 111.3 C 358.1 101.7, 336.3 98.4, 320.5 103 M 531.5 109.8 C 525.7 112, 517.4 118.5, 514.3 123.1 C 510.9 128.3, 512 129.2, 516.2 124.4 C 524.4 115.1, 532.7 110, 539.9 110 C 550 110, 548.7 120.2, 538.2 123.4 C 533.5 124.9, 533.5 124.9, 537 124.9 C 541 125, 545.7 122.3, 547.6 118.8 C 552.2 110.6, 542.8 105.3, 531.5 109.8 M 226.8 112.7 C 224.7 112.9, 223 113.6, 223 114.2 C 223 114.9, 226.2 115, 232.8 114.5 C 246.1 113.6, 259.7 115.8, 270.5 120.5 C 272.2 121.3, 274.9 122.1, 276.5 122.4 C 278.2 122.8, 278.8 122.7, 278 122.3 C 277.2 122, 274.9 120.7, 273 119.5 C 263.5 113.6, 244.7 110.9, 226.8 112.7 M 333.4 119.5 C 309.2 125.6, 290 142.4, 279.6 166.5 C 278.6 168.7, 277.5 171.4, 277 172.5 C 275.4 176.2, 273 187.1, 273 190.9 C 273 196.6, 277.7 204.7, 279.8 202.5 C 280.2 202.1, 279.9 201.5, 279.2 201.3 C 273.9 199.4, 274.1 184.4, 279.6 172.3 C 280.4 170.6, 281 168.8, 281 168.3 C 281 167.7, 282.1 165.3, 283.5 162.9 C 284.9 160.5, 286.3 157.8, 286.7 157 C 290.2 149.2, 304.4 135.4, 315.2 129.3 C 332.9 119.2, 358.9 118, 378.3 126.2 C 381.2 127.4, 383.7 128.6, 384 129 C 384.3 129.3, 386.4 130.7, 388.7 132.2 C 391 133.7, 395.1 137, 397.7 139.5 C 404 145.4, 405.7 145.3, 400 139.4 C 381.6 120.4, 357.9 113.2, 333.4 119.5 M 279.7 128.9 C 278.3 130.6, 276.9 132.5, 276.6 133.2 C 276.1 134.2, 275.9 134.2, 275.4 133.3 C 274.7 131.8, 271 131.6, 271 133 C 271 133.6, 271.9 134, 273 134 C 275.3 134, 275.7 136.8, 273.5 137.6 C 272.7 138, 272 139, 272 140 C 272 141, 270.6 144.9, 268.9 148.7 C 267.2 152.4, 265.2 156.9, 264.4 158.7 C 263.6 160.4, 263 162.4, 263 163.2 C 263 163.9, 262.3 165.4, 261.5 166.4 C 260.7 167.5, 260 169.4, 260 170.6 C 260 171.9, 259.6 173.1, 259.1 173.4 C 258.1 174.1, 256.5 183.9, 257.3 184.7 C 257.6 185, 258.3 183.2, 258.9 180.9 C 260.2 175.8, 262.8 167.4, 264 164.5 C 266.1 159.7, 270.4 150.1, 272.5 145.5 C 273.8 142.8, 275.1 139.4, 275.4 138 C 275.9 135.8, 277.1 134.1, 282.1 128.2 C 282.7 127.5, 283 126.7, 282.7 126.4 C 282.5 126.1, 281.1 127.3, 279.7 128.9 M 569.6 129.9 C 569.3 130.4, 567.7 131, 566 131.4 C 557.7 133, 541.8 147.8, 537 158.3 C 524.5 186, 531 207.8, 557 224.5 C 573 234.9, 590.2 240.7, 591.7 236.3 C 592 235.4, 590.7 235, 587.3 234.9 C 579.5 234.7, 576.3 233.2, 583.5 233.1 C 588.4 233, 589.1 232.7, 587.6 231.8 C 586.5 231.2, 583.5 231, 580.3 231.3 C 577.4 231.6, 575.2 231.6, 575.4 231.2 C 575.6 230.8, 574.7 230.4, 573.4 230.4 C 569.7 230.1, 551.7 217.5, 545.4 210.7 C 536.5 201.1, 534.5 195.9, 534.6 182.5 C 534.7 166.2, 540.2 153.5, 551.9 142.8 C 557.5 137.6, 568.6 131, 571.6 131 C 572.4 131, 572.8 130.6, 572.5 130 C 571.7 128.8, 570.3 128.7, 569.6 129.9 M 568.6 137.7 C 565.4 138.5, 559.2 142.8, 558 144.9 C 556.2 148.4, 556.9 148.4, 560.5 144.7 C 567.1 137.9, 578.5 137.1, 584.5 143 C 588.6 147.2, 588.9 156.3, 585 160.5 C 574.8 171.4, 557.2 167.1, 556.9 153.6 L 556.8 148.5 555.9 153.5 C 553.4 168.9, 578 174.1, 587.5 160.2 C 595.8 148.1, 583.7 133.9, 568.6 137.7 M 201.2 141 C 193.5 148.7, 199.1 157.4, 210.6 155.4 C 216.6 154.3, 218.5 145.7, 213.9 141 C 209.8 136.9, 205.3 136.9, 201.2 141 M 201.8 143 C 196.6 148.7, 199.7 154, 208.2 154 C 212.9 153.9, 215 152, 215 147.6 C 215 140.2, 206.9 137.4, 201.8 143 M 603 147.7 C 603 148, 604.7 150.6, 606.9 153.4 C 609 156.2, 611.1 159.7, 611.5 161 C 611.9 162.4, 612.7 164, 613.2 164.7 C 613.8 165.4, 614.2 170.1, 614.2 175.3 C 614.3 188.3, 608.8 199.8, 601.7 201.6 C 599.5 202.1, 599.1 202.5, 600.1 203.4 C 600.9 204.2, 601.4 204.2, 601.7 203.3 C 601.9 202.7, 602.7 202.3, 603.4 202.6 C 605.1 203.2, 612.8 194.5, 613.7 191.1 C 614 189.7, 614.7 188, 615.2 187.4 C 616.7 185.4, 616.3 168.6, 614.5 163.4 C 612.3 156.8, 603 144.1, 603 147.7 M 111.4 159.6 C 108.7 161, 106.3 162.5, 106 162.9 C 105.7 163.2, 103.9 164.6, 102 165.9 C 96.9 169.3, 84.9 184.7, 82.6 190.6 C 81.7 193, 82.6 192, 87.6 185 C 95.4 173.9, 105.9 164.2, 115.5 159.1 C 117.7 158, 118.8 157, 117.9 157 C 117 157, 114.1 158.2, 111.4 159.6 M 485.3 167 C 481.9 169, 478.2 174.2, 475.6 180.5 C 469.9 194, 483.2 211.3, 499.1 211.3 C 505.2 211.3, 512.2 208.7, 515.4 205.1 C 517.8 202.4, 520.1 192.5, 519 189.7 C 518.3 187.9, 518.1 188.3, 518.1 191.8 C 517.8 208.7, 496.8 215.2, 483.2 202.7 C 479.8 199.6, 476 190.7, 476 186 C 476 182, 479 176.4, 484 170.9 C 490.8 163.5, 502.9 167.3, 512.6 179.9 C 516.9 185.4, 517 183.9, 512.9 177.6 C 505.8 166.9, 493.3 162.1, 485.3 167 M 0 239 C 0 263.9, 0.3 284.1, 0.6 283.7 C 1.4 282.9, 1.3 195, 0.5 194.2 C 0.2 193.9, 0 214.1, 0 239 M 385.9 203.1 C 380.7 210.4, 392.1 216.6, 398.3 209.9 C 402.1 205.9, 398.3 200, 392 200 C 388.8 200, 387.7 200.6, 385.9 203.1 M 387.6 202.9 C 383.6 207.4, 388.9 213.6, 394.6 210.9 C 397.8 209.3, 399.1 204.9, 396.8 202.7 C 394.6 200.6, 389.6 200.7, 387.6 202.9 M 326 203.7 C 320.7 205.8, 317.8 212.6, 319.9 217.8 C 323.3 226, 338.7 226, 342.1 217.8 C 345.4 209.8, 334.6 200.2, 326 203.7 M 326 206.3 C 317.8 210.5, 320.3 220.8, 329.8 221.8 C 334.3 222.2, 335.1 221.9, 337.5 219.5 C 344.5 212.6, 335.1 201.7, 326 206.3 M 111.7 211.1 C 102.8 213.2, 93.1 220.6, 88.2 228.9 C 85.7 233.1, 85.5 234.4, 85.5 244 C 85.5 259, 90.6 273, 103.6 293.5 C 106.3 297.9, 111.7 306.7, 115.5 313 C 123 325.5, 124.9 328.4, 140.5 350 C 146.3 358, 152.9 367.7, 155.2 371.5 C 157.6 375.4, 159.8 378.7, 160.2 378.8 C 160.7 379, 161 379.8, 161 380.5 C 161 381.2, 162.9 383.5, 165.2 385.4 C 169.3 388.9, 169.3 389, 166.7 389 C 165.2 389, 164 388.6, 164 388.1 C 164 387.3, 152.4 369.4, 151 368 C 150.7 367.7, 148.7 365.3, 146.5 362.5 C 144.3 359.8, 142.1 357, 141.5 356.3 C 141 355.7, 139.4 353.7, 138 351.9 C 136.6 350.1, 134.5 347.4, 133.2 346 C 131.9 344.6, 136.2 350.7, 142.8 359.5 C 155.4 376.5, 162.4 386.9, 162.2 388.5 C 162.2 389.1, 161.3 392.7, 160.2 396.5 C 155.6 412.7, 151.2 456.2, 153 467.5 C 156 486, 163.6 491.5, 186.5 491.5 C 197.9 491.5, 198.7 491.4, 202.7 488.8 C 212.4 482.5, 214.5 476.1, 216 449 C 217.7 416.9, 218.8 403.8, 220.4 397.5 C 221.3 394.3, 222 389.9, 222 387.9 C 222 381.3, 225.6 365.7, 229.1 357.5 C 236.2 340.5, 239.4 333.7, 245.2 323 C 254.4 306.2, 267 280.2, 267 278.2 C 267 277.6, 267.3 277, 267.8 276.8 C 268.7 276.4, 277.5 254.1, 278.9 248.5 C 283.4 231.5, 271.5 217.7, 252.5 217.6 C 236.8 217.5, 228.8 226.1, 211.3 261.9 C 205.7 273.5, 195.7 298.8, 193.6 307 C 192.2 312.3, 189.6 313.5, 188.5 309.3 C 188.2 307.8, 185.2 300, 181.9 292 C 178.6 284, 173.9 272.7, 171.5 266.9 C 169 261, 165 251.8, 162.5 246.5 C 160 241.2, 158 236.7, 158 236.5 C 158 236.3, 156.4 233.4, 154.4 230.1 C 145.1 214.5, 128.6 207.1, 111.7 211.1 M 604 217.3 C 596.8 220.3, 594.9 220.9, 588.1 222.5 C 583.1 223.6, 579 224, 575.7 223.6 C 571.2 223, 570.8 223.1, 572 224.4 C 575.1 228.2, 596.3 224.8, 605.4 219.1 C 608.7 217, 607.7 215.7, 604 217.3 M 243.4 220.5 C 239.3 222.3, 231 230.7, 228.5 235.6 C 227.4 237.7, 226.3 239.7, 226 240 C 224.4 241.6, 214.5 261.2, 210.3 271 C 208.5 275.4, 206 281, 204.8 283.3 C 204 285, 204.4 287, 205.3 285.9 C 205.7 285.4, 210.4 275.5, 214.5 266.5 C 225.9 241.2, 235.3 227, 243.2 222.9 C 245.3 221.9, 247.6 221, 248.5 221 C 249.4 221, 249.8 220.6, 249.5 220 C 248.7 218.7, 247.2 218.8, 243.4 220.5 M 143 221.6 C 143 222.1, 144.3 224.4, 145.9 226.6 C 148.8 230.5, 158.3 248.7, 163.3 260 C 166.6 267.4, 169.6 274.1, 173.5 282.5 C 175.3 286.4, 177.3 291, 178.1 292.8 C 181 299.8, 186 309.4, 185.4 307 C 184.8 304.3, 183 299.6, 179.3 291.2 C 178.1 288.3, 175.9 283.2, 174.4 279.7 C 170.9 271.2, 169.6 268.3, 162.9 254.3 C 159.6 247.6, 157 241.9, 157 241.6 C 157 241.3, 154.9 237.6, 152.3 233.3 C 147.5 225.3, 143 219.7, 143 221.6 M 493.7 230.8 C 488.4 236.3, 491.5 242.4, 499.4 242.3 C 507.7 242.1, 510.5 236.8, 505.3 231 C 501.8 227, 497.4 226.9, 493.7 230.8 M 494.7 231.8 C 491.4 235.4, 492.9 239.7, 497.6 240.6 C 504.2 241.8, 508.7 235.7, 504.2 231.7 C 501.7 229.5, 496.7 229.6, 494.7 231.8 M 65.3 243.5 C 65.5 250.1, 66.1 256.4, 66.7 257.5 C 67.3 258.6, 68.8 261.5, 70.1 264 C 76.1 276.1, 77.8 279.1, 78.3 278.3 C 78.6 277.8, 77.5 274.7, 75.8 271.4 C 74.1 268.2, 72.1 264.2, 71.3 262.5 C 70.5 260.9, 69.4 258.6, 68.8 257.5 C 68.2 256.4, 67.5 250.8, 67.2 245 C 67 239.2, 66.3 233.8, 65.8 233 C 65.2 232, 65 235.9, 65.3 243.5 M 226.5 253.8 C 224.4 257.5, 220.8 263.9, 218.7 268 C 216.5 272.1, 214.1 276.6, 213.3 278 C 212.6 279.4, 212 281, 212 281.7 C 212 282.3, 211.7 283, 211.3 283.2 C 210.8 283.4, 209.4 286, 208 289 C 206.7 292, 204.3 296.5, 202.9 299 C 201.4 301.5, 199.9 304.6, 199.5 306 C 198 310.8, 201.4 305.7, 207 294.5 C 210 288.4, 212.7 283.3, 213 283 C 213.3 282.7, 216.1 277.3, 219.2 271 C 226.2 257.1, 230.2 249.7, 231.4 248.9 C 231.8 248.5, 231.8 248, 231.3 247.7 C 230.8 247.4, 228.6 250.1, 226.5 253.8 M 89 254.8 C 89 256.5, 89.4 258, 89.9 258 C 90.4 258, 90.6 258.8, 90.3 259.9 C 90 260.9, 90.3 262.1, 90.9 262.4 C 91.5 262.8, 92 263.9, 92 264.9 C 92 267.5, 100.8 284.4, 107.3 294.3 C 110.5 299.1, 113.4 303.8, 113.7 304.7 C 114.1 305.7, 115 307.1, 115.7 307.8 C 116.4 308.5, 117 309.8, 117 310.6 C 117 311.4, 117.5 312, 118 312 C 118.6 312, 119 312.5, 119 313.2 C 119 314.4, 127.8 329, 128.6 329 C 129 329, 126.4 323.8, 118.3 309 C 116.6 306, 112.5 299.2, 109.1 294 C 105.7 288.8, 100.9 280.2, 98.4 275 C 95.9 269.8, 93.5 264.8, 93 264 C 92.6 263.1, 91.9 260.6, 91.6 258.4 C 90.6 252.8, 89 250.5, 89 254.8 M 406.5 261.1 C 400.7 261.9, 397.2 262.8, 387 266.4 C 378.2 269.4, 377.3 269.6, 379.1 267.3 C 380.3 265.9, 380.1 265.9, 377.7 267.5 C 373.1 270.5, 371.2 274.2, 369.6 283.6 C 367.8 293.6, 367.5 307.3, 369.1 301 C 369.6 299.1, 370.4 293.5, 370.9 288.5 C 371.9 277.9, 374.1 272.8, 378 271.3 C 381.5 270, 382.9 270.9, 379.8 272.4 C 376.5 274.1, 374 279.5, 373 287.4 C 372.5 291.3, 371.3 299.2, 370.4 305 C 369.4 310.8, 368.5 321.4, 368.3 328.5 C 367.9 340.9, 368 341.7, 370.3 345 C 372.3 348, 373.1 348.5, 376.1 348.2 C 378 348, 388.1 347.7, 398.7 347.6 C 415.2 347.3, 418.1 347.1, 419.5 345.6 C 422.2 342.9, 422.6 344.7, 420 347.5 C 417 350.7, 418.7 350.8, 422.2 347.5 C 424.3 345.6, 425 343.8, 425.4 339.3 C 425.8 336.1, 426.5 329.6, 427 324.9 C 427.6 320.2, 427.9 314.4, 427.9 311.9 L 427.8 307.5 426.8 313 C 426.3 316, 425.5 321.7, 425.1 325.5 C 423.8 336.6, 423.8 326.6, 425.1 312.7 C 426.4 298.6, 427.8 293.5, 428 302 C 428.2 306.6, 428.5 305.5, 430 295 C 431.1 288.2, 432.4 281.5, 432.9 280.2 C 437.1 271.1, 420.7 259.2, 406.5 261.1 M 466.5 265.4 C 463.8 266, 462 266.8, 462.5 267.2 C 463.1 267.6, 464.2 267.5, 465 266.9 C 467.9 265.1, 473 265.8, 473 268 C 473 270, 470.2 270.8, 468.7 269.3 C 467.6 268.3, 458.1 268.4, 458.8 269.4 C 459.1 269.9, 458.3 270.1, 457.1 269.7 C 455.4 269.3, 455 269.5, 455.4 270.5 C 455.7 271.4, 455.4 271.7, 454.5 271.4 C 452.4 270.6, 446.5 275.5, 443.1 280.8 C 438.8 287.7, 437 295.7, 436.3 311.5 L 435.8 325.5 440.5 334.8 C 446.2 345.8, 445.4 345.4, 463.3 344.8 C 491.3 343.7, 498.6 336.7, 501 308.4 C 502.3 292.6, 502.1 279.3, 500.6 275.1 C 497.3 265.9, 482.4 261.6, 466.5 265.4 M 678 264.9 C 678 265.4, 678.6 266.3, 679.4 266.9 C 681.4 268.6, 682.1 273.7, 681 278.1 C 678.5 287.3, 664.6 291, 657.5 284.4 C 656.1 283.2, 655 282.5, 655 283.1 C 655 283.6, 656.2 285.2, 657.6 286.5 C 667.9 296.1, 687 283.8, 683 270 C 681.7 265.5, 678 261.7, 678 264.9 M 288.1 267.6 C 281.1 269.5, 278.4 271.4, 275.5 276.4 C 271.9 282.6, 267 297.7, 267 302.6 C 267 304.6, 269 301.3, 269.1 299.2 C 269.2 295.1, 272.6 285.5, 273.4 286.8 C 273.8 287.5, 273.8 288.6, 273.3 289.3 C 269.4 295.2, 266.7 329.5, 270 331.5 C 270.4 331.8, 271.1 333.1, 271.4 334.6 C 273.1 341.1, 284.6 349, 294.5 350.5 C 300.6 351.4, 302 352.1, 299.4 353.1 C 298.4 353.5, 301.3 353.6, 305.9 353.3 C 312.2 352.8, 314.1 353, 313.6 353.8 C 313.2 354.5, 311.7 355, 310.2 355 C 308.7 355, 306.8 355.5, 306 356 C 304.9 356.7, 306.2 357, 310.3 357 C 316.7 357, 323.8 358.9, 331.5 362.6 C 337.9 365.7, 339.4 365.6, 341.8 362.3 C 350.9 349.3, 355.5 313.8, 351.5 288.5 C 349.5 276, 345.9 271.4, 335 267.6 C 328.8 265.4, 325.4 265.6, 318 268.5 C 314.5 269.9, 310.6 271, 309.4 271 C 308.1 271, 306.8 271.5, 306.4 272.2 C 305.9 272.9, 305.4 272.6, 304.9 271.2 C 303.9 268.7, 298.8 266.2, 298.2 267.9 C 298 268.5, 296.9 268.9, 295.7 268.9 C 294 268.8, 293.9 268.7, 295.3 268.3 C 297.2 267.8, 296.7 265.9, 294.7 266.1 C 294 266.1, 291.1 266.8, 288.1 267.6 M 529.9 273.4 C 524.3 274.6, 517.9 278.5, 516.1 281.8 C 514.8 284.3, 513.2 293.4, 511.5 309 C 510.7 316.4, 509.3 327, 508.5 332.5 C 507.6 338, 506.3 347.5, 505.5 353.5 C 504.7 359.6, 503.4 369.7, 502.5 376 C 500.4 391.8, 497.9 419.4, 497.5 432 C 497.2 442.3, 497.2 442.3, 498 434.5 C 498.4 430.1, 499.3 420, 499.9 412.1 C 500.5 404.2, 501.2 396.8, 501.5 395.6 C 501.8 394.5, 502.7 388.8, 503.5 383 C 504.3 377.2, 505.7 368.9, 506.5 364.5 C 507.4 360.1, 508.5 353.1, 509 349 C 509.5 344.9, 510.2 340.6, 510.6 339.5 C 511.2 337.4, 513.2 324.2, 515.5 307 C 517.5 291.9, 518.1 289, 519.1 289 C 519.6 289, 520 288, 520 286.8 C 520 285.6, 520.3 284.9, 520.6 285.2 C 520.9 285.5, 520.6 288.4, 520 291.7 C 518.5 298.7, 516.3 313.5, 515 324.5 C 514.5 328.9, 513.8 333.6, 513.5 335 C 513.1 336.4, 512.2 341.6, 511.5 346.5 C 510.7 351.5, 509.4 359.8, 508.5 365 C 505.5 383.2, 504 394.6, 503 408 C 502.5 415.4, 501.6 426.2, 501 432 C 500.5 437.8, 499.7 450.8, 499.3 460.8 C 499 470.9, 498.3 479.3, 497.8 479.6 C 497.4 479.9, 496.9 472.6, 496.8 463.3 L 496.7 446.5 495.9 459.5 C 494.1 487.8, 497.9 496.7, 513.7 501.5 C 528 505.9, 539.6 501.1, 543.4 489.2 C 545.1 483.7, 547.5 451.4, 547.4 435.5 C 547.3 427.1, 547.4 425.6, 548.1 429 C 548.6 432.3, 548.8 430.6, 548.6 423 C 548.4 417.2, 548.5 414, 548.7 415.8 C 549.2 419.4, 551 419.2, 551 415.6 C 551 412.6, 554.2 409.8, 557.2 410.2 C 559.8 410.5, 559.7 408.4, 558.5 434 C 557.3 458, 561.5 485.1, 568.2 496.6 C 572.4 503.8, 586.9 509.7, 595.4 507.8 C 609.4 504.7, 619 495.5, 621.2 482.9 C 622.9 472.9, 621.8 468.9, 614.9 461.3 C 611.7 457.7, 609 454.4, 609 453.8 C 609 453.3, 608.6 453.1, 608.1 453.4 C 607.6 453.7, 607.2 453, 607.2 451.7 C 607.2 449.7, 602.8 432.9, 599.8 423.5 C 598.1 418.1, 593.9 411, 592.8 411.6 C 592.4 411.9, 592 411.5, 592 410.7 C 592 407.9, 587.9 403.8, 586.4 405.1 C 585.6 405.7, 585 405.9, 585 405.5 C 585 405.1, 585.8 404.1, 586.8 403.3 C 587.9 402.4, 588.1 401.7, 587.4 401.4 C 582.3 399.2, 582.7 398.2, 588.5 398.2 C 595.3 398.2, 602.2 395.7, 605.8 391.8 C 608.7 388.6, 609.9 384.6, 611.1 373.6 C 612.7 358.2, 618.6 350.5, 628.9 350.5 C 635.8 350.5, 636.2 351.9, 630.1 354.7 C 626.8 356.1, 624.1 358.3, 622.1 361.1 C 618.3 366.3, 617.8 370, 621.6 365.3 C 623 363.5, 626.6 360.4, 629.5 358.4 C 640.3 351.3, 644 341.5, 642.1 325 C 639 297.9, 623.6 283.7, 597 283.6 C 584.1 283.5, 580 285.1, 571 293.9 C 567.7 297.1, 564.9 299.6, 564.9 299.4 C 564.8 299.2, 564.7 296, 564.6 292.3 C 564.5 287.5, 563.9 284.7, 562.6 282.7 C 557.8 275.5, 541.8 271, 529.9 273.4 M 452.5 274.7 C 449.7 275.4, 445.1 279.9, 443 284.1 C 439.6 290.6, 437 310.4, 438.9 315 C 439.7 317, 439.9 316.1, 439.9 309.9 C 440.1 293.4, 446.9 277, 453.6 277 C 454.4 277, 455 276.3, 455 275.5 C 455 274.7, 454.9 274.1, 454.8 274.1 C 454.6 274.2, 453.6 274.4, 452.5 274.7 M 497.6 287.9 C 497.1 288.6, 497.2 289.6, 497.6 290 C 498.1 290.5, 498.1 296.4, 497.6 303.4 C 496.7 315.3, 495.8 318.8, 494.6 313.8 C 494.4 312.5, 494.4 314.4, 494.7 317.9 C 495.1 322.9, 495 324.1, 494 323.5 C 493 322.9, 492.8 323.3, 493.3 325 C 493.6 326.2, 493.5 327.7, 492.9 328.4 C 488.4 333.9, 487.9 334.4, 488.4 332.7 C 488.8 331.6, 488.6 331.1, 487.9 331.5 C 487.3 331.9, 487.1 332.9, 487.4 333.7 C 487.9 334.8, 487.6 335, 486.4 334.6 C 485.3 334.2, 484.2 334.7, 483.2 336.1 C 482 337.8, 481.6 337.9, 480.9 336.9 C 480.1 335.8, 479.7 335.8, 478.6 337.3 C 477.8 338.3, 476.6 338.8, 475.6 338.4 C 474.7 338.1, 474 338.2, 474 338.7 C 474 339.2, 473.2 339.6, 472.3 339.7 C 471.3 339.7, 468.9 340, 467 340.3 C 465.1 340.6, 460.2 340.9, 456.3 340.9 C 451.9 341, 449 341.4, 449 342.1 C 449 343.8, 477.4 341.8, 479.7 339.8 C 480.4 339.2, 481 339, 481 339.4 C 481 339.7, 483.2 338.6, 485.9 337 C 491.6 333.5, 495.6 327.9, 497.6 320.6 C 500.5 310.2, 500.4 283.3, 497.6 287.9 M 305 293.1 C 302.7 295, 302.7 295, 304.8 294 C 306 293.4, 309.8 293, 313.2 293.2 C 321.7 293.6, 322.3 294.8, 321.6 310 C 320.8 327.7, 319.5 329.2, 319.5 312.5 C 319.5 300.6, 319.2 297.8, 318 297 C 315.6 295.5, 306.7 295.8, 304.3 297.5 C 302.4 298.9, 302.1 298.8, 301.7 297.3 C 301.4 296.3, 301.4 297.4, 301.7 299.8 C 302.2 303.9, 300.6 306.1, 299.8 302.3 C 299.6 301.3, 299.5 306.8, 299.7 314.4 C 299.9 325.7, 300.3 328.6, 301.6 330.1 C 303.7 332.4, 305.4 332.6, 304.6 330.5 C 304.2 329.2, 304.4 329.2, 306 330 C 310.2 332.2, 319.9 329.9, 321.8 326.3 C 322.3 325.3, 323.3 320.1, 324 314.7 C 325.4 303.3, 324.2 295.7, 320.6 292.8 C 317.5 290.2, 308.3 290.4, 305 293.1 M 700.4 314.5 C 704.3 333.7, 705.3 352, 702.6 352 C 701.6 352, 701.1 354, 700.7 359.3 C 700.2 365.8, 699.3 370.7, 696 385.5 C 695.4 388.3, 694.5 391.4, 694 392.5 C 693.6 393.6, 692.2 397.7, 691 401.5 C 686.4 416.5, 680.2 426.1, 671.1 432.5 C 667.8 434.7, 665.9 435.2, 659.3 435.5 C 649.4 435.9, 649.8 435.8, 650.6 437.1 C 651.3 438.4, 664.9 437.7, 668.7 436.3 C 675.3 433.7, 685.4 421.3, 690 410 C 691.2 407, 692.6 403.6, 693.1 402.5 C 694.7 398.7, 698.2 385.1, 700.5 374 C 701.2 370.4, 702.6 364.4, 703.6 360.5 C 707.3 345.3, 706.1 320.1, 701.4 313.6 C 699.9 311.6, 699.8 311.6, 700.4 314.5 M 248.8 333.8 C 244 343.5, 239 354.4, 237.7 358 C 236.3 361.6, 234.9 365.4, 234.4 366.5 C 233 370.2, 231.2 377.5, 231.6 377.9 C 231.9 378.2, 232.8 377.3, 233.7 375.9 C 241.5 364.8, 252.6 356.8, 266.3 352.6 C 268 352.1, 267.9 351.7, 265.5 348.6 C 261.2 342.9, 258.8 335.3, 258.1 325.3 L 257.5 316.1 248.8 333.8 M 97.3 323.1 C 98.3 333.2, 101.9 342, 111.2 357.8 C 124.9 380.8, 146.5 403.1, 150.9 398.7 C 153.7 395.9, 152.1 392.2, 144.2 383.3 C 137 375.2, 128.9 364.3, 113.8 342.5 C 108.4 334.6, 105.8 329.8, 104.5 325 C 103.7 322.1, 101.3 319.3, 98.6 317.8 C 96.8 316.8, 96.7 317.1, 97.3 323.1 M 237.4 327.7 C 236.4 329.8, 235.3 331.7, 235 332 C 234.4 332.6, 231.9 337.2, 227.3 346.5 C 223.8 353.4, 222.2 356.9, 219.6 363.2 C 218.8 365, 217.7 367.6, 217.2 369 C 213.9 376.8, 208.9 408.6, 209.1 420 L 209.2 424.5 210.1 419.5 C 210.6 416.8, 211.4 411.1, 212 407 C 215.1 382.6, 216.7 374.7, 219.6 368.3 C 220.4 366.6, 221 364.7, 221 364.1 C 221 363.5, 221.4 362.2, 221.9 361.2 C 222.5 360.3, 223.5 358.2, 224.3 356.5 C 225.1 354.9, 229 347.1, 233 339.2 C 237 331.3, 240 324.7, 239.8 324.4 C 239.5 324.2, 238.5 325.7, 237.4 327.7 M 567.8 327.7 C 563.6 329.8, 561.9 335.1, 559 354 C 557.6 363.4, 556.3 368.5, 556.1 365.3 C 556 364, 555.5 363, 554.9 363 C 552.8 363, 554.4 369.5, 556.6 369.8 C 561.4 370.5, 573.8 362.5, 572.6 359.4 C 572.4 358.8, 572.5 357.9, 572.9 357.4 C 576.7 353, 578.8 335.1, 576 330 C 573.7 325.7, 572.3 325.3, 567.8 327.7 M 667.5 332.7 C 662.5 334, 657.8 343.5, 661.1 345.6 C 661.9 346.1, 662.1 345.5, 661.6 343.7 C 659.8 336.4, 671.6 331.9, 677.4 337.6 C 680.4 340.7, 680.6 342, 678.5 346 C 676.9 349, 673.8 351.3, 670.8 351.5 C 667.6 351.8, 667.6 353, 670.8 353 C 674.5 353, 680.5 347.8, 681.6 343.6 C 683.2 337.2, 674.9 330.8, 667.5 332.7 M 357.6 342.8 C 353.5 358.6, 351.7 362.7, 346.5 368.4 L 344 371.1 347.6 374.7 C 355.8 382.8, 357.8 392.1, 358.4 424.5 C 359.1 461.9, 361.9 474.9, 372.5 491 C 380.2 502.6, 392.2 509, 406.2 509 C 418 509, 424.9 504.9, 431.5 493.9 C 433.5 490.7, 435.5 488, 435.9 488 C 436.3 488, 437.5 490.8, 438.6 494.2 C 441.3 503, 445.5 506.2, 454.2 506.3 C 461.3 506.3, 464.5 505, 472.9 498.6 C 485.3 489.2, 487.2 481.4, 489 434.5 C 489.5 419.7, 490.5 398.4, 491.1 387.3 C 492.4 364.2, 492 360.9, 487.9 356.7 L 484.9 353.7 468.7 354.4 C 447.2 355.3, 446.5 355.5, 441.5 360.5 L 437.3 364.7 436.6 376.1 C 436.2 382.4, 435.5 392, 435 397.5 C 433.5 413.8, 432.8 437.7, 433.8 436 C 434.3 435.2, 435 429.3, 435.3 423 C 437.3 384.7, 439.7 360.6, 439.9 378 C 440 387.2, 438.2 430.7, 437.5 435.5 L 437 439.5 438.5 435 C 439.5 432, 440.3 423.6, 440.9 409.2 C 441.4 397.5, 442.1 387.6, 442.5 387.2 C 443.8 385.9, 444.8 389.4, 444.4 393.9 C 444.2 396.4, 443.6 406, 443 415.1 C 442.5 424.2, 441.5 433.9, 440.9 436.6 C 440.2 439.3, 439.3 443.2, 438.8 445.3 C 437.6 450.4, 432.2 456.3, 428.7 456.3 C 423.3 456.3, 418 450.2, 418 443.8 C 418 441.9, 417.8 441.8, 417 443 C 416.3 444.1, 416 443, 416 439.2 C 416 436, 416.4 434.1, 417 434.5 C 418.4 435.4, 418.8 432.2, 419.5 414.9 C 419.8 406.2, 420.5 396.6, 421 393.4 C 422.4 385, 423.4 366.7, 422.7 363.8 C 421.8 360.2, 413.3 356.1, 403.9 354.7 C 389 352.6, 370.4 357.5, 367.1 364.5 C 363.4 372.2, 363 448.6, 366.6 467.8 C 367 469.5, 366.8 471, 366.3 471 C 360.7 471, 356.3 375.7, 361.3 362.8 C 362.3 360.1, 363.5 358, 364 358 C 366 358, 365.9 354, 364 350.7 C 362.8 348.7, 361.6 344.6, 361.3 341.6 C 360.5 334.3, 359.7 334.5, 357.6 342.8 M 620.5 347.4 C 613.9 350.3, 609.8 356.4, 607.3 367 C 605.4 374.9, 605.2 379.6, 606.9 381.3 C 607.8 382.2, 608.1 381.4, 607.9 377.5 C 607.4 365.8, 612.7 354.3, 620.6 349.8 C 623.6 348.2, 626 346.6, 626 346.4 C 626 345.6, 623.5 346.1, 620.5 347.4 M 426.5 351 C 424.8 352.8, 424.8 353.1, 426.3 354.8 C 427.1 355.7, 428.5 357.7, 429.3 359.2 L 430.7 361.9 433.8 357.4 C 437.5 352.2, 437.7 351.4, 435.1 350 C 432 348.4, 428.5 348.8, 426.5 351 M 61.6 361.3 C 61.2 363.6, 60.6 366.6, 60.4 368 C 59.3 374.1, 57.9 383.1, 56.9 391 C 55.7 400.5, 56.5 424.4, 58.1 426.9 C 58.8 428, 59 424.3, 58.6 415 C 58.1 402.5, 59.1 381.9, 60.4 376 C 60.8 374.6, 61.5 370.5, 62 366.9 C 62.5 363.3, 63.2 359.5, 63.6 358.6 C 63.9 357.7, 63.8 357, 63.2 357 C 62.7 357, 61.9 358.9, 61.6 361.3 M 277 359.1 C 254.1 361.5, 237.5 376.5, 231.3 400.5 C 228.6 410.9, 228.7 437.5, 231.4 444.5 C 240.2 467, 265.1 476.6, 286.7 465.8 C 289.8 464.3, 290.6 465.4, 288.6 468.5 C 284.6 474.6, 272.8 478, 255.6 478 C 247.1 478, 241.6 478.5, 240 479.3 C 232.6 483, 230.7 494.4, 236 503.6 C 248.7 525.8, 286.5 532.5, 317.3 518 C 330.9 511.6, 344 492.5, 348.9 471.9 C 355.9 442.2, 353 395.5, 343.2 379.9 C 340.3 375.4, 329.6 366.5, 325 364.9 C 323.6 364.4, 321.6 363.5, 320.5 363 C 317.4 361.6, 305.4 359.8, 295.5 359.4 C 290.6 359.2, 285.8 358.9, 285 358.7 C 284.2 358.6, 280.6 358.7, 277 359.1 M 637.5 360.5 C 631.7 363.5, 630.4 368, 634 373 C 637.5 378, 645.1 377.5, 648.3 372.1 C 653.2 363.8, 646 356.2, 637.5 360.5 M 271.7 361.5 C 263.9 363.2, 256.1 367.4, 250 373.2 C 247.2 375.8, 245.2 378, 245.5 378 C 245.9 378, 253.2 372.7, 257.2 369.5 C 261.6 365.9, 274.9 362, 282.6 362 C 286.7 362, 287.1 362.2, 286.5 364 C 286 365.4, 286.3 366, 287.5 366 C 288.7 366, 289 365.4, 288.5 364 C 288 362.5, 288.3 362, 289.7 361.9 C 292.8 361.7, 285.7 360.2, 281.5 360.2 C 279.3 360.2, 274.9 360.8, 271.7 361.5 M 635.6 365.1 C 632.1 371.1, 637.5 376.7, 644 373.7 C 646.8 372.3, 648 366, 645.9 363.4 C 643.7 360.7, 637.6 361.6, 635.6 365.1 M 487.6 367.6 C 486.5 370.4, 485.8 414.3, 486.8 417.5 C 487.4 419.6, 487.9 412.5, 488.5 393.7 C 489.2 368.1, 489.1 363.8, 487.6 367.6 M 689.9 387.3 C 689.3 391.2, 688.3 394.9, 687.8 395.5 C 687.4 396, 687 397, 687 397.8 C 687 398.6, 686 401.4, 684.9 403.9 C 683.7 406.4, 682 410.1, 681.1 412 C 676.6 421.6, 666.2 431, 659.8 431 C 658.1 431, 657.9 431.3, 658.9 431.9 C 661.4 433.5, 669.1 430, 674.1 425 C 678.7 420.4, 687 405.3, 688.6 398.5 C 689 396.9, 689.7 395, 690.2 394.4 C 691.2 393.1, 692.6 380, 691.7 380 C 691.4 380, 690.6 383.3, 689.9 387.3 M 291.5 386.1 C 285.7 387.5, 277.2 396.8, 280.1 398.6 C 280.6 398.9, 281 398.5, 281 397.7 C 281 395.9, 286.9 390, 289.8 388.9 C 295.9 386.6, 304.6 388.3, 309.2 392.7 C 312.1 395.5, 314.2 395.1, 312.4 392.2 C 309.5 387.5, 298.7 384.4, 291.5 386.1 M 235.3 396.3 C 231.5 409.9, 231 413, 231 424 C 231 446.1, 236.7 456.8, 252.9 464.3 C 261.1 468.2, 273.8 468.8, 283 465.6 C 286 464.6, 289.2 463.7, 289.9 463.5 C 290.7 463.4, 291.6 462.8, 291.8 462.2 C 292.2 460.9, 290.7 460.6, 289.6 461.8 C 289.2 462.2, 288.5 462.5, 288.2 462.6 C 287.8 462.6, 286.8 463, 286 463.3 C 285.2 463.7, 282.5 464.2, 280 464.5 C 277.5 464.7, 274.3 465.2, 272.8 465.6 C 267.4 466.9, 250.8 462.6, 252.8 460.5 C 253.2 460, 253 460, 252.3 460.4 C 250.3 461.5, 238 452.9, 238 450.3 C 238 449.6, 237.6 449, 237.1 449 C 235.3 449, 233.7 437.1, 233.7 423.5 C 233.6 409.7, 234.5 403.2, 237.5 395.7 C 239.2 391.6, 239.4 389, 238.2 389 C 237.7 389, 236.5 392.3, 235.3 396.3 M 288.8 391.6 C 287.3 392.4, 284.7 395.1, 282.9 397.6 C 281 400.4, 279.5 401.8, 279.1 401.1 C 277.5 398.6, 275.8 415.3, 277.1 420.5 C 280.7 434.9, 294.9 440.6, 304.8 431.6 C 311.6 425.4, 314.1 405.8, 309.2 397.8 C 304.5 390.2, 296 387.6, 288.8 391.6 M 163.1 397.4 C 161.7 399.1, 160.3 406.1, 158.9 418.5 C 158.4 423.5, 157.5 430.5, 157 434.3 C 155.4 445.4, 155.7 466.3, 157.6 472.1 C 159.6 478.1, 163.8 482.5, 169.8 485.1 C 174.5 487.1, 184.5 487.7, 185.5 486 C 185.9 485.4, 184.1 485, 180.8 485 C 169.6 485, 162 480.1, 159.4 471.1 C 157.8 465.6, 157.9 438.6, 159.5 425 C 161.2 411.1, 161.9 407, 163.4 402.2 C 165.2 396.6, 165.1 395, 163.1 397.4 M 427.6 405.3 C 425.3 437.7, 425.8 449, 429.5 449 C 430.6 449, 430.5 448.4, 429.3 445.8 C 427.9 443.1, 427.8 439.4, 428.3 419.3 C 428.6 406.5, 428.8 396, 428.6 396 C 428.4 396, 428 400.2, 427.6 405.3 M 292.1 408.2 C 286.8 418.8, 288.2 429, 295.1 429 C 299 429, 300.5 425.2, 300.4 416.1 C 300.2 401, 297.1 398, 292.1 408.2 M 555 406.7 C 551.8 408.1, 548.7 411, 549.6 411.9 C 549.8 412.1, 550.8 411.6, 551.8 410.6 C 552.9 409.7, 555.4 408.9, 557.6 408.7 L 561.5 408.5 561 416.5 C 559.9 433.9, 560.6 461.3, 562.3 470 C 566.9 493.1, 571.4 499.3, 584.2 500.4 C 584.5 500.5, 585.2 500.8, 585.6 501.3 C 586.6 502.3, 590.8 502.2, 591.4 501.1 C 591.7 500.6, 589 499.6, 585.3 498.9 C 567.2 495.3, 563.4 484, 563.6 434 C 563.7 402.5, 563.8 402.9, 555 406.7 M 213.7 415.5 C 213.3 417.2, 212.6 424.1, 212 431 C 210.4 451.9, 208.9 465.3, 208 468.7 C 207.5 470.7, 207.5 472.2, 208.1 472.6 C 208.6 472.9, 209 472.3, 209 471.3 C 209 470.2, 209.4 469, 209.9 468.5 C 210.5 467.9, 211.4 461.7, 211.9 454.5 C 212.5 447.4, 213.5 436.4, 214 430.1 C 214.6 423.8, 215 417.3, 214.8 415.6 L 214.5 412.5 213.7 415.5 M 659.1 446.9 C 639.3 454.3, 626 476.9, 626.1 503.2 C 626.2 517.2, 627.8 521.7, 635.5 529.5 C 647.1 541.2, 665.7 542.4, 682.4 532.6 C 711 515.8, 714.1 465.2, 687.5 448.2 C 681.9 444.6, 667.2 444, 659.1 446.9 M 56 451.9 C 56 454.2, 59.6 466.3, 61.6 470.7 C 62.4 472.4, 63 474.1, 63 474.5 C 63 475.6, 67.1 481, 67.9 481 C 69.1 481, 70.2 464, 69.3 460 C 68.7 457.3, 68.4 459.1, 68 467.4 C 67.4 479.7, 67 479.6, 62.9 466 C 60.7 458.4, 57.3 450, 56.5 450 C 56.2 450, 56 450.9, 56 451.9 M 0.4 498.5 C 0.4 522.2, 0.6 535.7, 0.9 528.5 C 1.2 521.4, 1.3 502, 1 485.5 C 0.4 456.7, 0.4 457.2, 0.4 498.5 M 347 460.8 C 347 461.9, 346.6 463.1, 346.1 463.4 C 345.7 463.7, 345 465.8, 344.6 468 C 344.3 470.3, 343.5 472.9, 343 473.8 C 342.5 474.7, 341.3 477.3, 340.3 479.5 C 339.4 481.7, 336.2 486.6, 333.3 490.4 C 330.4 494.3, 328.3 497.6, 328.5 497.9 C 330.1 499.5, 341.6 484.2, 343.5 477.8 C 343.9 476.6, 344.6 475.1, 345 474.5 C 346 473.1, 348.2 459.9, 347.6 459.2 C 347.2 458.9, 347 459.6, 347 460.8 M 474 483.7 C 474 484.6, 474.7 486.2, 475.7 487.2 C 477.2 488.9, 477.2 489, 475.6 489 C 474.6 489, 471.8 491, 469.4 493.5 C 466.7 496.2, 464.4 497.7, 463.5 497.3 C 462.4 496.9, 462.2 497.2, 462.6 498.4 C 463.1 499.7, 462.7 499.9, 459.9 499.4 C 457.3 499, 456.9 499.1, 458 499.9 C 459.1 500.7, 458.2 501, 454 501 C 448.5 500.9, 443 498, 443 495 C 443 494.5, 442.5 494, 441.9 494 C 441.4 494, 441.1 493.6, 441.5 493.1 C 441.8 492.6, 441.5 491.8, 440.9 491.4 C 438.3 489.9, 441.2 496.6, 444.5 499.9 C 448.9 504.4, 456.7 504.8, 464.5 500.9 C 470.3 498.1, 480 488.9, 480 486.4 C 480 485, 479.7 484.9, 478.8 485.8 C 476.9 487.7, 476 487.2, 476 484.5 C 476 483.1, 475.6 482, 475 482 C 474.5 482, 474 482.8, 474 483.7 M 107.7 492.6 C 104.1 494.6, 102 499.6, 103.3 503.3 C 105.8 510.7, 119.3 510.7, 122 503.4 C 125.1 495.5, 115.6 488.3, 107.7 492.6 M 109 493.7 C 101.2 497, 103.6 506.5, 112.3 506.5 C 114.7 506.5, 117.4 505.9, 118.3 505.1 C 120.4 503.4, 120.6 496.7, 118.6 495.1 C 116.9 493.7, 111.1 492.8, 109 493.7 M 687.8 499.2 C 689.4 500.8, 689.3 504.5, 687.5 508 C 682.4 518, 664.6 518.8, 660.6 509.2 C 659.3 505.9, 659.1 505.8, 659.1 508.1 C 659 509.7, 660.2 511.8, 662.6 514.1 C 671.5 522.7, 691 515.3, 691 503.3 C 691 500.4, 689.5 498, 687.6 498 C 687 498, 687.1 498.5, 687.8 499.2 M 367.3 500.8 C 367.5 501.2, 368.7 503.8, 370 506.5 C 374.9 517.2, 393.5 531.7, 410 537.7 C 420.1 541.3, 433.3 541.5, 443.1 538.2 C 454.8 534.2, 471.3 520.7, 479.2 508.6 C 484.4 500.6, 484 500.2, 476.7 505.4 C 461.6 516.2, 451 516.9, 437.3 508 C 435.2 506.6, 434.8 506.8, 431.3 510.2 C 417.8 523.4, 393.5 521.3, 374.8 505.4 C 369.1 500.5, 366.2 498.8, 367.3 500.8 M 219.6 507.8 C 219.3 508.3, 220.5 509.5, 222.3 510.5 C 224.1 511.5, 225.7 512.6, 226 512.9 C 226.3 513.2, 228.8 515.3, 231.5 517.5 C 240.7 524.7, 247.9 533.7, 253.7 545.2 C 255.6 549, 256.5 550, 256.8 548.7 C 257.8 543.7, 244.8 524.9, 234.9 517 C 226.2 510, 220.4 506.6, 219.6 507.8 M 360 510.3 C 360 511.2, 360.4 512, 360.9 512 C 361.4 512, 362.1 512.8, 362.5 513.9 C 363.8 518, 378.5 531.8, 386.5 536.4 C 399.1 543.6, 420 550.1, 417.5 546 C 417.2 545.5, 416 545, 414.9 545 C 409.5 545, 388.3 536.4, 382.3 531.7 C 379.4 529.5, 364.6 514.5, 362.3 511.5 C 360.6 509.2, 360 508.9, 360 510.3 M 300 512.8 C 302.7 513.7, 300.6 515, 297.5 514.4 C 295.1 514, 294 514.2, 294 514.9 C 294 515.6, 293.6 515.9, 293.1 515.5 C 292.5 515.2, 287.3 515.7, 281.4 516.7 C 273.1 518, 271.3 518.6, 273.4 519.1 C 274.9 519.5, 277.5 519.4, 279.2 518.8 C 281 518.2, 286 517.9, 291.4 518.2 C 297.1 518.6, 299.6 518.4, 298 517.9 C 296.1 517.2, 296.6 517.1, 300 517.5 C 303 517.8, 303.8 517.6, 302.5 517.1 C 300.7 516.3, 300.6 516.2, 302.3 515.5 C 303.2 515.1, 304.7 515.1, 305.6 515.4 C 306.4 515.7, 306.8 515.6, 306.5 515 C 306.2 514.4, 306.6 514, 307.4 514 C 308.3 514, 309 513.6, 309 513.1 C 309 512.6, 306.8 512.3, 304 512.3 C 301.3 512.4, 299.5 512.7, 300 512.8 M 173 524.5 C 170.2 527.5, 171.5 531.2, 176.1 533.6 C 180.3 535.7, 191 531.4, 191 527.5 C 191 522.1, 177.4 519.8, 173 524.5 M 586.5 523 C 586.2 523.6, 585.1 524, 584.1 524 C 581 524, 577.8 528.5, 577.6 532.9 C 577.4 543.9, 595.2 547.9, 603 538.5 C 605.2 535.8, 603.4 535.8, 599.4 538.5 C 594.3 541.9, 591.5 542.5, 586.9 541 C 578.9 538.3, 577.3 530.7, 583.9 526.3 C 588.2 523.4, 590.3 523.5, 596.5 526.5 C 599.2 527.8, 601.6 528.7, 601.9 528.5 C 603 527.4, 599.3 525, 594.5 523.5 C 588.3 521.7, 587.3 521.7, 586.5 523 M 636 522.9 C 636 524.5, 644.1 531.1, 648.8 533.3 C 658.8 537.8, 674.6 535.7, 680.5 528.9 C 681.6 527.7, 682.1 526.9, 681.5 527.2 C 673.5 531.2, 672.2 531.5, 662.5 531.5 C 651.5 531.4, 644.5 529.2, 639.9 524.4 C 637.6 521.9, 636 521.3, 636 522.9 M 174.8 525.1 C 172.1 526.7, 172.6 529.9, 175.7 531.1 C 179 532.3, 183.7 531.6, 186.8 529.4 C 189 527.9, 189 527.7, 187.4 525.9 C 185.5 523.8, 177.8 523.3, 174.8 525.1 M 286.4 545.9 C 280.8 548.3, 279.2 556.2, 283.5 560.5 C 289.7 566.6, 301 562.4, 301 554 C 301 547.6, 292.9 543.2, 286.4 545.9 M 287.4 548.4 C 282.7 550.5, 281.7 554.7, 284.9 558.9 C 287.4 562.2, 294.5 562.3, 297.2 559 C 302.5 552.5, 295.4 544.9, 287.4 548.4 M 454.1 557.7 C 454 558.8, 457.8 568.2, 460 572.1 C 460.5 573, 461.2 575.4, 461.5 577.4 C 461.9 579.4, 462.6 581.3, 463.1 581.6 C 464.5 582.4, 464.1 586, 462 592 L 460.1 597.5 460 592.8 C 460 587.8, 457.9 578.4, 455.6 573.5 C 454.9 571.9, 453.6 569, 452.9 567.3 C 451.5 564, 449.2 562.5, 450.5 565.8 C 456.8 581.6, 459.6 600.1, 456.9 607.9 C 456.3 609.7, 456.1 612.2, 456.6 613.8 L 457.3 616.5 458 613.5 C 458.4 611.9, 458.8 611.3, 458.9 612.2 C 459.1 615.7, 465.2 624, 470.1 627.6 C 476.3 632.1, 485.3 633.4, 491.3 630.5 C 496.1 628.3, 504.2 619.2, 505.5 614.9 C 505.8 613.6, 506.6 611.5, 507.2 610.3 C 508 608.7, 508 607.4, 507.2 605.8 C 506.2 603.6, 506.1 603.7, 506.1 606.8 C 506 608.6, 505.6 610.8, 505 611.8 C 504.5 612.7, 503.5 614.6, 503 616 C 497.9 628, 485.4 633.3, 474.7 628 C 472.2 626.7, 469.9 625.1, 469.6 624.3 C 468.9 622.6, 469.5 622.6, 472.5 624.6 C 478.6 628.6, 492.4 625.9, 497.6 619.8 C 500.5 616.3, 500 614.6, 496.9 617.8 C 490.6 624.6, 480.3 624.7, 472.8 618.1 C 470.7 616.2, 470 616, 470 617.1 C 470 618.8, 473.5 622.4, 476 623.3 C 477 623.7, 477.1 623.9, 476.2 623.9 C 475.5 624, 473.6 623.3, 472 622.5 C 469.8 621.4, 469 621.3, 468.7 622.3 C 468 623.9, 466.1 621.4, 465.3 617.7 C 464.9 615.8, 464.5 615.3, 463.9 616.1 C 463.4 616.9, 462.9 615.9, 462.4 613.5 C 461.5 608.5, 463.4 596, 465.9 591.2 C 471.6 580, 484.8 575, 495.2 580 C 500 582.3, 500.9 582.1, 498 579.5 C 496.9 578.5, 496 577, 496 576.2 C 496 575, 494.4 574.8, 486.1 575.2 C 476.2 575.7, 476.2 575.7, 471.4 579.8 C 466.4 584.1, 464 584.1, 464 579.8 C 464 578.7, 463.4 576.4, 462.6 574.7 C 458.5 565.6, 457 562, 457 561.1 C 457 560.5, 456.6 560, 456.1 560 C 455.6 560, 454.9 559.2, 454.7 558.3 C 454.4 557.3, 454.2 557, 454.1 557.7 M 176.9 560 C 171.7 560.9, 166.9 563.4, 164 566.7 C 160.8 570.3, 158.9 573.6, 159.7 574.4 C 160 574.7, 161.1 573.5, 162 571.7 C 168.4 559.6, 189.6 558.6, 197.9 570.1 C 200.6 573.8, 201 575.1, 201 580.9 C 201 593.7, 193.1 602, 180.8 602 C 177 602, 175.9 602.3, 177 603 C 179.7 604.8, 186.7 604.1, 191.4 601.6 C 214.5 589.3, 202.6 555.4, 176.9 560 M 660.5 566.2 C 656.6 578.1, 648.5 587.7, 638.3 592.6 C 632.3 595.4, 632 595.7, 630.4 601 C 629.5 604, 628.3 606.8, 627.8 607.1 C 626.4 608, 630.4 613.7, 632.3 613.7 C 633.1 613.7, 636.2 614.7, 639.1 616 C 652.5 621.9, 670.3 617.6, 677.2 606.7 C 680.4 601.7, 680.5 601.2, 680.5 591 C 680.5 577.9, 676.9 569.9, 668.6 564.3 C 662.4 560.1, 662.5 560.1, 660.5 566.2 M 0.3 654 C 0.3 704.3, 0.6 743.3, 1 740.5 C 2 734.6, 2 666.8, 1.1 606 C 0.5 570.4, 0.4 579.1, 0.3 654 M 526.5 565.8 C 512.6 570.7, 504.9 586.9, 510.7 599.1 C 515.2 608.6, 522.7 612.5, 535.1 611.9 C 543.9 611.4, 549.6 608.2, 554.5 601 C 558.9 594.4, 558.9 582.6, 554.5 576 C 549.5 568.6, 544.2 565.6, 535.7 565.3 C 531.7 565.2, 527.6 565.4, 526.5 565.8 M 170.5 570.4 C 166.1 575.2, 164 579.4, 164 583.4 C 164 585.4, 163.5 587, 162.9 587 C 161.1 587, 165 592.5, 168.5 594.8 C 172.9 597.8, 178.4 599.3, 182.3 598.4 C 185.9 597.7, 192.6 593.2, 193.5 591.1 C 194.1 589.6, 190.4 592.3, 188.8 594.5 C 188.4 595.1, 188 595.1, 188 594.6 C 188 594.1, 187.4 594.2, 186.7 594.8 C 185.4 595.9, 180.6 596.5, 175.8 596.2 C 171.5 595.9, 165 589.1, 165 584.8 C 165 580.3, 168.2 573.9, 172 570.7 C 173.6 569.3, 175 567.9, 175 567.6 C 175 566.2, 173.3 567.3, 170.5 570.4 M 79.5 569.6 C 55.6 575.5, 47.3 605.9, 65.1 622.5 C 72.5 629.4, 77.7 631.4, 88.5 631.4 C 98.6 631.5, 102.8 629.9, 110 623.4 C 122.9 611.7, 122 589.4, 108.2 577.8 C 100.8 571.6, 87.2 567.7, 79.5 569.6 M 76.3 573.9 C 57.5 581.4, 52.7 604.4, 66.9 619.3 C 77.3 630.3, 93.7 631.8, 105.2 622.8 C 119.2 611.9, 117.9 587.9, 102.8 578.3 C 93 572.2, 84.3 570.7, 76.3 573.9 M 331.2 598.4 C 330 599, 328.7 600.3, 328.4 601.2 C 328.1 602.2, 327.4 603, 326.9 603 C 324.6 603, 326 612.6, 328.6 615.1 C 333.5 619.7, 343.7 617.4, 346.1 611.2 C 349.5 602.7, 339.6 594.2, 331.2 598.4 M 330.2 601 C 322.9 607.8, 329.1 618.3, 339 615.9 C 344.8 614.4, 346.7 605.1, 342 601.1 C 338.7 598.4, 333.1 598.4, 330.2 601 M 443.2 615.1 C 435.8 628.6, 422.6 639.5, 407 645.2 C 393.4 650.1, 391 650.5, 373.3 650.5 C 361.2 650.5, 356.6 650.8, 357.8 651.5 C 358.8 652.1, 366.8 652.5, 376.5 652.5 C 393.3 652.5, 393.6 652.5, 403 649.1 C 408.2 647.2, 412.7 645.3, 412.8 644.9 C 413 644.4, 413.6 644, 414.2 644 C 415.5 644, 426.6 637.3, 429.9 634.5 C 437.6 628.1, 439.3 626.4, 442.2 621.9 C 443.9 619.2, 445.4 615.9, 445.5 614.5 C 445.6 611.3, 445.3 611.4, 443.2 615.1 M 666.5 619.5 C 659.8 622.7, 647.9 622.9, 640.3 620 C 634.1 617.7, 633.8 618, 638.3 622.1 C 648.1 631.3, 662.8 632.4, 670.7 624.5 C 674 621.2, 675.2 616.9, 672.8 617.1 C 672.1 617.1, 669.3 618.2, 666.5 619.5 M 290.5 641.6 C 284 647, 274.2 652.8, 269 654.5 C 266 655.5, 262.6 656.6, 261.5 657.1 C 260.4 657.5, 258.4 658.1, 257 658.4 C 255.6 658.7, 257 658.7, 260 658.5 C 270 657.7, 280.8 652.6, 289.6 644.6 C 294.8 639.9, 295.5 637.5, 290.5 641.6 M 9.4 757 C 8.1 758.3, 8.9 765, 10.4 765.6 C 12.4 766.4, 17 764.2, 17 762.5 C 17 760.6, 15.4 760.5, 14.6 762.5 C 13.9 764.4, 12 764.5, 12 762.5 C 12 761.7, 13 760.6, 14.1 759.9 C 16.8 758.5, 18.3 760.3, 17.4 763.9 C 16.9 766.1, 17.1 766.2, 18.5 765 C 19.4 764.2, 19.9 762.8, 19.7 761.8 C 19.4 760.8, 19.6 760, 20.1 760 C 20.6 760, 21.1 760.7, 21.1 761.5 C 21.2 763, 21.5 764.3, 22 765.8 C 22.1 766.2, 22.5 765.2, 22.9 763.6 C 23.2 762, 24.2 760.4, 25 760.2 C 26.2 759.8, 26.3 760, 25.3 761.1 C 23.6 763.2, 25.1 764.9, 28.8 764.8 C 31.6 764.7, 31.9 764.4, 31.4 762.3 C 31 760.9, 31.2 760, 31.9 760 C 32.6 760, 33 760.7, 32.8 761.6 C 32.5 763.4, 35.5 765.9, 36.6 764.7 C 37 764.4, 36.7 763.4, 36 762.5 C 34.6 760.8, 35.2 759.4, 36.9 760.5 C 37.5 760.8, 38 762.1, 38 763.3 C 38.1 765.4, 38.2 765.4, 40.5 762.8 C 42.8 760.1, 43.1 760.1, 46.7 761.3 C 49.5 762.2, 50.4 763, 50.2 764.3 C 49.9 765.9, 50.2 766, 52 765 C 53.6 764.1, 53.8 763.5, 53 762 C 52.4 760.9, 52.2 760, 52.4 760 C 52.7 760, 53.7 761.4, 54.5 763.1 C 56.2 766.4, 57.4 766.3, 57.5 762.8 C 57.5 761.6, 58 760.5, 58.6 760.3 C 59.3 760.1, 59.5 761.1, 59.2 763.1 C 58.9 765.3, 59.1 766.1, 59.9 765.6 C 60.5 765.2, 61.1 763.9, 61.1 762.7 C 61.2 760.9, 61.3 760.8, 61.7 762.3 C 62.2 764.1, 62.3 764.1, 64.1 762.4 C 66.6 760.1, 67.4 761, 65.7 764.3 L 64.4 766.9 36.5 767 C 21.2 767, 8.4 767.3, 8.1 767.5 C 7.4 768.2, 613.6 768.1, 615.4 767.4 C 616.3 767.1, 617 765.8, 617 764.6 C 617.1 762.8, 617.2 762.7, 618 764.2 C 618.9 765.7, 622 765.8, 648 765.8 C 664.4 765.7, 677 765.3, 677 764.8 C 677 764.3, 677.9 764.4, 679 765 C 680.2 765.7, 694.4 765.9, 720.7 765.8 L 760.5 765.5 760.8 762.1 C 761 760.3, 760.7 758.3, 760.2 757.8 C 758.8 756.4, 665.8 756.8, 664.8 758.3 C 664.2 759.2, 664 759.2, 664 758.3 C 664 757.4, 657.7 757.1, 639.4 757 C 615.5 757, 614.8 757, 614.3 759 L 613.8 761 404.1 760.9 C 288.8 760.9, 179.7 760.5, 161.5 759.9 C 133 759.1, 103.5 758.5, 53.2 757.7 C 42.9 757.5, 41 757.7, 41 759 C 40.9 760.3, 40.8 760.3, 40 758.9 C 39.2 757.6, 36.8 757.3, 26.3 757.2 C 19.3 757.1, 12.8 756.8, 12 756.5 C 11.1 756.2, 10 756.4, 9.4 757 M 70.4 762.3 C 70.8 763.9, 70.6 765, 70 765 C 69.5 765, 69 764.5, 69 763.9 C 69 763.3, 68.3 763.5, 67.5 764.4 C 65.2 766.7, 65.6 766.9, 71.5 766.8 C 75 766.7, 77 766.2, 77 765.4 C 77 764.8, 77.7 763.7, 78.5 763 C 79.8 762, 80 762.1, 80 764.3 C 80 766.5, 80.4 766.8, 84.6 766.8 C 89 766.9, 89.1 766.8, 88.8 764.2 C 88.6 762, 88 761.5, 85.7 761.5 C 83.9 761.4, 83.1 761.8, 83.4 762.7 C 83.7 763.4, 83.4 764.2, 82.8 764.6 C 82.2 765, 82 764.9, 82.3 764.3 C 82.7 763.7, 82.4 762.7, 81.6 762.1 C 80.1 760.9, 77 761.6, 77 763.2 C 77 763.7, 76.6 763.9, 76 763.5 C 75.5 763.2, 75.3 762.3, 75.7 761.5 C 76 760.7, 75.8 760, 75.2 760 C 74.6 760, 74 760.6, 73.7 761.3 C 73.4 762.2, 72.9 762.1, 71.5 761 C 69.8 759.6, 69.7 759.7, 70.4 762.3" stroke="none" fill="#1b1f3a" fill-rule="evenodd"/></svg>