<svg xmlns="http://www.w3.org/2000/svg" viewBox="0 0 768 768" version="1.1" preserveAspectRatio="xMidYMid meet"><path d="M 0.2 283.3 C 0.3 439, 0.6 556.2, 1 543.5 C 2.1 504.3, 2.1 0, 1 0 C 0.3 0, 0.1 93.8, 0.2 283.3 M 545.9 43.1 C 544.7 45.3, 545.3 51.7, 547 54.8 C 547.9 56.6, 552.9 67.4, 555.3 73 C 556.2 74.9, 558.2 79.5, 559.9 83.2 C 561.5 86.9, 563.4 91.7, 564 93.9 C 564.6 96.1, 566.9 100, 569 102.5 C 574 108.2, 574 108, 567.7 107.3 C 559.5 106.5, 542.7 114.2, 531.2 124.2 C 526.1 128.6, 525.7 127.6, 529.4 120.3 C 533.7 111.7, 534.7 108.3, 535.5 99.1 C 536.3 90.8, 535.6 89.7, 530.6 91.1 C 525.7 92.5, 515.8 92.1, 513.6 90.5 C 511.2 88.7, 492.8 88.4, 486.5 90.1 C 484.3 90.6, 480.7 91.6, 478.5 92.1 C 471.8 93.7, 466.6 96.6, 460.7 102 C 457.6 104.8, 453.8 107.5, 452.3 107.9 C 450.2 108.4, 448.7 110.2, 446.2 115.1 C 437.7 131.4, 436.1 133.8, 433.1 134.5 C 426.9 135.8, 423.9 141.7, 422.5 155 C 422.2 158.6, 421.5 163.1, 421 165 C 420.5 166.9, 419.8 170.2, 419.5 172.3 L 418.9 176 413 176 L 407.2 176 411.1 169.2 C 419.6 154.5, 418.5 134, 408.6 122.3 C 403.1 115.8, 402.5 119, 407.3 128.8 C 410.3 135.2, 410.5 136.1, 410.5 147 C 410.5 159.3, 408.7 164.5, 401.6 173.5 L 399.2 176.5 384.8 177.1 C 377 177.4, 370.4 177.6, 370.2 177.5 C 370.1 177.4, 370.7 175.1, 371.7 172.4 C 375.5 162.1, 373.7 138.2, 368.4 126.3 C 367.6 124.6, 367 123, 367 122.7 C 367 120.7, 359.3 109.6, 354.7 105 C 344.4 94.7, 332.3 90, 315.3 90 C 303 90, 303 90, 306.7 83 C 307.4 81.6, 308 80.2, 308 79.7 C 308 79.3, 310.7 74.5, 314 69.1 C 322.9 54.4, 321.9 49.6, 309.5 47.6 C 304.1 46.7, 300.7 48.1, 298.2 52.2 C 296 55.8, 290 78.9, 290 83.6 L 290 86.6 274.3 86.6 C 257 86.7, 250.9 87.8, 239.2 93 C 228.3 98, 216.8 108.4, 211 118.5 C 206.7 126, 206.3 126, 205.8 117.7 C 204.5 99.4, 193 78.5, 178.2 67.9 C 172.5 63.9, 170 63.8, 170 67.6 C 170 70.7, 169.9 70.7, 164.5 66.5 C 162 64.6, 158.3 62.8, 156.2 62.5 C 154.2 62.2, 151.6 61.4, 150.5 60.8 C 149.4 60.2, 144.7 57.7, 140.1 55.3 C 135.5 52.9, 129.9 49.4, 127.5 47.5 C 122.5 43.3, 121.3 43.2, 120 46.6 C 118.6 50.1, 118.7 75.2, 120.1 78.7 C 120.7 80.2, 121.8 84.2, 122.5 87.5 C 125 98.9, 125.7 100.6, 130.3 107 C 132.9 110.5, 134.8 113.5, 134.7 113.7 C 134.5 113.9, 132.1 113.3, 129.4 112.5 C 118.9 109.3, 102.5 110.9, 87 116.5 C 82.5 118.1, 77.7 119, 71.1 119.2 C 62.8 119.6, 61.5 119.9, 59.9 121.9 C 56.9 125.5, 56.5 124.8, 67.3 134.8 C 71.8 139, 81 152.8, 81 155.3 C 81 156.3, 84 160.3, 87.6 164 C 94.9 171.5, 100.2 174.3, 114 177.5 C 126.1 180.3, 126.1 180.3, 120.7 182.9 C 112 187.1, 106.4 196.4, 99.9 217.5 C 98.7 221.4, 96.7 226.1, 95.4 228 C 91 234.7, 87 248.8, 87 257.8 C 87 260.4, 86.3 267, 85.5 272.5 C 84.4 280.2, 84.3 284.2, 85.1 290 C 86.3 298.3, 86.9 299.1, 91.5 298.3 C 94.5 297.8, 94.6 297.8, 94.2 301.7 C 94 303.9, 94.6 311.3, 95.4 318.2 C 96.4 325.6, 96.8 333, 96.4 336.2 C 95.8 341.3, 96 341.9, 97.9 343 C 100.2 344.2, 100.2 344.2, 111 338.3 C 114 336.7, 121.5 333.6, 127.5 331.5 C 133.6 329.4, 139 327.3, 139.6 326.9 C 140.2 326.4, 144 325.6, 148 325 C 175.8 321.1, 195.8 311.2, 204.8 297 C 206.7 294, 209.9 289.8, 211.7 287.6 C 215.4 283.5, 220 274.6, 222.1 267.4 C 222.8 265, 224 263, 224.6 263 C 227.5 263, 230.9 258.8, 231.6 254.3 C 232.3 249.8, 229.9 233.7, 228 230.1 C 227.5 229.2, 226.2 225.7, 225 222.2 C 223.7 218.8, 222.3 215.7, 221.9 215.4 C 221.4 215.1, 221 214.5, 221 213.9 C 221 213.4, 223.8 215.2, 227.3 217.9 C 234.5 223.6, 242.3 227.9, 250 230.5 C 253 231.6, 255.6 232.5, 255.8 232.6 C 256 232.7, 254.9 235.6, 253.5 239.1 C 252.1 242.6, 250.5 246.4, 250.1 247.5 C 249.6 248.6, 247.8 253.3, 246 258 C 243 265.7, 241.8 268.7, 237.6 278.5 C 236.8 280.2, 235.4 283.8, 234.5 286.5 C 233.5 289.3, 232.4 292, 232 292.5 C 231.6 293.1, 230.5 295.8, 229.5 298.5 C 228.5 301.3, 226.9 305.5, 225.8 308 C 224.7 310.5, 223.2 314.1, 222.4 316 C 221.5 317.9, 220.4 320.4, 219.9 321.5 C 219.4 322.6, 215.4 333.2, 211 345 C 206.6 356.8, 202.6 367.4, 202.1 368.5 C 201.6 369.6, 200.8 371.7, 200.2 373.2 L 199.1 376 195.6 373.6 C 193.6 372.3, 190.4 370.9, 188.3 370.5 C 185.4 370, 182.8 368.2, 177.8 363.2 C 171.2 356.8, 170.9 356.6, 166.3 356.8 C 161.5 357, 147.4 361.4, 138.5 365.5 C 124.8 371.7, 116.5 385.8, 117.2 401.5 C 117.4 405.6, 117.4 409, 117.2 409 C 117 409, 108.2 404.7, 104.8 403 C 103.9 402.5, 99.1 401.4, 94.2 400.5 C 85.6 399, 84.7 399.1, 76.3 401 L 67.5 403 59.3 399 C 49.7 394.3, 48.6 394.2, 46.3 397.6 C 44.8 399.9, 44.8 401.1, 45.8 408.5 C 46.8 415.4, 46.8 417.4, 45.5 421 C 41.5 432.4, 45.2 444.1, 54.3 448.4 C 57.4 449.8, 60.2 451, 60.6 451 C 61 451, 63.2 452.8, 65.5 454.9 C 70.2 459.2, 77.7 463.4, 82.7 464.5 C 85.9 465.1, 88.3 467, 86 467 C 82 467, 71.2 479.5, 66 490.1 C 53.8 515.3, 59.6 541.7, 81.7 562 C 90.9 570.4, 103 577, 109.2 577 C 111.9 577, 111.3 578.4, 107.8 580.5 C 88.9 591.4, 82.1 631.9, 94 662.5 C 101.3 681.3, 112.9 697, 124.2 703.2 C 134.5 708.9, 139.7 710, 156.6 710 C 166.5 710, 172.9 710.4, 174.3 711.2 C 175.5 711.8, 181.9 712.5, 188.6 712.8 C 209.8 713.6, 222.8 707.6, 236 690.9 C 243.5 681.4, 247.8 671, 257.9 637.5 C 258.4 635.9, 261.2 625.1, 264 613.5 C 268.9 593.3, 270 589.1, 273.3 577 C 274.2 574, 275 570.7, 275.2 569.7 C 275.5 568.2, 276.6 568.7, 282.2 572.5 C 290.2 577.9, 291 579.1, 291 586.6 C 291 605.3, 303.3 617.1, 319 613.4 C 330.8 610.6, 335.8 610.5, 338.6 613.1 C 339.9 614.3, 341 616, 341 616.8 C 341 618, 341.3 618, 342.6 616.9 C 344 615.8, 344.2 613.9, 343.7 604.5 C 342.2 573.7, 329.8 563.9, 301.3 571.1 L 293.1 573.2 289.8 570.9 C 280.1 564.1, 277.2 561, 278 558.2 C 278.5 556.7, 281.6 547.6, 285 538 C 288.5 528.4, 291.7 519.1, 292.3 517.4 L 293.4 514.3 360.7 513.6 C 397.8 513.1, 443.6 513.1, 462.6 513.6 L 497.2 514.3 498.2 516.9 C 501 524.2, 505.5 539.9, 508 551 C 509.5 557.9, 511.7 566.7, 512.8 570.5 C 518.6 591.3, 520.4 603.6, 519.5 617 C 518 640.5, 519.2 651, 525.2 666.5 C 532.9 686.4, 546.6 698, 566.4 701.5 C 577 703.3, 592.1 703.5, 596.7 701.8 C 599.6 700.8, 600.2 700.9, 602.2 702.7 C 605.3 705.5, 611.6 709, 613.8 709 C 614.7 709, 616.6 709.7, 618 710.5 C 639.8 722.8, 657.1 724, 677.7 714.5 C 699.3 704.5, 714.2 672.9, 710.1 645.6 C 708.5 634.6, 705 628.1, 695.9 619.2 C 691.6 615, 688.3 611.4, 688.6 611.1 C 689.1 610.5, 677.5 607.3, 670.1 606 C 662.6 604.7, 662.2 604.1, 665.5 597.6 C 667.8 593, 668.1 591.6, 667.2 589.6 C 666 586.8, 661.8 585.5, 658.9 587.1 C 656.3 588.4, 657 589.5, 652.6 576.5 C 650.5 570.5, 645.7 557.1, 641.9 546.9 C 638.1 536.7, 635 528, 635 527.6 C 635 527.2, 634.4 525.4, 633.6 523.7 C 631.1 517.9, 625 500.6, 624.4 497.4 C 623.7 493.5, 626.8 491.3, 638.5 487.7 C 665.5 479.3, 666.1 479.1, 677.5 473.3 C 697 463.4, 710.2 446.7, 719.5 420 C 726.3 400.5, 722.6 395.2, 708.8 404.7 C 695.9 413.5, 693.4 414, 675.5 411 C 649 406.4, 624.2 423.4, 614.4 452.8 C 611.1 462.5, 610.8 462.4, 606.5 450.2 C 605 446, 603.5 441.6, 603 440.5 C 602.6 439.4, 599.2 430.2, 595.5 420 C 591.8 409.8, 588.4 400.6, 588 399.5 C 587.5 398.4, 585.2 392.1, 583 385.5 C 578.4 372.4, 571.2 352.1, 568.5 345 C 565.2 336.2, 557.9 315.4, 555.4 308 C 552.9 300.4, 538.8 262, 536.5 256.5 C 535.8 254.9, 534.4 251.3, 533.5 248.5 C 532.5 245.8, 531.3 243.1, 531 242.5 C 530.2 241.4, 523 221.3, 523 220.3 C 523 220, 523.8 220.4, 524.8 221.2 C 525.7 222.1, 531.4 225.1, 537.4 227.9 C 553.6 235.6, 558.4 239.3, 574.8 256.8 C 577 259.1, 579.5 261, 580.3 261 C 585.7 261, 589.7 246.7, 588.7 231.4 C 588.1 223.1, 588.3 221.3, 589.7 219.8 C 592.1 217.1, 595.9 217.5, 597 220.5 C 599.3 226.5, 602.4 224.7, 603.4 216.7 L 604.1 211.7 609 220.1 C 619.2 237.5, 637.7 250.4, 652.3 250.5 C 662.7 250.5, 665.2 246.2, 660.5 236.7 C 658.5 232.8, 659.2 232, 665 232 C 672.9 232, 676.1 225.5, 672.5 216.8 C 672 215.5, 672.9 214.7, 676.9 212.9 C 683.1 210.3, 686.6 206.4, 688 200.7 C 688.5 198.4, 690.8 192.9, 692.9 188.5 C 698.6 176.9, 699.7 174.2, 701.4 167.2 C 703.5 158.8, 703.5 143.3, 701.5 139.2 C 697 130.3, 679.3 120.1, 656.5 113.3 C 646.1 110.2, 641 110.7, 632.2 115.8 L 627.9 118.2 628.6 115.4 C 629 113.8, 629.7 111.7, 630.2 110.8 C 632.3 106.6, 632.3 93.7, 630.2 86.1 C 627.6 77.2, 626.1 74.8, 621.8 72.7 C 620 71.8, 616.9 69.5, 615 67.4 C 611.7 64, 603.1 59, 600.2 59 C 599.5 59, 597.1 57.7, 594.8 56 C 592.6 54.4, 589.9 53, 588.9 53 C 587.9 53, 586.9 52.6, 586.6 52.1 C 586.3 51.6, 584.3 50.9, 582.3 50.6 C 578.8 49.9, 572.2 47.9, 567.5 46 C 555 40.8, 547.7 39.9, 545.9 43.1 M 552.6 48.9 C 551.9 50, 556.5 62.4, 559.7 68.1 C 562.5 73.1, 569.8 77.6, 573.8 76.8 C 574.9 76.5, 561.1 57.5, 558.6 55.8 C 558 55.4, 557.9 54.8, 558.3 54.4 C 559.4 53.3, 566.6 60.8, 572.5 68.9 C 575.3 72.8, 577.8 75.9, 578.1 75.9 C 578.5 76, 579 74, 579.3 71.5 C 580.3 62.4, 583 64.6, 583 74.4 C 583 81.3, 583.2 82.1, 586.8 86.9 C 591.1 92.7, 592 93.1, 592 89.1 C 592 83.9, 593.3 77, 594.1 77.6 C 594.6 77.9, 595 82.3, 595 87.5 C 595 101.8, 598.6 105, 609 100.1 C 611 99.1, 612 97.4, 613.3 92.7 C 615.7 84.5, 616.7 82, 618 82 C 618.5 82, 619 82.2, 619 82.5 C 619 83.8, 616 93.9, 615 96.2 C 613.9 98.5, 614.1 99.2, 616.4 102.3 C 618.8 105.4, 619 106.5, 619 115.6 L 619.1 125.5 622.5 115.1 C 626.4 103.6, 626.8 97.4, 624.5 89.5 C 622.2 81.8, 620.8 79.9, 616.3 77.9 C 613.2 76.6, 611.7 75.2, 610.6 72.6 C 608.3 67.2, 600.5 64.3, 596.9 67.6 C 594.5 69.8, 593.8 69.1, 593.1 63.8 C 592.4 59.3, 590.8 58.3, 579 55.5 C 576 54.7, 571.1 53.4, 568.3 52.6 C 556.4 49, 553 48.2, 552.6 48.9 M 125.6 61.6 C 124.4 70.9, 124.8 75.1, 127.6 78.7 C 130.1 81.9, 130.3 85, 128 85 C 124.9 85, 133.4 103, 139.8 110.1 C 142.4 113, 145.4 117.2, 146.6 119.4 C 148.3 122.8, 150.3 124.4, 158.6 129 C 174 137.6, 180 141.8, 180 143.8 C 180 144.8, 182.6 148, 185.7 151 C 188.8 154, 190.9 155.8, 190.3 155 C 189.1 153.2, 185 141.5, 185 139.7 C 185 137.2, 175.5 114.5, 172.4 109.4 C 169.4 104.6, 168.9 104.3, 163.4 103.2 C 148 100.3, 145.4 99.7, 144.5 98.8 C 143.2 97.5, 153.8 98.4, 160.4 100.2 C 170.7 102.9, 166.8 97.4, 141.2 72.7 C 135.6 67.3, 130.3 61.6, 129.3 60 C 127 56, 126.4 56.2, 125.6 61.6 M 134 61.8 C 135.8 63.8, 139.4 67.3, 141.9 69.5 C 158.6 84.2, 165.1 91.4, 172.9 104.8 C 175.3 108.7, 177.6 112, 178 112 C 178.8 112, 183 102.9, 183 101.2 C 183 99.2, 185.8 94.9, 186.4 95.9 C 186.8 96.5, 186.7 97.8, 186.2 98.7 C 185.7 99.7, 184.9 102.3, 184.5 104.5 C 184.2 106.7, 182.8 109.9, 181.4 111.7 C 178.7 115.2, 178.7 115.2, 185 128.5 C 186.5 131.8, 188 135.2, 188.3 136 C 188.8 137.6, 192 131.3, 192 128.6 C 192 127.8, 192.5 126.8, 193 126.5 C 193.6 126.2, 194 124.7, 194 123.2 C 194 119.9, 196.8 115.4, 198.1 116.7 C 199.5 118.1, 195.5 132.6, 192.6 137.1 C 189.4 141.8, 189.4 141.6, 192.6 150.9 C 195.8 160.3, 196.7 161.3, 197.5 156.4 C 197.8 154.2, 198.6 150.5, 199.3 148 C 201.2 140.9, 200.7 115.8, 198.5 108.5 C 195 96.7, 186.1 81.8, 178.5 75.2 C 173.8 71, 173 71.2, 173 76 C 173 81.4, 170.4 81.3, 165.4 75.8 C 160.6 70.4, 157 67.9, 154.9 68.5 C 154 68.8, 148.4 66.6, 142.6 63.5 C 130 57, 129.9 56.9, 134 61.8 M 301.6 59.7 C 301.3 60, 301 61.2, 301 62.2 C 301 63.2, 300.6 64.8, 300.1 65.8 C 296.4 72.8, 293.1 87.3, 292.4 100 C 291.7 110.8, 291.7 111, 293.8 111 C 295.2 111, 296.1 110.2, 296.4 108.8 C 296.6 107.5, 297.3 104, 297.9 101 C 298.5 98, 299.2 93.7, 299.5 91.5 C 300.5 84.9, 304.1 75.7, 310.8 62.8 C 311 62.3, 310.1 62, 308.8 62 C 307.5 62, 305.5 61.3, 304.4 60.5 C 303.2 59.7, 302 59.4, 301.6 59.7 M 564.2 76.1 C 566.6 85.7, 571.6 98.4, 573.4 99.5 C 574.6 100.2, 579.5 101, 584.7 101.2 C 595.2 101.7, 594.9 102.6, 587.2 92.9 C 578.4 81.7, 576.9 80, 575.9 80 C 575 80, 566.9 76.6, 564.7 75.3 C 564.2 75, 564 75.4, 564.2 76.1 M 265.5 94.6 C 237.6 97.6, 216.6 115, 207.3 143 C 204.9 150.4, 204.9 168.9, 207.4 177.5 C 213.7 199.1, 231.5 216.7, 253.8 223.3 C 259.7 225.1, 259.6 225.1, 262.9 217 C 269 202.4, 278.9 189.1, 286.9 185 C 292.5 182.2, 323.6 179.1, 348 179 C 354.3 179, 360 178.6, 360.7 178.2 C 365.5 175.2, 367.5 145.3, 363.7 134.5 C 355.5 111.4, 339.5 98, 320 98 C 313.8 98, 313.3 98.2, 311.7 100.9 C 309.1 105.3, 309.5 106.1, 313.3 104.8 C 315 104.2, 317 103.4, 317.5 103 C 318.1 102.6, 320 101.9, 321.8 101.5 C 326.5 100.5, 325.8 102.5, 320.3 105.6 C 317.6 107.1, 312.9 109.8, 309.7 111.6 C 301.2 116.5, 291.6 119.2, 285.5 118.5 C 270.9 116.5, 254.7 111.4, 257.7 109.7 C 258.5 109.2, 277.8 110.5, 284.3 111.5 L 288 112 288 103.5 L 288 95 284.6 95 C 282.8 95, 278.6 94.8, 275.4 94.6 C 272.2 94.4, 267.7 94.4, 265.5 94.6 M 483.5 96.9 C 480.8 97.9, 476.6 99.3, 474.3 99.9 C 472 100.5, 468.1 102.9, 465.3 105.4 C 462.7 107.8, 458.6 110.7, 456.3 111.9 C 453.6 113.2, 451.9 114.9, 451.6 116.3 C 451.3 117.5, 450.9 119.6, 450.6 121 C 450.4 122.4, 449.7 125.3, 449.1 127.5 C 448.5 129.7, 448 133.1, 448 135 C 448 140, 446.6 142, 444.6 140 C 443.4 138.8, 443.3 137.6, 444.1 134.1 C 445.5 128, 444.4 127.8, 441.9 133.7 C 440 138.3, 439.5 138.8, 436 139.4 C 431.1 140.2, 431.4 139.7, 429 152.7 C 427.9 158.6, 426.5 165.1, 426 167.1 C 424.1 173.9, 424.6 176, 428 176 C 429.9 176, 431.5 175.2, 432.5 173.8 C 433.3 172.5, 438.6 164.6, 444.1 156.3 C 451.5 144.9, 455.9 139.5, 461 134.8 C 467.7 128.9, 468 128.4, 468 124 C 468 118.9, 470.1 112.2, 473.3 107.1 C 476.1 102.5, 476.7 104.9, 474.2 110.8 C 472.1 115.7, 470.4 125, 471.6 125 C 471.9 125, 474.3 123.5, 476.9 121.6 C 479.4 119.7, 484.9 115.9, 489.1 113.1 C 493.3 110.3, 497.3 107.4, 498 106.5 C 498.7 105.7, 500.6 105, 502.2 105 C 505.8 105, 515 100.9, 515 99.3 C 515 98.6, 513.4 97.8, 511.5 97.4 C 509.6 97.1, 507.7 96.4, 507.4 95.9 C 506.4 94.2, 488.8 95, 483.5 96.9 M 522.5 99.6 C 515.4 101.4, 499.5 109.9, 485.7 119.2 L 473.9 127.2 476.7 129 C 480 131, 491.3 135, 493.8 135 C 494.7 135.1, 496.6 135.7, 498 136.5 L 500.5 137.9 497.8 138 C 492.9 138, 484.6 135.8, 478.6 132.9 C 475.3 131.3, 472.2 130, 471.5 130 C 468.2 130, 442.5 160.8, 444.3 162.6 C 444.5 162.8, 448.9 163.3, 454.1 163.6 C 464 164.3, 477.3 162.5, 484.4 159.5 C 488.9 157.6, 489.2 159.4, 484.8 161.4 C 474 166.3, 473.8 166.3, 457 166.8 C 439.1 167.2, 438.6 167.4, 436.6 173.8 C 435.7 176.5, 435.8 176.5, 448.8 174.5 C 490.2 167.9, 499.1 163, 500.7 145.4 C 501 141.9, 501.7 139, 502.1 139 C 502.6 139, 503 139.3, 503 139.8 C 503.1 140.2, 503.5 142.5, 503.9 144.9 C 504.4 147.5, 504.4 150.4, 503.9 151.7 C 502.3 155.9, 504.8 154.1, 508.7 148.3 C 510.8 145.2, 514.4 140.5, 516.8 137.9 C 520.7 133.6, 521.1 132.8, 520.5 129.6 C 519.9 126.8, 520.6 124.4, 523.8 117.3 C 526 112.5, 528.1 107.2, 528.4 105.5 C 528.8 103.9, 529.3 101.8, 529.6 100.9 C 530.3 98.5, 528.1 98.1, 522.5 99.6 M 606.5 107.5 C 601.9 109.2, 595.9 109.4, 591.3 108.1 C 588.5 107.3, 587.4 107.7, 581.9 111.2 C 575 115.7, 564.6 117.8, 563.8 114.8 C 563.4 113.1, 552 117.3, 543.5 122.4 C 529 131.1, 509.2 156.5, 500.9 177.3 C 498.6 183.1, 497.9 183.1, 517.9 177.1 C 520.8 176.3, 521 175.9, 524.5 164.8 C 526 160, 527.8 155.9, 528.5 155.6 C 529.5 155.2, 529.6 155.8, 528.8 158.3 C 523.3 176.1, 523.3 176.3, 526.1 175.1 C 527.4 174.6, 532.4 173, 537.2 171.5 C 541.9 170.1, 546.3 168.3, 546.9 167.6 C 548.2 166, 549.6 159.5, 551.1 148.5 C 551.7 144.1, 552.8 139.4, 553.5 138 C 555.7 133.9, 554.3 151.1, 551.4 164.3 L 550.8 167 559.1 163.4 C 563.7 161.4, 568.9 159.2, 570.7 158.4 C 572.6 157.6, 575.4 154.7, 577.7 151.4 C 579.8 148.3, 582 145.3, 582.5 144.7 C 583.1 144, 585.2 140.9, 587.4 137.7 C 589.5 134.6, 591.4 132, 591.6 132 C 593.1 132, 591.2 136, 585.9 143.9 C 582.5 149, 580 153.3, 580.2 153.5 C 581.3 154.7, 594.3 145.3, 601.6 137.9 C 610.1 129.4, 612.9 128.8, 606.5 136.9 C 604.6 139.3, 603 141.8, 603 142.5 C 603 144.6, 585.4 156.4, 580.5 157.6 C 577.6 158.3, 577.2 159.8, 579.8 160.7 C 583.8 162, 595.9 168.1, 596.5 169 C 598.2 171.7, 592.3 169.8, 577.3 162.8 L 573.2 160.9 564.3 165.4 C 559.5 168, 554.8 170, 554 170.1 C 553.2 170.1, 550.8 170.9, 548.7 171.8 L 544.9 173.5 551.2 178.7 C 559 185.1, 569 194.9, 569 196.1 C 569 197.4, 566.3 195.8, 562 192 C 545.1 176.8, 540.8 174.6, 533 177.4 L 529.6 178.7 532.8 179.8 C 540.8 182.6, 551.5 196, 557.8 211 C 558.8 213.5, 560.5 217.5, 561.5 220 C 562.5 222.5, 564.7 226.5, 566.4 229 C 568.1 231.5, 571.5 237.5, 574.1 242.5 C 576.6 247.4, 579.2 251.6, 579.8 251.8 C 581.7 252.4, 582.3 245.2, 581.6 232 L 580.9 219.2 583.6 216.1 C 586.7 212.4, 590.9 210, 594.3 210 C 596.4 210, 596.9 209.2, 598.7 202.8 C 599.8 198.8, 602.2 191.5, 604 186.5 C 610.5 168.2, 610.9 166, 612.1 140 C 613.2 117.4, 612.9 105.9, 611.2 106 C 610.8 106.1, 608.7 106.7, 606.5 107.5 M 105.2 117.6 C 96.8 119.1, 89.6 121.6, 87.9 123.6 C 87.1 124.6, 84.1 125, 77.4 125 C 67.3 125, 66.6 125.4, 70.6 129.1 C 74.5 132.7, 85.6 149, 86.9 153.1 C 90.3 163.8, 107.6 172.1, 130.4 174.1 C 137.1 174.6, 142.9 175.5, 143.5 176.1 C 144.6 177.2, 161.6 177.2, 168.5 176 C 172.8 175.3, 193 172.1, 193.8 172 C 193.9 172, 194 171.6, 194 171 C 194 170.5, 191.6 170, 188.8 170 C 185.2 170, 184 169.7, 185 169.1 C 185.8 168.5, 186.8 168.4, 187.2 168.6 C 187.6 168.9, 188.5 168.8, 189 168.5 C 191.9 166.7, 174.2 160.3, 159 157.5 C 154.9 156.8, 144.6 154.3, 136.2 152.1 L 120.8 148 114.2 152.4 C 107.8 156.5, 103 158.8, 103 157.6 C 103 157.3, 104.9 155.8, 107.3 154.3 C 109.6 152.8, 113 150.5, 114.8 149.1 L 118.1 146.7 106.8 143 C 94.3 138.8, 79.5 131.7, 78.6 129.5 C 77.9 127.5, 77.7 127.5, 85.7 131.4 C 89.6 133.3, 95.5 135.8, 98.9 137 C 102.3 138.1, 108.1 140.2, 111.7 141.5 C 115.3 142.9, 118.4 144, 118.6 144 C 119.5 144, 118.9 138.9, 117.5 135.7 C 115.8 131.5, 115.6 129.6, 117 130.5 C 118.3 131.3, 120.7 136.6, 121.7 141 C 122.6 144.3, 123 144.6, 130.9 147.3 C 135.5 148.8, 139.5 149.8, 139.7 149.6 C 140 149.3, 139.4 147.1, 138.5 144.6 C 135.8 137.5, 137.4 136.8, 140.6 143.7 C 143.8 150.7, 144.1 150.8, 156.9 153.4 C 165.3 155.2, 166.2 154.9, 163.3 151.7 C 160.6 148.8, 158.7 145, 159.5 144.2 C 159.9 143.8, 160.6 144.3, 161.2 145.3 C 163.1 148.8, 168.3 154.1, 171.4 155.8 C 175 157.7, 187.2 162.1, 187.7 161.6 C 188.7 160.6, 169.4 142.6, 162.9 138.4 C 134.7 120.3, 133 119.4, 125.3 117.6 C 117 115.7, 115.1 115.7, 105.2 117.6 M 636.8 122.3 C 631.3 125.4, 626 129.3, 626 130.3 C 626 130.5, 628 131, 630.4 131.3 C 641.4 132.8, 643.3 136.5, 632.5 135.5 C 623.9 134.7, 620.3 135.3, 619.6 137.8 C 619.4 138.7, 618.9 140.4, 618.6 141.6 C 617.9 143.8, 616.9 143.5, 635.3 147.5 C 648.4 150.4, 666.8 149.2, 679.8 144.6 C 684.5 142.9, 686 144.6, 681.8 146.8 C 670.9 152.3, 646.3 153.9, 630.9 150.1 C 618.4 147, 617.6 147.1, 618.4 151.8 C 620.3 163.5, 620.3 164.7, 618.2 167.6 C 614.5 172.9, 614.6 174.4, 618.8 177.3 C 626.8 182.9, 651.8 183.2, 666.9 177.9 C 673.7 175.6, 677.5 175.3, 674.7 177.4 C 668.9 181.8, 655.9 184.5, 640.7 184.4 C 632.6 184.4, 626.3 184.6, 626.7 185 C 627.1 185.4, 632.1 189.2, 637.8 193.4 C 647.9 200.8, 648.3 201, 654 201 C 660.9 201, 662.9 202.7, 657.1 203.6 L 653.1 204.2 656.5 208.8 C 658.4 211.3, 660 213.8, 660 214.3 C 660 215.2, 653.5 209.8, 651 206.9 C 650.7 206.5, 645.1 202.7, 638.5 198.2 C 631.9 193.8, 623.6 187.5, 620 184.2 L 613.6 178.3 609.7 189.4 C 607.6 195.5, 605.8 200.8, 605.7 201.1 C 605.6 201.4, 607.1 204.5, 609 207.9 C 621.6 230.3, 631.2 239.4, 647.2 243.6 C 656.7 246.1, 657.2 245.3, 652 235.1 C 648.1 227.2, 647.5 223.5, 650.6 226.1 C 651.7 227, 653 227, 655.9 226.1 C 658 225.5, 661.2 225, 662.9 225 L 666.1 225 665.8 218.3 L 665.5 211.5 671 208.8 C 674 207.3, 676.8 205.9, 677.3 205.8 C 677.7 205.6, 679.2 202.2, 680.6 198.2 C 682 194.1, 684.6 188.1, 686.5 184.7 C 695.3 168.4, 698.3 148.5, 693.1 140.8 C 688.7 134.4, 676.8 127.7, 661.5 123 C 657.7 121.8, 653.5 120.4, 652.2 119.9 C 647.9 118.2, 642.7 119, 636.8 122.3 M 222 132.2 C 214.6 140.1, 210.3 160.7, 213.8 172.1 C 214.4 174, 215.1 176.7, 215.4 178.3 C 216.9 184.8, 217.7 179.9, 217.6 164.8 C 217.5 147.4, 218.8 141.3, 224 134 C 226.5 130.5, 225 129.1, 222 132.2 M 319 133.2 C 319 134, 319.8 135.8, 320.8 137.1 C 326 143.9, 328.7 165.3, 325.2 171.6 C 323.7 174.4, 324.9 175.5, 326.7 173 C 330.6 167.4, 330 149.9, 325.6 141.2 C 322.7 135.4, 319 131, 319 133.2 M 354.7 145.7 C 353.6 147.5, 353.7 171.4, 354.8 171.8 C 356.6 172.4, 357.5 167.2, 357.5 157.5 C 357.5 149.2, 356.1 143.4, 354.7 145.7 M 226 160 C 223.7 169.5, 227.5 185.7, 234.6 196.6 C 238.7 203, 241 202, 237 195.5 C 231.8 187.1, 229.8 180, 229.3 168 C 228.7 154.9, 227.8 152.6, 226 160 M 496.9 164.9 C 490.2 170.4, 481.4 173.3, 462 176.3 C 460.6 176.6, 462.9 176.8, 467 176.9 C 473.7 177.1, 488 179.6, 492 181.4 C 493.2 181.9, 494.4 179.9, 497.3 172.4 C 499.4 167.1, 500.9 162.6, 500.7 162.4 C 500.5 162.2, 498.8 163.3, 496.9 164.9 M 178.2 181.1 C 161.8 183.4, 159.3 184.5, 168.6 185.3 C 172.4 185.7, 177.3 186.6, 179.5 187.4 C 185.6 189.7, 187.1 189.3, 193 184 L 198.5 179 195 179.1 C 193.1 179.2, 185.5 180.1, 178.2 181.1 M 521 180.6 C 520.2 180.9, 516.6 182.1, 513 183.2 C 500.8 187.1, 501.4 186.4, 506.6 191.2 C 509.1 193.5, 513 198.5, 515.2 202.2 C 520 210.4, 526.5 216.3, 534 219.7 C 543.4 223.8, 544.3 224.3, 551 228.1 C 554.6 230.2, 559.3 233.5, 561.5 235.5 C 566.9 240.4, 569 241.5, 569 239.6 C 569 238.8, 568.6 237.9, 568.1 237.6 C 567.6 237.3, 566.9 235.9, 566.6 234.4 C 566.2 233, 565 230.9, 563.9 229.7 C 561.7 227.3, 559.9 223.8, 555 211.8 C 546.9 192, 530.8 177.2, 521 180.6 M 612.5 186.5 C 610.2 194.8, 617.5 217.9, 624.9 225.9 C 629.7 231, 629.7 229, 624.8 220.8 C 619.5 212.1, 617.5 206.8, 615.9 198 C 615.3 194.4, 614.5 189.7, 614.1 187.5 L 613.3 183.5 612.5 186.5 M 128 186.9 C 118 190.8, 112.4 195.3, 108.9 202.3 C 106.2 207.5, 106.5 207.5, 113.5 202.8 C 125.7 194.6, 139 189.3, 152.3 187.5 C 160.8 186.4, 156.2 185, 144.2 185.1 C 135.7 185.2, 131.3 185.7, 128 186.9 M 406.5 185.6 C 401 185.8, 385.7 186.7, 372.5 187.5 C 359.3 188.4, 341.3 189.5, 332.5 190 C 312.4 191.3, 293.4 193.7, 289.9 195.5 C 286.5 197.3, 275 212.7, 275 215.4 C 275 215.6, 273.4 219.3, 271.4 223.7 C 266.5 234.4, 266.5 234.4, 262.5 244.5 C 260.5 249.5, 258.5 254.4, 258.1 255.5 C 257.6 256.6, 256.2 260, 255.1 263 C 253.9 266, 252.5 269.4, 252 270.5 C 251.5 271.6, 249.4 276.8, 247.5 282 C 245.6 287.2, 243.6 292.4, 243.1 293.5 C 242.6 294.6, 241.4 297.5, 240.4 300 C 239.5 302.5, 237.9 306.3, 236.9 308.5 C 236 310.7, 233.1 317.9, 230.6 324.5 C 228 331.1, 225.5 337.4, 225 338.5 C 224.5 339.6, 223.1 343, 222 346 C 220.9 349, 219.5 352.4, 219 353.5 C 218.5 354.6, 215.8 361.6, 213 369 C 210.2 376.4, 207.3 383.9, 206.5 385.7 C 205.7 387.4, 205 389.3, 205 389.9 C 205 390.5, 204.6 391.8, 204.1 392.8 C 203.3 394.3, 196.8 411.9, 188 436.5 C 184.4 446.5, 179 463.3, 175 477 C 173.2 482.8, 171.5 488.4, 171 489.5 C 169.7 492.6, 164.4 508.7, 162.1 517 C 160.9 521.1, 159.5 525.2, 159.1 526 C 158.6 526.9, 157.9 529.1, 157.5 531 C 157.1 532.9, 156.4 535.1, 156 536 C 153.7 540.4, 149.7 554, 149.7 557 C 149.8 564.6, 151.9 570, 154.8 570 C 163.6 570, 175.6 567.8, 177.6 565.9 C 180.2 563.5, 188 562.9, 190.5 565 C 192.7 566.8, 192 570.2, 189.2 571.6 C 187.9 572.2, 185.6 574, 184 575.5 C 181.4 578, 181 578.1, 180.4 576.6 C 179.8 575, 179.6 575.1, 177.9 576.9 C 174.5 580.5, 167.1 592.6, 166.5 595.6 L 165.9 598.5 167.4 595.4 C 169.4 590.9, 175.5 584.5, 179.4 582.6 C 187.3 578.9, 211.4 579.7, 223 584.1 C 232.1 587.6, 236.3 591, 242.1 600.2 L 245.3 605.2 246.6 602.1 C 247.3 600.4, 248.2 597.4, 248.6 595.5 C 249.6 590.2, 251.4 591.1, 250.7 596.5 C 250 600.9, 248.4 604.9, 246.5 606.2 C 245.9 606.6, 246.2 609.2, 247.4 613.2 C 248.4 616.7, 249.4 620.7, 249.7 622.3 C 250.8 627.8, 252.3 624.8, 255.4 611 C 256.3 607.4, 257.9 600.5, 259 595.5 C 260.1 590.6, 261.5 584.9, 262 583 C 262.5 581.1, 263.9 575.9, 265.1 571.5 C 266.2 567.1, 270.5 553.4, 274.7 541.1 C 286.7 504.9, 284.8 506.9, 309.3 505.7 C 319.3 505.3, 366.2 505, 413.6 505.2 C 510.6 505.6, 503.9 505, 505.9 513.2 C 507.3 519.3, 509.6 527.6, 511.5 534 C 512.5 537, 513.8 542, 514.5 545 C 515.2 548, 516.9 554.8, 518.2 560 C 519.6 565.2, 521.2 571.8, 521.8 574.5 C 522.4 577.3, 523.9 583.6, 525.1 588.5 C 527.4 597.9, 527.5 600.8, 526.9 633.5 C 526.5 652, 527.1 655.2, 533.5 668.3 C 541.5 684.5, 558.6 695.5, 575 694.9 C 579.3 694.7, 583.2 694.9, 583.6 695.3 C 584.7 696.4, 596 696.1, 596 695.1 C 596 694.5, 595.1 692.6, 594.1 690.8 C 588.5 681.3, 585.8 667, 587.2 653.8 C 587.7 648.7, 590.7 640.2, 591.1 643 C 591.1 643.3, 591.2 649.8, 591.4 657.5 C 591.8 677, 596.7 689.9, 606.8 697.8 C 610.2 700.5, 625.9 707.6, 637.5 711.7 C 643.1 713.7, 656 714, 660.6 712.3 C 662.2 711.7, 664.4 710.8, 665.5 710.4 C 666.6 710, 667.9 709.8, 668.5 709.9 C 670.6 710.4, 682.4 703.3, 686.9 698.8 C 699.9 685.8, 707.1 658.6, 702.2 640.9 C 697.7 624.8, 688.8 616.4, 671.7 612.4 C 663 610.4, 662.3 610.6, 661 616.6 C 659.9 621.3, 659.8 621.1, 664.3 620.3 C 668.7 619.6, 669.2 618, 665 618 C 661.8 618, 661 616.6, 663.6 615.6 C 666 614.7, 673.3 614.9, 674.9 615.9 C 676.7 617, 674.7 620, 672.3 620 C 669.5 620, 661 623.5, 661 624.6 C 661 626.7, 668.4 629.1, 676.9 629.7 C 681.6 630, 685.8 630.8, 686.2 631.4 C 689.4 636.2, 658.6 631.6, 650.5 626 C 650 625.6, 645.5 623.1, 640.5 620.5 C 630.6 615.3, 629 614.2, 629 612.9 C 629 611.1, 633.8 612.1, 639.5 615 C 646 618.3, 649 618.8, 649 616.5 C 649 613.7, 640.3 610.7, 632 610.6 C 622.7 610.5, 618.2 612.6, 611.8 620.1 C 607.3 625.3, 605 625.9, 605 621.9 C 605 619.1, 612.1 611.8, 618.2 608.5 C 626.4 604, 637.1 604.3, 650.4 609.6 C 652.1 610.3, 652.2 610, 651.6 606.4 C 650.7 601.4, 644 580.3, 642.3 577 C 641.6 575.6, 641 573.9, 641 573.2 C 641 572.5, 640.6 571.2, 640.1 570.2 C 639.6 569.3, 636.8 562, 634 554 C 631.1 546, 628.1 538.1, 627.4 536.3 C 626.6 534.6, 626 532.6, 626 531.8 C 626 531, 625.6 530, 625.2 529.5 C 624.7 528.9, 623.3 525.4, 622.1 521.5 C 620.9 517.7, 619.2 513.1, 618.4 511.3 C 617.6 509.6, 617 507.7, 617 507.1 C 617 506.5, 616.6 505.2, 616.1 504.2 C 615.6 503.3, 613.5 497.8, 611.5 492 C 609.4 486.2, 607.2 480.2, 606.5 478.5 C 604.9 474.8, 591.3 437.7, 585.3 421 C 582.8 414.1, 580.4 407.7, 579.9 406.8 C 579.4 405.8, 579 404.5, 579 403.9 C 579 403.3, 578.3 401.4, 577.5 399.7 C 576 396.4, 568.6 375.2, 566.8 369 C 566.3 367.1, 565.4 365.1, 564.9 364.6 C 564.4 364, 564 363, 564 362.2 C 564 361.4, 563.3 359.4, 562.6 357.7 C 561.1 354.5, 559.5 350.1, 552 328.5 C 549.7 321.9, 547.5 315.6, 547 314.5 C 546.6 313.4, 543.9 306, 541 298 C 538.2 290, 535.2 281.9, 534.5 280 C 533.7 278.1, 531.4 271.6, 529.2 265.5 C 507.3 204.6, 502.7 196.8, 484.3 189.5 C 476.2 186.3, 438.9 184.4, 406.5 185.6 M 197.9 188.8 C 194.5 191.3, 193.7 194, 196.3 194 C 197 194, 200.3 196.3, 203.8 199 C 209 203.3, 212.2 204.7, 209.1 201.5 C 208.6 200.9, 207 197.6, 205.5 194 C 202 185.6, 202.1 185.7, 197.9 188.8 M 150.3 193 C 128.6 197.3, 98.1 219.9, 104.5 227 C 105.9 228.5, 105.8 228.8, 104.2 230.3 C 103.2 231.3, 102 232, 101.6 232 C 98.7 232, 95.4 239.7, 94.1 249.5 C 92.9 257.7, 92.8 257.4, 97.3 255.5 C 104.5 252.5, 104.7 253.6, 98 260.9 C 92 267.4, 91 270.6, 91 282.8 L 91 292.1 94 290.5 C 100.2 287.3, 102.5 289, 100.9 295.6 C 99.6 301.3, 99.8 309.1, 101.4 317.3 C 102.2 321.3, 103.1 326.3, 103.5 328.5 L 104.2 332.5 105.5 329 C 114.9 303.5, 115.2 301.1, 108.2 307.4 C 105.9 309.5, 103.7 311, 103.3 310.7 C 102.3 309.6, 107.8 303.3, 110.4 302.6 C 112.2 302.2, 113.6 300.6, 115.1 297.2 C 116.2 294.6, 117.8 291.1, 118.6 289.3 C 120.8 284.4, 120.3 284, 115.7 286.5 C 113.3 287.7, 110.3 289.1, 108.9 289.5 C 104.4 291, 108.7 287.3, 115.4 284 C 121.7 281, 122.7 279.8, 127.8 268.9 C 128.8 266.6, 112.9 272.4, 107.8 276.2 C 105.7 277.7, 104.3 276.6, 105.8 274.7 C 107.8 272.3, 118.2 267.6, 124 266.5 C 129.1 265.4, 129.8 265, 133.2 259.9 C 135.3 256.9, 139 251.8, 141.4 248.4 C 148.7 238.5, 150.5 235, 148.5 235 C 147.6 235, 145.5 236.4, 143.8 238.1 C 140.3 241.6, 136.3 241.5, 139.5 238 C 140.5 236.9, 140.9 236, 140.4 236 C 138.2 236.1, 124.8 240, 117.2 242.9 C 112.6 244.6, 108.4 246, 107.9 246 C 106.3 246, 106.9 244, 108.8 243.4 C 109.7 243, 113.9 241.5, 118 240 C 129.2 235.8, 135.7 234.2, 144.1 233.5 C 151.2 232.9, 152 232.6, 155.3 229.2 C 159.6 224.7, 164.7 216.6, 162.8 217.2 C 162.1 217.5, 161.1 217.1, 160.5 216.3 C 159.1 214.5, 147.7 213.6, 141.3 214.8 C 135.9 215.7, 134.4 214.9, 137.9 213 C 141.7 211, 151.3 210.4, 158 211.6 C 166.9 213.3, 167.3 213.3, 168.8 210.9 C 171.1 207.3, 164.5 204, 151.8 202.5 C 143 201.4, 144.6 199.7, 153.8 200.2 C 159.8 200.5, 162.7 201.3, 166.7 203.4 L 171.7 206.2 177.5 200.5 C 180.6 197.4, 182.9 194.6, 182.7 194.3 C 180.5 192.2, 159.1 191.3, 150.3 193 M 186.1 197.4 C 185.1 198.6, 185.9 199.8, 190.1 203.7 C 196.3 209.4, 201.1 216.6, 203.3 223.7 C 205.2 229.4, 205.6 242, 204 242 C 203.5 242, 203 239.7, 203 236.9 C 203 226.1, 197.1 213.3, 188 204.6 L 183.1 199.9 179.9 203.5 C 174.9 209.1, 173 211.7, 173 212.8 C 173 213.3, 175 218.4, 177.5 224.1 C 182.3 235.2, 183 238.1, 180.6 236.1 C 179.8 235.4, 177.3 230.4, 175 225 C 170.4 214.1, 169.7 213.5, 167.2 218.1 C 164.9 222.3, 160.4 228.6, 155.2 235.1 C 151.2 240, 150.9 240.8, 151.4 244.4 C 152.8 253, 157.7 266.5, 163.9 278.9 C 171.2 293.6, 174 304.6, 171 306.5 C 170.4 306.8, 170 306, 170 304.6 C 170 301.8, 164.4 285.5, 162.4 282.6 C 161.3 280.9, 161.1 281.1, 160.5 284.6 C 158.5 297, 154.8 308, 152.8 308 C 151.6 308, 151.8 306.4, 153.3 302.7 C 154.1 300.9, 155 297.7, 155.4 295.5 C 155.8 293.3, 157 288.3, 158.2 284.5 L 160.2 277.4 157.6 271.5 C 156.1 268.2, 154.6 264.8, 154.1 264 C 153.2 262.3, 150.5 253.4, 149.2 248 L 148.4 244.5 142.9 251.9 C 132.4 266.3, 124.1 281.2, 125.6 282.8 C 129.3 286.5, 132.4 301.3, 131.8 312.3 C 131.3 321.9, 129.6 319.4, 128.9 308 C 128.3 297.2, 125.4 285.7, 123.6 286.3 C 122 286.8, 116.4 301.9, 115.7 307.5 C 115.2 311.9, 113.9 315.6, 111.1 321 C 110.6 321.9, 109.9 324, 109.6 325.8 C 109.2 327.5, 108.4 329.2, 107.9 329.5 C 107.4 329.9, 107 330.7, 107 331.5 C 107 332.5, 108.6 332.1, 112.9 329.9 C 116.2 328.3, 119.3 327, 119.8 327 C 121.3 327, 133.2 323.1, 136.8 321.4 C 138.6 320.6, 142.6 319.4, 145.8 318.8 C 181.5 312.4, 198 303, 200.5 287.5 C 201.7 280, 202 279, 203.5 279 C 204.4 279, 205.5 280.2, 206.1 281.8 C 207.1 284.5, 207.2 284.5, 208.7 282.5 C 213.4 276.4, 218 260.5, 218 250.4 C 218 248, 218.4 246, 219 246 C 220.5 246, 222.2 249.9, 221.5 251.9 C 221.2 253, 221.8 254.4, 223 255.5 C 225 257.3, 225 257.3, 225.2 252.9 C 225.8 236.5, 218.8 219.9, 205.6 207 C 196.3 197.8, 188.8 194.1, 186.1 197.4 M 159.8 220.5 C 159.6 220.8, 154.9 221.4, 149.4 222 C 136.3 223.3, 133.5 223.9, 134.8 225.2 C 135.4 225.8, 139.9 226.1, 145.9 225.8 C 155.3 225.5, 156.2 225.2, 158.7 222.7 C 160.2 221.2, 161.2 220, 160.9 220 C 160.6 220, 160.1 220.2, 159.8 220.5 M 164 235.1 C 164 235.7, 165.3 239, 167 242.4 C 170.9 250.4, 177 266.7, 177 269 C 177 271.1, 178.6 272.5, 179.4 271.2 C 179.9 270.3, 178.4 262.6, 177.1 259.5 C 176.6 258.4, 175.2 255, 174 252 C 171.7 246.2, 165.2 234, 164.5 234 C 164.2 234, 164 234.5, 164 235.1 M 378.9 257.8 C 372.6 261.1, 367.1 267.8, 361.2 279.5 C 356 289.8, 340.3 322.8, 333.8 337 C 327.4 350.8, 324.9 356.2, 320.5 365.5 C 312.9 381.6, 310.2 387.8, 301.9 406.9 C 297.2 417.7, 296.3 420.7, 297.2 422.3 C 298.2 424.2, 299.6 424.3, 379.9 423.8 C 469.2 423.3, 467.2 423.5, 467.8 417.7 C 468 416, 466.6 411.8, 464.2 406.7 C 462 402.2, 459.7 396.9, 459 395 C 457.7 391.6, 454.9 384.7, 453 380.5 C 451.1 376.3, 436.2 340.3, 435 337 C 434.3 335.1, 433.1 332.2, 432.4 330.5 C 431.7 328.9, 428.8 321.9, 426 315 C 423.2 308.1, 420.5 301.6, 420 300.5 C 419.5 299.4, 418.2 296.3, 417 293.5 C 405.2 265.5, 401.2 259.3, 393.3 256.6 C 386.9 254.4, 385.1 254.6, 378.9 257.8 M 642.6 260.8 C 642.3 262.8, 641.4 265.6, 640.7 267 C 640 268.4, 638.6 271.6, 637.7 274.1 C 635.7 279.3, 634.5 280, 626.5 280 C 607.5 280.1, 595.1 286, 586.7 298.8 C 578.1 311.7, 574.8 322.3, 574.7 336.5 C 574.7 351.1, 575.9 352.4, 585.9 349 C 589.2 347.9, 594.4 347, 597.5 347 C 611.8 347, 627.2 337.2, 634.8 323.3 C 636.8 319.5, 638 318.2, 638 319.6 C 638 323.3, 643.8 333.5, 647.6 336.6 C 655.6 342.9, 670 345.6, 682.5 343 C 685.8 342.3, 690.4 341.5, 692.8 341.3 L 697 340.8 697 334.9 C 697 327.5, 694.3 309.7, 692.4 304.5 C 685.9 286.8, 684.9 285.8, 673.3 284.5 C 659.2 282.8, 651.2 278, 649.5 269.8 C 648.6 266, 645.2 258.3, 644.1 257.6 C 643.6 257.3, 643 258.7, 642.6 260.8 M 382.4 268.4 C 377.8 270.5, 375.5 274.1, 364.9 296.5 C 361.5 303.7, 356.8 313.7, 354.4 318.8 C 352 323.9, 350 328.2, 350 328.4 C 350 328.9, 342.5 345, 336.5 357.5 C 331.6 367.7, 326 380, 326 380.5 C 326 380.7, 324 385.1, 321.5 390.4 C 319 395.7, 317 400.3, 317 400.5 C 317 400.8, 315.7 403.7, 314.1 407 C 312.5 410.3, 311.5 413.1, 311.8 413.3 C 313.7 414, 455 412.7, 455 412 C 455 411.5, 453.7 408.2, 452 404.7 C 450.4 401.1, 449 397.9, 449 397.6 C 449 397.3, 447.9 394.7, 446.6 391.8 C 444.3 386.9, 433.8 361.9, 423.8 337.5 C 421.6 332, 419.1 326.2, 418.4 324.5 C 417.7 322.9, 414.8 315.9, 412 309 C 409.2 302.1, 404.7 291.4, 402.2 285.2 C 395.2 268.4, 390.8 264.6, 382.4 268.4 M 646.5 279 C 646.8 280.4, 647.7 283.1, 648.4 285 C 650.7 291.1, 652 295.6, 652 297.4 C 652 298.5, 653.5 299.8, 656 300.8 C 660.3 302.6, 661 303.6, 658.3 304.2 C 657.3 304.4, 658.5 304.6, 661 304.7 C 664.1 304.7, 667.6 305.9, 672.5 308.4 L 679.5 312.1 674.5 311.4 C 671.8 311, 669.4 310.3, 669.2 309.9 C 669 309.4, 668 309, 666.9 309 C 665.9 309, 665 308.6, 665 308 C 665 307.5, 663.6 307, 662 307 C 659 307, 659.1 307.1, 665.7 313.1 C 669.5 316.5, 674.2 320.4, 676.3 321.8 C 678.3 323.1, 680 324.7, 680 325.1 C 680 328.1, 672 323.1, 663.2 314.6 L 657.8 309.5 658.2 315.9 C 658.7 326.1, 656.5 324.7, 655 314 C 653.8 304.9, 652 301.8, 649.9 305.1 C 648.9 306.8, 648.9 306.8, 648.6 301 C 648.4 295.7, 645 284.5, 644 285.7 C 643.6 286.1, 642.8 289.6, 642 293.3 C 638.2 313.8, 643.7 329.6, 657.2 336.6 C 664.2 340.3, 686.1 338.2, 690 333.5 C 691.5 331.7, 689.7 312.8, 687.3 305.5 C 685.2 299.1, 681.1 292.4, 678.5 291.1 C 676.3 290, 661.4 287, 658.2 287 C 657.1 287, 653.9 284.7, 651 281.8 C 646.7 277.4, 646 276.9, 646.5 279 M 617.7 285.1 C 603 287, 594 293.9, 586 309.5 C 580.4 320.5, 576.8 342.2, 580.4 343.6 C 584 345, 604 330.6, 601.7 328.4 C 601.4 328.1, 597.8 329.7, 593.6 332 C 588.6 334.7, 586.2 335.5, 586.6 334.5 C 587.3 332.7, 593.6 328.2, 600 325 C 602.5 323.8, 606.1 321.6, 608 320.1 L 611.5 317.5 603.7 317 C 592.7 316.3, 593.5 314.6, 605 314.2 C 614.2 313.9, 614.6 313.8, 617.8 310.7 C 622.1 306.6, 635 287.3, 635 285 C 635 283.8, 627.4 283.9, 617.7 285.1 M 632.7 294.7 C 628 301.1, 623 309.8, 623 311.4 C 623 312.2, 621.6 313.3, 620 314 C 616.4 315.5, 615 317.7, 615 321.9 C 615 325.5, 613.1 327.1, 612.3 324.1 C 612 322.9, 611.4 322, 610.9 322 C 609.4 322, 605.1 327.4, 604.5 330.1 C 603.7 333.4, 600.9 336.1, 594.5 339.5 L 589.5 342.1 597 341.5 C 616.2 339.9, 627.6 330.9, 633 313.1 C 634.8 307, 637.3 291, 636.6 290.2 C 636.4 290, 634.7 292.1, 632.7 294.7 M 158 363.2 C 152.5 365.7, 149.3 367, 144 369 C 133.1 373.2, 126.5 381.1, 123.7 393.3 C 120.8 406, 124.5 416, 139.4 436.3 C 144.9 443.7, 145.5 444.1, 146.4 440.6 C 147.1 437.9, 152.7 432, 154.7 432 C 157 432, 156.1 430.5, 152.8 428.5 C 143.5 423.1, 134.6 412.4, 130.7 402 C 128.6 396.5, 130.1 394.5, 132.4 399.7 C 137.1 410.3, 143 418.2, 150.4 423.9 C 156.1 428.3, 158.7 429.2, 157.5 426.3 C 152.9 415.3, 149.1 389.4, 151.1 382.6 C 153 376, 154 376.9, 153.3 384.9 C 152.1 399.1, 158.4 427, 163.1 428.5 C 164.2 428.9, 166.8 428.2, 169.2 426.8 C 174.3 424, 176 419, 176 406.6 C 176 400.2, 176.3 398.9, 177.3 399.9 C 178.9 401.5, 178.8 417.7, 177.1 420.8 C 176.1 422.7, 176.2 422.9, 177.7 422.3 C 180.6 421.2, 181.8 419.5, 184 413.8 C 185.1 410.9, 186.4 407.6, 186.9 406.5 C 187.4 405.4, 188.8 401.6, 190.1 398 C 191.3 394.4, 192.6 391.1, 193 390.5 C 194.3 388.5, 196.1 380.9, 195.5 380 C 195.1 379.4, 193.1 378.1, 190.9 377 L 187 375 187 377.2 C 186.9 384, 184.5 383.2, 180.3 375 C 175.4 365.5, 165.2 360.1, 158 363.2 M 52 405.5 C 52 407.5, 52.5 410, 53 411 C 54.5 413.8, 64.8 421.5, 73.3 426 L 80.8 430 81.2 423.6 C 81.4 420, 81.9 416.8, 82.2 416.4 C 83.9 414.8, 85 417.7, 85 424 L 85 431 89.4 433 C 91.9 434.1, 94.4 435, 95 435 C 95.5 435, 96.8 435.5, 97.8 436 C 98.7 436.5, 102.9 438.3, 107 439.9 C 111.1 441.5, 117.1 443.9, 120.3 445.4 C 123.4 446.8, 126 447.8, 126 447.6 C 126 447.4, 124 443.1, 121.5 438.1 C 119 433, 117.2 428.5, 117.5 427.9 C 118.7 426.1, 121.7 428.9, 124.8 435 C 132 448.7, 135.7 452.5, 138.9 449.5 C 141.1 447.3, 139.5 444, 131.9 435 C 128 430.4, 123.7 425, 122.5 423 C 114.2 410.2, 97.4 403.8, 79 406.4 C 66.9 408.2, 61.2 407.3, 52.8 402.3 C 52.3 402.1, 52 403.5, 52 405.5 M 710 410.3 C 699 417.6, 689.4 419.8, 680 417 C 673.9 415.1, 658.1 415.5, 653 417.5 C 636.8 424, 625.6 436.9, 618.6 457 C 614.8 468, 614.9 472.7, 619.3 484.4 L 620.8 488.4 622.3 485.3 C 625.5 479.2, 640.2 466.8, 653.6 458.9 C 676.7 445.2, 680.4 442.9, 685.4 439.2 C 697.5 430.1, 702.8 425, 707.5 418 C 710.9 412.9, 712.5 411.1, 712.8 412.2 C 713.5 415.7, 708.5 423.3, 701.3 429.8 C 689.2 440.6, 683.4 444.7, 660.1 458.6 C 642 469.3, 630.3 478.5, 624.8 486.3 L 622.5 489.4 626 487.3 C 627.9 486.1, 637.6 482.5, 647.5 479.1 C 664.9 473.3, 675 468.8, 683.6 462.9 C 687.7 460.1, 698 449.5, 698 448.1 C 698 447.6, 699.3 445.7, 701 443.9 C 706.1 438.1, 715 418.6, 716.6 409.8 C 717.4 405.2, 717.8 405.1, 710 410.3 M 52 415.7 C 52 417.2, 51.3 420.5, 50.4 422.9 C 46.7 433.8, 53.1 444.8, 64.3 446.6 C 67.4 447.2, 68.4 447.9, 69.8 450.8 C 71.3 453.9, 72.6 454.6, 81.9 458.1 L 92.2 462 98.9 460.4 C 102.6 459.5, 111.9 458.5, 119.8 458.3 C 133.7 457.8, 134 457.7, 132.4 455.9 C 131.5 454.8, 129.8 454, 128.8 454 C 127.7 454, 125.4 452.9, 123.7 451.6 C 120.7 449.3, 112.8 445.5, 103 441.5 C 100.5 440.5, 96.7 438.9, 94.5 437.9 C 84.4 433.7, 84 433.6, 77.6 436.5 C 70.9 439.5, 63 440.9, 63 439.1 C 63 438.5, 63.6 437.8, 64.3 437.6 C 75.1 434.4, 78.4 433.2, 78.8 432.2 C 79 431.5, 78.3 431, 77.3 431 C 74.7 431, 58 420, 54.8 416.1 L 52 412.8 52 415.7 M 676 424.7 C 670.2 426.7, 665.6 430, 666.7 431.1 C 667.3 431.7, 669.9 431, 673.1 429.5 C 676.2 428.2, 680.1 426.7, 682 426.4 C 685.2 425.7, 685.3 425.8, 684.6 428.3 C 684.1 430.6, 684.3 431, 686 431 C 687.5 431, 688 430.3, 688 428.4 C 688 423.1, 684.2 421.9, 676 424.7 M 174.3 429.2 C 171 430.9, 170.3 431.6, 171.1 432.7 C 172 433.7, 171.7 434, 169.6 434 C 167.9 434, 167 434.5, 167 435.6 C 167 436.4, 164 440, 160.3 443.5 L 153.6 449.9 161.6 449.4 C 173.5 448.6, 173.4 448.7, 174.8 443.3 C 175.6 440.7, 177 436.1, 178.1 433.2 C 180.7 425.8, 180.8 425.8, 174.3 429.2 M 637.2 431.3 C 632.4 436.4, 628.1 456.7, 631.2 459.8 C 633.4 462, 633.8 461.1, 634.2 452.3 C 634.7 443.9, 638.2 433.2, 641.1 431.4 C 641.6 431.1, 642 430.5, 642 429.9 C 642 428.2, 639.4 429, 637.2 431.3 M 154.4 438.9 C 146.7 444.4, 143 452.3, 143.1 462.9 L 143.1 470.5 145 465 C 146 462, 147.8 457.3, 148.9 454.6 C 150.1 451.9, 150.9 449.1, 150.6 448.4 C 150.3 447.6, 150.6 446.7, 151.3 446.3 C 152 445.8, 152.5 444.8, 152.5 444 C 152.5 443.2, 153.7 441.9, 155.2 441.2 C 157.9 439.9, 160.9 436, 159.2 436 C 158.7 436, 156.5 437.3, 154.4 438.9 M 159.8 456.4 C 153.3 457.5, 152.9 457.7, 151 461.5 C 148.6 466.2, 148.5 468, 150.5 468 C 151.3 468, 151.7 467.4, 151.4 466.6 C 150.7 464.9, 153.9 464, 161.1 464 C 167.1 464, 169 462.8, 170.9 457.7 C 172.1 454.5, 171.3 454.4, 159.8 456.4 M 106.3 465.5 C 91.3 468.3, 79.9 477.5, 72.3 492.8 L 67.5 502.5 67.5 515 C 67.5 528.9, 68.6 533.1, 74.8 542.9 C 85.1 559.3, 102.6 569.8, 121 570.7 C 131.8 571.2, 133.1 570.5, 130 565.6 C 126.5 559.8, 130.2 552.8, 137.5 551.4 C 141.3 550.7, 141.1 551.2, 146.5 533.5 C 148.5 526.9, 151.4 518.1, 152.8 514 C 155.5 506, 156.2 495.8, 154.2 493.8 C 153.5 493.1, 153 491.9, 153 491.1 C 152.9 490.2, 152.1 487.7, 151 485.5 C 149.9 483.3, 149 481.1, 149 480.5 C 149 480, 148.2 478.5, 147.2 477.3 C 145.6 475.3, 144.5 475.1, 134 474.9 C 118.4 474.6, 113 477.2, 104.8 488.9 C 101.7 493.2, 101.5 490.1, 104.4 484.5 C 108.6 476.5, 113.6 473.2, 122 473 L 125.5 472.9 122.6 471.3 C 120.4 470.1, 117.7 469.9, 111.8 470.2 C 103.1 470.7, 101.8 469.5, 108.6 467.2 C 113.4 465.5, 120.3 466.1, 128.9 468.9 C 137.2 471.6, 137.7 471, 130 467.6 C 122.6 464.3, 115.8 463.7, 106.3 465.5 M 160 470 C 157 471.6, 153.6 472.9, 152.5 473 C 148.2 473.1, 147.7 474.5, 150.5 478.5 C 151.9 480.6, 154 485.7, 155.2 489.8 C 157.1 496.4, 157.5 497, 158.3 494.9 C 158.8 493.6, 159.6 491.6, 160 490.5 C 166.1 474.9, 168.2 466.8, 166.3 467.1 C 165.8 467.2, 163 468.5, 160 470 M 308.1 493.7 C 296.4 494, 292.3 495, 293.6 497.1 C 293.9 497.6, 340 498, 401.1 498 C 502.5 498, 508.1 497.9, 507.8 496.3 C 507.5 494.8, 506 494.4, 500 493.9 C 492.5 493.3, 331.6 493.2, 308.1 493.7 M 271.2 518.2 C 270.5 518.9, 270 520.1, 270 521 C 270 521.8, 269.4 523.4, 268.6 524.5 C 267.9 525.6, 265.6 531.5, 263.6 537.5 C 258.2 553.6, 258 554.4, 258 557.4 C 258 562.1, 260.4 559.8, 262.1 553.4 C 263 550.2, 265.2 543.5, 267 538.5 C 268.7 533.6, 270.8 527.5, 271.5 525 C 272.2 522.5, 273.1 519.7, 273.5 518.8 C 274.3 516.7, 273 516.4, 271.2 518.2 M 134.5 559 C 133.6 560, 133 561.6, 133.4 562.5 C 134.7 566.1, 140.6 574, 141.8 574 C 142.7 574, 143 574.6, 142.6 575.6 C 142.3 576.4, 142.4 576.8, 143 576.5 C 143.6 576.2, 144 576.5, 144 577.2 C 144 577.9, 145.8 582.2, 148 586.8 C 150.2 591.4, 152 595.8, 152 596.6 C 152 598.2, 156.6 600.7, 157.7 599.6 C 158.9 598.4, 153 583.6, 147.5 574 C 146.7 572.6, 146 569.6, 146 567.3 C 146 562.7, 144.9 561.4, 142.4 562.8 C 141.3 563.4, 141.1 563.9, 141.9 564.4 C 143.3 565.3, 143.3 569, 141.9 569 C 140.7 569, 135 563.2, 135 562 C 135 560.6, 136.8 559.9, 140 559.8 C 142.4 559.7, 142.8 559.4, 141.9 558.3 C 140.2 556.4, 136.6 556.7, 134.5 559 M 308.5 573.9 C 305.2 574.9, 301.4 576.2, 300.1 576.7 L 297.7 577.6 300.5 579.9 C 303.2 581.9, 304 582, 313.4 581.4 C 321.3 580.9, 323.3 581, 322.4 582 C 321.7 582.6, 318.5 583.4, 315.1 583.7 C 307 584.5, 306.9 585.1, 313.8 589.5 C 325.4 597.1, 330.5 600.5, 331 601.1 C 332 602.1, 339.1 606.2, 339.4 605.9 C 340.3 604.8, 337.8 588.8, 336.1 585 C 331.2 573.9, 321.6 570, 308.5 573.9 M 171.5 573.5 C 171 573.7, 167.6 574.1, 164 574.5 C 154 575.4, 153.9 575.7, 158 583.9 C 159.9 587.8, 161.8 590.9, 162.1 591 C 162.7 591, 174 574.4, 174 573.5 C 174 573, 173.1 573, 171.5 573.5 M 133 580.7 C 119.1 582.1, 110.6 586.4, 104.9 595 C 101.5 599.9, 100.3 603.1, 98 613.5 C 95.4 624.9, 97.6 650.9, 102 660.5 C 102.5 661.6, 103.2 663.6, 103.6 665 C 104.9 669.8, 114.5 684.5, 119.5 689.5 C 122.3 692.2, 127.5 696.1, 131.1 698 L 137.5 701.5 155 701.6 C 166.7 701.6, 173.8 702.1, 176.5 703 C 182.3 705, 198.4 704.8, 204.5 702.7 C 220 697.4, 226.4 691.3, 235.4 673 C 252.8 637.6, 245.2 598.7, 219.4 590.6 C 216.1 589.5, 212.2 588.3, 210.6 587.7 C 205.4 585.8, 185.1 586.5, 180 588.8 C 175.5 590.7, 167.2 597.6, 168.2 598.5 C 168.4 598.7, 173.3 597.1, 179.1 594.9 C 188.1 591.3, 190.6 590.8, 198 590.6 C 207.1 590.5, 215 592.8, 215 595.7 C 215 596.5, 214.6 596.9, 214.1 596.6 C 213.6 596.3, 210.1 595.4, 206.4 594.6 C 197.5 592.7, 191 594, 178.5 600 C 163.4 607.3, 153.9 606.6, 135.5 597.1 C 128.9 593.7, 128.7 593.5, 131.6 593.2 C 133.3 593, 136.7 593.6, 139.1 594.5 C 147.3 597.5, 147.7 597.6, 146.1 595.6 C 144.3 593.4, 138.3 590.7, 130.8 588.6 C 124.6 586.8, 123.5 585.6, 127.4 584.6 C 130.3 583.9, 135.5 584.8, 139.3 586.7 C 140.9 587.5, 142.4 587.9, 142.6 587.7 C 143.6 586.7, 139.6 580, 138.1 580.2 C 137.2 580.2, 134.9 580.5, 133 580.7 M 295.2 587.7 C 296.4 604.8, 307.4 612.7, 322.9 607.6 C 325.6 606.7, 328.7 606, 329.8 606 C 334.5 606, 332.2 603.1, 324.5 599.5 C 318.8 596.9, 310.9 591.6, 308.1 588.6 C 304.7 585, 304.2 585.3, 304.7 590.8 C 305.1 595.2, 305 595.4, 303.6 593.6 C 302.7 592.5, 302 590.1, 302 588.2 C 302 584.8, 300.9 583.4, 296.6 580.9 C 294.8 579.8, 294.7 580.1, 295.2 587.7 M 110.3 600.3 C 106.6 606.5, 105 613.1, 105 622.1 C 105 626.9, 105.5 631.2, 106 631.5 C 106.6 631.9, 107 630.2, 107 627 C 107 621.1, 109.6 607.7, 111.5 604 C 114.9 597.2, 113.9 594.1, 110.3 600.3 M 536.6 615.8 C 541.2 635.5, 549 656.4, 554.7 663.8 C 558.5 668.9, 558.5 667.1, 554.5 658.7 C 552.6 654.5, 551 650.8, 551 650.4 C 551 650.1, 550.4 648.4, 549.6 646.7 C 547 640.6, 542 626.5, 541.4 623 C 540.4 618.1, 538.2 613, 537 613 C 536.4 613, 536.2 614.2, 536.6 615.8 M 0.2 699.8 C 0.1 744.7, 0.3 768, 1 768 C 2.1 768, 2.1 729.9, 1.1 669 C 0.4 634, 0.4 636, 0.2 699.8 M 535 635 C 534.9 642.4, 538.6 655.6, 543.2 664.8 C 548.4 674.9, 562.4 689, 567.4 689 C 569.9 689, 569.3 687.3, 566.5 686.6 C 563.2 685.8, 552.9 675.5, 548.6 668.8 C 544.4 662.1, 540.2 651.7, 538.5 643.5 C 537.2 637.2, 535.1 632, 535 635 M 238.1 645.3 C 235.7 664.5, 235.7 664.6, 236.8 663.5 C 239.5 660.9, 242.9 642.6, 241.6 637.6 C 240.4 632.8, 239.4 635, 238.1 645.3 M 229.6 649.7 C 229.4 650.7, 228.6 654.1, 228 657.3 C 226.9 663, 219.2 679.9, 216.2 683.3 C 213.8 685.9, 215.7 686.6, 218.4 684.1 C 223.4 679.4, 232 659.3, 232 652.5 C 232 648.8, 230.4 646.9, 229.6 649.7 M 684.8 651.6 C 684.5 652.1, 683.9 657, 683.5 662.5 C 682.8 672.5, 681.1 680.8, 678.4 686.7 C 677.6 688.4, 677 690.1, 677 690.4 C 677 690.7, 675.7 693.1, 674.1 695.7 C 672.5 698.4, 670.9 701.6, 670.6 703 C 670 705.3, 670.1 705.3, 672.8 702.2 C 679.4 694.7, 684.6 680.6, 686.1 665.8 C 687 656.4, 686.3 649, 684.8 651.6 M 693.7 652 C 693.4 652.8, 692.9 656.9, 692.6 661 C 691.5 676.8, 686.4 690.7, 678.4 699.8 C 673 705.9, 672.8 707, 677.7 703.3 C 688.3 695.2, 697 674.8, 697 657.9 C 697 653.9, 694.5 649.4, 693.7 652 M 600 667.6 C 600 677.2, 606.9 693.2, 612.1 696.1 C 614.7 697.4, 614.5 696.9, 610.9 691.5 C 607.3 686.2, 604.8 679.2, 602.9 669.8 C 601.4 661.9, 600 660.9, 600 667.6" stroke="none" fill="#1b1f3a" fill-rule="evenodd"/></svg>