<svg xmlns="http://www.w3.org/2000/svg" viewBox="0 0 768 768" version="1.1" preserveAspectRatio="xMidYMid meet">
	<path d="M 0.173 283.250 C 0.268 439.038, 0.645 556.150, 1.011 543.500 C 2.143 504.314, 2.138 0, 1.006 0 C 0.333 0, 0.057 93.832, 0.173 283.250 M 545.929 43.133 C 544.747 45.342, 545.305 51.718, 546.950 54.794 C 547.942 56.649, 552.877 67.388, 555.317 73 C 556.153 74.925, 558.203 79.523, 559.872 83.218 C 561.540 86.912, 563.391 91.739, 563.985 93.944 C 564.579 96.149, 566.850 100.016, 569.032 102.537 C 573.960 108.231, 574.035 107.962, 567.701 107.309 C 559.506 106.463, 542.669 114.237, 531.215 124.156 C 526.119 128.569, 525.652 127.580, 529.372 120.250 C 533.693 111.737, 534.696 108.305, 535.545 99.129 C 536.318 90.775, 535.640 89.669, 530.623 91.108 C 525.736 92.510, 515.763 92.136, 513.559 90.468 C 511.231 88.708, 492.837 88.444, 486.500 90.081 C 484.300 90.649, 480.700 91.554, 478.500 92.093 C 471.753 93.745, 466.560 96.636, 460.676 102.013 C 457.578 104.845, 453.796 107.487, 452.271 107.885 C 450.164 108.435, 448.701 110.153, 446.164 115.054 C 437.720 131.369, 436.072 133.825, 433.135 134.470 C 426.897 135.840, 423.872 141.700, 422.538 155 C 422.179 158.575, 421.480 163.075, 420.983 165 C 420.487 166.925, 419.817 170.188, 419.495 172.250 L 418.909 176 413.031 176 L 407.153 176 411.104 169.176 C 419.593 154.514, 418.484 133.971, 408.571 122.250 C 403.125 115.811, 402.488 118.963, 407.250 128.792 C 410.339 135.168, 410.500 136.068, 410.500 147 C 410.500 159.293, 408.734 164.546, 401.588 173.500 L 399.193 176.500 384.847 177.106 C 376.956 177.440, 370.372 177.612, 370.217 177.489 C 370.061 177.367, 370.732 175.069, 371.708 172.383 C 375.455 162.072, 373.747 138.154, 368.422 126.349 C 367.640 124.616, 367 122.952, 367 122.652 C 367 120.687, 359.266 109.583, 354.697 104.990 C 344.416 94.654, 332.261 90.027, 315.344 90.011 C 302.990 89.999, 303.018 90.022, 306.669 83.027 C 307.394 81.637, 307.990 80.153, 307.994 79.728 C 307.997 79.304, 310.700 74.512, 314 69.080 C 322.930 54.381, 321.927 49.636, 309.455 47.565 C 304.148 46.684, 300.712 48.097, 298.241 52.177 C 296.032 55.825, 290 78.857, 290 83.643 L 290 86.645 274.250 86.649 C 256.995 86.653, 250.869 87.772, 239.245 93.043 C 228.325 97.994, 216.774 108.408, 210.993 118.513 C 206.699 126.017, 206.329 125.962, 205.766 117.729 C 204.510 99.373, 192.958 78.527, 178.173 67.938 C 172.476 63.858, 170 63.758, 170 67.607 C 170 70.678, 169.873 70.653, 164.486 66.541 C 161.993 64.639, 158.277 62.814, 156.227 62.486 C 154.177 62.159, 151.600 61.386, 150.500 60.768 C 149.400 60.151, 144.734 57.686, 140.131 55.292 C 135.528 52.898, 129.857 49.377, 127.528 47.469 C 122.470 43.324, 121.262 43.180, 119.975 46.565 C 118.624 50.118, 118.739 75.215, 120.122 78.685 C 120.739 80.233, 121.829 84.200, 122.544 87.500 C 125.004 98.857, 125.719 100.645, 130.338 106.994 C 132.887 110.496, 134.827 113.506, 134.651 113.683 C 134.474 113.859, 132.118 113.333, 129.415 112.513 C 118.930 109.332, 102.488 110.874, 87 116.492 C 82.453 118.141, 77.678 118.966, 71.109 119.239 C 62.775 119.586, 61.509 119.888, 59.859 121.925 C 56.927 125.547, 56.511 124.826, 67.289 134.830 C 71.766 138.986, 81 152.779, 81 155.310 C 81 156.346, 83.970 160.271, 87.600 164.031 C 94.854 171.545, 100.191 174.269, 114 177.506 C 126.084 180.338, 126.052 180.312, 120.670 182.917 C 112.027 187.102, 106.421 196.419, 99.864 217.500 C 98.667 221.350, 96.662 226.075, 95.409 228 C 91.023 234.739, 87.029 248.845, 86.968 257.812 C 86.951 260.390, 86.295 266.991, 85.510 272.480 C 84.412 280.163, 84.325 284.190, 85.129 289.975 C 86.282 298.262, 86.883 299.055, 91.450 298.314 C 94.547 297.812, 94.568 297.838, 94.197 301.727 C 93.992 303.883, 94.550 311.283, 95.438 318.172 C 96.395 325.592, 96.787 332.960, 96.401 336.247 C 95.811 341.262, 95.957 341.906, 97.911 342.952 C 100.246 344.202, 100.244 344.202, 111 338.316 C 114.025 336.660, 121.450 333.598, 127.500 331.510 C 133.550 329.423, 138.985 327.338, 139.577 326.878 C 140.170 326.418, 143.973 325.571, 148.030 324.996 C 175.836 321.052, 195.793 311.214, 204.818 297 C 206.739 293.975, 209.857 289.765, 211.747 287.645 C 215.444 283.499, 220.006 274.619, 222.124 267.446 C 222.846 265.001, 223.953 263, 224.583 263 C 227.543 263, 230.904 258.825, 231.581 254.307 C 232.259 249.787, 229.873 233.709, 227.987 230.088 C 227.533 229.214, 226.166 225.678, 224.950 222.229 C 223.735 218.780, 222.349 215.716, 221.870 215.420 C 221.392 215.124, 221 214.451, 221 213.924 C 221 213.397, 223.813 215.172, 227.250 217.868 C 234.544 223.588, 242.281 227.899, 250 230.543 C 253.025 231.580, 255.639 232.508, 255.808 232.605 C 255.978 232.703, 254.945 235.645, 253.514 239.142 C 252.082 242.639, 250.544 246.400, 250.095 247.500 C 249.647 248.600, 247.807 253.325, 246.007 258 C 243.049 265.680, 241.794 268.725, 237.554 278.500 C 236.839 280.150, 235.444 283.750, 234.455 286.500 C 233.465 289.250, 232.361 291.950, 232 292.500 C 231.639 293.050, 230.531 295.750, 229.537 298.500 C 228.544 301.250, 226.859 305.525, 225.793 308 C 224.727 310.475, 223.183 314.075, 222.360 316 C 221.538 317.925, 220.449 320.400, 219.940 321.500 C 219.431 322.600, 215.408 333.175, 211 345 C 206.592 356.825, 202.594 367.400, 202.117 368.500 C 201.640 369.600, 200.755 371.732, 200.151 373.238 L 199.054 375.976 195.561 373.606 C 193.639 372.302, 190.365 370.926, 188.284 370.548 C 185.434 370.031, 182.835 368.220, 177.755 363.213 C 171.242 356.792, 170.852 356.571, 166.345 356.768 C 161.540 356.977, 147.351 361.405, 138.461 365.470 C 124.765 371.733, 116.480 385.752, 117.171 401.499 C 117.352 405.627, 117.379 409.004, 117.232 409.002 C 116.972 409, 108.210 404.731, 104.837 402.963 C 103.922 402.484, 99.117 401.388, 94.158 400.527 C 85.588 399.040, 84.706 399.062, 76.321 400.963 L 67.500 402.962 59.309 398.981 C 49.650 394.286, 48.588 394.173, 46.338 397.607 C 44.814 399.933, 44.758 401.100, 45.823 408.460 C 46.830 415.429, 46.781 417.368, 45.507 420.979 C 41.481 432.391, 45.248 444.080, 54.336 448.379 C 57.383 449.821, 60.191 451, 60.576 451 C 60.961 451, 63.199 452.772, 65.548 454.937 C 70.211 459.236, 77.650 463.354, 82.739 464.454 C 85.880 465.133, 88.266 467, 85.992 467 C 81.970 467, 71.169 479.491, 66.042 490.072 C 53.820 515.293, 59.570 541.674, 81.715 561.980 C 90.904 570.407, 102.985 577, 109.236 577 C 111.936 577, 111.346 578.368, 107.750 580.450 C 88.875 591.372, 82.064 631.902, 93.961 662.500 C 101.260 681.272, 112.932 696.980, 124.215 703.215 C 134.516 708.907, 139.728 710, 156.570 710 C 166.483 710, 172.920 710.422, 174.304 711.163 C 175.499 711.802, 181.945 712.536, 188.628 712.793 C 209.815 713.610, 222.770 707.618, 235.997 690.885 C 243.528 681.357, 247.795 670.980, 257.946 637.500 C 258.446 635.850, 261.152 625.050, 263.958 613.500 C 268.868 593.292, 269.959 589.051, 273.344 577 C 274.194 573.975, 275.027 570.705, 275.195 569.734 C 275.452 568.249, 276.565 568.685, 282.213 572.480 C 290.207 577.853, 291 579.127, 291 586.596 C 291 605.299, 303.344 617.095, 319.013 613.366 C 330.811 610.558, 335.822 610.484, 338.582 613.077 C 339.912 614.326, 341 616, 341 616.797 C 341 618.017, 341.254 618.034, 342.617 616.903 C 343.991 615.762, 344.156 613.899, 343.709 604.530 C 342.237 573.698, 329.754 563.851, 301.328 571.101 L 293.092 573.202 289.796 570.899 C 280.073 564.107, 277.151 560.951, 278.013 558.171 C 278.468 556.702, 281.632 547.625, 285.043 538 C 288.454 528.375, 291.730 519.102, 292.323 517.393 L 293.400 514.286 360.723 513.553 C 397.751 513.149, 443.597 513.149, 462.603 513.553 L 497.158 514.286 498.172 516.893 C 501.003 524.171, 505.523 539.861, 507.998 551 C 509.526 557.875, 511.667 566.650, 512.757 570.500 C 518.640 591.295, 520.431 603.590, 519.530 617 C 517.951 640.513, 519.152 651.045, 525.176 666.500 C 532.948 686.439, 546.586 697.999, 566.418 701.458 C 576.957 703.296, 592.059 703.470, 596.659 701.806 C 599.580 700.750, 600.220 700.854, 602.230 702.709 C 605.267 705.513, 611.648 708.996, 613.780 709.015 C 614.726 709.023, 616.625 709.669, 618 710.452 C 639.778 722.839, 657.116 724.014, 677.716 714.496 C 699.287 704.529, 714.198 672.869, 710.147 645.633 C 708.501 634.564, 705.008 628.093, 695.869 619.187 C 691.582 615.010, 688.291 611.375, 688.556 611.111 C 689.141 610.525, 677.528 607.315, 670.074 606.003 C 662.553 604.679, 662.222 604.066, 665.516 597.557 C 667.834 592.974, 668.135 591.592, 667.242 589.632 C 665.953 586.804, 661.775 585.515, 658.894 587.057 C 656.334 588.427, 656.962 589.473, 652.555 576.500 C 650.500 570.450, 645.710 557.148, 641.910 546.941 C 638.109 536.734, 635 528.027, 635 527.592 C 635 527.158, 634.377 525.384, 633.616 523.651 C 631.104 517.932, 625.007 500.558, 624.401 497.391 C 623.654 493.483, 626.779 491.330, 638.500 487.679 C 665.479 479.275, 666.088 479.050, 677.473 473.298 C 697.005 463.428, 710.203 446.698, 719.519 420 C 726.321 400.507, 722.633 395.224, 708.824 404.680 C 695.891 413.538, 693.410 414.005, 675.500 410.952 C 649.019 406.438, 624.220 423.420, 614.361 452.817 C 611.121 462.480, 610.803 462.374, 606.542 450.234 C 605.049 445.980, 603.462 441.600, 603.014 440.500 C 602.566 439.400, 599.185 430.175, 595.500 420 C 591.815 409.825, 588.423 400.600, 587.963 399.500 C 587.503 398.400, 585.248 392.100, 582.953 385.500 C 578.394 372.393, 571.156 352.111, 568.500 345 C 565.226 336.234, 557.855 315.396, 555.412 308 C 552.888 300.358, 538.791 261.951, 536.509 256.500 C 535.819 254.850, 534.444 251.250, 533.455 248.500 C 532.465 245.750, 531.343 243.050, 530.961 242.500 C 530.218 241.431, 523 221.291, 523 220.288 C 523 219.959, 523.788 220.377, 524.750 221.217 C 525.712 222.057, 531.419 225.070, 537.431 227.913 C 553.587 235.554, 558.389 239.261, 574.781 256.750 C 576.972 259.087, 579.475 261, 580.343 261 C 585.659 261, 589.676 246.696, 588.668 231.356 C 588.128 223.135, 588.283 221.344, 589.669 219.813 C 592.109 217.117, 595.852 217.480, 597.010 220.526 C 599.295 226.536, 602.383 224.705, 603.444 216.713 L 604.111 211.681 609.047 220.091 C 619.247 237.468, 637.721 250.436, 652.336 250.480 C 662.679 250.510, 665.239 246.199, 660.509 236.717 C 658.530 232.750, 659.242 232, 664.986 232 C 672.861 232, 676.094 225.490, 672.528 216.813 C 671.982 215.485, 672.919 214.660, 676.940 212.930 C 683.062 210.297, 686.588 206.388, 687.969 200.705 C 688.532 198.392, 690.759 192.900, 692.920 188.500 C 698.617 176.900, 699.688 174.215, 701.433 167.169 C 703.493 158.848, 703.515 143.339, 701.472 139.245 C 697.025 130.330, 679.289 120.098, 656.500 113.301 C 646.102 110.199, 641.028 110.717, 632.200 115.782 L 627.899 118.249 628.588 115.374 C 628.967 113.794, 629.678 111.716, 630.169 110.758 C 632.310 106.581, 632.314 93.698, 630.177 86.148 C 627.643 77.195, 626.134 74.768, 621.825 72.715 C 619.996 71.844, 616.925 69.472, 615 67.443 C 611.718 63.985, 603.050 59.032, 600.241 59.010 C 599.549 59.004, 597.119 57.650, 594.841 56 C 592.564 54.350, 589.894 53, 588.909 53 C 587.924 53, 586.871 52.601, 586.570 52.113 C 586.269 51.626, 584.330 50.926, 582.261 50.559 C 578.760 49.937, 572.168 47.886, 567.500 45.966 C 555.027 40.835, 547.676 39.869, 545.929 43.133 M 552.566 48.894 C 551.879 50.005, 556.495 62.447, 559.698 68.117 C 562.535 73.139, 569.779 77.595, 573.752 76.762 C 574.886 76.525, 561.128 57.498, 558.598 55.804 C 558.026 55.422, 557.892 54.775, 558.300 54.367 C 559.353 53.313, 566.622 60.769, 572.500 68.933 C 575.250 72.752, 577.779 75.904, 578.120 75.938 C 578.461 75.972, 578.971 73.953, 579.253 71.451 C 580.274 62.388, 583 64.557, 583 74.432 C 583 81.309, 583.224 82.053, 586.750 86.858 C 591.055 92.726, 592 93.137, 592 89.140 C 592 83.856, 593.258 77.041, 594.133 77.582 C 594.610 77.877, 595 82.332, 595 87.482 C 595 101.796, 598.566 104.989, 609.049 100.061 C 610.994 99.146, 612.012 97.399, 613.347 92.681 C 615.663 84.500, 616.747 82, 617.979 82 C 618.540 82, 619 82.203, 619 82.451 C 619 83.768, 616.043 93.871, 614.987 96.160 C 613.900 98.519, 614.057 99.209, 616.380 102.254 C 618.789 105.412, 619.004 106.488, 619.049 115.594 L 619.098 125.500 622.549 115.119 C 626.373 103.616, 626.843 97.407, 624.490 89.500 C 622.187 81.760, 620.845 79.862, 616.290 77.910 C 613.225 76.596, 611.672 75.151, 610.619 72.631 C 608.349 67.197, 600.531 64.305, 596.927 67.566 C 594.506 69.757, 593.778 69.053, 593.065 63.830 C 592.440 59.261, 590.816 58.295, 579 55.469 C 575.975 54.746, 571.138 53.444, 568.250 52.577 C 556.429 49.026, 552.984 48.217, 552.566 48.894 M 125.636 61.640 C 124.364 70.920, 124.843 75.105, 127.588 78.705 C 130.056 81.941, 130.263 85, 128.012 85 C 124.924 85, 133.351 102.956, 139.788 110.092 C 142.380 112.965, 145.433 117.152, 146.573 119.396 C 148.307 122.808, 150.272 124.384, 158.573 129.022 C 174.007 137.645, 180 141.770, 180 143.772 C 180 144.760, 182.563 148.028, 185.696 151.034 C 188.828 154.040, 190.913 155.825, 190.328 155 C 189.054 153.201, 185 141.541, 185 139.673 C 185 137.231, 175.520 114.547, 172.350 109.405 C 169.369 104.569, 168.911 104.253, 163.354 103.207 C 148.018 100.318, 145.431 99.707, 144.500 98.760 C 143.242 97.480, 153.804 98.420, 160.350 100.171 C 170.691 102.937, 166.841 97.411, 141.223 72.716 C 135.640 67.335, 130.284 61.597, 129.321 59.966 C 126.950 55.952, 126.380 56.210, 125.636 61.640 M 134.043 61.750 C 135.831 63.813, 139.353 67.300, 141.871 69.500 C 158.649 84.159, 165.066 91.439, 172.939 104.750 C 175.298 108.737, 177.571 112, 177.991 112 C 178.776 112, 183 102.876, 183 101.179 C 183 99.196, 185.812 94.887, 186.441 95.905 C 186.799 96.484, 186.681 97.755, 186.178 98.729 C 185.675 99.703, 184.941 102.300, 184.547 104.500 C 184.154 106.700, 182.751 109.924, 181.431 111.664 C 178.737 115.213, 178.735 115.202, 184.973 128.500 C 186.521 131.800, 188.010 135.175, 188.282 136 C 188.815 137.615, 192 131.267, 192 128.591 C 192 127.781, 192.450 126.840, 193 126.500 C 193.550 126.160, 194 124.659, 194 123.163 C 194 119.883, 196.848 115.448, 198.130 116.730 C 199.495 118.095, 195.530 132.601, 192.571 137.073 C 189.416 141.840, 189.416 141.642, 192.591 150.925 C 195.806 160.323, 196.692 161.311, 197.482 156.380 C 197.823 154.246, 198.642 150.475, 199.301 148 C 201.187 140.921, 200.700 115.797, 198.536 108.500 C 195.024 96.658, 186.126 81.830, 178.528 75.159 C 173.843 71.045, 173 71.174, 173 76 C 173 81.429, 170.434 81.344, 165.434 75.750 C 160.638 70.383, 156.962 67.881, 154.855 68.548 C 153.950 68.834, 148.440 66.578, 142.610 63.534 C 130.031 56.967, 129.868 56.933, 134.043 61.750 M 301.631 59.702 C 301.284 60.049, 301 61.164, 301 62.180 C 301 63.196, 300.590 64.809, 300.089 65.764 C 296.411 72.770, 293.140 87.280, 292.366 100.015 C 291.713 110.768, 291.744 111, 293.831 111 C 295.246 111, 296.107 110.244, 296.394 108.750 C 296.631 107.513, 297.301 104.025, 297.882 101 C 298.463 97.975, 299.209 93.700, 299.539 91.500 C 300.526 84.925, 304.142 75.677, 310.781 62.750 C 310.993 62.337, 310.104 62, 308.806 62 C 307.507 62, 305.504 61.341, 304.354 60.535 C 303.204 59.730, 301.979 59.355, 301.631 59.702 M 564.160 76.132 C 566.616 85.682, 571.630 98.358, 573.392 99.471 C 574.596 100.231, 579.466 100.976, 584.744 101.209 C 595.199 101.669, 594.927 102.579, 587.230 92.880 C 578.356 81.699, 576.860 80, 575.889 80 C 575.003 80, 566.863 76.568, 564.654 75.263 C 564.188 74.988, 563.966 75.379, 564.160 76.132 M 265.500 94.640 C 237.606 97.552, 216.586 115.024, 207.321 143 C 204.879 150.374, 204.929 168.929, 207.414 177.500 C 213.683 199.123, 231.478 216.719, 253.772 223.340 C 259.655 225.087, 259.568 225.148, 262.925 217 C 268.957 202.365, 278.894 189.136, 286.937 185.032 C 292.505 182.192, 323.578 179.133, 348 179.022 C 354.325 178.993, 360.032 178.631, 360.683 178.217 C 365.452 175.184, 367.501 145.316, 363.682 134.500 C 355.532 111.423, 339.482 98, 320.037 98 C 313.806 98, 313.334 98.165, 311.716 100.904 C 309.146 105.254, 309.469 106.074, 313.250 104.803 C 315.038 104.202, 316.950 103.377, 317.500 102.970 C 318.050 102.564, 319.962 101.918, 321.750 101.536 C 326.526 100.515, 325.808 102.460, 320.250 105.595 C 317.637 107.069, 312.909 109.771, 309.741 111.600 C 301.181 116.543, 291.606 119.249, 285.500 118.452 C 270.914 116.546, 254.741 111.442, 257.734 109.689 C 258.538 109.218, 277.808 110.510, 284.250 111.467 L 288 112.024 288 103.512 L 288 95 284.647 95 C 282.802 95, 278.640 94.825, 275.397 94.611 C 272.154 94.397, 267.700 94.410, 265.500 94.640 M 483.500 96.922 C 480.750 97.921, 476.630 99.253, 474.345 99.881 C 472.009 100.523, 468.069 102.926, 465.345 105.370 C 462.680 107.761, 458.595 110.686, 456.266 111.871 C 453.638 113.207, 451.859 114.873, 451.577 116.262 C 451.326 117.493, 450.900 119.625, 450.630 121 C 450.360 122.375, 449.669 125.300, 449.093 127.500 C 448.518 129.700, 448.030 133.075, 448.009 135 C 447.953 139.961, 446.561 141.992, 444.581 140 C 443.385 138.796, 443.286 137.635, 444.080 134.118 C 445.471 127.957, 444.403 127.764, 441.924 133.729 C 440.023 138.303, 439.469 138.829, 435.971 139.389 C 431.146 140.160, 431.390 139.697, 428.977 152.658 C 427.866 158.621, 426.517 165.127, 425.979 167.116 C 424.148 173.879, 424.620 176, 427.953 176 C 429.885 176, 431.450 175.221, 432.475 173.750 C 433.338 172.512, 438.554 164.648, 444.067 156.274 C 451.526 144.941, 455.868 139.455, 461.044 134.820 C 467.709 128.853, 468.001 128.402, 468.015 124.046 C 468.031 118.928, 470.121 112.177, 473.268 107.073 C 476.088 102.501, 476.703 104.915, 474.219 110.802 C 472.135 115.739, 470.398 125, 471.555 125 C 471.927 125, 474.317 123.472, 476.866 121.605 C 479.415 119.738, 484.924 115.922, 489.110 113.126 C 493.295 110.331, 497.288 107.358, 497.982 106.521 C 498.677 105.685, 500.558 105, 502.164 105 C 505.795 105, 514.952 100.924, 514.980 99.295 C 514.991 98.633, 513.420 97.794, 511.489 97.432 C 509.558 97.070, 507.731 96.374, 507.430 95.887 C 506.400 94.220, 488.844 94.979, 483.500 96.922 M 522.500 99.574 C 515.354 101.447, 499.545 109.894, 485.743 119.214 L 473.862 127.238 476.690 128.958 C 480.026 130.987, 491.251 134.985, 493.754 135.035 C 494.714 135.055, 496.625 135.714, 498 136.500 L 500.500 137.929 497.799 137.965 C 492.865 138.029, 484.574 135.845, 478.590 132.904 C 475.340 131.307, 472.157 130, 471.518 130 C 468.249 130, 442.485 160.818, 444.265 162.598 C 444.505 162.838, 448.930 163.306, 454.100 163.638 C 464.020 164.276, 477.279 162.453, 484.418 159.470 C 488.888 157.602, 489.192 159.362, 484.750 161.391 C 474.033 166.286, 473.773 166.336, 457 166.773 C 439.084 167.241, 438.583 167.412, 436.577 173.750 C 435.708 176.496, 435.837 176.503, 448.761 174.461 C 490.238 167.905, 499.050 162.976, 500.690 145.421 C 501.019 141.890, 501.674 139, 502.145 139 C 502.615 139, 503.020 139.338, 503.044 139.750 C 503.068 140.162, 503.473 142.500, 503.945 144.945 C 504.429 147.456, 504.421 150.392, 503.926 151.695 C 502.339 155.869, 504.779 154.149, 508.690 148.338 C 510.786 145.223, 514.440 140.535, 516.811 137.919 C 520.688 133.641, 521.055 132.809, 520.460 129.641 C 519.927 126.795, 520.566 124.427, 523.789 117.309 C 525.983 112.464, 528.074 107.150, 528.437 105.500 C 528.799 103.850, 529.312 101.766, 529.577 100.868 C 530.282 98.484, 528.149 98.093, 522.500 99.574 M 606.500 107.529 C 601.904 109.185, 595.901 109.406, 591.307 108.088 C 588.502 107.284, 587.397 107.650, 581.944 111.194 C 574.979 115.719, 564.555 117.784, 563.848 114.779 C 563.443 113.053, 552.001 117.341, 543.487 122.409 C 528.956 131.060, 509.210 156.503, 500.926 177.250 C 498.602 183.070, 497.925 183.076, 517.923 177.119 C 520.834 176.252, 521.046 175.857, 524.522 164.808 C 526.027 160.027, 527.834 155.894, 528.540 155.623 C 529.541 155.239, 529.605 155.830, 528.832 158.315 C 523.309 176.063, 523.276 176.264, 526.127 175.100 C 527.432 174.567, 532.394 172.963, 537.152 171.535 C 541.911 170.108, 546.300 168.343, 546.906 167.614 C 548.209 166.043, 549.649 159.525, 551.128 148.500 C 551.719 144.100, 552.799 139.375, 553.528 138 C 555.703 133.900, 554.290 151.144, 551.376 164.263 L 550.762 167.026 559.131 163.401 C 563.734 161.407, 568.930 159.158, 570.679 158.404 C 572.562 157.592, 575.414 154.749, 577.679 151.428 C 579.780 148.345, 581.950 145.297, 582.500 144.654 C 583.050 144.012, 585.242 140.902, 587.372 137.743 C 589.501 134.584, 591.414 132, 591.622 132 C 593.077 132, 591.154 136.001, 585.891 143.921 C 582.531 148.978, 579.965 153.299, 580.189 153.522 C 581.349 154.682, 594.283 145.279, 601.618 137.941 C 610.109 129.447, 612.883 128.849, 606.490 136.891 C 604.571 139.306, 603 141.817, 603 142.471 C 603 144.553, 585.421 156.354, 580.468 157.597 C 577.592 158.319, 577.244 159.804, 579.750 160.661 C 583.773 162.036, 595.945 168.102, 596.508 169.013 C 598.158 171.683, 592.261 169.785, 577.332 162.840 L 573.164 160.901 564.332 165.449 C 559.474 167.950, 554.825 170.031, 554 170.072 C 553.175 170.114, 550.779 170.909, 548.676 171.839 L 544.851 173.530 551.176 178.696 C 559.048 185.126, 569 194.855, 569 196.121 C 569 197.426, 566.274 195.805, 562 191.956 C 545.134 176.771, 540.807 174.597, 533.035 177.403 L 529.571 178.655 532.765 179.768 C 540.779 182.562, 551.506 195.959, 557.772 211 C 558.803 213.475, 560.486 217.525, 561.512 220 C 562.539 222.475, 564.738 226.525, 566.400 229 C 568.062 231.475, 571.509 237.527, 574.060 242.450 C 576.611 247.372, 579.190 251.563, 579.792 251.764 C 581.654 252.385, 582.311 245.228, 581.610 231.954 L 580.938 219.227 583.588 216.077 C 586.681 212.402, 590.911 210, 594.291 210 C 596.404 210, 596.919 209.158, 598.725 202.750 C 599.849 198.763, 602.214 191.450, 603.980 186.500 C 610.528 168.155, 610.908 165.987, 612.144 140 C 613.219 117.373, 612.898 105.935, 611.189 106.044 C 610.810 106.068, 608.700 106.736, 606.500 107.529 M 105.175 117.554 C 96.799 119.084, 89.550 121.632, 87.892 123.630 C 87.077 124.612, 84.096 125, 77.378 125 C 67.259 125, 66.631 125.378, 70.607 129.076 C 74.522 132.717, 85.570 148.999, 86.881 153.062 C 90.344 163.790, 107.554 172.095, 130.420 174.072 C 137.064 174.647, 142.928 175.541, 143.450 176.059 C 144.613 177.211, 161.636 177.172, 168.500 176.001 C 172.825 175.263, 193.049 172.074, 193.750 172.019 C 193.887 172.009, 194 171.550, 194 171 C 194 170.450, 191.637 169.993, 188.750 169.985 C 185.168 169.974, 183.961 169.678, 184.952 169.051 C 185.751 168.545, 186.763 168.354, 187.202 168.625 C 187.641 168.896, 188.469 168.828, 189.043 168.473 C 191.870 166.726, 174.157 160.274, 159 157.530 C 154.875 156.783, 144.595 154.327, 136.155 152.072 L 120.811 147.972 114.155 152.364 C 107.844 156.529, 103 158.795, 103 157.582 C 103 157.277, 104.912 155.797, 107.250 154.291 C 109.588 152.786, 112.980 150.463, 114.788 149.129 L 118.076 146.705 106.788 142.957 C 94.258 138.797, 79.491 131.722, 78.624 129.464 C 77.881 127.526, 77.746 127.489, 85.736 131.437 C 89.561 133.328, 95.483 135.815, 98.897 136.965 C 102.310 138.115, 108.058 140.168, 111.671 141.528 C 115.283 142.888, 118.410 144, 118.619 144 C 119.547 144, 118.867 138.926, 117.500 135.654 C 115.771 131.517, 115.578 129.621, 116.973 130.483 C 118.257 131.277, 120.683 136.622, 121.746 141 C 122.552 144.322, 123.020 144.641, 130.938 147.276 C 135.527 148.803, 139.491 149.843, 139.747 149.587 C 140.002 149.331, 139.441 147.102, 138.498 144.634 C 135.788 137.539, 137.418 136.842, 140.612 143.731 C 143.821 150.653, 144.110 150.825, 156.932 153.448 C 165.328 155.165, 166.198 154.933, 163.296 151.746 C 160.574 148.758, 158.681 144.986, 159.494 144.173 C 159.855 143.812, 160.604 144.327, 161.158 145.318 C 163.093 148.775, 168.320 154.115, 171.398 155.779 C 175.016 157.735, 187.246 162.087, 187.740 161.594 C 188.721 160.612, 169.415 142.633, 162.851 138.415 C 134.733 120.347, 132.998 119.387, 125.292 117.635 C 116.988 115.746, 115.118 115.738, 105.175 117.554 M 636.846 122.314 C 631.312 125.433, 626 129.323, 626 130.258 C 626 130.517, 627.968 130.998, 630.373 131.327 C 641.366 132.834, 643.259 136.476, 632.526 135.470 C 623.889 134.661, 620.332 135.291, 619.646 137.752 C 619.378 138.714, 618.891 140.439, 618.564 141.587 C 617.922 143.840, 616.928 143.488, 635.312 147.510 C 648.423 150.378, 666.783 149.163, 679.814 144.566 C 684.497 142.913, 685.994 144.647, 681.750 146.808 C 670.890 152.338, 646.342 153.939, 630.863 150.127 C 618.359 147.048, 617.642 147.141, 618.391 151.750 C 620.292 163.451, 620.277 164.704, 618.200 167.634 C 614.473 172.892, 614.565 174.426, 618.780 177.348 C 626.842 182.935, 651.818 183.245, 666.896 177.945 C 673.700 175.554, 677.503 175.303, 674.696 177.431 C 668.903 181.825, 655.873 184.502, 640.715 184.415 C 632.583 184.368, 626.283 184.649, 626.715 185.041 C 627.147 185.432, 632.145 189.183, 637.821 193.376 C 647.921 200.836, 648.269 201, 654.012 201 C 660.899 201, 662.883 202.675, 657.093 203.601 L 653.092 204.241 656.546 208.764 C 658.446 211.252, 660 213.764, 660 214.347 C 660 215.184, 653.487 209.770, 651.024 206.886 C 650.736 206.548, 645.095 202.653, 638.489 198.231 C 631.884 193.808, 623.571 187.515, 620.017 184.246 L 613.555 178.302 609.735 189.401 C 607.635 195.506, 605.822 200.761, 605.708 201.080 C 605.594 201.399, 607.075 204.471, 609 207.906 C 621.571 230.342, 631.247 239.380, 647.243 243.625 C 656.673 246.128, 657.160 245.262, 652.042 235.083 C 648.084 227.211, 647.498 223.508, 650.621 226.100 C 651.725 227.016, 652.964 227.028, 655.898 226.149 C 658.007 225.517, 661.170 225, 662.928 225 L 666.124 225 665.812 218.250 L 665.500 211.500 671 208.762 C 674.025 207.256, 676.844 205.904, 677.265 205.757 C 677.686 205.610, 679.176 202.195, 680.577 198.168 C 681.977 194.140, 684.633 188.067, 686.479 184.673 C 695.300 168.447, 698.295 148.455, 693.052 140.789 C 688.714 134.444, 676.829 127.738, 661.500 122.986 C 657.650 121.793, 653.466 120.408, 652.203 119.908 C 647.926 118.217, 642.652 119.043, 636.846 122.314 M 221.973 132.228 C 214.568 140.065, 210.318 160.745, 213.780 172.092 C 214.352 173.966, 215.094 176.738, 215.429 178.250 C 216.870 184.757, 217.650 179.901, 217.598 164.750 C 217.539 147.409, 218.810 141.289, 223.978 134.032 C 226.512 130.472, 224.955 129.071, 221.973 132.228 M 319 133.212 C 319 134.047, 319.816 135.803, 320.813 137.115 C 325.993 143.929, 328.739 165.309, 325.244 171.619 C 323.686 174.432, 324.930 175.546, 326.741 172.959 C 330.633 167.402, 330.002 149.867, 325.598 141.215 C 322.660 135.442, 319 131.003, 319 133.212 M 354.693 145.689 C 353.573 147.499, 353.714 171.405, 354.846 171.782 C 356.558 172.353, 357.502 167.233, 357.479 157.500 C 357.460 149.205, 356.095 143.420, 354.693 145.689 M 225.997 160.013 C 223.710 169.544, 227.490 185.677, 234.568 196.594 C 238.733 203.017, 241.025 202.012, 237.014 195.522 C 231.788 187.067, 229.788 179.952, 229.278 168 C 228.716 154.869, 227.779 152.586, 225.997 160.013 M 496.944 164.886 C 490.234 170.401, 481.425 173.287, 462 176.335 C 460.625 176.551, 462.875 176.812, 467 176.914 C 473.700 177.081, 487.984 179.630, 492.025 181.381 C 493.215 181.896, 494.377 179.919, 497.311 172.390 C 499.380 167.082, 500.919 162.585, 500.730 162.397 C 500.542 162.209, 498.839 163.329, 496.944 164.886 M 178.221 181.095 C 161.817 183.365, 159.322 184.466, 168.649 185.320 C 172.417 185.665, 177.300 186.614, 179.500 187.430 C 185.595 189.689, 187.053 189.315, 193 183.968 L 198.500 179.022 195 179.140 C 193.075 179.205, 185.525 180.085, 178.221 181.095 M 521 180.600 C 520.175 180.884, 516.575 182.050, 513 183.191 C 500.762 187.096, 501.354 186.363, 506.565 191.167 C 509.080 193.485, 512.966 198.460, 515.202 202.223 C 520.035 210.358, 526.464 216.326, 534 219.672 C 543.377 223.835, 544.317 224.304, 551 228.143 C 554.575 230.196, 559.300 233.495, 561.500 235.473 C 566.930 240.354, 569 241.492, 569 239.594 C 569 238.782, 568.600 237.871, 568.111 237.568 C 567.622 237.266, 566.929 235.851, 566.570 234.424 C 566.212 232.997, 564.997 230.855, 563.869 229.665 C 561.652 227.324, 559.880 223.753, 554.991 211.780 C 546.907 191.983, 530.815 177.221, 521 180.600 M 612.492 186.500 C 610.165 194.751, 617.466 217.935, 624.895 225.888 C 629.714 231.046, 629.666 228.967, 624.780 220.827 C 619.549 212.115, 617.473 206.755, 615.938 198 C 615.311 194.425, 614.470 189.700, 614.068 187.500 L 613.338 183.500 612.492 186.500 M 128 186.923 C 118.040 190.758, 112.443 195.250, 108.850 202.294 C 106.198 207.492, 106.526 207.527, 113.510 202.791 C 125.654 194.555, 138.950 189.315, 152.269 187.516 C 160.765 186.368, 156.191 184.997, 144.191 185.095 C 135.686 185.164, 131.274 185.663, 128 186.923 M 406.500 185.634 C 401 185.836, 385.700 186.691, 372.500 187.534 C 359.300 188.377, 341.300 189.507, 332.500 190.043 C 312.447 191.267, 293.437 193.723, 289.912 195.545 C 286.535 197.292, 275 212.670, 275 215.426 C 275 215.644, 273.393 219.349, 271.429 223.661 C 266.522 234.433, 266.547 234.375, 262.515 244.500 C 260.543 249.450, 258.542 254.400, 258.068 255.500 C 257.594 256.600, 256.236 259.975, 255.050 263 C 253.863 266.025, 252.474 269.400, 251.963 270.500 C 251.452 271.600, 249.443 276.775, 247.500 282 C 245.557 287.225, 243.578 292.400, 243.103 293.500 C 242.628 294.600, 241.431 297.525, 240.443 300 C 239.455 302.475, 237.876 306.300, 236.935 308.500 C 235.994 310.700, 233.129 317.900, 230.569 324.500 C 228.009 331.100, 225.496 337.400, 224.985 338.500 C 224.474 339.600, 223.130 342.975, 222 346 C 220.870 349.025, 219.513 352.400, 218.984 353.500 C 218.456 354.600, 215.755 361.575, 212.982 369 C 210.209 376.425, 207.278 383.918, 206.470 385.651 C 205.661 387.384, 205 389.303, 205 389.915 C 205 390.527, 204.588 391.809, 204.085 392.764 C 203.279 394.292, 196.809 411.901, 188.014 436.500 C 184.442 446.492, 179.031 463.277, 174.958 477 C 173.244 482.775, 171.461 488.400, 170.996 489.500 C 169.672 492.631, 164.441 508.724, 162.056 517 C 160.867 521.125, 159.526 525.190, 159.075 526.033 C 158.623 526.876, 157.915 529.111, 157.500 531 C 157.085 532.889, 156.394 535.124, 155.965 535.967 C 153.694 540.424, 149.661 553.961, 149.698 557 C 149.792 564.619, 151.918 570.001, 154.831 569.992 C 163.621 569.965, 175.578 567.806, 177.633 565.875 C 180.206 563.458, 188.007 562.931, 190.506 565.005 C 192.676 566.806, 191.996 570.203, 189.186 571.599 C 187.914 572.231, 185.564 574.001, 183.966 575.533 C 181.411 577.980, 180.980 578.110, 180.403 576.607 C 179.800 575.035, 179.595 575.058, 177.895 576.882 C 174.490 580.537, 167.131 592.625, 166.512 595.580 L 165.901 598.500 167.358 595.355 C 169.445 590.852, 175.482 584.474, 179.434 582.598 C 187.312 578.860, 211.379 579.676, 222.954 584.075 C 232.100 587.550, 236.253 591.044, 242.139 600.216 L 245.312 605.162 246.613 602.068 C 247.329 600.367, 248.209 597.405, 248.568 595.487 C 249.551 590.248, 251.392 591.121, 250.658 596.478 C 250.046 600.944, 248.375 604.874, 246.524 606.199 C 245.910 606.638, 246.222 609.236, 247.363 613.199 C 248.361 616.664, 249.414 620.737, 249.703 622.250 C 250.761 627.798, 252.302 624.780, 255.448 611 C 256.265 607.425, 257.851 600.450, 258.973 595.500 C 260.096 590.550, 261.450 584.925, 261.983 583 C 262.516 581.075, 263.906 575.900, 265.071 571.500 C 266.236 567.100, 270.548 553.420, 274.651 541.099 C 286.720 504.867, 284.777 506.852, 309.299 505.715 C 319.310 505.252, 366.244 505.030, 413.599 505.222 C 510.594 505.616, 503.880 505.035, 505.860 513.215 C 507.321 519.251, 509.591 527.560, 511.537 534 C 512.452 537.025, 513.788 541.975, 514.508 545 C 515.228 548.025, 516.911 554.775, 518.248 560 C 519.585 565.225, 521.187 571.750, 521.809 574.500 C 522.431 577.250, 523.926 583.550, 525.130 588.500 C 527.427 597.938, 527.537 600.761, 526.891 633.500 C 526.525 652.028, 527.139 655.241, 533.541 668.316 C 541.471 684.510, 558.599 695.491, 574.961 694.871 C 579.330 694.706, 583.225 694.892, 583.619 695.285 C 584.689 696.356, 596 696.147, 596 695.057 C 596 694.539, 595.129 692.626, 594.065 690.807 C 588.507 681.305, 585.839 667.009, 587.157 653.793 C 587.667 648.683, 590.726 640.236, 591.056 643.027 C 591.086 643.287, 591.245 649.800, 591.407 657.500 C 591.820 677.045, 596.743 689.918, 606.837 697.848 C 610.243 700.523, 625.923 707.595, 637.500 711.676 C 643.136 713.663, 656.036 713.987, 660.647 712.258 C 662.216 711.669, 664.400 710.849, 665.500 710.435 C 666.600 710.021, 667.935 709.786, 668.466 709.913 C 670.570 710.416, 682.436 703.279, 686.873 698.841 C 699.890 685.824, 707.081 658.567, 702.170 640.856 C 697.711 624.777, 688.757 616.417, 671.736 612.441 C 662.970 610.394, 662.321 610.645, 660.978 616.600 C 659.927 621.258, 659.764 621.075, 664.303 620.338 C 668.739 619.618, 669.222 618, 665 618 C 661.794 618, 660.970 616.609, 663.582 615.607 C 665.965 614.692, 673.305 614.907, 674.936 615.939 C 676.680 617.043, 674.733 620, 672.262 620 C 669.541 620, 661 623.450, 661 624.550 C 661 626.719, 668.423 629.127, 676.910 629.711 C 681.634 630.036, 685.814 630.784, 686.197 631.374 C 689.361 636.242, 658.575 631.600, 650.500 625.992 C 649.950 625.610, 645.450 623.146, 640.500 620.516 C 630.635 615.276, 629 614.190, 629 612.878 C 629 611.109, 633.783 612.076, 639.500 615 C 645.998 618.323, 649 618.786, 649 616.464 C 649 613.702, 640.275 610.698, 632 610.612 C 622.732 610.515, 618.217 612.635, 611.780 620.107 C 607.318 625.286, 605 625.905, 605 621.919 C 605 619.053, 612.109 611.807, 618.212 608.452 C 626.361 603.972, 637.053 604.347, 650.392 609.580 C 652.115 610.257, 652.220 609.975, 651.577 606.411 C 650.669 601.376, 644.024 580.271, 642.319 577.004 C 641.601 575.627, 641.010 573.931, 641.006 573.236 C 641.003 572.541, 640.587 571.191, 640.083 570.236 C 639.578 569.281, 636.826 561.975, 633.967 554 C 631.107 546.025, 628.145 538.082, 627.384 536.349 C 626.623 534.616, 626 532.568, 626 531.799 C 626 531.029, 625.621 529.973, 625.159 529.450 C 624.696 528.928, 623.311 525.350, 622.081 521.500 C 620.850 517.650, 619.204 513.082, 618.422 511.349 C 617.640 509.616, 617 507.697, 617 507.085 C 617 506.473, 616.587 505.191, 616.082 504.236 C 615.578 503.281, 613.501 497.775, 611.467 492 C 609.433 486.225, 607.199 480.150, 606.503 478.500 C 604.923 474.755, 591.269 437.739, 585.292 421 C 582.838 414.125, 580.418 407.719, 579.915 406.764 C 579.412 405.809, 579 404.527, 579 403.915 C 579 403.303, 578.346 401.384, 577.546 399.651 C 576.042 396.389, 568.620 375.160, 566.831 369 C 566.272 367.075, 565.406 365.073, 564.907 364.550 C 564.408 364.028, 564 362.971, 564 362.201 C 564 361.432, 563.348 359.384, 562.551 357.651 C 561.083 354.459, 559.510 350.103, 552.022 328.500 C 549.734 321.900, 547.488 315.600, 547.031 314.500 C 546.574 313.400, 543.863 305.975, 541.006 298 C 538.150 290.025, 535.211 281.925, 534.476 280 C 533.741 278.075, 531.362 271.550, 529.190 265.500 C 507.325 204.595, 502.718 196.792, 484.344 189.542 C 476.164 186.314, 438.946 184.446, 406.500 185.634 M 197.914 188.812 C 194.533 191.346, 193.732 194, 196.348 194 C 196.997 194, 200.335 196.270, 203.764 199.045 C 209.010 203.290, 212.243 204.749, 209.093 201.450 C 208.594 200.928, 206.977 197.575, 205.500 194 C 202.031 185.603, 202.117 185.661, 197.914 188.812 M 150.324 193.045 C 128.616 197.337, 98.098 219.925, 104.480 226.978 C 105.867 228.511, 105.838 228.836, 104.179 230.338 C 103.169 231.252, 102.008 232, 101.600 232 C 98.735 232, 95.417 239.683, 94.058 249.462 C 92.912 257.709, 92.756 257.418, 97.314 255.513 C 104.526 252.500, 104.660 253.611, 97.967 260.908 C 92.034 267.377, 91.013 270.585, 91.006 282.776 L 91 292.051 93.950 290.526 C 100.172 287.308, 102.485 288.996, 100.946 295.629 C 99.636 301.276, 99.805 309.091, 101.415 317.292 C 102.193 321.256, 103.139 326.300, 103.516 328.500 L 104.202 332.500 105.490 329 C 114.874 303.502, 115.176 301.119, 108.224 307.411 C 105.872 309.539, 103.671 311.005, 103.334 310.667 C 102.253 309.587, 107.831 303.259, 110.442 302.604 C 112.223 302.157, 113.577 300.582, 115.054 297.236 C 116.204 294.631, 117.787 291.082, 118.572 289.349 C 120.792 284.449, 120.328 283.984, 115.683 286.454 C 113.309 287.716, 110.275 289.095, 108.941 289.519 C 104.379 290.967, 108.705 287.310, 115.430 284.034 C 121.678 280.990, 122.667 279.777, 127.789 268.877 C 128.849 266.621, 112.946 272.438, 107.798 276.189 C 105.735 277.693, 104.272 276.583, 105.835 274.699 C 107.798 272.334, 118.211 267.596, 123.951 266.456 C 129.097 265.435, 129.772 264.961, 133.246 259.928 C 135.307 256.942, 138.986 251.769, 141.423 248.431 C 148.689 238.479, 150.527 235, 148.522 235 C 147.600 235, 145.471 236.375, 143.790 238.056 C 140.262 241.584, 136.321 241.513, 139.519 237.979 C 140.504 236.891, 140.903 236.008, 140.405 236.017 C 138.227 236.058, 124.803 240.027, 117.182 242.883 C 112.607 244.597, 108.444 246, 107.932 246 C 106.301 246, 106.931 243.961, 108.750 243.350 C 109.713 243.027, 113.875 241.500, 118 239.956 C 129.206 235.763, 135.672 234.158, 144.118 233.473 C 151.243 232.894, 151.964 232.616, 155.252 229.177 C 159.560 224.670, 164.676 216.606, 162.833 217.227 C 162.100 217.474, 161.050 217.067, 160.500 216.322 C 159.142 214.485, 147.741 213.558, 141.250 214.757 C 135.932 215.739, 134.390 214.932, 137.947 213.029 C 141.704 211.017, 151.269 210.354, 158.002 211.638 C 166.876 213.330, 167.333 213.297, 168.847 210.873 C 171.105 207.258, 164.517 204.019, 151.750 202.468 C 143.016 201.407, 144.582 199.661, 153.788 200.194 C 159.833 200.544, 162.714 201.264, 166.657 203.410 L 171.736 206.174 177.452 200.504 C 180.596 197.386, 182.941 194.607, 182.663 194.330 C 180.492 192.158, 159.105 191.309, 150.324 193.045 M 186.072 197.413 C 185.126 198.553, 185.903 199.759, 190.102 203.663 C 196.325 209.449, 201.061 216.617, 203.333 223.688 C 205.154 229.355, 205.615 242, 204 242 C 203.450 242, 203 239.707, 203 236.904 C 203 226.050, 197.091 213.311, 188.028 204.625 L 183.059 199.863 179.902 203.459 C 174.945 209.105, 173 211.736, 173 212.796 C 173 213.336, 175.018 218.440, 177.484 224.139 C 182.259 235.174, 183.018 238.089, 180.590 236.074 C 179.814 235.430, 177.289 230.425, 174.980 224.952 C 170.387 214.069, 169.728 213.491, 167.203 218.129 C 164.922 222.320, 160.439 228.636, 155.156 235.102 C 151.184 239.962, 150.866 240.760, 151.448 244.401 C 152.824 253.004, 157.662 266.459, 163.867 278.942 C 171.155 293.601, 174.012 304.639, 171 306.500 C 170.435 306.849, 170 306.028, 170 304.611 C 170 301.800, 164.382 285.521, 162.412 282.626 C 161.254 280.923, 161.079 281.107, 160.499 284.626 C 158.452 297.047, 154.831 308, 152.773 308 C 151.645 308, 151.822 306.361, 153.343 302.718 C 154.082 300.948, 155.013 297.700, 155.413 295.500 C 155.814 293.300, 157.049 288.338, 158.159 284.474 L 160.178 277.448 157.551 271.474 C 156.107 268.188, 154.564 264.825, 154.124 264 C 153.235 262.337, 150.494 253.421, 149.207 248.007 L 148.376 244.513 142.938 251.933 C 132.408 266.300, 124.058 281.201, 125.647 282.790 C 129.312 286.454, 132.422 301.309, 131.818 312.262 C 131.286 321.897, 129.550 319.368, 128.892 308 C 128.268 297.216, 125.439 285.687, 123.570 286.310 C 121.970 286.843, 116.414 301.872, 115.731 307.514 C 115.201 311.894, 113.907 315.640, 111.063 321.033 C 110.618 321.876, 109.937 324.008, 109.550 325.771 C 109.163 327.534, 108.431 329.234, 107.923 329.548 C 107.415 329.861, 107 330.744, 107 331.508 C 107 332.520, 108.617 332.096, 112.944 329.949 C 116.213 328.327, 119.304 327, 119.814 327 C 121.321 327, 133.231 323.081, 136.772 321.420 C 138.572 320.576, 142.622 319.419, 145.772 318.849 C 181.538 312.380, 197.960 302.955, 200.474 287.453 C 201.686 279.980, 202.042 279, 203.544 279 C 204.372 279, 205.522 280.238, 206.099 281.750 C 207.130 284.450, 207.178 284.463, 208.687 282.500 C 213.384 276.389, 218 260.485, 218 250.412 C 218 247.985, 218.434 246, 218.965 246 C 220.471 246, 222.173 249.879, 221.541 251.870 C 221.195 252.961, 221.761 254.379, 222.986 255.487 C 224.974 257.287, 225.002 257.254, 225.175 252.905 C 225.827 236.500, 218.755 219.877, 205.641 206.986 C 196.251 197.756, 188.809 194.115, 186.072 197.413 M 159.844 220.489 C 159.575 220.758, 154.888 221.432, 149.428 221.986 C 136.349 223.315, 133.537 223.937, 134.821 225.221 C 135.434 225.834, 139.854 226.078, 145.933 225.834 C 155.315 225.457, 156.218 225.237, 158.740 222.714 C 160.233 221.221, 161.202 220, 160.894 220 C 160.586 220, 160.113 220.220, 159.844 220.489 M 164 235.127 C 164 235.747, 165.338 239.010, 166.974 242.377 C 170.889 250.436, 177 266.680, 177 269.027 C 177 271.066, 178.566 272.511, 179.369 271.212 C 179.938 270.291, 178.432 262.564, 177.085 259.500 C 176.602 258.400, 175.216 255.025, 174.007 252 C 171.679 246.180, 165.213 234, 164.451 234 C 164.203 234, 164 234.507, 164 235.127 M 378.881 257.794 C 372.553 261.099, 367.067 267.838, 361.190 279.525 C 356.015 289.817, 340.271 322.799, 333.755 337 C 327.435 350.772, 324.931 356.170, 320.534 365.500 C 312.934 381.626, 310.155 387.805, 301.904 406.919 C 297.236 417.732, 296.314 420.719, 297.160 422.298 C 298.191 424.226, 299.555 424.251, 379.854 423.814 C 469.151 423.327, 467.157 423.466, 467.820 417.710 C 468.016 416.003, 466.622 411.767, 464.203 406.717 C 462.038 402.198, 459.686 396.925, 458.976 395 C 457.736 391.641, 454.877 384.708, 452.997 380.500 C 451.137 376.338, 436.249 340.347, 435.003 337 C 434.286 335.075, 433.118 332.150, 432.408 330.500 C 431.697 328.850, 428.812 321.875, 425.997 315 C 423.181 308.125, 420.480 301.600, 419.993 300.500 C 419.507 299.400, 418.160 296.250, 417 293.500 C 405.203 265.535, 401.181 259.272, 393.292 256.584 C 386.918 254.412, 385.054 254.569, 378.881 257.794 M 642.634 260.768 C 642.296 262.821, 641.435 265.625, 640.721 267 C 640.007 268.375, 638.633 271.590, 637.669 274.144 C 635.725 279.294, 634.469 279.953, 626.500 280.006 C 607.498 280.133, 595.142 285.963, 586.656 298.806 C 578.114 311.732, 574.759 322.315, 574.706 336.500 C 574.651 351.068, 575.854 352.418, 585.882 349.040 C 589.212 347.918, 594.424 347, 597.464 347 C 611.836 347, 627.248 337.221, 634.791 323.318 C 636.845 319.530, 637.956 318.229, 637.973 319.590 C 638.020 323.285, 643.847 333.518, 647.633 336.555 C 655.586 342.934, 669.976 345.582, 682.500 342.972 C 685.800 342.284, 690.413 341.514, 692.750 341.260 L 697 340.799 697 334.939 C 697 327.450, 694.312 309.696, 692.392 304.500 C 685.852 286.805, 684.928 285.836, 673.321 284.484 C 659.173 282.835, 651.247 277.952, 649.451 269.778 C 648.627 266.026, 645.222 258.255, 644.096 257.560 C 643.631 257.272, 642.973 258.716, 642.634 260.768 M 382.396 268.382 C 377.753 270.474, 375.517 274.072, 364.920 296.500 C 361.542 303.650, 356.803 313.680, 354.389 318.788 C 351.975 323.897, 350 328.243, 350 328.446 C 350 328.889, 342.520 345.007, 336.516 357.500 C 331.631 367.666, 326 379.969, 326 380.477 C 326 380.663, 323.975 385.149, 321.500 390.446 C 319.025 395.743, 317 400.277, 317 400.522 C 317 400.768, 315.690 403.673, 314.088 406.979 C 312.487 410.286, 311.474 413.109, 311.838 413.255 C 313.652 413.977, 455 412.737, 455 411.999 C 455 411.526, 453.650 408.223, 452 404.658 C 450.350 401.093, 449 397.924, 449 397.616 C 449 397.307, 447.901 394.680, 446.557 391.777 C 444.312 386.927, 433.834 361.922, 423.812 337.500 C 421.555 332, 419.134 326.150, 418.431 324.500 C 417.729 322.850, 414.836 315.875, 412.004 309 C 409.171 302.125, 404.749 291.424, 402.177 285.220 C 395.206 268.407, 390.752 264.616, 382.396 268.382 M 646.478 279 C 646.829 280.375, 647.706 283.075, 648.427 285 C 650.698 291.064, 652 295.581, 652 297.395 C 652 298.493, 653.491 299.775, 655.990 300.824 C 660.319 302.643, 660.985 303.644, 658.250 304.226 C 657.288 304.431, 658.525 304.635, 661 304.679 C 664.140 304.736, 667.615 305.874, 672.500 308.446 L 679.500 312.131 674.500 311.428 C 671.750 311.042, 669.350 310.338, 669.167 309.863 C 668.983 309.388, 667.971 309, 666.917 309 C 665.862 309, 665 308.550, 665 308 C 665 307.450, 663.641 307, 661.980 307 C 659.027 307, 659.110 307.136, 665.730 313.144 C 669.454 316.523, 674.188 320.408, 676.250 321.777 C 678.313 323.146, 680 324.656, 680 325.133 C 680 328.112, 671.974 323.104, 663.167 314.631 L 657.835 309.500 658.167 315.916 C 658.693 326.060, 656.516 324.698, 655.049 313.966 C 653.810 304.894, 652.012 301.792, 649.914 305.104 C 648.869 306.756, 648.871 306.762, 648.608 301 C 648.368 295.741, 645.007 284.537, 644.019 285.702 C 643.646 286.141, 642.757 289.578, 642.044 293.339 C 638.174 313.751, 643.729 329.614, 657.196 336.609 C 664.232 340.264, 686.117 338.178, 690.015 333.482 C 691.505 331.686, 689.682 312.826, 687.314 305.545 C 685.225 299.119, 681.127 292.380, 678.542 291.120 C 676.263 290.009, 661.440 287, 658.247 287 C 657.094 287, 653.924 284.698, 651.017 281.750 C 646.736 277.410, 645.950 276.933, 646.478 279 M 617.721 285.125 C 602.996 287.020, 594.022 293.923, 585.997 309.531 C 580.377 320.462, 576.816 342.225, 580.422 343.608 C 583.990 344.977, 603.979 330.646, 601.692 328.359 C 601.446 328.113, 597.824 329.746, 593.642 331.988 C 588.599 334.692, 586.241 335.537, 586.639 334.497 C 587.343 332.663, 593.608 328.220, 600 325.023 C 602.475 323.785, 606.075 321.585, 608 320.136 L 611.500 317.500 603.738 317 C 592.704 316.289, 593.482 314.562, 604.994 314.209 C 614.151 313.929, 614.607 313.804, 617.820 310.709 C 622.080 306.604, 635 287.286, 635 285.020 C 635 283.828, 627.448 283.874, 617.721 285.125 M 632.730 294.703 C 628.035 301.122, 623 309.773, 623 311.423 C 623 312.157, 621.633 313.324, 619.962 314.016 C 616.403 315.490, 615 317.712, 615 321.875 C 615 325.481, 613.091 327.064, 612.316 324.101 C 612.014 322.945, 611.387 322, 610.924 322 C 609.365 322, 605.076 327.379, 604.483 330.076 C 603.749 333.421, 600.906 336.098, 594.500 339.480 L 589.500 342.119 597 341.492 C 616.229 339.885, 627.588 330.902, 632.951 313.062 C 634.763 307.035, 637.300 290.967, 636.557 290.224 C 636.382 290.049, 634.660 292.065, 632.730 294.703 M 158 363.237 C 152.490 365.664, 149.255 367.004, 144 369.033 C 133.091 373.247, 126.488 381.144, 123.728 393.276 C 120.840 405.970, 124.492 415.967, 139.443 436.283 C 144.900 443.699, 145.511 444.083, 146.377 440.633 C 147.062 437.905, 152.748 432, 154.690 432 C 156.959 432, 156.121 430.502, 152.750 428.531 C 143.523 423.137, 134.585 412.412, 130.680 402.049 C 128.589 396.500, 130.085 394.465, 132.413 399.692 C 137.131 410.286, 143.041 418.246, 150.411 423.931 C 156.078 428.304, 158.705 429.165, 157.477 426.250 C 152.857 415.274, 149.071 389.399, 151.086 382.574 C 153.034 375.978, 153.972 376.947, 153.308 384.870 C 152.115 399.094, 158.403 427.041, 163.134 428.543 C 164.222 428.888, 166.784 428.160, 169.199 426.820 C 174.269 424.008, 175.951 418.981, 175.981 406.550 C 175.996 400.190, 176.250 398.850, 177.250 399.851 C 178.860 401.462, 178.769 417.694, 177.132 420.753 C 176.097 422.687, 176.170 422.873, 177.727 422.283 C 180.575 421.205, 181.827 419.522, 184.005 413.844 C 185.133 410.905, 186.449 407.600, 186.930 406.500 C 187.411 405.400, 188.822 401.575, 190.065 398 C 191.309 394.425, 192.624 391.050, 192.988 390.500 C 194.286 388.540, 196.082 380.942, 195.478 379.965 C 195.141 379.419, 193.095 378.069, 190.932 376.965 L 187 374.959 186.985 377.230 C 186.939 384.029, 184.455 383.211, 180.270 375.016 C 175.407 365.494, 165.169 360.078, 158 363.237 M 52 405.507 C 52 407.500, 52.453 409.978, 53.007 411.012 C 54.506 413.815, 64.846 421.460, 73.308 426.025 L 80.764 430.046 81.177 423.562 C 81.404 419.995, 81.877 416.789, 82.228 416.438 C 83.909 414.758, 85 417.749, 85 424.034 L 85 430.950 89.445 432.975 C 91.890 434.089, 94.371 435, 94.959 435 C 95.546 435, 96.809 435.450, 97.764 435.999 C 98.719 436.548, 102.875 438.294, 107 439.878 C 111.125 441.462, 117.088 443.932, 120.250 445.366 C 123.412 446.801, 126 447.804, 126 447.596 C 126 447.388, 123.963 443.094, 121.474 438.055 C 118.985 433.016, 117.212 428.466, 117.535 427.944 C 118.695 426.067, 121.652 428.919, 124.830 434.981 C 132.026 448.710, 135.708 452.511, 138.880 449.485 C 141.129 447.340, 139.540 444.042, 131.924 435.046 C 127.988 430.396, 123.743 424.996, 122.491 423.046 C 114.249 410.205, 97.371 403.752, 79 406.416 C 66.910 408.169, 61.188 407.277, 52.750 402.322 C 52.337 402.080, 52 403.513, 52 405.507 M 709.989 410.306 C 698.953 417.629, 689.368 419.755, 679.993 416.958 C 673.928 415.148, 658.100 415.481, 653 417.527 C 636.806 424.021, 625.615 436.874, 618.630 457 C 614.824 467.966, 614.940 472.658, 619.307 484.428 L 620.765 488.356 622.322 485.344 C 625.487 479.223, 640.179 466.788, 653.584 458.884 C 676.718 445.243, 680.431 442.946, 685.405 439.197 C 697.505 430.076, 702.801 424.980, 707.468 417.966 C 710.860 412.868, 712.549 411.054, 712.791 412.245 C 713.491 415.695, 708.505 423.299, 701.292 429.783 C 689.232 440.623, 683.384 444.709, 660.113 458.558 C 642.003 469.335, 630.344 478.495, 624.768 486.326 L 622.549 489.442 626.025 487.309 C 627.936 486.136, 637.600 482.464, 647.500 479.149 C 664.903 473.321, 675.027 468.767, 683.598 462.912 C 687.743 460.081, 698 449.500, 698 448.055 C 698 447.624, 699.341 445.748, 700.981 443.886 C 706.066 438.110, 714.975 418.581, 716.553 409.750 C 717.374 405.152, 717.812 405.115, 709.989 410.306 M 51.985 415.673 C 51.977 417.228, 51.284 420.473, 50.444 422.884 C 46.655 433.766, 53.097 444.810, 64.307 446.649 C 67.385 447.154, 68.437 447.941, 69.807 450.759 C 71.324 453.882, 72.580 454.649, 81.870 458.117 L 92.241 461.988 98.870 460.372 C 102.554 459.473, 111.850 458.531, 119.790 458.250 C 133.679 457.760, 134.032 457.693, 132.385 455.873 C 131.453 454.843, 129.830 454, 128.778 454 C 127.727 454, 125.434 452.919, 123.683 451.597 C 120.654 449.311, 112.828 445.482, 103 441.479 C 100.525 440.471, 96.700 438.881, 94.500 437.946 C 84.412 433.659, 83.975 433.620, 77.646 436.450 C 70.869 439.479, 63 440.906, 63 439.105 C 63 438.463, 63.563 437.774, 64.250 437.574 C 75.057 434.436, 78.439 433.182, 78.770 432.189 C 78.988 431.535, 78.329 431, 77.304 431 C 74.662 431, 58.037 420.031, 54.750 416.119 L 52 412.847 51.985 415.673 M 676 424.722 C 670.228 426.727, 665.566 429.966, 666.748 431.148 C 667.284 431.684, 669.877 431.030, 673.137 429.537 C 676.156 428.156, 680.126 426.725, 681.960 426.358 C 685.175 425.715, 685.270 425.786, 684.628 428.346 C 684.072 430.562, 684.295 431, 685.981 431 C 687.483 431, 688 430.341, 688 428.429 C 688 423.077, 684.154 421.888, 676 424.722 M 174.275 429.191 C 170.980 430.878, 170.291 431.646, 171.147 432.677 C 172.010 433.717, 171.684 434, 169.622 434 C 167.909 434, 167 434.543, 167 435.566 C 167 436.427, 163.988 439.999, 160.307 443.503 L 153.614 449.875 161.557 449.376 C 173.532 448.623, 173.372 448.696, 174.844 443.289 C 175.561 440.655, 177.014 436.097, 178.074 433.161 C 180.745 425.759, 180.822 425.839, 174.275 429.191 M 637.242 431.250 C 632.423 436.396, 628.122 456.722, 631.200 459.800 C 633.387 461.987, 633.751 461.075, 634.218 452.250 C 634.660 443.892, 638.195 433.233, 641.126 431.422 C 641.607 431.125, 642 430.459, 642 429.941 C 642 428.239, 639.388 428.958, 637.242 431.250 M 154.361 438.853 C 146.660 444.432, 142.976 452.261, 143.063 462.859 L 143.126 470.500 144.963 465 C 145.974 461.975, 147.763 457.284, 148.940 454.575 C 150.117 451.866, 150.855 449.065, 150.581 448.351 C 150.307 447.637, 150.627 446.703, 151.292 446.276 C 151.956 445.849, 152.500 444.831, 152.500 444.013 C 152.500 443.196, 153.734 441.936, 155.242 441.213 C 157.945 439.917, 160.908 436, 159.185 436 C 158.698 436, 156.528 437.284, 154.361 438.853 M 159.759 456.369 C 153.318 457.450, 152.929 457.676, 151.009 461.461 C 148.623 466.165, 148.472 468, 150.469 468 C 151.301 468, 151.710 467.407, 151.412 466.631 C 150.739 464.878, 153.871 464.031, 161.095 464.014 C 167.137 463.999, 168.975 462.825, 170.906 457.748 C 172.131 454.525, 171.331 454.426, 159.759 456.369 M 106.261 465.483 C 91.274 468.340, 79.943 477.457, 72.326 492.787 L 67.500 502.500 67.500 515 C 67.500 528.898, 68.589 533.079, 74.767 542.897 C 85.113 559.338, 102.557 569.827, 121 570.696 C 131.759 571.204, 133.067 570.462, 130.044 565.571 C 126.472 559.792, 130.169 552.809, 137.531 551.428 C 141.289 550.723, 141.062 551.177, 146.508 533.500 C 148.542 526.900, 151.365 518.125, 152.782 514 C 155.529 506.002, 156.222 495.822, 154.158 493.758 C 153.521 493.121, 152.985 491.902, 152.966 491.050 C 152.947 490.197, 152.063 487.700, 151 485.500 C 149.937 483.300, 149.043 481.050, 149.012 480.500 C 148.981 479.950, 148.178 478.506, 147.228 477.291 C 145.643 475.265, 144.546 475.065, 134 474.876 C 118.413 474.598, 112.952 477.224, 104.753 488.940 C 101.741 493.245, 101.452 490.065, 104.353 484.524 C 108.575 476.460, 113.559 473.206, 122 473.004 L 125.500 472.920 122.584 471.341 C 120.380 470.148, 117.749 469.873, 111.805 470.217 C 103.129 470.720, 101.807 469.469, 108.577 467.164 C 113.370 465.531, 120.251 466.132, 128.908 468.939 C 137.188 471.625, 137.660 471.018, 129.974 467.569 C 122.589 464.255, 115.823 463.659, 106.261 465.483 M 160 470.039 C 156.975 471.598, 153.600 472.909, 152.500 472.952 C 148.196 473.121, 147.702 474.472, 150.457 478.532 C 151.885 480.637, 154.030 485.718, 155.223 489.824 C 157.139 496.416, 157.500 497.009, 158.316 494.894 C 158.824 493.577, 159.589 491.600, 160.016 490.500 C 166.082 474.874, 168.225 466.833, 166.250 467.102 C 165.838 467.159, 163.025 468.480, 160 470.039 M 308.064 493.748 C 296.378 494.045, 292.264 495, 293.570 497.113 C 293.883 497.620, 339.985 498, 401.132 498 C 502.511 498, 508.129 497.908, 507.814 496.250 C 507.545 494.838, 506.033 494.380, 499.991 493.881 C 492.505 493.262, 331.575 493.151, 308.064 493.748 M 271.200 518.200 C 270.540 518.860, 270 520.110, 270 520.977 C 270 521.845, 269.388 523.443, 268.641 524.527 C 267.893 525.612, 265.627 531.450, 263.605 537.500 C 258.210 553.644, 258 554.388, 258 557.404 C 258 562.091, 260.377 559.788, 262.114 553.419 C 263.002 550.163, 265.178 543.450, 266.951 538.500 C 268.723 533.550, 270.759 527.475, 271.474 525 C 272.190 522.525, 273.099 519.712, 273.495 518.750 C 274.319 516.745, 272.977 516.423, 271.200 518.200 M 134.534 558.963 C 133.557 560.042, 133.028 561.630, 133.359 562.492 C 134.738 566.087, 140.571 574, 141.841 574 C 142.671 574, 142.978 574.614, 142.618 575.552 C 142.277 576.442, 142.445 576.843, 143.011 576.493 C 143.555 576.157, 144.004 576.471, 144.009 577.191 C 144.013 577.911, 145.813 582.232, 148.009 586.793 C 150.204 591.355, 152 595.752, 152 596.565 C 152 598.214, 156.622 600.711, 157.694 599.640 C 158.926 598.407, 153.009 583.559, 147.476 574 C 146.681 572.625, 146.023 569.614, 146.015 567.309 C 145.999 562.736, 144.912 561.390, 142.380 562.807 C 141.262 563.433, 141.101 563.944, 141.872 564.421 C 143.322 565.317, 143.346 569, 141.901 569 C 140.653 569, 135 563.227, 135 561.953 C 135 560.640, 136.770 559.873, 140.010 559.781 C 142.394 559.713, 142.768 559.425, 141.874 558.348 C 140.249 556.390, 136.584 556.697, 134.534 558.963 M 308.500 573.934 C 305.200 574.920, 301.427 576.157, 300.116 576.685 L 297.731 577.644 300.543 579.855 C 303.170 581.922, 304.017 582.024, 313.428 581.410 C 321.278 580.898, 323.250 581.020, 322.366 581.961 C 321.742 582.625, 318.466 583.419, 315.087 583.726 C 307.045 584.455, 306.899 585.091, 313.751 589.539 C 325.445 597.132, 330.513 600.514, 331 601.053 C 331.986 602.143, 339.112 606.221, 339.408 605.864 C 340.322 604.764, 337.804 588.812, 336.112 584.987 C 331.194 573.867, 321.593 570.024, 308.500 573.934 M 171.500 573.504 C 170.950 573.694, 167.561 574.134, 163.968 574.481 C 154.040 575.441, 153.882 575.691, 158 583.921 C 159.925 587.768, 161.770 590.934, 162.100 590.958 C 162.709 591.001, 174 574.446, 174 573.510 C 174 572.958, 173.084 572.956, 171.500 573.504 M 133 580.680 C 119.088 582.108, 110.628 586.402, 104.880 594.950 C 101.519 599.949, 100.348 603.102, 97.993 613.500 C 95.405 624.926, 97.600 650.907, 101.964 660.500 C 102.465 661.600, 103.188 663.607, 103.571 664.959 C 104.931 669.760, 114.540 684.496, 119.547 689.460 C 122.343 692.232, 127.526 696.074, 131.065 697.998 L 137.500 701.496 155 701.584 C 166.746 701.644, 173.815 702.113, 176.500 703.013 C 182.323 704.963, 198.365 704.763, 204.500 702.665 C 220.033 697.351, 226.355 691.273, 235.358 673 C 252.779 637.639, 245.222 598.684, 219.367 590.561 C 216.140 589.547, 212.215 588.257, 210.645 587.694 C 205.399 585.813, 185.106 586.527, 179.950 588.775 C 175.536 590.698, 167.218 597.552, 168.157 598.491 C 168.413 598.746, 173.320 597.119, 179.061 594.874 C 188.127 591.330, 190.622 590.774, 198.025 590.647 C 207.109 590.490, 215 592.844, 215 595.711 C 215 596.485, 214.600 596.871, 214.111 596.569 C 213.622 596.266, 210.135 595.371, 206.361 594.579 C 197.536 592.726, 190.974 594.004, 178.500 600.005 C 163.424 607.258, 153.908 606.622, 135.500 597.130 C 128.911 593.732, 128.681 593.502, 131.587 593.209 C 133.285 593.038, 136.660 593.625, 139.087 594.515 C 147.296 597.524, 147.696 597.585, 146.056 595.587 C 144.265 593.405, 138.297 590.661, 130.750 588.552 C 124.598 586.832, 123.537 585.584, 127.402 584.614 C 130.333 583.878, 135.519 584.792, 139.343 586.717 C 140.907 587.504, 142.388 587.945, 142.636 587.698 C 143.618 586.716, 139.550 580.008, 138.065 580.160 C 137.204 580.248, 134.925 580.482, 133 580.680 M 295.245 587.738 C 296.416 604.822, 307.387 612.702, 322.925 607.619 C 325.648 606.729, 328.729 606, 329.771 606 C 334.542 606, 332.170 603.070, 324.541 599.540 C 318.799 596.883, 310.874 591.622, 308.076 588.610 C 304.701 584.976, 304.181 585.304, 304.686 590.750 C 305.098 595.188, 305.024 595.373, 303.563 593.559 C 302.703 592.491, 302 590.066, 302 588.169 C 302 584.807, 300.944 583.380, 296.599 580.867 C 294.781 579.816, 294.722 580.115, 295.245 587.738 M 110.275 600.258 C 106.582 606.518, 105 613.073, 105 622.119 C 105 626.939, 105.450 631.160, 106 631.500 C 106.617 631.881, 107 630.163, 107 627.017 C 107 621.074, 109.593 607.708, 111.458 604.037 C 114.909 597.243, 113.920 594.081, 110.275 600.258 M 536.597 615.750 C 541.156 635.508, 549.005 656.377, 554.675 663.816 C 558.517 668.857, 558.472 667.052, 554.546 658.667 C 552.596 654.501, 551 650.802, 551 650.447 C 551 650.093, 550.379 648.384, 549.620 646.651 C 546.989 640.644, 542.041 626.483, 541.356 623 C 540.390 618.082, 538.159 613, 536.968 613 C 536.383 613, 536.228 614.152, 536.597 615.750 M 0.192 699.750 C 0.066 744.711, 0.341 768, 1 768 C 2.117 768, 2.137 729.892, 1.052 669 C 0.428 633.966, 0.372 635.988, 0.192 699.750 M 535.038 635 C 534.926 642.377, 538.566 655.620, 543.237 664.826 C 548.370 674.943, 562.438 689, 567.430 689 C 569.918 689, 569.254 687.281, 566.499 686.589 C 563.230 685.769, 552.900 675.455, 548.649 668.767 C 544.440 662.144, 540.242 651.658, 538.536 643.502 C 537.208 637.155, 535.084 631.992, 535.038 635 M 238.141 645.250 C 235.709 664.453, 235.701 664.553, 236.787 663.500 C 239.477 660.892, 242.871 642.607, 241.604 637.557 C 240.412 632.808, 239.445 634.956, 238.141 645.250 M 229.641 649.735 C 229.364 650.706, 228.625 654.089, 227.997 657.253 C 226.856 663.010, 219.202 679.949, 216.248 683.256 C 213.847 685.943, 215.684 686.646, 218.411 684.084 C 223.354 679.440, 232 659.344, 232 652.499 C 232 648.778, 230.436 646.946, 229.641 649.735 M 684.770 651.579 C 684.462 652.086, 683.896 657, 683.512 662.500 C 682.812 672.529, 681.075 680.769, 678.422 686.651 C 677.640 688.384, 677 690.065, 677 690.386 C 677 690.707, 675.700 693.114, 674.112 695.735 C 672.523 698.356, 670.928 701.625, 670.566 703 C 669.951 705.339, 670.095 705.288, 672.813 702.207 C 679.438 694.696, 684.576 680.565, 686.066 665.755 C 687.007 656.407, 686.331 649.010, 684.770 651.579 M 693.656 652 C 693.388 652.825, 692.920 656.875, 692.617 661 C 691.452 676.834, 686.378 690.672, 678.390 699.804 C 673.036 705.925, 672.814 707.006, 677.674 703.301 C 688.313 695.189, 696.999 674.802, 697 657.941 C 697 653.895, 694.489 649.434, 693.656 652 M 600 667.642 C 600 677.165, 606.853 693.245, 612.110 696.059 C 614.662 697.424, 614.513 696.861, 610.919 691.535 C 607.330 686.216, 604.765 679.219, 602.937 669.750 C 601.430 661.946, 600 660.920, 600 667.642" stroke="none" fill="#1b1f3a" fill-rule="evenodd"/>
</svg>