<svg xmlns="http://www.w3.org/2000/svg" viewBox="0 0 768 768" version="1.1" preserveAspectRatio="xMidYMid meet"><path d="M 476 102.7 C 474.6 103.6, 473.1 104.9, 472.7 105.4 C 471.4 107.2, 472.7 114.1, 474.9 116.4 C 476 117.6, 478.5 123.4, 480.5 129.4 C 483.6 138.8, 485.5 145.6, 491.6 169 C 492.4 172, 493.7 177, 494.5 180 C 495.3 183, 496.7 188.7, 497.5 192.5 C 498.3 196.4, 499.7 202.4, 500.5 206 C 505.3 226.1, 508.1 242.9, 507.8 249.8 C 507.7 251.7, 508.2 253.5, 508.8 253.9 C 511.2 255.4, 510.7 337.3, 508.1 364.5 C 507.5 370.6, 506.7 383.5, 506.4 393.3 C 506 403, 505.4 411, 505 411 C 504.7 411, 502.4 409.5, 500 407.8 C 497.6 406, 494.2 403.8, 492.6 402.9 C 490.9 402, 486.8 398, 483.6 394 C 477.4 386.5, 462.6 374, 450.7 366.2 C 444.4 362.2, 443.9 361.6, 444.5 359.1 C 444.9 357.7, 445.3 355.1, 445.4 353.4 C 445.5 351.7, 446.9 348.8, 448.8 346.4 C 453.4 340.9, 456.6 333.6, 459.1 323.3 C 462.3 309.6, 462.2 309.7, 465.4 308.9 C 481.2 304.6, 476.3 267, 458.5 256 C 455.3 254, 455 253.5, 455 248.9 C 455 236.4, 439.8 216.4, 424.8 209.2 C 409.1 201.5, 404.4 200.6, 383 200.6 C 362.8 200.5, 362.8 200.5, 347 205.6 C 322.3 213.7, 300.8 234, 292.7 257.1 C 292.1 258.8, 287.9 260, 282.6 260 C 277.9 260, 264.5 263.7, 259 266.5 C 249.4 271.4, 247.2 276.9, 248.5 293.1 L 249.2 302 246.1 302.6 C 242.1 303.4, 239.2 306.3, 238.5 310.4 C 237.7 314.5, 239.7 335.6, 241.1 338.3 C 241.7 339.4, 242.4 344.8, 242.7 350.4 C 242.9 355.9, 243.7 361.6, 244.3 362.9 C 245.3 364.8, 245.1 365.4, 243.5 366.6 C 241.7 367.9, 241.4 367.8, 240.5 365.2 C 240 363.6, 238.2 361, 236.7 359.4 C 233.7 356.4, 233.2 355.2, 225.5 330.5 C 222.9 322.3, 219.5 311.2, 217.8 306 C 214.8 296.2, 198.3 245.3, 192.5 227.5 C 190.6 222, 188 214.7, 186.6 211.2 C 184.5 206.3, 184.2 204.5, 185 202.9 C 187.6 198.2, 182.5 193.3, 176.3 194.5 C 170.3 195.6, 166.9 200, 169 203.9 C 171.2 208.2, 129.3 230.9, 101.6 240.5 C 93.4 243.3, 92.7 244.8, 97.2 249.8 C 99.3 252.2, 101.6 256.4, 103 260.4 C 104.2 264, 105.6 267.2, 106.1 267.5 C 106.6 267.9, 107 270.5, 107 273.4 C 107 281.2, 111.1 286.9, 121.3 293.2 C 127.2 296.9, 127.9 298.3, 128.7 306.8 C 129.1 312.5, 130 314.9, 134.8 323.3 C 137.8 328.8, 141 333.4, 141.8 333.8 C 142.8 334.1, 145.3 332, 149.1 327.8 C 155.3 320.9, 161.3 316.9, 178.7 308.1 C 191.4 301.7, 203.9 297.3, 204 299.3 C 204 299.4, 207.6 310.1, 212.1 323 C 216.5 335.9, 221 349.6, 222.1 353.4 L 224.1 360.2 221.5 362.6 L 218.9 365 221 368.9 C 222.1 371.1, 223.4 373.1, 224 373.5 C 224.5 373.8, 225 375.2, 225 376.6 C 225 377.9, 225.4 379.8, 226 380.8 C 226.5 381.7, 227.7 384.3, 228.6 386.5 C 229.6 388.7, 231.6 392.1, 233 394 C 234.5 395.9, 236 398.6, 236.4 400 C 236.8 401.4, 237.5 404.1, 238 406 C 238.6 407.9, 239.9 413.5, 241 418.3 C 243.7 429.8, 245.6 433.6, 249.6 435.5 C 252.1 436.7, 253.2 438, 253.9 440.8 C 258.3 458, 259.3 462.2, 260.5 467.4 C 262.3 476.1, 267.1 479.3, 278 478.9 C 279.9 478.8, 284.6 480.1, 288.4 481.6 C 294.7 484.2, 295.5 484.8, 296.2 488 C 298.6 497.8, 304.3 503.5, 316.3 507.8 L 321.1 509.5 320.8 519 L 320.5 528.5 308.5 529.7 C 301.8 530.3, 292.3 532, 287.3 533.4 C 280.7 535.3, 275.7 536, 269.6 536 L 261.2 536 262.3 532.5 C 262.9 530.6, 263.1 528.7, 262.7 528.4 C 261.8 527.4, 260 529, 260 530.8 C 260 532.9, 255.4 538.7, 254.5 537.8 C 253.7 537, 256.5 531.3, 259.2 528.4 C 260.3 527.1, 260.7 526, 260.2 525.6 C 258.9 524.8, 253.1 531.4, 251.3 535.7 C 250 538.9, 249.8 539, 247.7 537.5 C 243.8 534.8, 236.9 536.4, 231 541.4 C 229.1 542.9, 225.8 544.2, 221.3 545 C 215.5 546, 201.8 549.6, 181.5 555.6 C 171.6 558.5, 167.1 558.9, 160.7 557.3 C 157.3 556.5, 153 556.1, 151.3 556.4 C 147.2 557, 147.2 556.9, 151.6 552 C 153.6 549.8, 155 547.7, 154.7 547.3 C 153.7 546.3, 147.4 551.7, 145 555.5 C 142.3 559.8, 141.6 559.9, 142.5 555.8 C 143.3 552.5, 145.8 547.5, 149.1 542.8 C 150.2 541.4, 151 539.7, 151 539.1 C 151 534.5, 140.9 548.3, 139.5 554.8 C 138.6 559.2, 137.9 558.2, 135.8 550.2 C 134.9 546.5, 134.1 544.3, 134.1 545.4 C 134 546.9, 133.7 547, 132.5 546 C 129.9 543.9, 129.9 545.3, 132.5 553.5 C 133.9 557.8, 135 561.5, 135 561.7 C 135 562, 133.1 560.6, 130.8 558.6 C 119.9 549.2, 113.8 550.3, 101.3 563.8 C 96.9 568.6, 92.6 573.7, 91.6 575.2 C 89.7 578.1, 84.7 580.4, 78 581.4 C 73.5 582.1, 69.4 583.8, 40.5 596.4 C 32.3 600.1, 25 603, 24.4 603 C 23.8 603, 22.7 603.7, 22 604.5 C 21.3 605.3, 21.2 606, 21.7 606 C 24 606, 33.6 603.9, 35.5 603.1 C 40.2 600.9, 59.6 593, 60.4 593 C 60.8 593, 62.6 592.4, 64.3 591.6 C 66.1 590.8, 72.7 588.5, 79 586.4 C 85.3 584.4, 90.9 582.3, 91.5 581.8 C 92 581.4, 93.7 581, 95.2 581 C 97.7 581, 107.3 578.2, 112.5 576 C 113.6 575.5, 116.1 574.6, 118.1 574 C 122.2 572.8, 126.5 569, 123.8 569 C 123 569, 119.3 570.4, 115.7 572 C 112 573.7, 108 575, 106.6 575 C 105.3 575, 102.6 575.7, 100.6 576.5 C 95.6 578.6, 95.8 576.6, 101.1 571.5 C 103.3 569.3, 106.7 565.2, 108.5 562.4 C 110.4 559.5, 112.7 557, 113.6 556.6 C 116 555.7, 121.3 555.9, 123 557 C 124.1 557.7, 123.6 558, 120.9 558 C 115.9 558, 110.8 561.7, 109.9 565.8 C 109.1 569.7, 109.4 569.8, 113.6 566.1 C 119.5 560.9, 126.3 560.3, 132.2 564.4 C 135.6 566.8, 138.9 566.4, 145.6 562.8 C 151.5 559.7, 151.9 559.6, 156.1 561 L 160.5 562.3 156.5 563.2 C 151.9 564.1, 149.7 565.1, 141.5 569.9 C 134.3 574, 134.5 573.9, 135.2 574.6 C 135.6 574.9, 138.4 573.9, 141.7 572.5 C 148.4 569.4, 154.9 567.3, 163.5 565.4 C 172.2 563.6, 178.7 561.8, 201 555 C 215.2 550.7, 221.9 549.1, 232.5 547.6 C 237.5 546.9, 242.9 545.8, 244.5 545.1 C 250.5 542.6, 260.7 541, 272 541 C 278.3 541, 287.6 540.3, 292.5 539.5 C 301.3 538, 307.8 537.6, 306.9 538.4 C 306 539.4, 286.7 542, 281 542 C 277.2 542, 275.1 542.4, 275.5 543 C 275.8 543.6, 279.6 544, 283.9 544 C 288.2 544, 295.9 544.3, 301.1 544.7 C 311 545.4, 310.3 546.2, 298.3 547.7 C 295.9 548, 294 548.7, 294 549.2 C 294 550.3, 304 549.6, 311.5 548 C 317.9 546.6, 322 546.5, 321.9 547.5 C 321.8 548.1, 321.3 548.4, 320.7 548.2 C 320.1 548, 320.2 548.6, 321 549.4 C 322.1 550.8, 321.9 551, 319.9 551.1 L 317.5 551.1 319.8 552.2 C 322.7 553.6, 322.6 555, 319.6 555 C 318.3 555, 315.8 555.3, 313.9 555.7 C 309.9 556.5, 312.2 557.8, 317.8 557.9 C 319.8 558, 321 558.5, 321 559.3 C 321 561.5, 320.1 561.8, 316 560.8 C 311.7 559.7, 307 560.4, 307 562.1 C 307 562.9, 307.4 562.9, 308.4 562.1 C 309.4 561.3, 310 561.2, 310.5 562 C 310.8 562.5, 312.9 563, 315.1 563 C 319.5 563, 321.1 565, 319.2 568 C 318.4 569.3, 318.5 570.1, 319.3 570.9 C 320.1 571.7, 318.8 572, 314 572 C 306.4 572, 306.9 573.2, 314.8 574.1 L 320.5 574.7 314.7 574.9 C 308.9 575, 307.2 577, 312.8 577 C 319.3 577, 320.6 578.5, 314.6 579 C 309.3 579.4, 308.6 579.8, 308.5 581.8 C 308.3 583.8, 308.8 584, 313.2 584 C 316.4 584, 317.9 584.4, 317.5 585 C 317.1 585.6, 316 585.8, 314.9 585.5 C 313.8 585.1, 313 585.3, 313 585.9 C 313 586.5, 313.6 587, 314.4 587 C 317.3 587, 317.1 589, 314.2 589.6 C 311.4 590.2, 311.3 590.4, 312.3 593.1 C 313.6 596.3, 315.5 597.1, 314.5 594 C 313.9 592.2, 314.3 592, 317.7 592.1 C 320.6 592.1, 321.1 592.3, 319.5 592.9 C 317.6 593.7, 317.7 593.8, 320.2 595 C 322.4 596, 322.7 596.6, 321.9 597.7 C 321 598.7, 321.2 599, 322.5 599 C 323.9 599, 324 599.3, 323 600.5 C 322 601.7, 322 602, 323.4 602 C 324.3 602, 325 602.5, 325 603 C 325 603.6, 325.7 604, 326.6 604 C 327.4 604, 327.9 604.4, 327.5 604.9 C 327.2 605.5, 329 606.8, 331.6 607.9 C 335.6 609.7, 336.1 610.2, 335 611.5 C 334.1 612.6, 333.4 612.8, 332.6 612 C 332.1 611.5, 330.7 611, 329.6 611 C 327.8 611.1, 327.9 611.3, 330.3 612.6 C 332.8 613.9, 333.4 613.9, 336.1 612.6 C 338.6 611.4, 339.4 611.3, 341.6 612.5 C 344 613.7, 343.6 615.1, 340.8 615.6 C 340.3 615.7, 339.7 615.8, 339.3 615.9 C 338.8 616, 339.3 616.5, 340.2 617.1 C 342.1 618.2, 347 617.3, 347 615.9 C 347 615.4, 346.5 615, 345.8 615 C 345.2 615, 344.9 614.7, 345.2 614.4 C 345.6 614.1, 347.9 614.6, 350.4 615.4 C 359.9 618.6, 380.5 617, 387.4 612.5 C 390.3 610.6, 394 604.3, 394 601.2 C 394 599.7, 394.5 599.4, 396.5 599.8 C 397.8 600, 399.8 599.9, 400.7 599.5 C 403.1 598.6, 399.8 596, 396.1 595.9 C 394.6 595.9, 394.2 595.6, 395 595.3 C 399.3 593.9, 399.5 593.7, 397.1 593.1 C 395.7 592.7, 394.5 591.9, 394.2 591.2 C 393.9 590.3, 395.9 590.1, 402.7 590.4 C 409.9 590.8, 410.6 590.8, 406.5 590 C 400.4 588.9, 394.9 587.2, 397.2 587.1 C 398.1 587, 399 586.5, 399.2 585.9 C 399.4 585.2, 401.8 585.3, 407 586.3 C 411.1 587.2, 417.7 588.2, 421.5 588.6 L 428.5 589.3 424.5 590.6 C 417.8 592.8, 417 593.2, 417 594.1 C 417 595.3, 419.7 595.2, 420.5 594 C 420.8 593.5, 421.9 593, 422.8 593 C 423.8 593, 426.2 592.1, 428.3 591 C 430.3 589.9, 433.2 589, 434.7 589 C 437.2 589, 436.8 589.4, 431.7 592.5 C 428.5 594.4, 425.4 596, 424.9 596 C 424.3 596, 424.2 596.5, 424.5 597 C 424.8 597.6, 424.5 598, 423.8 598 C 421.6 598, 419.8 601.7, 421.6 602.4 C 424.1 603.4, 425.6 603.1, 424 601.9 C 422.8 601.1, 423.2 601, 425.5 601.3 C 427.2 601.5, 427.9 601.5, 427.3 601.3 C 425 600.5, 425.9 599.4, 430.8 597 C 433.4 595.7, 437.1 593.7, 439 592.5 C 440.9 591.3, 445.6 589.3, 449.5 588.1 C 460.4 584.4, 466.9 579.3, 463.8 577 C 462.4 575.9, 465.6 567.7, 467.8 566.9 C 470.7 565.8, 470.6 564.8, 467.6 565.6 C 465.5 566.1, 465.2 565.7, 464.1 561.5 C 462.7 555.9, 459.1 551.7, 453.3 548.9 C 449.2 546.9, 448.9 546.5, 449.7 544.1 C 450.1 542.7, 450.4 538.9, 450.3 535.8 L 450.1 530 460.3 530 C 467.2 530, 471.9 530.6, 475 531.7 C 478.4 532.9, 482.4 533.3, 491.8 533.1 C 503 532.9, 504 533, 504 534.7 C 504 536.3, 502.9 536.5, 491.3 536.4 C 484.2 536.4, 475.8 536, 472.5 535.6 L 466.5 534.9 470 536.6 C 472.7 537.9, 477.1 538.4, 488.8 538.8 L 504.2 539.2 503.8 570 C 503.6 587, 503.2 601.2, 502.8 601.6 C 502.4 602, 501.3 601.7, 500.4 600.9 C 499.6 600.2, 496.6 599.5, 493.9 599.3 C 491.1 599.2, 488.1 598.6, 487 598 C 484.1 596.4, 474 596.7, 474 598.3 C 474 599.3, 476.4 600, 481.8 600.6 L 489.5 601.6 480.8 602.4 C 468.9 603.5, 469 605.5, 481 607.6 L 487.5 608.8 477.4 608.9 C 467.6 609, 463.4 609.9, 455 613.6 C 441.4 619.7, 436.7 623.9, 431.3 635 C 418.2 662.1, 435.6 688.6, 468.7 692.1 C 473.6 692.6, 479.8 693.4, 482.5 693.9 C 489 695.2, 497 695.2, 495 694.1 C 494.2 693.6, 491.5 692.9, 489 692.5 C 486.5 692.1, 481.9 691.1, 478.7 690.3 C 475.6 689.5, 472.5 689.2, 472 689.5 C 469.3 691.2, 448.6 683.6, 449.5 681.2 C 449.8 680.3, 449.4 680, 448.1 680.5 C 445.9 681.2, 439.3 674.5, 435.8 667.8 C 433.8 664, 433.5 662.1, 433.5 652.5 C 433.6 639.7, 435.7 634.6, 445 624.8 C 450.4 619.1, 451.9 618.6, 447 624.1 C 440.9 631.1, 438 638.8, 438 648.3 C 438 653, 438.5 657.2, 439 657.5 C 439.6 657.9, 440 654.7, 440 648.5 L 440 638.9 445.3 633.8 C 448.1 630.9, 449.2 629.5, 447.7 630.5 C 446.2 631.5, 444.7 632, 444.3 631.7 C 443.7 631, 456 618, 457.3 618 C 457.8 618, 459.4 617.2, 460.8 616.1 C 466.6 612.1, 480.5 609.5, 480.5 612.5 C 480.5 613.1, 479 613.9, 477.3 614.5 C 472.8 615.8, 473.2 616.8, 478.3 617.2 L 482.5 617.6 479.1 619.1 C 477 620.1, 476.2 621, 476.9 621.4 C 477.6 621.8, 478.8 621.6, 479.6 620.9 C 480.7 620, 485.3 619.5, 493.9 619.3 L 506.5 619.1 499 620.4 C 492 621.6, 489.7 622.3, 482.8 625.3 C 479.8 626.6, 478.8 628.7, 481.8 627.5 C 503.2 618.9, 528.3 620.1, 538.2 630.3 C 541.3 633.6, 542 633.9, 542 632.3 C 542 627.2, 533.4 621.4, 522.3 618.9 C 519.4 618.2, 517 617.3, 517 616.9 C 517 615.9, 522.9 616.7, 529.4 618.6 C 532.1 619.4, 534.5 619.8, 534.8 619.6 C 535.9 618.5, 533.7 615.1, 531.5 614.6 C 528.4 613.8, 528.2 612, 531.3 611.9 C 540.2 611.6, 536.1 606, 524.8 603 C 520.8 602, 516.8 600.9, 516 600.7 C 509.8 598.6, 509.3 598.8, 508.6 603.5 C 508.2 605.9, 507.5 608.2, 506.9 608.5 C 505.4 609.5, 505.9 602.3, 508.2 590.5 C 509.7 582.5, 510.4 574, 510.7 559.3 C 511.1 542.9, 511.4 539, 512.5 539 C 513.3 539, 516.2 539.5, 519 540.1 C 526.3 541.7, 529.1 540.1, 522 538.4 C 519 537.7, 515.3 537.1, 513.8 537 C 511.6 537, 511 536.5, 511 534.9 C 511 533.2, 511.5 532.9, 513.3 533.3 C 519.5 534.9, 541.5 539, 543.5 539 C 544.8 539, 546.2 539.5, 546.5 540 C 546.9 540.6, 544.2 541, 539.2 541 C 532.8 541, 531 541.4, 529.7 542.8 C 527 545.8, 527.5 546, 538.8 546 C 555.1 546, 570.1 544.2, 585 540.3 C 599.3 536.6, 605.5 536.1, 623 537.2 C 634.5 538, 638.7 538.5, 642.3 539.9 C 643.9 540.5, 646.1 541, 647.3 541 C 648.5 541, 650.1 542, 650.8 543.1 C 651.9 544.8, 652.8 545.1, 655.6 544.7 C 659.1 544.1, 659.8 544.8, 657.8 546.8 C 656.9 547.7, 656.9 548.3, 657.8 549.2 C 658.6 550, 659 550, 659 549.3 C 659 548.7, 659.8 547.9, 660.8 547.5 C 662.2 547, 662.3 547.1, 661.3 548.1 C 659.1 550.3, 659.8 550.5, 671.5 550.5 C 679.7 550.5, 683.3 550.9, 684.2 551.8 C 685.3 553, 684.2 553.1, 677.8 552.5 C 673.3 552.1, 670 552.1, 670 552.7 C 670 553.7, 719.5 578, 721.6 578 C 723.1 578, 740.6 587.3, 749 592.6 C 761.2 600.2, 763.8 601.5, 764.7 600.6 C 766.9 598.4, 738.2 580.1, 720 572.1 C 696.7 561.8, 688.3 557, 693.8 557 C 695.9 557, 700 554.3, 700 552.9 C 700 552.3, 697.4 552, 693.8 552.2 C 687.8 552.5, 687.6 552.4, 687.5 550 C 687.5 547.7, 687.1 547.5, 681.1 546.8 C 670.4 545.6, 672.2 544.9, 686.4 544.6 C 688 544.5, 689.5 543.9, 689.7 543.3 C 690.2 541.8, 691 541.8, 674 541.9 L 660.5 542 665.8 537.2 C 668.6 534.5, 671 531.8, 671 531.1 C 671 529.7, 668.3 529.6, 667.5 531.1 C 666.4 532.7, 653 539, 653 537.8 C 653 537.2, 654.4 534.3, 656 531.3 C 661.5 521.6, 658.4 521, 650.9 530.5 C 646.1 536.6, 644 537.8, 644 534.4 C 644 532.6, 647.7 526.8, 652.4 521.2 C 654.4 518.8, 656 515.8, 656 514.7 C 655.9 511.7, 643.7 524.8, 640.9 530.8 C 638.2 536.5, 637.4 535.5, 638.8 528.3 C 640.4 520.3, 640.8 507, 639.5 507 C 636.9 507, 634.8 513.6, 634.6 522.2 C 634.6 527.4, 634 531.4, 633.3 532.1 C 631 534.4, 630.3 522.3, 632.4 516.5 C 632.9 515.2, 632 515.8, 630 518 C 627.1 521.2, 626.9 521.9, 627.3 526.8 C 627.7 530.8, 627.5 532, 626.5 532 C 624.4 532, 623 528.7, 623 524.1 C 623 520.3, 621.7 518, 620.6 519.8 C 620.3 520.3, 619.9 523.1, 619.7 526.1 C 619.2 532.3, 619.1 532.5, 612.8 531 C 609.1 530.1, 606.6 530.1, 600.8 531.4 C 586.6 534.3, 586.6 534.3, 582.9 531.1 C 579.3 527.9, 576.7 528, 579.6 531.1 C 581.2 532.9, 581.2 533, 579.7 532.4 C 578.8 532.1, 578 531.5, 578 531.1 C 578 530.7, 576.6 528.5, 574.9 526.1 C 569.9 519.4, 569.2 522.6, 573.9 530.3 C 576.1 534, 577.3 536.7, 576.5 536.3 C 575.7 536, 575 535.4, 575 535 C 575 534, 569.3 530.5, 566.1 529.5 L 563.7 528.8 565.9 531.1 C 567.2 532.4, 568.6 534.3, 569.2 535.3 C 570.1 537, 570 537, 567.8 535.6 C 566.5 534.8, 564.8 533.2, 564 532 C 561.8 528.9, 560.8 529.6, 562.5 533.1 C 564.3 536.5, 564 537.8, 561.9 535.8 C 557.4 531.6, 550.6 526, 549.9 526 C 547.7 526, 549.4 529.2, 553.3 532.5 L 557.5 536.2 554 535.5 C 550.2 534.8, 537.3 532.8, 524.5 531 C 520.1 530.4, 515.5 529.7, 514.3 529.4 L 512 529 512 495 L 512 461 515.4 459.6 C 521.5 457, 523.4 451.8, 523.8 436 C 524.3 420.8, 523.2 417.2, 517.8 414.9 C 514.8 413.7, 514.8 413.6, 515.4 407.9 C 515.8 404.7, 516.8 393.1, 517.6 382.3 C 518.4 371.4, 519.5 356.2, 520.1 348.5 C 520.7 340.8, 521.3 314.8, 521.4 290.7 L 521.5 246.9 526.5 245.5 C 537.2 242.5, 539.6 242, 543 242 C 549.2 242, 558.2 244.9, 564.9 249.2 C 572.7 254.1, 575.1 254.9, 585.9 255.9 L 594.2 256.7 599.4 262.2 C 610.9 274.3, 623 279.1, 644 279.9 C 652.4 280.3, 659.4 281.1, 660.7 281.8 C 664.3 283.8, 666.1 283.4, 665.5 280.7 C 665.1 279.2, 665.4 277.9, 666.4 277.1 C 669.2 274.8, 668.2 269.4, 663.4 259.8 C 659.5 252.1, 658.9 250, 659.4 246.9 C 659.7 244.8, 659.5 240.8, 658.9 238 C 658.1 234.1, 658.1 231.2, 659 226.4 C 660.2 220.2, 660.1 219.7, 657.6 214.8 C 654.9 209.6, 654.8 207, 657.2 199.3 C 657.8 197, 657.8 195, 657 192.8 C 655.6 189, 657.2 184.5, 661.5 179.6 C 664.7 175.9, 664.1 175.3, 655 173.9 C 650.9 173.3, 647.1 172.4, 646.5 172 C 646 171.6, 644.4 170.9, 643 170.5 C 641.6 170.1, 638 167.6, 635 164.9 C 630 160.6, 624.3 157.5, 615 154 C 613.1 153.3, 604.3 149.2, 595.5 145 C 586.7 140.7, 576.1 136, 572 134.5 C 567.9 133, 553.7 126.5, 540.5 120 C 512.1 106.1, 504.8 103.6, 494.5 104.2 C 488.6 104.6, 486.9 104.4, 485.1 102.8 C 482.2 100.5, 479.2 100.5, 476 102.7 M 492.5 109.1 L 488.5 109.7 492.8 109.9 C 497.9 110, 498.1 112, 493.1 113.2 C 491.4 113.7, 490.2 114.5, 490.5 115 C 490.9 115.6, 492.7 115.2, 495 114 C 497.2 112.9, 499.4 112, 500.1 112 C 501.9 112, 499.3 114.8, 496.7 115.6 C 494.5 116.3, 491.3 119, 492.7 119 C 493.1 119, 495.5 117.6, 498 116 C 500.5 114.4, 502.7 113.5, 502.8 114 C 503 114.6, 503.7 115, 504.4 115 C 505.1 115, 506.5 116, 507.6 117.3 C 509.5 119.5, 509.5 119.5, 507.4 117.8 C 504.7 115.4, 501.8 115.5, 497.8 118.1 C 494.6 120.1, 495.7 120.2, 500.9 118.2 C 501.8 117.9, 502.1 118.1, 501.6 118.8 C 501.2 119.5, 501.2 120, 501.7 120 C 502.1 120, 503.4 120.7, 504.5 121.6 C 506.2 122.9, 506.3 123.2, 505 124.1 C 503.7 125, 503.7 125.1, 505.2 124.7 C 507.6 123.9, 513.3 128.3, 511.8 129.8 C 511.1 130.5, 510.1 131, 509.6 131 C 509 131, 509.2 130.5, 510 130 C 511.9 128.7, 509.7 127, 506.5 127.1 C 504.8 127.2, 504.8 127.3, 506.3 127.7 C 507.2 127.9, 508 128.6, 508 129.1 C 508 130.5, 504.4 128.4, 503.6 126.5 C 503.3 125.7, 502.5 125, 501.8 125 C 501.1 125, 499.6 124.2, 498.5 123.4 C 496.6 121.9, 496.7 121.8, 500 122.5 C 501.9 122.9, 503.2 122.9, 502.8 122.5 C 502.4 122.1, 499.7 121.6, 496.8 121.5 L 491.6 121.2 494.5 122.8 C 497.3 124.2, 497.3 124.4, 495.5 125.2 C 494.1 125.7, 494.5 125.8, 496.8 125.4 C 498.5 125.1, 500 125.3, 500 125.8 C 500 126.3, 498.5 127.2, 496.8 127.8 C 495 128.3, 494.3 128.8, 495.3 128.9 C 496.2 129, 497 129.5, 497 130 C 497 130.6, 497.5 131, 498.1 131 C 499.8 131, 507.8 134.9, 508.5 136.1 C 508.9 136.7, 510.3 136.9, 511.7 136.5 C 513.5 136.1, 514 136.3, 513.4 137.1 C 512.9 138, 513.5 138.1, 515.6 137.6 C 518.3 136.9, 518.4 137, 516.9 138.5 C 515.3 140.1, 514.6 140, 506.4 136.5 C 501.5 134.4, 496.9 132.3, 496.2 131.7 C 495.5 131.2, 494.7 130.9, 494.5 131.2 C 493.7 131.9, 495.9 133.3, 501 135.5 C 505.6 137.5, 509 140, 507.1 140 C 506.5 140, 506 140.5, 506 141 C 506 142.4, 508.7 142.3, 509.2 140.9 C 509.5 140.1, 510 140.2, 511 141.1 C 512.4 142.4, 525.3 149, 526.5 149 C 527 149, 529 149.8, 538.5 154 C 545.2 156.9, 548.3 158.1, 555 160 C 559.1 161.2, 564.4 162.9, 566.7 163.7 C 569 164.5, 571.4 165, 572 164.8 C 573.6 164.3, 555.7 149.9, 550.5 147.5 C 548 146.4, 545.8 144.9, 545.5 144.2 C 544.8 142.3, 548.2 143.5, 554.4 147.3 C 559.2 150.2, 561.4 152, 571.4 161.1 C 575.5 164.9, 575.6 167, 571.6 167 C 569.2 167, 543.9 158.9, 538.5 156.5 C 536.9 155.7, 533 154.1, 530 153 C 527 151.8, 523.9 150.4, 523.3 149.8 C 522.6 149.2, 521.3 149, 520.5 149.4 C 519.4 149.8, 519.1 149.6, 519.6 148.8 C 520.1 148, 519.6 147.9, 518 148.3 C 516.7 148.6, 513.9 148.1, 511.6 147.1 C 509.3 146.1, 505.9 144.7, 504 144 C 502.1 143.3, 499.9 142.2, 499.3 141.7 C 498.4 141.1, 498 141.1, 498 141.8 C 498 142.3, 500.5 144, 503.6 145.6 C 506.7 147.2, 508.7 148.6, 508.1 148.8 C 507.5 149, 506 148.4, 504.8 147.6 C 501.6 145.3, 499.3 145.4, 501.1 147.7 C 502.3 149.2, 502.3 149.3, 500.8 148.7 C 497.2 147.4, 498.8 151.4, 503 154.4 C 505.4 156.1, 505.4 156.1, 503.3 155.5 C 499.4 154.4, 500.8 156.7, 506 160.1 C 508.8 161.9, 511 163.5, 511 163.7 C 511 164.5, 506.5 162.7, 505.8 161.6 C 505.4 161, 504.8 160.8, 504.5 161.1 C 503.5 162.1, 505 164.7, 507.3 165.8 C 508.5 166.4, 514 169, 519.5 171.7 C 525 174.3, 529.7 176.8, 529.8 177.3 C 530 177.7, 530.6 177.7, 531.2 177.4 C 532 176.9, 525.3 172.2, 516.7 167.3 C 514.8 166.2, 514.9 166.1, 518.2 166.3 C 520.2 166.4, 521.6 166.8, 521.4 167.1 C 521.2 167.4, 522.3 168.3, 523.8 169.1 C 525.3 169.8, 528.3 171.6, 530.5 173.1 C 534.9 176, 538.7 177.3, 547.1 179 C 550.8 179.7, 553.8 181.1, 556.1 183.1 C 559.2 185.8, 559.3 186, 557 185.4 C 555.6 185, 552.7 183.8, 550.5 182.7 C 548.3 181.6, 545.2 180.7, 543.6 180.9 C 542.1 181, 540.1 180.5, 539.3 179.9 C 538.5 179.2, 536 178.5, 533.7 178.4 C 528.7 178.1, 515.3 173.1, 509.9 169.6 C 505.1 166.4, 503.3 168.1, 507.6 171.8 C 510.3 174.2, 510.3 174.2, 508 173.5 C 505.8 172.8, 505.7 172.9, 506.9 174.4 C 507.6 175.3, 508.9 176, 509.6 176 C 510.4 176, 511 176.5, 511 177 C 511 177.6, 510.3 178, 509.5 178 C 507.8 178, 507.5 180.6, 509.1 181.6 C 509.7 181.9, 509.9 183.1, 509.6 184.2 C 509.3 185.6, 510.1 187.2, 512 189.2 C 514.4 191.5, 514.6 192, 513 191.5 C 511.6 191.1, 511 191.3, 511 192.4 C 511 193.3, 511.7 194, 512.6 194 C 513.9 194, 514 194.3, 513.1 195.4 C 511.8 196.9, 512.6 200, 514.4 200 C 515 200, 516.6 200.9, 518 202 L 520.5 204 517.7 203 C 513.3 201.5, 512.5 201.8, 515.3 204 C 516.7 205.1, 518.3 206, 518.9 206 C 519.5 206, 519.7 206.7, 519.4 207.5 C 519 208.5, 519.4 209, 520.9 209 C 522.1 209, 523 209.4, 523 209.9 C 523 211.5, 519.8 210.4, 517.3 208 C 514.1 204.9, 513.1 206.3, 515.8 210 C 517.6 212.4, 517.7 212.8, 516.3 212.3 C 513.9 211.3, 515.7 213.9, 518.4 215.1 C 520.1 215.9, 520 215.9, 517.5 215.5 L 514.5 214.9 517 217.3 C 518.4 218.6, 520.4 220.1, 521.5 220.8 C 523 221.6, 523.1 221.9, 522 222 C 521.1 222, 519.9 221.5, 519.3 220.9 C 518.7 220.3, 517.6 220, 516.9 220.2 C 516.3 220.4, 518 222.1, 520.9 223.9 C 523.7 225.7, 526 227.4, 526 227.6 C 526 228.2, 520.7 226, 519.3 224.8 C 518.5 224.2, 517.7 224, 517.4 224.3 C 516.4 225.2, 518 227, 519.8 227 C 521.3 227.1, 521.3 227.2, 519.6 228.5 C 518.5 229.3, 518.1 230, 518.6 230 C 519.2 230, 520.5 230.7, 521.6 231.6 C 523.4 233.1, 523.4 233.1, 520.7 232.5 C 515.8 231.5, 518.1 234.1, 524.4 236.8 C 529.8 239.2, 530.5 239.2, 536.8 238.1 C 545.2 236.5, 554.8 238.3, 563.6 243.1 C 575.9 249.7, 577.7 250.3, 585.3 251.1 C 594.1 252, 598 253.9, 602.8 259.9 C 609.3 268, 627.5 274.8, 642.6 274.9 C 647.7 275, 652.4 275.2, 653.1 275.4 C 657.2 276.7, 660 276.9, 660 276 C 660 274.6, 654.5 272, 651.3 271.9 C 648.5 271.9, 648.5 271.9, 650.8 270.8 C 652.6 269.9, 654.2 270, 658.1 271.4 C 663.7 273.5, 665.9 272.7, 664.1 269.4 C 663.6 268.3, 661.7 264.5, 659.9 260.8 C 657.7 256, 656.2 254, 654.9 254 C 653.9 254, 649.1 252.7, 644.3 251.1 C 639.4 249.5, 633.9 247.9, 632 247.5 C 630.1 247.1, 627.9 246.4, 627 245.9 C 626.2 245.5, 624.3 244.9, 622.9 244.6 C 621.4 244.3, 616.6 240.7, 612.1 236.7 C 607.7 232.7, 601.3 227.8, 598 225.9 C 594.7 224, 591.2 221.9, 590.2 221.2 C 586.5 218.4, 595.5 221.2, 601.1 224.6 C 604.2 226.5, 607.1 228, 607.5 228 C 607.9 228, 611.3 231.1, 614.9 234.8 C 621.9 242, 621.6 241.9, 640 247.1 C 645.8 248.8, 651.2 250.4, 652.1 250.7 C 653.9 251.2, 655 248.6, 655 243.4 C 655 240.7, 654.6 240.2, 651 239.1 C 648.8 238.5, 647 237.5, 647 237 C 647 236.4, 646.3 236, 645.5 236 C 644.7 236, 644 235.5, 644 234.9 C 644 234.4, 646.3 235.1, 649 236.6 C 654.5 239.6, 655.2 239.6, 653.9 236.3 C 653 233.9, 645.4 230, 637.9 228 C 635.8 227.4, 634 226.4, 634 225.7 C 634 225, 631.4 223.7, 628.2 222.7 C 619.7 220, 613.1 216.5, 607.1 211.6 C 604.1 209.1, 601.2 207.3, 600.8 207.6 C 600.3 207.9, 598.9 207.1, 597.7 205.8 C 595.1 203.1, 590 199.7, 589.4 200.3 C 589.1 200.5, 590.4 201.9, 592.2 203.3 C 598.2 207.9, 604.1 214.1, 603.4 215.1 C 603.1 215.7, 601.7 214.8, 600.2 213.1 C 597.7 210, 581 197, 579.6 197 C 578.2 197, 570.1 193, 569.5 192 C 568.7 190.7, 569.6 190.7, 573.7 192.2 C 578.7 194, 578.7 192.5, 573.7 187.1 C 571.1 184.3, 569 181.5, 569 180.8 C 569 180.1, 571.5 182.1, 574.6 185.2 C 578.8 189.6, 580 191.4, 579.5 193 C 579 194.6, 579.3 195, 581.4 195 C 582.8 195, 584 195.5, 584 196 C 584 196.6, 584.9 197, 586 197 C 587.1 197, 589.8 198, 592 199.1 C 594.3 200.3, 596.4 201, 596.7 200.6 C 597.1 200.3, 596.8 200, 596.2 200 C 595.6 200, 594.5 199.4, 593.8 198.7 C 593.1 198, 591.2 196.9, 589.5 196.1 C 587.8 195.3, 587 194.5, 587.8 194.3 C 589.5 193.7, 598.2 199.3, 601.7 203.4 C 608.5 211.3, 614.9 215, 635.5 222.5 C 642.7 225.1, 649.7 227.9, 651.1 228.6 C 653.7 229.9, 653.7 229.8, 654.9 224.8 C 656.2 218.8, 655.2 217.5, 645 212.4 C 642 210.9, 640.1 209.5, 640.8 209.2 C 641.5 209, 643.8 209.8, 646.1 210.9 C 651.3 213.6, 652 213.5, 651.1 210.3 C 650.5 208.2, 649 207.1, 643.4 204.8 C 639.6 203.2, 634.3 200.8, 631.5 199.6 C 628.8 198.3, 625.2 197, 623.6 196.6 C 618.5 195.3, 609.7 190.5, 601.7 184.6 C 590.4 176.2, 592.5 175.5, 604.9 183.5 C 615.6 190.4, 622.1 193.5, 637.1 199 C 653 204.8, 653.2 204.7, 652.8 196.7 L 652.5 191.9 646.5 189.2 C 640.8 186.6, 632.9 181.8, 630.3 179.3 C 627.7 176.9, 629.1 177, 633.1 179.5 C 635.3 181, 638.1 182, 639.3 181.8 C 640.9 181.6, 639.9 180.7, 635.1 178.4 C 630.9 176.3, 629.2 175, 630.1 174.4 C 630.8 174, 631.5 174.1, 631.8 174.8 C 632 175.5, 632.6 176, 633.1 176 C 634.1 176, 642.1 179.3, 645 180.9 C 648.2 182.6, 653.1 183.2, 654.5 182 C 656.9 180, 656.3 179.4, 649.3 177 C 641.6 174.4, 640.2 173.7, 630.5 166.5 C 626.7 163.6, 621.5 160.8, 619 160.1 C 616.5 159.4, 606.2 154.8, 596.1 149.8 C 586 144.9, 573.4 139.1, 568.1 137 C 562.8 134.9, 549.7 128.9, 539 123.6 C 513 110.8, 502.5 107.6, 492.5 109.1 M 479.5 115 C 479.2 115.5, 479.3 116.8, 479.8 117.7 C 482.4 122.7, 491 149.9, 497 172.5 C 498.7 179.1, 500.6 185.6, 501.1 187 C 501.6 188.4, 502.4 191.5, 502.9 194 C 503.5 196.5, 504.6 201.7, 505.5 205.5 C 508.2 217.9, 511.9 239.3, 512 243.8 C 512 244.4, 512.7 245, 513.6 245 C 515 245, 515.2 244.1, 514.7 239.3 C 513.5 227, 509.7 204.1, 507.9 198.5 C 507.4 196.9, 505.9 191, 504.5 185.5 C 503.2 180, 501.4 173.3, 500.6 170.5 C 499.8 167.8, 498 161.2, 496.5 156 C 493.4 145.3, 485.5 120.9, 483.7 116.8 C 482.5 114, 480.6 113.2, 479.5 115 M 570 153.1 C 570 153.6, 570.5 153.8, 571 153.5 C 571.6 153.2, 572 153.3, 572 153.7 C 572 154.2, 573.7 155.2, 575.8 155.9 C 579.3 157.2, 585.7 159.8, 591 162.3 C 594.7 163.9, 610 173, 613.5 175.6 C 617.6 178.6, 625.9 182.2, 627.3 181.6 C 628 181.4, 627.7 181.1, 626.8 181.1 C 625.8 181, 625 180.6, 625 180 C 625 179.5, 624.5 179, 623.9 179 C 623.3 179, 618.2 176, 612.6 172.3 C 603 165.9, 590.6 159, 586.4 157.7 C 585.4 157.4, 581.4 156, 577.5 154.6 C 569.3 151.6, 570 151.7, 570 153.1 M 371 205.6 C 362.8 207, 352.4 209.4, 351.6 210.2 C 351 210.6, 349.9 211, 349 211 C 348.2 211, 344.3 212.5, 340.4 214.4 C 310.1 228.9, 294 253.9, 294 286.8 C 294 291.8, 294.4 296, 294.9 296 C 295.7 296, 296.6 287.9, 297.3 274 C 297.7 266.5, 301.7 256.4, 303.6 258.3 C 304 258.7, 303.8 259.6, 303.1 260.3 C 302.5 261.1, 302.2 263.2, 302.5 265.1 C 302.9 267.8, 302.8 268.1, 302.1 266.5 C 301.4 265.1, 301.3 266, 301.7 269.5 C 302.3 274.1, 302.2 274.4, 300.7 273.1 C 299.1 271.9, 299 272.6, 299 282.9 C 299 292.3, 299.2 294, 300.6 294 C 301.4 294, 301.8 293.5, 301.5 293 C 301.2 292.4, 301.2 289.9, 301.6 287.3 C 302.3 282.8, 302.3 282.8, 303.6 285.1 L 304.9 287.5 305 284.8 C 305 283.3, 305.4 281.9, 305.9 281.6 C 307.1 280.8, 308 285.9, 307 288.4 C 304.7 294.7, 308.8 294.2, 312.5 287.8 C 314.2 285, 316.6 280.7, 318 278.3 C 324.7 266.9, 337.6 256.8, 362 243.9 C 376.1 236.4, 405.1 230.2, 420.5 231.4 C 427.4 231.9, 433.2 233, 443.9 235.7 C 446.3 236.3, 446.2 236.2, 442.9 231.5 C 435.8 221.5, 421.6 212.4, 406.1 207.9 C 399.7 206, 377.2 204.5, 371 205.6 M 179 208 C 179 209.1, 180.7 215.3, 182.9 221.8 C 185 228.2, 189 240.7, 191.9 249.5 C 194.8 258.3, 197.5 266.4, 198 267.5 C 198.4 268.6, 200.5 274.8, 202.6 281.3 C 204.9 288.3, 206.9 293, 207.7 293 C 209.6 293, 210.5 296.1, 197.5 256.5 C 193 242.8, 187.8 227, 186 221.5 C 181.7 208.1, 179 202.9, 179 208 M 164.3 213.8 C 153.2 221.5, 140.8 228.9, 133.5 232.1 C 130.2 233.5, 124.8 235.9, 121.5 237.5 C 118.2 239, 113 241.1, 110 242.2 C 107 243.4, 103.5 244.7, 102.3 245.1 C 100.1 245.9, 100.1 245.9, 103.6 252.5 C 105.4 256.2, 107 260, 107 261.1 C 107 263.6, 108.2 263.5, 110.6 260.9 C 112.4 258.9, 125.8 252, 127.9 252 C 128.4 252, 131.9 249.9, 135.7 247.4 C 143.7 241.9, 150.7 238, 152.7 238 C 154.9 238, 152.4 240.1, 147.1 242.8 C 144.7 244.1, 139.7 247, 136.1 249.4 C 132.5 251.8, 125.1 256.1, 119.7 259 L 109.9 264.2 114.9 268.9 C 117.7 271.5, 120 274, 120 274.6 C 120 275.6, 118.1 278.8, 117.9 278 C 117.9 277.7, 117.7 276.6, 117.5 275.6 C 117.1 273.3, 112.3 268.3, 111.5 269.2 C 110.2 270.5, 112.3 279.3, 114.6 281.8 L 116.9 284.5 118.4 282.4 C 120.6 279.3, 132.5 270.7, 139 267.5 C 142 266, 145.4 264, 146.5 263 C 150.3 259.7, 168 249.8, 171.8 248.8 C 176.2 247.6, 172.7 250.6, 165.7 254 C 161.7 255.9, 158.3 257.7, 158 258 C 157.7 258.3, 155.5 259.6, 153 260.9 C 141.2 267.1, 119 283.2, 119 285.5 C 119 286.2, 120.9 288, 123.2 289.6 C 130 294.4, 133 299.3, 133 306 C 133 310.8, 133.5 312.4, 136.1 315.9 C 137.7 318.2, 139.5 321.1, 139.9 322.2 C 140.6 324.3, 140.7 324.3, 143 321.9 L 145.3 319.5 143.5 322.6 C 140.5 327.9, 142.4 330.1, 145.9 325.3 C 151.5 317.6, 182.4 299.4, 196.7 295.5 C 201.9 294, 202.8 293.5, 202.1 292.1 C 200.6 289.3, 189.3 254.9, 184 237 C 180.7 225.8, 176.9 214.6, 176.1 213.7 C 175.7 213.3, 171.2 216.2, 166.1 220 C 161 223.9, 156.5 226.9, 156.2 226.6 C 155.5 225.9, 154.7 226.6, 165.5 218.4 C 171.8 213.6, 174.4 211, 174.2 209.8 C 173.7 207.3, 173.4 207.4, 164.3 213.8 M 403.5 235.6 C 392.5 237.3, 378.8 240.8, 372 243.6 C 363.8 247.1, 345.6 256.9, 345.2 258.1 C 345 258.6, 344.4 259, 343.8 259 C 341.7 259, 330 268.1, 325.1 273.7 C 317.4 282.3, 319 282.4, 327.8 273.9 C 339.1 262.9, 341.7 261.3, 332.5 271 C 328.1 275.6, 324.3 279.7, 324 280 C 323.7 280.3, 322.4 281.9, 321.1 283.5 C 318.9 286.4, 318.8 286.4, 319.5 284 C 320.1 281.6, 320.1 281.6, 318.2 284.4 C 313.8 290.8, 312.5 294.9, 314.3 296.7 C 315.2 297.6, 316.1 298.2, 316.2 297.9 C 316.4 297.7, 317.6 295.3, 319 292.5 C 322.1 286.3, 337.5 270.7, 348.9 262.1 C 376.5 241.5, 421.6 232.1, 443.3 242.5 C 446.1 243.8, 448.6 244.8, 448.8 244.6 C 449.6 243.8, 442.2 239.2, 437.5 237.6 C 432.5 235.8, 410.3 234.6, 403.5 235.6 M 442.7 251.3 C 453.7 262.9, 462.9 281.2, 463.1 291.7 C 463.1 294.3, 463.5 297.4, 464 298.5 C 465.8 302.6, 465.7 286.5, 463.9 279.8 C 462.6 274.9, 448.1 253.1, 444.1 250.3 C 439.8 247, 439.1 247.5, 442.7 251.3 M 323.3 254.6 C 317.4 259.1, 314.1 263, 314.7 264.8 C 315 265.6, 314.4 266.3, 313.3 266.6 C 311.2 267.2, 309.9 269.2, 308.1 274.9 C 306.4 280.1, 306.8 280.9, 308.9 276.5 C 310.6 273, 310.9 272.8, 310.9 275 C 311 276.4, 311.4 277, 311.8 276.4 C 312.2 275.8, 313.3 275.1, 314.3 274.7 C 315.6 274.2, 315.9 273.4, 315.4 271.5 C 315 269.7, 315.5 268.2, 317.4 265.9 C 318.8 264.2, 320 262.5, 320 262.1 C 320 261.7, 322.3 259, 325.1 256.2 C 331.1 250.2, 330.2 249.4, 323.3 254.6 M 514.8 281.7 C 515.1 308.1, 514.1 335.6, 511.6 372 C 510.8 383.3, 509.8 397.1, 509.4 402.8 C 508.9 410, 509 413, 509.8 413 C 511.2 413, 511.6 410.1, 513 390 C 513.6 380.9, 514.8 366.1, 515.6 357 C 516.5 347.1, 517.3 323.7, 517.7 298.3 C 518.2 257.6, 518.1 256, 516.3 256 C 514.6 256, 514.5 257.3, 514.8 281.7 M 420.5 259.3 C 420.9 260.5, 422.5 263.6, 424.1 266.2 C 425.7 268.9, 427.7 274, 428.6 277.7 C 430.8 286.5, 432 287.9, 435.6 285.5 C 440.9 282.1, 436.8 269.6, 427.6 261.4 C 422.2 256.5, 419.5 255.7, 420.5 259.3 M 280 265.4 C 269.3 267, 260.8 270.2, 257 274.3 C 254 277.5, 254 277.6, 254 289.6 C 254 303, 254 302.9, 261.1 303 C 262.5 303, 264.1 303.5, 264.7 304.1 C 266.2 305.6, 268.4 304.2, 267.2 302.7 C 265.8 300.9, 264.1 293, 264.7 291.4 C 265.7 288.8, 267 290, 266.6 293.1 C 266.3 295.8, 266.5 296.1, 268.4 295.6 C 270.4 295.1, 270.6 295.4, 270.2 298.7 C 269.9 301.2, 270.1 302.1, 270.9 301.6 C 271.5 301.2, 272 299.5, 272 297.9 C 272 292.7, 274.5 295.1, 274.8 300.6 C 275 303.3, 275.5 305.9, 276 306.4 C 276.4 306.8, 276.4 308.5, 276 310 C 275.5 311.8, 275.7 314.3, 276.5 316.8 C 277.9 320.8, 280.1 343.8, 279.3 345.3 C 278.3 346.9, 276 343.7, 275.9 340.6 C 275.9 337.7, 275.8 337.8, 274.5 342 C 272.8 347.3, 273.6 348.5, 278.4 347.6 C 281.7 347, 281.8 346.8, 281.3 343.3 C 280.8 340.5, 281 339.8, 282.1 340.2 C 285.1 341.2, 287.4 335.9, 286.1 331.2 C 286 331.1, 285 331.5, 283.8 332.1 C 281.5 333.3, 281.5 333.3, 283.4 331.2 C 284.4 330, 285.7 329.3, 286.3 329.7 C 286.9 330.1, 287.1 329.7, 286.7 328.6 C 286.3 327.6, 286 326.5, 286 326 C 286 325.6, 285 325.4, 283.8 325.7 C 281.5 326.2, 281.5 326.2, 283.5 324.7 C 285 323.5, 285.1 323.1, 284 323 C 282 323, 279.6 317.9, 281.1 316.9 C 281.9 316.5, 281.9 316.1, 281.2 315.6 C 280.6 315.2, 280.3 314.3, 280.7 313.5 C 281 312.6, 280.6 312, 279.6 312 C 277.5 312, 277.5 307.4, 279.6 306.2 C 280.9 305.5, 281 304.7, 280.1 301.4 C 278.2 294.7, 278.6 292.3, 281.5 292.3 C 283.3 292.3, 284 292.8, 284 294.2 C 284 295.2, 284.5 295.8, 285 295.5 C 285.6 295.2, 285.9 293.6, 285.8 292.2 C 285.6 289, 286.7 286.7, 288.1 287.5 C 288.6 287.9, 289 287.1, 289 285.9 C 289 283.8, 288.7 283.8, 282.9 284.3 C 277.2 284.8, 276.9 284.7, 279.5 283.4 C 281 282.6, 284 282, 286.1 282 L 290 282 290 275.3 C 290 271.5, 290.3 267.5, 290.6 266.3 C 291.3 263.7, 292 263.7, 280 265.4 M 208 297.5 C 208 298.4, 210.6 307, 213.9 316.8 C 217.1 326.5, 221.5 339.8, 223.6 346.4 C 227.7 359, 229.9 363.4, 230 359.2 C 230 357.9, 228.9 353.6, 227.6 349.7 C 226.3 345.7, 222.2 333.1, 218.5 321.5 C 214.8 310, 211.4 299.5, 210.9 298.3 C 209.9 295.7, 208 295.2, 208 297.5 M 301.5 297.1 C 301.2 297.6, 302.4 298.6, 304.2 299.3 C 307.7 300.8, 314 307.2, 314 309.3 C 314 310.1, 314.4 310, 315 309 C 316.3 306.8, 317.5 308.6, 317.5 313 C 317.5 315.6, 317.8 316.6, 318.5 316 C 319.2 315.4, 320.2 317.7, 321.4 323 C 322.4 327.4, 323.4 331, 323.7 331 C 324 331, 324 327.1, 323.7 322.3 C 323 310, 319.5 302.8, 312.4 299.2 C 309.1 297.5, 302 296.1, 301.5 297.1 M 294.6 301.9 C 293.2 302.4, 293 302.9, 293.8 303.4 C 294.5 303.8, 295 303.9, 295 303.5 C 295 301.3, 302.6 307.1, 305.4 311.4 C 310.7 319.8, 311.4 339, 306.4 339 C 304.6 339, 304.6 337, 306.6 334.2 C 307.4 333, 307.9 330.7, 307.7 329.2 L 307.3 326.5 307.1 329.5 C 306.7 337.4, 302 338.4, 297.2 331.7 C 296 329.9, 295 329.1, 295 329.7 C 295 330.3, 297.1 333.1, 299.6 335.9 C 308.2 345.3, 316 341.7, 316 328.3 C 316 312.1, 304.4 297.8, 294.6 301.9 M 293 305.5 C 293 305.7, 294.4 306.6, 296 307.5 C 297.7 308.4, 299 309.5, 299 310.1 C 299 310.8, 297.9 310.5, 296.4 309.5 C 291 306, 289 311.3, 291.7 321.5 L 293.4 327.8 296.2 324.8 C 297.7 323.1, 299 321.3, 299 320.6 C 299.1 320, 299.8 320.8, 300.6 322.3 C 301.4 323.8, 302.5 324.8, 303 324.5 C 303.5 324.2, 304.1 324.4, 304.5 325 C 307 329.1, 307.3 319.5, 304.8 314.5 C 302.2 309.4, 293 302.3, 293 305.5 M 244.3 308.5 C 240 311.5, 242 332, 247.2 339.3 C 250.2 343.5, 258.7 347, 266 347 L 271.9 347 272.6 341.3 C 274.4 326.5, 271.2 314.1, 264.4 309.9 C 259.5 306.9, 247.6 306.1, 244.3 308.5 M 250.2 313.2 C 249.5 313.9, 249 316.7, 249 319.6 C 249 329.4, 255.8 339.6, 259.8 335.7 C 261.8 333.6, 262.6 324.2, 261 319.6 C 259.2 314, 253 310.4, 250.2 313.2 M 324.5 336.6 C 324.2 338.5, 323 340.8, 322 341.7 C 321 342.6, 320.4 343.8, 320.7 344.3 C 321.1 344.9, 320.6 345.1, 319.7 344.7 C 318.6 344.3, 318 344.6, 318 345.4 C 318 346.2, 318.6 347.1, 319.3 347.3 C 320 347.6, 319.8 347.9, 318.8 347.9 C 316.6 348, 316.4 350, 318.5 350 C 319.3 350, 320 350.4, 320 350.9 C 320 352.2, 316.3 353.3, 314.8 352.5 C 314.1 352.1, 315 353.2, 316.7 354.7 C 319.8 357.5, 333.3 364.6, 339.5 366.8 C 352.7 371.4, 374.8 374.6, 385.9 373.4 C 393.7 372.6, 392.1 371.5, 381.9 370.7 C 361.5 369, 344.2 361.7, 330.4 348.7 C 324.5 343.2, 322.9 341, 324.8 341 C 325.2 341, 326.9 342.3, 328.5 343.8 C 347.3 361.2, 366 368, 394.6 368 C 415.2 368, 429.4 364.9, 436 358.9 C 439.5 355.6, 439.4 353.9, 435.8 356.2 C 427.3 361.5, 412.9 364.5, 395 364.5 C 366.6 364.5, 347.1 356.8, 330.7 339 L 325.2 333.1 324.5 336.6 M 247.4 351.3 C 247.7 354.2, 248.7 360.3, 249.5 365 C 250.3 369.7, 251.8 379.1, 252.9 386 C 254.7 398, 254.8 398.2, 254.4 390.5 C 254.2 384.6, 254.3 383.4, 254.9 386 C 255.4 387.9, 256.5 392, 257.3 395 C 258.1 398, 259.1 404.3, 259.5 409 C 260.4 420.7, 262.8 426.4, 264.5 421 C 265.3 418.5, 268 418.4, 268.1 420.8 C 268.2 421.7, 268.6 420.9, 269 419 C 269.5 416.1, 269.8 415.8, 270.5 417.4 C 271.4 419.5, 269.5 428.4, 267.4 431.5 C 265.8 433.8, 265.6 432.8, 266.9 428.2 C 268.3 423.5, 266.8 424.4, 264.3 429.9 C 261.5 435.7, 262 437.2, 272 459.5 C 273 461.7, 274.1 464.4, 274.4 465.4 C 275 467.2, 275.4 467.1, 278.5 463.9 C 281.6 460.7, 282.5 458.3, 282 453.5 L 281.9 451.5 280.9 453.5 C 280.2 455.1, 280.1 454.8, 280.5 452.3 C 280.7 450.5, 280.6 449, 280.2 449 C 279.7 449, 279.3 447.5, 279.2 445.8 C 278.7 437.7, 278.6 437.5, 276 437.8 L 273.6 438 275.9 435.6 C 278.1 433.3, 278.1 432.9, 277.2 423.4 C 276.6 417.4, 276.5 413.1, 277.1 412.6 C 277.6 412, 278 412.5, 278.1 414.1 C 278.1 416.3, 278.2 416.3, 279 414.5 C 279.5 413.4, 279.9 411.2, 279.9 409.7 C 280 407.8, 280.4 407.1, 281.2 407.6 C 282 408.1, 282.1 407.8, 281.6 406.4 C 281.2 405.4, 280.6 400.7, 280.4 396.1 C 280.2 391.4, 279.8 386.8, 279.4 385.8 C 278 381.3, 280.8 384.6, 282.8 389.8 L 285 395.5 284.4 389 C 283.9 382.3, 283.2 378.4, 280.5 364.5 C 277.9 351.7, 279 352.8, 269.7 353.1 C 262 353.4, 261.1 353.2, 254.1 349.7 L 246.8 346.1 247.4 351.3 M 294.6 350.8 C 294.2 351.5, 294.1 353.4, 294.5 355 C 294.9 356.9, 294.8 358, 294.1 358 C 293.5 358, 293 359, 293 360.3 C 293 363.3, 291.4 360.9, 290 355.8 C 289.4 353.7, 288.5 352, 288 352 C 286.7 352, 286.7 356.6, 288 359 C 288.7 360.3, 288.7 361.1, 288 361.5 C 287.5 361.8, 287 361.5, 287 360.7 C 287 358.7, 284 353, 282.9 353 C 281.7 353, 281.6 352.2, 284.4 366.3 C 285.7 373, 287.1 380.2, 287.4 382.2 C 288.3 387.2, 289.8 387.8, 290.6 383.5 C 290.9 381.6, 291.7 380, 292.3 380 C 293 380, 293 379.6, 292.2 378.8 C 290 376.6, 290.8 374.7, 293.5 375.4 C 296.4 376.1, 298.4 372.8, 296.9 369.8 C 296.4 368.9, 296 367.1, 296.1 365.8 C 296.2 363.9, 296.5 364.2, 297.7 367.3 C 298.6 369.3, 299.7 371, 300.1 371 C 301.3 371, 301.3 369.3, 300.1 368.6 C 298.7 367.7, 297.7 360.9, 298.9 359.7 C 299.5 359.1, 300 357.9, 300 357.1 C 300 355.8, 299.8 355.8, 299.1 356.9 C 298 358.6, 297 357.1, 296.1 352.6 C 295.6 350.5, 295.2 349.9, 294.6 350.8 M 265.7 367.7 C 265.4 372.1, 265.7 374.6, 267.3 378.3 C 271 387.1, 267.4 385.2, 262.8 376 C 259.9 370.2, 259.1 373.1, 261.9 379.5 C 263.9 384.1, 263.5 385.3, 260.8 382.3 C 259 380.2, 257 374.6, 257 371.6 C 256.9 370.4, 256.3 368.2, 255.5 366.5 C 254.1 363.7, 254 363.9, 254.6 370.5 C 255.3 378.7, 256.8 382, 261.2 385.4 C 268.8 391.1, 273.2 389.3, 271.3 381.2 C 270.7 378.6, 269.4 373.4, 268.6 369.6 C 266.5 360.8, 266.4 360.7, 265.7 367.7 M 314 366 C 314 366.6, 318.2 369.1, 323.3 371.5 C 332.4 375.9, 344.5 384.9, 344.5 387.3 C 344.5 388, 346.3 391.2, 348.5 394.5 C 352.2 400.1, 352.5 401, 352.4 407.2 C 352.4 413.6, 352.5 413.8, 353.6 411 C 355.3 407, 356.4 407.2, 355.6 411.3 C 355.2 413.3, 355.3 414, 355.9 413.1 C 357 411.4, 357.7 412.7, 357.8 416.8 C 357.8 419, 357.2 420.5, 355.9 421.3 C 354.9 421.9, 354 423, 354 423.7 C 354 424.4, 353.5 425, 352.8 425 C 351.9 425, 351.9 425.3, 352.8 426.2 C 353.7 427.1, 353.4 427.8, 351.2 429.2 C 349.6 430.3, 349.1 431, 350 431 C 350.9 431, 352.5 430.3, 353.8 429.5 C 355.3 428.4, 355.8 428.3, 355.5 429.2 C 355.2 429.9, 353.7 431.4, 352.1 432.4 C 350.5 433.5, 349.4 435, 349.7 435.7 C 350 436.4, 349.5 437, 348.5 437 C 347.6 437, 347.2 437.5, 347.5 438.1 C 347.9 438.7, 349.4 438.8, 351 438.5 C 352.6 438.2, 354.1 438.3, 354.5 438.9 C 354.8 439.6, 354.2 440, 352.9 440 C 351.2 440, 351 440.3, 351.9 441.4 C 352.8 442.5, 352.8 442.8, 351.8 442.7 C 347.5 442.6, 344 443.1, 344 444 C 344 444.6, 346.1 445.1, 348.8 445.1 C 351.4 445.2, 352.5 445.5, 351.3 445.7 C 348.6 446.2, 348.2 448, 350.8 448.1 C 351.7 448.1, 351.1 448.7, 349.3 449.3 C 344.7 451.1, 344.2 452, 348.1 452 C 350.7 452, 351.1 452.3, 350 453 C 349.2 453.5, 347.4 454, 346.1 454 C 342.5 454, 343.9 454.7, 349.4 455.4 C 353.1 456, 354 455.9, 353.4 454.9 C 352.9 454, 353.2 453.9, 354.3 454.3 C 355.5 454.7, 356 454.4, 356 453.3 C 356 452, 356.3 451.9, 357.2 452.8 C 359.1 454.7, 355.6 457.7, 349.9 459 C 347.2 459.7, 345 460.6, 345 461.1 C 345 462.4, 349.5 464, 353.3 464 C 355.1 464, 357.5 464.3, 358.8 464.6 C 363 465.8, 361 467, 354.9 467 C 349.5 467, 348.9 467.2, 350 468.5 C 350.7 469.3, 352.7 470.1, 354.4 470.1 C 356.8 470.2, 357 470.4, 355.2 470.7 C 351.1 471.5, 353.5 473.5, 360.8 475.1 C 368.5 476.9, 396 476.3, 404.5 474.1 C 412.1 472.2, 410.3 475, 402.3 477.5 C 395.9 479.6, 374.9 479.9, 361.8 478.2 C 355.1 477.4, 355 477.4, 355 479.7 C 355 481.6, 355.5 482, 358.4 482 C 370.8 482, 382 487, 390.5 496.4 L 396.9 503.4 400.2 501.8 C 402 500.9, 407.8 496.6, 413 492.3 C 422.8 484.1, 427.8 480.9, 434.2 479 C 438.5 477.7, 439.2 477, 438 475 C 437.3 473.9, 436.6 473.8, 434.5 474.8 C 430.6 476.6, 428 476.3, 428 474.1 C 428 473, 427.6 471.8, 427 471.5 C 425.4 470.5, 425.9 468.6, 428.5 465.7 C 431.5 462.6, 431.2 462.5, 426.3 464.5 C 424.4 465.3, 420.7 466, 418.2 466 C 415.7 466, 411.8 466.9, 409.6 467.9 C 402.2 471.3, 383 473.4, 380.7 471.1 C 379.9 470.3, 380.5 470, 382.8 470 C 384.6 470, 386 469.6, 386 469.1 C 386 468.5, 383.6 468.2, 380.6 468.3 C 374.2 468.5, 370.8 466.5, 367.2 460.4 C 364.5 455.7, 364.1 437.6, 366.8 436.1 C 367.9 435.5, 368 434.5, 367.1 431.4 C 366.6 429.3, 365.4 423, 364.5 417.5 C 363.7 412, 362.7 406.1, 362.5 404.4 C 361.5 398.1, 365.8 395.2, 367.8 400.8 L 368.8 403.5 368.9 400.8 C 369 399.4, 368.5 398, 367.9 397.8 C 367 397.5, 367 396.8, 367.9 395.1 C 368.6 393.9, 368.9 392.3, 368.7 391.5 C 368.3 390.6, 368.8 390.4, 370.2 390.8 C 371.9 391.2, 372.2 391, 371.6 389.5 C 369.6 384.1, 374.2 382.6, 399.5 380.5 C 414.2 379.3, 428.3 374.6, 433.1 369.3 L 435.5 366.7 432.5 368.3 C 419.1 375.4, 412.6 376.5, 382 376.5 C 359.7 376.5, 354.3 376.2, 347.8 374.7 C 343.5 373.6, 339.5 373, 338.8 373.3 C 338.1 373.6, 338.4 373.9, 339.6 373.9 C 343.1 374.1, 358.1 386.2, 356.7 387.7 C 355.7 388.7, 347.9 384.6, 337 377.4 C 329.4 372.5, 315.9 365, 314.5 365 C 314.2 365, 314 365.5, 314 366 M 443.5 370.1 C 444.6 374.6, 444.8 383, 443.8 383.6 C 443.3 383.9, 442.9 382.9, 442.9 381.3 C 442.8 379.1, 442.6 379, 442.3 380.6 C 442.1 381.8, 442.8 384.3, 443.9 386.1 C 445.1 388, 446 390.4, 446.1 391.5 C 446.2 394.1, 449.5 382.9, 450.4 376.9 C 451 372.5, 450.9 372.1, 448.3 370.3 C 442.7 366.4, 442.6 366.4, 443.5 370.1 M 435.2 372 C 433.4 374.9, 426 379.3, 422.1 379.7 C 420.3 379.9, 418 380.5, 417.1 380.9 C 415.1 382, 396.4 384.7, 384.7 385.6 C 376.3 386.2, 371.5 388.1, 373.7 390 C 375.1 391.1, 403.5 389.1, 416.4 386.9 C 423 385.8, 430.4 384.6, 432.7 384.3 C 437.4 383.7, 438 382.4, 437.1 374.7 C 436.6 370.4, 436.4 370.1, 435.2 372 M 306.5 374 C 304.9 374.7, 305.3 374.9, 308.3 374.9 C 316.2 375.1, 328.9 380.8, 333.8 386.4 C 336.1 389.1, 335.2 390, 332.7 387.5 C 329.6 384.5, 311.3 377, 306.9 377 C 303.9 377, 300 379.6, 300 381.6 C 300 382.4, 299.6 383, 299 383 C 298.2 383, 293 390.2, 293 391.3 C 293 391.5, 295.4 390.9, 298.3 389.9 C 304.3 387.8, 311.6 387.5, 315.7 389.2 C 318.3 390.3, 317.9 390.4, 310.6 391.1 C 300.3 392.2, 294.2 394.5, 290.3 398.8 C 286.2 403.2, 286.4 403.4, 292.8 401 C 306.7 395.7, 329.1 402.2, 337.7 414 C 342.2 420.1, 344.2 422.7, 343.5 421.3 C 343.2 420.7, 343.4 419.9, 344 419.5 C 345.2 418.7, 344.2 408.1, 342.7 406.2 C 342 405.3, 342 404.6, 342.8 403.8 C 343.7 402.9, 344 403.1, 344 404.8 C 344 406, 344.4 407, 344.9 407 C 345.4 407, 346.1 408, 346.4 409.3 C 346.6 410.5, 346.8 409.8, 346.6 407.8 C 346.5 405.8, 346.8 404.4, 347.2 404.6 C 347.6 404.9, 348 406.4, 348 408.1 C 348 409.7, 348.5 411, 349 411 C 349.6 411, 350 408.8, 350 406.1 C 350 401, 348.4 398.5, 345.8 399.5 C 344.9 399.9, 344 399.5, 343.7 398.6 C 343.3 397.6, 343.6 397.3, 344.5 397.6 C 348.4 399.1, 346.2 395.1, 339.3 388.2 C 327.3 376.2, 314.4 370.6, 306.5 374 M 454.6 378.4 C 454.2 380.2, 452.9 383.9, 451.6 386.6 C 448.9 392.4, 447.6 399.9, 449 402 C 449.7 403.1, 449.8 402.5, 449.4 400 C 448.9 397.2, 449.1 396.8, 450 398 C 451 399.2, 451.1 399.1, 450.7 397.3 C 450.1 394.6, 452 387.5, 453.9 385.8 C 455.3 384.4, 454.6 388.6, 452.8 392.5 C 451.8 394.8, 455 391.4, 458.6 386.4 C 459.8 384.8, 461.1 383.8, 461.6 384.3 C 462 384.7, 461.4 386, 460.3 387.3 C 457.7 390.1, 454 397.4, 454 399.7 C 454 400.7, 454.9 399.7, 456.1 397.5 C 458.6 392.7, 462.8 387, 464.9 385.4 C 466.8 383.9, 465.9 382.7, 459.7 378.2 L 455.2 375 454.6 378.4 M 427.8 392.5 C 427.5 392.8, 422.4 393.7, 416.4 394.5 C 410.4 395.3, 403 396.3, 400 396.9 C 397 397.4, 391 397.9, 386.6 397.9 C 379.4 398, 378.9 398.1, 380.1 399.6 C 381.1 400.8, 381.7 405.3, 382 413.9 C 382.5 425.6, 382.6 426.5, 384.6 427 C 386.5 427.4, 386.4 427.7, 383.4 429.1 L 380.1 430.7 379.5 424.1 C 379.2 420.5, 378.5 413.7, 378 409 C 377.4 404.3, 377 399.9, 377 399.3 C 377 398.6, 376.3 398, 375.4 398 C 374.1 398, 373.9 398.6, 374.5 401.3 C 374.9 403, 375.7 410.7, 376.4 418.2 C 377.1 425.8, 377.9 432.2, 378.2 432.5 C 378.8 433.1, 383.7 432.6, 402.5 430 C 406.4 429.5, 416 428.6, 424 428 C 442.9 426.7, 441.8 428.4, 440.3 403.3 L 439.7 392 434 392 C 430.9 392, 428.1 392.2, 427.8 392.5 M 422.5 396.7 C 418.1 397.8, 417.7 398.9, 418.3 409.5 C 419 422.1, 420.1 423.4, 429.8 422.8 C 437.9 422.3, 438.3 421.7, 437.6 410.1 C 436.9 398, 435.7 396, 429.2 396.1 C 426.6 396.2, 423.6 396.5, 422.5 396.7 M 473.5 399.7 C 471.6 401.7, 470 403.7, 470 404.1 C 470 404.5, 469.4 405.5, 468.7 406.2 C 467 407.9, 462.4 415.9, 461.6 418.5 C 461.1 420.2, 461.5 420.6, 463.5 420.8 C 464.9 420.9, 466 420.5, 466 419.8 C 466 419.2, 466.3 418.9, 466.6 419.2 C 466.9 419.6, 466.4 421.2, 465.5 422.9 C 463 427.9, 466.1 426.8, 468.9 421.7 C 472.5 415.2, 478.6 407.7, 482 405.5 C 485.7 403, 485.7 402.9, 482.1 399.1 C 478.4 395.2, 477.9 395.2, 473.5 399.7 M 129.1 400 C 115.9 408.3, 115.9 424.3, 129 431 C 148.7 441.1, 166.9 414.7, 149.5 401.4 C 144.3 397.5, 134.2 396.8, 129.1 400 M 400.3 400.3 C 395 402.3, 394.5 403.3, 394.5 412.9 C 394.5 424.8, 395.8 426.5, 404.5 425.5 C 413.4 424.5, 415 422.6, 415 413.3 C 415 400.5, 410.5 396.6, 400.3 400.3 M 128.2 404.8 C 123.1 409.6, 121.6 414.7, 123.6 419.8 C 128.1 430.8, 140.9 433.3, 149.3 424.9 C 153.2 421, 153.2 421, 152.8 414.4 C 152.4 408, 152.2 407.5, 148.4 404.4 C 142.4 399.2, 133.8 399.4, 128.2 404.8 M 422.8 402.1 C 420.2 403.5, 421 419.3, 423.5 418 C 424.1 417.7, 424.4 417.1, 424.2 416.7 C 424.1 416.3, 424.8 416.3, 425.7 416.8 C 426.7 417.3, 429.2 418.1, 431.4 418.4 L 435.2 419.1 434.8 411.5 C 434.5 405.4, 434.1 403.5, 432.5 402.4 C 430.3 400.8, 425.3 400.6, 422.8 402.1 M 296.6 403.2 C 293.9 403.7, 290.4 405, 288.8 406.1 C 285.5 408.5, 285 410.6, 288.1 409 C 303.4 400.8, 324.5 405.5, 336.3 419.8 C 339.8 424.1, 339.8 421.8, 336.3 416.7 C 328.8 405.8, 312.2 400.2, 296.6 403.2 M 483.5 406.8 C 481.8 407.9, 479.2 410.4, 477.5 412.6 C 475.9 414.7, 474.3 416.7, 473.9 417 C 472.5 418, 469 424.6, 469.1 426 C 469.2 427.3, 469.2 427.3, 469.7 426 C 470 425.2, 471.2 423.4, 472.2 422 L 474.2 419.5 473.4 423.5 C 473 425.7, 472.4 427.7, 471.9 428 C 470.8 428.8, 469 437.2, 469.7 438.4 C 470.1 438.9, 471.2 436.5, 472.1 433.1 C 474 426.6, 474.6 425.3, 475.5 426.2 C 475.8 426.5, 475.3 428.6, 474.5 431 C 472.6 436.3, 472.6 438.4, 474.3 435 C 478.7 426.8, 479.8 425.1, 480.3 425.6 C 480.5 425.9, 480.2 427.3, 479.5 428.8 C 478.8 430.3, 477.9 432.6, 477.6 434 C 476.9 436.4, 477 436.4, 479.2 433.6 C 480.4 432, 482.5 429.5, 483.8 428.1 C 485.1 426.7, 487 423.9, 488.1 421.8 C 490.3 417.4, 494 414.4, 498.3 413.4 L 501.5 412.7 498.5 411.4 C 495 410, 490.6 411.8, 484.6 417 C 482.8 418.7, 480.8 420, 480.2 420 C 479.6 420, 478.9 420.6, 478.7 421.3 C 478.4 422, 478.1 421.8, 478.1 420.8 C 478 418.2, 484.6 411.3, 488.6 409.8 C 492.7 408.4, 492.8 407.7, 489.5 406.2 C 486.3 404.7, 487.1 404.7, 483.5 406.8 M 296 409.6 C 285.5 413.4, 282.8 416.8, 282.9 426 C 282.9 433.4, 284.6 437.2, 285.6 432.3 C 285.9 430.5, 286.6 429, 287.1 429 C 288.2 429, 287 421.9, 285.6 420.1 C 282.7 416.4, 296.3 411, 308.4 411 C 318.1 411, 324.7 413.9, 331.4 421 C 333.9 423.7, 336 425.5, 336 425 C 336 422.8, 328.6 416.1, 322.8 412.9 C 317.1 409.9, 315.6 409.6, 307 409.3 C 301.8 409.2, 296.8 409.3, 296 409.6 M 399.7 411.1 C 399.4 412.3, 399.4 414.6, 399.7 416.1 C 400.2 418.9, 400.5 419, 405.9 419 C 411 419.1, 411.3 419.2, 409.6 420.5 C 408.5 421.4, 408.2 422, 408.9 422 C 412.2 422, 414.3 415.4, 411.2 414.8 C 410.3 414.6, 408 414.8, 406.3 415.4 C 402.8 416.4, 401.3 415.9, 402.5 414.1 C 402.8 413.5, 404.9 413, 407.1 413 C 409.6 413, 411 412.5, 411 411.7 C 411 410.9, 409.6 410.6, 406.4 410.9 C 403.5 411.1, 401.5 410.8, 401 410 C 400.5 409.2, 400.1 409.6, 399.7 411.1 M 308.8 415.7 C 305 415.9, 302 416.5, 302 417 C 302 417.6, 301.5 418, 300.8 418 C 300.2 418, 298.8 418.8, 297.8 419.7 C 296 421.3, 295.9 421.3, 295.4 419.3 C 294.9 417.4, 294.5 417.3, 292.4 418.2 C 289.9 419.4, 289.6 420.1, 290.6 423.8 C 291.2 425.9, 291.4 425.9, 292.9 424.6 C 296.9 421, 318.5 416.1, 322.1 418.1 C 324.9 419.5, 326.7 419.2, 324.4 417.6 C 321.9 415.8, 317.3 415.2, 308.8 415.7 M 245.5 418 C 244.6 419.5, 247 426.4, 249.5 429.6 C 251.6 432.2, 252 432.3, 255.6 431.5 C 259.1 430.6, 259.5 430.1, 259.8 427.1 C 260.2 423.4, 260.2 423.4, 251.5 425.6 C 249.1 426.2, 248.8 426, 249.3 424.7 C 250.6 421.3, 247.2 415.3, 245.5 418 M 506.3 418 C 504 418.9, 502 421.9, 502 424.3 C 502 426.5, 505 427.2, 507.5 425.6 C 509.6 424.2, 509.8 424.2, 509.3 426 C 508.8 427.8, 509.3 428, 514.4 428 C 519.8 428, 520 427.9, 520 425.3 C 520 419.5, 512.5 415.5, 506.3 418 M 443.8 424.9 C 443.2 431.1, 441.7 432.4, 434 434 C 426.7 435.4, 426.8 435.4, 424.3 434.6 C 422.6 434.1, 421.9 434.5, 420.7 437 C 419.2 439.9, 419.2 440, 421.6 440 C 423 440, 424.3 439.3, 424.7 438.5 C 425 437.5, 425.9 437.2, 427.2 437.6 C 430.6 438.6, 440 437.1, 440 435.4 C 440 433.7, 442.2 433.6, 443.8 435.2 C 445.2 436.6, 443.6 440, 441.5 440 C 438.9 440, 438.8 442.1, 441.4 444.1 C 444.9 446.9, 444.8 457.5, 441.1 461.4 C 439 463.6, 438.9 464.1, 440.2 466.7 C 442 470.5, 445.1 470.4, 446.2 466.5 C 447.2 463.1, 446.1 423.2, 445 421.1 C 444.6 420.3, 444.1 421.9, 443.8 424.9 M 309.5 421.7 C 296.9 424.3, 290.3 429, 287.7 437.1 C 286 442.2, 286.3 445.1, 288.1 441.8 C 288.6 440.9, 289.6 439.5, 290.4 438.8 C 291.1 438.1, 291.9 436.8, 292.3 436 C 292.7 434.9, 292.9 434.8, 292.9 435.9 C 293 436.7, 294.3 436, 296.5 434.1 C 300.9 430.3, 304.4 429.7, 301.4 433.3 C 300.4 434.5, 299.1 436, 298.5 436.5 C 291.8 443.3, 288.7 449.1, 289.9 452.4 C 290.5 454.1, 291.2 453.5, 294.4 448.8 C 296.4 445.7, 299.2 442.4, 300.7 441.5 C 303.6 439.6, 303.2 440.5, 299 446 C 294.9 451.3, 293 455.5, 293 459.5 C 293 464, 293.6 463.9, 298.9 458.4 C 308.1 448.9, 327.2 442.8, 334.9 447 C 338.1 448.7, 338.1 448.4, 336.4 438.9 C 333.7 424.2, 324.7 418.5, 309.5 421.7 M 484.8 429.8 C 482.1 432.6, 479.9 437.8, 481.9 436.6 C 482.5 436.2, 484.4 437.6, 486.2 439.6 C 488 441.7, 490.5 444.3, 491.8 445.4 C 494.3 447.7, 494.7 449.5, 492.4 448.6 C 491.6 448.3, 491.2 448.4, 491.5 449 C 492.8 451.1, 494.8 449.8, 496.3 445.8 C 497.9 441.8, 497.9 441.5, 496 439.5 C 494.9 438.3, 494 436.1, 494 434.6 C 494 432.9, 493 431, 491.3 429.5 C 487.8 426.5, 487.9 426.4, 484.8 429.8 M 449.3 434.5 C 452.9 461.2, 452.6 467.7, 447.5 471.7 C 444.8 473.9, 444.3 474.7, 445 476.6 C 445.5 477.8, 445.7 480.4, 445.4 482.2 C 445 484.9, 445.6 486.5, 448.4 490.4 C 452.3 495.7, 453.2 501.8, 450.9 507.7 C 450.1 510, 450.3 511.3, 452.1 515.2 C 454.3 519.8, 454.3 520.2, 452.7 523.5 L 451.1 526.9 461.8 526.8 C 467.7 526.7, 479.6 527, 488.2 527.5 L 504 528.3 503.5 494.4 C 503.2 475.7, 503 459.9, 503 459.3 C 503 458.5, 501.8 458, 500.1 458 C 498.4 458, 496.8 457.5, 496.5 457 C 496.1 456.4, 494.4 456.2, 492.5 456.6 C 488.7 457.3, 478.2 451.8, 475.5 447.6 C 474.7 446.4, 472.3 444.8, 470.3 444.1 C 465.4 442.4, 455.3 436.4, 451.6 433.1 L 448.8 430.5 449.3 434.5 M 507.4 432.4 C 507.1 433.2, 507 435.1, 507.2 436.7 C 507.5 439.3, 507.8 439.5, 513.5 440.2 C 520.6 440.9, 519.7 441.5, 520.1 436 L 520.5 431.5 514.2 431.2 C 509.5 431, 507.8 431.3, 507.4 432.4 M 257.5 438 C 257.8 439, 259.6 445.5, 261.5 452.2 C 266.1 469.2, 269.1 475.3, 271.9 473.6 C 273.7 472.4, 273.1 470, 271 470 C 269.7 470, 269 469.3, 269 468.1 C 269 467.1, 267.2 460.9, 264.9 454.4 C 262.7 447.8, 260.4 441, 259.9 439.3 C 259.3 437.5, 258.4 436, 257.9 436 C 257.3 436, 257.1 436.9, 257.5 438 M 501.8 446.3 C 499.4 449.6, 500.3 452.5, 503.6 452.5 C 505 452.5, 505.4 451.9, 505.2 450.3 C 504.8 447.4, 505.8 447.4, 509.3 450.5 C 512.5 453.3, 512.8 454.4, 510 453.7 C 508.9 453.4, 508 453.6, 508 454.2 C 508 455.8, 515.2 454.1, 516.7 452.2 C 521.7 445.5, 519.9 442.8, 510.5 443.2 C 504.4 443.4, 503.7 443.7, 501.8 446.3 M 400 448.8 C 393.8 451.4, 393.7 451.5, 396.8 451.8 C 400.8 452.2, 400.6 454.2, 396.4 455.1 C 394.1 455.6, 394 455.8, 395.8 455.9 C 399 456.1, 398.5 457.7, 395 458.5 C 393.4 458.9, 392 459.6, 392 460.1 C 392 460.6, 391.6 461, 391 461 C 390.5 461, 390 459.9, 390 458.6 C 390 457.2, 389.6 455.8, 389 455.5 C 388.5 455.2, 388 455.8, 388 456.8 C 388 457.9, 387.1 459.8, 386 461.1 L 384.1 463.5 384 458.2 C 384 452.7, 382.6 451.9, 381.7 456.7 C 381.1 459.8, 383.7 464.3, 385.6 463.6 C 386.3 463.3, 391.2 462.8, 396.4 462.4 C 405.9 461.8, 409.5 462.4, 406.9 464.2 C 404.9 465.5, 412.1 464.3, 420.1 461.9 C 423.8 460.9, 427.3 459.3, 428 458.5 C 429.8 456.4, 427.8 456.6, 423.3 459 C 419.4 461.1, 413.5 461.6, 411.1 460.1 C 410.1 459.4, 409.7 457.4, 409.9 452.6 C 410.1 444.8, 410 444.8, 400 448.8 M 319 450.3 C 319 450.8, 319.7 451, 320.5 450.6 C 321.3 450.3, 322 450.5, 322 451 C 322 451.6, 321.1 452, 320 452 C 317.7 452, 312.3 454.5, 310.3 456.5 C 309.6 457.2, 308.7 458, 308.3 458.2 C 307.4 458.5, 303.4 464, 300.6 468.5 C 298.9 471.3, 299.1 471.2, 303.1 467.5 C 305.4 465.3, 308.2 462.6, 309.2 461.5 C 310.9 459.5, 310.9 459.5, 311 461.5 C 311 462.6, 308.7 465.8, 305.8 468.7 C 303 471.6, 300.8 474.1, 301.1 474.4 C 302.1 475.3, 310.7 470.4, 310.2 469.2 C 309.9 468.2, 310.5 468.3, 312.4 469.5 C 316.3 472.1, 314.7 474.1, 302.9 481.3 C 300.1 483, 299.7 484.7, 301.1 490.2 C 301.7 492.5, 302.8 494.1, 304.1 494.5 C 305.2 494.9, 306.6 496.1, 307.1 497.3 C 308.2 499.9, 307.7 492.7, 306.5 489.8 C 306.1 488.8, 306.2 488, 306.8 488 C 307.8 488, 309 490.7, 310.8 497 C 311.3 498.9, 311.8 499.7, 311.9 498.8 C 312 496.6, 314 496.4, 314 498.5 C 314 499.3, 314.6 500, 315.4 500 C 316.2 500, 317 500.7, 317.4 501.5 C 317.7 502.3, 318.4 503, 319.1 503 C 319.7 503, 319.9 502.3, 319.6 501.4 C 319.1 500, 319.2 499.9, 320.5 501 C 321.4 501.7, 322.3 502, 322.7 501.6 C 323 501.3, 322.9 501, 322.3 501 C 321.7 501, 321 500.2, 320.6 499.3 C 320.3 498.3, 319.5 496.7, 318.8 495.8 C 318.1 494.9, 317.9 493.7, 318.4 493.3 C 319.2 492.5, 324.6 498.4, 325.5 501.3 C 326.2 503.2, 328.2 503.5, 331 502 C 332.7 501.1, 332.7 500.8, 330.9 493.8 C 329.8 489.8, 329.1 485.4, 329.2 484 C 329.5 481.6, 329.6 481.7, 331.2 485.1 C 332.2 487, 334.5 490.3, 336.5 492.4 C 340 496.1, 340.1 496.2, 342 494.5 C 343.1 493.5, 344 491.9, 344 490.9 C 344 488.5, 338.9 478.9, 337.3 478.3 C 335.6 477.6, 335.6 475, 337.4 475 C 338.2 475, 340.9 477, 343.4 479.5 C 346 482, 348.5 484, 349 484 C 352.3 484, 346.3 468.3, 340.2 461.1 C 337.9 458.3, 337.1 457.9, 335.5 458.7 C 334.4 459.3, 330.7 460, 327.2 460.3 C 323.8 460.7, 319.1 461.9, 316.9 463.1 L 312.8 465.1 313.5 462.8 C 316.3 454.1, 318.7 452.5, 329.7 452.5 C 338 452.5, 340 451.8, 335.8 450.4 C 332.5 449.4, 319 449.3, 319 450.3 M 507.7 459.7 C 506.5 460.8, 506.9 530, 508 530 C 508.6 530, 509 517.5, 509 494.5 C 509 475, 508.9 459, 508.7 459 C 508.5 459, 508 459.3, 507.7 459.7 M 434.4 482.8 C 432.3 484.3, 428 487, 425 488.7 C 421.9 490.5, 418.3 493.1, 417 494.5 L 414.5 497.2 419.5 494.5 C 422.3 493, 426 490.9, 427.8 489.8 C 430.3 488.2, 430.9 488.2, 430.4 489.4 C 429.6 491.4, 424.7 495.1, 418.5 498.3 C 415.8 499.7, 412.8 501.4, 412 502 C 410.4 503.2, 410.2 503.3, 424 500.5 C 427.6 499.8, 430.6 499.3, 430.8 499.5 C 431.4 500, 424.1 503, 418.7 504.4 C 413.5 505.8, 403.4 510.8, 405.3 511.1 C 405.7 511.2, 406.5 511.4, 407 511.5 C 407.6 511.6, 412.1 511.8, 417.1 511.9 C 425.3 512, 426.1 512.2, 425 513.6 C 423.9 514.8, 421.8 515, 413.1 514.6 C 407 514.4, 404.4 514.5, 407 514.9 C 411.7 515.6, 411.6 515.7, 404.5 517.4 C 403.4 517.6, 408.6 517.8, 416 517.6 C 427.4 517.5, 430.4 517.1, 435.3 515.1 C 445 511.3, 446.5 509.4, 446.5 501.1 C 446.5 491.9, 444.5 489.2, 441.1 493.9 C 437.7 498.7, 436.9 497.6, 439.2 491.2 C 441.2 485.7, 441.2 480, 439.1 480 C 438.7 480, 436.5 481.3, 434.4 482.8 M 350.2 489.9 C 347.5 491.7, 347 494.9, 349.1 496.4 C 351.2 497.8, 351.2 497.8, 348.4 498.2 C 346.7 498.4, 345.6 499, 345.8 499.8 C 345.9 500.4, 345.1 501, 344.1 501 C 343 501, 341.8 501.5, 341.5 502 C 340.9 503, 344.7 503.5, 349.8 503.2 C 351.8 503.1, 352 503.3, 350.9 504.6 C 350.1 505.6, 348.8 505.9, 347.3 505.6 C 346 505.3, 343.9 504.7, 342.5 504.4 C 341 504, 340 504.2, 340 504.9 C 340 505.5, 341 506, 342.3 506 C 345.2 506, 349.6 508.9, 346.8 509 C 345.8 509, 342.8 508.1, 340 507.1 C 337.3 506, 335 505.6, 335 506.1 C 335 506.6, 335.5 507, 336 507 C 338 507, 336.9 508.9, 334.1 510.1 L 331.3 511.4 335.1 513.3 C 337.3 514.3, 339 515.6, 339 516.1 C 339 517.3, 338.7 517.3, 335.4 515.5 C 332.2 513.8, 328.4 513.3, 330.9 514.9 C 331.6 515.4, 332 516.3, 331.6 516.9 C 331.1 517.6, 331.5 517.7, 332.6 517.3 C 333.8 516.9, 334.1 517, 333.6 517.8 C 333.2 518.5, 333.5 519, 334.4 519 C 335.3 519, 336 519.4, 336 519.9 C 336 523.6, 375.1 526.2, 384.2 523.1 C 391.2 520.8, 390.4 516, 383.1 516 C 375.3 516, 366 514.8, 366.6 513.9 C 366.9 513.4, 370.6 513, 374.9 513 C 390.3 513, 392.6 511.1, 381.9 507.1 C 378.4 505.8, 374.6 504.4, 373.5 503.9 C 372.4 503.4, 369.3 502.6, 366.5 502.1 C 357.3 500.4, 355.6 498.9, 363.5 499.5 C 370 500, 374.7 501.1, 385.7 504.5 C 389.5 505.7, 389.9 505.7, 389.7 504.1 C 389.7 503.1, 389.1 502.3, 388.5 502.3 C 388 502.3, 385.7 501.2, 383.5 499.8 C 374.4 494.1, 353.3 487.9, 350.2 489.9 M 442.7 515.7 C 441.1 517.3, 430 520.1, 421 521.1 C 401.6 523.4, 401.2 523.5, 404.3 524.4 C 405.9 524.9, 413.5 525, 421.3 524.8 C 434.8 524.4, 435.8 524.2, 441 521.3 C 446.4 518.4, 448 515.8, 445 515.2 C 444.1 515.1, 443.1 515.3, 442.7 515.7 M 329.8 519.9 C 331 521, 332 522.2, 332 522.7 C 332 523.2, 333.4 524.9, 335 526.5 C 337.2 528.6, 337.7 529.6, 336.8 530.2 C 335.9 530.8, 336.1 531, 337.5 530.9 C 338.6 530.8, 340.2 531, 341 531.3 C 341.8 531.6, 345.2 532.7, 348.5 533.7 C 354.1 535.4, 354.3 535.5, 351.1 535.8 C 349.3 536, 345.6 535.4, 342.9 534.6 C 340.3 533.7, 337.5 533, 336.8 533 C 336.1 533, 333.7 532.1, 331.6 530.9 C 329.2 529.7, 328 529.4, 328.2 530.1 C 328.6 531.4, 330.2 532.4, 339.4 537.3 C 342 538.7, 343.7 540.1, 343.2 540.4 C 341.9 541.2, 334.1 538.4, 331.8 536.3 C 329.1 533.9, 328.6 535.3, 331.1 538.4 C 334.6 542.8, 351.2 549.4, 362.3 550.8 C 367.4 551.4, 367 553, 361.6 553 C 355.4 553, 335.1 547.9, 332.2 545.7 C 330.1 544, 329.6 545.8, 331.5 548 C 334.1 550.9, 342.8 555.7, 349.6 558 C 359.4 561.4, 363.3 560.8, 382.8 553 C 385.5 551.8, 385.7 550, 383 550 C 380.1 550, 380.6 548.3, 384 546.5 C 387.3 544.8, 388.5 539, 385.5 539 C 383.6 539, 383.5 536.4, 385.4 535.7 C 386.6 535.2, 388.7 527.4, 387.8 526.6 C 387.7 526.4, 381.9 526.6, 375 527 C 352.8 528.3, 335.9 525.4, 330.9 519.4 C 330.3 518.6, 329.2 518, 328.6 518 C 328 518.1, 328.5 518.9, 329.8 519.9 M 445.1 521.3 C 441.9 525.3, 430.9 528, 412.1 529.6 C 403.8 530.2, 403.7 530.3, 406.4 531.7 C 410.2 533.7, 429.3 533, 436.7 530.6 C 443.5 528.4, 447.3 525.2, 446.8 522.1 C 446.5 519.9, 446.4 519.8, 445.1 521.3 M 392.1 532.2 C 391.9 540.7, 391.1 546, 389.8 547.7 C 389.3 548.3, 388.6 552.3, 388.3 556.4 C 387.7 563.7, 387.8 564, 389.9 564 C 391 564, 392.1 563.3, 392.1 562.5 C 392.3 560.1, 392.5 559.7, 393.9 557 C 395.8 553.7, 395.5 528.1, 393.6 526.2 C 392.5 525.1, 392.3 526.1, 392.1 532.2 M 444.4 530.9 C 439.8 535, 406.4 539.1, 404.4 535.8 C 404.1 535.4, 403 535, 401.9 535 C 400.8 535, 400.2 535.5, 400.5 536 C 400.8 536.6, 402 537, 403.1 537 C 404.1 537, 405 537.5, 405 538 C 405 538.6, 407.6 539, 410.8 539 C 414.8 539, 416.1 539.3, 415 540 C 412.9 541.3, 408.3 541.2, 404.3 539.8 C 402.5 539.2, 400.7 538.9, 400.3 539.3 C 399.4 540.3, 402.7 542.6, 407.5 544.4 C 410.4 545.4, 410.9 545.9, 409.3 545.9 C 404.7 546.1, 407.2 547.8, 412.9 548.5 C 423.8 549.7, 442 546.7, 444.7 543.1 C 446.2 541.1, 446.4 535.4, 445 534.5 C 444.2 534, 444.3 533.4, 445.1 532.4 C 446.4 530.8, 445.9 529.6, 444.4 530.9 M 617.7 549 C 616.1 549.5, 614.3 550.6, 613.6 551.5 C 612 553.7, 612.5 564.5, 614.3 567.3 C 617.7 572.6, 632.7 578, 643.6 578 C 651.9 578, 653.6 576.4, 646.3 575.6 C 629.9 573.6, 620.9 570.3, 616.6 564.8 C 613.9 561.2, 613.3 559, 615 559 C 615.5 559, 616.3 559.7, 616.8 560.5 C 618.5 563.6, 627.3 569, 630.4 569 C 633.3 568.9, 633.4 568.9, 631.6 567.5 C 630.5 566.7, 628.8 566, 627.9 566 C 627 566, 624 564, 621.4 561.6 C 617.1 557.8, 616.7 557.1, 617.9 555.6 C 619.6 553.6, 617.2 553.2, 615.2 555.2 C 614.3 556.1, 614 556.1, 614 555.2 C 614 550.2, 634.1 549.3, 643.5 554 C 646.3 555.3, 650.4 558.2, 652.8 560.3 C 657.3 564.5, 657.7 564.5, 655.9 560.6 C 651.9 551.8, 630.3 545.2, 617.7 549 M 433 552.2 C 431.5 552.9, 424.5 553.3, 415.7 553.3 L 400.8 553.3 401.2 557.1 C 401.4 559.3, 401.2 561, 400.8 561 C 400.3 561, 400 563.4, 400 566.3 C 400 569.7, 400.3 571, 400.9 570.1 C 401.4 569.3, 401.6 568.1, 401.3 567.4 C 400.8 566, 403.9 560, 405.2 560 C 406 560, 406.4 561.8, 406 563.5 C 405.9 564.1, 405.6 565.4, 405.5 566.5 C 405.3 567.6, 404.9 569.3, 404.5 570.2 C 403.8 571.9, 408.2 575, 411.5 575 C 412.3 575, 413 575.4, 413 575.9 C 413 576.9, 408 575.7, 404.7 573.9 C 402 572.5, 401.1 573.9, 403.5 575.6 C 405.8 577.3, 416.7 580.6, 423.2 581.5 C 427.7 582.1, 443 580, 449.7 577.9 C 460 574.6, 463.5 565, 457.1 557.6 C 454.2 554.2, 442.1 557.1, 435.4 562.7 C 429.2 568, 424.7 578.1, 427.8 580 C 429.2 580.8, 429.1 580.9, 426.9 581 C 424.3 581, 424.3 580.9, 425.1 576.6 C 427.2 565.1, 439 554.1, 449.2 554 C 452.1 553.9, 452.3 553.8, 450.6 552.9 C 442.8 548.3, 422 562.5, 422 572.4 C 422 574.8, 421.7 575.1, 421 574 C 420.5 573.2, 420 570.8, 420 568.7 C 420 564.1, 426.1 557.4, 433.4 553.9 C 439.5 551.1, 439.1 549.5, 433 552.2 M 331 553.8 C 331 555.5, 339.1 562.1, 343.8 564.1 C 348.7 566.2, 380.3 567, 381.5 565 C 381.9 564.4, 380.8 564, 378.8 564 C 357.7 563.8, 339.2 559.9, 332.8 554.2 C 331.8 553.4, 331 553.2, 331 553.8 M 326 555.8 C 326 559, 331.8 565.9, 338 570.3 C 340 571.7, 340.1 572, 338.7 572 C 336.1 572, 331.9 569.6, 329.1 566.6 C 325.7 562.9, 325 564.1, 325 573.5 C 325 586.9, 327.9 593.4, 337.1 600.3 L 341.7 603.8 341.2 598.7 C 340.8 593.8, 341 593.2, 344.9 588.8 C 351.8 581, 358.2 578.6, 371.7 578.5 C 388.7 578.5, 384.7 576.3, 366.7 575.8 C 353.2 575.4, 348 574.4, 348 572 C 348 571.5, 354.7 571.2, 363.7 571.3 C 374.8 571.4, 379.4 571.2, 379.7 570.3 C 380 569.5, 375.9 569.1, 364.5 569.1 C 351.6 569, 348.1 568.6, 344 567 C 341.3 565.9, 338.4 565.3, 337.7 565.6 C 336.8 565.9, 334.2 563.8, 331.1 560.4 C 328.3 557.2, 326 555.2, 326 555.8 M 215.5 564.1 C 212.8 564.6, 207.4 565.5, 203.5 566 C 196.6 567, 188.4 569.5, 186.6 571.2 C 186 571.6, 184.7 572, 183.6 572 C 181.7 572.1, 181.6 572.1, 183.3 573.1 C 184.2 573.6, 185.5 573.8, 186 573.5 C 187.9 572.3, 200.5 569.1, 206 568.5 C 213.2 567.6, 222 565.1, 222 563.9 C 222 563.4, 221.7 563.1, 221.3 563.1 C 220.8 563.2, 218.3 563.6, 215.5 564.1 M 685.5 576 C 687.2 577.1, 688.8 578, 689.3 578 C 689.7 578, 691.7 579, 693.8 580.3 C 695.8 581.6, 699.8 583.4, 702.5 584.4 C 710 587.2, 713.7 588.8, 721.8 592.7 C 729.4 596.3, 732.2 596.6, 727.3 593.3 C 723.3 590.5, 718.7 588.3, 708.9 584.5 C 704.2 582.7, 697.6 579.9, 694.4 578.2 C 691.2 576.6, 687.2 575, 685.5 574.6 L 682.5 573.9 685.5 576 M 553 577.7 C 545 581.8, 546.8 586.8, 558.3 592 C 573 598.6, 580 598.1, 580 590.5 C 580 581.4, 562.2 572.9, 553 577.7 M 552.3 580.6 C 550.6 581.3, 550.6 584.5, 552.3 585.8 C 554 587.3, 568.7 592.8, 572.7 593.6 C 578.6 594.7, 578 587.2, 571.7 582.8 C 568.7 580.7, 555.4 579.2, 552.3 580.6 M 132.5 583.6 C 125.4 585.7, 117.7 589.5, 110.9 594.1 C 104.1 598.7, 104.2 598.6, 107.5 599.3 C 108.9 599.5, 109.8 599.5, 109.5 599.2 C 107.8 597.5, 130.4 586.3, 137.5 585.3 C 141.8 584.8, 142.1 584.6, 140.5 583.3 C 138.3 581.8, 138.8 581.7, 132.5 583.6 M 215.5 582.5 C 215 582.7, 211.9 583.6, 208.7 584.5 C 187.7 590.3, 189.9 610.4, 211.5 610.4 C 228.2 610.3, 242.1 600.4, 238.8 591 C 236.9 585.4, 222.4 580.1, 215.5 582.5 M 360 583.4 C 351 585.8, 343 592.6, 343 597.9 C 343 604.4, 366.3 608.8, 377.6 604.5 C 388.5 600.4, 391.8 593.7, 386.2 587.1 C 382.2 582.2, 370.4 580.6, 360 583.4 M 206.4 588.3 C 192.3 595.1, 195 608, 210.5 608 C 218.6 608, 227.3 605.3, 232 601.3 C 237 597, 237.3 593.6, 233 589.5 C 228.6 585.3, 214.2 584.6, 206.4 588.3 M 156.8 596.2 C 155.8 597.2, 155 598.4, 155 599 C 155 602.5, 140.3 610, 129 612.1 C 113.5 615, 106 614.5, 106 610.5 C 106 607.1, 104.3 606.5, 103.5 609.7 C 101.9 616, 110.8 618.4, 125.6 615.5 C 142.7 612.1, 153.5 606.8, 158 599.4 C 160.5 595.5, 159.6 593.2, 156.8 596.2 M 510.7 594.6 C 508.8 596.5, 510.4 597.8, 515.6 598.3 C 518.6 598.6, 521.8 599.4, 522.6 600.1 C 524.7 601.8, 543.4 602.2, 542 600.5 C 540.5 598.7, 534.6 598, 530.8 599.1 C 528.3 599.8, 526.9 599.6, 524.5 598.2 C 522.8 597.2, 519.9 596.1, 518 595.8 C 516.1 595.4, 513.8 594.9, 512.9 594.6 C 512.1 594.2, 511.1 594.3, 510.7 594.6 M 683 594.9 C 683 595.3, 685.6 596.5, 688.8 597.5 C 691.9 598.5, 696.8 600.3, 699.5 601.6 C 702.3 602.8, 708.8 605.5, 714 607.5 C 719.2 609.5, 724.5 611.5, 725.8 612 C 728.2 613, 728.8 611.9, 726.8 610.3 C 726.1 609.7, 719.4 606.7, 712 603.5 C 693.6 595.6, 683 592.4, 683 594.9 M 681 608 C 676.3 612.7, 681.9 620, 690.1 620 C 697.2 620, 699 614.8, 693.6 609.4 C 689.5 605.3, 684.3 604.7, 681 608 M 682.3 610.6 C 681.2 613.5, 683.7 616.9, 687.5 617.6 C 693.4 618.7, 696 615, 692 611 C 689.5 608.5, 683.2 608.2, 682.3 610.6 M 64.5 610.7 C 63.4 611, 60.6 612.1, 58.3 613.1 C 56 614.1, 53.4 615, 52.6 615 C 50.9 615, 36.4 623.5, 35.5 625.1 C 34.4 626.9, 36.7 626, 49.6 619.7 C 56.7 616.2, 64.1 612.6, 66 611.7 C 69.4 610.1, 68.7 609.7, 64.5 610.7 M 543.2 612.1 C 543.5 612.9, 545.1 613.6, 546.8 613.8 C 548.6 614, 550 614.5, 550 615 C 550 616.1, 547 617.1, 545.9 616.4 C 545.4 616.1, 545 616.5, 545 617.3 C 545 618.1, 545.9 619.1, 547 619.6 C 548.1 620.1, 553 624.5, 558 629.4 C 562.9 634.3, 567 637.8, 567 637.2 C 567 635.9, 561.1 629, 556.5 624.9 C 547.1 616.6, 546.9 616.4, 552.3 618.5 C 553.3 618.9, 554 618.8, 554 618.1 C 554 617.5, 553.3 617, 552.4 617 C 551.2 617, 551 616.7, 551.8 615.7 C 553.1 614.1, 551 612.6, 546.1 611.5 C 543.5 611, 542.9 611.1, 543.2 612.1 M 611 625.7 C 611 627.5, 622.4 642.5, 630.4 650.8 C 634.4 655, 639.5 660.5, 641.7 663 C 644 665.5, 646.1 667.2, 646.5 666.9 C 647.5 665.8, 637.4 653.2, 626.6 642 C 621 636.2, 615.2 629.9, 613.8 628 C 612.3 626.1, 611.1 625, 611 625.7 M 114.5 631.9 C 102.8 635.2, 88.5 646.4, 83.5 656.1 C 79.6 663.6, 84.2 668.7, 92.8 666.2 C 94.8 665.7, 99.9 664.7, 104 664.1 C 108.1 663.5, 114.7 662.4, 118.5 661.5 C 122.4 660.7, 128 659.5, 131 658.9 C 145.3 656.1, 149.3 653.5, 148 647.7 C 144.8 633.4, 131.4 627, 114.5 631.9 M 506.5 632 C 502.3 634.2, 497 638.8, 497 640.3 C 497 640.8, 498.7 639.9, 500.8 638.2 C 511 630.3, 519.8 631.3, 531.4 641.9 C 539.5 649.3, 542 652.5, 542 655.8 C 542 657.3, 542.5 658, 543.3 657.7 C 546 656.8, 543.6 652.4, 535.8 643.9 C 524.1 631.1, 515.3 627.5, 506.5 632 M 116.4 634.4 C 103.8 637.5, 86 651.5, 86 658.5 C 86 663.4, 87.9 664, 98 662.4 C 117.7 659.3, 137.1 655.3, 138.2 654.2 C 139.5 652.9, 134.8 646.7, 131 644.8 C 122.8 640.6, 110 644, 101.1 652.7 C 96 657.7, 94.4 661.6, 99.3 657.4 C 104.2 653, 105.2 653, 100.5 657.3 C 97.8 659.9, 95.2 662, 94.8 662 C 91.6 662.1, 95.3 653.7, 100.7 649 C 114.9 636.5, 137 637.7, 139.7 651.1 C 140.3 654.2, 141.7 654.7, 144.3 652.7 C 145.9 651.6, 145.9 651.2, 144.5 646.8 C 140.6 635.4, 130.6 631, 116.4 634.4 M 240 652.9 C 239.5 654, 239 655.7, 239 656.7 C 239 659.3, 233.2 669, 228.2 674.9 C 223.1 680.9, 212.9 687.8, 202.3 692.6 C 194.8 696, 194.7 696.1, 199 695.5 C 212.8 693.7, 232.5 677.6, 239.3 662.6 C 242.2 656, 242.9 647.5, 240 652.9 M 661 671.5 C 661 672.5, 668.6 675.8, 672.5 676.4 C 674.7 676.8, 680.8 678.7, 686 680.7 C 691.2 682.6, 699.8 685.4, 705.1 687 C 716 690.1, 724.3 694, 728.3 697.8 C 729.8 699.2, 731 699.9, 731 699.2 C 731 697.9, 725.4 692.5, 722.6 691.1 C 717.5 688.7, 712.8 686.9, 702.5 683.4 C 696.5 681.4, 691.1 679.5, 690.5 679 C 686.7 676.2, 661 669.6, 661 671.5 M 535.7 674.7 C 534.9 675.4, 531.9 675.6, 512.3 676.6 C 498.3 677.2, 495.8 678.4, 506.2 679.4 C 511.9 679.9, 518.2 679.3, 527.8 677.4 C 530.4 676.9, 531 677.1, 531 678.4 C 531 680, 531.2 680, 534 678.3 C 535.7 677.4, 537 676, 537 675.3 C 537 673.8, 536.6 673.7, 535.7 674.7 M 309 685.9 C 301.4 687.5, 293.8 693.5, 289.9 701.2 C 287 706.8, 287.4 710.3, 291.2 713.5 C 301 721.8, 325 709, 325 695.5 C 325 687.4, 319.1 683.9, 309 685.9 M 304.5 690.7 C 297.5 694.3, 293 700.4, 293 706.4 C 293 711, 295.6 712.4, 302.3 711.7 C 314.4 710.2, 324.3 698.7, 319.6 691.5 C 317.6 688.5, 309.7 688.1, 304.5 690.7 M 531 691.7 C 528.5 692.4, 525.2 693.5, 523.5 694.1 C 518.4 695.8, 508.4 696.4, 505 695.1 C 503.2 694.5, 500.6 694.3, 499.3 694.7 C 491.5 696.6, 511.8 699, 520.5 697.2 C 530.5 695, 534.8 693.7, 537.1 691.9 C 540.1 689.6, 538 689.5, 531 691.7 M 307.6 694.5 C 303.5 695.9, 299.2 699.5, 300.2 700.6 C 300.6 700.9, 301.8 700.2, 302.9 699.1 C 305.2 696.8, 309.3 695.5, 311.5 696.4 C 313.4 697.1, 313.4 698.5, 311.5 700.4 C 310.7 701.2, 310 702.3, 310 702.8 C 310 704.2, 307.3 705.1, 305.4 704.3 C 304.5 704, 303.4 704.3, 302.9 705.1 C 302.1 706.3, 301.8 706.3, 301 705 C 300.2 703.8, 300.1 704.1, 300.3 706 C 300.8 709.6, 304.3 709.7, 308.8 706.4 C 313.5 702.8, 314 702.2, 314 698.4 C 314 693.9, 312.3 692.9, 307.6 694.5 M 462 699.3 C 453.4 703.5, 450.6 707.5, 451.4 714.5 C 453 729.6, 481.6 735.3, 497.7 723.8 C 517.2 709.7, 485.3 687.7, 462 699.3 M 467 700.5 C 453.3 704.9, 450.7 716.2, 461.8 723.2 C 465 725.2, 466.8 725.5, 476 725.5 C 487.4 725.5, 490.9 724.4, 494.2 720 C 496 717.5, 498.4 706.6, 496.9 707.6 C 496.5 707.8, 495.9 707.2, 495.5 706.1 C 493.9 701.1, 476.1 697.5, 467 700.5 M 465.4 703.9 C 455.2 708.5, 454.2 718.7, 463.6 722.6 C 467.5 724.2, 474.6 724.5, 475.5 723 C 475.9 722.4, 474.7 722, 472.5 722 C 465.4 722, 463.1 717.9, 468 713.8 C 470.5 711.8, 470.6 710.6, 468.3 711.8 C 467.3 712.3, 465.9 712.5, 465.1 712.2 C 464.3 712, 464 712.2, 464.3 712.7 C 464.6 713.2, 464 713.7, 462.9 713.7 C 458.5 714.1, 464.3 707.9, 470.3 706 C 474.2 704.8, 474.8 702.7, 471.4 702.3 C 470.4 702.2, 467.7 702.9, 465.4 703.9 M 71.5 712.7 C 68.2 713.5, 64.6 714.5, 63.5 715 C 62.4 715.5, 60.4 716.2, 59 716.5 C 55.7 717.4, 43.7 721.8, 38 724.2 C 29.2 728, 27.8 728.8, 28.8 729.4 C 29.4 729.7, 30.1 729.6, 30.5 729 C 30.8 728.5, 31.8 728, 32.7 728 C 33.5 728, 35.6 727.4, 37.3 726.6 C 40.6 725.1, 54.2 720.7, 67 717 C 76 714.4, 80 712.8, 80 711.8 C 80 710.8, 78.9 710.9, 71.5 712.7" stroke="none" fill="#1b1f3a" fill-rule="evenodd"/></svg>