<svg xmlns="http://www.w3.org/2000/svg" viewBox="0 0 768 768" version="1.1" preserveAspectRatio="xMidYMid meet">
	<path d="M 475.973 102.692 C 474.613 103.623, 473.144 104.860, 472.709 105.442 C 471.364 107.240, 472.727 114.081, 474.889 116.382 C 476.018 117.583, 478.532 123.421, 480.475 129.354 C 483.580 138.832, 485.486 145.607, 491.631 169 C 492.425 172.025, 493.732 176.975, 494.534 180 C 495.336 183.025, 496.664 188.650, 497.484 192.500 C 498.304 196.350, 499.669 202.425, 500.517 206 C 505.287 226.105, 508.093 242.947, 507.822 249.845 C 507.749 251.685, 508.172 253.488, 508.760 253.852 C 511.192 255.355, 510.683 337.260, 508.072 364.500 C 507.492 370.550, 506.718 383.488, 506.352 393.250 C 505.985 403.012, 505.395 411, 505.040 411 C 504.685 411, 502.417 409.546, 500 407.769 C 497.583 405.991, 494.232 403.808, 492.553 402.917 C 490.874 402.025, 486.827 398.015, 483.560 394.004 C 477.430 386.479, 462.645 373.995, 450.654 366.219 C 444.381 362.151, 443.867 361.559, 444.504 359.140 C 444.886 357.688, 445.273 355.127, 445.363 353.448 C 445.460 351.654, 446.876 348.768, 448.798 346.448 C 453.407 340.883, 456.639 333.599, 459.051 323.341 C 462.271 309.643, 462.240 309.713, 465.357 308.879 C 481.217 304.640, 476.339 267.025, 458.500 256 C 455.259 253.997, 455 253.469, 455 248.864 C 455 236.409, 439.789 216.424, 424.773 209.150 C 409.072 201.545, 404.412 200.586, 383 200.556 C 362.821 200.527, 362.794 200.531, 347 205.648 C 322.269 213.660, 300.794 234.024, 292.733 257.108 C 292.143 258.799, 287.919 260, 282.563 260 C 277.945 260, 264.521 263.702, 259.005 266.497 C 249.381 271.374, 247.187 276.902, 248.452 293.077 L 249.152 302.020 246.145 302.621 C 242.071 303.436, 239.221 306.306, 238.460 310.359 C 237.678 314.530, 239.701 335.572, 241.144 338.268 C 241.726 339.356, 242.415 344.804, 242.675 350.373 C 242.935 355.943, 243.665 361.558, 244.297 362.851 C 245.266 364.833, 245.139 365.425, 243.488 366.632 C 241.693 367.945, 241.447 367.826, 240.516 365.192 C 239.957 363.612, 238.218 361.010, 236.652 359.410 C 233.689 356.384, 233.225 355.180, 225.507 330.500 C 222.927 322.250, 219.477 311.225, 217.841 306 C 214.777 296.219, 198.294 245.254, 192.453 227.500 C 190.643 222, 187.992 214.675, 186.562 211.221 C 184.514 206.279, 184.189 204.515, 185.036 202.933 C 187.575 198.189, 182.507 193.309, 176.254 194.477 C 170.303 195.590, 166.878 200.034, 168.966 203.936 C 171.243 208.191, 129.345 230.925, 101.603 240.485 C 93.441 243.298, 92.712 244.831, 97.180 249.778 C 99.330 252.158, 101.620 256.353, 102.950 260.351 C 104.163 263.996, 105.571 267.235, 106.078 267.548 C 106.585 267.862, 107 270.504, 107 273.419 C 107 281.188, 111.119 286.907, 121.266 293.224 C 127.164 296.896, 127.931 298.302, 128.650 306.756 C 129.141 312.535, 130.017 314.909, 134.770 323.342 C 137.821 328.755, 140.981 333.439, 141.794 333.751 C 142.753 334.119, 145.313 332.032, 149.104 327.791 C 155.252 320.913, 161.251 316.918, 178.683 308.093 C 191.393 301.659, 203.937 297.279, 204.009 299.250 C 204.014 299.387, 207.640 310.075, 212.067 323 C 216.494 335.925, 221.005 349.585, 222.091 353.355 L 224.065 360.210 221.502 362.585 L 218.939 364.961 220.955 368.913 C 222.064 371.086, 223.428 373.146, 223.986 373.491 C 224.544 373.836, 225 375.223, 225 376.573 C 225 377.923, 225.428 379.809, 225.952 380.764 C 226.475 381.719, 227.682 384.300, 228.633 386.500 C 229.585 388.700, 231.571 392.075, 233.048 394 C 234.525 395.925, 236.034 398.625, 236.401 400 C 236.769 401.375, 237.501 404.075, 238.028 406 C 238.555 407.925, 239.907 413.459, 241.032 418.298 C 243.712 429.823, 245.591 433.578, 249.639 435.499 C 252.096 436.665, 253.183 438.017, 253.888 440.783 C 258.272 457.971, 259.323 462.241, 260.451 467.440 C 262.340 476.147, 267.116 479.268, 278 478.908 C 279.925 478.844, 284.623 480.076, 288.439 481.646 C 294.703 484.222, 295.460 484.840, 296.220 488 C 298.571 497.771, 304.347 503.462, 316.283 507.768 L 321.066 509.493 320.783 518.972 L 320.500 528.451 308.454 529.653 C 301.829 530.314, 292.291 532.012, 287.258 533.427 C 280.715 535.267, 275.698 536, 269.648 536 L 261.187 536 262.261 532.501 C 262.852 530.576, 263.065 528.731, 262.734 528.401 C 261.761 527.428, 260 528.976, 259.995 530.809 C 259.989 532.895, 255.429 538.748, 254.516 537.843 C 253.697 537.032, 256.545 531.255, 259.192 528.355 C 260.313 527.128, 260.734 525.954, 260.176 525.609 C 258.903 524.822, 253.142 531.416, 251.346 535.714 C 250.007 538.919, 249.842 539.003, 247.749 537.537 C 243.813 534.780, 236.934 536.353, 230.968 541.374 C 229.104 542.942, 225.752 544.184, 221.307 544.955 C 215.485 545.964, 201.758 549.626, 181.500 555.572 C 171.584 558.483, 167.136 558.856, 160.654 557.320 C 157.269 556.518, 153.037 556.090, 151.250 556.368 C 147.193 557, 147.203 556.888, 151.640 551.976 C 153.642 549.760, 155.005 547.671, 154.667 547.334 C 153.676 546.343, 147.374 551.659, 145.013 555.479 C 142.317 559.840, 141.636 559.934, 142.540 555.818 C 143.260 552.540, 145.815 547.500, 149.117 542.846 C 150.153 541.386, 151 539.698, 151 539.096 C 151 534.515, 140.909 548.339, 139.521 554.822 C 138.589 559.172, 137.850 558.240, 135.835 550.168 C 134.919 546.501, 134.132 544.343, 134.085 545.372 C 134.014 546.935, 133.747 547.035, 132.476 545.980 C 129.921 543.860, 129.929 545.301, 132.517 553.455 C 133.883 557.758, 135 561.476, 135 561.717 C 135 561.958, 133.132 560.557, 130.849 558.603 C 119.899 549.230, 113.781 550.312, 101.342 563.823 C 96.948 568.595, 92.572 573.699, 91.617 575.165 C 89.676 578.145, 84.743 580.420, 78 581.444 C 73.535 582.121, 69.412 583.770, 40.500 596.437 C 32.250 600.052, 24.993 603.007, 24.372 603.005 C 23.752 603.002, 22.685 603.675, 22 604.500 C 21.315 605.325, 21.199 606, 21.741 606 C 23.978 606, 33.644 603.940, 35.500 603.068 C 40.169 600.874, 59.625 593, 60.377 593 C 60.828 593, 62.616 592.358, 64.349 591.572 C 66.082 590.787, 72.675 588.465, 79 586.411 C 85.325 584.358, 90.927 582.300, 91.450 581.839 C 91.972 581.378, 93.658 581, 95.196 581 C 97.711 581, 107.321 578.222, 112.500 575.998 C 113.600 575.526, 116.133 574.641, 118.129 574.032 C 122.189 572.793, 126.459 569, 123.793 569 C 122.959 569, 119.299 570.350, 115.660 572 C 112.021 573.650, 107.964 575, 106.644 575 C 105.324 575, 102.614 575.681, 100.622 576.513 C 95.616 578.605, 95.791 576.583, 101.060 571.453 C 103.293 569.279, 106.658 565.190, 108.537 562.366 C 110.416 559.542, 112.675 556.955, 113.558 556.616 C 115.977 555.688, 121.305 555.904, 123 557 C 124.122 557.725, 123.592 557.973, 120.898 557.985 C 115.921 558.006, 110.752 561.667, 109.914 565.764 C 109.103 569.733, 109.376 569.755, 113.591 566.055 C 119.474 560.889, 126.293 560.290, 132.191 564.421 C 135.571 566.788, 138.852 566.399, 145.610 562.828 C 151.517 559.707, 151.867 559.645, 156.110 560.961 L 160.500 562.322 156.500 563.165 C 151.875 564.140, 149.734 565.096, 141.500 569.862 C 134.302 574.027, 134.526 573.859, 135.239 574.572 C 135.554 574.887, 138.441 573.935, 141.656 572.457 C 148.372 569.368, 154.948 567.258, 163.500 565.445 C 172.212 563.599, 178.727 561.782, 201 554.990 C 215.220 550.653, 221.881 549.095, 232.500 547.622 C 237.450 546.936, 242.850 545.800, 244.500 545.099 C 250.464 542.564, 260.726 541.034, 272 541 C 278.325 540.981, 287.550 540.300, 292.500 539.486 C 301.309 538.039, 307.765 537.568, 306.897 538.436 C 305.977 539.356, 286.731 542, 280.952 542 C 277.160 542, 275.114 542.375, 275.500 543 C 275.840 543.550, 279.622 544, 283.905 544 C 288.188 544, 295.924 544.315, 301.096 544.700 C 310.999 545.437, 310.281 546.187, 298.250 547.676 C 295.913 547.965, 294 548.658, 294 549.217 C 294 550.281, 303.959 549.587, 311.500 547.998 C 317.936 546.641, 321.956 546.453, 321.875 547.513 C 321.834 548.056, 321.319 548.362, 320.731 548.194 C 320.133 548.022, 320.231 548.573, 320.953 549.444 C 322.059 550.776, 321.904 551.010, 319.872 551.068 L 317.500 551.135 319.750 552.220 C 322.684 553.636, 322.623 555, 319.625 555 C 318.319 555, 315.752 555.300, 313.922 555.666 C 309.944 556.461, 312.225 557.810, 317.750 557.930 C 319.757 557.973, 321 558.510, 321 559.333 C 321 561.547, 320.084 561.809, 315.978 560.766 C 311.689 559.678, 307 560.396, 307 562.141 C 307 562.914, 307.423 562.894, 308.411 562.074 C 309.376 561.273, 310.027 561.235, 310.470 561.951 C 310.826 562.528, 312.906 563, 315.090 563 C 319.472 563, 321.114 564.986, 319.229 568.004 C 318.442 569.265, 318.454 570.054, 319.272 570.872 C 320.109 571.709, 318.761 572, 314.033 572 C 306.415 572, 306.887 573.245, 314.828 574.097 L 320.500 574.706 314.691 574.853 C 308.944 574.998, 307.213 576.985, 312.809 577.014 C 319.283 577.047, 320.572 578.494, 314.578 579 C 309.315 579.444, 308.638 579.750, 308.495 581.750 C 308.349 583.799, 308.772 584, 313.226 584 C 316.360 584, 317.887 584.374, 317.475 585.041 C 317.121 585.613, 315.970 585.808, 314.916 585.473 C 313.845 585.133, 313 585.336, 313 585.933 C 313 586.520, 313.648 587, 314.441 587 C 317.275 587, 317.080 589.034, 314.191 589.612 C 311.409 590.168, 311.309 590.358, 312.344 593.100 C 313.565 596.336, 315.497 597.142, 314.500 594 C 313.939 592.231, 314.307 592.008, 317.683 592.070 C 320.645 592.125, 321.052 592.322, 319.500 592.948 C 317.624 593.706, 317.669 593.835, 320.242 595.035 C 322.378 596.031, 322.738 596.611, 321.870 597.657 C 321.009 598.694, 321.153 599, 322.500 599 C 323.938 599, 324.026 599.264, 323 600.500 C 321.980 601.729, 322.049 602, 323.378 602 C 324.270 602, 325 602.450, 325 603 C 325 603.550, 325.702 604, 326.559 604 C 327.416 604, 327.856 604.424, 327.535 604.943 C 327.215 605.461, 329.044 606.811, 331.600 607.941 C 335.596 609.709, 336.068 610.213, 334.966 611.541 C 334.077 612.612, 333.366 612.766, 332.642 612.042 C 332.069 611.469, 330.678 611.018, 329.550 611.040 C 327.792 611.074, 327.898 611.296, 330.290 612.593 C 332.764 613.935, 333.418 613.938, 336.057 612.621 C 338.568 611.369, 339.434 611.344, 341.592 612.463 C 343.979 613.702, 343.612 615.074, 340.750 615.610 C 340.337 615.687, 339.663 615.820, 339.250 615.905 C 338.837 615.991, 339.270 616.510, 340.212 617.059 C 342.093 618.155, 347 617.311, 347 615.892 C 347 615.401, 346.475 615, 345.833 615 C 345.192 615, 344.924 614.743, 345.239 614.428 C 345.553 614.114, 347.894 614.564, 350.440 615.428 C 359.882 618.634, 380.507 616.990, 387.385 612.483 C 390.323 610.558, 394 604.274, 394 601.179 C 394 599.693, 394.543 599.381, 396.483 599.752 C 397.849 600.013, 399.762 599.919, 400.733 599.542 C 403.141 598.609, 399.821 596.037, 396.059 595.921 C 394.645 595.877, 394.171 595.618, 395 595.342 C 399.339 593.895, 399.496 593.724, 397.074 593.085 C 395.740 592.733, 394.463 591.889, 394.237 591.210 C 393.923 590.269, 395.930 590.087, 402.662 590.446 C 409.934 590.834, 410.614 590.758, 406.500 590.021 C 400.368 588.921, 394.902 587.203, 397.167 587.086 C 398.083 587.039, 398.996 586.511, 399.195 585.914 C 399.448 585.156, 401.816 585.284, 407.029 586.339 C 411.138 587.170, 417.650 588.177, 421.500 588.576 L 428.500 589.302 424.500 590.623 C 417.766 592.845, 417 593.202, 417 594.117 C 417 595.327, 419.736 595.235, 420.500 594 C 420.840 593.450, 421.886 593, 422.824 593 C 423.762 593, 426.209 592.100, 428.261 591 C 430.314 589.900, 433.232 589.001, 434.746 589.003 C 437.172 589.005, 436.809 589.422, 431.700 592.503 C 428.510 594.426, 425.446 596, 424.891 596 C 424.336 596, 424.160 596.450, 424.500 597 C 424.840 597.550, 424.525 598, 423.800 598 C 421.597 598, 419.776 601.700, 421.629 602.411 C 424.145 603.377, 425.643 603.069, 424 601.924 C 422.847 601.120, 423.193 600.972, 425.500 601.284 C 427.150 601.507, 427.938 601.502, 427.250 601.272 C 425 600.519, 425.925 599.392, 430.750 597.006 C 433.363 595.714, 437.075 593.693, 439 592.515 C 440.925 591.337, 445.636 589.328, 449.469 588.052 C 460.373 584.420, 466.940 579.337, 463.792 576.967 C 462.351 575.882, 465.635 567.679, 467.836 566.865 C 470.746 565.788, 470.598 564.812, 467.637 565.555 C 465.513 566.088, 465.158 565.683, 464.114 561.539 C 462.692 555.893, 459.114 551.718, 453.272 548.890 C 449.221 546.929, 448.916 546.525, 449.663 544.124 C 450.112 542.681, 450.393 538.913, 450.287 535.750 L 450.094 530 460.297 530.015 C 467.244 530.024, 471.936 530.554, 475 531.674 C 478.429 532.928, 482.415 533.264, 491.750 533.087 C 503.020 532.874, 504 533.001, 504 534.678 C 504 536.349, 502.945 536.494, 491.250 536.428 C 484.237 536.389, 475.800 536.034, 472.500 535.639 L 466.500 534.922 470 536.625 C 472.673 537.926, 477.120 538.433, 488.825 538.773 L 504.151 539.217 503.825 570.027 C 503.646 586.972, 503.173 601.162, 502.774 601.560 C 502.375 601.959, 501.323 601.683, 500.437 600.948 C 499.551 600.212, 496.594 599.478, 493.866 599.315 C 491.137 599.153, 488.056 598.565, 487.018 598.010 C 484.100 596.448, 474 596.708, 474 598.346 C 474 599.276, 476.391 599.982, 481.750 600.635 L 489.500 601.579 480.750 602.408 C 468.885 603.532, 468.981 605.539, 481 607.631 L 487.500 608.763 477.376 608.881 C 467.567 608.996, 463.378 609.881, 455 613.607 C 441.357 619.673, 436.683 623.897, 431.320 635 C 418.223 662.118, 435.550 688.555, 468.733 692.085 C 473.555 692.598, 479.750 693.437, 482.500 693.949 C 488.993 695.159, 497.034 695.244, 495 694.082 C 494.175 693.611, 491.475 692.901, 489 692.505 C 486.525 692.109, 481.912 691.132, 478.749 690.334 C 475.585 689.536, 472.548 689.161, 472 689.500 C 469.289 691.175, 448.566 683.574, 449.464 681.234 C 449.831 680.278, 449.434 680.045, 448.140 680.455 C 445.905 681.165, 439.343 674.450, 435.821 667.849 C 433.790 664.044, 433.504 662.125, 433.530 652.500 C 433.564 639.727, 435.686 634.591, 444.985 624.760 C 450.370 619.067, 451.878 618.590, 447.027 624.114 C 440.878 631.115, 438 638.831, 438 648.314 C 438 653.026, 438.450 657.160, 439 657.500 C 439.640 657.896, 440 654.655, 440 648.494 L 440 638.870 445.250 633.752 C 448.137 630.937, 449.248 629.452, 447.719 630.452 C 446.189 631.452, 444.667 632, 444.335 631.669 C 443.659 630.993, 456.025 618.003, 457.346 618.001 C 457.811 618, 459.386 617.166, 460.846 616.146 C 466.614 612.116, 480.500 609.540, 480.500 612.500 C 480.500 613.050, 479.038 613.931, 477.250 614.457 C 472.796 615.768, 473.176 616.819, 478.250 617.227 L 482.500 617.570 479.124 619.148 C 476.987 620.146, 476.177 620.991, 476.917 621.449 C 477.561 621.847, 478.789 621.590, 479.647 620.878 C 480.701 620.003, 485.305 619.502, 493.853 619.332 L 506.500 619.080 499 620.374 C 491.981 621.585, 489.684 622.280, 482.750 625.293 C 479.789 626.580, 478.843 628.678, 481.750 627.512 C 503.241 618.897, 528.307 620.131, 538.165 630.290 C 541.331 633.552, 542 633.895, 542 632.255 C 542 627.194, 533.400 621.360, 522.250 618.859 C 519.362 618.212, 517 617.332, 517 616.904 C 517 615.945, 522.852 616.745, 529.420 618.602 C 532.126 619.367, 534.530 619.804, 534.761 619.572 C 535.863 618.470, 533.657 615.131, 531.464 614.580 C 528.381 613.807, 528.237 612.024, 531.250 611.930 C 540.221 611.649, 536.074 605.971, 524.763 603.048 C 520.768 602.016, 516.825 600.945, 516 600.669 C 509.775 598.586, 509.260 598.781, 508.554 603.486 C 508.186 605.943, 507.460 608.215, 506.942 608.536 C 505.422 609.476, 505.900 602.332, 508.151 590.500 C 509.680 582.461, 510.365 574.049, 510.695 559.250 C 511.059 542.939, 511.415 539, 512.524 539 C 513.282 539, 516.192 539.491, 518.991 540.092 C 526.331 541.666, 529.079 540.140, 522 538.420 C 518.975 537.686, 515.263 537.066, 513.750 537.042 C 511.633 537.010, 511 536.515, 511 534.892 C 511 533.206, 511.451 532.895, 513.250 533.343 C 519.461 534.889, 541.460 539, 543.522 539 C 544.820 539, 546.160 539.450, 546.500 540 C 546.892 540.634, 544.229 541, 539.214 541 C 532.827 541, 530.992 541.351, 529.655 542.829 C 526.959 545.807, 527.511 546, 538.750 546.003 C 555.132 546.007, 570.107 544.168, 585 540.324 C 599.285 536.637, 605.456 536.135, 623 537.237 C 634.477 537.958, 638.672 538.545, 642.343 539.940 C 643.876 540.523, 646.118 541, 647.325 541 C 648.531 541, 650.114 541.953, 650.841 543.118 C 651.907 544.825, 652.826 545.128, 655.582 544.680 C 659.145 544.102, 659.837 544.763, 657.800 546.800 C 656.867 547.733, 656.867 548.267, 657.800 549.200 C 658.603 550.003, 659 550.038, 659 549.307 C 659 548.706, 659.788 547.914, 660.750 547.548 C 662.153 547.014, 662.252 547.131, 661.250 548.141 C 659.068 550.339, 659.763 550.500, 671.450 550.500 C 679.702 550.500, 683.263 550.874, 684.200 551.839 C 685.284 552.956, 684.215 553.061, 677.750 552.472 C 673.250 552.061, 670 552.146, 670 552.674 C 670 553.727, 719.454 578, 721.599 578 C 723.085 578, 740.587 587.292, 749.033 592.565 C 761.238 600.186, 763.828 601.507, 764.748 600.579 C 766.929 598.379, 738.164 580.058, 720 572.076 C 696.688 561.834, 688.281 557, 693.777 557 C 695.894 557, 700 554.297, 700 552.904 C 700 552.334, 697.387 552.043, 693.789 552.210 C 687.763 552.491, 687.577 552.426, 687.539 550 C 687.503 547.674, 687.056 547.451, 681.131 546.798 C 670.409 545.615, 672.176 544.868, 686.414 544.562 C 688.016 544.528, 689.516 543.938, 689.747 543.250 C 690.245 541.767, 690.972 541.827, 674 541.935 L 660.500 542.021 665.750 537.157 C 668.638 534.482, 671 531.777, 671 531.147 C 671 529.705, 668.341 529.639, 667.463 531.059 C 666.420 532.747, 653 538.955, 653 537.750 C 653 537.152, 654.350 534.270, 656 531.346 C 661.527 521.553, 658.369 521.028, 650.924 530.502 C 646.123 536.612, 644 537.813, 644 534.421 C 644 532.574, 647.654 526.777, 652.362 521.155 C 654.363 518.766, 655.988 515.841, 655.973 514.655 C 655.936 511.695, 643.671 524.825, 640.860 530.833 C 638.220 536.477, 637.437 535.487, 638.837 528.275 C 640.376 520.345, 640.804 506.998, 639.519 507.006 C 636.892 507.023, 634.792 513.571, 634.647 522.201 C 634.560 527.363, 634.020 531.381, 633.320 532.081 C 630.963 534.437, 630.260 522.335, 632.415 516.500 C 632.883 515.233, 631.995 515.783, 629.994 518 C 627.087 521.220, 626.874 521.921, 627.344 526.750 C 627.740 530.815, 627.541 532, 626.463 532 C 624.442 532, 623 528.722, 623 524.125 C 623 520.302, 621.731 518.009, 620.614 519.815 C 620.326 520.281, 619.908 523.101, 619.684 526.081 C 619.214 532.339, 619.055 532.453, 612.818 530.956 C 609.095 530.063, 606.637 530.146, 600.818 531.359 C 586.586 534.327, 586.646 534.328, 582.939 531.091 C 579.300 527.913, 576.743 527.953, 579.629 531.142 C 581.233 532.915, 581.238 533.029, 579.694 532.436 C 578.762 532.079, 578 531.473, 578 531.090 C 578 530.707, 576.589 528.476, 574.865 526.132 C 569.909 519.391, 569.164 522.598, 573.892 530.323 C 576.128 533.977, 577.271 536.658, 576.461 536.347 C 575.657 536.038, 575 535.421, 575 534.975 C 575 533.968, 569.334 530.481, 566.106 529.501 L 563.711 528.774 565.937 531.137 C 567.162 532.437, 568.610 534.319, 569.155 535.321 C 570.081 537.022, 569.993 537.042, 567.823 535.617 C 566.545 534.778, 564.838 533.171, 564.029 532.046 C 561.769 528.902, 560.752 529.620, 562.548 533.093 C 564.315 536.510, 563.988 537.809, 561.869 535.793 C 557.447 531.588, 550.595 526, 549.859 526 C 547.725 526, 549.367 529.151, 553.250 532.505 L 557.500 536.177 554 535.508 C 550.222 534.787, 537.324 532.821, 524.500 531.012 C 520.100 530.391, 515.487 529.676, 514.250 529.422 L 512 528.962 512 494.994 L 512 461.027 515.441 459.589 C 521.525 457.047, 523.375 451.846, 523.824 436.020 C 524.257 420.794, 523.215 417.160, 517.771 414.905 C 514.810 413.679, 514.786 413.606, 515.437 407.850 C 515.799 404.652, 516.757 393.140, 517.565 382.267 C 518.374 371.395, 519.528 356.200, 520.130 348.500 C 520.732 340.800, 521.287 314.794, 521.363 290.709 L 521.500 246.917 526.500 245.518 C 537.172 242.531, 539.619 242.011, 543.040 242.006 C 549.199 241.996, 558.194 244.943, 564.865 249.156 C 572.689 254.097, 575.124 254.883, 585.861 255.927 L 594.222 256.740 599.394 262.166 C 610.919 274.256, 622.981 279.064, 644 279.945 C 652.429 280.298, 659.415 281.065, 660.684 281.776 C 664.262 283.781, 666.126 283.350, 665.455 280.676 C 665.084 279.201, 665.443 277.877, 666.436 277.053 C 669.179 274.777, 668.239 269.437, 663.401 259.802 C 659.542 252.119, 658.898 250.038, 659.403 246.882 C 659.734 244.813, 659.509 240.809, 658.903 237.984 C 658.078 234.135, 658.107 231.231, 659.022 226.384 C 660.195 220.166, 660.141 219.724, 657.600 214.827 C 654.869 209.563, 654.795 206.994, 657.156 199.269 C 657.841 197.025, 657.790 195.038, 656.989 192.769 C 655.643 188.955, 657.166 184.468, 661.468 179.571 C 664.731 175.856, 664.147 175.349, 654.997 173.943 C 650.874 173.310, 647.050 172.444, 646.500 172.018 C 645.950 171.593, 644.377 170.899, 643.004 170.477 C 641.631 170.054, 638.031 167.564, 635.004 164.942 C 629.971 160.582, 624.341 157.503, 615 154 C 613.075 153.278, 604.300 149.212, 595.500 144.965 C 586.700 140.717, 576.125 136.007, 572 134.497 C 567.875 132.986, 553.700 126.454, 540.500 119.980 C 512.110 106.056, 504.819 103.556, 494.532 104.216 C 488.565 104.599, 486.930 104.362, 485.050 102.839 C 482.219 100.547, 479.179 100.498, 475.973 102.692 M 492.500 109.102 L 488.500 109.716 492.833 109.858 C 497.928 110.025, 498.107 111.956, 493.146 113.242 C 491.377 113.700, 490.194 114.505, 490.519 115.030 C 490.862 115.585, 492.745 115.151, 495.015 113.993 C 497.163 112.897, 499.443 112, 500.083 112 C 501.871 112, 499.254 114.785, 496.706 115.593 C 494.476 116.301, 491.277 119.003, 492.679 118.996 C 493.130 118.993, 495.525 117.647, 498 116.005 C 500.475 114.362, 502.650 113.464, 502.833 114.009 C 503.017 114.554, 503.734 115, 504.428 115 C 505.122 115, 506.547 116.013, 507.595 117.250 C 509.498 119.498, 509.498 119.498, 507.421 117.750 C 504.679 115.442, 501.773 115.540, 497.774 118.077 C 494.572 120.109, 495.715 120.151, 500.914 118.193 C 501.813 117.854, 502.065 118.086, 501.605 118.830 C 501.207 119.474, 501.246 120.014, 501.691 120.032 C 502.136 120.049, 503.398 120.742, 504.495 121.571 C 506.221 122.875, 506.288 123.221, 504.995 124.134 C 503.716 125.036, 503.738 125.113, 505.150 124.664 C 507.589 123.889, 513.272 128.328, 511.767 129.833 C 511.125 130.475, 510.128 130.993, 509.550 130.985 C 508.973 130.976, 509.175 130.526, 510 129.985 C 511.885 128.748, 509.704 126.970, 506.500 127.131 C 504.821 127.216, 504.781 127.305, 506.250 127.689 C 507.212 127.941, 508 128.579, 508 129.109 C 508 130.527, 504.354 128.364, 503.649 126.528 C 503.327 125.688, 502.486 124.986, 501.781 124.968 C 501.077 124.951, 499.600 124.232, 498.500 123.371 C 496.607 121.889, 496.688 121.844, 500 122.520 C 501.925 122.912, 503.180 122.898, 502.789 122.489 C 502.398 122.079, 499.723 121.631, 496.845 121.493 L 491.612 121.241 494.540 122.775 C 497.269 124.205, 497.333 124.367, 495.484 125.152 C 494.109 125.736, 494.498 125.818, 496.750 125.418 C 498.538 125.101, 500 125.262, 500 125.776 C 500 126.290, 498.538 127.180, 496.750 127.753 C 494.962 128.327, 494.288 128.842, 495.250 128.898 C 496.212 128.954, 497 129.450, 497 130 C 497 130.550, 497.475 131, 498.055 131 C 499.763 131, 507.819 134.899, 508.548 136.078 C 508.922 136.682, 510.314 136.887, 511.693 136.541 C 513.458 136.098, 513.957 136.260, 513.435 137.106 C 512.900 137.971, 513.485 138.099, 515.601 137.580 C 518.302 136.917, 518.388 136.983, 516.857 138.541 C 515.323 140.103, 514.627 139.965, 506.357 136.456 C 501.486 134.389, 496.927 132.252, 496.226 131.707 C 495.525 131.161, 494.727 130.940, 494.452 131.215 C 493.729 131.938, 495.864 133.349, 501 135.542 C 505.626 137.518, 509.006 140, 507.071 140 C 506.482 140, 506 140.450, 506 141 C 506 142.379, 508.745 142.265, 509.211 140.866 C 509.473 140.081, 510.037 140.160, 511.045 141.124 C 512.427 142.446, 525.316 149, 526.534 149 C 527.036 149, 529.035 149.833, 538.500 153.987 C 545.223 156.938, 548.285 158.054, 555 160.001 C 559.125 161.198, 564.379 162.860, 566.677 163.696 C 568.974 164.532, 571.361 165.046, 571.981 164.840 C 573.622 164.293, 555.703 149.855, 550.470 147.508 C 548.027 146.412, 545.800 144.920, 545.520 144.192 C 544.805 142.328, 548.189 143.524, 554.445 147.348 C 559.181 150.243, 561.384 152.033, 571.359 161.091 C 575.516 164.866, 575.594 167, 571.575 167 C 569.217 167, 543.915 158.939, 538.500 156.463 C 536.850 155.708, 533.026 154.133, 530.002 152.963 C 526.979 151.792, 523.947 150.371, 523.265 149.805 C 522.583 149.239, 521.321 149.046, 520.461 149.377 C 519.444 149.767, 519.144 149.576, 519.604 148.831 C 520.093 148.040, 519.593 147.873, 517.991 148.292 C 516.665 148.639, 513.918 148.131, 511.585 147.108 C 509.338 146.122, 505.925 144.719, 504 143.990 C 502.075 143.261, 499.938 142.235, 499.250 141.710 C 498.446 141.096, 498 141.113, 498 141.758 C 498 142.310, 500.521 144.037, 503.603 145.596 C 506.685 147.156, 508.721 148.593, 508.129 148.790 C 507.536 148.988, 506.040 148.441, 504.803 147.575 C 501.613 145.340, 499.277 145.412, 501.128 147.687 C 502.329 149.165, 502.282 149.293, 500.750 148.719 C 497.232 147.400, 498.823 151.419, 503 154.401 C 505.365 156.089, 505.378 156.149, 503.250 155.525 C 499.376 154.389, 500.772 156.709, 506 160.097 C 508.750 161.879, 511 163.516, 511 163.736 C 511 164.524, 506.485 162.707, 505.804 161.644 C 505.422 161.047, 504.849 160.818, 504.531 161.136 C 503.519 162.148, 505.030 164.682, 507.303 165.783 C 508.511 166.369, 514 169.020, 519.500 171.674 C 525 174.328, 529.651 176.840, 529.835 177.256 C 530.020 177.672, 530.621 177.734, 531.171 177.395 C 532.008 176.877, 525.268 172.180, 516.695 167.307 C 514.796 166.228, 514.939 166.132, 518.197 166.307 C 520.177 166.413, 521.634 166.770, 521.433 167.099 C 521.232 167.429, 522.290 168.315, 523.784 169.069 C 525.278 169.822, 528.300 171.626, 530.500 173.078 C 534.912 175.988, 538.696 177.335, 547.077 178.975 C 550.785 179.700, 553.802 181.076, 556.077 183.079 C 559.217 185.842, 559.293 186.036, 557 185.418 C 555.625 185.047, 552.700 183.823, 550.500 182.698 C 548.300 181.574, 545.210 180.743, 543.632 180.852 C 542.055 180.961, 540.115 180.510, 539.320 179.851 C 538.526 179.191, 535.991 178.540, 533.688 178.403 C 528.689 178.106, 515.316 173.136, 509.938 169.578 C 505.139 166.402, 503.285 168.128, 507.552 171.799 C 510.327 174.185, 510.341 174.243, 507.970 173.491 C 505.774 172.793, 505.659 172.884, 506.880 174.356 C 507.631 175.260, 508.865 176, 509.622 176 C 510.380 176, 511 176.450, 511 177 C 511 177.550, 510.325 178, 509.500 178 C 507.771 178, 507.474 180.557, 509.087 181.554 C 509.685 181.923, 509.936 183.136, 509.645 184.248 C 509.287 185.618, 510.061 187.215, 512.044 189.198 C 514.355 191.509, 514.554 191.993, 512.986 191.496 C 511.581 191.050, 511 191.324, 511 192.433 C 511 193.295, 511.730 194, 512.622 194 C 513.885 194, 513.992 194.305, 513.105 195.373 C 511.811 196.933, 512.633 199.989, 514.357 200.022 C 514.986 200.034, 516.625 200.942, 518 202.039 L 520.500 204.033 517.685 203.017 C 513.345 201.450, 512.479 201.803, 515.273 204 C 516.671 205.100, 518.293 206, 518.876 206 C 519.460 206, 519.678 206.675, 519.362 207.500 C 518.962 208.541, 519.431 209, 520.893 209 C 522.052 209, 523 209.410, 523 209.912 C 523 211.488, 519.830 210.439, 517.334 208.036 C 514.122 204.945, 513.092 206.280, 515.830 209.985 C 517.583 212.356, 517.686 212.817, 516.345 212.302 C 513.852 211.345, 515.701 213.916, 518.352 215.093 C 520.129 215.881, 519.982 215.946, 517.500 215.468 L 514.500 214.889 517.005 217.258 C 518.382 218.560, 520.407 220.147, 521.505 220.783 C 522.994 221.646, 523.107 221.947, 521.950 221.970 C 521.097 221.986, 519.899 221.499, 519.287 220.887 C 518.676 220.276, 517.618 219.961, 516.938 220.187 C 516.258 220.414, 518.018 222.087, 520.851 223.904 C 523.683 225.722, 526 227.375, 526 227.579 C 526 228.176, 520.688 225.986, 519.259 224.800 C 518.540 224.203, 517.692 223.974, 517.376 224.291 C 516.430 225.237, 517.993 226.998, 519.809 227.032 C 521.288 227.060, 521.257 227.247, 519.559 228.532 C 518.491 229.339, 518.068 230, 518.618 230 C 519.168 230, 520.491 230.706, 521.559 231.568 C 523.412 233.065, 523.370 233.108, 520.652 232.525 C 515.812 231.485, 518.073 234.103, 524.360 236.818 C 529.805 239.170, 530.459 239.236, 536.804 238.074 C 545.170 236.542, 554.755 238.328, 563.605 243.070 C 575.929 249.673, 577.655 250.311, 585.277 251.083 C 594.135 251.979, 597.992 253.918, 602.785 259.882 C 609.274 267.957, 627.499 274.835, 642.636 274.922 C 647.660 274.951, 652.385 275.168, 653.136 275.404 C 657.151 276.667, 660 276.932, 660 276.045 C 660 274.590, 654.543 272.011, 651.300 271.932 C 648.523 271.865, 648.519 271.856, 650.806 270.755 C 652.613 269.885, 654.195 270.035, 658.129 271.449 C 663.692 273.450, 665.949 272.668, 664.140 269.368 C 663.577 268.341, 661.678 264.462, 659.921 260.750 C 657.675 256.005, 656.177 254, 654.878 254 C 653.861 254, 649.086 252.700, 644.265 251.112 C 639.444 249.523, 633.940 247.891, 632.033 247.485 C 630.126 247.078, 627.876 246.380, 627.033 245.933 C 626.190 245.486, 624.321 244.875, 622.880 244.574 C 621.440 244.273, 616.610 240.726, 612.147 236.692 C 607.684 232.658, 601.314 227.814, 597.991 225.928 C 594.668 224.043, 591.173 221.916, 590.225 221.203 C 586.510 218.409, 595.490 221.215, 601.131 224.611 C 604.228 226.475, 607.105 228, 607.524 228 C 607.943 228, 611.259 231.061, 614.893 234.801 C 621.920 242.035, 621.561 241.858, 640 247.140 C 645.775 248.794, 651.226 250.375, 652.112 250.654 C 653.906 251.218, 654.964 248.550, 654.986 243.408 C 654.998 240.664, 654.551 240.182, 651 239.118 C 648.800 238.459, 647 237.488, 647 236.960 C 647 236.432, 646.325 236, 645.500 236 C 644.675 236, 644 235.522, 644 234.938 C 644 234.353, 646.252 235.101, 649.005 236.599 C 654.530 239.606, 655.168 239.561, 653.916 236.252 C 653.042 233.941, 645.408 229.995, 637.905 227.974 C 635.757 227.396, 633.994 226.378, 633.986 225.711 C 633.979 225.045, 631.391 223.685, 628.236 222.688 C 619.720 219.999, 613.144 216.540, 607.068 211.556 C 604.083 209.107, 601.249 207.346, 600.769 207.643 C 600.290 207.939, 598.908 207.128, 597.699 205.841 C 595.080 203.052, 590.007 199.660, 589.386 200.281 C 589.144 200.523, 590.420 201.865, 592.223 203.263 C 598.197 207.896, 604.054 214.103, 603.421 215.128 C 603.073 215.691, 601.661 214.769, 600.237 213.050 C 597.746 210.043, 580.959 197, 579.580 197 C 578.211 197, 570.107 192.982, 569.502 192.003 C 568.693 190.695, 569.633 190.738, 573.654 192.192 C 578.738 194.030, 578.737 192.495, 573.651 187.058 C 571.093 184.323, 569.009 181.504, 569.020 180.793 C 569.031 180.082, 571.538 182.081, 574.592 185.237 C 578.837 189.623, 579.993 191.447, 579.504 192.987 C 578.977 194.648, 579.315 195, 581.433 195 C 582.845 195, 584 195.450, 584 196 C 584 196.550, 584.886 197, 585.969 197 C 587.052 197, 589.772 197.956, 592.012 199.123 C 594.253 200.291, 596.367 200.966, 596.710 200.623 C 597.053 200.281, 596.840 200, 596.238 200 C 595.636 200, 594.548 199.432, 593.821 198.738 C 593.095 198.044, 591.150 196.860, 589.500 196.107 C 587.781 195.322, 587.043 194.542, 587.771 194.278 C 589.500 193.654, 598.179 199.344, 601.665 203.387 C 608.518 211.333, 614.947 214.965, 635.500 222.504 C 642.650 225.127, 649.666 227.861, 651.091 228.580 C 653.662 229.877, 653.692 229.847, 654.868 224.752 C 656.249 218.769, 655.198 217.454, 645 212.403 C 641.975 210.905, 640.072 209.486, 640.771 209.249 C 641.469 209.013, 643.846 209.760, 646.051 210.910 C 651.271 213.630, 651.974 213.548, 651.110 210.317 C 650.535 208.168, 649.010 207.061, 643.446 204.753 C 639.626 203.168, 634.250 200.844, 631.500 199.588 C 628.750 198.333, 625.176 196.981, 623.559 196.586 C 618.505 195.349, 609.667 190.508, 601.680 184.601 C 590.384 176.247, 592.515 175.506, 604.893 183.484 C 615.608 190.389, 622.106 193.513, 637.116 198.972 C 653.025 204.759, 653.194 204.734, 652.760 196.683 L 652.500 191.867 646.500 189.169 C 640.760 186.589, 632.903 181.828, 630.250 179.323 C 627.721 176.935, 629.112 177.045, 633.075 179.547 C 635.316 180.962, 638.120 181.980, 639.306 181.810 C 640.924 181.577, 639.882 180.719, 635.131 178.371 C 630.852 176.256, 629.218 174.983, 630.091 174.444 C 630.844 173.979, 631.546 174.137, 631.774 174.823 C 631.990 175.470, 632.604 176, 633.138 176 C 634.099 176, 642.072 179.290, 645.033 180.908 C 648.206 182.642, 653.074 183.184, 654.541 181.966 C 656.944 179.972, 656.307 179.374, 649.250 176.992 C 641.612 174.414, 640.249 173.650, 630.500 166.473 C 626.650 163.638, 621.475 160.762, 619 160.081 C 616.525 159.399, 606.240 154.790, 596.144 149.837 C 586.049 144.884, 573.449 139.107, 568.144 137 C 562.840 134.892, 549.731 128.859, 539.014 123.594 C 513.001 110.814, 502.549 107.558, 492.500 109.102 M 479.513 114.979 C 479.180 115.518, 479.327 116.755, 479.840 117.729 C 482.439 122.667, 490.964 149.912, 496.976 172.500 C 498.733 179.100, 500.582 185.625, 501.085 187 C 501.588 188.375, 502.427 191.525, 502.949 194 C 503.471 196.475, 504.598 201.650, 505.453 205.500 C 508.211 217.919, 511.851 239.291, 511.967 243.750 C 511.985 244.438, 512.729 245, 513.620 245 C 514.991 245, 515.154 244.116, 514.678 239.250 C 513.480 227.012, 509.684 204.077, 507.932 198.500 C 507.414 196.850, 505.890 191, 504.546 185.500 C 503.201 180, 501.446 173.250, 500.644 170.500 C 499.842 167.750, 497.965 161.225, 496.474 156 C 493.422 145.312, 485.485 120.942, 483.689 116.750 C 482.500 113.973, 480.626 113.178, 479.513 114.979 M 570 153.059 C 570 153.641, 570.450 153.840, 571 153.500 C 571.550 153.160, 572 153.268, 572 153.740 C 572 154.212, 573.688 155.194, 575.750 155.922 C 579.341 157.190, 585.675 159.819, 591 162.251 C 594.691 163.937, 610.035 173.021, 613.500 175.572 C 617.596 178.587, 625.886 182.224, 627.324 181.638 C 627.971 181.374, 627.712 181.122, 626.750 181.079 C 625.788 181.036, 625 180.550, 625 180 C 625 179.450, 624.499 179, 623.886 179 C 623.273 179, 618.211 175.982, 612.636 172.294 C 603.008 165.925, 590.613 159.033, 586.427 157.723 C 585.367 157.391, 581.350 155.969, 577.500 154.564 C 569.348 151.588, 570 151.719, 570 153.059 M 371 205.569 C 362.794 206.981, 352.364 209.444, 351.550 210.162 C 351.027 210.623, 349.890 211, 349.022 211 C 348.154 211, 344.263 212.524, 340.376 214.387 C 310.063 228.914, 294.034 253.929, 294.008 286.750 C 294.003 291.837, 294.404 296, 294.897 296 C 295.690 296, 296.573 287.870, 297.287 274 C 297.675 266.457, 301.737 256.404, 303.632 258.299 C 303.991 258.658, 303.769 259.573, 303.139 260.333 C 302.505 261.096, 302.226 263.231, 302.515 265.107 C 302.923 267.752, 302.827 268.059, 302.082 266.500 C 301.405 265.084, 301.302 265.960, 301.728 269.500 C 302.280 274.082, 302.191 274.385, 300.665 273.128 C 299.129 271.862, 299 272.617, 299 282.878 C 299 292.285, 299.240 294, 300.559 294 C 301.416 294, 301.839 293.549, 301.498 292.997 C 301.157 292.445, 301.192 289.904, 301.575 287.349 C 302.251 282.843, 302.311 282.776, 303.600 285.102 L 304.929 287.500 304.965 284.809 C 304.984 283.329, 305.399 281.872, 305.886 281.571 C 307.107 280.816, 307.969 285.938, 307.043 288.449 C 304.738 294.702, 308.785 294.233, 312.500 287.816 C 314.150 284.967, 316.643 280.671, 318.039 278.271 C 324.654 266.900, 337.556 256.809, 362 243.890 C 376.124 236.425, 405.148 230.214, 420.500 231.371 C 427.404 231.892, 433.156 232.951, 443.919 235.684 C 446.265 236.279, 446.235 236.153, 442.919 231.499 C 435.809 221.520, 421.615 212.402, 406.124 207.862 C 399.704 205.981, 377.161 204.509, 371 205.569 M 179 208.021 C 179 209.133, 180.735 215.320, 182.856 221.771 C 184.976 228.222, 189.049 240.700, 191.906 249.500 C 194.763 258.300, 197.485 266.400, 197.955 267.500 C 198.424 268.600, 200.512 274.788, 202.594 281.250 C 204.880 288.344, 206.899 293, 207.690 293 C 209.647 293, 210.525 296.139, 197.482 256.500 C 192.958 242.750, 187.801 227, 186.023 221.500 C 181.687 208.091, 179 202.933, 179 208.021 M 164.307 213.758 C 153.223 221.525, 140.760 228.946, 133.500 232.100 C 130.200 233.534, 124.800 235.945, 121.500 237.458 C 118.200 238.971, 113.025 241.126, 110 242.247 C 106.975 243.368, 103.510 244.651, 102.301 245.098 C 100.102 245.912, 100.103 245.912, 103.551 252.528 C 105.448 256.168, 107 260.013, 107 261.073 C 107 263.581, 108.227 263.515, 110.595 260.881 C 112.398 258.875, 125.787 252, 127.891 252 C 128.431 252, 131.929 249.908, 135.664 247.351 C 143.667 241.872, 150.730 238, 152.720 238 C 154.862 238, 152.436 240.095, 147.108 242.847 C 144.692 244.095, 139.742 247.047, 136.108 249.408 C 132.474 251.768, 125.081 256.073, 119.679 258.974 L 109.859 264.249 114.929 268.935 C 117.718 271.512, 119.993 274.044, 119.985 274.560 C 119.968 275.613, 118.082 278.782, 117.939 278 C 117.888 277.725, 117.685 276.639, 117.488 275.587 C 117.065 273.335, 112.333 268.333, 111.455 269.211 C 110.173 270.494, 112.347 279.290, 114.577 281.842 L 116.899 284.500 118.430 282.359 C 120.599 279.326, 132.491 270.741, 139 267.510 C 142.025 266.008, 145.400 263.999, 146.500 263.045 C 150.331 259.723, 167.964 249.766, 171.787 248.766 C 176.175 247.618, 172.693 250.617, 165.718 253.993 C 161.748 255.914, 158.274 257.714, 157.997 257.993 C 157.721 258.272, 155.471 259.573, 152.997 260.885 C 141.183 267.149, 119 283.201, 119 285.484 C 119 286.168, 120.877 288.027, 123.171 289.614 C 130.042 294.368, 133 299.299, 133 306 C 133 310.771, 133.499 312.388, 136.059 315.923 C 137.742 318.246, 139.464 321.079, 139.885 322.218 C 140.645 324.272, 140.672 324.269, 142.968 321.895 L 145.285 319.500 143.493 322.639 C 140.466 327.938, 142.425 330.093, 145.904 325.291 C 151.493 317.576, 182.425 299.425, 196.719 295.473 C 201.898 294.041, 202.795 293.481, 202.080 292.127 C 200.578 289.280, 189.311 254.923, 184.002 237 C 180.696 225.838, 176.869 214.601, 176.082 213.744 C 175.701 213.329, 171.199 216.164, 166.080 220.046 C 160.960 223.928, 156.522 226.856, 156.219 226.552 C 155.545 225.878, 154.696 226.625, 165.520 218.375 C 171.813 213.579, 174.436 210.971, 174.197 209.750 C 173.708 207.262, 173.399 207.387, 164.307 213.758 M 403.500 235.624 C 392.530 237.293, 378.796 240.791, 372 243.647 C 363.784 247.099, 345.649 256.894, 345.167 258.140 C 344.983 258.613, 344.365 259, 343.794 259 C 341.677 259, 330.030 268.145, 325.096 273.682 C 317.418 282.296, 318.977 282.445, 327.750 273.936 C 339.122 262.906, 341.698 261.315, 332.500 271.003 C 328.100 275.637, 324.259 279.670, 323.966 279.964 C 323.672 280.259, 322.378 281.850, 321.092 283.500 C 318.862 286.359, 318.785 286.382, 319.452 284 C 320.120 281.614, 320.061 281.632, 318.166 284.387 C 313.782 290.761, 312.483 294.912, 314.305 296.733 C 315.211 297.640, 316.076 298.183, 316.226 297.940 C 316.377 297.698, 317.625 295.250, 319 292.500 C 322.097 286.307, 337.459 270.722, 348.944 262.123 C 376.511 241.482, 421.616 232.081, 443.296 242.457 C 446.116 243.806, 448.582 244.751, 448.777 244.556 C 449.575 243.758, 442.161 239.153, 437.500 237.551 C 432.534 235.845, 410.323 234.585, 403.500 235.624 M 442.675 251.250 C 453.693 262.924, 462.919 281.200, 463.070 291.654 C 463.109 294.319, 463.527 297.400, 464 298.500 C 465.754 302.582, 465.681 286.488, 463.915 279.773 C 462.634 274.902, 448.054 253.145, 444.130 250.250 C 439.763 247.027, 439.112 247.475, 442.675 251.250 M 323.327 254.632 C 317.370 259.115, 314.070 263.018, 314.747 264.782 C 315.042 265.552, 314.408 266.342, 313.254 266.644 C 311.157 267.192, 309.895 269.206, 308.082 274.899 C 306.414 280.137, 306.846 280.937, 308.945 276.500 C 310.609 272.985, 310.850 272.803, 310.934 275 C 310.988 276.393, 311.356 277.025, 311.765 276.427 C 312.169 275.837, 313.299 275.059, 314.275 274.699 C 315.592 274.213, 315.887 273.398, 315.421 271.540 C 314.958 269.695, 315.477 268.221, 317.396 265.941 C 318.828 264.239, 320 262.508, 320 262.093 C 320 261.679, 322.302 259.014, 325.116 256.170 C 331.071 250.152, 330.235 249.433, 323.327 254.632 M 514.790 281.749 C 515.086 308.075, 514.098 335.610, 511.550 372 C 510.761 383.275, 509.796 397.113, 509.407 402.750 C 508.907 409.993, 509.024 413, 509.804 413 C 511.218 413, 511.613 410.120, 512.962 390 C 513.570 380.925, 514.754 366.075, 515.592 357 C 516.511 347.059, 517.331 323.705, 517.657 298.250 C 518.177 257.624, 518.127 256, 516.349 255.999 C 514.591 255.999, 514.514 257.262, 514.790 281.749 M 420.544 259.250 C 420.918 260.488, 422.518 263.635, 424.099 266.245 C 425.681 268.854, 427.715 274.029, 428.620 277.745 C 430.762 286.537, 431.976 287.901, 435.567 285.548 C 440.882 282.065, 436.800 269.611, 427.642 261.371 C 422.200 256.475, 419.459 255.656, 420.544 259.250 M 280 265.438 C 269.306 266.963, 260.809 270.245, 256.979 274.331 C 254.024 277.484, 254.009 277.560, 254.005 289.633 C 254 302.984, 253.981 302.948, 261.050 302.986 C 262.452 302.994, 264.101 303.501, 264.713 304.113 C 266.158 305.558, 268.419 304.236, 267.195 302.661 C 265.847 300.927, 264.075 292.968, 264.683 291.382 C 265.665 288.824, 266.964 289.972, 266.603 293.078 C 266.285 295.808, 266.490 296.094, 268.418 295.610 C 270.398 295.113, 270.554 295.384, 270.170 298.669 C 269.878 301.167, 270.095 302.060, 270.875 301.577 C 271.494 301.195, 272 299.521, 272 297.858 C 272 292.732, 274.466 295.120, 274.810 300.578 C 274.980 303.285, 275.499 305.883, 275.961 306.351 C 276.424 306.819, 276.438 308.473, 275.992 310.026 C 275.475 311.830, 275.671 314.269, 276.535 316.776 C 277.911 320.771, 280.138 343.842, 279.288 345.299 C 278.342 346.920, 275.998 343.656, 275.933 340.628 C 275.871 337.718, 275.769 337.812, 274.469 341.986 C 272.802 347.336, 273.599 348.485, 278.357 347.593 C 281.743 346.958, 281.844 346.810, 281.279 343.333 C 280.826 340.541, 281.005 339.835, 282.076 340.192 C 285.063 341.188, 287.418 335.908, 286.081 331.215 C 286.037 331.058, 284.988 331.461, 283.750 332.110 C 281.519 333.281, 281.516 333.273, 283.384 331.169 C 284.420 330.002, 285.734 329.335, 286.304 329.688 C 286.949 330.086, 287.087 329.669, 286.670 328.582 C 286.301 327.622, 286 326.465, 286 326.012 C 286 325.558, 284.988 325.426, 283.750 325.719 C 281.530 326.243, 281.527 326.229, 283.500 324.657 C 285.015 323.450, 285.136 323.054, 284 323.024 C 282.003 322.971, 279.585 317.874, 281.110 316.932 C 281.881 316.455, 281.894 316.052, 281.150 315.593 C 280.566 315.232, 280.341 314.275, 280.651 313.468 C 281.002 312.553, 280.609 312, 279.607 312 C 277.476 312, 277.463 307.400, 279.591 306.209 C 280.929 305.460, 281.010 304.698, 280.097 301.409 C 278.241 294.727, 278.621 292.250, 281.500 292.250 C 283.305 292.250, 284 292.788, 284 294.184 C 284 295.248, 284.455 295.837, 285.011 295.493 C 285.567 295.150, 285.929 293.648, 285.815 292.156 C 285.577 289.029, 286.713 286.704, 288.069 287.543 C 288.581 287.859, 289 287.129, 289 285.920 C 289 283.835, 288.685 283.751, 282.886 284.277 C 277.157 284.796, 276.944 284.742, 279.500 283.416 C 281.001 282.637, 283.977 282, 286.114 282 L 290 282 290.014 275.250 C 290.021 271.538, 290.299 267.488, 290.630 266.250 C 291.318 263.683, 291.960 263.732, 280 265.438 M 208 297.520 C 208 298.356, 210.642 307.019, 213.871 316.770 C 217.100 326.522, 221.479 339.844, 223.602 346.376 C 227.703 358.989, 229.910 363.424, 229.968 359.168 C 229.986 357.885, 228.931 353.610, 227.625 349.668 C 226.319 345.726, 222.224 333.050, 218.525 321.500 C 214.825 309.950, 211.404 299.488, 210.921 298.250 C 209.926 295.701, 208 295.219, 208 297.520 M 301.454 297.075 C 301.160 297.550, 302.407 298.561, 304.225 299.321 C 307.678 300.764, 313.989 307.186, 314.015 309.285 C 314.025 310.061, 314.367 309.968, 314.961 309.029 C 316.343 306.843, 317.455 308.611, 317.455 312.994 C 317.455 315.630, 317.796 316.584, 318.523 315.981 C 319.248 315.380, 320.172 317.659, 321.388 323.047 C 322.376 327.421, 323.430 331, 323.730 331 C 324.031 331, 324.035 327.063, 323.740 322.250 C 322.985 309.970, 319.457 302.800, 312.380 299.159 C 309.060 297.451, 302.048 296.114, 301.454 297.075 M 294.566 301.852 C 293.233 302.405, 293 302.882, 293.816 303.387 C 294.467 303.789, 295 303.855, 295 303.533 C 295 301.311, 302.626 307.096, 305.399 311.422 C 310.739 319.754, 311.439 339, 306.402 339 C 304.555 339, 304.623 336.983, 306.565 334.210 C 307.427 332.980, 307.944 330.745, 307.715 329.238 L 307.300 326.500 307.128 329.500 C 306.677 337.362, 302.003 338.386, 297.230 331.667 C 296.004 329.941, 295 329.050, 295 329.687 C 295 330.324, 297.079 333.130, 299.621 335.923 C 308.179 345.327, 316 341.685, 316 328.294 C 316 312.145, 304.358 297.783, 294.566 301.852 M 293 305.474 C 293 305.735, 294.350 306.647, 296 307.500 C 297.650 308.353, 299 309.542, 299 310.141 C 299 310.771, 297.913 310.518, 296.419 309.539 C 291.045 306.018, 288.964 311.284, 291.689 321.511 L 293.369 327.816 296.185 324.802 C 297.733 323.145, 299.018 321.274, 299.040 320.644 C 299.062 320.015, 299.758 320.751, 300.588 322.280 C 301.417 323.808, 302.493 324.814, 302.978 324.513 C 303.464 324.213, 304.149 324.432, 304.500 325 C 307.032 329.096, 307.274 319.507, 304.766 314.500 C 302.218 309.415, 293 302.344, 293 305.474 M 244.250 308.480 C 240.030 311.544, 242.011 331.993, 247.239 339.335 C 250.223 343.526, 258.707 347, 265.957 347 L 271.856 347 272.564 341.337 C 274.417 326.500, 271.208 314.145, 264.407 309.943 C 259.520 306.922, 247.588 306.057, 244.250 308.480 M 250.200 313.200 C 249.540 313.860, 249 316.748, 249 319.617 C 249 329.413, 255.841 339.588, 259.779 335.650 C 261.809 333.620, 262.552 324.201, 261.043 319.629 C 259.193 314.026, 253.029 310.371, 250.200 313.200 M 324.545 336.610 C 324.184 338.538, 323.036 340.845, 321.995 341.736 C 320.954 342.628, 320.378 343.803, 320.715 344.348 C 321.077 344.933, 320.645 345.078, 319.664 344.701 C 318.606 344.295, 318 344.567, 318 345.448 C 318 346.210, 318.563 347.060, 319.250 347.338 C 319.997 347.639, 319.795 347.874, 318.750 347.921 C 316.622 348.017, 316.384 350, 318.500 350 C 319.325 350, 320 350.420, 320 350.933 C 320 352.190, 316.328 353.285, 314.759 352.496 C 314.067 352.148, 314.953 353.156, 316.729 354.737 C 319.840 357.505, 333.298 364.645, 339.500 366.817 C 352.705 371.442, 374.820 374.587, 385.891 373.414 C 393.727 372.584, 392.139 371.480, 381.934 370.662 C 361.503 369.026, 344.204 361.670, 330.384 348.742 C 324.485 343.224, 322.860 340.993, 324.750 341.005 C 325.163 341.007, 326.850 342.256, 328.500 343.779 C 347.318 361.152, 366.013 367.998, 394.643 367.999 C 415.178 368, 429.434 364.850, 435.989 358.863 C 439.544 355.616, 439.409 353.876, 435.781 356.174 C 427.303 361.542, 412.877 364.480, 395 364.480 C 366.583 364.480, 347.117 356.775, 330.679 339.020 L 325.203 333.105 324.545 336.610 M 247.388 351.282 C 247.738 354.152, 248.676 360.325, 249.472 365 C 250.269 369.675, 251.794 379.125, 252.863 386 C 254.734 398.038, 254.792 398.205, 254.437 390.500 C 254.166 384.598, 254.294 383.418, 254.928 386 C 255.401 387.925, 256.464 391.975, 257.291 395 C 258.118 398.025, 259.093 404.325, 259.457 409 C 260.367 420.678, 262.780 426.420, 264.500 421 C 265.282 418.537, 267.951 418.353, 268.132 420.750 C 268.204 421.712, 268.577 420.925, 268.961 419 C 269.542 416.079, 269.795 415.811, 270.485 417.378 C 271.428 419.519, 269.450 428.439, 267.359 431.473 C 265.769 433.780, 265.634 432.763, 266.930 428.243 C 268.295 423.483, 266.835 424.366, 264.266 429.853 C 261.548 435.659, 261.960 437.247, 271.961 459.500 C 272.950 461.700, 274.057 464.374, 274.422 465.441 C 275.028 467.219, 275.370 467.092, 278.467 463.941 C 281.641 460.713, 282.473 458.282, 282.040 453.500 L 281.859 451.500 280.911 453.500 C 280.160 455.082, 280.065 454.821, 280.456 452.250 C 280.728 450.462, 280.600 449, 280.173 449 C 279.746 449, 279.303 447.538, 279.189 445.750 C 278.678 437.733, 278.580 437.486, 276.033 437.773 L 273.608 438.046 275.881 435.627 C 278.081 433.284, 278.122 432.899, 277.166 423.354 C 276.572 417.426, 276.541 413.122, 277.089 412.550 C 277.648 411.967, 278.027 412.547, 278.070 414.050 C 278.135 416.313, 278.206 416.348, 279 414.500 C 279.473 413.400, 279.891 411.236, 279.930 409.691 C 279.977 407.812, 280.387 407.121, 281.170 407.605 C 281.991 408.112, 282.114 407.757, 281.582 406.414 C 281.165 405.361, 280.642 400.703, 280.419 396.061 C 280.197 391.420, 279.756 386.808, 279.440 385.811 C 278.005 381.290, 280.847 384.616, 282.806 389.750 L 285.001 395.500 284.443 389 C 283.872 382.338, 283.239 378.447, 280.457 364.500 C 277.902 351.689, 278.967 352.811, 269.659 353.135 C 261.988 353.402, 261.059 353.199, 254.125 349.742 L 246.751 346.064 247.388 351.282 M 294.636 350.780 C 294.205 351.478, 294.146 353.388, 294.505 355.024 C 294.915 356.891, 294.757 358, 294.079 358 C 293.486 358, 292.993 359.012, 292.985 360.250 C 292.964 363.266, 291.396 360.932, 289.961 355.750 C 289.390 353.688, 288.490 352, 287.961 352 C 286.699 352, 286.726 356.620, 288.003 359.005 C 288.673 360.257, 288.673 361.084, 288.003 361.498 C 287.451 361.839, 287 361.486, 287 360.713 C 287 358.662, 284.010 353, 282.927 353 C 281.727 353, 281.634 352.159, 284.388 366.266 C 285.701 372.995, 287.069 380.172, 287.427 382.215 C 288.305 387.226, 289.753 387.833, 290.561 383.528 C 290.925 381.588, 291.713 380, 292.311 380 C 293.034 380, 292.997 379.597, 292.200 378.800 C 290.016 376.616, 290.757 374.722, 293.523 375.416 C 296.436 376.148, 298.444 372.800, 296.882 369.816 C 296.397 368.889, 296.044 367.089, 296.097 365.816 C 296.176 363.935, 296.483 364.204, 297.733 367.250 C 298.579 369.313, 299.660 371, 300.136 371 C 301.267 371, 301.251 369.273, 300.113 368.570 C 298.654 367.668, 297.748 360.852, 298.930 359.670 C 299.519 359.081, 299.993 357.903, 299.985 357.050 C 299.972 355.799, 299.804 355.762, 299.110 356.857 C 298.031 358.560, 296.968 357.078, 296.051 352.593 C 295.632 350.545, 295.157 349.937, 294.636 350.780 M 265.743 367.710 C 265.353 372.132, 265.709 374.629, 267.252 378.280 C 270.963 387.062, 267.398 385.238, 262.794 376 C 259.880 370.153, 259.087 373.148, 261.878 379.458 C 263.943 384.125, 263.471 385.343, 260.797 382.250 C 259.035 380.213, 257.020 374.627, 256.955 371.601 C 256.930 370.445, 256.257 368.150, 255.460 366.500 C 254.088 363.662, 254.042 363.877, 254.610 370.500 C 255.311 378.679, 256.781 381.971, 261.249 385.370 C 268.840 391.146, 273.185 389.326, 271.260 381.177 C 270.652 378.605, 269.434 373.376, 268.553 369.559 C 266.527 360.784, 266.364 360.677, 265.743 367.710 M 314 366.033 C 314 366.602, 318.176 369.071, 323.280 371.522 C 332.407 375.904, 344.517 384.908, 344.482 387.287 C 344.472 387.954, 346.270 391.200, 348.478 394.500 C 352.198 400.059, 352.489 400.995, 352.440 407.241 C 352.391 413.554, 352.468 413.792, 353.646 410.991 C 355.309 407.034, 356.408 407.178, 355.626 411.250 C 355.242 413.253, 355.338 413.980, 355.876 413.143 C 357.016 411.373, 357.719 412.701, 357.802 416.783 C 357.846 418.995, 357.238 420.459, 355.934 421.273 C 354.870 421.938, 354 423.048, 354 423.741 C 354 424.433, 353.460 425, 352.800 425 C 351.873 425, 351.871 425.271, 352.788 426.188 C 353.705 427.105, 353.352 427.787, 351.238 429.181 C 349.575 430.278, 349.100 430.989, 350.027 430.993 C 350.868 430.997, 352.549 430.304, 353.764 429.453 C 355.332 428.355, 355.829 428.282, 355.476 429.203 C 355.202 429.916, 353.679 431.372, 352.092 432.438 C 350.506 433.505, 349.434 434.967, 349.711 435.688 C 350.002 436.447, 349.512 437, 348.548 437 C 347.631 437, 347.176 437.476, 347.536 438.059 C 347.904 438.654, 349.419 438.847, 351 438.500 C 352.581 438.153, 354.096 438.346, 354.464 438.941 C 354.848 439.563, 354.217 440, 352.937 440 C 351.184 440, 350.983 440.274, 351.913 441.395 C 352.801 442.465, 352.771 442.777, 351.785 442.737 C 347.525 442.564, 344 443.136, 344 444 C 344 444.550, 346.137 445.061, 348.750 445.136 C 351.363 445.211, 352.488 445.467, 351.250 445.706 C 348.595 446.217, 348.226 447.966, 350.750 448.076 C 351.723 448.118, 351.088 448.674, 349.322 449.326 C 344.653 451.050, 344.217 451.998, 348.083 452.015 C 350.657 452.027, 351.130 452.270, 350 453 C 349.175 453.533, 347.413 453.976, 346.083 453.985 C 342.451 454.008, 343.903 454.657, 349.357 455.449 C 353.115 455.995, 354.039 455.872, 353.443 454.907 C 352.902 454.033, 353.170 453.851, 354.336 454.299 C 355.478 454.737, 356 454.414, 356 453.269 C 356 451.989, 356.275 451.875, 357.176 452.776 C 359.056 454.656, 355.554 457.668, 349.917 459.020 C 347.213 459.669, 345 460.616, 345 461.124 C 345 462.424, 349.529 463.997, 353.315 464.014 C 355.067 464.021, 357.512 464.299, 358.750 464.630 C 363.002 465.770, 360.992 467, 354.878 467 C 349.549 467, 348.916 467.194, 350 468.500 C 350.685 469.325, 352.652 470.061, 354.372 470.136 C 356.822 470.243, 357 470.368, 355.192 470.713 C 351.050 471.505, 353.517 473.456, 360.800 475.148 C 368.529 476.944, 396.020 476.304, 404.472 474.132 C 412.102 472.170, 410.288 474.998, 402.282 477.546 C 395.935 479.567, 374.943 479.918, 361.750 478.224 C 355.106 477.371, 355 477.394, 355 479.679 C 355 481.647, 355.512 482, 358.364 482 C 370.841 482, 382.035 487.009, 390.506 496.382 L 396.875 503.430 400.187 501.824 C 402.009 500.940, 407.775 496.648, 413 492.286 C 422.831 484.078, 427.832 480.948, 434.236 478.994 C 438.525 477.685, 439.211 476.960, 438.006 475.009 C 437.308 473.880, 436.643 473.842, 434.525 474.807 C 430.563 476.612, 428 476.318, 428 474.059 C 428 472.991, 427.550 471.840, 427 471.500 C 425.357 470.485, 425.850 468.641, 428.540 465.740 C 431.470 462.580, 431.245 462.453, 426.346 464.500 C 424.371 465.325, 420.703 466, 418.194 466 C 415.684 466, 411.802 466.853, 409.566 467.896 C 402.171 471.345, 383.048 473.448, 380.674 471.074 C 379.909 470.309, 380.519 470, 382.800 470 C 384.560 470, 386 469.576, 386 469.058 C 386 468.539, 383.560 468.202, 380.578 468.308 C 374.192 468.534, 370.770 466.507, 367.239 460.406 C 364.488 455.652, 364.127 437.588, 366.754 436.118 C 367.879 435.488, 367.958 434.535, 367.142 431.414 C 366.579 429.261, 365.406 423, 364.534 417.500 C 363.663 412, 362.727 406.098, 362.455 404.384 C 361.460 398.121, 365.806 395.187, 367.838 400.750 L 368.842 403.500 368.921 400.833 C 368.964 399.367, 368.485 397.995, 367.857 397.786 C 367.011 397.504, 367.032 396.810, 367.934 395.124 C 368.605 393.870, 368.928 392.255, 368.652 391.535 C 368.302 390.623, 368.784 390.392, 370.243 390.774 C 371.943 391.218, 372.207 390.982, 371.646 389.520 C 369.578 384.131, 374.242 382.624, 399.500 380.520 C 414.183 379.296, 428.303 374.578, 433.134 369.281 L 435.500 366.687 432.500 368.289 C 419.095 375.447, 412.618 376.500, 382 376.500 C 359.708 376.500, 354.274 376.207, 347.781 374.656 C 343.535 373.642, 339.485 373.044, 338.781 373.327 C 338.076 373.611, 338.448 373.878, 339.606 373.921 C 343.092 374.052, 358.139 386.194, 356.654 387.679 C 355.680 388.653, 347.871 384.586, 336.953 377.417 C 329.432 372.478, 315.924 365, 314.525 365 C 314.236 365, 314 365.465, 314 366.033 M 443.507 370.095 C 444.587 374.589, 444.755 383.034, 443.775 383.639 C 443.349 383.902, 442.939 382.854, 442.864 381.309 C 442.758 379.132, 442.634 378.980, 442.309 380.636 C 442.079 381.811, 442.814 384.286, 443.942 386.136 C 445.070 387.986, 446.029 390.400, 446.073 391.500 C 446.177 394.107, 449.496 382.862, 450.396 376.851 C 451.043 372.528, 450.896 372.066, 448.296 370.265 C 442.697 366.386, 442.614 366.383, 443.507 370.095 M 435.249 371.956 C 433.415 374.917, 426.036 379.272, 422.121 379.703 C 420.253 379.909, 417.996 380.467, 417.106 380.943 C 415.092 382.021, 396.447 384.688, 384.699 385.578 C 376.334 386.212, 371.524 388.127, 373.686 389.963 C 375.052 391.123, 403.511 389.082, 416.381 386.902 C 423.047 385.772, 430.370 384.604, 432.656 384.305 C 437.416 383.682, 437.998 382.414, 437.070 374.684 C 436.554 370.384, 436.382 370.127, 435.249 371.956 M 306.500 374 C 304.903 374.686, 305.269 374.874, 308.312 374.930 C 316.164 375.074, 328.882 380.828, 333.766 386.446 C 336.110 389.142, 335.189 390.046, 332.667 387.524 C 329.623 384.480, 311.337 377, 306.939 377 C 303.917 377, 300 379.572, 300 381.557 C 300 382.351, 299.556 383, 299.013 383 C 298.186 383, 293 390.182, 293 391.326 C 293 391.528, 295.363 390.877, 298.250 389.879 C 304.319 387.782, 311.640 387.487, 315.685 389.175 C 318.290 390.262, 317.912 390.409, 310.629 391.138 C 300.295 392.173, 294.233 394.450, 290.250 398.791 C 286.181 403.226, 286.403 403.415, 292.820 400.976 C 306.680 395.710, 329.120 402.223, 337.694 414 C 342.166 420.143, 344.234 422.729, 343.545 421.319 C 343.227 420.670, 343.425 419.855, 343.985 419.509 C 345.219 418.746, 344.195 408.091, 342.706 406.208 C 342.002 405.316, 342.044 404.556, 342.842 403.758 C 343.719 402.881, 344 403.134, 344 404.800 C 344 406.010, 344.419 407, 344.930 407 C 345.442 407, 346.087 408.012, 346.363 409.250 C 346.639 410.488, 346.764 409.844, 346.641 407.820 C 346.518 405.796, 346.774 404.360, 347.209 404.629 C 347.644 404.898, 348 406.441, 348 408.059 C 348 409.677, 348.450 411, 349 411 C 349.550 411, 350 408.805, 350 406.122 C 350 401.004, 348.402 398.525, 345.756 399.540 C 344.919 399.861, 344.003 399.450, 343.680 398.608 C 343.301 397.620, 343.565 397.280, 344.450 397.619 C 348.423 399.144, 346.216 395.095, 339.310 388.191 C 327.295 376.181, 314.402 370.605, 306.500 374 M 454.592 378.363 C 454.248 380.196, 452.910 383.901, 451.619 386.597 C 448.863 392.355, 447.585 399.870, 449 402 C 449.716 403.077, 449.833 402.512, 449.414 400 C 448.949 397.206, 449.068 396.803, 450.003 398 C 450.977 399.248, 451.092 399.126, 450.686 397.271 C 450.102 394.603, 452.044 387.548, 453.852 385.769 C 455.274 384.369, 454.622 388.551, 452.801 392.500 C 451.753 394.774, 454.951 391.435, 458.634 386.411 C 459.807 384.810, 461.121 383.839, 461.554 384.254 C 461.987 384.669, 461.415 386.019, 460.283 387.254 C 457.670 390.106, 454 397.374, 454 399.695 C 454 400.696, 454.919 399.732, 456.107 397.485 C 458.613 392.747, 462.826 386.950, 464.922 385.358 C 466.789 383.939, 465.852 382.669, 459.654 378.218 L 455.217 375.031 454.592 378.363 M 427.804 392.529 C 427.514 392.820, 422.376 393.698, 416.388 394.480 C 410.400 395.263, 403.025 396.342, 400 396.878 C 396.975 397.415, 390.957 397.887, 386.628 397.927 C 379.431 397.994, 378.873 398.141, 380.128 399.648 C 381.061 400.770, 381.660 405.313, 382 413.856 C 382.467 425.577, 382.641 426.452, 384.605 426.958 C 386.505 427.447, 386.389 427.656, 383.418 429.093 L 380.125 430.685 379.514 424.093 C 379.177 420.467, 378.475 413.675, 377.954 409 C 377.432 404.325, 377.004 399.938, 377.003 399.250 C 377.001 398.563, 376.269 398, 375.375 398 C 374.062 398, 373.887 398.624, 374.464 401.250 C 374.856 403.038, 375.723 410.673, 376.389 418.217 C 377.055 425.761, 377.871 432.204, 378.202 432.536 C 378.757 433.090, 383.653 432.575, 402.500 429.981 C 406.350 429.451, 416.024 428.573, 423.999 428.029 C 442.876 426.741, 441.791 428.386, 440.343 403.250 L 439.694 392 434.014 392 C 430.890 392, 428.095 392.238, 427.804 392.529 M 422.500 396.724 C 418.062 397.814, 417.704 398.898, 418.285 409.457 C 418.982 422.097, 420.121 423.416, 429.805 422.800 C 437.916 422.283, 438.254 421.731, 437.579 410.100 C 436.875 397.956, 435.681 395.958, 429.227 396.116 C 426.627 396.180, 423.600 396.453, 422.500 396.724 M 473.548 399.653 C 471.597 401.663, 470 403.656, 470 404.082 C 470 404.508, 469.408 405.452, 468.685 406.179 C 466.978 407.893, 462.381 415.916, 461.606 418.532 C 461.122 420.164, 461.495 420.605, 463.502 420.771 C 464.876 420.885, 466 420.458, 466 419.822 C 466 419.187, 466.258 418.925, 466.574 419.240 C 466.889 419.556, 466.428 421.206, 465.548 422.907 C 462.991 427.852, 466.054 426.780, 468.877 421.742 C 472.517 415.247, 478.575 407.722, 481.954 405.500 C 485.684 403.046, 485.686 402.946, 482.099 399.106 C 478.427 395.175, 477.862 395.212, 473.548 399.653 M 129.105 400.020 C 115.927 408.275, 115.882 424.308, 129.018 431.009 C 148.727 441.064, 166.935 414.730, 149.479 401.416 C 144.333 397.491, 134.246 396.800, 129.105 400.020 M 400.294 400.326 C 394.980 402.272, 394.500 403.318, 394.503 412.949 C 394.506 424.827, 395.836 426.500, 404.497 425.529 C 413.357 424.536, 415 422.616, 415 413.260 C 415 400.532, 410.512 396.585, 400.294 400.326 M 128.153 404.750 C 123.086 409.583, 121.562 414.666, 123.642 419.793 C 128.102 430.781, 140.899 433.336, 149.317 424.918 C 153.213 421.022, 153.231 420.969, 152.810 414.352 C 152.408 408.049, 152.180 407.527, 148.443 404.366 C 142.386 399.241, 133.756 399.405, 128.153 404.750 M 422.750 402.080 C 420.241 403.541, 420.999 419.281, 423.517 418 C 424.058 417.725, 424.381 417.143, 424.236 416.707 C 424.090 416.271, 424.765 416.324, 425.736 416.826 C 426.706 417.327, 429.238 418.051, 431.363 418.435 L 435.225 419.133 434.838 411.468 C 434.530 405.354, 434.063 403.519, 432.534 402.402 C 430.309 400.774, 425.276 400.609, 422.750 402.080 M 296.582 403.163 C 293.878 403.680, 290.390 405.010, 288.832 406.119 C 285.542 408.462, 284.950 410.632, 288.054 408.971 C 303.356 400.782, 324.470 405.537, 336.256 419.827 C 339.790 424.112, 339.826 421.799, 336.304 416.717 C 328.764 405.837, 312.190 400.182, 296.582 403.163 M 483.492 406.842 C 481.838 407.851, 479.162 410.436, 477.545 412.588 C 475.928 414.740, 474.301 416.725, 473.929 417 C 472.523 418.038, 469.011 424.562, 469.083 426 C 469.150 427.333, 469.221 427.333, 469.728 426 C 470.042 425.175, 471.173 423.375, 472.241 422 L 474.183 419.500 473.447 423.500 C 473.043 425.700, 472.351 427.736, 471.911 428.025 C 470.771 428.772, 469.004 437.197, 469.738 438.386 C 470.076 438.932, 471.153 436.538, 472.132 433.067 C 473.950 426.620, 474.609 425.276, 475.511 426.177 C 475.792 426.458, 475.342 428.615, 474.511 430.970 C 472.646 436.254, 472.559 438.351, 474.344 435 C 478.704 426.811, 479.774 425.107, 480.253 425.587 C 480.547 425.880, 480.206 427.331, 479.496 428.810 C 478.785 430.290, 477.910 432.625, 477.550 434 C 476.916 436.426, 476.964 436.413, 479.163 433.570 C 480.409 431.959, 482.504 429.484, 483.817 428.070 C 485.131 426.657, 487.047 423.855, 488.075 421.845 C 490.345 417.405, 494.009 414.383, 498.297 413.415 L 501.500 412.692 498.510 411.448 C 495.033 410.001, 490.600 411.778, 484.646 417.006 C 482.770 418.653, 480.770 420, 480.201 420 C 479.632 420, 478.940 420.563, 478.662 421.250 C 478.361 421.998, 478.126 421.798, 478.079 420.753 C 477.963 418.193, 484.632 411.263, 488.586 409.833 C 492.669 408.356, 492.824 407.697, 489.453 406.161 C 486.348 404.746, 487.063 404.664, 483.492 406.842 M 296 409.591 C 285.525 413.395, 282.823 416.770, 282.867 425.994 C 282.902 433.415, 284.554 437.224, 285.580 432.250 C 285.948 430.462, 286.615 429, 287.062 429 C 288.151 429, 287.006 421.859, 285.641 420.132 C 282.722 416.441, 296.282 411, 308.400 411 C 318.105 411, 324.745 413.881, 331.376 420.971 C 333.919 423.690, 336 425.485, 336 424.960 C 336 422.783, 328.611 416.070, 322.768 412.939 C 317.090 409.896, 315.605 409.554, 307 409.313 C 301.775 409.166, 296.825 409.291, 296 409.591 M 399.693 411.064 C 399.372 412.292, 399.366 414.580, 399.680 416.149 C 400.225 418.873, 400.500 419.001, 405.875 419.032 C 411.039 419.061, 411.341 419.184, 409.559 420.532 C 408.469 421.356, 408.172 422, 408.880 422 C 412.195 422, 414.328 415.428, 411.226 414.773 C 410.277 414.572, 408.038 414.842, 406.251 415.372 C 402.844 416.382, 401.346 415.867, 402.459 414.067 C 402.821 413.480, 404.891 413, 407.059 413 C 409.557 413, 411 412.540, 411 411.743 C 411 410.861, 409.618 410.596, 406.377 410.853 C 403.504 411.082, 401.475 410.769, 401.016 410.026 C 400.527 409.234, 400.081 409.584, 399.693 411.064 M 308.750 415.713 C 305.038 415.921, 302 416.521, 302 417.046 C 302 417.571, 301.473 418, 300.829 418 C 300.185 418, 298.815 418.762, 297.786 419.694 C 296.015 421.296, 295.884 421.273, 295.358 419.260 C 294.875 417.414, 294.484 417.278, 292.401 418.227 C 289.871 419.380, 289.648 420.085, 290.641 423.790 C 291.195 425.861, 291.414 425.935, 292.927 424.566 C 296.906 420.965, 318.518 416.136, 322.094 418.050 C 324.861 419.531, 326.681 419.165, 324.421 417.583 C 321.850 415.782, 317.275 415.236, 308.750 415.713 M 245.513 417.979 C 244.589 419.475, 246.976 426.437, 249.497 429.599 C 251.577 432.208, 252.029 432.345, 255.622 431.458 C 259.071 430.606, 259.536 430.125, 259.824 427.110 C 260.177 423.415, 260.170 423.413, 251.452 425.601 C 249.146 426.180, 248.777 426.022, 249.293 424.678 C 250.579 421.329, 247.172 415.294, 245.513 417.979 M 506.315 418.007 C 504.011 418.935, 502 421.881, 502 424.327 C 502 426.549, 505.010 427.224, 507.535 425.569 C 509.626 424.199, 509.752 424.234, 509.278 426.046 C 508.816 427.813, 509.303 428, 514.383 428 C 519.848 428, 520 427.925, 519.985 425.250 C 519.952 419.455, 512.510 415.511, 506.315 418.007 M 443.783 424.908 C 443.191 431.066, 441.723 432.424, 434 433.965 C 426.680 435.425, 426.815 435.416, 424.342 434.619 C 422.603 434.059, 421.891 434.512, 420.669 436.962 C 419.187 439.933, 419.208 440, 421.608 440 C 422.958 440, 424.327 439.312, 424.650 438.470 C 425.034 437.468, 425.924 437.158, 427.227 437.572 C 430.569 438.633, 440 437.050, 440 435.428 C 440 433.710, 442.152 433.552, 443.753 435.153 C 445.177 436.577, 443.602 440, 441.524 440 C 438.889 440, 438.827 442.076, 441.400 444.100 C 444.945 446.888, 444.775 457.482, 441.123 461.369 C 439.013 463.616, 438.929 464.079, 440.168 466.666 C 442.007 470.502, 445.099 470.417, 446.197 466.500 C 447.161 463.062, 446.119 423.205, 445.011 421.123 C 444.583 420.319, 444.073 421.890, 443.783 424.908 M 309.500 421.650 C 296.924 424.280, 290.281 428.974, 287.663 437.082 C 285.996 442.242, 286.258 445.077, 288.097 441.791 C 288.618 440.860, 289.637 439.506, 290.361 438.782 C 291.086 438.057, 291.940 436.797, 292.260 435.982 C 292.698 434.868, 292.862 434.836, 292.921 435.854 C 292.970 436.696, 294.335 436.035, 296.535 434.104 C 300.859 430.307, 304.407 429.688, 301.429 433.250 C 300.394 434.488, 299.087 435.966, 298.524 436.536 C 291.843 443.299, 288.723 449.081, 289.947 452.431 C 290.546 454.070, 291.214 453.516, 294.364 448.772 C 296.404 445.697, 299.238 442.419, 300.660 441.487 C 303.567 439.583, 303.240 440.453, 298.969 446 C 294.868 451.326, 293 455.535, 293 459.450 C 293 464.013, 293.588 463.911, 298.882 458.430 C 308.111 448.874, 327.166 442.807, 334.918 446.956 C 338.090 448.654, 338.144 448.361, 336.392 438.936 C 333.659 424.241, 324.688 418.474, 309.500 421.650 M 484.799 429.750 C 482.095 432.638, 479.883 437.809, 481.879 436.575 C 482.480 436.203, 484.441 437.586, 486.236 439.649 C 488.031 441.711, 490.512 444.290, 491.750 445.380 C 494.336 447.656, 494.732 449.495, 492.448 448.618 C 491.558 448.277, 491.157 448.445, 491.507 449.011 C 492.809 451.119, 494.766 449.823, 496.343 445.809 C 497.921 441.791, 497.907 441.530, 495.995 439.494 C 494.898 438.327, 494 436.141, 494 434.638 C 494 432.909, 492.989 431.014, 491.250 429.484 C 487.803 426.450, 487.893 426.446, 484.799 429.750 M 449.307 434.500 C 452.889 461.196, 452.583 467.651, 447.548 471.669 C 444.753 473.900, 444.329 474.734, 445.040 476.606 C 445.512 477.846, 445.671 480.354, 445.394 482.180 C 444.988 484.856, 445.581 486.456, 448.445 490.426 C 452.279 495.738, 453.158 501.824, 450.937 507.666 C 450.067 509.955, 450.280 511.328, 452.115 515.246 C 454.254 519.812, 454.281 520.187, 452.720 523.462 L 451.083 526.893 461.792 526.781 C 467.681 526.719, 479.583 527.028, 488.240 527.468 L 503.979 528.267 503.469 494.384 C 503.189 475.748, 502.969 459.938, 502.980 459.250 C 502.991 458.529, 501.756 458, 500.059 458 C 498.441 458, 496.831 457.536, 496.481 456.969 C 496.114 456.376, 494.413 456.207, 492.471 456.571 C 488.672 457.284, 478.200 451.762, 475.481 447.612 C 474.691 446.405, 472.346 444.819, 470.272 444.088 C 465.386 442.365, 455.293 436.413, 451.635 433.097 L 448.770 430.500 449.307 434.500 M 507.412 432.367 C 507.104 433.172, 506.997 435.107, 507.175 436.666 C 507.482 439.341, 507.837 439.537, 513.500 440.152 C 520.615 440.925, 519.749 441.466, 520.143 436 L 520.468 431.500 514.221 431.202 C 509.459 430.975, 507.841 431.252, 507.412 432.367 M 257.489 437.964 C 257.832 439.045, 259.629 445.457, 261.483 452.214 C 266.130 469.153, 269.109 475.287, 271.863 473.585 C 273.734 472.429, 273.149 470, 271 470 C 269.711 470, 269 469.333, 269 468.126 C 269 467.095, 267.166 460.907, 264.924 454.376 C 262.682 447.844, 260.411 441.038, 259.877 439.250 C 259.343 437.462, 258.447 436, 257.886 436 C 257.324 436, 257.146 436.884, 257.489 437.964 M 501.758 446.340 C 499.419 449.625, 500.283 452.500, 503.609 452.500 C 504.996 452.500, 505.417 451.900, 505.187 450.250 C 504.789 447.390, 505.801 447.448, 509.250 450.484 C 512.504 453.347, 512.755 454.431, 510 453.710 C 508.900 453.423, 508 453.645, 508 454.205 C 508 455.784, 515.209 454.088, 516.660 452.167 C 521.718 445.472, 519.911 442.824, 510.521 443.171 C 504.407 443.396, 503.662 443.666, 501.758 446.340 M 400 448.847 C 393.794 451.380, 393.650 451.514, 396.811 451.818 C 400.822 452.203, 400.581 454.230, 396.418 455.132 C 394.088 455.636, 393.954 455.787, 395.750 455.882 C 398.996 456.052, 398.517 457.728, 395 458.500 C 393.350 458.862, 392 459.573, 392 460.079 C 392 460.586, 391.550 461, 391 461 C 390.450 461, 390 459.902, 390 458.559 C 390 457.216, 389.550 455.840, 389 455.500 C 388.450 455.160, 388 455.759, 388 456.830 C 388 457.902, 387.115 459.841, 386.033 461.139 L 384.067 463.500 384.033 458.191 C 383.999 452.742, 382.644 451.853, 381.722 456.676 C 381.120 459.822, 383.654 464.347, 385.599 463.600 C 386.316 463.325, 391.160 462.802, 396.364 462.437 C 405.902 461.768, 409.531 462.365, 406.857 464.162 C 404.917 465.466, 412.111 464.261, 420.118 461.940 C 423.758 460.886, 427.301 459.342, 427.991 458.511 C 429.776 456.360, 427.808 456.563, 423.261 459 C 419.365 461.088, 413.506 461.606, 411.089 460.076 C 410.069 459.431, 409.738 457.360, 409.892 452.592 C 410.144 444.813, 410.008 444.761, 400 448.847 M 319 450.336 C 319 450.819, 319.675 450.955, 320.500 450.638 C 321.325 450.322, 322 450.499, 322 451.031 C 322 451.564, 321.078 452, 319.950 452 C 317.695 452, 312.327 454.530, 310.317 456.540 C 309.612 457.245, 308.690 457.974, 308.268 458.161 C 307.401 458.544, 303.354 463.988, 300.583 468.500 C 298.892 471.254, 299.095 471.171, 303.053 467.500 C 305.425 465.300, 308.169 462.600, 309.150 461.500 C 310.914 459.522, 310.934 459.522, 310.967 461.469 C 310.985 462.551, 308.664 465.803, 305.809 468.694 C 302.953 471.585, 300.816 474.137, 301.059 474.364 C 302.075 475.318, 310.659 470.435, 310.224 469.151 C 309.893 468.174, 310.484 468.271, 312.364 469.503 C 316.285 472.072, 314.653 474.103, 302.917 481.254 C 300.076 482.985, 299.740 484.657, 301.122 490.190 C 301.705 492.520, 302.797 494.118, 304.087 494.528 C 305.210 494.884, 306.561 496.149, 307.088 497.338 C 308.242 499.940, 307.670 492.674, 306.492 489.750 C 306.104 488.788, 306.230 488, 306.772 488 C 307.777 488, 309.004 490.746, 310.794 497 C 311.345 498.925, 311.842 499.712, 311.898 498.750 C 312.022 496.621, 314 496.386, 314 498.500 C 314 499.325, 314.627 500, 315.393 500 C 316.159 500, 317.045 500.675, 317.362 501.500 C 317.678 502.325, 318.449 503, 319.076 503 C 319.720 503, 319.941 502.288, 319.584 501.359 C 319.054 499.976, 319.198 499.920, 320.501 501.001 C 321.352 501.707, 322.337 501.996, 322.691 501.643 C 323.044 501.289, 322.861 501, 322.283 501 C 321.706 501, 320.969 500.212, 320.646 499.250 C 320.322 498.288, 319.498 496.734, 318.814 495.798 C 318.130 494.862, 317.927 493.740, 318.362 493.304 C 319.217 492.450, 324.582 498.383, 325.546 501.250 C 326.204 503.204, 328.213 503.491, 330.957 502.023 C 332.722 501.079, 332.718 500.800, 330.861 493.773 C 329.804 489.773, 329.065 485.375, 329.220 484 C 329.485 481.633, 329.591 481.690, 331.211 485.069 C 332.152 487.031, 334.533 490.346, 336.503 492.435 C 339.968 496.109, 340.149 496.175, 342.043 494.461 C 343.119 493.487, 344 491.901, 344 490.937 C 344 488.527, 338.904 478.900, 337.302 478.286 C 335.552 477.614, 335.636 475, 337.408 475 C 338.183 475, 340.900 477.025, 343.447 479.500 C 345.993 481.975, 348.509 484, 349.038 484 C 352.300 484, 346.258 468.266, 340.248 461.108 C 337.890 458.300, 337.063 457.889, 335.450 458.720 C 334.377 459.272, 330.682 460.005, 327.238 460.348 C 323.793 460.691, 319.141 461.908, 316.900 463.051 L 312.824 465.131 313.545 462.815 C 316.273 454.064, 318.660 452.547, 329.746 452.520 C 337.966 452.500, 340.018 451.781, 335.750 450.414 C 332.477 449.367, 319 449.304, 319 450.336 M 507.667 459.667 C 506.546 460.787, 506.874 530, 508 530 C 508.648 530, 509 517.500, 509 494.500 C 509 474.975, 508.850 459, 508.667 459 C 508.483 459, 508.033 459.300, 507.667 459.667 M 434.400 482.803 C 432.255 484.345, 428.015 487.019, 424.978 488.746 C 421.941 490.473, 418.341 493.084, 416.978 494.548 L 414.500 497.210 419.500 494.481 C 422.250 492.981, 425.962 490.872, 427.750 489.795 C 430.330 488.241, 430.879 488.152, 430.413 489.366 C 429.640 491.380, 424.701 495.091, 418.500 498.318 C 415.750 499.749, 412.825 501.426, 412 502.044 C 410.404 503.240, 410.226 503.263, 424 500.504 C 427.575 499.787, 430.629 499.322, 430.786 499.470 C 431.381 500.029, 424.094 503.001, 418.654 504.418 C 413.515 505.756, 403.439 510.791, 405.250 511.116 C 405.663 511.189, 406.450 511.363, 407 511.500 C 407.550 511.637, 412.105 511.806, 417.122 511.875 C 425.255 511.986, 426.105 512.169, 424.954 513.556 C 423.885 514.844, 421.844 515.028, 413.081 514.629 C 406.987 514.352, 404.408 514.458, 407 514.879 C 411.681 515.640, 411.580 515.742, 404.500 517.387 C 403.400 517.642, 408.575 517.756, 416 517.639 C 427.427 517.460, 430.391 517.073, 435.299 515.123 C 445.034 511.256, 446.486 509.440, 446.494 501.130 C 446.502 491.872, 444.453 489.151, 441.061 493.915 C 437.668 498.679, 436.923 497.584, 439.235 491.235 C 441.248 485.708, 441.195 480, 439.131 480 C 438.674 480, 436.545 481.261, 434.400 482.803 M 350.183 489.920 C 347.537 491.656, 346.998 494.886, 349.109 496.364 C 351.199 497.828, 351.190 497.849, 348.362 498.173 C 346.730 498.359, 345.607 499.037, 345.750 499.750 C 345.887 500.438, 345.127 501, 344.059 501 C 342.991 501, 341.840 501.450, 341.500 502 C 340.906 502.961, 344.713 503.525, 349.830 503.234 C 351.802 503.122, 351.968 503.334, 350.905 504.615 C 350.127 505.552, 348.763 505.914, 347.324 505.564 C 346.046 505.254, 343.875 504.726, 342.500 504.392 C 340.971 504.020, 340 504.214, 340 504.892 C 340 505.501, 341.039 506, 342.309 506 C 345.184 506, 349.559 508.917, 346.761 508.968 C 345.804 508.986, 342.767 508.143, 340.011 507.096 C 337.255 506.049, 335 505.599, 335 506.096 C 335 506.593, 335.450 507, 336 507 C 338.039 507, 336.908 508.873, 334.127 510.104 L 331.253 511.376 335.127 513.293 C 337.257 514.347, 339 515.612, 339 516.105 C 339 517.299, 338.709 517.251, 335.364 515.506 C 332.186 513.849, 328.412 513.342, 330.878 514.904 C 331.636 515.384, 331.950 516.272, 331.576 516.877 C 331.135 517.591, 331.498 517.746, 332.612 517.319 C 333.776 516.872, 334.096 517.036, 333.605 517.830 C 333.171 518.532, 333.505 519, 334.441 519 C 335.298 519, 336 519.402, 336 519.892 C 336 523.596, 375.124 526.231, 384.202 523.138 C 391.176 520.762, 390.433 516, 383.088 516 C 375.339 516, 366.011 514.791, 366.586 513.860 C 366.879 513.387, 370.635 513, 374.934 513 C 390.327 513, 392.596 511.097, 381.920 507.142 C 378.389 505.834, 374.600 504.365, 373.500 503.878 C 372.400 503.391, 369.250 502.574, 366.500 502.063 C 357.320 500.357, 355.597 498.884, 363.500 499.498 C 369.960 500, 374.675 501.067, 385.682 504.520 C 389.505 505.720, 389.852 505.682, 389.731 504.083 C 389.659 503.121, 389.124 502.333, 388.544 502.333 C 387.963 502.333, 385.691 501.204, 383.494 499.823 C 374.436 494.130, 353.331 487.856, 350.183 489.920 M 442.667 515.666 C 441.061 517.272, 429.994 520.065, 421 521.135 C 401.635 523.438, 401.159 523.532, 404.312 524.439 C 405.859 524.884, 413.509 525.041, 421.312 524.788 C 434.784 524.351, 435.778 524.176, 441 521.315 C 446.386 518.363, 448.035 515.823, 444.951 515.229 C 444.099 515.065, 443.072 515.262, 442.667 515.666 M 329.750 519.944 C 330.988 520.976, 332 522.227, 332 522.723 C 332 523.220, 333.351 524.920, 335.002 526.502 C 337.228 528.634, 337.681 529.600, 336.752 530.234 C 335.885 530.827, 336.114 531.029, 337.500 530.891 C 338.600 530.782, 340.175 530.966, 341 531.300 C 341.825 531.634, 345.200 532.709, 348.500 533.689 C 354.143 535.365, 354.299 535.491, 351.121 535.809 C 349.263 535.994, 345.578 535.438, 342.933 534.573 C 340.288 533.708, 337.527 533, 336.797 533 C 336.067 533, 333.744 532.074, 331.633 530.943 C 329.236 529.659, 327.953 529.359, 328.215 530.145 C 328.630 531.390, 330.228 532.411, 339.406 537.297 C 342 538.677, 343.692 540.072, 343.167 540.397 C 341.897 541.182, 334.068 538.371, 331.794 536.313 C 329.126 533.899, 328.648 535.282, 331.081 538.375 C 334.557 542.795, 351.201 549.404, 362.250 550.752 C 367.445 551.386, 366.964 553, 361.581 553 C 355.421 553, 335.051 547.948, 332.226 545.720 C 330.101 544.044, 329.551 545.847, 331.523 548.026 C 334.112 550.886, 342.778 555.687, 349.571 558.024 C 359.445 561.422, 363.260 560.838, 382.750 552.953 C 385.539 551.825, 385.693 550, 383 550 C 380.069 550, 380.560 548.279, 384 546.500 C 387.332 544.777, 388.488 539, 385.500 539 C 383.606 539, 383.528 536.395, 385.400 535.677 C 386.639 535.201, 388.745 527.353, 387.849 526.554 C 387.657 526.382, 381.875 526.581, 375 526.996 C 352.810 528.333, 335.915 525.423, 330.919 519.403 C 330.279 518.631, 329.248 518.015, 328.628 518.033 C 328.007 518.052, 328.512 518.911, 329.750 519.944 M 445.145 521.314 C 441.884 525.270, 430.877 528.010, 412.057 529.551 C 403.829 530.225, 403.687 530.280, 406.444 531.725 C 410.188 533.686, 429.314 532.980, 436.734 530.607 C 443.486 528.446, 447.310 525.213, 446.848 522.052 C 446.533 519.896, 446.371 519.826, 445.145 521.314 M 392.122 532.189 C 391.906 540.748, 391.114 546.027, 389.797 547.690 C 389.279 548.344, 388.598 552.282, 388.283 556.440 C 387.735 563.681, 387.802 564, 389.856 564 C 391.040 564, 392.056 563.328, 392.125 562.500 C 392.321 560.147, 392.483 559.659, 393.938 557.031 C 395.807 553.656, 395.545 528.116, 393.622 526.193 C 392.535 525.107, 392.275 526.148, 392.122 532.189 M 444.433 530.872 C 439.792 535.044, 406.435 539.131, 404.365 535.782 C 404.099 535.352, 402.982 535, 401.882 535 C 400.782 535, 400.160 535.450, 400.500 536 C 400.840 536.550, 401.991 537, 403.059 537 C 404.127 537, 405 537.450, 405 538 C 405 538.550, 407.587 539.007, 410.750 539.015 C 414.831 539.026, 416.065 539.312, 415 540 C 412.949 541.326, 408.311 541.242, 404.346 539.808 C 402.533 539.153, 400.734 538.932, 400.348 539.319 C 399.380 540.286, 402.706 542.643, 407.500 544.387 C 410.394 545.440, 410.878 545.864, 409.250 545.921 C 404.693 546.081, 407.181 547.825, 412.917 548.490 C 423.751 549.748, 442.009 546.657, 444.712 543.108 C 446.220 541.128, 446.380 535.353, 444.951 534.470 C 444.237 534.028, 444.282 533.365, 445.094 532.387 C 446.424 530.784, 445.891 529.562, 444.433 530.872 M 617.655 549.025 C 616.090 549.494, 614.276 550.608, 613.623 551.501 C 612.014 553.702, 612.458 564.525, 614.270 567.282 C 617.737 572.556, 632.651 578, 643.630 578 C 651.876 578, 653.564 576.427, 646.250 575.559 C 629.850 573.611, 620.894 570.349, 616.643 564.776 C 613.926 561.214, 613.277 559, 614.950 559 C 615.473 559, 616.289 559.694, 616.764 560.543 C 618.452 563.559, 627.276 569.001, 630.426 568.968 C 633.345 568.938, 633.402 568.863, 631.559 567.468 C 630.491 566.661, 628.847 566, 627.906 566 C 626.964 566, 624.021 564.033, 621.367 561.630 C 617.143 557.806, 616.709 557.056, 617.892 555.630 C 619.568 553.611, 617.172 553.228, 615.200 555.200 C 614.293 556.107, 614 556.113, 614 555.223 C 614 550.183, 634.077 549.324, 643.500 553.960 C 646.250 555.313, 650.413 558.183, 652.750 560.337 C 657.268 564.501, 657.658 564.538, 655.876 560.628 C 651.854 551.801, 630.260 545.246, 617.655 549.025 M 433 552.243 C 431.510 552.908, 424.502 553.345, 415.659 553.324 L 400.817 553.289 401.185 557.144 C 401.387 559.265, 401.203 561, 400.776 561 C 400.349 561, 400.007 563.362, 400.015 566.250 C 400.025 569.718, 400.333 571.022, 400.923 570.091 C 401.413 569.316, 401.592 568.101, 401.320 567.392 C 400.783 565.991, 403.940 560, 405.216 560 C 406.028 560, 406.418 561.758, 405.992 563.500 C 405.858 564.050, 405.621 565.400, 405.466 566.500 C 405.310 567.600, 404.881 569.257, 404.511 570.182 C 403.809 571.936, 408.223 575, 411.450 575 C 412.303 575, 413 575.427, 413 575.948 C 413 576.942, 408.028 575.702, 404.653 573.866 C 402.049 572.450, 401.093 573.864, 403.476 575.606 C 405.848 577.341, 416.701 580.566, 423.156 581.454 C 427.706 582.080, 443.008 580.032, 449.688 577.902 C 459.956 574.629, 463.506 564.955, 457.124 557.639 C 454.154 554.234, 442.065 557.062, 435.406 562.721 C 429.166 568.022, 424.718 578.149, 427.832 579.966 C 429.220 580.776, 429.060 580.944, 426.879 580.970 C 424.321 580.999, 424.278 580.895, 425.082 576.592 C 427.234 565.072, 438.978 554.064, 449.218 553.970 C 452.065 553.943, 452.252 553.795, 450.632 552.854 C 442.802 548.305, 422.034 562.475, 421.985 572.400 C 421.973 574.769, 421.741 575.146, 421 574 C 420.467 573.175, 420.024 570.801, 420.015 568.724 C 419.997 564.131, 426.146 557.352, 433.441 553.923 C 439.504 551.073, 439.096 549.521, 433 552.243 M 331 553.767 C 331 555.505, 339.130 562.057, 343.833 564.109 C 348.726 566.245, 380.270 566.991, 381.500 565 C 381.864 564.412, 380.756 563.990, 378.809 563.976 C 357.685 563.825, 339.248 559.921, 332.750 554.224 C 331.783 553.376, 331 553.172, 331 553.767 M 326 555.820 C 326 558.969, 331.775 565.940, 337.973 570.272 C 339.962 571.662, 340.099 572, 338.673 572 C 336.145 572, 331.895 569.613, 329.105 566.626 C 325.666 562.945, 325 564.065, 325 573.524 C 325 586.916, 327.915 593.392, 337.075 600.349 L 341.650 603.824 341.224 598.662 C 340.822 593.779, 341.022 593.246, 344.936 588.806 C 351.774 581.045, 358.194 578.578, 371.665 578.535 C 388.671 578.481, 384.748 576.328, 366.719 575.821 C 353.219 575.441, 348 574.380, 348 572.015 C 348 571.493, 354.713 571.186, 363.654 571.300 C 374.824 571.443, 379.422 571.166, 379.708 570.336 C 380.001 569.485, 375.899 569.139, 364.511 569.054 C 351.608 568.956, 348.059 568.600, 343.977 566.991 C 341.264 565.921, 338.417 565.286, 337.652 565.580 C 336.811 565.903, 334.233 563.838, 331.131 560.357 C 328.309 557.191, 326 555.150, 326 555.820 M 215.500 564.114 C 212.750 564.597, 207.350 565.454, 203.500 566.019 C 196.629 567.027, 188.425 569.518, 186.550 571.165 C 186.027 571.624, 184.677 572.014, 183.550 572.030 C 181.672 572.058, 181.647 572.146, 183.258 573.085 C 184.225 573.648, 185.468 573.829, 186.022 573.487 C 187.949 572.295, 200.539 569.129, 206 568.461 C 213.247 567.576, 222 565.097, 222 563.929 C 222 563.418, 221.662 563.053, 221.250 563.118 C 220.838 563.182, 218.250 563.630, 215.500 564.114 M 685.500 575.953 C 687.150 577.072, 688.846 577.990, 689.270 577.993 C 689.693 577.997, 691.718 579.038, 693.770 580.307 C 695.821 581.577, 699.750 583.434, 702.500 584.434 C 709.967 587.151, 713.745 588.762, 721.812 592.668 C 729.409 596.347, 732.172 596.648, 727.308 593.267 C 723.274 590.464, 718.676 588.274, 708.899 584.500 C 704.168 582.673, 697.643 579.854, 694.399 578.233 C 691.154 576.613, 687.150 574.980, 685.500 574.604 L 682.500 573.920 685.500 575.953 M 553.011 577.696 C 544.995 581.841, 546.838 586.809, 558.300 591.954 C 573.032 598.567, 580 598.092, 580 590.477 C 580 581.366, 562.207 572.940, 553.011 577.696 M 552.250 580.603 C 550.625 581.336, 550.643 584.459, 552.280 585.817 C 554.026 587.266, 568.659 592.845, 572.703 593.604 C 578.635 594.717, 577.954 587.240, 571.719 582.800 C 568.726 580.669, 555.429 579.168, 552.250 580.603 M 132.500 583.625 C 125.375 585.742, 117.681 589.463, 110.882 594.080 C 104.130 598.666, 104.167 598.608, 107.535 599.251 C 108.929 599.518, 109.831 599.498, 109.540 599.207 C 107.825 597.492, 130.354 586.324, 137.505 585.344 C 141.822 584.753, 142.112 584.555, 140.456 583.344 C 138.298 581.766, 138.819 581.747, 132.500 583.625 M 215.500 582.506 C 214.950 582.698, 211.894 583.580, 208.709 584.467 C 187.706 590.316, 189.907 610.439, 211.539 610.354 C 228.156 610.288, 242.123 600.389, 238.849 590.998 C 236.897 585.398, 222.367 580.114, 215.500 582.506 M 359.951 583.362 C 351.026 585.769, 343 592.642, 343 597.877 C 343 604.360, 366.312 608.826, 377.616 604.509 C 388.450 600.371, 391.751 593.719, 386.243 587.122 C 382.163 582.235, 370.378 580.550, 359.951 583.362 M 206.401 588.335 C 192.306 595.062, 194.990 608, 210.480 608 C 218.571 608, 227.347 605.251, 232.017 601.253 C 237.014 596.977, 237.290 593.610, 232.982 589.483 C 228.573 585.259, 214.150 584.636, 206.401 588.335 M 156.750 596.150 C 155.787 597.168, 155 598.432, 155 598.961 C 155 602.526, 140.269 609.955, 128.988 612.079 C 113.540 614.988, 106 614.483, 106 610.540 C 106 607.100, 104.340 606.510, 103.547 609.669 C 101.946 616.048, 110.778 618.379, 125.560 615.480 C 142.745 612.111, 153.483 606.809, 158.032 599.448 C 160.463 595.516, 159.556 593.184, 156.750 596.150 M 510.698 594.636 C 508.787 596.546, 510.406 597.762, 515.569 598.295 C 518.632 598.611, 521.807 599.425, 522.625 600.104 C 524.718 601.841, 543.420 602.211, 541.989 600.487 C 540.535 598.734, 534.591 597.970, 530.823 599.051 C 528.320 599.769, 526.939 599.572, 524.535 598.153 C 522.840 597.153, 519.889 596.073, 517.977 595.753 C 516.065 595.432, 513.801 594.893, 512.948 594.554 C 512.094 594.215, 511.082 594.252, 510.698 594.636 M 683 594.863 C 683 595.338, 685.587 596.522, 688.750 597.496 C 691.913 598.469, 696.750 600.297, 699.500 601.558 C 702.250 602.819, 708.775 605.485, 714 607.482 C 719.225 609.479, 724.513 611.528, 725.750 612.035 C 728.161 613.023, 728.813 611.875, 726.750 610.276 C 726.063 609.743, 719.425 606.688, 712 603.488 C 693.636 595.573, 683 592.409, 683 594.863 M 681 608 C 676.335 612.665, 681.877 620, 690.068 620 C 697.227 620, 698.970 614.770, 693.600 609.400 C 689.532 605.332, 684.254 604.746, 681 608 M 682.337 610.564 C 681.217 613.483, 683.686 616.850, 687.465 617.559 C 693.392 618.671, 695.959 614.959, 692 611 C 689.532 608.532, 683.226 608.247, 682.337 610.564 M 64.500 610.722 C 63.400 610.992, 60.612 612.065, 58.305 613.106 C 55.998 614.148, 53.426 615, 52.590 615 C 50.937 615, 36.404 623.537, 35.461 625.063 C 34.355 626.853, 36.670 625.965, 49.550 619.660 C 56.672 616.173, 64.075 612.584, 66 611.683 C 69.362 610.110, 68.708 609.691, 64.500 610.722 M 543.209 612.145 C 543.454 612.890, 545.082 613.641, 546.827 613.813 C 548.572 613.986, 550 614.500, 550 614.956 C 550 616.073, 547.047 617.147, 545.910 616.444 C 545.409 616.135, 545 616.515, 545 617.288 C 545 618.062, 545.895 619.101, 546.988 619.597 C 548.082 620.094, 553.032 624.515, 557.988 629.422 C 562.945 634.328, 567 637.817, 567 637.174 C 567 635.874, 561.127 629.030, 556.500 624.937 C 547.076 616.601, 546.924 616.372, 552.250 618.511 C 553.286 618.927, 554 618.762, 554 618.107 C 554 617.498, 553.270 617, 552.378 617 C 551.165 617, 551.026 616.674, 551.827 615.709 C 553.132 614.136, 551.039 612.607, 546.099 611.522 C 543.513 610.954, 542.863 611.094, 543.209 612.145 M 611.047 625.663 C 610.972 627.517, 622.444 642.456, 630.372 650.831 C 634.366 655.049, 639.481 660.522, 641.739 662.994 C 643.998 665.466, 646.126 667.207, 646.469 666.864 C 647.496 665.837, 637.390 653.206, 626.576 642 C 621.003 636.225, 615.240 629.925, 613.769 628 C 612.298 626.075, 611.073 625.024, 611.047 625.663 M 114.478 631.868 C 102.796 635.214, 88.463 646.403, 83.457 656.084 C 79.550 663.639, 84.190 668.695, 92.775 666.237 C 94.824 665.650, 99.875 664.693, 104 664.109 C 108.125 663.525, 114.650 662.360, 118.500 661.521 C 122.350 660.681, 127.975 659.510, 131 658.917 C 145.331 656.111, 149.348 653.466, 148.041 647.695 C 144.797 633.371, 131.357 627.033, 114.478 631.868 M 506.537 632.001 C 502.325 634.161, 497 638.779, 497 640.271 C 497 640.764, 498.688 639.850, 500.750 638.240 C 510.963 630.266, 519.800 631.317, 531.389 641.883 C 539.536 649.311, 541.984 652.531, 541.993 655.833 C 541.997 657.268, 542.481 657.996, 543.250 657.723 C 545.960 656.762, 543.636 652.446, 535.818 643.921 C 524.080 631.122, 515.256 627.529, 506.537 632.001 M 116.421 634.403 C 103.796 637.469, 86 651.545, 86 658.465 C 86 663.416, 87.867 664.032, 98 662.425 C 117.734 659.296, 137.060 655.340, 138.206 654.194 C 139.536 652.864, 134.794 646.668, 130.980 644.752 C 122.793 640.638, 110.044 644.032, 101.067 652.713 C 95.950 657.662, 94.412 661.616, 99.254 657.373 C 104.236 653.007, 105.171 652.961, 100.500 657.311 C 97.750 659.873, 95.189 661.976, 94.809 661.984 C 91.559 662.058, 95.337 653.667, 100.658 648.995 C 114.945 636.451, 136.982 637.662, 139.678 651.140 C 140.298 654.241, 141.650 654.707, 144.332 652.746 C 145.926 651.581, 145.935 651.166, 144.459 646.834 C 140.561 635.394, 130.575 630.967, 116.421 634.403 M 240.035 652.934 C 239.466 653.998, 238.994 655.686, 238.987 656.684 C 238.969 659.307, 233.200 669.040, 228.196 674.888 C 223.054 680.897, 212.923 687.829, 202.268 692.628 C 194.789 695.997, 194.667 696.105, 199 695.529 C 212.756 693.701, 232.465 677.590, 239.258 662.621 C 242.248 656.031, 242.931 647.524, 240.035 652.934 M 661 671.480 C 661 672.467, 668.646 675.755, 672.500 676.426 C 674.700 676.808, 680.775 678.713, 686 680.658 C 691.225 682.603, 699.820 685.443, 705.100 686.969 C 716.046 690.133, 724.254 693.959, 728.250 697.759 C 729.763 699.197, 731 699.863, 731 699.238 C 731 697.872, 725.433 692.528, 722.555 691.132 C 717.481 688.671, 712.750 686.858, 702.500 683.447 C 696.450 681.434, 691.050 679.450, 690.500 679.038 C 686.684 676.183, 661 669.603, 661 671.480 M 535.667 674.666 C 534.934 675.399, 531.884 675.648, 512.253 676.575 C 498.251 677.236, 495.823 678.363, 506.236 679.369 C 511.864 679.912, 518.224 679.338, 527.750 677.425 C 530.380 676.898, 531 677.092, 531 678.443 C 531 679.980, 531.238 679.972, 534 678.341 C 535.650 677.366, 537 675.991, 537 675.284 C 537 673.847, 536.649 673.684, 535.667 674.666 M 309 685.936 C 301.388 687.472, 293.818 693.524, 289.894 701.210 C 287.038 706.804, 287.417 710.332, 291.218 713.530 C 301.028 721.785, 325 708.976, 325 695.478 C 325 687.438, 319.073 683.904, 309 685.936 M 304.500 690.733 C 297.530 694.266, 293 700.443, 293 706.415 C 293 710.989, 295.577 712.447, 302.262 711.655 C 314.431 710.214, 324.323 698.721, 319.600 691.512 C 317.640 688.522, 309.673 688.111, 304.500 690.733 M 531 691.653 C 528.525 692.424, 525.150 693.508, 523.500 694.063 C 518.431 695.768, 508.447 696.351, 504.987 695.145 C 503.214 694.527, 500.635 694.305, 499.256 694.651 C 491.506 696.596, 511.820 698.995, 520.500 697.160 C 530.490 695.048, 534.753 693.694, 537.103 691.887 C 540.121 689.567, 537.966 689.485, 531 691.653 M 307.591 694.527 C 303.522 695.929, 299.162 699.496, 300.222 700.556 C 300.558 700.892, 301.759 700.241, 302.891 699.109 C 305.213 696.787, 309.250 695.498, 311.498 696.361 C 313.407 697.093, 313.407 698.450, 311.500 700.357 C 310.675 701.182, 310 702.291, 310 702.822 C 310 704.177, 307.308 705.055, 305.399 704.323 C 304.519 703.985, 303.394 704.337, 302.899 705.104 C 302.138 706.286, 301.846 706.270, 300.997 705 C 300.217 703.834, 300.072 704.056, 300.342 706 C 300.841 709.591, 304.319 709.747, 308.805 706.380 C 313.528 702.834, 313.966 702.157, 313.985 698.372 C 314.007 693.907, 312.324 692.896, 307.591 694.527 M 462 699.274 C 453.393 703.546, 450.599 707.546, 451.365 714.500 C 453.030 729.618, 481.565 735.336, 497.660 723.778 C 517.249 709.710, 485.260 687.728, 462 699.274 M 467 700.476 C 453.278 704.921, 450.704 716.234, 461.832 723.193 C 465.049 725.205, 466.790 725.488, 476 725.494 C 487.407 725.501, 490.880 724.448, 494.184 719.979 C 496.025 717.490, 498.414 706.626, 496.917 707.551 C 496.492 707.814, 495.872 707.172, 495.539 706.124 C 493.937 701.076, 476.066 697.540, 467 700.476 M 465.407 703.944 C 455.169 708.549, 454.187 718.673, 463.599 722.606 C 467.468 724.222, 474.599 724.459, 475.500 723 C 475.869 722.404, 474.655 722, 472.493 722 C 465.352 722, 463.069 717.873, 467.979 713.840 C 470.463 711.799, 470.624 710.609, 468.250 711.830 C 467.288 712.325, 465.875 712.507, 465.111 712.235 C 464.347 711.963, 463.978 712.156, 464.292 712.663 C 464.605 713.170, 463.993 713.650, 462.931 713.730 C 458.469 714.066, 464.338 707.932, 470.302 706.026 C 474.205 704.778, 474.843 702.655, 471.422 702.302 C 470.365 702.192, 467.658 702.931, 465.407 703.944 M 71.500 712.715 C 68.200 713.509, 64.600 714.545, 63.500 715.017 C 62.400 715.488, 60.375 716.163, 59 716.516 C 55.723 717.357, 43.697 721.761, 38 724.205 C 29.162 727.998, 27.809 728.764, 28.828 729.394 C 29.397 729.745, 30.144 729.575, 30.490 729.016 C 30.835 728.457, 31.811 728, 32.658 728 C 33.505 728, 35.616 727.355, 37.349 726.567 C 40.640 725.071, 54.182 720.692, 67 716.979 C 76.037 714.361, 80 712.769, 80 711.756 C 80 710.806, 78.937 710.926, 71.500 712.715" stroke="none" fill="#1b1f3a" fill-rule="evenodd"/>
</svg>