<svg xmlns="http://www.w3.org/2000/svg" viewBox="0 0 768 768" version="1.1" preserveAspectRatio="xMidYMid meet"><path d="M 0 384 C 0 639.3, 0.3 768, 1 768 C 1.6 768, 2 755.5, 2 732.5 C 2 697.7, 2 697.1, 4.1 696 C 6.5 694.7, 7.6 695.3, 13.3 701.4 C 19.3 707.9, 22.9 714.7, 22.3 718.5 C 21.6 723.2, 23.1 723.4, 28.6 719.7 C 38.8 712.8, 52.1 710.1, 67.1 712 C 72.1 712.6, 76.9 713.5, 77.8 713.9 C 78.7 714.4, 82.4 716.3, 86 718 C 89.6 719.8, 96.2 723.9, 100.7 727.1 C 109.9 733.8, 110 733.8, 110 730.7 C 110 729.3, 108.1 726.6, 105 723.5 C 98.9 717.5, 98.9 717.6, 104.4 715.5 C 109.4 713.6, 114.5 713.8, 114.6 716 C 115 721.6, 115.8 721.4, 124.1 713.5 C 132.9 705.3, 139.2 703, 148.4 704.9 C 161 707.5, 168.4 713.9, 168.2 721.9 C 168 731.1, 171.2 731.3, 184.6 723.4 C 201.7 713.3, 212.5 711.1, 227.6 714.6 C 236.2 716.5, 239.8 718.5, 241 721.5 C 242.2 724.8, 242.1 724.8, 249.3 718.8 C 271.7 700.1, 306.4 699.7, 326.2 717.9 C 331.9 723.1, 335.2 727.5, 336.4 731.6 C 337 733.7, 336.7 733.8, 326.8 734.3 C 313.8 734.9, 299.2 739.9, 290.3 746.6 C 285.3 750.4, 286.5 754.1, 291.5 750.6 C 295.2 748.2, 307.1 743.9, 315.8 742 C 330.9 738.6, 349.3 739.9, 359.7 745 C 365 747.5, 364.3 747.8, 367.1 742.3 C 372.4 731.7, 387.3 720.7, 401.5 716.9 C 409.8 714.6, 429.1 715.2, 437.1 717.9 C 449.9 722.2, 463.6 732.2, 469.7 741.8 C 472.1 745.5, 473.6 747, 474.7 746.6 C 475.5 746.3, 476.6 746, 477.1 746 C 479.6 746, 477.6 741.2, 472 734 C 449.2 704.7, 405.5 699.4, 375.2 722.1 C 370.2 725.9, 362 735.2, 362 737.1 C 362 738.3, 359.7 738.2, 356.3 736.8 C 354.8 736.2, 351.3 735.2, 348.6 734.6 C 344 733.6, 343.6 733.2, 341.8 728.5 C 335.3 711.9, 316.4 699.7, 294.8 698.3 C 290.5 698, 287 697.4, 287 697.1 C 287.1 694.8, 290.3 686.5, 292.2 684 C 297.3 677, 311.2 671, 322.1 671 C 335.1 671, 351.1 680.4, 352.9 689.2 C 353.7 692.7, 353.7 692.7, 360.6 691.4 C 364.7 690.6, 369.5 692.9, 379.7 700.7 C 389.1 707.9, 389.5 708, 388.5 704.3 C 387.4 700.3, 387.9 694.1, 389.5 691 C 391.8 686.5, 399.8 680.1, 403.9 679.4 C 407.8 678.8, 408.3 678.6, 412 676.5 C 415 674.7, 423 674.7, 428.5 676.4 L 432.5 677.7 428 678.9 C 420 681, 411.9 685.3, 410.4 688.2 C 408.5 691.9, 410.6 692, 418.5 688.5 C 433.7 681.8, 452.1 683, 468.9 691.9 C 475.2 695.2, 484 703.7, 486.2 708.8 L 488.1 713 495.4 713 C 505.1 713, 513.1 717.2, 521.2 726.4 C 524.8 730.4, 524.7 731, 520.5 731 C 511.7 731, 492 741, 492 745.6 C 492 748.1, 495.1 747.8, 499.7 745 C 512.2 737.4, 532.3 734.5, 545.4 738.4 C 552.5 740.6, 562.1 746.1, 564.8 749.5 C 567.3 752.6, 569.3 752.7, 571.3 749.6 C 577.6 740, 612.8 738.8, 619.3 748 C 620.7 750.1, 620.8 750.1, 624.1 748.1 C 636.7 740.8, 657.6 741.8, 672.5 750.5 C 677.5 753.5, 678 753.5, 678 751.1 C 678 748.5, 672.7 744.2, 665 740.7 C 655.8 736.4, 641.7 735.7, 630.8 739 L 623.2 741.2 620.2 739 C 617.2 736.7, 616.2 734.1, 614.5 723.9 C 613.1 715.1, 617.4 698.5, 623.9 687.6 C 645.2 651.7, 696.8 641.4, 723.4 667.8 C 728.8 673.2, 734 681.6, 734 685.1 C 734 687.3, 736 688, 741.9 688 C 747.4 688, 751.4 689.8, 760.9 696.9 L 768 702.2 768.3 734.8 C 768.4 752.8, 768.5 594.7, 768.5 383.5 L 768.5 -0.5 768.3 346.3 L 768 693 761.7 688.7 C 755.3 684.2, 748.6 681.3, 743.6 680.8 C 741.2 680.5, 740.1 679.4, 737.1 673.8 C 726.9 655, 707.7 644.4, 685.1 645.2 L 676.1 645.5 674 641.8 C 665.3 626.3, 639 620.4, 619.9 629.7 C 617 631.1, 612.2 632.9, 609.3 633.5 L 604.2 634.8 600 630.5 C 584.2 614.4, 553.9 614.4, 530.1 630.6 C 522.3 635.9, 507 653.7, 507 657.5 C 507 657.8, 506.3 659.6, 505.5 661.6 C 504.3 664.5, 503.8 664.9, 502.3 664.1 C 498.9 662.2, 490.6 660, 487.2 660 C 483.1 660, 473.3 662.7, 470.2 664.8 C 467.4 666.6, 467.7 667.2, 465.1 656.5 C 462.5 645.7, 461.6 642, 459.7 635.5 C 458.9 632.8, 457.9 628.9, 457.5 627 C 457.2 625.1, 456.5 622.4, 456 621 C 455.5 619.6, 454.5 616, 453.6 613 C 448.6 595, 441.1 571.3, 430.8 541 C 420.8 511.4, 419.9 508.5, 418.3 501.6 C 415.6 489.2, 412.3 475.7, 409.4 465.5 C 408.5 462.2, 407.6 457.3, 407.4 454.7 L 407.1 449.9 411.1 454.7 C 414.6 458.9, 422.4 473.7, 431.2 493 C 432.6 496, 434.7 501.9, 435.9 506 C 437.2 510.1, 438.5 514.4, 439 515.5 C 440.3 518.3, 451.3 551.9, 454 561 C 455.2 565.1, 457.3 571.9, 458.5 576 C 460.9 583.7, 463.1 591.3, 465.7 601 C 466.5 604, 467.8 608.5, 468.5 611 C 469.2 613.5, 470.2 617.3, 470.6 619.5 C 470.9 621.7, 471.6 624, 472 624.5 C 472.4 625.1, 473.1 627.3, 473.5 629.5 C 474.5 635.6, 476.4 641, 477.4 641 C 477.8 641, 477.9 640, 477.5 638.8 C 477.2 637.5, 476.2 633.8, 475.5 630.5 C 471.8 614.3, 463.8 583.2, 460.6 572.5 C 457.5 562.2, 455.8 556.4, 454.9 552.5 C 453 544.9, 438 501.2, 434.8 494 C 429.1 481.4, 422.3 467.6, 418 460 C 414.8 454.3, 413 449.8, 412.6 446.5 C 411.6 438.1, 413 438, 419.6 446.2 C 422.8 450.2, 427.9 456.4, 430.9 460 C 433.8 463.6, 437 467.4, 437.9 468.5 C 444.2 476.4, 454.9 494.2, 459.7 504.7 C 470.1 527.6, 470 527.5, 474.5 524.6 C 479.3 521.5, 481.5 500.2, 480.7 464 C 480 428.4, 476.4 407.5, 466.3 380.5 C 458 358.1, 440.9 327, 430 314.6 L 427.2 311.4 428 301 C 432.4 244.8, 427.3 174.2, 417 149.5 C 416.6 148.4, 415.4 145.3, 414.5 142.5 C 405.8 117.3, 381.7 80.4, 375.4 82.6 C 366.6 85.7, 342.6 122.3, 333.4 146.5 C 331.1 152.6, 329.6 157, 325 171.6 C 324.5 173.2, 323.6 176.6, 323.1 179.1 C 322.6 181.5, 321.3 188, 320.1 193.5 C 319 199, 317.6 207.6, 317 212.5 C 316.4 217.5, 315.5 225.1, 315 229.5 C 314.5 233.9, 313.7 250.3, 313.4 265.9 L 312.7 294.4 309.5 297.5 C 297 310.1, 273 356.6, 269.5 375 C 269.1 376.9, 268.4 379.9, 267.9 381.5 C 263.1 397.6, 259.8 442.7, 261.9 463.2 C 263.1 474.8, 262.6 477.3, 256.6 490.2 C 253.1 497.8, 253.2 500.7, 256.8 496 C 258.3 494.1, 261.6 490.3, 264.1 487.5 C 270.5 480.5, 273 476.5, 282.1 459 C 285.9 451.7, 294.5 438, 299.4 431.5 C 306.4 422.1, 324.5 403.6, 325.8 404.4 C 326.3 404.7, 327 406.7, 327.3 408.7 C 327.7 410.8, 328.1 413.2, 328.2 414 C 328.4 415, 323.9 419.8, 317.5 425.6 C 302.2 439.5, 292.8 452.5, 278.5 479.5 C 274.4 487.4, 265.4 511.2, 263.1 520.5 C 262.6 522.7, 260.6 530.2, 258.6 537.2 C 254.6 551.6, 252.9 560.8, 254.2 561.6 C 255.1 562.2, 255.2 561.8, 257 555 C 260.5 541.2, 263.1 531.2, 263.9 529 C 264.4 527.6, 265.8 523.1, 267 519 C 268.2 514.9, 269.5 510.6, 269.9 509.5 C 270.4 508.4, 272.2 503.7, 274 499 C 277.3 490.4, 285.8 472.9, 287.1 472 C 287.5 471.7, 290.4 467, 293.5 461.5 C 303.2 444.6, 311.8 434.2, 323.2 425.4 C 330.1 420, 330 420.1, 330 425 C 330 427.3, 330.6 430.1, 331.4 431.3 C 335.1 437.1, 334.5 441.5, 329.2 449.8 C 317.5 468.1, 309.3 487.7, 304.1 510.5 C 302.9 515.5, 301.5 521.1, 301 523 C 300.4 524.9, 299.6 528.5, 299.1 531 C 298.6 533.5, 297.3 540, 296.1 545.5 C 295 551, 293.6 559.3, 293 564 C 292 572.6, 290.3 584.4, 287.6 600 C 286.1 609.2, 284.6 619.1, 282.9 631 C 280.8 646.1, 281.2 645, 278.1 645 C 275.7 645, 275 644.4, 273.6 640.6 C 271.5 635.1, 264.6 628.5, 259.1 626.9 C 256.5 626.1, 255 625.1, 255 624.1 C 255.1 621.9, 257.6 604.5, 259.5 593.3 C 260.3 588.2, 261.6 580.1, 262.4 575.3 C 263.2 570.4, 264.1 565.8, 264.3 565 C 264.6 564.2, 265.1 560.6, 265.4 557 C 266 551.1, 265.9 550.7, 264.5 552.4 C 263.7 553.5, 263 555.5, 263 556.9 C 263 558.3, 262.1 563.8, 260.9 569 C 258.5 580.1, 254.3 605.2, 252.3 619.8 L 251.7 624 246.5 624 C 240.4 624, 233.3 626.2, 226.9 630.2 C 221.1 633.7, 221.7 633.8, 216.2 628.9 C 204.8 618.9, 185.3 613.4, 171 616.3 C 155.6 619.4, 142 628.7, 136 640.2 C 134.1 643.8, 133.1 644.8, 131.8 644.4 C 109 637.2, 80.2 652.2, 72.6 675.3 C 72.2 676.6, 70.9 677, 66.8 677 C 59.5 677, 51.7 680.8, 45.8 687.2 C 42.3 691.1, 40.8 692.1, 39.8 691.3 C 34.7 687.1, 14.2 685.7, 6.5 689 C 3.4 690.3, 2 690.6, 2.1 689.7 C 2.9 683.6, 1.8 0, 1 0 C 0.3 0, 0 128.7, 0 384 M 0.5 384.5 C 0.5 595.7, 0.6 682, 0.8 576.2 C 0.9 470.4, 0.9 297.6, 0.8 192.2 C 0.6 86.8, 0.5 173.3, 0.5 384.5 M 482.5 46.3 C 479.9 52.1, 478.4 53.3, 473 53.8 C 465.8 54.5, 465.2 56.9, 471.2 60.4 L 474.3 62.3 473.6 69.1 C 472.9 77, 473 77.1, 479.9 73.3 C 484.6 70.8, 485 70.8, 487.4 72.3 C 488.8 73.3, 491 74.7, 492.3 75.5 C 496.1 78, 497.4 76.1, 496.1 70 C 494.8 64, 496.1 60.7, 500.6 59 C 505.6 57.1, 502.3 53, 495.7 53 C 491.9 53, 489.6 51, 487.9 46.2 C 486.5 42.1, 484.3 42.1, 482.5 46.3 M 482.3 52.9 C 480.9 54.7, 478.7 56, 476.3 56.5 L 472.7 57.2 475.5 59.4 C 478.1 61.5, 478.2 62, 477.6 65.9 C 477 69.8, 477.1 70.2, 478.7 69.5 C 482.5 67.8, 487 67.8, 489.5 69.4 L 492 71 492 66.7 C 492 63.8, 492.7 61.4, 494 59.7 C 496.7 56.3, 496.6 56, 492.1 56 C 488.8 56, 488.1 55.6, 487 53 C 485.5 49.4, 485.1 49.3, 482.3 52.9 M 211 52 C 210.2 52.5, 208.7 53.1, 207.8 53.4 C 206.4 53.8, 206.2 54.6, 206.7 57.2 C 207.5 61.7, 208.3 62.3, 213.4 62.6 C 217.5 62.9, 217.8 62.7, 218.3 60.2 C 218.5 58.7, 219 56.8, 219.4 56 C 219.8 54.9, 219.1 54, 216.8 53.1 C 215 52.3, 213.3 51.5, 213 51.4 C 212.7 51.2, 211.8 51.5, 211 52 M 676.3 66.2 C 675.7 66.9, 673.8 70.3, 672.1 73.8 L 669 80 662 80 C 652.7 80, 651.9 81.6, 658.6 87.4 L 663.4 91.6 662.4 98.2 C 661 107.5, 662.6 109.4, 668.1 105.1 C 674.5 100.2, 676.1 100.3, 682.8 106.2 C 687.7 110.4, 688.5 109.6, 688.5 100.5 L 688.5 92.6 692.8 89.7 C 699 85.5, 698.5 83.5, 690.8 81.8 L 684.6 80.4 682 73 C 679.4 65.5, 678.1 63.9, 676.3 66.2 M 97.8 71.2 C 97 72.5, 95.5 75.9, 94.5 78.8 C 93.4 81.6, 92.4 84, 92.1 84 C 70.8 84.7, 68.8 86.1, 78 94.1 C 84.7 99.9, 85 100.9, 82.4 110.1 C 79.6 119.9, 82 121.3, 91 115.5 C 97.8 111.2, 98.3 111.2, 105 115.5 C 114.6 121.5, 114.9 121.1, 112.4 104 C 112 100.7, 112.2 100.3, 117.6 97 C 127.4 90.9, 127 87.5, 116.2 86.4 C 108.3 85.5, 107.6 85, 104.7 76.5 C 102.1 69, 100.2 67.5, 97.8 71.2 M 547.3 73.3 C 546.7 73.9, 545.2 76.4, 544 78.8 C 541.5 83.3, 541 83.5, 531.8 84.5 C 525.1 85.2, 524.4 86.7, 529.6 89.5 C 535.1 92.4, 537.2 95.6, 536.4 99.9 C 536 101.9, 535.4 103.9, 534.9 104.5 C 533.6 105.8, 533.8 109, 535.2 109 C 535.8 109, 537.8 107.9, 539.6 106.5 C 543.6 103.5, 545.1 103.4, 547.5 106 C 550.2 109, 555.8 112.2, 557 111.5 C 557.5 111.2, 558 108.1, 558 104.7 C 558.1 97.8, 558.7 96.7, 564.8 92.7 C 569.8 89.5, 570.6 86, 566.4 86 C 559.5 86, 556.4 84, 553.4 77.9 C 550.6 72, 549.1 70.9, 547.3 73.3 M 674.4 78 L 671.5 83.5 666.2 83.5 C 660 83.4, 659.9 83.6, 664.6 87.4 C 668.3 90.3, 668.5 91.9, 666.4 99.3 C 665.8 101.1, 665.9 101.1, 668.4 99.5 C 672.6 96.7, 677.6 97.3, 682.3 101.1 C 685.3 103.6, 686.2 103.9, 685.6 102.4 C 685.1 101.4, 684.4 98.5, 683.9 96 C 683 91.7, 683.1 91.4, 686 89 C 689.8 85.9, 689.8 85, 686.1 85 C 682.6 85, 681 83.2, 678.9 77.2 L 677.4 72.6 674.4 78 M 97.7 82.1 C 94.8 88.5, 94 89, 85.9 89 C 78.8 89, 78.6 89.6, 84.6 94.1 L 89.2 97.5 88.6 102.5 C 88.3 105.3, 87.8 108.6, 87.4 109.9 L 86.7 112.4 91.3 109.7 C 96.9 106.4, 98.4 106.4, 103.5 109.5 C 105.7 110.8, 107.8 112, 108.3 112 C 109 112, 108.6 106.9, 107.4 101.3 C 107.1 99.5, 108 98.4, 112 95.8 C 114.7 94, 117 92.2, 117 91.9 C 117 91.5, 114.1 90.6, 110.5 89.9 L 104 88.6 102.1 82.6 L 100.2 76.5 97.7 82.1 M 545.8 81.4 C 543.3 85.6, 542.9 85.9, 537.6 86.5 C 534.5 86.9, 532 87.6, 532 88.1 C 532 88.6, 532.4 89, 532.9 89 C 533.4 89, 535.3 90.2, 537 91.7 C 540.3 94.4, 540.6 97.6, 538.4 103.5 C 537.8 105, 538.4 104.8, 541.8 102.9 L 545.8 100.5 550.5 103.9 L 555.1 107.2 554.5 103.8 C 553.6 99.1, 555.3 95.5, 559.9 92.3 C 564.9 88.8, 565 88, 560.2 88 C 555.8 88, 553.9 86.4, 551.5 80.7 C 549.6 76, 549.1 76.1, 545.8 81.4 M 373.1 92.5 C 365.3 101.4, 350.6 125.4, 344.6 139 C 343 142.6, 340.8 147.4, 339.7 149.8 C 338.6 152.1, 338 154.3, 338.2 154.6 C 338.5 154.8, 355.1 154.9, 375.2 154.8 L 411.8 154.5 408 144.5 C 400.5 124.3, 387.8 101.9, 377 89.7 C 376.6 89.3, 374.9 90.5, 373.1 92.5 M 335.6 161.3 C 335.4 161.9, 334.5 164.5, 333.6 167 C 332.7 169.5, 332 171.8, 332 172 C 332 172.3, 350.9 172.6, 374 172.7 C 406.5 172.9, 416 172.7, 416 171.8 C 416 171.1, 415.4 168.2, 414.8 165.3 L 413.5 160 374.7 160 C 344.6 160, 335.9 160.3, 335.6 161.3 M 726.9 166.7 C 726 166.9, 724.7 168.2, 724 169.5 C 722.3 172.7, 724.9 176, 729 176 C 733.7 176, 736.1 171.1, 733 168 C 731 166, 730.1 165.8, 726.9 166.7 M 330.2 181.3 C 318.9 224.5, 317.1 287, 325.3 351.9 L 326.5 361.3 335.5 361.1 C 351.3 360.6, 349.4 362.2, 350 349 C 350.5 337.6, 350.6 337.4, 354.5 331.5 C 361 321.7, 369.9 318.6, 379.6 322.6 C 390.1 326.9, 394.4 335.7, 393.8 352 L 393.5 363 404.5 363 L 415.6 363 416.9 351.8 C 423.5 293.8, 424.7 232.8, 420.1 195.2 C 419 186.3, 417.8 178.5, 417.5 178 C 417.1 177.4, 400.4 177, 374.1 177 L 331.3 177 330.2 181.3 M 364.5 193.6 C 349.7 198.8, 341.5 210, 341.6 225 C 341.7 243.6, 354.3 256.4, 372.5 256.4 C 385.1 256.4, 396.9 249, 402.5 237.5 C 405.3 231.9, 405.3 216.1, 402.6 211 C 394.5 196, 378.4 188.6, 364.5 193.6 M 361.6 199.6 C 354.8 202.9, 352.4 205.4, 348.8 212.7 C 341.8 227, 347.1 242, 362 250.1 C 366.1 252.3, 379.6 251.8, 384.6 249.2 C 396.9 242.9, 403.6 228.2, 399.6 216.2 C 394.4 200.7, 375.8 192.5, 361.6 199.6 M 364.2 199.9 C 357.7 202.3, 353.5 206.3, 350.4 212.7 C 337.9 238.8, 368.7 262.6, 390.1 243.3 C 402.3 232.3, 401.5 212.8, 388.4 203.8 C 380.2 198.1, 372.2 196.8, 364.2 199.9 M 362.3 205.9 C 354.9 211.2, 352.6 215.3, 352.2 223.6 C 351.7 232.6, 354.5 238.2, 361.9 242.9 C 382.3 256, 406.3 227.7, 389.3 210.6 C 380.9 202.1, 370.1 200.3, 362.3 205.9 M 185.3 251.2 C 184.7 251.9, 183.1 254.8, 181.6 257.7 C 179.1 262.8, 179 262.9, 173.3 263.6 C 162.6 264.8, 161.6 266.8, 168.6 272.6 L 173.3 276.3 172.7 284.2 C 172.1 293.1, 172 293, 179.8 288.9 L 185.7 285.9 191.4 288.9 C 200.2 293.7, 201.7 292.8, 200 283.9 C 198.8 277.8, 198.7 278, 205.6 272.9 C 213.7 266.9, 212.8 265.3, 201.1 264.1 L 194.6 263.5 192 257 C 189.4 250.5, 187.3 248.7, 185.3 251.2 M 185.1 260.2 C 182.4 266.1, 179.8 268, 174.3 268 C 169 268, 168.9 268.8, 174 272.6 C 177 274.7, 177.9 276, 177.5 277.5 C 177.2 278.6, 176.7 281.2, 176.4 283.4 L 175.7 287.2 179.8 284.6 C 185 281.4, 187.4 281.3, 191.6 284.5 C 195.5 287.4, 197.5 287.8, 196.5 285.3 C 193.9 278.8, 194.5 276.4, 199.9 272.4 L 205.1 268.5 198.9 268 C 192.1 267.5, 192 267.4, 188.2 258 C 187.2 255.6, 187.2 255.6, 185.1 260.2 M 103.8 259.5 C 101.6 264.3, 108.6 268.3, 112.4 264.4 C 115.9 261, 113.6 257, 108.3 257 C 105.7 257, 104.7 257.6, 103.8 259.5 M 361.2 283.6 C 345.6 287.9, 339.9 298.7, 347.5 309.9 C 351.2 315.3, 354.4 317, 351.2 311.8 C 343 298.5, 351.6 288.6, 371.5 288.6 C 386.1 288.6, 394.3 293.6, 396.5 303.8 C 396.9 305.5, 397.8 307, 398.6 307 C 400.6 307, 401.4 302.6, 400 298.6 C 395.9 286, 378 279.1, 361.2 283.6 M 307.9 311 C 299.5 322.3, 293.3 333.7, 284.9 352.5 C 273.8 377.4, 267.5 415.6, 268.2 453 L 268.5 468.5 274.5 458.5 C 277.8 453, 281.4 446.8, 282.5 444.7 C 289.2 431.8, 308.8 409.2, 322.7 398.2 C 324.9 396.5, 324.9 396.4, 323.5 387.5 C 322.7 382.6, 321.4 373.2, 320.5 366.6 C 319.7 360.1, 318.9 354.1, 318.6 353.1 C 317.9 350.8, 316 333.7, 314.6 317.5 L 313.5 303.5 307.9 311 M 703 315.8 C 700.2 318.1, 701 321.7, 704.7 323.1 C 708.3 324.5, 712 321.9, 712 318.1 C 712 313.8, 707.1 312.5, 703 315.8 M 426.6 322.1 C 426.4 322.9, 425.6 330.5, 425 339 C 424.3 347.5, 423.6 354.8, 423.4 355.2 C 423.2 355.6, 422.3 360.5, 421.5 366.2 C 419.8 378, 418 388.6, 415.5 401.5 C 414 409.1, 413.9 411.5, 414.8 417.3 C 415.5 421, 416 426.3, 416 429.1 C 416 434, 416.2 434.3, 424.4 442.9 C 443.2 462.8, 466.2 497.6, 469.5 511.3 C 470.6 515.4, 471.8 514.6, 472.7 509.3 C 474.3 499.3, 473.6 439.3, 471.7 428 C 467.1 400.7, 460.1 379.4, 447.2 353.5 C 444.1 347.1, 441.9 343.6, 430.8 326.6 C 428.7 323.3, 426.8 321.4, 426.6 322.1 M 365.5 328.4 C 356.6 332.5, 353.3 345.1, 355.7 365.5 C 356.5 372.2, 356.6 372.5, 359 372.3 C 360.4 372.1, 367 371.7, 373.8 371.4 C 383.1 370.9, 386 370.4, 386 369.4 C 386 368.3, 383.3 368, 373.1 368 C 358.1 368, 359 368.8, 359 356.3 C 359 342.4, 362.6 337.6, 372.9 337.5 C 382.9 337.5, 386.9 342.5, 385.5 353.1 C 384.7 359, 385.3 358.7, 372.7 359.5 C 364.3 360.1, 362.9 360.4, 363.2 361.8 C 363.4 363, 364.5 363.5, 366.5 363.4 C 368.2 363.3, 372.5 363.2, 376.3 363.1 C 381.9 363, 383 362.7, 383.1 361.3 C 383.1 359.9, 383.3 359.9, 384 361.6 C 385.7 365.9, 386.7 364.8, 387.8 357.2 C 389.7 345.1, 389.1 340.3, 384.7 333.7 C 381.3 328.5, 371.3 325.7, 365.5 328.4 M 366.6 343.1 C 364.3 344.9, 364 345.9, 364 351.1 L 364 357 370.3 356.3 C 381.9 355.1, 385.2 353, 381.6 349.1 C 379.5 346.8, 368.7 346, 367.5 348 C 366.6 349.5, 365 349.2, 365 347.6 C 365 345, 368 343.7, 374.6 343.7 C 380.3 343.6, 381 343.4, 379.4 342.3 C 376.6 340.3, 369.7 340.7, 366.6 343.1 M 124.2 364.3 C 123.5 365.5, 121.9 369.4, 120.6 373 C 118.1 379.9, 118.5 379.6, 108 382 C 98 384.3, 97.9 385.3, 106.6 392.1 L 113.1 397.3 112.4 406.5 C 111.5 419, 112.6 419.4, 123.4 410.9 C 129.3 406.2, 128.4 406.2, 136.8 411 C 146.5 416.6, 147.4 416.4, 146.5 409.4 C 146.1 406.3, 145.2 401.9, 144.4 399.7 L 142.9 395.6 150.2 388.3 C 154.1 384.3, 157.1 380.8, 156.7 380.4 C 156.4 380, 151.7 379.5, 146.5 379.2 L 136.9 378.7 133.4 371.7 C 128.2 361.2, 126.5 359.8, 124.2 364.3 M 327.7 366.7 C 327.2 367.5, 327.8 372.2, 331.2 391.5 C 334.7 411.8, 335.5 415.8, 336 416.3 C 336.3 416.5, 340.3 417, 344.8 417.3 L 353.2 417.8 352.7 397.2 C 352.4 385.8, 351.8 374.3, 351.3 371.5 L 350.5 366.5 339.3 366.2 C 333.2 366.1, 327.9 366.3, 327.7 366.7 M 391.7 368.7 C 391.3 369, 391 370.4, 391 371.7 C 391 375.6, 389.1 378.4, 387.5 377 C 385.3 375.2, 357.5 376.2, 357.5 378.1 C 357.5 379.2, 360.2 379.5, 372.5 379.5 C 386.8 379.5, 387.5 379.6, 387.5 381.5 C 387.5 383.4, 387 383.5, 378.3 383.2 C 372.8 382.9, 367 383.3, 364 384.1 L 359 385.4 359 401.6 L 359 417.8 362.8 418.3 C 364.8 418.5, 366.8 418.5, 367.3 418.3 C 367.7 418.1, 368 411.4, 368 403.5 C 368 386, 368 386, 378.5 386 C 385.1 386, 385.9 386.2, 386.5 388.1 C 387.5 391, 387.5 406.2, 386.5 412.9 L 385.8 418.3 393.5 417.7 C 397.8 417.3, 402.6 417, 404.2 417 C 406.8 417, 407 416.7, 407 413.2 C 407 411.1, 408.3 403, 410 395.1 C 411.6 387.2, 413.3 377.9, 413.6 374.4 L 414.3 368 403.3 368 C 397.3 368, 392 368.3, 391.7 368.7 M 126.2 371.3 C 125.7 371.9, 124.9 373.6, 124.5 375 C 121.9 383.5, 120.6 384.7, 112.8 385.7 L 105.5 386.5 111.3 390.9 C 117.4 395.6, 117.4 395.3, 116.1 405.3 C 115.3 412, 115.1 411.9, 120.3 407.6 C 127.7 401.6, 128.2 401.6, 135.1 405 C 138.5 406.6, 141.3 408, 141.4 408 C 141.6 408, 141 404.8, 140.2 401 L 138.6 393.9 143.5 389 L 148.4 384 142.6 384 C 135 384, 133.4 382.9, 130 375.9 C 128 371.6, 127 370.3, 126.2 371.3 M 548.7 380.5 C 545.4 383.7, 545.3 386, 548.5 389 C 550.8 391.2, 551 391.2, 553.5 389.6 C 557.8 386.8, 558.5 383.2, 555.5 380.4 C 552.3 377.4, 552.1 377.4, 548.7 380.5 M 374.2 390.3 C 372.6 392.2, 374.8 456, 377.3 481 C 377.9 487.5, 380 460, 380.5 438.5 C 381.3 405.8, 380.3 389.6, 377.4 389.2 C 376.3 389, 374.8 389.5, 374.2 390.3 M 336.2 423.6 C 336.9 427.6, 354 430, 354 426.1 C 354 423.7, 352.7 423.2, 343.4 422.4 C 336.3 421.8, 335.8 421.8, 336.2 423.6 M 395.5 422.9 C 385.7 423.5, 385.5 423.5, 385.5 426 L 385.5 428.5 396.5 428.2 C 402.6 428, 407.6 427.7, 407.7 427.7 C 407.7 427.6, 408 426.4, 408.2 425 C 408.6 422.1, 408.9 422.2, 395.5 422.9 M 318 437.7 C 312.9 443.4, 310.1 447.8, 304.5 458.5 C 302.2 462.9, 298.6 469.7, 296.5 473.5 C 294.4 477.4, 291.6 482.5, 290.4 484.8 C 286.2 492.6, 280.4 513.3, 278 529 C 277.4 532.6, 276.6 537.8, 276.1 540.5 C 275.5 543.3, 275.1 546.6, 275.1 547.9 C 275 552.2, 276.3 549.1, 277.7 542.2 C 281.9 519.8, 286.1 501.1, 288.1 495.5 C 289.4 492, 305.2 459.7, 306.1 459 C 306.4 458.7, 307.6 456.6, 308.8 454.2 C 310 451.8, 311.5 449.4, 312 448.7 C 315.8 444.2, 323.1 433.8, 322.7 433.4 C 322.5 433.2, 320.4 435.1, 318 437.7 M 338 433.2 C 338 438.3, 341.4 441.4, 349.1 443.4 L 354 444.7 354 439.4 C 354 434.2, 353.9 434, 351.3 434 C 349.7 434, 346.1 433.7, 343.3 433.4 C 340.4 433, 338 432.9, 338 433.2 M 359.2 438.2 L 359.5 442.5 364.8 442.8 L 370.2 443.1 369.8 438.8 L 369.4 434.5 364.2 434.2 L 358.9 433.9 359.2 438.2 M 385 439.1 L 385 444.3 394.7 443.6 C 405.7 442.8, 405.8 442.8, 406.7 437.7 L 407.3 434 396.1 434 L 385 434 385 439.1 M 195.6 442.9 C 191.4 447.5, 197.3 454, 202.8 451 C 207.9 448.1, 206 441, 200 441 C 198.5 441, 196.5 441.9, 195.6 442.9 M 572.3 444 C 567.4 452.7, 567.5 452.6, 561.1 454 C 553.5 455.6, 553 457.7, 559.3 461.7 C 565.6 465.9, 566.1 466.8, 565.4 472.8 C 564.8 478.5, 565.2 478.8, 569.6 476.5 C 573.7 474.4, 581 475.4, 581 478.2 C 581 478.6, 581.7 479, 582.6 479 C 584 479, 584.1 478.1, 583.5 473.3 L 582.9 467.5 587.9 463.7 C 594.2 459.1, 594.6 456.4, 589.3 455.5 C 581.7 454.2, 580.4 453.3, 578.4 447.3 C 576.1 440.6, 574.6 439.8, 572.3 444 M 319.6 445.3 C 311.8 454.1, 299 475.7, 299 480 C 299 480.5, 298.6 481.8, 298 482.8 C 295.3 487.8, 289.2 504.3, 287.1 512.5 C 286.5 514.7, 285.4 519.2, 284.5 522.5 C 283.6 525.8, 282.3 531.9, 281.5 536 C 280.7 540.1, 279.3 546.4, 278.4 550 C 273.8 569.3, 271.3 582.5, 269.4 599 C 266.5 623.6, 266.3 626, 267.5 626 C 268.7 626, 270.4 618.1, 272 604.5 C 274 588.2, 277.7 565.8, 280.5 554 C 281.3 550.4, 282.7 544.1, 283.5 540 C 286.2 526.3, 292.2 502.4, 293.9 498.5 C 294.4 497.4, 295.8 493.6, 297.1 490 C 302 475.6, 310.7 459.2, 318.8 448.7 C 323.7 442.5, 324.2 440, 319.6 445.3 M 330.8 453.3 C 320 472.2, 314.6 484.8, 310.5 500.5 C 303.7 526.4, 299.2 545.8, 298.6 551.2 C 298.3 553.6, 298.3 554.6, 298.6 553.5 C 298.9 552.4, 300.3 547.7, 301.7 543 C 303.1 538.3, 304.8 532, 305.5 529 C 307.4 521.4, 312.2 507, 316 497.5 C 322.5 481.4, 335.6 454.6, 337.8 452.8 C 339.5 451.3, 338.8 453.1, 332.9 465.8 C 330.2 471.4, 328 476.2, 328 476.5 C 328 476.8, 323.9 486.2, 320.9 492.5 C 318.1 498.5, 312.9 513.8, 309 527 C 307.8 531.1, 306.4 535.6, 305.9 537 C 305.5 538.4, 304.6 541.3, 304.1 543.5 C 302.3 551.1, 298 568.5, 297 572 C 295.4 577.7, 293.2 587.9, 291.5 597.5 C 287.8 618.1, 287 622.9, 286 631 C 285.4 635.7, 284.7 640.7, 284.4 642.1 C 283.8 644.7, 284 644.8, 289.7 645.2 C 292.9 645.5, 296.2 646, 297 646.4 C 298.3 646.9, 298.8 645.5, 299.7 638.3 C 300.9 629.2, 302.3 621.4, 304 614.5 C 304.5 612.3, 305.9 606.5, 307 601.5 C 308.2 596.6, 310.2 589.4, 311.4 585.5 C 317.2 568.2, 319.3 561.1, 320.5 555.5 C 321.2 552.2, 323.2 543.4, 325 536 C 326.8 528.6, 328.9 519.8, 329.7 516.5 C 331.6 508.5, 333.5 500.8, 335.5 493.5 C 337 487.7, 338.6 479.5, 341 466 C 341.6 462.4, 342.8 457.3, 343.7 454.6 C 345.3 449.7, 344.7 448.1, 341.4 448 C 340.8 448, 339.7 447.3, 339 446.5 C 336.8 443.8, 335.6 444.8, 330.8 453.3 M 572 451.7 C 569.8 455.9, 569 456.6, 565.1 457.3 L 560.7 458.2 564.1 460.3 C 568.6 463.1, 569 463.7, 569 469 C 569 472.4, 569.3 473.1, 570.2 472.2 C 570.9 471.5, 572.6 471, 574 471 C 575.4 471, 577.1 471.5, 577.8 472.2 C 578.7 473.1, 579 472.7, 579 470 C 579 467.4, 579.9 465.8, 583 462.9 C 587.5 458.6, 587.8 458, 585 458 C 580.3 458, 576.8 454.6, 574.9 448.3 C 574.7 447.6, 573.4 449.1, 572 451.7 M 396.9 449.8 C 396.7 450.8, 396.7 450.6, 398 459.5 C 398.6 463.9, 399.8 472.5, 400.6 478.5 C 401.3 484.6, 402.6 494.7, 403.5 501 C 404.3 507.3, 405.5 516.3, 406 521 C 407.3 532.5, 407.3 604, 406 604 C 404.6 604, 404.8 607.4, 404 566.5 C 403.2 531.7, 402.4 519.4, 398.5 487.5 C 397.7 480.9, 396.5 469.8, 395.8 462.8 C 394.5 448.9, 394.7 449.3, 388.3 450.6 C 385.3 451.2, 385.3 451.3, 384.6 458.8 C 384.3 463.1, 383.4 471.7, 382.5 478 C 381.7 484.3, 380.7 492.1, 380.4 495.3 C 379.1 506.1, 375.9 503.6, 374.1 490.2 C 373.4 485.4, 372.5 478.6, 372 475 C 371.5 471.4, 371.1 465.3, 371 461.4 C 371 452.9, 370 451.6, 364.4 452.8 L 360.5 453.6 358.3 482.5 C 357.1 498.5, 356.1 514.1, 356.1 517.3 C 356 520.9, 355.6 522.9, 355 522.5 C 353.7 521.7, 353.7 493.5, 355 483.8 C 355.5 479.8, 356.1 471.1, 356.2 464.5 L 356.5 452.5 352.8 451.6 C 350.7 451.1, 348.7 450.9, 348.4 451.3 C 347.6 452.1, 345.3 462.3, 343.5 473.5 C 342 482.6, 340.5 489, 337.5 499 C 336.7 502, 335.1 507.7, 334 511.7 C 332.2 518.6, 331.7 520.8, 328.5 536.5 C 327.7 540.4, 326.3 546.7, 325.5 550.5 C 323.2 560.6, 321 596.7, 320.3 632.5 L 319.8 663.6 327.1 664.6 C 331.2 665.2, 335.3 666, 336.4 666.5 C 338.1 667.2, 338.2 667, 337.6 663.4 C 336.1 654, 335.8 587.6, 337.2 584.2 C 338.5 581.2, 338.7 582.6, 338.6 600.2 C 338.5 610.8, 338.9 630.4, 339.4 643.8 L 340.3 668.1 345 670.5 C 349.3 672.7, 352.8 676, 357.1 682.2 C 359.6 685.6, 360.5 683.7, 360.3 675.7 C 359.1 633.9, 357.9 600.6, 357.4 599.9 C 356.5 598.3, 356.8 588.8, 357.8 587.8 C 359.8 585.8, 360.9 593.7, 361.5 613.5 C 361.8 624.5, 362.5 640.3, 363 648.5 C 363.6 656.8, 364.1 668.2, 364.3 674 L 364.6 684.5 369.9 686.4 L 375.2 688.3 377.6 685.4 C 379.8 682.9, 380 681.8, 379.5 677 C 377 651.1, 376.8 643.1, 377.3 591 C 377.4 585.8, 376.9 580, 376.2 578.1 C 374.8 574, 374.5 515, 375.9 515 C 377.5 515, 377.9 523.1, 378.9 576.5 C 379.5 605.1, 380.5 635.7, 381 644.5 C 381.6 653.3, 382 665.1, 382 670.7 L 382 680.9 389.6 676.8 C 393.8 674.5, 398.6 672.4, 400.4 672.1 C 403.4 671.4, 403.5 671.2, 403.4 666.5 C 403.3 658.3, 399.1 624, 396.1 606.5 C 394.7 598.6, 394.7 591.3, 396 592.6 C 397.3 593.9, 398.1 598.6, 403.5 633.5 C 406.6 653.9, 406.9 656.6, 407.1 663.2 L 407.3 670 411.4 669.2 C 413.7 668.8, 417.9 668.6, 420.8 668.7 L 426 668.8 425.5 664.2 C 423.8 649, 423 639, 422.5 627 C 422.1 619.6, 421.4 610.8, 420.9 607.5 C 420.4 604.2, 419.5 582.8, 418.9 560 C 418.2 529.8, 417.5 516.3, 416.4 510.5 C 413.1 493.8, 412.2 489.6, 407.5 469 C 406.6 464.9, 405.3 458.7, 404.7 455.3 C 403.6 449.1, 403.6 449, 400.3 449 C 398.5 449, 396.9 449.3, 396.9 449.8 M 690.3 454.3 C 689 455.9, 686 462.6, 686 463.7 C 686 465.1, 681.4 467, 678 467 C 670.9 467, 670.3 469.3, 676.1 474 C 680.5 477.5, 680.8 479.4, 678.4 489.2 C 677.4 493.7, 680.3 493.8, 686.4 489.6 C 692.1 485.7, 694.8 485.7, 699.2 489.7 C 701.3 491.5, 705.7 491, 705.1 489 C 704.9 488.2, 704.5 485.3, 704.3 482.5 C 703.8 477.6, 703.9 477.4, 708.4 473.2 C 713.9 468, 713.8 467.5, 706.2 466.7 C 697.1 465.7, 697.3 466, 694.5 455.3 C 693.8 452.8, 691.8 452.3, 690.3 454.3 M 387.5 458.4 C 387 459.5, 387.2 464.2, 387.9 469.4 C 390.9 491.4, 390.2 534.6, 386.4 563.5 C 383.1 588.9, 383.1 588.5, 386.5 610.5 C 387.4 616.6, 388.4 623.9, 388.7 626.8 C 389 629.6, 389.7 632, 390.3 632 C 391.4 632, 390.7 616.8, 389 606 C 387.7 597.5, 387.7 577.6, 389 567.5 C 392.4 540.4, 393.5 488.9, 391.1 474 C 390.4 469.9, 389.5 464.3, 389.1 461.5 C 388.5 457.6, 388.2 456.9, 387.5 458.4 M 689.5 464.4 C 687.7 469, 685.8 470, 679.1 470 C 676.6 470, 676.6 470.1, 680.8 473.9 C 685.1 477.9, 685.6 479, 684.1 481.8 C 683.7 482.7, 683 484.8, 682.6 486.4 L 681.9 489.2 685.7 486.1 C 689.9 482.6, 693.5 482.2, 698 484.5 L 701 486 700.3 481.5 C 699.8 477.3, 699.9 476.8, 703.4 473.7 C 708.1 469.3, 708 469, 701.6 469 C 696.1 469, 693 466.7, 693 462.6 C 693 459.3, 691.1 460.3, 689.5 464.4 M 133.8 470.3 C 133.1 471.5, 131.4 475.2, 130 478.5 C 126.7 486.9, 124.1 491, 122.2 491 C 119.3 491.1, 105.7 493, 103.8 493.6 C 100.6 494.6, 101.9 497.6, 107 501.6 C 118.9 510.8, 118.2 510, 117.5 513.9 C 116.4 520, 115.3 531.4, 115.7 532.7 C 116.3 534.2, 117.7 533.7, 128.3 527.7 L 137.1 522.7 146.5 527.6 C 158 533.6, 158.7 533.3, 157 523.4 C 154.3 508.2, 154.1 509.5, 160.8 502.6 C 166.4 496.9, 167.4 495.3, 167.1 492.4 C 167 491.8, 163.6 491, 158.8 490.7 C 145.6 489.7, 146.6 490.5, 141 476 C 137.7 467.5, 136.2 466.4, 133.8 470.3 M 436 478 C 436 479.9, 441.3 490.5, 443.4 492.9 C 445 494.6, 448.6 501.1, 452.5 509 C 455.6 515.2, 459.3 526.3, 463 540.5 C 464.8 547.1, 466.8 554.8, 467.6 557.5 C 472.2 574.6, 472.9 577.7, 484.6 634 C 485.5 638.1, 486.6 642.6, 487 644 C 487.5 645.4, 488.2 648.1, 488.6 650 C 488.9 651.9, 489.9 654.6, 490.6 656 C 492 658.4, 492 658.3, 491.4 654.5 C 491.1 652.3, 490.2 647.8, 489.5 644.5 C 488.7 641.2, 487.2 633.3, 486 627 C 484.9 620.7, 483.6 613.9, 483.1 612 C 482.6 610.1, 481.9 606.5, 481.5 604 C 481.1 601.5, 480.4 597.9, 480 596 C 479.5 594.1, 478.1 588, 476.9 582.5 C 474.8 572.9, 472.4 563.1, 469.5 552.5 C 468.8 549.8, 467.5 544.8, 466.6 541.5 C 461.7 522, 451.8 499.2, 445 491.7 C 443.6 490.2, 441 486.1, 439.3 482.7 C 437.5 479.3, 436 477.2, 436 478 M 135.4 479.1 C 134.9 479.9, 133.3 483, 132 486 C 128.3 494.5, 127.3 495.3, 117.3 496.5 L 108.5 497.5 115.3 502.4 C 123.3 508.4, 123.4 508.6, 121.5 518.5 C 120.7 522.8, 120.2 526.5, 120.4 526.7 C 120.6 526.9, 124.1 525.1, 128.3 522.6 C 137.2 517.1, 136.5 517.1, 144.6 521.5 C 148.1 523.4, 151.3 525, 151.5 525 C 152.3 525, 152.1 520.3, 151.1 517.8 C 148.2 510, 148.6 508.6, 154.9 502.5 C 158.2 499.3, 160.7 496.3, 160.4 495.9 C 160.1 495.4, 157.3 495, 154.2 494.9 C 145.5 494.7, 144 494, 141 488.5 C 139.5 485.7, 137.9 482.2, 137.4 480.6 C 136.6 478.4, 136.2 478.1, 135.4 479.1 M 514.7 494 C 509.7 498, 510.4 504, 516.3 506.5 C 524.5 509.9, 530.3 499.6, 523.3 494 C 520.1 491.5, 517.9 491.5, 514.7 494 M 343.6 497.8 C 342.7 500.7, 342.7 510.7, 343.5 527.5 C 344 538.3, 343.9 545.9, 343.1 550.8 C 342.5 554.8, 342.3 559.3, 342.7 560.8 C 343.4 563, 343.6 562.3, 344.2 557 C 344.8 550.9, 346.2 542.5, 347.5 537.3 C 348.1 534.8, 349.6 534.2, 349.8 536.3 C 349.8 536.9, 350.1 549.2, 350.3 563.6 C 350.7 588.6, 351.6 595.9, 354 593.4 C 354.4 592.9, 354.4 579.7, 353.9 564 C 353.2 536.4, 352.1 527.6, 350 531 C 348.1 534, 347.5 530.4, 347.2 515.7 C 347.1 507.3, 346.7 499.5, 346.5 498.3 C 345.9 495.6, 344.3 495.3, 343.6 497.8 M 361.7 505.3 C 360.1 509.4, 361.5 552.4, 364 572.3 C 366.3 591.3, 369.1 608.5, 370.1 609.5 C 371.3 610.7, 371.3 600.9, 370 590 C 369.4 585.3, 368.3 575.9, 367.4 569 C 365.3 551.8, 364.1 536.5, 364 524 C 363.8 511.1, 362.8 502.7, 361.7 505.3 M 421.1 530.5 C 421.1 534.4, 421.5 540.7, 421.9 544.5 C 422.4 548.9, 422.4 552, 421.7 552.8 C 420.6 554.2, 421.5 586.6, 423 599.5 C 423.6 603.9, 424.4 613.8, 425 621.5 C 428.6 672.9, 428.1 669.7, 432.7 671.6 C 434.6 672.5, 436.4 674, 436.7 675 C 437.1 676.5, 438.4 676.9, 443.6 677.2 C 447.1 677.4, 450 677.3, 450 677 C 449.9 676, 448 664.2, 446.5 655.5 C 442.9 635, 442 630.2, 440.6 624.5 C 435.2 601.4, 432.9 591.8, 431.5 587 C 425.5 566.8, 422.2 550.5, 425.3 556 C 426.6 558.5, 427.9 562.7, 430.5 573 C 431.3 576, 432.6 581, 433.4 584 C 435.8 592.7, 438.6 604.3, 442.5 620.5 C 447.5 642.1, 447.9 643.9, 448.9 650.5 C 449.9 657.6, 453.2 677.4, 453.5 677.7 C 453.6 677.9, 456 675.7, 458.9 673 L 464.3 668 463.2 663.7 C 462.6 661.4, 461.7 657.5, 461.2 655 C 460.3 650.6, 457.3 639, 451 616 C 449.3 609.7, 447.4 602.7, 446.9 600.5 C 446.4 598.3, 444.9 593.4, 443.6 589.5 C 442.3 585.7, 440.3 579.4, 439.1 575.5 C 437.9 571.7, 436.5 567.6, 436 566.5 C 435.5 565.4, 432.9 557.8, 430.1 549.5 C 427.3 541.3, 424.2 532, 423.1 529 L 421.1 523.5 421.1 530.5 M 684.6 527.8 C 681.2 535.1, 675.3 539, 667.3 539 C 666.1 539, 665 539.4, 665 539.8 C 665 540.9, 668.6 544.7, 671.5 546.6 C 674.3 548.4, 674.9 554.4, 673 559.6 C 672.2 561.7, 672.2 562.7, 673.4 563.8 C 674.7 565.1, 675.4 564.9, 679.8 562.1 C 685.2 558.7, 688.1 558.2, 690.1 560.6 C 690.8 561.4, 692.6 562.8, 694.1 563.6 C 697.8 565.5, 698.5 564.2, 698.1 555.9 L 697.8 549.2 701.7 546.4 C 708.3 541.4, 707.9 539, 700.4 539 C 695.2 539, 692.5 536.6, 691.5 531.2 C 690.5 525.1, 689.9 524, 688.1 524 C 687 524, 685.6 525.5, 684.6 527.8 M 685.6 533.3 C 684.6 537.2, 680.2 540.9, 675.9 541.6 L 671.9 542.3 675 545.2 C 678 547.9, 678.1 548.3, 677.5 553 C 676.7 558.6, 677.1 558.9, 680.7 556 C 684.1 553.3, 686.9 553.5, 691 556.5 C 692.9 557.9, 694.5 559, 694.7 559 C 694.9 559, 694.7 556.6, 694.4 553.7 C 693.8 548.5, 693.9 548.2, 697.1 545.7 L 700.5 543.1 696.2 542.4 C 691.6 541.7, 689.7 539.7, 688.5 534.7 C 687.6 531.1, 686.4 530.5, 685.6 533.3 M 476 546.3 C 476 546.9, 476.5 549.1, 477.1 551 C 477.7 552.9, 478.8 556.9, 479.6 559.8 C 480.3 562.6, 481.6 567.4, 482.4 570.3 C 484.7 578.9, 490.8 603.3, 491.5 607 C 492.5 612.5, 495.1 623.8, 497.2 632 C 500.9 646.5, 500.7 645.7, 501.5 643.8 C 501.9 642.8, 501.9 641.2, 501.5 640.3 C 500.8 638.5, 499.4 632.2, 496.5 618 C 493.1 601.1, 491.9 595.7, 487.5 578.5 C 484.9 568.6, 482.4 558.8, 481.9 556.7 C 480.3 550.3, 476 542.7, 476 546.3 M 207 549.9 L 203.6 552.7 206.7 555.9 C 209.7 558.9, 209.9 558.9, 213.2 557.6 C 217.4 555.8, 218.2 551.8, 214.9 548.9 C 212 546.4, 211 546.5, 207 549.9 M 54.2 558.9 C 52.2 563.9, 51.5 564.3, 44.8 565.5 C 40 566.3, 40 567.7, 44.7 571.6 L 48.4 574.8 47.4 579.9 C 46 586.5, 46.9 587.9, 50.6 585.3 C 55.5 581.9, 57.7 581.7, 62.6 584 C 68.3 586.8, 69.3 586, 68.1 579.6 C 67.2 575, 67.3 574.6, 70.7 570.9 C 74.8 566.4, 74.4 565.3, 68.6 564.5 C 64.6 563.9, 63.9 563.4, 61.8 559.2 C 58.5 552.8, 56.8 552.8, 54.2 558.9 M 56.1 563.8 C 54.2 567.6, 53.6 568, 50.3 568 L 46.6 568 49.3 570.8 C 51.1 572.7, 52 574.7, 52 576.8 C 52 579.8, 52.2 580, 54.1 578.9 C 56.1 577.9, 58.8 578, 62.1 579.4 C 63.4 580, 63.6 579.5, 63.2 577 C 62.9 574.6, 63.4 573.2, 65.6 570.9 L 68.4 568 65.3 568 C 61.9 568, 60.7 566.9, 59.3 562.5 L 58.3 559.5 56.1 563.8 M 411.1 574.7 C 411.5 578.5, 412.3 587.6, 413 595 C 414.1 607.4, 415.1 611.3, 416.5 609.8 C 417.3 609, 415 581.6, 413.6 574.6 C 412 566.2, 410.3 566.4, 411.1 574.7 M 316.2 580 C 312 593.1, 311.7 594.2, 309 606.5 C 307.9 612, 306.5 618.3, 306 620.5 C 305.5 622.7, 304.1 629.5, 302.9 635.5 C 301.8 641.6, 300.6 646.8, 300.4 647.2 C 300.2 647.5, 301.5 648.7, 303.2 649.9 C 306.7 652, 312.7 658, 315.2 661.8 C 316.6 663.9, 316.8 660.8, 317.3 628.8 C 317.6 609.4, 318.4 589.3, 319 584.2 C 320.8 569.2, 320 568, 316.2 580 M 167.9 624.4 C 160.1 626.6, 153.1 631.1, 146.4 638.3 C 139 646.3, 138.7 647.5, 143.5 651.3 C 149.8 656.3, 147.5 658.7, 139.7 655 C 114.3 643.1, 85.2 655.2, 78.7 680.4 C 76.9 687.3, 76.5 687.7, 74.4 685.9 C 73.5 685.1, 70.6 684.6, 67.5 684.6 C 57.6 684.8, 48.3 691.4, 45.7 700.1 L 44.3 704.7 56.9 704.7 C 70.8 704.6, 76.5 705.8, 87.7 711.2 L 93.8 714.2 100.3 711.1 C 107.2 707.8, 115.5 706.9, 117.8 709.2 C 118.7 710.1, 119.9 709.5, 123.3 706.3 C 128.6 701.2, 132.3 699.3, 138.9 698.4 C 143.5 697.8, 144.8 697, 149.3 692.6 C 161.9 680.1, 175.4 679.8, 193 691.5 C 196.7 694, 200.6 696, 201.7 696 C 204.2 696, 208 698.7, 208 700.5 C 208 702.2, 205 704, 202.3 704 C 200.3 704, 196 707.4, 196 708.9 C 196 709.4, 197.9 709.1, 200.3 708.3 C 204.5 706.8, 229.5 706.9, 234.6 708.5 C 236.3 709, 236.9 708.7, 237.4 706.7 C 239.5 698.2, 248.8 695.3, 254.5 701.4 C 257.6 704.7, 257.7 704.7, 261 703.3 C 265 701.7, 270.2 700.3, 278 698.8 C 284.8 697.5, 284.4 698.2, 282.4 691.9 C 279 681.5, 273.6 675.4, 263.3 670.5 C 253.4 665.8, 246.7 665.6, 231 669.2 C 230.1 669.4, 229.7 668.9, 229.9 668 C 232 660.6, 228.6 653.2, 217.6 640.4 C 206.4 627.3, 183.7 620.1, 167.9 624.4 M 557.5 626 C 539.6 629.8, 522.3 642.6, 515.3 657.1 C 511.8 664.2, 510.7 668, 512.1 668 C 512.6 668, 514 670.1, 515.2 672.6 C 517.1 676.3, 517.8 677, 519.5 676.5 C 535.2 671.6, 547.4 670.7, 559.6 673.6 C 570.4 676.1, 578.1 680.4, 589.4 690.4 C 593.2 693.8, 593.4 693.8, 595.7 688.3 C 600.4 677.1, 612.1 669.1, 623.8 669 C 626.1 669, 629.2 668.3, 630.5 667.4 L 632.9 665.8 630.7 662.7 C 620.5 647.9, 618.8 646.1, 613.5 643.5 C 609.3 641.6, 607.1 641.1, 604.3 641.6 C 600.7 642.1, 600.3 641.9, 598 638.4 C 591.8 628.8, 572.1 622.8, 557.5 626 M 238.5 631.6 C 233.1 633, 226 637.2, 226 639 C 226 639.4, 227.3 641.3, 229 643.1 C 231.9 646.5, 238 657.7, 238 659.8 C 238 660.6, 238.9 660.6, 241.1 659.8 C 242.9 659.2, 247.1 659, 250.9 659.3 L 257.5 659.8 259.1 656.7 C 260 654.9, 262.5 652.2, 264.8 650.7 C 269.6 647.5, 269.8 646.5, 267 641.6 C 265 638.3, 262.4 636.1, 257 633.2 C 254.4 631.8, 242 630.7, 238.5 631.6 M 629 633.9 C 626.5 634.9, 623 636.2, 621.2 636.9 L 617.9 638.2 621.3 640.6 C 624.3 642.6, 628.3 647.9, 635.3 659.2 L 637 661.9 642.2 658.3 C 648.2 654.3, 654.9 651.2, 663.3 648.6 C 666.4 647.6, 669 646.4, 669 646 C 669 643.9, 658.6 636.1, 653.2 634.2 C 645.9 631.5, 635.5 631.4, 629 633.9 M 276 652.9 C 271.7 654.3, 267.6 656.7, 265.1 659.3 L 262.8 661.9 267.1 664.1 C 273.6 667.4, 278.8 671.9, 282.2 677.2 C 283.9 679.9, 285.5 682, 285.6 682 C 285.8 682, 288.1 679.9, 290.7 677.3 C 293.3 674.6, 298.5 671, 302.3 669.2 C 306 667.4, 309 665.6, 309 665.2 C 309 663.9, 302.9 658.5, 298 655.4 C 293.2 652.5, 281.4 651.1, 276 652.9 M 478.6 667.1 C 474.8 668, 462.4 675.5, 460 678.4 C 458.8 679.9, 460.9 681.3, 468.1 683.5 C 471.7 684.7, 477.9 688.8, 483.3 693.6 L 488.1 697.9 491.3 694.2 C 496 688.8, 498.8 686.5, 505.8 682.4 C 512.3 678.5, 513.4 676.5, 510.2 673.7 C 507.9 671.6, 507.5 671.6, 505.4 673.7 C 504.3 674.9, 501.9 675.5, 498.5 675.6 C 491 675.8, 484.2 679.1, 483.8 682.6 C 483.4 686.5, 481.1 686.8, 479.7 683.1 C 479 681.2, 477.9 680, 476.7 680 C 473.8 680, 475.3 677.6, 478.6 677 C 480.2 676.7, 483.8 675.3, 486.5 673.9 C 489.3 672.4, 493 670.9, 494.8 670.5 C 499.2 669.6, 498.8 668.4, 493.6 667.1 C 488.4 665.8, 484.1 665.8, 478.6 667.1 M 619.5 675.3 C 606.9 679.2, 601.2 684.7, 602.4 691.5 C 603 694.7, 602.9 695, 600.8 695 C 599.5 695, 596.5 696.1, 594.1 697.5 C 589.6 700.1, 587 700.7, 587 699 C 587 694.9, 573.1 685.1, 562 681.4 C 551.9 678, 533.7 678.7, 522.1 682.9 C 505.4 688.9, 493 697.7, 493 703.5 L 493 706.8 499.8 707.2 C 505.4 707.5, 507.4 708.1, 512.2 711.2 C 520.1 716.3, 525.8 721.7, 528.1 726.2 C 529.8 729.6, 530.4 730, 533.8 730 C 544.2 730, 559 735.2, 564.1 740.6 C 566.8 743.5, 568.3 743.6, 571.8 741 C 579 735.7, 598.1 733.1, 606.9 736.1 C 611 737.5, 611.2 737.2, 609.5 732.5 C 607.6 727.1, 607.6 709, 609.5 701.7 C 611.1 695.6, 616.5 684.8, 620.7 679.2 C 623.7 675.2, 623.4 674.1, 619.5 675.3 M 164.2 689.9 C 161.3 691, 157.1 693.3, 154.8 695.1 L 150.7 698.4 156.4 700.5 C 164.1 703.4, 170.8 709.1, 173.2 715 L 175.2 719.8 184.2 715.2 C 192.8 710.8, 193.4 710.3, 195.8 705.2 C 199 698.2, 198.3 695, 193.5 695 C 191.7 695, 189.8 695.5, 189.5 696 C 188.4 697.8, 185 697.1, 185 695.1 C 185 689.6, 173.1 686.6, 164.2 689.9 M 11.5 694 C 9.9 694.7, 9.8 694.9, 11.2 694.9 C 14 695.1, 22.9 702.8, 25 707.1 L 27.1 711.1 30.3 709 C 32.1 707.8, 34.7 706.3, 36.3 705.7 C 38.5 704.8, 39 703.9, 39 701.3 C 39 697.4, 36.6 696.1, 28.5 695.6 C 25.8 695.4, 22.2 694.8, 20.7 694.1 C 17.4 692.8, 14.3 692.8, 11.5 694 M 242.1 704.7 C 238.3 709.4, 238.3 710.1, 242 712.4 L 245.1 714.2 249.3 710.4 C 251.6 708.4, 253.9 706.3, 254.4 705.9 C 256.1 704.4, 251.9 701, 248.4 701 C 245.9 701, 244.5 701.8, 242.1 704.7" stroke="none" fill="#1b1f3a" fill-rule="evenodd"/></svg>