<svg xmlns="http://www.w3.org/2000/svg" viewBox="0 0 768 768" version="1.1" preserveAspectRatio="xMidYMid meet">
	<path d="M 0 384 C 0 639.333, 0.335 768, 1 768 C 1.648 768, 2 755.512, 2 732.535 C 2 697.728, 2.038 697.050, 4.064 695.966 C 6.481 694.672, 7.588 695.328, 13.301 701.436 C 19.321 707.872, 22.923 714.703, 22.304 718.512 C 21.552 723.150, 23.123 723.443, 28.646 719.693 C 38.774 712.814, 52.111 710.136, 67.137 711.963 C 72.075 712.564, 76.877 713.456, 77.807 713.947 C 78.738 714.437, 82.425 716.276, 86 718.032 C 89.575 719.788, 96.176 723.874, 100.669 727.112 C 109.944 733.798, 110 733.819, 110 730.712 C 110 729.291, 108.108 726.561, 105 723.500 C 98.935 717.527, 98.939 717.571, 104.355 715.502 C 109.424 713.566, 114.455 713.811, 114.598 716 C 114.961 721.582, 115.814 721.361, 124.113 713.533 C 132.891 705.252, 139.190 703.026, 148.446 704.934 C 161.004 707.522, 168.412 713.876, 168.230 721.900 C 168.021 731.050, 171.232 731.347, 184.633 723.415 C 201.747 713.286, 212.529 711.064, 227.605 714.560 C 236.165 716.546, 239.845 718.463, 241.018 721.548 C 242.242 724.768, 242.117 724.809, 249.294 718.826 C 271.710 700.138, 306.368 699.717, 326.205 717.892 C 331.860 723.073, 335.179 727.536, 336.411 731.618 C 337.027 733.657, 336.669 733.755, 326.775 734.264 C 313.782 734.932, 299.151 739.888, 290.250 746.638 C 285.272 750.412, 286.456 754.126, 291.527 750.647 C 295.165 748.151, 307.050 743.902, 315.815 741.964 C 330.936 738.620, 349.285 739.869, 359.702 744.950 C 364.992 747.531, 364.289 747.788, 367.074 742.250 C 372.373 731.710, 387.254 720.739, 401.500 716.869 C 409.803 714.614, 429.140 715.151, 437.148 717.859 C 449.914 722.177, 463.619 732.239, 469.716 741.770 C 472.084 745.472, 473.628 746.973, 474.661 746.576 C 475.488 746.259, 476.577 746, 477.082 746 C 479.632 746, 477.601 741.203, 472.002 734 C 449.234 704.715, 405.530 699.350, 375.244 722.122 C 370.209 725.908, 362 735.185, 362 737.090 C 362 738.342, 359.676 738.230, 356.315 736.815 C 354.767 736.163, 351.305 735.150, 348.621 734.565 C 343.995 733.555, 343.642 733.241, 341.794 728.500 C 335.335 711.926, 316.393 699.746, 294.750 698.250 C 290.488 697.955, 287.005 697.441, 287.011 697.107 C 287.053 694.753, 290.282 686.537, 292.168 683.987 C 297.304 677.039, 311.201 671, 322.052 671 C 335.139 671, 351.060 680.362, 352.921 689.151 C 353.667 692.674, 353.708 692.686, 360.618 691.373 C 364.748 690.589, 369.457 692.891, 379.741 700.724 C 389.118 707.865, 389.491 708.016, 388.476 704.250 C 387.401 700.263, 387.882 694.130, 389.516 690.970 C 391.806 686.542, 399.803 680.118, 403.864 679.446 C 407.825 678.790, 408.294 678.619, 412 676.476 C 415.029 674.724, 423.043 674.694, 428.500 676.415 L 432.500 677.677 428 678.865 C 419.964 680.987, 411.914 685.265, 410.382 688.228 C 408.479 691.908, 410.556 691.971, 418.466 688.473 C 433.662 681.752, 452.056 682.997, 468.927 691.888 C 475.197 695.193, 483.956 703.747, 486.193 708.750 L 488.094 713 495.393 713 C 505.060 713, 513.128 717.186, 521.223 726.400 C 524.777 730.445, 524.690 731, 520.504 731 C 511.658 731, 492 741.046, 492 745.567 C 492 748.067, 495.125 747.841, 499.740 745.007 C 512.159 737.382, 532.284 734.488, 545.384 738.443 C 552.467 740.582, 562.134 746.083, 564.829 749.510 C 567.284 752.630, 569.329 752.672, 571.314 749.643 C 577.644 739.982, 612.841 738.797, 619.306 748.027 C 620.744 750.080, 620.750 750.080, 624.123 748.114 C 636.713 740.776, 657.599 741.820, 672.461 750.530 C 677.531 753.501, 678 753.548, 678 751.089 C 678 748.453, 672.740 744.243, 665 740.685 C 655.763 736.438, 641.695 735.741, 630.759 738.988 L 623.223 741.225 620.178 738.974 C 617.169 736.748, 616.182 734.107, 614.535 723.856 C 613.133 715.133, 617.441 698.501, 623.937 687.556 C 645.232 651.677, 696.836 641.437, 723.424 667.814 C 728.819 673.167, 734 681.629, 734 685.089 C 734 687.260, 736 688, 741.870 688 C 747.416 688, 751.353 689.848, 760.930 696.948 L 767.973 702.169 768.251 734.835 C 768.403 752.801, 768.523 594.700, 768.516 383.500 L 768.503 -0.500 768.250 346.252 L 767.997 693.004 761.749 688.691 C 755.278 684.225, 748.617 681.330, 743.600 680.804 C 741.160 680.548, 740.127 679.440, 737.100 673.831 C 726.929 654.990, 707.653 644.371, 685.086 645.178 L 676.081 645.500 674.029 641.844 C 665.297 626.284, 638.974 620.350, 619.948 629.654 C 616.952 631.119, 612.181 632.870, 609.347 633.546 L 604.195 634.774 599.957 630.456 C 584.188 614.389, 553.862 614.431, 530.134 630.555 C 522.292 635.883, 507 653.667, 507 657.457 C 507 657.791, 506.342 659.639, 505.538 661.564 C 504.322 664.474, 503.774 664.900, 502.288 664.094 C 498.877 662.243, 490.626 660, 487.226 660 C 483.069 660, 473.345 662.732, 470.219 664.778 C 467.367 666.645, 467.690 667.170, 465.121 656.500 C 462.510 645.656, 461.572 642.048, 459.659 635.500 C 458.855 632.750, 457.900 628.925, 457.536 627 C 457.173 625.075, 456.489 622.375, 456.017 621 C 455.546 619.625, 454.472 616.025, 453.631 613 C 448.623 594.981, 441.116 571.273, 430.834 541 C 420.786 511.418, 419.875 508.543, 418.346 501.597 C 415.611 489.164, 412.280 475.691, 409.421 465.500 C 408.496 462.200, 407.601 457.349, 407.434 454.719 L 407.129 449.938 411.144 454.719 C 414.615 458.852, 422.395 473.680, 431.231 493 C 432.615 496.025, 434.735 501.875, 435.944 506 C 437.152 510.125, 438.540 514.400, 439.027 515.500 C 440.263 518.287, 451.336 551.898, 454.017 561 C 455.233 565.125, 457.261 571.875, 458.525 576 C 460.882 583.698, 463.070 591.329, 465.692 601 C 466.512 604.025, 467.782 608.525, 468.514 611 C 469.246 613.475, 470.164 617.300, 470.553 619.500 C 470.942 621.700, 471.593 623.950, 472 624.500 C 472.407 625.050, 473.060 627.300, 473.453 629.500 C 474.533 635.557, 476.382 641, 477.360 641 C 477.840 641, 477.923 639.987, 477.545 638.750 C 477.166 637.513, 476.244 633.800, 475.496 630.500 C 471.821 614.295, 463.838 583.197, 460.607 572.500 C 457.490 562.180, 455.831 556.381, 454.887 552.500 C 453.045 544.935, 438.007 501.214, 434.765 494 C 429.082 481.353, 422.296 467.605, 417.983 460 C 414.756 454.309, 412.964 449.848, 412.563 446.500 C 411.554 438.094, 412.989 438.032, 419.592 446.194 C 422.842 450.209, 427.916 456.421, 430.870 459.998 C 433.823 463.574, 436.973 467.420, 437.870 468.544 C 444.155 476.425, 454.855 494.201, 459.654 504.736 C 470.055 527.564, 470.025 527.524, 474.468 524.613 C 479.288 521.455, 481.476 500.203, 480.709 464 C 479.955 428.405, 476.360 407.540, 466.324 380.500 C 458.020 358.129, 440.854 327.015, 429.986 314.636 L 427.170 311.430 427.998 300.965 C 432.442 244.764, 427.342 174.244, 417.044 149.500 C 416.586 148.400, 415.432 145.250, 414.479 142.500 C 405.754 117.321, 381.668 80.399, 375.413 82.615 C 366.629 85.728, 342.588 122.318, 333.440 146.500 C 331.135 152.594, 329.636 157.038, 324.990 171.552 C 324.453 173.231, 323.606 176.606, 323.109 179.052 C 322.612 181.499, 321.273 188, 320.134 193.500 C 318.995 199, 317.582 207.550, 316.993 212.500 C 316.405 217.450, 315.499 225.100, 314.980 229.500 C 314.461 233.900, 313.730 250.300, 313.356 265.945 L 312.676 294.390 309.521 297.546 C 297.009 310.057, 272.968 356.580, 269.496 375 C 269.133 376.925, 268.432 379.850, 267.938 381.500 C 263.120 397.609, 259.764 442.681, 261.858 463.168 C 263.051 474.835, 262.581 477.256, 256.621 490.186 C 253.099 497.827, 253.185 500.677, 256.797 496 C 258.284 494.075, 261.558 490.250, 264.072 487.500 C 270.452 480.523, 272.975 476.532, 282.084 459 C 285.862 451.729, 294.461 438.041, 299.362 431.500 C 306.402 422.101, 324.484 403.563, 325.811 404.383 C 326.317 404.696, 327.002 406.650, 327.335 408.726 C 327.668 410.802, 328.066 413.196, 328.220 414.048 C 328.384 414.952, 323.926 419.758, 317.500 425.607 C 302.246 439.490, 292.812 452.535, 278.522 479.500 C 274.361 487.353, 265.408 511.221, 263.143 520.500 C 262.606 522.700, 260.564 530.215, 258.605 537.199 C 254.566 551.603, 252.885 560.811, 254.154 561.595 C 255.081 562.168, 255.231 561.816, 256.961 555 C 260.463 541.199, 263.148 531.207, 263.947 529 C 264.444 527.625, 265.816 523.125, 266.996 519 C 268.176 514.875, 269.500 510.600, 269.938 509.500 C 270.376 508.400, 272.214 503.675, 274.023 499 C 277.337 490.433, 285.803 472.927, 287.079 472 C 287.458 471.725, 290.351 467, 293.509 461.500 C 303.220 444.589, 311.760 434.189, 323.174 425.380 C 330.085 420.045, 330 420.050, 330 425.035 C 330 427.255, 330.632 430.067, 331.404 431.285 C 335.069 437.067, 334.538 441.461, 329.166 449.837 C 317.472 468.065, 309.334 487.737, 304.068 510.500 C 302.923 515.450, 301.526 521.075, 300.964 523 C 300.402 524.925, 299.551 528.525, 299.073 531 C 298.596 533.475, 297.273 540, 296.134 545.500 C 294.995 551, 293.607 559.325, 293.049 564 C 292.025 572.576, 290.252 584.385, 287.642 600 C 286.107 609.184, 284.593 619.145, 282.931 631 C 280.817 646.078, 281.190 645, 278.091 645 C 275.678 645, 275.028 644.362, 273.583 640.579 C 271.486 635.088, 264.552 628.545, 259.098 626.911 C 256.501 626.133, 255.012 625.100, 255.032 624.092 C 255.075 621.916, 257.570 604.515, 259.453 593.250 C 260.304 588.163, 261.635 580.063, 262.411 575.250 C 263.187 570.438, 264.051 565.825, 264.332 565 C 264.613 564.175, 265.110 560.575, 265.436 557 C 265.978 551.065, 265.898 550.669, 264.515 552.441 C 263.682 553.509, 262.994 555.534, 262.987 556.941 C 262.980 558.349, 262.054 563.775, 260.929 569 C 258.539 580.102, 254.277 605.208, 252.314 619.750 L 251.740 624 246.548 624 C 240.433 624, 233.302 626.239, 226.889 630.172 C 221.125 633.708, 221.684 633.772, 216.187 628.934 C 204.754 618.869, 185.346 613.442, 171.046 616.311 C 155.630 619.403, 141.979 628.718, 135.981 640.240 C 134.148 643.761, 133.073 644.841, 131.802 644.437 C 109.020 637.207, 80.231 652.201, 72.639 675.250 C 72.188 676.621, 70.920 677.002, 66.781 677.010 C 59.507 677.023, 51.725 680.811, 45.793 687.227 C 42.250 691.058, 40.767 692.057, 39.793 691.266 C 34.704 687.131, 14.153 685.719, 6.543 688.981 C 3.367 690.343, 1.970 690.578, 2.079 689.731 C 2.868 683.580, 1.799 0, 1 0 C 0.335 0, 0 128.667, 0 384 M 0.495 384.500 C 0.495 595.700, 0.610 681.951, 0.750 576.169 C 0.890 470.386, 0.890 297.586, 0.750 192.169 C 0.610 86.751, 0.495 173.300, 0.495 384.500 M 482.466 46.250 C 479.908 52.054, 478.398 53.255, 473.014 53.773 C 465.849 54.461, 465.172 56.898, 471.163 60.437 L 474.262 62.268 473.624 69.134 C 472.892 77.007, 473.008 77.084, 479.939 73.340 C 484.647 70.798, 484.977 70.754, 487.432 72.340 C 488.844 73.253, 491.017 74.656, 492.260 75.458 C 496.130 77.954, 497.407 76.126, 496.089 69.979 C 494.799 63.964, 496.141 60.657, 500.552 58.980 C 505.600 57.061, 502.319 53, 495.721 53 C 491.880 53, 489.595 51.005, 487.915 46.185 C 486.490 42.097, 484.284 42.124, 482.466 46.250 M 482.269 52.940 C 480.873 54.711, 478.657 56.029, 476.349 56.462 L 472.661 57.154 475.485 59.407 C 478.055 61.456, 478.248 62.046, 477.624 65.948 C 477.006 69.812, 477.115 70.161, 478.719 69.466 C 482.521 67.820, 487.042 67.797, 489.507 69.413 L 492 71.046 492 66.658 C 492 63.784, 492.690 61.392, 494 59.727 C 496.719 56.271, 496.582 56, 492.121 56 C 488.754 56, 488.079 55.604, 487 53 C 485.489 49.351, 485.102 49.347, 482.269 52.940 M 211 51.990 C 210.175 52.466, 208.720 53.096, 207.767 53.390 C 206.404 53.810, 206.166 54.625, 206.650 57.212 C 207.488 61.695, 208.291 62.342, 213.385 62.638 C 217.468 62.875, 217.822 62.697, 218.253 60.197 C 218.508 58.714, 219.015 56.815, 219.379 55.977 C 219.847 54.897, 219.088 54.046, 216.770 53.054 C 214.971 52.284, 213.275 51.535, 213 51.390 C 212.725 51.244, 211.825 51.514, 211 51.990 M 676.267 66.217 C 675.699 66.923, 673.825 70.313, 672.103 73.750 L 668.971 80 661.954 80 C 652.673 80, 651.946 81.584, 658.555 87.400 L 663.383 91.649 662.403 98.208 C 661.013 107.510, 662.595 109.433, 668.115 105.149 C 674.491 100.200, 676.070 100.313, 682.844 106.199 C 687.672 110.393, 688.500 109.552, 688.500 100.457 L 688.500 92.608 692.750 89.738 C 698.987 85.526, 698.479 83.467, 690.780 81.757 L 684.560 80.375 682.004 73.012 C 679.393 65.488, 678.093 63.949, 676.267 66.217 M 97.813 71.205 C 97.001 72.467, 95.497 75.862, 94.471 78.750 C 93.445 81.638, 92.356 84.007, 92.052 84.016 C 70.759 84.652, 68.791 86.072, 78.043 94.119 C 84.727 99.932, 84.981 100.872, 82.379 110.147 C 79.646 119.887, 81.953 121.319, 91.046 115.526 C 97.823 111.209, 98.347 111.207, 105.046 115.474 C 114.574 121.544, 114.858 121.103, 112.448 104 C 111.977 100.656, 112.206 100.344, 117.573 97 C 127.444 90.850, 127.016 87.494, 116.218 86.365 C 108.292 85.537, 107.612 84.953, 104.719 76.500 C 102.139 68.960, 100.209 67.480, 97.813 71.205 M 547.275 73.250 C 546.741 73.938, 545.245 76.427, 543.950 78.782 C 541.475 83.284, 540.980 83.517, 531.750 84.519 C 525.050 85.247, 524.419 86.694, 529.589 89.478 C 535.083 92.437, 537.156 95.613, 536.395 99.905 C 536.044 101.882, 535.362 103.928, 534.879 104.450 C 533.606 105.825, 533.800 109, 535.156 109 C 535.791 109, 537.786 107.875, 539.589 106.500 C 543.563 103.469, 545.126 103.377, 547.529 106.032 C 550.216 109.001, 555.803 112.240, 556.982 111.511 C 557.542 111.165, 558.014 108.096, 558.032 104.691 C 558.067 97.772, 558.680 96.681, 564.750 92.735 C 569.767 89.473, 570.600 86, 566.366 86 C 559.511 86, 556.385 84.036, 553.442 77.880 C 550.642 72.021, 549.117 70.876, 547.275 73.250 M 674.414 78.039 L 671.475 83.500 666.238 83.457 C 660.023 83.407, 659.924 83.641, 664.590 87.364 C 668.298 90.323, 668.535 91.933, 666.352 99.335 C 665.838 101.081, 665.936 101.088, 668.383 99.485 C 672.567 96.743, 677.574 97.323, 682.265 101.092 C 685.340 103.564, 686.161 103.900, 685.558 102.442 C 685.116 101.374, 684.350 98.475, 683.856 96 C 683.003 91.725, 683.110 91.375, 685.988 89 C 689.761 85.887, 689.791 85, 686.122 85 C 682.644 85, 681.001 83.211, 678.927 77.164 L 677.353 72.577 674.414 78.039 M 97.660 82.115 C 94.780 88.544, 94.002 89, 85.918 89 C 78.793 89, 78.635 89.610, 84.607 94.064 L 89.213 97.500 88.643 102.500 C 88.330 105.250, 87.757 108.599, 87.370 109.943 L 86.666 112.386 91.261 109.693 C 96.914 106.380, 98.433 106.353, 103.500 109.474 C 105.700 110.829, 107.843 111.952, 108.262 111.969 C 108.957 111.997, 108.553 106.858, 107.422 101.267 C 107.060 99.474, 107.954 98.392, 111.967 95.767 C 114.716 93.970, 116.972 92.211, 116.982 91.859 C 116.992 91.506, 114.065 90.634, 110.479 89.921 L 103.957 88.625 102.067 82.562 L 100.176 76.500 97.660 82.115 M 545.840 81.448 C 543.338 85.575, 542.851 85.875, 537.590 86.532 C 534.516 86.916, 532 87.629, 532 88.115 C 532 88.602, 532.415 89, 532.923 89 C 533.431 89, 535.276 90.203, 537.023 91.673 C 540.253 94.391, 540.615 97.627, 538.350 103.530 C 537.805 104.950, 538.375 104.844, 541.769 102.891 L 545.841 100.547 550.486 103.883 L 555.132 107.219 554.499 103.849 C 553.607 99.091, 555.309 95.460, 559.933 92.261 C 564.944 88.795, 564.985 88, 560.155 88 C 555.812 88, 553.892 86.379, 551.525 80.713 C 549.565 76.024, 549.093 76.085, 545.840 81.448 M 373.145 92.488 C 365.319 101.401, 350.604 125.368, 344.588 139 C 343.010 142.575, 340.824 147.430, 339.731 149.788 C 338.638 152.147, 337.957 154.290, 338.218 154.551 C 338.478 154.812, 355.141 154.907, 375.246 154.762 L 411.801 154.500 408.045 144.500 C 400.456 124.300, 387.771 101.904, 377.004 89.699 C 376.615 89.258, 374.879 90.513, 373.145 92.488 M 335.579 161.250 C 335.382 161.938, 334.496 164.540, 333.610 167.033 C 332.725 169.527, 332.002 171.777, 332.003 172.033 C 332.005 172.290, 350.905 172.612, 374.003 172.748 C 406.494 172.940, 416 172.720, 416 171.777 C 416 171.107, 415.448 168.183, 414.773 165.279 L 413.545 160 374.741 160 C 344.556 160, 335.858 160.278, 335.579 161.250 M 726.895 166.661 C 726.012 166.898, 724.701 168.191, 723.981 169.536 C 722.307 172.663, 724.915 176, 729.033 176 C 733.652 176, 736.074 171.074, 732.977 167.977 C 731.027 166.027, 730.053 165.817, 726.895 166.661 M 330.155 181.250 C 318.915 224.497, 317.141 287.045, 325.315 351.897 L 326.500 361.294 335.500 361.057 C 351.328 360.641, 349.422 362.226, 350.022 348.981 C 350.538 337.575, 350.582 337.405, 354.522 331.500 C 361.033 321.743, 369.902 318.595, 379.628 322.591 C 390.144 326.911, 394.402 335.715, 393.845 351.987 L 393.468 363 404.549 363 L 415.629 363 416.906 351.750 C 423.483 293.792, 424.718 232.837, 420.078 195.210 C 418.973 186.251, 417.802 178.489, 417.475 177.960 C 417.111 177.371, 400.354 177, 374.071 177 L 331.260 177 330.155 181.250 M 364.500 193.558 C 349.675 198.812, 341.495 210.041, 341.594 225 C 341.718 243.617, 354.256 256.351, 372.500 256.388 C 385.096 256.413, 396.946 248.957, 402.516 237.500 C 405.255 231.865, 405.288 216.054, 402.571 211 C 394.503 195.989, 378.426 188.624, 364.500 193.558 M 361.565 199.552 C 354.838 202.887, 352.439 205.364, 348.828 212.699 C 341.812 226.950, 347.098 241.950, 362 250.073 C 366.073 252.294, 379.639 251.791, 384.587 249.236 C 396.898 242.879, 403.554 228.206, 399.570 216.210 C 394.413 200.685, 375.766 192.511, 361.565 199.552 M 364.216 199.853 C 357.745 202.341, 353.466 206.328, 350.405 212.725 C 337.904 238.844, 368.736 262.592, 390.095 243.295 C 402.306 232.263, 401.482 212.820, 388.420 203.790 C 380.196 198.106, 372.160 196.798, 364.216 199.853 M 362.253 205.932 C 354.917 211.246, 352.572 215.338, 352.158 223.552 C 351.701 232.602, 354.509 238.193, 361.892 242.931 C 382.299 256.026, 406.325 227.691, 389.325 210.579 C 380.930 202.129, 370.075 200.266, 362.253 205.932 M 185.277 251.207 C 184.705 251.918, 183.068 254.829, 181.640 257.675 C 179.055 262.824, 179.012 262.855, 173.271 263.551 C 162.608 264.844, 161.603 266.795, 168.631 272.554 L 173.262 276.349 172.726 284.174 C 172.113 293.112, 171.997 293.035, 179.831 288.928 L 185.690 285.857 191.368 288.928 C 200.202 293.708, 201.677 292.844, 199.978 283.885 C 198.826 277.808, 198.724 278.005, 205.573 272.946 C 213.696 266.945, 212.831 265.250, 201.068 264.119 L 194.636 263.500 191.996 257 C 189.374 250.544, 187.269 248.729, 185.277 251.207 M 185.070 260.215 C 182.416 266.082, 179.758 268, 174.277 268 C 168.967 268, 168.919 268.824, 174.012 272.558 C 176.993 274.744, 177.893 276.014, 177.512 277.500 C 177.230 278.600, 176.709 281.234, 176.355 283.354 L 175.711 287.207 179.836 284.604 C 184.987 281.352, 187.433 281.330, 191.589 284.500 C 195.455 287.449, 197.522 287.764, 196.508 285.250 C 193.904 278.789, 194.547 276.377, 199.945 272.357 L 205.126 268.500 198.856 268 C 192.111 267.462, 192.015 267.372, 188.216 258 C 187.224 255.550, 187.160 255.595, 185.070 260.215 M 103.820 259.496 C 101.633 264.296, 108.581 268.277, 112.429 264.429 C 115.859 260.998, 113.626 257, 108.279 257 C 105.708 257, 104.700 257.564, 103.820 259.496 M 361.170 283.629 C 345.578 287.862, 339.919 298.746, 347.500 309.923 C 351.168 315.332, 354.402 317.004, 351.212 311.843 C 342.991 298.542, 351.645 288.626, 371.500 288.595 C 386.093 288.573, 394.317 293.564, 396.472 303.750 C 396.851 305.544, 397.787 307, 398.560 307 C 400.601 307, 401.368 302.645, 400.038 298.616 C 395.866 285.974, 377.961 279.070, 361.170 283.629 M 307.918 311 C 299.542 322.332, 293.260 333.661, 284.906 352.500 C 273.849 377.434, 267.512 415.581, 268.211 453 L 268.500 468.500 274.513 458.500 C 277.820 453, 281.420 446.779, 282.513 444.675 C 289.185 431.833, 308.786 409.192, 322.713 398.241 C 324.909 396.514, 324.915 396.426, 323.475 387.500 C 322.676 382.550, 321.358 373.166, 320.546 366.647 C 319.734 360.128, 318.851 354.053, 318.584 353.147 C 317.882 350.770, 315.993 333.713, 314.634 317.500 L 313.462 303.500 307.918 311 M 702.984 315.812 C 700.170 318.091, 701.027 321.680, 704.721 323.084 C 708.323 324.453, 712 321.928, 712 318.084 C 712 313.750, 707.066 312.507, 702.984 315.812 M 426.592 322.148 C 426.359 322.892, 425.636 330.475, 424.985 339 C 424.334 347.525, 423.614 354.805, 423.386 355.178 C 423.158 355.550, 422.308 360.500, 421.496 366.178 C 419.807 377.995, 417.993 388.603, 415.455 401.500 C 413.957 409.114, 413.862 411.542, 414.842 417.269 C 415.479 420.991, 416 426.299, 416 429.063 C 416 433.993, 416.159 434.256, 424.367 442.917 C 443.241 462.832, 466.210 497.573, 469.546 511.250 C 470.550 515.366, 471.781 514.579, 472.672 509.250 C 474.333 499.328, 473.625 439.342, 471.713 428 C 467.111 400.694, 460.105 379.359, 447.249 353.500 C 444.052 347.069, 441.906 343.557, 430.844 326.648 C 428.657 323.305, 426.834 321.375, 426.592 322.148 M 365.500 328.358 C 356.573 332.486, 353.251 345.062, 355.690 365.500 C 356.485 372.160, 356.646 372.489, 359.013 372.263 C 360.381 372.133, 367.012 371.730, 373.750 371.368 C 383.063 370.867, 386 370.384, 386 369.355 C 386 368.285, 383.285 368, 373.107 368 C 358.076 368, 359 368.765, 359 356.319 C 359 342.407, 362.564 337.592, 372.907 337.532 C 382.872 337.475, 386.942 342.516, 385.485 353.111 C 384.678 358.978, 385.282 358.675, 372.695 359.529 C 364.322 360.098, 362.938 360.436, 363.211 361.847 C 363.432 362.987, 364.457 363.454, 366.515 363.351 C 368.157 363.269, 372.538 363.156, 376.250 363.101 C 381.948 363.016, 383.010 362.727, 383.063 361.250 C 383.114 359.854, 383.302 359.934, 383.993 361.648 C 385.712 365.906, 386.688 364.779, 387.840 357.206 C 389.688 345.070, 389.060 340.320, 384.740 333.726 C 381.286 328.454, 371.310 325.671, 365.500 328.358 M 366.635 343.073 C 364.319 344.894, 364 345.861, 364 351.057 L 364 356.969 370.250 356.323 C 381.936 355.116, 385.160 353.044, 381.553 349.059 C 379.524 346.816, 368.734 346.004, 367.500 348 C 366.596 349.462, 365 349.221, 365 347.622 C 365 344.983, 368.012 343.749, 374.607 343.687 C 380.309 343.633, 380.963 343.446, 379.413 342.312 C 376.612 340.265, 369.680 340.677, 366.635 343.073 M 124.178 364.250 C 123.540 365.488, 121.943 369.407, 120.629 372.960 C 118.060 379.905, 118.483 379.602, 108 382 C 98.036 384.279, 97.888 385.307, 106.551 392.114 L 113.101 397.262 112.424 406.494 C 111.507 418.978, 112.565 419.399, 123.381 410.855 C 129.321 406.163, 128.355 406.153, 136.762 411 C 146.470 416.597, 147.410 416.441, 146.528 409.379 C 146.142 406.287, 145.178 401.922, 144.387 399.679 L 142.948 395.600 150.170 388.329 C 154.142 384.330, 157.092 380.758, 156.725 380.391 C 156.358 380.025, 151.745 379.499, 146.474 379.223 L 136.890 378.722 133.399 371.658 C 128.228 361.196, 126.478 359.789, 124.178 364.250 M 327.682 366.718 C 327.177 367.548, 327.835 372.215, 331.178 391.500 C 334.696 411.799, 335.482 415.837, 336 416.292 C 336.275 416.534, 340.251 416.977, 344.836 417.277 L 353.172 417.823 352.653 397.161 C 352.368 385.798, 351.766 374.250, 351.317 371.500 L 350.500 366.500 339.329 366.218 C 333.185 366.063, 327.944 366.288, 327.682 366.718 M 391.667 368.667 C 391.300 369.033, 391 370.413, 391 371.732 C 391 375.599, 389.137 378.359, 387.464 376.970 C 385.271 375.150, 357.500 376.171, 357.500 378.072 C 357.500 379.246, 360.167 379.500, 372.500 379.500 C 386.833 379.500, 387.500 379.589, 387.500 381.500 C 387.500 383.381, 386.950 383.479, 378.277 383.151 C 372.827 382.944, 366.997 383.329, 364.027 384.090 L 359 385.378 359 401.580 L 359 417.781 362.750 418.251 C 364.813 418.510, 366.837 418.532, 367.250 418.302 C 367.663 418.071, 368 411.416, 368 403.512 C 368 385.962, 367.977 386, 378.504 386 C 385.147 386, 385.931 386.209, 386.544 388.139 C 387.465 391.039, 387.452 406.247, 386.523 412.906 L 385.769 418.313 393.536 417.656 C 397.807 417.295, 402.584 417, 404.151 417 C 406.783 417, 407 416.710, 407 413.204 C 407 411.116, 408.344 402.954, 409.986 395.066 C 411.629 387.177, 413.266 377.860, 413.624 374.362 L 414.276 368 403.305 368 C 397.270 368, 392.033 368.300, 391.667 368.667 M 126.243 371.252 C 125.694 371.938, 124.907 373.625, 124.494 375 C 121.947 383.482, 120.557 384.746, 112.780 385.652 L 105.500 386.500 111.250 390.870 C 117.430 395.567, 117.352 395.335, 116.113 405.250 C 115.267 412.020, 115.052 411.898, 120.332 407.632 C 127.744 401.643, 128.220 401.558, 135.095 404.969 C 138.456 406.636, 141.309 408, 141.435 408 C 141.562 408, 140.986 404.834, 140.155 400.965 L 138.645 393.930 143.535 388.965 L 148.425 384 142.647 384 C 135.005 384, 133.364 382.949, 130.042 375.924 C 127.989 371.585, 126.975 370.337, 126.243 371.252 M 548.740 380.540 C 545.350 383.683, 545.275 385.970, 548.463 388.965 C 550.829 391.188, 551.027 391.212, 553.507 389.587 C 557.776 386.790, 558.535 383.225, 555.468 380.383 C 552.275 377.423, 552.097 377.428, 548.740 380.540 M 374.197 390.263 C 372.602 392.185, 374.771 455.984, 377.283 481 C 377.931 487.462, 380.034 459.960, 380.533 438.500 C 381.291 405.838, 380.264 389.609, 377.412 389.202 C 376.264 389.038, 374.817 389.515, 374.197 390.263 M 336.161 423.603 C 336.936 427.646, 354 430.041, 354 426.107 C 354 423.685, 352.734 423.241, 343.434 422.398 C 336.283 421.750, 335.820 421.827, 336.161 423.603 M 395.500 422.935 C 385.655 423.491, 385.500 423.539, 385.500 425.997 L 385.500 428.493 396.500 428.150 C 402.550 427.961, 407.568 427.737, 407.652 427.653 C 407.736 427.569, 407.961 426.386, 408.152 425.025 C 408.561 422.118, 408.917 422.177, 395.500 422.935 M 318.002 437.725 C 312.913 443.401, 310.067 447.768, 304.461 458.500 C 302.163 462.900, 298.572 469.650, 296.482 473.500 C 294.391 477.350, 291.640 482.456, 290.369 484.846 C 286.237 492.611, 280.442 513.302, 278.001 529 C 277.445 532.575, 276.570 537.750, 276.055 540.500 C 275.540 543.250, 275.092 546.587, 275.060 547.917 C 274.954 552.194, 276.348 549.143, 277.660 542.224 C 281.914 519.791, 286.093 501.145, 288.131 495.500 C 289.399 491.989, 305.235 459.736, 306.052 459 C 306.358 458.725, 307.602 456.562, 308.817 454.193 C 310.033 451.825, 311.479 449.350, 312.031 448.693 C 315.773 444.243, 323.102 433.769, 322.732 433.399 C 322.485 433.152, 320.357 435.099, 318.002 437.725 M 338 433.211 C 338 438.302, 341.401 441.439, 349.077 443.430 L 354 444.707 354 439.354 C 354 434.182, 353.906 434, 351.250 433.991 C 349.738 433.987, 346.137 433.699, 343.250 433.352 C 340.363 433.005, 338 432.942, 338 433.211 M 359.190 438.196 L 359.500 442.500 364.829 442.805 L 370.157 443.110 369.801 438.805 L 369.444 434.500 364.162 434.196 L 358.880 433.891 359.190 438.196 M 385 439.148 L 385 444.295 394.737 443.611 C 405.659 442.843, 405.841 442.752, 406.667 437.664 L 407.262 434 396.131 434 L 385 434 385 439.148 M 195.575 442.918 C 191.435 447.492, 197.261 454.027, 202.750 450.967 C 207.911 448.089, 205.955 441, 200 441 C 198.520 441, 196.529 441.863, 195.575 442.918 M 572.251 443.978 C 567.381 452.722, 567.492 452.622, 561.112 453.976 C 553.523 455.587, 553.020 457.684, 559.250 461.735 C 565.612 465.871, 566.119 466.772, 565.446 472.750 C 564.804 478.462, 565.202 478.818, 569.636 476.506 C 573.738 474.367, 581 475.424, 581 478.161 C 581 478.622, 581.719 479, 582.598 479 C 583.954 479, 584.096 478.128, 583.534 473.250 L 582.872 467.500 587.936 463.731 C 594.222 459.052, 594.649 456.364, 589.250 455.470 C 581.726 454.224, 580.446 453.255, 578.411 447.274 C 576.130 440.570, 574.604 439.753, 572.251 443.978 M 319.553 445.280 C 311.787 454.086, 299 475.664, 299 479.965 C 299 480.549, 298.566 481.809, 298.035 482.764 C 295.261 487.756, 289.197 504.253, 287.104 512.500 C 286.546 514.700, 285.381 519.200, 284.515 522.500 C 283.649 525.800, 282.283 531.875, 281.480 536 C 280.677 540.125, 279.310 546.425, 278.443 550 C 273.769 569.274, 271.328 582.488, 269.391 599 C 266.505 623.602, 266.341 626, 267.542 626 C 268.729 626, 270.374 618.093, 272.014 604.500 C 273.987 588.152, 277.743 565.799, 280.501 554 C 281.336 550.425, 282.686 544.125, 283.500 540 C 286.206 526.290, 292.216 502.353, 293.920 498.500 C 294.407 497.400, 295.819 493.575, 297.058 490 C 302.036 475.638, 310.717 459.193, 318.837 448.739 C 323.675 442.511, 324.190 440.022, 319.553 445.280 M 330.813 453.253 C 320.027 472.234, 314.607 484.848, 310.513 500.500 C 303.738 526.404, 299.164 545.792, 298.552 551.207 C 298.285 553.568, 298.321 554.600, 298.633 553.500 C 298.944 552.400, 300.322 547.675, 301.694 543 C 303.066 538.325, 304.790 532.025, 305.526 529 C 307.381 521.374, 312.158 507.035, 316.020 497.500 C 322.527 481.434, 335.569 454.603, 337.751 452.792 C 339.503 451.338, 338.846 453.079, 332.852 465.783 C 330.183 471.439, 328 476.245, 328 476.463 C 328 476.804, 323.885 486.160, 320.946 492.500 C 318.146 498.541, 312.885 513.780, 309.035 527 C 307.834 531.125, 306.445 535.625, 305.949 537 C 305.454 538.375, 304.623 541.300, 304.104 543.500 C 302.310 551.110, 297.976 568.514, 297.008 572 C 295.422 577.710, 293.218 587.895, 291.491 597.500 C 287.793 618.061, 287.001 622.903, 286.014 631 C 285.444 635.675, 284.716 640.680, 284.396 642.123 C 283.829 644.683, 283.957 644.758, 289.658 645.234 C 292.871 645.502, 296.192 646.021, 297.038 646.387 C 298.313 646.938, 298.776 645.546, 299.736 638.276 C 300.939 629.172, 302.339 621.372, 304.002 614.500 C 304.535 612.300, 305.903 606.450, 307.043 601.500 C 308.183 596.550, 310.161 589.350, 311.438 585.500 C 317.171 568.220, 319.317 561.090, 320.470 555.500 C 321.151 552.200, 323.183 543.425, 324.986 536 C 326.789 528.575, 328.903 519.800, 329.684 516.500 C 331.578 508.501, 333.511 500.792, 335.452 493.500 C 336.998 487.695, 338.629 479.542, 340.952 466 C 341.565 462.425, 342.781 457.310, 343.653 454.633 C 345.273 449.659, 344.722 448.061, 341.372 448.015 C 340.752 448.007, 339.685 447.325, 339 446.500 C 336.800 443.849, 335.591 444.846, 330.813 453.253 M 572 451.743 C 569.780 455.933, 569.004 456.559, 565.082 457.324 L 560.663 458.184 564.082 460.304 C 568.612 463.113, 568.967 463.738, 568.985 468.950 C 568.997 472.411, 569.267 473.133, 570.200 472.200 C 570.860 471.540, 572.570 471, 574 471 C 575.430 471, 577.140 471.540, 577.800 472.200 C 578.733 473.133, 579 472.654, 579 470.045 C 579 467.432, 579.884 465.849, 583 462.885 C 587.544 458.563, 587.780 458, 585.047 458 C 580.310 458, 576.778 454.619, 574.872 448.261 C 574.667 447.580, 573.375 449.146, 572 451.743 M 396.882 449.750 C 396.718 450.788, 396.693 450.575, 397.998 459.500 C 398.641 463.900, 399.793 472.450, 400.558 478.500 C 401.323 484.550, 402.639 494.675, 403.484 501 C 404.328 507.325, 405.457 516.325, 405.992 521 C 407.311 532.524, 407.318 604, 406 604 C 404.629 604, 404.812 607.361, 403.963 566.500 C 403.240 531.703, 402.391 519.404, 398.508 487.500 C 397.705 480.900, 396.492 469.762, 395.812 462.750 C 394.471 448.910, 394.717 449.307, 388.261 450.598 C 385.327 451.185, 385.261 451.335, 384.649 458.848 C 384.306 463.056, 383.355 471.675, 382.535 478 C 381.716 484.325, 380.745 492.101, 380.377 495.281 C 379.122 506.135, 375.889 503.551, 374.070 490.239 C 373.413 485.433, 372.468 478.575, 371.971 475 C 371.473 471.425, 371.051 465.293, 371.033 461.372 C 370.994 452.872, 370.019 451.613, 364.383 452.781 L 360.500 453.587 358.319 482.543 C 357.120 498.469, 356.107 514.114, 356.069 517.309 C 356.026 520.911, 355.620 522.883, 355 522.500 C 353.702 521.698, 353.683 493.534, 354.973 483.822 C 355.508 479.795, 356.071 471.103, 356.223 464.506 L 356.500 452.512 352.758 451.582 C 350.700 451.070, 348.736 450.930, 348.395 451.272 C 347.576 452.090, 345.319 462.304, 343.482 473.500 C 341.991 482.589, 340.509 488.952, 337.543 499 C 336.650 502.025, 335.063 507.736, 334.016 511.691 C 332.189 518.590, 331.690 520.820, 328.462 536.500 C 327.669 540.350, 326.323 546.650, 325.470 550.500 C 323.235 560.589, 320.981 596.673, 320.345 632.539 L 319.795 663.578 327.148 664.614 C 331.191 665.184, 335.345 666.024, 336.378 666.481 C 338.087 667.238, 338.198 666.963, 337.617 663.406 C 336.086 654.037, 335.768 587.600, 337.238 584.196 C 338.535 581.192, 338.657 582.643, 338.582 600.196 C 338.537 610.813, 338.909 630.441, 339.409 643.814 L 340.317 668.127 344.999 670.499 C 349.284 672.671, 352.787 676.038, 357.149 682.179 C 359.586 685.610, 360.480 683.742, 360.257 675.689 C 359.099 633.937, 357.850 600.566, 357.417 599.866 C 356.475 598.342, 356.774 588.826, 357.795 587.805 C 359.778 585.822, 360.909 593.704, 361.483 613.500 C 361.802 624.500, 362.501 640.250, 363.036 648.500 C 363.571 656.750, 364.149 668.225, 364.321 674 L 364.633 684.500 369.904 686.407 L 375.175 688.313 377.622 685.407 C 379.762 682.864, 380.002 681.811, 379.536 677 C 377.032 651.148, 376.826 643.117, 377.325 591 C 377.375 585.775, 376.872 579.970, 376.208 578.101 C 374.757 574.018, 374.469 515, 375.899 515 C 377.454 515, 377.856 523.107, 378.944 576.500 C 379.526 605.100, 380.459 635.700, 381.016 644.500 C 381.573 653.300, 382.023 665.094, 382.015 670.709 L 382 680.917 389.618 676.808 C 393.808 674.548, 398.645 672.408, 400.368 672.052 C 403.381 671.430, 403.497 671.218, 403.432 666.453 C 403.319 658.307, 399.100 624.022, 396.055 606.500 C 394.679 598.587, 394.663 591.263, 396.024 592.624 C 397.267 593.867, 398.130 598.618, 403.454 633.500 C 406.563 653.873, 406.904 656.644, 407.107 663.237 L 407.314 669.973 411.407 669.237 C 413.658 668.832, 417.873 668.572, 420.773 668.660 L 426.045 668.820 425.523 664.160 C 423.827 649.005, 422.999 638.988, 422.453 627 C 422.115 619.575, 421.416 610.800, 420.900 607.500 C 420.384 604.200, 419.506 582.825, 418.949 560 C 418.211 529.790, 417.506 516.324, 416.358 510.500 C 413.061 493.780, 412.159 489.555, 407.502 469 C 406.567 464.875, 405.305 458.688, 404.696 455.250 C 403.602 449.072, 403.551 449, 400.294 449 C 398.482 449, 396.947 449.337, 396.882 449.750 M 690.293 454.250 C 689 455.948, 686 462.580, 686 463.741 C 686 465.105, 681.368 467, 678.035 467 C 670.916 467, 670.286 469.288, 676.114 473.971 C 680.481 477.481, 680.777 479.433, 678.428 489.238 C 677.360 493.692, 680.285 493.825, 686.418 489.601 C 692.065 485.712, 694.826 485.722, 699.166 489.650 C 701.256 491.541, 705.655 491.043, 705.112 488.976 C 704.898 488.164, 704.515 485.250, 704.262 482.500 C 703.812 477.625, 703.915 477.392, 708.416 473.180 C 713.949 468.001, 713.768 467.470, 706.198 466.679 C 697.077 465.725, 697.341 465.983, 694.468 455.250 C 693.806 452.780, 691.782 452.295, 690.293 454.250 M 387.519 458.391 C 387.036 459.478, 387.205 464.157, 387.919 469.391 C 390.919 491.411, 390.231 534.616, 386.420 563.500 C 383.074 588.857, 383.074 588.464, 386.460 610.500 C 387.390 616.550, 388.397 623.862, 388.699 626.750 C 389.001 629.638, 389.702 632, 390.258 632 C 391.385 632, 390.663 616.783, 389.024 606 C 387.737 597.537, 387.723 577.639, 388.997 567.500 C 392.404 540.390, 393.543 488.864, 391.066 474 C 390.378 469.875, 389.488 464.250, 389.088 461.500 C 388.525 457.625, 388.172 456.926, 387.519 458.391 M 689.490 464.388 C 687.746 468.953, 685.813 470, 679.125 470 C 676.572 470, 676.615 470.105, 680.750 473.884 C 685.147 477.903, 685.599 478.961, 684.138 481.816 C 683.664 482.742, 682.968 484.788, 682.591 486.362 L 681.906 489.223 685.681 486.112 C 689.889 482.643, 693.506 482.176, 698.033 484.517 L 700.966 486.034 700.348 481.525 C 699.767 477.283, 699.945 476.820, 703.365 473.687 C 708.116 469.336, 707.991 469, 701.615 469 C 696.083 469, 693 466.708, 693 462.594 C 693 459.276, 691.064 460.266, 689.490 464.388 M 133.836 470.250 C 133.070 471.488, 131.357 475.200, 130.031 478.500 C 126.653 486.901, 124.079 490.995, 122.151 491.031 C 119.322 491.084, 105.676 492.968, 103.792 493.566 C 100.642 494.566, 101.857 497.561, 107.044 501.586 C 118.908 510.792, 118.224 509.990, 117.500 513.851 C 116.355 519.954, 115.275 531.448, 115.730 532.687 C 116.295 534.226, 117.723 533.658, 128.289 527.692 L 137.078 522.730 146.483 527.615 C 158.003 533.599, 158.733 533.303, 156.984 523.355 C 154.314 508.175, 154.069 509.499, 160.809 502.643 C 166.414 496.943, 167.430 495.293, 167.118 492.399 C 167.049 491.753, 163.588 491.037, 158.750 490.669 C 145.641 489.671, 146.627 490.485, 140.978 476.002 C 137.669 467.519, 136.241 466.368, 133.836 470.250 M 436.010 478 C 436.007 479.903, 441.277 490.544, 443.366 492.851 C 444.988 494.645, 448.645 501.092, 452.526 509 C 455.579 515.222, 459.284 526.317, 463.045 540.500 C 464.795 547.100, 466.834 554.750, 467.576 557.500 C 472.181 574.572, 472.872 577.675, 484.606 634 C 485.465 638.125, 486.552 642.625, 487.022 644 C 487.491 645.375, 488.181 648.075, 488.556 650 C 488.930 651.925, 489.863 654.625, 490.628 656 C 491.961 658.394, 491.995 658.331, 491.422 654.500 C 491.093 652.300, 490.210 647.800, 489.460 644.500 C 488.710 641.200, 487.166 633.325, 486.030 627 C 484.893 620.675, 483.560 613.925, 483.066 612 C 482.572 610.075, 481.867 606.475, 481.500 604 C 481.133 601.525, 480.441 597.925, 479.962 596 C 479.484 594.075, 478.112 588, 476.913 582.500 C 474.816 572.877, 472.401 563.075, 469.521 552.500 C 468.772 549.750, 467.474 544.800, 466.638 541.500 C 461.685 521.969, 451.801 499.202, 445.023 491.712 C 443.635 490.179, 441.040 486.129, 439.256 482.712 C 437.472 479.295, 436.012 477.175, 436.010 478 M 135.416 479.140 C 134.861 479.888, 133.329 482.975, 132.013 486 C 128.303 494.530, 127.286 495.252, 117.288 496.450 L 108.533 497.500 115.258 502.437 C 123.338 508.368, 123.426 508.595, 121.529 518.515 C 120.703 522.830, 120.194 526.527, 120.397 526.730 C 120.600 526.933, 124.138 525.052, 128.260 522.550 C 137.238 517.099, 136.504 517.146, 144.568 521.500 C 148.133 523.425, 151.264 525, 151.525 525 C 152.312 525, 152.060 520.291, 151.140 517.815 C 148.220 509.955, 148.554 508.610, 154.946 502.470 C 158.243 499.303, 160.702 496.327, 160.411 495.856 C 160.120 495.385, 157.321 494.955, 154.191 494.900 C 145.479 494.748, 143.977 494.017, 140.995 488.475 C 139.522 485.739, 137.892 482.213, 137.372 480.640 C 136.633 478.406, 136.206 478.078, 135.416 479.140 M 514.747 493.984 C 509.685 497.966, 510.441 504.020, 516.309 506.488 C 524.522 509.941, 530.348 499.565, 523.306 494.026 C 520.068 491.479, 517.945 491.469, 514.747 493.984 M 343.611 497.750 C 342.734 500.678, 342.697 510.692, 343.499 527.500 C 344.013 538.261, 343.888 545.882, 343.119 550.775 C 342.489 554.776, 342.315 559.276, 342.732 560.775 C 343.354 563.008, 343.611 562.327, 344.158 557 C 344.782 550.927, 346.210 542.450, 347.486 537.250 C 348.076 534.844, 349.597 534.179, 349.773 536.250 C 349.831 536.938, 350.075 549.237, 350.314 563.582 C 350.732 588.573, 351.633 595.939, 353.957 593.357 C 354.382 592.886, 354.372 579.675, 353.936 564 C 353.168 536.434, 352.112 527.583, 349.997 531.005 C 348.148 533.997, 347.491 530.371, 347.222 515.668 C 347.070 507.326, 346.723 499.488, 346.453 498.250 C 345.868 495.569, 344.344 495.301, 343.611 497.750 M 361.738 505.332 C 360.093 509.415, 361.530 552.381, 363.978 572.284 C 366.310 591.254, 369.134 608.531, 370.051 609.450 C 371.317 610.717, 371.272 600.888, 369.962 590 C 369.400 585.325, 368.253 575.875, 367.415 569 C 365.319 551.823, 364.142 536.456, 363.970 524 C 363.791 511.081, 362.791 502.717, 361.738 505.332 M 421.087 530.500 C 421.096 534.350, 421.467 540.650, 421.912 544.500 C 422.426 548.945, 422.353 551.968, 421.712 552.781 C 420.562 554.241, 421.470 586.578, 423.024 599.500 C 423.553 603.900, 424.429 613.800, 424.971 621.500 C 428.583 672.862, 428.102 669.727, 432.669 671.635 C 434.621 672.451, 436.437 673.955, 436.704 674.978 C 437.102 676.500, 438.356 676.898, 443.598 677.169 C 447.121 677.351, 449.994 677.275, 449.982 677 C 449.936 675.959, 448.015 664.152, 446.484 655.500 C 442.854 634.988, 441.952 630.215, 440.622 624.500 C 435.239 601.374, 432.907 591.800, 431.485 587 C 425.511 566.837, 422.230 550.518, 425.254 556.015 C 426.639 558.533, 427.934 562.712, 430.516 573 C 431.275 576.025, 432.570 580.975, 433.393 584 C 435.761 592.694, 438.641 604.298, 442.454 620.500 C 447.544 642.134, 447.915 643.866, 448.879 650.500 C 449.914 657.626, 453.248 677.402, 453.468 677.728 C 453.553 677.853, 456.015 675.711, 458.938 672.966 L 464.253 667.976 463.165 663.738 C 462.567 661.407, 461.667 657.475, 461.166 655 C 460.273 650.592, 457.251 638.990, 451.008 616 C 449.290 609.675, 447.441 602.700, 446.898 600.500 C 446.356 598.300, 444.869 593.350, 443.595 589.500 C 442.320 585.650, 440.288 579.350, 439.077 575.500 C 437.867 571.650, 436.487 567.600, 436.009 566.500 C 435.532 565.400, 432.872 557.750, 430.098 549.500 C 427.324 541.250, 424.158 532.025, 423.063 529 L 421.072 523.500 421.087 530.500 M 684.592 527.750 C 681.228 535.121, 675.279 539, 667.341 539 C 666.053 539, 665 539.365, 665 539.811 C 665 540.943, 668.608 544.697, 671.545 546.621 C 674.279 548.413, 674.933 554.416, 672.959 559.608 C 672.150 561.737, 672.246 562.674, 673.392 563.820 C 674.691 565.119, 675.449 564.920, 679.771 562.147 C 685.208 558.658, 688.102 558.213, 690.055 560.566 C 690.770 561.427, 692.599 562.776, 694.120 563.562 C 697.848 565.490, 698.515 564.210, 698.134 555.865 L 697.831 549.231 701.666 546.371 C 708.318 541.410, 707.910 539, 700.417 539 C 695.219 539, 692.504 536.603, 691.542 531.163 C 690.465 525.081, 689.944 524, 688.084 524 C 686.998 524, 685.637 525.461, 684.592 527.750 M 685.638 533.257 C 684.639 537.150, 680.231 540.939, 675.895 541.633 L 671.859 542.278 675.020 545.165 C 678.003 547.890, 678.142 548.331, 677.496 553.026 C 676.734 558.570, 677.069 558.878, 680.727 556 C 684.106 553.342, 686.904 553.478, 691 556.500 C 692.864 557.875, 694.530 559, 694.703 559 C 694.876 559, 694.735 556.599, 694.390 553.665 C 693.783 548.500, 693.870 548.247, 697.108 545.713 L 700.452 543.096 696.158 542.409 C 691.635 541.686, 689.688 539.747, 688.457 534.741 C 687.564 531.107, 686.353 530.470, 685.638 533.257 M 476 546.257 C 476 546.948, 476.484 549.085, 477.076 551.007 C 477.668 552.928, 478.784 556.865, 479.557 559.755 C 480.329 562.645, 481.603 567.370, 482.389 570.255 C 484.746 578.918, 490.758 603.250, 491.468 607 C 492.500 612.459, 495.102 623.766, 497.219 632 C 500.938 646.463, 500.650 645.664, 501.467 643.750 C 501.878 642.788, 501.887 641.212, 501.488 640.250 C 500.764 638.506, 499.364 632.235, 496.521 618 C 493.138 601.066, 491.908 595.696, 487.475 578.500 C 484.922 568.600, 482.410 558.773, 481.892 556.661 C 480.334 550.311, 476 542.658, 476 546.257 M 206.997 549.862 L 203.569 552.723 206.696 555.850 C 209.712 558.866, 209.943 558.928, 213.162 557.581 C 217.409 555.805, 218.224 551.796, 214.920 548.931 C 211.970 546.372, 211.047 546.481, 206.997 549.862 M 54.248 558.858 C 52.162 563.876, 51.532 564.314, 44.750 565.458 C 40.029 566.254, 40.023 567.679, 44.723 571.626 L 48.446 574.751 47.401 579.854 C 46.044 586.474, 46.904 587.910, 50.647 585.273 C 55.461 581.881, 57.658 581.656, 62.602 584.049 C 68.276 586.796, 69.306 585.961, 68.113 579.578 C 67.249 574.950, 67.347 574.622, 70.690 570.922 C 74.791 566.382, 74.448 565.340, 68.560 564.457 C 64.581 563.860, 63.940 563.359, 61.775 559.151 C 58.522 552.830, 56.781 552.762, 54.248 558.858 M 56.138 563.750 C 54.174 567.581, 53.598 568, 50.293 568 L 46.626 568 49.313 570.805 C 51.096 572.666, 52 574.697, 52 576.840 C 52 579.818, 52.165 579.982, 54.112 578.940 C 56.149 577.850, 58.761 578.005, 62.083 579.414 C 63.379 579.964, 63.583 579.522, 63.210 576.976 C 62.855 574.558, 63.378 573.215, 65.564 570.933 L 68.374 568 65.310 568 C 61.906 568, 60.733 566.928, 59.292 562.500 L 58.316 559.500 56.138 563.750 M 411.105 574.747 C 411.450 578.461, 412.297 587.575, 412.989 595 C 414.141 607.375, 415.066 611.268, 416.510 609.824 C 417.284 609.049, 415.043 581.642, 413.627 574.573 C 411.957 566.238, 410.327 566.350, 411.105 574.747 M 316.150 580 C 311.976 593.082, 311.668 594.230, 309.033 606.500 C 307.852 612, 306.483 618.300, 305.990 620.500 C 305.497 622.700, 304.127 629.450, 302.947 635.500 C 301.766 641.550, 300.617 646.799, 300.394 647.165 C 300.170 647.530, 301.453 648.739, 303.244 649.852 C 306.687 651.990, 312.679 657.961, 315.219 661.784 C 316.594 663.854, 316.787 660.773, 317.287 628.784 C 317.590 609.378, 318.352 589.314, 318.980 584.197 C 320.818 569.234, 319.981 567.993, 316.150 580 M 167.892 624.449 C 160.075 626.605, 153.061 631.137, 146.392 638.339 C 139.011 646.311, 138.746 647.499, 143.500 651.293 C 149.836 656.348, 147.510 658.651, 139.739 655.018 C 114.271 643.110, 85.242 655.166, 78.656 680.387 C 76.853 687.289, 76.542 687.695, 74.411 685.926 C 73.454 685.132, 70.579 684.599, 67.492 684.644 C 57.649 684.786, 48.277 691.440, 45.657 700.145 L 44.276 704.734 56.888 704.656 C 70.752 704.572, 76.534 705.801, 87.661 711.198 L 93.822 714.187 100.304 711.094 C 107.203 707.801, 115.505 706.905, 117.804 709.204 C 118.743 710.143, 119.944 709.506, 123.254 706.313 C 128.593 701.163, 132.300 699.294, 138.917 698.417 C 143.461 697.814, 144.826 697.048, 149.323 692.578 C 161.868 680.109, 175.369 679.779, 193.013 691.509 C 196.729 693.979, 200.621 696, 201.662 696 C 204.156 696, 208 698.742, 208 700.522 C 208 702.160, 204.961 704, 202.254 704 C 200.330 704, 196 707.408, 196 708.922 C 196 709.386, 197.912 709.096, 200.250 708.276 C 204.544 706.771, 229.484 706.946, 234.621 708.517 C 236.304 709.032, 236.869 708.657, 237.361 706.700 C 239.489 698.220, 248.754 695.339, 254.455 701.384 C 257.578 704.695, 257.720 704.737, 261.044 703.339 C 264.963 701.692, 270.193 700.293, 278 698.804 C 284.842 697.499, 284.419 698.170, 282.382 691.860 C 279.039 681.504, 273.584 675.404, 263.318 670.544 C 253.392 665.844, 246.684 665.556, 231 669.156 C 230.062 669.371, 229.657 668.938, 229.919 668 C 231.974 660.649, 228.635 653.158, 217.598 640.355 C 206.355 627.315, 183.742 620.078, 167.892 624.449 M 557.500 625.955 C 539.580 629.828, 522.268 642.581, 515.265 657.068 C 511.811 664.211, 510.717 668, 512.107 668 C 512.612 668, 514.022 670.051, 515.240 672.557 C 517.055 676.293, 517.819 677.002, 519.477 676.489 C 535.228 671.621, 547.398 670.730, 559.571 673.553 C 570.378 676.059, 578.072 680.412, 589.406 690.431 C 593.247 693.827, 593.412 693.770, 595.713 688.250 C 600.360 677.098, 612.100 669.054, 623.785 669.015 C 626.142 669.007, 629.163 668.284, 630.498 667.409 L 632.926 665.819 630.731 662.659 C 620.492 647.921, 618.807 646.054, 613.465 643.527 C 609.345 641.578, 607.149 641.112, 604.254 641.575 C 600.689 642.145, 600.300 641.947, 597.977 638.373 C 591.770 628.824, 572.119 622.795, 557.500 625.955 M 238.500 631.621 C 233.128 633.005, 226 637.224, 226 639.019 C 226 639.410, 227.338 641.252, 228.973 643.114 C 231.907 646.455, 238 657.731, 238 659.821 C 238 660.586, 238.897 660.583, 241.109 659.812 C 242.859 659.202, 247.121 658.968, 250.859 659.276 L 257.500 659.823 259.081 656.662 C 259.951 654.923, 262.539 652.233, 264.831 650.684 C 269.575 647.479, 269.808 646.484, 266.950 641.639 C 264.981 638.303, 262.380 636.092, 257 633.183 C 254.396 631.774, 241.975 630.725, 238.500 631.621 M 629 633.894 C 626.525 634.850, 623.011 636.218, 621.192 636.934 L 617.883 638.236 621.345 640.589 C 624.327 642.615, 628.324 647.943, 635.301 659.192 L 636.970 661.885 642.235 658.329 C 648.228 654.282, 654.918 651.185, 663.250 648.599 C 666.413 647.617, 669 646.447, 669 646 C 669 643.914, 658.626 636.132, 653.216 634.159 C 645.911 631.495, 635.502 631.381, 629 633.894 M 275.994 652.876 C 271.657 654.296, 267.584 656.720, 265.145 659.331 L 262.790 661.852 267.125 664.064 C 273.585 667.359, 278.783 671.885, 282.246 677.229 C 283.946 679.853, 285.465 682, 285.621 682 C 285.777 682, 288.064 679.862, 290.702 677.250 C 293.341 674.638, 298.538 671.033, 302.250 669.240 C 305.962 667.447, 309 665.622, 309 665.186 C 309 663.900, 302.856 658.458, 298 655.442 C 293.197 652.460, 281.445 651.090, 275.994 652.876 M 478.616 667.113 C 474.813 668.005, 462.449 675.549, 460.048 678.442 C 458.816 679.927, 460.908 681.250, 468.087 683.527 C 471.713 684.677, 477.921 688.790, 483.315 693.615 L 488.130 697.922 491.315 694.239 C 496.031 688.787, 498.823 686.501, 505.750 682.419 C 512.344 678.534, 513.353 676.534, 510.171 673.655 C 507.890 671.590, 507.547 671.596, 505.416 673.727 C 504.280 674.863, 501.912 675.508, 498.495 675.613 C 490.991 675.844, 484.241 679.051, 483.825 682.583 C 483.363 686.513, 481.126 686.795, 479.732 683.100 C 479 681.160, 477.864 680, 476.697 680 C 473.780 680, 475.310 677.560, 478.579 676.998 C 480.186 676.722, 483.750 675.315, 486.500 673.871 C 489.250 672.428, 492.962 670.930, 494.750 670.544 C 499.216 669.578, 498.821 668.444, 493.557 667.119 C 488.425 665.827, 484.102 665.825, 478.616 667.113 M 619.500 675.329 C 606.948 679.192, 601.155 684.680, 602.433 691.496 C 603.029 694.673, 602.876 695.001, 600.795 695.012 C 599.533 695.019, 596.542 696.144, 594.148 697.512 C 589.565 700.132, 587 700.667, 587 699.003 C 587 694.878, 573.137 685.111, 562 681.388 C 551.937 678.024, 533.687 678.712, 522.083 682.892 C 505.366 688.914, 493 697.662, 493 703.465 L 493 706.774 499.750 707.173 C 505.445 707.509, 507.390 708.144, 512.193 711.237 C 520.102 716.329, 525.797 721.682, 528.093 726.182 C 529.833 729.593, 530.445 730, 533.837 730 C 544.181 730, 559.017 735.196, 564.090 740.596 C 566.835 743.517, 568.267 743.596, 571.790 741.017 C 579.016 735.730, 598.138 733.060, 606.902 736.116 C 610.995 737.542, 611.204 737.249, 609.499 732.462 C 607.577 727.066, 607.576 709.049, 609.497 701.673 C 611.067 695.646, 616.469 684.792, 620.673 679.220 C 623.720 675.182, 623.402 674.129, 619.500 675.329 M 164.228 689.912 C 161.329 690.987, 157.105 693.333, 154.841 695.126 L 150.725 698.386 156.380 700.496 C 164.065 703.363, 170.755 709.143, 173.200 715.027 L 175.167 719.760 184.238 715.164 C 192.842 710.805, 193.433 710.295, 195.750 705.235 C 198.990 698.158, 198.308 695, 193.540 695 C 191.658 695, 189.840 695.450, 189.500 696 C 188.372 697.826, 185 697.127, 185 695.068 C 185 689.566, 173.117 686.616, 164.228 689.912 M 11.500 694 C 9.913 694.682, 9.843 694.874, 11.160 694.930 C 13.992 695.050, 22.865 702.816, 25.039 707.077 L 27.106 711.129 30.303 708.983 C 32.061 707.802, 34.737 706.325, 36.250 705.699 C 38.466 704.782, 39 703.920, 39 701.256 C 39 697.368, 36.576 696.053, 28.510 695.563 C 25.755 695.396, 22.233 694.751, 20.685 694.130 C 17.429 692.823, 14.340 692.779, 11.500 694 M 242.073 704.728 C 238.253 709.362, 238.250 710.126, 242.040 712.365 L 245.080 714.160 249.290 710.439 C 251.606 708.393, 253.917 706.342, 254.426 705.883 C 256.089 704.383, 251.925 701, 248.418 701 C 245.856 701, 244.478 701.810, 242.073 704.728" stroke="none" fill="#1b1f3a" fill-rule="evenodd"/>
</svg>