<svg xmlns="http://www.w3.org/2000/svg" viewBox="0 0 768 768" version="1.1" preserveAspectRatio="xMidYMid meet">
	<path d="M 109.590 32.371 C 108.857 36.277, 106.526 38.678, 103 39.159 C 99.540 39.631, 100.053 41.176, 104.361 43.258 C 107.516 44.782, 108 45.480, 108 48.508 C 108 52.923, 109.684 53.001, 111.493 48.670 C 113.137 44.736, 114.515 43.511, 118.321 42.601 C 121.803 41.768, 121.359 39.874, 117.436 38.824 C 114.003 37.906, 112 35.527, 112 32.368 C 112 28.725, 110.274 28.727, 109.590 32.371 M 289.189 59.039 C 286.520 61.525, 286.392 64.139, 288.829 66.345 C 291.228 68.516, 294.287 68.445, 296.345 66.171 C 301.161 60.850, 294.437 54.149, 289.189 59.039 M 233.379 76.975 C 217.588 84.001, 213.123 105.692, 224.864 118.339 C 231.492 125.478, 244.047 128.659, 253.056 125.480 C 280.903 115.655, 273.691 74.758, 244.167 75.071 C 240.005 75.115, 235.952 75.830, 233.379 76.975 M 238.245 79.930 C 233.704 81.073, 228.833 84.620, 225.947 88.884 C 222.122 94.535, 222.347 107.144, 226.366 112.413 C 237.749 127.337, 259.330 123.432, 264.542 105.505 C 268.893 90.538, 253.924 75.981, 238.245 79.930 M 252 83.509 C 252 83.788, 253.313 85.830, 254.918 88.046 C 262.766 98.879, 258.031 114.467, 246.291 116.451 C 239.580 117.585, 238.803 119.185, 245.178 118.742 C 261.345 117.619, 268.020 98.636, 256.603 86.250 C 253.884 83.300, 252 82.178, 252 83.509 M 149 91.326 C 149 93.727, 145.278 98, 143.186 98 C 141.289 98, 141.771 98.860, 145.500 102.134 C 147.425 103.824, 149 105.836, 149 106.604 C 149 108.882, 150.976 108.193, 151.974 105.567 C 152.483 104.229, 154.263 102.126, 155.930 100.894 L 158.960 98.654 156.028 96.871 C 154.416 95.891, 152.389 93.719, 151.523 92.044 C 149.636 88.396, 149 88.214, 149 91.326 M 347 103.542 C 323.644 106.346, 308.187 110.892, 290 120.307 C 251.725 140.121, 231.507 160.947, 217.004 195.500 C 212.659 205.851, 209.899 220.056, 209.280 235.250 C 208.699 249.524, 208.381 250.343, 204.473 247.632 C 180.025 230.675, 160.349 234.015, 160.585 255.082 C 160.723 267.442, 168.052 280.069, 185.384 297.805 C 190.494 303.034, 193.734 307.216, 194.132 309.096 C 194.763 312.077, 195.410 312.998, 202 320.299 C 203.925 322.431, 205.916 324.911, 206.424 325.809 C 208.073 328.727, 199.112 320.971, 193.870 314.944 C 184.865 304.591, 174 304.734, 174 315.205 C 174 319.385, 178.923 325.092, 192.026 336.098 C 196.396 339.769, 197.782 341.686, 198.898 345.598 C 202.772 359.174, 213.798 369.505, 226.599 371.552 C 230.114 372.114, 230.834 372.705, 232.398 376.316 C 237.022 386.990, 252.262 404.029, 267.273 415.306 C 281.310 425.853, 285.223 426.667, 309.722 424.132 C 325.566 422.493, 325.995 422.601, 326.016 428.219 C 326.040 434.894, 329.593 450.133, 333.855 461.839 C 339.831 478.256, 339.814 477.474, 334.240 479.449 C 331.633 480.373, 327.025 481.708, 324 482.417 C 296.637 488.831, 274.957 497.234, 247 512.261 C 216.993 528.390, 165.103 578.436, 152.916 603 C 141.944 625.117, 146.068 647.600, 164.933 668.500 C 166.918 670.700, 171.079 675.875, 174.179 680 C 187.672 697.954, 202.113 709.435, 224.485 719.993 C 243.145 728.799, 250.645 731.613, 268.500 736.507 C 290.117 742.431, 295.191 743.594, 314 746.928 C 320.325 748.050, 327.975 749.411, 331 749.954 C 346.074 752.659, 371.549 754.144, 395.722 753.726 C 425.480 753.211, 431.394 752.578, 468.196 745.980 C 472.599 745.190, 494.241 740.094, 502 738.020 C 571.862 719.344, 617.779 692.332, 634.627 660 C 642.079 645.699, 635.825 617.187, 621.256 599.046 C 619.248 596.546, 611.701 588.425, 604.486 581 C 597.270 573.575, 588.734 564.125, 585.517 560 C 567.675 537.127, 534.381 509.692, 512.629 499.939 C 505.107 496.565, 504.974 496.443, 505.652 493.500 C 507.701 484.602, 505.140 476.041, 497.690 466.888 C 495.278 463.925, 492.505 459.925, 491.528 458 C 487.782 450.619, 480.357 440.240, 474.346 433.978 C 470.902 430.391, 466.977 425.375, 465.625 422.831 C 460.861 413.871, 451.211 405.814, 435 397.260 C 421.955 390.377, 422.129 389.457, 437.500 384.025 C 452.622 378.680, 468.675 368.248, 479.717 356.590 C 488.257 347.574, 488.652 347.297, 494 346.611 C 500.126 345.824, 502.699 345.101, 515 340.713 C 543.593 330.512, 570.014 307.399, 582.234 281.895 C 599.683 245.479, 593.522 221.986, 568.500 229.529 C 557.940 232.712, 549.905 235.972, 528.894 245.599 C 523.611 248.020, 518.886 250.001, 518.394 250.002 C 517.903 250.003, 517.642 245.775, 517.816 240.605 C 518.113 231.779, 517.571 226.045, 515.061 211.449 C 514.089 205.794, 509.126 188.989, 507.102 184.500 C 506.607 183.400, 504.602 179.010, 502.647 174.745 C 493.510 154.805, 475.878 136.705, 452.500 123.268 C 424.086 106.936, 382.887 99.232, 347 103.542 M 341.500 111.974 C 318.880 115.615, 305.704 119.655, 290.163 127.714 C 260.437 143.129, 241.146 162.132, 228.199 188.751 C 218.630 208.424, 215.462 223.468, 214.614 253.258 C 213.975 275.694, 212.757 278.226, 210.563 261.680 C 210.118 258.321, 209.289 257.655, 197.030 250.797 C 179.859 241.193, 175.085 240.164, 169.766 244.920 C 165.009 249.174, 165.076 258.421, 169.934 268.192 C 177.922 284.258, 198.035 303.631, 202.300 299.367 C 202.648 299.019, 201.222 297.494, 199.130 295.979 C 190.877 290, 181.210 277.282, 173.875 262.752 C 168.423 251.952, 171.956 249.247, 183.870 255.101 C 201.544 263.785, 212.839 273.239, 227.169 291.340 C 231.922 297.344, 232.007 296.626, 227.500 288.566 C 221.873 278.504, 223.219 276.309, 229.227 285.750 C 234.927 294.707, 242.344 304.990, 242.785 304.548 C 243.005 304.328, 242.508 301.752, 241.681 298.824 C 240.854 295.896, 239.881 291.475, 239.519 289 C 239.157 286.525, 238.429 283.106, 237.903 281.403 C 234.947 271.838, 235.264 240.795, 238.443 228.500 C 243.917 207.327, 256.125 188.423, 275.682 170.834 C 278.332 168.450, 280.725 166.218, 281 165.874 C 282.837 163.574, 299.007 153.022, 306.363 149.323 C 332.534 136.164, 357.260 131.358, 386.257 133.796 C 394.091 134.454, 402.300 135.498, 404.500 136.116 C 406.700 136.734, 411.650 138.125, 415.500 139.208 C 428.760 142.937, 447.742 152.172, 452 156.965 C 452.275 157.274, 454.850 159.465, 457.721 161.833 C 460.593 164.201, 465.985 169.820, 469.703 174.319 C 473.421 178.819, 476.748 182.725, 477.096 183 C 478.583 184.173, 483.944 194.722, 483.354 195.313 C 482.998 195.669, 480.464 192.545, 477.724 188.371 C 471.235 178.486, 455.824 162.489, 447.264 156.752 C 426.905 143.107, 403.265 136.613, 374 136.624 C 341.272 136.638, 313.204 145.713, 288.402 164.301 C 249.320 193.592, 233.065 232.903, 240.974 279 C 243.782 295.371, 245.389 301.932, 247.707 306.500 C 257.823 326.437, 260.554 331.397, 264.755 337.460 C 270.411 345.623, 283.164 357.258, 285.481 356.369 C 286.647 355.922, 286.859 356.231, 286.352 357.639 C 285.983 358.662, 286.005 359.210, 286.401 358.856 C 286.798 358.502, 290.810 360.527, 295.319 363.356 C 299.827 366.185, 306.437 369.671, 310.008 371.103 C 346.404 385.695, 350.075 386.517, 378.500 386.442 C 401.981 386.380, 407.118 385.592, 428.500 378.772 C 437.615 375.864, 457.575 365.909, 456.482 364.815 C 456.203 364.537, 459.403 360.977, 463.591 356.904 C 471.560 349.156, 475.478 343.927, 476.569 339.583 C 477.262 336.822, 479 336.025, 479 338.469 C 479 342.010, 474.025 349.118, 466.077 356.933 C 460.072 362.838, 458.526 364.786, 460.921 363.433 C 465.472 360.862, 479.900 346.649, 483.694 341 C 488.810 333.382, 493.615 323.794, 495.981 316.483 C 497.224 312.642, 499.989 304.325, 502.125 298 C 508.706 278.512, 509.411 274.975, 511.030 253.365 C 513.494 220.460, 503.779 182.829, 487.130 160.792 C 475.312 145.148, 448.041 126.529, 426.500 119.398 C 399.458 110.445, 368.045 107.701, 341.500 111.974 M 545.646 118.452 C 542.321 121.533, 542.341 121.994, 545.943 125.445 L 548.885 128.264 552.527 124.403 L 556.168 120.542 553.528 118.271 C 550.179 115.390, 548.919 115.419, 545.646 118.452 M 286.108 131.751 C 277.751 135.990, 263.031 148.885, 266.466 148.958 C 267.547 148.981, 270.472 147.027, 272.966 144.616 C 277.470 140.261, 290.182 131, 291.655 131 C 292.078 131, 290.192 133.305, 287.462 136.121 C 284.733 138.938, 283.034 141.075, 283.687 140.871 C 285.311 140.364, 297.871 129.684, 297.942 128.750 C 298.079 126.975, 292.970 128.271, 286.108 131.751 M 442.380 131.806 C 442.727 132.367, 446.271 134.963, 450.255 137.573 C 454.240 140.184, 457.831 142.811, 458.235 143.410 C 458.639 144.010, 458.976 144.135, 458.985 143.688 C 459.013 142.197, 468.181 149.432, 473.163 154.876 C 475.869 157.832, 478.330 160.004, 478.632 159.701 C 479.940 158.393, 477.479 154.698, 472.027 149.782 C 463.455 142.053, 439.878 127.758, 442.380 131.806 M 615.039 150.398 C 614.467 151.901, 614 153.511, 614 153.976 C 614 155.176, 608.056 160.028, 605.306 161.074 C 602.060 162.308, 602.460 163.208, 607.272 165.500 C 610.348 166.965, 612.011 168.638, 613.485 171.750 C 615.937 176.928, 616.907 176.747, 618.934 170.732 C 620.778 165.260, 622.001 163.869, 626.234 162.431 C 629.983 161.157, 631.085 159, 627.988 159 C 624.925 159, 620.117 155.953, 619.364 153.534 C 619.016 152.415, 618.134 150.637, 617.404 149.583 C 616.136 147.751, 616.032 147.787, 615.039 150.398 M 616.079 154.161 C 616.002 155.779, 611.271 160.410, 608.882 161.206 C 608.200 161.433, 609.648 163.618, 612.263 166.310 L 616.837 171.016 617.482 168.081 C 617.837 166.467, 619.214 164.059, 620.542 162.731 L 622.958 160.315 620.512 159.006 C 619.166 158.286, 617.636 156.528, 617.112 155.099 C 616.540 153.541, 616.126 153.165, 616.079 154.161 M 127.444 163.374 C 111.003 171.030, 107.816 192.280, 121.252 204.664 C 138.012 220.114, 163.900 208.845, 163.978 186.066 C 164.042 167.456, 144.604 155.383, 127.444 163.374 M 131.176 166.083 C 121.912 168.905, 115.122 181.788, 117.940 191.195 C 123.176 208.672, 145.809 212.421, 154.681 197.281 C 158.568 190.648, 159.126 179.868, 155.832 175.037 C 150.548 167.289, 139.906 163.424, 131.176 166.083 M 437 185.603 C 428.381 188.915, 423.641 193.129, 421.864 199.059 C 421.213 201.234, 420.931 203.264, 421.237 203.571 C 421.544 203.877, 425.694 202.913, 430.459 201.427 C 442.514 197.669, 452.280 198.221, 463.230 203.280 C 471.456 207.081, 472.508 206.140, 465.589 201.171 C 454.578 193.264, 439.123 191.623, 428.750 197.260 C 423.309 200.217, 422.564 199.143, 427.110 194.897 C 433.785 188.661, 447.106 187.448, 458.053 192.079 C 465.246 195.122, 469.308 198.077, 476.275 205.335 C 480.565 209.804, 482.340 211.060, 483.179 210.221 C 486.240 207.160, 470.416 192.623, 458.449 187.504 C 454.500 185.814, 439.832 184.515, 437 185.603 M 492.459 192.250 C 492.839 193.488, 493.768 196.975, 494.523 200 C 499.710 220.785, 500.980 227.538, 501.010 234.500 C 501.021 237.250, 501.508 240.175, 502.091 241 C 503.535 243.044, 502.520 218.913, 500.933 213.500 C 500.289 211.300, 498.860 206.350, 497.759 202.500 C 496.658 198.650, 495.362 195.072, 494.879 194.550 C 494.395 194.028, 494 192.790, 494 191.800 C 494 190.810, 493.498 190, 492.883 190 C 492.187 190, 492.027 190.847, 492.459 192.250 M 283 196.870 C 270.273 200.187, 257.452 209.518, 253.009 218.698 C 251.730 221.339, 250.306 224.281, 249.842 225.236 C 248.731 227.528, 248.769 230, 249.917 230 C 250.422 230, 251.625 227.863, 252.591 225.250 C 257.429 212.171, 272.162 201.246, 287.989 199.002 C 294.450 198.085, 296.849 198.196, 302.250 199.660 C 305.710 200.598, 303.913 198.182, 299.980 196.609 C 295.033 194.629, 291.382 194.686, 283 196.870 M 288.699 201.030 C 280.901 201.993, 269.868 207.592, 262.473 214.338 C 254.919 221.229, 255.933 222.647, 264.204 216.760 C 278.911 206.292, 281.068 205.494, 294.500 205.548 C 303.873 205.585, 307.157 205.966, 309.500 207.291 C 315.835 210.874, 316.747 208.540, 310.871 203.783 C 306.945 200.606, 299.559 199.688, 288.699 201.030 M 283.155 217.552 C 271.756 220.114, 264.403 225.358, 252.687 239.281 C 245.553 247.759, 249.393 246.500, 259.612 237.010 C 273.464 224.145, 285.101 220.054, 299.533 222.976 C 306.295 224.345, 316.460 229.614, 322.006 234.624 C 326.538 238.719, 327.515 238.888, 325.615 235.250 C 319.232 223.029, 298.057 214.203, 283.155 217.552 M 440.500 218.096 C 427.674 220.966, 411.328 234.483, 405.191 247.294 C 400.632 256.811, 402.246 257.556, 408.101 248.637 C 423.427 225.293, 448.661 216.115, 468.273 226.754 C 483.183 234.842, 490.983 252.415, 490.996 277.950 C 490.999 283.381, 491.299 285.101, 492.103 284.297 C 493.736 282.664, 493.248 259.129, 491.434 252.049 C 484.930 226.663, 464.143 212.806, 440.500 218.096 M 571 235.195 C 568.525 235.735, 566.072 236.587, 565.550 237.088 C 565.028 237.590, 563.903 238.015, 563.050 238.034 C 562.197 238.053, 559.700 238.937, 557.500 240 C 555.300 241.063, 553.194 241.947, 552.820 241.966 C 552.131 242, 543.962 245.628, 524.314 254.625 C 521.462 255.931, 518.682 257, 518.136 257 C 517.590 257, 516.668 259.363, 516.088 262.250 C 515.507 265.137, 514.542 269.750, 513.943 272.500 C 511.371 284.315, 511.291 284.038, 515.686 278.498 C 525.902 265.621, 549.621 250.343, 569.380 243.914 C 576.627 241.555, 576.555 241.555, 579 244 C 581.791 246.791, 581.517 250.324, 577.590 262.193 C 571.963 279.198, 566.441 289.417, 559.090 296.427 C 554.341 300.957, 554.450 298.913, 559.363 291.318 C 566.421 280.408, 572.602 265.042, 575.481 251.250 C 576.296 247.345, 576.060 247.306, 571 250.500 C 568.822 251.875, 566.774 253, 566.450 253 C 566.126 253, 563.979 254.288, 561.680 255.863 C 559.381 257.438, 555.475 259.751, 553 261.002 C 542.975 266.073, 519.592 285.925, 521.453 287.786 C 521.732 288.066, 525.734 285.981, 530.345 283.153 C 542.746 275.548, 549 273.505, 549 277.058 C 549 283.106, 543.572 296.762, 538.551 303.344 C 535.150 307.804, 535.263 307.968, 540.536 306.232 C 550.007 303.114, 545.974 307.602, 531.500 316.284 C 520.569 322.842, 510.050 327.158, 504.082 327.533 C 499.831 327.801, 499.495 328.059, 496.275 333.528 C 494.424 336.671, 493.047 339.380, 493.214 339.548 C 493.382 339.715, 496.215 339.248, 499.510 338.510 C 518.028 334.360, 538.623 323.699, 552.725 310.963 C 573.686 292.034, 591.415 253.502, 585.585 239.548 C 583.301 234.083, 580.262 233.176, 571 235.195 M 283.223 241.996 C 277.447 243.223, 269.463 247.665, 264.547 252.386 C 259.909 256.839, 261.124 258.509, 266.220 254.688 C 286.850 239.219, 317.300 245.743, 334.684 269.357 C 337.058 272.581, 339 275.655, 339 276.187 C 339 276.718, 337.369 274.981, 335.376 272.327 C 323.332 256.285, 308.685 248.950, 288.354 248.780 C 280.809 248.717, 279.737 248.975, 273.854 252.275 C 261.012 259.476, 256.524 267.722, 257.219 282.836 C 257.761 294.627, 261.017 301.677, 270.546 311.699 C 277.118 318.610, 276.728 318.918, 268.405 313.393 C 256.282 305.346, 251.074 294.193, 250.245 274.500 C 249.733 262.337, 248.585 259.113, 247.521 266.848 C 246.139 276.895, 248.995 291.455, 254.527 302.561 C 264.086 321.755, 294.401 333.503, 323 329.097 C 332.409 327.648, 343.522 323.495, 345.581 320.660 L 347.149 318.500 348.697 320.750 C 349.548 321.988, 350.933 323, 351.776 323 C 353.772 323, 352.849 302.525, 350.419 292.894 C 341.877 259.041, 311.453 235.997, 283.223 241.996 M 440.500 244.848 C 433.982 247.001, 430.063 249.207, 427.079 252.401 C 423.442 256.294, 424.771 256.245, 432.951 252.183 C 442.445 247.469, 453.359 246.616, 461.500 249.952 C 466.442 251.978, 466.454 251.993, 462.500 251.251 C 454.770 249.800, 440.850 250.604, 436.135 252.774 L 431.771 254.782 438.635 258.141 C 444.430 260.977, 445.713 262.078, 446.870 265.208 C 451.368 277.385, 439.464 290.533, 425.622 288.676 C 419.085 287.799, 417.987 285.856, 417.726 274.701 C 417.602 269.368, 417.275 265.004, 417 265.004 C 416.031 265.003, 410.041 274.571, 407.298 280.500 C 404.679 286.162, 404.522 287.299, 404.511 300.680 L 404.500 314.860 402.754 308.680 C 400.605 301.073, 400.575 297.497, 402.558 284.619 C 404.413 272.569, 406.050 266.696, 410.297 256.852 C 413.188 250.149, 409.519 252.106, 406.268 259 C 400.895 270.397, 398.691 280.730, 398.592 295 C 398.514 306.125, 398.621 306.719, 401.866 313.195 C 406.039 321.524, 408.383 323.866, 410.945 322.267 C 412.351 321.389, 414.025 321.473, 418.139 322.631 C 429.033 325.695, 430.683 325.952, 439.500 325.959 C 448.961 325.966, 459.738 323.749, 466 320.508 C 472.004 317.400, 482.681 305.855, 485.957 298.926 C 490.557 289.201, 489.029 273.801, 482.309 262.153 C 473.847 247.484, 455.503 239.891, 440.500 244.848 M 282.753 253.084 C 265.517 257.147, 257.580 278.574, 266.369 297.316 C 271.610 308.491, 280.931 317.468, 290.750 320.795 C 294.791 322.164, 294.809 322.320, 290.062 314.974 C 285.717 308.253, 282.419 299.242, 281.424 291.378 C 280.671 285.426, 281.578 284.378, 285.646 286.499 C 295.579 291.680, 308.956 283.654, 308.979 272.500 C 308.992 265.736, 304.578 260.741, 297.449 259.451 C 291.356 258.349, 289.784 257.272, 290.987 255.024 C 291.544 253.983, 292 252.877, 292 252.566 C 292 251.769, 287.188 252.039, 282.753 253.084 M 684 258.304 C 684 260.961, 677.540 265.858, 672.500 267.023 C 664.468 268.879, 664.310 268.952, 666.028 270.038 C 666.838 270.550, 669.922 270.976, 672.882 270.985 C 682.415 271.012, 689 277.621, 689 287.160 C 689 289.674, 689.361 291.013, 689.887 290.450 C 690.956 289.306, 691.963 277.905, 690.940 278.537 C 690.545 278.781, 689.073 277.473, 687.668 275.631 C 686.263 273.789, 683.478 271.506, 681.480 270.558 L 677.847 268.834 681.924 265.070 C 685.692 261.591, 687.442 257, 685 257 C 684.450 257, 684 257.587, 684 258.304 M 181 261.540 C 181 263.056, 185.812 271.161, 189.984 276.672 C 195.786 284.336, 207.559 297.109, 206.739 294.850 C 206.216 293.410, 206.582 293.322, 209.622 294.161 C 218.985 296.747, 218.591 295.223, 206.755 283.093 C 194.912 270.957, 181 259.314, 181 261.540 M 109.491 272.765 C 108.935 273.169, 107.242 275.413, 105.726 277.750 C 104.211 280.087, 102.330 282, 101.545 282 C 99.615 282, 98.621 283.813, 99.739 285.294 C 100.240 285.957, 101.179 288.354, 101.826 290.620 C 102.947 294.547, 103.216 294.764, 107.563 295.254 C 110.264 295.559, 113.043 296.632, 114.377 297.884 C 117.501 300.819, 118.318 300.536, 117.642 296.750 C 117.001 293.160, 120.778 287.840, 124.896 286.533 C 127.531 285.697, 127.602 284.326, 125.055 283.517 C 123.985 283.178, 120.868 280.447, 118.128 277.450 C 113.293 272.160, 111.591 271.237, 109.491 272.765 M 110.172 276 C 109.634 277.375, 107.776 279.933, 106.043 281.684 L 102.892 284.868 104.966 288.934 C 107.866 294.617, 112.899 294.768, 118.332 289.334 L 121.998 285.669 118.012 281.584 C 115.819 279.338, 113.378 276.600, 112.587 275.500 C 111.174 273.534, 111.133 273.542, 110.172 276 M 537.327 283.632 C 534.672 285.629, 528.900 290.712, 524.500 294.928 C 520.100 299.143, 514.302 304.363, 511.616 306.527 C 507.312 309.993, 503 316.801, 503 320.128 C 503 321.513, 509.752 320.104, 514.500 317.728 C 529.534 310.205, 540.674 297.025, 542.545 284.547 C 543.366 279.073, 543.382 279.075, 537.327 283.632 M 496.094 294.304 C 492.199 303.551, 489.926 307.068, 483.972 313.057 C 480.382 316.669, 475.994 320.481, 474.221 321.528 C 472.448 322.576, 470.742 324.237, 470.430 325.220 C 470.118 326.204, 468.656 327.663, 467.181 328.464 C 463.676 330.367, 465.105 330.401, 469.604 328.521 C 471.551 327.707, 472.863 326.588, 472.520 326.032 C 472.155 325.442, 472.541 325.270, 473.448 325.618 C 474.380 325.976, 475.003 325.672, 475.007 324.857 C 475.011 324.111, 476.675 322.375, 478.706 321 C 488.387 314.446, 494.695 306.068, 497.080 296.596 C 498.483 291.026, 497.974 289.842, 496.094 294.304 M 222 299.212 C 222 301.172, 227.667 316.096, 229.534 319.054 C 231.952 322.884, 235.958 326, 238.465 326 C 239.309 326, 240 326.450, 240 327 C 240 327.550, 238.922 328, 237.604 328 C 230.593 328, 226.542 340.287, 231.114 347.685 C 233.584 351.681, 232.931 353.152, 229.904 350.413 C 223.651 344.754, 223.416 334.049, 229.434 329.055 C 231.643 327.221, 231.432 326.688, 227.705 324.681 C 225.033 323.241, 223.444 320.839, 219.290 311.954 C 214.705 302.148, 212.019 298.647, 210.357 300.309 C 209.348 301.318, 212.218 308.288, 216.644 315.579 C 221.327 323.293, 221.845 325, 219.500 325 C 218.675 325, 217.662 325.062, 217.250 325.138 C 216.838 325.214, 216.044 324.426, 215.486 323.388 C 211.476 315.920, 203.346 305, 201.796 305 C 197.858 305, 199.617 310.923, 206 319.158 C 211.865 326.725, 213.021 329, 211 329 C 210.450 329, 210 329.648, 210 330.441 C 210 335.322, 203.167 331.248, 193.133 320.385 C 186.013 312.677, 183.438 311.228, 180.580 313.318 C 178.155 315.091, 180.391 319.681, 185.644 323.712 C 199.010 333.971, 202.470 337.660, 204.321 343.628 C 208.547 357.251, 218.766 365.353, 231.554 365.221 C 250.725 365.022, 259.196 349.039, 252.473 325.750 C 250.341 318.361, 249.037 317.415, 247.307 321.998 C 246.685 323.646, 245.391 325.297, 244.432 325.664 C 242.269 326.495, 242.027 326.208, 232.092 311 C 227.771 304.386, 222 297.645, 222 299.212 M 626.393 323.978 C 623.032 325.337, 618.182 331.963, 617.472 336.167 C 616.649 341.038, 619.299 346.566, 623.985 349.750 C 634.289 356.752, 648.324 346.932, 646.253 334.169 C 644.976 326.301, 634.257 320.800, 626.393 323.978 M 269 326.864 C 269 327.704, 270.980 328.520, 283.500 332.843 C 295.736 337.067, 318.221 337.488, 325.697 333.633 C 327.411 332.749, 324.008 332.498, 310.197 332.492 C 292.065 332.483, 291.401 332.384, 276.215 327.405 C 271.307 325.796, 269 325.623, 269 326.864 M 625.434 328.440 C 616.688 335.336, 620.478 348, 631.288 348 C 636.173 348, 638.591 346.691, 640.490 343.020 C 646.016 332.332, 634.563 321.241, 625.434 328.440 M 413.187 342.232 C 413.846 346.934, 396.151 353.851, 381.220 354.730 C 372.230 355.259, 355.283 353.648, 352.052 351.958 C 351.199 351.511, 349.661 350.883, 348.637 350.561 C 347.366 350.162, 346.938 349.343, 347.293 347.989 C 347.578 346.896, 347.459 345.784, 347.028 345.517 C 345.651 344.666, 340.121 348.021, 338.007 350.991 C 335.642 354.311, 336.864 355.913, 339.521 352.976 C 341.930 350.314, 342.648 350.450, 347.004 354.385 C 349.065 356.246, 352.754 358.943, 355.202 360.378 C 357.650 361.813, 361.570 364.757, 363.915 366.921 C 369.530 372.105, 373.747 374, 379.669 374 C 385.155 374, 389.593 370.990, 400.009 360.204 C 408.711 351.193, 415.199 346.479, 417.619 347.407 C 420.451 348.494, 420.446 344.780, 417.612 342.342 C 414.193 339.402, 412.786 339.367, 413.187 342.232 M 259.536 349.561 L 258.849 355.053 266.675 364.688 C 271.621 370.778, 277.259 376.357, 282 379.853 C 295.388 389.724, 299.449 392.867, 302.415 395.651 L 305.331 398.388 306.905 395.944 C 309.585 391.784, 313.634 388.125, 316.122 387.614 C 325.161 385.757, 325.069 386.040, 317.496 383.393 C 298.107 376.615, 280.263 365.374, 267.709 352.029 L 260.222 344.070 259.536 349.561 M 255 361.893 C 255 362.384, 255.676 363.046, 256.503 363.363 C 258.288 364.048, 264 372.775, 264 374.818 C 264 375.954, 263.703 375.998, 262.544 375.036 C 261.743 374.372, 260.655 374.095, 260.125 374.423 C 259.596 374.750, 258.859 373.633, 258.487 371.941 C 257.649 368.123, 255.202 367.016, 253.284 369.588 C 252.500 370.639, 251.058 372.581, 250.080 373.902 C 248.964 375.411, 247.834 376.016, 247.044 375.527 C 246.353 375.100, 246.182 374.469, 246.666 374.125 C 247.680 373.405, 251 368.342, 251 367.516 C 251 366.807, 245.821 368.028, 244.500 369.048 C 243.950 369.473, 241.813 370.136, 239.750 370.522 C 237.688 370.907, 236 371.780, 236 372.461 C 236 375.827, 255.514 397.284, 266.400 405.888 C 277.951 415.018, 289.602 419.501, 292.399 415.893 C 293.005 415.112, 294.758 413.667, 296.296 412.683 C 303.577 408.024, 302.384 405.276, 288.500 394.728 C 275.109 384.554, 268.159 378.017, 265.012 372.634 C 260.816 365.457, 255 359.218, 255 361.893 M 95.164 375.689 C 83.917 381.231, 88.027 398.500, 100.594 398.500 C 113.426 398.500, 116.378 380.398, 104.364 375.379 C 100.199 373.638, 99.262 373.670, 95.164 375.689 M 97 378.699 C 91.492 380.688, 90.400 388.476, 95.077 392.411 C 99.249 395.922, 104.014 395.196, 107.235 390.558 C 111.198 384.850, 103.778 376.252, 97 378.699 M 329 390.495 C 333.713 395.669, 341.604 399.440, 355.500 403.161 C 363.641 405.341, 392.978 404.980, 400.500 402.607 C 412.091 398.951, 419 394.346, 419 390.277 C 419 388.401, 417.707 388.702, 413.898 391.464 C 402.799 399.512, 391.901 403.013, 378 402.998 C 370.715 402.990, 355.356 400.454, 350.433 398.447 C 341.052 394.622, 339 393.549, 339 392.468 C 339 391.433, 336.288 390.333, 329 388.411 L 326.500 387.752 329 390.495 M 344.500 393.326 C 357.849 399.866, 387.540 401.859, 398.750 396.967 C 404.878 394.293, 404.056 393.176, 396.750 394.249 C 388.062 395.526, 361.738 395.492, 354.500 394.196 C 351.200 393.605, 346.925 392.837, 345 392.489 L 341.500 391.857 344.500 393.326 M 317.374 394.985 C 314.303 396.225, 308 406.038, 308 409.577 C 308 410.275, 306.772 412.306, 305.271 414.089 L 302.543 417.332 309.521 416.673 C 313.360 416.311, 319.761 416.011, 323.747 416.007 C 330.674 416, 331.172 415.839, 335.024 412.360 C 340.069 407.801, 340.788 408.412, 337.550 414.503 C 332.565 423.877, 331.472 429.177, 332.958 436.752 C 334.219 443.176, 337.447 454.144, 339.917 460.396 L 341.061 463.291 343.345 461.146 C 349.765 455.115, 364.062 462.561, 365.587 472.730 C 366.453 478.507, 366.726 478.573, 384.240 477.243 L 399.075 476.115 405.142 472.064 C 409.209 469.348, 410.976 468.587, 410.500 469.756 C 409.190 472.979, 408.180 476.846, 408.550 477.217 C 408.900 477.567, 426.169 475.196, 428.711 474.449 C 429.608 474.185, 429.768 471.425, 429.328 463.796 C 428.558 450.468, 427.992 449.448, 424.494 455.084 C 420.143 462.093, 416 466, 416 463.093 C 416 462.595, 418.700 458.611, 422 454.240 C 429.141 444.783, 429.456 443.673, 423.647 448.433 C 417.832 453.198, 415.891 452.970, 420.340 448.045 C 428.384 439.141, 429.140 434.619, 424.250 424.660 C 421.070 418.184, 423.954 419.134, 432.244 427.292 C 436.831 431.807, 445.515 440, 451.542 445.500 C 457.569 451, 464.874 458.096, 467.776 461.269 L 473.052 467.037 472.398 473.418 C 471.788 479.378, 471.931 480.043, 474.574 483.509 L 477.404 487.219 479.174 485.033 C 481.254 482.465, 483 483.136, 483 486.503 C 483 487.815, 484.111 490.151, 485.468 491.694 L 487.937 494.500 487.968 489.250 C 488.008 482.680, 489.020 482.614, 491.808 489 C 493.038 491.816, 494.649 494, 495.496 494 C 497.394 494, 497.384 492.657, 495.440 486.111 C 493.141 478.368, 493.974 476.574, 497.262 482.185 C 498.768 484.754, 500.007 487.676, 500.015 488.678 C 500.041 491.785, 501.756 493.799, 502.570 491.678 C 504.307 487.152, 500.068 476.243, 493.952 469.500 C 491.956 467.300, 487.214 460.813, 483.413 455.085 C 476.946 445.338, 463.834 430, 461.969 430 C 461.510 430, 460.864 430.853, 460.533 431.895 C 459.617 434.783, 453.713 435.521, 449.249 433.306 C 444.298 430.850, 443.893 429, 448.306 429 C 450.998 429, 451.747 429.393, 451.639 430.750 C 451.549 431.876, 452.334 432.617, 453.843 432.831 C 455.839 433.114, 456.085 432.844, 455.504 431.012 C 454.977 429.352, 455.298 428.735, 456.910 428.313 C 459.360 427.672, 459.548 425.935, 457.569 422.200 C 455.319 417.953, 442.654 408.478, 440.777 409.638 C 440.156 410.022, 439.976 409.847, 440.357 409.231 C 441.913 406.713, 423.628 397.126, 420.726 398.939 C 402.596 410.261, 370.286 412.825, 347.500 404.748 C 344.753 403.774, 338.475 401.201, 333.500 399.010 C 321.366 393.666, 320.918 393.554, 317.374 394.985 M 569.761 401.062 C 565.717 403.197, 563.905 405.522, 561.982 411.043 C 559.532 418.076, 566.786 427, 574.954 427 C 590.062 427, 594.564 407.920, 581.079 401.040 C 576.175 398.539, 574.535 398.542, 569.761 401.062 M 573.500 403.773 C 563.130 405.958, 564.410 422, 574.954 422 C 585.094 422, 588.317 409.502, 579.335 405.012 C 575.796 403.242, 575.908 403.266, 573.500 403.773 M 395.549 414.920 C 392.725 419.490, 370.213 421.433, 363.500 417.687 C 361.850 416.766, 359.938 416.010, 359.250 416.006 C 356.653 415.993, 358.167 417.729, 362.750 420.018 C 370.238 423.758, 384.549 423.483, 392.532 419.446 C 397.980 416.690, 399.484 414.995, 397.167 414.222 C 396.626 414.042, 395.898 414.356, 395.549 414.920 M 391.500 434.868 C 385.963 438.512, 372.792 438.694, 366.250 435.218 C 362.809 433.389, 362 433.245, 362 434.459 C 362 436.629, 368.983 439.863, 375.263 440.601 C 381.765 441.365, 390.608 439.101, 394.629 435.643 C 398.500 432.313, 396.236 431.752, 391.500 434.868 M 435.756 444.832 C 435.475 447.949, 435.752 455.675, 436.372 462 L 437.500 473.500 442 474.096 C 444.475 474.424, 450.732 475.463, 455.905 476.404 C 466.303 478.296, 466.350 478.279, 467.498 472.160 C 468.118 468.852, 467.764 468.302, 459.824 460.272 C 455.246 455.641, 448.073 448.997, 443.884 445.508 L 436.268 439.164 435.756 444.832 M 345.943 465.049 C 342.491 468.043, 342.420 476.863, 345.834 478.589 C 349.612 480.498, 350.732 482, 348.378 482 C 340.178 482, 331.282 487.860, 326.280 496.556 C 322.632 502.899, 319 505.232, 319 501.232 C 319 499.454, 323.420 492.199, 325.424 490.689 C 326.639 489.774, 320.811 490.672, 317 491.988 C 315.625 492.463, 311.125 493.835, 307 495.037 C 294.856 498.576, 289.657 500.305, 287 501.687 C 285.625 502.402, 283.739 502.990, 282.809 502.994 C 281.879 502.997, 280.871 503.400, 280.568 503.889 C 280.266 504.378, 278.833 505.076, 277.384 505.440 C 268.182 507.749, 234.296 527.163, 220.653 537.941 C 203.282 551.666, 172.437 584.868, 164.395 598.500 C 152.770 618.205, 152.026 634.218, 161.943 651.336 C 169.873 665.024, 172.700 664.550, 165.588 650.725 C 160.872 641.560, 159.194 632.952, 160.774 626.041 L 161.565 622.582 164.371 627.370 C 167.746 633.129, 168.183 632.996, 166.824 626.625 C 165.211 619.061, 169.080 599, 172.152 599 C 173.411 599, 173.196 600.481, 171.250 605.230 C 168.287 612.459, 168.772 628.383, 172.110 633.500 C 179.751 645.214, 199.544 656.643, 225 664.043 C 238.763 668.043, 242.485 669.173, 244.500 669.964 C 246.306 670.672, 256.775 673.873, 264.500 676.078 C 272.795 678.446, 279.110 680.081, 285 681.385 C 288.575 682.177, 294.650 683.526, 298.500 684.383 C 306.856 686.244, 315.247 687.679, 327.737 689.381 C 332.817 690.074, 337.280 690.946, 337.653 691.320 C 338.640 692.307, 328.498 692.116, 321.500 691.017 C 293.887 686.681, 271.145 681.861, 253 676.500 C 247.432 674.855, 241.293 673.149, 231.750 670.595 C 196.464 661.151, 182.027 653.916, 169.014 639.155 C 164.328 633.840, 164.027 633.662, 164.014 636.191 C 164.006 637.671, 164.415 639.139, 164.923 639.452 C 165.431 639.766, 166.153 641.422, 166.529 643.131 C 167.348 646.860, 179.893 659.568, 187.837 664.715 C 190.772 666.617, 199.322 671.306, 206.836 675.135 C 221.251 682.482, 222.733 683.429, 221.251 684.345 C 220.241 684.969, 201.629 676.097, 190.500 669.687 C 186.650 667.469, 180.400 662.695, 176.610 659.077 C 172.821 655.460, 169.919 652.950, 170.161 653.500 C 175.681 666.027, 178.880 670.006, 190.500 678.802 C 196.590 683.412, 227.781 699, 230.915 699 C 231.527 699, 232.809 699.410, 233.764 699.911 C 236.709 701.457, 244.055 703.807, 254.500 706.545 C 269.414 710.453, 286.788 714.952, 293 716.513 C 296.025 717.274, 301.085 718.603, 304.245 719.467 C 341.020 729.526, 362.678 732.219, 406.500 732.181 C 434.619 732.157, 447.385 731.366, 465 728.559 C 486.549 725.124, 494.419 723.061, 526.500 712.441 C 554.261 703.251, 562.511 700.100, 581.686 691.363 C 592.383 686.489, 588.966 690.304, 577.718 695.793 C 564.852 702.072, 561.445 703.454, 546.500 708.453 C 538.800 711.029, 531.600 713.523, 530.500 713.996 C 529.400 714.469, 525.350 715.821, 521.500 717 C 517.650 718.179, 513.600 719.523, 512.500 719.987 C 511.400 720.450, 508.475 721.351, 506 721.988 C 503.525 722.626, 499.025 723.829, 496 724.661 C 465.150 733.147, 414.539 737.751, 382.157 735.015 C 375.746 734.474, 365.100 733.575, 358.500 733.018 C 340.019 731.459, 323.051 728.758, 304.500 724.423 C 300.650 723.523, 294.800 722.155, 291.500 721.383 C 288.200 720.610, 279.425 718.663, 272 717.056 C 235.057 709.057, 209.427 699.514, 190.654 686.765 C 185.465 683.241, 184.940 683.056, 186.597 685.336 C 191.781 692.468, 220.487 710.709, 237.548 717.712 C 252.076 723.675, 268.865 728.990, 284 732.418 C 290.248 733.833, 296.398 734.964, 317 738.487 C 322.225 739.381, 330.100 740.755, 334.500 741.542 C 350.547 744.412, 367.494 746.041, 385.791 746.472 L 404.500 746.913 387.500 745.511 C 363.957 743.569, 343.896 740.307, 341.670 738.058 C 340.429 736.805, 346.045 737.175, 356.500 739.035 C 380.312 743.271, 426.344 742.625, 460 737.581 C 490.180 733.058, 529.214 723.384, 539.236 717.943 C 540.191 717.424, 541.473 717, 542.085 717 C 542.697 717, 544.616 716.365, 546.349 715.588 C 548.082 714.811, 553.519 712.486, 558.431 710.420 C 580.345 701.206, 611.569 680.779, 618.386 671.197 C 621.846 666.335, 621.034 666.119, 615.416 670.408 C 611.138 673.675, 602.148 678.387, 590 683.730 C 585.581 685.673, 575.853 688.772, 561 692.966 C 548.852 696.397, 546.945 696.886, 537.500 698.996 C 532.550 700.102, 526.925 701.423, 525 701.931 C 520.438 703.136, 505.990 705.680, 499 706.508 C 493.183 707.197, 479.831 709.879, 469 712.534 C 438.810 719.933, 406.052 722.577, 377.059 719.955 C 347.042 717.240, 330.018 714.888, 308.500 710.482 C 306.850 710.144, 301 708.959, 295.500 707.848 C 290 706.737, 284.150 705.429, 282.500 704.941 C 280.850 704.453, 276.125 703.101, 272 701.935 C 257.712 697.897, 242.530 691.549, 240.070 688.585 C 237.898 685.967, 239.128 686.045, 245 688.895 C 254.859 693.680, 268.843 698.556, 281.500 701.620 C 342.422 716.370, 396.784 720.561, 443 714.070 C 450.551 713.009, 455.253 711.982, 473.374 707.435 C 483.202 704.968, 489.259 703.903, 504.500 701.961 C 513.069 700.869, 519.058 699.584, 539.500 694.449 C 581.665 683.857, 618.337 667.134, 627.271 654.422 C 634.568 644.040, 631.817 629.134, 618.393 606.309 C 612.353 596.039, 596.606 578.997, 593.161 579.003 C 592.248 579.004, 588.971 580.530, 585.881 582.393 C 580.189 585.826, 577.509 587.150, 568.500 590.982 C 565.750 592.152, 562.600 593.510, 561.500 594 C 553.071 597.754, 549.967 599, 549.041 599 C 548.454 599, 547.191 599.414, 546.236 599.920 C 545.281 600.425, 541.575 601.819, 538 603.017 C 534.425 604.215, 530.600 605.593, 529.500 606.080 C 525.105 608.023, 511.099 610.883, 506 610.877 C 500.919 610.872, 504.969 609.391, 512.588 608.469 C 515.840 608.075, 518.950 607.417, 519.500 607.007 C 520.050 606.597, 522.243 605.946, 524.373 605.562 C 526.503 605.178, 528.978 604.480, 529.873 604.012 C 530.768 603.544, 534.425 602.133, 538 600.877 C 541.575 599.622, 545.625 598.013, 547 597.303 C 548.375 596.593, 550.198 596.010, 551.050 596.006 C 551.903 596.003, 553.028 595.640, 553.550 595.200 C 554.073 594.760, 557.200 593.365, 560.500 592.101 C 573.766 587.019, 590 578.298, 590 576.252 C 590 575.827, 588.987 574.356, 587.750 572.982 C 586.513 571.608, 581.116 565.253, 575.758 558.859 C 558.926 538.774, 544.398 526.584, 520.088 512.151 C 505.170 503.293, 502 501.868, 502 504.020 C 502 504.582, 500.156 504.100, 497.903 502.951 C 495.650 501.801, 493.110 501.128, 492.258 501.454 C 491.407 501.781, 489.876 501.293, 488.855 500.369 C 487.139 498.815, 487 498.814, 487 500.345 C 487 502.781, 486.171 502.417, 482.056 498.177 C 478.203 494.207, 468.884 490.991, 461.250 490.997 C 459.462 490.999, 458 490.550, 458 490 C 458 489.436, 460.943 488.983, 464.750 488.960 L 471.500 488.920 468.500 487.275 C 465.679 485.727, 459.858 484.298, 447 481.996 C 434.933 479.836, 432.633 481.631, 440.774 486.855 C 445.850 490.112, 449.563 493.770, 452.341 498.250 C 453.863 500.705, 453.774 501.361, 451.942 501.183 C 451.636 501.153, 451.385 503.262, 451.385 505.871 C 451.385 511.046, 449.310 514.750, 444.955 517.351 C 441.318 519.523, 440.500 518.356, 440.500 511 C 440.500 505.273, 440.116 503.965, 437.274 500 C 435.499 497.525, 433.296 494.074, 432.377 492.330 C 431.112 489.931, 429.321 488.656, 425 487.080 C 417.578 484.374, 415.575 484.338, 416.965 486.934 C 418.431 489.674, 418.248 493.550, 416.586 494.928 C 415.809 495.574, 414.231 498.104, 413.081 500.551 C 410.567 505.899, 409.535 506.252, 410.306 501.500 C 410.897 497.861, 410.248 497.152, 408.200 499.200 C 406.195 501.205, 406.841 503.689, 410.077 506.411 C 414.101 509.797, 418.040 509.743, 421.829 506.250 C 428.267 500.313, 430.999 498.655, 431.013 500.674 C 431.020 501.678, 432.370 505.151, 434.013 508.391 C 437.507 515.281, 437.741 517.573, 435.024 518.283 C 432.287 518.999, 426.211 517.501, 424.098 515.589 C 423.133 514.715, 421.221 514, 419.849 514 C 406.050 514, 398.260 499.132, 409.580 494.402 C 413.881 492.605, 414.204 489.440, 410.250 487.832 C 406.977 486.500, 377.145 486.146, 368.693 487.339 C 363.790 488.031, 362.699 488.566, 361.693 490.776 C 361.037 492.216, 358.925 495.197, 357 497.402 C 344.080 512.199, 342.515 513.152, 335.307 510.608 C 333.037 509.808, 330.954 509.380, 330.676 509.657 C 329.825 510.508, 326.110 508.074, 324.950 505.906 C 323.797 503.753, 328.237 496.036, 333.869 490.404 C 337.320 486.953, 338.569 487.442, 336.027 491.250 C 332.034 497.230, 329.909 502.791, 330.586 505.487 C 331.378 508.642, 332.961 507.621, 336.193 501.870 C 338.257 498.197, 340.833 496.387, 339.666 499.429 C 338.278 503.044, 337.829 508, 338.889 508 C 339.500 508, 340 507.523, 340 506.941 C 340 506.359, 340.461 506.167, 341.025 506.515 C 341.588 506.864, 341.926 506.612, 341.775 505.957 C 341.624 505.302, 342.400 504.626, 343.500 504.455 C 347.651 503.809, 355.684 493.349, 358.940 484.352 C 362.947 473.278, 362.870 471.634, 358.118 466.882 C 353.632 462.397, 349.686 461.803, 345.943 465.049 M 636.728 476.327 C 629.178 478.675, 622.026 486.627, 620.607 494.250 C 619.963 497.710, 619.647 498, 616.514 498 C 614.646 498, 612.840 498.450, 612.500 499 C 612.142 499.580, 613.115 500, 614.819 500 C 618.121 500, 619.531 501.284, 620.509 505.180 C 621.477 509.038, 627.552 515.724, 632.357 518.222 C 642.984 523.745, 657.510 518.584, 663.401 507.191 C 672.118 490.335, 655.079 470.619, 636.728 476.327 M 634.804 481.041 C 629.090 484.058, 621.158 496.744, 623.919 498.450 C 624.365 498.726, 624.980 500.812, 625.285 503.087 C 626.192 509.854, 635.134 517, 642.694 517 C 650.779 517, 660.603 509.106, 659.671 503.359 C 659.264 500.852, 659.490 500, 660.563 500 C 662.697 500, 662.385 493.675, 660.023 489.044 C 655.544 480.265, 643.506 476.444, 634.804 481.041 M 124.684 485.396 C 105.959 492.333, 106.513 518.741, 125.500 524.275 C 136.650 527.525, 147.849 520.703, 151.084 508.690 C 154.888 494.561, 138.641 480.225, 124.684 485.396 M 123.500 489.871 C 116.871 493.988, 115.500 496.497, 115.500 504.515 C 115.500 512.486, 117.613 516.148, 124.200 519.589 C 136.919 526.234, 152.238 510.030, 145.520 497.039 C 143.277 492.701, 136.528 487.875, 137.250 491.125 C 137.387 491.744, 136.869 492.479, 136.098 492.759 C 135.091 493.125, 134.849 492.685, 135.238 491.198 C 136.194 487.544, 128.625 486.688, 123.500 489.871 M 367.326 490.388 C 361.452 491.973, 360.613 493.356, 366 492.574 C 368.475 492.214, 378.375 491.636, 388 491.289 C 398.438 490.913, 404.289 490.371, 402.500 489.947 C 397.750 488.822, 371.930 489.145, 367.326 490.388 M 436 490.480 C 436 490.783, 437.322 493.386, 438.937 496.265 C 440.552 499.144, 442.392 503.750, 443.026 506.500 C 444.875 514.527, 444.952 514.691, 446.038 512.972 C 447.224 511.098, 447.273 502.847, 446.118 499.815 C 444.793 496.341, 436 488.227, 436 490.480 M 308 497.369 C 305.525 497.991, 303.047 498.797, 302.492 499.159 C 301.938 499.522, 299.796 500.135, 297.731 500.523 C 295.667 500.910, 293.731 501.626, 293.430 502.113 C 293.129 502.601, 292.121 503.015, 291.191 503.034 C 290.261 503.053, 287.700 503.937, 285.500 505 C 283.300 506.063, 281.101 506.947, 280.612 506.966 C 278.902 507.031, 256.418 518.305, 248 523.317 C 222.945 538.236, 190.315 567.955, 183.568 582 L 181.886 585.500 184.693 582.404 C 186.237 580.701, 190.287 575.976, 193.693 571.904 C 203.075 560.688, 211.270 552.691, 220.751 545.500 C 221.476 544.950, 222.616 544.026, 223.285 543.447 C 237.800 530.868, 260.773 517.699, 285.816 507.603 C 303.163 500.610, 304.464 500.371, 308.171 503.490 C 309.865 504.916, 311.525 505.808, 311.861 505.473 C 312.196 505.137, 311.352 503.986, 309.985 502.914 L 307.500 500.966 310.500 498.488 C 312.150 497.125, 313.275 496.061, 313 496.124 C 312.725 496.186, 310.475 496.747, 308 497.369 M 510.455 512.928 C 510.771 513.438, 514.412 515.550, 518.547 517.621 C 523.681 520.193, 525.896 521.828, 525.533 522.776 C 525.240 523.539, 525 524.298, 525 524.462 C 525 525.151, 514.212 532.635, 510.997 534.176 C 497.875 540.466, 483.538 544.944, 474.224 545.662 C 466.755 546.238, 462.888 547.254, 464.029 548.340 C 464.826 549.099, 481.619 547.257, 485.674 545.966 C 494.071 543.291, 498.703 541.644, 503 539.805 C 508.993 537.240, 514.384 534.622, 515 533.977 C 515.275 533.689, 516.850 532.618, 518.500 531.597 C 527.333 526.131, 528.820 522.469, 523.750 518.661 C 518.776 514.925, 509.115 510.759, 510.455 512.928 M 357.106 518.082 C 353.372 520.352, 351.639 524.250, 352.358 528.760 C 353.236 534.266, 355.354 535.500, 363.931 535.500 C 375.422 535.500, 379.543 531.942, 377.251 524 C 376.598 521.738, 376.481 521.871, 376.015 525.400 C 374.621 535.957, 355 537.555, 355 527.112 C 355 522.653, 357.936 518.295, 361.270 517.808 C 363.056 517.547, 363.178 517.351, 361.881 516.822 C 360.977 516.454, 358.866 517.011, 357.106 518.082 M 286.500 520.630 C 284.300 521.399, 281.600 522.447, 280.500 522.959 C 279.400 523.472, 276.250 524.831, 273.500 525.980 C 270.750 527.130, 267.719 528.504, 266.764 529.035 C 265.809 529.566, 264.459 530.015, 263.764 530.034 C 263.069 530.053, 260.700 530.937, 258.500 532 C 256.300 533.063, 254.178 533.947, 253.785 533.966 C 253.145 533.996, 235.102 544.661, 234.083 545.611 C 233.854 545.825, 233.914 546.248, 234.217 546.551 C 234.757 547.091, 246.018 541.410, 247 540.102 C 247.930 538.864, 260.720 533.006, 263.871 532.376 C 265.592 532.032, 267 531.356, 267 530.875 C 267 530.394, 267.704 530, 268.564 530 C 269.424 530, 272.677 528.834, 275.792 527.409 C 289.469 521.153, 298.101 519.405, 302.764 521.947 C 305.267 523.311, 316.742 527, 318.485 527 C 319.638 527, 319.847 527.933, 319.440 531.250 C 318.246 540.972, 326.593 546.385, 349.500 550.743 C 361.086 552.946, 405.876 553.597, 416.748 551.719 L 424.859 550.319 427.029 553.252 C 435.038 564.086, 463 561.076, 463 549.380 C 463 543.774, 451.897 536.999, 442.712 537.001 C 434.796 537.002, 425 542.255, 425 546.499 C 425 548.060, 422.230 548.560, 405.241 550.067 C 384.118 551.940, 358.610 550.421, 338.500 546.092 C 325.703 543.337, 317.740 536.098, 321.386 530.534 C 322.274 529.179, 323 527.657, 323 527.153 C 323 526.178, 307.667 520.988, 304.809 520.996 C 303.879 520.998, 302.840 520.550, 302.500 520 C 301.616 518.570, 291.225 518.980, 286.500 520.630 M 435.566 540.582 C 428.517 543.164, 425.993 547.787, 429.282 552.096 C 435.033 559.633, 457.469 559.235, 459.395 551.562 C 461.511 543.133, 446.937 536.417, 435.566 540.582 M 275.787 542.194 C 274.550 544.058, 272.997 544.506, 265.501 545.163 C 257.220 545.889, 248.012 548.566, 248.004 550.250 C 248.002 550.663, 247.395 551, 246.655 551 C 245.915 551, 244.453 551.951, 243.405 553.113 L 241.500 555.227 245.500 553.476 C 252.823 550.271, 259.441 548.288, 265.198 547.575 C 271.234 546.827, 277.801 544.150, 279.950 541.560 C 281.050 540.235, 280.943 540, 279.244 540 C 278.144 540, 276.588 540.988, 275.787 542.194 M 548.611 542.785 C 547.819 544.317, 546.120 546.093, 544.835 546.731 C 539.233 549.513, 532.994 552, 531.614 552 C 530.791 552, 529.861 552.415, 529.548 552.923 C 529.234 553.431, 527.534 554.163, 525.771 554.550 C 524.008 554.937, 521.876 555.615, 521.033 556.055 C 516.670 558.334, 507.750 560.148, 498.669 560.603 C 486.684 561.204, 478.667 563.107, 470.707 567.240 C 464.378 570.526, 463.621 572.297, 469.714 569.563 C 471.796 568.629, 474.400 567.461, 475.500 566.967 C 479.941 564.973, 490.154 562.999, 496.144 562.976 C 499.640 562.963, 504.300 562.483, 506.500 561.909 C 508.700 561.335, 512.750 560.406, 515.500 559.844 C 518.250 559.282, 520.950 558.465, 521.500 558.027 C 522.050 557.589, 524.060 556.897, 525.967 556.488 C 527.874 556.080, 530.124 555.369, 530.967 554.908 C 531.810 554.447, 534.525 553.218, 537 552.177 C 539.475 551.136, 542.919 549.679, 544.653 548.941 C 546.388 548.202, 548.551 546.338, 549.460 544.799 C 551.791 540.853, 554.463 541.276, 557.994 546.150 C 561.057 550.379, 561.901 550.619, 559.875 546.684 C 556.321 539.785, 551.098 537.976, 548.611 542.785 M 231 557.089 C 226.277 557.695, 213.509 562.918, 212 564.862 C 211.725 565.216, 209.644 566.764, 207.376 568.301 C 205.108 569.839, 199.933 574.616, 195.876 578.917 C 185.772 589.630, 185.544 589.944, 186.883 591.283 C 187.706 592.106, 188 592.081, 188 591.189 C 188 589.436, 202.628 574.358, 208.500 570.059 C 216.125 564.476, 223.326 560.307, 226.573 559.596 C 237.025 557.307, 238.105 558.289, 230.399 563.078 C 220.757 569.070, 209.743 577.559, 201.500 585.352 C 197.100 589.511, 192.938 592.934, 192.250 592.957 C 190.886 593.004, 190.476 595, 191.831 595 C 192.288 595, 194.906 592.988, 197.650 590.529 C 203.220 585.537, 219.564 572.317, 223.029 570 C 239.739 558.829, 241.657 555.723, 231 557.089 M 307.493 560.351 C 297.470 565.019, 292.996 573.905, 298.250 578.709 C 306.450 586.206, 321.615 585.906, 329.750 578.085 C 334.568 573.454, 330.045 563.663, 321.371 559.945 C 315.550 557.450, 313.601 557.507, 307.493 560.351 M 551.118 562.882 C 555.735 567.499, 556.531 573.469, 553 577 C 550.509 579.491, 541.708 579.729, 534.409 577.503 C 530.562 576.330, 528.418 576.230, 524.500 577.043 C 521.750 577.614, 515.450 578.478, 510.500 578.964 C 495.306 580.456, 485.877 583.272, 484.556 586.714 C 483.875 588.488, 484.962 588.321, 488.627 586.085 C 492.653 583.631, 502.937 581, 508.508 581 C 510.899 581, 516.298 580.521, 520.505 579.936 C 526.831 579.056, 529.278 579.154, 534.645 580.500 C 547.167 583.640, 555.300 582.194, 556.859 576.549 C 559.086 568.482, 554.012 559, 547.468 559 C 547.340 559, 548.982 560.747, 551.118 562.882 M 305.243 566.767 C 300.701 571.130, 299.911 572.803, 301.205 575.316 C 302.198 577.242, 309.957 581, 312.942 581 C 316.371 581, 327 574.780, 327 572.774 C 327 571.733, 326.564 571.152, 326.030 571.481 C 325.497 571.811, 324.410 570.524, 323.615 568.621 C 320.669 561.571, 311.603 560.656, 305.243 566.767 M 500 585.894 C 499.175 586.321, 496.250 587.851, 493.500 589.294 L 488.500 591.918 488.754 596.709 C 489.227 605.624, 488.197 609.469, 484.291 613.376 C 482.297 615.369, 480.247 617, 479.734 617 C 479.222 617, 477.384 617.633, 475.651 618.407 C 469.163 621.305, 452.251 625.527, 443.500 626.433 C 427.048 628.138, 419.142 629.421, 419.684 630.298 C 421.076 632.550, 458.503 627.519, 466.500 624.005 C 467.600 623.521, 469.625 622.845, 471 622.502 C 485.018 619.004, 492.779 609.303, 490.284 598.399 C 489.401 594.539, 489.528 593.853, 491.461 592.036 C 492.654 590.916, 493.934 590, 494.308 590 C 495.781 590, 503 586.482, 503 585.764 C 503 584.826, 501.978 584.870, 500 585.894 M 591.455 589.221 C 588.521 591.911, 587.699 593.492, 587.274 597.265 C 586.461 604.471, 588.463 606.821, 595.740 607.200 L 601.500 607.500 601.807 611.190 C 602.157 615.404, 599.914 620.441, 596.990 622.006 C 594.491 623.343, 594.411 625, 596.845 625 C 600.592 625, 605 617.297, 605 610.750 C 605 605.156, 603.731 604.003, 597.550 603.985 C 591.108 603.965, 589.600 602.962, 589.600 598.697 C 589.600 594.102, 592.391 590.072, 596.084 589.333 C 597.731 589.004, 598.911 588.232, 598.706 587.617 C 597.943 585.325, 594.996 585.977, 591.455 589.221 M 396.646 589.975 C 394.526 590.384, 392.501 591.130, 392.146 591.633 C 389.558 595.293, 374.913 598.053, 373.833 595.084 C 373.650 594.580, 371.700 593.881, 369.500 593.532 C 365.585 592.910, 365.553 592.929, 368 594.413 C 369.375 595.247, 371.288 595.945, 372.250 595.965 C 375.326 596.027, 374.127 598.641, 370.250 600.325 C 359.387 605.043, 358.025 605.257, 336 605.704 C 315.658 606.118, 307.817 605.602, 295 603.010 C 289.375 601.872, 286.417 600.747, 277.314 596.281 C 273.831 594.573, 271.531 594.002, 270.314 594.545 C 268.711 595.258, 268.781 595.400, 270.914 595.767 C 272.242 595.995, 274.942 597.179, 276.914 598.398 C 289.903 606.427, 318.553 610.439, 346.292 608.115 C 354.092 607.462, 360.906 606.494, 361.436 605.964 C 361.966 605.434, 363.329 605, 364.465 605 C 367.003 605, 374.208 601.262, 375.300 599.379 C 375.810 598.498, 377.900 598, 381.085 598 C 385.623 598, 390.348 596.158, 392.101 593.705 C 392.432 593.242, 395.770 592.557, 399.520 592.182 C 403.556 591.778, 406.507 590.990, 406.752 590.250 C 407.216 588.851, 403.052 588.737, 396.646 589.975 M 606 603.941 C 606 604.459, 606.457 605.164, 607.015 605.509 C 608.540 606.452, 611 612.879, 611 615.919 C 611 617.720, 609.699 619.864, 607.018 622.482 C 602.212 627.176, 602.495 627.974, 607.890 624.942 C 612.706 622.235, 613.436 622.647, 617.461 630.340 C 620.883 636.880, 620.440 639.906, 615.360 644.696 C 611.039 648.772, 608.384 648.857, 604.223 645.056 C 597.125 638.574, 602.230 631.755, 611 636.003 C 612.960 636.952, 614.798 636.245, 615.946 634.100 C 616.785 632.533, 616.394 632.439, 611.685 633.068 C 607.894 633.574, 606.075 633.389, 604.921 632.380 C 601.186 629.115, 599 631.220, 599 638.082 C 599 641.346, 598.663 642, 596.980 642 C 594.130 642, 587.379 646.477, 585.298 649.747 C 584.335 651.261, 583.099 652.813, 582.552 653.196 C 581.371 654.022, 581.434 654.075, 586.284 656.280 C 592.709 659.201, 600.227 658.046, 603.945 653.566 C 604.660 652.705, 606.027 652, 606.983 652 C 607.939 652, 610.411 650.853, 612.478 649.451 C 614.544 648.048, 616.479 647.146, 616.778 647.445 C 617.565 648.232, 613.884 654.749, 611.250 657.229 C 608.658 659.671, 608.375 661, 610.449 661 C 614.355 661, 621.954 644.986, 621.985 636.688 C 622.006 631.197, 617.506 622.165, 614.355 621.374 C 612.573 620.927, 612.162 620.438, 612.927 619.673 C 615.057 617.543, 614.119 611.464, 610.994 607.150 C 608.155 603.231, 606 601.846, 606 603.941 M 241 604.826 C 241 607.034, 251.657 614, 255.035 614 C 255.896 614, 257.028 614.416, 257.550 614.925 C 258.072 615.433, 261.875 616.354, 266 616.969 C 270.125 617.585, 277.325 618.744, 282 619.545 C 286.675 620.345, 294.550 621.674, 299.500 622.498 C 315.853 625.221, 329.298 628.184, 349.500 633.520 C 360.636 636.461, 366.569 637.418, 378.500 638.197 C 402.273 639.751, 449.340 640.255, 453.980 639.005 C 459.056 637.639, 459.270 635.893, 454.250 636.813 C 448.211 637.919, 392.640 637.459, 379 636.189 C 367.664 635.134, 359.876 633.738, 350 630.990 C 337.362 627.475, 308.876 621.273, 299.500 619.997 C 295.650 619.473, 288.675 618.374, 284 617.555 C 279.325 616.736, 272.125 615.577, 268 614.980 C 257.396 613.446, 245.812 608.742, 243.525 605.041 C 242.759 603.802, 241 603.652, 241 604.826 M 180.520 608.163 C 170.463 617.379, 182.844 632.650, 195.300 626.392 C 203.020 622.513, 204.076 616.596, 198.225 610.003 C 192.763 603.849, 185.995 603.145, 180.520 608.163 M 182.521 610.279 C 175.761 617.039, 180.303 624.942, 190.500 624.164 C 199.157 623.505, 201.370 616.365, 194.808 610.265 C 190.468 606.231, 186.564 606.236, 182.521 610.279 M 400.500 607.684 C 391.753 609.969, 393.826 622, 402.966 622 C 406.327 622, 410.558 619.972, 412.235 617.558 C 415.717 612.544, 407.704 605.802, 400.500 607.684 M 493.073 616.635 C 490.158 620.340, 490.437 623.463, 493.904 625.932 C 498.107 628.924, 504.370 628.721, 507.604 625.487 L 510.117 622.974 508.003 620.005 C 503.307 613.409, 496.771 611.934, 493.073 616.635 M 129.453 630.556 C 106.751 645.431, 103.261 661.072, 120.161 672.204 C 125.292 675.584, 132.677 678.657, 133.556 677.778 C 133.788 677.546, 131.157 675.895, 127.710 674.109 C 106.175 662.952, 106.587 650.070, 129.011 633.438 C 133.955 629.770, 138 626.597, 138 626.385 C 138 625.325, 135.791 626.403, 129.453 630.556 M 111.435 635.285 C 93.401 645.892, 83.690 668.263, 91.405 681.428 C 96.516 690.149, 108.918 699.976, 121 704.876 C 124.025 706.103, 127.400 707.525, 128.500 708.035 C 140.596 713.648, 184.726 723.679, 183.693 720.580 C 183.355 719.565, 180.804 718.779, 172 716.978 C 169.525 716.472, 165.925 715.614, 164 715.071 C 162.075 714.528, 157.125 713.136, 153 711.977 C 141.958 708.874, 134.359 705.822, 121.168 699.191 C 89.850 683.448, 85.875 662.160, 109.975 639.250 C 115.271 634.216, 115.828 632.702, 111.435 635.285 M 223 646.874 C 223 650.444, 235.406 655.086, 244.138 654.784 C 248.964 654.617, 251.633 655.099, 255.195 656.782 C 257.777 658.002, 260.500 659, 261.245 659 C 261.990 659, 263.028 659.388, 263.550 659.862 C 264.073 660.336, 266.300 661.203, 268.500 661.789 C 270.700 662.375, 274.975 663.590, 278 664.490 C 292.411 668.775, 304.830 671.461, 317.500 673.034 C 321.900 673.581, 328.875 674.474, 333 675.020 C 341.762 676.180, 364.718 676.232, 370.500 675.105 C 373.250 674.569, 368.250 674.143, 354.500 673.743 C 318.643 672.699, 275.104 663.725, 250.192 652.242 C 247.712 651.099, 246.597 651.003, 245.742 651.858 C 244.411 653.189, 237.760 653.380, 235.236 652.161 C 234.281 651.700, 231.137 650.099, 228.250 648.603 C 225.363 647.108, 223 646.330, 223 646.874 M 594 646.706 C 591.838 647.496, 588 651.161, 588 652.434 C 588 655.521, 592.106 656.162, 596.838 653.814 C 604.793 649.866, 602.317 643.666, 594 646.706 M 456.500 655.195 C 450.483 658.607, 452.503 664.896, 459.639 664.968 C 467.193 665.045, 469.516 657.673, 462.714 655.213 C 458.725 653.771, 459.009 653.772, 456.500 655.195 M 572 656.505 C 561.661 658.948, 537.121 665.538, 533 666.978 C 531.625 667.458, 527.125 668.816, 523 669.996 C 518.875 671.176, 514.600 672.520, 513.500 672.982 C 512.400 673.445, 508.800 674.363, 505.500 675.022 C 502.200 675.681, 496.575 676.870, 493 677.663 C 481.737 680.162, 466.357 682.856, 446 685.897 C 442.975 686.348, 439.375 687.212, 438 687.815 C 435.084 689.095, 443.739 688.615, 452.500 687.012 C 455.250 686.508, 461.100 685.616, 465.500 685.029 C 475.390 683.709, 487.431 681.536, 496 679.524 C 499.575 678.685, 504.525 677.581, 507 677.072 C 512.880 675.862, 539.304 668.307, 545 666.207 C 546.525 665.645, 552.482 664.118, 561.500 661.976 C 564.250 661.324, 566.928 660.387, 567.450 659.895 C 567.972 659.403, 569.254 659, 570.299 659 C 571.343 659, 573.616 658.365, 575.349 657.590 C 577.082 656.814, 579.175 655.949, 580 655.669 C 583.045 654.632, 577.451 655.217, 572 656.505 M 664.550 656.922 C 665.072 657.429, 668.860 659.011, 672.967 660.437 C 682.798 663.851, 692.976 669.986, 697.419 675.177 C 705.834 685.008, 699.634 695.682, 680 705.165 C 665.963 711.945, 642.778 719.494, 629.241 721.692 C 624.120 722.523, 624.015 724.309, 629.122 723.699 C 642.509 722.100, 665.128 716.047, 676.865 710.921 C 711.926 695.610, 716.535 677.331, 688.888 663.245 C 678.613 658.010, 660.939 653.418, 664.550 656.922 M 111.246 730.979 C 110.173 732.901, 108.440 734.327, 106.750 734.678 C 102.865 735.486, 103.297 736.329, 108.954 738.979 C 112.577 740.675, 114.193 742.115, 114.967 744.336 C 116.194 747.854, 117.682 747.002, 118.173 742.500 C 118.475 739.729, 118.914 739.421, 123.930 738.459 C 131.303 737.046, 131.832 735.007, 124.833 734.978 C 119.808 734.958, 119.413 734.770, 118 731.728 C 115.966 727.350, 113.429 727.069, 111.246 730.979" stroke="none" fill="#1b1f3a" fill-rule="evenodd"/>
</svg>