<svg xmlns="http://www.w3.org/2000/svg" viewBox="0 0 768 768" version="1.1" preserveAspectRatio="xMidYMid meet"><path d="M 109.6 32.4 C 108.9 36.3, 106.5 38.7, 103 39.2 C 99.5 39.6, 100.1 41.2, 104.4 43.3 C 107.5 44.8, 108 45.5, 108 48.5 C 108 52.9, 109.7 53, 111.5 48.7 C 113.1 44.7, 114.5 43.5, 118.3 42.6 C 121.8 41.8, 121.4 39.9, 117.4 38.8 C 114 37.9, 112 35.5, 112 32.4 C 112 28.7, 110.3 28.7, 109.6 32.4 M 289.2 59 C 286.5 61.5, 286.4 64.1, 288.8 66.3 C 291.2 68.5, 294.3 68.4, 296.3 66.2 C 301.2 60.9, 294.4 54.1, 289.2 59 M 233.4 77 C 217.6 84, 213.1 105.7, 224.9 118.3 C 231.5 125.5, 244 128.7, 253.1 125.5 C 280.9 115.7, 273.7 74.8, 244.2 75.1 C 240 75.1, 236 75.8, 233.4 77 M 238.2 79.9 C 233.7 81.1, 228.8 84.6, 225.9 88.9 C 222.1 94.5, 222.3 107.1, 226.4 112.4 C 237.7 127.3, 259.3 123.4, 264.5 105.5 C 268.9 90.5, 253.9 76, 238.2 79.9 M 252 83.5 C 252 83.8, 253.3 85.8, 254.9 88 C 262.8 98.9, 258 114.5, 246.3 116.5 C 239.6 117.6, 238.8 119.2, 245.2 118.7 C 261.3 117.6, 268 98.6, 256.6 86.3 C 253.9 83.3, 252 82.2, 252 83.5 M 149 91.3 C 149 93.7, 145.3 98, 143.2 98 C 141.3 98, 141.8 98.9, 145.5 102.1 C 147.4 103.8, 149 105.8, 149 106.6 C 149 108.9, 151 108.2, 152 105.6 C 152.5 104.2, 154.3 102.1, 155.9 100.9 L 159 98.7 156 96.9 C 154.4 95.9, 152.4 93.7, 151.5 92 C 149.6 88.4, 149 88.2, 149 91.3 M 347 103.5 C 323.6 106.3, 308.2 110.9, 290 120.3 C 251.7 140.1, 231.5 160.9, 217 195.5 C 212.7 205.9, 209.9 220.1, 209.3 235.3 C 208.7 249.5, 208.4 250.3, 204.5 247.6 C 180 230.7, 160.3 234, 160.6 255.1 C 160.7 267.4, 168.1 280.1, 185.4 297.8 C 190.5 303, 193.7 307.2, 194.1 309.1 C 194.8 312.1, 195.4 313, 202 320.3 C 203.9 322.4, 205.9 324.9, 206.4 325.8 C 208.1 328.7, 199.1 321, 193.9 314.9 C 184.9 304.6, 174 304.7, 174 315.2 C 174 319.4, 178.9 325.1, 192 336.1 C 196.4 339.8, 197.8 341.7, 198.9 345.6 C 202.8 359.2, 213.8 369.5, 226.6 371.6 C 230.1 372.1, 230.8 372.7, 232.4 376.3 C 237 387, 252.3 404, 267.3 415.3 C 281.3 425.9, 285.2 426.7, 309.7 424.1 C 325.6 422.5, 326 422.6, 326 428.2 C 326 434.9, 329.6 450.1, 333.9 461.8 C 339.8 478.3, 339.8 477.5, 334.2 479.4 C 331.6 480.4, 327 481.7, 324 482.4 C 296.6 488.8, 275 497.2, 247 512.3 C 217 528.4, 165.1 578.4, 152.9 603 C 141.9 625.1, 146.1 647.6, 164.9 668.5 C 166.9 670.7, 171.1 675.9, 174.2 680 C 187.7 698, 202.1 709.4, 224.5 720 C 243.1 728.8, 250.6 731.6, 268.5 736.5 C 290.1 742.4, 295.2 743.6, 314 746.9 C 320.3 748.1, 328 749.4, 331 750 C 346.1 752.7, 371.5 754.1, 395.7 753.7 C 425.5 753.2, 431.4 752.6, 468.2 746 C 472.6 745.2, 494.2 740.1, 502 738 C 571.9 719.3, 617.8 692.3, 634.6 660 C 642.1 645.7, 635.8 617.2, 621.3 599 C 619.2 596.5, 611.7 588.4, 604.5 581 C 597.3 573.6, 588.7 564.1, 585.5 560 C 567.7 537.1, 534.4 509.7, 512.6 499.9 C 505.1 496.6, 505 496.4, 505.7 493.5 C 507.7 484.6, 505.1 476, 497.7 466.9 C 495.3 463.9, 492.5 459.9, 491.5 458 C 487.8 450.6, 480.4 440.2, 474.3 434 C 470.9 430.4, 467 425.4, 465.6 422.8 C 460.9 413.9, 451.2 405.8, 435 397.3 C 422 390.4, 422.1 389.5, 437.5 384 C 452.6 378.7, 468.7 368.2, 479.7 356.6 C 488.3 347.6, 488.7 347.3, 494 346.6 C 500.1 345.8, 502.7 345.1, 515 340.7 C 543.6 330.5, 570 307.4, 582.2 281.9 C 599.7 245.5, 593.5 222, 568.5 229.5 C 557.9 232.7, 549.9 236, 528.9 245.6 C 523.6 248, 518.9 250, 518.4 250 C 517.9 250, 517.6 245.8, 517.8 240.6 C 518.1 231.8, 517.6 226, 515.1 211.4 C 514.1 205.8, 509.1 189, 507.1 184.5 C 506.6 183.4, 504.6 179, 502.6 174.7 C 493.5 154.8, 475.9 136.7, 452.5 123.3 C 424.1 106.9, 382.9 99.2, 347 103.5 M 341.5 112 C 318.9 115.6, 305.7 119.7, 290.2 127.7 C 260.4 143.1, 241.1 162.1, 228.2 188.8 C 218.6 208.4, 215.5 223.5, 214.6 253.3 C 214 275.7, 212.8 278.2, 210.6 261.7 C 210.1 258.3, 209.3 257.7, 197 250.8 C 179.9 241.2, 175.1 240.2, 169.8 244.9 C 165 249.2, 165.1 258.4, 169.9 268.2 C 177.9 284.3, 198 303.6, 202.3 299.4 C 202.6 299, 201.2 297.5, 199.1 296 C 190.9 290, 181.2 277.3, 173.9 262.8 C 168.4 252, 172 249.2, 183.9 255.1 C 201.5 263.8, 212.8 273.2, 227.2 291.3 C 231.9 297.3, 232 296.6, 227.5 288.6 C 221.9 278.5, 223.2 276.3, 229.2 285.8 C 234.9 294.7, 242.3 305, 242.8 304.5 C 243 304.3, 242.5 301.8, 241.7 298.8 C 240.9 295.9, 239.9 291.5, 239.5 289 C 239.2 286.5, 238.4 283.1, 237.9 281.4 C 234.9 271.8, 235.3 240.8, 238.4 228.5 C 243.9 207.3, 256.1 188.4, 275.7 170.8 C 278.3 168.5, 280.7 166.2, 281 165.9 C 282.8 163.6, 299 153, 306.4 149.3 C 332.5 136.2, 357.3 131.4, 386.3 133.8 C 394.1 134.5, 402.3 135.5, 404.5 136.1 C 406.7 136.7, 411.7 138.1, 415.5 139.2 C 428.8 142.9, 447.7 152.2, 452 157 C 452.3 157.3, 454.9 159.5, 457.7 161.8 C 460.6 164.2, 466 169.8, 469.7 174.3 C 473.4 178.8, 476.7 182.7, 477.1 183 C 478.6 184.2, 483.9 194.7, 483.4 195.3 C 483 195.7, 480.5 192.5, 477.7 188.4 C 471.2 178.5, 455.8 162.5, 447.3 156.8 C 426.9 143.1, 403.3 136.6, 374 136.6 C 341.3 136.6, 313.2 145.7, 288.4 164.3 C 249.3 193.6, 233.1 232.9, 241 279 C 243.8 295.4, 245.4 301.9, 247.7 306.5 C 257.8 326.4, 260.6 331.4, 264.8 337.5 C 270.4 345.6, 283.2 357.3, 285.5 356.4 C 286.6 355.9, 286.9 356.2, 286.4 357.6 C 286 358.7, 286 359.2, 286.4 358.9 C 286.8 358.5, 290.8 360.5, 295.3 363.4 C 299.8 366.2, 306.4 369.7, 310 371.1 C 346.4 385.7, 350.1 386.5, 378.5 386.4 C 402 386.4, 407.1 385.6, 428.5 378.8 C 437.6 375.9, 457.6 365.9, 456.5 364.8 C 456.2 364.5, 459.4 361, 463.6 356.9 C 471.6 349.2, 475.5 343.9, 476.6 339.6 C 477.3 336.8, 479 336, 479 338.5 C 479 342, 474 349.1, 466.1 356.9 C 460.1 362.8, 458.5 364.8, 460.9 363.4 C 465.5 360.9, 479.9 346.6, 483.7 341 C 488.8 333.4, 493.6 323.8, 496 316.5 C 497.2 312.6, 500 304.3, 502.1 298 C 508.7 278.5, 509.4 275, 511 253.4 C 513.5 220.5, 503.8 182.8, 487.1 160.8 C 475.3 145.1, 448 126.5, 426.5 119.4 C 399.5 110.4, 368 107.7, 341.5 112 M 545.6 118.5 C 542.3 121.5, 542.3 122, 545.9 125.4 L 548.9 128.3 552.5 124.4 L 556.2 120.5 553.5 118.3 C 550.2 115.4, 548.9 115.4, 545.6 118.5 M 286.1 131.8 C 277.8 136, 263 148.9, 266.5 149 C 267.5 149, 270.5 147, 273 144.6 C 277.5 140.3, 290.2 131, 291.7 131 C 292.1 131, 290.2 133.3, 287.5 136.1 C 284.7 138.9, 283 141.1, 283.7 140.9 C 285.3 140.4, 297.9 129.7, 297.9 128.8 C 298.1 127, 293 128.3, 286.1 131.8 M 442.4 131.8 C 442.7 132.4, 446.3 135, 450.3 137.6 C 454.2 140.2, 457.8 142.8, 458.2 143.4 C 458.6 144, 459 144.1, 459 143.7 C 459 142.2, 468.2 149.4, 473.2 154.9 C 475.9 157.8, 478.3 160, 478.6 159.7 C 479.9 158.4, 477.5 154.7, 472 149.8 C 463.5 142.1, 439.9 127.8, 442.4 131.8 M 615 150.4 C 614.5 151.9, 614 153.5, 614 154 C 614 155.2, 608.1 160, 605.3 161.1 C 602.1 162.3, 602.5 163.2, 607.3 165.5 C 610.3 167, 612 168.6, 613.5 171.8 C 615.9 176.9, 616.9 176.7, 618.9 170.7 C 620.8 165.3, 622 163.9, 626.2 162.4 C 630 161.2, 631.1 159, 628 159 C 624.9 159, 620.1 156, 619.4 153.5 C 619 152.4, 618.1 150.6, 617.4 149.6 C 616.1 147.8, 616 147.8, 615 150.4 M 616.1 154.2 C 616 155.8, 611.3 160.4, 608.9 161.2 C 608.2 161.4, 609.6 163.6, 612.3 166.3 L 616.8 171 617.5 168.1 C 617.8 166.5, 619.2 164.1, 620.5 162.7 L 623 160.3 620.5 159 C 619.2 158.3, 617.6 156.5, 617.1 155.1 C 616.5 153.5, 616.1 153.2, 616.1 154.2 M 127.4 163.4 C 111 171, 107.8 192.3, 121.3 204.7 C 138 220.1, 163.9 208.8, 164 186.1 C 164 167.5, 144.6 155.4, 127.4 163.4 M 131.2 166.1 C 121.9 168.9, 115.1 181.8, 117.9 191.2 C 123.2 208.7, 145.8 212.4, 154.7 197.3 C 158.6 190.6, 159.1 179.9, 155.8 175 C 150.5 167.3, 139.9 163.4, 131.2 166.1 M 437 185.6 C 428.4 188.9, 423.6 193.1, 421.9 199.1 C 421.2 201.2, 420.9 203.3, 421.2 203.6 C 421.5 203.9, 425.7 202.9, 430.5 201.4 C 442.5 197.7, 452.3 198.2, 463.2 203.3 C 471.5 207.1, 472.5 206.1, 465.6 201.2 C 454.6 193.3, 439.1 191.6, 428.8 197.3 C 423.3 200.2, 422.6 199.1, 427.1 194.9 C 433.8 188.7, 447.1 187.4, 458.1 192.1 C 465.2 195.1, 469.3 198.1, 476.3 205.3 C 480.6 209.8, 482.3 211.1, 483.2 210.2 C 486.2 207.2, 470.4 192.6, 458.4 187.5 C 454.5 185.8, 439.8 184.5, 437 185.6 M 492.5 192.3 C 492.8 193.5, 493.8 197, 494.5 200 C 499.7 220.8, 501 227.5, 501 234.5 C 501 237.3, 501.5 240.2, 502.1 241 C 503.5 243, 502.5 218.9, 500.9 213.5 C 500.3 211.3, 498.9 206.4, 497.8 202.5 C 496.7 198.7, 495.4 195.1, 494.9 194.6 C 494.4 194, 494 192.8, 494 191.8 C 494 190.8, 493.5 190, 492.9 190 C 492.2 190, 492 190.8, 492.5 192.3 M 283 196.9 C 270.3 200.2, 257.5 209.5, 253 218.7 C 251.7 221.3, 250.3 224.3, 249.8 225.2 C 248.7 227.5, 248.8 230, 249.9 230 C 250.4 230, 251.6 227.9, 252.6 225.3 C 257.4 212.2, 272.2 201.2, 288 199 C 294.5 198.1, 296.8 198.2, 302.3 199.7 C 305.7 200.6, 303.9 198.2, 300 196.6 C 295 194.6, 291.4 194.7, 283 196.9 M 288.7 201 C 280.9 202, 269.9 207.6, 262.5 214.3 C 254.9 221.2, 255.9 222.6, 264.2 216.8 C 278.9 206.3, 281.1 205.5, 294.5 205.5 C 303.9 205.6, 307.2 206, 309.5 207.3 C 315.8 210.9, 316.7 208.5, 310.9 203.8 C 306.9 200.6, 299.6 199.7, 288.7 201 M 283.2 217.6 C 271.8 220.1, 264.4 225.4, 252.7 239.3 C 245.6 247.8, 249.4 246.5, 259.6 237 C 273.5 224.1, 285.1 220.1, 299.5 223 C 306.3 224.3, 316.5 229.6, 322 234.6 C 326.5 238.7, 327.5 238.9, 325.6 235.3 C 319.2 223, 298.1 214.2, 283.2 217.6 M 440.5 218.1 C 427.7 221, 411.3 234.5, 405.2 247.3 C 400.6 256.8, 402.2 257.6, 408.1 248.6 C 423.4 225.3, 448.7 216.1, 468.3 226.8 C 483.2 234.8, 491 252.4, 491 278 C 491 283.4, 491.3 285.1, 492.1 284.3 C 493.7 282.7, 493.2 259.1, 491.4 252 C 484.9 226.7, 464.1 212.8, 440.5 218.1 M 571 235.2 C 568.5 235.7, 566.1 236.6, 565.6 237.1 C 565 237.6, 563.9 238, 563.1 238 C 562.2 238.1, 559.7 238.9, 557.5 240 C 555.3 241.1, 553.2 241.9, 552.8 242 C 552.1 242, 544 245.6, 524.3 254.6 C 521.5 255.9, 518.7 257, 518.1 257 C 517.6 257, 516.7 259.4, 516.1 262.3 C 515.5 265.1, 514.5 269.8, 513.9 272.5 C 511.4 284.3, 511.3 284, 515.7 278.5 C 525.9 265.6, 549.6 250.3, 569.4 243.9 C 576.6 241.6, 576.6 241.6, 579 244 C 581.8 246.8, 581.5 250.3, 577.6 262.2 C 572 279.2, 566.4 289.4, 559.1 296.4 C 554.3 301, 554.5 298.9, 559.4 291.3 C 566.4 280.4, 572.6 265, 575.5 251.3 C 576.3 247.3, 576.1 247.3, 571 250.5 C 568.8 251.9, 566.8 253, 566.5 253 C 566.1 253, 564 254.3, 561.7 255.9 C 559.4 257.4, 555.5 259.8, 553 261 C 543 266.1, 519.6 285.9, 521.5 287.8 C 521.7 288.1, 525.7 286, 530.3 283.2 C 542.7 275.5, 549 273.5, 549 277.1 C 549 283.1, 543.6 296.8, 538.6 303.3 C 535.2 307.8, 535.3 308, 540.5 306.2 C 550 303.1, 546 307.6, 531.5 316.3 C 520.6 322.8, 510.1 327.2, 504.1 327.5 C 499.8 327.8, 499.5 328.1, 496.3 333.5 C 494.4 336.7, 493 339.4, 493.2 339.5 C 493.4 339.7, 496.2 339.2, 499.5 338.5 C 518 334.4, 538.6 323.7, 552.7 311 C 573.7 292, 591.4 253.5, 585.6 239.5 C 583.3 234.1, 580.3 233.2, 571 235.2 M 283.2 242 C 277.4 243.2, 269.5 247.7, 264.5 252.4 C 259.9 256.8, 261.1 258.5, 266.2 254.7 C 286.9 239.2, 317.3 245.7, 334.7 269.4 C 337.1 272.6, 339 275.7, 339 276.2 C 339 276.7, 337.4 275, 335.4 272.3 C 323.3 256.3, 308.7 249, 288.4 248.8 C 280.8 248.7, 279.7 249, 273.9 252.3 C 261 259.5, 256.5 267.7, 257.2 282.8 C 257.8 294.6, 261 301.7, 270.5 311.7 C 277.1 318.6, 276.7 318.9, 268.4 313.4 C 256.3 305.3, 251.1 294.2, 250.2 274.5 C 249.7 262.3, 248.6 259.1, 247.5 266.8 C 246.1 276.9, 249 291.5, 254.5 302.6 C 264.1 321.8, 294.4 333.5, 323 329.1 C 332.4 327.6, 343.5 323.5, 345.6 320.7 L 347.1 318.5 348.7 320.8 C 349.5 322, 350.9 323, 351.8 323 C 353.8 323, 352.8 302.5, 350.4 292.9 C 341.9 259, 311.5 236, 283.2 242 M 440.5 244.8 C 434 247, 430.1 249.2, 427.1 252.4 C 423.4 256.3, 424.8 256.2, 433 252.2 C 442.4 247.5, 453.4 246.6, 461.5 250 C 466.4 252, 466.5 252, 462.5 251.3 C 454.8 249.8, 440.9 250.6, 436.1 252.8 L 431.8 254.8 438.6 258.1 C 444.4 261, 445.7 262.1, 446.9 265.2 C 451.4 277.4, 439.5 290.5, 425.6 288.7 C 419.1 287.8, 418 285.9, 417.7 274.7 C 417.6 269.4, 417.3 265, 417 265 C 416 265, 410 274.6, 407.3 280.5 C 404.7 286.2, 404.5 287.3, 404.5 300.7 L 404.5 314.9 402.8 308.7 C 400.6 301.1, 400.6 297.5, 402.6 284.6 C 404.4 272.6, 406.1 266.7, 410.3 256.9 C 413.2 250.1, 409.5 252.1, 406.3 259 C 400.9 270.4, 398.7 280.7, 398.6 295 C 398.5 306.1, 398.6 306.7, 401.9 313.2 C 406 321.5, 408.4 323.9, 410.9 322.3 C 412.4 321.4, 414 321.5, 418.1 322.6 C 429 325.7, 430.7 326, 439.5 326 C 449 326, 459.7 323.7, 466 320.5 C 472 317.4, 482.7 305.9, 486 298.9 C 490.6 289.2, 489 273.8, 482.3 262.2 C 473.8 247.5, 455.5 239.9, 440.5 244.8 M 282.8 253.1 C 265.5 257.1, 257.6 278.6, 266.4 297.3 C 271.6 308.5, 280.9 317.5, 290.8 320.8 C 294.8 322.2, 294.8 322.3, 290.1 315 C 285.7 308.3, 282.4 299.2, 281.4 291.4 C 280.7 285.4, 281.6 284.4, 285.6 286.5 C 295.6 291.7, 309 283.7, 309 272.5 C 309 265.7, 304.6 260.7, 297.4 259.5 C 291.4 258.3, 289.8 257.3, 291 255 C 291.5 254, 292 252.9, 292 252.6 C 292 251.8, 287.2 252, 282.8 253.1 M 684 258.3 C 684 261, 677.5 265.9, 672.5 267 C 664.5 268.9, 664.3 269, 666 270 C 666.8 270.6, 669.9 271, 672.9 271 C 682.4 271, 689 277.6, 689 287.2 C 689 289.7, 689.4 291, 689.9 290.5 C 691 289.3, 692 277.9, 690.9 278.5 C 690.5 278.8, 689.1 277.5, 687.7 275.6 C 686.3 273.8, 683.5 271.5, 681.5 270.6 L 677.8 268.8 681.9 265.1 C 685.7 261.6, 687.4 257, 685 257 C 684.5 257, 684 257.6, 684 258.3 M 181 261.5 C 181 263.1, 185.8 271.2, 190 276.7 C 195.8 284.3, 207.6 297.1, 206.7 294.9 C 206.2 293.4, 206.6 293.3, 209.6 294.2 C 219 296.7, 218.6 295.2, 206.8 283.1 C 194.9 271, 181 259.3, 181 261.5 M 109.5 272.8 C 108.9 273.2, 107.2 275.4, 105.7 277.8 C 104.2 280.1, 102.3 282, 101.5 282 C 99.6 282, 98.6 283.8, 99.7 285.3 C 100.2 286, 101.2 288.4, 101.8 290.6 C 102.9 294.5, 103.2 294.8, 107.6 295.3 C 110.3 295.6, 113 296.6, 114.4 297.9 C 117.5 300.8, 118.3 300.5, 117.6 296.8 C 117 293.2, 120.8 287.8, 124.9 286.5 C 127.5 285.7, 127.6 284.3, 125.1 283.5 C 124 283.2, 120.9 280.4, 118.1 277.5 C 113.3 272.2, 111.6 271.2, 109.5 272.8 M 110.2 276 C 109.6 277.4, 107.8 279.9, 106 281.7 L 102.9 284.9 105 288.9 C 107.9 294.6, 112.9 294.8, 118.3 289.3 L 122 285.7 118 281.6 C 115.8 279.3, 113.4 276.6, 112.6 275.5 C 111.2 273.5, 111.1 273.5, 110.2 276 M 537.3 283.6 C 534.7 285.6, 528.9 290.7, 524.5 294.9 C 520.1 299.1, 514.3 304.4, 511.6 306.5 C 507.3 310, 503 316.8, 503 320.1 C 503 321.5, 509.8 320.1, 514.5 317.7 C 529.5 310.2, 540.7 297, 542.5 284.5 C 543.4 279.1, 543.4 279.1, 537.3 283.6 M 496.1 294.3 C 492.2 303.6, 489.9 307.1, 484 313.1 C 480.4 316.7, 476 320.5, 474.2 321.5 C 472.4 322.6, 470.7 324.2, 470.4 325.2 C 470.1 326.2, 468.7 327.7, 467.2 328.5 C 463.7 330.4, 465.1 330.4, 469.6 328.5 C 471.6 327.7, 472.9 326.6, 472.5 326 C 472.2 325.4, 472.5 325.3, 473.4 325.6 C 474.4 326, 475 325.7, 475 324.9 C 475 324.1, 476.7 322.4, 478.7 321 C 488.4 314.4, 494.7 306.1, 497.1 296.6 C 498.5 291, 498 289.8, 496.1 294.3 M 222 299.2 C 222 301.2, 227.7 316.1, 229.5 319.1 C 232 322.9, 236 326, 238.5 326 C 239.3 326, 240 326.5, 240 327 C 240 327.6, 238.9 328, 237.6 328 C 230.6 328, 226.5 340.3, 231.1 347.7 C 233.6 351.7, 232.9 353.2, 229.9 350.4 C 223.7 344.8, 223.4 334, 229.4 329.1 C 231.6 327.2, 231.4 326.7, 227.7 324.7 C 225 323.2, 223.4 320.8, 219.3 312 C 214.7 302.1, 212 298.6, 210.4 300.3 C 209.3 301.3, 212.2 308.3, 216.6 315.6 C 221.3 323.3, 221.8 325, 219.5 325 C 218.7 325, 217.7 325.1, 217.3 325.1 C 216.8 325.2, 216 324.4, 215.5 323.4 C 211.5 315.9, 203.3 305, 201.8 305 C 197.9 305, 199.6 310.9, 206 319.2 C 211.9 326.7, 213 329, 211 329 C 210.5 329, 210 329.6, 210 330.4 C 210 335.3, 203.2 331.2, 193.1 320.4 C 186 312.7, 183.4 311.2, 180.6 313.3 C 178.2 315.1, 180.4 319.7, 185.6 323.7 C 199 334, 202.5 337.7, 204.3 343.6 C 208.5 357.3, 218.8 365.4, 231.6 365.2 C 250.7 365, 259.2 349, 252.5 325.8 C 250.3 318.4, 249 317.4, 247.3 322 C 246.7 323.6, 245.4 325.3, 244.4 325.7 C 242.3 326.5, 242 326.2, 232.1 311 C 227.8 304.4, 222 297.6, 222 299.2 M 626.4 324 C 623 325.3, 618.2 332, 617.5 336.2 C 616.6 341, 619.3 346.6, 624 349.8 C 634.3 356.8, 648.3 346.9, 646.3 334.2 C 645 326.3, 634.3 320.8, 626.4 324 M 269 326.9 C 269 327.7, 271 328.5, 283.5 332.8 C 295.7 337.1, 318.2 337.5, 325.7 333.6 C 327.4 332.7, 324 332.5, 310.2 332.5 C 292.1 332.5, 291.4 332.4, 276.2 327.4 C 271.3 325.8, 269 325.6, 269 326.9 M 625.4 328.4 C 616.7 335.3, 620.5 348, 631.3 348 C 636.2 348, 638.6 346.7, 640.5 343 C 646 332.3, 634.6 321.2, 625.4 328.4 M 413.2 342.2 C 413.8 346.9, 396.2 353.9, 381.2 354.7 C 372.2 355.3, 355.3 353.6, 352.1 352 C 351.2 351.5, 349.7 350.9, 348.6 350.6 C 347.4 350.2, 346.9 349.3, 347.3 348 C 347.6 346.9, 347.5 345.8, 347 345.5 C 345.7 344.7, 340.1 348, 338 351 C 335.6 354.3, 336.9 355.9, 339.5 353 C 341.9 350.3, 342.6 350.5, 347 354.4 C 349.1 356.2, 352.8 358.9, 355.2 360.4 C 357.7 361.8, 361.6 364.8, 363.9 366.9 C 369.5 372.1, 373.7 374, 379.7 374 C 385.2 374, 389.6 371, 400 360.2 C 408.7 351.2, 415.2 346.5, 417.6 347.4 C 420.5 348.5, 420.4 344.8, 417.6 342.3 C 414.2 339.4, 412.8 339.4, 413.2 342.2 M 259.5 349.6 L 258.8 355.1 266.7 364.7 C 271.6 370.8, 277.3 376.4, 282 379.9 C 295.4 389.7, 299.4 392.9, 302.4 395.7 L 305.3 398.4 306.9 395.9 C 309.6 391.8, 313.6 388.1, 316.1 387.6 C 325.2 385.8, 325.1 386, 317.5 383.4 C 298.1 376.6, 280.3 365.4, 267.7 352 L 260.2 344.1 259.5 349.6 M 255 361.9 C 255 362.4, 255.7 363, 256.5 363.4 C 258.3 364, 264 372.8, 264 374.8 C 264 376, 263.7 376, 262.5 375 C 261.7 374.4, 260.7 374.1, 260.1 374.4 C 259.6 374.8, 258.9 373.6, 258.5 371.9 C 257.6 368.1, 255.2 367, 253.3 369.6 C 252.5 370.6, 251.1 372.6, 250.1 373.9 C 249 375.4, 247.8 376, 247 375.5 C 246.4 375.1, 246.2 374.5, 246.7 374.1 C 247.7 373.4, 251 368.3, 251 367.5 C 251 366.8, 245.8 368, 244.5 369 C 244 369.5, 241.8 370.1, 239.8 370.5 C 237.7 370.9, 236 371.8, 236 372.5 C 236 375.8, 255.5 397.3, 266.4 405.9 C 278 415, 289.6 419.5, 292.4 415.9 C 293 415.1, 294.8 413.7, 296.3 412.7 C 303.6 408, 302.4 405.3, 288.5 394.7 C 275.1 384.6, 268.2 378, 265 372.6 C 260.8 365.5, 255 359.2, 255 361.9 M 95.2 375.7 C 83.9 381.2, 88 398.5, 100.6 398.5 C 113.4 398.5, 116.4 380.4, 104.4 375.4 C 100.2 373.6, 99.3 373.7, 95.2 375.7 M 97 378.7 C 91.5 380.7, 90.4 388.5, 95.1 392.4 C 99.2 395.9, 104 395.2, 107.2 390.6 C 111.2 384.9, 103.8 376.3, 97 378.7 M 329 390.5 C 333.7 395.7, 341.6 399.4, 355.5 403.2 C 363.6 405.3, 393 405, 400.5 402.6 C 412.1 399, 419 394.3, 419 390.3 C 419 388.4, 417.7 388.7, 413.9 391.5 C 402.8 399.5, 391.9 403, 378 403 C 370.7 403, 355.4 400.5, 350.4 398.4 C 341.1 394.6, 339 393.5, 339 392.5 C 339 391.4, 336.3 390.3, 329 388.4 L 326.5 387.8 329 390.5 M 344.5 393.3 C 357.8 399.9, 387.5 401.9, 398.8 397 C 404.9 394.3, 404.1 393.2, 396.8 394.2 C 388.1 395.5, 361.7 395.5, 354.5 394.2 C 351.2 393.6, 346.9 392.8, 345 392.5 L 341.5 391.9 344.5 393.3 M 317.4 395 C 314.3 396.2, 308 406, 308 409.6 C 308 410.3, 306.8 412.3, 305.3 414.1 L 302.5 417.3 309.5 416.7 C 313.4 416.3, 319.8 416, 323.7 416 C 330.7 416, 331.2 415.8, 335 412.4 C 340.1 407.8, 340.8 408.4, 337.6 414.5 C 332.6 423.9, 331.5 429.2, 333 436.8 C 334.2 443.2, 337.4 454.1, 339.9 460.4 L 341.1 463.3 343.3 461.1 C 349.8 455.1, 364.1 462.6, 365.6 472.7 C 366.5 478.5, 366.7 478.6, 384.2 477.2 L 399.1 476.1 405.1 472.1 C 409.2 469.3, 411 468.6, 410.5 469.8 C 409.2 473, 408.2 476.8, 408.6 477.2 C 408.9 477.6, 426.2 475.2, 428.7 474.4 C 429.6 474.2, 429.8 471.4, 429.3 463.8 C 428.6 450.5, 428 449.4, 424.5 455.1 C 420.1 462.1, 416 466, 416 463.1 C 416 462.6, 418.7 458.6, 422 454.2 C 429.1 444.8, 429.5 443.7, 423.6 448.4 C 417.8 453.2, 415.9 453, 420.3 448 C 428.4 439.1, 429.1 434.6, 424.3 424.7 C 421.1 418.2, 424 419.1, 432.2 427.3 C 436.8 431.8, 445.5 440, 451.5 445.5 C 457.6 451, 464.9 458.1, 467.8 461.3 L 473.1 467 472.4 473.4 C 471.8 479.4, 471.9 480, 474.6 483.5 L 477.4 487.2 479.2 485 C 481.3 482.5, 483 483.1, 483 486.5 C 483 487.8, 484.1 490.2, 485.5 491.7 L 487.9 494.5 488 489.3 C 488 482.7, 489 482.6, 491.8 489 C 493 491.8, 494.6 494, 495.5 494 C 497.4 494, 497.4 492.7, 495.4 486.1 C 493.1 478.4, 494 476.6, 497.3 482.2 C 498.8 484.8, 500 487.7, 500 488.7 C 500 491.8, 501.8 493.8, 502.6 491.7 C 504.3 487.2, 500.1 476.2, 494 469.5 C 492 467.3, 487.2 460.8, 483.4 455.1 C 476.9 445.3, 463.8 430, 462 430 C 461.5 430, 460.9 430.9, 460.5 431.9 C 459.6 434.8, 453.7 435.5, 449.2 433.3 C 444.3 430.9, 443.9 429, 448.3 429 C 451 429, 451.7 429.4, 451.6 430.8 C 451.5 431.9, 452.3 432.6, 453.8 432.8 C 455.8 433.1, 456.1 432.8, 455.5 431 C 455 429.4, 455.3 428.7, 456.9 428.3 C 459.4 427.7, 459.5 425.9, 457.6 422.2 C 455.3 418, 442.7 408.5, 440.8 409.6 C 440.2 410, 440 409.8, 440.4 409.2 C 441.9 406.7, 423.6 397.1, 420.7 398.9 C 402.6 410.3, 370.3 412.8, 347.5 404.7 C 344.8 403.8, 338.5 401.2, 333.5 399 C 321.4 393.7, 320.9 393.6, 317.4 395 M 569.8 401.1 C 565.7 403.2, 563.9 405.5, 562 411 C 559.5 418.1, 566.8 427, 575 427 C 590.1 427, 594.6 407.9, 581.1 401 C 576.2 398.5, 574.5 398.5, 569.8 401.1 M 573.5 403.8 C 563.1 406, 564.4 422, 575 422 C 585.1 422, 588.3 409.5, 579.3 405 C 575.8 403.2, 575.9 403.3, 573.5 403.8 M 395.5 414.9 C 392.7 419.5, 370.2 421.4, 363.5 417.7 C 361.9 416.8, 359.9 416, 359.3 416 C 356.7 416, 358.2 417.7, 362.8 420 C 370.2 423.8, 384.5 423.5, 392.5 419.4 C 398 416.7, 399.5 415, 397.2 414.2 C 396.6 414, 395.9 414.4, 395.5 414.9 M 391.5 434.9 C 386 438.5, 372.8 438.7, 366.3 435.2 C 362.8 433.4, 362 433.2, 362 434.5 C 362 436.6, 369 439.9, 375.3 440.6 C 381.8 441.4, 390.6 439.1, 394.6 435.6 C 398.5 432.3, 396.2 431.8, 391.5 434.9 M 435.8 444.8 C 435.5 447.9, 435.8 455.7, 436.4 462 L 437.5 473.5 442 474.1 C 444.5 474.4, 450.7 475.5, 455.9 476.4 C 466.3 478.3, 466.4 478.3, 467.5 472.2 C 468.1 468.9, 467.8 468.3, 459.8 460.3 C 455.2 455.6, 448.1 449, 443.9 445.5 L 436.3 439.2 435.8 444.8 M 345.9 465 C 342.5 468, 342.4 476.9, 345.8 478.6 C 349.6 480.5, 350.7 482, 348.4 482 C 340.2 482, 331.3 487.9, 326.3 496.6 C 322.6 502.9, 319 505.2, 319 501.2 C 319 499.5, 323.4 492.2, 325.4 490.7 C 326.6 489.8, 320.8 490.7, 317 492 C 315.6 492.5, 311.1 493.8, 307 495 C 294.9 498.6, 289.7 500.3, 287 501.7 C 285.6 502.4, 283.7 503, 282.8 503 C 281.9 503, 280.9 503.4, 280.6 503.9 C 280.3 504.4, 278.8 505.1, 277.4 505.4 C 268.2 507.7, 234.3 527.2, 220.7 537.9 C 203.3 551.7, 172.4 584.9, 164.4 598.5 C 152.8 618.2, 152 634.2, 161.9 651.3 C 169.9 665, 172.7 664.6, 165.6 650.7 C 160.9 641.6, 159.2 633, 160.8 626 L 161.6 622.6 164.4 627.4 C 167.7 633.1, 168.2 633, 166.8 626.6 C 165.2 619.1, 169.1 599, 172.2 599 C 173.4 599, 173.2 600.5, 171.3 605.2 C 168.3 612.5, 168.8 628.4, 172.1 633.5 C 179.8 645.2, 199.5 656.6, 225 664 C 238.8 668, 242.5 669.2, 244.5 670 C 246.3 670.7, 256.8 673.9, 264.5 676.1 C 272.8 678.4, 279.1 680.1, 285 681.4 C 288.6 682.2, 294.7 683.5, 298.5 684.4 C 306.9 686.2, 315.2 687.7, 327.7 689.4 C 332.8 690.1, 337.3 690.9, 337.7 691.3 C 338.6 692.3, 328.5 692.1, 321.5 691 C 293.9 686.7, 271.1 681.9, 253 676.5 C 247.4 674.9, 241.3 673.1, 231.8 670.6 C 196.5 661.2, 182 653.9, 169 639.2 C 164.3 633.8, 164 633.7, 164 636.2 C 164 637.7, 164.4 639.1, 164.9 639.5 C 165.4 639.8, 166.2 641.4, 166.5 643.1 C 167.3 646.9, 179.9 659.6, 187.8 664.7 C 190.8 666.6, 199.3 671.3, 206.8 675.1 C 221.3 682.5, 222.7 683.4, 221.3 684.3 C 220.2 685, 201.6 676.1, 190.5 669.7 C 186.7 667.5, 180.4 662.7, 176.6 659.1 C 172.8 655.5, 169.9 653, 170.2 653.5 C 175.7 666, 178.9 670, 190.5 678.8 C 196.6 683.4, 227.8 699, 230.9 699 C 231.5 699, 232.8 699.4, 233.8 699.9 C 236.7 701.5, 244.1 703.8, 254.5 706.5 C 269.4 710.5, 286.8 715, 293 716.5 C 296 717.3, 301.1 718.6, 304.2 719.5 C 341 729.5, 362.7 732.2, 406.5 732.2 C 434.6 732.2, 447.4 731.4, 465 728.6 C 486.5 725.1, 494.4 723.1, 526.5 712.4 C 554.3 703.3, 562.5 700.1, 581.7 691.4 C 592.4 686.5, 589 690.3, 577.7 695.8 C 564.9 702.1, 561.4 703.5, 546.5 708.5 C 538.8 711, 531.6 713.5, 530.5 714 C 529.4 714.5, 525.4 715.8, 521.5 717 C 517.7 718.2, 513.6 719.5, 512.5 720 C 511.4 720.5, 508.5 721.4, 506 722 C 503.5 722.6, 499 723.8, 496 724.7 C 465.2 733.1, 414.5 737.8, 382.2 735 C 375.7 734.5, 365.1 733.6, 358.5 733 C 340 731.5, 323.1 728.8, 304.5 724.4 C 300.7 723.5, 294.8 722.2, 291.5 721.4 C 288.2 720.6, 279.4 718.7, 272 717.1 C 235.1 709.1, 209.4 699.5, 190.7 686.8 C 185.5 683.2, 184.9 683.1, 186.6 685.3 C 191.8 692.5, 220.5 710.7, 237.5 717.7 C 252.1 723.7, 268.9 729, 284 732.4 C 290.2 733.8, 296.4 735, 317 738.5 C 322.2 739.4, 330.1 740.8, 334.5 741.5 C 350.5 744.4, 367.5 746, 385.8 746.5 L 404.5 746.9 387.5 745.5 C 364 743.6, 343.9 740.3, 341.7 738.1 C 340.4 736.8, 346 737.2, 356.5 739 C 380.3 743.3, 426.3 742.6, 460 737.6 C 490.2 733.1, 529.2 723.4, 539.2 717.9 C 540.2 717.4, 541.5 717, 542.1 717 C 542.7 717, 544.6 716.4, 546.3 715.6 C 548.1 714.8, 553.5 712.5, 558.4 710.4 C 580.3 701.2, 611.6 680.8, 618.4 671.2 C 621.8 666.3, 621 666.1, 615.4 670.4 C 611.1 673.7, 602.1 678.4, 590 683.7 C 585.6 685.7, 575.9 688.8, 561 693 C 548.9 696.4, 546.9 696.9, 537.5 699 C 532.6 700.1, 526.9 701.4, 525 701.9 C 520.4 703.1, 506 705.7, 499 706.5 C 493.2 707.2, 479.8 709.9, 469 712.5 C 438.8 719.9, 406.1 722.6, 377.1 720 C 347 717.2, 330 714.9, 308.5 710.5 C 306.9 710.1, 301 709, 295.5 707.8 C 290 706.7, 284.2 705.4, 282.5 704.9 C 280.9 704.5, 276.1 703.1, 272 701.9 C 257.7 697.9, 242.5 691.5, 240.1 688.6 C 237.9 686, 239.1 686, 245 688.9 C 254.9 693.7, 268.8 698.6, 281.5 701.6 C 342.4 716.4, 396.8 720.6, 443 714.1 C 450.6 713, 455.3 712, 473.4 707.4 C 483.2 705, 489.3 703.9, 504.5 702 C 513.1 700.9, 519.1 699.6, 539.5 694.4 C 581.7 683.9, 618.3 667.1, 627.3 654.4 C 634.6 644, 631.8 629.1, 618.4 606.3 C 612.4 596, 596.6 579, 593.2 579 C 592.2 579, 589 580.5, 585.9 582.4 C 580.2 585.8, 577.5 587.2, 568.5 591 C 565.8 592.2, 562.6 593.5, 561.5 594 C 553.1 597.8, 550 599, 549 599 C 548.5 599, 547.2 599.4, 546.2 599.9 C 545.3 600.4, 541.6 601.8, 538 603 C 534.4 604.2, 530.6 605.6, 529.5 606.1 C 525.1 608, 511.1 610.9, 506 610.9 C 500.9 610.9, 505 609.4, 512.6 608.5 C 515.8 608.1, 519 607.4, 519.5 607 C 520.1 606.6, 522.2 605.9, 524.4 605.6 C 526.5 605.2, 529 604.5, 529.9 604 C 530.8 603.5, 534.4 602.1, 538 600.9 C 541.6 599.6, 545.6 598, 547 597.3 C 548.4 596.6, 550.2 596, 551.1 596 C 551.9 596, 553 595.6, 553.6 595.2 C 554.1 594.8, 557.2 593.4, 560.5 592.1 C 573.8 587, 590 578.3, 590 576.3 C 590 575.8, 589 574.4, 587.8 573 C 586.5 571.6, 581.1 565.3, 575.8 558.9 C 558.9 538.8, 544.4 526.6, 520.1 512.2 C 505.2 503.3, 502 501.9, 502 504 C 502 504.6, 500.2 504.1, 497.9 503 C 495.7 501.8, 493.1 501.1, 492.3 501.5 C 491.4 501.8, 489.9 501.3, 488.9 500.4 C 487.1 498.8, 487 498.8, 487 500.3 C 487 502.8, 486.2 502.4, 482.1 498.2 C 478.2 494.2, 468.9 491, 461.3 491 C 459.5 491, 458 490.6, 458 490 C 458 489.4, 460.9 489, 464.8 489 L 471.5 488.9 468.5 487.3 C 465.7 485.7, 459.9 484.3, 447 482 C 434.9 479.8, 432.6 481.6, 440.8 486.9 C 445.9 490.1, 449.6 493.8, 452.3 498.3 C 453.9 500.7, 453.8 501.4, 451.9 501.2 C 451.6 501.2, 451.4 503.3, 451.4 505.9 C 451.4 511, 449.3 514.8, 445 517.4 C 441.3 519.5, 440.5 518.4, 440.5 511 C 440.5 505.3, 440.1 504, 437.3 500 C 435.5 497.5, 433.3 494.1, 432.4 492.3 C 431.1 489.9, 429.3 488.7, 425 487.1 C 417.6 484.4, 415.6 484.3, 417 486.9 C 418.4 489.7, 418.2 493.6, 416.6 494.9 C 415.8 495.6, 414.2 498.1, 413.1 500.6 C 410.6 505.9, 409.5 506.3, 410.3 501.5 C 410.9 497.9, 410.2 497.2, 408.2 499.2 C 406.2 501.2, 406.8 503.7, 410.1 506.4 C 414.1 509.8, 418 509.7, 421.8 506.3 C 428.3 500.3, 431 498.7, 431 500.7 C 431 501.7, 432.4 505.2, 434 508.4 C 437.5 515.3, 437.7 517.6, 435 518.3 C 432.3 519, 426.2 517.5, 424.1 515.6 C 423.1 514.7, 421.2 514, 419.8 514 C 406.1 514, 398.3 499.1, 409.6 494.4 C 413.9 492.6, 414.2 489.4, 410.3 487.8 C 407 486.5, 377.1 486.1, 368.7 487.3 C 363.8 488, 362.7 488.6, 361.7 490.8 C 361 492.2, 358.9 495.2, 357 497.4 C 344.1 512.2, 342.5 513.2, 335.3 510.6 C 333 509.8, 331 509.4, 330.7 509.7 C 329.8 510.5, 326.1 508.1, 325 505.9 C 323.8 503.8, 328.2 496, 333.9 490.4 C 337.3 487, 338.6 487.4, 336 491.3 C 332 497.2, 329.9 502.8, 330.6 505.5 C 331.4 508.6, 333 507.6, 336.2 501.9 C 338.3 498.2, 340.8 496.4, 339.7 499.4 C 338.3 503, 337.8 508, 338.9 508 C 339.5 508, 340 507.5, 340 506.9 C 340 506.4, 340.5 506.2, 341 506.5 C 341.6 506.9, 341.9 506.6, 341.8 506 C 341.6 505.3, 342.4 504.6, 343.5 504.5 C 347.7 503.8, 355.7 493.3, 358.9 484.4 C 362.9 473.3, 362.9 471.6, 358.1 466.9 C 353.6 462.4, 349.7 461.8, 345.9 465 M 636.7 476.3 C 629.2 478.7, 622 486.6, 620.6 494.3 C 620 497.7, 619.6 498, 616.5 498 C 614.6 498, 612.8 498.5, 612.5 499 C 612.1 499.6, 613.1 500, 614.8 500 C 618.1 500, 619.5 501.3, 620.5 505.2 C 621.5 509, 627.6 515.7, 632.4 518.2 C 643 523.7, 657.5 518.6, 663.4 507.2 C 672.1 490.3, 655.1 470.6, 636.7 476.3 M 634.8 481 C 629.1 484.1, 621.2 496.7, 623.9 498.5 C 624.4 498.7, 625 500.8, 625.3 503.1 C 626.2 509.9, 635.1 517, 642.7 517 C 650.8 517, 660.6 509.1, 659.7 503.4 C 659.3 500.9, 659.5 500, 660.6 500 C 662.7 500, 662.4 493.7, 660 489 C 655.5 480.3, 643.5 476.4, 634.8 481 M 124.7 485.4 C 106 492.3, 106.5 518.7, 125.5 524.3 C 136.7 527.5, 147.8 520.7, 151.1 508.7 C 154.9 494.6, 138.6 480.2, 124.7 485.4 M 123.5 489.9 C 116.9 494, 115.5 496.5, 115.5 504.5 C 115.5 512.5, 117.6 516.1, 124.2 519.6 C 136.9 526.2, 152.2 510, 145.5 497 C 143.3 492.7, 136.5 487.9, 137.3 491.1 C 137.4 491.7, 136.9 492.5, 136.1 492.8 C 135.1 493.1, 134.8 492.7, 135.2 491.2 C 136.2 487.5, 128.6 486.7, 123.5 489.9 M 367.3 490.4 C 361.5 492, 360.6 493.4, 366 492.6 C 368.5 492.2, 378.4 491.6, 388 491.3 C 398.4 490.9, 404.3 490.4, 402.5 489.9 C 397.8 488.8, 371.9 489.1, 367.3 490.4 M 436 490.5 C 436 490.8, 437.3 493.4, 438.9 496.3 C 440.6 499.1, 442.4 503.8, 443 506.5 C 444.9 514.5, 445 514.7, 446 513 C 447.2 511.1, 447.3 502.8, 446.1 499.8 C 444.8 496.3, 436 488.2, 436 490.5 M 308 497.4 C 305.5 498, 303 498.8, 302.5 499.2 C 301.9 499.5, 299.8 500.1, 297.7 500.5 C 295.7 500.9, 293.7 501.6, 293.4 502.1 C 293.1 502.6, 292.1 503, 291.2 503 C 290.3 503.1, 287.7 503.9, 285.5 505 C 283.3 506.1, 281.1 506.9, 280.6 507 C 278.9 507, 256.4 518.3, 248 523.3 C 222.9 538.2, 190.3 568, 183.6 582 L 181.9 585.5 184.7 582.4 C 186.2 580.7, 190.3 576, 193.7 571.9 C 203.1 560.7, 211.3 552.7, 220.8 545.5 C 221.5 545, 222.6 544, 223.3 543.4 C 237.8 530.9, 260.8 517.7, 285.8 507.6 C 303.2 500.6, 304.5 500.4, 308.2 503.5 C 309.9 504.9, 311.5 505.8, 311.9 505.5 C 312.2 505.1, 311.4 504, 310 502.9 L 307.5 501 310.5 498.5 C 312.2 497.1, 313.3 496.1, 313 496.1 C 312.7 496.2, 310.5 496.7, 308 497.4 M 510.5 512.9 C 510.8 513.4, 514.4 515.6, 518.5 517.6 C 523.7 520.2, 525.9 521.8, 525.5 522.8 C 525.2 523.5, 525 524.3, 525 524.5 C 525 525.2, 514.2 532.6, 511 534.2 C 497.9 540.5, 483.5 544.9, 474.2 545.7 C 466.8 546.2, 462.9 547.3, 464 548.3 C 464.8 549.1, 481.6 547.3, 485.7 546 C 494.1 543.3, 498.7 541.6, 503 539.8 C 509 537.2, 514.4 534.6, 515 534 C 515.3 533.7, 516.9 532.6, 518.5 531.6 C 527.3 526.1, 528.8 522.5, 523.8 518.7 C 518.8 514.9, 509.1 510.8, 510.5 512.9 M 357.1 518.1 C 353.4 520.4, 351.6 524.3, 352.4 528.8 C 353.2 534.3, 355.4 535.5, 363.9 535.5 C 375.4 535.5, 379.5 531.9, 377.3 524 C 376.6 521.7, 376.5 521.9, 376 525.4 C 374.6 536, 355 537.6, 355 527.1 C 355 522.7, 357.9 518.3, 361.3 517.8 C 363.1 517.5, 363.2 517.4, 361.9 516.8 C 361 516.5, 358.9 517, 357.1 518.1 M 286.5 520.6 C 284.3 521.4, 281.6 522.4, 280.5 523 C 279.4 523.5, 276.3 524.8, 273.5 526 C 270.8 527.1, 267.7 528.5, 266.8 529 C 265.8 529.6, 264.5 530, 263.8 530 C 263.1 530.1, 260.7 530.9, 258.5 532 C 256.3 533.1, 254.2 533.9, 253.8 534 C 253.1 534, 235.1 544.7, 234.1 545.6 C 233.9 545.8, 233.9 546.2, 234.2 546.6 C 234.8 547.1, 246 541.4, 247 540.1 C 247.9 538.9, 260.7 533, 263.9 532.4 C 265.6 532, 267 531.4, 267 530.9 C 267 530.4, 267.7 530, 268.6 530 C 269.4 530, 272.7 528.8, 275.8 527.4 C 289.5 521.2, 298.1 519.4, 302.8 521.9 C 305.3 523.3, 316.7 527, 318.5 527 C 319.6 527, 319.8 527.9, 319.4 531.3 C 318.2 541, 326.6 546.4, 349.5 550.7 C 361.1 552.9, 405.9 553.6, 416.7 551.7 L 424.9 550.3 427 553.3 C 435 564.1, 463 561.1, 463 549.4 C 463 543.8, 451.9 537, 442.7 537 C 434.8 537, 425 542.3, 425 546.5 C 425 548.1, 422.2 548.6, 405.2 550.1 C 384.1 551.9, 358.6 550.4, 338.5 546.1 C 325.7 543.3, 317.7 536.1, 321.4 530.5 C 322.3 529.2, 323 527.7, 323 527.2 C 323 526.2, 307.7 521, 304.8 521 C 303.9 521, 302.8 520.6, 302.5 520 C 301.6 518.6, 291.2 519, 286.5 520.6 M 435.6 540.6 C 428.5 543.2, 426 547.8, 429.3 552.1 C 435 559.6, 457.5 559.2, 459.4 551.6 C 461.5 543.1, 446.9 536.4, 435.6 540.6 M 275.8 542.2 C 274.6 544.1, 273 544.5, 265.5 545.2 C 257.2 545.9, 248 548.6, 248 550.3 C 248 550.7, 247.4 551, 246.7 551 C 245.9 551, 244.5 552, 243.4 553.1 L 241.5 555.2 245.5 553.5 C 252.8 550.3, 259.4 548.3, 265.2 547.6 C 271.2 546.8, 277.8 544.2, 280 541.6 C 281.1 540.2, 280.9 540, 279.2 540 C 278.1 540, 276.6 541, 275.8 542.2 M 548.6 542.8 C 547.8 544.3, 546.1 546.1, 544.8 546.7 C 539.2 549.5, 533 552, 531.6 552 C 530.8 552, 529.9 552.4, 529.5 552.9 C 529.2 553.4, 527.5 554.2, 525.8 554.6 C 524 554.9, 521.9 555.6, 521 556.1 C 516.7 558.3, 507.8 560.1, 498.7 560.6 C 486.7 561.2, 478.7 563.1, 470.7 567.2 C 464.4 570.5, 463.6 572.3, 469.7 569.6 C 471.8 568.6, 474.4 567.5, 475.5 567 C 479.9 565, 490.2 563, 496.1 563 C 499.6 563, 504.3 562.5, 506.5 561.9 C 508.7 561.3, 512.8 560.4, 515.5 559.8 C 518.3 559.3, 521 558.5, 521.5 558 C 522.1 557.6, 524.1 556.9, 526 556.5 C 527.9 556.1, 530.1 555.4, 531 554.9 C 531.8 554.4, 534.5 553.2, 537 552.2 C 539.5 551.1, 542.9 549.7, 544.7 548.9 C 546.4 548.2, 548.6 546.3, 549.5 544.8 C 551.8 540.9, 554.5 541.3, 558 546.2 C 561.1 550.4, 561.9 550.6, 559.9 546.7 C 556.3 539.8, 551.1 538, 548.6 542.8 M 231 557.1 C 226.3 557.7, 213.5 562.9, 212 564.9 C 211.7 565.2, 209.6 566.8, 207.4 568.3 C 205.1 569.8, 199.9 574.6, 195.9 578.9 C 185.8 589.6, 185.5 589.9, 186.9 591.3 C 187.7 592.1, 188 592.1, 188 591.2 C 188 589.4, 202.6 574.4, 208.5 570.1 C 216.1 564.5, 223.3 560.3, 226.6 559.6 C 237 557.3, 238.1 558.3, 230.4 563.1 C 220.8 569.1, 209.7 577.6, 201.5 585.4 C 197.1 589.5, 192.9 592.9, 192.3 593 C 190.9 593, 190.5 595, 191.8 595 C 192.3 595, 194.9 593, 197.7 590.5 C 203.2 585.5, 219.6 572.3, 223 570 C 239.7 558.8, 241.7 555.7, 231 557.1 M 307.5 560.4 C 297.5 565, 293 573.9, 298.3 578.7 C 306.5 586.2, 321.6 585.9, 329.8 578.1 C 334.6 573.5, 330 563.7, 321.4 559.9 C 315.6 557.5, 313.6 557.5, 307.5 560.4 M 551.1 562.9 C 555.7 567.5, 556.5 573.5, 553 577 C 550.5 579.5, 541.7 579.7, 534.4 577.5 C 530.6 576.3, 528.4 576.2, 524.5 577 C 521.8 577.6, 515.5 578.5, 510.5 579 C 495.3 580.5, 485.9 583.3, 484.6 586.7 C 483.9 588.5, 485 588.3, 488.6 586.1 C 492.7 583.6, 502.9 581, 508.5 581 C 510.9 581, 516.3 580.5, 520.5 579.9 C 526.8 579.1, 529.3 579.2, 534.6 580.5 C 547.2 583.6, 555.3 582.2, 556.9 576.5 C 559.1 568.5, 554 559, 547.5 559 C 547.3 559, 549 560.7, 551.1 562.9 M 305.2 566.8 C 300.7 571.1, 299.9 572.8, 301.2 575.3 C 302.2 577.2, 310 581, 312.9 581 C 316.4 581, 327 574.8, 327 572.8 C 327 571.7, 326.6 571.2, 326 571.5 C 325.5 571.8, 324.4 570.5, 323.6 568.6 C 320.7 561.6, 311.6 560.7, 305.2 566.8 M 500 585.9 C 499.2 586.3, 496.3 587.9, 493.5 589.3 L 488.5 591.9 488.8 596.7 C 489.2 605.6, 488.2 609.5, 484.3 613.4 C 482.3 615.4, 480.2 617, 479.7 617 C 479.2 617, 477.4 617.6, 475.7 618.4 C 469.2 621.3, 452.3 625.5, 443.5 626.4 C 427 628.1, 419.1 629.4, 419.7 630.3 C 421.1 632.6, 458.5 627.5, 466.5 624 C 467.6 623.5, 469.6 622.8, 471 622.5 C 485 619, 492.8 609.3, 490.3 598.4 C 489.4 594.5, 489.5 593.9, 491.5 592 C 492.7 590.9, 493.9 590, 494.3 590 C 495.8 590, 503 586.5, 503 585.8 C 503 584.8, 502 584.9, 500 585.9 M 591.5 589.2 C 588.5 591.9, 587.7 593.5, 587.3 597.3 C 586.5 604.5, 588.5 606.8, 595.7 607.2 L 601.5 607.5 601.8 611.2 C 602.2 615.4, 599.9 620.4, 597 622 C 594.5 623.3, 594.4 625, 596.8 625 C 600.6 625, 605 617.3, 605 610.8 C 605 605.2, 603.7 604, 597.6 604 C 591.1 604, 589.6 603, 589.6 598.7 C 589.6 594.1, 592.4 590.1, 596.1 589.3 C 597.7 589, 598.9 588.2, 598.7 587.6 C 597.9 585.3, 595 586, 591.5 589.2 M 396.6 590 C 394.5 590.4, 392.5 591.1, 392.1 591.6 C 389.6 595.3, 374.9 598.1, 373.8 595.1 C 373.7 594.6, 371.7 593.9, 369.5 593.5 C 365.6 592.9, 365.6 592.9, 368 594.4 C 369.4 595.2, 371.3 595.9, 372.3 596 C 375.3 596, 374.1 598.6, 370.3 600.3 C 359.4 605, 358 605.3, 336 605.7 C 315.7 606.1, 307.8 605.6, 295 603 C 289.4 601.9, 286.4 600.7, 277.3 596.3 C 273.8 594.6, 271.5 594, 270.3 594.5 C 268.7 595.3, 268.8 595.4, 270.9 595.8 C 272.2 596, 274.9 597.2, 276.9 598.4 C 289.9 606.4, 318.6 610.4, 346.3 608.1 C 354.1 607.5, 360.9 606.5, 361.4 606 C 362 605.4, 363.3 605, 364.5 605 C 367 605, 374.2 601.3, 375.3 599.4 C 375.8 598.5, 377.9 598, 381.1 598 C 385.6 598, 390.3 596.2, 392.1 593.7 C 392.4 593.2, 395.8 592.6, 399.5 592.2 C 403.6 591.8, 406.5 591, 406.8 590.3 C 407.2 588.9, 403.1 588.7, 396.6 590 M 606 603.9 C 606 604.5, 606.5 605.2, 607 605.5 C 608.5 606.5, 611 612.9, 611 615.9 C 611 617.7, 609.7 619.9, 607 622.5 C 602.2 627.2, 602.5 628, 607.9 624.9 C 612.7 622.2, 613.4 622.6, 617.5 630.3 C 620.9 636.9, 620.4 639.9, 615.4 644.7 C 611 648.8, 608.4 648.9, 604.2 645.1 C 597.1 638.6, 602.2 631.8, 611 636 C 613 637, 614.8 636.2, 615.9 634.1 C 616.8 632.5, 616.4 632.4, 611.7 633.1 C 607.9 633.6, 606.1 633.4, 604.9 632.4 C 601.2 629.1, 599 631.2, 599 638.1 C 599 641.3, 598.7 642, 597 642 C 594.1 642, 587.4 646.5, 585.3 649.7 C 584.3 651.3, 583.1 652.8, 582.6 653.2 C 581.4 654, 581.4 654.1, 586.3 656.3 C 592.7 659.2, 600.2 658, 603.9 653.6 C 604.7 652.7, 606 652, 607 652 C 607.9 652, 610.4 650.9, 612.5 649.5 C 614.5 648, 616.5 647.1, 616.8 647.4 C 617.6 648.2, 613.9 654.7, 611.3 657.2 C 608.7 659.7, 608.4 661, 610.4 661 C 614.4 661, 622 645, 622 636.7 C 622 631.2, 617.5 622.2, 614.4 621.4 C 612.6 620.9, 612.2 620.4, 612.9 619.7 C 615.1 617.5, 614.1 611.5, 611 607.2 C 608.2 603.2, 606 601.8, 606 603.9 M 241 604.8 C 241 607, 251.7 614, 255 614 C 255.9 614, 257 614.4, 257.6 614.9 C 258.1 615.4, 261.9 616.4, 266 617 C 270.1 617.6, 277.3 618.7, 282 619.5 C 286.7 620.3, 294.6 621.7, 299.5 622.5 C 315.9 625.2, 329.3 628.2, 349.5 633.5 C 360.6 636.5, 366.6 637.4, 378.5 638.2 C 402.3 639.8, 449.3 640.3, 454 639 C 459.1 637.6, 459.3 635.9, 454.3 636.8 C 448.2 637.9, 392.6 637.5, 379 636.2 C 367.7 635.1, 359.9 633.7, 350 631 C 337.4 627.5, 308.9 621.3, 299.5 620 C 295.7 619.5, 288.7 618.4, 284 617.6 C 279.3 616.7, 272.1 615.6, 268 615 C 257.4 613.4, 245.8 608.7, 243.5 605 C 242.8 603.8, 241 603.7, 241 604.8 M 180.5 608.2 C 170.5 617.4, 182.8 632.7, 195.3 626.4 C 203 622.5, 204.1 616.6, 198.2 610 C 192.8 603.8, 186 603.1, 180.5 608.2 M 182.5 610.3 C 175.8 617, 180.3 624.9, 190.5 624.2 C 199.2 623.5, 201.4 616.4, 194.8 610.3 C 190.5 606.2, 186.6 606.2, 182.5 610.3 M 400.5 607.7 C 391.8 610, 393.8 622, 403 622 C 406.3 622, 410.6 620, 412.2 617.6 C 415.7 612.5, 407.7 605.8, 400.5 607.7 M 493.1 616.6 C 490.2 620.3, 490.4 623.5, 493.9 625.9 C 498.1 628.9, 504.4 628.7, 507.6 625.5 L 510.1 623 508 620 C 503.3 613.4, 496.8 611.9, 493.1 616.6 M 129.5 630.6 C 106.8 645.4, 103.3 661.1, 120.2 672.2 C 125.3 675.6, 132.7 678.7, 133.6 677.8 C 133.8 677.5, 131.2 675.9, 127.7 674.1 C 106.2 663, 106.6 650.1, 129 633.4 C 134 629.8, 138 626.6, 138 626.4 C 138 625.3, 135.8 626.4, 129.5 630.6 M 111.4 635.3 C 93.4 645.9, 83.7 668.3, 91.4 681.4 C 96.5 690.1, 108.9 700, 121 704.9 C 124 706.1, 127.4 707.5, 128.5 708 C 140.6 713.6, 184.7 723.7, 183.7 720.6 C 183.4 719.6, 180.8 718.8, 172 717 C 169.5 716.5, 165.9 715.6, 164 715.1 C 162.1 714.5, 157.1 713.1, 153 712 C 142 708.9, 134.4 705.8, 121.2 699.2 C 89.9 683.4, 85.9 662.2, 110 639.3 C 115.3 634.2, 115.8 632.7, 111.4 635.3 M 223 646.9 C 223 650.4, 235.4 655.1, 244.1 654.8 C 249 654.6, 251.6 655.1, 255.2 656.8 C 257.8 658, 260.5 659, 261.2 659 C 262 659, 263 659.4, 263.6 659.9 C 264.1 660.3, 266.3 661.2, 268.5 661.8 C 270.7 662.4, 275 663.6, 278 664.5 C 292.4 668.8, 304.8 671.5, 317.5 673 C 321.9 673.6, 328.9 674.5, 333 675 C 341.8 676.2, 364.7 676.2, 370.5 675.1 C 373.3 674.6, 368.3 674.1, 354.5 673.7 C 318.6 672.7, 275.1 663.7, 250.2 652.2 C 247.7 651.1, 246.6 651, 245.7 651.9 C 244.4 653.2, 237.8 653.4, 235.2 652.2 C 234.3 651.7, 231.1 650.1, 228.3 648.6 C 225.4 647.1, 223 646.3, 223 646.9 M 594 646.7 C 591.8 647.5, 588 651.2, 588 652.4 C 588 655.5, 592.1 656.2, 596.8 653.8 C 604.8 649.9, 602.3 643.7, 594 646.7 M 456.5 655.2 C 450.5 658.6, 452.5 664.9, 459.6 665 C 467.2 665, 469.5 657.7, 462.7 655.2 C 458.7 653.8, 459 653.8, 456.5 655.2 M 572 656.5 C 561.7 658.9, 537.1 665.5, 533 667 C 531.6 667.5, 527.1 668.8, 523 670 C 518.9 671.2, 514.6 672.5, 513.5 673 C 512.4 673.4, 508.8 674.4, 505.5 675 C 502.2 675.7, 496.6 676.9, 493 677.7 C 481.7 680.2, 466.4 682.9, 446 685.9 C 443 686.3, 439.4 687.2, 438 687.8 C 435.1 689.1, 443.7 688.6, 452.5 687 C 455.3 686.5, 461.1 685.6, 465.5 685 C 475.4 683.7, 487.4 681.5, 496 679.5 C 499.6 678.7, 504.5 677.6, 507 677.1 C 512.9 675.9, 539.3 668.3, 545 666.2 C 546.5 665.6, 552.5 664.1, 561.5 662 C 564.3 661.3, 566.9 660.4, 567.5 659.9 C 568 659.4, 569.3 659, 570.3 659 C 571.3 659, 573.6 658.4, 575.3 657.6 C 577.1 656.8, 579.2 655.9, 580 655.7 C 583 654.6, 577.5 655.2, 572 656.5 M 664.6 656.9 C 665.1 657.4, 668.9 659, 673 660.4 C 682.8 663.9, 693 670, 697.4 675.2 C 705.8 685, 699.6 695.7, 680 705.2 C 666 711.9, 642.8 719.5, 629.2 721.7 C 624.1 722.5, 624 724.3, 629.1 723.7 C 642.5 722.1, 665.1 716, 676.9 710.9 C 711.9 695.6, 716.5 677.3, 688.9 663.2 C 678.6 658, 660.9 653.4, 664.6 656.9 M 111.2 731 C 110.2 732.9, 108.4 734.3, 106.8 734.7 C 102.9 735.5, 103.3 736.3, 109 739 C 112.6 740.7, 114.2 742.1, 115 744.3 C 116.2 747.9, 117.7 747, 118.2 742.5 C 118.5 739.7, 118.9 739.4, 123.9 738.5 C 131.3 737, 131.8 735, 124.8 735 C 119.8 735, 119.4 734.8, 118 731.7 C 116 727.4, 113.4 727.1, 111.2 731" stroke="none" fill="#1b1f3a" fill-rule="evenodd"/></svg>