<svg xmlns="http://www.w3.org/2000/svg" viewBox="0 0 768 768" version="1.1" preserveAspectRatio="xMidYMid meet"><path d="M 4.3 5.4 C 3.7 6.5, 3.5 38.8, 3.7 93.3 C 3.9 140.7, 4.3 310.7, 4.6 471 C 4.8 631.3, 5.2 762.6, 5.4 762.7 C 5.6 762.9, 21.3 762.6, 40.4 762 C 60.5 761.4, 184.4 761, 334.8 760.9 C 477.6 760.8, 632.3 760.7, 678.6 760.6 L 762.7 760.5 763.2 747 C 763.5 739.6, 763.5 714.6, 763.1 691.5 C 762.8 668.4, 762.7 585.6, 763 507.5 C 763.3 429.4, 763.5 365.3, 763.3 365.1 C 762.2 363.5, 761.9 372.3, 761.3 425.8 C 760.7 484.3, 760.6 485.8, 758.8 483.5 C 755.7 479.6, 748.6 476, 742.3 475.4 C 730.4 474.1, 715.5 480, 713.5 486.8 C 712.8 489.4, 712.1 490, 709.8 490 C 702 490, 696.7 492.2, 691.2 497.6 C 686.6 502.3, 685.6 502.9, 683.8 501.9 C 679.9 499.8, 669 506.8, 669 511.5 C 669 513.3, 668.5 513.5, 664.8 513.2 C 660.2 512.8, 652.9 517.7, 651.5 521.9 C 651 523.7, 650.7 523.7, 648.2 522.4 C 635.9 516, 621.8 529.9, 629.3 541.1 C 631.9 545, 638.3 549.6, 642.4 550.6 C 643.9 550.9, 648.1 552.6, 651.7 554.2 L 658.1 557.3 670.3 556.3 C 677 555.7, 683.5 554.9, 684.8 554.5 C 686.8 553.8, 687 554.1, 687 557.7 C 687 562.3, 690 566.3, 695.1 568.4 L 698.3 569.7 694.1 572 C 691.4 573.6, 689.6 575.5, 688.8 577.6 L 687.7 580.8 684.5 578.4 C 679.9 574.9, 674.7 575.6, 669.3 580.3 C 668.1 581.4, 665.2 582.4, 663 582.6 C 657 583.2, 653.1 585.6, 651.2 589.9 C 649.6 593.4, 649.4 593.5, 646.2 592.6 C 642.2 591.5, 634 593.1, 630.1 595.9 C 626.5 598.5, 623 605.9, 622.3 612.5 C 621.8 617.3, 621.4 618, 618.9 618.9 C 614.6 620.4, 612.4 616.7, 611.1 605.9 C 610.1 598, 608.7 595.9, 602.5 592.7 C 594.3 588.5, 585.3 590, 577.8 596.8 L 575 599.3 573 596.7 C 568.3 590.8, 558.7 591.2, 551.8 597.6 C 549.7 599.5, 548 601.3, 548 601.6 C 548 601.9, 546.9 603.1, 545.5 604.2 C 542 607, 540 611.2, 540 616 C 540 618.3, 539.6 619.9, 539.1 619.6 C 537.4 618.5, 531.2 622, 528.1 625.7 C 525.7 628.6, 525 630.4, 525 633.7 C 525 637.7, 524.8 638, 522.4 638 C 521 638, 518.4 637, 516.7 635.8 C 514.9 634.5, 511.6 633.5, 508.3 633.2 C 504.7 632.9, 503 632.3, 503 631.4 C 503 626.5, 490.2 621, 482.1 622.4 C 467.4 624.9, 465.7 625.7, 461.2 631.9 C 458.8 635.3, 458.1 635.6, 454 635.6 C 448.8 635.6, 444.6 638, 442.4 642.1 C 440.8 645.3, 440.5 650.6, 442 651.5 C 442.6 651.8, 443 651.4, 443 650.4 C 443 646.1, 445.5 640.8, 448.1 639.4 C 454.7 636, 459 639.2, 454.1 643.9 C 452.1 645.8, 451.9 646.4, 453 646.9 C 455.8 648, 460 651.2, 460 652.2 C 460 652.9, 458.2 653.1, 455.4 652.7 C 451.7 652.3, 450.7 652.6, 449.7 654.1 C 448.4 656.1, 445.5 656.6, 444.5 655 C 443.4 653.2, 439.4 653.9, 437.3 656.3 C 434 659.9, 432.6 663.2, 432.6 668 C 432.5 672.4, 432.5 672.4, 428 673.7 C 425.2 674.5, 422.5 676.2, 420.7 678.2 C 418.4 681, 417.7 681.3, 416.1 680.3 C 415 679.6, 412.7 679.3, 410.8 679.7 C 407.6 680.2, 407.2 679.9, 406 677.1 C 403.7 671.5, 407.6 667, 414.5 667 C 415.8 667, 417.2 666.6, 417.5 666 C 417.9 665.4, 416.1 665, 413 665 C 404.5 665, 400.3 670.8, 403.5 678.3 C 404.1 679.8, 403.4 680, 394.9 680 C 389.7 680.1, 382.4 680.5, 378.5 681.1 C 334.3 687.3, 316 688.6, 316 685.3 C 315.9 683, 314.3 681, 310.3 678.1 C 308.4 676.8, 307 675, 307 673.8 C 307 668.6, 301.8 664.1, 294 662.6 C 287.4 661.3, 281 658.6, 281 657.2 C 281 654.1, 277.7 649.1, 274.9 648 C 273.1 647.2, 269.2 646.9, 264.6 647.2 L 257.2 647.7 256.8 643.6 C 255.4 631.6, 243.8 624.1, 233.2 628.5 C 230.4 629.7, 229.4 629.8, 229.1 628.9 C 227.8 625, 223.9 622.8, 219 623.2 C 215.6 623.4, 214 623.1, 214 622.3 C 214 621.7, 213.1 620.5, 212.1 619.8 C 211.1 619.1, 209.7 616.6, 209.1 614.3 C 208.1 610.5, 201.4 603, 198.1 601.9 C 197.1 601.5, 197.3 600.7, 198.6 598.3 C 200.2 595.5, 200.3 595, 198.9 592.9 C 197.7 591.1, 197.6 589.5, 198.2 586.5 C 201.5 571.8, 187.5 560.5, 172.3 565.5 C 170.7 566, 170 565.7, 169.5 564.1 C 168.3 560.1, 162.5 557.7, 155.4 558.3 C 151.9 558.5, 148.7 558.4, 148.5 557.9 C 147.5 556.3, 139.5 555.9, 135.6 557.2 C 130.5 558.9, 126 564.5, 125.8 569.3 C 125.6 574.3, 122.3 577.4, 117.8 576.8 C 116 576.5, 112.5 576.9, 110 577.6 C 107.5 578.4, 105.4 579, 105.4 579 C 105.3 579, 104.9 577.5, 104.6 575.7 C 103.4 569.4, 93.8 562.5, 89.6 565 C 87.7 566.2, 86.1 565, 86 562.3 C 86 561.7, 84.6 559.8, 82.9 558.1 C 79.4 554.5, 72.2 553.8, 67 556.5 C 64.3 557.9, 64.1 557.9, 63.5 556 C 60.9 547.7, 47.5 546.9, 37.5 554.5 C 33 557.8, 28.4 558.2, 26.9 555.4 C 24.6 551, 12.3 548.8, 8.5 552 C 7.2 553.1, 7 541.6, 6.9 456.9 C 6.6 208.2, 6.1 35.2, 5.5 21.9 C 5 10.1, 5.1 7.2, 6.2 6.8 C 6.9 6.6, 177.2 6.6, 384.7 6.8 L 761.9 7.2 761.4 50.4 C 761.2 74.1, 760.5 113.3, 759.9 137.5 C 759.2 165.6, 759.1 194.8, 759.6 218.5 L 760.5 255.5 761.1 197 C 761.4 164.8, 762.2 109.5, 762.9 74.1 C 763.6 38.6, 763.9 8.6, 763.5 7.3 L 763 5 482.2 5 C 327.8 5, 157.4 4.7, 103.4 4.3 C 10.9 3.7, 5.2 3.8, 4.3 5.4 M 173.6 27.2 C 173.4 27.9, 172.7 31.1, 172 34.2 C 170.8 40.3, 170.7 40.4, 162.8 41.6 C 154.3 42.8, 154.4 45.1, 163.3 48.6 L 168.1 50.5 167.4 59.3 C 166.6 69.8, 167 70, 174.3 61.8 L 179.7 55.7 185.9 60.4 C 194.6 67.1, 195.7 65.7, 190.3 54.5 C 187.6 48.8, 187.2 49.5, 196.3 44 C 202.2 40.3, 202.3 39, 196.6 39 C 192.7 39, 192.2 38.8, 192.7 37 C 193.3 34.6, 192.1 34.5, 187.5 36.7 C 183.4 38.7, 182.8 38.3, 179 31.3 C 176.4 26.5, 174.3 24.9, 173.6 27.2 M 175 35.6 C 175 41.3, 173.2 43.3, 167.4 43.9 L 162.5 44.5 167 47 C 172 49.8, 173 52.6, 171.1 58.2 C 169.4 62.9, 170.5 62.7, 174.1 57.6 C 178 52.2, 179.2 52, 184.8 56.1 C 189.7 59.7, 189.8 59.5, 186.5 53 C 183.4 46.8, 183.2 47.5, 188.8 44 C 193.7 40.9, 193.5 40.6, 185.8 41 C 181.2 41.2, 181 41.1, 178 36.4 L 175 31.6 175 35.6 M 656 54.6 C 649.7 59.9, 641.9 66.5, 638.8 69.2 C 635.6 72, 632.2 74.9, 631.3 75.6 C 629.9 76.6, 629.7 77.1, 630.7 78.1 C 631.8 79.1, 632.7 78.7, 635.7 75.9 C 637.7 74.1, 640 71.8, 640.9 71 C 641.8 70.2, 646.6 66.2, 651.5 62.1 C 665.9 50.2, 671 44.9, 668.3 45 C 667.8 45, 662.3 49.4, 656 54.6 M 552.1 62.8 C 551.5 63.9, 551 65.8, 551 66.9 C 551 68.7, 550.4 69, 547 69 C 542.4 69, 541.8 70.2, 545.6 71.9 C 547.9 72.9, 548.1 73.5, 547.9 77.5 C 547.5 82.9, 548.1 83.6, 550.5 81 C 552.6 78.6, 554.8 78.5, 557.6 80.5 C 560.7 82.6, 561.2 81.3, 559 77.1 L 557.1 73.4 560.1 71.6 C 564.1 69.2, 563.8 67.8, 559.5 68.6 C 557.6 68.9, 556 69.1, 556 68.9 C 556 68.7, 555.4 66.7, 554.6 64.6 C 553.3 60.9, 553.2 60.8, 552.1 62.8 M 146 70.3 C 146 72.9, 139 94.9, 137.5 96.7 C 137.4 96.9, 132.9 95.5, 127.4 93.6 C 114.7 89.3, 107.4 87, 106.1 87 C 102.4 87, 109.3 98.7, 122.3 114.3 C 127.2 120.1, 127.2 120.2, 125.1 121.6 C 121.9 123.9, 122.3 126.4, 125.8 125.5 C 129.2 124.7, 135 121.1, 135 119.9 C 135 119.4, 133.6 117.8, 131.9 116.3 C 129.2 113.9, 118.5 101.5, 114 95.6 C 112.6 93.8, 112.7 93.7, 114.5 94.3 C 119.5 95.8, 133.9 101.3, 137.9 103.1 C 140.3 104.2, 142.3 105, 142.4 104.8 C 142.6 104.6, 143.2 101.8, 143.9 98.5 C 146.5 86.5, 149.3 79.2, 150.1 82 C 153.4 93, 155 99.3, 155 100.9 C 155 104, 156.1 104.1, 167.2 102.6 C 172.9 101.8, 179.7 100.9, 182.5 100.6 L 187.5 100 177.5 110.1 C 172 115.7, 166.3 120.7, 164.8 121.4 L 162.2 122.5 166.2 128.5 C 170.7 135.2, 179 149.8, 179 151.1 C 179 152, 164.8 144.3, 156.6 138.9 C 150.2 134.6, 148.5 134.6, 147.1 138.4 C 146.1 140.8, 145 141.3, 126.2 148 C 122.8 149.3, 119.7 150, 119.3 149.7 C 119 149.3, 121.7 144.7, 125.2 139.3 C 132.5 128.4, 134 125.7, 134 123.9 C 134 121.9, 131.1 125, 125.9 132.4 L 121 139.3 120.8 134.9 C 120.5 125.8, 119.6 123, 117 123 C 113.4 123, 109 130, 105.6 141.3 L 103.8 147.1 98.1 146.5 C 95 146.1, 90.9 145.5, 89 145 C 87.1 144.6, 81.8 143.9, 77.3 143.5 C 64.9 142.5, 65.8 144.3, 84 157.8 C 97.2 167.5, 96.6 165.9, 91.2 177.1 C 88.6 182.4, 85.9 188.3, 85.1 190.1 C 84.4 192, 82.4 196.4, 80.8 199.9 C 76.2 210.2, 77.7 210.3, 88.7 200.3 C 94.1 195.5, 102 188, 106.4 183.8 C 110.8 179.5, 114.5 176, 114.7 176 C 115.2 176, 124.1 183.4, 130 188.8 C 132.6 191.1, 135.2 193, 135.9 193 C 137.7 193, 137.2 185.6, 135 180 C 132.3 173.1, 132.4 172, 135.9 172 C 137.8 172, 139.8 171, 141.6 169 C 145 165.6, 154 148.9, 154 146.1 C 154 144.5, 156.4 145.4, 169.4 152.1 C 184.1 159.6, 188 161.1, 188 159.1 C 188 157.9, 175.9 134.4, 172.7 129.3 C 171.2 126.9, 170 124.8, 170 124.5 C 170 124.3, 173.6 120.6, 177.9 116.4 C 187 107.7, 194 99.1, 194 96.5 C 194 94.6, 184.7 94.8, 172.5 97 C 169.8 97.4, 165.9 98.1, 164 98.3 L 160.5 98.8 155.7 84 C 151.2 70.3, 149.9 68, 146.9 68 C 146.4 68, 146 69, 146 70.3 M 621 85.3 C 619.1 87.1, 613 92.4, 607.5 97.2 C 602 101.9, 594.2 109.3, 590.1 113.7 C 586 118, 578.2 126.1, 572.8 131.6 C 563 141.8, 561.5 143.8, 564.7 142.6 C 565.7 142.2, 566.1 142.3, 565.6 142.7 C 565.2 143.1, 563.8 143.5, 562.7 143.5 C 561.2 143.5, 560.5 144.1, 560.6 145.2 C 560.7 146.2, 560.3 146.7, 559.8 146.4 C 559.3 146.1, 558.1 146.6, 557.2 147.6 C 556.2 148.7, 548.5 157.4, 540 167 C 531.5 176.6, 516.5 192.5, 506.8 202.4 C 497 212.2, 489 220.8, 489 221.6 C 489 223.7, 491.7 223.3, 493.4 220.9 C 494.2 219.7, 503.8 209.7, 514.7 198.6 C 525.6 187.6, 538.2 174, 542.7 168.5 C 550.8 158.4, 554.3 154.9, 561.3 149.6 C 563.4 148, 567.9 143, 571.5 138.5 C 580.7 126.6, 606.4 100.9, 622 87.8 C 625 85.3, 626.1 83.7, 625.5 83.1 C 624.8 82.4, 623.3 83.2, 621 85.3 M 626.7 88.9 C 616.8 95.3, 582.3 129.9, 585 130.8 C 585.7 131.1, 589.7 127.6, 593.8 123 C 601.8 114.4, 623.7 94.5, 629.6 90.7 C 631.4 89.5, 633 88.2, 633 87.8 C 633 86.4, 629.6 87.1, 626.7 88.9 M 591 104.8 C 581.9 114.1, 572.8 123.6, 570.7 126.1 C 568.5 128.5, 564.5 132.9, 561.7 135.8 C 558.9 138.6, 557 141, 557.5 141 C 558.9 140.9, 569 131.5, 574.5 125 C 577.1 122, 586.2 112.4, 594.8 103.8 C 603.3 95.1, 609.7 88, 608.9 88 C 608.2 88, 600.1 95.6, 591 104.8 M 654.9 94.8 C 654 95.2, 647.7 100.7, 641 107 C 618.5 128, 614.6 131.5, 606.5 137.7 C 602.1 141, 595.6 146.4, 592 149.7 C 588.4 153, 584.2 156.7, 582.6 158.1 C 567.2 170.9, 544.6 192.9, 542.4 197.2 C 541.3 199.3, 546.2 195.1, 556.1 185.3 C 564.6 176.9, 573.5 168.3, 576 166.2 C 578.5 164, 583.4 159.7, 587 156.6 C 590.6 153.5, 596.4 148.6, 599.9 145.7 C 603.4 142.9, 611.5 136.2, 617.9 130.9 C 628.2 122.3, 658.3 94.1, 657 94.1 C 656.7 94.1, 655.8 94.4, 654.9 94.8 M 652.4 103.3 C 640.8 114, 627.6 125.6, 620.1 132 C 606.4 143.5, 586.2 162.8, 553.5 195.5 C 535.9 213.1, 508.5 240.2, 492.6 255.8 C 476.7 271.3, 464 284.4, 464.4 284.7 C 464.7 285.1, 467.1 283.4, 469.7 280.9 C 472.3 278.5, 474.9 276.1, 475.5 275.5 C 484.9 267.5, 527.2 226.1, 562.3 190.4 C 586 166.3, 591.9 161.2, 575.3 179.1 C 569.9 184.9, 563.1 192.3, 560.2 195.6 C 557.3 198.8, 552.3 204.1, 549.2 207.4 C 546.1 210.6, 544.4 212.8, 545.5 212.2 C 548.3 210.7, 555.1 204, 564 194 C 568.1 189.4, 572.2 185, 573.1 184.1 C 578.3 178.8, 587 167.7, 586.5 167 C 586.1 166.4, 586.6 166.3, 587.6 166.7 C 588.8 167.1, 589.1 167, 588.6 166.2 C 588.2 165.5, 588.4 165, 589 165 C 589.6 165, 589.8 164.5, 589.4 163.8 C 589 163.2, 589.1 163, 589.7 163.3 C 590.2 163.6, 594.9 159.6, 600.1 154.4 C 605.3 149.1, 614.9 140, 621.5 134.2 C 632.9 124, 639.9 117.6, 653.5 104.8 C 656.8 101.7, 659.2 98.9, 658.9 98.5 C 658.5 98.2, 655.6 100.3, 652.4 103.3 M 491 122.8 C 491 123.8, 490.3 126.7, 489.4 129.3 C 487.8 134, 487.8 134, 483.2 134 C 475.9 134, 474.9 135.2, 478.8 139.3 C 480.5 141.1, 482 143.4, 482 144.3 C 482 146.1, 484.5 146.7, 485.4 145.1 C 486.4 143.5, 485.1 141.6, 481.7 139.6 L 478.5 137.6 483 136.6 C 488.9 135.2, 489.8 134.5, 490.8 130.8 L 491.6 127.6 493.8 131.1 C 495 133.1, 495.7 135.5, 495.4 136.6 C 495.1 137.8, 495.5 139.2, 496.4 139.9 C 497.6 140.9, 497.8 140.8, 497.3 139 C 496.9 137.7, 497.5 136.1, 498.7 134.7 C 502.5 130.6, 502.6 129.7, 499.2 130.5 C 496.4 131.1, 496.1 130.9, 494.5 126.5 C 492.5 121.5, 491 119.8, 491 122.8 M 593.8 133.9 C 590.6 136.6, 585.9 140.9, 583.3 143.3 C 580.6 145.8, 575.6 150.5, 572 153.8 C 566.9 158.6, 565.8 160.1, 566.7 161.1 C 567.7 162.1, 571.3 159, 584 146.7 C 592.8 138, 600.5 131, 601.1 131 C 601.7 131, 601.8 130.6, 601.5 130 C 600.5 128.4, 599.8 128.8, 593.8 133.9 M 111.7 139 C 110.7 141.8, 109.6 146.3, 109.3 149.1 C 108.8 153.6, 108.5 154.1, 106.6 153.6 C 100.1 151.7, 86.2 149, 83.5 149 L 80.5 149.1 83.9 151.9 C 87.6 155, 91.8 157.3, 96.5 159 C 98.8 159.9, 99.1 160.3, 98 161 C 97 161.6, 97.7 161.7, 100.1 161.4 C 102.3 161, 104 161.2, 104.4 161.9 C 104.9 162.6, 104 163, 102 163 C 100.1 163, 99.1 163.4, 99.5 164 C 99.9 164.6, 101 164.8, 102.1 164.5 C 104.1 163.8, 104.6 164.9, 103.1 166.6 C 101.8 167.9, 88.8 193.1, 89.2 193.5 C 89.7 194, 103.8 180.3, 109.3 174 C 114 168.5, 114.1 168.5, 115.8 170.6 C 118.4 173.8, 130 183.4, 130.5 182.8 C 130.8 182.6, 129.9 179.5, 128.5 176 C 125.2 167.6, 125.3 167, 129.5 167 C 133.4 167, 140 164.6, 140 163.2 C 140 161.9, 132.4 161, 121.9 161 C 113.8 161, 111.3 160.2, 114 158.5 C 115.2 157.8, 115.4 134, 114.2 134 C 113.8 134, 112.7 136.3, 111.7 139 M 552.3 136.8 C 551.1 138.3, 549.2 140.5, 548.1 141.7 C 546.9 142.9, 546 144.4, 546 144.9 C 546 148.3, 524 171, 494.3 198.3 C 484.9 207, 475.5 216.2, 473.4 218.8 C 471.3 221.4, 469.1 223.8, 468.6 224.2 C 468 224.6, 467.8 225.1, 468.1 225.4 C 468.3 225.7, 476 218.6, 485.2 209.7 C 494.3 200.8, 503.3 192.2, 505.1 190.6 C 520.2 177.5, 553.6 143.5, 549.1 145.9 L 546.8 147.2 548.6 144 C 549.7 142.3, 551.7 139.4, 553.3 137.7 C 556.2 134.4, 556.4 134, 555.3 134 C 554.8 134, 553.5 135.3, 552.3 136.8 M 219.7 138.8 C 216.9 141.9, 217.9 144.7, 222.6 147.3 C 224.2 148.2, 229 144.2, 229 142 C 229 137.9, 222.5 135.7, 219.7 138.8 M 146 147.6 C 144.6 148.3, 139.9 149.6, 135.5 150.5 C 118.8 154, 112.2 158, 123.1 158 C 126.6 158, 132.4 158.3, 136 158.6 L 142.5 159.2 145.8 153 C 149.5 146, 149.5 145.8, 146 147.6 M 637.1 148.2 C 636.6 149.5, 636.1 151.4, 635.9 152.5 C 635.6 153.8, 634.4 154.7, 632.5 155 C 629.3 155.6, 629.8 156.3, 634.2 157.4 C 635.9 157.8, 637.2 159, 637.8 161 C 639.3 165, 641.4 165, 640.5 161 C 639.7 157.5, 641.2 155, 644 155 C 645 155, 646.4 154.3, 647.1 153.4 C 648.3 151.9, 648 151.8, 644.2 152.2 C 640.2 152.5, 640 152.4, 640 149.8 C 640 146.3, 638.2 145.3, 637.1 148.2 M 333.3 169.1 C 332.6 169.8, 332 171, 332 171.7 C 332 172.5, 330.7 173, 328.4 173 C 325.4 173, 325 173.2, 325.9 174.4 C 326.6 175.2, 326.8 176.9, 326.4 178.4 C 325.7 181.2, 326.8 181.8, 328.8 179.8 C 329.7 178.9, 330.6 179.2, 332.8 181.3 C 336.1 184.5, 337.3 183.9, 336.4 179.5 C 335.9 176.8, 336.2 176.2, 338.7 175 L 341.5 173.6 338.3 173.2 C 335.8 173, 335.1 172.4, 334.8 170.4 C 334.6 168.4, 334.3 168.1, 333.3 169.1 M 551.9 173.6 C 540.2 183.2, 480.5 243.6, 474.3 252.1 C 465.6 264, 468.2 262.8, 479.6 249.8 C 493.3 233.9, 532.9 193.4, 548.5 179.3 C 557.5 171.1, 560.1 166.8, 551.9 173.6 M 508.1 178.1 C 498.7 185.3, 480.9 202, 466.1 217.6 C 461.5 222.5, 451.1 233.3, 443.1 241.5 C 435.1 249.8, 424.4 261, 419.5 266.4 C 414.5 271.8, 409.9 276.9, 409.3 277.6 C 408.6 278.3, 408 279.1, 408 279.4 C 408 281.7, 412.5 277.5, 428.6 260.3 C 460.5 226.1, 499.7 187, 512.5 176.5 C 518 172, 514.5 173.2, 508.1 178.1 M 601.1 179.6 C 598.8 182.5, 599.1 183.8, 602.6 186.4 C 605.1 188.2, 605.2 188.2, 607.6 185.9 C 610.3 183.4, 610.6 181.3, 608.6 178.8 C 606.7 176.2, 603.5 176.6, 601.1 179.6 M 195.2 180.9 C 194.5 182.8, 193.3 184, 191.9 184.2 C 189 184.6, 188.4 186.6, 191 187.3 C 192.5 187.7, 193 188.6, 193 191.5 C 193 194, 193.4 195, 194.3 194.7 C 195 194.5, 195.5 192.5, 195.5 189.7 C 195.5 187.2, 196.1 184.5, 196.8 183.8 C 197.7 182.9, 198 182.9, 198 183.8 C 198 184.5, 198.9 185, 199.9 185 C 203.1 185, 203.4 186.9, 200.6 189.1 C 197.3 191.7, 197.3 192.2, 201.1 194.4 L 204.2 196.2 203.5 192.9 C 202.8 190, 203.1 189.3, 206.1 186.8 L 209.5 183.9 206.3 184.2 C 202.8 184.5, 199 182.1, 199 179.5 C 199 176.9, 196.2 177.9, 195.2 180.9 M 247.8 180.8 C 246.9 182.6, 245.6 183.6, 243.7 183.8 C 240.5 184.2, 240.1 185.6, 243 186.5 C 244.5 187, 245 188, 245 190.7 L 245 194.3 247.4 192.1 C 249.4 190.2, 249.8 190.1, 251 191.5 C 253 193.9, 254.2 193.3, 253.5 190.1 C 253 187.6, 253.3 187, 255.9 185.9 C 259.2 184.4, 259.1 182.7, 255.7 183.5 C 254 184, 253.2 183.4, 252.2 181 C 250.5 177.3, 249.5 177.2, 247.8 180.8 M 582.9 196.5 C 581.3 199.1, 580.3 199.9, 579 199.5 C 577.7 199.1, 575.5 200.4, 571.8 203.6 C 562.1 212, 556.5 216.8, 553 219.6 C 544.8 226.3, 531 240.1, 531 241.6 C 531 244.4, 533.3 244, 537.8 240.3 C 553.7 227.4, 587 196.1, 587 194.2 C 587 191.9, 584.9 193.1, 582.9 196.5 M 671 200 C 671 201.9, 670.6 202.1, 668.1 201.5 C 663.4 200.5, 662.8 203.7, 667.4 205.3 C 667.9 205.5, 667.7 206.6, 667.1 207.9 C 665.5 210.8, 666.5 211.9, 668.7 209.7 C 670.3 208.1, 670.6 208.2, 672.8 210.8 L 675.1 213.5 674.5 209.6 C 674 206.9, 674.3 205.4, 675.2 204.9 C 676.1 204.2, 676.2 203.8, 675.4 203.3 C 674.7 202.8, 674.1 201.6, 673.9 200.6 C 673.3 197.8, 671 197.4, 671 200 M 576.8 201.3 C 576.1 202, 569.2 208, 561.5 214.7 C 543 230.9, 533.1 240.2, 535.3 239.4 C 536.2 239.1, 537 238.5, 537 238 C 537 237.6, 537.9 236.9, 538.9 236.4 C 542.8 234.5, 580.5 200, 578.6 200 C 578.4 200, 577.5 200.6, 576.8 201.3 M 512.7 224.8 C 484.5 252.5, 475 262.5, 475 264.9 C 475 265.2, 489.4 251.2, 507 233.6 C 524.6 216.1, 539 201.6, 539 201.4 C 539 199.5, 533.6 204.2, 512.7 224.8 M 357.8 213.6 C 357.3 214, 357 216.5, 357 219.2 C 357 222, 356.6 223.9, 356.1 223.5 C 354.4 222.5, 347 224.2, 347 225.6 C 347 226.4, 347.3 227, 347.8 227 C 348.2 227.1, 349.8 228.1, 351.4 229.4 L 354.2 231.7 352.1 236.5 C 349.3 242.8, 350.3 243.5, 354.9 238.2 L 358.6 234 361.5 237 C 365.2 240.8, 367.3 241, 366 237.4 C 364.4 233.2, 364.8 231, 368 227.8 C 371.8 224, 371.9 224.2, 366.4 223.8 L 361.7 223.5 360.1 218.2 C 359.2 215.2, 358.2 213.2, 357.8 213.6 M 450.7 226.2 C 443.8 233.5, 437.1 240.9, 435.8 242.5 C 434.6 244.2, 430.4 248.9, 426.5 253 C 404.3 276.3, 397 284.3, 397 285.3 C 397 286.9, 416.4 267.4, 428.2 254 C 433.8 247.7, 441.3 239.3, 444.9 235.4 C 456.1 223.4, 464.2 213.9, 463.8 213.4 C 463.5 213.2, 457.6 219, 450.7 226.2 M 215 215.8 C 215 217, 215.4 218.1, 216 218.5 C 216.5 218.8, 216.6 219.8, 216.3 220.6 C 215.8 222.1, 215.6 222.1, 214.8 220.6 C 213.8 218.8, 210.5 218.5, 209.5 220.1 C 209.1 220.7, 209.7 221.4, 210.9 221.7 C 213.5 222.4, 213.5 222.8, 211.3 225.3 C 209.5 227.3, 209.6 227.3, 212.9 226.6 C 215.4 226.2, 216.8 226.4, 218.2 227.7 C 220.6 229.9, 221.6 228.7, 220.1 225.4 C 219.3 223.6, 219.3 222.4, 220 221.5 C 220.8 220.6, 220.2 219.4, 218 217 C 215.4 214.2, 215 214, 215 215.8 M 40 226.3 C 36.9 234.5, 37.6 234, 31 234 C 23.9 234, 23.7 234.6, 29.1 238.3 L 33.2 241.1 32.5 247.6 C 31.8 254.6, 32.4 255.3, 36 251.5 C 39.1 248.2, 39.9 248.3, 44.7 252.5 C 50.2 257.2, 50.4 257.1, 49.7 249.3 L 49.1 242.5 53.6 239.8 C 58.6 236.7, 58.6 235, 53.7 235 C 48.5 235, 46 233.9, 46 231.9 C 46 229.2, 43.3 223, 42.2 223 C 41.7 223, 40.7 224.5, 40 226.3 M 483.5 231.6 C 476.3 236.7, 474.8 238.3, 465.5 250.2 C 460.7 256.4, 457.5 261.2, 458.1 261.6 C 459.4 262.4, 459.4 262.4, 466.5 252.5 C 469.7 248.1, 476.2 240.8, 480.9 236.3 C 485.6 231.7, 489.2 228, 489 228.1 C 488.7 228.1, 486.3 229.7, 483.5 231.6 M 41 230.5 C 40.9 233.3, 38.8 235.7, 35.4 237.1 C 32.5 238.2, 32.5 238.2, 34.8 239.3 C 37.2 240.4, 37.7 242.9, 35.8 244.8 C 35.2 245.4, 34.9 246.3, 35.3 246.7 C 35.7 247.1, 36.6 246.8, 37.2 246.2 C 39 244.4, 42.1 244.8, 44.7 247.1 L 46.9 249.3 46 245.9 C 45.1 242.9, 45.2 242.3, 47.4 240.3 L 49.9 238.2 46.9 237.1 C 45.3 236.6, 43.7 235.3, 43.4 234.3 C 43.1 233.3, 42.5 231.6, 42 230.5 L 41.1 228.5 41 230.5 M 497.1 260.1 C 470.3 286.4, 469 287.8, 469 289.1 C 469 291.4, 472.3 288.5, 496.4 264.6 C 519.1 242.1, 523.7 237, 521.4 237 C 521 237, 510.1 247.4, 497.1 260.1 M 137.7 250.7 C 137.3 251, 137 252.6, 137 254.1 C 137 256.9, 135.5 258, 131.4 258 C 128.3 258, 128.4 258.5, 132 262 C 134 264, 135 265.9, 135 268 C 135 271.6, 135.6 271.7, 138.7 268.8 C 140.9 266.7, 141.1 266.7, 144.5 268.3 C 146.5 269.2, 148.3 270, 148.5 270 C 149.8 270, 148.7 264.9, 146.9 262.6 C 145.8 261.2, 145.3 260, 145.8 260 C 146.9 260, 151 256.5, 151 255.6 C 151 254.6, 147.5 254.9, 146.4 256 C 144.8 257.6, 142.2 256.2, 140.8 252.9 C 139.5 249.9, 138.8 249.5, 137.7 250.7 M 659.5 253.3 C 659.3 253.9, 659 255.8, 658.8 257.5 C 658.5 259.9, 657.9 260.5, 655.2 261.1 C 651.3 261.9, 648.7 264, 650.7 264.7 C 654.1 266, 657 269.3, 657 272.1 C 657 275.3, 658.1 275.8, 660 273.4 C 662.6 270.4, 664.8 269.9, 667.9 271.5 C 672.5 273.8, 673.7 272.5, 670.3 268.8 C 668.7 267, 668.8 266.9, 670.9 265.3 C 672.7 264.1, 672.9 263.6, 671.9 262.9 C 670.8 262.3, 670.8 261.8, 671.8 260.8 C 673.8 258.8, 673.2 258.1, 669.3 257.8 C 666.3 257.6, 665.2 256.9, 664.2 254.8 C 662.8 251.9, 660.3 251.1, 659.5 253.3 M 454.8 279.8 C 441.5 295.9, 438.2 301, 445.6 293.9 C 449.4 290.4, 462.4 275, 465 271 C 465.8 269.8, 467.3 267.7, 468.3 266.5 C 470.1 264, 470.4 263, 469.3 263.1 C 468.8 263.1, 462.3 270.6, 454.8 279.8 M 239.8 266.6 C 236.7 268.2, 236.5 268.8, 238.2 272.5 C 240.2 277, 248 275, 248 270 C 248 265.7, 244.2 264.1, 239.8 266.6 M 451.5 272.3 C 450.9 273, 447 278, 442.8 283.5 C 438.7 289, 434 294.9, 432.5 296.5 C 429 300.4, 426.6 304, 427.1 304.5 C 427.8 305.2, 429.4 303.7, 433.5 298.5 C 435.7 295.8, 437.7 293.3, 438 293 C 441.6 289.5, 454 273, 454 271.8 C 454 270.6, 452.6 270.9, 451.5 272.3 M 555 277.5 C 554.5 278.9, 554 280.8, 554 281.6 C 554 285.7, 551 289, 547.2 289 C 537.9 289, 536.7 291.4, 543.5 296.2 C 548.4 299.7, 548.8 300.9, 546.5 306.3 C 545.7 308.3, 545 311.3, 545 313 L 545 316 547.8 314.3 C 549.3 313.4, 552 311.3, 553.8 309.8 C 558.1 306.1, 559.6 306.3, 566 311 C 574.5 317.3, 575.3 316.7, 571.5 306.9 C 568.4 299.2, 568.8 297.3, 574 293.8 C 580.2 289.5, 579.4 288, 570.9 288 C 564.6 288, 563.8 287.8, 563.3 285.9 C 562.3 282.4, 558.5 275.6, 557.3 275.2 C 556.6 275, 555.6 276, 555 277.5 M 557.1 282.8 C 556.9 288.7, 554.5 291.7, 549.4 292.5 L 544.5 293.2 548.3 295.1 C 552.3 297.2, 552.5 297.7, 550.9 303.3 C 549.5 308.4, 550.2 308.8, 554.2 305.1 C 558.3 301.3, 559.9 301.2, 564.1 304.7 L 567.3 307.5 566.6 304 C 566.1 302.1, 565.6 299.6, 565.4 298.5 C 565.1 297.1, 565.9 295.8, 568.2 294.3 L 571.5 292 568 291.9 C 566.1 291.8, 563.9 291.8, 563.2 291.9 C 562.5 292, 561.3 290.4, 560.4 288.3 C 557.3 280.5, 557.1 280.2, 557.1 282.8 M 81.8 297.5 C 76.2 303.6, 75.6 303.7, 68.8 299.4 C 61.7 294.9, 59.8 296.8, 62.9 305.1 C 65.7 312.4, 65.8 312.2, 58.6 316.8 C 47.2 324.3, 47.6 325.5, 61.5 324.8 L 69.9 324.4 71 329.9 C 72.4 336.8, 74.1 341, 75.6 341 C 76.7 341, 77.5 339.6, 81 331.8 C 82.1 329.1, 83.2 327, 83.3 327 C 83.4 327, 87.1 328.1, 91.4 329.5 C 95.7 330.9, 99.7 332, 100.1 332 C 102.1 332, 100.7 328.4, 96 321.2 L 91 313.5 96.2 311.5 C 102.9 309, 104 308.2, 104 306.4 C 104 305.1, 102.8 304.9, 97.4 305.2 L 90.8 305.5 90.4 302 C 89.7 295.3, 88.9 292, 87.9 292 C 87.4 292, 84.6 294.5, 81.8 297.5 M 81.5 302.9 C 77 307.6, 76.4 307.7, 71.4 305 C 66.5 302.2, 66 303.2, 70 308.1 C 73.2 312.2, 72.9 314.7, 69.3 313.3 C 68.6 313, 66 314.6, 63.5 316.9 L 59.1 321 66.5 320.3 L 73.9 319.7 74.2 327.1 L 74.5 334.5 77.8 327.8 C 81.6 320, 81.2 320.2, 88.5 323.4 C 95 326.3, 95.1 326.2, 90.5 320 C 86.3 314.2, 86.1 312.3, 89.8 311.3 L 92.5 310.6 89.5 310 C 86.7 309.5, 86.5 309.1, 86 304.2 L 85.5 298.9 81.5 302.9 M 408.8 310.9 C 408 312, 406.1 313, 404.5 313.2 L 401.5 313.6 404.2 314.9 C 406.8 316.2, 406.8 316.4, 405.5 319.1 C 403.7 322.5, 403.7 323, 405.3 323 C 406 323, 407.1 322.1, 407.8 321 C 408.8 319.4, 409.4 319.2, 411 320 C 413.9 321.6, 415 321.2, 415 318.7 C 415 317.4, 415.5 315.9, 416.1 315.3 C 416.8 314.6, 417 313.4, 416.6 312.4 C 416 310.9, 415.6 311, 413 313.5 C 409.9 316.5, 409 315.9, 411.5 312.6 C 412.9 310.7, 412.7 309, 411 309 C 410.5 309, 409.5 309.9, 408.8 310.9 M 664.1 319.8 C 663.6 320.7, 662.9 323.8, 662.5 326.5 C 661.4 334.2, 660.9 334.6, 653.6 335.3 C 647 335.9, 643 337.3, 643 338.9 C 643 339.4, 646.6 341.5, 651 343.6 L 659 347.5 659 355.7 C 659 361.1, 658.6 364, 657.8 364.2 C 656.4 364.7, 657.4 368, 659 368 C 659.5 368, 660 367.1, 660 366.1 C 660 365, 661.8 362.7, 664 361 C 668.5 357.5, 668.8 357.5, 678.8 362.1 C 682.2 363.7, 685.5 365, 686 365 C 688.2 365, 686.2 358, 682.3 351.8 C 679.1 346.6, 679.3 346, 685.3 341.8 C 688.1 339.7, 692.4 336.7, 694.8 335 C 701.2 330.4, 700.4 329.6, 690.3 330.5 C 674.5 331.8, 675.9 332.1, 673.2 326.5 C 670.5 320.8, 668.3 318, 666.4 318 C 665.7 318, 664.6 318.8, 664.1 319.8 M 666.6 324 C 666.3 324.8, 665.5 328.2, 664.8 331.5 C 663.6 336.7, 663.1 337.5, 661 337.8 C 649.4 339, 647.5 340.1, 654.3 341.5 C 661.2 343.1, 663.3 345.6, 662.7 351.9 L 662.1 357.5 663.8 354 C 666 349.4, 667.2 348.7, 668.8 350.8 C 669.5 351.7, 670.6 352.4, 671.1 352.3 C 671.6 352.1, 672 352.4, 672 353 C 672 353.9, 678.6 358.5, 681.6 359.7 C 682.4 360, 681.9 358.2, 680.1 354.8 C 674.4 344.2, 674.7 343.2, 684.1 338 L 689.5 335 680.9 335 L 672.4 335 669.8 328.8 C 668.2 324.9, 667 323.1, 666.6 324 M 746.6 328.1 C 745 331.3, 745.4 334, 747.5 334 C 748.2 334, 750 334.3, 751.6 334.6 C 755.9 335.4, 758.4 329.9, 755 327 C 751.6 324, 748.4 324.4, 746.6 328.1 M 467 328.6 C 465.1 330, 462.8 331.8, 461.9 332.6 C 461 333.4, 459.6 333.8, 458.7 333.4 C 456.9 332.7, 449.8 337.5, 447.3 340.9 C 445.3 343.8, 446.3 343.5, 452.2 339.5 L 457.3 336 460.7 339.7 L 464 343.5 463.4 338.9 C 462.8 334.5, 463 334.2, 466.8 331.2 C 469 329.4, 471.3 328, 471.8 328 C 472.4 328, 473.2 327.6, 473.5 327 C 474.7 325.1, 470.5 326.2, 467 328.6 M 219.1 339.9 C 215.3 343.7, 216.5 349.1, 221.4 351 C 225.7 352.6, 229 349.7, 229 344.4 C 229 339, 222.8 336.2, 219.1 339.9 M 622.3 388.3 C 622.7 389.3, 622.1 390, 620.7 390.4 L 618.5 391 620.8 392.6 C 622.5 393.8, 623.1 394.9, 622.7 396.6 C 622.2 399.2, 623.8 399.8, 625.8 397.8 C 626.8 396.8, 627.5 396.8, 629 397.8 C 630.1 398.4, 631.2 399, 631.5 399 C 632.6 399, 631.9 396.2, 630.5 395 C 629.7 394.3, 629 393.4, 629 392.9 C 629 392.4, 629.7 392, 630.5 392 C 631.3 392, 632 391.3, 632 390.5 C 632 389.7, 631.3 389, 630.5 389 C 629.7 389, 629 388.6, 629 388 C 629 387.5, 628.5 387, 627.9 387 C 627.3 387, 627.1 387.9, 627.5 389 C 627.8 390.1, 627.8 391.5, 627.3 392.2 C 626.8 393.1, 626.4 392.5, 626 390.5 C 625.7 388.6, 624.8 387.4, 623.6 387.2 C 622.3 386.9, 621.9 387.2, 622.3 388.3 M 696 388.5 C 695.3 389.3, 694.1 390, 693.4 390 C 692.3 390, 692.1 390.8, 692.6 392.8 C 693.4 396, 705.7 415, 707.1 415 C 708.5 415, 708.2 413.5, 706.1 410.9 C 702.7 406.5, 695.4 395.4, 694.7 393.6 C 694.2 392.2, 694.5 391.9, 696.3 392 C 700.5 392.4, 701.1 392, 700.8 389.8 C 700.4 387.1, 697.8 386.3, 696 388.5 M 116.8 393.3 C 116.6 394.9, 115.7 395.6, 113.8 395.8 C 110.4 396.2, 110.5 396, 113.2 402.1 C 115.6 407.3, 117 407.8, 121.8 405.2 C 123.5 404.2, 123.9 403.3, 123.4 401.6 C 123.1 400.3, 123.3 398.9, 123.9 398.6 C 125.6 397.5, 125.2 396, 123.2 396 C 122.1 396, 120.8 394.9, 120.2 393.5 C 118.8 390.4, 117.2 390.3, 116.8 393.3 M 496.1 394.3 C 495.7 395.5, 495.1 397.2, 494.8 398 C 494.6 398.8, 492.4 399.9, 489.9 400.5 L 485.5 401.6 488.9 403.4 C 492.1 405.1, 492.2 405.4, 491.7 409.6 C 491.1 415, 492 415.7, 495 412.5 C 497.9 409.4, 498.3 409.4, 502.6 412.6 C 506.3 415.5, 507.1 414.5, 504.8 409.4 C 503.7 407, 503.8 406.5, 506.3 404.4 C 509.8 401.4, 509.7 401, 505.6 401 C 501.8 401, 500.5 399.8, 499.5 395.3 C 498.7 391.5, 497.3 391, 496.1 394.3 M 219.2 395.5 C 218.3 397.4, 217.3 398, 215 398 C 211.3 398, 211 399.7, 214.6 400.6 C 216.9 401.2, 217.1 401.6, 216.5 405.1 C 215.8 409.4, 216.4 409.9, 219.2 407.3 C 220.9 405.8, 221.1 405.8, 222.8 407.3 C 225.7 410, 226.9 409.4, 226.3 405.6 C 226 403.7, 226.2 402, 226.9 401.6 C 228.6 400.5, 228.2 399.2, 226 398.5 C 224.9 398.2, 223.7 396.8, 223.4 395.4 C 222.6 392.3, 220.6 392.3, 219.2 395.5 M 173.7 421.8 C 173.5 422.2, 172.7 424.4, 172 426.8 C 170.5 431.4, 168.2 432.7, 163 431.7 C 158.3 430.7, 158.3 433, 162.8 436.9 L 167 440.5 164.5 444.9 C 163.1 447.2, 162 449.6, 162 450.1 C 162 451.5, 166.4 451.2, 170.3 449.5 C 175 447.6, 174.7 447.5, 176.6 451.2 C 178 453.9, 178.4 454.1, 179.2 452.7 C 179.9 451.4, 181 451.1, 184.1 451.6 C 188.7 452.4, 189 451.5, 185.5 446.4 C 182.2 441.6, 182.3 441.4, 187.5 436.6 C 193.3 431.3, 193.2 430.6, 186.7 431.3 C 180.3 431.9, 179.5 431.5, 178.7 427.1 C 177.7 422.4, 175 419.4, 173.7 421.8 M 362 428.8 C 362 432.6, 360.3 434, 355.8 434 C 351.4 434, 351 435.1, 354.6 437.5 C 357 439.1, 357.2 439.5, 356.5 444.6 C 355.8 450.6, 356.5 451.2, 360 447.5 C 361.3 446.1, 363.2 445, 364.2 445 C 365.2 445, 367 446.1, 368.2 447.5 C 371.5 451.3, 372.3 450.6, 371.6 445.1 C 371 440.4, 371.1 440, 374 437.9 C 378.1 434.8, 377.8 434, 372.4 434 C 368 434, 367.8 433.8, 366.2 430 C 364.2 425.4, 362 424.7, 362 428.8 M 174.5 432 C 173.6 435, 172.9 435.6, 170 436 C 167.4 436.4, 166.9 436.7, 168.3 437.2 C 170.2 438, 170.6 442, 169 445.1 C 167.7 447.4, 168.7 447.5, 171.4 445.5 C 174.3 443.3, 176.7 443.7, 178.6 446.5 C 181.1 450.3, 181.9 449.5, 180.3 444.9 C 179 440.9, 179 440.6, 181.1 438.4 L 183.3 436 180.8 436 C 177.8 436, 176.3 434.5, 175.8 431 C 175.5 428.7, 175.4 428.8, 174.5 432 M 566 443.4 C 566 446.5, 565.6 447.2, 562.8 448.4 C 559.8 449.7, 559.7 449.9, 561.6 450.5 C 563.6 451.1, 565.1 453.2, 566.4 457.3 C 566.7 458.2, 567.4 459, 568 459 C 570.1 459, 570.2 455.8, 568.2 453 C 566.4 450.6, 566.3 450, 567.5 449 C 568.3 448.3, 569 447.1, 569 446.4 C 569 444.4, 570.4 444.7, 572.8 447.3 C 574.9 449.5, 574.9 454, 572.9 454 C 572.4 454, 572 454.9, 572 456 C 572 457.8, 572.9 458.4, 574.8 457.8 C 575.2 457.6, 575.4 457.1, 575.2 456.5 C 575 456, 575.4 456.1, 576.1 456.8 C 579.1 459.6, 579.5 457.8, 577.4 450.8 C 577.1 449.7, 577.7 448.9, 579 448.5 C 582 447.6, 580.9 445.4, 577.7 445.8 C 575.3 446.1, 575 445.8, 575 443.1 C 575 439.6, 574.3 439.2, 572.5 441.6 C 571.4 443.1, 571.1 443.1, 568.7 441.5 L 566 439.8 566 443.4 M 101.9 450.6 L 99.4 455.9 103.7 460.2 C 109.3 465.7, 109.1 466.7, 103.3 463.5 C 96.7 460.1, 95.6 460.3, 93.1 465.4 C 90.1 472, 89 472, 89 465.5 C 89 461.5, 88.6 459.8, 87.5 459.4 C 85.4 458.6, 85.6 457.3, 88 456.7 C 89.1 456.4, 90 455.7, 90 455.1 C 90 454.4, 89.3 454.4, 87.8 455 C 86.5 455.6, 84.3 456.5, 82.8 457.1 C 81.2 457.7, 80 458.6, 80 459 C 80 459.5, 81.2 460.5, 82.8 461.2 C 85.3 462.4, 85.5 463, 86.2 470.9 C 87.1 482.3, 87.8 482.6, 92.8 473.8 C 98.3 464, 100.8 463.5, 110.9 470.2 C 116.3 473.8, 117.1 473.2, 113.3 468.3 C 105.7 458.3, 105.6 457.4, 111.5 453.1 C 117.2 449, 117.1 448.6, 111 449.2 C 106.7 449.6, 106 449.5, 106 447.9 C 106 444.4, 104.5 445.4, 101.9 450.6 M 695.5 464.3 C 691.4 467, 690.5 468.1, 690.7 470.3 C 690.9 472.6, 690.5 473, 688.1 473 C 685 473, 677 480, 677 482.6 C 677 485, 678.5 484.2, 682.7 479.5 C 687.1 474.5, 688 474.5, 693.6 478.7 C 698.7 482.5, 699.7 481, 695.5 475.6 C 692.2 471.2, 692.3 470.8, 697.5 466.6 C 704.8 460.6, 703.5 459, 695.5 464.3 M 200.5 479.9 C 199.6 481.8, 198.1 483.1, 196.7 483.2 C 193.6 483.4, 190.7 483.7, 189.6 483.9 C 189 483.9, 189.9 485.4, 191.5 487 C 194.2 489.8, 194.3 490.3, 193.3 494 C 192.1 498.5, 192.5 498.7, 197.5 496.3 C 200.4 494.9, 201.5 494.8, 202.8 495.8 C 203.7 496.4, 205.7 497.6, 207.1 498.5 L 209.8 499.9 209.6 494.8 C 209.5 490.2, 209.8 489.5, 212 488.3 C 215.9 486.4, 215.1 484.6, 210 484 C 206 483.6, 205.5 483.2, 205 480.6 C 204.3 476.6, 202.4 476.3, 200.5 479.9 M 510.6 484.3 L 508 490 503.5 490 C 501 490, 499 490.3, 499 490.7 C 499 492, 504.3 497, 505.7 497 C 506.6 497, 507 498.9, 507 504 C 507 512.2, 508 512.8, 511 506.4 C 513.1 501.9, 513.2 501.8, 516.7 502.3 C 518.7 502.7, 520.6 503.3, 520.9 503.7 C 521.6 504.7, 526.7 508, 527.5 508 C 529 508, 528 506.4, 522.1 499.3 C 521.4 498.5, 522.3 497, 525 494.4 C 529.7 489.8, 529.4 489, 522.6 489 C 517.3 489, 517.2 488.9, 516.6 485.7 C 516.3 483.8, 515.3 481.5, 514.6 480.4 C 513.2 478.6, 513 478.9, 510.6 484.3 M 732.4 480.5 C 731.4 481.3, 729.5 482, 728.4 482 C 725.2 482, 719.7 484.5, 717.6 486.9 C 715.7 489, 715.7 489, 719.6 492.4 C 724 496.3, 723.7 498, 718.9 495.6 C 712.1 492.2, 700.1 494.1, 695.1 499.4 L 692.7 501.9 695.3 502.5 C 696.8 502.9, 698.5 503.9, 699.1 504.7 C 700.2 506, 699.9 506.1, 696.4 505.4 C 694.3 505.1, 692.3 504.6, 692.1 504.4 C 691.4 503.8, 689.1 507.4, 689 509.3 C 689 511.8, 686.2 511.4, 685.8 508.8 C 685.4 505.5, 679.4 505.1, 675.6 508.1 C 672.8 510.3, 672.8 510.5, 673.5 517.4 C 674.2 524.4, 673.8 525.2, 671.6 520.8 C 670.6 518.9, 669.5 518.5, 664.9 518.2 C 659.1 517.9, 657.9 518.5, 655.5 523.3 C 654.2 526, 651.5 526.6, 648.4 525 C 644.6 522.9, 641 525.9, 640.9 531.3 L 640.8 535.5 639.8 530.1 C 639 525.9, 639.1 524.6, 640.2 523.9 C 641 523.3, 641.1 523, 640.3 523 C 639.7 523, 637.5 524.5, 635.6 526.4 C 629.3 532.3, 630.9 540.9, 639 545 C 644.1 547.6, 644.2 547.6, 643.5 543.3 C 643.1 540.5, 643.2 540, 643.9 541.5 C 645.4 544.7, 652.2 550.6, 655.8 551.8 C 659.4 553, 681.8 552.4, 685.3 551 C 686.5 550.6, 688.9 549, 690.5 547.6 C 693 545.4, 694.5 545, 699.8 545 C 705.8 545, 706.1 544.9, 709.6 541 C 711.6 538.8, 713.9 537, 714.6 537 C 716.6 537, 716.4 537.4, 712.6 542.5 C 709.8 546.1, 709 548.2, 708.5 553.5 C 707.6 561.3, 705.4 562, 705.7 554.4 C 705.9 549.1, 705.1 548, 700.7 548 C 694.3 548, 691 551.3, 691 557.9 C 691 562.3, 692.4 563.8, 699.3 567 C 704 569.2, 705.4 571, 702.4 571 C 701.6 571, 701.1 571.4, 701.5 572 C 701.8 572.5, 700.3 573.4, 698.2 573.9 C 693.5 575.2, 691.3 577.5, 690.8 581.5 C 690.4 585.1, 686.5 585.4, 684.1 582 C 680.9 577.3, 669.9 580.7, 671.3 586 C 671.9 588.3, 671.1 588.5, 667.6 586.8 C 665.6 586, 664.1 586, 661 586.9 C 655.8 588.4, 653.7 592.3, 654.2 599.4 C 654.6 606, 653.2 606.6, 650.2 601.2 C 648.8 598.8, 646.7 596.4, 645.3 595.9 C 642 594.7, 635.4 596.3, 632.4 599.1 C 630.1 601.3, 629.3 602.5, 625.9 608.7 C 624.2 611.8, 625.6 615.7, 629 617.5 C 632.2 619.2, 632.5 619.7, 631 622 C 630.2 623.2, 629.9 623.2, 628.2 621.7 C 623.4 617.4, 614 624.1, 614 631.8 C 614 636.3, 617.6 639.8, 624 641.6 C 634.4 644.6, 636.1 644.5, 640.5 640.6 C 642.6 638.6, 644.2 636.9, 644 636.7 C 643.7 636.5, 642.4 635.9, 641 635.3 L 638.5 634.2 642.2 632.6 C 646.8 630.6, 647.1 630.6, 646.4 632.5 C 646.1 633.3, 646.8 635.5, 648 637.5 C 650.2 641, 649 642.6, 646.2 639.8 C 642.6 636.2, 639.2 649.3, 642.8 653.6 C 644.8 656, 650.6 659, 653.2 659 C 655.1 659, 655.7 656.5, 654 655.5 C 652 654.3, 653 649.8, 655.9 646.9 C 659.2 643.7, 661.6 643.3, 664.6 645.5 C 665.6 646.3, 668.6 647, 671.3 647 C 673.9 647, 676 647.5, 676 648 C 676 648.6, 675.2 649, 674.2 649 C 671.6 649, 668.2 651.7, 667.7 654.3 C 667.4 656, 667.2 655.7, 667.1 653.4 C 666.9 647.4, 660.6 644.9, 657.5 649.6 C 655.4 652.8, 656.6 654.5, 663.5 657.9 C 665.9 659.1, 668.2 660.5, 668.5 661.1 C 669.5 662.6, 672 662.1, 672 660.5 C 672 659.7, 672.6 659, 673.4 659 C 674.2 659, 675.6 658.3, 676.5 657.4 C 678.4 655.4, 679.8 656.3, 678 658.5 C 675.1 662, 686.1 661.5, 693.6 657.8 C 699.4 654.9, 700.5 652.5, 698.8 646.4 C 697.5 641.7, 697.3 641.5, 693.1 640.8 C 685.1 639.4, 680.6 634.3, 681.2 627.3 C 681.6 622.4, 684 621.6, 684 626.4 C 684 631.7, 685.8 634.8, 689.7 636.1 C 693.7 637.4, 697.9 636.4, 694.5 634.9 C 693 634.2, 693.3 634.1, 695.6 634.6 C 698.4 635, 698.9 634.7, 700.4 631.5 C 702.6 626.9, 703.2 627.1, 705.7 633 C 709 640.8, 715.9 638.6, 717.7 629.2 C 718.7 624, 720.5 624, 720.5 629.3 C 720.5 631.3, 720.7 633, 721 633 C 722.2 633, 727.2 623.8, 727.7 620.6 C 728.4 616.1, 730.8 615.9, 731.2 620.3 C 731.7 625.9, 740 625.1, 740 619.4 C 740 617.9, 740.6 617, 741.5 617 C 742.6 617, 743 618.1, 743 620.5 C 743 624.6, 739.4 629, 736.1 629 C 734.1 629, 732.1 633.6, 730.5 641.8 L 729.8 645.1 736.9 639.8 C 742.9 635.2, 743.9 634.1, 743.9 631.3 C 744 627.5, 747.2 624.9, 754.5 622.8 L 759.5 621.4 760.1 612.5 C 761.3 596.2, 761.1 571.5, 759.8 570.2 C 755.8 566.2, 747.2 571.3, 748.3 577 C 749 580.5, 747.9 580.9, 745 578 C 742.3 575.3, 742.4 575, 746.8 570.7 C 749.9 567.7, 751.6 566.8, 755.8 566.3 L 760.9 565.7 760.3 559.1 C 759.7 551.9, 757.3 548.6, 751.8 547.4 C 749.1 546.8, 748.7 544.3, 750.6 540.8 C 750.9 540.5, 753.3 542.5, 756 545.3 L 761 550.5 761 542.6 L 761 534.8 749 535.2 C 740.8 535.5, 737.1 535.3, 737.3 534.6 C 737.9 532.8, 746.1 531.1, 753.5 531.2 L 760.5 531.3 760.8 511.6 L 761 491.9 756.8 487.3 C 749.8 479.9, 737.7 476.5, 732.4 480.5 M 510.6 489 C 509.6 491.2, 508.2 493, 507.4 493 C 505.3 493, 505.7 494.7, 508 495.3 C 509.3 495.6, 510 496.7, 510 498.2 C 510 500.3, 510.4 500.5, 514.9 500.5 C 519.3 500.5, 519.7 500.3, 519 498.5 C 518.4 497.1, 518.9 495.8, 520.6 493.9 L 523 491.3 520.1 491.8 C 517.5 492.2, 516.8 491.7, 514.9 488.6 C 512.3 484.2, 512.7 484.2, 510.6 489 M 58.6 490.6 C 57 491.7, 56.6 498.6, 58.1 499.5 C 59.2 500.2, 61.5 496.9, 61.5 494.7 C 61.5 492.4, 62.9 491.6, 64.9 492.9 C 66.1 493.6, 65.9 494.3, 64.2 496.5 C 63 498, 62 499.9, 62 500.7 C 62 503, 65.5 501.7, 65.8 499.2 C 66.1 497.6, 66.8 497, 68.6 497 C 71.3 497, 71.9 494.6, 69.5 493.6 C 68.7 493.3, 68 492.2, 68 491.1 C 68 488.8, 61.5 488.4, 58.6 490.6 M 46.4 553.6 C 42.3 554.5, 40.5 557.5, 42.4 560.2 C 44.7 563.5, 44.4 565, 41.1 566.1 C 37.6 567.3, 35 570.9, 35 574.5 C 35 577.7, 33.2 577.8, 32.4 574.6 C 31.6 571.3, 33.8 567, 37.8 564.4 C 41.8 561.7, 40.7 560.8, 33.3 560.4 C 28.7 560.1, 27.7 560.4, 25.4 562.8 L 22.8 565.5 23.3 562.3 C 24.5 555.8, 17.7 551.9, 10.7 555.1 C 8.8 556, 8.1 557.2, 7.6 560.7 C 6.5 568.9, 6.6 569, 10.9 569 C 15.8 569, 17.1 567.3, 13.9 564.9 C 11.6 563.2, 11.6 563, 13.5 563 C 16 563, 20 565.7, 20 567.4 C 20 569.2, 15.6 571, 11 571 L 7 571 7 583.5 C 7 594.1, 7.8 598.4, 9.2 595.3 C 10.4 592.6, 20.6 585, 23 585 C 27.7 585, 33.5 588.9, 34.2 592.5 C 34.7 595.5, 32.6 595.2, 30.7 592 C 24.2 581, 7.5 596, 7.9 612.5 C 8.1 620.5, 8.7 621.3, 15 620.6 C 20 620.1, 24 616.6, 24 612.6 C 24 610.1, 17.6 607.2, 14.7 608.3 C 13.7 608.7, 13 608.1, 12.6 606.7 C 11.9 603.9, 11.9 603.9, 17 605.2 C 23.6 606.9, 26 608.7, 26 612.2 C 26 618.8, 20.6 623.7, 12.2 624.4 L 8.5 624.8 8.5 631 C 8.5 639.8, 10.6 641.4, 22.7 641.4 C 32.3 641.5, 34.1 640.9, 40.4 635.2 L 44.1 631.9 41.5 628.8 C 38 624.7, 38.5 621.2, 43 618.2 C 46.5 615.9, 51 615.6, 51.7 617.7 C 52 618.4, 50.8 618.8, 48.6 618.7 C 44.8 618.6, 41 621.2, 41 624 C 41 625.8, 44 629, 45.7 629 C 46.3 629, 47 629.7, 47.4 630.5 C 47.7 631.3, 47.5 632, 47.1 632 C 46.1 632, 40 639.9, 40 641.2 C 40 641.6, 41.2 643, 42.7 644.4 C 51.7 652.7, 67.1 650.6, 65.4 641.3 C 65 639.3, 65.2 638, 65.8 638 C 67.3 638, 69.1 643.9, 68.4 646.7 C 68 648.3, 68.2 649.5, 69 650 C 69.8 650.5, 70.6 654.6, 71.1 660.6 C 73 682, 74.6 688.8, 78.6 692.1 C 80.6 693.7, 80.5 692.3, 77.5 675 C 76.5 669.8, 75.6 662.5, 75.3 658.8 C 75 655, 74.4 652, 74 652 C 72.6 652, 70 649, 70 647.5 C 70 646.4, 71.4 646.2, 76.8 646.7 C 83.5 647.2, 83.6 647.2, 86.3 644.1 C 87.8 642.3, 89 640, 89 638.9 C 89 636.5, 90.5 636.5, 93.2 639 C 97.1 642.6, 99.4 641.5, 103.9 633.6 C 106.7 628.6, 106.1 626, 101.1 621.2 L 97.2 617.5 95.1 620.7 C 92.9 624.1, 89.9 625.4, 85.9 624.8 C 83.9 624.6, 83.5 623.8, 83.2 620.3 C 82.9 615.9, 82.7 615.8, 76.3 614.5 C 73.5 613.9, 72.9 613.3, 72 609.7 C 71.4 607.4, 70.5 604.7, 69.9 603.6 C 68.3 600.8, 70.3 599.6, 72.5 602 C 73.8 603.5, 75.6 604, 79.2 604 C 83.4 604, 84 604.3, 84 606 C 84 607.9, 83.6 608, 79 607.4 C 74.9 606.9, 74 607, 74 608.3 C 74 610.6, 76.8 613, 79.4 613 C 82.5 613, 84.8 615, 85.2 618 C 85.4 620, 86.1 620.6, 88.8 620.8 C 92.6 621.2, 95.3 618.8, 94.6 615.8 C 94 613.2, 97.4 613.5, 99.3 616.3 L 100.9 618.5 104 615.2 C 109.8 609, 107.7 602, 100 602 C 97.3 602, 97 601.7, 97.5 599.5 C 97.8 598.1, 98.2 596, 98.5 594.7 C 99.1 591.6, 98 590.2, 94.6 589.8 C 90.2 589.3, 90 587, 94.4 587 C 96.3 587, 98.2 587.5, 98.5 588 C 99.9 590.2, 100.5 588.7, 100.8 582.2 C 101 575.8, 100.9 575.3, 97.9 572.2 C 94 568.3, 89 567.8, 86.8 571.2 C 84.8 574.1, 83 572.7, 83 568.2 C 82.9 562, 80.2 559.5, 73.4 559.5 C 68.3 559.5, 67.5 559.8, 65.1 562.8 C 62.1 566.3, 59.3 567.2, 60.5 564.3 C 62.1 560.4, 62 559.4, 59.7 556.7 C 57.4 553.8, 51.7 552.5, 46.4 553.6 M 386 558.6 C 386 561.3, 384.2 562.8, 380.2 563.6 C 377.4 564.2, 375.6 566, 377.9 566 C 380.5 566, 384 571.1, 384 575 C 384 578.3, 384.3 579, 386 579 C 387.4 579, 388 578.3, 388 576.7 C 388 572.7, 390.3 570.6, 393.9 571.3 C 397.3 572, 397.7 571.5, 395.5 569 C 394.1 567.5, 394.2 567.1, 396 565 C 398.7 561.9, 398.6 561.7, 394.8 562.5 C 392 563.2, 391.3 562.8, 388.8 559.9 C 386.4 556.9, 386.1 556.7, 386 558.6 M 135 561.7 C 129.9 565.2, 128.5 569.7, 131.5 573 C 133 574.6, 132.7 574.8, 128.5 575.9 L 124 577 125.6 580.8 C 126.5 582.8, 127.4 585.1, 127.7 585.8 C 128.7 588.1, 125.4 587, 122.5 584 C 116.7 578, 105.1 581.2, 103.5 589.3 C 103.2 591.1, 102.4 593.8, 101.8 595.3 C 100.4 598.8, 101.5 600, 106.4 600.4 C 110.9 600.8, 113 602.4, 111.2 604.2 C 110.5 604.9, 110 607.4, 110 609.7 C 110 614, 106.6 619, 103.7 619 C 103.2 619, 103.9 620.1, 105.4 621.5 C 107.1 623.1, 107.9 624.7, 107.6 625.8 C 105.7 632.5, 105.9 636.5, 108.4 639.2 C 111.3 642.2, 111.8 645, 109.5 645 C 108.7 645, 108 644.2, 108 643.2 C 108 639.8, 106 639, 103 641.2 C 100.9 642.7, 99.1 643.1, 95.7 642.9 C 91.7 642.5, 91 642.8, 89.3 645.3 C 88.3 646.8, 85.4 649.1, 82.8 650.3 C 76.8 653.1, 76.6 654.4, 82.4 652.3 C 87.9 650.2, 90.8 651.4, 93.6 656.6 C 96.1 661.2, 101 663.4, 107.2 662.7 C 114.1 661.8, 118.3 658.7, 117.5 654.9 C 116.6 651, 118.1 651.2, 122.1 655.5 C 125.9 659.4, 129.2 660, 134.2 657.4 C 137.1 655.9, 137.2 655.6, 136.8 650.4 C 136.3 644.8, 137.1 643.5, 139 646.9 C 140.3 649.4, 140.3 654.6, 139 657.1 C 137.6 659.5, 140.4 659.7, 147.8 657.5 C 153.3 655.8, 156 652.6, 156 647.6 C 156 646.2, 156.4 644.9, 156.9 644.6 C 158.2 643.8, 159 649.4, 158.1 652.8 L 157.2 655.8 163.1 656.9 C 168.8 658.1, 169.3 658, 173.7 655.6 C 179.6 652.3, 180.7 652.3, 181.5 656 C 181.9 657.7, 182.5 659, 182.8 659 C 184.6 659, 189.1 666.2, 188.5 668 C 187.4 671.3, 185 670.4, 185 666.7 C 185 664.6, 184.1 662.5, 182.5 660.7 C 178.7 656.7, 172 657.2, 172 661.4 C 172 665.8, 168.6 667.4, 167.6 663.5 C 167.1 661.6, 166.3 661, 164.1 661 C 162.6 661, 160.2 660.1, 158.8 659.1 C 156.3 657.1, 156.3 657.1, 151.5 659.6 C 148.8 660.9, 145.6 662, 144.3 662 C 141.2 662, 136.4 664.5, 135.7 666.4 C 135.4 667.2, 133.2 669.3, 130.9 671 L 126.7 674 130.3 675.5 C 132.3 676.3, 136.4 677, 139.4 677 C 144.3 677, 144.8 676.8, 145.4 674.5 C 146.1 671.6, 147.8 671.2, 148.7 673.8 C 149.1 674.7, 150.2 676.6, 151.2 678 C 152.4 679.5, 152.9 681.3, 152.5 682.7 C 151.9 685.2, 156.6 689, 160.3 689 C 164.1 689, 170 685.1, 170 682.6 C 170 678, 162.1 671, 157.1 671 C 152.2 671, 155.5 669.1, 161 668.8 C 166 668.6, 166.7 668.7, 165.6 669.9 C 164.4 671, 164.7 671.7, 167.7 674.3 C 169.6 675.9, 172 679, 173 681 C 175.3 685.5, 176.4 686, 184.4 686 C 189.8 686, 191 685.6, 194 683 C 198.7 679, 200.3 679.1, 199.5 683.4 C 198.9 686.3, 199.1 686.8, 201.2 687.3 C 208.9 689.4, 216.6 687, 219.4 681.7 C 223.5 673.8, 215.3 663.9, 205.8 665.5 C 202.6 666.1, 201.9 665.9, 202.2 664.9 C 202.5 664, 204.6 663.4, 208.1 663.2 C 216.7 662.8, 224 670.1, 224 679.4 L 224 682.8 230.5 683.2 C 234.1 683.4, 237.6 684.2, 238.2 684.9 C 239.6 686.4, 229.8 685.6, 225.4 684 C 223.2 683.1, 218.9 686.2, 220.2 687.6 C 220.5 687.9, 226.9 687.7, 234.3 687.2 C 247.6 686.3, 248 686.2, 252.2 682.9 C 257.6 678.7, 258 678.2, 258 674.6 C 258 668.8, 249.5 659.5, 246.4 662 C 245.2 663.1, 245 662.6, 245 659.3 C 245 655.6, 245.2 655.3, 247.4 655.7 C 249.1 656.1, 250.3 655.4, 251.9 653.2 C 255.8 647.7, 253.9 638.6, 247.8 633.5 C 243.9 630.2, 234.7 630.2, 231 633.5 C 228.4 635.8, 228.4 637.4, 231 636 C 234.5 634.2, 240.3 636.9, 242.8 641.6 C 244.3 644.4, 245.5 655, 244.1 653 C 243.5 652.2, 243.3 650.7, 243.6 649.8 C 244.2 647.7, 243.1 647.5, 239.5 649.2 C 236 650.8, 235.4 649.6, 237.9 646.4 C 241.5 641.8, 236.6 637.3, 229 638.3 L 224.9 638.8 225.4 635.2 C 226.2 630.3, 225.3 629.1, 219.9 628.4 L 215.3 627.8 213.2 632.8 C 212 635.6, 211 638.3, 211 638.9 C 211 640.2, 203.9 646, 202.2 646 C 201.1 646, 201 646.7, 201.6 648.8 C 202.8 652.8, 202.6 659.8, 201.2 661.2 C 200.3 662.1, 200 661.4, 200 657.5 C 199.9 649.9, 198.2 647.7, 191.5 646.5 C 183.3 645.1, 184.2 643.6, 193.7 643 C 204.8 642.2, 208.1 639.1, 209.6 628.2 C 210.2 623.3, 210.1 623, 207.6 622 C 206.2 621.5, 205 620.7, 204.9 620.3 C 204.5 614.7, 203.9 612.8, 202 610.2 C 198.7 605.8, 195.2 604.5, 191.4 606.5 C 187.7 608.4, 184 608.5, 184 606.5 C 184 605.7, 184.7 605, 185.5 605 C 187.3 605, 192 602.2, 193.7 600 C 195.4 597.9, 195.3 593.9, 193.5 591.3 C 192.5 589.9, 192.4 588.9, 193 588.5 C 194.7 587.5, 194.2 578.1, 192.3 574.9 C 187.9 567.6, 176.3 566.2, 169.5 572.2 C 167.6 573.8, 165.9 575, 165.9 574.9 C 165.8 574.7, 165.7 572.3, 165.6 569.6 C 165.5 566.1, 164.9 564.4, 163.5 563.4 C 161 561.6, 156.6 561.6, 155 563.5 C 153.3 565.6, 151.7 565.4, 147.4 562.5 C 143.1 559.6, 138.5 559.3, 135 561.7 M 597.5 564.8 C 597.2 565.1, 597 566.1, 597 567.1 C 597 568, 596.1 569, 594.9 569.3 C 593.4 569.7, 593 570.4, 593.4 571.8 C 593.8 573, 593.2 574.7, 591.9 576.4 C 590.7 577.9, 590 579.3, 590.3 579.6 C 590.6 579.9, 591.8 578.7, 593 577.1 C 595.7 573.3, 596.2 573.3, 597.8 577 C 598.6 578.7, 599.8 580, 600.6 580 C 602.4 580, 602.4 578.6, 600.4 574.4 C 598.7 570.8, 599.2 568.8, 601.2 570.8 C 602.4 572, 606 570.7, 606 569.1 C 606 568, 598.2 564.1, 597.5 564.8 M 716.5 577.7 C 709 579.6, 704.9 589.4, 708.5 596.4 C 710.5 600.1, 710.6 599.8, 705.5 602 C 702.5 603.3, 700.3 605.2, 698.5 607.9 C 695.7 612.4, 693 613.1, 689.2 610.4 C 686.6 608.6, 685.7 608.9, 686.6 611.3 C 687.3 613.3, 692.6 615.1, 696.5 614.6 C 698.9 614.3, 699.6 613.7, 700.1 611 C 701.1 606.5, 704 604, 708.9 603.3 C 713.5 602.7, 713.7 602.1, 711 596.5 C 708.1 590.6, 708.5 588.3, 712.9 583.9 C 718.8 578, 729 579, 729 585.5 C 729 586.8, 729.5 588.2, 730 588.5 C 731.2 589.2, 731.4 583.1, 730.2 581.4 C 727.7 577.8, 722.2 576.3, 716.5 577.7 M 140 586.7 C 137.2 587.7, 135 590.3, 135 592.6 C 135 596.1, 136.6 596.3, 138 593 C 140.5 587, 148.2 588.3, 150.4 594.9 C 151.9 599.5, 154 600.1, 154 596 C 154 589.2, 146.6 584.3, 140 586.7 M 587.4 594.7 C 583.6 595.4, 580.6 599.4, 582.1 601.8 C 584 604.8, 582.4 605.7, 579.7 603.2 C 576.8 600.5, 572.9 600.4, 571.2 603 C 570.3 604.4, 568.9 605, 566.1 605 C 563.6 605, 562 605.5, 561.6 606.5 C 560.8 608.7, 559 608.3, 559 606 C 559 602.6, 551.9 603.3, 547.5 607.1 C 541.5 612.4, 543.3 620.9, 550.5 621 C 552.5 621.1, 556 623.2, 556 624.4 C 556 625.5, 551.6 625, 549 623.5 C 544.4 620.9, 541.5 622.8, 538 630.5 C 536.1 634.5, 536.1 634.5, 536.1 631.5 C 536 629.9, 536.7 627.3, 537.4 625.8 C 539.1 622.5, 537.8 622.1, 534.1 624.6 C 528.9 628.3, 527.9 635.1, 531.5 642.5 C 533 645.5, 533.7 648.4, 533.4 650 C 532.9 652.2, 533 652.3, 534 650.7 C 534.7 649.6, 536.8 648.2, 538.7 647.3 L 542.2 645.9 540.1 643.8 C 536.9 640.9, 538.1 640.6, 543.4 643.2 C 548.2 645.5, 549.3 647, 546.3 647 C 543.9 647, 534.5 654.2, 534.5 656 C 534.5 656.8, 535.7 658.1, 537.3 658.8 C 540.8 660.5, 540.7 661.8, 537 663.2 C 533.6 664.3, 530 670.5, 530 675.2 C 530 678.4, 527.6 680, 523.1 680 C 520.2 680, 520 680.3, 520 683.4 C 520 685.6, 520.6 687.1, 521.8 687.6 C 523.9 688.6, 557 689.1, 557 688.1 C 557 686.2, 554.6 685.1, 552.7 686.2 C 548.5 688.4, 541.8 686.5, 537.8 682 C 534.1 677.9, 533 675, 535 675 C 535.6 675, 536 675.6, 536 676.4 C 536 677.2, 537.6 679.2, 539.7 681 C 542.9 683.8, 543.8 684.1, 547.2 683.6 C 551.8 682.8, 556 680.4, 556 678.4 C 556 675.6, 559 677, 559.1 679.8 C 559.2 682.2, 559.3 682.1, 559.9 679.1 C 560.6 675.1, 563 673.6, 563 677.2 C 563 678.5, 563.6 680.5, 564.4 681.5 C 565.7 683.4, 565.9 683.3, 569.3 680.7 C 571.3 679.2, 573.6 678, 574.5 678 C 575.4 678, 577.3 677.1, 578.7 676 C 583 672.6, 584.8 673.6, 581.2 677.3 C 576.3 682.4, 581.1 684.9, 589.7 681.8 C 593.6 680.4, 593.6 680.1, 591 675 C 588.8 670.7, 588.5 667.8, 590 665 C 591 663.1, 596.3 660, 598.7 660 C 599.6 660, 600 658.6, 600 655.3 C 600 652.5, 600.6 650, 601.6 648.9 C 603 647.4, 602.8 647, 599.9 644.9 L 596.7 642.6 592.1 644.5 C 589.3 645.6, 584.9 646.4, 580.7 646.4 C 575.3 646.5, 573.6 646.9, 572.5 648.3 C 570.4 651.2, 565.9 650.1, 563.5 646.3 C 562.4 644.5, 560.9 643.1, 560.2 643 C 557.7 643, 553.1 646.3, 552.8 648.4 C 552.5 650.7, 550.9 651, 550 648.9 C 549.6 648.1, 548.4 645.6, 547.2 643.3 C 544.7 638.6, 544.1 629, 546.3 629 C 547.1 629, 547.5 630.8, 547.5 634.5 C 547.5 641.9, 550.1 644.9, 554.6 642.5 C 557.9 640.8, 562 640.5, 562 642 C 562 643.3, 566.1 647, 567.7 647 C 568.4 647, 571.2 646, 573.8 644.7 C 578.1 642.6, 578.9 642.5, 580.7 643.7 C 582.6 645, 583.4 644.9, 587.4 643.1 C 589.9 641.9, 593.5 641, 595.4 641 C 597.3 641, 599.2 640.5, 599.6 639.8 C 600.1 639.1, 600.7 639.3, 601.7 640.6 C 603 642.3, 603.2 642.3, 605.9 640.7 C 609.2 638.8, 611 638.5, 611 640 C 611 640.6, 610.5 641, 610 641 C 609.4 641, 608 641.9, 606.9 642.9 L 604.8 644.8 606.9 645.5 C 609.8 646.4, 609.5 647.5, 605.9 650.1 C 603 652.1, 602.9 652.5, 603.5 657 L 604.2 661.8 599.6 662.4 C 594.5 663.2, 592 665.1, 592 668.1 C 592 670.7, 596 680, 597.1 680 C 597.6 680, 598 680.7, 598 681.5 C 598 682.3, 598.9 683, 600 683 C 601.3 683, 602 682.3, 602 681.1 C 602 678, 603.4 677.9, 609.4 680.5 C 616.4 683.6, 617.6 683.6, 615.6 680.8 C 614.7 679.6, 614 677.4, 614 676.1 C 614 673.7, 614.1 673.7, 617.4 677.3 C 619.2 679.3, 621.6 681, 622.7 681 C 625.5 681, 629 678.2, 628.4 676.5 C 627.6 674.4, 631.4 674.5, 633.4 676.6 C 635.5 678.7, 635.4 680.1, 633.3 679.4 C 631.8 678.9, 631.7 679, 633 679.9 C 636.2 682.2, 641.7 681.2, 643 678.1 C 645.6 671.8, 647.1 671.5, 652 676.5 C 655.9 680.5, 656.9 681, 660.8 681 C 666.6 681, 673.5 677.6, 675 673.9 C 676.7 669.9, 676 666.4, 673.5 666.7 C 670.8 667, 666.2 665.2, 662.3 662.2 C 659.8 660.3, 658.7 660.1, 657.1 660.9 C 650.2 664.7, 639.9 659.1, 638.3 650.7 L 637.4 646.5 631.5 645.8 C 613.6 643.7, 614.6 644.1, 612.8 640.3 C 610.5 636, 610.5 627.9, 612.7 623.2 C 614.1 620.4, 614.1 619.5, 613.1 619.2 C 611.4 618.6, 608.4 615.7, 607.9 614.1 C 607.4 612.6, 604 613.8, 604 615.5 C 604 617.9, 600.4 620.2, 599.1 618.6 C 598.2 617.5, 598.9 616.5, 603 613.5 C 607.3 610.4, 608 609.4, 608 606.4 C 608 599, 597.1 592.8, 587.4 594.7 M 558.5 595.9 C 557.4 596.4, 555.4 598, 554.1 599.4 L 551.7 602 560.9 602 C 568.3 602, 570.2 601.7, 570.7 600.4 C 572 596.9, 563.5 593.7, 558.5 595.9 M 743.5 597.1 C 742.7 598.3, 743.7 603, 745.2 604.7 C 747.6 607.7, 754 604.8, 754 600.7 C 754 597.3, 745.2 594.2, 743.5 597.1 M 168.6 606.8 C 168.3 607.4, 168.4 608.1, 169 608.5 C 170.5 609.4, 170.2 614.3, 168.5 616.7 C 165.6 620.9, 160.4 621.5, 152.5 618.4 C 150.7 617.8, 150.8 618, 152.9 620.3 C 158.7 626.6, 173 621.8, 173 613.5 C 173 609.9, 169.8 604.9, 168.6 606.8 M 659.3 610.7 C 656 611.3, 653.7 615.6, 654.5 619.6 C 655.2 623.7, 654.2 623.9, 650.2 620.5 C 646.5 617.4, 646 617.4, 646 620.3 C 646 624.5, 647.4 625.4, 652.6 624.6 C 658.5 623.8, 658.7 623.6, 657.2 619.8 C 655.9 616.2, 656.8 614.4, 660.7 612.9 C 662.8 612.1, 664.1 609.8, 662.3 610.1 C 661.8 610.2, 660.5 610.5, 659.3 610.7 M 570.7 621.8 C 569.7 622.8, 569 624.7, 569 626.1 L 569.1 628.5 570.6 625.8 C 573.6 620.2, 583 623.6, 583 630.4 C 583 632.9, 578.9 638, 576.9 638 C 576.4 638, 576 638.5, 576 639 C 576 642.7, 584.4 636.1, 585.6 631.5 C 587.5 623.8, 575.8 616.2, 570.7 621.8 M 479.6 625.8 C 479.4 626.2, 479.5 627.2, 480 628 C 481.7 630.8, 479.8 632.1, 477.8 629.4 C 474.3 625, 468.3 627.7, 462.6 636.3 C 458.2 642.9, 458.2 644, 462.1 649.6 C 465.9 655.2, 465.2 656.4, 458.7 655.6 C 454.3 655, 453.3 655.2, 449.8 657.6 C 446.4 660, 445.6 660.2, 443.8 659.1 C 440.6 657.1, 437.3 659.9, 436.5 665.4 C 435.7 670.6, 436.7 672.8, 441.7 676.7 C 447.5 681.2, 448.4 681.3, 452.1 677.4 C 456.2 673.1, 456.8 673.2, 461.1 677.6 L 464.5 681.3 460.2 678.9 C 455.2 676.2, 453.7 676.7, 450.6 682 C 448.6 685.3, 448.6 685.4, 450.6 684.5 C 451.6 684, 456.9 683.4, 462.3 683.2 L 472.1 682.9 469.6 679.5 C 464.9 673.4, 466.3 664.1, 471.6 665.4 C 475 666.3, 475.8 666.3, 483 665.4 C 488.6 664.8, 494.8 667.5, 492.7 669.6 C 492.3 670.1, 491.5 669.9, 491.1 669.1 C 490.6 668.4, 488.5 667.6, 486.3 667.3 C 482.9 666.9, 482 667.1, 480.3 669.4 C 477.8 672.5, 477 672.7, 477 669.9 C 477 668.2, 476.5 667.9, 473.3 668.2 C 468.6 668.6, 467.5 672.8, 471 677.3 C 473.8 680.8, 474.8 680.7, 475.8 676.8 C 476.8 672.7, 481 671.3, 485.6 673.5 C 490.5 675.8, 491.5 677.5, 490.3 681.5 C 488.9 685.8, 489.2 686, 495.8 686 C 501.1 686, 501.2 685.9, 499.7 684.2 C 497.1 681.3, 499.1 680.7, 501.9 683.5 C 505.1 686.4, 516.3 688.4, 516 685.9 C 515.2 680.6, 518.3 677, 523.5 677 C 527.5 677, 528.3 674.8, 525 673 C 522.5 671.7, 523.5 668.6, 526.2 669.3 C 529.9 670.3, 532.3 663.1, 530.6 656.4 C 529.5 652.2, 529.4 650.2, 530.2 648.4 C 532 644.5, 529 641, 523.7 641 C 521.3 641, 518.9 641.5, 518.2 642.2 C 516.3 644.1, 516.8 649.5, 519 651.5 C 520.1 652.5, 521 653.7, 521 654.2 C 521 655.7, 518.3 655, 516.4 652.9 C 514.8 651.2, 513.7 650.9, 509.7 651.3 C 502.1 652, 497.2 658.4, 501.5 662 C 503.1 663.3, 503.6 666, 502.2 666 C 499.8 666, 497.6 663, 497.6 659.6 C 497.6 653.4, 506.7 646.1, 511.1 648.8 C 512.1 649.5, 513.1 650, 513.2 650 C 513.8 650, 513.2 639.1, 512.5 638.1 C 511.7 636.6, 506.3 636.7, 505.8 638.1 C 505.3 639.5, 501 637.5, 501 636 C 501 635.4, 500.3 635, 499.5 635 C 498.4 635, 498.1 634.3, 498.6 632.6 C 499.7 628.2, 492.2 625.1, 489.4 628.8 C 488.2 630.4, 488.1 630.4, 488 628.4 C 488 625.5, 481.1 623.4, 479.6 625.8 M 752.2 628 C 749.9 629.6, 748 631.4, 748 631.9 C 748 633.1, 750.9 636, 752 636 C 752.5 636, 753.4 636.9, 754 638 C 754.9 639.7, 754.7 640.2, 752.6 640.9 C 751.3 641.5, 749.9 642.3, 749.6 642.9 C 748.6 644.4, 753.9 648, 757.1 648 L 760 648 760.2 638 C 760.2 632.5, 760.3 627.4, 760.4 626.8 C 760.6 624.3, 756.4 625, 752.2 628 M 726.6 632 C 724.6 635.4, 722.5 642.5, 721.5 649 C 720.1 657.8, 717.7 658.1, 713 650.3 C 707.8 641.4, 701.7 634.7, 700.7 636.6 C 700.2 637.5, 700.6 639.3, 702.1 641.7 C 705.7 647.5, 711.7 660.3, 712.4 663.7 C 712.8 665.4, 712.4 671, 711.6 676.2 C 710.8 681.3, 709.8 688, 709.5 691 C 708.5 700.1, 706.8 706.1, 705.3 705.6 C 704.5 705.2, 704 705.9, 704 707.3 C 703.9 709.4, 703.9 709.5, 702.5 707.6 C 701.5 706.3, 701 706.1, 701 707 C 701 708, 700.5 707.9, 699.1 706.6 C 697.3 705, 697.1 705, 696.2 706.6 C 695 708.8, 693.4 707.7, 691.5 703.2 C 687.8 694.7, 686.3 692.5, 681.5 688.7 C 677.9 685.8, 677.2 684.9, 679 685.5 C 682.3 686.4, 690.9 694.9, 691.7 697.8 C 692.2 699.8, 694 701, 694 699.3 C 693.9 694.5, 683.4 683.9, 677.5 682.6 C 675.6 682.2, 675 682.3, 675.8 682.8 C 676.9 683.5, 676.8 683.9, 675.5 684.4 C 674.5 684.7, 673.1 684.5, 672.4 683.9 C 671.7 683.3, 670.5 683.2, 669.8 683.7 C 669.1 684.1, 665.6 684.8, 662 685.1 L 655.5 685.7 663.1 685.7 C 677.2 685.7, 687.1 693.4, 689.4 706.3 C 690.2 710.9, 688.4 711.4, 686.9 707 C 685.6 703.3, 683.5 702.9, 684.4 706.5 C 685.4 710.5, 684.1 711.3, 681.5 708.2 L 679.1 705.5 679.7 708 L 680.3 710.5 677.9 708.5 C 676.6 707.4, 674.4 705.9, 673 705.1 L 670.6 703.7 672.4 706.4 C 674.8 710.2, 674 711.6, 670.8 709.1 C 668.9 707.6, 668.1 707.3, 667.7 708.2 C 667.4 709.2, 667 709.2, 665.8 708.2 C 663.6 706.5, 660.8 707.7, 661.5 710.1 C 662.2 712.3, 659.5 712.9, 658.7 710.8 C 658.4 710.1, 658.1 710.6, 658.1 711.9 C 658 713.6, 657.6 714.1, 656.4 713.6 C 655.5 713.2, 654.2 713.4, 653.6 713.9 C 652.5 714.7, 642 716.7, 633.3 717.7 C 628.1 718.3, 627.7 719.8, 632.5 720.2 C 637.5 720.6, 637.3 722.1, 632 723.7 C 629.5 724.5, 626.8 725.4, 626 725.7 C 622.2 727.2, 608.9 729.3, 608.2 728.5 C 607.3 727.7, 608.7 726.8, 612.2 726.1 C 615.1 725.4, 614.7 725.3, 608.8 724.6 C 605 724.2, 602 723.4, 602 722.8 C 602 721.4, 620 722.6, 621.4 724 C 622.6 725.2, 625 725.3, 625 724.2 C 625 723.4, 619.5 721.5, 607.8 718 C 605.7 717.3, 604 716.6, 604 716.3 C 604 714.9, 616.2 717.5, 621.4 720.1 C 624.7 721.7, 628 723, 628.9 723 C 629.8 723, 628.3 721.8, 625.5 720.4 C 622.8 719, 620.1 717.5, 619.5 717 C 619 716.6, 615.8 715.7, 612.6 715.1 C 604.3 713.6, 604.2 712.6, 612.5 713.3 L 619.4 713.8 616 712.2 C 612.8 710.8, 612.7 710.6, 614.8 710.3 C 616 710, 618.7 710.9, 620.8 712.1 C 628.9 717.1, 629.4 717.2, 625.1 713.1 C 620.4 708.6, 620.1 706.8, 624.7 709.6 L 627.5 711.4 625.5 709.2 C 624.3 707.7, 622.9 707.1, 621.5 707.4 C 620.4 707.7, 618.9 707.5, 618.1 707.1 C 614.3 704.7, 627.5 704.9, 634.8 707.3 C 638.7 708.6, 642 709.6, 642 709.5 C 642 709.4, 640.3 707.5, 638.3 705.3 C 636.2 703.1, 633.6 700.2, 632.5 698.9 C 630.5 696.5, 630.4 696.5, 610.9 696.5 C 593.5 696.5, 591 696.7, 589.3 698.3 C 587 700.3, 585.7 699.5, 587.1 696.9 C 588.3 694.5, 588.2 694.6, 582.5 697 L 577.8 699 578.4 696.3 L 579.1 693.5 577.5 695.8 C 576.6 697.1, 575.1 698, 574.2 697.8 C 573.2 697.6, 571.7 698.4, 570.8 699.5 C 569.1 701.5, 569.1 701.5, 569 698.7 C 569 697.1, 568.6 696.2, 568 696.5 C 567.5 696.8, 566 696.4, 564.6 695.5 C 562.2 693.9, 562.2 694, 562.7 696 L 563.3 698.2 559 696 C 556 694.5, 552.4 693.7, 546.6 693.4 C 535.8 692.9, 505.3 691.1, 496.5 690.5 C 492.7 690.2, 483.4 689.6, 476 689.1 C 464 688.3, 387.6 688.3, 379.3 689.2 C 377.5 689.4, 376 689.1, 376 688.5 C 375.9 687.2, 388 685.3, 401.4 684.7 C 415.6 684, 416.2 683, 402.4 683 C 391.2 683, 380.1 684.2, 350.5 688.7 C 338.5 690.5, 331.3 691.1, 326.2 690.7 C 321.9 690.4, 319.2 690.5, 319.5 691.1 C 319.9 691.6, 321.5 692, 323.1 692 C 324.9 692, 325.9 692.4, 325.5 693 C 325.1 693.6, 316 693.8, 299.7 693.3 L 274.5 692.7 270.2 695.3 C 264.6 698.9, 262.3 698.8, 267.7 695.2 L 271.9 692.4 247.2 692.1 C 233.6 692, 214 692.4, 203.6 693.1 C 186.2 694.3, 184.7 694.3, 183.5 692.7 C 182.3 691, 179 690.3, 179 691.8 C 179 692.2, 179.5 693.1, 180.2 693.8 C 181.1 694.7, 180.8 695, 178.6 695 C 176 695, 175.8 694.8, 176.5 692.3 L 177.2 689.6 174.9 691.5 L 172.7 693.5 173.2 690.8 C 173.7 687.9, 173.1 687.9, 167.5 691 C 165.8 692, 162.9 692.6, 161 692.5 C 159.1 692.4, 154.9 692.3, 151.6 692.2 C 146.9 692, 145.9 691.7, 146.4 690.5 C 146.7 689.7, 146.5 689, 146 689 C 145.4 689, 145 689.4, 145 690 C 145 690.5, 143.9 691.2, 142.5 691.6 C 140.1 692.2, 132.5 699.8, 131.1 703 C 130.8 703.8, 127.9 708.4, 124.8 713.2 C 118.1 723.2, 117.3 725.3, 122.8 718.3 C 129.1 710.4, 136.4 704.2, 136.8 706.3 C 137.3 708.8, 134.6 712.6, 130.2 715.4 C 122 720.7, 117.2 729.6, 116.6 740.7 C 116.5 742.4, 116.2 744.1, 115.8 744.5 C 115.5 744.9, 115.4 739, 115.7 731.4 C 116.1 721.4, 115.9 717.9, 115.1 718.4 C 114.5 718.8, 114.2 720.1, 114.5 721.3 C 114.8 722.5, 114.6 725.1, 114.1 727 L 113.2 730.5 113.1 726.3 C 113 723.9, 112.6 722, 112.1 722 C 111.6 722, 111.4 724.1, 111.6 726.8 C 112.3 733.4, 112.1 737.3, 111 738.4 C 110.3 739.1, 109.9 737.7, 108.5 728.5 C 108.4 728, 108.2 726.2, 108 724.5 L 107.8 721.5 107 724.5 C 106.6 726.2, 106.2 729.3, 106.1 731.6 C 106 736.5, 103.9 739.9, 102.3 737.8 C 101.7 737.1, 100.3 734, 99.2 731 C 94.5 718.5, 89.2 706.9, 88.8 708.1 C 88.5 708.9, 88.8 710.6, 89.5 712 C 94 721.1, 99.3 743, 97.1 743 C 95.5 743, 89 735.2, 89.4 733.9 C 90 732.4, 88.3 729.2, 78.3 713 C 74.8 707.5, 71.7 701.8, 71.4 700.5 C 71.1 699.1, 70.4 697.7, 69.9 697.4 C 69.4 697.1, 69 696.2, 69 695.3 C 69 693, 62.8 683.1, 53.2 670 C 41.3 653.8, 40.5 653, 35.5 653 C 31.8 653, 31.2 652.7, 29.7 649.6 C 28.2 646.3, 27.9 646.2, 21.3 645.8 C 13.4 645.4, 13.3 645.4, 15 647.5 C 17.2 650.1, 23.1 652.7, 28.5 653.5 C 37 654.6, 42.1 657.8, 45.7 664 C 47.5 667, 50.2 671.3, 51.9 673.5 C 55 677.7, 62.9 692.3, 64.8 697.5 C 70 711.7, 71.3 714.5, 73.3 715.9 C 80.3 720.8, 90.2 732.2, 88.7 733.7 C 88.4 734, 85 731.3, 81.3 727.7 C 72.2 719, 68.4 715.9, 67.6 716.7 C 66.5 717.9, 67 718.9, 69.1 719.5 C 73.9 721.1, 90.9 740, 87.4 740 C 87.1 740, 83.4 736.5, 79.2 732.2 C 70.1 723, 67 720.9, 67 724 C 67 725.2, 68.5 726.9, 71.3 728.6 C 75.8 731.5, 88 743.4, 88 745 C 88 746.8, 86.4 746, 82.9 742.4 C 81.1 740.4, 76.2 736.4, 72.3 733.4 C 65.6 728.4, 65 727.7, 65 724.3 L 65 720.7 62.7 722.8 C 60.3 725.1, 58.4 725.8, 59.5 724 C 59.8 723.5, 59.4 721.6, 58.6 719.8 C 57.8 718, 56.4 712.5, 55.5 707.5 C 53 693.3, 53 693, 50.7 691.9 C 49.1 691, 48.4 691.1, 47.6 692.1 C 46.8 693.2, 43.6 693.5, 35 693.5 C 23 693.5, 11.3 694.6, 9.2 695.9 C 8.2 696.5, 7.8 704.7, 7.3 729 L 6.7 761.3 13.1 760.6 C 26.5 759, 122.7 758.2, 290.5 758.3 C 386.2 758.4, 530.4 758.3, 611 758.1 C 691.6 757.9, 758.3 758.1, 759.3 758.5 C 760.9 759.2, 761 757.8, 761 737.1 C 761 724.9, 760.7 715, 760.3 715 C 759.8 715, 758.6 715.7, 757.6 716.5 C 755.1 718.4, 750.6 718.5, 751.3 716.7 C 751.6 716, 751.2 714.7, 750.5 713.7 C 749.4 712.1, 749.2 712.2, 747.5 714 C 743.3 718.6, 741.8 715.8, 745.1 709.5 L 747.2 705.5 744.9 707.6 C 741.7 710.4, 737.9 710.5, 735.8 707.7 L 734 705.5 734 707.8 C 734 712.7, 728.8 708.6, 724.6 700.3 C 718.9 689.1, 720.6 661.3, 727.1 659.1 C 728 658.8, 727.9 659.5, 726.6 661.4 C 725.6 662.9, 725.1 664.4, 725.3 664.7 C 725.6 665, 727.1 663.2, 728.6 660.8 C 730 658.5, 732.2 655.5, 733.3 654.3 C 736.3 650.9, 734 651.5, 730.2 655.1 C 728.5 656.7, 726.5 657.8, 725.9 657.4 C 724.4 656.5, 725.6 642.5, 727.7 635.2 C 729.4 629, 729.1 627.9, 726.6 632 M 305 646.5 C 305 647.3, 304.2 648, 303.2 648 C 300.7 648, 299 650, 299 653 C 299 655.9, 306.1 661.6, 308.6 660.6 C 310.7 659.8, 309.7 658.5, 305 655.9 C 300.4 653.3, 300.1 652.4, 303.5 650.8 C 306.4 649.5, 311.3 651.2, 313.4 654.2 C 314.4 655.6, 315 655.8, 315.5 655 C 316 654.3, 314.3 652.1, 311.4 649.4 C 306.3 644.7, 305 644.1, 305 646.5 M 8 668.8 L 8 692.1 10.8 690.7 C 12.8 689.6, 17.6 689.3, 29.2 689.4 C 37.9 689.4, 45 689.4, 45 689.3 C 45 688.7, 38.1 686.1, 35.1 685.5 C 32.8 685, 32 685.1, 32.4 685.9 C 32.9 686.6, 32.1 686.8, 30.1 686.4 C 28.2 686, 26.1 686.4, 23.9 687.6 C 21.5 689, 20.6 689.2, 20.3 688.3 C 20 687.6, 18.3 687, 16.3 687 C 13 687, 9.1 684.6, 10.4 683.3 C 10.7 683, 13.8 683.2, 17.2 683.7 C 25.1 685, 31.1 684.4, 30.3 682.4 C 29.7 680.8, 32.1 680.5, 33.6 681.9 C 34.5 682.8, 37.9 683.3, 41.5 683.1 C 43.4 682.9, 43.4 682.9, 41.2 681 C 40 680, 38.4 678.9, 37.7 678.7 C 36.8 678.3, 36.9 677.9, 38 677.1 C 39.8 675.9, 41.3 675.7, 40.6 676.8 C 40.4 677.2, 41.9 677.5, 44 677.5 C 48.8 677.5, 48.7 675.6, 43.5 667.5 C 38.9 660.4, 37.5 659.4, 28 657 C 17.8 654.3, 15.4 653.2, 11.2 648.9 L 8 645.6 8 668.8 M 740.3 651.3 C 735.7 656.2, 732 661.7, 732 663.7 C 732 665.3, 741.9 672.2, 746.9 674.1 L 751.9 676 751.4 673.1 C 750.7 669.5, 752.4 668.3, 755.6 670.1 C 758.3 671.5, 758.8 673, 756.5 673 C 755.7 673, 755 673.9, 755 675 C 755 676.6, 755.7 677, 758 677 C 761.4 677, 761.6 676, 760.3 660.2 C 759.7 652.4, 759.5 651.8, 757.1 650.8 C 755.7 650.3, 752.7 649, 750.5 647.9 C 745.3 645.4, 746.1 645.2, 740.3 651.3 M 261 651.3 C 259.1 651.9, 256.9 653, 256 653.8 C 255.2 654.5, 253.4 655.9, 252.1 656.9 L 249.7 658.7 253.4 660.9 C 257.3 663.4, 262 670.4, 262 673.9 C 262 677.3, 259.4 681.5, 255 685.1 L 251 688.5 264.5 688.4 C 277.1 688.3, 278.2 688.1, 279.9 686.1 C 282.2 683.5, 289.6 681.8, 288.8 684.1 C 288.5 684.9, 287.5 685.4, 286.6 685.2 C 285.6 685, 284.2 685.4, 283.4 686.1 C 281.1 688, 283.7 689.1, 289 688.5 C 291.5 688.2, 296.4 687.8, 300 687.5 C 308.5 687, 311 686.1, 311 684 C 311 682.2, 307.7 680.9, 305.2 681.8 C 303.4 682.4, 303.8 685, 305.8 685.1 C 306.8 685.1, 307 685.4, 306.2 685.7 C 303.9 686.6, 299.7 683.1, 301.1 681.4 C 301.7 680.6, 302.9 680, 303.6 680 C 305.8 680, 305.2 676.9, 303 676.3 C 301.5 675.9, 301.2 675.2, 301.6 673.4 C 302.4 670.4, 300.7 668.3, 296.2 666.4 C 292 664.7, 291.5 665, 291.6 670.1 C 291.7 673.4, 291.4 674, 289.7 674 C 288.1 674, 287.9 673.7, 288.8 672.8 C 290.2 671.4, 290.3 667.1, 289 665 C 288.2 663.7, 287.6 664, 285.5 666.5 L 282.9 669.5 283.5 665.9 C 284.1 661.7, 282.8 660.7, 278 661.7 C 274.6 662.3, 274.3 661.5, 276.7 658.1 C 278.3 655.8, 278.2 655.6, 275.2 652.8 C 271.7 649.7, 267.4 649.3, 261 651.3 M 61.8 653.7 C 57.4 655.5, 56.8 658.5, 59.7 664.5 C 61.6 668.5, 63 668.9, 64.9 665.9 C 66.2 663.7, 65.7 662.8, 62.7 661.7 C 61.6 661.3, 63 656, 64.2 656 C 64.7 656, 64.9 657.3, 64.5 659 C 63.9 661.6, 64.1 662, 65.9 662 C 67.7 662, 68 661.4, 68 658.1 C 68 652.9, 66.5 651.8, 61.8 653.7 M 82.1 655.1 C 79.9 656, 79.8 656.4, 80.3 661.5 C 81 668.5, 81.7 669.6, 84 667.5 C 85.1 666.5, 86 666.3, 86.4 666.9 C 86.8 667.4, 86.6 668.1, 86 668.5 C 84.6 669.4, 84.7 671, 86.3 671 C 86.9 671, 89.5 672.4, 92 674.1 C 97.6 677.9, 107.5 678.1, 107.5 674.5 C 107.5 673.1, 108.2 672.6, 109.5 672.7 C 113.3 673.1, 121.7 668.4, 122.4 665.5 C 123.9 659.8, 121.5 657.5, 117.7 661.1 C 113.5 665, 108 667.2, 104.1 666.5 C 98.1 665.4, 92.3 662.4, 90.3 659.3 C 87.1 654.3, 85.8 653.6, 82.1 655.1 M 700.9 657.6 C 697 661.8, 691 664.4, 684 665 L 677.5 665.5 681.8 667.8 C 685.3 669.6, 686 669.8, 686 668.5 C 686 666.8, 687.7 667, 695.5 669.6 C 697.7 670.3, 701.4 671.1, 703.8 671.3 L 708 671.7 708 667.3 C 708 663.2, 705.8 656.6, 704 655.5 C 703.6 655.3, 702.2 656.2, 700.9 657.6 M 726.2 670.5 C 725.5 671.9, 725 677, 725 681.8 L 725 690.5 726.9 686.4 C 728.8 682.3, 731 679.9, 731 682 C 731 682.6, 730.4 684.4, 729.6 685.9 C 728.8 687.4, 727.8 691.1, 727.5 694.1 L 726.9 699.5 729.3 694.7 C 731.3 690.8, 735.3 686, 736.6 686 C 736.8 686, 735.8 688.2, 734.5 690.9 C 733.1 693.6, 731.8 697.1, 731.6 698.7 C 731.4 700.2, 731.5 700.8, 731.7 700.1 C 732.6 697.6, 736.6 691.6, 738.9 689.6 C 741.5 687.2, 741.5 687.3, 738.5 694.8 C 737.1 698.2, 736 701.4, 736 702 C 736 703.8, 737.6 703, 739 700.5 C 739.7 699.1, 740.9 698, 741.7 698 C 743.3 698, 743.3 698.8, 741.5 702 C 739.4 705.7, 739.7 706.6, 742.3 704.2 C 744.6 702.1, 746.4 701.5, 750.9 701.8 C 752.5 702, 753 702.5, 752.7 703.5 C 752.2 704.6, 752.7 704.8, 755.3 704.3 C 758.2 703.7, 758.4 703.8, 757.1 705.3 C 755.9 706.8, 756 707, 758.1 707 L 760.5 707 758 709 L 755.5 711 758.3 711 L 761 711 761 697.1 L 761 683.2 756.5 682.6 C 754 682.2, 750.8 681.2, 749.2 680.4 C 747.7 679.7, 746 679, 745.4 679 C 743.5 679, 734.3 673.7, 731.1 670.8 C 727.4 667.4, 727.6 667.4, 726.2 670.5 M 715.7 676.3 C 714.2 690.3, 712.6 699.1, 710.8 703.8 C 708.5 709.6, 708.9 711.3, 711.7 708.1 C 713.6 705.8, 715.2 705.3, 714.4 707.3 C 713.7 709.3, 716.2 711.8, 719.5 712.2 C 723 712.6, 723.3 709.7, 719.9 706.8 C 718.9 705.9, 718 704.4, 718 703.3 C 718.1 702, 719.1 702.7, 721.9 706 C 726.9 711.7, 728 710.7, 724.6 703.6 C 723.2 700.6, 722 697.5, 722 696.8 C 722 696.1, 721.3 693.7, 720.5 691.5 L 718.9 687.5 719.3 694.2 C 719.4 697.9, 719.2 700.6, 718.7 700.3 C 718.3 700, 716.9 700.6, 715.8 701.7 C 713.8 703.5, 713.7 703.5, 714.3 701.5 C 716.5 694.4, 718.7 672, 717.2 672 C 716.7 672, 716 673.9, 715.7 676.3 M 86.6 679.2 C 85.6 680.6, 85 683.7, 85 687.5 C 85 694.3, 84.3 695.9, 81.5 695.9 C 80.4 695.9, 78 696.2, 76.2 696.6 C 72.2 697.4, 72.4 700, 76.9 706.1 C 80 710.5, 81.2 709.6, 82.5 702.2 C 83.2 697.7, 85 697.4, 85.1 701.8 C 85.1 703.3, 85.6 705.4, 86.1 706.5 C 86.9 708.2, 87 708.1, 86.5 705.8 C 86 702.9, 86.9 697, 87.9 697 C 88.5 697, 89.2 698.5, 92.5 706.5 C 93.7 709.6, 94.3 710.1, 95 709 C 95.8 707.8, 96 708, 96 710 C 96 711.4, 97.2 715.2, 98.5 718.5 C 99.9 721.8, 101 725.3, 101 726.2 C 101 727.1, 101.5 728.2, 102.1 728.6 C 103 729.1, 103.1 728.5, 102.6 726.5 C 102.2 725, 101.7 722.4, 101.4 720.6 C 100.2 712.7, 98.6 706.9, 97.3 705.9 C 95.6 704.4, 95.6 702.6, 97.5 699 C 99.5 695.2, 101.1 695.1, 100.4 698.9 C 100 700.6, 100.5 703, 101.5 705 C 102.5 706.8, 103.5 711, 103.8 714.2 C 104.4 721.6, 105.8 720.5, 106.8 711.6 C 107.5 706.3, 108.2 704.3, 110.3 702.2 C 113.4 699.2, 113.6 699.9, 112.1 707.8 C 111.6 710.1, 111.6 712.3, 112.1 712.6 C 112.6 712.9, 113 712, 113 710.6 C 113 707.5, 121.4 696.3, 125.7 693.5 C 127.5 692.4, 128.9 691.3, 129 691 C 129 690.7, 122.9 690.7, 115.5 690.8 C 98.5 691.3, 96.6 690.7, 104 687.4 C 110.8 684.3, 108.2 684.9, 97.2 688.8 C 89.6 691.5, 89 691.6, 90.2 689.8 C 91 688.7, 94.3 686.7, 97.5 685.4 C 103.9 683, 102.2 682.1, 95.5 684.5 C 90.7 686.2, 90.2 685.9, 93.1 683.1 C 94.8 681.5, 95 681, 93.8 681 C 91.9 681, 89 684.2, 89 686.3 C 89 687.2, 88.6 688, 88 688 C 86.2 688, 86.9 682.1, 89 680 C 91.4 677.6, 91.5 677, 89.6 677 C 88.8 677, 87.4 678, 86.6 679.2 M 56 689 C 56 690.9, 56.7 695.8, 57.5 700 C 58.4 704.1, 59.6 710.6, 60.3 714.4 L 61.6 721.2 64.4 717.6 C 66.9 714.3, 67.1 713.5, 66.2 710.2 L 65.2 706.5 65.1 710.3 C 65 712.5, 64.5 714, 63.8 714 C 62.9 714, 62.5 711.6, 62.4 705.7 C 62.4 697.5, 61.1 693, 57.4 687.5 C 56.1 685.7, 56 685.8, 56 689 M 663 690.3 C 661.1 690.9, 659.4 691.4, 659.2 691.5 C 659.1 691.6, 659.7 693.1, 660.7 694.9 C 662.7 698.3, 667.3 699.4, 666.8 696.4 C 666.6 695.3, 667.5 694.4, 669.4 693.7 C 672.7 692.6, 676.3 694.2, 681.7 699.3 C 686 703.4, 687.1 702, 683.3 697.2 C 677.5 690.1, 671 687.8, 663 690.3 M 134.5 691.3 C 125 694.5, 119.3 701.4, 118.3 711 C 118 714.3, 118 717, 118.2 717 C 118.5 717, 120.6 714.2, 122.7 710.8 C 124.9 707.3, 129.3 701.5, 132.5 697.7 C 138.8 690.3, 139 689.8, 134.5 691.3 M 307.7 699 C 306.2 700.2, 305 702, 305 703.1 C 305 705.8, 303.8 705.5, 300.5 702 C 297.4 698.8, 295.4 698.1, 296.4 700.5 C 296.9 701.8, 296.6 701.8, 294.5 700.4 C 293.2 699.5, 291.6 699.1, 291 699.5 C 289.7 700.3, 296.8 705, 302 706.9 C 305.3 708, 305.6 707.9, 307.8 705.3 C 309 703.8, 310.3 701.7, 310.6 700.8 C 311.6 697.4, 313.3 698.9, 312.7 702.6 C 312.1 706, 313.5 710, 315.3 710 C 315.7 710, 317.7 708.8, 319.6 707.3 C 321.7 705.6, 324.2 704.5, 326.2 704.5 C 330.5 704.5, 330.7 702.7, 326.7 700.9 C 323.5 699.5, 323.3 699.5, 320 702.7 C 316 706.4, 315.7 706.3, 315.6 701.2 C 315.5 696.6, 312 695.6, 307.7 699 M 45.6 705.8 C 45.3 706.3, 45.5 708.2, 46 710.1 C 47.5 715.2, 45.8 715.5, 40.8 711 C 33.3 704.5, 32.8 706.2, 39.5 715.6 C 45.6 724.1, 45.2 725.1, 38 718.9 C 34.7 716, 31.7 714, 31.2 714.4 C 30.5 715.1, 42.6 727, 44 727 C 44.4 727, 45.2 728.1, 45.8 729.4 C 46.7 731.4, 46.6 731.9, 44.9 732.3 C 43.9 732.6, 43 733.3, 43 733.9 C 43 735.5, 44.5 735.2, 47.1 733.1 C 49.4 731.2, 49.4 731.1, 47.8 728.3 C 46.9 726.7, 46.4 724.4, 46.7 722.8 C 47 721, 46.6 719.5, 45.6 718.4 C 44.7 717.5, 44.2 716.5, 44.5 716.2 C 45.2 715.5, 50.9 722.1, 51 723.7 C 51 724.3, 50.2 725, 49.3 725.3 C 47.6 725.7, 47.6 725.7, 49.3 726.5 C 52.1 727.7, 54 725.3, 53.3 721.7 C 51.9 714.5, 46.8 703.9, 45.6 705.8 M 290.4 706.1 C 290 706.8, 290.8 708.1, 292.1 709.1 L 294.5 711 292.2 711 C 291 711, 289.7 711.7, 289.3 712.6 C 288.6 714.4, 290.8 716.2, 292.8 715.5 C 293.4 715.3, 294 715.7, 294 716.4 C 294 718.3, 296.8 719.2, 299.1 718 C 301.6 716.6, 301.6 716.8, 297 710.5 C 292.9 704.9, 291.7 704.1, 290.4 706.1 M 198.7 708.7 C 198.3 709, 198 713.4, 198 718.4 L 198 727.4 194.3 723.9 C 188.9 718.8, 185.3 716.8, 182.2 717.2 C 178.5 717.6, 178.8 718.9, 184 725 C 186.5 727.9, 189.6 731.9, 190.9 733.9 C 192.3 735.8, 193.5 736.9, 193.7 736.3 C 194.2 734.9, 192 731.3, 187 725.1 C 185.1 722.6, 184.2 721, 185 721.5 C 187.2 722.8, 191.1 727.6, 194.6 733.2 C 197.7 738.3, 200.2 738, 197.4 733 C 195.4 729.3, 195.7 728.4, 198.1 731.4 C 200.6 734.6, 202.4 733.8, 201.8 729.8 C 201.5 728.2, 201.7 726.7, 202.2 726.4 C 202.6 726.1, 203 726.8, 203 728 C 203 729.2, 203.5 731.1, 204.1 732.2 C 205.1 734.1, 205.3 734, 207.6 730.4 L 210 726.5 209.4 731 C 208.9 735.2, 209 735.6, 211.6 736.7 C 213.1 737.4, 214.4 737.9, 214.5 737.7 C 215.2 736.4, 222.1 728, 225.1 724.8 C 232.9 716.4, 227.3 716.9, 218.3 725.3 C 216.5 727, 215 728.1, 215 727.8 C 215 726.9, 220.2 717.5, 221.6 715.9 C 222.9 714.4, 222.6 713, 220.9 713 C 219.3 713, 213.7 718.6, 212.4 721.5 C 211.1 724.6, 210.8 724.3, 209.6 718.7 C 208.7 714.9, 207.4 716, 206.5 721.2 L 205.8 725.5 204.1 719 C 201.8 710.3, 200.1 707.2, 198.7 708.7 M 512.6 711.6 C 512.3 712.5, 512 716.6, 512 720.8 L 512 728.4 509.1 723.9 C 507.6 721.5, 504.9 718.2, 503.1 716.6 C 498.8 712.5, 499 715.3, 503.4 722 C 505.3 724.8, 507.9 729.2, 509.2 731.6 C 511.9 736.8, 513 737.2, 513 733 C 513 731.4, 513.5 730, 514 730 C 514.6 730, 515 726, 515 720 C 515 710.8, 514.1 707.7, 512.6 711.6 M 139.6 711.8 C 135.8 712.3, 125.4 722.7, 122.3 729 C 117 740.1, 116.6 741.2, 118 742 C 118.7 742.4, 118.9 743.4, 118.5 744.1 C 116.5 747.9, 126.2 736.1, 131 728.9 C 134 724.4, 138.2 718.8, 140.3 716.4 C 144.3 711.9, 144.2 711.2, 139.6 711.8 M 526.8 719 C 524.1 721.8, 521.7 725.4, 521.3 727 C 521 728.7, 520.4 730, 519.9 730 C 518.9 730, 518.7 733.4, 519.7 734.3 C 520 734.7, 521.3 732.8, 522.6 730.2 L 524.9 725.5 524.3 729.8 C 523.9 732.6, 524.1 734, 524.9 734 C 525.5 734, 526 733.4, 526 732.7 C 526 732, 527.8 727.7, 530 723.1 C 532.2 718.6, 534 714.7, 534 714.4 C 534 712.8, 530.9 714.8, 526.8 719 M 146 718.7 C 140.8 722.1, 134.7 728.8, 130.8 735.3 C 126.8 742, 126.3 744.7, 129.7 741.8 C 130.7 741, 132.3 740, 133.2 739.7 C 134.2 739.3, 136.5 736.7, 138.4 733.8 C 140.2 730.9, 143.4 726.5, 145.4 724.2 C 147.4 721.8, 149 719.2, 149 718.4 C 149 716.7, 149.1 716.7, 146 718.7 M 426.7 719.7 C 425.7 720.7, 425.9 728, 426.9 728 C 427.4 728, 428 727.5, 428.2 726.8 C 428.5 725.9, 428.8 725.9, 429.4 726.8 C 429.8 727.5, 429.6 728, 429.1 728 C 428.5 728, 428 728.5, 428 729 C 428 730.5, 431.7 730.2, 433.4 728.5 C 434.2 727.7, 435.5 727.3, 436.3 727.6 C 438.9 728.6, 442.4 726.1, 440.9 724.4 C 439.7 722.9, 438.5 722.9, 434.8 724.5 C 433.2 725.1, 433.1 724.8, 433.6 721.9 L 434.1 718.5 432.2 720.7 C 430.3 722.9, 430.2 722.9, 429.7 721 C 429.2 719, 427.9 718.4, 426.7 719.7 M 536.4 721 C 533.4 722.4, 531.6 724.2, 529.6 728 C 526.7 733.3, 526.7 735.3, 529.5 733 C 530.9 731.8, 531 732, 530.5 734.3 C 529.3 738.9, 531.6 737.3, 536.3 730.3 C 543.6 719.4, 543.6 717.8, 536.4 721 M 495.1 721.3 C 495.2 724, 502.7 734.5, 504.4 734.2 C 505.3 734, 506 734.5, 506 735.2 C 506 736, 506.3 736.1, 507 735.4 C 508.4 734, 505 727.2, 500.9 723.2 C 497.5 719.9, 494.9 719, 495.1 721.3 M 646.6 727.2 C 645.5 727.8, 642.6 728.5, 640.1 728.7 C 634.9 729.2, 632.1 730.8, 634.2 732.2 C 634.9 732.6, 637.3 732.7, 639.6 732.4 C 643 731.9, 644.1 732.2, 646.8 734.5 C 650.3 737.4, 651.2 736.1, 648.4 732.2 C 646.8 729.9, 647.2 728, 649.4 728 C 650.3 728, 650.6 728.9, 650.2 730.5 C 649.6 733.6, 650.7 733.6, 654.5 730.5 L 657.5 728 654.3 728 C 652.6 728, 650.8 727.6, 650.5 727 C 649.7 725.7, 649 725.8, 646.6 727.2 M 149.9 734.1 C 142.9 735.1, 128.4 742.6, 126 746.3 C 124.1 749.5, 125.8 749.5, 130.3 746.3 C 137.6 741, 144.5 738.5, 159.5 735.4 C 162.2 734.8, 162.3 734.7, 160.5 734 C 158.1 733, 157.2 733, 149.9 734.1 M 156.2 738.9 C 148.5 741.5, 140 747.4, 140 750.2 C 140 751.7, 142.4 751, 144.9 748.6 C 148.7 745.1, 153.7 742.1, 152.5 744 C 152 744.8, 150.6 746.3, 149.3 747.3 C 148 748.3, 147 749.8, 147 750.6 C 147 752.8, 149.8 752.2, 151.2 749.7 C 153.4 745.7, 161 739.6, 163.8 739.5 C 165.5 739.5, 166.6 738.9, 166.8 737.8 C 167.3 735.5, 166.1 735.6, 156.2 738.9 M 55.5 738.1 C 55.8 738.6, 58.1 740.1, 60.6 741.6 C 65.7 744.6, 66.2 746, 62 746 C 60.4 746, 59 745.6, 59 745.1 C 59 743.4, 54.4 741.2, 49.2 740.5 C 44.5 739.9, 44 740, 44 741.7 C 44 743.9, 45.8 746, 47.7 746 C 49.7 746, 49.2 744.4, 46.8 743.2 C 44.9 742.2, 45.5 742.1, 50 742.6 C 53 743, 55.6 743.6, 55.8 744 C 57.4 748.2, 64.1 749.8, 67.8 746.8 C 68.6 746.1, 70.3 745.7, 71.6 745.8 C 76.7 746.5, 73.7 743.4, 67.2 741.2 C 55.5 737.2, 54.9 737.1, 55.5 738.1 M 682.5 746.7 C 667 750, 661 751.8, 661 753.1 C 661 754.9, 664.1 755.3, 665.8 753.7 C 666.7 752.9, 670.9 751.7, 675 751.1 C 679.1 750.5, 684 749.5, 685.8 748.9 C 688.4 748, 689.6 748.1, 691.5 749.4 C 694.4 751.3, 698.3 751.5, 697.8 749.8 C 696.9 747.2, 688.2 745.4, 682.5 746.7 M 87 765.1 C 2 765.8, 5 765.7, 5 766.8 C 5 767.7, 760.3 767.3, 762.8 766.5 C 763.4 766.3, 764 765.6, 764 765.1 C 764 764, 215.9 764, 87 765.1" stroke="none" fill="#1b1f3a" fill-rule="evenodd"/></svg>