<svg xmlns="http://www.w3.org/2000/svg" viewBox="0 0 768 768" version="1.1" preserveAspectRatio="xMidYMid meet">
	<path d="M 4.312 5.408 C 3.697 6.506, 3.466 38.759, 3.684 93.322 C 3.873 140.720, 4.264 310.656, 4.554 470.957 C 4.843 631.258, 5.224 762.557, 5.399 762.733 C 5.575 762.908, 21.326 762.593, 40.401 762.032 C 60.479 761.441, 184.440 760.964, 334.792 760.900 C 477.631 760.838, 632.349 760.723, 678.608 760.644 L 762.716 760.500 763.228 747 C 763.509 739.575, 763.461 714.600, 763.120 691.500 C 762.779 668.400, 762.747 585.600, 763.048 507.500 C 763.349 429.400, 763.462 365.313, 763.298 365.083 C 762.166 363.500, 761.879 372.274, 761.312 425.788 C 760.692 484.280, 760.627 485.796, 758.842 483.526 C 755.717 479.554, 748.557 476.028, 742.285 475.372 C 730.415 474.131, 715.523 480.027, 713.543 486.750 C 712.765 489.395, 712.075 490, 709.842 490 C 701.990 490, 696.701 492.168, 691.246 497.623 C 686.585 502.285, 685.600 502.856, 683.844 501.916 C 679.906 499.809, 669 506.815, 669 511.453 C 669 513.263, 668.482 513.474, 664.750 513.184 C 660.194 512.830, 652.872 517.679, 651.517 521.947 C 650.970 523.669, 650.674 523.712, 648.208 522.425 C 635.931 516.020, 621.773 529.948, 629.263 541.063 C 631.919 545.004, 638.301 549.630, 642.358 550.555 C 643.931 550.913, 648.122 552.566, 651.674 554.228 L 658.131 557.250 670.315 556.250 C 677.017 555.701, 683.513 554.917, 684.750 554.509 C 686.830 553.823, 687 554.066, 687 557.737 C 687 562.291, 690.026 566.267, 695.124 568.410 L 698.257 569.727 694.126 572.049 C 691.427 573.566, 689.590 575.492, 688.826 577.605 L 687.656 580.840 684.484 578.420 C 679.887 574.914, 674.700 575.564, 669.293 580.325 C 668.079 581.393, 665.242 582.434, 662.987 582.637 C 657.042 583.173, 653.087 585.589, 651.171 589.856 C 649.565 593.434, 649.372 593.542, 646.198 592.630 C 642.175 591.474, 634.014 593.142, 630.117 595.916 C 626.461 598.520, 622.969 605.900, 622.293 612.454 C 621.793 617.299, 621.422 618.006, 618.927 618.876 C 614.649 620.367, 612.408 616.683, 611.059 605.940 C 610.067 598.040, 608.690 595.915, 602.500 592.728 C 594.253 588.481, 585.328 589.968, 577.773 596.847 L 575.047 599.329 573.008 596.737 C 568.339 590.802, 558.700 591.183, 551.750 597.577 C 549.688 599.474, 548 601.294, 548 601.620 C 548 601.945, 546.866 603.104, 545.480 604.194 C 541.960 606.963, 540 611.189, 540 616.009 C 540 618.269, 539.598 619.869, 539.106 619.566 C 537.392 618.506, 531.165 621.976, 528.094 625.702 C 525.704 628.602, 525 630.428, 525 633.728 C 525 637.660, 524.793 638, 522.404 638 C 520.977 638, 518.431 637.019, 516.746 635.819 C 514.850 634.469, 511.648 633.470, 508.342 633.195 C 504.706 632.894, 503 632.316, 503 631.385 C 503 626.491, 490.244 621.007, 482.072 622.388 C 467.372 624.871, 465.652 625.653, 461.231 631.863 C 458.817 635.253, 458.122 635.616, 454.030 635.618 C 448.791 635.620, 444.580 637.977, 442.449 642.099 C 440.782 645.322, 440.531 650.592, 442 651.500 C 442.550 651.840, 443 651.356, 443 650.425 C 443 646.110, 445.475 640.806, 448.129 639.434 C 454.711 636.029, 458.973 639.235, 454.077 643.909 C 452.065 645.830, 451.853 646.437, 453.027 646.909 C 455.813 648.027, 460 651.231, 460 652.245 C 460 652.859, 458.195 653.057, 455.436 652.746 C 451.701 652.325, 450.659 652.574, 449.696 654.116 C 448.432 656.138, 445.511 656.636, 444.500 655 C 443.410 653.236, 439.412 653.930, 437.299 656.250 C 433.987 659.887, 432.645 663.208, 432.570 667.956 C 432.501 672.365, 432.452 672.426, 428 673.687 C 425.187 674.484, 422.463 676.180, 420.734 678.212 C 418.363 680.999, 417.699 681.293, 416.075 680.279 C 415.021 679.621, 412.663 679.343, 410.755 679.652 C 407.640 680.158, 407.211 679.923, 406.024 677.059 C 403.737 671.537, 407.562 667, 414.506 667 C 415.813 667, 417.160 666.550, 417.500 666 C 417.882 665.383, 416.144 665, 412.960 665 C 404.484 665, 400.297 670.842, 403.466 678.250 C 404.147 679.844, 403.380 680.003, 394.857 680.033 C 389.711 680.051, 382.350 680.513, 378.500 681.060 C 334.287 687.344, 316.028 688.567, 315.968 685.250 C 315.927 683.005, 314.310 680.995, 310.250 678.145 C 308.402 676.848, 307 674.989, 307 673.836 C 307 668.628, 301.807 664.129, 293.996 662.569 C 287.410 661.254, 281 658.608, 281 657.204 C 281 654.113, 277.711 649.123, 274.909 647.962 C 273.067 647.199, 269.187 646.918, 264.591 647.212 L 257.225 647.685 256.759 643.555 C 255.409 631.574, 243.766 624.146, 233.234 628.547 C 230.384 629.737, 229.436 629.808, 229.118 628.854 C 227.839 625.017, 223.907 622.813, 218.952 623.157 C 215.589 623.390, 213.999 623.117, 213.999 622.307 C 214 621.650, 213.145 620.514, 212.099 619.782 C 211.054 619.050, 209.701 616.604, 209.094 614.347 C 208.056 610.493, 201.434 602.978, 198.095 601.865 C 197.147 601.549, 197.275 600.682, 198.615 598.348 C 200.225 595.543, 200.250 595.024, 198.875 592.875 C 197.719 591.068, 197.567 589.544, 198.237 586.500 C 201.473 571.815, 187.489 560.456, 172.346 565.470 C 170.695 566.016, 170.042 565.706, 169.545 564.141 C 168.251 560.066, 162.530 557.684, 155.409 558.255 C 151.871 558.539, 148.747 558.399, 148.465 557.944 C 147.464 556.324, 139.533 555.856, 135.597 557.184 C 130.480 558.909, 125.997 564.458, 125.815 569.290 C 125.627 574.305, 122.285 577.418, 117.806 576.752 C 115.988 576.481, 112.475 576.872, 110 577.619 C 107.525 578.367, 105.438 578.983, 105.361 578.989 C 105.285 578.995, 104.947 577.533, 104.611 575.739 C 103.414 569.360, 93.769 562.468, 89.616 565.025 C 87.663 566.227, 86.050 565.018, 86.015 562.327 C 86.007 561.682, 84.615 559.769, 82.923 558.077 C 79.369 554.523, 72.203 553.809, 67.015 556.492 C 64.323 557.884, 64.087 557.851, 63.497 555.991 C 60.869 547.711, 47.517 546.921, 37.500 554.452 C 33.047 557.800, 28.448 558.205, 26.937 555.382 C 24.613 551.039, 12.345 548.809, 8.470 552.025 C 7.178 553.097, 6.988 541.553, 6.901 456.872 C 6.647 208.182, 6.083 35.203, 5.482 21.891 C 4.952 10.137, 5.085 7.191, 6.162 6.817 C 6.898 6.562, 177.241 6.553, 384.701 6.797 L 761.903 7.242 761.430 50.371 C 761.171 74.092, 760.469 113.300, 759.870 137.500 C 759.175 165.632, 759.092 194.844, 759.641 218.500 L 760.500 255.500 761.086 197 C 761.408 164.825, 762.221 109.498, 762.894 74.050 C 763.566 38.603, 763.857 8.566, 763.539 7.300 L 762.962 5 482.231 4.999 C 327.829 4.999, 157.351 4.700, 103.391 4.335 C 10.905 3.710, 5.227 3.771, 4.312 5.408 M 173.608 27.167 C 173.391 27.900, 172.688 31.066, 172.046 34.202 C 170.787 40.349, 170.674 40.438, 162.782 41.552 C 154.254 42.755, 154.423 45.072, 163.295 48.596 L 168.089 50.500 167.416 59.250 C 166.600 69.846, 167.035 70.010, 174.259 61.829 L 179.708 55.658 185.854 60.388 C 194.606 67.122, 195.709 65.669, 190.322 54.500 C 187.581 48.818, 187.172 49.546, 196.250 43.964 C 202.163 40.329, 202.255 39, 196.594 39 C 192.680 39, 192.246 38.777, 192.710 37 C 193.349 34.558, 192.146 34.486, 187.524 36.690 C 183.365 38.673, 182.763 38.292, 179 31.298 C 176.410 26.484, 174.289 24.859, 173.608 27.167 M 175 35.613 C 175 41.279, 173.175 43.273, 167.374 43.946 L 162.500 44.511 167 47.019 C 171.980 49.793, 173.016 52.648, 171.069 58.233 C 169.428 62.939, 170.538 62.714, 174.136 57.610 C 177.971 52.169, 179.231 51.989, 184.803 56.087 C 189.711 59.696, 189.806 59.524, 186.500 53 C 183.357 46.798, 183.176 47.521, 188.750 44.021 C 193.732 40.892, 193.453 40.605, 185.785 40.960 C 181.165 41.174, 181.008 41.082, 178.035 36.394 L 175 31.608 175 35.613 M 656 54.640 C 649.675 59.909, 641.915 66.483, 638.755 69.247 C 635.595 72.011, 632.220 74.856, 631.255 75.569 C 629.850 76.607, 629.749 77.118, 630.748 78.131 C 631.752 79.148, 632.712 78.721, 635.652 75.948 C 637.663 74.052, 640.029 71.825, 640.910 71 C 641.791 70.175, 646.559 66.153, 651.506 62.063 C 665.863 50.191, 671.043 44.921, 668.250 45.029 C 667.837 45.045, 662.325 49.370, 656 54.640 M 552.123 62.771 C 551.505 63.925, 551 65.798, 551 66.934 C 551 68.678, 550.376 69, 547 69 C 542.414 69, 541.839 70.150, 545.575 71.852 C 547.854 72.890, 548.118 73.537, 547.876 77.480 C 547.544 82.876, 548.111 83.640, 550.494 81.006 C 552.648 78.627, 554.790 78.464, 557.646 80.465 C 560.670 82.583, 561.191 81.294, 559.026 77.051 L 557.138 73.350 560.069 71.618 C 564.088 69.244, 563.811 67.757, 559.500 68.566 C 557.575 68.927, 555.993 69.060, 555.985 68.861 C 555.977 68.663, 555.357 66.739, 554.608 64.586 C 553.330 60.916, 553.176 60.803, 552.123 62.771 M 145.992 70.250 C 145.983 72.943, 138.967 94.933, 137.539 96.743 C 137.433 96.877, 132.881 95.462, 127.423 93.598 C 114.726 89.262, 107.404 87, 106.062 87 C 102.365 87, 109.315 98.662, 122.336 114.308 C 127.153 120.096, 127.185 120.182, 125.105 121.639 C 121.908 123.878, 122.323 126.386, 125.750 125.530 C 129.176 124.675, 135 121.147, 135 119.926 C 135 119.425, 133.605 117.774, 131.900 116.258 C 129.227 113.880, 118.463 101.466, 113.968 95.577 C 112.622 93.813, 112.667 93.705, 114.500 94.272 C 119.462 95.807, 133.909 101.262, 137.860 103.093 C 140.258 104.204, 142.319 104.976, 142.440 104.807 C 142.561 104.638, 143.240 101.818, 143.949 98.541 C 146.549 86.513, 149.263 79.209, 150.095 82 C 153.380 93.016, 155 99.267, 155 100.928 C 155 103.964, 156.117 104.115, 167.167 102.579 C 172.850 101.790, 179.748 100.879, 182.496 100.557 L 187.491 99.971 177.496 110.089 C 171.998 115.654, 166.300 120.734, 164.833 121.378 L 162.167 122.549 166.208 128.525 C 170.690 135.152, 179 149.789, 179 151.054 C 179 152.036, 164.790 144.302, 156.576 138.851 C 150.235 134.643, 148.500 134.554, 147.053 138.361 C 146.132 140.784, 145.017 141.301, 126.217 148.022 C 122.762 149.257, 119.667 150, 119.339 149.672 C 119.011 149.344, 121.662 144.672, 125.229 139.288 C 132.456 128.382, 134 125.681, 134 123.943 C 134 121.928, 131.082 124.958, 125.856 132.399 L 121 139.314 120.829 134.907 C 120.476 125.824, 119.569 123, 117.004 123 C 113.384 123, 109.025 129.971, 105.555 141.308 L 103.777 147.116 98.139 146.469 C 95.037 146.113, 90.925 145.453, 89 145.003 C 87.075 144.552, 81.788 143.886, 77.250 143.523 C 64.918 142.536, 65.774 144.331, 84.038 157.767 C 97.207 167.455, 96.643 165.925, 91.179 177.135 C 88.606 182.415, 85.877 188.257, 85.115 190.118 C 84.353 191.978, 82.421 196.387, 80.821 199.915 C 76.161 210.191, 77.749 210.273, 88.720 200.322 C 94.070 195.470, 102.028 188.012, 106.405 183.750 C 110.782 179.488, 114.536 176, 114.746 176 C 115.249 176, 124.081 183.376, 130.015 188.750 C 132.596 191.088, 135.223 193, 135.854 193 C 137.686 193, 137.198 185.577, 135 180 C 132.285 173.113, 132.408 172, 135.881 172 C 137.754 172, 139.773 170.966, 141.649 169.048 C 144.987 165.633, 154 148.867, 154 146.072 C 154 144.479, 156.424 145.424, 169.432 152.091 C 184.116 159.617, 188 161.090, 188 159.131 C 188 157.902, 175.929 134.354, 172.693 129.270 C 171.212 126.943, 170 124.811, 170 124.530 C 170 124.250, 173.567 120.613, 177.927 116.448 C 187.046 107.735, 194 99.117, 194 96.529 C 194 94.616, 184.663 94.804, 172.500 96.960 C 169.750 97.447, 165.925 98.057, 164 98.314 L 160.500 98.782 155.671 83.968 C 151.225 70.330, 149.948 68, 146.918 68 C 146.413 68, 145.997 69.013, 145.992 70.250 M 620.987 85.287 C 619.069 87.054, 613 92.393, 607.500 97.150 C 602 101.908, 594.159 109.333, 590.076 113.650 C 585.993 117.968, 578.230 126.064, 572.826 131.643 C 562.983 141.804, 561.511 143.786, 564.720 142.554 C 565.665 142.191, 566.075 142.256, 565.629 142.697 C 565.184 143.139, 563.847 143.500, 562.660 143.500 C 561.222 143.500, 560.546 144.081, 560.637 145.239 C 560.712 146.196, 560.341 146.710, 559.811 146.383 C 559.280 146.055, 558.091 146.623, 557.168 147.644 C 556.244 148.665, 548.520 157.375, 540.003 167 C 531.485 176.625, 516.525 192.535, 506.758 202.355 C 496.991 212.176, 489 220.838, 489 221.605 C 489 223.725, 491.697 223.271, 493.379 220.869 C 494.200 219.697, 503.803 209.684, 514.719 198.619 C 525.636 187.553, 538.206 174, 542.654 168.500 C 550.784 158.446, 554.307 154.868, 561.274 149.587 C 563.350 148.013, 567.929 143.036, 571.451 138.526 C 580.725 126.649, 606.389 100.895, 622.021 87.778 C 624.951 85.319, 626.120 83.720, 625.465 83.065 C 624.811 82.411, 623.291 83.165, 620.987 85.287 M 626.721 88.927 C 616.760 95.310, 582.291 129.930, 584.999 130.833 C 585.715 131.072, 589.697 127.553, 593.846 123.014 C 601.760 114.356, 623.722 94.493, 629.562 90.711 C 631.439 89.495, 632.981 88.162, 632.988 87.750 C 633.009 86.441, 629.601 87.081, 626.721 88.927 M 591.045 104.823 C 581.945 114.076, 572.770 123.638, 570.656 126.073 C 568.542 128.508, 564.507 132.863, 561.690 135.750 C 558.873 138.637, 557.003 140.986, 557.534 140.969 C 558.913 140.924, 568.965 131.479, 574.529 125 C 577.126 121.975, 586.230 112.412, 594.759 103.750 C 603.288 95.088, 609.664 88, 608.928 88 C 608.193 88, 600.145 95.570, 591.045 104.823 M 654.872 94.820 C 653.977 95.194, 647.716 100.675, 640.959 107 C 618.525 128, 614.562 131.526, 606.500 137.664 C 602.100 141.014, 595.575 146.430, 592 149.701 C 588.425 152.971, 584.188 156.739, 582.585 158.074 C 567.159 170.913, 544.627 192.871, 542.403 197.232 C 541.326 199.342, 546.186 195.106, 556.118 185.276 C 564.578 176.903, 573.525 168.304, 576 166.167 C 578.475 164.030, 583.425 159.738, 587 156.631 C 590.575 153.523, 596.360 148.622, 599.856 145.740 C 603.352 142.858, 611.452 136.166, 617.856 130.868 C 628.189 122.320, 658.291 94.060, 657 94.118 C 656.725 94.130, 655.767 94.446, 654.872 94.820 M 652.377 103.308 C 640.752 113.965, 627.623 125.619, 620.056 132 C 606.365 143.545, 586.205 162.771, 553.486 195.488 C 535.878 213.095, 508.482 240.229, 492.606 255.787 C 476.730 271.345, 464.033 284.367, 464.391 284.724 C 464.749 285.082, 467.140 283.378, 469.704 280.938 C 472.269 278.497, 474.894 276.050, 475.539 275.500 C 484.868 267.546, 527.161 226.050, 562.261 190.412 C 586.032 166.277, 591.879 161.198, 575.250 179.129 C 569.888 184.912, 563.118 192.311, 560.207 195.571 C 557.297 198.832, 552.347 204.140, 549.207 207.366 C 546.068 210.592, 544.400 212.750, 545.500 212.161 C 548.265 210.682, 555.116 203.974, 564 194.048 C 568.125 189.439, 572.206 184.955, 573.069 184.084 C 578.315 178.791, 586.960 167.744, 586.473 166.957 C 586.149 166.432, 586.648 166.311, 587.612 166.681 C 588.776 167.128, 589.096 166.964, 588.605 166.170 C 588.207 165.526, 588.385 165, 589 165 C 589.615 165, 589.797 164.480, 589.405 163.845 C 589.009 163.206, 589.126 162.960, 589.667 163.294 C 590.203 163.626, 594.885 159.605, 600.071 154.360 C 605.257 149.115, 614.900 140.026, 621.500 134.163 C 632.915 124.023, 639.892 117.615, 653.452 104.819 C 656.763 101.695, 659.198 98.864, 658.863 98.530 C 658.528 98.195, 655.610 100.345, 652.377 103.308 M 491 122.763 C 491 123.797, 490.283 126.749, 489.406 129.322 C 487.815 133.991, 487.803 134, 483.156 134.015 C 475.884 134.039, 474.874 135.243, 478.762 139.254 C 480.543 141.092, 482 143.361, 482 144.298 C 482 146.084, 484.478 146.654, 485.444 145.090 C 486.409 143.530, 485.095 141.575, 481.734 139.571 L 478.500 137.643 483 136.571 C 488.920 135.162, 489.815 134.493, 490.783 130.757 L 491.598 127.613 493.757 131.107 C 494.979 133.084, 495.688 135.479, 495.389 136.621 C 495.090 137.762, 495.509 139.177, 496.352 139.877 C 497.608 140.920, 497.756 140.783, 497.292 139.009 C 496.949 137.698, 497.489 136.073, 498.722 134.702 C 502.450 130.557, 502.550 129.720, 499.229 130.450 C 496.368 131.078, 496.116 130.872, 494.456 126.524 C 492.535 121.494, 491 119.824, 491 122.763 M 593.758 133.933 C 590.600 136.636, 585.875 140.859, 583.258 143.317 C 580.641 145.775, 575.575 150.503, 572 153.823 C 566.885 158.573, 565.758 160.122, 566.711 161.091 C 567.666 162.062, 571.330 159.002, 583.993 146.661 C 592.831 138.048, 600.525 131, 601.090 131 C 601.656 131, 601.840 130.550, 601.500 130 C 600.509 128.396, 599.813 128.750, 593.758 133.933 M 111.685 139.025 C 110.703 141.789, 109.630 146.324, 109.301 149.103 C 108.764 153.639, 108.488 154.096, 106.601 153.569 C 100.058 151.741, 86.164 149.004, 83.547 149.027 L 80.500 149.054 83.924 151.893 C 87.615 154.954, 91.752 157.308, 96.466 159.031 C 98.813 159.888, 99.126 160.306, 97.966 161.029 C 97.001 161.631, 97.737 161.745, 100.123 161.361 C 102.311 161.010, 104.017 161.219, 104.432 161.890 C 104.879 162.613, 104.030 163, 102 163 C 100.095 163, 99.132 163.405, 99.525 164.041 C 99.879 164.613, 101.030 164.808, 102.084 164.473 C 104.101 163.833, 104.634 164.943, 103.083 166.550 C 101.765 167.916, 88.777 193.111, 89.183 193.516 C 89.686 194.019, 103.789 180.334, 109.294 174 C 114.033 168.548, 114.090 168.518, 115.787 170.573 C 118.433 173.775, 129.958 183.376, 130.502 182.831 C 130.769 182.564, 129.865 179.483, 128.494 175.984 C 125.203 167.588, 125.271 167, 129.532 167 C 133.448 167, 140 164.614, 140 163.187 C 140 161.918, 132.384 161, 121.860 161 C 113.826 161, 111.270 160.187, 114 158.500 C 115.166 157.779, 115.394 134, 114.235 134 C 113.814 134, 112.666 136.261, 111.685 139.025 M 552.323 136.759 C 551.125 138.267, 549.213 140.494, 548.073 141.708 C 546.933 142.923, 546 144.368, 546 144.919 C 546 148.275, 523.997 171.008, 494.333 198.299 C 484.890 206.985, 475.456 216.209, 473.366 218.796 C 471.277 221.383, 469.116 223.813, 468.563 224.196 C 468.010 224.578, 467.787 225.120, 468.067 225.400 C 468.347 225.680, 476.037 218.617, 485.157 209.704 C 494.277 200.792, 503.260 192.176, 505.120 190.558 C 520.164 177.463, 553.646 143.514, 549.134 145.929 L 546.774 147.191 548.637 144.011 C 549.662 142.262, 551.737 139.438, 553.250 137.735 C 556.190 134.425, 556.422 133.995, 555.250 134.009 C 554.837 134.014, 553.520 135.252, 552.323 136.759 M 219.655 138.829 C 216.918 141.853, 217.903 144.668, 222.632 147.334 C 224.232 148.236, 229 144.230, 229 141.984 C 229 137.867, 222.509 135.675, 219.655 138.829 M 146 147.596 C 144.625 148.298, 139.900 149.619, 135.500 150.533 C 118.831 153.996, 112.211 157.995, 123.128 158.007 C 126.632 158.011, 132.425 158.288, 136 158.622 L 142.500 159.229 145.784 152.982 C 149.472 145.966, 149.478 145.823, 146 147.596 M 637.119 148.190 C 636.636 149.460, 636.069 151.397, 635.858 152.492 C 635.610 153.788, 634.431 154.670, 632.488 155.013 C 629.307 155.576, 629.840 156.328, 634.150 157.356 C 635.909 157.775, 637.153 158.999, 637.848 160.994 C 639.254 165.026, 641.378 164.998, 640.491 160.959 C 639.741 157.546, 641.241 155, 644 155 C 644.965 155, 646.363 154.268, 647.105 153.373 C 648.322 151.907, 648.039 151.786, 644.228 152.150 C 640.196 152.534, 640 152.427, 640 149.835 C 640 146.268, 638.232 145.259, 637.119 148.190 M 333.250 169.137 C 332.563 169.832, 332 170.985, 332 171.700 C 332 172.527, 330.683 173, 328.378 173 C 325.381 173, 324.956 173.243, 325.921 174.404 C 326.584 175.204, 326.806 176.926, 326.435 178.404 C 325.744 181.155, 326.811 181.789, 328.793 179.807 C 329.718 178.882, 330.623 179.223, 332.813 181.321 C 336.105 184.475, 337.260 183.900, 336.437 179.516 C 335.929 176.809, 336.230 176.200, 338.675 174.977 L 341.500 173.566 338.311 173.224 C 335.770 172.952, 335.058 172.373, 334.811 170.378 C 334.561 168.367, 334.254 168.122, 333.250 169.137 M 551.884 173.557 C 540.156 183.248, 480.538 243.625, 474.326 252.102 C 465.595 264.015, 468.210 262.843, 479.571 249.750 C 493.286 233.944, 532.920 193.434, 548.492 179.308 C 557.526 171.112, 560.077 166.786, 551.884 173.557 M 508.132 178.100 C 498.683 185.309, 480.879 202.048, 466.081 217.633 C 461.451 222.510, 451.098 233.250, 443.074 241.500 C 435.051 249.750, 424.440 260.953, 419.493 266.396 C 414.547 271.839, 409.938 276.869, 409.250 277.574 C 408.563 278.280, 408 279.114, 408 279.429 C 408 281.687, 412.483 277.522, 428.614 260.276 C 460.536 226.148, 499.713 187.009, 512.457 176.515 C 518.002 171.950, 514.521 173.225, 508.132 178.100 M 601.128 179.564 C 598.809 182.512, 599.084 183.768, 602.618 186.354 C 605.110 188.177, 605.190 188.170, 607.575 185.929 C 610.285 183.384, 610.578 181.346, 608.608 178.750 C 606.703 176.240, 603.466 176.592, 601.128 179.564 M 195.178 180.920 C 194.530 182.779, 193.342 183.960, 191.908 184.170 C 188.964 184.602, 188.354 186.598, 190.959 187.279 C 192.547 187.694, 193 188.629, 193 191.490 C 193 193.992, 193.399 195.031, 194.250 194.741 C 195.006 194.483, 195.503 192.491, 195.509 189.699 C 195.513 187.160, 196.076 184.524, 196.759 183.841 C 197.701 182.899, 198 182.889, 198 183.800 C 198 184.460, 198.873 185, 199.941 185 C 203.069 185, 203.369 186.922, 200.584 189.113 C 197.289 191.704, 197.336 192.176, 201.106 194.403 L 204.211 196.238 203.487 192.940 C 202.844 190.011, 203.139 189.323, 206.131 186.785 L 209.500 183.928 206.268 184.201 C 202.773 184.497, 199 182.061, 199 179.510 C 199 176.867, 196.235 177.887, 195.178 180.920 M 247.797 180.750 C 246.922 182.585, 245.573 183.605, 243.743 183.816 C 240.531 184.187, 240.142 185.593, 243 186.500 C 244.513 186.980, 245 188.013, 245 190.742 L 245 194.349 247.350 192.141 C 249.433 190.184, 249.844 190.107, 250.972 191.467 C 253 193.909, 254.216 193.262, 253.524 190.108 C 252.970 187.589, 253.273 187.047, 255.872 185.896 C 259.212 184.418, 259.078 182.694, 255.689 183.537 C 253.960 183.967, 253.220 183.442, 252.166 181.041 C 250.516 177.280, 249.486 177.211, 247.797 180.750 M 582.850 196.530 C 581.330 199.106, 580.279 199.906, 578.964 199.489 C 577.740 199.100, 575.450 200.405, 571.830 203.555 C 562.090 212.031, 556.537 216.776, 553 219.647 C 544.776 226.322, 531 240.053, 531 241.576 C 531 244.415, 533.300 243.996, 537.793 240.340 C 553.654 227.430, 587 196.131, 587 194.153 C 587 191.864, 584.890 193.073, 582.850 196.530 M 671 199.996 C 671 201.863, 670.603 202.072, 668.095 201.521 C 663.443 200.499, 662.849 203.684, 667.393 205.282 C 667.885 205.454, 667.736 206.625, 667.062 207.883 C 665.504 210.796, 666.527 211.901, 668.737 209.692 C 670.323 208.106, 670.570 208.170, 672.773 210.751 L 675.120 213.500 674.487 209.604 C 674.047 206.891, 674.256 205.449, 675.177 204.854 C 676.135 204.236, 676.187 203.793, 675.366 203.250 C 674.742 202.838, 674.067 201.637, 673.866 200.583 C 673.342 197.837, 671 197.358, 671 199.996 M 576.821 201.273 C 576.095 201.973, 569.200 208.035, 561.500 214.744 C 542.962 230.897, 533.100 240.162, 535.250 239.403 C 536.212 239.064, 537 238.453, 537 238.046 C 537 237.639, 537.854 236.899, 538.898 236.403 C 542.816 234.540, 580.514 200, 578.630 200 C 578.362 200, 577.548 200.573, 576.821 201.273 M 512.706 224.766 C 484.452 252.507, 475.028 262.531, 474.990 264.885 C 474.984 265.223, 489.384 251.165, 506.990 233.643 C 524.595 216.122, 539 201.610, 539 201.393 C 539 199.451, 533.605 204.247, 512.706 224.766 M 357.750 213.576 C 357.337 213.993, 357 216.535, 357 219.226 C 357 222.022, 356.598 223.869, 356.061 223.537 C 354.360 222.487, 347 224.185, 347 225.628 C 347 226.383, 347.337 227.016, 347.750 227.036 C 348.163 227.056, 349.784 228.122, 351.354 229.407 L 354.208 231.741 352.092 236.525 C 349.296 242.846, 350.349 243.487, 354.895 238.230 L 358.588 233.961 361.481 236.980 C 365.162 240.822, 367.347 241.043, 365.975 237.435 C 364.372 233.219, 364.839 231.007, 368 227.846 C 371.803 224.043, 371.852 224.166, 366.367 223.805 L 361.734 223.500 360.117 218.160 C 359.228 215.223, 358.163 213.160, 357.750 213.576 M 450.706 226.242 C 443.769 233.534, 437.082 240.850, 435.845 242.500 C 434.608 244.150, 430.387 248.875, 426.464 253 C 404.320 276.287, 397 284.314, 397 285.308 C 397 286.913, 416.419 267.431, 428.207 254 C 433.758 247.675, 441.269 239.312, 444.900 235.416 C 456.138 223.354, 464.245 213.912, 463.771 213.438 C 463.522 213.188, 457.642 218.950, 450.706 226.242 M 215 215.835 C 215 216.961, 215.430 218.148, 215.956 218.473 C 216.482 218.798, 216.640 219.774, 216.307 220.641 C 215.759 222.069, 215.617 222.066, 214.801 220.609 C 213.783 218.790, 210.457 218.452, 209.458 220.067 C 209.095 220.655, 209.743 221.381, 210.899 221.684 C 213.452 222.352, 213.494 222.783, 211.250 225.324 C 209.538 227.263, 209.573 227.291, 212.913 226.645 C 215.401 226.164, 216.825 226.437, 218.169 227.653 C 220.599 229.853, 221.626 228.670, 220.133 225.392 C 219.296 223.556, 219.253 222.400, 219.989 221.513 C 220.759 220.586, 220.236 219.393, 218.018 217.020 C 215.363 214.177, 215 214.035, 215 215.835 M 40.030 226.250 C 36.941 234.530, 37.557 234, 31.021 234 C 23.942 234, 23.704 234.550, 29.147 238.318 L 33.218 241.136 32.530 247.568 C 31.774 254.619, 32.402 255.330, 36 251.500 C 39.063 248.240, 39.859 248.331, 44.729 252.500 C 50.193 257.177, 50.381 257.053, 49.688 249.250 L 49.089 242.500 53.604 239.751 C 58.571 236.728, 58.602 235.007, 53.691 234.986 C 48.519 234.964, 46 233.937, 46 231.851 C 46 229.218, 43.311 223, 42.172 223 C 41.661 223, 40.697 224.463, 40.030 226.250 M 483.500 231.642 C 476.305 236.707, 474.757 238.302, 465.465 250.224 C 460.659 256.390, 457.546 261.219, 458.140 261.587 C 459.399 262.365, 459.358 262.410, 466.529 252.500 C 469.713 248.100, 476.171 240.787, 480.880 236.250 C 485.588 231.713, 489.229 228.028, 488.970 228.061 C 488.712 228.095, 486.250 229.706, 483.500 231.642 M 41.036 230.500 C 40.896 233.312, 38.830 235.727, 35.419 237.069 C 32.516 238.211, 32.512 238.223, 34.750 239.261 C 37.201 240.399, 37.687 242.913, 35.817 244.783 C 35.166 245.434, 34.948 246.282, 35.333 246.667 C 35.718 247.052, 36.566 246.834, 37.217 246.183 C 39.031 244.369, 42.127 244.771, 44.658 247.149 L 46.946 249.298 45.953 245.899 C 45.070 242.878, 45.235 242.259, 47.439 240.333 L 49.918 238.167 46.946 237.131 C 45.311 236.561, 43.717 235.286, 43.403 234.297 C 43.090 233.309, 42.451 231.600, 41.984 230.500 L 41.135 228.500 41.036 230.500 M 497.120 260.142 C 470.309 286.410, 469 287.756, 469 289.056 C 469 291.397, 472.257 288.487, 496.365 264.605 C 519.097 242.085, 523.704 237, 521.370 237 C 521.023 237, 510.111 247.414, 497.120 260.142 M 137.667 250.667 C 137.300 251.033, 137 252.560, 137 254.060 C 137 256.936, 135.493 258, 131.418 258 C 128.305 258, 128.371 258.453, 132 262 C 134.030 263.984, 135 265.914, 135 267.966 C 135 271.575, 135.609 271.716, 138.693 268.818 C 140.942 266.706, 141.127 266.690, 144.542 268.318 C 146.481 269.243, 148.278 270, 148.534 270 C 149.841 270, 148.736 264.934, 146.927 262.635 C 145.788 261.186, 145.269 260, 145.774 260 C 146.864 260, 151 256.544, 151 255.633 C 151 254.607, 147.490 254.910, 146.367 256.033 C 144.801 257.599, 142.239 256.162, 140.800 252.910 C 139.486 249.941, 138.848 249.485, 137.667 250.667 M 659.512 253.250 C 659.278 253.938, 658.954 255.834, 658.793 257.464 C 658.549 259.936, 657.944 260.542, 655.157 261.107 C 651.347 261.880, 648.745 263.972, 650.700 264.692 C 654.120 265.950, 657 269.325, 657 272.073 C 657 275.317, 658.086 275.807, 660.045 273.445 C 662.561 270.414, 664.811 269.851, 667.941 271.470 C 672.493 273.823, 673.669 272.502, 670.319 268.800 C 668.734 267.048, 668.768 266.851, 670.921 265.343 C 672.697 264.099, 672.905 263.560, 671.860 262.914 C 670.790 262.252, 670.770 261.830, 671.758 260.842 C 673.779 258.821, 673.217 258.139, 669.257 257.810 C 666.315 257.566, 665.234 256.912, 664.203 254.750 C 662.842 251.898, 660.254 251.071, 659.512 253.250 M 454.782 279.768 C 441.506 295.861, 438.170 301.030, 445.642 293.932 C 449.407 290.355, 462.397 274.998, 465 271.046 C 465.825 269.793, 467.288 267.737, 468.250 266.477 C 470.134 264.010, 470.442 262.959, 469.250 263.069 C 468.837 263.108, 462.327 270.622, 454.782 279.768 M 239.750 266.572 C 236.667 268.245, 236.509 268.828, 238.161 272.453 C 240.217 276.966, 248 275.026, 248 270 C 248 265.695, 244.244 264.134, 239.750 266.572 M 451.461 272.288 C 450.890 272.955, 447.006 278, 442.830 283.500 C 438.654 289, 434.025 294.850, 432.543 296.500 C 429.015 300.428, 426.625 303.958, 427.144 304.477 C 427.840 305.173, 429.393 303.720, 433.534 298.500 C 435.715 295.750, 437.727 293.275, 438.004 293 C 441.568 289.465, 453.983 272.966, 453.993 271.750 C 454.003 270.625, 452.637 270.916, 451.461 272.288 M 555.006 277.484 C 554.453 278.939, 554 280.798, 554 281.615 C 554 285.721, 550.997 289, 547.224 289.014 C 537.933 289.048, 536.704 291.423, 543.500 296.213 C 548.395 299.663, 548.767 300.920, 546.500 306.346 C 545.675 308.320, 545 311.311, 545 312.991 L 545 316.046 547.750 314.317 C 549.263 313.366, 551.978 311.331, 553.785 309.794 C 558.123 306.104, 559.639 306.254, 566 311 C 574.504 317.345, 575.322 316.737, 571.465 306.940 C 568.424 299.215, 568.784 297.345, 574.008 293.760 C 580.202 289.508, 579.390 288, 570.906 288 C 564.593 288, 563.754 287.774, 563.276 285.947 C 562.341 282.373, 558.549 275.615, 557.256 275.219 C 556.572 275.009, 555.560 276.028, 555.006 277.484 M 557.068 282.782 C 556.893 288.659, 554.470 291.702, 549.355 292.470 L 544.500 293.199 548.250 295.123 C 552.347 297.226, 552.494 297.679, 550.922 303.344 C 549.504 308.448, 550.218 308.834, 554.190 305.111 C 558.258 301.299, 559.937 301.235, 564.095 304.733 L 567.343 307.467 566.566 303.983 C 566.138 302.068, 565.596 299.600, 565.361 298.500 C 565.060 297.094, 565.904 295.832, 568.203 294.250 L 571.472 292 567.986 291.882 C 566.069 291.816, 563.924 291.839, 563.220 291.932 C 562.516 292.025, 561.261 290.391, 560.431 288.301 C 557.346 280.531, 557.144 280.201, 557.068 282.782 M 81.810 297.516 C 76.157 303.589, 75.605 303.667, 68.770 299.354 C 61.694 294.889, 59.783 296.777, 62.948 305.105 C 65.733 312.430, 65.820 312.191, 58.649 316.829 C 47.152 324.264, 47.607 325.534, 61.509 324.804 L 69.933 324.362 71.045 329.931 C 72.413 336.785, 74.138 341, 75.575 341 C 76.714 341, 77.544 339.577, 80.970 331.750 C 82.114 329.137, 83.157 327, 83.287 327 C 83.418 327, 87.069 328.125, 91.401 329.500 C 95.733 330.875, 99.666 332, 100.139 332 C 102.101 332, 100.712 328.386, 95.979 321.176 L 90.957 313.528 96.229 311.514 C 102.913 308.960, 104 308.238, 104 306.352 C 104 305.099, 102.803 304.883, 97.379 305.161 L 90.758 305.500 90.401 302 C 89.718 295.293, 88.903 292, 87.926 292 C 87.386 292, 84.633 294.482, 81.810 297.516 M 81.547 302.940 C 77.005 307.605, 76.365 307.732, 71.413 304.951 C 66.475 302.178, 66.013 303.188, 69.967 308.109 C 73.229 312.167, 72.918 314.673, 69.325 313.295 C 68.579 313.008, 65.969 314.618, 63.524 316.871 L 59.080 320.968 66.493 320.341 L 73.907 319.714 74.203 327.107 L 74.500 334.500 77.801 327.750 C 81.573 320.037, 81.151 320.208, 88.471 323.445 C 94.986 326.326, 95.056 326.206, 90.500 320 C 86.273 314.241, 86.103 312.275, 89.750 311.313 L 92.500 310.588 89.500 310.039 C 86.696 309.526, 86.467 309.144, 86 304.186 L 85.500 298.881 81.547 302.940 M 408.774 310.913 C 408.037 311.965, 406.099 312.997, 404.467 313.207 L 401.500 313.588 404.204 314.933 C 406.789 316.220, 406.843 316.402, 405.454 319.090 C 403.677 322.525, 403.654 323, 405.259 323 C 405.952 323, 407.087 322.090, 407.782 320.977 C 408.785 319.371, 409.440 319.165, 410.957 319.977 C 413.905 321.555, 415 321.209, 415 318.700 C 415 317.435, 415.510 315.890, 416.133 315.267 C 416.756 314.644, 416.968 313.358, 416.603 312.408 C 416.019 310.887, 415.589 311.020, 412.970 313.528 C 409.889 316.481, 408.992 315.916, 411.500 312.603 C 412.927 310.717, 412.688 309, 410.998 309 C 410.511 309, 409.511 309.861, 408.774 310.913 M 664.134 319.750 C 663.619 320.712, 662.870 323.750, 662.471 326.500 C 661.354 334.186, 660.909 334.626, 653.550 335.313 C 647.041 335.921, 643 337.302, 643 338.919 C 643 339.386, 646.592 341.508, 650.983 343.634 L 658.966 347.500 658.983 355.667 C 658.994 361.066, 658.600 363.967, 657.820 364.227 C 656.437 364.688, 657.445 368, 658.969 368 C 659.536 368, 660 367.138, 660 366.084 C 660 365.030, 661.793 362.748, 663.985 361.012 C 668.466 357.463, 668.817 357.489, 678.753 362.099 C 682.192 363.695, 685.454 365, 686.003 365 C 688.153 365, 686.198 357.950, 682.333 351.770 C 679.115 346.625, 679.295 346.009, 685.255 341.767 C 688.140 339.714, 692.413 336.673, 694.750 335.011 C 701.227 330.404, 700.423 329.591, 690.250 330.461 C 674.501 331.806, 675.857 332.121, 673.187 326.500 C 670.457 320.753, 668.253 318, 666.380 318 C 665.660 318, 664.649 318.788, 664.134 319.750 M 666.613 324 C 666.304 324.825, 665.468 328.200, 664.756 331.500 C 663.626 336.739, 663.147 337.533, 660.981 337.763 C 649.434 338.989, 647.494 340.082, 654.261 341.547 C 661.219 343.054, 663.309 345.630, 662.663 351.903 L 662.087 357.500 663.792 354 C 666.021 349.422, 667.211 348.658, 668.821 350.769 C 669.547 351.721, 670.559 352.387, 671.071 352.250 C 671.582 352.113, 672 352.444, 672 352.987 C 672 353.926, 678.570 358.514, 681.553 359.659 C 682.441 360, 681.912 358.238, 680.107 354.848 C 674.440 344.206, 674.678 343.206, 684.126 337.999 L 689.500 335.036 680.927 335.018 L 672.353 335 669.765 328.750 C 668.156 324.864, 666.964 323.067, 666.613 324 M 746.624 328.051 C 745.004 331.299, 745.393 334, 747.482 334 C 748.179 334, 750.044 334.255, 751.625 334.566 C 755.942 335.416, 758.350 329.905, 754.950 326.957 C 751.574 324.028, 748.425 324.442, 746.624 328.051 M 467.011 328.647 C 465.091 330.009, 462.794 331.781, 461.905 332.586 C 461.016 333.390, 459.557 333.767, 458.663 333.424 C 456.889 332.743, 449.760 337.470, 447.331 340.938 C 445.312 343.821, 446.278 343.530, 452.156 339.486 L 457.264 335.973 460.652 339.736 L 464.040 343.500 463.430 338.905 C 462.840 334.464, 462.952 334.206, 466.804 331.155 C 468.995 329.420, 471.259 328, 471.835 328 C 472.411 328, 473.160 327.550, 473.500 327 C 474.666 325.114, 470.500 326.171, 467.011 328.647 M 219.087 339.913 C 215.340 343.660, 216.473 349.089, 221.392 350.959 C 225.677 352.588, 228.958 349.741, 228.985 344.372 C 229.011 339.023, 222.783 336.217, 219.087 339.913 M 622.285 388.300 C 622.662 389.282, 622.105 390.002, 620.681 390.377 L 618.500 390.951 620.843 392.598 C 622.506 393.766, 623.055 394.934, 622.732 396.622 C 622.238 399.207, 623.808 399.792, 625.825 397.775 C 626.792 396.808, 627.464 396.808, 629.011 397.775 C 630.090 398.449, 631.204 399, 631.486 399 C 632.609 399, 631.911 396.171, 630.500 395 C 629.675 394.315, 629 393.360, 629 392.878 C 629 392.395, 629.675 392, 630.500 392 C 631.325 392, 632 391.325, 632 390.500 C 632 389.675, 631.325 389, 630.500 389 C 629.675 389, 629 388.550, 629 388 C 629 387.450, 628.520 387, 627.933 387 C 627.322 387, 627.136 387.852, 627.497 388.991 C 627.845 390.086, 627.772 391.549, 627.336 392.241 C 626.809 393.076, 626.364 392.494, 626.013 390.512 C 625.682 388.637, 624.781 387.389, 623.596 387.161 C 622.253 386.902, 621.874 387.231, 622.285 388.300 M 696.036 388.457 C 695.331 389.306, 694.127 390, 693.359 390 C 692.345 390, 692.139 390.755, 692.606 392.750 C 693.374 396.025, 705.695 415, 707.054 415 C 708.513 415, 708.183 413.505, 706.145 410.885 C 702.698 406.452, 695.381 395.436, 694.692 393.641 C 694.152 392.233, 694.480 391.896, 696.254 392.040 C 700.459 392.380, 701.144 392.038, 700.820 389.760 C 700.433 387.051, 697.798 386.334, 696.036 388.457 M 116.820 393.250 C 116.591 394.861, 115.719 395.590, 113.750 395.816 C 110.438 396.198, 110.452 396.022, 113.245 402.110 C 115.627 407.302, 116.992 407.791, 121.759 405.165 C 123.459 404.228, 123.872 403.339, 123.428 401.569 C 123.103 400.276, 123.324 398.918, 123.919 398.550 C 125.625 397.496, 125.180 396, 123.161 396 C 122.149 396, 120.808 394.875, 120.182 393.500 C 118.766 390.393, 117.241 390.280, 116.820 393.250 M 496.119 394.250 C 495.661 395.488, 495.077 397.162, 494.820 397.970 C 494.563 398.779, 492.361 399.935, 489.927 400.539 L 485.500 401.639 488.870 403.407 C 492.075 405.089, 492.216 405.393, 491.741 409.604 C 491.134 414.987, 491.975 415.720, 495.029 412.469 C 497.922 409.390, 498.345 409.398, 502.567 412.619 C 506.346 415.501, 507.075 414.454, 504.786 409.430 C 503.690 407.024, 503.835 406.538, 506.286 404.430 C 509.788 401.418, 509.707 401, 505.622 401 C 501.755 401, 500.515 399.829, 499.536 395.250 C 498.727 391.466, 497.302 391.049, 496.119 394.250 M 219.182 395.500 C 218.333 397.364, 217.274 398, 215.021 398 C 211.335 398, 211.035 399.720, 214.567 400.606 C 216.928 401.199, 217.081 401.561, 216.479 405.125 C 215.763 409.362, 216.380 409.871, 219.171 407.345 C 220.873 405.805, 221.127 405.805, 222.829 407.345 C 225.742 409.982, 226.938 409.395, 226.327 405.627 C 226.006 403.652, 226.240 401.970, 226.890 401.568 C 228.594 400.515, 228.214 399.203, 226.002 398.501 C 224.904 398.152, 223.730 396.772, 223.394 395.433 C 222.605 392.291, 220.630 392.322, 219.182 395.500 M 173.736 421.750 C 173.526 422.163, 172.749 424.423, 172.009 426.773 C 170.539 431.446, 168.231 432.696, 163.002 431.650 C 158.327 430.715, 158.259 432.953, 162.843 436.910 L 167.001 440.500 164.501 444.852 C 163.125 447.246, 162 449.608, 162 450.102 C 162 451.483, 166.352 451.169, 170.346 449.500 C 174.977 447.565, 174.683 447.487, 176.589 451.171 C 177.997 453.894, 178.361 454.106, 179.166 452.668 C 179.902 451.353, 180.953 451.129, 184.052 451.624 C 188.749 452.375, 188.982 451.536, 185.500 446.405 C 182.215 441.564, 182.255 441.366, 187.500 436.550 C 193.265 431.258, 193.161 430.600, 186.665 431.271 C 180.290 431.929, 179.514 431.525, 178.651 427.095 C 177.733 422.382, 174.954 419.359, 173.736 421.750 M 362 428.800 C 362 432.592, 360.321 434, 355.800 434 C 351.353 434, 350.975 435.099, 354.604 437.476 C 357.045 439.076, 357.166 439.519, 356.532 444.591 C 355.780 450.608, 356.507 451.218, 360 447.500 C 361.292 446.125, 363.173 445, 364.181 445 C 365.189 445, 366.991 446.125, 368.187 447.500 C 371.452 451.256, 372.340 450.619, 371.601 445.050 C 370.980 440.368, 371.108 439.980, 373.972 437.862 C 378.108 434.805, 377.786 434, 372.426 434 C 368.038 434, 367.783 433.838, 366.176 430.010 C 364.228 425.374, 362 424.728, 362 428.800 M 174.462 432 C 173.592 434.955, 172.891 435.580, 169.965 436.014 C 167.373 436.398, 166.941 436.705, 168.250 437.232 C 170.216 438.024, 170.582 442.043, 168.965 445.066 C 167.742 447.351, 168.738 447.513, 171.441 445.468 C 174.287 443.316, 176.737 443.670, 178.592 446.500 C 181.079 450.296, 181.936 449.493, 180.340 444.860 C 178.991 440.945, 179.034 440.593, 181.131 438.360 L 183.349 436 180.797 436 C 177.822 436, 176.331 434.494, 175.842 431 C 175.522 428.711, 175.406 428.795, 174.462 432 M 566 443.382 C 566 446.497, 565.552 447.192, 562.750 448.427 C 559.762 449.745, 559.671 449.913, 561.626 450.514 C 563.625 451.129, 565.082 453.194, 566.378 457.250 C 566.686 458.212, 567.415 459, 568 459 C 570.127 459, 570.219 455.788, 568.172 453.019 C 566.355 450.561, 566.270 450.021, 567.538 448.969 C 568.342 448.301, 569 447.135, 569 446.378 C 569 444.366, 570.359 444.688, 572.790 447.277 C 574.880 449.501, 574.942 454, 572.883 454 C 572.398 454, 572 454.900, 572 456 C 572 457.843, 572.850 458.383, 574.750 457.750 C 575.163 457.613, 575.355 457.050, 575.179 456.500 C 575.002 455.950, 575.429 456.063, 576.129 456.750 C 579.072 459.644, 579.473 457.795, 577.411 450.831 C 577.090 449.749, 577.655 448.927, 579.013 448.496 C 581.959 447.561, 580.884 445.433, 577.663 445.822 C 575.287 446.108, 575 445.812, 575 443.072 C 575 439.631, 574.292 439.219, 572.527 441.632 C 571.427 443.137, 571.125 443.128, 568.667 441.517 L 566 439.770 566 443.382 M 101.929 450.612 L 99.358 455.935 103.679 460.176 C 109.272 465.664, 109.146 466.659, 103.258 463.524 C 96.734 460.051, 95.563 460.271, 93.142 465.421 C 90.062 471.974, 89 472.002, 89 465.528 C 89 461.481, 88.586 459.778, 87.500 459.362 C 85.401 458.556, 85.632 457.329, 88 456.710 C 89.100 456.423, 90 455.710, 90 455.126 C 90 454.404, 89.280 454.375, 87.750 455.035 C 86.513 455.569, 84.263 456.498, 82.750 457.101 C 81.237 457.703, 80 458.577, 80 459.043 C 80 459.509, 81.237 460.483, 82.750 461.207 C 85.327 462.439, 85.544 463.048, 86.193 470.870 C 87.141 482.295, 87.784 482.576, 92.782 473.750 C 98.324 463.964, 100.760 463.485, 110.870 470.194 C 116.316 473.809, 117.097 473.205, 113.322 468.296 C 105.670 458.344, 105.554 457.377, 111.500 453.107 C 117.185 449.025, 117.135 448.636, 111 449.226 C 106.679 449.641, 106 449.463, 106 447.912 C 106 444.360, 104.453 445.386, 101.929 450.612 M 695.489 464.299 C 691.385 467.013, 690.533 468.078, 690.688 470.299 C 690.851 472.640, 690.500 473, 688.056 473 C 685.035 473, 677 479.990, 677 482.618 C 677 484.985, 678.493 484.164, 682.698 479.484 C 687.136 474.545, 688.007 474.480, 693.594 478.676 C 698.741 482.541, 699.663 481.047, 695.500 475.589 C 692.180 471.236, 692.268 470.841, 697.500 466.554 C 704.827 460.550, 703.465 459.024, 695.489 464.299 M 200.533 479.936 C 199.557 481.823, 198.094 483.066, 196.724 483.171 C 193.571 483.414, 190.656 483.693, 189.563 483.858 C 189.048 483.936, 189.926 485.357, 191.515 487.016 C 194.213 489.832, 194.334 490.296, 193.341 494.016 C 192.142 498.507, 192.482 498.692, 197.520 496.289 C 200.378 494.926, 201.453 494.822, 202.804 495.776 C 203.737 496.435, 205.686 497.640, 207.135 498.454 L 209.770 499.932 209.635 494.769 C 209.516 490.200, 209.788 489.459, 212 488.336 C 215.892 486.359, 215.066 484.563, 210.005 484 C 205.973 483.551, 205.458 483.200, 205.005 480.582 C 204.308 476.556, 202.422 476.283, 200.533 479.936 M 510.579 484.250 L 508.025 490 503.513 490 C 501.031 490, 499 490.313, 499 490.695 C 499 491.958, 504.348 497, 505.687 497 C 506.646 497, 507 498.888, 507 504 C 507 512.179, 507.955 512.754, 510.952 506.379 C 513.056 501.903, 513.237 501.777, 516.731 502.344 C 518.715 502.666, 520.600 503.293, 520.919 503.738 C 521.602 504.689, 526.688 508, 527.465 508 C 528.988 508, 527.965 506.359, 522.062 499.338 C 521.383 498.529, 522.271 497.025, 524.982 494.394 C 529.739 489.777, 529.389 489, 522.552 489 C 517.306 489, 517.213 488.948, 516.599 485.674 C 516.255 483.844, 515.335 481.482, 514.554 480.424 C 513.224 478.623, 512.969 478.869, 510.579 484.250 M 732.441 480.468 C 731.374 481.276, 729.542 481.951, 728.372 481.968 C 725.229 482.015, 719.727 484.539, 717.570 486.923 C 715.698 488.991, 715.718 489.044, 719.590 492.406 C 724.047 496.275, 723.682 497.986, 718.909 495.604 C 712.060 492.188, 700.071 494.081, 695.123 499.362 L 692.747 501.898 695.332 502.547 C 696.754 502.904, 698.472 503.863, 699.149 504.679 C 700.214 505.963, 699.852 506.066, 696.440 505.448 C 694.273 505.056, 692.319 504.576, 692.099 504.383 C 691.387 503.759, 689.065 507.444, 689.032 509.250 C 688.985 511.820, 686.194 511.386, 685.820 508.750 C 685.355 505.479, 679.403 505.109, 675.583 508.113 C 672.833 510.277, 672.788 510.473, 673.471 517.412 C 674.163 524.433, 673.754 525.155, 671.576 520.768 C 670.640 518.883, 669.512 518.450, 664.885 518.205 C 659.079 517.897, 657.912 518.537, 655.514 523.348 C 654.202 525.980, 651.481 526.595, 648.414 524.954 C 644.594 522.910, 641.032 525.898, 640.881 531.273 L 640.762 535.500 639.784 530.119 C 639.012 525.875, 639.090 524.558, 640.153 523.884 C 641.042 523.321, 641.099 523.025, 640.321 523.015 C 639.673 523.007, 637.535 524.516, 635.571 526.368 C 629.283 532.299, 630.867 540.851, 639.026 545.013 C 644.144 547.624, 644.182 547.609, 643.527 543.250 C 643.116 540.515, 643.213 540.041, 643.884 541.500 C 645.350 544.683, 652.201 550.635, 655.760 551.819 C 659.372 553.020, 681.752 552.435, 685.338 551.046 C 686.527 550.586, 688.850 549.037, 690.500 547.606 C 693.043 545.399, 694.453 545.002, 699.753 545.001 C 705.778 545, 706.137 544.854, 709.619 541 C 711.607 538.800, 713.855 537, 714.616 537 C 716.577 537, 716.413 537.442, 712.583 542.459 C 709.817 546.083, 709.032 548.187, 708.462 553.511 C 707.627 561.305, 705.398 562.027, 705.682 554.411 C 705.880 549.090, 705.061 548.039, 700.700 548.015 C 694.266 547.980, 691 551.317, 691 557.927 C 691 562.271, 692.410 563.822, 699.250 567.008 C 703.979 569.211, 705.410 571, 702.441 571 C 701.584 571, 701.147 571.429, 701.471 571.953 C 701.795 572.478, 700.318 573.376, 698.189 573.949 C 693.507 575.210, 691.279 577.497, 690.834 581.500 C 690.435 585.082, 686.458 585.373, 684.128 581.991 C 680.922 577.338, 669.915 580.744, 671.281 585.967 C 671.890 588.296, 671.133 588.473, 667.550 586.841 C 665.611 585.957, 664.055 585.966, 661.009 586.879 C 655.826 588.432, 653.705 592.301, 654.164 599.365 C 654.593 605.969, 653.157 606.621, 650.157 601.183 C 648.848 598.808, 646.679 596.448, 645.339 595.939 C 641.987 594.665, 635.382 596.292, 632.352 599.139 C 630.089 601.265, 629.269 602.481, 625.922 608.676 C 624.212 611.840, 625.574 615.728, 629.014 617.507 C 632.226 619.168, 632.472 619.706, 631.046 621.960 C 630.249 623.220, 629.863 623.186, 628.232 621.710 C 623.429 617.363, 614 624.080, 614 631.849 C 614 636.262, 617.594 639.767, 624 641.601 C 634.350 644.563, 636.058 644.456, 640.450 640.566 C 642.623 638.642, 644.198 636.915, 643.950 636.730 C 643.703 636.545, 642.375 635.900, 641 635.297 L 638.500 634.201 642.218 632.601 C 646.784 630.635, 647.081 630.626, 646.371 632.475 C 646.060 633.286, 646.786 635.536, 647.984 637.475 C 650.168 641.008, 648.997 642.597, 646.240 639.840 C 642.550 636.150, 639.233 649.308, 642.783 653.552 C 644.822 655.988, 650.554 659, 653.154 659 C 655.104 659, 655.697 656.549, 654 655.500 C 652.022 654.277, 653.020 649.826, 655.923 646.923 C 659.166 643.680, 661.643 643.263, 664.559 645.468 C 665.626 646.276, 668.638 646.951, 671.250 646.968 C 673.862 646.986, 676 647.450, 676 648 C 676 648.550, 675.200 649, 674.223 649 C 671.565 649, 668.194 651.720, 667.705 654.259 C 667.378 655.954, 667.239 655.746, 667.136 653.405 C 666.870 647.365, 660.620 644.878, 657.537 649.585 C 655.438 652.787, 656.640 654.467, 663.467 657.877 C 665.935 659.109, 668.216 660.541, 668.536 661.059 C 669.463 662.558, 672 662.148, 672 660.500 C 672 659.675, 672.643 659, 673.429 659 C 674.214 659, 675.586 658.271, 676.476 657.381 C 678.447 655.410, 679.788 656.345, 678.030 658.464 C 675.095 662, 686.083 661.529, 693.649 657.794 C 699.447 654.932, 700.544 652.516, 698.819 646.409 C 697.503 641.749, 697.265 641.515, 693.093 640.803 C 685.102 639.439, 680.595 634.312, 681.193 627.267 C 681.607 622.399, 684 621.634, 684 626.370 C 684 631.652, 685.844 634.793, 689.689 636.062 C 693.724 637.394, 697.860 636.391, 694.500 634.895 C 692.991 634.224, 693.264 634.139, 695.613 634.552 C 698.411 635.043, 698.896 634.740, 700.410 631.549 C 702.619 626.893, 703.203 627.052, 705.716 633 C 708.994 640.761, 715.938 638.557, 717.693 629.199 C 718.668 624.001, 720.500 624.035, 720.500 629.251 C 720.500 631.315, 720.725 633.001, 721 633 C 722.214 632.992, 727.160 623.788, 727.684 620.562 C 728.410 616.084, 730.765 615.874, 731.187 620.250 C 731.732 625.905, 740 625.087, 740 619.378 C 740 617.931, 740.587 617, 741.500 617 C 742.551 617, 743 618.061, 743 620.545 C 743 624.558, 739.388 629, 736.126 629 C 734.148 629, 732.125 633.586, 730.480 641.802 L 729.818 645.104 736.854 639.802 C 742.928 635.224, 743.897 634.065, 743.945 631.318 C 744.012 627.456, 747.218 624.881, 754.500 622.841 L 759.500 621.441 760.144 612.470 C 761.313 596.196, 761.112 571.512, 759.800 570.200 C 755.789 566.189, 747.201 571.253, 748.341 576.957 C 749.048 580.491, 747.862 580.862, 745 578 C 742.321 575.321, 742.404 574.988, 746.818 570.677 C 749.898 567.670, 751.630 566.831, 755.768 566.341 L 760.900 565.733 760.316 559.117 C 759.677 551.871, 757.302 548.610, 751.762 547.368 C 749.149 546.783, 748.725 544.301, 750.646 540.833 C 750.850 540.466, 753.253 542.491, 755.986 545.333 L 760.957 550.500 760.978 542.627 L 761 534.753 748.982 535.182 C 740.820 535.473, 737.073 535.272, 737.306 534.555 C 737.880 532.787, 746.100 531.094, 753.500 531.219 L 760.500 531.337 760.771 511.597 L 761.043 491.856 756.771 487.317 C 749.801 479.911, 737.687 476.501, 732.441 480.468 M 510.620 489 C 509.649 491.200, 508.213 493, 507.428 493 C 505.287 493, 505.709 494.691, 508 495.290 C 509.282 495.625, 510 496.654, 510 498.156 C 510 500.294, 510.428 500.500, 514.875 500.500 C 519.341 500.500, 519.686 500.332, 518.980 498.500 C 518.421 497.050, 518.874 495.791, 520.629 493.920 L 523.049 491.339 520.055 491.779 C 517.473 492.158, 516.768 491.722, 514.932 488.609 C 512.343 484.222, 512.744 484.185, 510.620 489 M 58.598 490.552 C 57.029 491.699, 56.606 498.638, 58.050 499.531 C 59.160 500.217, 61.500 496.924, 61.500 494.677 C 61.500 492.366, 62.890 491.647, 64.900 492.918 C 66.055 493.648, 65.924 494.282, 64.150 496.537 C 62.967 498.040, 62 499.917, 62 500.708 C 62 503.043, 65.467 501.710, 65.820 499.240 C 66.050 497.622, 66.814 497, 68.570 497 C 71.254 497, 71.927 494.570, 69.500 493.638 C 68.675 493.322, 68 492.172, 68 491.084 C 68 488.818, 61.475 488.448, 58.598 490.552 M 46.354 553.642 C 42.345 554.520, 40.537 557.501, 42.400 560.161 C 44.718 563.470, 44.383 564.971, 41.066 566.127 C 37.605 567.333, 35 570.914, 35 574.465 C 35 577.692, 33.231 577.767, 32.429 574.574 C 31.601 571.272, 33.826 567.029, 37.781 564.366 C 41.771 561.680, 40.746 560.761, 33.315 560.359 C 28.663 560.108, 27.692 560.406, 25.391 562.787 L 22.769 565.500 23.343 562.332 C 24.531 555.776, 17.720 551.892, 10.669 555.105 C 8.797 555.958, 8.101 557.245, 7.622 560.745 C 6.510 568.855, 6.568 569, 10.941 569 C 15.838 569, 17.050 567.312, 13.894 564.885 C 11.642 563.154, 11.620 563.043, 13.527 563.022 C 16.041 562.995, 20 565.670, 20 567.396 C 20 569.233, 15.563 571, 10.953 571 L 7 571 7 583.500 C 7 594.149, 7.779 598.373, 9.167 595.250 C 10.366 592.551, 20.552 585, 22.994 585 C 27.747 585, 33.508 588.864, 34.172 592.497 C 34.721 595.503, 32.552 595.205, 30.668 592.015 C 24.187 581.044, 7.501 596.004, 7.874 612.451 C 8.057 620.493, 8.724 621.264, 14.967 620.642 C 19.978 620.143, 24 616.564, 24 612.604 C 24 610.127, 17.602 607.171, 14.673 608.295 C 13.727 608.658, 12.996 608.094, 12.638 606.724 C 11.903 603.914, 11.864 603.927, 17.032 605.217 C 23.600 606.857, 26 608.716, 26 612.165 C 26 618.845, 20.574 623.685, 12.248 624.432 L 8.500 624.769 8.500 631.026 C 8.500 639.800, 10.624 641.353, 22.741 641.438 C 32.252 641.505, 34.075 640.865, 40.437 635.223 L 44.132 631.945 41.513 628.833 C 38.012 624.672, 38.481 621.249, 42.966 618.237 C 46.492 615.868, 51.039 615.565, 51.724 617.652 C 51.964 618.387, 50.829 618.769, 48.597 618.706 C 44.759 618.597, 41 621.216, 41 624 C 41 625.828, 43.995 629, 45.722 629 C 46.307 629, 47.045 629.675, 47.362 630.500 C 47.678 631.325, 47.540 632, 47.055 632 C 46.096 632, 40 639.912, 40 641.157 C 40 641.576, 41.196 643.028, 42.659 644.384 C 51.660 652.731, 67.147 650.630, 65.396 641.299 C 65.027 639.330, 65.186 638, 65.791 638 C 67.327 638, 69.062 643.906, 68.354 646.726 C 67.969 648.258, 68.214 649.515, 68.992 649.995 C 69.762 650.471, 70.596 654.626, 71.129 660.638 C 73.024 682.004, 74.637 688.797, 78.591 692.073 C 80.574 693.715, 80.482 692.336, 77.459 675 C 76.548 669.775, 75.571 662.462, 75.288 658.750 C 75.006 655.038, 74.407 652, 73.959 652 C 72.648 652, 70 648.981, 70 647.487 C 70 646.405, 71.431 646.236, 76.803 646.687 C 83.516 647.249, 83.642 647.215, 86.303 644.052 C 87.786 642.289, 89 639.981, 89 638.923 C 89 636.451, 90.524 636.479, 93.230 639 C 97.145 642.647, 99.360 641.521, 103.894 633.581 C 106.715 628.642, 106.109 625.979, 101.074 621.174 L 97.225 617.500 95.117 620.730 C 92.935 624.072, 89.917 625.408, 85.852 624.833 C 83.869 624.552, 83.452 623.841, 83.195 620.300 C 82.877 615.916, 82.739 615.801, 76.268 614.499 C 73.489 613.940, 72.891 613.265, 71.995 609.675 C 71.423 607.379, 70.477 604.659, 69.895 603.632 C 68.305 600.828, 70.289 599.557, 72.479 601.976 C 73.837 603.477, 75.561 604, 79.155 604 C 83.361 604, 84 604.268, 84 606.034 C 84 607.898, 83.579 608.013, 79 607.406 C 74.856 606.856, 74 607.009, 74 608.300 C 74 610.561, 76.792 613, 79.380 613 C 82.458 613, 84.796 615.016, 85.179 618 C 85.439 620.023, 86.136 620.561, 88.839 620.820 C 92.551 621.176, 95.286 618.765, 94.591 615.750 C 93.995 613.167, 97.423 613.528, 99.343 616.250 L 100.931 618.500 103.965 615.234 C 109.795 608.961, 107.734 602, 100.047 602 C 97.284 602, 97.016 601.739, 97.481 599.500 C 97.766 598.125, 98.206 595.984, 98.458 594.742 C 99.092 591.620, 97.997 590.239, 94.574 589.840 C 90.213 589.332, 90.036 587, 94.358 587 C 96.296 587, 98.160 587.450, 98.500 588 C 99.888 590.246, 100.514 588.654, 100.774 582.215 C 101.034 575.789, 100.882 575.259, 97.906 572.215 C 94.039 568.259, 89.047 567.790, 86.803 571.171 C 84.833 574.137, 83.005 572.712, 82.978 568.191 C 82.941 562.029, 80.167 559.500, 73.448 559.500 C 68.278 559.500, 67.543 559.785, 65.068 562.750 C 62.127 566.273, 59.290 567.206, 60.506 564.250 C 62.072 560.447, 61.966 559.394, 59.741 556.651 C 57.392 553.755, 51.691 552.473, 46.354 553.642 M 386.027 558.628 C 385.993 561.291, 384.208 562.808, 380.155 563.619 C 377.370 564.176, 375.608 566, 377.854 566 C 380.504 566, 384 571.093, 384 574.952 C 384 578.333, 384.329 579, 386 579 C 387.423 579, 388 578.333, 388 576.691 C 388 572.696, 390.277 570.605, 393.850 571.320 C 397.348 572.020, 397.735 571.470, 395.492 568.991 C 394.140 567.497, 394.192 567.085, 395.992 565.009 C 398.656 561.937, 398.553 561.720, 394.821 562.539 C 392.030 563.152, 391.302 562.827, 388.848 559.869 C 386.376 556.889, 386.051 556.745, 386.027 558.628 M 134.973 561.704 C 129.872 565.220, 128.515 569.701, 131.539 573.043 C 132.958 574.611, 132.724 574.832, 128.532 575.888 L 123.987 577.032 125.584 580.766 C 126.463 582.820, 127.414 585.063, 127.698 585.750 C 128.672 588.110, 125.373 586.999, 122.500 584 C 116.719 577.966, 105.106 581.193, 103.511 589.277 C 103.161 591.050, 102.388 593.763, 101.793 595.306 C 100.438 598.821, 101.466 599.958, 106.401 600.401 C 110.908 600.805, 112.966 602.434, 111.200 604.200 C 110.540 604.860, 110 607.356, 110 609.748 C 110 614, 106.600 619, 103.708 619 C 103.158 619, 103.927 620.130, 105.418 621.511 C 107.083 623.054, 107.932 624.693, 107.621 625.761 C 105.661 632.483, 105.909 636.515, 108.448 639.206 C 111.289 642.219, 111.794 645, 109.500 645 C 108.675 645, 108 644.190, 108 643.200 C 108 639.778, 105.971 638.962, 102.974 641.177 C 100.908 642.705, 99.077 643.128, 95.697 642.859 C 91.674 642.539, 90.979 642.804, 89.340 645.280 C 88.328 646.809, 85.381 649.059, 82.791 650.280 C 76.813 653.098, 76.582 654.430, 82.448 652.256 C 87.866 650.248, 90.823 651.400, 93.630 656.611 C 96.114 661.223, 100.987 663.399, 107.191 662.664 C 114.113 661.844, 118.307 658.675, 117.476 654.892 C 116.627 651.027, 118.100 651.219, 122.139 655.500 C 125.860 659.445, 129.208 659.978, 134.166 657.414 C 137.120 655.887, 137.217 655.628, 136.784 650.414 C 136.323 644.846, 137.145 643.534, 138.965 646.934 C 140.294 649.418, 140.294 654.582, 138.965 657.066 C 137.637 659.547, 140.379 659.671, 147.812 657.463 C 153.333 655.824, 156 652.614, 156 647.609 C 156 646.239, 156.395 644.874, 156.878 644.575 C 158.212 643.751, 159.026 649.422, 158.058 652.798 L 157.203 655.780 163.148 656.949 C 168.779 658.057, 169.335 657.984, 173.672 655.559 C 179.551 652.274, 180.696 652.338, 181.500 656 C 181.862 657.650, 182.461 659, 182.829 659 C 184.585 659, 189.082 666.165, 188.493 668.022 C 187.447 671.317, 185 670.418, 185 666.740 C 185 664.634, 184.100 662.509, 182.460 660.740 C 178.741 656.730, 172 657.160, 172 661.407 C 172 665.751, 168.564 667.381, 167.589 663.500 C 167.104 661.566, 166.318 661, 164.116 661 C 162.550 661, 160.157 660.124, 158.796 659.054 C 156.331 657.115, 156.306 657.117, 151.492 659.554 C 148.835 660.899, 145.590 662, 144.281 662 C 141.243 662, 136.414 664.480, 135.668 666.423 C 135.352 667.246, 133.210 669.284, 130.907 670.952 L 126.720 673.985 130.328 675.493 C 132.312 676.322, 136.376 677, 139.359 677 C 144.311 677, 144.838 676.782, 145.411 674.500 C 146.139 671.599, 147.780 671.225, 148.702 673.750 C 149.053 674.712, 150.189 676.606, 151.227 677.957 C 152.415 679.504, 152.900 681.263, 152.537 682.709 C 151.916 685.183, 156.608 688.989, 160.290 688.996 C 164.069 689.004, 170 685.071, 170 682.556 C 170 678.015, 162.139 671, 157.050 671 C 152.188 671, 155.549 669.146, 160.968 668.839 C 166.015 668.552, 166.725 668.711, 165.566 669.866 C 164.406 671.023, 164.727 671.700, 167.657 674.272 C 169.560 675.943, 171.972 678.985, 173.016 681.032 C 175.308 685.524, 176.395 686, 184.370 686 C 189.800 686, 191.008 685.630, 194.038 683.041 C 198.748 679.014, 200.259 679.104, 199.460 683.361 C 198.910 686.296, 199.126 686.802, 201.165 687.347 C 208.918 689.423, 216.570 687.034, 219.395 681.655 C 223.526 673.788, 215.253 663.937, 205.848 665.526 C 202.638 666.068, 201.857 665.925, 202.210 664.858 C 202.497 663.987, 204.603 663.398, 208.079 663.217 C 216.749 662.763, 224 670.112, 224 679.351 L 224 682.767 230.497 683.181 C 234.071 683.408, 237.558 684.187, 238.247 684.911 C 239.632 686.366, 229.827 685.645, 225.414 683.967 C 223.237 683.139, 218.850 686.184, 220.231 687.564 C 220.535 687.868, 226.880 687.699, 234.332 687.190 C 247.574 686.284, 247.978 686.187, 252.190 682.907 C 257.582 678.709, 257.966 678.160, 257.985 674.618 C 258.016 668.769, 249.507 659.505, 246.441 662.049 C 245.227 663.056, 245 662.616, 245 659.261 C 245 655.611, 245.198 655.315, 247.367 655.730 C 249.143 656.069, 250.266 655.435, 251.867 653.187 C 255.788 647.680, 253.937 638.649, 247.834 633.514 C 243.910 630.212, 234.662 630.186, 231.037 633.466 C 228.435 635.822, 228.399 637.392, 230.979 636.011 C 234.452 634.153, 240.280 636.919, 242.796 641.618 C 244.306 644.441, 245.519 655.016, 244.101 653 C 243.520 652.175, 243.291 650.712, 243.590 649.750 C 244.225 647.709, 243.093 647.545, 239.543 649.162 C 236.049 650.754, 235.356 649.634, 237.864 646.446 C 241.525 641.791, 236.594 637.255, 228.982 638.276 L 224.853 638.829 225.437 635.165 C 226.213 630.297, 225.255 629.134, 219.867 628.395 L 215.343 627.775 213.172 632.823 C 211.977 635.599, 211 638.317, 211 638.863 C 211 640.232, 203.860 646, 202.164 646 C 201.124 646, 200.987 646.678, 201.611 648.750 C 202.840 652.828, 202.623 659.777, 201.224 661.176 C 200.259 662.141, 199.993 661.354, 199.965 657.450 C 199.910 649.854, 198.237 647.687, 191.509 646.500 C 183.307 645.053, 184.211 643.584, 193.681 642.967 C 204.777 642.245, 208.117 639.136, 209.571 628.179 C 210.220 623.287, 210.128 622.999, 207.626 622.048 C 206.182 621.499, 204.971 620.701, 204.936 620.275 C 204.480 614.742, 203.912 612.799, 201.985 610.193 C 198.729 605.789, 195.151 604.520, 191.444 606.453 C 187.650 608.431, 184 608.454, 184 606.500 C 184 605.675, 184.691 605, 185.535 605 C 187.341 605, 191.980 602.173, 193.718 600.014 C 195.402 597.921, 195.296 593.867, 193.489 591.288 C 192.533 589.923, 192.350 588.902, 192.989 588.507 C 194.659 587.475, 194.164 578.087, 192.272 574.883 C 187.944 567.556, 176.292 566.171, 169.458 572.171 C 167.556 573.841, 165.941 575.048, 165.870 574.854 C 165.798 574.659, 165.673 572.317, 165.591 569.649 C 165.485 566.143, 164.913 564.410, 163.531 563.399 C 161.018 561.561, 156.565 561.614, 155 563.500 C 153.261 565.595, 151.654 565.383, 147.405 562.500 C 143.117 559.590, 138.471 559.293, 134.973 561.704 M 597.528 564.806 C 597.237 565.096, 597 566.106, 597 567.050 C 597 567.994, 596.060 569.013, 594.910 569.313 C 593.393 569.710, 592.987 570.383, 593.428 571.773 C 593.803 572.954, 593.219 574.723, 591.904 576.396 C 590.731 577.886, 589.999 579.333, 590.277 579.610 C 590.555 579.888, 591.762 578.739, 592.959 577.058 C 595.664 573.259, 596.181 573.253, 597.840 577 C 598.570 578.650, 599.805 580, 600.584 580 C 602.426 580, 602.372 578.586, 600.369 574.365 C 598.691 570.830, 599.154 568.754, 601.170 570.770 C 602.380 571.980, 606 570.705, 606 569.069 C 606 567.991, 598.245 564.088, 597.528 564.806 M 716.500 577.733 C 709.042 579.600, 704.854 589.362, 708.506 596.364 C 710.467 600.124, 710.640 599.797, 705.548 601.979 C 702.536 603.270, 700.268 605.200, 698.535 607.944 C 695.708 612.423, 693.044 613.120, 689.158 610.398 C 686.592 608.601, 685.653 608.931, 686.565 611.309 C 687.334 613.313, 692.562 615.057, 696.481 614.616 C 698.941 614.340, 699.580 613.710, 700.130 611.020 C 701.050 606.522, 703.953 603.950, 708.853 603.293 C 713.533 602.665, 713.709 602.108, 711 596.500 C 708.138 590.574, 708.479 588.285, 712.882 583.882 C 718.785 577.979, 729 579.003, 729 585.498 C 729 586.809, 729.450 588.160, 730 588.500 C 731.158 589.216, 731.362 583.066, 730.235 581.442 C 727.683 577.767, 722.236 576.297, 716.500 577.733 M 140 586.709 C 137.176 587.748, 135 590.310, 135 592.596 C 135 596.111, 136.627 596.315, 138.011 592.975 C 140.471 587.034, 148.204 588.253, 150.382 594.925 C 151.870 599.482, 154 600.143, 154 596.048 C 154 589.206, 146.613 584.278, 140 586.709 M 587.374 594.689 C 583.562 595.437, 580.634 599.441, 582.137 601.848 C 584.003 604.836, 582.383 605.709, 579.682 603.171 C 576.786 600.451, 572.874 600.372, 571.232 603 C 570.331 604.442, 568.900 605, 566.099 605 C 563.568 605, 562.013 605.523, 561.638 606.500 C 560.802 608.680, 559 608.338, 559 606 C 559 602.572, 551.920 603.253, 547.535 607.104 C 541.523 612.382, 543.324 620.920, 550.473 621.032 C 552.509 621.064, 556 623.166, 556 624.360 C 556 625.509, 551.559 624.963, 549 623.500 C 544.446 620.897, 541.461 622.789, 537.958 630.500 C 536.147 634.487, 536.141 634.491, 536.077 631.500 C 536.041 629.850, 536.658 627.263, 537.447 625.750 C 539.139 622.506, 537.795 622.055, 534.117 624.631 C 528.866 628.309, 527.872 635.069, 531.496 642.468 C 533.002 645.544, 533.728 648.401, 533.401 649.968 C 532.934 652.212, 533.006 652.291, 534.039 650.656 C 534.680 649.642, 536.787 648.151, 538.722 647.343 L 542.240 645.873 540.054 643.836 C 536.858 640.858, 538.120 640.599, 543.379 643.154 C 548.158 645.475, 549.292 646.996, 546.250 647.005 C 543.886 647.012, 534.500 654.220, 534.500 656.028 C 534.500 656.823, 535.737 658.066, 537.250 658.791 C 540.817 660.501, 540.731 661.849, 536.971 663.160 C 533.578 664.343, 530 670.498, 530 675.153 C 530 678.354, 527.646 680, 523.066 680 C 520.247 680, 520 680.273, 520 683.393 C 520 685.646, 520.588 687.061, 521.750 687.604 C 523.934 688.626, 557 689.112, 557 688.123 C 557 686.204, 554.635 685.125, 552.700 686.160 C 548.487 688.415, 541.812 686.543, 537.750 681.967 C 534.100 677.856, 532.973 675, 535 675 C 535.550 675, 536 675.628, 536 676.396 C 536 677.164, 537.644 679.236, 539.653 681 C 542.858 683.815, 543.784 684.130, 547.223 683.580 C 551.798 682.849, 556 680.362, 556 678.385 C 556 675.647, 558.998 676.954, 559.132 679.750 C 559.249 682.206, 559.329 682.134, 559.882 679.079 C 560.608 675.060, 563 673.638, 563 677.226 C 563 678.541, 563.624 680.471, 564.387 681.514 C 565.729 683.350, 565.887 683.324, 569.320 680.705 C 571.271 679.217, 573.613 678, 574.526 678 C 575.438 678, 577.329 677.100, 578.727 676 C 583.033 672.613, 584.823 673.556, 581.195 677.299 C 576.278 682.372, 581.068 684.913, 589.679 681.799 C 593.573 680.391, 593.622 680.139, 591 675 C 588.784 670.657, 588.498 667.807, 589.995 665.010 C 591.034 663.068, 596.336 660, 598.654 660 C 599.590 660, 600 658.577, 600 655.329 C 600 652.504, 600.615 649.977, 601.557 648.937 C 602.986 647.358, 602.849 647.029, 599.894 644.925 L 596.675 642.633 592.088 644.493 C 589.270 645.636, 584.864 646.382, 580.670 646.427 C 575.268 646.485, 573.560 646.882, 572.505 648.325 C 570.428 651.165, 565.933 650.147, 563.514 646.289 C 562.406 644.522, 560.894 643.060, 560.154 643.039 C 557.698 642.968, 553.094 646.347, 552.795 648.439 C 552.464 650.749, 550.895 650.995, 549.957 648.885 C 549.618 648.123, 548.364 645.611, 547.171 643.302 C 544.717 638.556, 544.101 628.998, 546.250 629.003 C 547.097 629.005, 547.500 630.768, 547.500 634.476 C 547.500 641.880, 550.113 644.864, 554.565 642.543 C 557.861 640.824, 562 640.500, 562 641.961 C 562 643.340, 566.135 647, 567.693 647 C 568.417 647, 571.178 645.954, 573.827 644.676 C 578.069 642.630, 578.894 642.518, 580.736 643.740 C 582.565 644.955, 583.395 644.870, 587.359 643.064 C 589.851 641.929, 593.463 641, 595.386 641 C 597.309 641, 599.202 640.482, 599.594 639.849 C 600.086 639.052, 600.724 639.270, 601.665 640.557 C 602.960 642.327, 603.163 642.335, 605.917 640.708 C 609.183 638.779, 611 638.526, 611 640 C 611 640.550, 610.531 641, 609.958 641 C 609.385 641, 607.996 641.857, 606.871 642.905 L 604.827 644.810 606.913 645.472 C 609.773 646.380, 609.535 647.483, 605.923 650.055 C 603.017 652.124, 602.882 652.510, 603.500 656.998 L 604.153 661.750 599.589 662.434 C 594.544 663.191, 592 665.103, 592 668.136 C 592 670.749, 595.995 680, 597.123 680 C 597.605 680, 598 680.675, 598 681.500 C 598 682.333, 598.889 683, 600 683 C 601.313 683, 602 682.333, 602 681.059 C 602 677.959, 603.419 677.853, 609.421 680.507 C 616.362 683.577, 617.554 683.630, 615.557 680.777 C 614.701 679.555, 614 677.442, 614 676.082 C 614 673.692, 614.114 673.733, 617.385 677.305 C 619.247 679.337, 621.621 681, 622.662 681 C 625.471 681, 629.008 678.185, 628.351 676.473 C 627.575 674.449, 631.380 674.523, 633.429 676.571 C 635.515 678.658, 635.425 680.074, 633.250 679.374 C 631.773 678.899, 631.734 678.980, 633 679.890 C 636.242 682.222, 641.660 681.234, 642.970 678.072 C 645.566 671.804, 647.128 671.536, 652.017 676.518 C 655.917 680.492, 656.919 681, 660.849 681 C 666.606 681, 673.527 677.556, 675.022 673.948 C 676.691 669.917, 675.961 666.449, 673.500 666.721 C 670.841 667.016, 666.231 665.169, 662.314 662.242 C 659.756 660.330, 658.735 660.071, 657.130 660.930 C 650.165 664.658, 639.922 659.088, 638.266 650.673 L 637.445 646.500 631.473 645.812 C 613.576 643.749, 614.643 644.060, 612.750 640.349 C 610.520 635.976, 610.496 627.863, 612.701 623.218 C 614.062 620.350, 614.137 619.546, 613.076 619.192 C 611.431 618.644, 608.384 615.653, 607.856 614.068 C 607.356 612.569, 604 613.774, 604 615.452 C 604 617.899, 600.430 620.223, 599.111 618.634 C 598.156 617.484, 598.881 616.524, 602.968 613.524 C 607.290 610.351, 608 609.353, 608 606.448 C 608 598.961, 597.144 592.772, 587.374 594.689 M 558.500 595.903 C 557.400 596.386, 555.409 597.955, 554.076 599.391 L 551.651 602 560.857 602 C 568.319 602, 570.177 601.701, 570.668 600.422 C 572.020 596.900, 563.465 593.722, 558.500 595.903 M 743.465 597.057 C 742.685 598.319, 743.739 602.980, 745.203 604.744 C 747.648 607.691, 754 604.790, 754 600.728 C 754 597.277, 745.220 594.218, 743.465 597.057 M 168.643 606.769 C 168.271 607.370, 168.425 608.144, 168.984 608.490 C 170.498 609.426, 170.212 614.253, 168.497 616.701 C 165.561 620.893, 160.385 621.457, 152.500 618.444 C 150.726 617.766, 150.773 617.980, 152.924 620.340 C 158.663 626.637, 173 621.758, 173 613.507 C 173 609.918, 169.777 604.934, 168.643 606.769 M 659.326 610.696 C 656.008 611.342, 653.696 615.568, 654.454 619.605 C 655.217 623.672, 654.204 623.884, 650.182 620.500 C 646.530 617.427, 645.996 617.395, 646.015 620.250 C 646.044 624.450, 647.393 625.355, 652.572 624.645 C 658.498 623.833, 658.681 623.642, 657.226 619.788 C 655.882 616.227, 656.806 614.404, 660.709 612.921 C 662.777 612.134, 664.065 609.807, 662.250 610.136 C 661.837 610.211, 660.522 610.463, 659.326 610.696 M 570.655 621.829 C 569.745 622.835, 569.018 624.747, 569.040 626.079 L 569.080 628.500 570.572 625.750 C 573.604 620.162, 583 623.649, 583 630.362 C 583 632.930, 578.920 638, 576.854 638 C 576.384 638, 576 638.450, 576 639 C 576 642.695, 584.435 636.099, 585.589 631.502 C 587.533 623.755, 575.793 616.151, 570.655 621.829 M 479.625 625.798 C 479.354 626.237, 479.511 627.208, 479.973 627.957 C 481.742 630.819, 479.847 632.075, 477.761 629.424 C 474.260 624.973, 468.312 627.678, 462.568 636.332 C 458.223 642.877, 458.181 643.950, 462.054 649.578 C 465.913 655.188, 465.232 656.421, 458.749 655.561 C 454.340 654.976, 453.290 655.220, 449.798 657.640 C 446.404 659.992, 445.556 660.204, 443.837 659.131 C 440.614 657.117, 437.282 659.937, 436.468 665.367 C 435.676 670.647, 436.672 672.798, 441.733 676.736 C 447.458 681.191, 448.364 681.251, 452.075 677.422 C 456.221 673.145, 456.814 673.160, 461.054 677.647 L 464.500 681.293 460.199 678.934 C 455.238 676.212, 453.667 676.718, 450.551 682.039 C 448.619 685.338, 448.619 685.359, 450.551 684.463 C 451.623 683.965, 456.918 683.402, 462.317 683.211 L 472.134 682.864 469.567 679.499 C 464.919 673.405, 466.290 664.113, 471.644 665.428 C 475.037 666.261, 475.839 666.261, 483.011 665.430 C 488.587 664.784, 494.829 667.494, 492.696 669.635 C 492.253 670.079, 491.531 669.858, 491.090 669.145 C 490.649 668.432, 488.495 667.608, 486.303 667.314 C 482.865 666.853, 482.037 667.137, 480.265 669.390 C 477.789 672.538, 477 672.671, 477 669.940 C 477 668.170, 476.470 667.923, 473.250 668.190 C 468.557 668.578, 467.515 672.842, 471.024 677.303 C 473.779 680.806, 474.760 680.704, 475.770 676.809 C 476.827 672.729, 481.007 671.321, 485.612 673.494 C 490.486 675.795, 491.486 677.510, 490.266 681.484 C 488.942 685.798, 489.191 686, 495.822 686 C 501.078 686, 501.240 685.923, 499.653 684.169 C 497.061 681.304, 499.056 680.679, 501.948 683.450 C 505.052 686.424, 516.309 688.390, 515.959 685.897 C 515.220 680.627, 518.294 677, 523.500 677 C 527.458 677, 528.317 674.775, 525.037 673.020 C 522.545 671.686, 523.477 668.630, 526.162 669.332 C 529.872 670.302, 532.345 663.082, 530.596 656.383 C 529.508 652.220, 529.410 650.194, 530.210 648.438 C 532.025 644.456, 528.989 641, 523.677 641 C 521.325 641, 518.860 641.540, 518.200 642.200 C 516.298 644.102, 516.760 649.473, 519 651.500 C 520.100 652.495, 521 653.690, 521 654.155 C 521 655.740, 518.314 655.005, 516.406 652.897 C 514.835 651.160, 513.668 650.874, 509.719 651.253 C 502.093 651.986, 497.178 658.413, 501.500 662 C 503.090 663.320, 503.553 666, 502.191 666 C 499.782 666, 497.600 662.972, 497.600 659.631 C 497.600 653.426, 506.745 646.111, 511.101 648.831 C 512.131 649.474, 513.091 650.001, 513.236 650.001 C 513.796 650.003, 513.153 639.057, 512.535 638.057 C 511.657 636.636, 506.265 636.705, 505.786 638.143 C 505.330 639.511, 501 637.540, 501 635.965 C 501 635.434, 500.316 635, 499.481 635 C 498.379 635, 498.126 634.344, 498.561 632.613 C 499.666 628.210, 492.192 625.061, 489.392 628.750 C 488.156 630.379, 488.061 630.351, 488.032 628.357 C 487.989 625.470, 481.120 623.379, 479.625 625.798 M 752.208 627.964 C 749.894 629.641, 748 631.428, 748 631.935 C 748 633.115, 750.864 636, 752.036 636 C 752.528 636, 753.414 636.904, 754.005 638.009 C 754.916 639.712, 754.708 640.161, 752.637 640.948 C 751.294 641.459, 749.921 642.318, 749.588 642.858 C 748.642 644.388, 753.945 648, 757.135 648 L 760 648 760.150 638 C 760.232 632.500, 760.345 627.438, 760.400 626.750 C 760.594 624.325, 756.367 624.952, 752.208 627.964 M 726.646 632.022 C 724.633 635.430, 722.478 642.499, 721.471 649 C 720.113 657.763, 717.726 658.117, 713.048 650.250 C 707.809 641.439, 701.743 634.708, 700.709 636.556 C 700.161 637.534, 700.645 639.307, 702.101 641.663 C 705.731 647.536, 711.708 660.255, 712.441 663.665 C 712.815 665.406, 712.442 671.031, 711.611 676.165 C 710.780 681.299, 709.829 687.975, 709.498 691 C 708.505 700.083, 706.764 706.124, 705.303 705.563 C 704.478 705.246, 703.988 705.877, 703.968 707.281 C 703.937 709.447, 703.902 709.454, 702.468 707.559 C 701.532 706.322, 701 706.106, 701 706.964 C 701 707.959, 700.502 707.859, 699.091 706.582 C 697.289 704.952, 697.127 704.951, 696.222 706.567 C 694.955 708.831, 693.411 707.743, 691.453 703.208 C 687.761 694.657, 686.252 692.456, 681.500 688.688 C 677.915 685.845, 677.207 684.934, 679 685.468 C 682.252 686.437, 690.921 694.853, 691.650 697.750 C 692.169 699.810, 694.023 701.002, 693.983 699.250 C 693.875 694.490, 683.420 683.935, 677.500 682.611 C 675.621 682.190, 674.999 682.272, 675.834 682.830 C 676.899 683.542, 676.824 683.854, 675.457 684.378 C 674.516 684.739, 673.148 684.538, 672.417 683.931 C 671.653 683.297, 670.537 683.184, 669.794 683.664 C 669.082 684.124, 665.575 684.780, 662 685.122 L 655.500 685.744 663.106 685.730 C 677.160 685.703, 687.063 693.430, 689.405 706.250 C 690.247 710.854, 688.384 711.400, 686.850 707 C 685.572 703.333, 683.519 702.949, 684.422 706.546 C 685.417 710.508, 684.127 711.255, 681.496 708.243 L 679.101 705.500 679.699 708 L 680.296 710.500 677.898 708.500 C 676.579 707.400, 674.396 705.876, 673.046 705.114 L 670.592 703.728 672.359 706.425 C 674.806 710.159, 673.984 711.562, 670.811 709.066 C 668.921 707.579, 668.050 707.346, 667.748 708.244 C 667.410 709.249, 667.018 709.247, 665.789 708.233 C 663.646 706.464, 660.781 707.734, 661.538 710.118 C 662.217 712.258, 659.511 712.852, 658.662 710.750 C 658.385 710.063, 658.122 710.561, 658.079 711.857 C 658.020 713.608, 657.582 714.054, 656.373 713.590 C 655.479 713.246, 654.241 713.365, 653.623 713.852 C 652.540 714.708, 642.039 716.696, 633.250 717.711 C 628.099 718.305, 627.670 719.762, 632.521 720.190 C 637.486 720.627, 637.271 722.091, 632 723.746 C 629.525 724.523, 626.825 725.416, 626 725.730 C 622.181 727.186, 608.926 729.259, 608.184 728.517 C 607.325 727.659, 608.717 726.807, 612.199 726.060 C 615.114 725.434, 614.711 725.263, 608.750 724.596 C 605.038 724.181, 602 723.359, 602 722.771 C 602 721.415, 619.956 722.556, 621.404 724.004 C 622.612 725.212, 625 725.321, 625 724.169 C 625 723.432, 619.523 721.461, 607.750 717.960 C 605.688 717.347, 604 716.603, 604 716.307 C 604 714.860, 616.203 717.503, 621.410 720.078 C 624.660 721.685, 628.035 722.988, 628.910 722.974 C 629.784 722.960, 628.250 721.795, 625.500 720.385 C 622.750 718.975, 620.050 717.453, 619.500 717.003 C 618.950 716.553, 615.839 715.695, 612.587 715.096 C 604.274 713.566, 604.215 712.637, 612.471 713.270 L 619.442 713.805 615.971 712.229 C 612.828 710.802, 612.714 710.615, 614.766 710.255 C 616.012 710.036, 618.712 710.874, 620.766 712.118 C 628.921 717.055, 629.414 717.165, 625.122 713.084 C 620.367 708.565, 620.129 706.769, 624.663 709.631 L 627.500 711.422 625.544 709.154 C 624.263 707.669, 622.879 707.064, 621.535 707.402 C 620.407 707.685, 618.853 707.527, 618.081 707.050 C 614.301 704.714, 627.520 704.882, 634.750 707.262 C 638.737 708.575, 642 709.575, 642 709.484 C 642 709.393, 640.313 707.513, 638.250 705.306 C 636.188 703.100, 633.600 700.216, 632.500 698.897 C 630.514 696.517, 630.362 696.500, 610.856 696.500 C 593.543 696.500, 590.983 696.708, 589.275 698.252 C 586.973 700.334, 585.658 699.508, 587.070 696.869 C 588.313 694.547, 588.214 694.550, 582.471 697.012 L 577.777 699.024 578.444 696.262 L 579.112 693.500 577.461 695.805 C 576.553 697.073, 575.065 697.962, 574.155 697.780 C 573.245 697.599, 571.727 698.361, 570.783 699.475 C 569.087 701.475, 569.066 701.466, 569.033 698.691 C 569.015 697.134, 568.567 696.150, 568.028 696.483 C 567.494 696.813, 565.953 696.360, 564.605 695.477 C 562.246 693.931, 562.175 693.952, 562.717 696.027 L 563.281 698.184 559.017 696.009 C 556.011 694.475, 552.354 693.709, 546.626 693.415 C 535.840 692.859, 505.286 691.060, 496.500 690.462 C 492.650 690.200, 483.425 689.575, 476 689.072 C 464.023 688.260, 387.572 688.343, 379.275 689.176 C 377.501 689.354, 376.020 689.050, 375.983 688.500 C 375.893 687.167, 387.957 685.348, 401.352 684.677 C 415.601 683.962, 416.211 683, 402.417 682.999 C 391.194 682.997, 380.055 684.215, 350.500 688.672 C 338.540 690.475, 331.347 691.075, 326.238 690.694 C 321.907 690.371, 319.207 690.525, 319.547 691.076 C 319.861 691.584, 321.468 692, 323.118 692 C 324.852 692, 325.859 692.420, 325.503 692.994 C 325.105 693.639, 316.019 693.761, 299.669 693.340 L 274.450 692.691 270.245 695.345 C 264.641 698.883, 262.340 698.761, 267.692 695.210 L 271.884 692.429 247.192 692.148 C 233.611 691.994, 214.008 692.435, 203.629 693.128 C 186.174 694.294, 184.664 694.261, 183.518 692.694 C 182.263 690.977, 179 690.331, 179 691.800 C 179 692.240, 179.540 693.140, 180.200 693.800 C 181.133 694.733, 180.776 695, 178.592 695 C 176.034 695, 175.844 694.757, 176.467 692.277 L 177.150 689.554 174.930 691.527 L 172.709 693.500 173.198 690.841 C 173.738 687.908, 173.089 687.930, 167.483 691.034 C 165.824 691.952, 162.899 692.629, 160.983 692.538 C 159.067 692.447, 154.864 692.289, 151.643 692.186 C 146.893 692.035, 145.895 691.716, 146.362 690.500 C 146.678 689.675, 146.501 689, 145.969 689 C 145.436 689, 145 689.441, 145 689.981 C 145 690.520, 143.869 691.246, 142.487 691.593 C 140.086 692.195, 132.475 699.844, 131.136 703 C 130.786 703.825, 127.912 708.394, 124.750 713.154 C 118.108 723.151, 117.319 725.296, 122.843 718.340 C 129.133 710.420, 136.407 704.159, 136.821 706.309 C 137.309 708.845, 134.573 712.609, 130.225 715.384 C 121.968 720.653, 117.155 729.607, 116.626 740.680 C 116.542 742.429, 116.185 744.149, 115.831 744.502 C 115.478 744.855, 115.426 738.977, 115.715 731.439 C 116.099 721.431, 115.938 717.921, 115.117 718.428 C 114.499 718.810, 114.212 720.107, 114.481 721.311 C 114.750 722.515, 114.572 725.075, 114.087 727 L 113.205 730.500 113.102 726.250 C 113.046 723.913, 112.582 722, 112.071 722 C 111.561 722, 111.354 724.138, 111.613 726.750 C 112.272 733.413, 112.081 737.319, 111.046 738.354 C 110.277 739.123, 109.892 737.652, 108.461 728.500 C 108.375 727.950, 108.183 726.150, 108.034 724.500 L 107.763 721.500 107 724.500 C 106.580 726.150, 106.183 729.326, 106.118 731.559 C 105.974 736.511, 103.946 739.874, 102.330 737.840 C 101.745 737.103, 100.340 734.025, 99.208 731 C 94.533 718.507, 89.211 706.862, 88.758 708.137 C 88.492 708.887, 88.828 710.625, 89.505 712 C 93.969 721.070, 99.311 743, 97.056 743 C 95.502 743, 88.977 735.216, 89.446 733.922 C 89.992 732.414, 88.259 729.176, 78.263 713.026 C 74.832 707.483, 71.745 701.831, 71.402 700.465 C 71.059 699.099, 70.378 697.734, 69.889 697.432 C 69.400 697.129, 69 696.180, 69 695.322 C 69 693.032, 62.774 683.069, 53.176 670 C 41.262 653.777, 40.454 653, 35.498 653 C 31.786 653, 31.207 652.657, 29.743 649.588 C 28.159 646.266, 27.935 646.166, 21.308 645.807 C 13.435 645.380, 13.277 645.424, 15.041 647.549 C 17.160 650.102, 23.093 652.706, 28.500 653.455 C 36.971 654.629, 42.066 657.753, 45.697 664 C 47.455 667.025, 50.241 671.308, 51.886 673.519 C 55.013 677.719, 62.856 692.333, 64.756 697.500 C 69.966 711.673, 71.275 714.503, 73.254 715.874 C 80.293 720.751, 90.172 732.161, 88.663 733.670 C 88.353 733.981, 85.039 731.299, 81.299 727.710 C 72.226 719.002, 68.409 715.924, 67.639 716.695 C 66.474 717.859, 66.975 718.857, 69.054 719.517 C 73.911 721.059, 90.919 740, 87.446 740 C 87.119 740, 83.388 736.471, 79.155 732.158 C 70.145 722.977, 67 720.854, 67 723.952 C 67 725.249, 68.526 726.929, 71.250 728.631 C 75.777 731.460, 88 743.435, 88 745.041 C 88 746.843, 86.393 746.001, 82.946 742.393 C 81.051 740.409, 76.237 736.356, 72.250 733.386 C 65.550 728.395, 65 727.708, 65 724.319 L 65 720.651 62.686 722.826 C 60.305 725.062, 58.408 725.767, 59.493 724.011 C 59.829 723.467, 59.433 721.555, 58.613 719.761 C 57.792 717.967, 56.406 712.450, 55.533 707.500 C 53.026 693.290, 52.950 693.044, 50.748 691.865 C 49.128 690.998, 48.416 691.059, 47.579 692.135 C 46.769 693.178, 43.638 693.521, 35 693.512 C 22.952 693.499, 11.313 694.571, 9.181 695.888 C 8.237 696.472, 7.770 704.690, 7.299 728.986 L 6.674 761.307 13.087 760.554 C 26.519 758.977, 122.672 758.207, 290.500 758.333 C 386.200 758.405, 530.425 758.308, 611 758.118 C 691.575 757.928, 758.288 758.097, 759.250 758.493 C 760.886 759.167, 761 757.769, 761 737.107 C 761 724.948, 760.663 715.014, 760.250 715.032 C 759.837 715.049, 758.626 715.724, 757.559 716.532 C 755.109 718.385, 750.590 718.512, 751.282 716.708 C 751.554 715.998, 751.219 714.652, 750.535 713.717 C 749.378 712.135, 749.170 712.155, 747.492 714.009 C 743.298 718.643, 741.784 715.762, 745.115 709.485 L 747.230 705.500 744.865 707.578 C 741.651 710.402, 737.909 710.459, 735.772 707.717 L 734.044 705.500 734.022 707.750 C 733.973 712.706, 728.836 708.643, 724.629 700.321 C 718.945 689.077, 720.604 661.299, 727.089 659.137 C 728.028 658.824, 727.892 659.515, 726.637 661.431 C 725.649 662.939, 725.069 664.402, 725.348 664.681 C 725.627 664.960, 727.069 663.234, 728.551 660.844 C 730.034 658.455, 732.170 655.487, 733.298 654.250 C 736.339 650.914, 734.009 651.532, 730.245 655.060 C 728.454 656.738, 726.489 657.802, 725.877 657.424 C 724.437 656.534, 725.561 642.513, 727.661 635.176 C 729.442 628.952, 729.096 627.875, 726.646 632.022 M 305 646.500 C 305 647.325, 304.190 648, 303.200 648 C 300.659 648, 298.996 649.969, 299.021 652.950 C 299.046 655.931, 306.097 661.560, 308.602 660.599 C 310.674 659.804, 309.683 658.512, 304.970 655.863 C 300.355 653.269, 300.085 652.374, 303.455 650.839 C 306.391 649.501, 311.298 651.159, 313.435 654.211 C 314.384 655.566, 315.009 655.795, 315.516 654.974 C 315.953 654.267, 314.341 652.058, 311.447 649.401 C 306.334 644.707, 305 644.106, 305 646.500 M 8 668.836 L 8 692.051 10.750 690.663 C 12.782 689.637, 17.613 689.304, 29.249 689.387 C 37.912 689.449, 44.999 689.409, 44.999 689.297 C 45.001 688.746, 38.092 686.067, 35.125 685.468 C 32.795 684.997, 31.959 685.124, 32.425 685.878 C 32.882 686.618, 32.145 686.779, 30.136 686.377 C 28.171 685.984, 26.085 686.410, 23.944 687.642 C 21.535 689.028, 20.603 689.182, 20.274 688.250 C 20.032 687.563, 18.264 687, 16.345 687 C 13.016 687, 9.093 684.574, 10.365 683.302 C 10.696 682.970, 13.787 683.153, 17.234 683.707 C 25.066 684.968, 31.078 684.367, 30.323 682.399 C 29.722 680.834, 32.062 680.482, 33.550 681.914 C 34.517 682.844, 37.888 683.337, 41.500 683.077 C 43.421 682.939, 43.410 682.858, 41.237 681.046 C 39.992 680.007, 38.417 678.932, 37.737 678.655 C 36.817 678.281, 36.884 677.880, 38 677.091 C 39.756 675.850, 41.328 675.660, 40.640 676.773 C 40.378 677.198, 41.909 677.545, 44.043 677.545 C 48.763 677.545, 48.655 675.564, 43.493 667.500 C 38.929 660.370, 37.508 659.403, 28 656.953 C 17.806 654.326, 15.366 653.154, 11.189 648.882 L 8 645.620 8 668.836 M 740.270 651.308 C 735.651 656.192, 732 661.682, 732 663.745 C 732 665.312, 741.903 672.155, 746.942 674.070 L 751.944 675.971 751.371 673.107 C 750.660 669.548, 752.358 668.319, 755.595 670.051 C 758.302 671.500, 758.762 673, 756.500 673 C 755.667 673, 755 673.889, 755 675 C 755 676.556, 755.667 677, 758 677 C 761.441 677, 761.575 676.035, 760.339 660.158 C 759.732 652.366, 759.518 651.750, 757.095 650.823 C 755.668 650.276, 752.700 648.967, 750.500 647.912 C 745.330 645.433, 746.053 645.193, 740.270 651.308 M 261.047 651.305 C 259.148 651.910, 256.898 653.013, 256.047 653.754 C 255.196 654.496, 253.422 655.902, 252.103 656.879 L 249.707 658.656 253.362 660.915 C 257.346 663.377, 262 670.367, 262 673.888 C 262 677.336, 259.433 681.475, 255.018 685.142 L 250.977 688.500 264.512 688.375 C 277.081 688.260, 278.183 688.095, 279.933 686.077 C 282.171 683.497, 289.565 681.842, 288.780 684.097 C 288.512 684.869, 287.518 685.360, 286.572 685.189 C 285.626 685.018, 284.189 685.428, 283.378 686.101 C 281.113 687.981, 283.657 689.061, 289 688.487 C 291.475 688.221, 296.425 687.799, 300 687.549 C 308.506 686.954, 311 686.149, 311 684 C 311 682.243, 307.652 680.949, 305.212 681.763 C 303.351 682.383, 303.774 684.990, 305.750 685.079 C 306.848 685.128, 307.022 685.350, 306.218 685.673 C 303.933 686.591, 299.676 683.095, 301.056 681.433 C 301.710 680.645, 302.865 680, 303.622 680 C 305.761 680, 305.245 676.877, 303.010 676.292 C 301.479 675.892, 301.158 675.217, 301.621 673.373 C 302.365 670.409, 300.739 668.336, 296.176 666.429 C 291.956 664.666, 291.508 665.025, 291.640 670.065 C 291.728 673.412, 291.434 674, 289.672 674 C 288.060 674, 287.867 673.733, 288.800 672.800 C 290.239 671.361, 290.348 667.085, 288.998 665 C 288.186 663.745, 287.608 663.990, 285.454 666.500 L 282.880 669.500 283.463 665.866 C 284.134 661.688, 282.830 660.684, 277.989 661.652 C 274.592 662.332, 274.277 661.477, 276.666 658.066 C 278.280 655.762, 278.232 655.597, 275.151 652.843 C 271.671 649.734, 267.426 649.271, 261.047 651.305 M 61.750 653.708 C 57.396 655.457, 56.820 658.458, 59.685 664.466 C 61.621 668.526, 62.963 668.889, 64.852 665.866 C 66.182 663.735, 65.692 662.806, 62.675 661.741 C 61.556 661.346, 62.965 656, 64.188 656 C 64.747 656, 64.879 657.274, 64.500 659 C 63.933 661.583, 64.130 662, 65.921 662 C 67.669 662, 68 661.383, 68 658.122 C 68 652.898, 66.465 651.814, 61.750 653.708 M 82.112 655.082 C 79.895 655.969, 79.764 656.427, 80.287 661.493 C 81.010 668.499, 81.687 669.594, 84 667.500 C 85.092 666.512, 86.044 666.262, 86.417 666.866 C 86.756 667.414, 86.575 668.144, 86.016 668.490 C 84.596 669.368, 84.746 670.996, 86.250 671.018 C 86.938 671.028, 89.509 672.398, 91.965 674.062 C 97.566 677.857, 107.479 678.136, 107.525 674.500 C 107.543 673.111, 108.154 672.565, 109.525 672.712 C 113.251 673.111, 121.687 668.383, 122.414 665.488 C 123.853 659.753, 121.474 657.528, 117.708 661.087 C 113.528 665.038, 108.037 667.228, 104.120 666.508 C 98.136 665.407, 92.280 662.361, 90.348 659.344 C 87.102 654.273, 85.807 653.604, 82.112 655.082 M 700.895 657.628 C 697.001 661.801, 691.031 664.399, 684 664.980 L 677.500 665.518 681.750 667.779 C 685.263 669.649, 686 669.774, 686 668.501 C 686 666.841, 687.713 667.035, 695.500 669.574 C 697.700 670.291, 701.413 671.063, 703.750 671.289 L 708 671.700 708 667.251 C 708 663.162, 705.776 656.598, 704.024 655.515 C 703.621 655.266, 702.213 656.217, 700.895 657.628 M 726.161 670.547 C 725.522 671.948, 725.010 677.010, 725.022 681.797 L 725.044 690.500 726.918 686.373 C 728.785 682.262, 731 679.883, 731 681.991 C 731 682.600, 730.350 684.357, 729.555 685.893 C 728.761 687.430, 727.835 691.120, 727.498 694.094 L 726.886 699.500 729.311 694.732 C 731.308 690.804, 735.325 686, 736.612 686 C 736.780 686, 735.808 688.209, 734.452 690.909 C 733.096 693.608, 731.823 697.096, 731.622 698.659 C 731.422 700.221, 731.475 700.849, 731.740 700.054 C 732.570 697.564, 736.647 691.584, 738.870 689.595 C 741.543 687.204, 741.533 687.343, 738.500 694.808 C 737.125 698.192, 736 701.419, 736 701.980 C 736 703.845, 737.644 703.034, 739 700.500 C 739.736 699.125, 740.937 698, 741.669 698 C 743.339 698, 743.304 698.845, 741.500 702 C 739.377 705.713, 739.704 706.627, 742.287 704.200 C 744.572 702.053, 746.424 701.544, 750.857 701.842 C 752.484 701.951, 753.040 702.454, 752.651 703.466 C 752.201 704.639, 752.730 704.805, 755.294 704.297 C 758.200 703.722, 758.372 703.819, 757.128 705.331 C 755.915 706.806, 756.031 707.003, 758.128 707.022 L 760.500 707.044 758 709 L 755.500 710.956 758.250 710.978 L 761 711 761 697.114 L 761 683.227 756.495 682.551 C 754.017 682.180, 750.754 681.232, 749.245 680.444 C 747.735 679.657, 746 679.010, 745.388 679.006 C 743.539 678.996, 734.323 673.682, 731.069 670.750 C 727.365 667.412, 727.585 667.422, 726.161 670.547 M 715.731 676.250 C 714.173 690.320, 712.590 699.136, 710.788 703.786 C 708.533 709.603, 708.879 711.332, 711.651 708.095 C 713.648 705.763, 715.202 705.309, 714.447 707.279 C 713.662 709.324, 716.245 711.828, 719.500 712.178 C 723.044 712.558, 723.282 709.692, 719.943 706.840 C 718.875 705.927, 718.013 704.352, 718.030 703.340 C 718.052 701.994, 719.103 702.707, 721.948 705.999 C 726.867 711.691, 727.957 710.717, 724.603 703.626 C 723.171 700.600, 721.993 697.533, 721.985 696.812 C 721.977 696.090, 721.290 693.700, 720.459 691.500 L 718.948 687.500 719.267 694.181 C 719.443 697.856, 719.201 700.624, 718.730 700.333 C 718.259 700.042, 716.943 700.636, 715.804 701.652 C 713.783 703.457, 713.748 703.453, 714.345 701.500 C 716.506 694.425, 718.703 672, 717.235 672 C 716.667 672, 715.990 673.913, 715.731 676.250 M 86.557 679.223 C 85.571 680.629, 84.994 683.657, 84.985 687.473 C 84.967 694.283, 84.294 695.902, 81.469 695.924 C 80.386 695.933, 78.003 696.235, 76.173 696.595 C 72.176 697.381, 72.371 700.020, 76.877 706.148 C 80.046 710.456, 81.210 709.635, 82.465 702.207 C 83.232 697.667, 84.955 697.403, 85.070 701.809 C 85.109 703.289, 85.566 705.400, 86.086 706.500 C 86.885 708.191, 86.952 708.091, 86.521 705.848 C 85.962 702.942, 86.876 697, 87.881 697 C 88.500 697, 89.237 698.521, 92.474 706.484 C 93.744 709.607, 94.296 710.147, 95.031 708.984 C 95.763 707.826, 95.978 708.049, 96.008 710 C 96.030 711.375, 97.160 715.200, 98.519 718.500 C 99.879 721.800, 100.993 725.261, 100.995 726.191 C 100.998 727.121, 101.516 728.201, 102.146 728.590 C 102.958 729.092, 103.089 728.492, 102.598 726.532 C 102.216 725.011, 101.683 722.357, 101.413 720.633 C 100.175 712.727, 98.562 706.882, 97.337 705.865 C 95.598 704.421, 95.648 702.581, 97.526 698.950 C 99.471 695.188, 101.123 695.137, 100.378 698.862 C 100.026 700.622, 100.462 702.993, 101.512 705.024 C 102.451 706.839, 103.460 710.977, 103.754 714.218 C 104.425 721.623, 105.778 720.489, 106.845 711.628 C 107.486 706.301, 108.215 704.330, 110.328 702.218 C 113.384 699.161, 113.613 699.883, 112.087 707.772 C 111.628 710.144, 111.647 712.282, 112.130 712.581 C 112.609 712.876, 113 711.992, 113 710.617 C 113 707.494, 121.350 696.263, 125.711 693.520 C 127.478 692.409, 128.940 691.275, 128.962 691 C 128.983 690.725, 122.912 690.655, 115.470 690.845 C 98.547 691.278, 96.622 690.694, 104 687.370 C 110.779 684.316, 108.163 684.865, 97.203 688.797 C 89.588 691.530, 89.016 691.609, 90.242 689.762 C 90.977 688.656, 94.260 686.713, 97.539 685.446 C 103.924 682.977, 102.158 682.141, 95.538 684.499 C 90.737 686.209, 90.150 685.869, 93.122 683.101 C 94.812 681.526, 94.993 681, 93.844 681 C 91.876 681, 89 684.164, 89 686.329 C 89 687.248, 88.550 688, 88 688 C 86.202 688, 86.945 682.055, 89 680 C 91.377 677.623, 91.492 677, 89.557 677 C 88.763 677, 87.413 678, 86.557 679.223 M 56 689.005 C 56 690.902, 56.683 695.840, 57.517 699.977 C 58.352 704.115, 59.614 710.583, 60.321 714.352 L 61.607 721.204 64.392 717.553 C 66.882 714.289, 67.072 713.512, 66.191 710.202 L 65.207 706.500 65.103 710.250 C 65.040 712.532, 64.511 713.997, 63.750 713.993 C 62.855 713.989, 62.484 711.622, 62.444 705.662 C 62.389 697.507, 61.130 693.018, 57.356 687.527 C 56.096 685.694, 56 685.798, 56 689.005 M 663 690.272 C 661.075 690.859, 659.373 691.427, 659.219 691.534 C 659.064 691.641, 659.739 693.137, 660.719 694.858 C 662.675 698.294, 667.345 699.444, 666.794 696.354 C 666.605 695.295, 667.532 694.356, 669.393 693.723 C 672.720 692.590, 676.310 694.219, 681.735 699.321 C 686.042 703.371, 687.123 701.960, 683.326 697.245 C 677.537 690.056, 671.028 687.823, 663 690.272 M 134.500 691.294 C 124.962 694.538, 119.347 701.388, 118.342 711.005 C 117.997 714.302, 117.954 717, 118.246 717 C 118.538 717, 120.550 714.188, 122.717 710.750 C 124.884 707.313, 129.272 701.450, 132.468 697.723 C 138.801 690.339, 138.981 689.770, 134.500 691.294 M 307.695 699.025 C 306.213 700.191, 305 702.012, 305 703.073 C 305 705.761, 303.838 705.484, 300.500 702 C 297.415 698.779, 295.425 698.060, 296.363 700.503 C 296.859 701.797, 296.602 701.785, 294.514 700.417 C 293.180 699.543, 291.595 699.132, 290.992 699.505 C 289.709 700.298, 296.814 705.044, 302 706.858 C 305.303 708.014, 305.627 707.926, 307.752 705.291 C 308.990 703.756, 310.258 701.712, 310.569 700.750 C 311.640 697.437, 313.283 698.870, 312.679 702.591 C 312.120 706.037, 313.519 710, 315.294 710 C 315.741 710, 317.660 708.763, 319.558 707.250 C 321.677 705.562, 324.227 704.500, 326.162 704.500 C 330.462 704.500, 330.728 702.747, 326.704 700.923 C 323.457 699.451, 323.310 699.489, 319.977 702.661 C 316.036 706.412, 315.668 706.293, 315.571 701.238 C 315.483 696.612, 312.005 695.635, 307.695 699.025 M 45.633 705.784 C 45.317 706.296, 45.491 708.224, 46.019 710.067 C 47.482 715.168, 45.818 715.472, 40.769 711.028 C 33.328 704.478, 32.840 706.219, 39.500 715.552 C 45.613 724.118, 45.154 725.141, 37.991 718.911 C 34.686 716.036, 31.650 714.017, 31.244 714.423 C 30.542 715.124, 42.595 727, 44.008 727 C 44.377 727, 45.171 728.080, 45.773 729.401 C 46.705 731.448, 46.582 731.876, 44.933 732.307 C 43.870 732.585, 43 733.305, 43 733.906 C 43 735.534, 44.488 735.236, 47.139 733.079 C 49.417 731.226, 49.442 731.059, 47.841 728.329 C 46.868 726.669, 46.396 724.378, 46.700 722.788 C 47.036 721.032, 46.634 719.491, 45.562 718.419 C 44.650 717.508, 44.161 716.506, 44.473 716.194 C 45.185 715.481, 50.904 722.079, 50.959 723.677 C 50.982 724.324, 50.212 725.042, 49.250 725.272 C 47.589 725.669, 47.589 725.729, 49.263 726.457 C 52.053 727.671, 54.015 725.348, 53.312 721.663 C 51.938 714.460, 46.817 703.869, 45.633 705.784 M 290.415 706.137 C 290.023 706.772, 290.770 708.087, 292.106 709.115 L 294.500 710.956 292.219 710.978 C 290.964 710.990, 289.661 711.720, 289.323 712.601 C 288.639 714.382, 290.810 716.232, 292.750 715.521 C 293.438 715.269, 294 715.676, 294 716.424 C 294 718.342, 296.785 719.186, 299.072 717.961 C 301.592 716.613, 301.638 716.779, 296.968 710.457 C 292.865 704.902, 291.667 704.112, 290.415 706.137 M 198.667 708.667 C 198.300 709.033, 198 713.400, 198 718.370 L 198 727.406 194.250 723.881 C 188.879 718.833, 185.275 716.833, 182.192 717.189 C 178.497 717.616, 178.785 718.859, 184 724.994 C 186.475 727.905, 189.593 731.893, 190.930 733.855 C 192.266 735.817, 193.532 736.905, 193.743 736.272 C 194.187 734.939, 192.031 731.333, 187.036 725.056 C 185.091 722.612, 184.170 721.017, 184.988 721.512 C 187.162 722.827, 191.062 727.584, 194.604 733.243 C 197.740 738.251, 200.221 737.993, 197.427 732.950 C 195.379 729.251, 195.735 728.393, 198.080 731.375 C 200.593 734.570, 202.350 733.837, 201.763 729.838 C 201.527 728.228, 201.708 726.680, 202.167 726.397 C 202.625 726.114, 203 726.838, 203 728.007 C 203 729.175, 203.493 731.052, 204.095 732.178 C 205.131 734.114, 205.320 734.015, 207.572 730.362 L 209.954 726.500 209.399 731 C 208.884 735.180, 209.040 735.588, 211.599 736.740 C 213.115 737.421, 214.413 737.871, 214.484 737.740 C 215.215 736.393, 222.069 728.021, 225.117 724.753 C 232.890 716.416, 227.262 716.904, 218.250 725.347 C 216.463 727.022, 215 728.146, 215 727.845 C 215 726.853, 220.153 717.533, 221.593 715.919 C 222.924 714.428, 222.589 713, 220.910 713 C 219.251 713, 213.658 718.581, 212.442 721.450 C 211.099 724.620, 210.787 724.325, 209.554 718.709 C 208.726 714.940, 207.418 716.035, 206.544 721.228 L 205.825 725.500 204.090 719 C 201.771 710.312, 200.136 707.197, 198.667 708.667 M 512.607 711.582 C 512.273 712.452, 512 716.590, 512 720.778 L 512 728.392 509.134 723.946 C 507.558 721.501, 504.858 718.178, 503.134 716.563 C 498.836 712.535, 498.972 715.264, 503.405 721.996 C 505.278 724.840, 507.865 729.154, 509.153 731.583 C 511.896 736.753, 513 737.160, 513 733 C 513 731.350, 513.450 730, 514 730 C 514.600 730, 515 726, 515 720 C 515 710.786, 514.112 707.661, 512.607 711.582 M 139.574 711.798 C 135.849 712.268, 125.363 722.736, 122.332 729.011 C 116.983 740.083, 116.624 741.150, 117.970 741.981 C 118.681 742.421, 118.934 743.386, 118.536 744.138 C 116.530 747.930, 126.226 736.103, 131 728.934 C 134.025 724.392, 138.208 718.763, 140.296 716.425 C 144.335 711.905, 144.227 711.211, 139.574 711.798 M 526.785 719.029 C 524.120 721.794, 521.671 725.394, 521.344 727.029 C 521.017 728.663, 520.356 730, 519.875 730 C 518.861 730, 518.687 733.354, 519.651 734.317 C 520.009 734.675, 521.335 732.838, 522.599 730.234 L 524.896 725.500 524.320 729.750 C 523.937 732.578, 524.122 734, 524.872 734 C 525.492 734, 526 733.414, 526 732.697 C 526 731.981, 527.800 727.672, 530 723.123 C 532.200 718.573, 534 714.660, 534 714.426 C 534 712.783, 530.898 714.762, 526.785 719.029 M 146 718.734 C 140.760 722.149, 134.691 728.752, 130.787 735.283 C 126.778 741.990, 126.339 744.737, 129.744 741.813 C 130.710 740.983, 132.283 740.026, 133.240 739.687 C 134.197 739.348, 136.502 736.691, 138.363 733.782 C 140.223 730.873, 143.378 726.540, 145.373 724.152 C 147.368 721.764, 149 719.178, 149 718.405 C 149 716.718, 149.112 716.706, 146 718.734 M 426.667 719.667 C 425.652 720.682, 425.871 728, 426.917 728 C 427.421 728, 428.013 727.460, 428.234 726.799 C 428.545 725.865, 428.798 725.865, 429.376 726.799 C 429.784 727.460, 429.641 728, 429.059 728 C 428.477 728, 428 728.450, 428 729 C 428 730.530, 431.668 730.189, 433.354 728.503 C 434.178 727.679, 435.525 727.264, 436.348 727.580 C 438.931 728.571, 442.360 726.138, 440.884 724.361 C 439.687 722.917, 438.518 722.942, 434.754 724.492 C 433.240 725.115, 433.084 724.764, 433.577 721.855 L 434.147 718.500 432.183 720.725 C 430.277 722.886, 430.205 722.893, 429.704 720.975 C 429.184 718.986, 427.900 718.433, 426.667 719.667 M 536.431 721.043 C 533.416 722.432, 531.643 724.240, 529.582 728.026 C 526.735 733.258, 526.716 735.310, 529.539 732.968 C 530.939 731.806, 531.047 731.965, 530.454 734.325 C 529.306 738.901, 531.568 737.328, 536.312 730.250 C 543.555 719.446, 543.577 717.751, 536.431 721.043 M 495.070 721.250 C 495.226 724.014, 502.740 734.496, 504.358 734.206 C 505.261 734.045, 506 734.472, 506 735.156 C 506 735.989, 506.332 736.068, 507.004 735.396 C 508.396 734.004, 504.979 727.194, 500.875 723.182 C 497.525 719.907, 494.946 719.049, 495.070 721.250 M 646.554 727.190 C 645.484 727.811, 642.580 728.493, 640.100 728.706 C 634.926 729.151, 632.101 730.805, 634.203 732.160 C 634.916 732.620, 637.332 732.733, 639.570 732.412 C 643.009 731.917, 644.134 732.242, 646.820 734.502 C 650.263 737.399, 651.172 736.119, 648.442 732.221 C 646.800 729.877, 647.235 728, 649.420 728 C 650.270 728, 650.557 728.868, 650.245 730.500 C 649.649 733.617, 650.669 733.609, 654.500 730.469 L 657.500 728.010 654.309 728.005 C 652.554 728.002, 650.840 727.550, 650.500 727 C 649.722 725.741, 648.991 725.776, 646.554 727.190 M 149.866 734.072 C 142.938 735.089, 128.378 742.564, 126.045 746.300 C 124.052 749.491, 125.789 749.490, 130.252 746.298 C 137.595 741.044, 144.469 738.481, 159.500 735.388 C 162.178 734.837, 162.285 734.683, 160.500 733.956 C 158.117 732.984, 157.199 732.994, 149.866 734.072 M 156.179 738.929 C 148.471 741.526, 140 747.428, 140 750.203 C 140 751.744, 142.417 750.975, 144.945 748.629 C 148.702 745.144, 153.662 742.108, 152.508 744 C 152.006 744.825, 150.560 746.320, 149.297 747.323 C 148.034 748.325, 147 749.787, 147 750.573 C 147 752.831, 149.807 752.233, 151.218 749.675 C 153.426 745.672, 160.996 739.594, 163.834 739.545 C 165.529 739.516, 166.593 738.874, 166.810 737.750 C 167.251 735.458, 166.105 735.585, 156.179 738.929 M 55.532 738.052 C 55.846 738.561, 58.105 740.149, 60.552 741.583 C 65.742 744.625, 66.193 746, 62 746 C 60.350 746, 59 745.602, 59 745.115 C 59 743.402, 54.395 741.242, 49.226 740.531 C 44.511 739.883, 44 739.998, 44 741.706 C 44 743.894, 45.815 746, 47.700 746 C 49.747 746, 49.220 744.418, 46.750 743.152 C 44.896 742.201, 45.468 742.107, 50 742.615 C 53.025 742.955, 55.629 743.567, 55.786 743.975 C 57.432 748.242, 64.112 749.812, 67.755 746.788 C 68.593 746.093, 70.340 745.664, 71.639 745.834 C 76.670 746.493, 73.743 743.419, 67.240 741.215 C 55.537 737.248, 54.935 737.086, 55.532 738.052 M 682.500 746.667 C 667.004 750.039, 661 751.838, 661 753.109 C 661 754.868, 664.057 755.259, 665.787 753.721 C 666.729 752.884, 670.875 751.692, 675 751.073 C 679.125 750.453, 683.980 749.467, 685.788 748.883 C 688.420 748.032, 689.561 748.137, 691.503 749.410 C 694.415 751.318, 698.340 751.532, 697.758 749.750 C 696.917 747.174, 688.233 745.420, 682.500 746.667 M 87 765.106 C 2.033 765.807, 5 765.744, 5 766.841 C 5 767.673, 760.344 767.330, 762.750 766.496 C 763.437 766.258, 764 765.626, 764 765.091 C 764 764.031, 215.854 764.043, 87 765.106" stroke="none" fill="#1b1f3a" fill-rule="evenodd"/>
</svg>