<svg xmlns="http://www.w3.org/2000/svg" viewBox="0 0 768 768" version="1.1" preserveAspectRatio="xMidYMid meet"><path d="M 172.7 73.6 C 135.9 80.9, 111 110.5, 111 147 C 111 176.4, 134 209.2, 161.1 218.4 C 212 235.7, 259 200.2, 259 144.4 C 259 120.2, 242.5 92.9, 221.4 82 C 218.7 80.6, 216.3 79.2, 216 78.9 C 215.7 78.5, 213.9 77.9, 212 77.5 C 210.1 77.1, 208.1 76.4, 207.5 76 C 205.9 74.7, 189.7 72, 184.4 72.1 C 181.7 72.2, 176.5 72.8, 172.7 73.6 M 174 76.9 C 154.9 80.1, 138.6 90.8, 127.1 107.7 C 100.7 146.5, 119.9 200.2, 165.9 216.1 C 174.2 219, 193.5 219.8, 202 217.6 C 254.4 204.1, 273.7 136.4, 236 98.3 C 228 90.2, 219.3 84.1, 212.8 82.1 C 211 81.6, 206.8 80.2, 203.5 79 C 196.9 76.7, 181.6 75.6, 174 76.9 M 396.4 108.5 C 394.5 109.8, 394.2 111.3, 393.6 122.7 C 393 135.7, 392.3 142.3, 389.5 163 C 388.7 169.3, 387.3 180.6, 386.5 188 C 385.7 195.4, 384.6 204.1, 384.1 207.3 C 383.5 210.5, 383.3 213.6, 383.6 214.3 C 383.8 215, 383.6 220.1, 383 225.5 C 382.4 231, 381.3 242.3, 380.5 250.5 C 377.7 280.3, 376.9 288.5, 376.4 290.7 C 376 292.9, 375.8 292.9, 369.7 289.1 C 358.7 282.4, 351.5 279.6, 342.4 278.5 C 339.1 278.1, 336 277.4, 335.5 276.9 C 333.2 275.2, 324.8 273, 314.5 271.4 C 299.9 269.3, 291.8 271.1, 245.5 286.9 C 195.1 304.2, 194.9 304.4, 197.5 327.5 C 200.8 356, 203.4 372.9, 204.9 375.8 C 205.4 376.7, 206.3 382, 206.9 387.5 C 207.5 393, 208.7 401.3, 209.4 406 C 210.2 410.7, 211.6 419, 212.4 424.5 C 213.3 430, 214.7 437.9, 215.5 442 C 216.3 446.1, 217.5 453.8, 218.1 459 C 222.1 494.9, 222.2 495.3, 232.1 500.7 L 237.2 503.4 231.8 504.8 C 220.1 507.8, 209.5 513.4, 200 521.7 C 198.1 523.3, 194.6 525.9, 192.2 527.4 L 187.9 530.1 171.7 529.5 C 153.4 528.9, 154.5 529.5, 153.7 519.5 C 153.3 515.7, 152.4 506.7, 151.5 499.5 C 150.7 492.4, 149.3 479.5, 148.5 471 C 147.7 462.5, 146.4 448.8, 145.6 440.5 C 144.8 432.3, 143.6 420.3, 143.1 414 C 142.5 407.7, 141.7 400.6, 141.4 398.4 C 141 395.8, 141.2 394, 141.9 393.6 C 142.5 393.2, 143 390.4, 143 387.4 C 143 377.6, 135.1 373.8, 128.3 380.3 C 125 383.3, 125 391.7, 128.4 394.9 C 130.4 396.7, 130.8 398.4, 131.4 405.8 C 131.7 410.6, 132.4 418.8, 133 424 C 133.5 429.2, 134.4 438.7, 135 445 C 135.5 451.3, 136.7 463.3, 137.5 471.5 C 138.4 479.8, 139.7 493.3, 140.5 501.5 C 141.3 509.8, 142.4 519.2, 142.8 522.6 L 143.6 528.7 131.9 528.2 C 101.8 527, 66.5 544.4, 74.4 556.5 C 75.3 557.9, 76.5 558.8, 77 558.5 C 77.5 558.2, 78.1 558.4, 78.5 559 C 78.8 559.5, 78.7 560, 78.1 560 C 77.5 560, 74.9 561.4, 72.3 563 C 69.7 564.7, 66.5 566, 65.1 566 C 63.8 566, 61.9 566.6, 61.1 567.4 C 59.4 568.8, 52.7 570.9, 41.5 573.4 C 37.7 574.3, 30.2 576.3, 25 578 C 19.8 579.6, 12 581.9, 7.8 583.2 C 1.6 584.9, -0 585.8, -0 587.3 C -0 588.7, 0.4 589, 1.8 588.5 C 6.1 586.7, 16.4 584.2, 17.5 584.7 C 18.2 584.9, 20.7 584.2, 23.1 583.1 C 27.8 581, 29.2 580.6, 46.5 576.5 C 56.6 574.1, 65.7 570.9, 76.8 565.9 C 82.3 563.4, 89.9 561.1, 112 555 C 113.9 554.4, 119 553.3, 123.2 552.5 C 127.5 551.6, 134 549.8, 137.6 548.4 C 145.3 545.5, 145.5 545.6, 146.5 553.8 C 146.9 556.9, 147.5 560.3, 148 561.4 C 148.4 562.6, 149 565.6, 149.4 568.3 C 150.1 572.8, 150 573, 147.6 573 C 144.7 573, 141.7 575.7, 142.7 577.3 C 143.5 578.6, 143.8 593.9, 143 593.7 C 141.8 593.3, 130 600.2, 130.5 601 C 131.1 601.9, 141.6 598.5, 143.8 596.8 C 144.5 596.2, 145.3 596, 145.7 596.3 C 146 596.6, 144.6 597.9, 142.6 599.1 C 140.6 600.2, 139 601.4, 139 601.7 C 139 602.7, 144.6 600.9, 147.2 599 C 148.6 597.9, 151.1 597.1, 152.7 597.1 C 160.5 597.4, 174.4 592.4, 185.9 585.2 C 190.8 582.1, 191.1 581.8, 189.4 580.5 C 188.4 579.8, 187.1 579.4, 186.7 579.7 C 186.2 580, 186.3 580.6, 186.9 580.9 C 187.5 581.3, 186.4 581.6, 184.5 581.6 C 180.5 581.6, 179 582.7, 181 584.1 C 182.2 585, 182.1 585.1, 180.6 584.6 C 179.5 584.2, 176.2 585.3, 172.4 587.1 C 168.8 588.9, 165.7 590, 165.3 589.7 C 164.5 588.8, 163.1 580.5, 163.1 575.6 C 163 573.4, 162.4 570.9, 161.7 570.1 C 160.4 568.6, 158.8 560.9, 157.4 549.3 C 156.8 544.5, 156.9 544, 158.7 544 C 159.8 544, 165.4 542.4, 171.1 540.4 C 176.8 538.4, 184 536.3, 187 535.8 C 192.6 534.8, 203.5 532, 212.5 529.3 C 221.4 526.7, 229.3 524.9, 239 523.3 C 244.2 522.5, 253.7 520.5, 260 518.8 C 266.3 517.2, 272.1 515.8, 272.9 515.7 C 274.5 515.5, 277.5 527.3, 276.5 529.8 C 276.3 530.5, 276.7 531.3, 277.4 531.6 C 278.5 532, 278.7 534.8, 278.3 546.4 C 277.6 563.5, 278.2 567, 282 570.6 C 284.6 573.1, 284.8 573.8, 284.3 578 C 283.9 581.3, 284.2 583.4, 285.3 585.1 C 286.2 586.4, 287.2 589.3, 287.6 591.5 C 288.1 593.7, 288.5 595.8, 288.6 596.3 C 288.7 596.7, 288.8 597.4, 288.9 598 C 288.9 598.5, 290.3 600.4, 291.8 602.2 C 293.3 604, 294.5 606.4, 294.3 607.5 C 293.1 615.6, 289.8 631.8, 289 633.2 C 287.1 636.5, 285 643.5, 285 646.5 C 285 648.2, 284.3 652, 283.5 655 C 282.7 658, 282 664.1, 282 668.5 C 282 676, 281.9 676.3, 280.4 674.2 C 279.6 673, 278 672, 276.9 672 C 273.7 672, 271 670.1, 271 668 C 271 666.9, 270.6 666, 270 666 C 268.4 666, 267.7 671, 268.9 673.6 C 269.5 675, 270 677.4, 270 679.1 C 270 683, 272.4 683.8, 276 681.1 L 278.9 679 281.6 681.5 C 283.1 682.9, 284.7 684, 285.1 684 C 285.6 684, 286 684.8, 286 685.8 C 286 687.4, 294.8 694, 297 694 C 297.5 694, 298.5 694.9, 299.2 696 C 300.7 698.4, 303.5 698.7, 302.6 696.4 C 302.3 695.5, 302 694.6, 302 694.4 C 302 694.2, 301.3 694, 300.5 694 C 299.7 694, 299 693.6, 299 693 C 299 691.6, 299.7 691.7, 302.5 693.6 C 304.6 695, 305.1 695, 307.9 693.6 C 311.7 691.6, 314 691.6, 314 693.5 C 314 695.9, 316.7 695.2, 318.8 692.3 C 320.5 689.9, 321 689.8, 323.8 690.8 C 325.5 691.4, 327.5 692.4, 328.2 693 C 328.9 693.6, 331.7 695.6, 334.5 697.5 C 337.6 699.7, 338.8 701, 337.7 701 C 336.7 701, 335.4 700.6, 334.7 700 C 327.3 693.9, 324.6 692, 323.4 692 C 321.1 692, 321.8 693.6, 324.6 694.9 C 326.1 695.5, 329.1 697.6, 331.5 699.5 C 336.7 703.8, 343.5 705.1, 344.3 702 C 344.6 700.9, 344.5 700.2, 344.1 700.4 C 343.7 700.7, 340.9 699, 337.9 696.6 C 334.9 694.3, 331.6 692, 330.5 691.6 C 328.6 690.9, 328.6 690.8, 330.4 689.8 C 331.9 689, 332.5 689.1, 333.2 690.4 C 333.7 691.3, 334.9 692, 335.9 692 C 336.9 692, 339.3 693.3, 341.1 695 C 343 696.6, 344.8 698, 345.3 698 C 345.7 698, 346 698.6, 346 699.4 C 346 701, 349.4 702.5, 351 701.5 C 352.8 700.4, 352 698.5, 348.5 695.7 C 344.2 692.3, 344.1 691.4, 347.9 690.8 C 351.1 690.3, 353.3 692.6, 353.9 697 C 354.1 698.9, 356.8 698, 357.3 695.9 C 357.7 694.5, 357.1 693, 355.6 691.5 L 353.3 689.2 363.4 688.8 C 374.4 688.4, 378.5 686.9, 375.1 684.3 C 374 683.5, 373.9 683.1, 374.8 683 C 375.7 683, 375.6 682.3, 374.4 680.4 C 373.2 678.6, 372.1 678, 370.6 678.4 C 369.4 678.7, 367.2 678.3, 365.7 677.5 C 364.1 676.7, 361.6 676.3, 359.5 676.7 C 356.4 677.2, 356 677, 356 675.2 C 356 672.3, 350.5 668.7, 346.4 668.8 C 344.5 668.9, 343 668.5, 343 668 C 343 667.5, 341.6 664.7, 339.9 661.8 C 337.5 657.7, 337 656.2, 337.9 655 C 340.7 651, 343 645.8, 343 643.2 C 343 641.6, 343.8 639.2, 344.8 637.9 C 345.8 636.6, 347.4 633, 348.5 630 C 349.5 627, 351 623.4, 351.7 622 C 352.4 620.6, 353 619, 353 618.3 C 353 615.8, 355.4 612, 356.9 612 C 358.3 611.9, 358.2 611.8, 356.7 610.9 C 354.9 609.8, 355.1 606.7, 357.2 602.3 C 358.1 600.5, 358.9 600.2, 360.9 600.7 C 364.3 601.5, 364.5 601.7, 363 603.5 C 362 604.7, 361.4 604.8, 360.4 603.9 C 359.3 603, 359 603.2, 359 604.7 C 359 606.2, 359.7 606.7, 362 606.7 C 364.5 606.7, 365 606.3, 365 604.3 C 365 602.4, 365.5 602, 368 602 C 371.6 602, 371.7 602.4, 368.9 605.3 L 366.9 607.5 371.6 608.2 C 374.2 608.6, 376.7 608.7, 377.1 608.4 C 377.6 608.1, 378.8 608.5, 379.9 609.2 C 382.4 610.8, 384.1 609.3, 381.7 607.6 C 380.8 606.9, 380 605.5, 380 604.6 C 380 602.3, 382.7 602.6, 383.3 605 C 384.1 608, 386.3 607.5, 385.8 604.5 C 385.2 601.8, 385.9 601.3, 387.8 603.2 C 388.7 604.1, 389 604, 389 602.7 C 389 601.1, 386.5 600.5, 381.8 600.9 C 380.8 601, 380 600.6, 380 600.1 C 380 599.5, 381.3 599, 382.9 599 C 384.9 599, 385.9 598.4, 386.3 597 C 386.7 595.3, 387.7 595, 391.7 595 C 397.3 595, 406 592.7, 410.8 589.9 C 414.3 587.9, 414.6 588.1, 412.9 591.1 C 412 593, 412 593, 413.9 592.1 C 416.6 590.6, 417 589.8, 416.3 587.2 C 415.7 584.9, 413.1 584.3, 411.3 586.1 C 410.7 586.7, 407.6 587.3, 404.4 587.5 C 398.2 587.8, 397 587.1, 395 582.2 C 394.4 580.9, 392.8 579.7, 391 579.4 C 388.5 578.8, 387.9 578.1, 387 574.6 C 386.5 572.4, 385.4 568.5, 384.6 566 C 382.9 560.9, 383 560.4, 386 562 C 387.1 562.6, 388.9 563, 389.8 562.8 C 391.1 562.5, 390.7 562, 388.3 560.7 C 384.3 558.6, 381.5 554.6, 382.4 552.4 C 383 550.8, 383.2 550.8, 384.4 552.5 C 385.4 553.9, 386 554.1, 387.8 553.1 C 390.7 551.6, 390.6 550, 387.8 550.1 C 384.4 550.2, 381.6 549.4, 381.3 548.4 C 381.1 547.9, 382.9 547.4, 385.1 547.3 C 387.4 547.2, 389.8 546.6, 390.4 546 C 391.9 544.5, 393 544.8, 392.4 546.5 C 391.2 549.5, 393.7 547.8, 400.2 541.2 C 406.4 534.8, 409.9 528.3, 408.4 525.9 C 408.2 525.4, 405.9 526.2, 403.3 527.5 C 397.1 530.8, 397.1 530.7, 402 525.4 C 404.3 522.9, 405.9 520.6, 405.6 520.2 C 405.2 519.9, 403.7 520.9, 402.2 522.6 C 400.7 524.2, 397.5 527.2, 395.1 529.2 C 390.1 533.5, 390.1 534.4, 395 533 C 400 531.6, 399.7 532.2, 392.9 538 C 387.8 542.2, 386.1 543.1, 384 542.6 C 382.5 542.3, 380.8 542.6, 380.2 543.2 C 379.4 544, 379.2 542.7, 379.3 538.7 C 379.4 535.2, 379.9 533, 380.6 533 C 384 533, 403.9 515.8, 408 509.3 L 410.7 505 411.8 509.3 C 417.2 529.9, 417.2 530.9, 412.3 534.6 C 410.2 536.2, 407.4 538.6, 406 540 C 404.6 541.4, 402.4 543.3, 401.1 544.3 C 396.8 547.2, 399.7 547.4, 405.3 544.6 C 414.1 540.1, 418.2 535.9, 419 530.3 C 419.4 527.6, 419.5 525.3, 419.1 525 C 417.7 523.9, 415.9 514.7, 417 513.6 C 418.4 512.2, 418.3 509.9, 416.6 508.6 C 414.3 506.8, 413.5 501, 415.5 501 C 416.4 501, 416.9 500.6, 416.6 500.1 C 415.9 499, 427.5 499.8, 431.8 501.1 C 436.9 502.7, 435.6 503.6, 428.8 503.2 C 424 502.9, 422 503.2, 420.5 504.5 C 418.6 506, 418.9 506.1, 425 505.5 C 429.6 505.1, 432.3 505.4, 434.1 506.4 C 435.7 507.2, 437.3 507.4, 438.1 506.9 C 440.6 505.3, 442.1 505.9, 443.1 508.9 C 444.1 511.7, 447 514, 447 512 C 447 509.8, 448.9 511.2, 450.1 514.3 C 450.8 516, 451.5 517.8, 451.8 518.3 C 452 518.7, 448.7 519, 444.5 519 C 435.2 519, 431.1 520.8, 431 524.9 C 431 525.9, 432 525.5, 433.8 523.7 C 436.4 521.2, 437.3 521, 444.7 521 L 452.8 521 454 524.1 C 455.7 528.1, 454.7 529.8, 449.5 531.6 C 444.3 533.4, 443 533.3, 440.9 531.4 C 439.2 529.8, 439 529.8, 438.4 531.4 C 437.7 533.2, 433.5 533.6, 432.5 531.9 C 432 531.2, 431.2 531.4, 430 532.5 C 429.1 533.3, 427.6 533.8, 426.8 533.5 C 426 533.2, 424.7 533.6, 424 534.5 C 423.3 535.3, 422.1 536, 421.4 536 C 420.3 536, 420 538.3, 420 546.3 C 420 551.9, 419.9 557.4, 419.8 558.5 C 419.5 560.2, 420 560.4, 425 560.2 C 428 560.1, 434.3 560, 439 560 C 446.9 560, 449.3 558.7, 443 557.8 C 441.3 557.6, 442.5 557, 446.9 556 C 452.7 554.7, 453.1 554.4, 450.4 553.9 L 447.5 553.2 450.5 553.1 C 452.5 553, 453.9 553.7, 454.7 554.9 C 455.4 556, 457.5 557, 460.2 557.3 C 462.6 557.7, 467.7 558.6, 471.5 559.5 C 482 561.9, 485 562.3, 485 561.3 C 485 559.9, 481 558.3, 475.6 557.5 C 467.8 556.3, 470.1 554.6, 478.3 555.6 C 491.9 557.2, 502.8 555.6, 504.3 551.6 C 505.2 549.4, 503.4 548.7, 498.7 549.4 C 496.4 549.7, 493.8 549.6, 493 549 C 492 548.3, 495.9 548, 505.3 548 C 521.3 548, 525 547, 520.4 543.9 C 518.4 542.6, 516.5 542.2, 514.5 542.5 L 511.5 543.1 513.8 541.1 C 515.6 539.5, 516.6 539.3, 519.3 540.1 C 523.5 541.3, 524 541.3, 524 539.6 C 524 537.6, 522.2 537.2, 509 536.5 C 502.7 536.1, 496.1 535.2, 494.4 534.5 C 492.7 533.7, 488.6 533, 485.2 532.9 C 479.4 532.7, 479 532.6, 479 530.3 C 479 528.1, 481.5 522.1, 482.9 521 C 483.3 520.7, 484.1 519.4, 484.8 518 C 485.4 516.6, 486.4 514.8, 487 514 C 487.5 513.2, 488.5 511.2, 489 509.6 L 490.1 506.7 500.3 507.3 C 513.2 508.1, 523.1 510.3, 528.9 513.5 C 543.2 521.5, 541.7 521.1, 567.8 521.5 C 586.6 521.7, 592.7 522.1, 597.5 523.5 C 607.7 526.5, 612.2 527.1, 621 527 C 633.1 526.9, 641.2 528, 640.6 529.5 C 640.3 530.4, 641.6 530.9, 644.8 531.2 C 652.3 531.9, 652.8 529.7, 645.6 527.9 C 643.4 527.4, 645 527.2, 650.9 527.1 C 658.2 527, 659.9 527.3, 664.1 529.7 C 667.7 531.6, 669.4 532, 670.2 531.2 C 671.5 529.9, 662.1 525, 658.1 524.9 C 656 524.9, 656.3 524.6, 659.5 523.6 C 661.7 522.9, 666.1 521.1, 669.2 519.7 C 681 514.2, 693.9 512.1, 705.1 514 C 716.7 515.9, 731.1 519.8, 735 522.2 C 743.8 527.5, 747.3 529.1, 748.3 528.1 C 753.4 523, 715.9 510, 696.2 510 C 687.2 510, 683.8 510.8, 663.5 517.5 C 642.5 524.5, 642.4 524.5, 623.4 523.2 C 614.1 522.5, 604 521.3, 601 520.4 C 597 519.2, 588.7 518.6, 570 518.1 L 544.5 517.4 534 512.3 C 522.1 506.5, 515.1 504.9, 498.8 504.3 L 488 503.9 488 500.5 C 488 498.4, 487.2 496.4, 486 495.2 C 483.9 493.3, 484.5 487.5, 488.9 463 C 489.5 460, 490.4 453.7, 491 449 C 494.9 418.6, 496.5 410, 498.7 408.5 C 500.4 407.3, 500.8 406.3, 500.4 404.1 C 499.9 401.9, 500.5 400.2, 502.9 397 C 507.1 391.2, 507.2 385.1, 503.4 382.1 L 500.7 380 502.4 365.7 C 504.1 351.8, 505.3 342.9, 508.5 322 C 510.7 308.2, 512.8 293.8, 514.5 281.5 C 517.1 262.6, 519 249.7, 519.6 247.5 L 520.1 245.3 525.8 248.2 C 548.8 259.7, 560.6 264.1, 572 265.6 C 575 265.9, 579.5 267.3, 582 268.6 C 590.5 273, 593.9 273.9, 604.7 274.5 C 620.1 275.4, 624.2 278.2, 626.5 289 C 627.3 293.2, 629.6 300.8, 631.8 306.8 C 633.3 311.1, 638.3 316, 641.1 316 C 641.9 316, 643.5 315.2, 644.7 314.2 L 647 312.5 644.5 295.5 C 643.1 286.2, 641.7 277.8, 641.4 277 C 641.1 276.2, 640.5 270.6, 639.9 264.6 C 639 254.1, 639 253.6, 641.4 249.6 C 642.7 247.4, 644.5 243.2, 645.3 240.4 C 646.1 237.6, 647.5 233.9, 648.4 232.2 C 650.7 227.7, 650.6 224.2, 648.3 226.2 C 647.3 227, 645.8 228, 644.9 228.3 C 643.7 228.7, 643.4 229.6, 643.7 231.4 C 644.1 233.5, 643.8 234, 642.2 234 C 641.1 234, 640 234.8, 639.7 235.9 C 638.6 240.2, 619.7 242.1, 613 238.6 C 609.1 236.6, 589.6 230, 587.6 230 C 584.1 230, 538.6 205.4, 531.6 199.6 C 528.7 197.3, 528.6 197.2, 529.9 193.1 L 531.1 188.9 533.7 191.4 C 535.9 193.6, 554.3 205, 555.7 205 C 555.9 205, 557.4 205.9, 558.9 206.9 C 560.3 208, 566 210, 571.5 211.5 C 577 212.9, 582.2 214.4, 583 214.7 C 583.8 215, 585.9 215.4, 587.5 215.6 C 590.8 215.9, 591.6 216.1, 600.5 218.6 C 603.8 219.6, 606.7 220.7, 606.8 221.2 C 607 221.6, 608.4 222, 610 222 C 611.6 222, 613 222.5, 613.2 223.1 C 613.6 224.3, 617 223.2, 617 221.9 C 617 221.4, 616.3 221, 615.5 221 C 614.7 221, 613.2 220.6, 612.2 220 C 611.3 219.5, 608.5 218.5, 606 217.8 C 600.7 216.4, 600.9 216.5, 599 215.7 C 598.2 215.4, 593.9 214.4, 589.5 213.5 C 580.4 211.6, 571.4 209.3, 568.5 208 C 561.8 205.1, 550.4 199.6, 550 199.1 C 549.7 198.7, 547.3 197, 544.5 195.3 C 541.8 193.5, 537.8 190.5, 535.7 188.5 C 532 185, 531.8 184.6, 532.5 180.2 C 532.9 177.6, 533.6 174.7, 534.1 173.8 C 534.6 172.9, 535 171.1, 535 169.9 C 535 167.7, 535.2 167.8, 538.8 171.1 C 542.2 174.4, 551 180, 557 182.8 C 565.5 186.6, 569.1 188, 570.7 188 C 571.8 188, 573 188.4, 573.6 188.9 C 574.4 189.6, 580.5 190.9, 598.3 193.9 C 605.5 195.2, 609.3 193.9, 608.4 190.5 C 607.8 188.1, 611.8 184, 614.7 184 C 617.1 184, 624.1 188, 630.1 192.9 C 636 197.6, 638.1 200.4, 633.5 197.4 C 632.1 196.5, 630.7 195.9, 630.5 196.2 C 629.8 196.8, 638.1 201.4, 640.2 201.5 C 641.2 201.6, 642.3 202, 642.7 202.3 C 643 202.7, 640.8 202.8, 637.8 202.6 L 632.3 202.2 634.4 204.5 C 636 206.2, 637.3 206.6, 639.9 206.2 C 641.7 206, 643.5 206.2, 643.9 206.8 C 644.2 207.4, 645.8 207.6, 647.3 207.3 C 649.6 206.8, 649.9 206.4, 649.4 204.6 C 648.5 202, 645.8 198.1, 644.7 198 C 643.5 198, 633.3 191.4, 627.4 186.9 C 622.3 183, 613 179, 609 179 C 607.9 179, 605.1 178.5, 602.8 178 C 600.4 177.4, 594.7 176.1, 590 175 C 579.2 172.4, 560.5 165.1, 547.2 158.3 C 541.5 155.4, 536.2 153, 535.3 153 C 534.5 153, 526.9 149.6, 518.5 145.5 C 510.2 141.4, 503 138, 502.6 138 C 502.2 138, 500 137.1, 497.7 136.1 C 487.5 131.5, 461.8 123.2, 449.5 120.6 C 435.7 117.7, 431.4 117, 421.6 116 C 410.4 114.8, 410 114.7, 410.7 112.1 C 411.8 107.9, 401.1 105.1, 396.4 108.5 M 398 111.3 C 398 112.1, 397.7 114.2, 397.4 115.9 L 396.8 119 401.9 119 L 407.1 119 406.8 114.8 C 406.5 110.5, 406.5 110.5, 402.3 110.2 C 399.1 110, 398 110.3, 398 111.3 M 206.7 116.6 C 207.7 127.2, 203.8 132.8, 190.5 140.1 C 185 143.1, 183.8 143.4, 175.5 143.5 C 162.4 143.5, 154.4 139.4, 150.2 130.4 C 148.9 127.7, 147.5 124.7, 146.9 123.8 C 146.4 122.8, 146 119.9, 146 117.3 C 146 113.8, 145.7 112.9, 145 114 C 143.7 116, 143.7 121.7, 145 122.5 C 145.6 122.8, 146 123.9, 146 124.8 C 146 127.4, 149.8 134.1, 153.4 137.8 C 158.6 143.3, 163.4 145.2, 173.8 145.8 C 182.7 146.2, 183.3 146.1, 189.6 143 C 197.9 139, 207.4 129.8, 208.3 125.1 C 209.4 119.7, 209.1 114.5, 207.6 112.4 C 206.3 110.7, 206.2 111.2, 206.7 116.6 M 409.5 119.4 C 408.6 122.6, 407 134.2, 407 137.2 L 407 140.8 412.8 141.3 C 420.6 142, 431.9 143.9, 435.5 145 C 437.2 145.5, 442.6 146.9, 447.5 148 C 474.8 154.3, 509.3 168.1, 525.3 179.3 C 528.8 181.7, 528.5 182.3, 530.8 170.5 C 533.1 159.1, 533.2 157, 531.4 157 C 530.7 157, 530 156.6, 529.8 156.2 C 528.3 152.6, 490.1 135.7, 470.5 130 C 468.3 129.4, 464.3 128.2, 461.5 127.4 C 451.8 124.5, 442.5 122.2, 438 121.6 C 423.6 119.5, 420 119, 415.2 118.7 C 411.8 118.4, 409.7 118.7, 409.5 119.4 M 397.6 125.3 C 397 128.9, 396.5 133.8, 394.5 152 C 393.8 158.9, 392.4 170.8, 391.5 178.5 C 388.6 203.2, 388.4 205, 388.9 205.5 C 389.9 206.6, 395 205.9, 395.1 204.8 C 395.3 199.7, 398.5 174.2, 401.5 153 C 404 134.9, 405.1 124, 404.5 123 C 404.2 122.4, 402.6 122, 401 122 C 398.5 122, 398 122.4, 397.6 125.3 M 418 144.7 C 418 145.7, 424.2 147.6, 432 148.9 C 443.6 150.9, 464.6 156.6, 469 158.9 C 469.9 159.4, 472 160.1, 473.9 160.5 C 475.7 160.9, 478.3 161.8, 479.8 162.6 C 481.3 163.4, 483.3 164, 484.3 164 C 485.2 164, 486 164.5, 486 165 C 486 165.6, 486.9 166, 488 166 C 489.1 166, 490 166.4, 490 166.8 C 490 167.2, 490.8 167.6, 491.8 167.7 C 495.5 168, 501 170.5, 500.5 171.8 C 500.2 172.7, 500.8 172.8, 502.8 172.3 C 505.3 171.7, 505.4 171.8, 504 173.5 C 502.6 175.2, 502.6 175.3, 504.7 174.2 C 507.6 172.6, 508.3 172.7, 507.6 174.5 C 507 176.2, 507.8 176.4, 510 175 C 511.6 174, 511.7 174.1, 507 171.8 C 483.4 160.5, 473.3 156.8, 451.9 151.5 C 444 149.6, 436.2 147.6, 434.5 147.1 C 432.9 146.5, 429.3 145.8, 426.5 145.5 C 423.8 145.1, 420.7 144.6, 419.8 144.3 C 418.8 144.1, 418 144.2, 418 144.7 M 405.3 151.1 C 403.3 159.4, 403.5 160, 407.4 160 C 409.2 160, 412.3 160.6, 414.2 161.4 C 416.1 162.2, 420 163.2, 422.8 163.6 C 425.7 163.9, 428 164.7, 428 165.1 C 428 165.6, 429.2 166, 430.8 166 C 432.3 166, 436.7 166.9, 440.5 168.1 C 444.4 169.3, 448.6 170.2, 449.9 170.1 C 451.6 170, 452.1 170.4, 451.6 171.5 C 450.9 173.4, 451.4 173.4, 455.5 171.4 C 458.5 170, 459.1 170, 461.9 171.4 C 463.5 172.3, 465.4 173, 466 173 C 466.6 173, 469.2 173.9, 471.8 175.1 C 474.4 176.2, 477.4 177.5, 478.5 177.9 C 479.6 178.4, 483.5 180.1, 487.1 181.9 C 490.7 183.6, 494.4 185, 495.3 185 C 496.2 185, 497 185.4, 497 186 C 497 186.5, 498.6 187.2, 500.5 187.6 C 503.5 188.1, 504 188.6, 503.5 190.4 C 503 191.9, 503.1 192.1, 503.8 191.1 C 504.8 189.8, 511.1 190.4, 510.9 191.8 C 510.8 193.5, 504.8 197.1, 503.3 196.6 C 501.9 196, 502.2 195.5, 504.9 193.9 C 506.7 192.8, 508 191.6, 507.7 191.3 C 507.4 191, 505.9 191.7, 504.4 192.9 C 502.9 194, 501.2 195, 500.5 195 C 499.1 195, 475.7 187.5, 472.5 186.1 C 471.4 185.6, 468 184.3, 465 183.3 C 462 182.3, 459.3 181.2, 459 180.9 C 458.7 180.5, 455.1 179.5, 451 178.7 C 446.9 177.8, 440.6 176.4, 437 175.5 C 419.1 171.3, 403.1 169.5, 402.3 171.6 C 402.1 172.3, 403.8 173, 406.7 173.4 C 416.3 174.6, 419 175.2, 419 176.1 C 419 176.6, 420.4 177, 422.2 177 C 428.1 177, 450 182.8, 450 184.4 C 450 184.8, 450.7 185, 451.5 184.7 C 452.3 184.3, 453.2 184.5, 453.5 185 C 453.9 185.6, 454.8 186, 455.7 186 C 456.6 186, 462.8 188.5, 469.4 191.6 C 476.1 194.7, 489.1 200.1, 498.4 203.6 C 507.7 207.2, 515.9 210.5, 516.5 211 C 517.2 211.6, 518.5 211.8, 519.4 211.4 C 520.6 210.9, 520.9 211.2, 520.4 212.4 C 520.1 213.3, 520.2 214, 520.8 214 C 521.3 214, 521.8 212.4, 521.7 210.5 C 521.6 207.4, 521.5 207.2, 520 208.5 C 517.9 210.4, 516.4 210.5, 517.9 208.6 C 518.8 207.5, 518.8 207.1, 517.9 206.8 C 517 206.5, 517 205.8, 518 204.1 C 519.1 202, 519 201.8, 517.6 202.3 C 516.6 202.7, 516 202.4, 516 201.4 C 516 200.6, 515.3 199.7, 514.5 199.4 C 513.5 199, 513.2 198.1, 513.6 196.7 C 514.2 194.8, 514.1 194.8, 511.9 196.4 C 508.1 199, 506.1 198.3, 509.5 195.5 C 513 192.7, 514.3 192.5, 516 194.5 C 516.7 195.3, 517.6 195.7, 518.1 195.4 C 518.6 195.1, 519 195.4, 519 195.9 C 519 196.5, 519.7 197, 520.5 197 C 521.3 197, 522 197.7, 522 198.5 C 522 199.4, 522.6 199.7, 523.5 199.4 C 525.9 198.4, 525.2 195.3, 522 192 C 519.9 189.9, 519.1 188.2, 519.5 187 C 519.9 185.7, 519.4 185, 517.8 184.4 C 516.5 184.1, 515.2 183.3, 514.9 182.8 C 514.6 182.3, 512.9 181.8, 511.1 181.8 C 508.9 181.7, 508.1 181.3, 508.4 180.3 C 508.9 179, 507.4 178.6, 503.8 178.9 C 502.8 179, 502 178.8, 502 178.3 C 502 177.9, 500.8 177.4, 499.3 177.3 C 497.8 177.3, 496.4 176.7, 496.2 176.1 C 496 175.6, 495.2 175.4, 494.4 175.7 C 493.6 176, 493 175.7, 493 175.1 C 493 174.5, 492.2 174, 491.3 174 C 490.3 173.9, 487.7 173.1, 485.5 172 C 483.3 170.9, 480.9 170.1, 480.2 170 C 479.4 170, 477.4 169.4, 475.7 168.6 C 471.7 166.8, 457.7 162.1, 453 161 C 451.1 160.6, 448.2 159.7, 446.5 159.2 C 439 156.6, 421.6 152.8, 414 152.1 C 407.8 151.5, 407.5 151.4, 407 148.6 C 406.6 146.1, 406.4 146.4, 405.3 151.1 M 536.2 161.9 C 535.9 167.3, 537.3 168.9, 548.7 175.7 C 553.1 178.5, 555.9 179.8, 565.5 184 C 570.7 186.2, 586.8 189.9, 599 191.5 C 603.7 192.2, 608 189.8, 608 186.6 C 608 185.8, 608.7 185, 609.5 184.6 C 612.5 183.5, 610.9 182.3, 605.6 181.6 C 596.6 180.6, 579.1 176, 574.1 173.4 C 572.7 172.6, 570.9 172, 570.2 172 C 569.5 172, 568.2 171.6, 567.2 171 C 566.3 170.5, 562.6 168.9, 559 167.4 C 555.4 166, 549.2 163, 545.2 160.9 C 536.2 156.1, 536.6 156, 536.2 161.9 M 401.6 178.3 C 401.3 178.9, 400.7 183.6, 400 188.5 C 399.4 193.5, 398.7 198.7, 398.3 200.3 L 397.8 203 409.6 202.9 C 421.3 202.7, 421.4 202.7, 414.5 201.9 C 410.7 201.4, 406.4 201.3, 405 201.5 C 401.6 202.2, 398.7 200.4, 401.4 199.4 C 405 198, 441.5 202.4, 447.5 204.9 C 448.6 205.4, 451.8 206.6, 454.5 207.5 C 460.8 209.7, 467.7 212.6, 471.3 214.6 C 472.8 215.5, 475.2 216.8, 476.6 217.5 C 478 218.2, 478.7 219.1, 478.2 219.4 C 477.4 219.9, 467 216.3, 463 214.1 C 462.2 213.7, 459 212.7, 456 212 C 453 211.3, 450.1 210.4, 449.5 210 C 449 209.6, 446.7 209, 444.5 208.6 C 437.3 207.3, 436.1 206.8, 439 205.9 C 440.4 205.5, 438.9 205.4, 435.8 205.7 C 431.8 206.1, 430 205.9, 430 205.1 C 430 204.3, 425.3 204, 414 204 C 405.2 204, 398 204.4, 398 204.9 C 398 205.3, 404.2 206, 411.8 206.3 C 435.1 207.3, 448.9 211.1, 471.2 222.4 C 478.1 226, 487.8 230.1, 492.6 231.5 C 497.5 233, 505 235.5, 509.3 237.2 C 513.6 238.8, 517.4 239.9, 517.7 239.6 C 518.1 239.3, 517.8 239, 517.2 239 C 516.5 239, 516 238.3, 516 237.5 C 516 236.6, 515.4 236.3, 514.3 236.7 C 513.3 237, 512.8 236.9, 513.3 236.5 C 513.7 236, 512.8 234.8, 511.3 233.7 C 508.9 232.1, 508.8 231.9, 510.8 232.5 C 513.5 233.3, 513.6 232.1, 511 229.2 C 509.9 228.1, 509 226.6, 509 226 C 509 225.3, 508.4 225.2, 507.1 226 C 505.8 226.7, 504.9 226.7, 504.5 226 C 503.7 224.7, 505.7 224, 509.3 224.3 C 510.8 224.4, 511.8 225, 511.6 225.6 C 511.4 226.2, 511.9 226.7, 512.8 226.6 C 514 226.5, 514.4 227.2, 514.2 228.9 L 514 231.2 516 228.9 C 518.4 226, 518.6 227, 516.4 231.2 C 515.2 233.5, 515.1 234.1, 516.2 233.8 C 516.9 233.5, 517.5 232.9, 517.6 232.4 C 517.6 231.9, 518 230.7, 518.5 229.7 C 518.9 228.7, 519 227.6, 518.6 227.3 C 518.3 227, 518.5 226.1, 519.1 225.3 C 519.7 224.6, 519.9 224, 519.5 224 C 519.1 224, 519.3 223.4, 519.9 222.6 C 520.5 221.8, 520.9 220.6, 520.8 219.9 C 520.5 218.5, 516.7 215, 515.5 215 C 515.1 215, 514.1 214.2, 513.2 213.1 C 512.2 212.1, 506.6 209.4, 500.5 207 C 490.7 203.2, 484.9 200.8, 478.5 198 C 477.4 197.5, 474.3 196.2, 471.5 195 C 468.8 193.8, 465.6 192.5, 464.5 192 C 455.7 188.1, 452.9 187, 451.6 187 C 450.8 187, 449.9 186.6, 449.6 186.1 C 449.2 185.6, 447.1 184.9, 444.8 184.5 C 442.5 184.1, 439.9 183.4, 439 183 C 437.5 182.2, 431.1 181, 414.5 178.5 C 403.3 176.7, 402 176.7, 401.6 178.3 M 527 205.3 C 527 206.5, 526.7 209.1, 526.4 211.1 L 525.8 214.6 540.2 221.8 C 558.4 230.9, 572.7 235.8, 592.5 239.9 C 604.5 242.4, 614.9 245, 617.7 246.3 C 618.9 246.8, 621.7 247, 624 246.6 C 627 246.1, 628.5 246.4, 629.6 247.4 C 630.8 248.7, 630.6 248.8, 627.5 248.3 C 624.2 247.8, 622.1 250.2, 625 251.2 C 626.1 251.5, 617.4 251.5, 613 251.1 C 610.5 250.9, 610.5 250.9, 612.5 249.3 C 614.4 247.8, 614.4 247.8, 612 248.5 C 606.3 250.1, 605 250.2, 605 249.1 C 605 248.5, 605.8 248, 606.8 247.9 C 607.8 247.9, 608 247.6, 607.2 247.3 C 606.5 247, 604.5 247.3, 602.8 247.9 L 599.7 249 601.6 246.9 L 603.5 244.7 598.7 245.2 C 596.1 245.5, 594.2 245.5, 594.5 245.2 C 594.8 244.8, 592.9 244, 590.3 243.4 C 580.4 240.9, 563.4 235.9, 560.3 234.5 C 558.6 233.7, 556.7 233, 556 233 C 555.1 233, 546.3 228.8, 531.9 221.4 C 525.9 218.3, 524.6 218.9, 523.7 225.5 C 523.3 228.8, 522.5 233.8, 522 236.5 C 521 242.3, 521.7 243.2, 529.8 246.4 C 532.4 247.4, 538.1 250.1, 542.5 252.3 C 553.8 257.8, 559.2 259.7, 569.7 261.4 C 579 263, 586.2 265.3, 589 267.5 C 591.1 269.2, 594.7 270, 608.6 271.5 C 625.4 273.4, 626 273.9, 630 290.7 C 632.6 301.7, 634.6 306.9, 637.3 309.8 C 639.7 312.4, 642.5 312.8, 641.6 310.3 C 641.2 309.4, 641.5 308.3, 642.1 307.9 C 643.4 307.1, 641.9 289.6, 640 283.5 C 636.7 273.1, 633.3 251.4, 635 252.5 C 635.4 252.7, 635.6 250.7, 635.6 248 L 635.5 243.2 626.5 243.7 C 616.8 244.3, 612.2 243.3, 603.9 238.7 C 601.5 237.3, 595.9 235.1, 591.5 233.6 C 581 230.1, 548.8 214.5, 536.5 207 C 529 202.4, 527 202, 527 205.3 M 403 210.8 C 395.5 212.9, 395.7 212.2, 392 250 C 391.5 255.8, 390.6 263.4, 390.1 267 C 389.5 270.6, 388.8 276.7, 388.5 280.5 C 388.2 284.4, 387.4 291, 386.8 295.2 C 385.7 302.9, 385.7 302.9, 388.2 305.5 C 389.8 307, 391.1 309.8, 391.5 312.2 C 391.9 314.5, 393.6 319.4, 395.2 323.2 C 401.4 337.8, 397.7 356.8, 385.9 371.9 C 384.3 373.9, 384 376, 384 387.5 L 384 400.7 388.6 404 C 391.1 405.8, 394.6 408.8, 396.3 410.7 C 398.1 412.6, 402.1 416, 405.2 418.2 C 410.6 422, 413.1 425.4, 414.5 431 C 414.9 432.8, 416.6 434.3, 420.2 436 C 422.9 437.3, 425.9 439.4, 426.7 440.6 C 427.5 441.9, 430.5 444.1, 433.3 445.5 C 439.4 448.7, 444.6 453.4, 445.4 456.4 C 445.7 457.5, 447.3 459.2, 448.9 460.1 C 450.5 461.1, 454.2 465.3, 457.1 469.6 C 460 474, 464.9 480.3, 467.9 483.8 L 473.5 490 474.2 481.8 C 474.8 473.1, 476 463.6, 481.9 416 C 482.7 409.9, 482.6 409.2, 479.9 404.7 C 476.8 399.7, 476.4 398, 477.9 396.5 C 478.4 395.9, 478.5 393.7, 478.1 391.5 C 476.7 384, 480.3 377, 485.5 377 L 488.7 377 489.8 369.8 C 491.1 361.6, 492.7 349.5, 494.1 337.5 C 494.6 333.1, 495.3 328.4, 495.6 327 C 495.9 325.6, 496.8 319.6, 497.6 313.5 C 498.4 307.5, 499.7 297.6, 500.5 291.5 C 501.9 281.3, 503.8 264.9, 505.8 247.2 C 506.8 238.8, 507.4 239.5, 497.3 236.9 C 485 233.7, 464.3 224.7, 456.5 219.1 C 449.8 214.3, 411.7 208.4, 403 210.8 M 387.1 223.8 C 385.6 237.2, 384.1 251.5, 383 264 C 382.5 269.8, 381.6 277.2, 381.1 280.5 C 379 293.2, 378.9 295.5, 380.4 297.5 C 382.4 300.3, 382.7 299.7, 384 288.5 C 384.6 283, 385.8 272.9, 386.6 266 C 392.6 215.1, 392.7 214, 390.3 214 C 388.4 214, 388.1 215, 387.1 223.8 M 509.6 245.3 C 509.3 247, 508.6 253.7, 508 260 C 507.5 266.3, 506.4 276.2, 505.6 282 C 504.7 287.8, 503.3 297.7, 502.5 304 C 501.6 310.3, 500.2 320, 499.4 325.5 C 498.6 331, 497.3 340.9, 496.5 347.5 C 495.7 354.1, 494.4 363.7, 493.7 368.8 C 492.4 377.9, 492.4 378, 494.5 378 C 496.8 378, 496.3 380.1, 501.2 346.5 C 502.4 337.6, 504.5 323.8, 506.5 311.2 C 508.8 297, 511 282.4, 511.9 275 C 512.4 271.4, 513.6 263.1, 514.6 256.6 C 516.2 245.1, 516.2 244.7, 514.5 243.3 C 511.5 241.2, 510.1 241.8, 509.6 245.3 M 295 275.9 C 294.2 276.4, 291.5 277.1, 289 277.5 C 286.5 277.9, 278 280.4, 270.1 283 L 255.6 287.8 266.2 287.3 C 272.9 286.9, 278 287.1, 280 287.9 C 282.9 288.9, 283.8 288.7, 287.9 286.3 C 297.3 280.8, 300.9 279.2, 306.6 277.9 C 309.8 277.3, 312.9 276.3, 313.5 275.8 C 314.7 274.7, 296.9 274.8, 295 275.9 M 312.1 278.5 C 310.3 279.3, 308 280, 307.1 280 C 304.3 280, 291.3 287.1, 286.1 291.5 C 278.9 297.5, 268 312.9, 268 316.9 C 268 317.7, 269.2 316, 270.7 313 C 278.3 297.7, 305.8 279, 320.6 279 C 322.7 279, 323.9 278.6, 323.5 278 C 322.6 276.5, 316 276.9, 312.1 278.5 M 316.5 283.1 C 310 284.7, 301 289, 293 294.4 C 287.7 297.9, 278 306.2, 278 307.2 C 278 307.6, 276.7 310.1, 275.2 312.7 C 271.1 319.7, 268.8 327.4, 268.4 335.2 C 268.2 341.8, 268.2 342, 270.6 342 C 281.2 342, 289.2 358.4, 284.9 370.9 C 283.4 375.1, 284.6 376.2, 287.2 373 C 289.3 370.5, 289.4 360.8, 287.4 352.6 C 286.9 350.4, 287 349.8, 288.1 350.2 C 290.4 350.9, 292.3 360.5, 291.2 365.6 C 290.5 369, 290.5 370, 291.5 370 C 295.1 370, 294.2 354, 290.3 349.9 L 287.8 347.2 289.9 343.2 C 293 337.2, 308.3 321.6, 315.4 317.3 C 337.8 303.7, 364.5 296.9, 377.5 301.5 C 380.4 302.5, 371.3 294.6, 365.5 291.1 C 355.7 285.1, 346.8 282.8, 333 282.4 C 326.1 282.2, 318.7 282.5, 316.5 283.1 M 253.7 290.3 C 253.9 290.7, 253 291, 251.6 291 C 250.3 291, 241.3 293.6, 231.8 296.7 C 216.8 301.6, 214.9 302.4, 217.6 303 C 219.4 303.4, 222.9 304.9, 225.5 306.3 L 230.2 309 235.8 306.4 C 251.7 299, 273.3 291, 277.2 291 C 278.4 291, 279 290.7, 278.6 290.3 C 278.2 289.8, 272.3 289.5, 265.5 289.5 C 258.7 289.5, 253.4 289.8, 253.7 290.3 M 272.5 295.5 C 242.7 304.9, 220 317.1, 220 323.7 C 220 326.7, 224 334.2, 227.8 338.3 C 230.7 341.4, 229.1 342.1, 226 339 C 224.9 337.9, 224 337.1, 224 337.3 C 224 337.5, 224.9 341.6, 226 346.6 C 227.2 351.5, 228.8 359.6, 229.6 364.5 C 230.4 369.5, 231.3 374.9, 231.6 376.6 L 232.2 379.7 238.5 378 C 242 377, 247.5 374.7, 250.7 372.8 C 256.1 369.6, 256.5 369.2, 256.8 365.3 C 257.1 361.9, 257.4 361.2, 258.8 361.6 C 260.3 362.1, 260.4 362, 258.9 360.8 C 257.8 359.9, 257.4 358.3, 257.7 355.1 C 258 352.1, 257.6 350.3, 256.5 349 C 255.5 347.9, 255.3 347, 255.8 346.6 C 256.4 346.3, 257 346.6, 257.3 347.2 C 257.5 347.9, 257.7 347.2, 257.6 345.5 C 257.5 343.9, 257.1 341.9, 256.7 341.3 C 256.3 340.6, 256.4 339.1, 257.1 337.9 C 257.9 336.2, 257.9 335.6, 257 335 C 256.1 334.4, 256.1 334, 257.2 333.4 C 258 332.9, 259.6 328.5, 260.8 323.6 C 263.7 311.9, 266.1 307, 272.6 300.2 C 279.5 293.1, 279.5 293.3, 272.5 295.5 M 354 304.5 C 342.6 306.8, 331.5 311.1, 319.5 317.9 C 312.9 321.7, 295.3 338.6, 292.6 343.8 C 290.4 348.1, 292 347.8, 295.5 343.3 C 307 328.2, 325.6 315.8, 347.5 308.4 C 358.5 304.8, 375.2 304.5, 381.8 307.8 C 386.2 310.2, 387.6 309.3, 383.7 306.7 C 378.3 303.2, 365.4 302.3, 354 304.5 M 207.6 310 C 205.6 312.2, 204 314.2, 204 314.3 C 204 315.6, 215.4 320.2, 216.5 319.4 C 217.2 318.9, 220 316.6, 222.8 314.4 L 227.9 310.2 221.4 308.1 C 212.7 305.3, 211.8 305.4, 207.6 310 M 355.5 310.4 C 343.4 312.7, 326.6 320.3, 316 328.3 C 308.5 333.9, 306 336.2, 306 337.3 C 306 337.8, 307.8 336.6, 310.1 334.6 C 327.8 318.6, 364.5 306.6, 378.3 312.3 C 380.3 313.2, 382 313.5, 382 312.9 C 382 309.9, 366.1 308.4, 355.5 310.4 M 388.4 321.1 C 388.7 325.3, 389.4 330, 390 331.4 C 394.3 342.9, 385.4 370, 374 379.8 C 372.7 381, 372.7 381, 374.1 380.3 C 376.4 379.2, 386.8 366.3, 389.1 361.8 C 397.5 345.3, 397.7 332.1, 389.7 317 L 387.8 313.5 388.4 321.1 M 200 318.6 C 200 320.9, 202.1 336.3, 202.5 336.8 C 202.6 336.9, 204.1 336.5, 205.7 335.9 C 207.9 335.2, 210 335.2, 212.9 336 C 217.4 337.2, 218.8 339.2, 222 348.9 C 224.5 356.3, 224.5 352.8, 222.1 344.2 C 216.6 325.1, 215.3 322.5, 210 320.6 C 207.3 319.6, 204.5 319.2, 203.9 319.6 C 203.1 320.1, 202.9 319.8, 203.3 318.8 C 203.7 317.7, 203.2 317, 201.9 316.7 C 200.4 316.3, 200 316.7, 200 318.6 M 204.7 320.8 C 203.2 321.1, 203 322, 203.2 326.3 L 203.5 331.4 210.4 333.2 C 216.9 334.8, 219.8 334.8, 217.5 333.2 C 216.9 332.8, 215.5 330.4, 214.3 327.8 C 213 325, 211.2 322.9, 209.8 322.5 C 208.5 322.1, 207.3 321.4, 207 321.1 C 206.7 320.7, 205.7 320.6, 204.7 320.8 M 265 348.5 C 259.6 354.3, 262.9 365.9, 271.4 371.1 C 277.7 375, 282 372.4, 282.8 364.1 C 283.4 357.1, 281.6 352.6, 276.7 349 C 271.7 345.3, 268.1 345.2, 265 348.5 M 224.6 362.1 C 225.5 373.1, 225 374, 218.6 374 C 214.8 374, 212.5 373.4, 210.7 372 C 207.5 369.5, 206.6 369.5, 208 372 C 209.5 374.7, 213.6 376.7, 219.5 377.5 C 222.3 377.9, 225.3 378.4, 226.4 378.7 C 228.1 379.2, 228.2 378.7, 227.5 371.1 C 227.1 366.7, 226.2 361.1, 225.4 358.8 C 224 354.6, 224 354.6, 224.6 362.1 M 258.9 370.6 C 255.4 374.9, 238.9 383, 233.8 383 C 232.6 383, 232 383.5, 232.3 384.3 C 232.6 385.1, 231.9 385.7, 230.3 385.8 C 228.1 386, 227.9 385.8, 229 384.5 C 229.7 383.7, 230.1 383, 229.9 382.9 C 229.7 382.9, 228.2 382.6, 226.5 382.4 C 224.9 382.2, 221.6 381.5, 219.3 380.9 C 217 380.3, 214.6 380.1, 213.8 380.6 C 213.1 381, 212.8 381, 213.2 380.5 C 214.1 379.6, 210.2 376.5, 209.3 377.4 C 209 377.7, 209.1 379.1, 209.4 380.6 C 210 382.8, 210.5 383.1, 213 382.8 C 214.6 382.6, 215.7 382.6, 215.5 383 C 215.3 383.3, 217.2 384.2, 219.8 384.9 C 230.3 387.9, 233.6 391, 235.4 399.6 L 236.1 402.8 239.3 401.2 C 241.1 400.3, 244.4 399.5, 246.8 399.5 C 250 399.5, 250.9 399.2, 250.5 398.1 C 250.2 397.4, 249.5 394.8, 248.9 392.4 C 247.3 386.1, 246 385.4, 239.9 387.4 C 229.4 390.7, 231 388.6, 243.3 382.7 C 252 378.5, 262.2 370.9, 260.9 369.6 C 260.6 369.2, 259.7 369.7, 258.9 370.6 M 292.1 372.3 C 290.3 374.1, 303.1 385.8, 312.5 391 L 316.5 393.2 313 392.5 C 308.3 391.6, 300 385.9, 294.1 379.4 C 290.9 375.9, 288.9 374.5, 288.3 375.1 C 287.7 375.7, 284.7 376.4, 281.6 376.7 C 275.2 377.4, 274.5 378.7, 278.8 382.7 C 289.1 392.5, 330.5 400.1, 350.2 395.9 C 355.6 394.7, 364.4 391.2, 362.2 391.1 C 361.5 391, 359.3 391.7, 357.2 392.6 C 351.9 394.9, 340.1 395.9, 330.8 394.9 C 318.9 393.5, 312.1 390, 301.7 379.8 C 296.3 374.5, 292.7 371.7, 292.1 372.3 M 263.9 375.8 C 263.2 376.9, 262 377.6, 261.3 377.3 C 260.6 377, 260 377.4, 260 378.1 C 260 378.9, 258.9 379.6, 257.5 379.6 C 255.3 379.8, 248 382.6, 248 383.4 C 248 383.5, 249.1 386.5, 250.5 390.1 C 253.6 398, 255.7 413.1, 254.4 418.6 C 253.3 423.2, 248.4 427, 243.4 427 C 239.9 427, 240 427.2, 238 418 C 237.3 415, 235.9 409.6, 234.9 406.1 C 233.8 402.6, 233 399.1, 233 398.5 C 233 396.1, 230 391.3, 227.8 390.2 C 225.6 389, 210.8 384.9, 210.4 385.3 C 209.5 386.2, 212.5 402, 213.5 401.6 C 214.6 401.2, 216.9 402, 225 405.8 C 226.9 406.7, 229 407.6, 229.5 407.8 C 230.1 408.1, 229.6 407.4, 228.5 406.3 C 226.7 404.6, 224.3 403.4, 215.3 399.9 C 212.9 399, 212.6 398.2, 213.8 396.3 C 214.4 395.3, 215.8 395.4, 219.8 396.8 C 222.7 397.8, 224.7 399, 224.3 399.3 C 224 399.7, 224.4 400, 225.4 400 C 226.3 400, 226.8 400.5, 226.5 401 C 226.2 401.6, 226.3 402, 226.8 402 C 227.4 402, 228 401.3, 228.4 400.5 C 228.7 399.7, 228.6 399, 228.1 399 C 227.6 399, 227 398, 226.7 396.8 C 226.1 394.6, 226.1 394.6, 228 397 C 229 398.3, 230.1 400.6, 230.4 402 C 232.3 411.1, 232.9 415.1, 232.9 419.9 L 233 425.3 228.5 424.7 C 226 424.3, 222.2 423.1, 220 422 C 215.2 419.6, 214.6 419.5, 215.5 421.8 C 216 422.7, 216.9 427.6, 217.6 432.5 C 218.3 437.5, 219.6 445.1, 220.4 449.5 C 221.3 453.9, 222.5 462, 223.1 467.5 C 225.7 492.6, 227.4 495.1, 247.2 503.1 C 261.5 509, 269.8 507.7, 268.2 500 C 267.5 496.9, 267.3 496.7, 266.3 498.4 C 265.7 499.6, 265 499.9, 264.6 499.2 C 264.2 498.6, 263.3 498.3, 262.6 498.6 C 261.1 499.2, 261.5 491.1, 263 490 C 265.2 488.2, 266.7 456.6, 264.9 446 C 264.3 442.4, 262.8 431.2, 261.5 421 C 260.2 410.8, 258.4 399.4, 257.5 395.5 C 254.9 384.3, 254.7 382.5, 256.2 381.2 C 257.3 380.3, 257.5 380.7, 257.2 383.6 C 256.9 385.6, 257.2 388.2, 257.8 389.3 C 258.4 390.5, 259.3 393.5, 259.9 396 C 260.4 398.5, 261.8 404.5, 262.9 409.4 C 264.1 414.4, 265.1 420.7, 265.1 423.4 C 265.2 426.2, 265.6 429.9, 266 431.5 C 266.7 434.3, 266.8 434.2, 266.9 430.3 C 266.9 427.9, 266.9 425.8, 266.8 425.7 C 266.6 425.5, 267 424.7, 267.6 423.9 C 268.3 423.1, 269.1 421, 269.5 419.2 C 269.9 417.4, 270.8 414.7, 271.6 413.2 C 273.7 409.1, 273.3 408.4, 270.8 411.6 C 269.5 413.2, 268.2 414.7, 267.8 414.8 C 267.3 415, 267.2 415.6, 267.6 416.1 C 267.9 416.6, 267.6 417, 266.9 417 C 266.2 417, 266 416.2, 266.5 414.8 C 266.8 413.5, 267.3 411.8, 267.4 410.9 C 267.5 410.1, 268.7 407.9, 270 406 C 272.1 403, 272.2 402.7, 270.5 403.4 C 268.8 404, 268.7 403.9, 270.2 402.3 C 273.1 398.8, 273.5 397.7, 271.1 398.9 C 270 399.6, 269 399.7, 269 399.1 C 269 398.6, 269.7 398, 270.5 397.6 C 271.3 397.3, 272 395.9, 272 394.4 L 272 391.7 269.1 395 C 266.3 398.2, 266.2 398.2, 265.6 396.2 C 265.2 395, 265.2 393.6, 265.5 393 C 265.8 392.5, 265.7 392, 265.1 392 C 264.6 392, 263.8 392.5, 263.5 393 C 262.1 395.3, 261.2 392.8, 262.6 390.2 C 264.7 386.1, 264.3 384.1, 262 387.5 C 259.3 391.6, 259.5 390, 262.6 383.2 C 264.5 378.9, 265.4 378, 266.1 379.1 C 266.8 380.1, 266.9 379.6, 266.4 377.5 C 265.5 373.6, 265.4 373.5, 263.9 375.8 M 304.9 378.2 C 318.2 392.2, 345.6 396.7, 355.5 386.7 L 357.5 384.7 354.8 386.3 C 340.8 395, 324.8 391.7, 303.5 375.9 C 301.4 374.3, 301.7 375, 304.9 378.2 M 131.4 381.4 C 130 382.5, 129.5 384, 129.6 387.5 C 129.7 393.6, 130.7 394.4, 135.9 393 C 139.9 392, 140 391.8, 140 387.7 C 139.9 380.8, 136.1 378, 131.4 381.4 M 488 382.3 C 488 382.8, 486.8 382.9, 485.3 382.6 C 482.4 381.8, 481 383.1, 481 386.8 C 481 390.1, 485.1 391.3, 494.3 390.7 C 498.6 390.4, 502 390.6, 502 391.1 C 502 391.6, 501.6 392, 501 392 C 500.5 392, 500 392.7, 500 393.6 C 500 396, 485.9 395.1, 483 392.5 C 481.5 391.1, 481 391, 481 392.1 C 481 394.4, 488.4 398, 493.2 398 C 497.8 397.9, 500 396.8, 501.8 393.3 C 504.7 387.9, 501.4 385.9, 491.5 387.2 C 484.5 388.2, 480.7 387, 484 385 C 486.2 383.6, 499.4 383.8, 500.8 385.2 C 501.7 386.1, 502 386.1, 502 385.3 C 502 384.6, 501.4 383.8, 500.8 383.3 C 498.9 382.2, 488 381.3, 488 382.3 M 279.9 395.8 C 281.3 398.5, 288.8 401.5, 304.2 405.5 C 326 411.1, 327.7 411.6, 330.4 413.3 C 331.8 414.3, 334.5 417.4, 336.4 420.4 C 340.8 427.3, 342.2 428.2, 340.8 423.4 C 339.6 418.8, 340.2 418.2, 347.5 417 C 359.2 415.1, 373.5 409, 372.8 406.2 C 372.5 405.3, 372.9 403.2, 373.5 401.6 C 374.8 398.6, 374.4 394, 372.9 394 C 372.4 394, 372.2 395.1, 372.6 396.4 C 373.5 400.2, 370.5 404.7, 365.2 407.3 C 358.9 410.5, 349.5 413.3, 347.3 412.7 C 345.9 412.3, 345.9 412.2, 347.7 412.1 C 348.9 412.1, 350.2 411.5, 350.5 411 C 351 410.2, 349.5 410.2, 345.8 410.7 C 339.5 411.6, 334.8 411.6, 329.8 410.6 C 323.7 409.5, 325.2 407.8, 331.8 408.5 C 342.3 409.7, 361.9 405.1, 364.6 400.9 C 365.5 399.4, 362.6 399.9, 360.2 401.6 C 358.9 402.5, 354 403.5, 348.2 404.1 C 342.9 404.6, 335.8 405.6, 332.5 406.2 C 325.1 407.6, 321.6 407.5, 312 405.4 C 299 402.6, 287.9 399.1, 283.3 396.4 C 279.4 394.1, 279 394.1, 279.9 395.8 M 135.6 396.8 C 133.5 397.2, 133.5 395, 136.5 427 C 139.6 460.6, 141 474.4, 141.5 477.4 C 141.8 479.1, 142.5 485.5, 143 491.5 C 143.5 497.6, 144.7 508.6, 145.5 516 C 146.3 523.4, 147.4 533.8, 148 539 C 148.6 544.2, 149.4 550.5, 149.9 553 C 150.5 555.5, 151.1 559.3, 151.5 561.5 C 152.6 569.3, 154.4 575, 155.6 575 C 156.4 575, 157.1 577.4, 157.6 582 C 158.2 588.5, 159.3 591.1, 160.7 589.6 C 161.3 589.1, 160.7 585.6, 157.4 569.5 C 156.7 565.7, 155.6 558.7, 155 554 C 154.5 549.3, 153.3 540.3, 152.5 534 C 150.5 519.6, 146.8 486.5, 144 458.5 C 143.4 452.5, 142.5 443.7, 142 439 C 141.4 434.3, 140.5 424.4, 139.9 417 C 138.5 398.7, 138 396.4, 135.6 396.8 M 376.5 405.1 C 375.7 409.9, 379.6 415, 385.3 416.7 C 388.4 417.6, 388.5 417.7, 389.1 425 C 390.7 443.8, 391.7 447.3, 396.5 452.6 L 401 457.4 410 448.1 C 418.6 439.2, 419.8 437, 416.3 437 C 415.4 437, 413.8 436.2, 412.7 435.3 C 410.9 433.6, 410.8 433.6, 409.8 435.4 C 406.1 442, 402.9 442.1, 396.3 435.7 C 389.4 429.1, 388.7 422.8, 394.4 418.1 C 395.3 417.3, 396 416.3, 396 415.7 C 396 413.6, 380.8 401, 378.1 401 C 377.6 401, 376.9 402.8, 376.5 405.1 M 281.5 407.2 C 279.4 409.9, 277.8 413.8, 278.4 414.8 C 278.7 415.3, 278.2 415.7, 277.3 415.6 C 274.1 415.4, 271.7 422.7, 271.6 433.5 C 271.5 438.7, 271.7 439.5, 273.3 439.2 C 274.2 439, 275 439.4, 275 439.9 C 275 440.5, 275.6 440.7, 276.4 440.4 C 277.3 440.1, 278.1 440.9, 278.8 442.8 C 280 446.4, 285.9 453.2, 287.1 452.4 C 287.6 452.1, 288 452.4, 288 452.9 C 288 453.5, 288.5 454, 289.1 454 C 289.7 454, 291.5 454.9, 293.2 456.1 C 296.4 458.4, 298 458.1, 295.5 455.7 C 293.8 454, 293.4 450, 295 450 C 295.6 450, 296 450.9, 296 452.1 C 296 453.2, 296.5 453.8, 297 453.5 C 297.6 453.1, 297.7 451.2, 297.4 449.1 C 297 446.7, 297.2 445, 297.9 444.6 C 298.6 444.1, 299 445.2, 299 447.7 C 299.1 450.9, 299.2 451.2, 300.1 449.7 C 300.7 448.7, 300.9 446.3, 300.6 444.5 C 300.2 442.7, 300.4 440.9, 300.9 440.6 C 301.4 440.2, 302.1 441.2, 302.3 442.7 C 302.7 445.5, 302.7 445.4, 302.9 442.4 C 303.3 434.1, 316.7 417.3, 323.2 416.9 C 325.3 416.8, 316.4 413.2, 312.3 412.4 C 310.2 412, 308.1 411.4, 307.5 411 C 303.8 408.1, 283.1 405.1, 281.5 407.2 M 486.2 414.8 C 485.5 417.9, 484.5 424.6, 483.9 429.5 C 483.3 434.5, 482.2 443.5, 481.5 449.5 C 478 476.2, 476.8 490.2, 477.9 491.3 C 479.8 493.2, 481.7 490.1, 482.4 483.7 C 482.8 480.3, 483.5 475, 484 472 C 486.1 459.5, 490.6 426.1, 491.5 415.8 C 492.2 409.1, 492.1 409, 489.7 409 C 487.5 409, 487.2 409.6, 486.2 414.8 M 322.6 425 C 320.7 426.7, 317.7 430.4, 315.9 433.3 C 314.1 436.2, 312.1 438.8, 311.6 439.2 C 311 439.6, 310.6 444.1, 310.5 449.2 C 310.4 458.4, 310.4 458.5, 313.5 461 C 315.1 462.3, 316.9 464, 317.3 464.7 C 318.5 466.7, 320 466.2, 320 463.9 C 320 461, 321.7 462.4, 322.5 466 C 323.1 468.9, 326.5 471.8, 327.8 470.6 C 328.1 470.3, 327.8 470, 327.2 470 C 325.6 470, 325.7 466.9, 327.4 464.4 C 328.2 463.3, 329.1 460.7, 329.5 458.7 C 330.8 452.1, 331.8 454.8, 331.7 464.1 C 331.5 472.1, 331.7 473.3, 333.5 474.6 C 335 475.7, 335.6 475.8, 335.9 474.8 C 336.1 474.2, 335.8 473.4, 335.2 473.2 C 333.7 472.7, 333.6 468, 335 468 C 335.6 468, 336 465.4, 336 462.1 C 336 455.5, 338 450.7, 343.6 444.3 C 348 439.3, 349.2 440.8, 345.2 446.4 C 339.8 453.9, 338.1 459, 337.9 468.6 C 337.7 476.1, 338 477.5, 339.5 478.7 C 342.3 480.6, 342.6 480.4, 342.2 476.6 C 342 474.7, 342.6 471.1, 343.5 468.6 C 344.9 464.9, 345 463.7, 344 462.5 C 343.3 461.6, 343.2 461, 343.8 461 C 346 461, 347.1 474.1, 345.4 480.1 C 345.1 481.1, 345.9 482.1, 347.5 482.8 C 349.8 483.9, 350 483.8, 350 481.5 C 350 475.6, 353.4 468.7, 359 463.4 C 362.2 460.4, 364 460.3, 361.3 463.3 C 358.6 466.2, 357.3 468.9, 354.9 475.8 C 352.5 483, 352.5 484.7, 354.9 486 C 356.5 486.8, 357 486.5, 357.9 483.8 C 358.5 482.1, 359 480, 359 479.1 C 359 476.7, 364.8 464.8, 367.3 462.2 C 369.4 460, 374.1 457.3, 378.4 456 C 382.6 454.8, 371.1 449, 364.4 449 C 357.3 449, 357 448.8, 353.3 442.5 C 351.5 439.4, 349.6 437.4, 348.3 437.2 C 347.1 437, 344.7 435.3, 342.8 433.3 C 330.9 420.5, 328.8 419.6, 322.6 425 M 368.5 425.6 C 363 427.6, 356.7 429.7, 354.5 430.4 C 350.8 431.6, 350.7 431.8, 352.7 432.8 C 353.9 433.5, 355.2 435.5, 355.5 437.2 C 355.9 439, 356.9 441.8, 357.7 443.4 L 359.2 446.2 367.3 445.6 C 379.4 444.7, 385.4 443.9, 386.2 443.2 C 386.8 442.6, 385.8 432.7, 384.6 427.5 C 384.4 426.4, 384.1 424.7, 384.1 423.8 C 384 421.1, 380 421.6, 368.5 425.6 M 371.7 426.7 C 365.6 428.7, 363.7 429.8, 363 431.6 C 361.8 434.6, 360.6 434.8, 361.5 431.9 C 362.3 429.3, 359.3 429.5, 357.7 432.2 C 356.3 434.3, 358.6 441.6, 361.2 443.4 C 364.2 445.5, 381.5 441.2, 382.4 438.2 C 383.1 436, 381.6 426.2, 380.4 425 C 379.9 424.5, 376 425.3, 371.7 426.7 M 222.9 432.4 C 223.7 433.4, 223.8 434, 223 434.5 C 219.9 436.4, 222.9 447, 227.2 449.2 C 232.5 452, 240.9 455, 243.2 455 C 245.9 455, 244.8 453.8, 240.7 452.3 C 237.6 451.2, 237.5 451.2, 240.2 451.1 C 242.8 451, 242.8 450.9, 242.4 444.8 C 241.5 431.7, 246 449.7, 247.9 467 C 248.8 475, 251.1 484, 252.2 484 C 252.6 484, 253 485, 253.1 486.3 C 253.1 487.5, 253.4 488, 253.6 487.4 C 253.9 486.8, 253.6 484.3, 253 481.9 C 252.4 479.5, 251.2 473.5, 250.5 468.5 C 249.7 463.6, 248.3 456.1, 247.5 452 C 246.6 447.9, 245.7 443.3, 245.6 441.9 C 245.1 438.3, 242.1 434, 240.5 434.6 C 239.8 434.9, 236.2 434.2, 232.5 433.1 C 224.4 430.6, 221.2 430.3, 222.9 432.4 M 415 446.8 C 410 452, 405.7 459.7, 407.2 460.6 C 408.4 461.4, 411.2 458.8, 414.7 453.7 C 416.2 451.4, 418.7 448.2, 420.2 446.5 C 426.2 440, 421.3 440.3, 415 446.8 M 419.6 451.1 C 416.9 454, 415 457.1, 415 458.5 C 415 459.7, 414.3 461.3, 413.5 462 C 411.6 463.5, 412.4 465, 418.9 471.7 L 423.9 477 428 470.7 C 431.7 465, 431.9 464.5, 430 464.2 C 427.1 463.7, 427.5 462.3, 431.3 460 C 435.4 457.5, 436.3 457.5, 435 460 C 433.7 462.5, 434.1 462.5, 436.9 460.1 C 438.2 459, 439.7 457.9, 440.3 457.7 C 443.6 456.5, 430.3 446.2, 425.4 446 C 424.7 446, 422.2 448.3, 419.6 451.1 M 277.6 455.8 C 278.7 460.5, 281.1 463.5, 286.2 467.1 C 290.8 470.2, 291.9 470.5, 297.9 470.3 C 301.5 470.2, 305.8 469.5, 307.4 468.6 L 310.3 467.1 307.4 466.5 C 305.8 466.1, 303.4 465.5, 302 465 C 300.6 464.5, 298.2 463.9, 296.6 463.5 C 293.3 462.8, 290.6 460.4, 291.5 459 C 291.8 458.5, 291.4 458, 290.5 458 C 289.6 458, 287.5 457.3, 285.8 456.4 C 284 455.5, 281.4 454.4, 279.8 453.9 C 277.1 453.2, 277 453.3, 277.6 455.8 M 271 460.5 C 271 461.8, 276.3 466.9, 280.1 469.3 C 282.2 470.6, 282.9 472, 283.6 476.6 C 284.8 484, 287.5 485.2, 303.5 485.4 C 314.1 485.5, 314.7 485.4, 321 482.2 C 328.9 478.2, 332.1 475.5, 327.6 476.6 C 326 477, 324.9 476.9, 325.3 476.4 C 325.6 475.9, 322.4 475.6, 317.9 475.8 C 313.6 476, 310 475.8, 310 475.3 C 310.1 473.2, 311.9 471.8, 313.9 472.5 C 315.6 473, 315.9 472.8, 315.3 471.3 C 314.7 469.8, 314.9 469.7, 316.2 470.8 C 317.3 471.7, 318 471.8, 318.5 471 C 319.7 469, 312.4 469.4, 306.2 471.7 C 297.1 475.1, 284.3 471.6, 275 463 C 272.8 461, 271 459.8, 271 460.5 M 437.4 462.9 C 435.2 465, 432.6 468.5, 431.6 470.6 C 430.7 472.8, 429.5 475.3, 429 476.2 C 427.7 478.5, 427.7 483, 429 483 C 429.6 483, 430.5 481.9, 430.9 480.6 C 432.7 476.1, 438.3 467.5, 441.2 464.9 C 443.1 463.2, 443.8 461.7, 443.4 460.7 C 442.5 458.3, 441.9 458.5, 437.4 462.9 M 372.3 461 C 371 461.5, 370 462.5, 370 463.2 C 370 464.1, 370.3 464.1, 371 463 C 372.1 461.2, 372.6 461.7, 373.5 465.3 C 374.1 467.4, 373.9 468, 372.6 468 C 371.7 468, 370.8 469.2, 370.4 470.8 C 370.1 472.3, 369.5 474.4, 369 475.5 C 367.8 478.2, 365 488.5, 365 490 C 365 490.9, 365.3 491, 366.4 490.1 C 367.5 489.2, 367.9 489.4, 368.3 491 C 369.1 494.2, 370.7 493.3, 371.2 489.3 C 372 483.9, 375.8 471.8, 377.4 469.7 C 378.2 468.7, 380.7 467.5, 383.1 467.1 C 386.8 466.4, 387 466.2, 384.4 466.1 C 381.5 466, 377 462.9, 377 461 C 377 459.8, 375.3 459.8, 372.3 461 M 236.7 462.8 C 233.4 467.9, 235.6 478.1, 240.4 480.4 C 247.3 483.6, 249 482.7, 247.8 476.2 C 247.4 473.6, 246.9 470.8, 246.7 470 C 246.2 466.8, 243.9 464.2, 240.9 463.1 C 237.1 461.8, 237.2 461.8, 236.7 462.8 M 440.6 469.3 C 437.2 473.8, 433 484.1, 433 488.1 C 433 491.4, 438.2 497.3, 444.2 500.7 C 446.4 502, 448.3 504.7, 451.1 510.8 C 453.2 515.3, 455.4 519, 456 519 C 456.7 519, 456.8 518.4, 456 517.1 C 455.5 516, 455 512.1, 455 508.3 C 455 500, 457.7 495.2, 463.9 492.3 C 468.4 490.3, 468.9 489.1, 466.2 486.7 C 461.7 482.6, 453.5 486.1, 448.4 494.2 C 446.3 497.4, 445.6 497.9, 444.4 497 C 443.3 496, 443 496, 443 496.9 C 443 497.6, 442.6 497.8, 442 497.5 C 441.4 497.1, 441.4 496.2, 441.9 495.2 C 442.4 494.3, 443.3 492.2, 444 490.5 C 444.7 488.9, 445.5 488, 445.7 488.7 C 445.9 489.4, 445.7 490.7, 445.1 491.7 C 444.6 492.8, 444.5 494.2, 444.9 494.9 C 445.5 495.8, 445.9 495.4, 446.4 493.6 C 447.4 489.5, 454.3 483.2, 458.6 482.4 C 461.5 481.9, 461.9 481.5, 460.6 480.8 C 458.2 479.5, 452.2 481.5, 448.8 484.7 C 447.3 486.1, 446 486.9, 446 486.4 C 446 484.8, 452.4 479, 454.1 479 C 454.9 479, 456.5 478.3, 457.6 477.5 C 459.4 476.2, 459.3 476.1, 455.9 476 C 451.7 476, 449.1 478.1, 444.1 485.3 C 442.3 488, 440.6 489.9, 440.3 489.7 C 439.4 488.7, 443 482.5, 447.3 477.5 C 453.3 470.6, 453.3 466.6, 447.3 466.2 C 443.6 465.9, 442.9 466.3, 440.6 469.3 M 326.5 483.2 C 323.2 484.4, 319.6 485.8, 318.5 486.3 C 317.4 486.9, 310.5 487.6, 303.1 487.8 C 293.5 488.1, 290.2 488.5, 291.5 489.2 C 292.9 490.1, 293 490.4, 291.9 491.2 C 291 491.8, 291.6 491.9, 293.8 491.5 C 296.2 491, 297.9 491.4, 300.5 493 C 304.7 495.6, 305.1 497.4, 301.3 496.6 C 292 494.9, 290 494.8, 290 496.4 C 290 497.2, 290.5 498.2, 291 498.5 C 291.6 498.8, 292 500.8, 292 502.8 C 292.1 504.8, 292.8 508.3, 293.6 510.5 C 294.5 512.7, 296.6 519.6, 298.3 525.8 C 300.8 534.7, 301.8 537, 303.2 537 C 304.2 537, 305 537.5, 305 538 C 305 538.6, 304.1 539, 302.9 539 C 301.4 539, 300.9 539.5, 301.2 541.3 C 301.5 543.2, 302.1 543.5, 305.9 543.5 C 312.2 543.5, 312.3 545.6, 306.1 546.5 L 301 547.2 301.6 552.8 C 302.4 559.8, 301.6 559.2, 309.6 559.4 C 314.2 559.5, 316.5 559.9, 316.8 560.8 C 317.1 561.9, 315.8 562.1, 310.5 561.8 L 303.8 561.5 304.4 564.9 C 304.7 566.9, 306.3 569.8, 308.2 571.7 C 310.3 573.9, 310.9 575, 309.9 575 C 307.4 575, 303 569.6, 301.6 564.9 C 300.3 560.4, 297 558.4, 292.7 559.4 C 291.7 559.6, 289.9 558.9, 288.7 557.7 C 287.5 556.5, 285.4 554.8, 284 553.9 C 282.6 553, 281.8 551.9, 282.2 551.4 C 282.7 551, 283.8 551.4, 284.7 552.2 C 285.7 553.1, 288.3 554.5, 290.5 555.5 C 292.7 556.4, 295.3 557.6, 296.2 558.1 C 299.3 559.7, 300.1 559.1, 299.8 555.8 C 299.5 552.9, 298.9 552.4, 294.5 550.8 C 288.7 548.7, 289 548.8, 289 549.8 C 289 550.7, 294.8 554, 296.5 554 C 297.3 554, 298.1 554.4, 298.5 554.9 C 300.3 557.9, 289.2 553.7, 284.4 549.7 L 281.2 547 281.1 554.5 C 280.9 566.4, 284.2 570.9, 294.1 572.1 C 297.4 572.5, 300.9 573.5, 301.9 574.4 C 302.9 575.3, 305.4 576.3, 307.4 576.7 C 309.7 577, 310.7 577.7, 310.3 578.4 C 309.8 579.2, 310 579.2, 311.1 578.4 C 313 576.9, 324.1 575.8, 325.9 577 C 327 577.6, 326.3 578, 323.4 578.5 C 321.3 578.8, 318.7 579.5, 317.8 580.1 C 316.8 580.6, 313.9 581, 311.4 581 C 307.5 581, 306.9 581.2, 307.9 582.4 C 308.8 583.5, 310.7 583.8, 314.8 583.5 L 320.5 583 317.1 584.6 C 315 585.4, 312.4 585.8, 310.8 585.5 C 308.8 585, 308 585.2, 308 586.2 C 307.9 587.1, 307.6 587, 306.7 585.9 C 306 584.9, 303.4 584.1, 300.5 583.8 C 297.7 583.5, 296.4 583.5, 297.5 583.7 C 298.6 584, 300.9 585.5, 302.5 587 C 304.2 588.6, 306.9 590.4, 308.5 591.1 C 310.8 592, 311.1 592.4, 309.8 592.7 C 308.8 593, 308 593.6, 308 594.1 C 308 595.3, 308.4 595.2, 311.4 593.9 C 314.2 592.6, 321 593.5, 321 595.2 C 321 596.6, 301.9 595.3, 300.4 593.7 C 300 593.3, 301.4 593, 303.6 593 C 307.2 592.9, 307.4 592.8, 305.6 591.5 C 304.5 590.6, 303.2 590.4, 302.6 590.9 C 300.5 592.5, 295.7 593.2, 296.2 591.8 C 296.6 591, 295.9 590.4, 294.4 590.4 C 293.1 590.3, 292 590.5, 292 590.9 C 292 591.7, 297.5 596, 298.5 596 C 298.9 596, 301.7 597.2, 304.8 598.6 C 323.7 607.3, 328.8 607.1, 346.3 597.1 C 353.5 592.9, 354 592.4, 354 589.2 C 354 586.1, 353.8 585.8, 351.8 586.4 C 345.8 588, 344.9 588, 348.8 586.1 L 353 584.1 353 577.6 L 353 571.1 349.6 573.1 C 347.4 574.4, 345.2 574.9, 343.3 574.5 C 341.1 574.1, 340.9 574.2, 342.5 574.9 C 344.3 575.7, 344.4 575.8, 342.7 576.5 C 341.8 576.9, 340.3 576.7, 339.5 576 C 338.7 575.4, 337.3 575, 336.3 575.3 C 334.8 575.6, 334.9 575.9, 337 576.8 C 339.1 577.8, 338.9 577.8, 335 577.3 C 329.5 576.6, 327.3 575, 331.7 575 C 333.5 575, 335.1 574.6, 335.4 574.1 C 335.7 573.7, 337.7 573, 339.8 572.6 C 342 572.3, 345 571.3, 346.6 570.5 C 348.2 569.7, 350 569, 350.7 569 C 352.8 569, 353.4 566.6, 353.1 560 C 352.8 551.8, 351.8 549.8, 348.2 550.5 C 346.7 550.8, 346.1 550.7, 346.8 550.4 C 348.8 549.5, 348.2 546.8, 345.4 543.9 C 342.8 541.2, 342.9 539, 345.6 539 C 346.4 539, 347 539.6, 347 540.4 C 347 541.1, 347.7 542.4, 348.7 543.1 C 350.2 544.4, 350.3 544.2, 349.6 540.8 C 349 537.7, 349.2 537, 350.5 537 C 351.3 537, 352 537.7, 352 538.6 C 352 543.2, 372.2 533.4, 384.5 522.9 C 398.8 510.5, 404 505.6, 404 504.2 C 404 496.9, 382.6 496.2, 379.2 503.3 C 377.9 506.2, 371.1 514, 369.9 514 C 367.9 514, 369.2 510.5, 373 506.3 C 377.7 501, 377.9 499.4, 374.5 497.8 C 371.4 496.4, 368.5 497.7, 362.3 503.7 C 357.3 508.4, 352.4 509.8, 346.6 508.2 C 342.7 507.1, 342.2 507.5, 344.5 510 C 346.6 512.4, 345.4 515.3, 342.6 514.6 C 341.5 514.2, 335.6 513.7, 329.5 513.5 C 311.2 512.7, 305.7 512.1, 300.2 510.5 C 294.1 508.7, 293.1 506.5, 298.8 507.4 C 300.8 507.7, 310.4 508.6, 320 509.4 C 329.6 510.2, 338.3 511.2, 339.4 511.6 C 340.8 512.1, 341.1 511.9, 340.8 510.9 C 340.3 509.3, 334.9 508.2, 326.5 508 C 315.6 507.8, 300.9 505.5, 305.1 504.7 C 307.1 504.3, 311.6 504.2, 315.1 504.4 C 318.6 504.7, 325.3 505.2, 330 505.5 L 338.5 506.1 347.4 498.8 L 356.3 491.5 352.9 490.8 C 349.1 490, 342.1 490.8, 340.3 492.2 C 339 493.3, 337 492.5, 337 490.9 C 337 490.3, 337.4 490.1, 337.9 490.5 C 338.4 490.8, 339.1 490.6, 339.5 490 C 339.8 489.5, 341.2 489, 342.6 489 C 345 489, 345 488.9, 343.3 487.1 C 341 484.6, 336.5 482.9, 334.3 483.6 C 332.7 484.1, 332.8 483.9, 334.4 482.6 C 337.2 480.3, 334.3 480.5, 326.5 483.2 M 287.1 499.2 L 287 504.8 281.9 502.4 C 277.2 500.1, 275 500, 275 502 C 275 502.5, 275.7 502.7, 276.7 502.3 C 277.8 501.8, 278.1 502, 277.5 502.9 C 277 503.9, 277.3 504, 278.9 503.5 C 280.6 503, 280.9 503.2, 280.3 504.6 C 279.8 505.9, 280 506.2, 281.3 505.7 C 282.4 505.3, 282.7 505.5, 282.3 506.6 C 282 507.3, 281.4 508, 280.9 508 C 280.4 508, 280 508.5, 280 509 C 280 509.6, 280.7 510, 281.6 510 C 282.5 510, 283 510.6, 282.7 511.3 C 282.4 512.2, 283.8 513.4, 286.6 514.6 C 291.8 516.8, 292.3 518.3, 287.8 517.5 C 283.5 516.8, 281.1 518.2, 283.1 520.2 C 283.9 521, 285.1 521.5, 285.8 521.2 C 286.5 521, 286.8 521.4, 286.4 522.4 C 286.1 523.3, 285.4 524, 284.9 524 C 284.4 524, 284 524.5, 284 525.2 C 284 526.1, 284.3 526.1, 285.2 525.2 C 285.9 524.5, 286.9 524, 287.4 524 C 288 524, 287.9 524.5, 287.2 525.2 C 285.6 526.8, 285.7 528, 287.5 528 C 289.3 528, 289.5 529.7, 287.8 530.3 C 287.1 530.5, 287.4 530.6, 288.5 530.4 C 290.8 530, 293.8 531.6, 292.7 532.6 C 291.9 533.4, 294.9 535.9, 296.7 536 C 298 536, 296.5 528.6, 292.6 517 C 290.4 510.2, 288.6 502.8, 287.6 496 C 287.4 494.6, 287.2 496, 287.1 499.2 M 463.5 496.2 C 455.7 500.4, 456.1 511.4, 464.2 515.6 C 468.4 517.8, 468.5 516.9, 464.5 513 C 460.9 509.5, 459.9 507.4, 462.5 508.3 C 463.6 508.8, 463.7 508.4, 462.9 506.3 C 462.2 504.5, 462.3 503.3, 463 502.6 C 464.5 501.1, 464.2 500, 462.3 500 C 460.8 500, 460.7 499.8, 462 499 C 463 498.4, 463.6 498.4, 463.8 499.1 C 464.1 499.7, 464.7 499.6, 465.6 498.9 C 466.4 498.2, 467.4 498, 467.8 498.4 C 468.2 498.8, 467.4 499.9, 466.1 500.9 C 462.6 503.6, 463.9 506, 469 506 C 472.8 506, 474.8 503.8, 471.9 502.8 C 471.2 502.6, 472.6 501.8, 475 501.1 C 477.3 500.4, 479.4 500.1, 479.7 500.4 C 480.7 501.4, 477.8 504, 475.8 504 C 474.8 504, 474.2 504.5, 474.5 505 C 475.5 506.7, 479.7 506.1, 480.3 504.3 C 480.5 503.3, 481.1 501.7, 481.5 500.8 C 482.1 499.4, 481.7 499, 480 499 C 477.2 499, 469.8 497, 468.6 495.8 C 467.3 494.7, 465.9 494.8, 463.5 496.2 M 238.4 506.5 C 237.3 507.2, 233.6 508.5, 230 509.4 C 221.8 511.5, 217.7 513.6, 208.2 520.8 C 204 523.9, 198.3 528, 195.5 529.7 C 189.3 533.8, 189.9 533.8, 198.8 530 C 202.7 528.4, 206.5 527, 207.3 527 C 208.1 527, 210.5 526.2, 212.6 525.3 C 214.8 524.4, 217.4 523.5, 218.5 523.4 C 219.6 523.4, 224.3 522.3, 229 521.2 C 233.7 520, 241.1 518.6, 245.5 518 C 261.5 516, 268.8 514.3, 265.5 513.6 C 260.9 512.5, 249.8 509, 246.5 507.5 C 241.3 505.3, 240.3 505.1, 238.4 506.5 M 365.8 520.6 C 364.5 523.4, 365.7 525, 369.2 525 C 370.1 525, 371.2 525.5, 371.5 526 C 371.9 526.6, 370.8 527, 369.1 527 L 366 527 368 529 C 370.5 531.5, 371.2 531.5, 373.6 528.9 C 374.6 527.7, 377.1 525.9, 379 524.9 C 387.9 520.1, 388.3 517.3, 379.5 521.5 C 372.1 525, 367.4 524.7, 367.8 520.8 C 368.1 517.3, 367.3 517.2, 365.8 520.6 M 686.2 528 C 676.9 528.6, 676 529.5, 681.9 532.7 C 691.4 537.7, 705.3 540, 711.1 537.6 C 714.3 536.2, 714.3 536.2, 707.4 535.7 C 687.5 534.1, 677.4 530.1, 693.3 530 C 699.2 530, 704 529.6, 704 529.1 C 704 527.9, 696.3 527.4, 686.2 528 M 118.3 531.5 C 110.8 532.8, 101.7 535.5, 98.8 537.1 C 97.8 537.6, 96.4 538, 95.7 538 C 92.3 538, 79.5 545.8, 77.8 548.9 C 73.5 556.5, 81.3 558.6, 100 554.9 C 103.3 554.3, 106.3 553.3, 106.6 552.9 C 106.9 552.4, 108.6 552, 110.3 551.9 C 113.4 551.8, 113.4 551.8, 111 551 C 107.5 549.9, 105.8 549.8, 106.4 550.9 C 107.2 552.2, 100.7 553, 99.3 551.8 C 98.6 551.2, 97.3 551.1, 96.4 551.4 C 95 551.9, 94.9 551.8, 95.9 550.6 C 96.6 549.8, 98.6 548.8, 100.3 548.4 C 102 548.1, 104.1 547.4, 105 546.9 C 108.4 545.1, 113.7 543.1, 117 542.4 C 118.9 542.1, 120.7 541.5, 121 541.1 C 121.3 540.8, 123.5 539.5, 126 538.3 C 130.2 536.2, 130.6 536.1, 131.8 537.8 C 132.9 539.2, 132.9 539.6, 131.6 539.8 C 129.8 540.2, 129.4 542, 131 542 C 131.6 542, 132.9 541.5, 133.9 540.8 C 135.3 539.9, 136.2 540, 138.1 541.3 C 139.4 542.3, 141.3 543, 142.4 543 C 144.4 543, 144.4 543, 142.4 541.5 C 140.7 540.2, 140.7 540.1, 142.3 540 C 143.3 540, 144 539.2, 144 538.1 C 144 535.6, 128.1 533.9, 125.5 536 C 124.7 536.7, 124 536.9, 124 536.5 C 124 536.1, 122.1 537.2, 119.8 538.9 C 115.6 542, 112.3 541.8, 114.9 538.6 C 115.5 537.9, 115.9 536.6, 115.8 535.9 C 115.3 533.8, 122.8 532.8, 133.8 533.4 C 145.5 534.2, 147.9 532.6, 136.8 531.6 C 132.8 531.2, 128.6 530.7, 127.5 530.5 C 126.4 530.3, 122.3 530.7, 118.3 531.5 M 340 530.7 C 333.6 531.6, 326.3 533.4, 324.3 534.6 C 323.1 535.4, 321.2 536, 320.1 536 C 319 536, 317.8 536.5, 317.5 537.1 C 315.8 539.7, 318.4 539.4, 334 535.1 C 339.3 533.6, 344.1 533, 350.5 533.1 C 363.6 533.2, 365.5 533.1, 364.5 532.1 C 363.4 531.2, 344.3 530, 340 530.7 M 106 537.3 C 98.7 541.2, 98.7 541.2, 100.1 542.1 C 101 542.8, 100.5 542.9, 98.5 542.5 C 96.9 542.2, 96.1 542.3, 96.8 542.6 C 99.2 543.7, 98 545.2, 95.3 544.6 C 93.6 544.2, 93 544.3, 93.8 544.8 C 94.7 545.4, 93.1 546.5, 88.6 548.4 C 85 549.9, 81.6 551.8, 80.9 552.6 C 79.2 554.7, 80.4 554.4, 88.3 550.7 C 92.3 548.8, 97.4 546.5, 99.8 545.5 C 102.1 544.5, 104 543.3, 104 542.8 C 104 542.4, 104.3 542.1, 104.8 542.3 C 105.2 542.4, 107.5 541, 110 539.3 L 114.4 536 111.4 536 C 109.8 536, 107.4 536.6, 106 537.3 M 653.6 537.8 C 653.3 538.3, 654.5 539.1, 656.3 539.5 C 666.5 541.8, 674.6 543.2, 683 544.1 C 688.2 544.7, 694 545.8, 695.8 546.6 C 699.8 548.3, 700.1 548.3, 699.4 546.6 C 698.7 544.9, 696.2 544.2, 683.5 542.5 C 678 541.8, 670.6 540.5, 667 539.7 C 663.4 538.9, 659.1 537.9, 657.4 537.5 C 655.6 537.1, 654 537.2, 653.6 537.8 M 616.8 548 C 610.9 551.7, 619.4 558, 630.3 558 C 635.6 558, 634 556.2, 628 555.4 C 625.3 555, 623.3 554.4, 623.5 553.9 C 623.8 553.5, 622.8 553, 621.3 552.8 C 616.3 552.2, 617.8 549.5, 623 549.6 C 628.2 549.8, 638 553.8, 638 555.7 C 638 557.1, 640.6 557.5, 641.4 556.1 C 644 552, 622.1 544.7, 616.8 548 M 571.1 558.1 C 567.5 560.6, 563.8 564, 562.7 565.9 C 556.8 576.7, 577.2 588.7, 594.8 584.9 C 605.7 582.6, 607.3 580.2, 596.7 582 C 582.1 584.6, 566.3 579.1, 564.5 570.8 C 562.9 563.7, 574.1 557, 587.5 557 C 600 557, 621.1 564.6, 622.8 569.8 C 623.4 571.7, 614.6 575, 604.9 576.4 C 590.3 578.6, 577.8 576, 570.8 569.5 C 569.2 568, 567.9 567.4, 567.5 568.1 C 566 570.5, 573.7 575.9, 582 578.4 C 595.5 582.4, 621.6 578.4, 625.1 571.9 C 628.7 565, 608.5 555.3, 588.5 554.3 L 577.5 553.8 571.1 558.1 M 114 561.8 C 114 566.3, 107.2 571.2, 99.5 572.5 C 84.4 574.8, 78.2 577.8, 72.7 585.2 C 70.8 587.7, 70.8 588, 72.4 590.4 C 75.4 595.1, 84.3 593, 105.2 582.4 C 113.2 578.4, 122 571.2, 122 568.7 C 122 567.7, 121.1 568.3, 112.3 575.3 C 105.4 580.8, 100 583.7, 95.1 584.6 C 93.1 585, 91.1 585.6, 90.5 586 C 87.4 588.3, 75 589.2, 75 587.1 C 75 584.5, 86.6 577, 90.6 577 C 98.2 577, 107.3 573.7, 111.4 569.5 C 118.6 562.2, 119.6 560, 116 560 C 114.8 560, 114 560.7, 114 561.8 M 539.3 561.1 C 536.3 562.2, 536.4 564.4, 539.5 566.4 C 544.7 569.8, 555.7 566.6, 551.9 562.8 C 550.1 560.9, 542.3 559.9, 539.3 561.1 M 129.5 568 C 128 572.9, 108.5 585.1, 98.5 587.4 C 94 588.5, 85 593, 85 594.2 C 85 594.8, 85.8 594.9, 86.8 594.5 C 87.7 594.1, 91 592.9, 94 591.8 C 112.3 585.3, 121.6 580.4, 127.8 574.3 C 130.7 571.4, 133.5 569, 134 569 C 134.4 569, 135 568.3, 135.4 567.5 C 135.8 566.4, 135.2 566, 133 566 C 131 566, 129.9 566.6, 129.5 568 M 360.5 570.4 C 356.4 573.5, 357 583, 361.2 583 C 363.4 583, 363.6 580.2, 361.5 579.4 C 360.7 579, 360 578, 360 577 C 360 574.5, 362.7 569.7, 363.4 570.9 C 363.8 571.4, 363.6 572.1, 363 572.5 C 360.9 573.8, 362 576, 364.8 576 C 368.5 576, 371.3 573.9, 370.9 571.5 C 370.4 569.3, 362.9 568.6, 360.5 570.4 M 713.2 572.2 C 709.9 573.1, 707.9 575, 710.4 575 C 711.2 575, 712 574.6, 712.2 574.1 C 712.4 573.6, 714.3 572.9, 716.5 572.6 C 718.7 572.3, 719.8 572.3, 719 572.6 C 710.7 575.8, 707 578.3, 707 581.1 C 707 584.7, 711.4 588.1, 719.5 590.6 C 726.5 592.8, 748 593.3, 748.7 591.4 C 749 590.6, 745.6 590.3, 737.3 590.3 C 724.8 590.3, 717.4 588.7, 711.7 584.7 C 704.6 579.8, 713.2 574.8, 729 574.6 C 740 574.5, 743.8 575.8, 750.8 582.4 C 755.8 587.1, 757 587.7, 757 585.7 C 757 583, 744.6 573.7, 739.3 572.6 C 734.5 571.5, 716.9 571.3, 713.2 572.2 M 148.8 577.2 C 146.1 578.1, 146 578.5, 146 585 C 146 592.7, 146.7 593.4, 151.8 591.3 C 155.4 589.8, 155.6 588.7, 153.5 579.3 C 152.7 575.7, 152.7 575.7, 148.8 577.2 M 40.5 584 C 37.2 585.7, 34.1 587, 33.7 587 C 32.8 587, 28.6 588.7, 21.4 592.1 C 17.6 593.9, 13.8 597, 15.4 597 C 16.2 597, 34.4 589.3, 36.9 587.9 C 37.8 587.5, 40.6 586.2, 43.2 585 C 47.9 583, 50.3 581, 47.8 581.1 C 47.1 581.1, 43.8 582.4, 40.5 584 M 224.5 593.7 C 210.2 596.9, 207.9 605.1, 220.2 609 C 232 612.7, 252.8 598.9, 242.5 594.2 C 240 593, 228.7 592.7, 224.5 593.7 M 413.3 595.8 C 411.6 597.2, 407.4 599.1, 404.1 600.1 C 398.2 601.7, 398 601.6, 398 599.9 C 398 598.8, 398.6 598, 399.4 598 C 400.2 598, 401.2 597.6, 401.5 597 C 401.9 596.4, 399.8 596, 396.1 596 C 390 596, 390 596, 390 598.9 C 390 602.9, 391.7 607, 393.2 606.9 C 394.2 606.9, 394.2 606.7, 393.3 606.3 C 390.1 605.1, 392.6 604.1, 398.2 604.4 C 403.8 604.7, 404.6 604.5, 407.3 601.9 C 410.4 598.9, 414.3 597.7, 412.1 600.4 C 411.2 601.5, 411.3 601.9, 412.6 602.4 C 415.3 603.4, 415.7 603.1, 416.8 598.8 C 418.2 593.3, 417.3 592.6, 413.3 595.8 M 468 594 C 445.8 598.1, 437.7 605, 447.5 611.4 C 448.9 612.3, 450.5 612.8, 451 612.5 C 451.6 612.2, 452 612.4, 452 612.9 C 452 613.5, 453.1 614, 454.5 614 C 456 614, 457 613.4, 457 612.5 C 457 610.2, 463.1 609, 465.7 610.9 C 467.8 612.5, 467.7 612.5, 463.8 613.3 C 456.5 614.8, 461 616.4, 472.8 616.4 C 478.7 616.4, 481.7 616.6, 479.5 616.9 C 473.9 617.7, 476.4 618.7, 482.7 618.2 C 486 618, 487.8 617.4, 487.4 616.8 C 486.9 616.1, 488.9 616, 493.5 616.5 C 498.4 617, 500.5 616.9, 501 616 C 501.6 615.1, 502.3 615.1, 503.8 615.9 C 506.6 617.4, 508.3 617.3, 507.7 615.6 C 507.3 614.6, 507.8 614.4, 509.3 614.8 L 511.5 615.3 509.4 613.4 C 507.4 611.6, 507.4 611.4, 509.2 609.6 C 513 605.6, 511.1 603.8, 501 602 C 497.4 601.4, 493.9 600.3, 493.1 599.7 C 490.4 597.4, 463.6 598.2, 455.3 600.8 C 451.3 602, 447.8 603.5, 447.5 604 C 447.2 604.6, 446.4 605, 445.9 605 C 443.9 605, 446.3 602.9, 450.3 601.1 C 465.3 594.4, 502.6 593.8, 514.2 600 C 515.1 600.5, 516.1 600.6, 516.4 600.1 C 517.3 598.8, 513.9 596.3, 509.5 595 C 504.6 593.6, 474.2 592.8, 468 594 M 661 593.7 C 644.9 596.8, 637.4 602.5, 639.4 610.3 C 641.6 619.4, 655.4 625.4, 679.1 627.7 C 689.6 628.7, 706.9 622.8, 710.3 617.1 C 712 614.2, 712.1 614.1, 716.3 615.5 C 721.8 617.2, 728.2 618.1, 727.5 617 C 726.9 615.9, 714.8 612, 712.1 612 C 711 612, 709.3 610.6, 708 608.5 C 705.2 604, 699.6 599.6, 692.3 596.3 C 686.5 593.6, 668.8 592.2, 661 593.7 M 226.5 595.6 C 224.9 595.9, 222.1 596.8, 220.3 597.6 C 218.6 598.3, 216.7 599, 216.1 599 C 215.5 599, 214.5 600, 213.9 601.2 C 212.5 603.9, 214.4 605.5, 220 606.5 C 226.9 607.7, 242.3 603.3, 241.2 600.6 C 241 600.1, 241.4 599.4, 242.2 598.9 C 245.8 596.7, 234.8 594.4, 226.5 595.6 M 349.5 598 C 340.4 604, 323.6 608.7, 317 607 C 309.8 605.2, 305.5 603.8, 304.6 602.9 C 302.9 601.3, 301.1 601.9, 301.3 604 C 301.4 605.3, 301.9 605.9, 302.8 605.5 C 303.5 605.2, 305.1 605.7, 306.3 606.6 L 308.5 608.2 306 607.5 L 303.5 606.9 306.1 609.2 C 307.5 610.5, 309.6 612, 310.6 612.7 C 312.3 613.7, 312.1 613.9, 309 613.9 C 306.4 613.9, 304.7 613.2, 302.6 611 C 300.7 609.1, 299.3 608.3, 298.7 608.9 C 297.3 610.3, 298.7 613.1, 300.4 612.4 C 301.2 612.1, 302.1 612.3, 302.5 612.9 C 302.9 613.6, 302 614, 300.1 614 C 296.2 614, 296.8 615.9, 301.5 618.4 C 305.6 620.6, 311.7 626.8, 308.5 625.5 C 307.4 625.1, 305.2 624.5, 303.5 624.2 C 301.2 623.8, 300.9 623.6, 302.3 623.1 C 303.7 622.6, 303.4 622.1, 300.5 620.6 C 296.7 618.5, 294.9 619, 297 621.5 C 297.8 622.5, 297.9 623, 297.1 623 C 295.5 623, 295.8 626, 297.5 626.6 C 300 627.6, 299.2 629.1, 296.5 628.4 C 292.9 627.5, 293.4 629.3, 297.6 632.8 C 304.9 638.8, 318 644, 326.3 644 C 333.8 644, 342.9 635.8, 346.3 625.9 C 347.6 622.4, 348.8 619.1, 349.2 618.5 C 349.5 618, 350.1 616, 350.5 614.1 C 351.1 611.1, 351 610.8, 349.4 611.3 C 334.5 615.9, 332 616.5, 332 615.1 C 332 614.5, 332.9 614, 333.9 614 C 335 614, 336.1 613.6, 336.4 613.1 C 336.7 612.6, 338.6 611.9, 340.6 611.5 C 342.6 611.2, 345.2 610.4, 346.4 609.8 C 347.5 609.2, 349.2 608.4, 350 608 C 351.4 607.3, 354.3 598.6, 353.8 596.4 C 353.6 595.9, 351.7 596.6, 349.5 598 M 665.3 595.7 C 662.6 596, 661.3 596.5, 661.6 597.3 C 661.8 598, 660.3 599.4, 658.3 600.5 C 648.8 605.5, 647.6 609.3, 654 613.9 C 665.8 622.4, 690.4 623, 701.7 615.1 C 707.1 611.3, 702.7 604.7, 691 599 C 684.3 595.7, 675.5 594.6, 665.3 595.7 M 25.1 598.6 C 20.8 600.6, 19.9 601.4, 21.1 602.1 C 22.1 602.9, 21.9 603, 20.3 602.5 C 17.5 601.7, 14.4 603.3, 13.7 606 C 13.1 608.5, 15.5 608, 24.1 603.9 C 27.4 602.3, 30.5 601, 31 601 C 31.6 601, 32 600.6, 32 600.1 C 32 599.6, 32.9 599, 34 598.7 C 35.1 598.4, 36 597.7, 36 597.1 C 36 595.2, 30.7 596, 25.1 598.6 M 652.1 598.9 C 633.7 605.3, 644.2 620.4, 670 624.5 C 675.5 625.4, 674.7 624.2, 668.9 622.9 C 658.9 620.6, 647 612.6, 647 608.1 C 647 605.6, 651.4 601.3, 655.8 599.8 C 657.5 599.1, 659 598.2, 659 597.8 C 659 596.7, 658.2 596.8, 652.1 598.9 M 437.6 603.6 C 437.3 604.5, 437 606.7, 437 608.5 C 437 610.4, 436.6 612.2, 436 612.5 C 434.5 613.5, 434.8 615, 436.6 615 C 437.5 615, 438.4 614.1, 438.7 612.9 C 439 611.8, 439.6 611.2, 439.9 611.7 C 444 617.2, 457 621.7, 472.1 622.7 C 483.8 623.4, 485.6 621.6, 474.2 620.5 C 451.2 618.2, 437.1 611.9, 439.7 605 C 440.6 602.6, 440.6 602, 439.5 602 C 438.8 602, 437.9 602.7, 437.6 603.6 M 590.9 621.2 C 589.6 622.3, 590.8 622.5, 598.1 622.5 C 605.9 622.5, 607.2 622.8, 609.2 624.7 C 613.6 629.2, 610.4 629.7, 592.3 627.4 C 586.3 626.7, 585.3 627.9, 590.1 630.3 C 592 631.2, 592.8 632, 592.1 632.4 C 591.5 632.8, 591.2 633.6, 591.5 634.1 C 592.3 635.2, 596 635.3, 596 634.1 C 596 633.7, 598.7 633, 602 632.7 C 612.3 631.8, 615.6 627.8, 610.4 622.9 C 607.4 620.1, 593.8 618.9, 590.9 621.2 M 77.4 627.5 C 74.2 629.9, 70.5 632, 69.2 632 C 66.1 632, 55.3 636.5, 50.7 639.7 C 46.6 642.5, 37.8 653.4, 38.7 654.4 C 40.4 656.1, 50 654.8, 55.5 652.2 C 62.7 648.7, 61.3 647.2, 53.4 649.9 C 43.5 653.2, 42.4 651, 50.3 643.5 C 55.7 638.4, 63.2 635.2, 73.3 633.5 C 75.4 633.2, 76.8 632.5, 76.5 632 C 76.2 631.5, 77.3 630.3, 79 629.4 C 80.6 628.4, 82 627.2, 82 626.9 C 82 626.5, 82.9 625.8, 84 625.5 C 85.1 625.2, 86 624.4, 86 623.9 C 86 622, 83.1 623.2, 77.4 627.5 M 141.5 634.9 C 126.9 637.1, 122 639.9, 122 645.9 C 122 650, 125.9 652.2, 132.5 651.7 C 147 650.7, 160 644.3, 160 638.4 C 160 637.1, 154.3 632.9, 153 633.1 C 152.7 633.2, 147.6 634, 141.5 634.9 M 138.6 638.1 C 128.2 640, 125 641.8, 125 645.5 C 125 649.3, 131.2 650.1, 142.7 647.6 C 151.4 645.7, 155.5 643.1, 155.5 639.4 C 155.5 635.7, 152.6 635.4, 138.6 638.1 M 395.3 637.5 C 380.6 640.2, 375.8 646.9, 384.2 653 C 387.3 655.2, 387.8 656, 386.3 656 C 385.2 656, 382.5 654.4, 380.2 652.4 C 376.1 649, 374 648.7, 374 651.6 C 374 652.4, 374.8 653, 375.8 653 C 376.8 653, 378.7 654.1, 379.9 655.4 C 381.7 657.3, 383.6 658, 389.3 658.5 C 393.3 658.9, 397 659.6, 397.6 660.1 C 398.3 660.7, 399.2 660.5, 399.9 659.6 C 401.3 658, 397.3 656.6, 394.4 657.7 C 393.2 658.2, 392.9 658, 393.5 657.1 C 394.1 656.1, 395.8 656, 400.4 656.5 C 408.3 657.5, 410.6 657.3, 414.3 655.5 C 416 654.7, 418.5 654, 420 654 C 423.4 654, 427.6 650.8, 426.6 649.1 C 426.1 648.4, 425.4 648.2, 424.7 648.8 C 420.9 651.7, 413.2 655.1, 409.2 655.6 L 404.5 656.1 410 654.1 C 418.2 651, 420 649.9, 421.6 646.7 C 426.2 637.9, 415 633.9, 395.3 637.5 M 398 640.2 C 390.5 641.3, 383 644.3, 383 646.3 C 383 651, 391.4 654.8, 399.5 653.7 C 412.4 651.9, 420 648.1, 420 643.5 C 420 639.3, 412.2 638.1, 398 640.2 M 333 647.6 C 327 650.8, 311.5 651, 302 648 C 294.5 645.6, 293.4 645.5, 295 647.5 C 295.6 648.3, 295.9 649.4, 295.5 650 C 295.1 650.6, 295.2 650.9, 295.7 650.8 C 296.2 650.6, 297.9 651.7, 299.5 653.2 C 301.1 654.7, 303.8 656.2, 305.4 656.6 C 307.1 657, 309.1 657.6, 310 658 C 311.6 658.9, 318.5 661.5, 321.3 662.4 C 322.2 662.7, 323 663.4, 323 664 C 323 664.6, 322.2 664.9, 321.2 664.6 C 320.3 664.3, 316.7 663.8, 313.4 663.6 C 310.1 663.3, 304.9 662.2, 301.9 661.1 C 295.9 658.8, 294.6 658.6, 295.4 659.9 C 296.4 661.4, 294.9 664, 293.1 664.1 C 292.2 664.1, 292 664.4, 292.6 664.6 C 293.8 665.1, 293.2 670.7, 291.9 671.6 C 291.4 671.9, 291 672.5, 291 673 C 291 674.2, 298.3 678, 300.5 678 C 302.8 678, 302.3 679.8, 299.8 680.3 C 298 680.6, 298.1 680.8, 300.5 680.9 C 303.3 681.1, 309.1 682.9, 316.5 685.9 C 321.3 687.9, 332.6 685.4, 337.3 681.2 C 339.6 679.1, 339.5 671.7, 337 666.5 C 335.9 664.3, 335.1 661.9, 335 661.3 C 335 660.6, 334.5 660, 334 660 C 333 660, 332.3 660.3, 326.9 663.1 C 323.3 664.9, 323.3 662.9, 327 660.1 C 332.6 655.8, 336.7 651.3, 337.8 648.1 C 339.1 644.5, 338.9 644.5, 333 647.6 M 586.5 651 C 584.3 651.4, 580.5 652.6, 578 653.5 C 575.5 654.4, 572.8 655.4, 571.9 655.6 C 569.5 656.4, 563.8 665.8, 563.3 670.1 C 562.9 672.8, 563.3 674.8, 564.5 676.7 C 565.8 678.6, 566 679.5, 565.1 679.8 C 562.6 680.6, 558 685.3, 558 687 C 558 689.2, 560.5 691.4, 562.4 690.7 C 563.2 690.4, 564.6 691.1, 565.7 692.2 C 567.5 694.3, 567.5 694.3, 565.3 693.1 C 562.7 691.8, 561 691.7, 561 692.8 C 561 693.3, 562.9 694.3, 565.3 695 C 567.6 695.7, 569.9 696.7, 570.5 697.2 C 571 697.6, 572 698, 572.7 698 C 573.4 698, 576.3 699.1, 579.1 700.5 C 581.9 701.8, 586.2 703.2, 588.6 703.6 C 591 703.9, 593 704.6, 593 705.1 C 593 706.1, 588.6 705.4, 582 703.5 C 576.7 701.9, 566 700.8, 566 701.9 C 566 705.4, 596 709.4, 596 705.9 C 596.1 705, 596.4 705.1, 597.1 706.3 C 598.1 708, 601 708.7, 601 707.3 C 601 706.8, 602.1 706.4, 603.4 706.4 C 605.1 706.3, 605.7 706.6, 605.3 707.6 C 605 708.4, 605.4 709, 606.4 709 C 607.3 709, 608 708.6, 608 708 C 608 707.5, 608.7 707, 609.6 707 C 611 707, 611 707.3, 610 708.5 C 608.4 710.4, 609.4 710.4, 612.4 708.5 C 614.5 707.1, 615 707.1, 617.6 708.5 C 621 710.2, 626.5 710.6, 625.5 708.9 C 625.1 708.3, 623.7 708.1, 622.4 708.4 C 621 708.8, 620 708.6, 620 708 C 620 707.5, 620.7 707, 621.5 707 C 622.3 707, 623 706.6, 623 706.1 C 623 705.6, 623.8 705.4, 624.8 705.6 C 627.2 706.3, 634 703.3, 634 701.6 C 634 700, 636.3 699.2, 645 697.9 C 654.7 696.5, 655.3 696.3, 658.1 695.2 C 660.7 694.2, 666 688.6, 666 687 C 666 686.5, 665.3 686.3, 664.5 686.6 C 663.7 687, 663 687.6, 663 688.1 C 663 688.6, 662.3 689, 661.4 689 C 660 689, 660 689.3, 661.1 690.8 C 662.2 692.2, 662.2 692.3, 661 691.3 C 660.2 690.6, 657.3 689.9, 654.6 689.9 C 650.2 689.8, 649.9 689.7, 652.5 689 C 654.2 688.6, 654.8 688.2, 653.8 688.1 C 651.3 687.9, 644 683.8, 644 682.5 C 644 681.9, 646.3 679.8, 649.2 678 C 654.5 674.5, 654.5 672.7, 649.1 675.4 C 644.8 677.6, 644 677.4, 644 674 C 644 672, 644.5 671, 645.5 671 C 646.3 671, 647 670.5, 647 669.9 C 647 669.4, 646.6 669.1, 646.1 669.5 C 645.6 669.8, 644.9 669.6, 644.6 669.1 C 642.9 666.4, 658.5 661.8, 662.4 664 C 663.5 664.6, 666.2 667.8, 668.4 671.1 C 672 676.6, 674 678.4, 674 676 C 674 675.5, 673.2 674.1, 672.3 673.1 C 669.1 669.6, 668.3 668.4, 667.6 666.3 C 666 661.2, 662.5 659.6, 655.8 660.8 C 652.3 661.4, 648.5 661.7, 647.4 661.4 C 645.1 660.8, 641 664.2, 641 666.7 C 641 667.7, 640.6 667.6, 639.3 666.4 C 637.7 665, 632.2 661.6, 622.4 656 C 614.7 651.6, 595.9 648.9, 586.5 651 M 741 650.7 C 738.5 651.6, 736 654.2, 736 655.8 C 736 657, 736.6 656.8, 738.4 655.1 C 740.6 653, 741.6 652.8, 747.7 653.2 C 756.3 653.8, 761.4 655.6, 758.7 657.2 C 756.6 658.3, 749.8 657.4, 748.9 655.8 C 748.5 655.2, 747.5 655, 746.5 655.3 C 744.1 656.3, 745.4 657.6, 750.6 659.4 C 758.2 662, 765 658, 760.2 653.7 C 757.2 650.9, 745.4 649.1, 741 650.7 M 591.4 654.5 C 591.8 655.7, 590.8 656, 585.4 656 C 576.3 656, 571.6 658.9, 567.6 666.7 C 564.3 673.3, 565.7 675.4, 571.2 672 C 574.9 669.8, 576 669.5, 576 671 C 576 671.5, 574.3 672.8, 572.2 673.9 C 568.5 675.8, 568.4 676.1, 568.9 679.7 C 570.1 687.2, 577.4 695, 583.5 695 C 585.2 695, 589.2 695.7, 592.3 696.5 C 595.5 697.3, 599.6 698, 601.5 698 C 603.4 698, 606.7 698.7, 608.9 699.6 C 612.5 701, 615.8 701.4, 621.7 701.1 C 622.9 701.1, 626.4 698.7, 629.4 695.9 C 632.5 693.1, 635 691.3, 635 692 C 635 692.7, 635.5 692.6, 636.5 691.6 C 637.3 690.8, 638 689.8, 638 689.4 C 638 689.1, 637.3 689.3, 636.5 690 C 633.8 692.2, 634.8 689.1, 637.6 686.5 C 639.5 684.7, 639.8 684.1, 638.6 683.8 C 637.5 683.6, 637.3 683.1, 638 682 C 638.8 680.8, 639.2 680.7, 639.9 681.8 C 641.1 683.7, 641.9 680.4, 641.2 676.2 C 640.4 670.2, 621.9 658, 608.5 654.5 C 600.5 652.5, 590.6 652.4, 591.4 654.5 M 493 658.8 C 489.1 660.1, 479.5 666, 481.3 666 C 482.2 666, 487.4 663.7, 488 663 C 491.3 659.2, 513.2 657.5, 520.3 660.5 C 523.2 661.7, 523.8 661.7, 523.4 660.7 C 522 657, 502.1 655.7, 493 658.8 M 716.6 659.3 C 706.4 665.1, 711.2 671.5, 725.7 671.5 C 732.6 671.5, 733.1 671.3, 736.2 668.2 L 739.5 664.9 736.5 662.4 C 734.9 661.1, 732.4 659.7, 731 659.4 C 729.6 659.1, 727.7 658.5, 726.8 657.9 C 724 656.4, 720.8 656.9, 716.6 659.3 M 718.2 661 C 714.2 663.5, 714.1 667, 718 668.1 C 723.4 669.6, 730.7 669.1, 733.1 667 L 735.5 665 733.1 663 C 731.8 661.9, 729.9 661, 728.9 661 C 727.9 661, 727 660.6, 727 660 C 727 658.3, 721.7 658.9, 718.2 661 M 498.5 668.7 C 492.5 670, 473.1 678.9, 473.1 680.4 C 473 680.8, 473.9 681, 475 680.7 C 476.4 680.3, 477.5 680.8, 478.3 682.1 C 478.9 683.1, 480 684, 480.7 684 C 481.4 684, 482 684.5, 482 685 C 482 685.6, 483 686, 484.3 686 C 486.2 685.9, 486 685.6, 483 684 L 479.5 682 486 682.6 C 492.6 683.2, 498 682, 498 679.9 C 498 679.3, 497.3 679, 496.5 679.4 C 495.7 679.7, 492.7 680.2, 489.8 680.6 L 484.5 681.2 488.5 679 C 490.7 677.7, 492.7 676.4, 493 676 C 493.3 675.6, 494.6 675, 496 674.9 C 497.7 674.6, 498.4 674, 498.2 672.8 C 498 671.8, 498.5 671, 499.3 671 C 500.1 671, 501 670.3, 501.4 669.5 C 501.7 668.7, 501.6 668.1, 501.2 668.1 C 500.8 668.2, 499.6 668.4, 498.5 668.7 M 177.2 671 C 170.7 673.4, 156.4 680.4, 154.5 682.3 C 152.1 684.7, 149 690.4, 149 692.4 C 149 695.6, 152 696.9, 159 696.9 C 167.7 696.7, 173.8 695.3, 166.5 695.1 C 163.8 695, 159.8 694.6, 157.8 694.1 C 155.6 693.6, 154 693.6, 154 694.1 C 154 694.6, 153.6 695, 153 695 C 151.1 695, 152 690.8, 154.8 687 C 157.3 683.5, 164 679, 166.9 679 C 167.5 679, 169.8 677.9, 171.9 676.6 C 180.6 671.1, 193.4 670, 201.3 674.2 C 206.8 677.1, 200 684.3, 189.8 686.5 C 188 686.9, 185.6 687.9, 184.5 688.7 C 182.7 689.9, 182.8 690, 186 689.4 C 200.3 686.7, 207.9 680.5, 205.6 673.2 C 204.2 668.9, 187 667.6, 177.2 671 M 539.3 677.1 C 544.2 680.8, 541.4 684.3, 534.3 683.3 C 531.2 682.8, 529.6 681, 532.2 681 C 532.8 681, 533.1 680.8, 532.8 680.5 C 532.5 680.2, 530 681.2, 527.2 682.9 C 522.1 685.9, 507.3 689, 498.1 689 C 495.5 689, 494.1 689.4, 494.5 690 C 495.8 692.1, 520.6 690, 522.5 687.6 C 523.1 686.9, 525.1 686, 527 685.7 C 528.9 685.3, 531.8 684.7, 533.4 684.4 C 535.4 683.9, 536.1 684, 535.6 684.9 C 535.2 685.5, 533.9 686, 532.7 686.1 C 531.5 686.1, 531.1 686.4, 531.8 686.7 C 533.6 687.4, 533.3 689, 531.3 689 C 530.3 689.1, 527.7 689.8, 525.5 690.6 C 523.2 691.4, 516.3 692.3, 509 692.6 C 502.1 692.9, 494.3 693.8, 491.6 694.6 C 488.9 695.3, 485.4 696, 483.9 696 C 482.4 696, 480.8 696.5, 480.4 697.1 C 479 699.4, 520.2 695.5, 528.5 692.5 C 530.7 691.7, 533.5 691.1, 534.7 691 C 535.9 691, 537.1 690.6, 537.4 690.1 C 537.7 689.7, 540.2 689, 542.9 688.6 C 547.9 688, 551 686, 547.1 686 C 546 686, 544.9 686.4, 544.5 686.9 C 544.2 687.5, 543.2 687.8, 542.2 687.8 C 541.3 687.8, 539.2 688.1, 537.5 688.5 L 534.5 689.3 536.7 687.4 C 538 686.4, 540.1 684.7, 541.5 683.7 C 542.9 682.7, 544 681.3, 544 680.6 C 544 679.2, 540 675.6, 537.9 675.2 C 537.1 675.1, 537.7 675.9, 539.3 677.1 M 196.5 677.6 C 189.4 683.2, 174.4 685.5, 170.2 681.7 C 168.3 680, 166 680.1, 166 681.8 C 166 684.8, 185.7 687, 189.1 684.4 C 189.9 683.8, 191.6 683, 193 682.7 C 195.7 682, 200 678.5, 200 677 C 200 675.6, 198.8 675.8, 196.5 677.6 M 243.2 683 C 239.2 683.9, 234 688.6, 234 691.2 C 234 696, 243 697.1, 252 693.4 C 258.6 690.6, 261.1 686.2, 257.3 684.1 C 254.5 682.7, 246.9 682, 243.2 683 M 244.1 685 C 240 686, 236.5 689.3, 237.3 691.4 C 238.7 695, 251.3 692.7, 255.3 688.2 C 257.2 686.2, 257.1 686.1, 253.3 685.1 C 249.1 683.9, 248.9 683.9, 244.1 685 M 66.5 688.7 C 60.3 690.2, 49.7 697, 51.2 698.6 C 52.1 699.5, 57 697.9, 57 696.6 C 57 694.4, 63.5 691.7, 70.4 691.2 C 90.2 689.7, 87.5 704, 66.5 711.2 C 60 713.5, 46.8 715.1, 41.6 714.4 C 36.4 713.6, 29 710.1, 29 708.3 C 29 707.6, 28.6 707, 28 707 C 27.5 707, 27 707.5, 27 708 C 27 708.6, 26.7 708.9, 26.3 708.8 C 24.9 708.5, 20.4 710.8, 19.1 712.4 C 16.7 715.2, 18.8 715.4, 22.4 712.6 C 26.6 709.4, 27.1 709.4, 29.9 712.4 C 43.1 726.5, 94.4 708.7, 86 693 C 83.8 689, 74.3 686.9, 66.5 688.7 M 307 696.4 C 307 698.4, 309 699.6, 313.1 700.4 C 315.2 700.8, 318 702, 319.5 703.2 C 321 704.3, 324.3 705.7, 326.8 706.2 C 329.4 706.6, 332.3 707.3, 333.3 707.6 C 334.4 707.9, 335 707.6, 335 706.6 C 335 704.3, 329.2 701.7, 323.7 701.4 C 321 701.3, 318.1 700.5, 317.2 699.7 C 312.9 696, 307 694, 307 696.4 M 196.9 698.4 C 196.6 698.7, 193.3 699.1, 189.5 699.4 C 170.8 700.8, 153 709.4, 153 716.9 C 153 719.2, 155.5 721.6, 156.5 720 C 156.8 719.5, 158 719, 159.1 719 C 160.1 719, 161 718.5, 161 717.9 C 161 717.2, 159.9 717, 158 717.4 C 154.2 718.1, 154.2 716.9, 158.1 713 C 163.6 707.5, 173.5 703.7, 185.3 702.6 C 201.2 701, 212.2 698, 201.9 698 C 199.4 698, 197.1 698.2, 196.9 698.4 M 121.5 703.1 C 113.7 707.1, 110.3 714, 115.2 715.6 C 121.7 717.6, 129.9 715.8, 135.4 711 C 139.7 707.2, 139.7 707, 136.5 703.6 C 133.4 700.3, 127.3 700.1, 121.5 703.1 M 201 703 C 199.8 703.8, 199.9 704, 201.6 704 C 203.9 704, 209 706.2, 209 707.2 C 209 707.6, 211.6 709.1, 214.8 710.5 C 222.3 714.1, 224 715.7, 224 719.2 C 224 723.1, 219.9 726.7, 212.3 729.6 C 207.9 731.2, 206.9 732, 208.3 732.5 C 209.3 732.9, 211.6 732.5, 213.8 731.6 C 224.6 726.7, 227 724.4, 227 718.6 C 227 714, 229.8 717.3, 230.2 722.3 L 230.5 726.5 231.7 723.4 C 233.3 718.8, 231.5 716, 225 712.8 C 222 711.3, 218.9 710.1, 218.2 710.1 C 217 710, 211.1 706.2, 210 704.8 C 209.4 704.1, 204.3 702, 203.2 702 C 202.8 702, 201.8 702.5, 201 703 M 122.5 705.1 C 114.7 709.2, 112.9 712.4, 117.6 713.6 C 125 715.5, 135.4 711, 134.8 706.1 C 134.4 702.5, 128.3 702, 122.5 705.1 M 180.5 704.7 C 173.6 705.7, 159.6 712, 158.6 714.6 C 158.3 715.4, 160.1 714.9, 163.3 713.2 C 170.7 709.3, 178.2 707.2, 188 706.4 C 199.4 705.5, 201.7 704, 191.5 704.2 C 187.1 704.2, 182.2 704.5, 180.5 704.7 M 145.8 720 C 145.7 720.5, 142.1 721.6, 138 722.5 C 129.2 724.2, 109.8 729.3, 105.5 730.9 C 99.2 733.4, 85 740.5, 85 741.2 C 85 742.3, 86.4 742.2, 87.6 741.1 C 88.6 740.2, 102.7 735.3, 112 732.7 C 126.1 728.7, 132.8 726.7, 136.8 725.4 C 139.1 724.6, 142.5 724, 144.3 724 C 148.2 724, 160.4 730, 160.8 732 C 161.4 735.4, 143.3 743, 134.6 743 C 129.7 743, 116.6 740.4, 113.6 738.8 C 111.6 737.7, 111.6 737.7, 113.5 736.9 C 116 736, 115.6 735.8, 110.3 735.5 C 107.9 735.3, 106 735.6, 106 736.1 C 106 737.3, 113.3 741.8, 116.4 742.5 C 117.8 742.8, 120.2 743.3, 121.7 743.6 C 123.8 744, 124.1 744.3, 123 745 C 120 746.8, 123.5 748.2, 129.6 747.7 C 146.8 746.2, 153.7 745, 158.1 742.7 C 160.6 741.3, 165 739.9, 167.8 739.5 C 170.7 739.1, 173 738.5, 173 738 C 173 736.4, 168.6 736.2, 165.9 737.6 C 164.3 738.4, 162.7 739.1, 162.3 739.1 C 161.4 739.3, 157.3 740.7, 154.5 741.9 C 148.6 744.4, 146.9 744.9, 145.5 744.4 C 144.5 744, 146.4 742.9, 150.6 741.4 C 154.3 740.1, 158.5 737.9, 160 736.5 C 161.4 735.1, 163.5 734, 164.6 734 C 166.3 733.9, 166.3 733.7, 164 731.9 C 162.6 730.8, 160.5 729, 159.2 727.9 C 157.9 726.8, 154.9 725, 152.4 723.8 C 150 722.6, 148 721, 148 720.3 C 148 718.8, 146.3 718.5, 145.8 720 M 495 734.1 C 490.4 736, 489.6 740, 493.5 742.6 C 496.7 744.7, 505 742, 505 738.8 C 505 734.8, 499.6 732.2, 495 734.1 M 385.9 736.5 C 371.5 739.4, 359.4 750.2, 363 757.1 C 366.5 763.6, 389 766.5, 401.2 761.9 C 413.4 757.5, 417.8 753.3, 415.9 748.2 C 414.8 745.3, 414.8 745, 415.9 745 C 416.4 745, 417 745.9, 417.3 747 C 417.9 749.4, 419.6 749.6, 420.4 747.4 C 421.1 745.6, 419.4 743, 417.5 743 C 416.8 743, 414.3 741.9, 411.9 740.5 C 408 738.4, 396.2 734.9, 393.5 735.1 C 393 735.2, 389.5 735.8, 385.9 736.5 M 383 739.7 C 371.7 743.5, 362.6 751.6, 364.9 755.8 C 369.2 763.9, 396.7 763.4, 409.5 755 C 415.2 751.3, 415.3 746.1, 409.6 746 C 407.7 745.9, 407.6 745.8, 409.2 744.6 C 413.8 741.1, 391.3 736.9, 383 739.7 M 44.3 750.6 C 41 752.3, 39.6 755.2, 41.3 756.9 C 43.9 759.5, 55.1 756.9, 56.4 753.5 C 57.9 749.5, 50.2 747.7, 44.3 750.6" stroke="none" fill="#1b1f3a" fill-rule="evenodd"/></svg>