<svg xmlns="http://www.w3.org/2000/svg" viewBox="0 0 768 768" version="1.1" preserveAspectRatio="xMidYMid meet"><path d="M 390.8 86.6 C 390.5 87.1, 390 88.8, 389.6 90.3 C 389.1 92.3, 388.2 93.2, 386 93.7 C 382.4 94.4, 382.1 96.3, 385.4 97.8 C 386.8 98.4, 388.9 100.3, 390.1 101.9 C 392.5 105.2, 395 106, 395 103.5 C 395 100.8, 397.9 96.2, 400 95.5 C 403.2 94.5, 402.3 93.3, 398 92.6 C 395.7 92.3, 394 91.4, 394 90.7 C 394 88.8, 391.4 85.5, 390.8 86.6 M 575.5 113.7 C 539.4 117.9, 489 137.7, 458.5 159.5 C 422.6 185.2, 373.6 241.7, 345.6 289.6 L 343.7 292.7 332.1 293.4 C 289.3 295.8, 256.5 311, 226.3 342.3 C 210.4 358.7, 206.4 367.6, 213.4 370.9 C 216.5 372.4, 214.7 372.6, 245.5 367.1 C 263 364, 282.9 362, 296.3 362 L 308.8 362 308.3 366.4 C 307.8 370.2, 308.3 371.7, 311.6 377.2 C 319.2 389.9, 322.9 394.6, 326.9 396.8 C 331.8 399.6, 332 400.7, 328 404.5 C 325.7 406.7, 324.5 407.2, 323.4 406.5 C 321 405, 321.2 403.7, 324 403.3 C 326.4 402.9, 328.8 401.4, 327.9 400.7 C 326.6 399.6, 316.1 394, 315.4 394 C 315 394, 316.1 395.6, 318 397.5 C 322.5 402.2, 321.5 402.7, 316.1 398.4 C 310.6 394.1, 309.2 394.1, 303.9 398.6 C 299.8 402.1, 299.3 402.2, 294 401.6 C 291 401.2, 286.7 400.3, 284.5 399.5 C 276 396.5, 273.3 398.6, 279.1 403.9 L 282.1 406.7 276.7 407.4 C 270.2 408.1, 265.7 407.4, 261.4 404.8 C 259.5 403.7, 257.5 403.2, 256.4 403.7 C 253.9 404.6, 249.1 410, 248.4 412.7 C 247.9 414.4, 246.8 415, 243.2 415.5 C 240.6 415.8, 234.9 416.8, 230.5 417.5 C 212.1 420.8, 211.9 420.8, 193.5 425.4 C 184.4 427.6, 178.7 429.4, 164 434.5 C 143.2 441.7, 135.9 444, 133.6 444 C 129.8 444, 128.2 445.8, 130.4 447.5 C 131.5 448.3, 133.2 449, 134.2 449 C 137.2 449, 136.3 450.4, 129.5 455.9 C 122.1 462, 109.2 475.4, 107.7 478.8 C 105.4 483.8, 113.3 485.9, 124 483 C 129.2 481.6, 130.1 482.3, 126.3 484.6 C 109.3 495.2, 97.5 505.6, 84 522 C 79.3 527.7, 73.4 534.7, 70.8 537.5 C 63 546, 64.9 547, 79 542 C 83.6 540.4, 90.4 538.7, 94 538.4 L 100.5 537.8 94.3 543.7 C 87.2 550.4, 86 554.1, 90.5 556.2 L 92.9 557.3 86.9 563.8 C 75.6 576.2, 70.3 588, 75.8 588.8 C 77 589, 80.5 588.2, 83.5 587.1 C 86.6 585.9, 89.3 585, 89.7 585 C 90 585, 86.4 588.8, 81.7 593.4 C 73 602, 68.6 608.5, 69.2 612.2 C 69.8 616.3, 72 615.1, 76.3 608.3 C 86.7 592.3, 123.5 565.2, 161.5 545.7 C 171.9 540.4, 172.8 539.6, 177.3 533.2 C 179.9 529.4, 184.1 524.4, 186.5 522 C 191.6 517, 192.4 515.1, 188.3 517.7 C 183.8 520.6, 177.1 527.1, 172.3 533.3 C 169.9 536.4, 167.4 539, 166.9 539 C 166.3 539, 164 539.8, 161.7 540.9 C 159.4 541.9, 154.8 543.7, 151.6 544.9 C 148.3 546.1, 144.1 548.4, 142.3 550.1 C 140.4 551.7, 136.6 554.2, 133.7 555.6 C 130.9 557.1, 126.8 559.4, 124.7 560.7 C 118.4 564.7, 82.9 582.1, 81.8 581.8 C 80 581.2, 89 569.2, 96.9 561.8 C 104.1 555, 111.3 550.5, 121.3 546.6 C 125.5 544.9, 125.4 543, 121.2 543 C 118.5 543.1, 108.5 546.2, 107.3 547.4 C 107 547.7, 106 548, 105.1 548 C 104.2 548, 102.2 548.7, 100.6 549.5 C 94.8 552.5, 94.9 550.9, 100.9 544.3 C 109.5 534.7, 109.3 534.2, 96.8 533.2 L 88.7 532.5 97.6 527.6 C 124.3 512.9, 139.3 506, 144.9 506 C 147.9 506, 163.2 500, 165.4 497.9 C 167.4 496.1, 165 495.9, 159.4 497.5 C 138 503.6, 134.6 504.2, 140 500.8 C 141.9 499.6, 143.7 498.3, 144 498 C 145.8 496.1, 153.5 491.6, 159 489.4 C 170.9 484.6, 183 477.8, 183 475.9 C 183 474.1, 158.7 485.8, 140.6 496.4 C 135.6 499.3, 127.2 504.2, 122 507.2 C 116.8 510.3, 109.8 514.2, 106.6 516 C 99.8 519.6, 89.7 526.3, 86.1 529.4 C 82.9 532.2, 84.2 529.9, 90.1 522.4 C 97.3 513.3, 117.7 496.3, 133.6 486.3 C 137.7 483.7, 144.2 479.5, 147.8 477.1 C 159 469.8, 186 453.8, 194.4 449.5 C 202.1 445.6, 204.9 443, 201.5 443 C 199.9 443, 178.2 454, 171 458.4 C 169.1 459.6, 164.6 462.1, 161 463.9 C 157.4 465.7, 152 468.7, 149 470.5 C 141.9 474.7, 138.6 475.6, 126.5 477 C 121 477.7, 116.2 478.4, 115.8 478.7 C 115.3 478.9, 115 478.5, 115 477.7 C 115 476.9, 119.2 472.2, 124.3 467.3 C 129.4 462.5, 135.3 456.4, 137.5 453.8 C 139.7 451.1, 141.9 449, 142.5 449 C 143 449, 144.7 448.3, 146.2 447.6 C 147.8 446.8, 152 445.1, 155.7 443.9 C 159.5 442.7, 165.7 440.7, 169.5 439.4 C 173.4 438.2, 178.1 436.9, 180 436.5 C 181.9 436.1, 184 435.4, 184.5 435 C 185.5 434.3, 209.4 428.3, 220.5 426 C 223.8 425.3, 229 424.2, 232 423.5 C 241.8 421.2, 245.9 420.8, 251.3 421.5 L 256.5 422.3 251.3 424.3 C 248.2 425.4, 243.9 428.3, 240.7 431.4 C 237.4 434.5, 233.4 437.2, 230.4 438.2 C 227.7 439.1, 224.6 440.6, 223.5 441.4 C 220 443.9, 222.9 444.5, 227.6 442.2 C 231.3 440.4, 232.5 440.2, 233.7 441.1 C 234.8 442.1, 236.2 442.1, 239.8 441.2 C 242.4 440.6, 246.5 439.8, 249 439.4 C 251.5 439.1, 254.3 438.4, 255.3 437.8 C 258.1 436.3, 257.3 437.4, 249.9 445 C 243.1 451.8, 242.5 452.2, 237.6 452.6 C 231.3 453, 218.1 457.7, 212 461.5 C 205.5 465.6, 208.5 465.7, 218.2 461.6 C 227.2 457.8, 240.9 453.5, 241.6 454.2 C 241.8 454.5, 239.6 458.1, 236.5 462.3 C 229.4 472, 229.2 474, 235.7 470 C 237.5 469, 242 463.9, 245.8 458.8 C 251.9 450.6, 260.3 441.8, 269.6 433.9 C 271.2 432.5, 275.3 430.3, 278.5 428.9 C 287.4 425.3, 289.3 424.3, 288.1 423.6 C 286.6 422.7, 278.6 425.2, 271.4 428.8 C 268.2 430.4, 263 432.3, 260 432.9 C 243.1 436.3, 236 438.1, 236 439.2 C 236 439.6, 235.3 440, 234.4 440 C 231.9 440, 233.8 438.2, 237.6 437 C 239.6 436.3, 244.9 433.6, 249.4 430.9 C 255.5 427.3, 260.3 425.3, 267.6 423.5 C 273 422.1, 280.5 420, 284.1 418.7 L 290.8 416.3 292.5 419.3 C 293.5 420.9, 295 423, 295.9 423.9 C 303.4 431.6, 308 437.5, 308 439.3 C 308 440.5, 306.6 444.2, 305 447.4 C 303.3 450.6, 302 453.8, 302 454.4 C 302 455.1, 297.8 459.5, 292.6 464.3 C 287.5 469, 279.9 477.4, 275.9 482.9 C 267.6 494.2, 266.5 495, 268.4 488.5 C 270.8 480.6, 279 467.9, 286.4 460.8 C 294.3 453.1, 294.5 451.5, 287.1 456 C 280.5 460.1, 272.9 468.6, 269.2 476.4 C 266.1 482.5, 261 497.1, 261 499.6 C 261 500.9, 255 506, 253.5 506 C 251.7 506, 255 490.4, 258.3 483 C 265.6 466.9, 275.6 453.8, 285.7 447.2 C 289.5 444.8, 291.4 442, 289.2 442 C 287.4 442, 279.1 448.1, 273 453.9 C 269.4 457.3, 264.1 461.3, 261.1 462.8 C 254 466.3, 250.1 470.4, 246.2 478.5 C 240.5 490.1, 243.2 492.1, 249.5 480.9 C 253.3 474.2, 262.6 463.2, 263.6 464.3 C 263.9 464.5, 262.1 467.9, 259.6 471.8 C 257 475.7, 255 479.2, 255 479.5 C 255 479.9, 254.3 481.6, 253.5 483.3 C 250.4 490.2, 248.9 495.9, 248.3 503.8 C 247.6 513.9, 247.7 513.9, 260.6 507.5 C 265.5 505.1, 270.5 503, 271.7 503 C 281 502.9, 307 488.4, 307 483.3 C 307 481.3, 305.1 481.7, 301.7 484.6 C 294.6 490.6, 267 501.3, 267 498 C 267 497.6, 270 493.7, 273.8 489.4 C 277.5 485.1, 282 479.7, 283.7 477.5 C 285.4 475.3, 291.8 468.3, 297.9 462 C 304.1 455.7, 309.3 449.4, 309.6 448 C 310.8 442.7, 310.8 442.7, 314.8 445.8 C 316.8 447.4, 320 449.5, 321.8 450.4 C 325.9 452.5, 325.8 452.8, 320.9 457.5 C 312.5 465.8, 313.8 468.7, 322.6 461 C 329.5 455, 328.8 455, 336.9 460 C 348 466.7, 348.5 467.2, 346.7 470.6 C 345 473.9, 342.8 482.1, 339.9 496.2 C 337.8 506.2, 334.9 514.4, 332.8 515.6 C 332 516.1, 331.9 515.7, 332.4 514.4 C 334.6 509.1, 337.6 492.3, 336.6 491.3 C 335.3 490, 330.3 502.1, 331.4 503.9 C 331.7 504.3, 331.2 506.9, 330.4 509.6 C 329.6 512.3, 329 516.1, 329.1 518 C 329.4 522.4, 317.2 542.5, 315.4 540.7 C 315 540.3, 317.3 533.3, 323.6 515.2 C 324.5 512.8, 324.9 510.6, 324.6 510.2 C 323.7 509.4, 320.3 512.9, 318.6 516.3 C 309.9 534.8, 306.4 543.4, 305.6 548 C 305 551.4, 298.3 562.6, 297.4 561.7 C 297.1 561.5, 298.7 557.7, 301 553.5 C 305.4 544.9, 305.7 543.5, 303.5 542.6 C 302.4 542.2, 300.2 544.8, 295.8 551.3 C 287.2 564.2, 266.8 588.4, 268.7 583.5 C 269.2 582.4, 273.8 572.7, 279.2 562 C 284.5 551.3, 289.1 541.4, 289.5 540 C 290.8 535.5, 286.8 540.1, 281 549.8 C 271.3 565.8, 265.1 574.5, 259 580.5 C 252.4 587, 252.1 586.9, 254 577 C 256 566.5, 253.8 565.5, 248.3 574.3 C 242.1 584.1, 233.4 594.5, 215.8 613.1 C 202 627.7, 177.2 650.6, 176.3 649.6 C 174.9 648.2, 187.2 629.9, 194.9 622.1 C 214.9 601.8, 233.5 579.6, 245.7 561.5 C 247.9 558.2, 255.2 549.7, 261.9 542.5 C 273.7 529.9, 286.3 512, 284.6 510.2 C 283.7 509.4, 282.2 511.3, 273.8 523.5 C 270.4 528.5, 262.8 537.5, 257 543.6 C 251.2 549.8, 244.6 557.4, 242.5 560.6 C 235.3 571.4, 219.6 590.7, 206.9 604.5 C 204.4 607.3, 200.3 611.7, 197.9 614.4 C 195.5 617.1, 190.2 622.5, 186.1 626.4 C 180.2 632.1, 170.4 643.1, 159.8 655.9 C 157.3 658.9, 151 672.3, 151 674.5 C 151 679.3, 152.9 677.7, 160.1 666.7 C 169.4 652.4, 169.7 652.1, 169.6 657.3 C 169.5 660.2, 169.9 661.5, 171 661.7 C 175.4 662.6, 226.4 613.8, 240 595.6 C 247.7 585.2, 249.7 583.3, 248.5 587.1 C 247.6 589.9, 242.1 597.7, 239.1 600.4 C 236.8 602.5, 237.2 604, 240.2 604 C 243.6 604, 249.9 598.2, 255.7 589.6 C 258.7 585.1, 260.9 582.6, 260.5 584 C 259.6 587.1, 255.2 594.3, 248.4 603.5 C 240.8 614, 237.5 621, 240.4 621 C 242 621, 247.8 614.4, 255.9 603.3 C 259.4 598.5, 261.9 596, 263.2 596 C 266.5 596, 268.7 594.3, 275.1 586.7 C 288.8 570.7, 292.2 567.2, 294.7 566.5 C 299.2 565.4, 313.7 553.2, 320 545.2 C 323.3 541, 326.5 537, 327 536.3 C 335.4 526, 343.2 510.2, 345.4 499.5 C 346.3 495.1, 347.5 489.5, 348 487 C 348.5 484.5, 349.2 480.4, 349.6 477.9 C 350.5 470.9, 351.1 470.4, 355.7 473.1 C 360 475.5, 363 475.2, 363 472.3 C 363.1 468.1, 379 452, 383.1 452 C 385 452, 389 449.7, 395.7 444.7 C 402.8 439.4, 406.5 437.4, 409 437.2 C 410.9 437, 413.9 436.1, 415.8 435 C 420.1 432.4, 420.4 433.3, 419.7 445.3 C 419.2 454.7, 416.9 462.1, 410.3 476 C 408.9 479, 406.2 484.9, 404.3 489 C 402.4 493.1, 400.5 497.2, 400 498.1 C 396.1 505.3, 398.6 510.6, 405.4 509.6 C 413.7 508.3, 442.6 494.7, 457.5 485.2 C 479 471.5, 494 452.9, 497.1 436.2 C 499.4 424, 497.7 415.8, 487.7 392.2 L 481.7 377.9 487.2 372.2 C 503.6 355.1, 528.2 323.9, 540.9 304 C 556 280.3, 558.6 275.9, 563.4 266.5 C 571 251.5, 576.3 239.6, 581 226.5 C 582.8 221.6, 584.6 216.6, 585.1 215.5 C 587.9 209, 594.5 184.1, 595.6 176 C 596 173, 596.6 169.5, 597.1 168.3 C 599.1 163, 601.2 130.7, 600.1 123.7 C 598.3 112.8, 598.5 113, 587.7 113.2 C 582.6 113.2, 577.2 113.5, 575.5 113.7 M 149.2 116 C 130.2 120, 116.6 138.2, 116.5 159.5 C 116.4 207.7, 180.6 222.4, 202.1 179.1 C 209.6 164.2, 205.4 141.4, 193 129 C 181.6 117.6, 164.9 112.7, 149.2 116 M 148.5 120.7 C 137.8 124, 129.4 131.5, 124.2 142.7 C 119.9 151.9, 120.3 167.8, 125 177.3 C 132 191.4, 145.7 200, 160.9 200 C 176.5 200, 189.2 192.6, 196.8 179.1 C 200.5 172.5, 200.5 172.4, 200.5 161 C 200.5 149.9, 200.4 149.2, 197.1 142.9 C 187.6 124.1, 167.6 114.9, 148.5 120.7 M 572.5 121.5 C 551 125.1, 521.4 134.7, 495.3 146.6 C 492.5 147.9, 489.8 149, 489.3 149 C 488.9 149, 487.5 149.8, 486.2 150.8 L 483.9 152.6 496.7 160.4 C 503.7 164.6, 523.2 176.4, 540 186.6 C 556.8 196.7, 571.7 205.9, 573.2 207 C 577 209.8, 577.6 209.6, 578.8 205.3 C 579.4 203.2, 581.2 196.8, 583 191 C 588.9 170.9, 593.5 140.7, 592.8 126.5 L 592.5 120.5 586.5 120.3 C 583.2 120.3, 576.9 120.8, 572.5 121.5 M 353.7 141.7 C 353.3 142, 353 143.7, 353 145.4 C 352.9 149.2, 351.5 151.2, 347.3 153.4 C 343.2 155.5, 343.1 156.9, 346.9 157.6 C 350.4 158.3, 352.4 160.3, 353.7 164.5 C 355 168.6, 358 169.1, 358 165.3 C 358 161.4, 360.4 158.3, 364 157.5 C 367.6 156.7, 368 154.3, 364.6 153.4 C 361.4 152.6, 358.5 149.3, 357 144.8 C 355.9 141.1, 355 140.3, 353.7 141.7 M 461.5 167.2 C 437.8 184.7, 411.3 212, 389.9 240.5 C 366.2 272.2, 338 315.4, 338 319.9 C 338 325, 368.6 358, 373.3 358 C 373.7 358, 377.4 355.2, 381.7 351.8 C 398.9 338, 397.8 338.7, 400.9 340 C 408.3 343, 411.3 350.1, 408 356.7 C 403.6 365.7, 388.4 388.5, 380.3 398.2 C 375.2 404.4, 371 409.8, 371 410.2 C 371 411.8, 385 419.3, 404.4 428 L 409.3 430.1 413.4 426.2 C 415.7 424.1, 423.4 417.6, 430.5 412 C 466 383.8, 495.7 353.1, 517.9 321.5 C 521.4 316.6, 525.5 310.7, 527.1 308.5 C 540.6 289.7, 547.7 277.7, 559.6 254 C 566.5 240.3, 566.7 239.7, 571.6 226 C 575.7 214.6, 575.7 214.7, 572.3 212.9 C 570.8 212.1, 565.7 209.1, 561 206.3 C 556.3 203.4, 549.6 199.4, 546 197.4 C 539.2 193.5, 495.4 167.3, 483.8 160.2 C 480.1 157.9, 476.9 156, 476.8 156 C 476.6 156, 469.8 161, 461.5 167.2 M 105.5 199.6 C 104.5 201.6, 102.9 203, 101.8 203 C 100.8 203, 100 203.7, 100 204.5 C 100 205.4, 100.9 206, 102.4 206 C 105.2 206, 106.7 207.6, 107.2 210.9 C 107.7 214.6, 109.4 214.4, 110.8 210.6 C 111.9 207.7, 112.8 206.9, 115.6 206.4 C 119.5 205.7, 120.2 204, 116.5 204 C 113.8 204, 110 200.9, 110 198.6 C 110 195.7, 107.3 196.3, 105.5 199.6 M 447.1 211.5 C 435.5 215.9, 429.3 221, 421.6 233 C 414.9 243.2, 413.5 247.9, 413.5 259.5 C 413.5 273.8, 417.7 284, 427 292.4 C 453.6 316.4, 492 304.6, 504.1 268.7 C 507.3 259.1, 506.6 240.8, 502.5 232.5 C 495 216.9, 481.4 208.9, 462.7 209.1 C 455.6 209.1, 452.1 209.7, 447.1 211.5 M 672.8 214.4 C 671.8 215.1, 671 216.3, 671 217 C 671 217.9, 670 218.1, 667.3 217.5 C 665.2 217.1, 661.5 216.4, 659 216 C 640.3 212.4, 622.5 226.2, 622.7 244 C 622.8 251.9, 623.8 254.7, 628.7 260.1 C 639.6 272.1, 657.6 272.3, 670.7 260.6 C 676.8 255.1, 685 239.7, 685 233.7 L 685 230 689.4 230 C 692.1 230, 694.2 229.4, 695 228.5 C 696.6 226.5, 695.8 225.7, 690.7 224.5 C 687 223.5, 686.4 223, 686 220.2 C 685.1 214.6, 677.1 211.1, 672.8 214.4 M 674.5 217.3 C 672.9 218.5, 672.9 219.1, 673.8 222 C 674.5 223.8, 674.7 226.3, 674.4 227.5 C 673.6 230.6, 680 231.6, 683.5 228.8 C 684.8 227.8, 686.6 227, 687.7 227 C 689 227, 688.6 226.4, 686.3 224.9 C 684.5 223.7, 683 222.3, 683 221.6 C 683 217.9, 677.5 215.2, 674.5 217.3 M 447.7 219.6 C 420.9 227.8, 410.7 262.9, 428.7 284.8 C 443.6 303, 468.3 303.6, 485.1 286.2 C 508.7 261.6, 502.4 229.3, 472 219.8 C 465.3 217.7, 454.3 217.6, 447.7 219.6 M 646.5 219.4 C 637.9 221.5, 631.1 226.9, 627 234.9 C 625.2 238.4, 625.4 249, 627.4 252.7 C 631 259.7, 642.1 266, 650.9 266 C 660.3 266, 673.8 256.2, 677.1 247 C 677.6 245.6, 678.5 243.6, 679.1 242.4 C 679.7 241.3, 680 238.6, 679.8 236.4 L 679.5 232.5 674.2 232.6 C 669.2 232.8, 669 232.7, 670.4 231.1 C 676.9 223.9, 660.4 215.8, 646.5 219.4 M 449 221.9 C 439.1 225.1, 430.7 232.6, 425.9 242.6 C 421.2 252.3, 420.9 266.3, 425.3 275.2 C 428.9 282.5, 438.8 291.9, 445.5 294.3 C 457.6 298.5, 473.6 295.6, 482.3 287.4 C 486.1 283.9, 485.1 283.3, 480.5 286.5 C 469.5 293.9, 453.6 294.6, 443 288.2 C 436.5 284.2, 426.6 272.1, 428.4 270.3 C 428.6 270, 429.5 271.1, 430.3 272.7 C 432.6 277.1, 442.5 285.9, 447.7 288.2 C 458.1 292.8, 474.3 289.9, 483.5 281.8 C 502.9 264.7, 498.5 234.9, 475 224.2 C 469.1 221.5, 454.2 220.2, 449 221.9 M 265.1 227.9 C 264.5 229, 264 230.5, 264 231.3 C 264 233.5, 260.6 236, 256.6 236.7 C 252.2 237.4, 252.4 239.1, 257.1 240.5 C 262.2 242, 262.9 242.7, 264.1 247.6 C 265.4 252.7, 265.8 253.1, 268.8 252.3 C 270.2 252, 271 251, 271 249.5 C 271 243.4, 272.1 241.3, 276.1 240 C 281.5 238.2, 280.7 236, 274.5 236 C 272 236, 269.4 232.8, 268.8 229 C 268.4 225.9, 266.4 225.3, 265.1 227.9 M 449.9 229.1 C 443.7 230.9, 436.9 236.9, 433.2 244 C 430 250, 429.8 251, 430.3 257.5 C 431 268.1, 434.7 273.9, 444.9 280.8 C 450.3 284.3, 450.8 284.5, 459 284.5 C 474.9 284.5, 486.1 274.5, 487.7 258.9 C 489.5 240.1, 468.8 223.7, 449.9 229.1 M 135.3 239.7 C 134.3 241.8, 132.3 244.1, 130.7 244.8 C 127.5 246.3, 127.1 248, 130 248 C 132.1 248, 137 254.7, 137 257.5 C 137 260.6, 138.9 258.8, 139.5 255.1 C 140.2 251, 142.2 248.4, 145.4 247.9 C 148 247.4, 148.7 245, 146.2 245 C 144 245, 139 239.7, 139 237.4 C 139 234.8, 137 236, 135.3 239.7 M 722.5 272.3 C 721.8 274.3, 720.1 276.4, 717.7 278 L 713.8 280.4 716.9 281.9 C 718.8 282.8, 720.7 284.8, 721.7 287.2 C 723.8 291.9, 724.4 291.9, 727.2 287.6 C 728.5 285.7, 731 283.2, 732.9 282.1 L 736.4 280.2 732.6 278.6 C 729.8 277.5, 728.4 276, 727.2 273 C 725.1 268.2, 723.7 267.9, 722.5 272.3 M 76.5 292.5 C 74.6 297.6, 73.4 298.5, 66.8 299.4 C 60.6 300.3, 60.6 302.3, 66.6 305.1 C 72.2 307.8, 72.8 309, 70.1 313.3 C 66.7 318.8, 68.1 319.8, 73.2 315.5 C 77 312.3, 77.6 312.3, 81.3 316.5 C 84.6 320.2, 88.8 321.4, 87.4 318.3 C 87 317.3, 86.5 314.8, 86.2 312.7 C 85.8 309, 85.8 309, 91.5 306.4 C 98.9 303, 99.1 299.8, 91.9 299 C 86.2 298.3, 84.3 296.9, 82.8 291.9 C 81.2 286.5, 78.8 286.7, 76.5 292.5 M 77.5 297.4 C 76.3 299.1, 73.9 301, 72 301.7 C 70.1 302.4, 69.2 302.9, 70.1 302.9 C 70.9 303, 72.4 303.8, 73.3 304.8 C 74.1 305.7, 76 307.7, 77.4 309.3 C 80.5 312.6, 81.6 312.7, 82.4 309.6 C 82.8 308.1, 84.6 306.2, 87.1 304.8 L 91.2 302.5 87.8 301.7 C 84.1 300.7, 81 298.3, 81 296.4 C 81 293.9, 79.5 294.3, 77.5 297.4 M 662.6 297.7 L 659.7 301.1 662.5 304 C 666.1 307.7, 666.7 307.7, 671 303.8 C 674.1 300.9, 674.3 300.6, 672.6 299.6 C 671.6 299, 669.6 297.6, 668.1 296.4 L 665.5 294.3 662.6 297.7 M 322 301.7 C 286.8 305.5, 251.8 324.4, 228.4 352.3 C 224.3 357.1, 221 361.6, 221 362.2 C 221 363.4, 229.6 362.7, 236 361 C 249.8 357.3, 280.9 354, 301.7 354 L 313.8 354 314.5 350.8 C 314.9 349, 315.6 347.1, 316 346.5 C 316.4 346, 318.3 341.5, 320.3 336.5 C 324.5 326, 328.5 318.1, 334.6 308.9 C 337 305.2, 339 302, 339 301.6 C 339 301, 328.2 301, 322 301.7 M 165.2 327.4 C 164 332.1, 161.1 333.8, 156.7 332.4 C 154.8 331.8, 154.7 331.9, 155.9 333.4 C 156.6 334.3, 157.9 335, 158.6 335 C 160.4 335, 160.4 335.5, 158.4 338.5 C 156.9 340.9, 156.9 341, 158.8 341 C 162.9 341, 166.3 339.1, 165 337.6 C 164.1 336.4, 164.2 335.6, 165.5 333.6 L 167.1 331.1 169.9 334.2 C 173 337.7, 172.3 342.2, 168.8 341.2 C 167.6 340.9, 167 341.4, 166.9 342.6 C 166.4 352.6, 169.3 357.1, 170.7 348.4 C 171.3 344.6, 173.9 341.5, 180.2 336.8 L 182.5 335.1 178.9 335 C 173.9 335, 170.3 331.9, 169.5 327 C 168.6 321.7, 166.7 321.9, 165.2 327.4 M 501.8 328.1 C 499.4 330.5, 495.5 334.8, 493 337.5 C 486.8 344.5, 462.2 371, 453.6 380 C 441 393.2, 419.4 411.6, 411 416.2 C 406.1 418.9, 404.9 421.7, 408.9 421.2 C 414.6 420.6, 443.5 395.9, 463 374.9 C 469.3 368.1, 476.4 360.5, 478.8 358 C 487.2 349.2, 507.3 324.9, 506.7 324.3 C 506.3 324, 504.1 325.7, 501.8 328.1 M 331.3 329 C 328.4 334, 328.4 336.6, 331.5 342.5 C 337.1 352.9, 353.5 372, 356.9 372 C 357.8 372, 361 369.5, 364 366.5 L 369.4 361 367 359.3 C 362.5 356.3, 342.2 335.8, 338.3 330.4 C 333.7 324, 334 324.1, 331.3 329 M 322.5 351.3 C 321.1 355.2, 319.2 360, 318.4 361.8 C 316.2 367, 316.6 369.5, 320.6 373 C 327.4 378.9, 335.1 388.4, 334.6 390.3 C 334.3 391.5, 334.9 392.2, 336.5 392.6 C 338.5 393.1, 340 392, 345.7 386 C 354.9 376.2, 354.8 376.7, 349.8 372.3 C 342 365.5, 334 356.6, 329.8 350.3 C 327.6 346.8, 325.6 344, 325.4 344 C 325.3 344, 324 347.3, 322.5 351.3 M 389.1 352.6 C 380 360.1, 379 362.4, 387.5 356.4 C 390.6 354.3, 393.7 352.1, 394.5 351.5 C 396.3 350.3, 399.3 351.9, 399.8 354.5 C 400.1 355.8, 399.7 356, 398.2 355.6 C 396.8 355.1, 394.2 356.3, 389.5 359.5 C 385.8 362, 381.9 364, 380.9 364 C 375.6 364, 368.2 370.2, 353.7 386.9 C 334.3 409.2, 328.6 417.5, 329.2 422 C 329.5 424.1, 329.3 424.6, 327.9 424.3 C 326.1 423.8, 322 429.4, 322 432.4 C 322 433.3, 321.3 434, 320.5 434 C 318.6 434, 319.4 430, 322.1 425.4 C 324.2 421.9, 324.5 420.6, 323 421.5 C 321.6 422.4, 321.8 419.6, 323.2 418.2 C 323.9 417.5, 324.1 417, 323.6 417 C 320.5 417, 314.2 431, 315.5 435 C 316.2 437.2, 327.5 447, 329.4 447 C 330.1 447, 331.1 446.1, 331.6 445.1 C 332.1 444, 336.8 438.7, 342 433.3 C 347.2 427.9, 354.9 419, 359 413.5 C 363.1 408, 366.7 403.3, 367 403 C 367.3 402.7, 369.4 400.3, 371.5 397.5 C 373.7 394.8, 375.7 392.3, 376 392 C 378 390.1, 385.4 380.5, 388.7 375.5 C 406.1 349.5, 405 351.7, 402 348.5 C 398.7 345, 398.3 345.2, 389.1 352.6 M 468.5 389.7 C 464.7 393.3, 456.8 400.1, 451 404.8 C 445.2 409.6, 439.2 414.7, 437.5 416.1 C 435.9 417.6, 432.5 420.3, 430 422.2 C 426.5 424.9, 425.6 426.2, 425.8 428.1 C 427.7 444.5, 426.9 452.7, 422.3 466 C 419.6 473.9, 413 488.2, 409.2 494.3 C 404.1 502.8, 407.4 502.2, 432.2 490.2 C 460.7 476.5, 475.6 463.8, 484.7 445.3 C 489.4 436, 489.5 435.6, 489.4 426.6 C 489.3 416.5, 488.3 412.9, 481 396.5 C 479.2 392.4, 476.2 385.5, 475.9 384.4 C 475.7 383.7, 472.4 386.1, 468.5 389.7 M 305.9 403.2 C 305.1 403.9, 303.3 405.3, 301.8 406.3 C 297.9 408.8, 298 414.1, 302 420.2 C 306 426.2, 308 427.9, 308 425.4 C 308 423.4, 309 421.3, 313.3 413.9 L 316.1 409.2 313.4 406.1 C 311.9 404.3, 310.5 403.2, 310.2 403.4 C 309.9 403.7, 309.1 403.5, 308.4 403 C 307.6 402.2, 306.8 402.3, 305.9 403.2 M 287 410 C 285 411, 281.1 412.3, 278.2 412.9 C 275.3 413.5, 270.8 414.5, 268 415 C 261.1 416.5, 257 418.3, 257.8 419.7 C 258.7 421.2, 268.8 419.2, 283 414.8 C 290.3 412.5, 291.3 411.8, 290.8 409.7 C 290.5 408.4, 290 408.4, 287 410 M 65 414.5 C 65 419.2, 63 421.9, 58.7 422.7 C 53.5 423.8, 52.9 425.6, 57.2 427.4 C 61.3 429.2, 64.6 432.7, 65.5 436.3 C 66.5 440, 67.5 439.7, 69.4 434.9 C 70.6 432.1, 71.5 431, 72.8 431.2 C 73.8 431.3, 75.7 430.5, 77 429.2 C 80 426.4, 78.8 423.7, 74.6 423.2 C 72.3 422.9, 71.4 421.8, 69.3 417.4 C 66.7 411.6, 65 410.5, 65 414.5 M 366.5 415.1 C 366.1 415.7, 366.4 416.8, 367.1 417.6 C 369.4 419.9, 391.8 430.9, 396 431.9 C 400.3 432.8, 402.6 431.6, 398.8 430.4 C 394.3 429, 383.4 423.6, 376 419.2 C 371.9 416.7, 368.2 414.5, 367.8 414.3 C 367.4 414.1, 366.8 414.5, 366.5 415.1 M 360.2 424.2 C 359.5 424.9, 359 425.9, 359 426.6 C 359 427.9, 370 435.5, 378.6 440 L 384.6 443.2 388.3 441 C 392 438.8, 392.4 437, 389.2 437 C 387.4 437, 381.8 434.2, 368.9 427.2 C 363.1 424, 361.1 423.3, 360.2 424.2 M 354.1 430.4 C 352.6 432.2, 358.4 436.6, 369.7 442.1 C 380.2 447.2, 383.5 446.9, 374.3 441.6 C 365.6 436.6, 360 433.1, 357.4 430.8 C 355.6 429.2, 355.1 429.1, 354.1 430.4 M 280.4 440 C 274.9 441.3, 264.8 447.7, 256.5 455.1 C 252.1 459, 246.1 464.1, 243.2 466.3 C 234.8 472.7, 230.7 476.7, 231.9 477.5 C 232.5 477.8, 233 477.8, 233 477.3 C 233 476.9, 233.5 477.2, 234 478 C 235.3 480.2, 239.8 476.7, 258.5 458.9 C 269.1 448.8, 278.1 442.7, 287 439.7 C 289.3 438.9, 283.9 439.1, 280.4 440 M 348.2 445.6 C 345.9 448, 343 450.5, 341.6 451.2 C 338 452.8, 338 452.7, 348.2 459.9 L 357.4 466.2 359.4 463.4 C 360.5 461.8, 363.6 458.3, 366.2 455.6 L 370.9 450.6 365.3 447.8 C 362.2 446.3, 359.2 444.6, 358.6 444 C 354.5 440.7, 352.3 441, 348.2 445.6 M 473.4 455.3 C 467.5 462.1, 456.2 471.8, 443.1 481 C 438.7 484, 441.3 484.1, 446.8 481 C 459.3 474, 470.3 464.4, 478.4 453.6 C 481.9 448.8, 482.8 446.9, 481.3 447.1 C 480.8 447.1, 477.3 450.9, 473.4 455.3 M 206.5 456.4 C 198.7 460.1, 193.4 465, 194.4 467.5 C 194.9 468.9, 195.5 468.7, 198.3 466.1 C 200.1 464.4, 204.4 461.3, 208 459.2 C 211.5 457.2, 214.5 454.9, 214.8 454.3 C 215.4 452.4, 214.3 452.7, 206.5 456.4 M 648.5 458.5 C 646.9 459.9, 645.1 461, 644.5 461 C 639.8 461.1, 641.3 466.3, 647.7 472.1 C 649.2 473.6, 651.1 475.6, 651.8 476.6 C 653 478.5, 653 478.5, 654.3 476.5 C 655.5 474.6, 659.3 470.7, 662.5 468.1 C 664 466.9, 663.7 466.3, 658.9 461.4 C 652.8 455.3, 652.6 455.2, 648.5 458.5 M 649.3 462.3 C 645.3 465, 645.3 465.1, 649.4 469.2 L 652.8 472.6 656.3 469.4 L 659.9 466.3 656.7 463.2 C 652.9 459.5, 653.4 459.5, 649.3 462.3 M 178 470.7 C 176.6 471, 172.1 472.1, 168 473.2 C 163.9 474.3, 158.9 475.5, 157 475.9 C 155 476.3, 152.6 477.2, 151.5 477.9 C 147.3 480.5, 162.4 478, 178.8 473.3 C 186.3 471.2, 185.8 469.3, 178 470.7 M 191.5 474 C 187.6 475.6, 180.4 485.6, 179.3 491 C 178.8 493.6, 179 494, 181 494 C 183.3 494, 197.8 487, 207.1 481.4 C 210.2 479.5, 213.2 478, 213.6 478 C 214.1 478, 215.9 476.8, 217.5 475.4 L 220.5 472.9 217.4 473.4 C 213.8 474, 205 478, 196.7 482.8 C 193.6 484.6, 189.4 486.8, 187.4 487.6 C 183.1 489.4, 183.5 488.2, 189.9 480.5 C 193.2 476.5, 195.2 472.7, 193.8 473.1 C 193.6 473.1, 192.6 473.5, 191.5 474 M 210 485.1 C 204.2 488.4, 196.4 492.8, 192.5 494.8 C 188.7 496.7, 181.9 500.7, 177.5 503.5 C 173.1 506.3, 164.4 511.5, 158.1 515.1 C 138.1 526.4, 130.3 535.8, 135.5 542.6 C 136.9 544.4, 136.9 544.4, 137 541.9 C 137 536.3, 142.8 530, 156.5 520.8 C 171.3 510.8, 191.7 498.3, 203.5 492 C 211.4 487.8, 224 480.1, 224 479.4 C 224 477.9, 218.9 479.9, 210 485.1 M 329.5 487 C 328.2 489.1, 324.3 494.1, 320.9 498 C 314.5 505.5, 314.1 506.5, 318.3 505.5 C 322.8 504.3, 332.1 492.7, 334.5 485.1 C 335.6 481.4, 332.2 482.7, 329.5 487 M 318.2 489 C 317.1 490.4, 312.6 495.7, 308.4 500.9 C 299.3 511.9, 291.1 520.4, 290.4 519.7 C 289 518.3, 295.7 507.7, 302.4 500.5 C 310.1 492.3, 311 491, 308.7 491 C 303.7 491, 285 517.6, 285 524.6 C 285 528.7, 293.6 523.6, 303.2 513.8 C 306.9 509.9, 310 506.4, 310 506 C 310 505.6, 311.1 504, 312.5 502.4 C 313.9 500.8, 316.4 497.1, 318.1 494.2 C 321.5 488.3, 321.6 485, 318.2 489 M 209.6 495.5 C 208.1 496.3, 206.4 497, 206 497 C 204.6 497, 189.9 504.1, 184.5 507.4 C 174.5 513.5, 167 521.4, 167 526 C 167 529.4, 168.5 530, 169.5 527.1 C 170.8 522.9, 184.6 511.4, 193.7 507 C 203.1 502.3, 216 495, 216 494.4 C 216 493.5, 212.3 494.1, 209.6 495.5 M 233.5 497.1 C 230.3 499.9, 220.7 512.3, 213.8 522.5 C 212.3 524.7, 209.8 527.9, 208.4 529.5 C 205.3 533, 201.9 540.1, 199.6 548.3 C 197.9 554.2, 198.1 556, 200.4 556 C 202.1 556, 216.4 547.5, 218 545.5 C 219.5 543.6, 221.7 543.4, 220.3 545.3 C 218.8 547.2, 215 560, 215 563.2 C 215 565.3, 215.5 566, 217 566 C 219.1 566, 226.5 562.5, 229.3 560.2 C 231.8 558, 231.4 560.1, 228.5 563.9 C 227.2 565.8, 213.8 579.9, 198.7 595.4 C 183.7 610.8, 168.3 626.9, 164.5 631 C 160.7 635.1, 153.3 643, 148 648.5 C 136.6 660.5, 133.3 664.3, 130 669.2 C 127.4 673.2, 125.5 674.2, 126.4 671.3 C 126.7 670.3, 127.2 667.7, 127.6 665.6 C 130.4 650, 137.3 640.5, 156.2 626.4 C 167.1 618.2, 166.2 616.6, 154.6 623.8 C 146.9 628.7, 143 630.7, 127.5 638 C 120.4 641.4, 106.4 648.1, 96.6 653 C 86.7 657.9, 78.4 661.8, 78.2 661.6 C 77.8 661.1, 79.9 656.8, 81 656 C 81.3 655.7, 83.4 652.6, 85.5 649 C 93.5 635.6, 105.9 622.2, 125.7 605.6 C 130.3 601.8, 135.8 596.4, 137.9 593.5 C 140.1 590.6, 144.5 586.6, 147.7 584.5 C 150.9 582.4, 156.7 578.1, 160.5 575 C 164.4 571.9, 170.1 567.6, 173.3 565.5 C 183.6 558.7, 179.4 558.3, 168.4 565 C 159.4 570.5, 151.7 576.7, 123 602 C 110.6 612.8, 109 614.2, 109 613.7 C 109 612.1, 116.3 594.3, 117.6 592.9 C 121.6 588.5, 116.4 587.7, 108.2 591.5 C 103.5 593.7, 93 600.6, 87.5 605.1 C 75.2 615.3, 71.5 619, 67.6 624.9 C 60.8 635.1, 61.7 637.6, 69.2 629.3 C 81.6 615.7, 96.7 602.8, 106.1 597.8 C 109 596.3, 111.5 595.2, 111.7 595.4 C 112.4 596, 107.2 608.7, 104.7 612.6 C 103.4 614.8, 98.2 621.9, 93.3 628.6 C 83.6 641.6, 69.3 662.5, 66.7 667.7 C 62.8 675.2, 65.9 675.9, 77 670 C 81.1 667.8, 93.7 661.5, 105 656 C 116.3 650.4, 126.3 645.5, 127.3 644.9 C 130.3 643.3, 130.2 644.1, 126.6 651.5 C 118 669.2, 118.1 697.9, 126.7 683.2 C 129.9 677.7, 138.8 666.8, 149.8 655 C 155.2 649.2, 163.3 640.5, 167.7 635.5 C 172.2 630.6, 178.1 624.3, 181 621.5 C 183.9 618.8, 189.3 612.9, 193 608.4 C 196.7 604, 203.6 596.6, 208.2 591.9 C 231.4 568.5, 241 556, 235.5 556 C 232.9 556, 233.8 554.8, 243 545.8 C 251.3 537.8, 253.4 535, 251.2 535 C 249.1 535, 235 545.9, 227.9 553.2 C 219.2 562, 218.4 561.7, 223.4 551.9 C 228.7 541.7, 231.2 538.1, 239.4 529.5 C 243.5 525.1, 246.6 521.2, 246.1 520.7 C 245.3 519.9, 226.2 537, 223.1 541.3 C 222.2 542.5, 221.4 542.8, 220.8 542.2 C 219.3 540.7, 213.1 542.8, 208.7 546.2 C 203.8 550.1, 203.6 549.7, 206.8 542.5 C 212.1 530.6, 223 514.3, 234.3 501.4 C 240.9 493.8, 240.5 491, 233.5 497.1 M 220.2 499.2 C 216.6 503.1, 212 509.9, 204.9 521.6 C 202 526.4, 198.3 531.8, 196.6 533.8 C 193.2 537.6, 186.1 542.5, 185.2 541.5 C 183.8 540.1, 195.1 521.5, 202.4 513.5 C 208.9 506.3, 208.7 505.1, 201.7 510 C 193.9 515.7, 181.9 534, 179.5 544.3 C 178.6 547.8, 179.4 547.7, 187.6 544 C 196 540.2, 201.6 535.8, 203.6 531.2 C 204.5 529.2, 209.6 520.6, 214.8 512.2 C 224.2 497.1, 226 492.8, 220.2 499.2 M 226.4 523.3 C 219.5 530.5, 211.7 542, 213.7 542 C 215.3 542, 232 522.2, 232 520.3 C 232 518.1, 230.5 518.9, 226.4 523.3 M 268.7 550.3 C 261.5 562.5, 256.8 572.1, 257.6 572.9 C 258.6 573.9, 263 568.3, 267.1 561 C 279.4 538.7, 278.6 540.5, 276.6 539.7 C 275.7 539.3, 273.1 542.7, 268.7 550.3 M 689.8 548.8 C 689.1 550.6, 687.2 552.6, 685.1 553.7 C 680.7 556, 680.6 557.8, 684.5 560 C 686.3 561, 687.7 562.8, 688.2 564.8 C 689.3 568.9, 694 569.6, 694 565.6 C 694 561.6, 695.1 560, 698.6 558.5 C 702.8 556.8, 703 555, 699.1 555 C 695.5 555, 693 552.7, 693 549.5 C 693 545.8, 691 545.4, 689.8 548.8 M 499.7 552.8 C 495.2 557.4, 495.2 557.9, 499.2 560.5 C 501 561.6, 502.7 563.6, 503 564.9 C 503.8 568.4, 506 568.8, 506 565.4 C 506 563.6, 507.2 561.4, 509.3 559.2 L 512.5 555.8 508.5 552.4 C 503.6 548.3, 504.2 548.2, 499.7 552.8 M 189.2 570.8 C 187.9 571.7, 185.7 573.5, 184.2 574.8 C 173.8 583.6, 166.9 585.7, 159.6 582.5 C 158.2 581.9, 157.9 582.1, 158.2 583.6 C 159 588, 167 589, 174.2 585.6 C 177.5 584, 192.1 571.7, 192.8 569.8 C 193.4 568.4, 191.5 568.9, 189.2 570.8 M 194.3 577.3 C 190.9 581.8, 186 587.8, 183.5 590.7 C 180.5 594.1, 179.3 596.1, 180.1 596.5 C 182.2 597.9, 202 574.1, 202 570.1 C 202 567.8, 200.3 569.4, 194.3 577.3 M 590.2 573.6 C 587.5 576.3, 586.4 578, 587.3 578 C 588.1 578, 590 579.4, 591.3 581 C 594.1 584.2, 596 584.9, 596 582.5 C 596 581.7, 597.4 580.1, 599 578.8 C 602.2 576.5, 602.8 575, 600.8 575 C 600.1 575, 598.4 573.7, 597 572.2 L 594.5 569.3 590.2 573.6 M 309 576.6 C 309 577.5, 307.7 579.5, 306 581 L 303 583.8 305.4 585.4 C 306.8 586.2, 308.7 588.3, 309.6 590 C 311.8 593.7, 312.5 593.7, 314.2 590.3 C 314.9 588.9, 316.4 587.2, 317.5 586.6 C 318.6 586, 319.7 585.4, 320 585.2 C 320.2 585.1, 319.2 583.8, 317.7 582.4 C 316.2 581, 314.3 578.8, 313.4 577.5 C 311.6 574.7, 309 574.2, 309 576.6 M 144.9 595.5 C 142.1 597, 124 616.6, 124 618.1 C 124 619.9, 125.8 618.9, 130.1 614.8 C 132.5 612.4, 138 607.3, 142.4 603.3 C 146.7 599.3, 149.9 595.7, 149.5 595.1 C 148.7 593.7, 148.1 593.8, 144.9 595.5 M 440 596.4 C 440 599.5, 436 602.9, 431.5 603.6 C 426.1 604.4, 425.7 606.1, 430.6 607.9 C 434.4 609.3, 436 612, 436 617.5 C 436 621.6, 437.4 622.7, 439.4 620.3 C 440.2 619.3, 442 617.1, 443.5 615.3 C 445.1 613.3, 447.4 611.8, 449.6 611.4 C 454 610.6, 453.9 609.6, 449 606.8 C 444.9 604.4, 443 601.5, 443 597.5 C 443 595.9, 442.4 595, 441.5 595 C 440.7 595, 440 595.6, 440 596.4 M 255.1 677.3 C 254.5 677.9, 254 679.1, 254 680 C 254 680.8, 253.1 682.3, 252 683.3 C 250.1 684.9, 250.1 685, 252.4 687.3 C 253.7 688.6, 254.9 690.1, 255.1 690.7 C 256.1 693.2, 262.7 690.9, 264.4 687.4 C 266.6 682.7, 266.5 682.3, 263 681.5 C 261.4 681.1, 259.2 679.8, 258.2 678.5 C 256.8 676.7, 256 676.4, 255.1 677.3" stroke="none" fill="#1b1f3a" fill-rule="evenodd"/></svg>