<svg xmlns="http://www.w3.org/2000/svg" viewBox="0 0 768 768" version="1.1" preserveAspectRatio="xMidYMid meet">
	<path d="M 390.791 86.599 C 390.508 87.094, 389.977 88.751, 389.612 90.280 C 389.120 92.336, 388.172 93.216, 385.973 93.655 C 382.373 94.375, 382.123 96.279, 385.431 97.787 C 386.768 98.396, 388.878 100.268, 390.119 101.947 C 392.539 105.221, 395 105.979, 395 103.450 C 395 100.775, 397.892 96.169, 399.989 95.503 C 403.164 94.496, 402.349 93.311, 398 92.616 C 395.718 92.251, 394 91.419, 394 90.679 C 394 88.824, 391.404 85.523, 390.791 86.599 M 575.500 113.655 C 539.385 117.930, 489.032 137.670, 458.484 159.527 C 422.593 185.209, 373.561 241.686, 345.553 289.607 L 343.737 292.715 332.119 293.380 C 289.339 295.828, 256.489 311.008, 226.298 342.280 C 210.428 358.718, 206.444 367.551, 213.404 370.871 C 216.511 372.354, 214.711 372.565, 245.500 367.102 C 262.996 363.997, 282.892 362, 296.329 362 L 308.754 362 308.256 366.420 C 307.825 370.243, 308.274 371.695, 311.574 377.170 C 319.247 389.899, 322.897 394.574, 326.939 396.845 C 331.800 399.578, 331.951 400.714, 327.964 404.535 C 325.689 406.714, 324.541 407.200, 323.386 406.472 C 321.014 404.976, 321.247 403.738, 323.979 403.321 C 326.418 402.949, 328.781 401.371, 327.933 400.680 C 326.611 399.602, 316.128 394, 315.432 394 C 314.979 394, 316.128 395.568, 317.985 397.485 C 322.527 402.170, 321.460 402.709, 316.077 398.449 C 310.608 394.121, 309.220 394.139, 303.875 398.604 C 299.750 402.051, 299.318 402.181, 294.031 401.578 C 290.989 401.231, 286.700 400.304, 284.500 399.518 C 275.988 396.475, 273.301 398.647, 279.064 403.911 L 282.128 406.710 276.670 407.351 C 270.240 408.107, 265.712 407.353, 261.400 404.808 C 259.483 403.677, 257.536 403.234, 256.384 403.666 C 253.856 404.612, 249.120 409.969, 248.393 412.703 C 247.929 414.446, 246.834 415.034, 243.153 415.515 C 240.594 415.849, 234.900 416.762, 230.500 417.542 C 212.086 420.808, 211.899 420.847, 193.500 425.371 C 184.382 427.612, 178.743 429.354, 164 434.480 C 143.222 441.705, 135.911 443.999, 133.611 444.015 C 129.780 444.043, 128.189 445.801, 130.441 447.519 C 131.509 448.334, 133.196 449, 134.191 449 C 137.236 449, 136.267 450.434, 129.526 455.904 C 122.067 461.955, 109.227 475.407, 107.691 478.780 C 105.388 483.832, 113.316 485.877, 124.027 482.993 C 129.164 481.609, 130.101 482.263, 126.337 484.605 C 109.295 495.204, 97.483 505.648, 84 522.038 C 79.325 527.720, 73.363 534.693, 70.750 537.532 C 62.998 545.955, 64.898 546.987, 78.988 542.004 C 83.647 540.357, 90.393 538.731, 93.980 538.392 L 100.500 537.776 94.250 543.673 C 87.163 550.359, 86.016 554.139, 90.459 556.163 L 92.917 557.283 86.913 563.836 C 75.602 576.180, 70.303 588.046, 75.755 588.820 C 76.995 588.996, 80.499 588.209, 83.542 587.070 C 86.585 585.932, 89.337 585, 89.658 585 C 89.979 585, 86.395 588.777, 81.695 593.393 C 72.978 601.954, 68.637 608.501, 69.191 612.248 C 69.786 616.281, 71.959 615.085, 76.324 608.320 C 86.657 592.307, 123.481 565.225, 161.500 545.677 C 171.857 540.352, 172.779 539.622, 177.271 533.198 C 179.895 529.445, 184.058 524.397, 186.521 521.979 C 191.575 517.020, 192.358 515.085, 188.250 517.713 C 183.754 520.589, 177.064 527.115, 172.325 533.250 C 169.882 536.413, 167.435 539, 166.887 539 C 166.339 539, 164.002 539.842, 161.695 540.872 C 159.388 541.901, 154.833 543.725, 151.572 544.924 C 148.312 546.124, 144.133 548.432, 142.285 550.054 C 140.438 551.676, 136.587 554.189, 133.727 555.638 C 130.868 557.087, 126.793 559.368, 124.673 560.706 C 118.399 564.667, 82.888 582.129, 81.827 581.776 C 79.999 581.166, 89.049 569.162, 96.870 561.820 C 104.125 555.010, 111.321 550.518, 121.322 546.556 C 125.509 544.897, 125.438 542.981, 121.191 543.033 C 118.462 543.066, 108.499 546.167, 107.314 547.353 C 106.958 547.709, 105.954 548.003, 105.083 548.006 C 104.212 548.010, 102.211 548.685, 100.636 549.506 C 94.849 552.524, 94.938 550.892, 100.920 544.264 C 109.517 534.739, 109.331 534.232, 96.846 533.183 L 88.719 532.500 97.609 527.585 C 124.267 512.850, 139.276 506, 144.908 506 C 147.931 506, 163.161 499.984, 165.433 497.892 C 167.397 496.085, 164.991 495.945, 159.357 497.539 C 137.982 503.587, 134.612 504.150, 140 500.772 C 141.925 499.565, 143.725 498.333, 144 498.036 C 145.808 496.079, 153.540 491.641, 159.020 489.414 C 170.909 484.584, 183 477.752, 183 475.864 C 183 474.070, 158.730 485.820, 140.630 496.377 C 135.608 499.305, 127.225 504.193, 122 507.237 C 116.775 510.282, 109.831 514.213, 106.568 515.973 C 99.824 519.611, 89.666 526.267, 86.089 529.393 C 82.926 532.157, 84.223 529.913, 90.123 522.414 C 97.271 513.329, 117.717 496.335, 133.573 486.301 C 137.745 483.660, 144.161 479.537, 147.830 477.138 C 158.979 469.848, 186.015 453.832, 194.418 449.539 C 202.068 445.631, 204.928 443, 201.525 443 C 199.935 443, 178.197 454.003, 171.033 458.434 C 169.090 459.636, 164.575 462.107, 161 463.926 C 157.425 465.745, 152.025 468.700, 149 470.493 C 141.902 474.699, 138.644 475.648, 126.500 477.043 C 121 477.675, 116.162 478.401, 115.750 478.655 C 115.338 478.910, 115 478.461, 115 477.657 C 115 476.853, 119.180 472.214, 124.289 467.348 C 129.398 462.482, 135.344 456.363, 137.501 453.750 C 139.658 451.138, 141.891 448.997, 142.462 448.994 C 143.033 448.990, 144.734 448.344, 146.243 447.557 C 147.751 446.770, 152.026 445.135, 155.743 443.924 C 159.459 442.713, 165.650 440.697, 169.500 439.443 C 173.350 438.189, 178.075 436.850, 180 436.466 C 181.925 436.083, 183.950 435.432, 184.500 435.019 C 185.511 434.261, 209.448 428.266, 220.500 426.002 C 223.800 425.326, 228.975 424.198, 232 423.494 C 241.756 421.226, 245.933 420.803, 251.269 421.542 L 256.500 422.267 251.278 424.257 C 248.168 425.442, 243.873 428.320, 240.657 431.373 C 237.353 434.511, 233.366 437.161, 230.379 438.204 C 227.696 439.142, 224.601 440.567, 223.502 441.373 C 220.014 443.927, 222.862 444.466, 227.625 442.152 C 231.282 440.375, 232.500 440.170, 233.664 441.136 C 234.779 442.062, 236.227 442.083, 239.811 441.226 C 242.390 440.609, 246.525 439.804, 249 439.436 C 251.475 439.069, 254.287 438.354, 255.250 437.849 C 258.132 436.335, 257.337 437.392, 249.893 444.970 C 243.143 451.841, 242.528 452.224, 237.643 452.583 C 231.344 453.046, 218.081 457.657, 212.004 461.496 C 205.495 465.607, 208.539 465.665, 218.173 461.613 C 227.216 457.810, 240.852 453.519, 241.581 454.248 C 241.831 454.497, 239.552 458.101, 236.517 462.257 C 229.391 472.015, 229.185 474.014, 235.716 470.032 C 237.484 468.954, 242.034 463.893, 245.826 458.786 C 251.932 450.563, 260.261 441.840, 269.552 433.935 C 271.210 432.525, 275.251 430.279, 278.533 428.945 C 287.417 425.334, 289.274 424.288, 288.097 423.560 C 286.641 422.660, 278.551 425.190, 271.440 428.769 C 268.173 430.414, 263.025 432.256, 260 432.864 C 243.117 436.255, 236 438.124, 236 439.168 C 236 439.626, 235.298 440, 234.441 440 C 231.902 440, 233.750 438.237, 237.633 436.956 C 239.616 436.301, 244.931 433.559, 249.444 430.863 C 255.474 427.258, 260.278 425.305, 267.574 423.490 C 273.033 422.132, 280.486 419.969, 284.136 418.683 L 290.772 416.344 292.524 419.310 C 293.488 420.941, 295.002 423.020, 295.888 423.929 C 303.354 431.585, 307.998 437.497, 307.987 439.331 C 307.980 440.524, 306.630 444.151, 304.987 447.391 C 303.344 450.631, 302 453.803, 302 454.441 C 302 455.078, 297.781 459.494, 292.625 464.255 C 287.456 469.027, 279.941 477.410, 275.875 482.941 C 267.629 494.156, 266.491 495.010, 268.447 488.510 C 270.821 480.622, 279.045 467.911, 286.405 460.754 C 294.297 453.080, 294.542 451.454, 287.117 456.023 C 280.481 460.106, 272.946 468.634, 269.153 476.352 C 266.119 482.528, 261 497.109, 261 499.577 C 261 500.887, 255.043 506, 253.516 506 C 251.730 506, 254.978 490.395, 258.303 483 C 265.561 466.859, 275.550 453.847, 285.748 447.249 C 289.535 444.799, 291.373 442, 289.196 442 C 287.399 442, 279.110 448.084, 273 453.888 C 269.425 457.283, 264.052 461.285, 261.060 462.781 C 254.005 466.307, 250.078 470.441, 246.169 478.458 C 240.511 490.063, 243.189 492.062, 249.460 480.914 C 253.251 474.175, 262.559 463.225, 263.606 464.273 C 263.881 464.548, 262.057 467.940, 259.553 471.812 C 257.049 475.683, 255 479.153, 255 479.524 C 255 479.895, 254.345 481.616, 253.545 483.349 C 250.375 490.211, 248.932 495.860, 248.331 503.750 C 247.559 513.892, 247.740 513.948, 260.564 507.523 C 265.479 505.061, 270.497 503.036, 271.715 503.023 C 281.044 502.926, 307 488.427, 307 483.313 C 307 481.280, 305.087 481.749, 301.676 484.619 C 294.573 490.596, 267 501.255, 267 498.024 C 267 497.623, 270.049 493.742, 273.775 489.398 C 277.501 485.054, 281.952 479.700, 283.665 477.500 C 285.378 475.300, 291.795 468.325, 297.925 462 C 304.054 455.675, 309.316 449.375, 309.618 448 C 310.773 442.738, 310.843 442.708, 314.751 445.779 C 316.813 447.400, 319.962 449.474, 321.750 450.389 C 325.872 452.497, 325.839 452.781, 320.921 457.547 C 312.455 465.751, 313.847 468.657, 322.582 461.014 C 329.459 454.995, 328.803 455.043, 336.942 459.971 C 348.038 466.689, 348.480 467.168, 346.723 470.587 C 345.006 473.931, 342.830 482.109, 339.911 496.195 C 337.835 506.217, 334.857 514.352, 332.802 515.623 C 332.011 516.111, 331.899 515.740, 332.439 514.414 C 334.592 509.119, 337.624 492.290, 336.607 491.274 C 335.291 489.958, 330.305 502.066, 331.420 503.870 C 331.688 504.304, 331.241 506.871, 330.427 509.575 C 329.614 512.279, 329.034 516.068, 329.139 517.995 C 329.381 522.411, 317.183 542.516, 315.365 540.698 C 315.010 540.344, 317.298 533.269, 323.626 515.155 C 324.461 512.766, 324.889 510.556, 324.578 510.245 C 323.694 509.361, 320.297 512.853, 318.648 516.341 C 309.914 534.807, 306.365 543.394, 305.561 548 C 304.960 551.445, 298.298 562.631, 297.389 561.722 C 297.133 561.466, 298.740 557.744, 300.962 553.452 C 305.399 544.878, 305.724 543.492, 303.504 542.640 C 302.447 542.234, 300.193 544.775, 295.836 551.283 C 287.208 564.168, 266.816 588.399, 268.722 583.500 C 269.150 582.400, 273.845 572.725, 279.156 562 C 284.467 551.275, 289.139 541.375, 289.539 540 C 290.835 535.543, 286.844 540.116, 280.999 549.784 C 271.296 565.833, 265.126 574.455, 259.040 580.469 C 252.383 587.047, 252.128 586.869, 254.009 576.953 C 255.986 566.529, 253.801 565.497, 248.283 574.250 C 242.084 584.084, 233.397 594.470, 215.804 613.082 C 201.991 627.696, 177.241 650.574, 176.282 649.615 C 174.851 648.184, 187.246 629.865, 194.925 622.061 C 214.881 601.782, 233.470 579.609, 245.696 561.500 C 247.924 558.200, 255.231 549.650, 261.935 542.500 C 273.735 529.912, 286.316 511.982, 284.571 510.238 C 283.743 509.410, 282.174 511.338, 273.779 523.500 C 270.362 528.450, 262.801 537.516, 256.977 543.646 C 251.153 549.776, 244.620 557.426, 242.459 560.646 C 235.269 571.362, 219.601 590.695, 206.917 604.500 C 204.391 607.250, 200.338 611.709, 197.912 614.408 C 195.485 617.108, 190.181 622.508, 186.125 626.408 C 180.190 632.115, 170.411 643.071, 159.826 655.874 C 157.336 658.885, 151 672.253, 151 674.495 C 151 679.348, 152.927 677.700, 160.073 666.733 C 169.421 652.385, 169.678 652.130, 169.579 657.319 C 169.523 660.229, 169.942 661.528, 171.005 661.745 C 175.418 662.645, 226.357 613.800, 239.955 595.629 C 247.731 585.238, 249.657 583.317, 248.481 587.125 C 247.633 589.870, 242.126 597.671, 239.109 600.402 C 236.752 602.535, 237.182 604, 240.165 604 C 243.567 604, 249.850 598.164, 255.669 589.601 C 258.695 585.145, 260.860 582.625, 260.479 584 C 259.623 587.088, 255.171 594.292, 248.428 603.500 C 240.762 613.967, 237.518 621, 240.355 621 C 241.995 621, 247.764 614.414, 255.903 603.250 C 259.374 598.490, 261.866 596, 263.160 596 C 266.452 596, 268.670 594.278, 275.099 586.731 C 288.772 570.681, 292.173 567.173, 294.669 566.547 C 299.221 565.405, 313.663 553.224, 319.983 545.197 C 323.316 540.964, 326.477 536.964, 327.006 536.309 C 335.366 525.967, 343.235 510.230, 345.411 499.500 C 346.303 495.100, 347.459 489.475, 347.980 487 C 348.501 484.525, 349.208 480.437, 349.552 477.915 C 350.511 470.885, 351.099 470.422, 355.700 473.070 C 359.958 475.521, 362.980 475.196, 363.032 472.281 C 363.106 468.133, 379.033 452, 383.054 452 C 384.970 452, 388.968 449.693, 395.679 444.716 C 402.808 439.428, 406.452 437.363, 408.973 437.183 C 410.883 437.046, 413.937 436.055, 415.759 434.980 C 420.087 432.426, 420.433 433.329, 419.718 445.317 C 419.161 454.659, 416.880 462.115, 410.330 476 C 408.903 479.025, 406.197 484.875, 404.316 489 C 402.435 493.125, 400.501 497.232, 400.017 498.127 C 396.111 505.348, 398.610 510.632, 405.422 509.558 C 413.696 508.253, 442.625 494.733, 457.500 485.220 C 478.993 471.475, 494.025 452.903, 497.148 436.234 C 499.441 423.999, 497.685 415.770, 487.746 392.175 L 481.711 377.850 487.176 372.175 C 503.600 355.118, 528.176 323.920, 540.880 304 C 556.016 280.267, 558.644 275.895, 563.418 266.500 C 571.046 251.490, 576.273 239.579, 580.973 226.500 C 582.752 221.550, 584.601 216.600, 585.081 215.500 C 587.932 208.972, 594.531 184.139, 595.577 176 C 595.966 172.975, 596.645 169.525, 597.086 168.333 C 599.070 162.968, 601.237 130.660, 600.081 123.663 C 598.293 112.832, 598.461 112.975, 587.715 113.150 C 582.647 113.232, 577.150 113.459, 575.500 113.655 M 149.223 115.995 C 130.234 120.033, 116.616 138.163, 116.545 159.500 C 116.384 207.660, 180.616 222.394, 202.140 179.135 C 209.564 164.215, 205.410 141.386, 193.015 128.983 C 181.648 117.609, 164.939 112.653, 149.223 115.995 M 148.500 120.726 C 137.806 123.972, 129.443 131.534, 124.235 142.667 C 119.898 151.937, 120.250 167.754, 125.005 177.331 C 131.973 191.364, 145.669 200.014, 160.872 199.985 C 176.541 199.956, 189.184 192.604, 196.783 179.104 C 200.474 172.546, 200.500 172.420, 200.500 161 C 200.500 149.936, 200.373 149.248, 197.143 142.856 C 187.649 124.068, 167.576 114.936, 148.500 120.726 M 572.500 121.509 C 551.013 125.057, 521.421 134.687, 495.314 146.628 C 492.462 147.933, 489.762 149.010, 489.314 149.022 C 488.866 149.034, 487.468 149.838, 486.207 150.809 L 483.915 152.573 496.707 160.359 C 503.743 164.641, 523.225 176.443, 540 186.586 C 556.775 196.730, 571.719 205.922, 573.210 207.014 C 576.950 209.756, 577.604 209.550, 578.799 205.250 C 579.372 203.188, 581.246 196.775, 582.963 191 C 588.926 170.947, 593.548 140.675, 592.812 126.500 L 592.500 120.500 586.500 120.344 C 583.200 120.258, 576.900 120.782, 572.500 121.509 M 353.667 141.667 C 353.300 142.033, 352.986 143.721, 352.968 145.417 C 352.929 149.186, 351.498 151.177, 347.250 153.372 C 343.213 155.458, 343.114 156.873, 346.949 157.640 C 350.395 158.329, 352.363 160.328, 353.702 164.500 C 355.015 168.588, 358 169.141, 358 165.296 C 358 161.408, 360.399 158.291, 364.001 157.500 C 367.598 156.710, 367.953 154.277, 364.595 153.434 C 361.382 152.628, 358.510 149.325, 357.046 144.750 C 355.874 141.091, 355.021 140.313, 353.667 141.667 M 461.500 167.160 C 437.833 184.748, 411.278 211.961, 389.933 240.500 C 366.232 272.189, 338 315.373, 338 319.935 C 338 324.998, 368.621 358, 373.319 358 C 373.665 358, 377.449 355.188, 381.727 351.750 C 398.872 337.973, 397.759 338.657, 400.913 339.964 C 408.275 343.014, 411.275 350.076, 408.018 356.692 C 403.560 365.747, 388.362 388.536, 380.343 398.189 C 375.204 404.375, 371 409.783, 371 410.206 C 371 411.820, 385.026 419.274, 404.390 427.951 L 409.280 430.142 413.390 426.212 C 415.650 424.051, 423.350 417.645, 430.500 411.977 C 466.045 383.798, 495.740 353.067, 517.926 321.500 C 521.405 316.550, 525.539 310.700, 527.113 308.500 C 540.592 289.664, 547.738 277.675, 559.600 254 C 566.478 240.271, 566.716 239.717, 571.611 226.004 C 575.691 214.571, 575.684 214.696, 572.286 212.919 C 570.793 212.139, 565.731 209.146, 561.036 206.269 C 556.341 203.391, 549.575 199.381, 546 197.358 C 539.191 193.504, 495.362 167.299, 483.768 160.151 C 480.066 157.868, 476.916 156.003, 476.768 156.007 C 476.621 156.010, 469.750 161.030, 461.500 167.160 M 105.517 199.598 C 104.453 201.574, 102.912 203, 101.843 203 C 100.829 203, 100 203.675, 100 204.500 C 100 205.413, 100.931 206, 102.378 206 C 105.164 206, 106.673 207.555, 107.154 210.922 C 107.681 214.610, 109.442 214.433, 110.846 210.550 C 111.861 207.743, 112.770 206.946, 115.552 206.424 C 119.536 205.677, 120.192 204, 116.500 204 C 113.792 204, 110 200.854, 110 198.607 C 110 195.678, 107.308 196.273, 105.517 199.598 M 447.124 211.524 C 435.515 215.852, 429.345 221.039, 421.578 233 C 414.927 243.243, 413.498 247.940, 413.515 259.500 C 413.537 273.787, 417.738 284.013, 427.034 292.412 C 453.590 316.404, 492.016 304.566, 504.113 268.667 C 507.345 259.075, 506.551 240.827, 502.542 232.542 C 494.986 216.931, 481.412 208.925, 462.746 209.073 C 455.596 209.130, 452.054 209.685, 447.124 211.524 M 672.750 214.392 C 671.788 215.123, 671 216.292, 671 216.991 C 671 217.920, 669.993 218.069, 667.250 217.544 C 665.188 217.149, 661.475 216.442, 659 215.972 C 640.282 212.423, 622.505 226.151, 622.705 244 C 622.794 251.940, 623.815 254.680, 628.705 260.105 C 639.556 272.141, 657.616 272.344, 670.703 260.577 C 676.775 255.118, 685 239.650, 685 233.690 L 685 230 689.378 230 C 692.080 230, 694.239 229.417, 695.020 228.476 C 696.649 226.513, 695.812 225.738, 690.680 224.455 C 687.029 223.543, 686.437 223.001, 686 220.181 C 685.133 214.579, 677.117 211.077, 672.750 214.392 M 674.546 217.342 C 672.947 218.512, 672.852 219.136, 673.838 221.966 C 674.465 223.765, 674.723 226.255, 674.411 227.500 C 673.626 230.627, 680.031 231.550, 683.513 228.811 C 684.779 227.815, 686.644 226.992, 687.658 226.983 C 689.007 226.971, 688.630 226.409, 686.250 224.885 C 684.462 223.740, 683 222.259, 683 221.593 C 683 217.930, 677.515 215.172, 674.546 217.342 M 447.685 219.619 C 420.914 227.845, 410.706 262.850, 428.681 284.786 C 443.597 302.989, 468.315 303.609, 485.056 286.200 C 508.696 261.619, 502.353 229.334, 472.004 219.765 C 465.314 217.656, 454.289 217.589, 447.685 219.619 M 646.500 219.355 C 637.884 221.545, 631.128 226.938, 627 234.918 C 625.203 238.393, 625.422 248.982, 627.369 252.746 C 630.968 259.707, 642.127 265.998, 650.877 265.999 C 660.257 266.001, 673.827 256.190, 677.134 247.017 C 677.633 245.632, 678.514 243.570, 679.092 242.433 C 679.670 241.296, 679.998 238.596, 679.821 236.433 L 679.500 232.500 674.193 232.642 C 669.233 232.774, 668.988 232.671, 670.443 231.063 C 676.919 223.907, 660.388 215.824, 646.500 219.355 M 449 221.879 C 439.102 225.122, 430.744 232.615, 425.899 242.588 C 421.197 252.267, 420.932 266.307, 425.283 275.166 C 428.909 282.548, 438.804 291.875, 445.536 294.255 C 457.631 298.531, 473.618 295.565, 482.315 287.431 C 486.127 283.866, 485.092 283.319, 480.471 286.455 C 469.538 293.874, 453.561 294.605, 443 288.170 C 436.479 284.196, 426.564 272.103, 428.357 270.310 C 428.629 270.037, 429.517 271.100, 430.330 272.671 C 432.595 277.051, 442.452 285.870, 447.655 288.171 C 458.131 292.806, 474.250 289.933, 483.512 281.781 C 502.945 264.675, 498.545 234.900, 475 224.181 C 469.125 221.506, 454.177 220.183, 449 221.879 M 265.068 227.873 C 264.480 228.971, 264 230.503, 264 231.279 C 264 233.528, 260.558 236.035, 256.586 236.680 C 252.176 237.395, 252.398 239.108, 257.080 240.490 C 262.190 241.999, 262.899 242.712, 264.124 247.576 C 265.409 252.681, 265.839 253.116, 268.826 252.335 C 270.248 251.963, 271 250.986, 271 249.508 C 271 243.373, 272.118 241.281, 276.100 239.967 C 281.541 238.171, 280.684 236, 274.533 236 C 272.022 236, 269.392 232.767, 268.843 229.005 C 268.396 225.941, 266.419 225.349, 265.068 227.873 M 449.948 229.097 C 443.664 230.881, 436.852 236.942, 433.163 244.031 C 430.048 250.018, 429.833 251.022, 430.285 257.500 C 431.023 268.092, 434.694 273.921, 444.943 280.781 C 450.275 284.349, 450.844 284.500, 459 284.488 C 474.929 284.466, 486.094 274.484, 487.658 258.867 C 489.538 240.098, 468.815 223.739, 449.948 229.097 M 135.256 239.737 C 134.288 241.793, 132.259 244.068, 130.748 244.792 C 127.537 246.331, 127.141 248, 129.987 248 C 132.065 248, 137 254.671, 137 257.480 C 137 260.624, 138.851 258.844, 139.485 255.089 C 140.183 250.955, 142.247 248.437, 145.417 247.853 C 148.048 247.368, 148.675 245, 146.172 245 C 144.001 245, 139 239.717, 139 237.423 C 139 234.764, 137.022 235.986, 135.256 239.737 M 722.457 272.250 C 721.845 274.327, 720.116 276.392, 717.667 277.971 L 713.834 280.443 716.927 281.907 C 718.829 282.808, 720.667 284.840, 721.702 287.186 C 723.770 291.872, 724.383 291.913, 727.241 287.554 C 728.483 285.658, 731.046 283.224, 732.935 282.144 L 736.370 280.181 732.621 278.615 C 729.842 277.454, 728.436 276.011, 727.186 273.035 C 725.141 268.165, 723.728 267.931, 722.457 272.250 M 76.549 292.511 C 74.593 297.633, 73.412 298.467, 66.750 299.433 C 60.618 300.323, 60.562 302.314, 66.590 305.147 C 72.242 307.804, 72.765 309.026, 70.097 313.343 C 66.715 318.816, 68.095 319.781, 73.182 315.500 C 77.031 312.262, 77.577 312.329, 81.269 316.500 C 84.576 320.235, 88.849 321.446, 87.445 318.250 C 87.022 317.288, 86.477 314.809, 86.232 312.743 C 85.793 309.026, 85.849 308.959, 91.451 306.394 C 98.914 302.977, 99.091 299.798, 91.863 298.967 C 86.165 298.311, 84.344 296.881, 82.846 291.881 C 81.231 286.491, 78.753 286.739, 76.549 292.511 M 77.482 297.366 C 76.346 299.130, 73.942 301.022, 71.982 301.694 C 70.067 302.350, 69.209 302.913, 70.075 302.944 C 70.941 302.975, 72.372 303.788, 73.255 304.750 C 74.138 305.712, 75.996 307.738, 77.385 309.250 C 80.494 312.637, 81.606 312.706, 82.395 309.562 C 82.761 308.104, 84.647 306.203, 87.085 304.832 L 91.163 302.540 87.832 301.685 C 84.088 300.724, 81 298.337, 81 296.404 C 81 293.868, 79.465 294.288, 77.482 297.366 M 662.609 297.720 L 659.719 301.097 662.546 304.048 C 666.058 307.713, 666.670 307.695, 670.955 303.801 C 674.148 300.900, 674.271 300.579, 672.571 299.581 C 671.560 298.986, 669.555 297.565, 668.116 296.421 L 665.500 294.343 662.609 297.720 M 322 301.694 C 286.780 305.462, 251.800 324.358, 228.385 352.266 C 224.323 357.107, 221 361.565, 221 362.172 C 221 363.367, 229.636 362.690, 236 360.995 C 249.793 357.322, 280.876 354.014, 301.671 354.005 L 313.841 354 314.536 350.750 C 314.918 348.962, 315.572 347.050, 315.989 346.500 C 316.406 345.950, 318.343 341.450, 320.295 336.500 C 324.450 325.961, 328.546 318.059, 334.618 308.866 C 337.028 305.217, 339 301.954, 339 301.616 C 339 300.981, 328.199 301.031, 322 301.694 M 165.243 327.383 C 163.983 332.093, 161.076 333.794, 156.673 332.396 C 154.761 331.789, 154.671 331.899, 155.880 333.356 C 156.631 334.260, 157.865 335, 158.622 335 C 160.392 335, 160.356 335.527, 158.385 338.535 C 156.850 340.879, 156.871 341, 158.820 341 C 162.905 341, 166.329 339.101, 165.042 337.550 C 164.127 336.448, 164.230 335.579, 165.505 333.632 L 167.145 331.130 169.905 334.220 C 173.034 337.722, 172.332 342.161, 168.796 341.236 C 167.561 340.914, 166.968 341.350, 166.899 342.633 C 166.356 352.638, 169.316 357.109, 170.699 348.374 C 171.291 344.635, 173.864 341.500, 180.203 336.795 L 182.500 335.089 178.885 335.045 C 173.884 334.983, 170.334 331.939, 169.499 326.996 C 168.612 321.744, 166.704 321.917, 165.243 327.383 M 501.768 328.109 C 499.420 330.533, 495.493 334.762, 493.039 337.508 C 486.780 344.512, 462.177 371.021, 453.603 380 C 440.967 393.232, 419.363 411.584, 411 416.191 C 406.096 418.892, 404.935 421.672, 408.892 421.237 C 414.628 420.605, 443.542 395.857, 463 374.924 C 469.325 368.119, 476.440 360.515, 478.812 358.026 C 487.195 349.227, 507.265 324.931, 506.654 324.321 C 506.314 323.980, 504.115 325.685, 501.768 328.109 M 331.250 328.956 C 328.360 334.017, 328.416 336.603, 331.540 342.478 C 337.070 352.879, 353.476 372, 356.871 372 C 357.804 372, 361.014 369.524, 364.003 366.497 L 369.437 360.994 366.969 359.324 C 362.463 356.276, 342.166 335.800, 338.302 330.405 C 333.725 324.014, 334.035 324.078, 331.250 328.956 M 322.525 351.250 C 321.067 355.238, 319.228 359.978, 318.437 361.784 C 316.152 367.006, 316.633 369.471, 320.624 372.974 C 327.373 378.901, 335.088 388.421, 334.627 390.254 C 334.324 391.457, 334.920 392.193, 336.524 392.595 C 338.463 393.082, 340.029 391.951, 345.682 385.977 C 354.926 376.207, 354.783 376.683, 349.784 372.302 C 342.040 365.516, 333.968 356.604, 329.811 350.250 C 327.562 346.813, 325.599 344, 325.448 344 C 325.298 344, 323.982 347.262, 322.525 351.250 M 389.121 352.643 C 379.970 360.085, 378.991 362.350, 387.502 356.390 C 390.557 354.251, 393.719 352.052, 394.528 351.505 C 396.345 350.277, 399.349 351.944, 399.842 354.454 C 400.103 355.783, 399.720 356.046, 398.213 355.568 C 396.847 355.134, 394.170 356.332, 389.489 359.471 C 385.774 361.962, 381.924 364, 380.933 364 C 375.590 364, 368.181 370.228, 353.739 386.860 C 334.319 409.225, 328.550 417.480, 329.208 421.961 C 329.528 424.144, 329.266 424.621, 327.938 424.274 C 326.133 423.801, 322 429.435, 322 432.368 C 322 433.266, 321.316 434, 320.481 434 C 318.595 434, 319.361 429.992, 322.128 425.382 C 324.208 421.918, 324.511 420.566, 323 421.500 C 321.587 422.373, 321.753 419.647, 323.200 418.200 C 323.860 417.540, 324.053 417, 323.629 417 C 320.546 417, 314.217 430.959, 315.487 434.959 C 316.201 437.209, 327.543 447, 329.435 447 C 330.127 447, 331.101 446.131, 331.597 445.070 C 332.094 444.008, 336.776 438.721, 342.001 433.320 C 347.227 427.919, 354.859 419, 358.960 413.500 C 363.062 408, 366.677 403.275, 366.993 403 C 367.309 402.725, 369.353 400.250, 371.534 397.500 C 373.715 394.750, 375.731 392.275, 376.014 392 C 377.987 390.079, 385.359 380.482, 388.687 375.500 C 406.082 349.464, 404.987 351.679, 402.025 348.527 C 398.736 345.026, 398.328 345.156, 389.121 352.643 M 468.500 389.700 C 464.650 393.260, 456.775 400.064, 451 404.820 C 445.225 409.576, 439.150 414.667, 437.500 416.132 C 435.850 417.598, 432.475 420.340, 430 422.225 C 426.546 424.857, 425.565 426.217, 425.781 428.077 C 427.685 444.505, 426.940 452.656, 422.314 466 C 419.562 473.939, 412.972 488.195, 409.222 494.324 C 404.062 502.755, 407.355 502.163, 432.226 490.190 C 460.685 476.489, 475.551 463.787, 484.705 445.347 C 489.359 435.972, 489.453 435.596, 489.382 426.640 C 489.300 416.454, 488.325 412.945, 481 396.500 C 479.169 392.388, 476.246 385.461, 475.879 384.364 C 475.671 383.739, 472.350 386.140, 468.500 389.700 M 305.856 403.228 C 305.110 403.942, 303.262 405.318, 301.750 406.286 C 297.862 408.775, 297.968 414.100, 302.029 420.230 C 305.986 426.204, 307.998 427.935, 308.006 425.372 C 308.013 423.386, 308.972 421.316, 313.341 413.862 L 316.059 409.224 313.405 406.070 C 311.945 404.335, 310.511 403.156, 310.218 403.449 C 309.924 403.743, 309.128 403.521, 308.448 402.957 C 307.588 402.243, 306.799 402.326, 305.856 403.228 M 286.959 410.005 C 285.011 411.011, 281.074 412.321, 278.209 412.917 C 275.344 413.513, 270.756 414.469, 268.012 415.043 C 261.050 416.499, 256.978 418.349, 257.808 419.679 C 258.740 421.171, 268.815 419.213, 283 414.783 C 290.336 412.491, 291.331 411.846, 290.844 409.694 C 290.546 408.377, 290.031 408.418, 286.959 410.005 M 65 414.453 C 65 419.223, 62.966 421.889, 58.681 422.736 C 53.526 423.756, 52.913 425.647, 57.162 427.427 C 61.332 429.174, 64.644 432.665, 65.534 436.250 C 66.476 440.045, 67.504 439.697, 69.407 434.940 C 70.563 432.051, 71.542 430.966, 72.801 431.179 C 73.774 431.344, 75.667 430.456, 77.009 429.206 C 79.971 426.447, 78.849 423.684, 74.559 423.175 C 72.334 422.911, 71.355 421.834, 69.337 417.425 C 66.681 411.624, 65 410.472, 65 414.453 M 366.451 415.080 C 366.073 415.691, 366.379 416.807, 367.132 417.558 C 369.434 419.858, 391.750 430.934, 396.008 431.890 C 400.272 432.848, 402.570 431.633, 398.773 430.428 C 394.304 429.010, 383.352 423.613, 376 419.205 C 371.875 416.733, 368.194 414.543, 367.819 414.339 C 367.445 414.134, 366.829 414.468, 366.451 415.080 M 360.186 424.214 C 359.534 424.866, 359 425.925, 359 426.567 C 359 427.931, 370 435.487, 378.594 440.027 L 384.573 443.185 388.285 440.994 C 391.987 438.810, 392.397 437.003, 389.191 436.996 C 387.429 436.992, 381.750 434.243, 368.936 427.190 C 363.102 423.979, 361.101 423.299, 360.186 424.214 M 354.119 430.357 C 352.566 432.228, 358.378 436.617, 369.732 442.145 C 380.207 447.246, 383.548 446.854, 374.335 441.606 C 365.576 436.616, 360.043 433.075, 357.400 430.767 C 355.602 429.197, 355.130 429.138, 354.119 430.357 M 280.363 439.953 C 274.909 441.254, 264.779 447.679, 256.500 455.088 C 252.100 459.026, 246.123 464.056, 243.219 466.267 C 234.821 472.660, 230.727 476.713, 231.922 477.452 C 232.515 477.818, 233.007 477.754, 233.015 477.309 C 233.024 476.864, 233.451 477.164, 233.964 477.976 C 235.344 480.159, 239.814 476.680, 258.497 458.884 C 269.109 448.776, 278.147 442.683, 287 439.669 C 289.320 438.879, 283.891 439.111, 280.363 439.953 M 348.164 445.553 C 345.947 447.989, 342.978 450.508, 341.566 451.152 C 338.007 452.774, 337.986 452.746, 348.225 459.851 L 357.378 466.201 359.416 463.351 C 360.538 461.783, 363.582 458.282, 366.182 455.572 L 370.908 450.644 365.296 447.814 C 362.210 446.257, 359.178 444.563, 358.559 444.049 C 354.509 440.688, 352.301 441.007, 348.164 445.553 M 473.431 455.344 C 467.545 462.135, 456.151 471.758, 443.086 480.971 C 438.720 484.049, 441.250 484.051, 446.750 480.973 C 459.280 473.961, 470.295 464.422, 478.354 453.606 C 481.911 448.831, 482.769 446.904, 481.250 447.094 C 480.837 447.145, 477.319 450.858, 473.431 455.344 M 206.500 456.399 C 198.657 460.127, 193.387 464.960, 194.370 467.522 C 194.902 468.909, 195.507 468.684, 198.286 466.063 C 200.094 464.358, 204.448 461.284, 207.961 459.231 C 211.475 457.179, 214.534 454.938, 214.758 454.250 C 215.355 452.425, 214.265 452.708, 206.500 456.399 M 648.500 458.531 C 646.850 459.883, 645.050 460.999, 644.500 461.010 C 639.838 461.105, 641.337 466.317, 647.704 472.149 C 649.242 473.557, 651.063 475.563, 651.750 476.605 C 652.973 478.459, 653.027 478.458, 654.250 476.539 C 655.503 474.572, 659.292 470.699, 662.481 468.125 C 664.037 466.868, 663.727 466.286, 658.876 461.375 C 652.832 455.255, 652.581 455.186, 648.500 458.531 M 649.263 462.312 C 645.253 465.022, 645.254 465.054, 649.376 469.176 L 652.753 472.553 656.348 469.445 L 659.943 466.337 656.674 463.169 C 652.859 459.471, 653.378 459.531, 649.263 462.312 M 178 470.734 C 176.625 470.989, 172.125 472.086, 168 473.174 C 163.875 474.261, 158.914 475.488, 156.975 475.900 C 155.035 476.312, 152.560 477.207, 151.475 477.888 C 147.321 480.494, 162.352 477.991, 178.750 473.345 C 186.318 471.201, 185.772 469.298, 178 470.734 M 191.500 473.954 C 187.552 475.587, 180.432 485.588, 179.344 491.029 C 178.828 493.611, 179.041 494, 180.974 494 C 183.339 494, 197.770 487.047, 207.131 481.398 C 210.228 479.529, 213.153 477.998, 213.631 477.995 C 214.109 477.992, 215.850 476.836, 217.500 475.425 L 220.500 472.860 217.389 473.377 C 213.776 473.978, 204.976 477.978, 196.731 482.767 C 193.559 484.610, 189.372 486.782, 187.427 487.595 C 183.098 489.404, 183.510 488.231, 189.934 480.457 C 193.202 476.502, 195.162 472.705, 193.750 473.063 C 193.613 473.098, 192.600 473.499, 191.500 473.954 M 210 485.096 C 204.225 488.428, 196.350 492.776, 192.500 494.758 C 188.650 496.739, 181.900 500.670, 177.500 503.492 C 173.100 506.314, 164.374 511.521, 158.108 515.062 C 138.070 526.387, 130.339 535.777, 135.468 542.559 C 136.879 544.425, 136.938 544.398, 136.968 541.863 C 137.035 536.292, 142.840 530.027, 156.500 520.781 C 171.302 510.763, 191.734 498.263, 203.500 492.029 C 211.415 487.835, 224 480.058, 224 479.361 C 224 477.867, 218.934 479.942, 210 485.096 M 329.526 486.958 C 328.152 489.135, 324.275 494.114, 320.911 498.023 C 314.509 505.462, 314.140 506.505, 318.276 505.467 C 322.793 504.333, 332.068 492.664, 334.472 485.089 C 335.644 481.395, 332.221 482.689, 329.526 486.958 M 318.213 489 C 317.055 490.375, 312.632 495.712, 308.383 500.859 C 299.251 511.922, 291.111 520.445, 290.377 519.711 C 289.006 518.339, 295.700 507.678, 302.439 500.500 C 310.124 492.314, 310.987 491, 308.679 491 C 303.723 491, 285 517.555, 285 524.583 C 285 528.693, 293.567 523.591, 303.158 513.769 C 306.921 509.915, 310 506.435, 310 506.036 C 310 505.637, 311.142 504.004, 312.538 502.406 C 313.934 500.807, 316.445 497.133, 318.118 494.239 C 321.527 488.342, 321.588 484.992, 318.213 489 M 209.636 495.506 C 208.060 496.328, 206.413 497, 205.975 497 C 204.616 497, 189.916 504.110, 184.499 507.387 C 174.468 513.456, 167 521.414, 167 526.035 C 167 529.379, 168.544 530.011, 169.484 527.051 C 170.788 522.943, 184.648 511.428, 193.677 506.952 C 203.127 502.267, 216 495.021, 216 494.386 C 216 493.474, 212.274 494.130, 209.636 495.506 M 233.543 497.096 C 230.340 499.909, 220.653 512.344, 213.754 522.500 C 212.260 524.700, 209.845 527.850, 208.387 529.500 C 205.288 533.009, 201.949 540.145, 199.596 548.284 C 197.893 554.178, 198.090 556, 200.432 556 C 202.096 556, 216.376 547.456, 218.017 545.479 C 219.539 543.646, 221.698 543.425, 220.260 545.250 C 218.761 547.153, 215 559.964, 215 563.168 C 215 565.319, 215.474 566, 216.969 566 C 219.146 566, 226.515 562.508, 229.250 560.180 C 231.782 558.025, 231.398 560.072, 228.545 563.939 C 227.195 565.769, 213.780 579.919, 198.735 595.383 C 183.690 610.848, 168.265 626.875, 164.458 631 C 160.650 635.125, 153.252 643, 148.018 648.500 C 136.633 660.462, 133.311 664.286, 130 669.243 C 127.371 673.180, 125.509 674.212, 126.379 671.250 C 126.662 670.288, 127.204 667.749, 127.584 665.609 C 130.352 650.027, 137.318 640.471, 156.165 626.403 C 167.143 618.209, 166.189 616.597, 154.644 623.831 C 146.901 628.683, 142.966 630.740, 127.500 638.020 C 120.350 641.386, 106.424 648.145, 96.553 653.040 C 86.682 657.934, 78.433 661.767, 78.222 661.555 C 77.791 661.125, 79.936 656.775, 80.961 656 C 81.325 655.725, 83.364 652.575, 85.494 649 C 93.460 635.625, 105.901 622.210, 125.744 605.599 C 130.278 601.803, 135.754 596.359, 137.912 593.501 C 140.070 590.642, 144.460 586.592, 147.668 584.500 C 150.875 582.408, 156.650 578.136, 160.500 575.007 C 164.350 571.877, 170.088 567.607, 173.250 565.517 C 183.550 558.710, 179.436 558.292, 168.352 565.020 C 159.389 570.461, 151.686 576.735, 123 601.962 C 110.646 612.827, 109 614.205, 109 613.689 C 109 612.089, 116.345 594.277, 117.556 592.938 C 121.587 588.484, 116.400 587.669, 108.232 591.472 C 103.537 593.658, 92.967 600.629, 87.500 605.146 C 75.224 615.287, 71.513 618.963, 67.581 624.879 C 60.789 635.095, 61.713 637.572, 69.229 629.299 C 81.550 615.738, 96.685 602.837, 106.140 597.836 C 109.028 596.308, 111.546 595.213, 111.735 595.402 C 112.365 596.032, 107.219 608.692, 104.736 612.623 C 103.389 614.756, 98.241 621.923, 93.296 628.551 C 83.591 641.561, 69.321 662.527, 66.652 667.700 C 62.784 675.195, 65.910 675.889, 77 669.999 C 81.125 667.808, 93.725 661.494, 105 655.967 C 116.275 650.440, 126.331 645.455, 127.347 644.890 C 130.258 643.270, 130.156 644.137, 126.567 651.549 C 118.035 669.168, 118.136 697.921, 126.678 683.242 C 129.909 677.690, 138.812 666.837, 149.846 655 C 155.229 649.225, 163.270 640.450, 167.713 635.500 C 172.157 630.550, 178.136 624.250, 181 621.500 C 183.864 618.750, 189.262 612.874, 192.994 608.442 C 196.726 604.009, 203.557 596.584, 208.175 591.942 C 231.447 568.540, 240.981 556, 235.500 556 C 232.885 556, 233.790 554.774, 243 545.840 C 251.259 537.829, 253.388 535, 251.157 535 C 249.064 535, 235.048 545.947, 227.891 553.171 C 219.183 561.961, 218.353 561.728, 223.394 551.906 C 228.652 541.661, 231.183 538.109, 239.351 529.520 C 243.547 525.107, 246.557 521.157, 246.085 520.685 C 245.289 519.889, 226.178 537.028, 223.134 541.266 C 222.244 542.506, 221.428 542.828, 220.791 542.191 C 219.296 540.696, 213.070 542.779, 208.704 546.236 C 203.797 550.121, 203.587 549.700, 206.818 542.465 C 212.109 530.617, 223.001 514.323, 234.250 501.425 C 240.930 493.766, 240.479 491.006, 233.543 497.096 M 220.178 499.175 C 216.610 503.121, 212.027 509.866, 204.915 521.641 C 202.049 526.385, 198.328 531.835, 196.645 533.752 C 193.239 537.631, 186.139 542.472, 185.214 541.547 C 183.752 540.085, 195.116 521.545, 202.404 513.500 C 208.927 506.299, 208.689 505.055, 201.741 510.048 C 193.854 515.716, 181.948 533.985, 179.452 544.250 C 178.598 547.762, 179.412 547.740, 187.585 544.034 C 196.033 540.203, 201.559 535.777, 203.636 531.175 C 204.548 529.154, 209.566 520.625, 214.787 512.223 C 224.192 497.086, 225.979 492.760, 220.178 499.175 M 226.379 523.250 C 219.536 530.454, 211.747 542, 213.731 542 C 215.338 542, 231.975 522.182, 231.990 520.250 C 232.007 518.084, 230.542 518.867, 226.379 523.250 M 268.672 550.322 C 261.523 562.542, 256.805 572.139, 257.571 572.905 C 258.560 573.894, 263.019 568.299, 267.059 561 C 279.378 538.743, 278.614 540.450, 276.606 539.679 C 275.653 539.313, 273.147 542.675, 268.672 550.322 M 689.757 548.833 C 689.085 550.613, 687.160 552.617, 685.059 553.723 C 680.727 556.005, 680.551 557.811, 684.450 559.973 C 686.287 560.991, 687.713 562.814, 688.229 564.804 C 689.302 568.946, 694 569.579, 694 565.582 C 694 561.620, 695.057 560.003, 698.621 558.514 C 702.777 556.777, 703.005 555, 699.071 555 C 695.531 555, 693 552.702, 693 549.488 C 693 545.846, 691.034 545.449, 689.757 548.833 M 499.703 552.792 C 495.231 557.372, 495.197 557.945, 499.247 560.500 C 500.990 561.600, 502.673 563.592, 502.986 564.926 C 503.812 568.448, 506 568.778, 506 565.381 C 506 563.598, 507.170 561.379, 509.250 559.217 L 512.500 555.839 508.500 552.434 C 503.585 548.251, 504.160 548.228, 499.703 552.792 M 189.156 570.750 C 187.918 571.712, 185.689 573.529, 184.203 574.786 C 173.838 583.553, 166.881 585.748, 159.649 582.531 C 158.169 581.874, 157.870 582.084, 158.157 583.579 C 159.011 588.009, 166.999 588.992, 174.237 585.558 C 177.528 583.996, 192.097 571.678, 192.833 569.835 C 193.391 568.438, 191.536 568.899, 189.156 570.750 M 194.282 577.292 C 190.862 581.806, 186.001 587.822, 183.480 590.659 C 180.452 594.068, 179.288 596.060, 180.050 596.531 C 182.245 597.888, 202 574.114, 202 570.116 C 202 567.769, 200.296 569.354, 194.282 577.292 M 590.154 573.649 C 587.535 576.271, 586.407 578, 587.315 578 C 588.144 578, 589.958 579.350, 591.347 581 C 594.075 584.243, 596 584.876, 596 582.530 C 596 581.721, 597.350 580.062, 599 578.842 C 602.155 576.509, 602.847 574.994, 600.750 575.009 C 600.063 575.014, 598.375 573.731, 597 572.158 L 594.500 569.298 590.154 573.649 M 309 576.599 C 309 577.478, 307.655 579.454, 306.010 580.990 L 303.020 583.783 305.440 585.369 C 306.771 586.241, 308.663 588.315, 309.646 589.977 C 311.836 593.685, 312.528 593.740, 314.195 590.342 C 314.913 588.880, 316.400 587.193, 317.500 586.592 C 318.600 585.992, 319.703 585.372, 319.952 585.215 C 320.200 585.058, 319.184 583.799, 317.693 582.416 C 316.202 581.034, 314.260 578.800, 313.376 577.451 C 311.562 574.682, 309 574.183, 309 576.599 M 144.878 595.505 C 142.089 597.021, 124 616.606, 124 618.110 C 124 619.910, 125.842 618.898, 130.118 614.750 C 132.528 612.413, 138.036 607.273, 142.357 603.328 C 146.728 599.338, 149.919 595.678, 149.548 595.078 C 148.699 593.704, 148.089 593.760, 144.878 595.505 M 440 596.365 C 440 599.472, 435.954 602.884, 431.472 603.556 C 426.088 604.364, 425.714 606.133, 430.557 607.885 C 434.444 609.290, 436 612.040, 436 617.506 C 436 621.573, 437.419 622.734, 439.404 620.293 C 440.205 619.307, 442.045 617.053, 443.491 615.284 C 445.138 613.269, 447.406 611.827, 449.560 611.423 C 454.010 610.588, 453.899 609.577, 449.049 606.786 C 444.873 604.382, 443 601.493, 443 597.453 C 443 595.939, 442.426 595, 441.500 595 C 440.675 595, 440 595.614, 440 596.365 M 255.147 677.253 C 254.516 677.884, 254 679.110, 254 679.978 C 254 680.846, 253.109 682.319, 252.019 683.252 C 250.053 684.935, 250.055 684.964, 252.371 687.281 C 253.655 688.564, 254.884 690.080, 255.102 690.651 C 256.085 693.214, 262.689 690.875, 264.359 687.373 C 266.575 682.726, 266.468 682.262, 263.012 681.503 C 261.369 681.142, 259.185 679.780, 258.160 678.476 C 256.757 676.692, 256.011 676.389, 255.147 677.253" stroke="none" fill="#1b1f3a" fill-rule="evenodd"/>
</svg>