<svg xmlns="http://www.w3.org/2000/svg" viewBox="0 0 768 768" version="1.1" preserveAspectRatio="xMidYMid meet"><path d="M 439 0.4 C 439 0.6, 441.3 2.3, 444.1 4.1 C 449.8 7.8, 454 11.8, 454 13.7 C 454 15.5, 447.6 15.4, 441.2 13.5 C 434.2 11.4, 432.5 12.7, 438.6 15.5 C 442.9 17.5, 450.6 24, 448.7 24 C 448.3 24, 444.8 23.2, 440.8 22.1 C 426.9 18.6, 423.1 17.8, 421.9 18.6 C 420.7 19.3, 427.2 22.9, 429.9 23 C 433.4 23.1, 441.2 29.1, 439.7 30.6 C 439.6 30.8, 437 30.2, 434.1 29.4 C 430.3 28.2, 428.5 28.1, 427.7 28.9 C 427 29.6, 427.2 30.1, 428.6 30.6 C 429.6 31, 432.5 32.1, 434.9 33.1 C 443.2 36.7, 445.7 34.3, 440.3 27.9 L 437.6 24.7 442.5 25.5 C 447.4 26.2, 450.7 27.6, 454.4 30.4 C 456.2 31.8, 456.2 32, 454.1 34.6 C 450.1 39.7, 452.1 42.9, 458.2 40.8 C 466.3 38.1, 466.5 31.2, 458.5 30.4 C 457.5 30.3, 455.9 29.2, 455 27.9 C 454.2 26.6, 452 23.6, 450.3 21.3 L 447 17 450.9 17 C 459.1 17, 460.3 13.9, 454.3 8.3 C 448.7 3.3, 439 -1.8, 439 0.4 M 356.2 3.9 C 353.9 4.7, 352.1 5.9, 352.3 6.5 C 352.7 7.6, 358.6 7.3, 361.2 5.9 C 364 4.4, 367.3 5, 373 8 C 380.6 12.1, 390.6 12.1, 396 8 C 399.2 5.6, 397.9 4.2, 394.6 6.4 C 390.6 8.9, 380.3 8.5, 373.8 5.6 C 366.9 2.4, 361.5 1.9, 356.2 3.9 M 176 4 C 176 4.6, 176.5 5, 177 5 C 179.3 5, 177.7 6.9, 174.5 8 C 168.5 10, 161.9 16.8, 161.3 21.8 C 160.8 25.9, 159.8 27, 158.5 25 C 157.5 23.5, 148.3 19, 147.6 19.7 C 146.3 21.1, 147.2 22, 151.7 24 C 157.3 26.5, 161 29.7, 161 32 C 161 35.3, 159.6 34.9, 154.1 30.1 C 146.7 23.8, 146 23.4, 146 25.9 C 146 28.3, 158.3 38.3, 160.7 37.8 C 162.1 37.6, 162.6 36.3, 162.8 32.4 L 163.1 27.3 167.2 28.7 C 170.3 29.8, 172.5 29.8, 176.8 29 C 179.9 28.5, 182.5 28, 182.6 28 C 182.7 28, 182.3 29.6, 181.8 31.5 C 179.6 38.6, 187.8 41.3, 196.1 36.1 C 201.3 32.9, 202 33.1, 199.3 37 C 197.2 40, 197 48.7, 199 52.4 C 200.8 55.9, 204.8 58, 209.4 58 L 213 58 209.6 64.3 C 205.9 71.1, 204.4 76, 205.9 76 C 206.5 76, 209 71.8, 211.5 66.8 C 216 57.6, 216 57.6, 216 61.7 C 216 71.7, 222 74.9, 228.7 68.7 C 230 67.6, 231.2 66.9, 231.6 67.2 C 232.2 67.9, 225.7 81.4, 221.7 87.7 C 218.8 92.3, 217.4 95.7, 214 106.5 C 210 119.4, 210.3 118.8, 197.7 137.4 C 184.8 156.4, 185 156.3, 185 145.9 C 185 141.3, 185.4 132.8, 186 127 C 186.5 121.2, 187.4 109.1, 188 100 C 189.7 71.6, 191.3 62, 194.2 62 C 195.5 62, 194.5 102.6, 193 111.5 C 192.1 116.8, 193.1 119.5, 194.8 116.3 C 197.5 111.4, 200.1 64.9, 198 60.9 C 195.3 56, 189.3 60, 187.9 67.7 C 185.3 81.6, 181.2 123.1, 180.1 147 C 179.5 161.3, 179.2 162.9, 176.6 167.9 C 172.4 175.9, 174.8 176.7, 180 169 C 182.3 165.6, 188.8 156.9, 194.4 149.6 C 200 142.4, 205.7 134.7, 207 132.5 C 208.3 130.3, 210.2 127.4, 211.3 126 L 213.2 123.5 212.5 127 C 212.1 128.9, 211.4 131.1, 210.9 132 C 206.4 140.3, 201.1 158.1, 202.3 161.2 C 202.6 161.9, 202.9 161.5, 202.9 160.2 C 203 159, 203.4 157.2, 203.9 156.2 C 204.8 154.5, 208.1 146.2, 212.6 134.1 C 213.9 130.6, 215 127, 215 126.1 C 215 125.2, 216.6 121.6, 218.5 118 C 225.8 104.4, 230.1 94.9, 229.7 93.7 C 229.5 93.1, 227.6 95.2, 225.6 98.5 C 214.5 116.1, 210.9 119.5, 216.9 106.5 C 218.6 102.9, 220.3 98.7, 220.6 97.3 C 221.3 94.8, 227 82.9, 228.8 80.1 C 229.6 79.1, 230.1 79.4, 231.1 81.6 C 232.8 85.2, 235.9 85.7, 243.1 83.6 C 249.3 81.7, 249.6 81.9, 247.7 85.7 C 246.9 87.2, 245.3 93, 244.1 98.5 C 242.9 104, 241.2 111.6, 240.4 115.4 C 238.8 122.6, 239.2 124.8, 241.6 121.5 C 243.3 119.3, 244.2 116, 246.6 104.1 C 248.3 95.2, 252.9 82.9, 256.5 77 C 257.7 75.1, 259.2 72.2, 259.8 70.5 L 260.8 67.5 260.9 70.8 C 261 74.4, 263 75.3, 263 71.7 C 263 70.4, 263.5 68.9, 264.1 68.3 C 264.9 67.5, 264.9 66.6, 264 65 C 263.4 63.8, 263.1 61.4, 263.4 59.6 C 264.1 55.8, 263.3 54.5, 259.7 53.1 C 255.8 51.6, 254.7 51.7, 255.4 53.6 C 256.6 56.6, 251.6 60, 246 60 C 241.2 60, 240.9 59.8, 241.2 57.8 C 241.4 56.4, 242.8 54.9, 244.7 53.9 C 246.5 53, 248.7 51.7, 249.5 51 C 250.3 50.3, 251.6 50, 252.4 50.3 C 253.7 50.8, 253.7 50.4, 252.4 47.5 C 250.6 43.2, 250.7 39.2, 252.5 36 C 254.3 32.8, 254.4 31.9, 252.5 32.6 C 250.4 33.4, 247.9 40.9, 248.2 45.3 C 248.5 49, 248.4 49.2, 243.7 51 C 236.8 53.7, 236 54.6, 236 60.1 L 236 65 232.2 64.8 C 230.2 64.8, 227.1 65.4, 225.3 66.3 C 220.7 68.7, 220.5 68.6, 219.2 62.9 C 217.8 56.8, 217.9 56.4, 222.7 55.5 C 230.3 54.2, 234.5 49.2, 227.1 50.4 C 222 51.2, 220.2 49.3, 222 45.1 C 224.1 40, 227.3 36.5, 229.6 36.8 C 231.7 37.1, 234.8 34.5, 233.7 33.4 C 232.5 32.2, 223.8 36.6, 220.9 39.8 C 217.2 44, 216.3 47.7, 218.2 51 C 219.6 53.4, 219.5 53.6, 217.6 53.8 C 212.8 54.3, 205.2 52.8, 203.1 50.9 C 199.3 47.3, 200.7 35.9, 205.7 31.2 C 210.8 26.2, 206.1 26.8, 194.7 32.6 C 185.7 37.1, 182.5 35.1, 187.3 27.9 C 192.3 20.4, 192.9 19.1, 192.1 18.6 C 191.6 18.3, 190 19.2, 188.5 20.6 C 183.3 25.4, 181.3 26.2, 174 26.3 C 165.1 26.4, 163 24.9, 165 19.9 C 166.6 16.1, 174.1 11, 178.1 11 C 181.7 11, 182.2 10, 180.9 6.1 C 179.9 3.2, 176 1.5, 176 4 M 88.5 10.8 C 85.4 11.5, 81 15, 81 16.6 C 81 17.4, 82.6 18.8, 84.5 19.6 C 88.1 21.1, 89.2 23, 86.4 23 C 84.3 23, 78 29.3, 78 31.4 C 78 34, 79.7 33.2, 81.9 29.6 C 83.9 26.5, 85.8 25, 88.1 25 C 88.6 25, 88.1 26.5, 87 28.3 C 83.2 34.5, 84.7 36.3, 92.8 35.4 C 97.2 34.9, 97.4 35, 95.6 36.4 C 94.5 37.3, 92.8 38, 91.8 38 C 90.8 38, 90 38.5, 90 39 C 90 40.7, 92.4 40.1, 98.8 37 C 107.4 32.9, 106.9 31.6, 97 32.3 C 92.6 32.6, 88.8 32.5, 88.6 32.1 C 87.9 31, 93.3 23, 94.8 23 C 95.4 23, 96 22.6, 96 22 C 96 21.5, 95.5 21, 94.9 21 C 92.5 21, 85 16.8, 85 15.5 C 85 13.4, 90.8 12.7, 97.8 14 C 101.2 14.6, 104.5 14.8, 105 14.5 C 106.6 13.5, 106.1 12, 104.2 12 C 103.2 12, 102.1 11.7, 101.7 11.4 C 101 10.6, 91 10.1, 88.5 10.8 M 613.3 12.6 C 611.5 13.5, 610 14.9, 610 15.7 C 610 16.9, 610.4 16.9, 612.2 15.6 C 615.3 13.4, 620.7 13.7, 625.9 16.3 C 633.6 20.1, 629.6 21.5, 616.1 19.8 C 611.3 19.1, 610.9 19.2, 612.6 20.4 C 613.7 21.2, 615.7 22, 617 22.2 C 618.8 22.4, 619.4 23, 619.2 24.4 C 618.9 26.1, 619.3 26.2, 623.7 25.6 C 636.8 23.7, 638.7 20.4, 629.8 14.9 C 623.5 11.1, 617.8 10.3, 613.3 12.6 M 273 19.3 C 267.4 25.2, 267 30.5, 271.2 41.7 C 272.6 45.6, 273.7 47, 275.1 47 C 277.6 47, 277.5 46.3, 274.5 40.6 C 272.7 37.3, 272 34.3, 272 30.6 C 272 26.6, 272.6 24.4, 274.5 21.6 C 278.1 16.3, 277.1 14.9, 273 19.3 M 356.6 18.4 C 354.5 19.2, 352.3 20.3, 351.7 20.9 C 349.5 23.1, 355.3 26.9, 363.1 28.4 L 366.7 29 363.4 32.6 C 354.3 42.2, 366.2 43.6, 391.3 35.8 C 402 32.5, 401 23.4, 389.5 19.5 C 382.6 17.1, 362 16.4, 356.6 18.4 M 49.4 20.1 C 42.7 22.7, 35 30.1, 35 34.1 C 35 36.8, 35.2 37, 39.1 37 C 44.2 37, 53 32.6, 53 30 C 53 29.2, 42.5 33.2, 41.3 34.4 C 40.2 35.5, 38 35, 38 33.7 C 38 28.8, 55.8 19.2, 58.9 22.3 C 60.7 24.1, 62.7 21.5, 61 19.5 C 59.3 17.5, 55.6 17.7, 49.4 20.1 M 342.1 21.3 C 341.5 22.1, 341.3 22.9, 341.6 23.3 C 343 24.7, 340.6 28, 337.4 29.2 C 333.5 30.6, 333.5 30.5, 335.6 40.8 L 336.3 44.1 332.7 42.4 C 330.3 41.3, 328.3 39.1, 326.5 35.9 C 322.7 28.8, 320 27.7, 322.2 34.1 C 324.6 41.3, 331 47, 336.5 47 C 339.2 47, 339.3 46.9, 338.7 42.5 C 338.3 40, 337.8 36.9, 337.4 35.6 C 336.9 33.5, 337.3 32.9, 340.4 31.6 C 343.7 30.2, 344.6 28.7, 345.1 24 C 345.5 19.9, 344.3 18.8, 342.1 21.3 M 358 21.4 L 354.5 22.7 359.5 24.3 C 362.3 25.1, 366.4 26.2, 368.7 26.5 C 372.4 27.1, 375.9 29, 373.2 29 C 372 29, 364 36, 364 37.1 C 364 39.1, 369.8 38.2, 387 33.7 C 394.6 31.7, 396 30.9, 396 27.8 C 396 22.2, 368.6 17.6, 358 21.4 M 249.5 27.3 C 242.3 31.9, 234 38.7, 234.7 39.4 C 236.1 40.8, 238.4 39.8, 242.5 36.2 C 244.9 34.1, 249.3 31.1, 252.4 29.6 C 257.7 26.9, 259.2 24.7, 255.9 24.3 C 255.1 24.2, 252.2 25.6, 249.5 27.3 M 610.6 30.8 C 610.3 31.3, 611.5 32.5, 613.3 33.5 C 616.7 35.5, 619 37.5, 619 38.4 C 619 39.9, 593.3 38.2, 588.8 36.5 C 585.1 35.1, 587.2 38.4, 594.7 46.1 C 598.9 50.5, 602.9 54, 603.7 54 C 606.4 54, 604.8 50.9, 599.3 45.4 L 593.5 39.7 597 40.3 C 616.5 43.5, 622.2 43.5, 623.4 40.4 C 625 36.2, 612.9 27.1, 610.6 30.8 M 486.8 31.7 C 483.1 32.1, 481.8 33.6, 484.3 34.5 C 484.9 34.8, 488.4 35.2, 491.9 35.4 C 497.5 35.6, 498.6 36, 500.8 38.5 C 503.1 41.2, 503.1 41.4, 501.4 42.7 C 500.4 43.4, 499 44, 498.2 44 C 497.4 44, 495.6 44.7, 494.2 45.4 C 492.7 46.2, 489.8 47.6, 487.8 48.6 C 483.7 50.3, 483.5 52.5, 487.5 51 C 489.9 50.1, 496.2 51.9, 500.5 54.7 C 502.2 55.9, 502 56, 498 56 C 495.5 56, 491.7 55.5, 489.6 55 C 487.4 54.5, 485.2 54.4, 484.7 54.7 C 483.2 55.6, 489 57.6, 495.5 58.5 C 501.5 59.2, 507 61.3, 507 62.9 C 507 64.2, 501.5 65, 492.3 65 C 483.2 65, 482.3 66, 489.5 68 C 494.9 69.5, 506.4 68.1, 508.9 65.6 C 510.8 63.7, 509 59.9, 505.4 57.9 C 503.9 57.1, 503.4 56.4, 504.1 56 C 505.8 54.9, 502.4 52.2, 497.7 51 C 495.4 50.4, 493.1 49.8, 492.7 49.7 C 492.2 49.5, 494.2 48.2, 497 46.8 C 499.8 45.3, 502.7 44.3, 503.3 44.6 C 504 44.8, 505.1 44.1, 505.8 42.9 C 509.4 37.2, 497.9 30.5, 486.8 31.7 M 312 34.5 C 312 35.9, 313.1 38.8, 314.5 41 C 319.6 49, 316.2 49.2, 307.9 41.4 L 302 35.7 300.2 40.1 C 296.8 47.9, 293.1 48.8, 290.8 42.4 C 289.3 38.1, 287 37.9, 287 42 C 287 50.6, 298.7 52.9, 302 45 C 303.5 41.3, 303 41.2, 307.8 46.1 C 313 51.2, 317 51.3, 318.4 46.3 C 319 44.6, 320.2 42.9, 321.2 42.7 C 323.5 42, 323.6 38.8, 321.3 39.1 C 318 39.4, 317.5 39, 315.6 35.5 C 313.4 31.4, 312 31, 312 34.5 M 429.4 37.2 C 429 37.8, 429.2 38.6, 429.9 38.8 C 431.9 39.5, 438 45.1, 438 46.2 C 438 47.2, 435 47, 427 45.1 C 424.5 44.6, 420.3 44.1, 417.7 44 L 412.8 44 417.3 49 C 424.3 56.7, 426.3 64.2, 423.3 70.5 C 420 77.3, 415.1 76.5, 411.5 68.6 C 409 63.1, 407 60.7, 407 63.2 C 407 63.9, 407.7 65.7, 408.4 67.3 C 410.4 71, 409.1 70.7, 405.1 66.6 L 401.8 63.2 404.1 61.6 C 406.1 60.3, 406.2 59.7, 405.2 57.5 C 403.6 54, 402.8 54.3, 400.6 59.6 C 399.3 62.8, 398.9 65.3, 399.4 68.2 C 400.4 74.2, 398.7 78.3, 394.1 80.8 C 392 82, 389.6 83, 388.8 83 C 385.9 83, 379 73.5, 379 69.5 C 379 68.7, 378.5 67.1, 377.8 66 C 376.8 64.5, 376.9 63.8, 378.3 62.2 C 380.1 60.3, 380.6 57, 379.2 57 C 376.4 57, 372.3 67.1, 373.5 71 C 374.3 73.4, 371.6 78.6, 368.8 80.1 C 363.8 82.8, 359.4 69.7, 361.9 59 C 362.4 56.5, 362.5 54.1, 362.1 53.7 C 359.5 51.1, 356.4 66.8, 358 75 C 359.1 80.9, 357.6 83.3, 351.9 84.5 C 348.4 85.3, 347 84.5, 347 81.9 C 347 79.5, 346.5 79.5, 342.3 82.1 C 339.2 84, 338.9 84.7, 339.1 88.1 C 339.9 98, 327 99.2, 319.1 90 L 316.9 87.5 317.5 90.7 C 318.1 93.6, 317.4 94.7, 307.4 105.5 C 295.9 117.9, 291.5 121.5, 280.8 127.4 L 274 131.2 274 124.7 C 274 117.1, 274.4 116.5, 282.7 112.5 C 286.4 110.6, 291.3 106.8, 296.1 101.9 C 300.3 97.7, 305.5 93, 307.8 91.6 C 312.5 88.6, 313.1 87.8, 315.4 79.1 C 316.4 75.6, 318 71.4, 319.1 69.6 L 321 66.5 320.4 72.3 C 319.9 76.9, 320 78, 321.2 78 C 322.5 78, 327.4 58.2, 326.4 57.1 C 325.5 56.1, 320.8 61.8, 317.8 67.6 L 314.6 73.9 313.4 71 C 312.2 68.2, 304.2 61.5, 303.2 62.5 C 302.9 62.7, 303.9 64.5, 305.3 66.4 C 310.8 73.5, 312.3 81.6, 308.9 85.7 C 306.1 89, 299.8 83.4, 295.3 73.8 C 291.7 66.2, 291 66.5, 291 75.4 C 291 84.2, 290 87.3, 286.4 89.6 C 282.4 92.3, 281 89.7, 281 79.8 C 281 71.2, 279.6 69.6, 277 75.2 C 273.7 82.2, 270.1 81.5, 271.8 74.2 C 273.7 66, 271.2 66.4, 267.5 74.9 C 265.8 78.7, 265.8 79.5, 267.1 81.8 C 269.3 85.8, 271.5 86.7, 273.8 84.7 C 276.4 82.3, 276.7 82.5, 277.2 87.5 C 278.2 95.9, 283.5 97.7, 289.6 91.7 C 292.6 88.6, 294.4 88.6, 293.3 91.8 C 292.6 93.7, 277 105.1, 275.9 104.5 C 275.4 104.1, 275 104.8, 275 105.9 C 275 109.8, 277.1 109, 286.2 101.4 C 297.5 92.2, 297.7 91.8, 295.4 87.4 C 292.9 82.8, 294.1 82.2, 297.4 86.5 C 298.9 88.4, 300.8 90, 301.6 90 C 302.3 90, 303 90.4, 303 90.9 C 303 92.6, 280.9 111, 278.9 111 C 278.4 111, 276.6 113, 274.7 115.5 C 271.6 119.5, 271.3 120.4, 271.8 125.1 L 272.3 130.2 264.1 138 C 259.6 142.2, 254.7 147.3, 253.3 149.1 C 251.9 151, 251 151.6, 251.4 150.5 C 254.8 141, 256 136.7, 255.5 136.2 C 254.6 135.2, 252.1 139.4, 251.5 143 C 251.2 144.9, 250.5 147.2, 250.1 148 C 249.6 148.9, 248.9 151.1, 248.5 153 C 247 160, 242.1 168.7, 235.3 176.5 C 231.4 180.9, 227.3 186.4, 226.2 188.7 C 225 191, 222.7 194.9, 221 197.3 C 219.4 199.8, 218 202, 218 202.4 C 218 202.7, 216.2 206.6, 214 211.1 C 210.1 219, 208.5 225.1, 207.1 237.2 C 206.7 240.3, 205.7 243.7, 204.9 244.7 C 204 245.7, 200.9 251, 198 256.5 C 195.1 261.9, 190.7 269.3, 188.4 272.8 C 183.7 279.6, 182.3 284.2, 186.4 279.3 C 191.9 272.7, 198.7 261.7, 204.7 249.5 C 208.2 242.4, 212.3 235.2, 213.9 233.5 C 218.7 228.2, 222.6 219.5, 228 201 C 231.1 190.8, 233.1 187.1, 239.3 180.1 C 242.3 176.8, 246.1 171.1, 247.9 167.3 C 249.7 163.6, 251.9 159, 252.8 157.1 C 254.8 153.1, 269 137.9, 269 139.8 C 269 140.5, 266.9 145.1, 264.4 150 C 257.5 163.5, 258.7 165.4, 267.5 154.9 C 273 148.4, 276.5 145.3, 283 141.3 C 293.3 135, 300.3 128.9, 303.6 123.4 C 307.2 117.3, 306.5 117.2, 301.6 123.2 C 293.9 132.6, 282.3 139.9, 274.7 140 C 272 140, 277.2 135.6, 286.2 130.3 C 295.9 124.5, 299.6 121.3, 313.5 106.5 C 315.6 104.3, 316.8 103.2, 316.3 104 C 314.4 107, 311.8 115.1, 312.4 116.5 C 313.1 118.4, 320.3 116, 327.5 111.5 C 342.2 102.4, 354 94.4, 354 93.4 C 354 91, 350.6 90.9, 347.6 93.2 C 342.7 96.7, 333.6 102.7, 329.4 105 C 327.3 106.2, 324.1 108.1, 322.3 109.1 L 319.1 111.1 320 108.3 C 322.3 100.4, 322.7 99.9, 326.4 100.6 C 331.1 101.4, 336 99.6, 340 95.5 C 341.9 93.6, 344.1 92, 344.9 92 C 346 92, 345.8 91.5, 344.2 90.4 C 342 88.9, 341.2 85.6, 342.9 84.6 C 343.8 84, 346.4 86.6, 347.3 89.2 C 347.8 90.7, 348.3 90.7, 350.2 89.7 C 354.8 87.3, 359 83.8, 359 82.4 C 359 80.5, 359.7 80.6, 362.7 83 C 367.2 86.5, 371.9 85.6, 375 80.5 L 377.1 77.1 381.2 81.6 C 383.4 84, 386.3 86.3, 387.6 86.6 C 393.5 88.1, 403 81, 403 75 C 403 73.3, 403.3 72, 403.6 72 C 404.8 72, 408.7 74.4, 411.8 77.1 C 419.5 83.8, 428 77.9, 428 65.8 C 428 60, 425.7 54.6, 421.1 49.6 C 419.1 47.3, 418.9 46.8, 420.4 47.4 C 425.9 49.3, 431.5 50.2, 435.4 49.6 C 441.4 48.7, 442.4 47.2, 440 43.2 C 437.7 39.5, 430.5 35.4, 429.4 37.2 M 134.9 37.9 C 122.7 40.4, 110.5 53.2, 112.2 61.8 C 112.8 64.9, 115.5 63.7, 115.8 60.2 C 116.7 51, 127 41.6, 137.4 40.4 C 146.5 39.3, 147.5 40.8, 139.5 43.4 C 130.6 46.3, 126.8 48.2, 121.9 52.7 C 116.2 57.9, 117.1 58.5, 124.3 54.2 C 127.7 52.1, 133.2 49.3, 136.5 48.1 C 147.3 43.9, 149 43.1, 149 41.6 C 149 38.4, 141.8 36.5, 134.9 37.9 M 55.8 42.5 C 55.5 42.8, 52.7 43.7, 49.6 44.5 C 37.2 47.7, 26.3 55.1, 28.6 58.8 C 30.7 62.1, 34.4 62.5, 41.2 60.2 C 45.4 58.8, 50.1 58, 54.6 58 C 61.3 58, 67 56.5, 67 54.6 C 67 54.1, 65.5 54.1, 63.8 54.4 C 53 56.7, 49.6 55.7, 54.3 51.5 C 57.5 48.6, 57.7 48, 55 48 C 53.8 48, 52.1 49.5, 50.6 51.9 C 48.3 55.4, 47.6 55.9, 41.7 56.9 C 30.3 58.9, 29.2 58, 36.8 53.2 C 42.8 49.4, 47.5 47.4, 53.1 46.5 C 57.1 45.8, 58.9 44.7, 59 42.8 C 59 41.9, 56.6 41.7, 55.8 42.5 M 555.8 44.5 C 554.3 46.1, 556.3 47, 561.3 47 C 568.4 47, 577.9 50.1, 585 54.7 C 593 59.8, 593.1 60.8, 585.5 59 C 569.7 55.1, 550.1 54.6, 562.6 58.3 C 570.2 60.6, 574.4 62.5, 577.3 65.2 C 580.7 68.3, 580.1 69, 574.7 67.9 C 572.4 67.4, 567.4 66.4, 563.5 65.6 C 552 63.2, 549.3 62.3, 546.4 60.1 C 542.3 56.9, 541.4 57.6, 544.9 61.2 C 548.2 64.6, 549.6 68.4, 550.6 76.6 C 551.5 83.8, 550.1 83.9, 543.2 77.5 C 534.2 69.2, 533.5 70.1, 541.1 80.5 C 546.5 88, 547 91.3, 543.7 99.3 L 542.5 102 539.2 99.8 C 536 97.5, 530 87, 530 83.6 C 530 81, 528.2 81.7, 526.5 85 C 524.9 88.1, 521.7 90.4, 520.6 89.3 C 520.3 89, 520 86.4, 519.9 83.6 C 519.9 80.8, 519.3 75.1, 518.6 71 C 517.5 64.4, 517.2 63.8, 516.2 65.6 C 515.1 67.7, 516.1 78.8, 517.7 81.3 C 518 81.8, 517.2 81.6, 516 80.9 C 510.1 77.3, 509.6 77.1, 507.8 78.1 C 505.5 79.3, 506.4 81, 509.4 81 C 511.9 81, 516 84.4, 516 86.5 C 516 87.4, 515 87.8, 513.4 87.7 C 509.2 87.4, 509.4 89.8, 513.6 90.6 C 518.7 91.5, 527 99.5, 527 103.5 C 527 104.8, 516.1 103.8, 512.8 102.1 L 509.1 100.3 509.7 105.3 C 510.4 110.8, 510.4 110.8, 504.4 106.4 C 499.4 102.7, 496.6 102.4, 495.2 105.4 C 494.6 106.8, 493.7 108, 493.2 108 C 491.3 108, 483.9 101.8, 481 97.8 C 478.2 93.9, 478 93.8, 478 96.3 C 478 99.6, 482.9 105.3, 488.6 108.6 C 493.6 111.5, 495.6 111.2, 497 107.4 L 498 104.8 503.2 109 C 509.3 113.8, 511.4 113.8, 511.8 109.1 C 512.1 106, 512.3 105.8, 515.2 106.4 C 516.9 106.7, 520.4 107, 523 107 C 527.6 107, 527.6 107, 527.2 110 C 526.6 113.8, 527.8 113.9, 529.1 110.1 C 530 107.6, 530.8 107, 533.8 106.7 L 537.5 106.3 533.9 106.2 C 530.7 106, 530.2 105.6, 529.6 102.9 C 529.3 101.2, 527.7 97.9, 526.1 95.5 L 523.2 91.2 525.7 90.1 C 528.4 88.9, 530 89.4, 530 91.5 C 530 94.2, 533.4 100.1, 534.6 99.6 C 535.3 99.3, 537.5 100.7, 539.5 102.6 C 544 106.8, 548.6 107.2, 546.1 103.1 C 544.9 101.2, 549.4 89.1, 552 87.3 C 554.1 85.8, 554.2 85.2, 553.8 75.9 L 553.3 66 555.9 66.6 C 557.3 66.9, 560.5 67.8, 563 68.5 C 565.5 69.2, 569.2 70.2, 571.2 70.5 C 579.8 72.1, 578.7 77, 569.2 79.6 C 562 81.5, 555.9 83.8, 557.5 84 C 561.8 84.6, 576.3 84.3, 576.7 83.8 C 576.9 83.3, 576.6 83, 575.9 83 C 575.2 83, 576.3 81.5, 578.3 79.6 C 582.6 75.7, 583 72.5, 580 66.5 C 578.9 64.4, 578.1 62.5, 578.3 62.4 C 578.4 62.3, 581.5 62.7, 585.2 63.2 C 592.9 64.2, 598 62.5, 598 59 C 598 56.6, 589.3 51.3, 577.5 46.4 C 573.3 44.7, 557 43.3, 555.8 44.5 M 140.5 52.1 C 137.8 53.2, 131.8 55.9, 127.3 58 C 122.8 60.2, 118.6 62, 118 62 C 117.4 62, 117.2 62.5, 117.6 63.1 C 118 63.7, 119.6 64, 121.4 63.7 C 126 62.9, 147 52.7, 147 51.3 C 147 49.6, 146.5 49.7, 140.5 52.1 M 171.6 51.5 C 171.1 52.6, 169.9 55.5, 168.9 57.9 C 167.9 60.3, 167.2 62.5, 167.5 62.9 C 167.7 63.3, 167.5 65, 167 66.6 L 166 69.5 166.5 66.3 C 167 62.6, 166.1 62.1, 163.6 64.9 C 161.8 66.9, 157.7 66.5, 152.1 63.7 C 148.8 62.1, 129.5 62.1, 127.9 63.8 C 126.9 64.8, 129 65, 138.6 65 C 150.4 64.9, 150.6 65, 157.7 68.7 C 166.3 73.1, 173.7 79.5, 174.6 83.3 L 175.2 86 167.5 86 C 163.3 86, 159 85.5, 157.8 84.9 C 154.9 83.3, 154.5 84.4, 156.9 87.7 C 159.8 91.6, 161.1 103.7, 158.7 104.6 C 156.8 105.3, 149.6 101.4, 146.6 98.1 C 145 96.3, 144.8 95.1, 145.4 88.9 C 146.1 82.4, 146 81.9, 144.3 82.2 C 143 82.4, 142.4 83.6, 142.2 86 C 141.8 92.1, 141.1 93.6, 138.4 94.9 C 135.7 96.1, 134.1 95.2, 134 92.5 C 134 90.8, 128.8 85.8, 128 86.7 C 126.7 88.2, 126 92.9, 127 93.5 C 127.5 93.8, 128 95, 128 96.1 C 128 98.3, 125.7 98.5, 118 96.9 C 111.6 95.5, 108.3 96.4, 112.2 98.4 C 113.7 99.2, 116.4 100.1, 118.2 100.5 C 123.3 101.6, 126.5 104.5, 128.8 110 C 131 115.3, 130.9 115.5, 126.4 114.1 C 124.8 113.6, 120.8 112.4, 117.5 111.5 C 114.2 110.5, 110.3 108.8, 108.8 107.8 C 104.3 104.7, 105.6 107.5, 110.9 112.5 C 115.4 116.8, 119.4 125, 116.9 125 C 115.4 125, 108.7 121.7, 104.3 118.8 C 99 115.2, 97.8 115.3, 94.7 119.3 C 92.4 122.4, 92.2 123.3, 92.3 134 C 92.4 146.8, 91.3 157.7, 90 156.4 C 88.4 154.7, 77 131.9, 77 130.5 C 77 129.7, 77.4 129, 77.8 129 C 79.8 129, 86 121.7, 87.1 118.1 C 88.6 113.1, 87.6 108.3, 85.5 110 C 84.7 110.7, 84 112.2, 84 113.4 C 84 120.8, 68 134, 59.1 134 C 55.6 134, 54.9 134.3, 55.8 135.2 C 57.5 136.9, 66 136.6, 69.5 134.6 C 73 132.8, 75 132.5, 75 134.1 C 75 135.8, 86 158.2, 88.5 161.5 C 89.8 163.1, 91 165.4, 91.3 166.5 C 91.5 167.6, 91.8 166.6, 91.9 164.2 C 91.9 161.9, 92.6 158.9, 93.4 157.7 C 95.2 154.9, 97 146.3, 97.1 140.2 C 97.1 136.7, 97.3 136, 97.9 137.5 C 100.1 142.8, 106.8 147.5, 113.9 148.6 C 116.2 149, 118.3 149.7, 118.6 150.1 C 119.6 151.7, 124.6 151, 129.6 148.6 C 132.3 147.3, 135.9 146, 137.5 145.6 C 140.7 144.9, 147.4 140.1, 145.2 140 C 144.5 140, 142.3 140.7, 140.3 141.5 C 138.4 142.3, 135.7 143, 134.5 143 C 133.2 143, 130 144.1, 127.3 145.5 C 124.5 147, 121.7 147.8, 120.7 147.4 C 119.2 146.9, 117 141.5, 117 138.4 C 117 137.1, 114.2 134.5, 113.5 135.1 C 113.1 135.6, 114.3 141.4, 115.5 144.3 C 117.4 148.9, 103.9 142.5, 100 136.9 C 97.7 133.8, 96.5 121.2, 98.2 119.5 C 98.6 119.1, 101.7 120.7, 105.2 123 C 116.3 130.7, 122.4 129.6, 119.3 120.6 C 117.6 115.7, 117.4 115.8, 124.8 117.7 C 129.5 118.9, 131.4 119, 132.3 118.1 C 134.3 116.1, 133.5 110.4, 130.7 106.1 C 128.2 102.3, 128.1 101.9, 129.7 101.4 C 130.7 101.1, 133.5 100, 136 99 L 140.5 97.1 144.5 100.6 C 146.7 102.5, 150.2 105.3, 152.2 106.8 C 155.6 109.3, 155.9 109.9, 155.9 114.5 C 155.9 117.4, 155.1 121.4, 154 123.9 C 152.9 126.3, 152 128.9, 152 129.6 C 152 131.1, 149.5 135.5, 147.5 137.6 C 145.6 139.6, 148.8 227.1, 150.9 230.8 C 152.3 233.1, 152.3 229.5, 150.9 205.5 C 149.1 173.1, 149.6 140.1, 151.8 137 C 152.9 135.6, 154 133.3, 154.5 132 C 154.9 130.6, 156.1 127.5, 157.3 125 C 158.7 122.1, 159.4 118.5, 159.4 115 C 159.4 110.7, 159.9 109.1, 161.5 107.8 C 163.2 106.4, 163.5 105, 163.5 97.6 C 163.4 91.2, 163.7 89.1, 164.6 89.4 C 169.3 91.2, 173.4 91.2, 174.7 89.5 C 175.9 87.8, 176 87.8, 176 90.4 C 176 91.9, 176.4 92.9, 177 92.5 C 178.5 91.5, 178.2 83.3, 176.4 79.9 C 175.6 78.2, 173.4 75.2, 171.6 73.2 L 168.2 69.5 170.9 64 C 173 59.6, 173.4 57.6, 172.9 54 C 172.5 50.4, 172.2 49.9, 171.6 51.5 M 255.6 60.5 C 254.7 61.8, 254 63.2, 254 63.6 C 254 63.9, 253.4 65.6, 252.6 67.3 C 251.8 69.1, 250.9 71.2, 250.7 72 C 250.3 73, 250.1 72.9, 250.1 71.5 C 250 70.4, 250.7 68.3, 251.4 66.8 C 252.2 65.3, 252.5 63.8, 252 63.5 C 251.1 62.9, 245 75.1, 245 77.5 C 245 79.8, 246.9 79.3, 248 76.8 C 248.5 75.5, 248.9 75.1, 248.9 75.8 C 249.1 78.6, 251.8 76.6, 255 71.3 C 256.9 68.1, 259 64.9, 259.7 64.2 C 260.4 63.5, 261 61.8, 261 60.4 C 261 57.2, 257.8 57.2, 255.6 60.5 M 237.9 68.1 C 235.8 71.5, 235 73.8, 235.2 76.1 C 235.7 81, 237.5 80.7, 240.6 75.3 C 242.1 72.7, 244.4 69.1, 245.6 67.4 L 247.9 64.2 244.4 63.8 C 241.2 63.4, 240.7 63.7, 237.9 68.1 M 453.5 64 C 452.4 64.5, 449.8 64.9, 447.8 64.9 C 440.5 65.1, 442.8 67, 450.3 67 C 458.6 67, 461 68.4, 461 73.6 C 461 75.2, 461.7 79.2, 462.4 82.4 C 464.6 91.5, 463 93.5, 458.4 87.5 C 456.9 85.5, 454.8 83.4, 453.6 82.8 C 452.3 82.1, 453.1 83.6, 455.8 87 C 458.1 89.9, 459.7 92.7, 459.4 93.2 C 457.8 95.8, 443.5 89.7, 434.8 82.8 C 430.7 79.6, 428.3 79.8, 430.1 83.1 C 430.6 84.2, 431 86.1, 430.7 87.3 C 430.4 89.5, 430.3 89.5, 429.2 87 L 428.1 84.5 428.1 87.1 C 428 88.5, 428.5 90.1, 429.2 90.8 C 429.8 91.4, 430.1 92.2, 429.8 92.6 C 428.9 93.4, 425.7 91.5, 419.5 86.4 C 413.2 81.4, 412.5 81.9, 417.3 88.2 C 421.8 94, 426.4 97, 431.2 97 C 435.6 97, 436.6 95.6, 435 91.5 C 433.4 87.4, 434.1 87.5, 441.6 92.3 C 453.5 99.9, 459.7 100.5, 464.7 94.6 C 467.1 91.7, 467.2 91.1, 466.6 84.2 C 466.3 80.2, 465.5 76, 464.9 74.8 C 463.3 71.9, 469.8 75.8, 477.1 82.3 C 482.2 86.9, 482.4 87.2, 480.6 88.5 C 479.5 89.3, 479 90.3, 479.3 90.7 C 479.7 91.1, 480.6 90.8, 481.2 90.2 C 482.8 88.6, 490.5 88.7, 493 90.2 C 494 90.9, 495.3 91.1, 495.7 90.6 C 497.1 89.2, 493.1 87.2, 487.5 86.5 C 481.6 85.8, 479.8 84, 474.6 73.8 C 473.5 71.7, 472.3 70, 471.8 70 C 470.6 70, 470.8 71.4, 472.2 72.8 C 475.4 76, 471.5 74.6, 466.9 70.8 C 460.6 65.7, 456.8 63, 456 63.1 C 455.7 63.1, 454.6 63.5, 453.5 64 M 44.5 65.5 C 27.5 70.1, 23.3 71.3, 19.9 73 C 16.2 74.9, 9 82.7, 9 84.8 C 9 85.8, 21.7 85.6, 27.3 84.5 C 29.4 84.1, 29.4 84.4, 27.1 89.4 C 22.4 99.4, 24.2 101.4, 29.3 91.9 C 34.5 82.2, 34 82.6, 43.3 82.3 C 51.1 82.1, 59.4 80, 57.3 78.7 C 56.8 78.4, 53.3 78.5, 49.4 79.1 C 39.8 80.4, 16 81.7, 16 80.8 C 16 79.1, 24.1 74.1, 29.5 72.6 C 32.8 71.7, 38.4 70, 42 68.9 C 45.6 67.9, 49.2 67, 50.1 67 C 50.9 67, 52.5 66.3, 53.6 65.5 C 55.4 64.1, 55.4 64.1, 52.5 64.1 C 50.9 64.1, 47.3 64.8, 44.5 65.5 M 72.6 72.3 C 67.9 77, 65 84.1, 66.6 86.8 C 67.2 87.8, 70 89.4, 72.9 90.5 C 77.3 92.2, 78 92.8, 77.5 94.7 C 76 101, 80.5 101.6, 87.5 96 L 92.5 92.1 94.3 95 C 95.4 96.7, 96.8 98, 97.6 98 C 99.7 98, 99.3 96.3, 96.9 94.6 C 94.9 93.3, 94.8 92.6, 95.5 86.6 C 96.2 79.5, 95.4 74.7, 93.9 77.1 C 93.4 77.9, 93 79.6, 93 81 C 93 86.8, 85 97, 80.6 97 C 79.3 97, 80.1 93.9, 82.4 89.6 C 85.4 83.9, 84.6 83, 80.7 87.6 C 79 89.5, 77.4 90.7, 77.1 90.3 C 76.8 89.9, 75.2 88.8, 73.5 87.9 C 69 85.6, 69.5 80.7, 74.9 73.5 C 79.8 67, 78.5 66.2, 72.6 72.3 M 258.4 85.3 C 257.4 88, 257.5 103.4, 258.5 105 C 259.5 106.6, 263.7 102.6, 266.2 97.7 C 268.8 92.5, 268 90.9, 265 95.4 C 261.9 99.7, 261.2 98.5, 261.1 89.3 C 261 82.9, 259.8 81.1, 258.4 85.3 M 580.7 84.7 C 579.8 84.9, 579.2 85.5, 579.5 86 C 580 86.9, 577.4 88, 568.7 90.6 C 564.8 91.7, 563.2 92.6, 563.9 93.3 C 565.1 94.5, 575 92.6, 579.5 90.2 C 584.2 87.7, 598 88.1, 601.4 90.8 L 604 92.8 601.4 94.9 C 599.6 96.3, 597.3 97, 594.4 97 C 592.1 97, 589.5 97.3, 588.6 97.6 C 586.7 98.3, 587.5 100, 589.8 100 C 592.1 100, 602 104.7, 602 105.8 C 602 107.9, 588.6 111.8, 580.8 112 C 579.1 112, 580.2 114.4, 583.6 118.3 C 587.6 123.1, 593.4 134.5, 592.5 136 C 592.2 136.6, 592.3 137, 592.8 137 C 593.3 137, 594 138, 594.3 139.1 C 595.5 143.6, 582.2 139.8, 564.7 130.8 C 559.4 128, 554.7 125.9, 554.4 126.2 C 554.1 126.6, 554.4 129.5, 555.1 132.9 C 557.1 143.4, 556.1 143.6, 540.3 135.4 C 530 130.1, 529.7 131.8, 539.6 139 C 548.6 145.5, 552 149.3, 552 152.6 C 552 154.5, 551.6 155, 550.3 154.6 C 549.3 154.3, 546.4 153.6, 543.8 152.9 C 540.8 152.2, 537.3 150.3, 534.7 147.9 L 530.3 144.1 528.2 147.9 C 525.4 152.8, 521.5 157, 519.6 157 C 517.5 157, 513.1 149.2, 511.3 142.3 C 509.2 134.2, 508.8 134.1, 504.1 140.7 C 498.2 149.1, 497.9 149.4, 493.1 152.8 C 487 157.2, 484.4 157, 483.1 152.3 C 480.7 143.7, 482.9 132.8, 487.2 131.4 C 489.5 130.7, 489.1 128.6, 486.6 128.2 C 485.6 128, 480.6 129.9, 475.4 132.4 C 459.9 140, 456.7 140.1, 446.6 133.6 C 439.7 129.2, 439.9 129.2, 440.3 133.5 C 440.8 137.7, 443.1 141.4, 447.9 145.7 C 452.6 150, 456.3 150.1, 458.7 146 C 459.7 144.3, 461.6 142.6, 463 142.3 C 466.1 141.6, 473.6 138, 478.4 135 L 482 132.9 479.5 138.2 C 475.1 147.7, 476.7 160.1, 482.5 161.6 C 486.3 162.5, 493.7 158.4, 500.6 151.4 L 506.8 145.1 509.5 151.6 C 512.1 157.7, 516.7 163, 519.4 163 C 521.9 163, 527.5 158.4, 528.9 155.2 C 530.2 152.4, 533 150.7, 533 152.8 C 533 155.4, 552.2 160.6, 555.4 158.8 C 557.6 157.6, 557.4 154.3, 554.9 149.6 L 552.9 145.8 556.4 146.4 C 561.8 147.4, 562.9 144, 560.3 134.5 C 559.8 132.6, 559.8 132.6, 561.6 134.1 C 562.7 135, 565.8 136.8, 568.5 137.9 C 571.3 139.1, 574.4 140.5, 575.5 141 C 584.2 145, 596.6 147.2, 598.1 144.9 C 600.9 140.5, 597.2 130, 589.6 120.7 L 585.1 115.2 592.3 113.9 C 601.1 112.4, 604.1 111, 606 107.5 C 607.4 104.8, 607.3 104.6, 603.8 101.5 L 600.1 98.3 602.8 96.3 L 605.5 94.2 603.6 90.7 C 600.8 85.4, 589.5 82.4, 580.7 84.7 M 273.7 90.7 C 273.3 91.4, 272.6 94.3, 272.3 97.2 C 271.6 103.4, 268.7 109.3, 265.4 111.1 C 264.1 111.7, 263.3 112.8, 263.7 113.3 C 264 113.9, 263.8 114, 263.2 113.6 C 262.6 113.2, 258.6 114.9, 254.3 117.3 C 250 119.6, 244.7 122.5, 242.5 123.5 C 240.3 124.6, 238.4 126.4, 238.2 127.4 C 237.8 129.2, 238 129.2, 240.8 127.1 C 242.5 126, 244.1 125, 244.5 125 C 245.9 125, 254.7 120.7, 257.5 118.6 C 263.4 114.2, 263.3 114.7, 257.2 122 C 251.1 129.2, 250.1 131, 251.9 131 C 253.5 131, 262.8 120.1, 264.7 116 C 266.2 112.7, 268 110.8, 268 112.5 C 268 113.7, 262.8 126.5, 261.8 127.7 C 261 128.7, 261 129.4, 261.8 130.2 C 263.1 131.5, 267.4 125, 268.5 120 C 268.9 118.1, 269.6 116.1, 270 115.5 C 270.4 115, 271.1 112.5, 271.5 110 C 271.9 107.6, 272.9 104.6, 273.7 103.4 C 274.6 101.9, 275 99.2, 274.8 95.3 C 274.6 92, 274.2 90, 273.7 90.7 M 404.7 92.7 C 403.2 93.5, 398.6 94.2, 394.5 94.3 C 390.4 94.4, 387 94.5, 387 94.7 C 387 94.9, 389.3 97.5, 392.1 100.6 C 399.4 108.7, 401.6 116.5, 396.8 117.2 C 389.1 118.4, 378.7 113.8, 376.4 108.3 C 374.4 103.6, 373.6 104.2, 374.3 110 L 374.9 115.1 371.8 113.3 C 367.4 110.7, 362.3 104.4, 361.3 100.2 C 360.1 94.9, 357.1 94.8, 351.2 99.7 C 348.6 101.8, 344 105.3, 341 107.5 C 329.5 115.7, 311.9 130.8, 297.5 144.8 C 281.4 160.5, 280.6 161.4, 263.5 182 C 244.4 204.9, 215.2 265, 216.2 279.2 L 216.5 283.5 222 283.8 C 233.9 284.4, 257.3 269, 277.1 247.5 C 290.9 232.5, 290.4 234.9, 276.1 252 C 262.1 268.8, 259.7 271.2, 250.9 278 C 246.7 281.2, 238.6 288.5, 232.8 294.2 C 222.2 304.6, 218.2 310.9, 211.5 327.4 C 210.7 329.6, 209.7 331.1, 209.5 330.8 C 208.9 330.2, 211.5 319, 213.6 313.7 C 215.3 309.1, 215.4 308, 213.8 308 C 211 308, 210 309.9, 208.5 318 C 207.6 322.7, 205.7 328.9, 204.3 331.8 C 202.9 334.7, 201.2 339.8, 200.5 343.3 C 199.7 346.7, 198.7 351.5, 198 353.9 C 197.4 356.4, 197.1 359.3, 197.3 360.4 C 197.7 363, 198.1 362.2, 201.1 351.8 C 203.3 344.4, 205.8 340.8, 204.6 346.8 C 202.6 356.9, 199.4 393.5, 196.9 436 C 195.5 459.5, 194.2 467.2, 194.1 452.7 C 194 445.3, 193.7 442.9, 192.8 443.3 C 189.6 444.3, 195 541.6, 199.1 560.5 C 204.8 585.8, 212.2 603.3, 223 616.4 C 230.6 625.7, 232.2 624.2, 225 614.5 C 219.2 606.7, 219.2 606.1, 224.8 611.2 C 230.2 616, 244.1 623.4, 254.3 626.9 C 266.6 631.1, 277.8 641.2, 283.3 652.8 C 285.4 657.3, 286.5 658.8, 287.1 657.8 C 287.7 656.9, 288 657.1, 288 658.8 C 288 661.3, 289.5 661.8, 290.4 659.4 C 291.6 656.2, 291.1 653.6, 289.5 655 C 288.3 656, 287.9 655.9, 287.4 654.4 C 287.1 653.3, 285.9 650.6, 284.8 648.2 C 282.5 643.2, 282.7 642.6, 286.1 644.4 C 287.4 645.1, 290.1 646.2, 292 646.9 C 293.9 647.7, 297.3 648.9, 299.5 649.7 C 301.7 650.5, 308.5 652.5, 314.5 654 C 320.6 655.6, 329.1 658, 333.4 659.4 C 342.2 662.3, 346.9 662.8, 345.2 660.7 C 344.6 660, 341.7 658.6, 338.8 657.6 C 335.9 656.6, 332.6 655.5, 331.5 655 C 330.4 654.6, 326.6 653.2, 323 652 C 319.4 650.8, 315.6 649.4, 314.5 649 C 313.4 648.5, 309.1 647.2, 305 646 C 300.9 644.8, 297.1 643.5, 296.5 643 C 296 642.6, 291.9 640.7, 287.4 638.8 C 283 636.9, 276.9 633.3, 273.9 630.9 C 268.1 626.2, 262.7 623.3, 248.5 617.4 C 225.4 607.8, 216.3 596.1, 208.4 566 C 201.7 540.6, 198.6 487.6, 201.7 453.5 C 202.9 440.7, 204 424.9, 206 392 C 207 376, 209 357.1, 211 346.2 C 211.5 343.1, 215.1 334.3, 219.6 325.3 C 227.9 308.3, 229.2 306.7, 248.3 289.7 C 257.6 281.4, 269.2 268.3, 280.5 253.5 C 287.1 244.7, 295.8 235, 297 235 C 297.3 235, 298.1 237.6, 298.8 240.8 C 300.5 249.2, 304.1 253.1, 310.8 253.8 C 317.3 254.4, 320.5 252.5, 322.1 247 C 323.6 242.1, 323.4 242, 329.7 247.5 C 338.2 254.9, 347.8 258, 350.6 254.3 C 352.2 252.2, 352.4 242.7, 351 239.9 C 349.7 237.5, 350.1 237.5, 354.3 240 C 360.2 243.5, 371.8 245.5, 374.1 243.4 C 375.2 242.5, 376 241, 376 240.1 C 376 238, 368.5 229.8, 364.5 227.3 L 361.5 225.5 363.2 228 C 364.2 229.4, 366.3 232.7, 368 235.3 L 371.1 240.2 366.8 239.5 C 364.4 239.1, 359.4 237.7, 355.7 236.3 C 347 233.2, 346 233.5, 347.1 239.2 C 348.8 247.8, 348.3 251, 345.5 251 C 339.7 251, 332.7 245.9, 333.6 242.3 C 334.6 238.5, 329.5 230, 326.2 230 C 325 230, 325 230.4, 326.4 232.3 C 328.8 235.6, 332 241.8, 332 243 C 332 244.9, 325.9 239.9, 323.8 236.3 C 321 231.7, 320 232.2, 320 237.9 C 320 244.3, 318.6 247.8, 315.5 249.2 C 309.2 252, 302.1 245.3, 302 236.4 C 302 230.5, 304.5 228.6, 305.4 233.9 C 306.3 239.7, 308 240, 308 234.5 C 308 226.2, 304.2 223.8, 298.7 228.7 C 296.8 230.5, 295.2 229.7, 296.7 227.8 C 297.9 226.4, 300.3 216, 299.6 215.3 C 299.4 215.1, 297.6 215.2, 295.6 215.5 C 290.8 216.4, 286.6 221.4, 281.8 231.8 C 274.8 247, 255.4 264.4, 233.9 274.8 C 230.2 276.6, 226 278, 224.5 278 C 221.4 278, 221.4 276.1, 225 265.2 C 229.1 252.4, 234 241.5, 243 224.5 C 260.8 191.1, 290.2 154.8, 318.1 132 L 329.1 123.1 333.8 126.4 C 341.1 131.7, 350.5 133.5, 356 130.7 C 362.6 127.4, 357.2 120.9, 345.6 118.3 L 337.7 116.5 347.1 108.7 L 356.4 100.9 358.1 104.3 C 361.3 110.4, 372.4 118.6, 376.4 117.8 C 377 117.7, 380 118.4, 383 119.5 C 390.4 122, 398.1 122.1, 400.9 119.6 C 405 115.9, 402.3 105, 395.9 99.5 L 392.5 96.7 396 97.3 C 406.4 99.2, 407.7 99.2, 409.2 97.6 C 410.9 95.9, 410.6 92.4, 408.7 91.7 C 408 91.5, 406.3 92, 404.7 92.7 M 235.1 100.8 C 231.6 113.7, 228 121.9, 222.5 129 C 217.8 135.2, 212.5 145.8, 211.6 150.8 C 210.6 156.7, 213 153.9, 215.7 146 C 218.8 137.2, 222.9 130, 228.2 124.5 C 232.1 120.3, 234.8 114.1, 237.1 103.7 C 238.7 96.4, 237 93.8, 235.1 100.8 M 461 98.7 C 456.3 99.6, 456.5 101, 461.3 101 C 465.1 101, 466.6 101.5, 468.5 103.5 C 471.8 106.7, 471.9 110.5, 468.8 109.7 C 467.5 109.4, 463.8 108.4, 460.5 107.6 C 452.5 105.5, 445.6 105.5, 443.9 107.6 C 442.7 109, 443.2 109.7, 447 113.1 C 451 116.5, 451.2 116.9, 449.2 117 C 445.6 117, 441 119.8, 441 122 C 441 126.3, 452.2 130.6, 457.3 128.2 C 459.3 127.3, 459.1 127.2, 455.5 126.6 C 441.2 124.1, 441.4 120.3, 455.8 120.1 C 463.1 120, 463.1 119.3, 455.5 115.5 C 452.5 113.9, 449.3 111.9, 448.4 110.8 C 446.8 109.1, 446.9 109, 451.1 109 C 453.6 109, 458.2 109.7, 461.3 110.5 C 471 113, 473 112.7, 473 108.4 C 473 104, 470.4 99.3, 467.6 98.6 C 465.4 98, 465 98, 461 98.7 M 50.8 100.7 C 50.5 101.1, 49.5 104, 48.5 107.2 C 47.5 110.3, 45.8 113.9, 44.8 115.2 C 42.9 117.5, 42.9 117.5, 43.3 109.3 C 43.6 102.7, 43.4 101.4, 42.5 102.8 C 39.6 107, 38.7 112.1, 40 117.5 C 41.2 122.4, 41.1 122.8, 38.9 125.4 C 35.8 128.9, 32.7 128.7, 29.6 124.8 C 26.8 121.2, 25.4 121.5, 26.4 125.5 C 27.1 128.2, 32.3 132, 35.4 132 C 36.5 132, 39 130.2, 41.1 128 L 45 123.9 47.7 125.9 C 52.3 129.2, 58.7 129, 62.7 125.6 C 65.4 123.2, 65.4 123.2, 66.5 125.3 C 68.1 128.5, 70 128.6, 70 125.5 C 70 122.4, 64.8 110.9, 62.5 109 C 60.3 107.1, 59.6 108.4, 60.9 112.1 C 64.7 123, 60.6 127.3, 50.6 123 C 45.1 120.7, 45.1 121.2, 49.5 112.5 C 53.3 105, 54.2 101, 52.3 100.3 C 51.7 100.1, 51 100.3, 50.8 100.7 M 178.7 107.3 C 177.7 114.3, 175.1 130.2, 174 135.8 C 172.9 141.2, 173.1 146.1, 174.3 143 C 175.9 138.6, 181 111.3, 181 106.7 C 181 102.4, 179.3 102.8, 178.7 107.3 M 422.2 109.3 C 422.4 109.9, 424.7 111.6, 427.3 113 C 429.9 114.4, 432 115.8, 432 116.1 C 432 116.4, 429.1 117.3, 425.5 118 C 418.1 119.5, 417.3 121.1, 421.6 125.1 C 426.2 129.4, 428 134.3, 428.7 144.6 L 429.3 154.2 426.9 153.5 C 420.8 151.7, 415 148, 408.4 141.7 C 404.4 138, 401 135.3, 400.7 135.7 C 400.5 136.1, 400.6 139, 401.1 142 C 402.3 150.7, 402.2 157, 400.7 157 C 399.2 157, 393.1 153, 386.9 147.8 C 384.3 145.7, 381.9 144, 381.5 144 C 381.1 144, 380 143, 378.9 141.8 C 377.3 139.8, 377.1 139.8, 377 141.3 C 377 142.2, 376.3 143, 375.5 143 C 374.1 143, 372.6 141.5, 364.7 132.5 C 360.6 127.9, 359 128.3, 361.6 133.2 C 365 139.8, 368.2 142.9, 375.3 146.5 C 379.3 148.5, 385.8 152.6, 389.7 155.6 C 400.2 163.4, 401.8 164, 404.2 161 C 406.2 158.5, 406.3 150.6, 404.4 145.5 C 404 144.4, 406 145.6, 409.4 148.4 C 416.4 154, 423.9 158, 427.8 158 C 432.9 158, 434.2 154.6, 433 144.3 C 432.2 137.1, 431.4 134.9, 427.5 128.5 C 423.3 121.7, 425.3 119, 434.5 119 C 441.3 119, 440 116.4, 430.8 111.2 C 424.8 107.9, 421.6 107.1, 422.2 109.3 M 333 120 C 329.7 122.1, 341.6 128, 349.1 128 C 358 128, 355.1 124.7, 342.6 120.6 C 336.9 118.8, 335.1 118.6, 333 120 M 44.5 131.3 C 44.9 132.8, 44.8 133.1, 44.2 132.1 C 42.7 129.9, 41.7 132.6, 43.1 135.2 C 43.8 136.5, 47.1 142, 50.5 147.5 C 72.4 183, 76.8 196.4, 81 241 C 81.5 246.8, 82.2 254.3, 82.6 257.8 C 83.1 262.5, 83 264, 82 264 C 80.4 264, 72.8 256.2, 67.3 248.8 C 63.9 244.3, 62.1 242.8, 58.2 241.6 C 53.6 240, 53.2 239.6, 49.5 232 C 47.4 227.6, 43.6 221.9, 41.2 219.3 C 38.8 216.6, 35.7 212.9, 34.2 211 L 31.6 207.6 35.5 210 C 42.9 214.6, 53 212.5, 53 206.3 C 53 203.5, 53.9 203.4, 57.9 205.8 C 60.4 207.2, 61.3 207.3, 62.7 206.2 C 63.7 205.6, 65.6 204.5, 67 203.8 C 72 201.4, 74.7 198, 71.7 198 C 70.9 198, 69.5 197.1, 68.5 196 C 66.3 193.5, 64.8 193.4, 65.1 195.8 C 65.5 200.4, 65.1 201, 61.2 201 C 59.2 201, 55.8 200.1, 53.8 199.1 C 49.5 196.7, 48.8 197.2, 49.6 202 C 50.5 207.6, 48.5 208.7, 40.4 207.1 C 36.9 206.4, 33.4 206, 32.6 206.3 C 31.2 206.9, 27.6 203.5, 24.6 198.7 C 21.7 194, 21.2 182.5, 23.9 179 C 28.3 173, 26.8 172.7, 19.1 178 C 15.9 180.2, 11.8 182.3, 10 182.7 L 6.7 183.3 7.3 178.3 C 7.6 175.6, 8.9 171.7, 10.1 169.6 C 13.6 163.6, 10.2 163.2, 5.7 169.2 C 2.2 173.7, 1 183.8, 3.6 186.4 C 5.7 188.5, 11.6 188, 15.6 185.4 L 18 183.8 18 190.6 C 18 194.4, 18.7 199.5, 19.5 202 C 25.8 221.7, 29.9 229, 34.7 229 C 37.6 229, 37.7 227.8, 34.8 226.5 C 32.4 225.4, 30.6 222.5, 27.8 214.6 C 25.5 208.2, 26.2 207.7, 29.5 213.2 C 31 215.5, 33.7 218.9, 35.5 220.5 C 37.4 222.2, 41.4 227.8, 44.3 233 C 49.6 242.3, 51 243.6, 57.7 246 C 59.9 246.8, 62.4 249.4, 65.8 254.3 C 70.7 261.4, 79 270, 84.3 273.4 C 85.8 274.4, 87 276.1, 87 277.1 C 87 279.8, 85.8 279.5, 82.4 275.9 C 79.1 272.4, 75.2 269.9, 76.6 272.2 C 77 272.9, 78.9 275.4, 80.7 277.8 C 83.1 281, 84 283.2, 83.9 285.8 L 83.9 289.5 82.2 287.1 C 80.4 284.6, 76 276.8, 70.7 266.8 C 67.9 261.5, 66 259.5, 66 262 C 66 264.2, 74.2 279.8, 78.3 285.5 C 82.5 291.3, 82.7 291.9, 83.7 302.2 C 84.3 308.1, 85.5 314.3, 86.4 316.1 C 87.6 318.5, 87.8 321.1, 87.3 328.4 C 86.8 336.5, 87.1 339.1, 89.4 348.2 C 90.9 354, 92.2 360.6, 92.3 362.9 C 92.4 365.7, 92.9 367, 93.9 367 C 95.6 367, 94.9 354.4, 92.9 350.8 C 92 349.3, 91.5 343.3, 91.2 334 C 91.1 326, 90.5 318.6, 90 317.5 C 87.4 311.7, 86.7 284.8, 89 278.5 C 89.9 276, 88.5 246.9, 86.9 235 C 85.3 223, 82 204.1, 81 200.5 C 80.5 198.9, 79.1 194.2, 77.9 190.2 C 74 176.8, 64.3 159, 52.5 143.5 C 48.9 138.8, 46 134.4, 46 133.8 C 46 133.2, 47 134, 48.2 135.6 C 49.4 137.2, 53 141.5, 56.2 145.2 C 59.4 148.8, 63.6 154.8, 65.5 158.6 C 68 163.4, 69.1 164.8, 69.6 163.7 C 70.7 160.8, 61.1 145.2, 53 136.8 C 45.3 128.7, 43.4 127.5, 44.5 131.3 M 161.7 135.8 C 159.5 139.3, 161.7 250.1, 164 253.8 C 165.2 255.7, 164.7 230.1, 162.8 194.5 C 162.2 183, 162 164.8, 162.3 154.3 C 162.9 136.2, 162.8 133.9, 161.7 135.8 M 283 148.3 C 280.8 150.6, 276.4 156.1, 273.2 160.4 C 270.1 164.8, 263.4 172.8, 258.4 178.1 C 251 186, 248.9 189, 247 194.2 C 245.7 197.6, 244.3 200.9, 243.8 201.5 C 242.8 202.7, 242.8 204, 243.8 204 C 244.3 204, 246.6 200.1, 249 195.4 C 251.3 190.7, 253.8 186.3, 254.4 185.7 C 256.6 183.4, 274.5 162.4, 280 155.6 C 288.7 145, 290.7 140, 283 148.3 M 37 155.6 C 32.9 166.4, 40 178.2, 49.7 176.7 C 55.1 175.8, 58.5 172, 53.9 172 C 51.9 172, 51.8 171.7, 52.5 164.5 C 52.9 159.4, 52.8 157, 52.1 157 C 50.2 157, 48 162.8, 47.9 168 C 47.7 173.7, 46.3 174.5, 43.2 170.5 C 42.1 169.2, 40.9 168.4, 40.5 168.8 C 40.1 169.2, 39.9 166.4, 40 162.5 C 40.2 158.7, 40.2 154.9, 40.1 154.3 C 39.9 152.1, 38 152.9, 37 155.6 M 336.6 159.3 C 335.2 161.6, 333.6 164.9, 332.9 166.5 C 332.1 168.6, 331.6 169, 331.2 168 C 329.2 162.3, 321.5 156, 316.5 156 C 311.2 156, 304.9 160.9, 305.8 164.3 C 306.8 168.3, 310 168.8, 310 165 C 310 162.2, 312.8 160, 316.4 160 C 320.5 160, 326.1 165.3, 328.7 171.6 C 330.8 176.7, 332.9 177, 334.3 172.5 C 336.7 164.4, 340.8 157.4, 342.3 158.9 C 343 159.6, 343.8 168.3, 344 177.2 C 344 177.6, 344.8 177.6, 345.7 177.3 C 347 176.8, 347.2 177, 346.5 178.6 C 346.1 179.6, 345.5 181.6, 345.3 183 C 345 184.4, 343.6 186.6, 342.2 187.9 C 339.1 191, 340.6 191.6, 345.6 189.5 C 355.3 185.5, 375.2 188.1, 378.8 193.9 C 379.9 195.9, 379.8 196, 376.1 196 C 370.2 196, 366 197.1, 366 198.6 C 366 199.4, 366.9 200, 368 200 C 370.4 200, 371.3 200.7, 378.4 207.3 C 384.2 212.8, 384.2 212.9, 373.5 215.5 C 366.5 217.3, 365.7 217.3, 360.8 215.7 L 355.5 214.1 359 217 C 360.9 218.7, 363.9 220.3, 365.7 220.6 C 367.8 221, 370.6 223, 374 226.6 C 376.8 229.6, 379.3 232, 379.6 232 C 380.9 232, 379.6 228.6, 376.6 224.7 L 373.2 220.2 379.3 219 C 386.5 217.5, 388 216.6, 388 213.5 C 388 210.7, 381.1 202.8, 376.8 200.7 L 373.5 199 378.7 199 C 388.5 199, 389.1 194.7, 380 189.1 C 373.1 184.9, 366.5 183.6, 355.7 184.4 L 346.8 185.1 349.6 181.3 C 351.2 179.2, 353.2 176.7, 354.2 175.7 C 358.4 171.6, 355.7 169.7, 350.3 173 L 347 175 347 168.5 C 347 155.3, 341.7 150.6, 336.6 159.3 M 79 170.2 C 79 170.6, 81.2 175.3, 83.9 180.7 C 86.6 186.1, 89.1 191.6, 89.5 193 C 89.8 194.4, 90.5 196.4, 91 197.5 C 92.5 201, 94.7 209.2, 97 219.5 C 99.7 232, 103.3 243.1, 103.8 240.7 C 104.1 239.2, 101.8 227.7, 97.5 209 C 93.9 193.3, 88.3 180.2, 82.5 173.5 C 80.6 171.3, 79.1 169.8, 79 170.2 M 186.6 174.9 C 183.9 179.3, 183 192.5, 184.5 206.1 C 186.3 222.6, 189.3 230, 194.1 230 C 197.3 230, 197.4 227.8, 194.2 225.1 C 188.5 220.3, 187.5 215.9, 187.5 193.8 C 187.5 182.9, 187.4 174, 187.3 174 C 187.2 174, 186.9 174.4, 186.6 174.9 M 137 183.6 C 137.1 191.6, 137.8 197.8, 140.4 212.5 C 142.6 224.7, 144 231.3, 144.7 233 C 145 233.8, 146.4 237.4, 147.6 241 C 150.2 248.4, 150.8 246.3, 148.4 238 C 147.5 235, 146.2 229.1, 145.3 225 C 144.5 220.9, 143.2 214.4, 142.4 210.5 C 141.6 206.7, 140.3 197.6, 139.7 190.3 C 138.2 175.2, 137 172, 137 183.6 M 95 181.3 C 95 181.9, 95.5 184.3, 96 186.5 C 96.5 188.7, 98.8 199.4, 101 210.3 C 103.2 221.1, 105.5 231.2, 106 232.6 C 106.6 234, 107 237.4, 107 240.3 C 107 245.1, 107.1 245.3, 108.7 243.7 C 110.2 242.3, 110.2 241.3, 109.2 235.3 C 103.9 205.1, 97.9 180, 95.9 180 C 95.4 180, 95 180.6, 95 181.3 M 102.1 183.2 C 103.9 186.6, 108.2 202.3, 110 212.6 C 110.6 215.3, 111.9 221.2, 113.1 225.6 C 114.2 229.9, 116 236.7, 117 240.5 C 118.6 246.9, 118.8 247.2, 118.9 243.5 C 118.9 241.3, 118.5 237.7, 117.9 235.5 C 115.8 227.5, 114 219.4, 113 214 C 111.9 208.1, 111.2 205.5, 107.9 194 C 105.4 185.4, 103.4 181, 101.9 181 C 101.3 181, 101.4 181.8, 102.1 183.2 M 282.7 183 C 281.5 184.7, 279.8 185.3, 275.1 185.7 C 271.7 186, 269 186.6, 269 187 C 269 188.3, 273.9 189.1, 277.7 188.4 C 280.7 187.8, 281.5 188.1, 283.4 190.5 C 285.8 193.5, 290.6 193.5, 293.1 190.3 C 294.3 189, 293.8 188.8, 289.5 189.1 C 285 189.5, 284.5 189.3, 284.2 187.3 C 283.9 185.2, 284.3 185, 288.4 185 C 290.9 185, 293.2 185.5, 293.5 186 C 293.8 186.6, 294.6 187, 295.1 187 C 296.7 187, 294.2 183.2, 292.3 182.6 C 285.8 180.8, 284.2 180.9, 282.7 183 M 206.7 193.3 C 203.8 199.2, 203.1 200.7, 198.4 213.9 C 195.1 223.1, 194.8 226.4, 197.5 222.7 C 198.2 221.7, 200.4 216.3, 202.5 210.7 C 204.5 205.1, 206.6 199.6, 207.1 198.5 C 211.5 188, 211.3 184.1, 206.7 193.3 M 304.3 193.7 C 302 194.5, 299.9 195.8, 299.6 196.7 C 298.7 199, 299.7 199.5, 301.4 197.7 C 305.5 193.6, 319.5 195.1, 320.7 199.8 C 321.5 203.1, 315.5 208.6, 310.1 209.6 C 304.1 210.7, 303 211.9, 308 212 C 310.6 212, 313.6 211.3, 315 210.3 C 325.7 203.2, 325.7 197.3, 315.1 193.5 C 310.1 191.8, 309.9 191.8, 304.3 193.7 M 113.6 197.5 C 113.9 199.7, 114.6 202.9, 115.1 204.5 C 117.3 212.1, 119 219.1, 120.5 226.5 C 121.4 230.9, 123.9 239.9, 126.1 246.5 C 133.1 267.2, 134 270.9, 134 280 C 134.1 287.1, 134.3 288.2, 135.3 286.5 C 137 283.7, 136.9 258.2, 135.1 250.5 C 134.4 247.2, 132.9 240.7, 131.8 236 C 130.7 231.3, 129.5 227.1, 129.1 226.5 C 128.6 226, 128 224.3, 127.6 222.8 C 127.3 221.2, 126.5 220, 126 220 C 124.8 220, 124.8 219.8, 126.1 224 C 128.7 232.3, 132.9 251.1, 133.6 257 L 134 261.5 131.9 256 C 130.7 253, 129.4 249.6, 129 248.5 C 128.5 247.4, 126.5 239.5, 124.4 231 C 118.8 207.3, 111.6 185.1, 113.6 197.5 M 177.6 204.8 C 176.5 208.7, 175.9 249.5, 177 247.7 C 177.7 246.7, 178.4 237.4, 178.7 224.5 C 179.3 204.8, 179 200, 177.6 204.8 M 221 203.9 C 221 204.4, 219.5 208.1, 217.6 212.2 C 212.4 223.7, 211 227.8, 211.1 231.8 L 211.1 235.5 214.3 229 C 217.2 223.2, 220.1 215, 221.4 209.5 C 221.6 208.4, 222.1 206.5, 222.5 205.3 C 222.9 203.9, 222.7 203, 222.1 203 C 221.5 203, 221 203.4, 221 203.9 M 275.7 208.2 C 268.5 212.1, 257.1 226.2, 258.4 229.6 C 259.2 231.7, 266 230.9, 270.1 228.2 C 275.1 225, 293.9 208.5, 293.9 207.3 C 294.1 203.8, 289.7 206.6, 277.7 217.5 C 270.3 224.2, 264.1 228.5, 263.2 227.5 C 262.1 226.4, 270.4 215.8, 274.9 212.3 C 282.4 206.6, 282.8 204.3, 275.7 208.2 M 235.2 213.4 C 228.1 221.5, 216.5 250.9, 211.6 273 C 209.6 282, 208.4 306, 209.9 306 C 210.5 306, 211 305.9, 211 305.8 C 212.4 298.7, 213.7 286.8, 213.3 284.9 C 212.7 281.7, 214.5 269.7, 216.7 262.5 C 222.8 242.6, 230.1 225, 232.2 225 C 232.6 225, 232.7 224.2, 232.3 223.3 C 232 222.3, 232 221.8, 232.5 222.2 C 233.4 223.1, 239.3 212.4, 238.8 210.8 C 238.6 210.2, 237 211.4, 235.2 213.4 M 194.7 245.2 C 193.2 250.1, 192.2 251.4, 186.5 255.9 C 170.4 268.6, 164.3 282.9, 168.7 297.5 C 171.3 306, 172.7 316.5, 171.8 321 C 171.3 323.5, 170.5 331.4, 170 338.5 C 168.8 353.3, 168.8 353.6, 166.6 368.5 C 164.3 384.3, 164.7 397.3, 167.7 405 C 168 405.8, 168.4 408.1, 168.6 410 C 169.2 418.1, 171.1 431.8, 172 435.7 C 172.5 438, 173 441.8, 173 444.2 C 173.1 447.7, 173.3 448.2, 174.1 446.7 C 174.7 445.7, 175 443.2, 174.7 441.2 C 173 428.7, 170.9 415.1, 169.3 406 C 166.5 389.4, 167.2 372, 172.4 334.5 C 173.2 329, 174.4 320.7, 175 316 C 175.6 311.3, 176.8 306.3, 177.5 304.8 C 178.2 303.3, 179.1 300.6, 179.4 298.8 L 180.1 295.5 178.4 299 C 177.5 300.9, 176.1 304.8, 175.2 307.5 L 173.7 312.5 173 308.5 C 169.8 290, 169.7 287.5, 171.5 281.9 C 174.1 273.7, 184.1 261.2, 189.7 259 C 191.9 258.1, 200 248.6, 200 246.9 C 200 246.4, 199.4 246, 198.6 246 C 197.7 246, 197 244.8, 196.8 242.8 C 196.5 239.7, 196.4 239.9, 194.7 245.2 M 36.9 254.5 C 36.5 257.7, 37.9 261.3, 44.9 275.2 C 49.2 283.6, 55.5 294.3, 58.8 299 C 62.2 303.7, 66.9 311.3, 69.3 316 C 73.3 323.6, 74.7 328.2, 77.9 343 C 78.4 345.5, 79.8 351.1, 80.9 355.5 C 82.9 362.7, 83.1 365.9, 82.9 388 C 82.6 440.6, 81.1 482.9, 79.1 495.5 C 78 502.1, 76.4 512.5, 75.5 518.5 C 71.9 543.2, 68.6 557.2, 64 568.5 C 60 578, 58.5 581, 54.6 586.8 C 48.6 595.8, 34 610, 30.8 610 C 28.5 610, 19.3 619.1, 8.4 632.1 C 4.6 636.7, 4.3 637.5, 6.5 638.3 C 9.5 639.5, 20 629.5, 27.9 617.8 C 29.7 615.1, 31.5 613, 32.1 613 C 33.2 613, 25.6 624.3, 17.4 634.8 C 13.5 639.8, 12 642.4, 12.7 643.1 C 13.4 643.8, 14.3 643.5, 15.3 641.9 C 16.2 640.7, 18.9 637.6, 21.2 635.1 C 23.6 632.6, 27.8 627.6, 30.5 624 C 33.2 620.4, 38 614.7, 41.1 611.3 C 44.3 607.8, 49.2 602.3, 51.9 599 C 54.7 595.6, 57 593.3, 57 593.9 C 57 594.7, 49.5 603.9, 38.1 617.1 C 32.5 623.6, 35.6 622.8, 42.6 615.9 C 56.2 602.7, 63.6 592.9, 66 584.8 C 67.2 580.8, 69.6 573.2, 71.2 568 C 78.2 545.8, 80.1 537.9, 83 518 C 85.3 502.3, 87.1 491.7, 87.6 490.8 C 88.8 488.9, 90.2 454, 90.7 412.6 C 91.2 368.2, 91.1 366.7, 87 350.5 C 86 346.7, 84.5 339.9, 83.5 335.5 C 81.5 326.2, 79.6 320, 77.4 315.9 C 74.1 309.5, 66.4 298.2, 61.5 292.5 C 58.6 289.2, 54.6 283.1, 52.5 279 C 45.2 264.4, 37.3 252, 36.9 254.5 M 99.5 270.3 C 99.1 271.2, 99.1 272.8, 99.5 273.8 C 99.9 274.7, 100.8 281.8, 101.5 289.5 C 103.3 307.7, 105.8 327.1, 106.5 327.8 C 107.4 328.7, 107 314.9, 105.9 306 C 101.9 273.4, 100.8 267.4, 99.5 270.3 M 110.4 290 C 110.7 298.5, 111.5 309.5, 112.1 314.5 C 113.2 323.3, 112.8 339.7, 111.5 345.3 C 110.3 349.9, 112.5 348.3, 113.9 343.4 C 115.4 338.4, 115 322.5, 112.7 292.3 C 111.1 271.3, 109.5 269.7, 110.4 290 M 121.2 279 C 121.1 280.9, 121.8 287.5, 122.6 293.5 C 123.4 299.6, 124.7 311.9, 125.5 321 C 127 337.3, 128.7 348.2, 128.9 343 C 129.2 334.8, 126.2 304.4, 123.8 291 C 123.2 288, 122.4 283.3, 122 280.5 C 121.4 276.4, 121.3 276.1, 121.2 279 M 148.2 289.2 C 147.6 292.1, 146.9 300.8, 146.5 308.5 C 145.6 331.4, 141.5 364.5, 139.1 369 C 138.6 369.9, 137.9 372.6, 137.6 375 C 137.2 377.5, 136.5 380.4, 136 381.5 C 134.5 384.8, 132.6 396.2, 130.6 413.4 C 130.2 416.6, 130.4 417, 131.5 415.9 C 132.2 415.1, 133.2 410, 133.8 404.5 C 134.4 399, 135.6 391.8, 136.4 388.5 C 137.2 385.2, 138.4 380.3, 139 377.5 C 139.6 374.8, 140.5 371.6, 141 370.5 C 143.9 364.2, 147.7 333.4, 148.9 307 C 149.4 294.6, 149.7 284.4, 149.6 284.3 C 149.4 284.1, 148.8 286.4, 148.2 289.2 M 92.7 288.7 C 92.3 289, 92 295.3, 92 302.5 C 92 315.8, 93.2 325.7, 98.1 351.5 C 99.4 358.1, 99.3 385.7, 98 399.5 C 97.4 405.6, 96.5 422.9, 96 438 C 95.2 463.8, 93.7 476.4, 90.5 485.1 C 88.9 489.5, 86 517.5, 84 547.5 C 82.1 576.3, 77.8 597.3, 71.7 607.8 C 70.7 609.5, 69.4 611, 68.9 611 C 65.5 611, 70.4 615.4, 75.3 616.5 C 78.9 617.4, 78.7 615.9, 74.9 613.7 L 71.7 611.9 73.8 609.7 C 79.2 603.9, 84.6 580.7, 86 556.2 C 88.4 517.6, 90.8 495.7, 94.4 481 C 97.4 468.7, 98 463.5, 98 446.7 C 98 430.6, 100 397.4, 102 380.3 C 103 371.5, 101 350.6, 97 328.5 C 95.7 320.9, 95 312.9, 95 302.8 C 95 289.3, 94.6 286.8, 92.7 288.7 M 156.6 289.9 C 156.2 291.2, 156.1 295.5, 156.5 299.5 C 157.8 313.3, 153.8 362.7, 151 367.9 C 150 369.8, 147.9 383.9, 148.1 387.8 C 148.3 391, 149 388.4, 151.3 376.5 C 152 372.6, 152.9 369, 153.2 368.4 C 156.1 363.8, 159.7 311.3, 158.2 296 C 157.6 289.6, 157.2 288.1, 156.6 289.9 M 369.5 294.6 C 364.9 297, 362.3 299.8, 360.1 305 C 356.6 313.2, 349.7 316.1, 330.4 317.4 C 299.2 319.6, 278.6 331.2, 275.2 348.6 C 274.6 351.3, 273.2 356.8, 272.1 360.7 C 268.4 373.5, 268.9 376, 276.6 383.8 L 283.2 390.5 284.8 388.2 L 286.3 385.9 287.6 388.9 C 289.1 392.5, 292.5 393.1, 293.3 390 C 294 387.4, 296 388.2, 298.2 392 C 300.3 395.7, 302 395.9, 302 392.5 C 302 389.1, 303.6 389.4, 304.9 393 C 306 396.4, 306.6 396.6, 309.1 394.4 C 310.8 392.9, 311.1 393, 313.4 395.6 C 315.7 398.4, 315.9 398.4, 319.5 397.1 C 322.9 395.9, 323.3 396, 325.6 398.1 C 328 400.3, 328.2 400.3, 330.9 398.7 C 334.1 396.8, 336 397.9, 336 401.6 C 336 403.3, 335.2 404, 333.1 404.5 C 329.5 405.3, 327.6 407.4, 328.4 409.6 C 328.8 410.6, 328.6 411, 327.8 410.7 C 327 410.5, 326.6 408.9, 326.8 406.6 C 327.2 402.1, 325.6 401.9, 320.6 405.9 C 316.6 409.1, 314 409, 314 405.8 C 314 403.9, 313.9 403.9, 311.5 405.4 C 310.2 406.3, 308 407, 306.6 407 C 304.2 407, 298 414.6, 298 417.5 C 298 422.8, 305.1 433.7, 310.7 437 C 320 442.5, 329.1 443.3, 345 440.1 C 350.2 439, 359 437.3, 364.5 436.2 C 385.7 431.9, 389.1 432.2, 393.6 438.9 C 396.8 443.7, 396.6 445.7, 391.3 460.5 C 385.7 476.6, 383.9 484.6, 383.3 497.8 C 382.6 512.2, 382.3 512.5, 373.8 505.5 C 365.4 498.6, 359.3 498.8, 351.2 506.3 C 345 512, 343.7 524.3, 348.5 531.6 C 350.4 534.6, 351.1 534.6, 355.9 531.4 C 358.8 529.5, 360.8 529, 363.9 529.2 L 368.1 529.5 365.1 533 C 360.7 538.1, 360.9 540.4, 365.8 539.6 C 369.3 538.9, 371.1 537.5, 373.6 533.4 C 374.7 531.6, 375 531.7, 378 534.8 C 381.5 538.3, 384.4 538.8, 387.7 536.5 C 390.1 534.8, 389.9 534.5, 394 547.5 C 397 556.7, 402 567.3, 407.4 576 L 411.8 583.1 410 590.3 C 404.3 612.9, 404.7 621.4, 412 634.1 C 418.1 644.7, 418.1 647.1, 411.7 652.5 C 409.5 654.4, 407.2 656, 406.8 656 C 406.3 656, 404 656.9, 401.6 658 C 399.3 659, 394.4 660.6, 390.9 661.5 C 387.4 662.4, 380.9 664.2, 376.5 665.5 C 372.1 666.8, 366.7 668.2, 364.5 668.5 C 362.4 668.9, 357.4 670.7, 353.5 672.6 C 349.7 674.5, 345.9 676, 345.3 676 C 344.6 676, 344 676.7, 344 677.5 C 344 678.4, 343.1 680, 342.1 681.1 C 335.2 688.5, 334.9 695, 341.3 695 C 343 695, 345.2 695.8, 346.3 696.8 C 347.8 698.1, 350.6 698.6, 358.9 699 L 369.5 699.5 369.6 703.7 C 369.7 708.9, 370.3 709.7, 373.3 708.2 C 377 706.3, 386.8 705, 397.4 705 C 410 705, 419.3 703, 429 698.4 C 433.1 696.5, 438.5 694.4, 441 693.9 C 443.5 693.4, 449.2 692.2, 453.7 691.2 C 460.1 689.8, 462.9 689.6, 466.2 690.3 L 470.5 691.3 466.8 698.9 C 461.6 709.3, 461.6 709.4, 469.5 708.7 L 476 708.1 476 713 C 476 719, 476.9 719.6, 481.7 717.2 C 486.3 714.8, 496.7 713.1, 507.5 712.9 C 518.2 712.7, 517.7 712.5, 518.4 717.1 C 519.8 725.8, 522.3 727, 528 721.6 C 531.1 718.7, 532.5 718.1, 540.5 717 C 545.5 716.3, 551 714.9, 552.9 713.8 C 555.5 712.3, 559.6 711.7, 571.5 711 C 586.6 710.1, 596.9 707.9, 597.7 705.3 C 598 704.6, 596.6 704, 594.4 703.8 C 592.3 703.6, 590.5 702.9, 590.2 702.1 C 589.7 700.7, 593.7 700.9, 598.8 702.5 C 602.3 703.6, 601.4 701.4, 597.6 699.6 C 595.7 698.7, 593.1 698, 591.7 698 C 589.1 698, 584 694.6, 584 692.8 C 584 692.2, 584.8 692.4, 585.8 693.3 C 588.1 695.4, 590.1 695.5, 589.4 693.5 C 588.6 691.6, 590.4 691.6, 592 693.5 C 592.6 694.3, 594.2 695.2, 595.3 695.6 C 596.5 695.9, 599.2 697.3, 601.2 698.7 C 604.9 701.2, 609 701.5, 609.7 699.3 C 610 698.6, 608.8 698, 606.8 697.8 L 603.5 697.4 607 695.8 C 609.9 694.4, 610.2 694, 608.7 693.4 C 607.7 693.1, 606.4 693.2, 605.7 693.9 C 604.4 695.2, 600 695.4, 600 694.1 C 600 693.5, 600.7 692.7, 601.5 692.3 C 603.6 691.1, 602.3 689.9, 594.6 686 C 588.3 682.8, 583 678.2, 583 675.9 C 583 673, 657.3 677.7, 663.2 681 C 665.4 682.2, 667 682.3, 667 681.2 C 667 679.8, 660.2 677.9, 652 677 C 647.9 676.5, 640.7 675.7, 636 675.2 C 609 672, 595.4 671.6, 584.5 673.6 C 582.2 674, 581 673.6, 579.6 672.1 C 577.7 670, 577.7 669.7, 580.5 660 C 583.2 650.5, 582.3 633.7, 578.6 624.8 C 576.4 619.6, 576.3 619.7, 583.3 617.5 C 596.5 613.3, 620.6 600, 635.5 588.7 C 643.4 582.8, 657.6 567.2, 664.1 557.4 C 675.9 539.8, 682.1 525.3, 688.5 500.5 C 696.7 469, 701.8 460.2, 717.8 450.8 C 721.8 448.4, 724 446.4, 724 445.2 C 724 435.5, 702.4 442.9, 689.9 456.9 C 684.8 462.6, 683.6 464.3, 673.3 480.7 C 663.9 495.6, 656.3 503.3, 644.9 509.3 C 631 516.7, 611.9 518.8, 602.3 513.9 C 595 510.1, 584.3 495.4, 570.4 470 C 555.3 442.2, 541 429, 514.5 418 C 511.8 416.8, 500.6 413.5, 494.7 412.1 C 492.1 411.5, 487.6 411, 484.7 411 C 475.6 411, 475.9 411.9, 478.6 388 C 484 342.3, 465.3 312, 427.8 305.6 C 425.7 305.2, 424 304.5, 424 304.1 C 424 303.6, 421.3 301.8, 418 300.1 C 412.5 297.2, 410.8 296.8, 398.7 296 C 391.5 295.5, 383.7 294.6, 381.5 294.1 C 375.9 292.6, 373 292.8, 369.5 294.6 M 379 305.4 C 375.4 307.7, 370.4 310.5, 367.7 311.4 C 365.1 312.4, 362.4 313.8, 361.7 314.5 C 357.7 318.4, 346.8 321.5, 333.5 322.4 C 313.6 323.8, 294.3 329.7, 294.6 334.3 C 294.7 335.6, 294.1 335.8, 291.7 335.3 C 289.4 334.8, 288.8 335, 289.2 336.1 C 290.4 339.6, 284 353.7, 280.6 355 C 278.5 355.8, 275 366, 275 371.5 C 275 372.3, 278.3 372.9, 286.3 373.3 C 295 373.7, 299.5 374.5, 306.5 376.8 C 311.5 378.5, 319.6 380.8, 324.5 381.9 C 329.5 383.1, 335.5 384.6, 338 385.2 C 346.4 387.5, 363.4 386.6, 372.5 383.6 C 385.6 379.2, 401.1 370.9, 400.4 368.7 C 399.7 366.4, 403 367.1, 411.5 371.1 C 425.1 377.5, 430.3 378.3, 435.8 375 C 439.7 372.6, 441.3 368.8, 440.5 364 C 440 360.7, 440 360.6, 441.6 362.5 C 445.4 367.3, 440.5 378.6, 433.4 381.6 C 428.7 383.6, 424.6 383.4, 417 380.9 L 410.4 378.8 404.9 382.6 C 401.9 384.8, 395.3 390, 390.3 394.4 C 361.5 419.3, 337.5 428.7, 312.5 425.1 C 304.2 423.9, 304.3 423.8, 307.8 427.8 C 316.1 437.1, 330 437.9, 359 430.7 C 377.6 426.1, 392.6 423.7, 409.9 422.5 C 435.4 420.7, 450.6 409.9, 455.7 390 C 456.5 387, 457.6 382.7, 458.2 380.5 C 460.2 372.4, 458.6 361.5, 453.6 350 C 451.1 344.3, 449.3 339.3, 449.6 339 C 450.4 338.3, 453.7 343, 455.5 347.5 C 456.4 349.7, 457.8 352.9, 458.6 354.5 C 464.3 366.9, 464.2 377.8, 458.3 396.5 C 453.3 412.2, 438.6 423.6, 417 428.6 C 407.6 430.8, 407.5 430.9, 412.5 431.1 C 428.1 431.9, 439.4 428.6, 449.2 420.1 C 457 413.5, 457.7 413.1, 455.2 416.7 C 445.7 430.3, 418.9 440.1, 405.5 435 C 402 433.7, 402.5 435.6, 406.4 438.4 C 410.4 441.5, 426.4 441.3, 433.3 438.2 C 438.5 435.8, 441.5 435.4, 440.5 437.1 C 439.6 438.4, 430.9 442.3, 424.8 443.9 C 420.1 445.2, 409.2 445, 405.8 443.5 C 404.5 443, 404 443.2, 404 444.2 C 404 450.5, 419.1 452.6, 429.9 447.9 C 434.9 445.7, 435 445.7, 435 446.9 C 435 448.9, 422.2 454, 417.2 454 C 412.2 454, 405.7 451.9, 404.5 450 C 403.3 448, 402.1 450, 403.1 452.3 C 404.5 455.3, 409.7 458.6, 414.2 459.4 C 418.7 460.2, 420.2 462, 416.3 462 C 411.2 462, 406.2 460, 403.5 456.8 C 402.1 455.1, 400.8 453.9, 400.6 454.1 C 400.2 454.6, 395.9 466.2, 392.4 476.5 C 386.8 492.8, 388.1 511.7, 395 514.3 C 396.6 514.9, 398 516, 398 516.8 C 398 518.6, 390.3 522, 386.2 522 C 381.4 522, 382.6 519.9, 388.1 518.6 C 395.5 516.8, 394 514.6, 385 514.2 C 377.7 513.9, 377.6 514, 379.9 515.6 L 382.3 517.3 379.6 518.7 C 377.1 520, 377.1 520.2, 378.4 522.2 C 379.5 523.8, 379.6 524.8, 378.9 526.2 C 377.5 528.9, 378.5 531, 381.2 531 C 384.4 531, 388.1 528.3, 387.4 526.5 C 386.9 525.4, 387.6 525, 390.2 525 C 392 525, 395.1 524.2, 397 523.1 C 401.2 520.9, 401.3 519.1, 398.1 508.3 C 395.8 500.2, 395.5 495.5, 397.1 491.3 C 398.1 488.5, 398.1 488.5, 399.8 490.6 C 404.3 496.1, 408 497.5, 417.8 497.5 C 425.4 497.5, 426.7 497.7, 425.3 498.8 C 420.7 502.1, 407.4 500.4, 402.3 495.7 L 400 493.7 400 496 C 400 498.5, 405.7 515.9, 407 517.3 C 407.4 517.8, 409.5 517.4, 411.6 516.5 L 415.5 514.8 411.8 513.3 C 409.7 512.5, 408 511.3, 408 510.8 C 408 510.2, 409.6 510.1, 411.8 510.4 C 413.8 510.7, 418.2 511.2, 421.4 511.5 C 426.5 512.1, 427.9 512.7, 431.9 516.5 L 436.6 520.9 440.6 519.5 C 442.7 518.8, 446.7 517.9, 449.3 517.5 C 453.7 516.8, 454.1 516.5, 453.5 514.6 C 448.5 498.2, 451.5 479.9, 460.7 471.3 C 462.6 469.5, 464.6 468.2, 465.1 468.6 C 465.6 468.9, 464.9 470.1, 463.5 471.2 C 459.7 474.1, 458.3 477.7, 456.9 487.2 C 454.8 502.3, 457.9 513.9, 465.1 517.4 C 469.2 519.4, 474 524.4, 472.8 525.5 C 472.5 525.8, 470.3 524.9, 467.9 523.5 C 462.4 520.4, 459 520.4, 446.5 523.5 C 434.1 526.6, 435.8 526.9, 429.7 521.1 C 424.6 516.4, 420 513.9, 420 515.8 C 420 516.4, 420.5 517, 421.2 517.2 C 424.1 518.2, 421 521, 417 521 C 411.6 521, 409 522.5, 409 525.5 C 409 527.6, 409.5 528, 411.9 528 C 418.5 528, 417.4 532.2, 409.8 536.8 C 406.5 538.7, 406.3 539.6, 408.9 541 C 410.5 541.8, 411 541.6, 411.5 540 C 411.8 538.9, 412.6 537.9, 413.1 537.9 C 416.1 537.4, 416.3 537.8, 416.4 542.9 C 416.5 546, 417 548.5, 417.7 548.7 C 418.8 549.1, 422 543.7, 422 541.3 C 422 539.8, 425.8 532, 426.5 532 C 426.8 532, 427.8 532.7, 428.9 533.6 C 436.7 540.3, 470.1 544.9, 476.7 540.2 C 482.3 536.3, 485.7 521.8, 483.2 512.8 C 482.1 508.6, 483.5 507.4, 484.9 511.3 C 488 519.3, 487.3 491.3, 484.2 481.5 C 483.1 478.2, 482.4 475.3, 482.6 475.1 C 484.4 473.1, 491 487.7, 491 493.8 C 491 499.7, 492.5 500.9, 494.6 496.9 C 497.9 490.8, 497.5 497, 494.1 505 C 492.4 509, 490.1 517, 489.1 522.9 C 485.2 545, 477.1 551.3, 456.5 548.1 C 449.3 547, 431.5 541.5, 429.3 539.8 C 427.1 538, 425.3 539.7, 424.6 544 C 423.8 549.2, 420.3 554, 417.4 554 C 415 554, 411 549.8, 411 547.3 C 411 546.5, 410.5 546.2, 409.9 546.6 C 409.3 546.9, 407.1 547.2, 404.9 547.2 C 402.8 547.2, 401 547.3, 401 547.6 C 401 549.3, 409.5 565.5, 411.8 568.2 C 413.4 570, 416.1 573.8, 417.9 576.7 C 425 588.1, 445 602.8, 462.5 609.6 C 466.4 611, 470.4 612.6, 471.5 613.1 C 474.9 614.5, 489.1 617, 490.1 616.4 C 490.6 616.1, 490.5 614.9, 489.8 613.7 C 486.7 608.3, 488.6 584.3, 494.2 558 C 495.3 552.8, 496.6 546.6, 497.1 544.2 C 497.6 541.9, 498.4 539.1, 499 538 C 499.6 536.9, 499.8 535, 499.5 533.8 C 499.2 532.5, 499.4 530.2, 500 528.5 C 500.8 525.8, 500.9 526, 500.5 530 L 500 534.5 503.1 528 C 509.1 515.7, 521 502.1, 531.2 495.6 C 540.8 489.5, 542 491.1, 533.1 498.3 C 527.8 502.5, 516 515.7, 516 517.4 C 516 517.7, 518.1 516.7, 520.8 515.1 C 532 508.2, 543.3 504, 550.7 504 C 557.6 504, 558.4 505.7, 551.8 506.3 C 546.3 506.8, 539.1 508.4, 536.2 509.9 C 535.3 510.3, 531.9 511.9, 528.7 513.4 C 510.6 521.7, 501.2 541.8, 496.5 582.9 L 495.9 588.3 498.9 585.5 C 508 576.8, 529.1 576.2, 536 584.5 C 537.8 586.7, 536.4 587.7, 534.3 585.7 C 531.7 583.4, 524.1 581, 519.4 581 C 511.2 581, 498.5 586.4, 496 590.9 C 493.4 595.8, 494.1 610.2, 496.8 606.4 C 497.6 605.2, 509 603, 514.4 603 C 520.5 603, 526.6 605, 529.5 608 C 532.1 610.7, 532.1 610.9, 530.5 613.4 C 529.5 614.8, 527.8 616.2, 526.6 616.5 C 512.9 619.2, 507.9 619.4, 501.2 617.4 C 497.5 616.3, 499.6 619.8, 503.7 621.5 C 507.6 623.1, 517.5 623.5, 521.2 622.1 C 529.4 619.1, 532.2 620.6, 524.8 624 C 521.8 625.4, 518.2 626, 513 626 C 506.1 626, 505.7 626.1, 507.2 627.6 C 509.7 630.1, 521.5 629.8, 526.8 627.1 C 531.6 624.7, 536.8 619.4, 537.6 616.3 C 538.3 613.7, 541 613.1, 541 615.5 C 541 617.4, 537 623.9, 534.3 626.2 C 530.9 629.3, 523.1 632.1, 517.5 632.3 C 514.1 632.4, 512 632.9, 512 633.7 C 512 637.7, 523 641.5, 532.7 640.7 C 536.2 640.5, 539 640.6, 539 641.1 C 539 643.1, 533.1 644.2, 524.3 643.8 C 519.2 643.6, 515 643.5, 515 643.6 C 515 643.8, 516.4 644.5, 518 645.4 C 523.8 648.3, 532 649.3, 543.7 648.5 C 555.2 647.8, 557.5 648.5, 552.3 651 C 549.1 652.5, 531.8 653.6, 526.7 652.6 C 524.8 652.2, 521.6 650.8, 519.6 649.5 C 514.8 646.2, 515 646.1, 515 653.3 C 515 661.2, 512.6 666.5, 506.1 673 L 501.1 678 503.3 682 C 504.5 684.2, 506 686, 506.5 686 C 507.1 686, 510.7 682.9, 514.5 679 C 521.2 672.3, 524.9 670.4, 526.5 673 C 526.8 673.6, 526.5 674, 525.8 674 C 525 674, 522.9 675.3, 521 676.9 C 517.8 679.6, 517.6 679.9, 519.5 680.6 C 520.6 681, 522.7 682.4, 524.1 683.7 L 526.8 686.2 528.1 682.3 C 528.9 680.2, 529.5 678.1, 529.5 677.5 C 529.5 676.4, 531.5 674, 532.5 674 C 533.3 674, 532.1 680.1, 531 681.5 C 530.6 682.1, 529.9 683.6, 529.5 684.9 L 528.8 687.3 531.5 685.2 C 538 680.1, 547 683.4, 551.8 692.6 L 553.9 696.5 554 691 C 554 686.9, 553.2 683.9, 551 679.1 C 546.3 669.2, 547.4 665.5, 552.4 674.3 C 557.7 683.8, 559.5 690.9, 558.1 697.9 C 556.7 705, 556.7 705.2, 558.8 704.7 C 559.7 704.4, 562.2 703.9, 564.3 703.5 C 567.3 703, 568 702.5, 568 700.7 C 568 697, 569.6 695.4, 570.4 698.3 C 571.5 702.8, 573.6 704, 580.3 704 C 585 704, 586.1 703.7, 585.2 702.8 C 584.5 702.1, 584 700.7, 584 699.6 C 583.9 695.2, 581.5 693.7, 575.8 694.3 C 571 694.9, 570.7 694.8, 572.4 693.5 C 573.5 692.7, 576.4 692, 578.8 692 C 587.6 692, 588 690.6, 581.2 683.7 C 572.1 674.3, 570.3 669.5, 573.7 663.5 C 576.3 659, 576.2 636.9, 573.6 628.2 C 571.5 621.3, 566.4 614.6, 562.5 613.6 C 560.6 613.1, 560 612.3, 560 610.3 C 560 607.8, 559.9 607.8, 558.2 609.3 C 554.5 612.7, 553.7 605.4, 557.1 599.6 C 559.8 594.9, 560.3 595.1, 559.6 600.3 L 558.9 604.5 564.6 598.5 C 582.4 579.7, 587.5 567.7, 586.8 546.8 C 586.5 537.5, 586.7 535.3, 587.7 536.1 C 591.7 539.5, 593.4 561.2, 590.5 571.5 C 589.6 574.4, 587.1 579.6, 585 583 C 580.4 590.1, 580.4 590, 583 589.3 C 584.1 589, 586.7 586.7, 588.7 584.2 C 590.8 581.6, 593.5 578.5, 594.8 577.2 C 596 576, 597 574.5, 597 574 C 597 573.4, 597.5 573, 598 573 C 598.6 573, 599 572.2, 599 571.3 C 599 570.1, 599.3 569.9, 600.1 570.7 C 601.5 572.1, 597.1 580.2, 593 583.6 C 587 588.7, 590.1 587.8, 610.4 578.5 C 617 575.5, 631.2 567.1, 633 565 C 634.9 562.9, 653.2 548.9, 653.6 549.3 C 654.9 550.6, 632.4 569.2, 620.5 576.7 C 612.8 581.5, 594 590.7, 589.5 591.8 C 587.3 592.4, 583.4 593.4, 580.9 594 C 577.3 594.9, 574.9 596.6, 570.4 601.1 L 564.5 607 567.5 609.5 C 572.6 613.8, 578.1 612.7, 595.7 603.9 C 615.6 593.9, 632.7 582.3, 643.5 571.5 C 660.6 554.5, 676.9 523.7, 685 493.5 C 691.4 469.6, 701.2 454.2, 713.8 448.6 C 718.5 446.5, 719.5 444.6, 715.3 445.6 C 702.4 448.7, 689.1 461.1, 680.4 478.2 C 674.3 490.1, 662.9 504.7, 656.1 509.1 C 653.7 510.6, 653.7 510.7, 655.5 513.3 C 657.9 517, 656.8 517.7, 653.5 514.6 L 650.9 512.1 646.5 514.8 L 642.1 517.5 644.5 520 C 648.9 524.6, 647.7 527, 643.2 522.7 L 639.3 518.9 634.7 520.2 C 629.2 521.6, 629.2 521.8, 632.6 527 C 635.6 531.5, 635.2 533.5, 632.1 529.8 C 631 528.6, 629.2 526.4, 628.1 525.1 C 626.4 523.2, 625.5 522.9, 622.5 523.4 C 618.2 524.2, 618.2 524, 622.5 529.6 C 625.9 534, 626.9 537, 625.1 537 C 624.6 537, 623.9 536.2, 623.6 535.2 C 623.3 534.3, 621.1 531.3, 618.8 528.7 C 614.9 524.4, 614 523.8, 609.2 523.3 C 605.1 522.9, 603.6 523, 602.9 524.1 C 602.2 525.2, 602 525.2, 602 523.9 C 602 522.4, 597.3 518.4, 596.5 519.2 C 596.3 519.4, 596.7 521.8, 597.4 524.5 C 601.2 539.4, 599.1 539.8, 594.1 525.2 C 588.9 510, 581.4 498.9, 572.5 493.2 C 569.5 491.2, 568.9 490.5, 570.3 490.2 C 572.3 489.8, 572.4 488.7, 570.9 485.7 L 569.7 483.6 568.8 485.9 C 568.1 488, 567.6 488.2, 563.2 487.5 C 560.6 487.2, 557.8 486.2, 557 485.4 C 555.7 484.1, 555.9 484, 558.8 484.6 C 561 485, 562.8 484.7, 564.6 483.6 C 567.8 481.5, 567.4 478.9, 562.5 469.8 L 559 463.5 559 467.9 C 559 472.6, 557.2 479.9, 555.7 481.5 C 555.1 482.1, 555 481.2, 555.4 479 C 555.8 477.1, 556.3 472.1, 556.6 468 C 557.2 459.8, 555.4 455.6, 548.2 448.7 L 545.3 445.9 544.6 454.2 C 543.8 464.3, 539.9 476.7, 537 478.5 C 535.6 479.4, 535.8 477.3, 537.4 474.2 C 540 469.1, 542 458.8, 542 450.5 L 542 442.2 538 438.7 C 532.1 433.7, 523.4 429.1, 524.5 431.6 C 530 444.5, 529.8 467.9, 524.3 475.5 C 522.8 477.4, 522.8 477.4, 523.4 474.9 C 526.6 460.6, 526.3 444.8, 522.6 434 L 520.3 427.5 513.6 424.8 C 509.9 423.3, 504.8 421.6, 502.2 421.1 C 499.6 420.5, 494.2 419.3, 490.2 418.4 C 483 416.8, 479.8 417.2, 483.4 419.2 C 486.6 421, 490 430.3, 490 437.5 C 490 441.2, 489.6 444, 489 444 C 488.5 444, 488 441.7, 488 438.9 C 488 432, 485.5 424.9, 481.3 420.1 C 479.4 417.8, 477.5 416, 477.2 416 C 476.8 416, 476.5 420.7, 476.5 426.5 C 476.5 434.4, 476.1 437.4, 475 438.5 C 473.7 439.8, 473.5 439.1, 473.7 432.7 C 473.9 427.7, 473.7 426.3, 473.1 428.1 C 471.3 433.5, 465.3 441, 462.6 441 C 461.9 441, 463.1 439.1, 465.3 436.9 C 470 431.9, 473 425.3, 473 419.9 C 473 415.4, 471.3 414.7, 470.4 418.8 C 469.5 422.7, 463.9 433, 463 432.5 C 462.6 432.2, 464 427.7, 466.2 422.3 C 469.6 413.8, 470.2 411.1, 471 400.1 C 471.6 393.2, 472.5 384.6, 473.1 381 C 475.4 366.7, 470.8 345.4, 462.7 333.5 L 460.4 330.1 460.5 338 C 460.5 343, 460 346.3, 459.3 347.1 C 458.3 348.1, 458 346.4, 458 338.5 C 458 327, 456.6 324.1, 449.3 319.6 C 443.4 316.1, 443.4 316, 445.7 324.3 C 446 325.4, 445.6 326, 444.6 326 C 443.7 326, 443 325.3, 443 324.5 C 443 322, 439.2 315.3, 437.5 314.6 C 434.7 313.6, 430.2 313.9, 429.7 315.3 C 429.4 316, 426.9 314, 423.3 310.3 C 416.2 302.8, 415 302.3, 419 308.7 C 424 316.6, 422.8 318.4, 416.8 312 C 411.8 306.8, 407.9 304.9, 400.6 304.2 C 397.2 304, 393.6 303.1, 392.5 302.4 C 389.2 300.1, 385.8 300.9, 379 305.4 M 184.6 313.8 C 183.9 323.5, 184.1 325.5, 188.5 344.5 C 190.3 352.6, 191.6 356.6, 194.1 361.8 C 196.6 367.3, 197.8 366.5, 195.7 360.8 C 189.8 344.7, 185.9 323.2, 186.8 311.3 C 187.1 306.6, 186.9 304, 186.3 304 C 185.7 304, 184.9 308.1, 184.6 313.8 M 387.5 307.2 C 381.5 310.5, 376.7 318, 377.2 323.3 L 377.5 326.5 380.2 321.9 C 384.1 315.3, 387.2 313.5, 394.6 313.6 C 405.5 313.7, 412.5 320.1, 413.7 331 C 414.1 335.7, 414 337.1, 413.2 336.6 C 412.5 336.2, 412 334.8, 412 333.5 C 412 332.2, 411.2 329.2, 410.1 326.8 C 404 312.5, 384.8 312.8, 379.8 327.2 C 379.1 329.2, 378.1 330, 375.7 330.2 C 372.5 330.5, 370.6 333, 373.5 333 C 374.7 333, 374 334.4, 370.8 338.1 C 362.6 347.7, 361.3 351.4, 364.8 355.6 C 367.4 358.7, 372 361.2, 373.8 360.5 C 375 360.1, 374.5 359.5, 371.9 358.1 C 367 355.5, 365.4 351.8, 367 346.6 L 368.3 342.5 369 345.6 C 370.1 350.4, 373.1 354.7, 376.6 356.6 C 381.1 359.1, 382 357.7, 378 354.3 C 375 351.8, 373.3 348.9, 371.6 343.4 C 371.1 341.8, 371.9 340.1, 374.6 336.9 L 378.3 332.5 377.6 338.5 C 376.1 351.2, 386.2 355.8, 405.4 351 C 414.8 348.7, 414.2 349.3, 415.8 341.7 C 419.8 322.5, 417 313.5, 405.3 307.6 C 401.6 305.7, 390.6 305.5, 387.5 307.2 M 392.3 319.7 C 383.9 321.2, 378.3 341.6, 384.6 347.5 C 387.9 350.6, 395 350.8, 405.3 348.3 C 413.4 346.4, 413.9 345.6, 411.5 338.1 C 406.7 322.9, 401.6 318.1, 392.3 319.7 M 390.3 326 C 382.1 331, 381.6 344.2, 389.5 347.5 C 397 350.7, 403 346.3, 403 337.8 C 403 326.4, 397.7 321.4, 390.3 326 M 180.8 335.3 C 178.7 340.4, 180.7 369.9, 184.5 388.9 C 185.3 393.1, 186.4 399, 187 402 C 187.6 405, 189.3 412, 190.6 417.5 C 192 423, 193.5 429.3, 193.9 431.5 L 194.7 435.5 195.4 431.8 C 195.9 429.7, 195.9 427.2, 195.5 426.3 C 195.1 425.3, 194.3 421.6, 193.5 418 C 192.4 412.1, 188.6 393.2, 186 380.5 C 184.8 374.8, 183.1 358.2, 182.2 343.5 C 181.8 337.5, 181.2 334.2, 180.8 335.3 M 311.9 342.1 C 306.7 347.7, 304.7 352.1, 306.4 353.8 C 310.4 357.8, 323.7 344.8, 320.8 339.7 C 319.3 336.9, 315.9 337.8, 311.9 342.1 M 127.6 368 C 127.3 379.8, 126.7 392.3, 126.4 395.8 C 125.6 404.2, 127.1 407.5, 128.2 400 C 129.5 391.6, 130.3 351.9, 129.2 349 C 128.5 347.2, 128.1 352.7, 127.6 368 M 176 392.8 C 176 393.7, 177.6 403.4, 179.6 416 C 180.5 421.2, 181.4 427.4, 181.7 429.8 C 182 432.1, 182.7 434, 183.2 434 C 184.6 434, 183 418.9, 180.1 404.5 C 179.5 401.8, 178.8 397.8, 178.5 395.8 C 178 392.7, 176 390.2, 176 392.8 M 113.1 421.1 C 113.1 424.1, 113.5 428.8, 114.1 431.5 C 116 441.7, 118.2 454.7, 119.4 462.5 C 120.7 471.5, 123.2 477.8, 122.4 470 C 121.3 460.8, 120.1 452.2, 118.5 443.5 C 117.6 438.6, 116.3 430.6, 115.6 425.8 C 114.2 415.6, 113 413.4, 113.1 421.1 M 503.2 425.1 C 508.5 432.3, 509.4 435.5, 509.3 448.8 C 509.3 456.7, 508.9 461.5, 508.2 462.2 C 506.8 463.6, 506.6 465, 507.8 465 C 511 465, 513.3 443.6, 511.1 435.4 C 509.8 430.4, 506.4 425.3, 503 423.1 L 500.5 421.5 503.2 425.1 M 134.8 428 C 134.4 428.8, 133.9 433.1, 133.6 437.5 C 132 462.2, 130.9 475.3, 129.9 482 C 129.1 487.5, 129.1 493.8, 129.9 505.5 C 130.5 514.3, 131.2 525.8, 131.5 531 C 131.8 536.2, 132.7 542.8, 133.5 545.5 L 134.9 550.5 134.4 546 C 131.8 521.8, 130.4 483.7, 131.9 478.5 C 132.5 476.3, 133.3 470, 133.5 464.5 C 133.8 459, 134.5 450.2, 135.1 445 C 136.2 435.5, 136 425.2, 134.8 428 M 108.8 440 C 108.4 441.4, 108.5 445.6, 109.1 449.5 C 109.8 454, 110 461.7, 109.5 471 C 108.2 496.7, 109.8 552.4, 112.7 580.8 C 113 583.7, 112.7 588, 112.2 590.3 C 110.6 596.7, 109.6 610.7, 110.8 609.5 C 114.7 605.5, 115.3 582, 112.6 531.1 C 111.2 503.8, 110.9 492.6, 111.7 482.6 C 112.6 470.4, 112.4 464.8, 110.3 445 C 109.7 439.5, 109.3 438.2, 108.8 440 M 147.8 447.5 C 146.4 454.8, 146.8 462.9, 150 499 C 151.1 510.7, 153 526.4, 155 538 C 157.2 551.8, 169.6 585.4, 176.8 597.3 C 179.6 601.9, 179.8 601.6, 173 602.5 L 167.5 603.2 164.1 594.3 C 159.9 583.7, 156.4 576.8, 157.5 581.4 C 157.8 583, 159.7 588.2, 161.6 593 C 165.9 603.9, 166 603.1, 159.4 606.3 C 152.8 609.6, 152.9 609.6, 152.2 602.8 C 151.8 598.7, 151.5 598.1, 151 600 C 150.7 601.4, 150.7 604.2, 151.1 606.3 C 151.6 609.4, 151.3 610.6, 149.5 612.8 C 148.3 614.3, 146.4 617, 145.3 618.8 L 143.3 622.1 141.5 616.8 C 139.7 611.3, 134.2 602.2, 131.2 599.8 C 129.7 598.6, 129.7 598.7, 131.3 601 C 132.2 602.4, 133.5 604.5, 134.2 605.8 C 134.8 607, 135.7 608, 136.2 608 C 136.6 608, 137 608.6, 137 609.3 C 137 609.9, 137.6 611.7, 138.4 613.2 C 140.1 616.5, 141.1 622.1, 141.5 630.8 C 141.6 634.5, 142 640.9, 142.4 645 L 143.1 652.5 141 649.9 C 139.2 647.8, 138.9 645.8, 138.6 635.9 C 138.3 624.8, 137.1 617, 135.1 613.3 C 134.6 612.3, 133.2 609.6, 132.1 607.2 C 129.9 602.7, 125.4 597.2, 124.6 598.1 C 124.3 598.3, 125.6 600.8, 127.4 603.5 C 132.3 610.7, 134.1 618.9, 135.4 638.3 C 136 647.6, 133 646.8, 125 635.5 L 121.5 630.5 121.2 612.7 L 120.9 594.9 123.7 595.6 C 125.2 596, 126.9 596.7, 127.5 597.1 C 129.9 599.4, 130.8 595, 129.1 589 C 128.4 586.7, 128.3 586.7, 127.6 590.3 C 126.9 594, 126.9 594, 123 593.4 L 119 592.7 118.8 605.6 C 118.7 612.7, 118.6 620.4, 118.7 622.8 L 118.7 627.1 111.1 619.7 C 106.9 615.6, 100.9 610.8, 97.8 609 C 91.4 605.5, 91.6 605.7, 92.9 603.2 C 93.8 601.5, 97 591.7, 97 590.6 C 97 590.3, 96.4 590, 95.6 590 C 94.1 590, 93.6 591.1, 92.5 597 C 91.5 602.7, 90.1 605.5, 87.7 606.5 C 86.1 607.2, 85.3 608.8, 84.6 612.5 C 84.1 615.3, 83.1 617.9, 82.3 618.4 C 81.1 619.1, 81.2 619.5, 83.2 620.9 C 86.9 623.4, 98 633.2, 98 634 C 98 634.4, 93.8 635, 88.8 635.3 C 78.5 635.8, 72.8 637.8, 69.3 641.9 C 66.3 645.3, 66.3 647, 69.4 644.1 C 75 638.9, 101.9 635.2, 104.2 639.4 C 104.7 640.3, 105.7 641, 106.4 641 C 107.1 641, 109.4 641.9, 111.6 643 L 115.5 644.9 106.5 644.4 C 101.6 644.1, 96.2 643.4, 94.5 643 C 90 641.7, 81 640.7, 81 641.5 C 81 642.5, 90 646.2, 91.4 645.7 C 95.3 644.2, 117.3 648.1, 124.5 651.6 L 127.5 653 123.5 652.5 C 93.7 648.3, 74.8 652.7, 56 668.1 C 53.5 670.2, 49 673.3, 46 675.2 C 38.1 679.9, 29.1 686.4, 29 687.3 C 28.9 689.4, 33.4 687.3, 40.4 681.9 C 44.7 678.6, 50.8 674.5, 53.9 672.8 C 57 671.1, 61 668.5, 62.8 666.9 C 72.8 658.1, 89.7 653.7, 113 654 C 131.8 654.2, 132 654.2, 131.3 652.5 C 131 651.7, 130.3 651, 129.6 651 C 129 651, 126.1 649.4, 123.1 647.5 C 120.2 645.6, 117.5 644, 117 644 C 116.5 644, 116 643.6, 115.8 643.2 C 115.2 641.6, 103.2 635, 101 635 C 99.7 635, 99 634.5, 99.3 633.8 C 99.5 633.1, 100.5 632.6, 101.5 632.8 C 103.8 633.3, 102.2 631.6, 96.5 627.8 C 94.3 626.4, 91 623.8, 89.2 622.1 L 85.9 619.1 87.6 613.8 C 88.6 610.9, 89.4 608.4, 89.6 608.2 C 90.8 606.6, 101.9 614.9, 113.3 626 C 121.6 634, 127.3 640.9, 122.4 637 C 121.4 636.2, 118.9 634.6, 117 633.6 C 115.1 632.5, 113.3 631.4, 113 631.1 C 112.7 630.7, 110.7 629.3, 108.5 627.9 C 106.3 626.4, 101.2 622, 97.1 618.1 C 93 614.2, 89.5 611.1, 89.3 611.3 C 88.5 612.2, 91 617, 93.7 619.4 C 97.1 622.6, 110.7 632, 111.9 632 C 112.4 632, 113 632.4, 113.2 632.8 C 113.4 633.2, 116.2 635.3, 119.5 637.3 C 122.8 639.3, 128.9 643.6, 133 646.8 L 140.5 652.5 141.1 670.5 C 141.4 680.4, 142 689.6, 142.5 690.9 C 143.2 693, 143.1 693.2, 141.4 692.5 C 134 689.5, 123.7 687, 118.3 687 C 114.8 687, 112 686.6, 112 686 C 112 685.5, 112.7 685, 113.5 685 C 114.3 685, 115.8 684.6, 116.8 684.1 C 117.7 683.6, 122 681.6, 126.2 679.6 C 133.7 676, 138 672.3, 138 669.2 C 138 668.2, 137.3 668.6, 136 670.3 C 133.4 673.6, 126.8 677.4, 119.5 679.8 C 112.8 682, 67.7 684, 71.2 682 C 73.8 680.4, 86.4 678, 100 676.6 C 118.4 674.6, 132 670.4, 136.1 665.3 C 137.6 663.5, 135.4 664.3, 128.4 668.1 C 123.1 670.9, 115.6 672.5, 100.5 674 C 95.6 674.5, 89.5 675.4, 87 676 C 80.2 677.6, 68.7 681, 64.5 682.5 C 60.7 684, 64.4 681.3, 71 677.8 C 83.1 671.5, 88.7 670, 109.4 667.5 C 115.9 666.8, 121.5 665.8, 121.9 665.4 C 123 664.1, 96.6 665.9, 89 667.6 C 78.6 669.9, 55.9 681.2, 54.6 684.7 C 53.8 686.8, 57.3 688.1, 61.1 687 C 65.4 685.7, 75 685.7, 73.1 686.9 C 72.4 687.4, 72.1 688.3, 72.4 688.9 C 72.9 689.6, 74 689.3, 75.9 688 C 78.8 685.8, 99.7 684, 105.4 685.4 C 111.8 687, 105.3 690.9, 93.5 692.5 C 83.5 693.8, 70.2 697.8, 58.3 703.1 C 56 704.2, 53.6 705, 53.1 705 C 52.5 705, 52 705.4, 52 705.9 C 52 706.4, 51.4 707, 50.8 707.3 C 50.1 707.5, 50.6 707.5, 52 707.3 C 53.4 707, 55.9 706.2, 57.5 705.5 C 64.8 702.2, 77.6 698.6, 91 695.9 C 99 694.3, 107.3 692.6, 109.5 692 C 114.5 690.8, 124.4 690.8, 129 692 C 142.7 695.6, 141.5 695.6, 148.7 692.1 C 155.9 688.5, 155.9 688.5, 174 691 C 178.1 691.5, 183 692.2, 184.8 692.4 C 187.6 692.8, 188 692.6, 188 690.4 C 188 687.5, 189.4 687.4, 192.7 690 C 195.5 692.2, 198 692.6, 198 690.9 C 198 690.1, 199.1 690, 201.3 690.5 C 206.7 691.7, 225 692.6, 225 691.6 C 225 690.6, 247.6 691.5, 252 692.6 C 254.2 693.2, 254.3 693.1, 253 691.7 C 250.6 689.2, 235.2 687.2, 212.5 686.6 C 198.8 686.2, 189.8 685.5, 186.5 684.5 C 181 682.9, 182.2 682.9, 225.5 684.6 C 236.1 685, 244.9 684.8, 251.5 684 C 264.1 682.4, 265.3 681.8, 260.9 679.5 C 256.7 677.2, 206.5 675.8, 208.6 678 C 209.4 678.8, 217.8 679.4, 234.6 679.8 C 252.3 680.2, 257.9 680.6, 254 681.2 C 237.5 683.4, 181.8 681.6, 172.5 678.5 C 162.9 675.3, 154.5 671.3, 152.7 669.1 C 151.7 667.9, 152 667.8, 154.5 668.3 C 169.1 671.6, 176.9 671.5, 192 667.8 C 197.5 666.5, 202.2 666, 205.3 666.4 C 211 667, 211.4 665.8, 206 664 C 202.5 662.8, 200.7 663, 189.8 665.3 C 175 668.5, 164.4 668.7, 154.5 666 C 146.5 663.8, 146.5 663.8, 148.3 667.4 C 150.3 671.1, 154.6 674.6, 160.4 677.3 C 171.1 682.1, 184.4 689, 182 688.5 C 167.2 685.4, 151.6 685.2, 148.3 688.3 C 145.3 691, 144.3 690.4, 143.6 685.4 C 142.7 678.4, 142.9 662.2, 143.9 661.6 C 144.4 661.3, 144.8 653, 144.7 643.2 C 144.6 622.3, 144.8 621.7, 154.6 613.6 C 162.3 607.2, 169 605, 180.3 605 C 188.6 605, 190 605.9, 184.8 607.8 C 180.5 609.4, 169.9 617.4, 161.7 625.2 C 155.5 631.1, 149 641.9, 149 646.2 C 149 647, 148.5 648.1, 147.8 648.8 C 147.2 649.4, 146.9 650.3, 147.3 650.7 C 148.2 651.5, 150.9 648, 151 646 C 151.2 639.1, 166.9 621.3, 181 612 C 182.2 611.2, 183.9 609.9, 184.6 609.2 C 185.4 608.5, 186 608.3, 186 608.8 C 186 609.8, 185.8 610, 173 624 C 163.1 634.9, 161.6 636.9, 162.5 637.8 C 163.2 638.6, 176 625.6, 183.9 616 C 186.9 612.4, 189.6 609.3, 190 609 C 191 608.3, 194 602.3, 194 600.9 C 194 600.1, 193.6 600.1, 192.5 601 C 191.4 602, 190.7 602, 189.6 601.1 C 187.8 599.6, 179.4 582.6, 178.4 578.5 C 178 576.8, 177.4 575.1, 177 574.5 C 176.6 574, 175.9 571.9, 175.5 570 C 175.1 568.1, 174.4 565.9, 173.9 565 C 171.1 559.7, 166.5 537.9, 163.5 515.5 C 161.7 502.2, 160.3 493.9, 160.1 496.1 C 159.8 500, 162.2 524.3, 163.6 531.5 C 166.2 545.3, 168.2 554.4, 169.1 557.5 C 172.3 568.5, 174.4 574.9, 175.6 577.7 C 176.4 579.4, 177 581.2, 177 581.7 C 177 583.5, 183.8 596.5, 185.9 598.7 C 188.7 601.7, 188.6 602, 184.6 602 C 181.7 602, 181 601.5, 179.5 598.3 C 178.6 596.2, 176.6 591.8, 175.1 588.5 C 173.5 585.2, 171.5 580.5, 170.6 578 C 169.6 575.5, 168.4 572.7, 167.9 571.8 C 167.4 570.8, 167 569.5, 167 568.8 C 166.9 568.1, 166.1 565.7, 165 563.5 C 163.9 561.3, 163.1 558.8, 163 558 C 163 557.1, 162.6 556, 162.1 555.5 C 160.6 553.8, 156.4 534.9, 154.5 521 C 153.7 515.2, 152.8 509.4, 152.5 508 C 151.8 504.1, 149.7 475.2, 149.1 458.5 C 148.7 447.7, 148.3 444.6, 147.8 447.5 M 177.6 450.4 C 177.1 452, 177.2 456, 177.8 459.9 C 178.8 465.9, 180.7 487.8, 181.7 506.8 C 182 510.8, 182.6 513.8, 183.1 513.5 C 184.3 512.7, 184.2 504.6, 183 494.6 C 182.4 490.1, 181.5 480.4, 181 473 C 179.4 452.1, 178.6 446.8, 177.6 450.4 M 360.3 505.3 C 356.9 506.6, 351.1 511.9, 349.2 515.7 C 347.4 518.9, 347.7 519.2, 351 517.5 C 354.6 515.6, 361.3 515.6, 366.5 517.5 C 371.1 519.1, 374 519.4, 374 518.1 C 374 516.8, 361.6 511, 358.7 511 C 357.3 511, 355.8 510.5, 355.4 509.9 C 354 507.5, 366.2 509.5, 370.7 512.3 C 378.5 517.2, 379.6 514.6, 372.1 508.9 C 366.3 504.4, 364.4 503.9, 360.3 505.3 M 352.8 520.1 C 351.3 520.7, 349.8 522, 349.5 523 C 348.8 525.1, 349.9 530.3, 350.9 529.7 C 358 525.8, 361.6 524.9, 367.6 525.2 C 374.4 525.5, 375.4 524.9, 371.8 522.6 C 367.1 519.7, 357.5 518.4, 352.8 520.1 M 403.2 526.1 C 402.5 527.2, 400.3 528.8, 398.4 529.6 C 394.4 531.3, 394.2 532.9, 397.1 539.4 C 399.4 544.7, 400.9 545.7, 404 544 L 406.2 542.8 404.1 541.4 C 401.5 539.5, 401.2 532.8, 403.6 528.1 C 405.4 524.5, 405.1 523, 403.2 526.1 M 97.1 529.6 C 95.4 536.3, 94.5 575.8, 96.1 574.2 C 97.3 573.1, 99.6 527.3, 98.5 526.1 C 98.3 526, 97.7 527.5, 97.1 529.6 M 576.6 567.3 C 574.3 576.6, 570.9 583.8, 566.5 588.3 C 563.1 591.8, 562.1 594, 563.9 594 C 565.1 594, 571.4 586.9, 574.3 582.3 C 577.3 577.4, 580 569.1, 580 564.6 C 580 558.5, 578.4 559.8, 576.6 567.3 M 73.7 575.8 C 72.2 583.2, 70.7 588.8, 69.4 591.7 C 68.6 593.4, 68 595.1, 68 595.5 C 68 595.8, 64.6 600.7, 60.5 606.2 C 56.4 611.7, 53 616.6, 53 617.1 C 53 619.1, 55 617.7, 58.1 613.4 C 60 610.9, 62.7 607.4, 64.2 605.6 C 65.7 603.8, 68.3 599.6, 69.9 596.4 C 72.5 591.2, 73.3 588.2, 75.7 576.9 C 76 575.4, 75.7 574, 75.2 573.6 C 74.7 573.3, 74 574.3, 73.7 575.8 M 415.7 593.7 C 415.4 596.4, 415.5 598.6, 416 598.8 C 416.4 599, 415.9 600.7, 414.9 602.8 C 411.2 610, 412.9 624, 417.9 627.7 C 419.8 629.1, 430.9 632, 434.5 632 C 436 632, 436.9 632.4, 436.5 633 C 435.6 634.5, 426.7 634.2, 422.6 632.5 C 419.6 631.2, 419 631.2, 419 632.4 C 419 634.5, 423.7 638.7, 426.8 639.3 C 428.3 639.6, 432.2 640.4, 435.5 641 C 444.1 642.6, 445 643.1, 441.5 644.1 C 438.7 644.9, 432 644.2, 424.5 642.5 C 418.7 641.1, 423.4 644, 431.5 646.8 C 443.8 651.1, 442.5 653.6, 429.5 650.5 C 422.1 648.7, 421 648.7, 421 650.3 C 421 651.7, 428.2 655.3, 433.3 656.6 C 436.4 657.3, 436.7 658.2, 434.4 660 C 433.1 661.1, 431.7 660.8, 425.9 657.9 C 419.1 654.7, 418.8 654.6, 416.2 656.2 C 412.1 658.7, 399 665, 398 665 C 396.6 665, 396.8 666.8, 398.3 667.3 C 398.9 667.5, 400.6 666.9, 402 666 C 410.8 659.9, 416.5 658.8, 421.8 662 C 425.2 664.1, 426.5 667.8, 423.3 666.5 C 417 663.8, 414.5 663.7, 409.5 665.9 L 404.6 668.1 407.1 669.7 C 411.4 672.7, 417.1 682.3, 415.4 683.8 C 415.1 684.2, 414.5 683.9, 414.3 683.2 C 413.2 680.1, 407.2 673.4, 404.8 672.6 C 402.6 671.8, 401 672.2, 395.8 674.9 C 385.3 680.4, 384.6 681.2, 390.7 680.4 C 399.5 679.3, 406 685.5, 406 695.1 L 406 699.3 410.5 698.7 C 413 698.3, 418.8 696.3, 423.4 694.1 C 430.1 691, 441.9 687, 444.7 687 C 445 687, 444.9 684.1, 444.5 680.5 C 443.5 671.3, 446.3 672.4, 448.6 682.3 C 449.3 685.6, 448.9 685.6, 457.5 682.2 C 466.2 678.8, 467 677.3, 466.9 665.8 C 466.8 661, 467.3 655.5, 468 653.6 C 468.8 651.1, 468.8 649.5, 468.1 648.1 C 467.5 647, 467 642.4, 467 637.8 C 467 624.9, 466 622.8, 462.5 628.2 C 460.3 631.7, 453.3 637.6, 452.5 636.8 C 452.1 636.5, 454.6 633.1, 457.9 629.4 C 464.6 621.8, 465.1 620.5, 461.8 619.4 C 449.7 615.7, 426.9 601.3, 419.7 592.9 L 416.3 589 415.7 593.7 M 505.5 592.4 C 499.1 595.4, 496.7 598, 497.2 601.7 L 497.6 604.5 498.7 602 C 503.8 590.3, 531.6 590.2, 532.1 601.9 C 532.2 603.6, 532.4 603.9, 532.7 602.8 C 532.9 601.8, 533.6 601, 534.1 601 C 535.4 601, 535.2 597.8, 533.7 595.9 C 529.1 589.8, 514.8 588, 505.5 592.4 M 504.5 606.9 C 501.8 607.3, 498.7 608, 497.8 608.4 C 493.5 610.3, 497.3 614.5, 504 615.4 C 509.5 616.2, 526.8 614.6, 528.2 613.2 C 529.5 611.9, 527.7 608.5, 525.3 607.5 C 522.5 606.4, 510 606.1, 504.5 606.9 M 193 611.5 C 193 613.8, 197.3 619.2, 202 622.9 C 206.6 626.6, 206.9 627, 204.7 627 C 197.8 627, 182 632.7, 176.2 637.3 C 174.7 638.5, 167.3 642.6, 159.8 646.5 C 143.4 654.8, 141.8 657, 152.5 657 C 156.1 657, 159.8 656.6, 160.8 656.1 C 161.7 655.6, 165 654.5, 168 653.5 C 174.1 651.6, 175.8 651, 181.4 648.6 C 183.5 647.7, 187.3 646.7, 189.9 646.3 C 192.4 646, 195.2 645.3, 196.2 644.9 C 198.8 643.5, 225.4 647.8, 237.8 651.6 C 240.2 652.3, 240.8 650.9, 238.8 649.2 C 237.1 647.9, 225.6 645, 221.8 645 C 219.3 645, 219 644.8, 220 643.6 C 220.6 642.8, 221.9 641.9, 222.8 641.7 C 223.7 641.5, 223.2 641.5, 221.5 641.8 C 219.9 642.1, 213.7 642.3, 207.8 642.2 C 201.5 642.1, 196.9 642.4, 196.5 643 C 196.2 643.5, 194.2 644, 192.2 644 C 186.6 644.1, 180.8 645.6, 170.7 649.9 C 161.2 654, 151 656.1, 151 654.1 C 151 653.5, 151.6 653, 152.3 653 C 152.9 653, 154.9 652.3, 156.5 651.4 C 168.7 644.9, 172.9 643, 175.7 643 C 179 643, 184.6 641.9, 193.5 639.5 C 213.3 634.1, 224.2 634.7, 237.3 642.1 C 238.4 642.7, 239.4 642.9, 239.7 642.6 C 240.7 641.6, 238.8 639.9, 233.9 637.5 C 229.2 635.1, 227.2 633.4, 230.6 634.7 C 231.8 635.1, 232.1 634.8, 231.9 633.4 C 231.3 630.6, 224.6 627.8, 216.9 627.1 C 209.5 626.4, 209.3 626.3, 199.3 616.6 C 195.8 613.3, 193 611, 193 611.5 M 415 615.9 C 415 621.5, 437.3 628, 441 623.5 C 441.7 622.7, 442.1 622, 441.9 622 C 441.7 622, 438.5 621.8, 434.9 621.6 C 428.9 621.3, 425.5 620.2, 415.8 615.2 C 415.3 615, 415 615.3, 415 615.9 M 62.6 620 C 63.1 622.1, 62.5 624.4, 60.5 628.2 C 56.8 635.3, 55.8 636.4, 46.3 642.7 C 41.7 645.7, 38 648.5, 38 649.1 C 38 650.4, 38.2 650.4, 46.2 646 C 55.1 641.2, 59.9 636.4, 63.9 628.3 C 67.5 621.1, 67.7 619.4, 65.1 618 C 62.2 616.5, 62 616.7, 62.6 620 M 70 624.5 C 66.7 631.1, 44.4 654.1, 37.3 658.1 C 34.4 659.8, 32 661.6, 32 662.1 C 32 663.5, 33.2 663.2, 39.3 660.1 C 46.2 656.6, 49.7 653.6, 57 645 C 60 641.4, 62.7 638.3, 63 638 C 67.4 633.9, 73.3 623.7, 72.8 621.2 C 72.6 620.1, 71.5 621.3, 70 624.5 M 473.5 634.2 C 474.5 652.4, 473.2 678.7, 471.3 681.2 C 467.1 686.7, 473.3 688.3, 479.2 683.2 C 481 681.6, 486.6 678.2, 491.5 675.6 C 501.7 670.2, 505.6 666.9, 507.6 662.3 C 510.6 655.4, 508.1 643.6, 502 635.5 C 499.9 632.8, 497.8 629.6, 497.2 628.4 C 496.3 626.7, 494.8 626.2, 489.5 625.6 C 485.9 625.2, 482 624.6, 480.7 624.1 C 479.5 623.7, 477.2 623, 475.7 622.6 L 472.9 621.9 473.5 634.2 M 684.9 625.5 C 680.2 626.2, 674.8 627.3, 672.9 627.9 C 671 628.5, 666.4 630, 662.5 631.2 C 658.7 632.4, 654.4 634, 653 634.7 C 651.6 635.4, 649.9 636, 649.3 636 C 648.6 636, 648 636.5, 648 637 C 648 637.6, 647.3 638, 646.5 638 C 645.7 638, 644.6 638.9, 644 640.1 C 643 641.8, 643.7 641.7, 649.2 638.8 C 652.7 636.9, 658.9 634.4, 663 633.2 C 667.1 631.9, 671.9 630.5, 673.5 630 C 685.5 626.3, 714.5 626.9, 727.5 631.1 C 735 633.5, 735.2 633.9, 730.5 636.5 C 727.5 638.1, 727.2 638.5, 728.6 639.3 C 729.7 639.9, 731.1 639.8, 732.8 638.9 C 735.9 637.2, 746.5 637.4, 748.6 639.1 C 749.7 640, 750.4 640, 751.2 639.2 C 752.1 638.3, 752 638, 750.6 638 C 749.4 638, 749 637.5, 749.3 636.6 C 750 634.9, 748 634, 743.8 634 C 742.2 634, 740.2 633.3, 739.4 632.5 C 735.9 629.1, 711.5 623.9, 699.5 624.1 C 696.2 624.2, 689.6 624.8, 684.9 625.5 M 377.5 627.9 C 373.6 629.7, 369.9 633.1, 366.7 638 C 363.8 642.3, 364.9 642.5, 368.8 638.4 C 373.4 633.5, 378.8 629.4, 381.8 628.7 C 383.9 628.2, 384 628.5, 384 634.6 C 384 638.2, 384.4 641, 385 641 C 385.6 641, 386 640.2, 386 639.3 C 386 638.3, 387.1 635.5, 388.5 633.1 C 391.5 627.9, 391.6 626.7, 389.1 627.5 C 388 627.8, 386.9 627.6, 386.5 627 C 385.6 625.5, 382 625.8, 377.5 627.9 M 42.5 632.5 C 33.1 636.9, 28.1 639, 27.2 639 C 26.2 639, 23 642.3, 23 643.4 C 23 643.8, 25.6 642.8, 28.8 641.1 C 34.8 637.9, 41.7 635, 43 635 C 43.5 635, 42.5 637.6, 40.8 640.7 C 39.1 643.9, 38.4 645.9, 39.2 645.3 C 40 644.6, 41.5 642.4, 42.6 640.5 C 43.6 638.6, 44.7 637, 45.1 637 C 45.9 637, 48.4 631.1, 47.9 630.6 C 47.7 630.4, 45.3 631.3, 42.5 632.5 M 197.5 631.4 C 189 632.8, 176.3 638.8, 178.2 640.5 C 178.6 640.8, 192.9 638.1, 195 637.3 C 199.6 635.4, 210.6 633.7, 218.3 633.7 C 228.3 633.7, 229.6 632.7, 221.3 631.2 C 213.7 629.9, 206.1 629.9, 197.5 631.4 M 77.2 650.1 C 71.7 651.7, 60.7 658, 57.1 661.6 C 55.3 663.5, 53.2 665, 52.4 665 C 51.7 665, 49.1 665.6, 46.8 666.4 C 44.4 667.2, 39.8 668.5, 36.5 669.5 C 21.7 673.7, 11.6 678.1, 20.4 676.6 C 22.5 676.2, 25 675.5, 25.9 675 C 26.8 674.5, 29.5 673.6, 32 673.1 C 44 670.5, 46.5 669.7, 55 665.7 C 56.4 665, 59.5 663.1, 62 661.4 C 66.2 658.5, 73.7 654.1, 80.5 650.6 C 83.8 648.9, 82.3 648.7, 77.2 650.1 M 196.5 652.2 C 194.3 652.7, 188.9 654, 184.4 655.1 C 180 656.1, 173.4 657.1, 169.8 657.1 C 161.1 657.2, 159.1 658.6, 166.4 659.5 C 170.3 660, 174.6 659.7, 180.3 658.6 C 205.4 653.5, 211.9 653, 223 655.5 C 226.6 656.3, 232.8 657.7, 236.9 658.5 C 241 659.3, 245.1 660.2, 246.2 660.5 C 249.1 661.5, 248.4 658.1, 245.4 657 C 244 656.4, 241.1 656, 238.9 656 C 236.7 656, 230.9 654.9, 226 653.5 C 216.5 650.8, 204.4 650.3, 196.5 652.2 M 95.5 659.6 C 87.9 660.7, 75.5 665, 62 671.2 C 58 673, 57.7 673.4, 59.5 674.1 C 60.9 674.7, 60.4 674.8, 58 674.4 C 55.1 673.8, 54.7 674, 55.7 675.1 C 56.6 676.2, 56.1 676.9, 53.2 678.3 C 49.5 680, 49.5 680, 51.8 678.1 C 53 677, 54 675.9, 54 675.6 C 54 674, 51.1 675.3, 47.5 678.5 C 45.3 680.4, 42.1 682.6, 40.4 683.5 C 36 685.6, 34.1 688, 36.8 688 C 38 688, 39.2 687.5, 39.5 686.9 C 39.9 686.4, 41.4 686.1, 42.9 686.5 C 45 686.9, 47.6 685.7, 56 680.4 C 61.8 676.7, 66.7 673.4, 67 673 C 67.8 671.9, 73.3 669.2, 79.2 667.1 C 90.1 663, 97.5 662, 115.3 662 C 126.9 662, 132.1 661.7, 131.4 661 C 130.3 659.9, 100.9 658.8, 95.5 659.6 M 247.6 666.8 C 247.3 667.3, 250.1 668, 254.3 668.3 C 258.3 668.6, 264.2 669.8, 267.5 670.9 C 276 673.7, 285.3 674.7, 282.6 672.6 C 280.8 671.1, 280.8 671, 282.4 671 C 284.7 671, 293.2 673.8, 297.7 676.1 L 301.3 677.9 303.2 675.5 C 305.6 672.4, 307.1 672.4, 312.4 675.5 C 316.4 677.8, 318 677.9, 318 675.8 C 318 675.4, 317.4 675, 316.6 675 C 314 675, 309.9 670.9, 310.5 668.9 C 310.9 667.9, 310.9 667, 310.5 667 C 308.8 667, 304 670.3, 302.2 672.7 C 300.4 675.2, 300.1 675.3, 297.9 673.9 C 293.8 671.3, 288.9 669.8, 279 668.3 C 266.7 666.4, 248.4 665.5, 247.6 666.8 M 360.1 674.1 L 357.6 675.1 360.9 677.1 C 363.9 678.9, 364.1 679.4, 363.5 682.6 L 362.9 686.1 366.7 683.6 C 368.8 682.2, 372.2 680.1, 374.3 678.9 C 378.8 676.5, 378.6 676, 372.2 674.3 C 366.6 672.8, 363.4 672.8, 360.1 674.1 M 346.2 683.6 C 343.4 686.1, 341 688.5, 341 688.8 C 341 689.2, 345 689.5, 350 689.5 L 359 689.5 359 684.9 C 359 677.3, 354 676.8, 346.2 683.6 M 492.7 680.9 C 491.1 681.5, 491.1 681.8, 493.5 684 C 496.8 687, 499 691.1, 499.1 694.2 C 499.2 696.4, 499.2 696.4, 499.9 694 C 500.4 692.6, 501.3 690.5, 502.1 689.3 C 503.2 687.4, 503.2 686.6, 501.7 683.6 C 500 679.9, 497.2 679.1, 492.7 680.9 M 367.8 687 C 363.6 689.8, 359.2 692, 358 692 C 353 692, 357.6 694, 362.8 694.1 C 371.6 694.3, 373.4 695, 373.8 698.8 C 374 700.6, 374.6 702, 375.1 702 C 375.7 702, 376 701.4, 375.8 700.8 C 375.5 700.1, 376.4 696.6, 377.7 693 C 382.2 680.3, 380 679, 367.8 687 M 513.6 684.5 C 511.8 685.9, 511.8 686, 514.3 686.9 C 517.9 688.3, 520 692.9, 520.1 699.7 L 520.1 705.5 522 699 C 523.1 695.4, 523.9 691.1, 524 689.4 C 524 683.9, 518.1 681.1, 513.6 684.5 M 389.3 685.1 C 386.8 685.8, 385.2 687.6, 381.6 693.6 C 379.1 697.8, 377 701.4, 377 701.5 C 377 701.6, 378.9 701.4, 381.3 700.9 C 383.6 700.5, 389.3 700.1, 393.9 700 L 402.2 700 401.8 694.4 C 401.1 686.3, 396.7 683, 389.3 685.1 M 481.8 688 C 478.2 691, 469 702.1, 469 703.5 C 469 703.8, 470.2 704, 471.8 703.8 C 473.3 703.6, 474.4 703.1, 474.3 702.5 C 474.2 702, 476.1 700.3, 478.5 698.8 C 480.8 697.4, 483.7 694.8, 484.9 693.1 C 487.4 689.6, 489.5 689.2, 492.8 691.6 C 495.9 693.7, 495.8 691.1, 492.8 688.2 C 488.9 684.6, 486 684.6, 481.8 688 M 535.4 687.4 C 532.4 688.7, 529 692.4, 529 694.3 C 529 694.8, 529.7 694.7, 530.5 694 C 532.2 692.6, 536.7 693.4, 539.3 695.7 C 541.8 698, 541.5 703.7, 538.7 707.4 C 535 712.3, 534.7 713.1, 536.5 712.4 C 537.4 712, 540.6 711.2, 543.8 710.6 C 548.2 709.8, 549.7 708.9, 550.8 707 C 553.8 701.3, 549.7 690.9, 543 687.5 C 539.5 685.7, 539.4 685.7, 535.4 687.4 M 504.2 692 C 503 693.1, 501.8 695.3, 501.4 696.8 C 501.1 698.3, 500.3 701.1, 499.6 703.1 L 498.3 706.8 503.5 707.4 C 514.2 708.6, 516 707.2, 516 697.8 C 516 690.6, 509.3 687.3, 504.2 692 M 633.1 692 C 629.2 692.9, 626.5 695.3, 627.5 697 C 628 697.8, 628.8 697.5, 630.3 695.9 C 632.3 693.8, 632.7 693.7, 649.4 694.4 C 668.4 695.1, 670 693.9, 652.5 692.1 C 640.2 690.9, 638 690.9, 633.1 692 M 484.7 699.3 C 480.6 705.5, 479 711.6, 481.8 710.6 C 482.7 710.3, 486.5 709, 490.3 707.8 C 496.9 705.6, 497 705.5, 497 702 C 497 697.7, 494 694, 490.6 694 C 488.9 694, 487.3 695.4, 484.7 699.3 M 528.3 698.3 C 526.3 700.7, 522.4 721.1, 523.9 721 C 524.2 720.9, 527.2 717.6, 530.5 713.5 C 537.1 705.3, 539 700.9, 537 698.5 C 535.5 696.7, 529.6 696.5, 528.3 698.3 M 172 708.9 C 172 709.4, 174.6 710, 177.8 710.3 C 186.7 710.9, 197.5 713.4, 193 713.7 C 188.5 714.1, 178.7 716.1, 179.2 716.6 C 179.4 716.8, 189.9 717.2, 202.5 717.4 C 215.2 717.7, 228.7 718.4, 232.5 718.9 C 246.1 720.8, 258.6 723, 265 724.5 C 272.4 726.3, 281.1 728.4, 288.5 730 C 291.3 730.6, 294.3 731.5, 295.2 732 C 297.5 733.3, 300 733.3, 300 732 C 300 731.5, 299 731, 297.7 731 C 296.4 731, 295 730.6, 294.5 730.1 C 293.9 729.6, 291.3 728.7, 288.5 728.2 C 285.8 727.6, 279 726, 273.5 724.5 C 258.1 720.4, 257 720.2, 248.5 718.6 C 239.4 716.8, 227.3 715.3, 211.7 714 C 205.8 713.5, 200.5 712.8, 199.9 712.4 C 195.1 709.5, 172 706.6, 172 708.9 M 433.5 724.2 C 421.6 727.2, 412 730.7, 412 732.3 C 412 733.5, 413.6 733.1, 418.7 730.6 C 428 726, 438.4 724.7, 462.6 725.3 C 485.5 725.8, 506.4 727.3, 514 729 C 516.5 729.5, 524.1 730.4, 531 731 C 553.5 732.7, 584.7 736.5, 602 739.4 C 616.6 741.9, 638.7 746.4, 644.5 747.9 C 646.7 748.5, 650.1 749.5, 652 750 C 657.7 751.5, 670.1 755, 675.7 756.6 C 678.6 757.5, 681.5 758, 682.2 757.8 C 682.9 757.5, 679.4 756.1, 674.5 754.5 C 669.5 753, 664.6 751.4, 663.5 750.9 C 662.4 750.4, 659.5 749.5, 657 748.9 C 654.5 748.3, 649.8 747.2, 646.5 746.3 C 614.6 738.4, 572.8 731.9, 532 728.5 C 522.9 727.8, 512.1 726.7, 508 726.1 C 489.1 723.6, 479.6 723, 459.3 723.1 C 447.3 723.2, 435.7 723.7, 433.5 724.2 M 435 730.1 C 432.5 730.5, 428.4 730.9, 425.9 730.9 C 423.2 731, 420.8 731.6, 420.1 732.4 C 418.8 733.9, 420.7 733.8, 436.4 732 C 450.9 730.2, 493.5 731.9, 511 735 C 519.8 736.5, 532.7 737.3, 531 736.2 C 529.5 735.2, 519.6 733.7, 503.5 732 C 498.6 731.4, 490.4 730.6, 485.3 730 C 474.7 728.8, 441.6 728.9, 435 730.1" stroke="none" fill="#1b1f3a" fill-rule="evenodd"/></svg>