<svg xmlns="http://www.w3.org/2000/svg" viewBox="0 0 768 768" version="1.1" preserveAspectRatio="xMidYMid meet">
	<path d="M 374.012 74.643 C 371.215 76.997, 361.559 95.096, 353.770 112.584 C 349.013 123.264, 331.719 133.719, 317.222 134.678 C 305.478 135.455, 302.446 137.249, 294.437 148.160 C 290.931 152.937, 287.260 157.072, 286.281 157.348 C 285.301 157.625, 282.925 158.164, 281 158.547 C 272.857 160.168, 265.552 166.219, 260.536 175.500 C 255.451 184.907, 255.727 184.821, 243.834 180.673 C 230.342 175.967, 225.822 175.595, 223.979 179.038 C 222.731 181.370, 225.673 188.763, 230.977 196.622 C 234.723 202.171, 234.721 202.289, 230.765 207.356 C 224.977 214.772, 221.178 216.788, 210.500 218.110 C 202.917 219.049, 200 221.119, 200 225.562 C 200 233.802, 196.047 241.990, 192.061 242.006 C 191.203 242.010, 189.211 242.685, 187.636 243.506 C 186.060 244.328, 184.163 245, 183.420 245 C 182.677 245, 180.479 246.397, 178.535 248.104 C 174.535 251.615, 174.003 255.811, 176.075 267.500 C 177.767 277.046, 177.750 277.336, 175.316 280.683 C 171.959 285.298, 172.357 287.785, 177.114 291.922 C 190.064 303.184, 189.352 301.256, 183.536 309.315 C 173.728 322.905, 175.536 336.578, 189.104 351.424 C 191.765 354.335, 194.382 357.874, 194.920 359.289 C 195.458 360.704, 198.396 363.707, 201.449 365.962 C 206.084 369.386, 207 370.569, 207 373.128 C 207 387.695, 218.197 401.409, 231.877 403.596 C 234.125 403.956, 235.702 404.674, 235.382 405.192 C 234.512 406.599, 210.466 418.264, 203 420.900 C 199.425 422.163, 195.600 423.574, 194.500 424.036 C 190.177 425.852, 180.941 428.007, 171.212 429.468 C 148.140 432.934, 128.361 429.630, 104 418.241 C 84.258 409.011, 86.183 409.650, 83.463 411.433 C 80.269 413.525, 80.351 414.633, 84.250 422.025 C 99.254 450.469, 142.108 472.158, 190.896 476 C 201.908 476.867, 225.744 475.894, 228.026 474.484 C 228.382 474.264, 230.435 473.688, 232.587 473.204 L 236.500 472.325 236.519 483.412 C 236.536 493.475, 236.790 495.003, 239.269 499.937 C 242.956 507.276, 243.716 506.031, 232.500 511.026 C 231.400 511.516, 228.700 512.401, 226.500 512.993 C 215.187 516.037, 209.575 522.116, 208.459 532.534 C 207.695 539.673, 208.485 552.093, 210.111 558.500 C 210.669 560.700, 211.595 564.525, 212.168 567 C 212.742 569.475, 213.613 571.928, 214.105 572.450 C 214.597 572.973, 215 574.173, 215 575.118 C 215 577.622, 227.280 601.074, 232.659 608.844 C 263.122 652.843, 310.857 680.675, 371 689.505 C 391.184 692.468, 429.890 691.146, 447 686.910 C 517.342 669.493, 570.839 606.601, 570.982 541.154 C 571.017 524.868, 567.607 519.120, 554.275 512.990 C 550.123 511.081, 545.371 507.798, 542 504.512 C 533.804 496.520, 518.823 487.729, 501 480.454 C 494.829 477.935, 491 475.477, 491 474.034 C 491 473.674, 493.739 472.558, 497.087 471.555 C 508.127 468.248, 519.208 459.213, 524.338 449.337 C 525.684 446.745, 528.854 443.447, 532.733 440.601 C 550.004 427.932, 556.547 404.583, 548.593 384 C 548.195 382.971, 549.697 381.400, 553.371 379 C 561.716 373.549, 579.352 356.588, 581.825 351.636 C 584.368 346.545, 584.552 341.629, 582.488 334 C 580.416 326.344, 581.231 323.957, 588.191 317.293 C 596.074 309.745, 597.103 307.235, 596.371 297.340 C 595.829 290.022, 595.997 289.067, 598.894 283 C 603.933 272.448, 602.762 267.361, 593.523 259.667 C 585.721 253.169, 584.092 249.598, 582.422 235.323 C 580.431 218.313, 579.547 217.034, 566.970 212.990 C 557.619 209.984, 554.943 207.195, 552.046 197.437 C 548.323 184.895, 545.317 181.068, 537.985 179.532 C 527.013 177.234, 524.823 176.029, 511.320 164.858 C 502.736 157.757, 494.739 153.424, 487.858 152.146 C 484.911 151.599, 481.150 150.635, 479.500 150.005 C 477.850 149.375, 476.275 148.847, 476 148.831 C 475.725 148.816, 474.757 148.405, 473.850 147.920 C 472.702 147.305, 472.027 147.487, 471.631 148.518 C 471.319 149.333, 470.175 150, 469.090 150 C 468.006 150, 466.840 150.450, 466.500 151 C 466.160 151.550, 465.121 152.003, 464.191 152.006 C 463.261 152.010, 461.203 152.689, 459.618 153.516 C 451.975 157.501, 442.478 155.383, 438.733 148.858 C 435.719 143.606, 436.925 141.655, 445.033 138.669 C 453.167 135.674, 462.596 137.323, 468.236 142.726 C 469.800 144.224, 471 144.812, 471 144.080 C 471 143.341, 471.643 143.033, 472.500 143.362 C 474.857 144.266, 474.296 143.221, 470.209 139.093 C 463.241 132.055, 453.752 130.532, 441.597 134.500 C 432.492 137.472, 431.255 137.527, 424.837 135.250 C 418.691 133.069, 411.224 127.530, 400.671 117.324 L 392.500 109.422 389.671 99.461 C 388.115 93.982, 386.285 87.250, 385.603 84.500 C 382.813 73.234, 379.269 70.220, 374.012 74.643 M 376.034 82.217 C 374.133 85.178, 370.072 93.293, 370.031 94.212 C 370.014 94.603, 367.975 99.257, 365.500 104.554 C 360.801 114.610, 360.088 116.960, 362.250 115.264 C 364.986 113.118, 373.699 111, 379.795 111 C 385.464 111, 386.169 110.791, 385.697 109.250 C 382.972 100.350, 380.014 89.122, 379.967 87.500 C 379.936 86.400, 379.368 84.248, 378.705 82.717 L 377.500 79.933 376.034 82.217 M 371.720 117.494 C 364.417 119.502, 358.474 122.595, 351.680 127.923 C 339.090 137.797, 328.871 141.972, 317.250 141.989 C 309.043 142.001, 309.559 141.670, 300.834 152.539 C 292.809 162.538, 290.592 164.353, 286.127 164.581 C 276.542 165.070, 272.795 168.333, 263.596 184.197 L 260.872 188.895 265.086 191.947 C 270.321 195.739, 270.276 195.742, 272.283 191.533 C 275.229 185.354, 288.058 180.049, 290.500 184 C 290.866 184.592, 289.728 185, 287.713 185 C 282.023 185, 277.121 187.930, 273.587 193.444 C 271.725 196.349, 271.727 196.407, 273.733 197.739 C 280.861 202.472, 295.601 214.094, 306.634 223.679 C 322.083 237.103, 338.219 250.115, 338.753 249.580 C 338.966 249.368, 338.397 244.987, 337.489 239.847 C 336.581 234.706, 335.456 223.525, 334.989 215 C 334.523 206.475, 333.411 195.900, 332.519 191.500 C 330.512 181.608, 329.047 172.252, 329.020 169.167 C 328.981 164.601, 331.382 167.690, 333.213 174.561 C 338.332 193.769, 340.378 200.557, 342.688 206 C 346.307 214.524, 356.801 234.303, 362.321 243 C 365.637 248.225, 369.217 254.186, 370.278 256.247 L 372.206 259.993 377.853 259.413 C 380.959 259.094, 384.001 258.683, 384.612 258.501 C 385.224 258.318, 386.048 254.894, 386.442 250.893 C 387.345 241.727, 392.180 222.554, 394.093 220.550 C 394.592 220.027, 395 219.060, 395 218.399 C 395 216.224, 402.724 200.607, 406.573 195 C 414.837 182.964, 426.564 171.917, 440.323 163.208 L 445.147 160.155 439.721 156.684 C 436.737 154.776, 433.358 151.703, 432.213 149.857 C 431.068 148.011, 428.414 145.622, 426.316 144.550 C 415.353 138.947, 408.199 134.004, 400.272 126.557 C 395.448 122.024, 390.517 117.795, 389.316 117.158 C 386.485 115.658, 377.792 115.823, 371.720 117.494 M 329.980 144.476 C 331.529 146.342, 340.446 150.548, 344.842 151.486 C 349.408 152.460, 355.888 151.355, 359.895 148.917 C 364.261 146.262, 363.393 145.597, 358.030 147.489 C 350.919 149.998, 342.862 148.942, 334.055 144.346 C 330.460 142.469, 328.370 142.536, 329.980 144.476 M 464 159.212 C 446.820 166.612, 438.053 172.336, 427.247 183.205 C 413.729 196.802, 403.807 212.963, 399.132 229 C 397.929 233.125, 396.498 237.909, 395.951 239.631 C 392.307 251.105, 392.292 270.884, 395.924 276.184 C 405.459 290.100, 434.895 290.533, 449.155 276.967 C 453.160 273.157, 453.163 273.150, 452.496 267.327 C 452.128 264.122, 451.389 259.925, 450.852 258 C 449.365 252.669, 448.644 216.635, 449.850 208 C 452.992 185.525, 455.328 178.292, 463.340 166.241 C 469.219 157.398, 469.261 156.946, 464 159.212 M 476.646 160.497 C 474.609 162.534, 468.604 171.707, 465.331 177.779 L 463.025 182.059 465.376 182.953 C 466.669 183.445, 468.014 184.593, 468.364 185.505 C 469.342 188.055, 469.119 197.754, 467.940 203.940 C 464.566 221.635, 461.975 234.215, 460.615 239.500 C 459.766 242.800, 459.055 248.046, 459.036 251.158 L 459 256.816 465.750 260.545 C 469.462 262.596, 475.875 266.083, 480 268.293 C 492.002 274.724, 498.364 279.444, 510.812 291.152 C 523.349 302.944, 527.213 308.552, 529.361 318.075 L 530.584 323.500 538.434 323.308 C 542.751 323.203, 546.760 322.640, 547.342 322.058 C 548.608 320.792, 551 320.654, 551 321.848 C 551 323.021, 541.458 325.997, 537.635 326.015 C 531.580 326.045, 531.545 326.161, 531.881 345.190 C 532.048 354.711, 532.481 363.006, 532.843 363.624 C 533.204 364.243, 536.094 367.538, 539.264 370.947 L 545.029 377.145 549.264 373.851 C 558.093 366.984, 577.083 348.519, 577.653 346.247 C 577.995 344.884, 577.478 342.168, 576.436 339.859 C 574.275 335.066, 574.023 324.653, 575.981 321 C 576.718 319.625, 580.256 315.453, 583.844 311.730 L 590.368 304.959 590.509 295.730 C 590.629 287.866, 591.046 285.724, 593.325 281.255 C 597.487 273.095, 597.054 270.961, 590.137 265.527 C 586.704 262.830, 583.213 258.969, 581.713 256.210 C 579.143 251.485, 576.009 236.961, 576.003 229.750 C 576 225.461, 573.551 222.414, 569.275 221.378 C 563.348 219.942, 553.912 214.747, 551.649 211.674 C 550.363 209.929, 548.283 205.575, 547.027 202 C 541.884 187.365, 541.285 186.710, 531.040 184.496 C 524.605 183.106, 519.532 180.290, 510.500 173.095 C 495.819 161.401, 481.187 155.956, 476.646 160.497 M 230 183.810 C 230 186.476, 241.907 201.220, 260.296 221.326 C 281.538 244.551, 282.905 246.065, 297.660 262.693 C 299.030 264.237, 302.675 268.870, 305.760 272.989 C 312.249 281.655, 311.973 281.305, 316.337 286.391 L 319.676 290.281 328.088 286.909 C 344.980 280.138, 347.995 277.231, 347.998 267.714 C 348 262.951, 347.978 262.920, 343.250 260.938 C 332.632 256.488, 327.610 252.860, 309.500 236.559 C 287.635 216.877, 277.044 208.331, 261.500 197.826 C 248.783 189.231, 230 180.873, 230 183.810 M 461.963 185.544 C 459.921 188.005, 458.095 201.152, 457.398 218.409 C 456.367 243.938, 459.828 235.272, 464.504 200.619 C 466.294 187.354, 465.310 181.512, 461.963 185.544 M 524.336 191.734 C 524.689 192.306, 526.450 193.049, 528.250 193.387 C 534.777 194.612, 538.695 200.060, 541.552 211.885 C 544.403 223.688, 550.377 227.979, 565.956 229.417 C 573.989 230.158, 572.970 228.014, 564.753 226.884 C 549.527 224.791, 546.217 222.329, 544.136 211.553 C 541.785 199.378, 536.173 192.369, 527.884 191.258 C 525.114 190.886, 523.911 191.048, 524.336 191.734 M 234.391 213.135 C 229.244 219.929, 223.582 222.984, 214.766 223.723 C 207.277 224.351, 205 225.718, 205 229.587 C 205 233.094, 201.788 244.369, 200.548 245.215 C 199.909 245.651, 199.500 250.945, 199.500 258.793 C 199.500 271.410, 199.445 271.727, 196.634 275.413 C 193.906 278.990, 186.835 282.982, 183.167 283.015 C 177.122 283.071, 178.314 286.064, 187.594 294.136 C 196.213 301.633, 196.461 302.294, 196.544 318 C 196.628 334.128, 197.871 337.758, 206.055 345.771 C 212.429 352.012, 211.915 353.950, 205.359 348.394 C 196.530 340.910, 194.555 335.773, 194.156 319.250 C 193.967 311.413, 193.399 305, 192.894 305 C 192.389 305, 190.306 307.587, 188.266 310.750 C 180.727 322.438, 182.801 335.275, 194.093 346.806 C 199.588 352.418, 203.983 355.111, 210.521 356.871 C 215.589 358.236, 223.423 363.164, 225.332 366.187 C 226.135 367.459, 227.047 371.009, 227.360 374.076 C 227.673 377.142, 228.218 380.405, 228.571 381.326 C 229.428 383.557, 227.435 383.487, 226.421 381.250 C 225.985 380.288, 225.149 376.813, 224.564 373.529 C 223.590 368.060, 223.135 367.313, 219.169 364.658 C 215.813 362.411, 203.113 358.025, 200 358.036 C 199.725 358.037, 201.525 359.319, 204 360.884 C 211.149 365.405, 213.227 368.806, 214.458 378 C 216.168 390.777, 227.348 398.981, 243.068 398.994 C 253.637 399.003, 258.983 401.080, 262.198 406.424 C 265.950 412.662, 271.818 416.153, 279.436 416.680 C 287.771 417.257, 289.336 416.105, 295.108 405.144 C 300.333 395.219, 305.090 387.843, 310.146 381.820 L 313.236 378.140 311.081 375.114 C 309.896 373.450, 308.030 370.061, 306.934 367.584 L 304.942 363.081 294.874 374.040 C 289.336 380.068, 284.624 385, 284.403 385 C 282.491 385, 290.732 371.694, 294.932 368 C 302.351 361.473, 305.569 353.366, 300.250 354.600 C 296.967 355.362, 282.613 362.950, 275.235 367.825 C 267.998 372.606, 267.728 371.292, 274.714 365.288 C 282.579 358.529, 292.285 352.398, 298.266 350.412 C 303.155 348.788, 303.216 348.716, 302.655 345.259 C 302.342 343.330, 301.903 341.570, 301.680 341.347 C 299.904 339.571, 257.182 350.030, 249.764 354.057 C 247.589 355.238, 247 355.243, 247 354.083 C 247 350.583, 280.500 339.028, 298.598 336.286 C 301.532 335.841, 301.752 335.490, 302.744 329.658 C 303.320 326.271, 304.116 322.488, 304.512 321.250 C 305.143 319.281, 304.884 319, 302.438 319 C 300.900 319, 298.260 318.566, 296.571 318.035 C 294.882 317.504, 288.775 315.896, 283 314.461 C 272.664 311.893, 254.783 307.240, 244 304.312 C 240.975 303.490, 237.277 302.585, 235.782 302.300 C 234.287 302.016, 232.521 301.128, 231.858 300.328 C 230.566 298.772, 230.675 298.781, 240.500 301.027 C 242.700 301.530, 249.675 302.875, 256 304.015 C 267.852 306.152, 271.515 306.871, 283.500 309.413 C 294.920 311.834, 306.170 313.231, 307.049 312.336 C 307.501 311.876, 307.072 308.599, 306.097 305.052 C 304.597 299.597, 303.550 297.904, 299.295 294.052 C 283.674 279.911, 251.779 244.887, 253.215 243.451 C 253.488 243.179, 257.263 246.610, 261.605 251.077 C 269.338 259.031, 299.319 286.176, 301.098 286.833 C 301.594 287.017, 302 285.617, 302 283.723 C 302 279.803, 293.402 269.139, 250.693 220.092 C 238 205.516, 239.635 206.213, 234.391 213.135 M 336 215.679 C 336 218.802, 336.426 222.740, 336.946 224.429 C 337.466 226.118, 338.631 231.100, 339.536 235.500 C 342.795 251.356, 342.737 251.262, 350.073 252.695 C 353.608 253.386, 357.288 254.416, 358.250 254.984 C 360.926 256.564, 360.429 255.165, 354.873 245.474 C 350.440 237.744, 346.194 229.159, 339.195 213.776 C 336.832 208.584, 336 209.079, 336 215.679 M 237.711 215.192 C 234.254 222.467, 224.141 228.511, 212.571 230.216 C 209.328 230.694, 210.891 232.518, 214.304 232.238 C 219.432 231.818, 228.668 227.984, 233.816 224.139 C 237.665 221.264, 241.641 214.241, 240.223 212.823 C 239.637 212.237, 238.692 213.128, 237.711 215.192 M 188.629 247.005 C 184.299 248.586, 179.704 250.869, 178.416 252.079 C 176.120 254.236, 176.110 254.325, 177.913 256.616 C 180.188 259.509, 179.708 275.961, 177.237 279.750 C 175.487 282.433, 176.645 282.679, 181.349 280.622 C 183.082 279.864, 186.647 278.473, 189.271 277.531 C 196.336 274.995, 197.397 272.324, 196.511 259.314 C 195.918 250.616, 196.065 248.550, 197.425 246.474 C 199.510 243.292, 198.650 243.344, 188.629 247.005 M 359.316 258.250 C 358.805 258.938, 358.434 260.766, 358.491 262.314 C 358.575 264.585, 358.248 265.019, 356.797 264.564 C 350.566 262.609, 351 262.358, 351 267.915 C 351 279.415, 343.916 286.182, 326.750 291.081 C 324.137 291.827, 322 292.734, 322 293.097 C 322 294.785, 328.472 296.203, 334.442 295.823 C 342.524 295.308, 341.780 297.509, 333.523 298.540 C 324.328 299.689, 320.422 298.450, 314.181 292.405 C 311.130 289.450, 308.519 287.147, 308.379 287.288 C 306.693 288.974, 316.057 306.327, 320.568 309.875 C 326.805 314.781, 340.543 313.215, 348.954 306.639 C 352.004 304.254, 356.490 301.055, 358.923 299.530 C 371.752 291.485, 377.243 283.397, 376.795 273.202 C 376.502 266.553, 376.476 266.498, 373.482 266.204 C 370.661 265.927, 370.374 266.221, 369.082 270.704 C 365.956 281.554, 359.199 291.254, 352.575 294.397 C 345.164 297.914, 345.087 295.650, 352.446 290.582 C 364.498 282.281, 369.829 269.232, 364.473 261.138 C 361.545 256.714, 360.777 256.284, 359.316 258.250 M 459.500 270.430 C 459.500 278.889, 452.169 286.146, 439.145 290.579 C 430.775 293.427, 410.430 293.224, 403.780 290.225 C 395.237 286.373, 386 275.950, 386 270.162 C 386 268.052, 383.338 265.329, 382.294 266.372 C 381.933 266.734, 381.751 269.499, 381.891 272.517 C 382.372 282.899, 375.955 292.358, 362.310 301.382 C 358.565 303.859, 352.800 308.182, 349.500 310.988 C 337.309 321.355, 328.741 322.064, 319.135 313.500 C 315.772 310.502, 315.770 310.502, 316.464 313 C 317.196 315.634, 319.546 321.467, 320.896 324 C 321.336 324.825, 323.374 328.875, 325.425 333 C 327.477 337.125, 329.570 341.281, 330.077 342.236 C 331.293 344.525, 331.253 347, 330 347 C 329.450 347, 329 346.497, 329 345.881 C 329 345.266, 326.496 341.189, 323.436 336.821 C 320.375 332.454, 316.826 326.818, 315.548 324.297 C 312.601 318.484, 311.419 320.099, 310.139 331.682 C 308.353 347.844, 310.898 363.041, 316.683 370.769 C 319.700 374.798, 320.260 374.483, 322.446 367.532 C 323.403 364.489, 324.662 362, 325.243 362 C 326.771 362, 325.405 378.886, 323.376 385.090 C 316.924 404.815, 335.145 430.412, 364.500 442.863 C 374.825 447.243, 380.135 448.611, 394 450.466 C 400.875 451.385, 407.810 452.559, 409.412 453.073 C 412.864 454.183, 413.770 453.632, 412 451.500 C 409.039 447.932, 412.238 449.282, 419.127 454.506 C 426.252 459.909, 443.715 469.048, 453.666 472.579 C 460.411 474.973, 474.255 474.985, 479.204 472.600 C 486.488 469.091, 486.886 465.819, 479.770 467.951 C 470.349 470.773, 462.178 469.723, 450.821 464.230 C 435.714 456.923, 429.505 451.601, 411.178 430.250 C 400.992 418.382, 399.963 417.746, 396.388 421.105 C 395.156 422.262, 393.665 422.911, 393.074 422.546 C 390.659 421.053, 392.180 417.522, 397.250 412.850 C 403.050 407.505, 403.702 407.212, 404.185 409.723 C 404.426 410.975, 406.151 411.726, 410.497 412.473 C 414.889 413.227, 416.566 413.965, 416.812 415.250 C 417.086 416.685, 416.414 417, 413.073 417 C 408.051 417, 408.011 417.644, 412.750 422.195 C 422.385 431.448, 434.547 436.054, 461 440.470 C 465.675 441.251, 473.325 442.619, 478 443.510 C 506.501 448.946, 525.288 443.300, 536.984 425.787 C 542.197 417.980, 543.300 413.628, 543.190 401.297 C 543.041 384.509, 540.102 381.697, 531.500 390.114 L 527.500 394.028 526.933 404.268 C 526.334 415.080, 524.252 424.253, 522.529 423.673 C 521.373 423.284, 521.671 414.698, 523.057 408.500 C 523.549 406.300, 523.962 402.628, 523.976 400.341 L 524 396.181 519.750 398.277 C 511.472 402.358, 488 400.577, 488 395.867 C 488 395.273, 488.604 395.018, 489.343 395.301 C 498.259 398.723, 514.847 398.133, 519.250 394.238 C 523.847 390.172, 518.070 378.116, 508.079 370.924 C 496.859 362.848, 481.555 362.958, 466.134 371.225 C 460.138 374.439, 458.525 374.199, 461.909 370.597 C 470.133 361.843, 490.444 358.478, 502.287 363.907 C 507.555 366.322, 507.538 366.347, 505.472 359.324 C 502.961 350.790, 502.425 337.786, 504.285 330.500 C 505.127 327.200, 506.134 322.357, 506.523 319.738 C 507.444 313.540, 509 312.639, 509 318.305 L 509 322.728 513.728 320.335 C 516.955 318.700, 519.335 318.134, 521.228 318.550 C 524.468 319.262, 524.700 318.289, 522.386 313.700 C 518.242 305.484, 515.188 304.068, 506.123 306.161 C 502.139 307.081, 500.771 307.055, 499.546 306.039 C 495.918 303.027, 499.192 299, 505.268 299 L 509.392 299 505.946 295.425 C 500.076 289.335, 489.859 281.437, 481.500 276.527 C 477.100 273.942, 471.940 270.869, 470.033 269.698 L 466.566 267.569 469.712 272.034 C 474.165 278.355, 475.649 283.974, 473.983 288.198 C 469.705 299.047, 458.158 303.379, 444.154 299.389 C 435.303 296.868, 436.094 296.356, 448.731 296.431 C 459.610 296.495, 460.754 296.319, 463.863 294.101 C 471.063 288.966, 471.029 281.579, 463.751 269.750 C 460.030 263.703, 459.500 263.787, 459.500 270.430 M 383 299.832 C 376.059 301.689, 369.713 307.478, 368.484 313.075 C 367.612 317.043, 369.342 319.098, 370.978 316.040 C 371.619 314.844, 374.223 312.546, 376.767 310.933 C 383.939 306.385, 391.818 306.894, 406.315 312.845 C 410.908 314.730, 412.278 314.404, 410.913 311.750 C 407.124 304.386, 391.275 297.618, 383 299.832 M 360.647 318.686 C 359.571 319.763, 362.934 324.762, 366.213 326.958 L 369.500 329.160 365 328.575 L 360.500 327.991 363.807 330.766 C 368.490 334.696, 365.921 339.112, 359.700 337.825 C 355.895 337.037, 358.043 340.104, 362.184 341.371 C 363.588 341.801, 363.774 342.790, 363.306 347.326 C 362.458 355.539, 366.383 369.583, 370.474 372.978 C 371.861 374.129, 371.605 374.584, 368.312 376.821 C 363.812 379.879, 364.963 380.478, 372.621 379.062 C 387.992 376.221, 403.579 378.854, 414.800 386.189 C 417.165 387.735, 419.303 389, 419.550 389 C 421.560 389, 416.892 383.520, 411.640 379.713 C 409.867 378.429, 409.928 378.203, 412.927 374.933 C 419.461 367.808, 421.500 361.758, 421.500 349.500 C 421.500 337.422, 420.810 335.278, 414.363 327.317 C 405.723 316.647, 389.390 314.961, 374.985 323.251 C 370.768 325.678, 368.857 325.204, 363.744 320.463 C 362.353 319.173, 360.960 318.374, 360.647 318.686 M 389.344 326.057 C 375.983 328.650, 368 339.289, 368 354.500 C 368 364, 372.202 374, 376.194 374 C 378.892 374, 378.919 372.808, 376.334 367.865 C 369.275 354.364, 375.790 336.557, 389.103 332.972 C 394.622 331.486, 398.820 332.362, 403.937 336.070 C 414.087 343.422, 414.247 357.308, 404.284 366.055 C 391.736 377.073, 378.005 369.874, 377.796 352.167 L 377.717 345.500 376.815 350 C 375.079 358.660, 378.144 369.401, 383.109 372.058 C 384.143 372.612, 389.960 373.342, 396.034 373.682 L 407.079 374.298 409.967 371.532 C 419.470 362.427, 419.826 342.128, 410.657 332.153 C 405.944 327.024, 397.218 324.528, 389.344 326.057 M 513.241 328.107 C 511.910 328.599, 511 329.775, 511 331.003 C 511 332.704, 511.328 332.895, 512.848 332.081 C 515.905 330.445, 521.398 332.825, 524.925 337.313 C 525.709 338.311, 526.689 342.136, 527.102 345.813 L 527.854 352.500 527.617 344 C 527.305 332.814, 525.854 330.407, 517.991 328.035 C 516.611 327.618, 514.473 327.651, 513.241 328.107 M 389.492 336.486 C 384.065 338.872, 382.530 341.353, 384.563 344.456 C 387.907 349.559, 392.076 349.989, 396.750 345.711 C 400.066 342.675, 399.743 338.436, 396.050 336.526 C 394.427 335.687, 392.964 335.037, 392.800 335.082 C 392.635 335.126, 391.146 335.758, 389.492 336.486 M 513.518 368.658 C 514.532 369.671, 517.569 373.875, 520.266 378 C 524.578 384.597, 525.097 385.952, 524.573 389.250 C 523.857 393.754, 525.626 394.371, 527.104 390.132 C 527.653 388.555, 530.146 385.798, 532.642 384.005 L 537.181 380.746 531.840 375.299 C 525.296 368.624, 524.928 368.424, 517.586 367.533 C 511.840 366.836, 511.725 366.867, 513.518 368.658 M 311.029 390.666 C 309.120 393.199, 305.188 400.048, 302.291 405.886 C 296.456 417.643, 288.494 427, 284.323 427 C 281.427 427, 281.431 427.669, 284.365 434.220 C 287.645 441.544, 291.423 452.076, 294.062 461.250 C 296.646 470.233, 297.505 470.817, 298.473 464.250 C 298.858 461.637, 299.823 458.116, 300.617 456.425 C 301.542 454.457, 302.189 449.054, 302.414 441.425 C 302.652 433.331, 303.295 428.215, 304.414 425.500 C 308.051 416.677, 310.792 413, 313.733 413 C 314.695 413, 314.379 414.223, 312.634 417.250 C 308.245 424.860, 307.057 430.168, 306.933 442.712 C 306.865 449.559, 306.182 456.987, 305.304 460.433 C 302.611 470.992, 306.573 483.906, 314.693 491.035 C 318.918 494.745, 319.678 494.740, 320.500 491 C 321.245 487.607, 322.577 487.093, 323.455 489.859 C 324.136 492.005, 323.308 494.785, 321.282 497.151 C 320.045 498.596, 320.270 499.657, 323.084 505.651 C 327.420 514.889, 327.459 519.369, 323.250 524.684 C 319.679 529.193, 319.378 530, 321.265 530 C 323.140 530, 329.967 533.761, 334.316 537.191 C 336.415 538.847, 338.233 540.043, 338.357 539.850 C 341.342 535.184, 344.982 531.488, 347.716 530.345 C 354.333 527.581, 364.994 531.112, 367.055 536.750 C 367.607 538.263, 368.265 540.083, 368.516 540.796 C 368.848 541.740, 369.987 541.401, 372.718 539.546 C 376.976 536.652, 379.755 536.348, 382.559 538.468 C 384.689 540.079, 389 540.517, 389 539.122 C 389 537.533, 386.092 531.547, 384.083 529 C 382.368 526.826, 381.335 526.504, 376.170 526.533 C 369.482 526.570, 368.756 524.941, 374.529 522.853 L 377.867 521.646 376.003 519.276 C 374.977 517.973, 373.829 515.465, 373.452 513.703 C 372.438 508.976, 372.351 508.944, 367.591 511.605 C 362.814 514.275, 350 516.183, 350 514.224 C 350 513.638, 351.462 512.857, 353.250 512.488 C 357.809 511.548, 364.639 509.238, 367.996 507.502 C 370.546 506.184, 370.910 505.350, 371.550 499.381 C 373.739 478.941, 369.394 469.679, 349.250 451.843 C 341.257 444.766, 342.590 443.784, 352.236 449.643 C 367.662 459.014, 378.152 473.267, 379.216 486.300 C 379.478 489.509, 380.519 489.488, 395 485.975 C 411.256 482.032, 422.346 476.663, 425.740 471.094 C 428.279 466.928, 418.176 464.300, 408.363 466.573 C 393.649 469.982, 377.532 472.479, 384 470.348 C 384.825 470.076, 386.400 469.468, 387.500 468.997 C 390.279 467.808, 402.816 464.154, 406.771 463.381 C 409.377 462.872, 412.462 461, 410.696 461 C 410.463 461, 407.977 460.565, 405.171 460.032 C 402.365 459.500, 396.116 458.577, 391.284 457.980 C 382.944 456.950, 373.880 454.889, 369.500 453.025 C 333.548 437.730, 314.163 416.491, 315.171 393.501 C 315.352 389.373, 315.275 386.010, 315 386.029 C 314.725 386.047, 312.938 388.134, 311.029 390.666 M 459.467 389.937 C 447.925 395.824, 450.029 413.651, 462.954 419.479 C 465.862 420.791, 467.248 420.951, 468.649 420.137 C 470.351 419.147, 470.312 419.058, 468.154 419.030 C 464.621 418.985, 460.420 415.500, 458.086 410.677 C 449.340 392.611, 470.436 384.117, 481.403 401.290 C 485.280 407.359, 489 415.242, 489 417.386 C 489 418.209, 489.399 419.129, 489.887 419.430 C 490.374 419.731, 491.067 421.542, 491.425 423.454 C 492.546 429.425, 494.404 429.055, 493.687 423.004 C 492.889 416.265, 488.958 405.934, 484.758 399.540 C 478.207 389.566, 467.883 385.646, 459.467 389.937 M 535.601 393.250 C 532.283 396.225, 531.214 402.072, 533.560 404.418 C 535.834 406.692, 537.890 404.793, 539.698 398.751 C 542.090 390.754, 540.608 388.762, 535.601 393.250 M 462.200 402.200 C 458.682 405.718, 462.522 411.897, 470.631 415.764 C 476.558 418.590, 479.118 413.996, 475.506 407.011 C 472.747 401.676, 465.386 399.014, 462.200 402.200 M 244 409.616 C 215.531 426.013, 188.670 435.538, 167.017 436.914 C 139.573 438.657, 123.629 435.396, 98.630 422.926 C 94.302 420.767, 90.578 419, 90.354 419 C 88.789 419, 94.238 426.046, 101.312 433.168 C 116.239 448.195, 138.543 459.493, 163.336 464.584 C 167.096 465.357, 170.487 466.183, 170.873 466.422 C 172.992 467.731, 203.443 468.919, 212.553 468.047 C 230.004 466.377, 236.217 464.877, 235.491 462.512 C 232.923 454.154, 234.300 443.603, 239.824 429.329 C 247.282 410.053, 249.925 411.139, 243.890 431 C 238.826 447.665, 241.207 465.145, 250.046 476.191 C 254.703 482.011, 254.041 483.425, 248.315 479.886 C 243.973 477.202, 243.484 477.774, 243.571 485.434 C 243.721 498.743, 251.808 507.094, 267.806 510.459 C 274.722 511.914, 282.536 510.924, 288.242 507.870 C 290.968 506.412, 290.411 508.715, 287.353 511.549 C 280.527 517.875, 257.785 516.545, 249.841 509.356 C 248.076 507.759, 247.885 507.772, 246.516 509.581 C 245.717 510.636, 245.049 511.881, 245.032 512.346 C 245.014 512.811, 244.153 514.386, 243.118 515.846 C 240.593 519.409, 237.901 527.578, 238.628 529.473 C 239.240 531.068, 242 531.625, 242 530.153 C 242 527.066, 249.066 522.418, 255.035 521.579 C 260.031 520.877, 261.222 521.732, 267.459 530.500 C 270.835 535.246, 277.104 542, 278.135 542 C 278.813 542, 288 523.705, 288 522.354 C 288 522.018, 289.619 519.951, 291.597 517.761 C 298.269 510.376, 299.636 501.482, 295.335 493.432 C 294.474 491.819, 293.547 487.350, 293.277 483.500 C 293.006 479.650, 291.741 473.350, 290.465 469.500 C 289.189 465.650, 286.752 457.325, 285.049 451 C 283.345 444.675, 281.031 436.975, 279.906 433.889 L 277.860 428.278 270.521 427.723 C 259.780 426.911, 252.579 422.130, 251.453 415.064 C 249.954 405.659, 250.358 405.954, 244 409.616 M 257 411.950 C 257 418.258, 263.604 422.045, 274.372 421.912 L 281.500 421.824 274.500 419.966 C 270.650 418.945, 267.226 418.084, 266.891 418.054 C 266.556 418.025, 264.193 416.162, 261.641 413.915 C 257.530 410.297, 257 410.072, 257 411.950 M 453.301 448.271 C 456.040 450.604, 475.167 460.502, 481.884 463.063 C 483.745 463.773, 488.312 464.387, 492.032 464.427 C 498.351 464.495, 499.175 464.237, 504.555 460.500 C 510.795 456.166, 517.240 448.914, 513.500 450.434 C 509.968 451.870, 491.764 452.269, 485.500 451.048 C 477.213 449.432, 461.515 446.994, 455.500 446.389 L 450.500 445.885 453.301 448.271 M 428.173 478.991 C 424.143 482.285, 418.406 486.440, 415.423 488.224 C 409.345 491.859, 409.324 491.915, 411.905 497.599 C 416.997 508.810, 425.420 508.538, 438.646 496.737 L 444.775 491.269 441.845 484.884 C 440.234 481.373, 438.441 477.262, 437.860 475.750 C 436.471 472.132, 436.631 472.078, 428.173 478.991 M 447 478.417 C 447 478.646, 447.937 481.009, 449.082 483.667 C 453.746 494.495, 454.209 496.625, 454.703 509.500 C 454.977 516.650, 455.606 522.928, 456.101 523.450 C 456.595 523.972, 457 525.106, 457 525.968 C 457 527.851, 461.708 535, 462.948 535 C 463.430 535, 464.130 533.188, 464.505 530.973 C 465.294 526.301, 470.633 520, 473.803 520 C 477.218 520, 481.315 521.945, 484.625 525.136 L 487.749 528.149 488.419 524.579 C 489.580 518.393, 492.974 515.488, 498.938 515.574 C 501.748 515.614, 504.576 516.176, 505.224 516.824 C 507.754 519.354, 507.943 517.809, 505.536 514.268 C 504.141 512.215, 503 510.001, 503 509.347 C 503 505.224, 482.521 508.342, 474.527 513.682 C 472.002 515.369, 471 515.350, 471 513.614 C 471 511.111, 489.972 504.035, 496.878 503.962 L 500.500 503.923 495.702 499.693 C 491.644 496.116, 490.450 494.169, 487.971 487.084 C 484.387 476.844, 484.944 477.368, 479.739 479.356 C 474.285 481.438, 461.245 481.508, 454.591 479.489 C 449.701 478.006, 447 477.624, 447 478.417 M 496.373 489.115 C 497.557 495.034, 503.163 499.628, 510.085 500.351 C 521.319 501.525, 532.674 512.434, 531.805 521.219 C 531.524 524.056, 531.848 524.419, 535.866 525.773 C 540.919 527.475, 541.959 526.715, 541.985 521.297 C 542.038 510.112, 534.239 503.635, 504 489.754 C 501.525 488.618, 498.646 487.257, 497.602 486.730 C 495.873 485.857, 495.764 486.069, 496.373 489.115 M 399.579 491.528 C 397.422 492.273, 393.839 493.189, 391.617 493.565 C 385.242 494.642, 384.026 495.765, 385.277 499.421 C 388.162 507.851, 391.753 510, 402.950 510 C 407.378 510, 411 509.768, 411 509.485 C 411 509.202, 409.635 506.551, 407.967 503.595 C 406.298 500.639, 404.611 496.410, 404.217 494.197 L 403.500 490.175 399.579 491.528 M 302 492.800 C 302 493.240, 302.530 494.130, 303.177 494.777 C 306.803 498.403, 303.563 513.470, 298.094 518.417 L 295.974 520.333 301.429 525.194 C 304.428 527.868, 307.165 530.943, 307.509 532.028 C 308.252 534.370, 311 534.685, 311 532.428 C 311 530.387, 315.451 522.807, 318.009 520.492 C 320.959 517.823, 320.492 515.471, 315.350 507.084 C 309.320 497.248, 302 489.416, 302 492.800 M 441 503.642 C 438.525 505.635, 434.025 508.846, 431 510.779 C 427.975 512.711, 425.334 514.430, 425.131 514.599 C 424.928 514.767, 425.571 515.714, 426.559 516.702 C 428.393 518.536, 446.848 519.480, 448.507 517.825 C 449.693 516.641, 448.005 513.234, 445.967 512.702 C 443.149 511.965, 443.537 510, 446.500 510 C 449.275 510, 450.036 505.805, 447.965 501.934 C 446.582 499.351, 446.220 499.440, 441 503.642 M 377 505.699 C 377 510.728, 379.953 517.620, 383.723 521.390 C 388.592 526.258, 387.874 526.699, 392.814 515.810 C 392.986 515.429, 391.186 514.562, 388.814 513.881 C 384.699 512.701, 380.113 508.778, 380.036 506.372 C 380.016 505.752, 379.325 504.685, 378.500 504 C 377.224 502.941, 377 503.196, 377 505.699 M 506 505.374 C 506 506.674, 510.202 517.455, 511.636 519.836 C 511.747 520.021, 513.324 518.752, 515.140 517.017 C 516.956 515.281, 519.664 513.617, 521.159 513.318 C 524.808 512.588, 523.135 509.738, 517.434 506.972 C 513.991 505.302, 506 504.185, 506 505.374 M 403.853 516.669 C 402.350 517.069, 402.341 517.376, 403.747 520.194 C 406.031 524.773, 404.522 527.993, 398.750 530.856 C 394.280 533.073, 394 533.445, 394 537.172 C 394 541.802, 392.777 544.419, 389.137 547.580 L 386.500 549.870 382.958 546.435 C 379.696 543.272, 375.382 541.951, 373.726 543.608 C 373.391 543.942, 376.579 545.974, 380.809 548.123 C 385.039 550.272, 389.418 552.690, 390.540 553.497 C 392.405 554.839, 393.020 554.668, 397.734 551.493 C 408.198 544.446, 414.652 544.634, 427.475 552.358 L 433.431 555.946 435.187 553.173 C 438.269 548.306, 450.755 543, 459.127 543 L 462.156 543 458.647 538.900 C 456.717 536.646, 453.927 532.407, 452.446 529.481 L 449.755 524.162 438.097 523.831 L 426.439 523.500 421.867 519.750 C 417.668 516.307, 416.811 516.009, 411.397 516.116 C 408.154 516.180, 404.759 516.429, 403.853 516.669 M 546.597 523.626 C 545.839 531.028, 546.192 532.035, 548.744 529.744 C 549.710 528.877, 552.710 527.051, 555.412 525.687 L 560.324 523.205 555.412 520.122 C 548.104 515.534, 547.398 515.815, 546.597 523.626 M 495.350 520.948 C 492.701 522.074, 491.129 529.245, 493.029 531.535 C 496.229 535.390, 511.348 530.388, 509.114 526.213 C 506.573 521.466, 500.024 518.961, 495.350 520.948 M 469.248 526.250 C 468.093 527.487, 466.816 529.838, 466.410 531.473 L 465.671 534.445 468.301 532.723 C 471.472 530.645, 482.894 530.319, 484.897 532.250 C 485.946 533.261, 486.127 533.125, 485.842 531.545 C 485.352 528.823, 478.132 524.073, 474.424 524.033 C 472.492 524.012, 470.568 524.836, 469.248 526.250 M 288.187 531.010 C 284.896 538.547, 285.103 539.064, 290.300 536.294 C 292.060 535.356, 295.750 534.342, 298.500 534.041 L 303.500 533.494 298.013 529.747 C 291.034 524.981, 290.807 525.010, 288.187 531.010 M 251.500 528.167 C 247.101 530.600, 245 533.350, 245 536.674 C 245 540.223, 246.824 541.122, 248.915 538.603 C 250.246 536.999, 258.758 534.020, 262.188 533.958 C 264.306 533.920, 264.172 533.627, 260.583 530.458 C 256.443 526.802, 254.743 526.373, 251.500 528.167 M 215.378 530.139 C 213.895 532.438, 214.628 550.032, 216.476 556.500 C 220.387 570.191, 220.654 570.907, 226.729 584.007 C 230.301 591.709, 240.364 608.405, 243.317 611.528 C 243.967 612.216, 247.367 616.185, 250.872 620.346 C 265.994 638.302, 295.842 659.142, 318.500 667.564 C 321.250 668.586, 324.625 670, 326 670.705 C 327.375 671.411, 329.213 671.990, 330.083 671.994 C 330.954 671.997, 332.004 672.337, 332.416 672.749 C 332.828 673.161, 335.266 674.033, 337.833 674.686 C 340.400 675.339, 345.200 676.612, 348.500 677.515 C 385.207 687.559, 438.680 685.264, 468 672.386 C 488.505 663.380, 503.658 653.691, 516.613 641.302 C 545.257 613.912, 561.791 580.758, 563.689 546.910 C 564.479 532.812, 563.708 528.606, 560.481 529.416 C 556.245 530.479, 550.969 534.160, 549.438 537.120 C 547.718 540.446, 546.636 540.706, 544.807 538.233 C 541.619 533.921, 537.503 532.636, 527.724 532.899 C 522.856 533.029, 515.752 539.756, 513.879 546.009 C 512.317 551.221, 511.231 551.664, 506.379 549.063 C 498.599 544.893, 493.085 547.156, 489.471 556 C 486.794 562.552, 486.482 562.668, 482.140 558.745 C 476.765 553.889, 469.787 550.974, 461.926 550.302 C 453.550 549.585, 449.427 551.411, 444.329 558.096 C 438.904 565.209, 434.960 565.651, 427.182 560.017 C 415.477 551.538, 409.572 551.063, 400.547 557.877 C 393.926 562.876, 391.909 562.986, 386.600 558.636 C 375.021 549.147, 366.552 548.658, 353.657 556.735 C 349.446 559.373, 347 559.141, 347 556.104 C 347 551.908, 333.466 545.626, 322 544.499 C 318.425 544.147, 312.163 543.197, 308.084 542.387 C 297.373 540.260, 293.359 541.602, 282.610 550.904 C 280.008 553.157, 277.724 555, 277.535 555 C 277.346 555, 275.824 552.578, 274.154 549.618 C 269.790 541.886, 266.620 539.653, 261.081 540.407 C 256.759 540.995, 247 546.330, 247 548.104 C 247 551.263, 243.019 548.195, 239.500 542.326 C 233.938 533.047, 229.557 529.740, 222.112 529.202 C 217.893 528.897, 216.010 529.159, 215.378 530.139 M 511.306 532.698 C 510.100 532.933, 508.574 534.341, 507.915 535.829 L 506.718 538.534 496.639 537.786 C 484.785 536.908, 484.744 536.933, 484.280 545.235 C 483.935 551.399, 483.953 551.449, 485.385 548.325 C 487.804 543.048, 491.272 541.492, 500.460 541.559 L 508.500 541.618 511.757 536.809 C 513.549 534.164, 514.674 532.061, 514.257 532.136 C 513.841 532.211, 512.513 532.464, 511.306 532.698 M 346.042 536.845 C 340.838 541.795, 340.928 542.348, 347.438 545.427 C 353.826 548.449, 355.033 548.535, 360.717 546.364 C 365.597 544.500, 365.704 544.206, 363.086 539.900 C 358.425 532.236, 352.083 531.099, 346.042 536.845 M 468.589 539.077 C 465.749 542.451, 465.328 544, 467.250 544.001 C 467.938 544.001, 471.353 545.351, 474.840 547.001 C 482.399 550.577, 482.377 550.574, 480.927 547.863 C 479.823 545.802, 480.083 541.388, 481.522 537.750 C 482.130 536.211, 481.548 536, 476.696 536 C 471.762 536, 470.904 536.326, 468.589 539.077" stroke="none" fill="#1b1f3a" fill-rule="evenodd"/>
</svg>