<svg xmlns="http://www.w3.org/2000/svg" viewBox="0 0 768 768" version="1.1" preserveAspectRatio="xMidYMid meet"><path d="M 374 74.6 C 371.2 77, 361.6 95.1, 353.8 112.6 C 349 123.3, 331.7 133.7, 317.2 134.7 C 305.5 135.5, 302.4 137.2, 294.4 148.2 C 290.9 152.9, 287.3 157.1, 286.3 157.3 C 285.3 157.6, 282.9 158.2, 281 158.5 C 272.9 160.2, 265.6 166.2, 260.5 175.5 C 255.5 184.9, 255.7 184.8, 243.8 180.7 C 230.3 176, 225.8 175.6, 224 179 C 222.7 181.4, 225.7 188.8, 231 196.6 C 234.7 202.2, 234.7 202.3, 230.8 207.4 C 225 214.8, 221.2 216.8, 210.5 218.1 C 202.9 219, 200 221.1, 200 225.6 C 200 233.8, 196 242, 192.1 242 C 191.2 242, 189.2 242.7, 187.6 243.5 C 186.1 244.3, 184.2 245, 183.4 245 C 182.7 245, 180.5 246.4, 178.5 248.1 C 174.5 251.6, 174 255.8, 176.1 267.5 C 177.8 277, 177.8 277.3, 175.3 280.7 C 172 285.3, 172.4 287.8, 177.1 291.9 C 190.1 303.2, 189.4 301.3, 183.5 309.3 C 173.7 322.9, 175.5 336.6, 189.1 351.4 C 191.8 354.3, 194.4 357.9, 194.9 359.3 C 195.5 360.7, 198.4 363.7, 201.4 366 C 206.1 369.4, 207 370.6, 207 373.1 C 207 387.7, 218.2 401.4, 231.9 403.6 C 234.1 404, 235.7 404.7, 235.4 405.2 C 234.5 406.6, 210.5 418.3, 203 420.9 C 199.4 422.2, 195.6 423.6, 194.5 424 C 190.2 425.9, 180.9 428, 171.2 429.5 C 148.1 432.9, 128.4 429.6, 104 418.2 C 84.3 409, 86.2 409.7, 83.5 411.4 C 80.3 413.5, 80.4 414.6, 84.3 422 C 99.3 450.5, 142.1 472.2, 190.9 476 C 201.9 476.9, 225.7 475.9, 228 474.5 C 228.4 474.3, 230.4 473.7, 232.6 473.2 L 236.5 472.3 236.5 483.4 C 236.5 493.5, 236.8 495, 239.3 499.9 C 243 507.3, 243.7 506, 232.5 511 C 231.4 511.5, 228.7 512.4, 226.5 513 C 215.2 516, 209.6 522.1, 208.5 532.5 C 207.7 539.7, 208.5 552.1, 210.1 558.5 C 210.7 560.7, 211.6 564.5, 212.2 567 C 212.7 569.5, 213.6 571.9, 214.1 572.5 C 214.6 573, 215 574.2, 215 575.1 C 215 577.6, 227.3 601.1, 232.7 608.8 C 263.1 652.8, 310.9 680.7, 371 689.5 C 391.2 692.5, 429.9 691.1, 447 686.9 C 517.3 669.5, 570.8 606.6, 571 541.2 C 571 524.9, 567.6 519.1, 554.3 513 C 550.1 511.1, 545.4 507.8, 542 504.5 C 533.8 496.5, 518.8 487.7, 501 480.5 C 494.8 477.9, 491 475.5, 491 474 C 491 473.7, 493.7 472.6, 497.1 471.6 C 508.1 468.2, 519.2 459.2, 524.3 449.3 C 525.7 446.7, 528.9 443.4, 532.7 440.6 C 550 427.9, 556.5 404.6, 548.6 384 C 548.2 383, 549.7 381.4, 553.4 379 C 561.7 373.5, 579.4 356.6, 581.8 351.6 C 584.4 346.5, 584.6 341.6, 582.5 334 C 580.4 326.3, 581.2 324, 588.2 317.3 C 596.1 309.7, 597.1 307.2, 596.4 297.3 C 595.8 290, 596 289.1, 598.9 283 C 603.9 272.4, 602.8 267.4, 593.5 259.7 C 585.7 253.2, 584.1 249.6, 582.4 235.3 C 580.4 218.3, 579.5 217, 567 213 C 557.6 210, 554.9 207.2, 552 197.4 C 548.3 184.9, 545.3 181.1, 538 179.5 C 527 177.2, 524.8 176, 511.3 164.9 C 502.7 157.8, 494.7 153.4, 487.9 152.1 C 484.9 151.6, 481.2 150.6, 479.5 150 C 477.9 149.4, 476.3 148.8, 476 148.8 C 475.7 148.8, 474.8 148.4, 473.9 147.9 C 472.7 147.3, 472 147.5, 471.6 148.5 C 471.3 149.3, 470.2 150, 469.1 150 C 468 150, 466.8 150.5, 466.5 151 C 466.2 151.6, 465.1 152, 464.2 152 C 463.3 152, 461.2 152.7, 459.6 153.5 C 452 157.5, 442.5 155.4, 438.7 148.9 C 435.7 143.6, 436.9 141.7, 445 138.7 C 453.2 135.7, 462.6 137.3, 468.2 142.7 C 469.8 144.2, 471 144.8, 471 144.1 C 471 143.3, 471.6 143, 472.5 143.4 C 474.9 144.3, 474.3 143.2, 470.2 139.1 C 463.2 132.1, 453.8 130.5, 441.6 134.5 C 432.5 137.5, 431.3 137.5, 424.8 135.3 C 418.7 133.1, 411.2 127.5, 400.7 117.3 L 392.5 109.4 389.7 99.5 C 388.1 94, 386.3 87.3, 385.6 84.5 C 382.8 73.2, 379.3 70.2, 374 74.6 M 376 82.2 C 374.1 85.2, 370.1 93.3, 370 94.2 C 370 94.6, 368 99.3, 365.5 104.6 C 360.8 114.6, 360.1 117, 362.3 115.3 C 365 113.1, 373.7 111, 379.8 111 C 385.5 111, 386.2 110.8, 385.7 109.3 C 383 100.4, 380 89.1, 380 87.5 C 379.9 86.4, 379.4 84.2, 378.7 82.7 L 377.5 79.9 376 82.2 M 371.7 117.5 C 364.4 119.5, 358.5 122.6, 351.7 127.9 C 339.1 137.8, 328.9 142, 317.3 142 C 309 142, 309.6 141.7, 300.8 152.5 C 292.8 162.5, 290.6 164.4, 286.1 164.6 C 276.5 165.1, 272.8 168.3, 263.6 184.2 L 260.9 188.9 265.1 191.9 C 270.3 195.7, 270.3 195.7, 272.3 191.5 C 275.2 185.4, 288.1 180, 290.5 184 C 290.9 184.6, 289.7 185, 287.7 185 C 282 185, 277.1 187.9, 273.6 193.4 C 271.7 196.3, 271.7 196.4, 273.7 197.7 C 280.9 202.5, 295.6 214.1, 306.6 223.7 C 322.1 237.1, 338.2 250.1, 338.8 249.6 C 339 249.4, 338.4 245, 337.5 239.8 C 336.6 234.7, 335.5 223.5, 335 215 C 334.5 206.5, 333.4 195.9, 332.5 191.5 C 330.5 181.6, 329 172.3, 329 169.2 C 329 164.6, 331.4 167.7, 333.2 174.6 C 338.3 193.8, 340.4 200.6, 342.7 206 C 346.3 214.5, 356.8 234.3, 362.3 243 C 365.6 248.2, 369.2 254.2, 370.3 256.2 L 372.2 260 377.9 259.4 C 381 259.1, 384 258.7, 384.6 258.5 C 385.2 258.3, 386 254.9, 386.4 250.9 C 387.3 241.7, 392.2 222.6, 394.1 220.6 C 394.6 220, 395 219.1, 395 218.4 C 395 216.2, 402.7 200.6, 406.6 195 C 414.8 183, 426.6 171.9, 440.3 163.2 L 445.1 160.2 439.7 156.7 C 436.7 154.8, 433.4 151.7, 432.2 149.9 C 431.1 148, 428.4 145.6, 426.3 144.6 C 415.4 138.9, 408.2 134, 400.3 126.6 C 395.4 122, 390.5 117.8, 389.3 117.2 C 386.5 115.7, 377.8 115.8, 371.7 117.5 M 330 144.5 C 331.5 146.3, 340.4 150.5, 344.8 151.5 C 349.4 152.5, 355.9 151.4, 359.9 148.9 C 364.3 146.3, 363.4 145.6, 358 147.5 C 350.9 150, 342.9 148.9, 334.1 144.3 C 330.5 142.5, 328.4 142.5, 330 144.5 M 464 159.2 C 446.8 166.6, 438.1 172.3, 427.2 183.2 C 413.7 196.8, 403.8 213, 399.1 229 C 397.9 233.1, 396.5 237.9, 396 239.6 C 392.3 251.1, 392.3 270.9, 395.9 276.2 C 405.5 290.1, 434.9 290.5, 449.2 277 C 453.2 273.2, 453.2 273.2, 452.5 267.3 C 452.1 264.1, 451.4 259.9, 450.9 258 C 449.4 252.7, 448.6 216.6, 449.9 208 C 453 185.5, 455.3 178.3, 463.3 166.2 C 469.2 157.4, 469.3 156.9, 464 159.2 M 476.6 160.5 C 474.6 162.5, 468.6 171.7, 465.3 177.8 L 463 182.1 465.4 183 C 466.7 183.4, 468 184.6, 468.4 185.5 C 469.3 188.1, 469.1 197.8, 467.9 203.9 C 464.6 221.6, 462 234.2, 460.6 239.5 C 459.8 242.8, 459.1 248, 459 251.2 L 459 256.8 465.8 260.5 C 469.5 262.6, 475.9 266.1, 480 268.3 C 492 274.7, 498.4 279.4, 510.8 291.2 C 523.3 302.9, 527.2 308.6, 529.4 318.1 L 530.6 323.5 538.4 323.3 C 542.8 323.2, 546.8 322.6, 547.3 322.1 C 548.6 320.8, 551 320.7, 551 321.8 C 551 323, 541.5 326, 537.6 326 C 531.6 326, 531.5 326.2, 531.9 345.2 C 532 354.7, 532.5 363, 532.8 363.6 C 533.2 364.2, 536.1 367.5, 539.3 370.9 L 545 377.1 549.3 373.9 C 558.1 367, 577.1 348.5, 577.7 346.2 C 578 344.9, 577.5 342.2, 576.4 339.9 C 574.3 335.1, 574 324.7, 576 321 C 576.7 319.6, 580.3 315.5, 583.8 311.7 L 590.4 305 590.5 295.7 C 590.6 287.9, 591 285.7, 593.3 281.3 C 597.5 273.1, 597.1 271, 590.1 265.5 C 586.7 262.8, 583.2 259, 581.7 256.2 C 579.1 251.5, 576 237, 576 229.8 C 576 225.5, 573.6 222.4, 569.3 221.4 C 563.3 219.9, 553.9 214.7, 551.6 211.7 C 550.4 209.9, 548.3 205.6, 547 202 C 541.9 187.4, 541.3 186.7, 531 184.5 C 524.6 183.1, 519.5 180.3, 510.5 173.1 C 495.8 161.4, 481.2 156, 476.6 160.5 M 230 183.8 C 230 186.5, 241.9 201.2, 260.3 221.3 C 281.5 244.6, 282.9 246.1, 297.7 262.7 C 299 264.2, 302.7 268.9, 305.8 273 C 312.2 281.7, 312 281.3, 316.3 286.4 L 319.7 290.3 328.1 286.9 C 345 280.1, 348 277.2, 348 267.7 C 348 263, 348 262.9, 343.3 260.9 C 332.6 256.5, 327.6 252.9, 309.5 236.6 C 287.6 216.9, 277 208.3, 261.5 197.8 C 248.8 189.2, 230 180.9, 230 183.8 M 462 185.5 C 459.9 188, 458.1 201.2, 457.4 218.4 C 456.4 243.9, 459.8 235.3, 464.5 200.6 C 466.3 187.4, 465.3 181.5, 462 185.5 M 524.3 191.7 C 524.7 192.3, 526.5 193, 528.3 193.4 C 534.8 194.6, 538.7 200.1, 541.6 211.9 C 544.4 223.7, 550.4 228, 566 229.4 C 574 230.2, 573 228, 564.8 226.9 C 549.5 224.8, 546.2 222.3, 544.1 211.6 C 541.8 199.4, 536.2 192.4, 527.9 191.3 C 525.1 190.9, 523.9 191, 524.3 191.7 M 234.4 213.1 C 229.2 219.9, 223.6 223, 214.8 223.7 C 207.3 224.4, 205 225.7, 205 229.6 C 205 233.1, 201.8 244.4, 200.5 245.2 C 199.9 245.7, 199.5 250.9, 199.5 258.8 C 199.5 271.4, 199.4 271.7, 196.6 275.4 C 193.9 279, 186.8 283, 183.2 283 C 177.1 283.1, 178.3 286.1, 187.6 294.1 C 196.2 301.6, 196.5 302.3, 196.5 318 C 196.6 334.1, 197.9 337.8, 206.1 345.8 C 212.4 352, 211.9 354, 205.4 348.4 C 196.5 340.9, 194.6 335.8, 194.2 319.3 C 194 311.4, 193.4 305, 192.9 305 C 192.4 305, 190.3 307.6, 188.3 310.8 C 180.7 322.4, 182.8 335.3, 194.1 346.8 C 199.6 352.4, 204 355.1, 210.5 356.9 C 215.6 358.2, 223.4 363.2, 225.3 366.2 C 226.1 367.5, 227 371, 227.4 374.1 C 227.7 377.1, 228.2 380.4, 228.6 381.3 C 229.4 383.6, 227.4 383.5, 226.4 381.3 C 226 380.3, 225.1 376.8, 224.6 373.5 C 223.6 368.1, 223.1 367.3, 219.2 364.7 C 215.8 362.4, 203.1 358, 200 358 C 199.7 358, 201.5 359.3, 204 360.9 C 211.1 365.4, 213.2 368.8, 214.5 378 C 216.2 390.8, 227.3 399, 243.1 399 C 253.6 399, 259 401.1, 262.2 406.4 C 266 412.7, 271.8 416.2, 279.4 416.7 C 287.8 417.3, 289.3 416.1, 295.1 405.1 C 300.3 395.2, 305.1 387.8, 310.1 381.8 L 313.2 378.1 311.1 375.1 C 309.9 373.5, 308 370.1, 306.9 367.6 L 304.9 363.1 294.9 374 C 289.3 380.1, 284.6 385, 284.4 385 C 282.5 385, 290.7 371.7, 294.9 368 C 302.4 361.5, 305.6 353.4, 300.3 354.6 C 297 355.4, 282.6 363, 275.2 367.8 C 268 372.6, 267.7 371.3, 274.7 365.3 C 282.6 358.5, 292.3 352.4, 298.3 350.4 C 303.2 348.8, 303.2 348.7, 302.7 345.3 C 302.3 343.3, 301.9 341.6, 301.7 341.3 C 299.9 339.6, 257.2 350, 249.8 354.1 C 247.6 355.2, 247 355.2, 247 354.1 C 247 350.6, 280.5 339, 298.6 336.3 C 301.5 335.8, 301.8 335.5, 302.7 329.7 C 303.3 326.3, 304.1 322.5, 304.5 321.3 C 305.1 319.3, 304.9 319, 302.4 319 C 300.9 319, 298.3 318.6, 296.6 318 C 294.9 317.5, 288.8 315.9, 283 314.5 C 272.7 311.9, 254.8 307.2, 244 304.3 C 241 303.5, 237.3 302.6, 235.8 302.3 C 234.3 302, 232.5 301.1, 231.9 300.3 C 230.6 298.8, 230.7 298.8, 240.5 301 C 242.7 301.5, 249.7 302.9, 256 304 C 267.9 306.2, 271.5 306.9, 283.5 309.4 C 294.9 311.8, 306.2 313.2, 307 312.3 C 307.5 311.9, 307.1 308.6, 306.1 305.1 C 304.6 299.6, 303.6 297.9, 299.3 294.1 C 283.7 279.9, 251.8 244.9, 253.2 243.5 C 253.5 243.2, 257.3 246.6, 261.6 251.1 C 269.3 259, 299.3 286.2, 301.1 286.8 C 301.6 287, 302 285.6, 302 283.7 C 302 279.8, 293.4 269.1, 250.7 220.1 C 238 205.5, 239.6 206.2, 234.4 213.1 M 336 215.7 C 336 218.8, 336.4 222.7, 336.9 224.4 C 337.5 226.1, 338.6 231.1, 339.5 235.5 C 342.8 251.4, 342.7 251.3, 350.1 252.7 C 353.6 253.4, 357.3 254.4, 358.3 255 C 360.9 256.6, 360.4 255.2, 354.9 245.5 C 350.4 237.7, 346.2 229.2, 339.2 213.8 C 336.8 208.6, 336 209.1, 336 215.7 M 237.7 215.2 C 234.3 222.5, 224.1 228.5, 212.6 230.2 C 209.3 230.7, 210.9 232.5, 214.3 232.2 C 219.4 231.8, 228.7 228, 233.8 224.1 C 237.7 221.3, 241.6 214.2, 240.2 212.8 C 239.6 212.2, 238.7 213.1, 237.7 215.2 M 188.6 247 C 184.3 248.6, 179.7 250.9, 178.4 252.1 C 176.1 254.2, 176.1 254.3, 177.9 256.6 C 180.2 259.5, 179.7 276, 177.2 279.8 C 175.5 282.4, 176.6 282.7, 181.3 280.6 C 183.1 279.9, 186.6 278.5, 189.3 277.5 C 196.3 275, 197.4 272.3, 196.5 259.3 C 195.9 250.6, 196.1 248.6, 197.4 246.5 C 199.5 243.3, 198.7 243.3, 188.6 247 M 359.3 258.3 C 358.8 258.9, 358.4 260.8, 358.5 262.3 C 358.6 264.6, 358.2 265, 356.8 264.6 C 350.6 262.6, 351 262.4, 351 267.9 C 351 279.4, 343.9 286.2, 326.8 291.1 C 324.1 291.8, 322 292.7, 322 293.1 C 322 294.8, 328.5 296.2, 334.4 295.8 C 342.5 295.3, 341.8 297.5, 333.5 298.5 C 324.3 299.7, 320.4 298.5, 314.2 292.4 C 311.1 289.5, 308.5 287.1, 308.4 287.3 C 306.7 289, 316.1 306.3, 320.6 309.9 C 326.8 314.8, 340.5 313.2, 349 306.6 C 352 304.3, 356.5 301.1, 358.9 299.5 C 371.8 291.5, 377.2 283.4, 376.8 273.2 C 376.5 266.6, 376.5 266.5, 373.5 266.2 C 370.7 265.9, 370.4 266.2, 369.1 270.7 C 366 281.6, 359.2 291.3, 352.6 294.4 C 345.2 297.9, 345.1 295.7, 352.4 290.6 C 364.5 282.3, 369.8 269.2, 364.5 261.1 C 361.5 256.7, 360.8 256.3, 359.3 258.3 M 459.5 270.4 C 459.5 278.9, 452.2 286.1, 439.1 290.6 C 430.8 293.4, 410.4 293.2, 403.8 290.2 C 395.2 286.4, 386 276, 386 270.2 C 386 268.1, 383.3 265.3, 382.3 266.4 C 381.9 266.7, 381.8 269.5, 381.9 272.5 C 382.4 282.9, 376 292.4, 362.3 301.4 C 358.6 303.9, 352.8 308.2, 349.5 311 C 337.3 321.4, 328.7 322.1, 319.1 313.5 C 315.8 310.5, 315.8 310.5, 316.5 313 C 317.2 315.6, 319.5 321.5, 320.9 324 C 321.3 324.8, 323.4 328.9, 325.4 333 C 327.5 337.1, 329.6 341.3, 330.1 342.2 C 331.3 344.5, 331.3 347, 330 347 C 329.5 347, 329 346.5, 329 345.9 C 329 345.3, 326.5 341.2, 323.4 336.8 C 320.4 332.5, 316.8 326.8, 315.5 324.3 C 312.6 318.5, 311.4 320.1, 310.1 331.7 C 308.4 347.8, 310.9 363, 316.7 370.8 C 319.7 374.8, 320.3 374.5, 322.4 367.5 C 323.4 364.5, 324.7 362, 325.2 362 C 326.8 362, 325.4 378.9, 323.4 385.1 C 316.9 404.8, 335.1 430.4, 364.5 442.9 C 374.8 447.2, 380.1 448.6, 394 450.5 C 400.9 451.4, 407.8 452.6, 409.4 453.1 C 412.9 454.2, 413.8 453.6, 412 451.5 C 409 447.9, 412.2 449.3, 419.1 454.5 C 426.3 459.9, 443.7 469, 453.7 472.6 C 460.4 475, 474.3 475, 479.2 472.6 C 486.5 469.1, 486.9 465.8, 479.8 468 C 470.3 470.8, 462.2 469.7, 450.8 464.2 C 435.7 456.9, 429.5 451.6, 411.2 430.3 C 401 418.4, 400 417.7, 396.4 421.1 C 395.2 422.3, 393.7 422.9, 393.1 422.5 C 390.7 421.1, 392.2 417.5, 397.3 412.9 C 403.1 407.5, 403.7 407.2, 404.2 409.7 C 404.4 411, 406.2 411.7, 410.5 412.5 C 414.9 413.2, 416.6 414, 416.8 415.3 C 417.1 416.7, 416.4 417, 413.1 417 C 408.1 417, 408 417.6, 412.8 422.2 C 422.4 431.4, 434.5 436.1, 461 440.5 C 465.7 441.3, 473.3 442.6, 478 443.5 C 506.5 448.9, 525.3 443.3, 537 425.8 C 542.2 418, 543.3 413.6, 543.2 401.3 C 543 384.5, 540.1 381.7, 531.5 390.1 L 527.5 394 526.9 404.3 C 526.3 415.1, 524.3 424.3, 522.5 423.7 C 521.4 423.3, 521.7 414.7, 523.1 408.5 C 523.5 406.3, 524 402.6, 524 400.3 L 524 396.2 519.8 398.3 C 511.5 402.4, 488 400.6, 488 395.9 C 488 395.3, 488.6 395, 489.3 395.3 C 498.3 398.7, 514.8 398.1, 519.3 394.2 C 523.8 390.2, 518.1 378.1, 508.1 370.9 C 496.9 362.8, 481.6 363, 466.1 371.2 C 460.1 374.4, 458.5 374.2, 461.9 370.6 C 470.1 361.8, 490.4 358.5, 502.3 363.9 C 507.6 366.3, 507.5 366.3, 505.5 359.3 C 503 350.8, 502.4 337.8, 504.3 330.5 C 505.1 327.2, 506.1 322.4, 506.5 319.7 C 507.4 313.5, 509 312.6, 509 318.3 L 509 322.7 513.7 320.3 C 517 318.7, 519.3 318.1, 521.2 318.6 C 524.5 319.3, 524.7 318.3, 522.4 313.7 C 518.2 305.5, 515.2 304.1, 506.1 306.2 C 502.1 307.1, 500.8 307.1, 499.5 306 C 495.9 303, 499.2 299, 505.3 299 L 509.4 299 505.9 295.4 C 500.1 289.3, 489.9 281.4, 481.5 276.5 C 477.1 273.9, 471.9 270.9, 470 269.7 L 466.6 267.6 469.7 272 C 474.2 278.4, 475.6 284, 474 288.2 C 469.7 299, 458.2 303.4, 444.2 299.4 C 435.3 296.9, 436.1 296.4, 448.7 296.4 C 459.6 296.5, 460.8 296.3, 463.9 294.1 C 471.1 289, 471 281.6, 463.8 269.8 C 460 263.7, 459.5 263.8, 459.5 270.4 M 383 299.8 C 376.1 301.7, 369.7 307.5, 368.5 313.1 C 367.6 317, 369.3 319.1, 371 316 C 371.6 314.8, 374.2 312.5, 376.8 310.9 C 383.9 306.4, 391.8 306.9, 406.3 312.8 C 410.9 314.7, 412.3 314.4, 410.9 311.8 C 407.1 304.4, 391.3 297.6, 383 299.8 M 360.6 318.7 C 359.6 319.8, 362.9 324.8, 366.2 327 L 369.5 329.2 365 328.6 L 360.5 328 363.8 330.8 C 368.5 334.7, 365.9 339.1, 359.7 337.8 C 355.9 337, 358 340.1, 362.2 341.4 C 363.6 341.8, 363.8 342.8, 363.3 347.3 C 362.5 355.5, 366.4 369.6, 370.5 373 C 371.9 374.1, 371.6 374.6, 368.3 376.8 C 363.8 379.9, 365 380.5, 372.6 379.1 C 388 376.2, 403.6 378.9, 414.8 386.2 C 417.2 387.7, 419.3 389, 419.6 389 C 421.6 389, 416.9 383.5, 411.6 379.7 C 409.9 378.4, 409.9 378.2, 412.9 374.9 C 419.5 367.8, 421.5 361.8, 421.5 349.5 C 421.5 337.4, 420.8 335.3, 414.4 327.3 C 405.7 316.6, 389.4 315, 375 323.3 C 370.8 325.7, 368.9 325.2, 363.7 320.5 C 362.4 319.2, 361 318.4, 360.6 318.7 M 389.3 326.1 C 376 328.7, 368 339.3, 368 354.5 C 368 364, 372.2 374, 376.2 374 C 378.9 374, 378.9 372.8, 376.3 367.9 C 369.3 354.4, 375.8 336.6, 389.1 333 C 394.6 331.5, 398.8 332.4, 403.9 336.1 C 414.1 343.4, 414.2 357.3, 404.3 366.1 C 391.7 377.1, 378 369.9, 377.8 352.2 L 377.7 345.5 376.8 350 C 375.1 358.7, 378.1 369.4, 383.1 372.1 C 384.1 372.6, 390 373.3, 396 373.7 L 407.1 374.3 410 371.5 C 419.5 362.4, 419.8 342.1, 410.7 332.2 C 405.9 327, 397.2 324.5, 389.3 326.1 M 513.2 328.1 C 511.9 328.6, 511 329.8, 511 331 C 511 332.7, 511.3 332.9, 512.8 332.1 C 515.9 330.4, 521.4 332.8, 524.9 337.3 C 525.7 338.3, 526.7 342.1, 527.1 345.8 L 527.9 352.5 527.6 344 C 527.3 332.8, 525.9 330.4, 518 328 C 516.6 327.6, 514.5 327.7, 513.2 328.1 M 389.5 336.5 C 384.1 338.9, 382.5 341.4, 384.6 344.5 C 387.9 349.6, 392.1 350, 396.8 345.7 C 400.1 342.7, 399.7 338.4, 396.1 336.5 C 394.4 335.7, 393 335, 392.8 335.1 C 392.6 335.1, 391.1 335.8, 389.5 336.5 M 513.5 368.7 C 514.5 369.7, 517.6 373.9, 520.3 378 C 524.6 384.6, 525.1 386, 524.6 389.3 C 523.9 393.8, 525.6 394.4, 527.1 390.1 C 527.7 388.6, 530.1 385.8, 532.6 384 L 537.2 380.7 531.8 375.3 C 525.3 368.6, 524.9 368.4, 517.6 367.5 C 511.8 366.8, 511.7 366.9, 513.5 368.7 M 311 390.7 C 309.1 393.2, 305.2 400, 302.3 405.9 C 296.5 417.6, 288.5 427, 284.3 427 C 281.4 427, 281.4 427.7, 284.4 434.2 C 287.6 441.5, 291.4 452.1, 294.1 461.3 C 296.6 470.2, 297.5 470.8, 298.5 464.3 C 298.9 461.6, 299.8 458.1, 300.6 456.4 C 301.5 454.5, 302.2 449.1, 302.4 441.4 C 302.7 433.3, 303.3 428.2, 304.4 425.5 C 308.1 416.7, 310.8 413, 313.7 413 C 314.7 413, 314.4 414.2, 312.6 417.3 C 308.2 424.9, 307.1 430.2, 306.9 442.7 C 306.9 449.6, 306.2 457, 305.3 460.4 C 302.6 471, 306.6 483.9, 314.7 491 C 318.9 494.7, 319.7 494.7, 320.5 491 C 321.2 487.6, 322.6 487.1, 323.5 489.9 C 324.1 492, 323.3 494.8, 321.3 497.2 C 320 498.6, 320.3 499.7, 323.1 505.7 C 327.4 514.9, 327.5 519.4, 323.3 524.7 C 319.7 529.2, 319.4 530, 321.3 530 C 323.1 530, 330 533.8, 334.3 537.2 C 336.4 538.8, 338.2 540, 338.4 539.9 C 341.3 535.2, 345 531.5, 347.7 530.3 C 354.3 527.6, 365 531.1, 367.1 536.8 C 367.6 538.3, 368.3 540.1, 368.5 540.8 C 368.8 541.7, 370 541.4, 372.7 539.5 C 377 536.7, 379.8 536.3, 382.6 538.5 C 384.7 540.1, 389 540.5, 389 539.1 C 389 537.5, 386.1 531.5, 384.1 529 C 382.4 526.8, 381.3 526.5, 376.2 526.5 C 369.5 526.6, 368.8 524.9, 374.5 522.9 L 377.9 521.6 376 519.3 C 375 518, 373.8 515.5, 373.5 513.7 C 372.4 509, 372.4 508.9, 367.6 511.6 C 362.8 514.3, 350 516.2, 350 514.2 C 350 513.6, 351.5 512.9, 353.3 512.5 C 357.8 511.5, 364.6 509.2, 368 507.5 C 370.5 506.2, 370.9 505.4, 371.6 499.4 C 373.7 478.9, 369.4 469.7, 349.3 451.8 C 341.3 444.8, 342.6 443.8, 352.2 449.6 C 367.7 459, 378.2 473.3, 379.2 486.3 C 379.5 489.5, 380.5 489.5, 395 486 C 411.3 482, 422.3 476.7, 425.7 471.1 C 428.3 466.9, 418.2 464.3, 408.4 466.6 C 393.6 470, 377.5 472.5, 384 470.3 C 384.8 470.1, 386.4 469.5, 387.5 469 C 390.3 467.8, 402.8 464.2, 406.8 463.4 C 409.4 462.9, 412.5 461, 410.7 461 C 410.5 461, 408 460.6, 405.2 460 C 402.4 459.5, 396.1 458.6, 391.3 458 C 382.9 457, 373.9 454.9, 369.5 453 C 333.5 437.7, 314.2 416.5, 315.2 393.5 C 315.4 389.4, 315.3 386, 315 386 C 314.7 386, 312.9 388.1, 311 390.7 M 459.5 389.9 C 447.9 395.8, 450 413.7, 463 419.5 C 465.9 420.8, 467.2 421, 468.6 420.1 C 470.4 419.1, 470.3 419.1, 468.2 419 C 464.6 419, 460.4 415.5, 458.1 410.7 C 449.3 392.6, 470.4 384.1, 481.4 401.3 C 485.3 407.4, 489 415.2, 489 417.4 C 489 418.2, 489.4 419.1, 489.9 419.4 C 490.4 419.7, 491.1 421.5, 491.4 423.5 C 492.5 429.4, 494.4 429.1, 493.7 423 C 492.9 416.3, 489 405.9, 484.8 399.5 C 478.2 389.6, 467.9 385.6, 459.5 389.9 M 535.6 393.3 C 532.3 396.2, 531.2 402.1, 533.6 404.4 C 535.8 406.7, 537.9 404.8, 539.7 398.8 C 542.1 390.8, 540.6 388.8, 535.6 393.3 M 462.2 402.2 C 458.7 405.7, 462.5 411.9, 470.6 415.8 C 476.6 418.6, 479.1 414, 475.5 407 C 472.7 401.7, 465.4 399, 462.2 402.2 M 244 409.6 C 215.5 426, 188.7 435.5, 167 436.9 C 139.6 438.7, 123.6 435.4, 98.6 422.9 C 94.3 420.8, 90.6 419, 90.4 419 C 88.8 419, 94.2 426, 101.3 433.2 C 116.2 448.2, 138.5 459.5, 163.3 464.6 C 167.1 465.4, 170.5 466.2, 170.9 466.4 C 173 467.7, 203.4 468.9, 212.6 468 C 230 466.4, 236.2 464.9, 235.5 462.5 C 232.9 454.2, 234.3 443.6, 239.8 429.3 C 247.3 410.1, 249.9 411.1, 243.9 431 C 238.8 447.7, 241.2 465.1, 250 476.2 C 254.7 482, 254 483.4, 248.3 479.9 C 244 477.2, 243.5 477.8, 243.6 485.4 C 243.7 498.7, 251.8 507.1, 267.8 510.5 C 274.7 511.9, 282.5 510.9, 288.2 507.9 C 291 506.4, 290.4 508.7, 287.4 511.5 C 280.5 517.9, 257.8 516.5, 249.8 509.4 C 248.1 507.8, 247.9 507.8, 246.5 509.6 C 245.7 510.6, 245 511.9, 245 512.3 C 245 512.8, 244.2 514.4, 243.1 515.8 C 240.6 519.4, 237.9 527.6, 238.6 529.5 C 239.2 531.1, 242 531.6, 242 530.2 C 242 527.1, 249.1 522.4, 255 521.6 C 260 520.9, 261.2 521.7, 267.5 530.5 C 270.8 535.2, 277.1 542, 278.1 542 C 278.8 542, 288 523.7, 288 522.4 C 288 522, 289.6 520, 291.6 517.8 C 298.3 510.4, 299.6 501.5, 295.3 493.4 C 294.5 491.8, 293.5 487.4, 293.3 483.5 C 293 479.7, 291.7 473.4, 290.5 469.5 C 289.2 465.7, 286.8 457.3, 285 451 C 283.3 444.7, 281 437, 279.9 433.9 L 277.9 428.3 270.5 427.7 C 259.8 426.9, 252.6 422.1, 251.5 415.1 C 250 405.7, 250.4 406, 244 409.6 M 257 412 C 257 418.3, 263.6 422, 274.4 421.9 L 281.5 421.8 274.5 420 C 270.7 418.9, 267.2 418.1, 266.9 418.1 C 266.6 418, 264.2 416.2, 261.6 413.9 C 257.5 410.3, 257 410.1, 257 412 M 453.3 448.3 C 456 450.6, 475.2 460.5, 481.9 463.1 C 483.7 463.8, 488.3 464.4, 492 464.4 C 498.4 464.5, 499.2 464.2, 504.6 460.5 C 510.8 456.2, 517.2 448.9, 513.5 450.4 C 510 451.9, 491.8 452.3, 485.5 451 C 477.2 449.4, 461.5 447, 455.5 446.4 L 450.5 445.9 453.3 448.3 M 428.2 479 C 424.1 482.3, 418.4 486.4, 415.4 488.2 C 409.3 491.9, 409.3 491.9, 411.9 497.6 C 417 508.8, 425.4 508.5, 438.6 496.7 L 444.8 491.3 441.8 484.9 C 440.2 481.4, 438.4 477.3, 437.9 475.8 C 436.5 472.1, 436.6 472.1, 428.2 479 M 447 478.4 C 447 478.6, 447.9 481, 449.1 483.7 C 453.7 494.5, 454.2 496.6, 454.7 509.5 C 455 516.7, 455.6 522.9, 456.1 523.5 C 456.6 524, 457 525.1, 457 526 C 457 527.9, 461.7 535, 462.9 535 C 463.4 535, 464.1 533.2, 464.5 531 C 465.3 526.3, 470.6 520, 473.8 520 C 477.2 520, 481.3 521.9, 484.6 525.1 L 487.7 528.1 488.4 524.6 C 489.6 518.4, 493 515.5, 498.9 515.6 C 501.7 515.6, 504.6 516.2, 505.2 516.8 C 507.8 519.4, 507.9 517.8, 505.5 514.3 C 504.1 512.2, 503 510, 503 509.3 C 503 505.2, 482.5 508.3, 474.5 513.7 C 472 515.4, 471 515.4, 471 513.6 C 471 511.1, 490 504, 496.9 504 L 500.5 503.9 495.7 499.7 C 491.6 496.1, 490.5 494.2, 488 487.1 C 484.4 476.8, 484.9 477.4, 479.7 479.4 C 474.3 481.4, 461.2 481.5, 454.6 479.5 C 449.7 478, 447 477.6, 447 478.4 M 496.4 489.1 C 497.6 495, 503.2 499.6, 510.1 500.4 C 521.3 501.5, 532.7 512.4, 531.8 521.2 C 531.5 524.1, 531.8 524.4, 535.9 525.8 C 540.9 527.5, 542 526.7, 542 521.3 C 542 510.1, 534.2 503.6, 504 489.8 C 501.5 488.6, 498.6 487.3, 497.6 486.7 C 495.9 485.9, 495.8 486.1, 496.4 489.1 M 399.6 491.5 C 397.4 492.3, 393.8 493.2, 391.6 493.6 C 385.2 494.6, 384 495.8, 385.3 499.4 C 388.2 507.9, 391.8 510, 403 510 C 407.4 510, 411 509.8, 411 509.5 C 411 509.2, 409.6 506.6, 408 503.6 C 406.3 500.6, 404.6 496.4, 404.2 494.2 L 403.5 490.2 399.6 491.5 M 302 492.8 C 302 493.2, 302.5 494.1, 303.2 494.8 C 306.8 498.4, 303.6 513.5, 298.1 518.4 L 296 520.3 301.4 525.2 C 304.4 527.9, 307.2 530.9, 307.5 532 C 308.3 534.4, 311 534.7, 311 532.4 C 311 530.4, 315.5 522.8, 318 520.5 C 321 517.8, 320.5 515.5, 315.4 507.1 C 309.3 497.2, 302 489.4, 302 492.8 M 441 503.6 C 438.5 505.6, 434 508.8, 431 510.8 C 428 512.7, 425.3 514.4, 425.1 514.6 C 424.9 514.8, 425.6 515.7, 426.6 516.7 C 428.4 518.5, 446.8 519.5, 448.5 517.8 C 449.7 516.6, 448 513.2, 446 512.7 C 443.1 512, 443.5 510, 446.5 510 C 449.3 510, 450 505.8, 448 501.9 C 446.6 499.4, 446.2 499.4, 441 503.6 M 377 505.7 C 377 510.7, 380 517.6, 383.7 521.4 C 388.6 526.3, 387.9 526.7, 392.8 515.8 C 393 515.4, 391.2 514.6, 388.8 513.9 C 384.7 512.7, 380.1 508.8, 380 506.4 C 380 505.8, 379.3 504.7, 378.5 504 C 377.2 502.9, 377 503.2, 377 505.7 M 506 505.4 C 506 506.7, 510.2 517.5, 511.6 519.8 C 511.7 520, 513.3 518.8, 515.1 517 C 517 515.3, 519.7 513.6, 521.2 513.3 C 524.8 512.6, 523.1 509.7, 517.4 507 C 514 505.3, 506 504.2, 506 505.4 M 403.9 516.7 C 402.4 517.1, 402.3 517.4, 403.7 520.2 C 406 524.8, 404.5 528, 398.8 530.9 C 394.3 533.1, 394 533.4, 394 537.2 C 394 541.8, 392.8 544.4, 389.1 547.6 L 386.5 549.9 383 546.4 C 379.7 543.3, 375.4 542, 373.7 543.6 C 373.4 543.9, 376.6 546, 380.8 548.1 C 385 550.3, 389.4 552.7, 390.5 553.5 C 392.4 554.8, 393 554.7, 397.7 551.5 C 408.2 544.4, 414.7 544.6, 427.5 552.4 L 433.4 555.9 435.2 553.2 C 438.3 548.3, 450.8 543, 459.1 543 L 462.2 543 458.6 538.9 C 456.7 536.6, 453.9 532.4, 452.4 529.5 L 449.8 524.2 438.1 523.8 L 426.4 523.5 421.9 519.8 C 417.7 516.3, 416.8 516, 411.4 516.1 C 408.2 516.2, 404.8 516.4, 403.9 516.7 M 546.6 523.6 C 545.8 531, 546.2 532, 548.7 529.7 C 549.7 528.9, 552.7 527.1, 555.4 525.7 L 560.3 523.2 555.4 520.1 C 548.1 515.5, 547.4 515.8, 546.6 523.6 M 495.4 520.9 C 492.7 522.1, 491.1 529.2, 493 531.5 C 496.2 535.4, 511.3 530.4, 509.1 526.2 C 506.6 521.5, 500 519, 495.4 520.9 M 469.2 526.3 C 468.1 527.5, 466.8 529.8, 466.4 531.5 L 465.7 534.4 468.3 532.7 C 471.5 530.6, 482.9 530.3, 484.9 532.3 C 485.9 533.3, 486.1 533.1, 485.8 531.5 C 485.4 528.8, 478.1 524.1, 474.4 524 C 472.5 524, 470.6 524.8, 469.2 526.3 M 288.2 531 C 284.9 538.5, 285.1 539.1, 290.3 536.3 C 292.1 535.4, 295.8 534.3, 298.5 534 L 303.5 533.5 298 529.7 C 291 525, 290.8 525, 288.2 531 M 251.5 528.2 C 247.1 530.6, 245 533.4, 245 536.7 C 245 540.2, 246.8 541.1, 248.9 538.6 C 250.2 537, 258.8 534, 262.2 534 C 264.3 533.9, 264.2 533.6, 260.6 530.5 C 256.4 526.8, 254.7 526.4, 251.5 528.2 M 215.4 530.1 C 213.9 532.4, 214.6 550, 216.5 556.5 C 220.4 570.2, 220.7 570.9, 226.7 584 C 230.3 591.7, 240.4 608.4, 243.3 611.5 C 244 612.2, 247.4 616.2, 250.9 620.3 C 266 638.3, 295.8 659.1, 318.5 667.6 C 321.3 668.6, 324.6 670, 326 670.7 C 327.4 671.4, 329.2 672, 330.1 672 C 331 672, 332 672.3, 332.4 672.7 C 332.8 673.2, 335.3 674, 337.8 674.7 C 340.4 675.3, 345.2 676.6, 348.5 677.5 C 385.2 687.6, 438.7 685.3, 468 672.4 C 488.5 663.4, 503.7 653.7, 516.6 641.3 C 545.3 613.9, 561.8 580.8, 563.7 546.9 C 564.5 532.8, 563.7 528.6, 560.5 529.4 C 556.2 530.5, 551 534.2, 549.4 537.1 C 547.7 540.4, 546.6 540.7, 544.8 538.2 C 541.6 533.9, 537.5 532.6, 527.7 532.9 C 522.9 533, 515.8 539.8, 513.9 546 C 512.3 551.2, 511.2 551.7, 506.4 549.1 C 498.6 544.9, 493.1 547.2, 489.5 556 C 486.8 562.6, 486.5 562.7, 482.1 558.7 C 476.8 553.9, 469.8 551, 461.9 550.3 C 453.6 549.6, 449.4 551.4, 444.3 558.1 C 438.9 565.2, 435 565.7, 427.2 560 C 415.5 551.5, 409.6 551.1, 400.5 557.9 C 393.9 562.9, 391.9 563, 386.6 558.6 C 375 549.1, 366.6 548.7, 353.7 556.7 C 349.4 559.4, 347 559.1, 347 556.1 C 347 551.9, 333.5 545.6, 322 544.5 C 318.4 544.1, 312.2 543.2, 308.1 542.4 C 297.4 540.3, 293.4 541.6, 282.6 550.9 C 280 553.2, 277.7 555, 277.5 555 C 277.3 555, 275.8 552.6, 274.2 549.6 C 269.8 541.9, 266.6 539.7, 261.1 540.4 C 256.8 541, 247 546.3, 247 548.1 C 247 551.3, 243 548.2, 239.5 542.3 C 233.9 533, 229.6 529.7, 222.1 529.2 C 217.9 528.9, 216 529.2, 215.4 530.1 M 511.3 532.7 C 510.1 532.9, 508.6 534.3, 507.9 535.8 L 506.7 538.5 496.6 537.8 C 484.8 536.9, 484.7 536.9, 484.3 545.2 C 483.9 551.4, 484 551.4, 485.4 548.3 C 487.8 543, 491.3 541.5, 500.5 541.6 L 508.5 541.6 511.8 536.8 C 513.5 534.2, 514.7 532.1, 514.3 532.1 C 513.8 532.2, 512.5 532.5, 511.3 532.7 M 346 536.8 C 340.8 541.8, 340.9 542.3, 347.4 545.4 C 353.8 548.4, 355 548.5, 360.7 546.4 C 365.6 544.5, 365.7 544.2, 363.1 539.9 C 358.4 532.2, 352.1 531.1, 346 536.8 M 468.6 539.1 C 465.7 542.5, 465.3 544, 467.3 544 C 467.9 544, 471.4 545.4, 474.8 547 C 482.4 550.6, 482.4 550.6, 480.9 547.9 C 479.8 545.8, 480.1 541.4, 481.5 537.8 C 482.1 536.2, 481.5 536, 476.7 536 C 471.8 536, 470.9 536.3, 468.6 539.1" stroke="none" fill="#1b1f3a" fill-rule="evenodd"/></svg>