<svg xmlns="http://www.w3.org/2000/svg" viewBox="0 0 768 768" version="1.1" preserveAspectRatio="xMidYMid meet"><path d="M 444.3 66 C 445.7 67.1, 447 69.3, 447.2 70.8 C 447.5 73.2, 448 73.5, 451.7 73.8 C 454 74, 456.4 74.8, 457 75.6 C 458.6 77.4, 459.8 77.4, 461.7 75.4 C 464.9 72.2, 474 75.6, 476.2 80.8 C 476.9 82.3, 477.9 84.2, 478.5 85 C 483.6 91.8, 482.5 104, 476.1 112.1 C 473.3 115.5, 473.3 115.7, 475.1 116.8 C 477.2 118.1, 479.3 114.9, 482.5 105.8 C 488.2 89.5, 475.7 69.4, 462.1 72.9 C 458.1 73.9, 456.9 73.8, 454.4 72.5 C 452.8 71.7, 450.9 71, 450.3 71 C 449.6 71, 449 70.4, 449 69.6 C 449 68.1, 444.4 64, 442.7 64 C 442.2 64, 442.9 64.9, 444.3 66 M 189 78.9 C 189 79.3, 191.1 80, 193.8 80.3 C 199.1 80.9, 206 87.2, 206 91.6 C 206 94.7, 207.7 95.5, 210 93.5 C 215.6 88.4, 226.4 91.4, 235.7 100.6 C 241.8 106.6, 244.3 113.5, 244.4 124.1 C 244.5 129, 244.8 130.6, 245.8 130.3 C 247.3 129.7, 247.3 128.7, 245.6 117.5 C 243.9 106.6, 241.8 102.7, 234.2 96.8 C 224.5 89.3, 216.9 87.1, 212.4 90.5 C 209.6 92.7, 208.4 92.3, 207 89 C 205.5 85.4, 201.1 81.5, 196.3 79.5 C 192.3 77.8, 189 77.6, 189 78.9 M 376 80.7 C 373.6 81.6, 366.8 89.2, 365.8 92.2 C 364.8 95, 362.5 96, 361.8 93.9 C 361.6 93.3, 359.4 92.6, 357 92.3 C 351.8 91.7, 345.5 95.5, 343.1 100.6 C 342.4 102.2, 341.4 104.3, 340.9 105.3 C 340.2 106.6, 340.4 107, 342 107 C 343.5 107, 344 106.3, 344 104.3 C 344 102.7, 345.3 100, 346.9 98.1 C 349.5 94.9, 350.2 94.6, 355.3 94.6 C 359.8 94.5, 361.2 94.9, 362.5 96.5 C 363.5 97.8, 364.3 98.1, 364.6 97.3 C 365.8 94.4, 372.8 85.5, 375.1 83.7 C 376.7 82.5, 379.7 81.7, 382.9 81.5 C 385.8 81.4, 388.4 81, 388.7 80.6 C 389.5 79.9, 378.1 79.9, 376 80.7 M 499.4 158.7 C 498.3 158.9, 496.6 160.4, 495.7 161.9 C 493.2 166.1, 493.6 166.7, 496.8 163.8 C 501.2 159.7, 503 159.1, 508.5 160.1 C 516 161.5, 522.8 169.8, 520.1 174.3 C 519.1 175.8, 519.5 176, 524.5 176 C 534.8 176, 542.4 183.1, 538.3 188.9 C 537.1 190.8, 537.1 191, 538.4 191 C 541.3 191, 542.2 187.3, 540.3 183.2 C 537.4 176.9, 533 174, 526.6 174 C 522.2 174, 522.2 174, 521.5 170 C 520 161.3, 510.6 156.5, 499.4 158.7 M 206.6 161.7 C 207.4 165.8, 203.6 167.3, 194.3 166.7 C 190.6 166.4, 178.7 165.7, 168 165.1 C 155.6 164.4, 147.1 163.4, 144.7 162.5 C 142.3 161.5, 138 161.1, 132.2 161.2 C 127.4 161.3, 125.5 161.5, 128 161.7 C 135.8 162.3, 145.4 164.1, 146.8 165.3 C 147.6 165.9, 155.2 166.7, 165.3 167.2 C 174.8 167.6, 186.8 168.2, 192 168.6 C 200.3 169.1, 202 169, 205 167.3 C 208.9 165.1, 209.9 162, 207.5 160 C 206.2 158.9, 206.1 159.1, 206.6 161.7 M 426.2 183.6 C 425 184.4, 424 185.8, 424 186.7 C 424 188.2, 424.2 188.2, 425.8 186.7 C 428.5 184.2, 430.3 184.6, 433.5 188.2 C 436.2 191.2, 436.2 191.4, 434.5 192.7 C 433.4 193.4, 433 194, 433.5 194 C 435.1 194, 430.6 196.9, 428.9 197 C 428.1 197, 426.4 197.9, 425.1 199.1 C 422.8 201.2, 419 201.4, 414.6 199.5 C 413.2 198.9, 412.9 199, 413.4 199.8 C 413.9 200.6, 413.1 201, 411.1 201 C 409.4 201, 408 200.6, 408 200 C 408 199.5, 407.3 199, 406.4 199 C 405.6 199, 405.1 199.4, 405.4 199.9 C 405.7 200.3, 403.4 200.8, 400.4 200.9 C 395.5 201, 394.7 200.7, 394.3 198.9 C 393.8 197.1, 393.2 196.9, 389.9 197.4 C 387.5 197.8, 386 197.6, 386 197 C 386 196.5, 386.7 196, 387.5 196 C 390.9 196, 388.7 194.2, 384.8 193.8 C 379.2 193.2, 382.8 188.3, 355.2 235 C 344.1 253.9, 343.3 254.9, 330.6 267.6 C 318.1 280.1, 304.7 291, 284.8 304.8 C 276.7 310.4, 272.5 313.7, 256.1 327.4 C 248.5 333.7, 247.9 334.2, 238.5 341.5 C 223.6 353.2, 210.4 362.8, 206.2 364.9 L 202.2 366.9 199.6 361.4 C 198.2 358.4, 197 355.7, 197 355.4 C 197 355.1, 196.4 353.4, 195.6 351.7 C 194.8 349.9, 192.7 344.2, 191 339 C 186.1 324.4, 182.6 320, 175.9 320 C 173.2 320, 165.5 327.8, 162.5 333.6 C 159.2 339.9, 144.8 363.9, 138.4 373.5 C 135.1 378.5, 130 386.5, 127.1 391.4 C 122.1 399.6, 117.3 406.9, 97.6 436 C 88.7 449.2, 80.6 458, 77.4 458 C 76.2 458, 72.3 456.7, 68.8 455 C 61.8 451.7, 58.5 451.3, 55.6 453.5 C 54.5 454.3, 52.6 455, 51.3 455 C 48.8 455, 38.7 458.2, 33 460.8 C 26.9 463.5, 19.6 466.2, 15.3 467.2 C 13 467.7, 10.6 468.8, 9.9 469.6 C 7.9 472, 12.8 470.7, 24.2 465.6 C 26.2 464.7, 28.4 464, 29.2 464 C 29.9 464, 31.7 463.4, 33.2 462.6 C 34.7 461.8, 37.4 460.9, 39.2 460.5 C 41 460.1, 43 459.4, 43.5 458.9 C 44.1 458.5, 47 457.8, 49.9 457.4 C 54.8 456.8, 55.3 456.9, 54.7 458.4 C 54.3 459.4, 54 460.8, 54 461.5 C 54 462.3, 52.1 463.8, 49.8 464.8 C 44.6 467.1, 42.9 469, 43.2 472 C 43.5 474, 42.8 474.6, 38.3 475.9 C 31.3 478.1, 30.3 479.4, 36.5 478.5 C 44 477.4, 47.3 475.5, 45.9 472.9 C 44.4 470.1, 46.9 467.4, 51.9 466.6 C 55.5 466.1, 55.7 465.8, 57 460.5 C 58 456.4, 58.8 455, 60.1 455 C 62 455, 72 459.9, 72 460.9 C 72 461.3, 73.8 461.5, 75.9 461.5 C 78.4 461.5, 80.6 462.3, 81.9 463.4 C 83.1 464.5, 84.3 465, 84.6 464.7 C 87.1 462.2, 91.7 469.5, 89.3 472.2 C 87.2 474.5, 89.3 475.3, 91.6 473 C 95.3 469.3, 96.2 467.8, 95.4 467 C 93.9 465.6, 87 462, 85.7 462 C 81.8 461.9, 81.5 460, 85.2 457 C 87.2 455.4, 90.9 451.2, 93.4 447.7 C 95.9 444.3, 98.4 441.1, 98.8 440.5 C 100 438.9, 120.2 408.3, 125.2 400.5 C 138.7 379.3, 146.8 366.2, 159.1 345.5 C 168.5 329.7, 171.5 325.3, 174.2 323.9 C 178.8 321.4, 182.9 326.3, 186.9 339 C 188.2 343.1, 190.1 348.1, 191.1 350.1 C 192.1 352.1, 194.7 358.5, 196.9 364.2 C 199 370, 201.9 376.5, 203.3 378.6 C 205.6 382.2, 215.2 392, 216.5 392 C 217.3 392, 215.1 388, 213.2 385.7 C 211.4 383.7, 211.1 384, 219.6 378.4 C 227.5 373.2, 229.3 373, 232.7 377 C 234 378.7, 236 380, 237 380 C 238.7 380, 238.6 379.7, 236.5 377.5 C 232.8 373.9, 233.4 373.2, 240.3 373.7 C 244.8 374, 247.6 374.9, 250.5 376.8 C 256 380.4, 258.2 381.6, 261.2 382.3 C 264.3 383.1, 276.2 395.6, 279 401 C 281.9 406.6, 282.9 416.9, 280.6 418.2 C 278.9 419.2, 276 425.1, 276 427.9 C 275.9 433, 260.6 443.5, 247.5 447.5 C 241.5 449.3, 229.1 449.5, 225.5 447.8 C 223.3 446.8, 222.9 446.1, 223.2 443.1 L 223.5 439.5 229.5 438.9 C 239.5 438, 243 435, 234.3 435 C 229 435, 226.7 434, 227.2 431.9 C 227.4 431, 226.1 430.4, 223 430 C 218.9 429.5, 212.6 426.4, 207.8 422.7 C 205.8 421.1, 205.4 418.5, 207.1 417.4 C 208.9 416.3, 214 407.7, 214 405.8 C 214 403, 212.1 403.7, 210.2 407.3 C 208.1 411.3, 200.4 419, 198.5 419 C 197.6 419, 197.3 419.6, 197.6 420.5 C 198 421.3, 199 422, 199.9 422 C 200.8 422, 204.9 425.1, 209 428.9 L 216.3 435.8 215.7 443.2 C 214.8 455.2, 208.4 473.6, 200.2 487.3 C 197.2 492.4, 191.8 502.1, 188.2 509 C 184.6 515.8, 179.6 523.7, 177 526.5 C 170 534.2, 168 537.5, 166 544.3 C 165 547.7, 163.4 552.1, 162.3 554 C 161.1 556.5, 160.5 559.4, 160.7 563.7 C 160.8 569.7, 161 570.1, 165.1 574 C 170.2 578.7, 170.8 578.8, 171.6 575.5 C 172.2 573.1, 172.3 573.1, 174.2 577.2 C 181.4 592.5, 185.1 599, 189.2 603.5 L 194 608.7 175 608.9 C 164.5 609, 155.3 609.3, 154.6 609.6 C 153.8 609.9, 152.3 608.4, 150.7 605.8 C 147.9 601, 138.5 592, 136.3 592 C 133.4 592, 131 594.1, 131 596.5 C 131 597.9, 131.5 599, 132.1 599 C 132.7 599, 133 598.4, 132.7 597.6 C 132 595.8, 133.8 595.1, 137.3 595.7 C 139.9 596.2, 141.3 599.3, 138.8 598.9 C 138.1 598.8, 136.6 598.8, 135.5 598.9 C 133.5 599.1, 133.5 599.1, 135.5 600.6 C 136.6 601.4, 138.6 601.9, 140 601.7 C 141.4 601.5, 141.9 601.5, 141.1 601.8 C 140.1 602.1, 140.9 603.2, 143.6 605.5 C 145.7 607.3, 147.2 609.1, 146.8 609.5 C 146.4 610, 145.3 609.7, 144.5 609 C 143.2 607.9, 142.4 607.9, 140.2 609 C 138.3 609.9, 129.6 610.4, 110.6 610.8 C 83.4 611.3, 79.9 610.8, 88.8 607.9 C 90.8 607.2, 94.2 605.6, 96.2 604.3 C 98.3 603.1, 101 602, 102.3 602 C 105.1 602, 107 600.3, 107 597.6 C 107 595.7, 106.9 595.7, 105 597.8 C 103.8 599, 102 600, 100.8 600 C 99.6 600, 97.9 600.7, 96.9 601.6 C 95.1 603.2, 85 607.4, 85 606.4 C 85 604.8, 90.5 599, 92.1 599 C 93.3 599, 94 598.3, 94 597.1 C 94 596.1, 95.1 594.4, 96.5 593.4 C 99.3 591.3, 99.7 590, 97.6 590 C 96.7 590, 96.4 589.3, 96.7 588 C 97.5 585, 104 583.3, 108 585 C 110.5 586, 111.4 586, 111.9 585.1 C 112.3 584.4, 113.4 584.2, 114.5 584.6 C 115.8 585.1, 116.1 584.9, 115.8 583.9 C 115.5 582.9, 113.3 582.4, 108.6 582.2 C 100.2 581.9, 96.1 583.4, 95.3 587.2 C 94.6 590.8, 93.4 591.6, 88 592.4 C 83.6 593.1, 83.5 593.1, 85.6 591.3 C 87.2 590, 87.6 588.9, 87 587.5 C 86.3 585.6, 86.3 585.6, 85.6 587.7 C 84.9 589.9, 80.6 591.9, 79.4 590.7 C 79.1 590.4, 79.6 588.8, 80.6 587.1 C 82.7 583.6, 86.1 583, 89.7 585.5 C 92.3 587.3, 95 586.5, 95 583.8 C 95 582.1, 94.8 582, 93.4 583 C 92.1 584.1, 91.8 584, 91.3 582.2 C 90.7 579.7, 90.9 579.7, 87.7 580.9 C 85.7 581.7, 84.7 581.5, 82.9 579.9 C 80.3 577.7, 77 577.4, 77 579.4 C 77 580.2, 76.5 581.2, 75.9 581.6 C 75.2 582, 75 581.6, 75.4 580.2 C 76 578.4, 73.9 576, 71.8 576 C 71.6 576, 71.7 583.9, 71.8 593.5 L 72.2 611 68.4 611 L 64.7 611 65.4 603.3 C 66.9 584.2, 67.3 572.7, 66.3 573.3 C 65.8 573.7, 65 581.6, 64.6 591.6 C 64.2 601.3, 63.7 609.7, 63.4 610.2 C 63.1 610.6, 61.3 611, 59.4 611 C 55.6 611, 54.7 608.1, 57.5 604.4 C 58.9 602.6, 58.9 602.6, 59 605.4 C 59 607, 59.3 608, 59.7 607.7 C 60.4 606.9, 60.1 569.5, 59.3 567.4 C 59 566.5, 59.3 566.2, 60.2 566.5 C 61.4 567, 61.8 565.7, 62.3 560.3 C 63.2 551.2, 63 532, 62.1 529.6 C 60.6 525.7, 59.8 530.1, 60 541.3 C 60.4 559, 60.1 565, 58.9 562.1 C 57.4 558.3, 53.9 553.9, 52.9 554.6 C 52.4 554.9, 51.3 554.4, 50.4 553.6 C 48.7 551.8, 46 551.5, 46 552.9 C 46 553.4, 46.9 554.1, 47.9 554.5 C 49.8 555.1, 51.7 558, 50.2 558 C 49.7 558, 47.5 556.6, 45.2 554.9 C 42.8 553.2, 40.7 552, 40.3 552.3 C 39.7 553, 41.6 555.1, 44.5 556.9 C 46.2 557.9, 45.8 558.1, 41.6 557.7 C 37.4 557.3, 36.7 557.5, 36.3 559.1 C 35.8 561, 35.7 561, 33.8 559.4 C 32.1 557.8, 31.8 557.8, 30.4 559.2 C 28.7 560.8, 29.7 567.8, 31.6 567.2 C 32.7 566.8, 32.2 563, 30.8 561.3 C 29.5 559.7, 31.2 559.6, 32.7 561.1 C 33.3 561.7, 33.6 562.8, 33.4 563.5 C 33.1 564.2, 33.6 565, 34.4 565.3 C 35.3 565.7, 36 565.5, 36 565 C 36 564.4, 36.6 564, 37.4 564 C 38.3 564, 38.6 563.3, 38.3 562 C 37.8 560.3, 38.3 560, 40.9 560 C 46.3 560, 48 562.8, 48 571.8 L 48 579.5 44.9 579.7 C 42.6 579.9, 41.9 579.6, 42.4 578.5 C 43.1 576.5, 41.2 575.6, 39.4 577.1 C 38 578.2, 38.1 578.5, 39.7 579.4 C 41.3 580.3, 41.3 580.4, 39.1 581 C 36.8 581.5, 36.8 581.6, 38.5 583.3 C 40.2 585, 40.3 585, 42.2 583.1 C 43.2 581.9, 44.9 581, 45.9 581 C 47.5 581, 47.7 582.1, 47.6 591.9 L 47.5 602.8 44.7 600.6 C 40.1 597.2, 33.6 593, 32.8 593 C 30.9 593, 32.4 594.7, 36 596.8 C 38.2 598, 40 599.7, 40 600.6 C 40 601.4, 40.5 601.8, 41.1 601.5 C 42.1 600.8, 48 605.6, 48 607.1 C 48 607.5, 47.2 608.1, 46.3 608.3 C 45.2 608.6, 45.6 608.8, 47.3 608.9 C 48.8 608.9, 50 609.5, 50 610 C 50 610.6, 41 611, 25 611 C 4.5 611, 0 611.2, 0 612.4 C 0 614, 148.8 613.8, 177.4 612.1 C 195.8 611, 197 611.2, 197 615.9 C 197 618.9, 200.2 626.4, 201.9 627.4 C 202.5 627.8, 202.8 628.6, 202.4 629.1 C 202.1 629.6, 202.3 630.7, 203 631.5 C 203.9 632.5, 203.8 633.4, 202.6 635.3 C 201.7 636.6, 200.6 641, 200 645.1 C 198.7 655.4, 197.8 657.8, 193.1 664.7 C 187.2 673.3, 186.8 676.2, 191.3 678.3 C 193.2 679.3, 195.8 680, 197 680 C 198.2 680, 199.9 680.4, 200.9 681 C 203.6 682.4, 229.6 683.2, 234 682 C 242.2 679.8, 243.5 674.5, 240 657.5 C 238.5 650.6, 238.2 647.4, 239 646.6 C 240.9 644.7, 265 643.1, 265 644.9 C 265 645.4, 263.4 648, 261.5 650.6 C 256.8 657.2, 249 670.2, 249 671.5 C 249 672, 249.8 673.5, 250.8 674.7 C 253.3 678, 276.6 683.5, 286.5 683.2 C 287.6 683.1, 292.2 683.6, 296.7 684.2 C 302.8 685, 306.4 685, 310.2 684.2 C 313.1 683.6, 317.4 682.8, 319.7 682.5 C 326.9 681.4, 329 678.4, 329 669.5 C 329 665, 328.4 660.5, 327.5 658.3 C 325.1 652.5, 325.3 652.3, 333.2 651.8 C 337.6 651.6, 340.5 650.9, 340.8 650.2 C 341 649.5, 342.5 649, 344.1 649 C 345.8 649, 348 648.5, 349.2 647.9 C 350.3 647.3, 351.4 647.1, 351.7 647.3 C 352.3 648, 349.7 652.9, 347.1 655.9 C 345.9 657.3, 345 659.7, 345 661.6 C 345 664.6, 345.3 665, 348.3 665.4 C 350 665.6, 354.7 666.4, 358.7 667 C 366.6 668.3, 375.9 667.6, 380.3 665.3 C 383.5 663.7, 383.9 659.8, 381.5 650.7 C 378.9 640.6, 379.1 640.1, 385.3 640.7 C 388.1 640.9, 391.6 640.7, 393 640.2 C 394.9 639.5, 396.4 639.7, 399.3 641.2 C 403.1 643.1, 409.4 643.9, 410.7 642.6 C 411.1 642.2, 409.6 640.2, 407.4 638.1 C 399.4 630.6, 398 628, 399.2 623.2 C 400.3 618.9, 400.7 618.6, 405 620 C 407.4 620.8, 407.4 620.8, 405.3 620.9 C 404 621, 403 621.5, 403 622 C 403 623.9, 412.8 623.6, 414.8 621.6 C 416.5 619.9, 415.2 616.7, 413.1 617.6 C 410.8 618.5, 409 618.5, 405.3 617.6 C 401.3 616.7, 401.2 615.8, 404.6 613.5 C 406.5 612.3, 406.9 611.6, 406 611 C 405.3 610.6, 405 609.8, 405.4 609.2 C 406.5 607.3, 429 628.7, 429 631.7 C 429 632.5, 427.5 635.1, 425.6 637.5 C 423.7 640, 422 643.7, 421.6 646 C 421.2 648.8, 419.8 651.2, 417.5 653.6 C 415.6 655.5, 414 657.9, 414 659 C 414 661.4, 420.8 667, 423.8 667 C 425 667, 427.4 667.9, 428.9 669.1 C 431.5 671, 433.2 671.2, 454.1 671.5 C 467.9 671.6, 480.9 672.4, 488 673.4 C 510.9 676.6, 523.4 674.7, 533.5 666.5 L 536.4 664.1 533.5 663 C 530.3 661.8, 528.1 659.1, 526.3 654.3 C 525.3 651.5, 525.4 650.5, 527.6 646 C 529.2 642.6, 530.1 639, 530.2 635 L 530.4 629 534 629 C 538.7 629, 550.9 640.2, 551.2 644.7 C 551.6 652.3, 550.6 654.2, 543.7 659.5 C 539 663.1, 537.7 666.5, 539.8 669.6 C 540.5 670.8, 552.8 672.3, 562 672.4 C 565 672.5, 567.8 672.9, 568.1 673.3 C 568.9 674.4, 581.5 674.5, 585.8 673.5 C 587.6 673.1, 590.3 671.6, 591.9 670.1 C 594.4 667.7, 595.5 667.5, 604.1 667.2 C 613.8 666.9, 623.3 665.3, 622.6 664.1 C 622.3 663.7, 618.6 663.8, 614.3 664.1 C 599.5 665.5, 595.3 665.2, 594.7 663 C 594.3 661.5, 594.7 661, 596.1 661 C 598.1 661, 598.7 659.5, 597.1 658.6 C 596.6 658.3, 595.8 656.7, 595.2 655.2 L 594.3 652.4 600.9 652.8 C 604.5 653, 610.1 654.1, 613.4 655.2 C 621.3 657.8, 621.5 656.9, 613.8 653.1 C 608.6 650.5, 606.2 649.9, 600.2 649.8 C 593.2 649.7, 593 649.6, 593 647.2 L 593 644.7 603.1 645.5 C 610.5 646, 613.1 645.9, 612.8 645 C 612.6 644.4, 609 643.7, 604 643.4 C 595.6 642.9, 590.9 642.4, 590.6 641.8 C 590.6 641.6, 589.8 639.9, 588.8 638 C 585.7 631.4, 585.8 631.2, 591.2 633.9 C 597.3 636.9, 614.9 639, 636.5 639.4 C 697.7 640.4, 718.9 641.6, 740.2 645.2 C 743.9 645.8, 747.6 645.9, 748.7 645.5 C 750.1 644.8, 749.3 644.5, 745.5 643.9 C 718.4 639.9, 710.4 639.2, 687.1 638.6 C 673.2 638.2, 656.1 637.3, 649 636.5 C 642 635.7, 628 634.5, 617.9 634 C 595.9 632.8, 586.1 630.7, 587.4 627.4 C 587.6 626.8, 588.4 624.2, 589.1 621.9 C 592.6 610, 600.9 600, 604.7 603.1 C 606.6 604.8, 609.6 603.4, 608 601.6 C 607.1 600.4, 607.6 599.4, 610.8 596.6 C 612.9 594.6, 616 591.2, 617.5 589 C 620.1 585.2, 623.2 583.9, 624.4 585.9 C 625.3 587.3, 624 589.9, 622 590.5 C 618.7 591.6, 618.8 599, 622.2 599 C 623.1 599, 623.1 598.7, 622.2 597.8 C 620.5 596.1, 620.6 595.8, 624.5 591.6 L 627.9 587.8 630.4 590.7 L 632.9 593.5 636.7 591.5 C 638.7 590.4, 641.3 588.7, 642.2 587.8 C 643.2 586.8, 644 586.3, 644 586.7 C 644 587.1, 646.4 585.2, 649.3 582.4 C 653.2 578.6, 656.1 576.8, 661 575.2 C 667.4 573.2, 673 572.6, 673 574 C 673 574.3, 674.3 574.5, 676 574.2 C 678.1 573.9, 679.2 574.2, 679.6 575.4 C 680.6 578.1, 682.2 577.2, 681.6 574.3 C 680.4 567.6, 679.8 550.5, 680.9 551.6 C 681.5 552.1, 682.3 557.9, 682.8 564.5 C 683.2 571.3, 684 576.5, 684.6 576.7 C 685.8 577.1, 685.4 566.1, 683.9 561.6 C 683.4 560, 683 556.6, 683 554 C 683 551.5, 682.4 547.1, 681.6 544.4 C 680 538.9, 679 530.4, 679.8 529.5 C 680.1 529.3, 680.9 529.5, 681.7 530.1 C 682.7 531, 683 530.9, 683 529.7 C 683 528.7, 683.6 528.3, 684.5 528.6 C 686.4 529.4, 686.6 525.7, 684.7 524.1 C 683.7 523.3, 682.8 523.4, 681.5 524.4 C 680.4 525.2, 679 525.6, 678.3 525.3 C 677.6 525, 677 525.3, 677 525.9 C 677 526.5, 676.5 527, 675.9 527 C 675.3 527, 675 526.3, 675.3 525.5 C 676.3 523, 674.4 523, 672 525.5 L 669.7 528 672.9 529.1 C 677 530.5, 677.6 531.9, 678.5 541.3 L 679.2 549 676.2 549 C 671.8 549, 665.5 552.1, 657.4 558.1 C 653.5 561.1, 648.3 564.7, 645.9 566.2 C 639.8 570.1, 631.4 576.2, 628.2 579.3 C 625.6 581.7, 625.4 581.8, 622.6 580.3 L 619.7 578.8 622.5 576.6 C 627.4 572.7, 622.9 570.8, 615.4 573.7 C 614.4 574.1, 614 573.5, 614 571.6 C 614 568.5, 612.7 568.3, 610.1 571.1 C 608.1 573.3, 607.6 573, 606.6 568.8 C 606.3 567.2, 605.5 566, 605 566 C 604.4 566, 604 564, 604 561.5 C 604 556, 602.5 555.7, 598.7 560.5 C 595.3 564.8, 592.9 564.9, 591.2 561 C 590.4 559.4, 589.2 558, 588.4 558 C 587.5 558, 585.7 556.7, 584.3 555 C 581.4 551.5, 579.8 551.3, 576.1 554 C 574.3 555.2, 572.5 555.7, 570.9 555.3 C 567.6 554.5, 562 550.2, 562 548.4 C 562 547.7, 561.6 547, 561 547 C 559.4 547, 559.9 549.2, 562.8 554.6 C 565.5 559.5, 565.6 559.6, 569.8 559.4 C 574.3 559.2, 576.7 561.3, 574 563 C 572.6 563.9, 572.5 563.8, 589 568 C 597 570.1, 605 573.6, 605 575 C 605 576, 600.2 578, 597.7 578 C 595.2 578, 587.9 572.5, 588.3 570.8 C 588.4 570.2, 584.3 568.7, 578.5 567.5 C 573 566.2, 567.8 565, 567 564.7 C 566.2 564.4, 561 563.2, 555.5 562 C 546 559.9, 536.9 557.1, 532.9 555 C 531.5 554.2, 531.3 553.4, 532 550.9 C 533.9 544.5, 540 543.9, 540 550 C 540 551.7, 540.5 553, 541 553 C 541.6 553, 542 552.3, 542 551.5 C 542 550.7, 542.5 550, 543 550 C 543.6 550, 544 550.9, 544 552 C 544 553.1, 544.7 554, 545.5 554 C 546.4 554, 547 553.1, 547 551.5 C 547 548.7, 551.1 538, 552.2 538 C 554.1 538, 555.4 543, 555.1 549.3 C 554.9 555, 555.2 556.4, 556.7 557.6 C 559.5 559.7, 559.7 559.5, 559.4 551.5 C 559.3 545.2, 558.8 543.3, 556.6 540 C 553.6 535.4, 552.5 535.1, 549.9 538.3 C 548.3 540.2, 548.1 540.2, 548 538.8 C 548 536, 546.1 536.7, 545.4 539.8 C 544 546.3, 544 546.3, 542.1 544.6 C 540 542.7, 538.7 542.6, 534.2 544.2 C 531.3 545.3, 530.7 545.2, 529.5 543.7 C 527.4 540.8, 526.7 541.8, 527.2 547 C 527.5 549.8, 527.5 552, 527.3 552 C 525.8 552, 518 547.3, 518 546.3 C 518 544.7, 522.9 541, 525.1 541 C 526.2 541, 527 540.6, 527 540 C 527 538.5, 524.1 538.8, 518.7 540.7 C 515.7 541.8, 514.1 542.9, 514.4 543.7 C 515.1 545.4, 515.1 545.4, 509.6 543 C 504.9 540.9, 503.4 538, 507 538 C 508.3 538, 509 538.7, 509 540 C 509 542.1, 510.5 542.7, 511.5 541 C 513.3 538, 508 532.9, 505.4 535.1 C 504.3 536, 503.7 536, 502.5 535 C 501.7 534.3, 500 534, 498.8 534.3 C 497.5 534.7, 495.6 534.1, 493.8 532.8 C 489.6 529.8, 483.3 529.2, 481.5 531.6 C 480.6 532.9, 480.5 533.9, 481.1 534.7 C 481.8 535.4, 481.7 536.1, 481 536.5 C 480.3 536.9, 479.6 536.4, 479.4 535.3 C 478.2 530.9, 471.1 528.8, 467 531.7 C 465.3 532.9, 464.5 533, 464.2 532.2 C 463.7 530.5, 461 530.7, 461 532.5 C 461 533.7, 460.4 533.9, 458.3 533.3 C 456.7 532.8, 453.5 532.6, 451 532.7 C 447.6 532.9, 446 532.4, 444.2 530.7 L 441.8 528.5 442.5 531 C 442.9 532.4, 443.5 534.1, 443.7 534.8 C 444 535.5, 443.4 536, 442.2 536 C 439.6 536, 435.9 531.4, 436.7 529.2 C 437.6 526.6, 439.1 525, 440.1 525.6 C 440.6 525.9, 441 525.4, 441 524.6 C 441 522.3, 439 521.7, 437.1 523.4 C 432.3 527.8, 431 523.3, 431.1 501.4 C 431.2 485.4, 431 482.8, 429.4 479.9 C 426.6 474.8, 424.9 473, 422.8 473 C 421.6 473, 420.4 471.7, 419.4 469.1 C 416.9 462.7, 411.2 460.2, 404.7 462.5 C 401.4 463.6, 400.3 463.6, 397.4 462.4 C 387.9 458.4, 363.1 462, 356.3 468.4 C 354.5 470, 353 471.8, 353 472.2 C 353 473.6, 355.7 473.1, 357 471.5 C 357.7 470.7, 359.1 470, 360.1 470 C 361.2 470, 362 469.3, 362 468.5 C 362 466.7, 362.5 466.6, 365 468.2 C 366.5 469.2, 367.2 469.1, 368.9 467.6 C 370 466.6, 371.4 466.1, 372.1 466.5 C 372.8 467, 371.4 468.4, 368.4 470.2 C 365.7 471.9, 362 474.6, 360.3 476.3 C 356.6 479.8, 355 479.4, 357.5 475.6 C 359.8 472.2, 358.7 472.3, 355.3 475.9 C 349.5 481.8, 345.8 482.6, 334 480.7 C 331.8 480.4, 326 482.9, 319 487.2 C 317 488.5, 314 493.7, 314 495.9 C 314 496.5, 314.9 497, 316.1 497 C 317.7 497, 318 496.6, 317.6 495.3 C 317.2 494.4, 317.5 493.3, 318.2 492.9 C 318.9 492.4, 319.6 491.6, 319.6 491 C 319.7 490.5, 319.8 489.6, 319.9 489 C 319.9 488.5, 321.3 488, 323 488 C 325.2 488, 325.8 487.6, 325.4 486.5 C 324.9 485.4, 325.5 485, 327.3 485 C 328.7 485, 330.2 484.6, 330.5 484 C 331.5 482.3, 334.9 482.9, 336.7 485 C 337.7 486.1, 339 487, 339.7 487 C 341.6 487, 359.4 480.9, 360.8 479.8 C 362.3 478.5, 362.4 480.2, 360.9 481.7 C 360.3 482.3, 359.6 486.1, 359.3 490.3 C 358.8 497.4, 358.9 498, 361.3 500.4 C 365 504.1, 366.7 503.6, 363.5 499.8 C 358.8 494.3, 361.4 480.2, 368 474.7 C 374.9 468.8, 381.8 470.5, 387.6 479.6 C 391.1 485, 393.2 486, 393.8 482.7 C 394 481.7, 393.1 480.6, 391.6 479.9 C 387.8 478.2, 388.3 475.2, 392.5 473.4 C 398.2 471, 396.5 469.1, 388 468.4 C 381.1 467.8, 378.6 467, 379.7 465.9 C 381.2 464.4, 390.8 463.6, 393.3 464.8 C 399.5 467.7, 402 468.2, 403.4 467.1 C 407.7 463.5, 415.3 466.8, 417 473 C 417.9 476.4, 418.4 476.9, 420.3 476.5 C 422.1 476, 423 476.7, 425.3 480.2 C 427.9 484.3, 428 484.8, 427.4 494 C 427.1 499.2, 426.6 505.3, 426.3 507.5 C 424.4 520.4, 426.1 530.3, 432.2 541.8 C 435.9 548.9, 437.6 550.8, 439 549.4 C 439.7 548.7, 439.5 547.6, 438.2 545.9 C 434 540.6, 427.4 525.2, 428.2 522.8 C 428.4 522.2, 429.2 523.2, 429.9 525.1 C 433.1 533.7, 434.6 536.3, 437.2 538.5 C 440.8 541.5, 450.4 544.3, 455 543.7 C 472 541.3, 476.6 540.9, 485 541.5 C 495.9 542.2, 499.9 543.4, 512.8 549.7 L 522 554.3 522 559.6 C 522 562.5, 522.4 567.1, 522.9 569.7 C 523.5 572.3, 524.2 576.6, 524.5 579.3 C 524.8 581.9, 525.5 584, 526.1 584 C 527.5 584, 527.2 578.2, 525.5 571.5 C 524.5 568, 524.2 564.5, 524.6 563 C 525.1 561.6, 525.4 560.1, 525.5 559.5 C 525.5 559, 525.8 558.3, 526 558.1 C 526.6 557.6, 534 559.9, 535.5 561 C 537.9 562.7, 550.1 565.8, 565.5 568.5 C 585.4 571.9, 590 573.7, 590 577.8 C 590 579.1, 589.6 579.9, 589 579.5 C 588.4 579.1, 586.4 580, 584.5 581.4 C 580.3 584.6, 580 584.6, 580 581.5 C 580 578.5, 578.9 578.3, 577.2 581.1 C 576.2 582.7, 576.2 583.5, 577.1 584.6 C 578 585.8, 576.8 587.6, 570.3 594.8 C 562 603.9, 554.4 609.2, 545.4 612.2 C 540.7 613.8, 526.7 617.1, 526.4 616.7 C 526.3 616.6, 526.8 614.7, 527.5 612.5 C 529.7 605.7, 530.1 601, 528.4 601 C 527.6 601, 527 601.8, 527 602.8 C 527 603.7, 525.6 608.1, 524 612.5 C 520.3 622.4, 520.3 622.7, 524 627.6 C 529.4 634.8, 527.6 644, 520.7 644 C 517.8 644, 517.3 644.9, 519.1 646.7 C 520 647.6, 520.6 647.5, 521.7 646.4 C 524.3 643.9, 525.1 644.8, 524.4 649.8 C 523.9 653.7, 524.2 655.3, 526.4 659.5 L 529.1 664.4 526.8 666.2 C 524.7 667.7, 517.7 670, 515.1 670 C 514.5 670, 514 669.2, 514 668.3 C 513.9 663.6, 509.2 661.3, 504.4 663.6 C 501.3 665.1, 500.9 665.1, 499.5 663.6 C 497.5 661.6, 497 661.6, 494.2 663.6 C 491.8 665.3, 491.3 667.6, 493.3 668.3 C 493.9 668.5, 494.2 669.1, 493.8 669.5 C 493 670.4, 490 668.3, 490 666.8 C 490 665.2, 497.4 656.1, 498.7 656 C 500.4 656, 502.7 652.3, 505.1 646.1 C 507.2 640.5, 506.6 637.4, 502.8 633.3 C 500.5 630.8, 501.5 630.2, 504.4 632.3 C 506.6 633.9, 516 632.3, 516 630.4 C 516 629.4, 515.2 629.4, 512.8 630.2 C 511 630.7, 508.7 631.4, 507.6 631.7 C 506.3 632.1, 505.9 631.9, 506.2 630.9 C 506.4 630.2, 508 629.2, 509.7 628.8 C 511.4 628.4, 513 627.3, 513.4 626.5 C 514.1 624.6, 513.7 624.6, 508.8 627 C 503.6 629.5, 501.8 629.5, 499.5 627 C 497.8 625.2, 498.1 624.5, 500.4 624.9 C 502 625.2, 507 622.8, 506.5 622 C 506.2 621.6, 503.8 621.4, 501 621.5 C 498.3 621.7, 496 621.5, 496 621 C 496 620.6, 495.8 619.5, 495.4 618.7 C 495.1 617.7, 495.8 617.1, 497.9 616.7 C 499.6 616.3, 501 615.5, 501 614.9 C 501 613.8, 499.4 614, 495.8 615.5 C 493.3 616.5, 493.5 603.4, 496.2 595.5 C 499.4 586, 500 583.9, 499 584.5 C 498.1 585.1, 497.2 586.9, 493.4 595.5 C 492.3 597.9, 491.4 603.2, 491 609 L 490.5 618.4 486.6 619.2 C 483.1 619.9, 474.3 619, 468.7 617.4 C 466.5 616.7, 466.8 612.4, 469 612.8 C 470.1 613, 470.1 612.7, 468.8 611.7 C 467.7 610.8, 467 608.9, 467 606.7 C 467 602.8, 465.5 598, 464.3 598 C 463.8 598, 463.7 600.8, 463.8 604.2 C 464.3 612.1, 462.3 621.7, 459.7 624.1 C 458.2 625.4, 456.1 626, 452.8 626 C 449.8 626, 448.1 626.4, 448.5 627 C 448.8 627.6, 450.2 628, 451.6 628 C 455.6 628, 455.4 630.4, 451.1 637.1 C 447.6 642.4, 447 644.2, 447.1 648.4 C 447.2 655.1, 448.8 659.4, 448.9 653.2 C 449 648.7, 452.5 640.3, 456 636.1 C 458 633.8, 458.1 633.8, 459.5 635.6 C 461.5 638.2, 461.4 639.3, 458.4 645.3 C 456.7 648.6, 455.6 652.9, 455.3 657.2 C 454.7 664.2, 453.5 665.2, 451.1 660.7 C 448.8 656.4, 440 658.7, 440 663.5 C 440 666.5, 438.6 667.4, 435.4 666.6 C 432.9 665.9, 432.9 665.8, 434.5 663.4 C 436.8 659.8, 432 652.6, 427.8 653.4 C 424.5 654, 424.4 653.4, 426.6 645.9 C 428.5 639.5, 431 635.6, 435.9 631.3 C 439.4 628.2, 439.5 627.9, 439.3 621.5 C 439.1 616.1, 438.6 614.3, 436.5 611.9 C 434.7 609.6, 434 607.7, 434 604.4 C 434 599.6, 432.9 598.7, 431.2 602.3 C 429.4 606, 429.7 595.7, 431.5 591.3 C 433.2 587.3, 432.8 586.1, 430.5 588 C 425.1 592.5, 424.9 598.4, 429.7 608.1 C 431.8 612.2, 433.6 615.9, 433.9 616.4 C 434.1 616.9, 433.5 617, 432.4 616.5 C 431.3 616.1, 428.4 615.2, 425.8 614.5 C 421.9 613.4, 416.6 610.4, 412.5 606.7 C 411.9 606.2, 414.6 606.2, 418.8 606.6 C 429 607.5, 428 605.6, 417.5 604 C 411.8 603.1, 408.5 602.1, 407.4 600.8 C 405.8 599.1, 405.9 599, 411.5 599 C 418.4 599, 418.1 598, 410.9 596.9 C 407.8 596.4, 404.8 595.2, 403.4 593.9 C 400.3 591, 400.4 589.8, 403.5 590.6 C 406.3 591.3, 419.5 590.2, 418.6 589.3 C 418.3 589, 414.8 588.7, 410.8 588.5 C 401.2 588.2, 398.5 587.4, 397.1 584.4 C 396.5 583, 396 581.7, 396 581.5 C 396 581.2, 398.8 581.2, 402.3 581.5 L 408.5 582 401.8 580.2 C 395.5 578.6, 392.1 576.2, 392 573.3 C 392 572.5, 392.7 572.5, 394.9 573.3 C 396.5 573.9, 398.5 574, 399.6 573.5 C 401.3 572.7, 401.3 572.6, 399 572.2 C 395.5 571.6, 391 568.2, 391 566.1 C 391 564.7, 391.6 564.4, 393.5 564.8 C 395 565, 396 564.8, 396 564.1 C 396 563.5, 395.4 563, 394.7 563 C 392.8 563, 389 558.7, 389 556.7 C 389 555.3, 389.4 555.1, 390.8 555.8 C 391.7 556.3, 394 557, 395.8 557.4 C 400.4 558.2, 399.6 555.9, 394.9 554.7 C 391.1 553.8, 388 550.7, 388 547.9 C 388 546.3, 388.4 546.2, 390.6 547 C 394 548.3, 401.1 548.3, 399 547 C 398.2 546.5, 396.5 546, 395.4 546 C 391.8 546, 388.2 542.4, 388.8 539.5 C 389.1 537.5, 389.7 537.1, 390.9 537.6 C 393.7 538.9, 400.7 539.3, 399 538.1 C 398.2 537.5, 396.6 537, 395.4 537 C 391.9 537, 389.6 534.5, 389.3 530.5 C 389.2 527.8, 389.4 527.1, 390.3 527.8 C 392.6 529.6, 399.4 530, 402 528.5 C 404.4 527.1, 404.3 527.1, 399.5 527 C 392.1 527, 384.8 522.1, 390 520.7 C 392.4 520.1, 392.7 518, 390.4 518 C 387.8 518, 389.5 515.6, 392.8 514.6 C 394.8 514, 396.1 512.9, 396.5 511.3 C 397.4 507.7, 396.8 507.6, 391.4 510.5 C 388.4 512.1, 385.2 513, 383 512.9 C 381.1 512.8, 378.9 512.8, 378.3 512.9 C 376.4 513.1, 376.8 516, 378.7 516 C 381.8 516, 378.9 517.4, 368.8 520.7 C 352.3 526.1, 339 524.8, 333 517.4 L 330.7 514.5 331.3 518.3 C 331.6 520.5, 332.4 522.8, 333 523.5 C 334.6 525.4, 342.8 527, 351.3 527 C 357 527.1, 358.1 527.3, 356.6 528.2 C 355.4 528.9, 351.8 529, 346.3 528.6 C 338.1 528, 338 528, 338 530.3 C 338 532.6, 338.4 532.7, 346.4 533.4 C 351 533.7, 355.5 534.2, 356.2 534.5 C 357 534.8, 359.6 533.3, 362.1 531.2 C 366.6 527.2, 369.5 525.6, 378.8 522.1 L 384 520 383.8 538.3 C 383.7 558, 385.5 572, 389.6 581.7 C 390 582.5, 388.4 582.4, 384.3 581.3 C 380.6 580.4, 376.2 580, 372.2 580.3 L 366 580.8 362.2 574.9 C 348.8 553.7, 342.7 544.8, 338.4 540.4 C 328.5 530.3, 303.1 515.3, 295.2 514.9 C 294.3 514.9, 291.7 514, 289.5 512.9 L 285.5 511 294 511.6 C 309.3 512.7, 309.8 512.6, 310.9 510.9 C 312.2 508.7, 309.7 507.5, 308.1 509.4 C 305.9 512, 295.9 508.6, 297.6 505.9 C 298.8 503.9, 295.5 504.1, 293.4 506.1 C 291.2 508.2, 289.9 508.4, 281.7 508.5 C 266.9 508.6, 252.4 509.2, 254.3 509.7 C 256.9 510.4, 256.3 511.7, 252.9 512.9 C 247.9 514.6, 247.8 514.5, 248.4 507.8 C 249.1 500.3, 250.6 493.8, 255.4 476.9 C 257.3 469.9, 259.3 460.8, 259.9 456.6 C 260.9 448, 261.3 447.3, 266.7 444.6 C 268.8 443.5, 272.2 441, 274.3 439.1 C 278.4 435.2, 278.7 435.3, 276.4 439.9 C 275.6 441.6, 275 443.5, 275.2 444.2 C 275.6 445.2, 281 435.3, 281 433.5 C 281 433.1, 282.1 430.6, 283.4 428 C 287.3 420.3, 287.9 409.6, 284.8 402.8 C 279.4 391.1, 267.4 379.8, 256.7 376.5 C 253.5 375.5, 250.7 374.3, 250.4 373.8 C 249.2 371.9, 282 344.4, 288 342.2 C 291.5 340.9, 301.5 333.5, 305.4 329.2 C 307.6 326.7, 311.9 322.2, 314.9 319.1 C 319.7 314, 323.4 309.1, 326.6 303.5 C 331.4 294.9, 333 291.4, 332.9 289.1 C 332.8 287, 332.7 286.9, 332.3 288.5 C 331.7 290.6, 328.1 297.4, 322.5 306.7 C 319.6 311.6, 305.8 326.6, 297.4 334 C 295 336.2, 295.1 335.9, 298.2 332 C 301.2 328.1, 314 309.5, 327.7 289 C 336.1 276.5, 331.4 280.2, 322.2 293.3 C 299.1 326.6, 293 333.5, 273 348.5 C 267.2 352.9, 259.8 359, 256.4 362.1 C 247.2 370.6, 246.4 371, 240.5 369.9 C 231.5 368.1, 222.6 370.8, 215.1 377.6 L 210.9 381.3 208.6 378.9 C 206.1 376.2, 204 372.7, 204 371.3 C 204 370.8, 209.1 366.8, 215.3 362.5 C 226 354.9, 246.3 339.2, 258 329.3 C 263.2 325, 273.6 317.1, 287.6 306.9 C 325.7 279.3, 342.8 263.3, 352.1 246.5 C 353.9 243.2, 356.9 238.5, 358.7 236.1 C 360.5 233.7, 364.1 227.4, 366.7 222.1 C 372 211.3, 379.8 198, 380.8 198 C 384.5 198.1, 384.3 200.8, 380.3 207.3 C 377.9 211.1, 378.2 212.4, 380.7 209.3 C 382.1 207.5, 384.3 202.8, 384 202.1 C 383.4 200.7, 386.8 200.4, 389.1 201.6 C 390.7 202.4, 393.4 203, 395.2 203 C 400.5 203, 401.7 204.3, 400.3 208.2 C 399.6 210, 398.8 213.3, 398.5 215.5 C 397.9 219.2, 398 219.4, 399.4 217.6 C 400.3 216.5, 401 214.9, 401 214.1 C 401 213.2, 401.7 210.7, 402.4 208.5 C 403.8 204.6, 403.9 204.5, 410 203.6 C 417.8 202.5, 418.6 203.1, 417.1 210 C 415.6 217.1, 415.7 223.4, 417.5 227.7 C 418.3 229.6, 419 233.8, 419 236.9 C 419 244.3, 420 250, 421.3 250 C 422.6 250, 421.6 231.4, 420.2 229.7 C 417.9 226.8, 417.6 202, 419.9 203.4 C 420.3 203.7, 422.2 203.5, 424.2 203.1 L 427.8 202.3 428.5 206.9 C 429.2 212, 434.4 229.7, 436.6 234.7 C 437.4 236.4, 438 238.2, 438 238.8 C 438 239.3, 438.7 240.3, 439.5 241 C 440.8 242.1, 440.8 241.6, 439.4 237.4 C 438.6 234.7, 437.4 230.7, 436.8 228.5 C 436.3 226.3, 435.4 223.6, 434.9 222.5 C 434.5 221.4, 433.1 216.9, 432 212.5 C 430.9 208.1, 429.7 203.8, 429.5 202.9 C 428.9 201.2, 436.3 196, 439.1 196 C 440.7 196, 444.9 200.8, 446.6 204.8 C 447.4 206.5, 448.7 208, 449.5 208 C 450.3 208, 452 209.5, 453.3 211.3 C 456.1 214.9, 470 237.8, 470 238.7 C 470 240.2, 478.2 252.7, 485.5 262 C 490 267.8, 499.1 280.8, 505.9 290.9 C 518 309.1, 523.3 316.3, 529.4 323 C 531.1 324.9, 534.1 328.5, 536 331 C 537.9 333.4, 542.1 338.4, 545.3 342 C 551.7 349.1, 563.4 364.3, 570.7 374.8 C 580.6 389.1, 594.3 402, 609.3 411 C 612.5 412.9, 622.3 419, 631.1 424.5 C 639.8 430, 651.3 437, 656.5 440 C 664.3 444.4, 665.7 445.6, 664.3 446.3 C 663.3 446.8, 659.1 450.7, 655 455 C 650.9 459.2, 645.7 463.7, 643.5 464.8 C 637.8 467.9, 632.8 473.1, 634.3 474.6 C 635.1 475.5, 638 473.7, 638 472.4 C 638 471.6, 639.2 470.5, 640.8 469.8 C 646.2 467.6, 652 464.5, 652 463.8 C 652 463.3, 652.7 463, 653.5 463 C 655.2 463, 655.6 461.4, 654 460.8 C 651 459.8, 666.3 446, 669.7 446.8 C 670.4 447, 671 446.7, 670.9 446.3 C 670.8 445.9, 670.8 445, 670.9 444.3 C 671 443, 683.4 434.6, 686.5 433.7 C 687.6 433.4, 691 432.2, 694 431 C 697 429.8, 701.1 428.5, 703 428.1 C 706.8 427.3, 715.9 424.1, 717.5 422.9 C 718.1 422.6, 720.1 421.9, 722 421.5 C 723.9 421.1, 726 420.4, 726.5 420 C 728.2 418.7, 740 416.7, 749.5 416.1 L 758.5 415.5 753 414.7 C 747.5 413.9, 732.7 415.7, 725.7 418 C 709.3 423.3, 703.8 424.9, 700.7 425.5 C 698.6 425.9, 696.7 426.6, 696.4 427.1 C 696.1 427.6, 695.2 428, 694.4 428 C 693 428, 686.9 430.5, 680.2 433.8 C 678.4 434.7, 675.1 437.1, 672.8 439.1 L 668.6 442.7 661.1 438.5 C 647.4 430.9, 645.9 430, 634.7 422.6 C 628.5 418.6, 619.8 413, 615.3 410.2 C 594.8 397.5, 588.4 391.4, 570.2 367 C 563 357.4, 553.7 345.7, 549.4 341 C 545.2 336.3, 540.1 330.5, 538.1 328 C 536.1 325.5, 534.2 323.3, 533.9 323 C 531.9 321.2, 518.2 303.5, 515.2 298.7 C 513.2 295.5, 508.9 288.8, 505.6 283.7 C 502.4 278.7, 496.1 270, 491.6 264.5 C 483.6 254.8, 478 246.3, 463.5 222 C 456.7 210.7, 442.3 194, 439.3 194 C 437.7 194, 437.7 193.8, 439 190.6 C 439.9 188.2, 439.7 188, 437.4 188 C 435.5 188, 434.5 187.3, 433.7 185 C 432.4 181.6, 429.8 181.1, 426.2 183.6 M 439 197.4 C 439 197.7, 439.5 199.2, 440.1 200.7 C 442.3 206, 442.8 207.5, 445 214 C 446.2 217.6, 447.6 221.4, 448 222.5 C 452 231.9, 453.7 235.7, 457.7 243.5 C 463.7 255.7, 462.6 250.4, 456 235.5 C 455.5 234.4, 454.2 231.3, 453 228.5 C 451.8 225.8, 450.5 222.6, 450 221.5 C 449.5 220.4, 448.4 217, 447.4 214 C 444.6 204.7, 439 193.7, 439 197.4 M 434.5 206.2 C 434.9 208, 435.6 210.1, 436.1 211 C 436.5 211.8, 437.4 214.5, 438 217 C 438.6 219.5, 439.7 223.8, 440.4 226.5 C 441.2 229.3, 442.7 234.9, 443.8 239 C 446 247.2, 451.1 258.2, 451.8 256.2 C 452 255.5, 450.9 252.4, 449.2 249.2 C 447.6 246.1, 445.9 241.3, 445.5 238.6 C 445.2 235.9, 444.4 233, 444 232.1 C 443.5 231.2, 442.6 228.5, 442.1 226 C 439.4 213.5, 435.9 203, 434.5 203 C 434.1 203, 434.2 204.4, 434.5 206.2 M 406 214.8 C 404.1 221.1, 404 237.1, 405.9 239.4 C 407 240.7, 407.2 243.4, 406.7 251.3 C 406.4 257, 406.5 260.2, 407 258.5 C 407.7 255.9, 407.8 256.2, 408 261 C 408.6 274.6, 409.9 271.4, 409.7 256.9 C 409.5 247.5, 409 240.7, 408.3 239.9 C 406.3 237.3, 405.9 231, 407 220.9 C 408.3 209.4, 408 208, 406 214.8 M 372.5 235.7 C 365.7 250, 365.1 251, 360.4 256.3 C 356 261.2, 349.5 273.1, 350.2 275.1 C 350.4 275.7, 351.9 273.6, 353.5 270.5 C 355.2 267.4, 358.8 261.8, 361.6 258.1 C 366.4 251.8, 374 237.7, 374 235.1 C 374 234.5, 374.4 234, 374.8 234 C 375.7 234, 378.2 226.9, 377.6 226.2 C 377.4 226, 375.1 230.3, 372.5 235.7 M 133.9 247.1 C 132.8 247.8, 132.9 248, 134.5 248 C 139.1 248.1, 141 251.8, 139.4 257.6 C 138.4 261.4, 131.8 263.1, 119.3 262.9 C 111.4 262.8, 107.4 263.1, 104.9 264.2 C 97.8 267.4, 87.9 269.2, 77.3 269.4 C 71.4 269.4, 67.5 269.7, 68.6 269.9 C 69.6 270.1, 71.1 270.7, 71.8 271.2 C 74.2 273.2, 91.3 270.8, 104 266.7 C 108.9 265.1, 112.5 264.7, 118.8 264.9 C 133.3 265.4, 142 261.2, 142 253.9 C 141.9 249.5, 136.9 245.2, 133.9 247.1 M 371.5 250.2 C 370.6 254.3, 359.1 276.4, 354 283.9 C 351.8 287.1, 350 290.2, 350 290.8 C 350 291.4, 349.7 292, 349.3 292.2 C 348.8 292.4, 347.6 294.2, 346.6 296.3 C 345.5 298.4, 343.7 301.1, 342.6 302.4 C 337.8 307.8, 336.1 310, 331.1 318.3 C 328.2 323.2, 326 327.4, 326.4 327.7 C 326.7 328, 328.6 325.5, 330.7 322.1 C 332.8 318.7, 338 311.2, 342.3 305.4 C 346.5 299.6, 350 294.4, 350 293.8 C 350 293.2, 351.4 290.8, 353 288.3 C 354.7 285.9, 356 283.5, 356 283 C 356 282.5, 356.6 281.5, 357.3 280.8 C 357.9 280, 359.4 277.9, 360.4 276 C 361.5 274.1, 363.4 270.5, 364.8 268 C 370.7 257.4, 374 250.5, 374 248.8 C 374 245.8, 372.2 246.8, 371.5 250.2 M 463.1 254 C 462.8 257.9, 465.4 263, 470.5 268.5 C 473.5 271.8, 476.2 275.3, 476.6 276.3 C 476.9 277.2, 477.6 278, 478.1 278 C 478.6 278, 479 278.6, 479 279.4 C 479 280.5, 483.9 287.8, 489.7 295.6 C 491.4 297.9, 494 303.2, 494 304.6 C 494 305.4, 494.5 306, 495 306 C 497.4 306, 492.4 295.6, 486.6 288.7 C 484.5 286.1, 481.7 281.9, 480.4 279.3 C 479.1 276.7, 476.2 272.4, 473.8 269.9 C 466.9 262.5, 465.1 260.2, 465.7 259.6 C 466 259.3, 465.8 258.5, 465.3 257.8 C 464.7 257.1, 464 255.6, 463.7 254.5 C 463.4 253.4, 463.2 253.2, 463.1 254 M 448.5 262 C 449.5 265.7, 452.2 269.1, 456.7 272.5 C 460.7 275.5, 463.3 279.3, 464.5 284 C 465.3 287.2, 466.1 289.2, 469.4 296 C 471.7 300.9, 473.6 304.5, 480.2 316.5 C 482.4 320.5, 484.8 326, 485.3 328.5 C 485.6 329.6, 485.6 328.8, 485.5 326.8 C 485.2 322.8, 479.9 311.1, 474 301.5 C 471.9 298.1, 469.2 292.2, 468 288.4 C 464.4 277, 464 276.4, 460.2 273.4 C 455.6 269.8, 453.1 267.2, 450.2 262.9 C 448.2 260, 447.9 259.9, 448.5 262 M 488.5 272.6 C 490.4 275.2, 492 277.9, 492 278.6 C 492 279.4, 492.5 280, 493 280 C 493.6 280, 494 280.5, 494 281.1 C 494 282.8, 501 297.5, 509.8 314.1 C 511.1 316.6, 514.5 321.7, 517.3 325.4 C 524.9 335.4, 530.7 347.1, 535 361 C 536.2 365.1, 537.7 368.9, 538.1 369.5 C 538.6 370, 539 371.1, 539 372 C 539 374.7, 548.1 387.4, 556 395.7 C 570 410.2, 582 421.1, 583.2 420.4 C 584.1 419.8, 584 419.5, 583 419.2 C 578.7 417.9, 547.7 384.9, 543.7 377.5 C 541.3 373, 538 365.3, 538 364 C 538 363.5, 537.6 362.2, 537.1 361.2 C 536.6 360.3, 535.1 356.6, 533.9 353 C 532.6 349.4, 530.6 344.5, 529.3 342.1 C 528 339.7, 527 336.9, 527 336 C 527 335.1, 524.5 331.2, 521.5 327.4 C 514.4 318.6, 511.3 313.3, 501.2 293 C 496.7 283.9, 492.2 275.5, 491.2 274.4 C 490.1 273.3, 488.7 271.4, 488.1 270.2 C 487.5 269, 486.5 268, 485.9 268 C 485.4 268, 486.5 270.1, 488.5 272.6 M 450.8 298.7 C 448.9 301.6, 449.8 312.5, 452.4 318.3 C 454.2 322.3, 455 325.8, 455 329.6 C 455 334.9, 460.1 347.9, 462.3 348 C 463.6 348, 463 346, 460.7 342.2 C 457.4 337, 455.8 331.7, 456.1 327 C 456.3 324.9, 456.1 322.8, 455.7 322.4 C 455.3 322, 455 321, 455 320.2 C 455 319.4, 454.3 317.4, 453.5 315.7 C 452.7 313.9, 451.9 309.1, 451.8 305 C 451.6 300.9, 451.2 298, 450.8 298.7 M 465.7 326.5 C 467.2 329.3, 469.5 333.3, 470.9 335.5 C 473 338.8, 473.4 341, 473.8 348.5 C 474.2 360, 475.1 362, 481.9 367.9 C 487.6 372.8, 491.6 379.4, 496 390.8 C 497.6 395, 506.8 410.4, 510.7 415.5 C 511.1 416.1, 512.6 418.7, 514 421.4 C 515.4 424, 518.1 427.6, 520.1 429.4 C 525.1 433.8, 528.7 438.9, 529.5 443 C 530.6 448.3, 536.4 457.2, 542 462.1 C 550 469.2, 576 488.4, 576 487.2 C 576 486.3, 571 482.3, 561.1 475.2 C 557.1 472.2, 552.6 468.7, 551.1 467.4 C 549.7 466.1, 548.1 465, 547.7 465 C 544.3 465, 528.3 442.4, 530.2 440.5 C 530.5 440.2, 532.9 442.5, 535.6 445.7 C 542.1 453.4, 544.3 455.2, 552.5 460.2 C 556.4 462.5, 560.1 465, 560.8 465.7 C 561.5 466.4, 562.7 467, 563.5 467 C 564.2 467, 565 467.4, 565.2 467.8 C 565.4 468.2, 567.3 469.7, 569.5 471 C 571.7 472.4, 576.8 475.8, 580.8 478.7 C 584.8 481.5, 589 484.2, 590.3 484.6 C 591.5 484.9, 594.8 486.9, 597.5 488.9 C 600.3 491, 604.7 493.7, 607.3 495 C 612.6 497.6, 616.6 501.2, 617.5 504 C 618 505.6, 621.3 507.6, 627 509.7 C 628.4 510.2, 632.9 512.4, 637.1 514.5 C 643.8 517.8, 645.2 518.2, 649.2 517.6 C 653.5 517, 653.8 517.1, 654.4 519.5 C 655.9 525.5, 660.1 526.8, 665.9 523.1 C 668.3 521.6, 668.3 521.6, 667.8 523.8 C 667.1 526.5, 668.6 526.8, 669.5 524.1 C 669.8 523, 670.7 521.9, 671.5 521.6 C 673.5 520.9, 673.4 518.4, 671.4 517.6 C 668.8 516.6, 668 516.9, 668 518.9 C 668 520.8, 662.6 522.5, 660.5 521.2 C 660 520.8, 658.7 520.7, 657.8 520.8 C 656.6 521, 656 520.3, 655.8 518.3 C 655.5 515.8, 655.1 515.5, 651.3 515.2 C 648.2 515, 647 514.4, 647 513.3 C 647 512, 646.7 512, 645.5 513 C 643.3 514.8, 642.9 513.9, 644.2 509.8 C 644.8 507.6, 646.1 506, 647.2 505.6 C 648.6 505.3, 649 504.6, 648.5 503.2 C 648.2 502.1, 648.4 500.9, 649 500.5 C 649.5 500.2, 650 499.4, 650 498.8 C 650 497.6, 645.1 500.5, 643.3 502.8 C 642.6 503.7, 642 506.1, 642 508.1 C 642 513.1, 640.8 513.6, 635.2 510.9 C 632.6 509.7, 629.4 508.2, 628 507.7 C 622.6 505.7, 620.6 504.4, 619.1 501.7 C 618.2 500.1, 615.3 497.6, 612.5 496.2 C 609.8 494.7, 607.3 493.3, 607 493 C 605.4 491.4, 589.8 481.1, 572.5 470.4 C 547.5 454.9, 543.5 451.6, 532.5 438.1 C 531.4 436.8, 529.1 434, 527.4 432.1 C 519 422.5, 506.7 393.4, 505.5 380.2 C 505.1 376.2, 503.9 370.5, 502.8 367.7 C 501.7 364.8, 500.4 360.3, 500 357.5 C 499.6 354.8, 498.6 351.4, 497.8 349.9 C 496.1 346.6, 488 337.2, 488 338.5 C 488 339.1, 489.6 341.3, 491.5 343.5 C 495.3 347.8, 498 352.8, 498 355.4 C 498 356.3, 499 360.3, 500.1 364.3 C 501.3 368.2, 502.8 375.6, 503.6 380.5 C 505.1 390.7, 506.6 397.3, 508 399.8 C 508.7 401.2, 519.7 423.7, 520.8 426.3 C 522.2 429.4, 517.9 424.9, 515.5 420.8 C 512.1 414.8, 509.2 410, 503.4 400.3 C 501.2 396.6, 498.8 391.9, 498 390 C 494.9 381.5, 490.7 374, 487.4 370.9 C 485.4 369, 482 365.8, 479.9 363.7 L 476 359.9 476 350.8 C 476 341.9, 473.4 333, 470.8 333 C 470.4 333, 470 332.4, 470 331.7 C 470 330.9, 469.1 329.3, 468.1 328.1 C 467 326.9, 465.4 324.9, 464.6 323.7 C 463.7 322.5, 464.2 323.8, 465.7 326.5 M 534 336.3 C 534 336.5, 534.7 338.2, 535.7 340 C 537.3 343.3, 537.9 344.1, 543.1 350.4 C 544.5 352.1, 549.5 358.7, 554.2 365 C 568.2 383.9, 576.6 393.1, 587.2 401.1 C 591.4 404.4, 595.4 407, 595.9 407 C 596.5 407, 597 407.3, 597 407.8 C 597 408.2, 598.6 409.4, 600.6 410.5 C 602.6 411.6, 605.6 413.7, 607.3 415.2 C 609.1 416.7, 610.7 417.7, 610.9 417.4 C 611.9 416.5, 606.1 411.7, 595.5 404.6 C 585 397.4, 578.6 391.5, 565 376.3 C 557.8 368.3, 557.8 368.2, 554.7 363 C 553.3 360.5, 548.5 354, 544.1 348.5 C 539.6 343, 536 337.9, 536 337.3 C 536 336.6, 535.6 336, 535 336 C 534.5 336, 534 336.2, 534 336.3 M 449.5 345.6 C 449.9 346.7, 450.4 348.6, 450.6 350 C 451.4 355.9, 453.1 362.4, 454.1 363.6 C 455.8 365.7, 457 375.8, 458 397.5 C 458.8 413.9, 459.3 417.7, 460.6 419 C 462 420.3, 462.1 420.3, 461.4 419 C 460.9 418.2, 460.2 409, 459.8 398.5 C 459 376, 457.9 365.8, 456.3 363.9 C 455 362.3, 453.2 355.8, 452.2 349.1 C 451.8 346.6, 450.9 344.5, 450.1 344.2 C 449 343.8, 448.9 344.2, 449.5 345.6 M 171.8 362.4 C 170.2 363.2, 169 363.5, 169 362.9 C 169 362.4, 168.6 362, 168 362 C 167.5 362, 167 362.9, 167 364 C 167 367.6, 164.8 370.8, 161 372.5 C 157.5 374.1, 144.7 386, 141.4 390.8 C 139.2 394, 140.2 396.2, 143.5 395.4 C 146.4 394.7, 146.6 395.5, 144.6 399.6 C 140.2 408.7, 140.5 423.5, 145.2 426.4 C 147.7 427.9, 148.4 426.5, 146.5 423.6 C 144 419.8, 144.5 409.7, 147.5 400.4 C 148.2 398.2, 148.7 394.5, 148.4 392.2 C 148.1 388.4, 148.4 387.7, 152.8 383.4 C 155.4 380.9, 159.4 377.9, 161.8 376.9 C 164.9 375.5, 166.5 374, 167.8 371.3 C 169.1 368.3, 170 367.6, 171.8 367.8 C 173.5 368.1, 174 367.6, 174 366.1 C 174 364.9, 174.4 364, 174.9 364 C 175.4 364, 176 363.3, 176.4 362.5 C 177.1 360.6, 175.3 360.6, 171.8 362.4 M 523.7 378.5 C 524.3 385.4, 527 390.1, 535.6 399.3 C 539.7 403.7, 545.8 411.1, 549.2 415.9 C 558 428.3, 580.9 450.8, 589.8 455.8 C 593.3 457.7, 592.4 455.6, 588.8 453.5 C 584.1 450.8, 584.2 450.9, 569.8 436.3 C 562.7 429.1, 554.5 419.8, 551.6 415.6 C 548.7 411.4, 542.8 404.3, 538.4 399.8 C 528.2 389.2, 526 385.5, 523.7 375.5 C 523.4 374.4, 523.4 375.8, 523.7 378.5 M 177.8 386.2 C 172.9 397, 172.8 402.5, 177.2 404.9 C 179.7 406.3, 180.1 406.3, 182.6 404.4 C 189.9 399, 191 394.6, 186.7 388.4 C 182.5 382.3, 179.8 381.6, 177.8 386.2 M 157.6 387.6 C 157.3 388.5, 157 389.9, 157 390.8 C 157 391.7, 155.9 394.8, 154.5 397.5 C 152.1 402.4, 151.2 409, 152.9 409 C 154.3 409, 157 404.3, 157 401.7 C 157 400.3, 157.6 398.7, 158.4 398.1 C 160.1 396.6, 163.2 388.1, 162.4 386.9 C 161.5 385.4, 158.3 385.9, 157.6 387.6 M 231.1 388.4 C 228.9 391.1, 238.4 395.3, 244.4 394.3 C 248.3 393.7, 251.2 391.3, 248.9 390.6 C 236.1 386.9, 232.7 386.5, 231.1 388.4 M 146 417.6 C 146 422.3, 175.8 426, 186.5 422.6 C 192.3 420.7, 189.7 420.2, 172 419.6 C 162.8 419.4, 154.4 418.5, 151.3 417.7 C 146.9 416.4, 146 416.4, 146 417.6 M 169.3 429.8 C 166.5 434.4, 168.3 467.1, 171.9 475.5 C 172.4 476.6, 173.8 480, 175 483 C 177.3 488.4, 181.6 493.4, 183.2 492.4 C 184.1 491.8, 181.7 489, 180.3 489 C 179.5 489, 176.9 482.1, 175.5 476 C 175.1 474.6, 174.5 472.6, 174.1 471.5 C 169 459.1, 168.6 434, 173.5 434 C 175.5 434, 175.3 433, 173.1 430.3 C 170.8 427.5, 170.8 427.5, 169.3 429.8 M 719.1 439.9 C 716.9 440.5, 716.9 440.7, 718.4 441.9 C 719.8 443.1, 720.3 443, 722 441.5 C 723.9 439.8, 724.2 439.9, 731.5 444 C 739.4 448.6, 741.1 450.7, 736 449.7 C 734.3 449.3, 733 449.5, 733 450 C 733 450.5, 734.2 451.2, 735.8 451.5 C 737.3 451.8, 740 452.5, 741.8 453.1 C 746.8 454.7, 746.8 453.5, 741.9 448.9 C 734.4 441.9, 725.1 438.2, 719.1 439.9 M 221 449.7 C 221 451.1, 225.2 454.7, 227.8 455.5 C 230.7 456.3, 230.3 459.4, 227.3 459.8 C 226.1 460, 223.8 459.4, 222.1 458.6 C 218.6 456.8, 218.5 456.9, 217.6 463.2 C 217.2 465.8, 216.5 468.2, 215.9 468.5 C 213.4 470.1, 215.1 472.9, 218.8 473.3 C 222.2 473.6, 222.1 473.7, 217.7 473.8 C 213 474, 212.9 474.1, 211 478.5 C 209.9 481, 209.4 483.8, 209.7 484.7 C 210.1 485.8, 210 486.1, 209.1 485.6 C 208.4 485.1, 207.3 486.4, 206 489.3 C 204.9 491.7, 203.2 494.8, 202.1 496.2 C 198.6 500.6, 198.5 503.4, 201.6 506.4 C 203.2 507.8, 204.1 509.3, 203.7 509.6 C 203.3 510, 201.6 509.1, 200 507.5 C 196.6 504.3, 196.7 504.3, 195.1 508.9 C 194.3 511.4, 194.3 512.6, 195.1 513.6 C 196 514.6, 196 515, 195.1 515 C 194.5 515, 194 514.5, 194 513.9 C 194 511.7, 191.4 514.9, 189.5 519.2 C 188.5 521.6, 186.8 525.5, 185.7 527.9 C 184.1 531.4, 183.6 534.7, 183.5 542.7 C 183.4 548.4, 183.1 553.3, 182.7 553.6 C 181.6 554.8, 180.5 548.5, 180.5 540.8 C 180.5 536.5, 180.2 533, 179.9 533 C 179.2 533, 176 547.6, 176 550.6 C 176 553, 180.4 562.5, 182 563.5 C 182.5 563.8, 183 564.8, 183 565.6 C 183 568.3, 179.5 565.4, 177.8 561.3 C 173.7 551.5, 173.4 547.8, 175.6 537.5 C 176.2 534.7, 176.1 534.6, 174.7 536.5 C 166.3 548.1, 175.5 572.9, 189.2 575.7 C 190.8 576, 192.3 576.7, 192.6 577.1 C 193.5 578.6, 185.7 578.1, 182.6 576.5 C 178.8 574.5, 178.3 574.6, 180.6 577.2 C 184.7 581.7, 191.2 585, 196.3 585 C 199.8 585, 201 585.4, 200.7 586.3 C 200.5 587.1, 198 587.5, 193.1 587.5 L 185.8 587.5 189 590.2 C 193.3 593.7, 200.5 596, 207.7 596.1 C 216 596.2, 211.5 597.8, 202.7 597.9 C 197.7 598, 194.9 597.5, 191.8 595.9 L 187.7 593.8 190.7 597.6 C 197.2 605.7, 205.2 612, 208.9 612 C 210.9 612, 211.2 611.8, 210 611 C 208 609.7, 208.7 609.8, 214 611.4 C 218.1 612.6, 218.7 612.6, 220.4 610.9 C 222.5 608.9, 224 608.4, 224 609.8 C 224 611.8, 215.8 615.2, 212.4 614.6 C 208 613.7, 208.1 614.9, 212.8 617.9 C 217 620.7, 222.2 621, 224.8 618.7 C 225.7 617.9, 228.3 616.3, 230.6 615.2 C 232.8 614.1, 235.2 612.4, 235.9 611.6 C 236.7 610.7, 237.7 610, 238.3 610 C 238.9 610, 238.3 611.1, 237 612.5 C 234.3 615.4, 234.9 615.7, 238.8 613.3 C 243.3 610.5, 249 604.7, 249 602.9 C 249 600.2, 246.9 599.5, 245.2 601.6 C 243.9 603.4, 243.8 603.4, 244.5 601.2 C 245.1 599.3, 243.9 597.6, 237.6 591 C 232.3 585.4, 230 582.3, 230 580.5 C 230 577.1, 230.2 577.2, 233.8 582.9 C 235.6 585.6, 238.4 588.9, 240.2 590.3 C 246.9 595.5, 251 599.8, 251 601.8 C 251 605.1, 246.9 610.5, 241.2 614.6 C 235 619.2, 235.1 619.3, 249.9 620.4 C 259 621.1, 259.1 621.1, 258.1 619.1 C 256.6 616.3, 256.7 613.2, 258.6 607.9 L 260.3 603.3 255 598.4 C 249.2 593, 245.5 588.2, 246.4 587.3 C 246.7 587, 247.9 587.5, 249 588.5 C 250.1 589.5, 251 590, 251 589.7 C 251 589.3, 252.8 590.8, 255.1 593.1 C 259.6 597.6, 260.6 597.7, 259 593.6 C 256.7 587.4, 259 572.3, 263 566.9 C 265.7 563.5, 266.6 565.2, 264.7 570.2 C 262.4 576.7, 261.9 582, 262.9 590 C 263.9 597.8, 265.2 600.2, 267.2 598.2 C 268.6 596.8, 278 596.6, 278 598 C 278 598.6, 276.1 599, 273.7 599 C 269.8 599, 264.8 601.2, 266 602.3 C 268.3 604.4, 274.6 608, 276.1 608 C 277.2 608, 278 608.7, 278 609.5 C 278 612.7, 268 609.7, 265.9 605.9 C 264.4 603, 263.2 603.6, 262 607.9 C 258.6 620.5, 265.9 625.7, 280.8 621.4 C 288.3 619.2, 293.4 616.6, 296.5 613.3 C 297.9 611.8, 299 611.1, 299 611.8 C 299 614.5, 296.8 617.1, 292.2 620 C 286.5 623.6, 289.5 624.3, 296.1 620.9 C 300.7 618.6, 302 618.8, 299.1 621.4 C 295.1 625, 283.3 627.8, 286 624.5 C 287.5 622.7, 286.1 622.6, 283.9 624.3 C 282.4 625.4, 282.6 626, 286.2 630 C 293.7 638.6, 295.4 641.9, 295.3 648.5 C 295.3 654.7, 293.4 662.4, 290.5 668 C 287.8 673.2, 289.1 674.3, 294.3 671.4 C 298.2 669.3, 298.9 669.2, 300 670.5 C 301 671.8, 300.9 672, 299.2 672 C 297.3 672, 292 677.5, 292 679.4 C 292 679.8, 293.6 680, 295.6 679.8 C 298.5 679.6, 299.6 678.9, 301 676.4 C 304.6 669.5, 305.6 669.2, 310.4 673.9 C 314.7 678.1, 316.9 678.7, 321.4 677 C 323.4 676.3, 324 675.4, 323.9 673.3 C 323.7 670.9, 323.7 670.8, 323.3 672.8 C 322.3 677.7, 320 674.4, 320 668.2 L 320 664.5 322 667 L 324 669.5 324 666.5 C 324 660.4, 322.8 656, 321.1 656 C 319.8 656, 319.8 655.8, 320.9 655.1 C 321.9 654.5, 322.1 653.2, 321.6 650.8 C 321.1 648.1, 321.7 645.6, 324 640.2 C 328.2 630.3, 328.1 625.7, 323.3 619.4 C 317 611.1, 309.8 604.1, 305.8 602.3 C 301.6 600.4, 301.2 599.1, 303.4 593.3 C 308.4 579.9, 309.2 571.6, 306.4 563 C 305 558.6, 298.9 551, 296.8 551 C 296.4 551, 296 550.6, 296 550 C 296 546.2, 304.8 553.8, 308.4 560.8 C 311.4 566.7, 311.8 580.7, 309.1 590 C 306.7 598.6, 306.8 599, 312.5 599 C 316.4 599, 317.2 598.6, 319.6 595.5 C 321.1 593.5, 322.5 592.1, 322.7 592.3 C 323.6 593.2, 320.7 598.5, 317.9 601.1 L 314.8 604 317.7 605.1 C 321.3 606.4, 322.7 605.6, 326.5 599.7 C 328.2 597.2, 330.1 594.9, 330.8 594.6 C 332.8 593.7, 328.5 601.3, 324.9 604.8 C 319.1 610.5, 326.2 607.7, 336.3 600.3 C 338.9 598.3, 341.3 597, 341.6 597.2 C 342.2 597.8, 330.6 609.1, 327.9 610.6 C 326 611.5, 326.2 611.8, 330 612.9 C 334.8 614.3, 356.2 616.2, 358.4 615.4 C 359.1 615.1, 360.1 615.3, 360.4 615.8 C 360.7 616.3, 360.1 617, 359 617.3 C 355.8 618.1, 356.5 620.3, 359.8 619.6 C 362.4 619, 362.4 619, 360.6 620.5 C 359.5 621.3, 357.1 622, 355.2 622 C 352.3 622, 351.9 622.3, 352.2 624.2 C 352.7 627.6, 360 629.7, 366 628.1 C 374.4 625.8, 375.3 624.8, 374.5 617.5 C 373.8 610.7, 371.1 602.6, 367.9 597.3 C 366.1 594.4, 366.1 594.1, 367.6 593.2 C 369 592.4, 368.8 591.8, 365.9 587.8 C 361.7 582.2, 355.4 572.9, 348.9 563 C 342.9 553.7, 339.5 550.1, 330 542.3 C 306.7 523.4, 292.5 518.6, 267.9 521.2 C 260.1 522, 257.1 521.9, 252.5 520.7 C 247.7 519.5, 246.8 519.5, 246.3 520.6 C 245.5 522.8, 246.8 525, 248.5 524.4 C 249.5 524, 250 524.4, 250 525.4 C 250 526.3, 250.3 526.9, 250.8 526.9 C 253 526.5, 254.3 527.1, 253.4 528 C 251.8 529.6, 246 528, 244.3 525.4 C 242.8 523, 242.8 505.9, 244.4 498.5 L 245 495.5 243.6 498.5 C 241.9 501.8, 238.9 508.9, 234.4 520 C 233.4 522.5, 232 525.4, 231.2 526.5 C 229.9 528.4, 229.8 528.4, 230.5 526 C 230.8 524.6, 231.5 522.6, 232 521.5 C 232.4 520.4, 233.8 516.6, 235.1 513 C 236.3 509.4, 237.6 506.1, 238 505.5 C 238.4 505, 239.5 502.3, 240.5 499.5 C 242.5 494, 245.6 486.3, 246.9 484 C 247.3 483.2, 248.7 479.1, 249.9 475 C 251.1 470.9, 252.5 466.2, 252.9 464.5 C 253.4 462.9, 254.2 458.6, 254.5 455.2 C 255.2 449, 255.2 448.8, 253.2 449.9 C 252.1 450.5, 246.7 451.3, 241.3 451.6 C 232.3 452.2, 228.2 451.7, 222.8 449.5 C 221.8 449.1, 221 449.2, 221 449.7 M 520 457 C 520 457.6, 520.6 458, 521.3 458 C 522.9 458.1, 527.2 461.3, 542.2 473.5 C 556.6 485.3, 559.6 487.2, 552 479.8 C 547.3 475.3, 544.2 472.6, 535.2 465.5 C 534.5 465, 533.4 464, 532.7 463.5 C 526.8 458.3, 520 454.9, 520 457 M 708 463.9 L 703.5 464.6 707.2 465.4 C 709.3 465.9, 711.6 466, 712.3 465.7 C 715.2 464.6, 718.6 469.8, 716.3 471.9 C 714.3 473.7, 715.6 474.8, 722.2 477.2 C 727.2 478.9, 739.2 489.2, 737.8 490.5 C 736.7 491.6, 729 491.2, 727.5 490 C 726.7 489.3, 725.7 489, 725.3 489.4 C 724.6 490.1, 727 492.2, 731.2 494.5 C 732.7 495.3, 734.1 495.6, 734.4 495.1 C 734.8 494.6, 734.4 493.9, 733.8 493.7 C 733.1 493.4, 733.7 493.1, 735.3 493.1 C 736.8 493, 738 492.6, 738 492 C 738 491.5, 738.7 491, 739.5 491 C 742.1 491, 741.2 489.7, 734.8 483.3 C 728.2 476.9, 723.7 474.1, 719.8 473.9 C 718.1 473.8, 718 473.6, 719.3 473.3 C 721.4 472.7, 721.4 472.5, 718.7 467.5 C 716.3 463.2, 715.3 462.8, 708 463.9 M 752.9 465.1 C 754.9 466.7, 755 467.1, 753.6 467.6 C 751.3 468.5, 744.2 467.2, 741.8 465.6 C 740.1 464.4, 739.3 464.4, 736.3 465.7 C 733.2 467, 732.2 467, 728.3 465.7 C 723 464, 721.4 465.4, 726.4 467.5 C 730.7 469.3, 732.4 469.4, 736.6 467.8 C 739.2 466.9, 740.4 467, 743.3 468.3 C 747.6 470.4, 752.8 470.4, 755.4 468.5 C 757.8 466.7, 756.9 464.4, 753.3 463.7 L 750.5 463.2 752.9 465.1 M 674.9 473.5 C 674.6 473.7, 671.5 474.7, 667.9 475.5 C 658.5 477.9, 656.7 478.7, 654.8 482 C 653.3 484.6, 652.7 484.9, 648.3 484.7 C 645.7 484.6, 641.9 484.9, 640 485.3 C 637.8 485.8, 637 485.8, 637.9 485.2 C 638.7 484.6, 638.8 484, 638.2 483.6 C 636.9 482.8, 635.3 485, 635.3 487.4 C 635.3 489, 635.9 489.1, 640.2 488.6 C 645.7 487.8, 645.9 488, 642.5 492.4 C 639.3 496.6, 639.4 497, 643.1 497 C 644.9 497, 645.9 496.6, 645.5 496 C 645.1 495.4, 644.4 495.2, 643.9 495.5 C 643.4 495.9, 643 495.8, 643 495.3 C 643 494.8, 643.9 493.9, 645 493.2 C 646.1 492.5, 647 491.1, 647 490 C 647 488.4, 648 488, 653 487.4 C 659.2 486.7, 661.2 485.7, 658.4 484.6 C 657.6 484.3, 657.2 483.5, 657.5 482.9 C 658 482.2, 658.8 482.4, 660.1 483.5 C 661.8 485.1, 661.9 485.1, 661.7 482.4 C 661.5 479.8, 661.9 479.5, 666 478.7 C 674.7 477.1, 678 475.9, 678 474.5 C 678 473.1, 675.9 472.4, 674.9 473.5 M 366.3 481.6 C 363.5 484.8, 363.3 486.4, 365.9 485 C 369.5 483.1, 372.7 483.8, 375 487.1 C 378 491.3, 376.7 492, 373 488.2 C 369.3 484.3, 368.2 484.2, 367 487.6 C 364.1 495, 366.4 500, 372.7 500 C 375.2 500.1, 375.3 500.2, 373.7 501.1 C 372.6 501.7, 370.7 502, 369.4 501.7 C 368.1 501.5, 367 501.7, 367 502.1 C 367 503.6, 374.7 503.1, 376 501.5 C 376.7 500.7, 376.9 500, 376.6 500 C 376.2 500, 376.8 498.8, 377.9 497.4 C 382.5 491.6, 378.3 480, 372.2 481.5 C 370 482, 369.8 481.9, 370.9 480.6 C 373.3 477.7, 368.8 478.7, 366.3 481.6 M 99.5 484 C 99.2 484.6, 99.3 485, 99.8 485 C 100.4 485, 101.1 486.2, 101.5 487.7 C 101.8 489.2, 102.7 490.8, 103.3 491.2 C 104.1 491.7, 103.9 492, 102.8 492 C 101.6 492, 101 492.8, 101 494.4 C 101 496.2, 100.3 496.9, 98.3 497.3 C 93.3 498.4, 92.3 499.6, 94.4 501.9 C 95.4 503, 96 504.6, 95.7 505.4 C 95.3 506.4, 96.1 507.1, 98.3 507.5 C 100.1 507.9, 102.3 508.9, 103.3 509.8 C 104.7 511.1, 105 511.1, 105 509.9 C 105 507.9, 103 506, 100.9 506 C 99.9 506, 98.5 504.7, 97.7 503 C 96.1 499.9, 97.8 498.3, 99.6 501.2 C 100.2 502.2, 102.1 499.1, 102.1 497 C 102.1 496.7, 102.8 495.8, 103.6 494.8 C 105.3 493, 105.1 488.7, 103.2 485.3 C 101.8 482.8, 100.5 482.4, 99.5 484 M 62.5 491.6 C 55.3 497.5, 49.7 498.5, 45.9 494.5 C 43.1 491.7, 42 491.4, 42 493.5 C 42 495.5, 47.8 499, 51.1 499 C 54.2 499, 58.5 496.9, 62.4 493.5 L 65.3 491 68.5 494.4 C 73 499.3, 76.1 499.9, 80.8 496.6 C 82.9 495.2, 85.4 494, 86.3 494 C 87.2 494, 88 493.6, 88 493.1 C 88 492.6, 89.1 491.9, 90.5 491.6 C 94.1 490.7, 92.8 489.2, 88.5 489.2 C 85.8 489.2, 85 489.6, 85.2 490.9 C 85.4 491.9, 84.9 492.4, 83.7 492.3 C 82.6 492.3, 81 493, 80 494 C 77.1 496.9, 68 494, 68 490.1 C 68 488.3, 65.7 488.9, 62.5 491.6 M 537 489.7 C 537 490.7, 541.2 492.6, 545.5 493.6 C 549.6 494.6, 552.6 496.6, 558.2 502.1 C 560.8 504.7, 564.2 507.4, 565.9 508.1 C 567.6 508.9, 569 509.8, 569 510.2 C 569 510.5, 570.3 511.1, 572 511.5 C 573.6 511.9, 575.2 512.6, 575.5 513.1 C 575.9 513.6, 578.2 514.9, 580.8 516 C 583.4 517.2, 586.2 518.4, 587 518.9 C 587.9 519.4, 590.1 520.1, 591.9 520.5 C 595.1 521.2, 607 526.7, 608 528 C 609.1 529.4, 615.3 531.9, 616.2 531.4 C 616.7 531.1, 615 529.7, 612.3 528.4 C 609.7 527.1, 605.9 525, 604 523.9 C 602.1 522.7, 597.8 520.7, 594.5 519.5 C 584.5 515.8, 582.6 515, 580.5 513.8 C 579.4 513.2, 575.4 511.1, 571.5 509.2 C 567.7 507.3, 562.3 503.6, 559.5 501 C 554.1 495.8, 547.4 491.6, 545.9 492.5 C 545.4 492.9, 545 492.6, 545 492.1 C 545 491.5, 544.1 491, 542.9 491 C 541.8 491, 540 490.5, 538.9 490 C 537.9 489.4, 537 489.3, 537 489.7 M 694 495 C 694 495.8, 694.9 498, 696 499.8 C 698.1 503.2, 698.1 503.2, 704.8 502.8 C 711.3 502.5, 711.5 502.6, 711.9 505 C 712.3 508.2, 710 527.2, 709 528.5 C 708.6 529.1, 708 530.4, 707.7 531.5 C 707.3 533.2, 707.2 533.1, 707.1 531 C 707 528.7, 706.8 528.7, 705.9 530.3 C 705.1 531.7, 705.2 532.6, 706.6 534.1 C 708.2 535.8, 708.2 536.3, 707 537.1 C 705 538.4, 691.9 542.2, 691.4 541.7 C 690.8 541.2, 688.9 529.7, 689.3 529.3 C 689.5 529.2, 691 529.4, 692.6 529.8 C 700.7 532.1, 706 529.1, 706 522.4 C 706 520.8, 706.4 520.1, 707.1 520.6 C 707.7 520.9, 708.6 520.6, 709.1 519.9 C 710.4 517.8, 710.2 517, 708.5 517.6 C 707.7 517.9, 706.3 517.5, 705.4 516.6 C 703.8 514.9, 701.5 515.4, 702.6 517.2 C 703.4 518.4, 701 526.2, 699.5 527.2 C 699 527.6, 697.2 527.9, 695.5 527.9 C 693.9 527.9, 693.1 527.6, 693.8 527.3 C 695.7 526.6, 694.2 525, 691.4 525 C 690.1 525, 689 524.6, 689 524 C 689 523.5, 688.6 523, 688 523 C 686.6 523, 686.7 537, 688.1 542.5 C 689 546.1, 689.5 546.7, 690.9 546 C 694.3 544, 711.2 537.8, 711.7 538.3 C 712.7 539.3, 711 540.8, 708.2 541.5 C 704.9 542.2, 694.3 546.4, 693.3 547.4 C 693 547.7, 692 548, 691.1 548 C 689.7 548, 689.6 549.6, 690.2 562.2 C 691 578, 690 592.1, 687.9 594.6 C 687.1 595.5, 686.6 597.5, 686.7 598.9 C 686.9 600.9, 686.7 600.7, 685.9 598 C 684 591.6, 682.8 592, 683.3 599 C 683.6 602.6, 683.7 604.6, 683.4 603.5 C 683.1 602.4, 682.2 600.1, 681.4 598.3 C 678.9 592.8, 678.5 588.9, 680.4 587.8 C 682.5 586.6, 682.4 586.2, 679.9 582.1 C 678 578.9, 677.8 578.8, 675.9 580.6 C 674.2 582.2, 674.1 582.5, 675.5 584.6 C 677.8 588.2, 677.3 589.7, 673 591.4 C 668.5 593.2, 668 594.9, 671 599 L 673 601.9 670.8 602.2 C 668.6 602.6, 668.6 602.7, 671.3 604 C 674.5 605.6, 675.6 604.9, 674.1 602.2 C 672.4 599, 672.8 594.5, 674.9 592.6 C 676.8 590.9, 676.9 590.9, 678.3 593.7 C 684.8 606.3, 680.6 615.5, 671.5 608.5 C 669.7 607.2, 668.1 606.3, 667.8 606.5 C 667.6 606.7, 667.4 605.7, 667.5 604.2 C 667.5 602.7, 668 601.2, 668.5 600.7 C 669.1 600.3, 668.8 599.5, 667.6 598.9 C 666.1 598, 666 597.6, 667.1 596.8 C 668.2 596.1, 668 596, 666.5 596.2 C 664.9 596.4, 664.4 595.8, 664.2 593.5 C 663.7 589.3, 662.6 588.5, 659.1 589.9 C 655.2 591.6, 654.2 594, 657.5 594 C 660.4 594, 662.8 596.2, 663.7 599.8 C 664 601.3, 665 603, 665.9 603.7 C 667.3 604.8, 667.3 604.9, 665.5 605 C 664.3 605, 662.9 604.5, 662.3 603.9 C 661.5 603.1, 661 603.1, 660.5 603.9 C 660.2 604.5, 660.6 605.2, 661.4 605.5 C 662.3 605.8, 663.7 606.2, 664.5 606.5 C 667 607.2, 666.4 611, 663.8 611 C 660.9 610.9, 656.3 608.4, 657 607.3 C 657.3 606.9, 656.4 606.3, 655 606.2 C 651.8 605.7, 649.9 603.1, 651.1 600.8 C 652.7 597.8, 652.1 597.1, 648 597.2 C 645.8 597.2, 642.9 596.5, 641.6 595.7 C 640.3 594.8, 639 594.4, 638.7 594.7 C 637.7 595.6, 640 599, 641.5 599 C 643.3 599, 643.3 599.2, 641.8 602.5 C 641.2 603.9, 640.1 605, 639.3 605 C 638.6 605, 638 605.6, 638 606.3 C 638 607, 637.1 608.1, 636 608.8 C 634.8 609.5, 634.2 610.5, 634.5 611 C 634.9 611.6, 633.2 612, 630.3 611.9 C 626.6 611.9, 626 611.7, 627.6 611 C 630 610, 631.5 608.2, 630.6 607.3 C 630.3 607, 629.4 607.3, 628.5 608 C 626.5 609.6, 617.7 608.8, 613.5 606.6 C 610.2 604.8, 607.6 604.5, 608.5 605.9 C 609.2 607.1, 614.9 610, 616.5 610 C 617.2 610, 618 610.6, 618.3 611.4 C 618.6 612.1, 620.7 613, 623 613.4 C 625.4 613.8, 628.2 614.7, 629.3 615.5 C 631.8 617.2, 638.3 617.5, 641.1 615.9 C 642.8 615, 643.1 615.2, 642.8 616.6 C 642.5 618.2, 643.5 618.4, 650 618.7 C 660.4 619.2, 662.2 618.7, 661 615.5 C 659.9 612.5, 661.1 612.3, 665.3 614.5 C 667.1 615.4, 668.8 615.7, 669.8 615.1 C 670.8 614.6, 673.3 614, 675.5 613.6 L 679.5 613 675.8 614.9 C 662 621.9, 633.3 625, 618.4 621 C 614.1 619.8, 609.2 618.5, 607.5 618 C 605.9 617.6, 602.1 616.5, 599.2 615.5 C 593.6 613.6, 590.8 614.1, 595.6 616.1 C 597.2 616.8, 599.9 617.9, 601.5 618.6 C 630.1 630.8, 664.4 629.3, 683.7 614.9 L 689 611 688.4 615.3 C 688 618.1, 688.2 620, 688.9 620.4 C 691.5 622.1, 689.5 623, 683.3 623 C 677.9 623, 676.9 623.2, 677.9 624.3 C 679.5 625.9, 758.3 625.6, 760.8 623.9 C 762 623.2, 752.4 623.1, 728.3 623.5 L 694.1 624.1 693.8 621.3 C 693.4 617.7, 694.6 611.5, 696.6 607.2 C 697.4 605.4, 697.9 603.4, 697.7 602.7 C 697.3 601.5, 692 612.3, 692 614.4 C 692 615.1, 691.3 616.5, 690.4 617.6 C 689 619.4, 688.9 619.3, 689.4 616.2 C 690.4 610, 691.8 606.3, 694.9 601.5 C 698.6 595.8, 699.6 593.7, 700.4 590.7 C 701.2 587.3, 699.3 587.1, 698 590.4 C 697.5 591.7, 696.6 593.1, 696 593.5 C 695.4 593.9, 693.9 595.6, 692.8 597.4 C 691.7 599.1, 691 599.7, 691.4 598.7 C 693.3 592.8, 694.2 574.4, 693.2 562.9 C 692 550.3, 692.4 548, 695.7 548 C 697.2 548, 704.7 544.9, 709.2 542.5 C 712.5 540.6, 714 540.6, 716.8 542.6 C 719.4 544.4, 718.4 546.5, 714.2 548.1 C 712.8 548.6, 712 549.3, 712.3 549.6 C 713.1 550.4, 719 547.1, 719 545.8 C 719 545.2, 720.1 545, 721.8 545.3 C 724.5 545.9, 724.6 545.7, 724.5 541.9 C 724.4 537.1, 723.2 536.5, 721.5 540.5 L 720.2 543.5 719.1 540.7 C 718.5 539.1, 718 537.2, 718 536.4 C 718 535.6, 717.5 535, 716.9 535 C 716.1 535, 716 536.1, 716.4 538.1 C 716.9 540.9, 716.8 541.1, 715.4 539.9 C 714.4 539.1, 714 537.7, 714.4 535.9 C 714.7 534.4, 714.6 532.9, 714.2 532.5 C 713.3 531.6, 713.3 497, 714.3 497 C 714.7 497, 715 497.5, 715 498 C 715 498.6, 716 499, 717.2 499 C 718.9 499, 719.1 499.3, 718.2 500.2 C 716.8 501.6, 716.6 507, 718 507 C 718.6 507, 719 505.5, 719.1 503.8 C 719.1 500.7, 719.2 500.6, 720.1 502.9 C 720.6 504.2, 720.8 506.2, 720.4 507.2 C 719.9 508.8, 720.2 509.1, 721.7 508.8 C 723.6 508.4, 724.1 504.2, 722.6 500.8 C 722 499.4, 722.4 498.8, 724.4 498 C 725.8 497.5, 727 496.4, 727 495.5 C 727 493.6, 725.6 493.6, 724 495.5 C 722.5 497.3, 717.7 497.5, 715 495.8 C 713.2 494.7, 712.7 494.9, 710.7 497.3 C 706.7 502.4, 698.2 501.6, 695.3 496 C 694.6 494.6, 694 494.2, 694 495 M 334.2 499.7 C 331.1 506.2, 330.9 512.3, 333.8 515.2 C 335.6 517, 336.4 517.2, 337.8 516.4 C 340.9 514.4, 340.5 512, 337.1 512 C 332.5 512, 333.3 507.7, 338.8 502.1 C 340.5 500.4, 340 495.6, 338 495.3 C 337.1 495.1, 335.6 496.8, 334.2 499.7 M 63.7 519.7 C 62.5 522, 63.9 531.5, 65.4 531.2 C 66.8 530.9, 67 533.1, 67.1 548.7 C 67.1 558.5, 67.4 566, 67.6 565.3 C 67.9 564.7, 68.8 564.4, 69.6 564.7 C 71.5 565.4, 79 563, 79 561.8 C 79 561.2, 77.1 561, 74.8 561.2 L 70.5 561.5 69.8 551 C 69.5 545.2, 68.9 537.9, 68.7 534.7 C 68.2 528.1, 69.3 527.8, 75.8 532.8 C 78.3 534.7, 79.4 535, 80.2 534.2 C 81.8 532.6, 83 532.7, 83 534.5 C 83 535.3, 82.3 536, 81.4 536 C 80.6 536, 80.2 536.5, 80.5 537 C 81.3 538.3, 88.6 538.3, 91.1 537 C 94 535.4, 92.5 533.9, 89.3 535.1 C 85.3 536.6, 84 535.6, 84 530.8 C 83.9 527.1, 83.8 526.8, 82.8 528.5 C 80.6 532.3, 79.1 533.3, 78.4 531.6 C 78.1 530.7, 77.1 530, 76.3 530 C 75.5 530, 73.4 528.9, 71.6 527.5 C 69.8 526.1, 68.1 525.3, 67.7 525.6 C 67.4 525.9, 67.4 525.3, 67.7 524.1 C 68.3 521.9, 66.6 521.2, 65.6 523.3 C 65.3 523.9, 65.3 523.5, 65.6 522.3 C 66.1 520.3, 64.6 518.1, 63.7 519.7 M 287.9 527.4 C 289.1 529.4, 290 531.8, 290 532.7 C 290 533.9, 290.3 534.1, 291.1 533.3 C 291.9 532.5, 291.9 531.7, 291.1 530.2 C 289.5 527.2, 289.7 527, 293.4 527 C 297.3 527, 307.2 531.9, 311.3 535.8 C 314.8 539.1, 315.1 546.7, 311.7 544.9 C 308.7 543.2, 308.6 544.6, 311.7 547.4 C 315.1 550.6, 316.5 550.7, 315.5 547.8 C 314.5 544.6, 314.8 540.9, 316.1 539.4 C 318.4 536.6, 304.4 527.8, 294 525.5 C 293.2 525.3, 291 524.8, 289.2 524.4 L 285.9 523.7 287.9 527.4 M 113 527.8 C 113 529.3, 117.9 533, 120 533 C 121 533, 122.8 533.9, 124.1 535 C 126.7 537.1, 125.6 539, 121.7 539 C 120.6 539, 118.4 539.7, 116.7 540.6 C 114.9 541.5, 112.7 542.7, 111.7 543.2 C 110.6 543.7, 109 543.5, 107 542.5 C 103.1 540.5, 103 540.5, 103.7 544.4 C 104.4 548.8, 102.6 549.9, 99.4 546.9 C 96.2 543.9, 95 545.3, 98 548.5 C 101.5 552.3, 106 551.3, 106 546.8 C 106 545.3, 106.4 545.1, 107.9 546 C 109.3 546.7, 110 546.7, 110.2 545.8 C 110.5 545.1, 112.3 544.6, 114.2 544.7 C 117 544.8, 117.7 544.4, 117.3 543.4 C 117 542.5, 117.5 542, 118.9 542 C 122.9 542, 128 539.2, 128 537.1 C 128 536, 128.5 534.8, 129.2 534.4 C 129.8 534, 127.3 532.8, 123.4 531.8 C 119.6 530.7, 115.7 529.2, 114.8 528.3 C 113.8 527.4, 113 527.2, 113 527.8 M 601 540.8 C 601 541.5, 618.1 548.8, 630.5 553.4 C 638.5 556.3, 647.9 558.5, 648.7 557.6 C 649.1 557.3, 648.4 557, 647.4 557 C 646.3 557, 645 556.6, 644.5 556.2 C 643.9 555.7, 639 553.8, 633.5 552.1 C 621.6 548.2, 605.9 542.1, 604.6 540.9 C 603.4 539.8, 601 539.7, 601 540.8 M 465.5 548.1 C 463.8 548.9, 464 549, 466.4 548.6 C 468.8 548.3, 470.2 549.1, 474.2 553 C 479.8 558.5, 480.4 561.8, 476.4 564.5 C 472.8 566.8, 467.6 564.6, 466.6 560.3 C 465.5 555.8, 463.8 552, 462.8 552 C 462.3 552, 462.4 552.9, 463 553.9 C 463.5 555, 464 556.8, 464 557.9 C 464 559.1, 464.4 560, 465 560 C 465.5 560, 465.7 560.6, 465.4 561.3 C 463.8 565.6, 476.4 568.4, 479.5 564.4 C 482.4 560.6, 481.4 557.1, 475.9 551.9 C 470.7 546.9, 469.1 546.4, 465.5 548.1 M 491.3 550.1 C 488.1 551, 488 551.2, 488 557 C 488 565.3, 490.8 568.5, 497.8 568.4 C 504.6 568.3, 506 567, 506 560.5 C 506 551.1, 500.8 547.5, 491.3 550.1 M 490.7 552.1 C 488.8 553.2, 489.1 560.2, 491.1 564.2 C 492.3 566.4, 497.7 567.4, 501.3 566.1 C 504.6 564.8, 505.1 558.7, 502.3 553.9 C 500.4 550.8, 494.6 549.9, 490.7 552.1 M 707 552 C 707 552.5, 708.1 553.2, 709.5 553.6 C 713.3 554.6, 714.7 557.8, 711.8 559 C 709.5 559.9, 709.5 559.9, 712.2 559.9 C 713.7 560, 715.2 559.6, 715.5 559 C 715.8 558.5, 717.4 558.7, 719.4 559.7 C 723.7 561.7, 725.6 561, 727.7 556.5 C 729.7 552.4, 731.6 552.4, 731.3 556.6 C 731.1 559.4, 731.1 559.4, 732.2 557.2 C 733.4 554.8, 736.8 555, 738.3 557.6 C 738.7 558.4, 739.7 559, 740.5 559 C 741.3 559, 742.3 559.7, 742.8 560.6 C 743.6 562.1, 744 562.1, 746.6 560.4 C 748.9 558.9, 749.1 558.4, 747.7 558.2 C 746.7 558, 745.3 558.3, 744.7 558.9 C 743.8 559.6, 742.9 559.1, 741.6 557.1 C 738.8 552.9, 727.5 549.6, 727.5 553 C 727.4 555, 724 560, 722.8 560 C 722.2 560, 722 559, 722.3 557.9 C 722.7 556.2, 722.6 556, 721.7 556.9 C 720 558.6, 718.8 558.2, 719.5 556 C 720.2 553.8, 719 553.4, 717.2 555.2 C 716.3 556.1, 715.7 556.1, 715.2 555.4 C 713.2 552.4, 707 549.8, 707 552 M 671.5 557.6 C 669.3 558.5, 666.4 559.3, 665.2 559.5 C 662.1 559.9, 647.4 568.4, 643.5 571.9 C 641.9 573.4, 638.5 576.2, 636 578.1 C 628.1 584, 627.5 585.3, 630.8 588.3 C 633.4 590.7, 636.3 590.5, 635.5 588.1 C 635.1 586.6, 635.4 586.3, 637.3 586.7 C 638.7 587, 640.2 586.5, 640.9 585.6 C 641.7 584.7, 642.8 584, 643.4 584 C 644 584, 645.3 583.1, 646.3 582 C 647.7 580.3, 647.7 580, 646.5 580 C 645.7 580, 645 579.5, 645 578.9 C 645 578.2, 645.9 578, 647.2 578.4 C 649.6 579, 656 575.4, 656 573.4 C 656 571.9, 659.9 568.5, 660.6 569.3 C 661 569.7, 660.7 570.7, 659.9 571.7 C 658.6 573.2, 658.8 573.2, 661.2 571.6 C 662.7 570.6, 664.4 570.1, 664.9 570.5 C 665.5 570.8, 667.2 570.3, 668.7 569.3 C 670.2 568.3, 671.1 568, 670.7 568.7 C 670.2 569.5, 671.2 569.8, 674.3 569.7 C 678 569.5, 678.6 569.2, 678.4 567.5 C 678.3 566.4, 678.1 563.4, 678.1 560.8 C 678 555.5, 677.6 555.3, 671.5 557.6 M 48 560 C 49.2 560.8, 49.6 564.5, 49.8 581 C 50.1 599, 50.7 603.5, 52.4 599.8 C 52.7 599.1, 52.7 600.2, 52.4 602.2 C 51.7 606.5, 52.9 609.5, 54.1 606.4 C 55.2 603.6, 55.1 598.1, 53.9 595.9 C 53.4 594.8, 53 592, 53.2 589.7 L 53.6 585.5 55.3 589.2 C 56.2 591.3, 57.2 594.6, 57.5 596.6 C 57.7 598.6, 58.2 600.5, 58.5 600.8 C 59.1 601.4, 58.1 568.4, 57.5 566.3 C 57 564.8, 49.1 559, 47.6 559 C 47 559, 47.2 559.5, 48 560 M 700.6 574.6 C 699.8 576.8, 699.7 576.7, 703.1 577.4 C 704.7 577.7, 706.8 578.7, 707.6 579.5 C 708.5 580.3, 710.3 581, 711.8 581 L 714.5 581.1 712.1 583 C 710.8 584.1, 709 585, 708.1 585 C 704.6 585, 705.1 586.4, 709.1 587.8 C 712.1 588.8, 713.6 588.9, 714.3 588.1 C 715.1 587.3, 714.9 587, 713.7 587 C 710.7 587, 711.9 585.1, 716.2 583 C 719.2 581.6, 722.4 581, 727.7 581 C 731.9 581, 735 580.6, 735 580 C 735 579, 734.5 578.8, 729.9 578.5 C 728.5 578.4, 726.1 578, 724.6 577.6 C 722.9 577.2, 722.1 577.3, 722.4 577.9 C 723.3 579.4, 716.6 580.4, 714.2 579.1 C 713.2 578.5, 712 578.3, 711.7 578.6 C 710.4 580, 706.9 577.8, 707.5 576 C 708 574.6, 707.7 574.3, 706.2 574.7 C 705.1 574.9, 703.9 574.7, 703.6 574.1 C 702.6 572.5, 701.3 572.7, 700.6 574.6 M 608 580 C 610.8 582.1, 610.2 583.7, 607.2 582.1 C 603.5 580.1, 599.8 580.9, 593.9 585 C 590.7 587.2, 587.8 589, 587.4 589 C 587.1 589, 585.8 589.8, 584.5 590.8 C 583.3 591.7, 581.2 593.2, 580 594 C 577.1 596, 572.5 599.5, 566 604.8 C 557.4 611.8, 542.6 618.1, 530.9 619.8 C 527.1 620.3, 525.5 621, 525.5 622 C 525.5 625.5, 546.3 621.4, 556.2 616 C 558.3 614.8, 561 614.7, 561 615.8 C 561 616.6, 553.1 620, 551 620 C 550 620, 550 620.3, 551.4 621.3 C 552.9 622.4, 552.3 622.8, 546.9 624.4 C 541.5 626, 541 626.3, 542.7 627.4 C 545.7 629.5, 551.2 632, 552.7 632 C 553.4 632, 554 632.5, 554 633 C 554 633.6, 555.5 634, 557.3 634 C 559.4 634, 560.1 634.3, 559.2 634.9 C 558.2 635.5, 558.4 635.9, 560.2 636.5 C 561.9 637, 562.1 637.3, 560.9 637.7 C 559.5 638, 556.2 637.1, 549.5 634.5 C 548 633.9, 548.1 634.2, 550.1 635.8 C 551.5 636.9, 554 638.2, 555.6 638.5 C 561.1 639.8, 562 640.1, 562 641.2 C 562 641.9, 560.5 642.1, 558 641.7 C 554.2 641.2, 552.7 642.1, 555 643.5 C 555.6 643.8, 556 645, 556 646.1 C 556 647.3, 557.7 649.1, 560.7 651 C 565.5 654.1, 568.9 657.9, 565.7 656.7 C 557.5 653.6, 556.2 653.7, 551 658.1 C 546.6 661.8, 543 666, 543 667.5 C 543 669.4, 547.9 667.3, 551.2 663.9 C 554.3 660.7, 555.7 660, 557.8 660.3 C 560.4 660.7, 560.4 660.8, 558.3 661.5 C 555.4 662.5, 552.5 666.9, 553.8 668.2 C 555.5 669.9, 560 669.4, 562.4 667.1 C 563.6 666, 565.2 665, 565.8 665 C 566.5 665, 567 664.3, 567 663.5 C 567 662.7, 567.7 662, 568.5 662 C 570.9 662, 570.2 664.5, 567.5 666 C 562.6 668.6, 567.6 672.7, 572.8 670.4 C 573.8 670, 576.3 669.6, 578.5 669.5 C 585.1 669.2, 589.8 668, 590.4 666.5 C 591.8 662.8, 589.3 646.3, 586.5 640.5 C 584.9 637.2, 583.7 633.7, 583.8 632.6 C 583.9 631.6, 583.6 630.2, 583 629.5 C 582.4 628.7, 582.5 627.7, 583.5 626.4 C 584.3 625.4, 585 623.7, 585 622.7 C 585 621.7, 586.6 617.5, 588.6 613.3 C 592.6 604.8, 592.6 604.9, 584.8 602.8 C 578.7 601.3, 578.7 600.5, 584.8 600.4 C 587.5 600.3, 591.7 599.3, 594.3 598.1 C 596.8 596.9, 599.8 596, 600.9 596 C 605.3 596, 615 587.4, 615 583.4 C 615 581.5, 610.4 578, 607.9 578 L 605.5 578 608 580 M 369.3 585.3 C 370.3 588.6, 392 590.8, 392 587.6 C 392 586, 388.6 585.4, 376.2 584.6 C 370.8 584.2, 369 584.4, 369.3 585.3 M 734.7 584.6 C 733.7 585.7, 735 587, 737 587 C 739.1 587, 746.8 593.5, 745.9 594.5 C 745 595.4, 740 593.2, 738.1 591.1 C 736.1 588.7, 732.4 587.6, 731.5 589 C 731.2 589.5, 731.5 590, 732.3 590 C 734.2 590, 743 598.6, 743 600.6 C 743 601.8, 742.1 601.4, 739.1 599.1 C 735.1 595.9, 733 595.2, 733 597 C 733 597.6, 733.5 598, 734 598 C 734.6 598, 735.5 599.1, 736 600.5 C 736.5 601.9, 737.4 603, 737.9 603 C 739.2 603, 741.4 607, 740.6 607.8 C 740.3 608.1, 738.9 607.3, 737.6 606.1 C 736.3 604.8, 733.7 603.5, 731.8 603 C 730 602.6, 727.7 601.9, 726.7 601.5 C 725.4 601, 725.1 601.2, 725.6 602.3 C 725.9 603.2, 727.6 604.2, 729.3 604.6 C 733.1 605.4, 738 608.1, 738 609.3 C 738 609.8, 736.5 609.3, 734.7 608.2 C 731.1 606.1, 724 603.5, 722.8 603.8 C 722.3 603.9, 722 603.6, 722 603 C 722 602.5, 721.3 602, 720.4 602 C 719.5 602, 717.3 601.1, 715.6 600.1 C 712.5 598.2, 704.9 597.7, 703.3 599.4 C 702.9 599.8, 703.4 599.8, 704.5 599.4 C 706.2 598.7, 706.3 598.8, 705.2 600.2 C 704 601.7, 704.2 601.8, 706.7 601.1 C 710.6 600, 714.2 602, 717.9 607.5 C 721.9 613.5, 721.8 614, 716.8 614 L 712.5 614.1 715.3 615.6 C 716.8 616.4, 719 616.8, 720 616.5 C 721.6 616, 722 616.3, 722 618.1 C 722 619.7, 721.7 620, 720.8 619.2 C 719.2 618, 697.3 617.7, 696.6 618.9 C 695.5 620.6, 700.8 621.7, 711.8 621.9 C 722.4 622.1, 723 622.1, 723 620.1 C 723 619, 723.5 617.8, 724 617.5 C 724.6 617.2, 724.7 615.8, 724.4 614.5 C 723.9 612.4, 724.2 612.1, 728.2 611.5 C 730.6 611.1, 733.8 611.3, 735.3 611.9 C 738.9 613.3, 762.7 613.4, 763.5 612 C 763.9 611.4, 760.8 611, 755.1 611 C 747.9 611, 746 610.7, 746 609.6 C 746 608.8, 746.4 608, 746.8 607.8 C 747.7 607.5, 755 597.4, 755 596.5 C 755 596.3, 754.3 596.3, 753.5 596.6 C 752.7 597, 752 597.7, 752 598.4 C 752 600, 743.1 609.8, 743 608.2 C 743 607.5, 743.7 606.7, 744.5 606.4 C 745.5 606, 745.9 605, 745.5 603.6 C 745.3 602.5, 745.3 602.1, 745.6 602.8 C 746.1 603.8, 746.5 603.7, 747.6 602.3 C 749.4 599.9, 749.4 598.5, 747.5 600 C 746.2 601, 746 600.9, 746 599.2 C 746 598, 746.5 596.8, 747 596.5 C 747.6 596.2, 748 593.9, 748 591.4 C 748 589, 747.6 587, 747 587 C 746.5 587, 746 587.7, 746 588.6 C 746 589.8, 745.3 589.6, 742.8 587.7 C 739.1 584.9, 735.7 583.6, 734.7 584.6 M 17.2 594.3 C 17.4 594.9, 19.7 596.9, 22.3 598.5 C 24.9 600.2, 27 602.3, 27 603.2 C 27 604.1, 27.6 605.1, 28.3 605.3 C 28.9 605.6, 28 605.6, 26.3 605.3 C 21.7 604.5, 22.2 606.4, 26.9 607.8 C 32.7 609.6, 40.7 609.4, 41.4 607.4 C 42.3 605, 42.2 604.9, 40.1 606.1 C 37.9 607.5, 35 606.7, 35 604.6 C 35 603.6, 35.6 603.3, 36.5 603.6 C 37.3 604, 38 603.7, 38 603 C 38 602.2, 36.9 601.9, 35.1 602.2 C 33.4 602.4, 32.1 602.4, 32.2 602.1 C 32.4 599.8, 31.8 598.9, 30.5 599.4 C 29.7 599.7, 29 599.6, 29 599.2 C 29 598.3, 23 595.7, 21.4 595.9 C 20.7 596, 20 595.4, 19.6 594.5 C 18.9 592.7, 16.7 592.5, 17.2 594.3 M 74 602.2 C 74 610.3, 74.2 611, 76 611 C 77.1 611, 78 610.4, 78 609.7 C 78 608.9, 78.9 607.5, 80.1 606.4 C 81.5 605.2, 81.9 603.9, 81.5 602.3 C 81.2 601, 81.4 600, 82 600 C 82.5 600, 83 600.5, 83 601 C 83 603.2, 87.5 598.6, 87.6 596.3 C 87.8 593.7, 83.5 592.9, 81.2 595.2 C 80.3 596.1, 80 596, 80 594.8 C 80 593.6, 79.1 593.2, 77 593.2 L 74 593.3 74 602.2 M 382 595 C 383.4 596, 386.8 598.1, 389.7 599.5 C 397.6 603.3, 401.3 602.8, 398.4 598.1 C 395.6 593.7, 394 593, 386.6 593 L 379.5 593 382 595 M 371 595.4 C 371 595.6, 372.1 598.3, 373.5 601.3 C 376.8 608.8, 378.9 618.4, 379.7 629.2 L 380.3 638 386.5 638 C 392.7 638, 396 636.4, 394.6 634.1 C 394.2 633.5, 394.4 629.7, 394.9 625.5 C 395.7 619, 396.4 617.2, 399.5 613.2 L 403.1 608.5 397.8 607.4 C 394.8 606.8, 388 603.9, 382.2 600.7 C 372.3 595.2, 371 594.6, 371 595.4 M 201.5 617.3 C 201.9 618.5, 203.8 623.2, 205.6 627.8 C 209.6 637.4, 209.6 638, 207 638 C 205.9 638, 205 638.7, 205 639.5 C 205 640.6, 206.3 641, 210.3 641 C 213.6 641, 216.3 641.6, 217.6 642.6 C 219.3 644, 218.9 644.1, 211.8 643.5 C 206.9 643.1, 204 643.3, 204 643.9 C 204 645.5, 205.6 646.1, 212.3 646.9 C 217.7 647.6, 218.1 647.8, 215.7 648.5 C 213.9 649, 211.3 648.8, 208.8 647.9 C 204.1 646.4, 203.5 646.9, 202.7 654.1 C 202.3 657.3, 201 660.8, 199 663.6 C 193.8 671.3, 196 673.1, 205.2 668.6 C 210.4 666.1, 211.5 666.2, 209.7 669.2 C 206.8 673.8, 217 675.9, 221.1 671.5 C 222.4 670.2, 224.5 669, 225.8 669 C 228.1 669, 228.8 670.4, 227 671.5 C 226.5 671.8, 226 672.7, 226 673.3 C 226 674.1, 226.3 674, 226.9 673.1 C 227.5 672.1, 229.1 671.9, 232.4 672.2 C 234.9 672.5, 237.1 672.6, 237.3 672.4 C 237.5 672.2, 237.1 668.1, 236.3 663.2 C 235.5 658.4, 234.7 652.9, 234.4 651 C 234 648.4, 234.6 645.9, 236.9 641.2 C 241.6 631.7, 241.7 631.9, 230.5 625.4 C 229.3 624.7, 228.6 623.3, 228.7 622.1 L 229 620 225.7 622 C 219.9 625.6, 213.6 624.4, 206.7 618.5 C 202 614.4, 200.6 614.1, 201.5 617.3 M 34.4 619.5 C 35.3 621.9, 31.9 622.6, 17.5 623.3 C 10.3 623.6, 3.3 624.4, 2 624.9 C 0.3 625.6, 5.1 625.7, 17.1 625.3 L 34.7 624.7 42.3 637.4 C 46.6 644.4, 50 650.3, 50 650.5 C 50 650.7, 48.1 649, 45.7 646.7 C 42.9 643.9, 39.7 642, 36 640.8 C 28.9 638.6, 17 637.4, 17 638.8 C 17 639.4, 19.6 640.1, 22.8 640.5 C 25.9 640.8, 29.5 641.5, 30.8 642.1 C 32.1 642.6, 34 643, 35.1 643 C 36.3 643, 36.8 643.4, 36.4 644.1 C 36 644.9, 36.5 645, 37.9 644.5 C 39.7 644, 40.1 644.2, 39.8 645.6 C 39.6 646.5, 40.1 647.5, 40.9 647.8 C 41.7 648.1, 42 647.8, 41.6 647.1 C 39.4 643.5, 43.4 646.9, 46.8 651.5 C 49.1 654.5, 50.5 657, 50 657 C 49.5 657, 48.5 656.2, 47.8 655.2 C 44.3 650.4, 31.5 644.1, 21.5 642.3 C 19.9 642, 17.9 641.3, 17.3 640.8 C 15.8 639.6, 10.7 640.7, 11.5 642 C 11.8 642.5, 13.4 642.7, 14.9 642.4 C 16.5 642, 18.1 642.3, 18.4 642.9 C 18.8 643.5, 20.1 644, 21.3 644 C 27.3 644, 46 654.5, 46 657.8 C 46 658.2, 39.8 658.6, 32.2 658.8 C 18.2 659, 14 659.5, 14 660.8 C 14 661.7, 47.5 660.6, 51 659.6 C 53.4 658.9, 53.5 658.9, 51.5 660.5 C 49.6 662, 50.1 662.1, 59 661.5 C 67.4 660.9, 73.9 659.1, 68.5 658.9 C 66.8 658.9, 66.8 658.7, 68.8 657.9 C 72.1 656.6, 73.3 657.7, 72.7 661.5 C 72.4 663.2, 72.6 665.3, 73.1 666.1 C 73.7 667.1, 74 666.3, 74 663.5 C 74.1 659.5, 74.1 659.5, 76.9 666.6 C 78.5 670.5, 80.5 675.2, 81.4 677 C 83.6 681.6, 83.5 683, 80.6 682.8 C 78.6 682.6, 78 681.9, 77.5 678.8 C 77.1 676.7, 76.4 675.2, 75.9 675.5 C 75.5 675.8, 75.6 677.2, 76.2 678.5 C 77.7 681.9, 77 682.2, 71.9 681.1 C 66.3 679.8, 55.9 679.7, 52.6 681 C 49.7 682.1, 49 685.3, 51.8 684.9 C 55.6 684.4, 63.6 687.6, 67.4 691.2 C 68.6 692.2, 71.8 694.5, 74.7 696.1 C 80.7 699.5, 90.2 707.9, 88.2 708 C 87.4 708, 84.8 706.2, 82.4 704.1 C 75 697.6, 72.1 696.7, 63.8 698 C 52.4 699.7, 46.5 705.3, 55.8 705.7 C 69.7 706.2, 81 707.3, 81 708.2 C 81 708.9, 79.4 709, 76.6 708.7 C 71 707.9, 37.9 710.7, 36.5 712.1 C 35.3 713.4, 58.9 712.3, 73.5 710.5 C 79.6 709.8, 83.7 709.6, 84.1 710.2 C 84.9 711.4, 97.4 710.3, 97.8 709 C 98.4 707.4, 100.1 707.8, 99.8 709.4 C 99.6 710.2, 100 710.8, 100.5 710.7 C 101.1 710.6, 101.4 710.2, 101.3 709.8 C 101 708.9, 110.1 708.3, 110.6 709.2 C 110.9 709.7, 109.5 710, 107.5 710 C 105.4 710, 104.1 710.4, 104.5 711 C 104.8 711.5, 107 711.7, 109.3 711.4 C 111.6 711.1, 119.7 710.6, 127.3 710.3 C 139.3 709.8, 141.1 709.6, 140.8 708.1 C 140.6 707.3, 139.6 706.4, 138.5 706.2 C 136.8 705.9, 136.8 706.1, 138 706.9 C 139.1 707.7, 136.8 707.8, 130.3 707.3 C 123.4 706.9, 120.7 707, 119.5 708 C 118.7 708.7, 117.7 709, 117.3 708.7 C 117 708.3, 116.1 708.5, 115.4 709.1 C 113.5 710.7, 112 709.3, 112.1 706.2 C 112.2 704.5, 112.4 704.1, 112.7 705.3 C 113.2 707.1, 118.9 707.8, 120.4 706.3 C 121.2 705.5, 121.8 705.3, 125 705.1 C 126.2 705.1, 127.5 704, 128.1 702.8 L 129.1 700.5 128.6 702.8 C 128.3 704.2, 128.7 705, 129.6 705 C 130.4 705, 131 704.3, 131 703.5 C 131 701.2, 135.9 691.4, 138.1 689.4 C 139.6 688, 139.3 689.4, 136.5 696.5 C 133.3 704.6, 133 707, 134.8 707 C 135.6 707, 136.4 705.1, 140.1 695.5 C 141.9 690.7, 142.6 684.9, 141.4 683.8 C 140.3 682.6, 128 696.2, 128 698.7 C 128 699.1, 127.1 700.6, 126.1 701.9 L 124.3 704.3 123.6 699.9 C 122.9 695.4, 125.2 681.7, 126.9 679.6 C 127.4 679, 128.6 675.8, 129.5 672.5 C 131.6 664.9, 133.9 658, 135.1 655.8 C 136.3 653.5, 136.2 652, 135 652 C 134.5 652, 134 652.8, 133.9 653.8 C 133.9 654.8, 133.6 655, 133.3 654.3 C 133 653.3, 129.2 653, 119.4 653 L 106 653 106 645.1 C 106 636.5, 108.2 627.8, 111.2 624.4 C 113.6 621.7, 112 620.4, 108.6 622.2 C 104.3 624.5, 98.9 633.6, 97.9 640.4 C 95.6 655.1, 95.8 654.5, 92 654.3 C 90.1 654.2, 85.7 654, 82.3 653.9 C 78.8 653.7, 76 653.3, 76 653 C 76 650, 87.6 638.2, 92.8 635.9 C 96.6 634.2, 96.9 633, 93.6 633 C 92.2 633, 90.8 632.6, 90.5 632 C 90.2 631.5, 89.4 631, 88.8 631 C 88.1 631, 88.5 631.7, 89.6 632.6 C 91.2 633.9, 91.2 634.1, 89.8 633.6 C 88.8 633.3, 87.8 633.5, 87.5 634 C 87.1 634.6, 87.4 635, 88.1 635 C 88.8 635, 89.1 635.3, 88.8 635.6 C 88.4 635.9, 87.2 635.7, 86.1 635.1 C 83.7 633.8, 78.7 634.7, 79.3 636.4 C 79.5 637, 80.7 637.6, 82.1 637.8 C 84 638, 84.2 637.9, 83 637.1 C 82.2 636.6, 81.9 635.8, 82.2 635.5 C 82.6 635.1, 83.5 635.4, 84.3 636.1 C 85.5 637.3, 85.1 638, 80.9 640.8 C 78.2 642.6, 74.2 646.4, 72 649.3 C 69.8 652.1, 67.5 655, 67 655.7 C 66.4 656.4, 66 657.4, 66 658 C 66 658.5, 65.6 659, 65.2 659 C 63.8 659, 64.1 650.6, 65.5 648.3 C 66.3 647.1, 67 645.5, 67 644.8 C 67 644.1, 68.6 641.1, 70.5 638.3 C 74.2 632.8, 75.2 629.8, 72.5 632 C 70.2 633.9, 70.7 632.5, 74.2 627.6 C 77.5 622.8, 81.7 620.6, 85.6 621.6 C 87.1 622, 88 621.8, 88 621.1 C 88 620.4, 85.9 620, 82.6 620 C 77.3 620, 77 620.2, 71.3 625.8 C 66.2 630.8, 61.6 638.1, 59.6 644.4 C 59.1 645.9, 58.3 645.1, 55.9 640.4 C 54.2 637.2, 52.2 633.8, 51.4 632.9 C 50.6 632.1, 50 631, 50 630.5 C 50 630, 49.3 628.9, 48.4 627.9 C 45.8 625, 47.4 624.3, 59.1 623.7 C 76.9 622.8, 75.7 620.8, 57.5 621.2 C 44.7 621.5, 42 621.2, 39.1 619.8 C 34.9 617.6, 33.6 617.5, 34.4 619.5 M 465 621.8 C 465 624.1, 469.9 625.9, 478.1 626.6 C 485.6 627.3, 492.5 626, 492.5 624 C 492.5 623, 490.2 622.6, 482.5 622.5 C 477 622.4, 471.5 621.8, 470.3 621.2 C 467.2 619.5, 465 619.7, 465 621.8 M 237.7 624.7 C 237.4 625, 238.4 626.3, 240.1 627.7 C 243 630.2, 244 630.3, 250.3 628.4 C 253.5 627.4, 252 630.5, 248.1 632.7 C 244.7 634.7, 240.9 640.3, 242.2 641.6 C 242.5 641.8, 248.2 641.8, 254.8 641.4 L 266.8 640.7 267.4 637.1 C 268.2 631.8, 267.2 629.2, 264.1 628.6 C 262.7 628.3, 256.8 627.4, 251 626.5 C 245.2 625.6, 240 624.7, 239.3 624.5 C 238.7 624.3, 238 624.4, 237.7 624.7 M 332 624.5 C 331.9 624.5, 331.7 627.3, 331.5 630.6 C 331.2 634, 330.3 638.4, 329.5 640.4 C 326.8 646.9, 326.9 647, 337.8 646.9 C 352.5 646.7, 353.4 646.4, 353.8 641.2 C 354.1 637.8, 353.4 635.8, 350.5 631.1 L 347 625.2 339.5 624.8 C 335.4 624.6, 332 624.5, 332 624.5 M 592.2 625.7 C 590.9 626, 590.1 626.7, 590.3 627.3 C 590.6 628.2, 596.5 628.6, 611 628.8 C 622.2 628.9, 631.1 628.8, 630.8 628.5 C 630.3 627.9, 599.8 624.9, 596.5 625.1 C 595.4 625.2, 593.5 625.5, 592.2 625.7 M 373.6 626.9 C 372.7 628.4, 363.4 631, 358.8 631.1 C 354.6 631.2, 354.6 631.2, 357.5 632.1 C 359.2 632.7, 362.7 632.8, 365.3 632.5 C 368.5 632.1, 370 632.3, 369.5 632.9 C 368.7 634.3, 361.6 636.2, 359.9 635.5 C 358.8 635.1, 358.5 636.2, 358.4 639.8 C 358.4 644.9, 353.9 654.4, 349.9 658.3 C 347.5 660.6, 348.3 662, 352 662 C 354.9 662, 357.3 659.9, 355.2 659.2 C 352.6 658.4, 355.3 657, 359.5 657 C 364.4 657, 366.6 658.7, 362.3 659.2 C 358.9 659.6, 358.1 662.4, 360.9 664 C 363.9 665.5, 366.8 663.7, 367.5 659.7 L 368.1 656.5 374.1 656.8 C 377.3 657, 380 656.9, 380 656.6 C 380 656.3, 379 652.5, 377.9 648.3 C 376.4 642.9, 375.9 639, 376.3 635.3 C 377 628.1, 375.6 623.6, 373.6 626.9 M 463 629.9 C 463 630.8, 463.7 632.8, 464.5 634.4 C 466.2 637.7, 465.8 639.8, 461.8 647.4 C 459.9 650.9, 459 658.3, 460.3 659.6 C 460.6 659.9, 461.7 659.6, 462.9 658.9 C 466.8 656.4, 466.3 659, 462.2 662.6 C 459.9 664.5, 458 666.6, 458 667.1 C 458 668.4, 464.7 668.2, 467 666.8 C 468.7 665.7, 469.2 665.8, 469.9 666.8 C 470.3 667.5, 473.6 668.3, 477.6 668.6 C 483.7 669.1, 484.6 669, 485.7 667.3 C 486.4 666.1, 486.5 664.8, 485.9 663.9 C 485.2 662.8, 485 662.8, 485 664.3 C 485 666.7, 483.6 666.4, 482 663.6 C 481.2 662.1, 480.9 659.5, 481.3 656.9 C 481.6 654.6, 481.4 651.6, 480.8 650.1 C 480.2 648.7, 479.8 643.8, 479.9 639.4 L 480.1 631.3 475.8 630.7 C 473.4 630.3, 469.6 629.7, 467.3 629.2 C 463.6 628.4, 463 628.5, 463 629.9 M 272 634.3 C 272 640.6, 267.5 650.7, 261.1 658.7 C 256.2 664.9, 256.2 665, 259.9 665 C 262.7 665, 266 667.9, 266 670.3 C 266 671.2, 262.7 670.5, 259.2 668.7 C 256.4 667.4, 254.7 669.2, 255.6 672.5 C 256.4 675, 256.1 674.7, 259.2 675.5 C 261.4 676.1, 262.6 675.5, 266.2 672.1 C 268.5 669.8, 270.8 668, 271.1 668 C 271.8 668, 273.4 663, 273.2 661.8 C 272.9 660.6, 275.8 660.9, 276.5 662 C 276.9 662.6, 276.1 663.9, 274.8 665 L 272.5 667 275.3 669.5 C 280.8 674.4, 284.9 672, 287.8 662.3 C 291.3 650.9, 291.6 643.8, 289 639.6 C 285.7 634.2, 278.9 629, 275.1 629 C 272 629, 272 629, 272 634.3 M 725 631 C 721.4 631.4, 705.9 631.9, 690.5 632 C 669.4 632.2, 664 632.5, 668.5 633.1 C 677.5 634.5, 765.4 632.4, 764.4 630.9 C 763.8 629.8, 734.4 630, 725 631 M 484.7 634.7 C 483.9 639.5, 483.9 645.8, 484.7 648.8 C 485.2 650.7, 485.7 651, 487.9 650.5 L 490.5 649.8 487.8 652.7 C 484.8 655.8, 483.8 661.4, 486.4 660.4 C 488.6 659.6, 491.3 651, 489.9 649.4 C 489.1 648.4, 489.4 647.3, 491.4 644.9 C 494.4 641.4, 495.3 638.5, 494.8 634.4 C 494.5 631.7, 494.1 631.5, 489.9 631.2 L 485.3 630.9 484.7 634.7 M 100.6 638.6 C 99.9 642, 100.2 643.8, 103.5 660 C 106 671.9, 110.9 685.5, 110.9 680.8 C 111 678.8, 109.5 672.5, 107.6 666.8 C 105.8 661.1, 104 653.9, 103.6 650.8 C 103.2 647.6, 102.4 645, 101.9 645 C 101.4 645, 101 643.5, 101.1 641.8 C 101.1 638.7, 101.2 638.6, 102.1 640.9 C 103.4 644.1, 104.4 642.9, 103.5 639.1 C 102.6 634.7, 101.3 634.5, 100.6 638.6 M 499.3 636.6 C 499.8 637.5, 498.4 642.1, 493.6 654 L 491 660.5 494.8 656.5 C 496.9 654.3, 500 650.1, 501.6 647.2 C 504.3 642.3, 504.4 641.8, 503 639.3 C 502.2 637.9, 500.9 636.5, 500.1 636.2 C 499.3 635.9, 499 636.1, 499.3 636.6 M 97.3 656.3 C 96 667.2, 97 674.7, 100.4 681.3 C 103.5 687, 105.4 696.6, 104.7 702.6 C 104.3 706.8, 104.4 707.1, 106.4 706.8 C 107.7 706.6, 108.3 705.9, 108.1 705 C 107.9 704.2, 107.8 700.4, 107.9 696.5 C 108 692.2, 107.7 690, 107.1 690.8 C 106.1 692.4, 105.4 689.2, 104.4 678.5 C 104.1 674.7, 102.9 668.2, 101.9 664.1 C 100.9 660, 100 654.7, 100 652.4 C 100 644.6, 98.4 647, 97.3 656.3 M 154.5 650.7 C 153.4 651, 151.6 651.9, 150.5 652.6 C 149.4 653.4, 146.1 654, 142.8 654 C 139.6 654, 137 654.4, 137 654.9 C 137 655.9, 151.8 657.5, 152.7 656.6 C 153.1 656.3, 152.5 656, 151.4 655.9 C 150.4 655.9, 151.5 655, 154 654 C 157.9 652.4, 160.3 652.2, 172 652.7 C 179.4 653, 185.2 652.9, 184.8 652.5 C 183.6 651.2, 158 649.7, 154.5 650.7 M 700.7 653.1 C 698.7 653.6, 695.8 654.7, 694.5 655.6 C 692.1 657.1, 692 657.1, 692 655.3 C 692 653.8, 691.2 653.4, 688.3 653.3 C 684.6 653.2, 684.6 653.2, 686.8 654.7 C 689 656.2, 689.8 660.4, 688.1 661.4 C 687.6 661.7, 686.9 663.1, 686.6 664.6 C 686.2 666, 684.9 668.8, 683.7 670.8 C 682.4 672.9, 680.6 677.1, 679.7 680.3 C 677.5 687.4, 676.6 687.6, 677.3 680.8 C 677.6 677.9, 677.5 673.3, 677.1 670.5 C 676.3 665.8, 676.3 665.7, 676.1 669.3 C 676 673.6, 674.5 674.2, 673.5 670.3 C 672.3 665.4, 661.9 652.8, 660.3 654.3 C 660 654.7, 660.2 656, 660.8 657.3 C 662.2 660.1, 663.9 668.8, 664.5 676.5 C 664.8 679.8, 665.5 684.3, 666.1 686.5 C 666.8 688.7, 667.6 694.3, 667.9 699 C 668.5 707.4, 668.6 707.5, 669.4 702.8 C 669.9 700.1, 670 696.5, 669.6 694.8 C 669.3 693, 668.4 686.5, 667.6 680.5 C 666.3 670.4, 665.7 667.1, 664.3 661.5 L 663.8 659.5 665.3 661.5 C 670.6 668.7, 673.7 677.7, 674.4 687.5 C 674.8 692.6, 674.7 693.7, 674 691.5 C 673.3 689, 673.2 689.2, 673.6 693 C 673.9 695.5, 674.4 700.5, 674.6 704.3 C 675.1 710.8, 677 713.9, 677 708.3 C 677 706.7, 678.2 702.4, 679.6 698.5 C 681 694.7, 682.4 690.6, 682.7 689.5 C 683.1 688.4, 684 686.5, 684.8 685.3 C 685.6 684, 685.9 682, 685.6 680.3 C 685.2 678.6, 686 674.6, 687.5 670 C 688.8 665.9, 690 662.8, 690.1 663.3 C 690.4 664.9, 690.3 667.6, 689.8 669 C 689.5 669.8, 688.6 672.6, 687.7 675.2 C 686.6 678.5, 686.5 680, 687.3 680.3 C 688.6 680.7, 685.7 692.1, 683.3 695.7 C 680.4 700, 682.5 699.9, 687.3 695.4 C 691 692, 692.7 691.1, 694.3 691.5 C 696.1 692, 696.2 691.9, 695 691 C 693.5 690, 695.3 688.1, 698.5 687.3 C 699.1 687.2, 700.9 686.6, 702.5 686.1 C 705.3 685.1, 705.3 685, 701.6 685.6 C 695.8 686.4, 698.5 683.6, 705.5 681.6 C 710.1 680.2, 711.2 680.2, 714.6 681.4 L 718.5 682.9 713 683 C 708.5 683.2, 708.1 683.4, 710.5 683.9 C 712.2 684.3, 714.8 684.3, 716.5 683.8 C 720.6 682.7, 721.3 682.8, 720.7 684.4 C 720.3 685.3, 721.1 685.7, 723.3 685.8 L 726.5 685.9 723.5 683.4 C 716.7 677.9, 707.3 677.2, 698.8 681.6 C 695.4 683.4, 695.4 683.2, 698.6 677.3 C 704.2 667.2, 705.3 666.4, 715 664.7 C 716.4 664.4, 715.1 664.4, 712.3 664.5 C 709.4 664.7, 707 664.5, 707 664.1 C 707 662.9, 711.5 659, 712.8 659 C 713.5 659, 714 658.3, 714 657.4 C 714 654.6, 701.8 658.3, 696.8 662.7 C 694.6 664.7, 691.8 663.7, 692.7 661.3 C 693.8 658.4, 697.2 656.1, 701.3 655.4 C 703.4 655, 705 654.2, 705 653.4 C 705 652.6, 704.9 652, 704.8 652.1 C 704.6 652.2, 702.8 652.6, 700.7 653.1 M 106.5 656.5 C 107.3 659.4, 112.4 675.6, 112.7 676 C 113.5 676.9, 129 657.5, 129 655.7 C 129 655.6, 123.9 655.5, 117.6 655.5 C 110.5 655.5, 106.4 655.9, 106.5 656.5 M 79 656.8 C 79 657.4, 80.4 659, 82.1 660.4 C 86 663.7, 93.3 673, 92.6 673.7 C 92.3 674, 91.8 673.5, 91.4 672.6 C 90.5 670.1, 88.8 670.7, 89.6 673.3 C 90.4 676, 90.7 676.3, 82.6 666.2 C 79 661.6, 76 658.2, 76 658.6 C 76 660.7, 83.8 674.6, 86.5 677.3 C 88.1 679, 89.4 681, 89.2 681.8 C 89 682.8, 89.4 683.1, 90.4 682.7 C 91.2 682.4, 92.2 682.6, 92.6 683.2 C 93.1 683.9, 92.8 684, 91.9 683.6 C 91.1 683.2, 91.4 683.6, 92.5 684.4 C 97.8 688.5, 101.1 692.6, 100.6 694.4 C 100.2 695.8, 100.4 696, 101.2 695.2 C 102.5 693.9, 99.1 681.8, 97.7 682.7 C 97.2 683, 96.9 682.4, 97.1 681.4 C 97.2 680.3, 97 678.7, 96.5 677.7 C 96.1 676.7, 96 675.6, 96.4 675.3 C 96.7 675, 96.5 674.1, 95.9 673.4 C 95.4 672.7, 94.8 669, 94.8 665 C 94.7 661.1, 94.4 657.7, 94.1 657.6 C 92.4 656.6, 79 655.9, 79 656.8 M 129.9 658.3 C 129 659.5, 126.6 663, 124.5 666 C 122.4 669, 119.9 672.3, 118.8 673.4 C 117.1 675.3, 115 680.9, 115 683.8 C 115 686, 118.8 681.8, 119.3 679 C 119.6 677.3, 119.8 677.8, 119.8 680.5 C 119.9 682.7, 119.1 689.1, 118.1 694.8 C 116.9 702, 116.7 705, 117.5 705 C 118.5 705, 119.6 700.2, 122 685.5 C 123.1 678.5, 125 671.9, 126.2 670.6 C 126.6 670, 127 668.8, 127 667.8 C 127 666.8, 127.4 666, 127.8 666 C 128.5 666, 132.3 657, 131.8 656.4 C 131.6 656.3, 130.8 657.2, 129.9 658.3 M 626 658.1 C 626 658.6, 628.7 661.6, 632 664.7 C 636.8 669.1, 647.9 683, 646.6 683 C 646.4 683, 644.3 682, 641.9 680.7 C 628.4 673.6, 617.4 673.3, 628.3 680.4 C 635.4 684.9, 637.1 686.8, 643.3 697 C 646.1 701.7, 649.1 706, 649.9 706.7 C 651.3 707.8, 651.1 707.9, 648.6 708 C 646.5 708, 645.9 707.6, 646.4 706.5 C 646.7 705.7, 646.8 705, 646.7 705 C 646.5 705, 643.7 705.5, 640.4 706.1 C 633.7 707.3, 629.8 709.4, 630.6 711.4 C 630.9 712.2, 630.2 713, 628.6 713.4 C 627.2 713.7, 626 714.5, 626 715.2 C 626 716, 628.3 716.1, 633.9 715.6 C 638.3 715.3, 644.9 715.4, 648.7 715.9 C 659.4 717.5, 664.5 717.9, 679.5 718.5 C 692.5 719.1, 702.8 720.8, 707.4 723.2 C 708.5 723.8, 709.6 723.8, 710.2 723.2 C 711 722.4, 705.8 720.5, 691 716.1 C 688.1 715.2, 689 715.1, 696 715.5 C 700.7 715.7, 705.9 716.3, 707.5 716.9 C 721.8 721.7, 726.4 722.4, 720.8 718.8 C 717.2 716.6, 707.1 713, 705.7 713.5 C 705.1 713.8, 703.2 713.6, 701.6 713.2 C 698.7 712.4, 698.8 712.3, 704.2 710.6 C 710 708.8, 718.1 709.1, 720.7 711.2 C 721.4 711.7, 722.4 711.9, 723 711.5 C 725.1 710.2, 720.4 708, 713.4 707.1 C 706.7 706.1, 701 706.6, 701 708 C 701 708.4, 699.4 709.1, 697.5 709.4 C 695.6 709.8, 694 710.5, 694 710.9 C 694 711.4, 692.5 712.1, 690.8 712.4 C 689 712.7, 686.2 713.7, 684.6 714.5 C 680.4 716.7, 680.1 715.4, 684.1 712 C 690.1 706.8, 703.8 701.1, 711 700.8 C 715.9 700.6, 716.5 700.9, 714.4 702.5 C 712.5 703.9, 712.5 703.9, 714.5 703.9 C 716.8 703.9, 720.5 701.4, 719.3 700.8 C 718.9 700.5, 719.1 700.5, 719.9 700.7 C 724.7 702, 731.8 702.1, 732.5 700.9 C 733.1 700.1, 732.9 699.9, 732.1 700.5 C 730.7 701.3, 726 699.2, 726 697.8 C 726 696.2, 731.8 697.1, 736.5 699.4 C 739.8 701.1, 742.2 701.7, 744.2 701.3 C 747.6 700.6, 746.5 698.5, 742.2 697.7 C 740.7 697.4, 736.9 696.2, 733.7 695.1 C 723.8 691.5, 698.2 692.3, 700.6 696.2 C 700.9 696.6, 701.9 696.6, 702.8 696.1 C 703.7 695.7, 707.4 695, 711 694.6 L 717.5 694 711 696.1 C 707.4 697.2, 702.3 698.9, 699.5 699.7 C 696.8 700.6, 694 701.7, 693.4 702.1 C 692.8 702.6, 692.1 702.7, 691.7 702.4 C 691.4 702.1, 688.4 704.5, 685.1 707.8 C 678.4 714.4, 677 713.9, 682.4 706.8 C 685.8 702.4, 693.3 696.8, 699.5 694.1 C 701.2 693.3, 702 692.5, 701.3 692.3 C 695.9 690.3, 676.1 708.2, 677.5 713.9 C 677.8 715.5, 677.7 716, 677.2 715.2 C 676.6 714.3, 675.6 714.2, 673.9 714.8 C 671.6 715.7, 670.5 715.6, 667 714.3 C 666.2 714, 663.8 713.8, 661.8 713.9 C 658.8 714.1, 657.8 713.7, 656.3 711.3 C 655.3 709.8, 653.6 707.5, 652.5 706.2 C 648.5 701.5, 640.2 688.6, 640.6 687.6 C 640.7 687, 639.1 685, 636.8 683.3 C 634.6 681.5, 633.1 680, 633.5 680 C 634.9 680, 646.5 684.3, 647.5 685.2 C 652.6 689.7, 644.7 674.1, 638.1 666.8 L 633.5 661.7 638 664.5 C 655.2 675.2, 665 689.4, 665 703.6 C 665 706.4, 665.3 707.1, 666.1 706.3 C 667.4 705, 666 695.1, 663.3 686.6 C 661.5 681, 655.7 674.2, 647 667.5 C 636.9 659.7, 626 654.8, 626 658.1 M 701.7 662.2 C 696.6 665.4, 692.8 671.8, 691.4 679.8 C 691 681.8, 690.1 684.7, 689.4 686.2 C 688.6 687.7, 688 689.2, 688 689.6 C 688 690.8, 691.7 685.5, 692.4 683.3 C 692.8 682, 693.5 681, 693.9 681 C 694.3 681, 695.7 678.9, 697 676.3 C 699.4 671.3, 704.5 663.4, 706.7 661.2 C 709.9 657.9, 707.7 658.4, 701.7 662.2 M 582 677.4 L 579.5 679.8 557.7 678.7 C 542.6 678, 535.6 678, 534.9 678.7 C 534.1 679.5, 540.9 680, 556.7 680.4 C 569.2 680.8, 580.6 681.5, 582 682 C 585.3 683.2, 605 683.8, 605 682.8 C 605 681.5, 603.1 681.1, 593.2 680.7 C 588.1 680.5, 583.7 680, 583.3 679.6 C 582 678.4, 601.6 679.1, 605.5 680.5 C 609.9 682.1, 611.1 681.7, 608.9 679.5 C 608.1 678.6, 603.1 677.4, 597 676.5 C 583.8 674.6, 584.9 674.6, 582 677.4 M 390.2 680 C 388.1 681.3, 386.7 683.1, 386.4 685 C 386 686.6, 385.5 687.9, 385.1 687.8 C 383.3 687.4, 378.8 689.5, 378 691 C 376.5 693.9, 379.2 695.4, 384.5 694.6 C 388 694, 389.4 694.2, 390.6 695.5 C 391.8 696.6, 392.6 696.8, 393.3 696.1 C 395.3 694.1, 392 692.1, 386.2 691.8 L 380.5 691.5 384.4 689.6 C 387.2 688.4, 389.6 688, 392.3 688.4 C 397.8 689.3, 406 688, 406.8 686.2 C 407.1 685.2, 406 683.5, 403.5 681.3 C 399 677.4, 395.1 677, 390.2 680 M 56.4 682.9 C 56.8 683.5, 57.7 684, 58.5 684 C 62.7 684, 86.1 699.6, 89.3 704.5 C 91.6 708.1, 93.7 709.3, 92.5 706.3 C 91.4 703.6, 90.8 700.2, 91.7 702 C 93.6 705.6, 95.6 708, 96.8 708 C 98.7 708, 96 703.4, 90.7 697.4 C 86.5 692.8, 78.6 688, 72 685.9 C 69.8 685.2, 69.7 685.2, 71.6 685.1 C 81.5 684.7, 95.4 694.1, 98.1 702.9 C 99.5 707.6, 101 708.3, 101 704.3 C 101 701, 97.6 694.7, 92.4 688.4 C 87.3 682.2, 85.6 681.4, 83 684 C 80.9 686.1, 78.1 686, 75.3 683.8 C 74.7 683.3, 72.2 682.9, 69.8 683 C 67.5 683, 63.3 682.7, 60.6 682.4 C 57.2 682, 55.9 682.1, 56.4 682.9 M 540.3 692.7 C 537.4 692.9, 535 693.6, 535 694.1 C 535 694.8, 539.1 694.9, 547.4 694.4 C 559.1 693.8, 559.8 693.8, 561.9 695.9 C 563 697, 564.8 698, 565.8 698 C 567.2 698, 567.3 697.8, 566 697 C 563.7 695.5, 565.7 694.6, 568.5 695.8 C 571.9 697.3, 575.3 697.3, 574.8 695.8 C 573.9 693.2, 554.6 691.5, 540.3 692.7 M 304.5 698.4 C 296.8 701.1, 300.1 701.7, 311.5 699.6 C 319.7 698.2, 321.6 698.3, 319 700.1 C 317.8 700.9, 318.1 701, 320 700.6 C 321.4 700.3, 324.3 700, 326.5 700 C 331.1 700, 330.2 698.8, 324.4 697.2 C 318.5 695.5, 311.5 695.9, 304.5 698.4 M 189 703.7 C 184.3 704.7, 181.7 705.9, 179.5 708 L 176.5 711 179.4 711 C 181 711, 183.8 712, 185.7 713.1 C 191.8 716.9, 242 717.2, 242 713.5 C 242 710.6, 235.8 707.6, 229 707.2 C 224.9 707, 220.6 705.9, 217.3 704.4 C 211.2 701.6, 200 701.3, 189 703.7 M 197 705 C 196.2 705.5, 193.7 706, 191.5 706 C 186.5 706, 183 706.9, 183 708.2 C 183 708.7, 184 709.1, 185.3 709 C 188.8 708.7, 189.6 709, 188 710 C 183.7 712.7, 201.5 714.5, 222.8 713.5 L 238.4 712.7 236 710.8 C 234.1 709.3, 232.3 708.9, 227.4 709.1 C 223.9 709.2, 220.5 708.9, 219.8 708.3 C 214.8 704.3, 201.1 702.3, 197 705 M 450.5 712 C 449.4 712.5, 447.4 712.9, 446 712.9 C 444.7 713, 440.4 714.5, 436.5 716.4 C 432.7 718.3, 428.6 720.1, 427.6 720.4 C 424.7 721.4, 425.9 721.8, 433 722.5 C 448.6 723.9, 469.3 724.2, 473.1 723.1 C 475.2 722.5, 478.8 721.5, 481 720.8 C 485.6 719.5, 486.2 717.5, 482.3 716.5 C 480.8 716.2, 478.3 714.8, 476.7 713.4 C 474.1 711.2, 473.1 711, 463.2 711.1 C 457.3 711.1, 451.6 711.5, 450.5 712 M 450 714.6 C 447.5 715.3, 444.2 715.9, 442.7 715.9 C 439.9 716, 435 718.6, 435 720 C 435 720.4, 436.9 720.8, 439.3 720.9 C 441.6 721, 448.9 721.3, 455.5 721.6 C 466.2 722.1, 472.8 721.5, 480 719.3 C 482.2 718.7, 479.3 717.1, 475.5 716.9 C 473.7 716.8, 473.2 716.6, 474.3 716.3 C 476.1 715.8, 476.1 715.8, 474.3 714.4 C 471.8 712.5, 467.3 712.7, 466.2 714.7 C 465.3 716.3, 465.1 716.3, 463.5 714.7 C 461.6 712.7, 456.6 712.7, 450 714.6 M 529.7 717.6 C 529.3 718, 527.8 718.4, 526.2 718.5 C 521.9 718.9, 517.1 721.5, 511.5 726.6 L 506.5 731.1 514 730.5 C 518.1 730.2, 528.4 729.9, 536.8 729.9 C 546.2 729.8, 552.2 729.4, 552.6 728.8 C 553.4 727.6, 547.1 722, 541.7 719.1 C 538 717.1, 531.1 716.3, 529.7 717.6 M 530.7 719.6 C 530.4 720, 528 720.6, 525.5 721.1 C 523 721.6, 520.4 722.4, 519.7 723 C 519.1 723.5, 517.4 724.9, 516 726 L 513.5 727.9 531.5 728 L 549.5 728 546.4 725.1 C 541.6 720.6, 532.8 717.5, 530.7 719.6 M 379.5 723.5 C 377.3 724.3, 374.7 725, 373.8 725 C 372.8 725, 372 725.5, 372 726 C 372 726.6, 373.9 727, 376.3 727.1 C 378.6 727.1, 386.8 727.3, 394.5 727.6 C 408.3 728, 411.5 727, 401 725.4 C 398.5 725, 395.6 724.1, 394.5 723.4 C 392 721.6, 384.6 721.7, 379.5 723.5 M 599.8 722.5 C 599.6 722.7, 595.9 723, 591.5 723.1 C 587.1 723.2, 582.3 723.8, 580.7 724.5 C 578.6 725.4, 581.1 725.5, 593 725.2 C 602.4 724.9, 610.4 725.2, 614.3 725.9 C 625.4 728.1, 625.7 728.1, 623.9 727.1 C 619.6 724.4, 601.4 721, 599.8 722.5 M 209.5 724.6 C 202.6 726.4, 197.2 729, 196.6 730.6 C 196.3 731.4, 196.2 732, 196.3 732.1 C 205.1 735.2, 239.1 736, 239 733.1 C 238.9 730.9, 218.8 722.4, 215.2 723.1 C 214.8 723.2, 212.3 723.9, 209.5 724.6 M 97.7 726.5 C 96.2 727.3, 93.2 728.2, 91.2 728.6 C 85.8 729.6, 81.8 731.5, 79 734.3 C 76.7 736.5, 75.4 736.8, 65.2 737.3 C 58.7 737.6, 53.2 738.4, 52.4 739.1 C 50.2 740.9, 51.1 741, 57.2 740 C 60.3 739.6, 66.1 739, 70.1 738.9 C 76.4 738.7, 78 738.3, 81 736 C 85.5 732.5, 88.4 731, 90.7 731 C 91.7 730.9, 94.3 730.1, 96.5 729 C 101 726.8, 110.3 726.4, 115.9 728.1 C 120.4 729.5, 130 734.2, 130 735.1 C 130 735.4, 121.2 736, 110.4 736.3 C 99.6 736.6, 90.6 737.1, 90.3 737.4 C 88.6 739, 92 739.2, 101.3 738.2 C 106.9 737.5, 117.5 737, 124.9 737 L 138.2 737 137.6 739.5 C 137 742, 137 742, 143.7 742 C 147.5 742, 151.6 742.3, 152.9 742.7 C 154.7 743.1, 155.2 742.9, 154.8 741.9 C 154.5 741, 152.6 740.4, 149.4 740.2 C 142.2 739.9, 140.3 739.2, 139.7 737.1 C 139.4 735.9, 138 734.9, 135.9 734.5 C 134.1 734.1, 130.8 732.7, 128.7 731.3 C 119.9 725.8, 103.9 723.2, 97.7 726.5 M 207.1 727.5 C 200 729.3, 198.3 731, 203.6 731 C 205.9 731, 209.9 731.7, 212.6 732.5 C 219.6 734.6, 233 734.3, 233 732.1 C 233 731.7, 230.9 730.3, 228.4 729.1 C 222.8 726.3, 214.3 725.6, 207.1 727.5 M 708.5 730 C 708.2 730.6, 707.1 731, 706.1 731 C 703.9 731, 700.5 734.6, 701.9 735.4 C 702.4 735.8, 704.1 734.9, 705.6 733.5 C 708.9 730.5, 716.1 730.1, 722.7 732.6 C 728.2 734.7, 728.2 736.3, 722.8 735.6 C 714.2 734.5, 706.7 734.5, 706.3 735.6 C 705.8 737, 729.8 738.6, 731.2 737.2 C 732.7 735.7, 728.5 732.4, 723 730.6 C 717.5 728.8, 709.4 728.5, 708.5 730 M 249.5 732.1 C 247.9 733.1, 245 734.3, 243.2 734.6 C 241.4 734.9, 239.7 735.6, 239.4 736.1 C 238.5 737.6, 243.3 737.1, 246.5 735.3 C 252.4 732.1, 264.9 733.9, 269.2 738.7 C 270.9 740.5, 270.5 740.6, 255.3 741.8 C 241.9 742.9, 239.5 742.9, 238.1 741.6 C 236.7 740.4, 236.3 740.4, 235.2 741.6 C 234.4 742.5, 231.7 743, 227.7 743 C 224.3 743.1, 220.2 743.6, 218.6 744.3 C 215.1 745.8, 236.1 745.6, 254.6 744 C 260.6 743.4, 267.9 743, 270.8 743 C 275.9 743, 277.7 741.6, 274.3 740.3 C 273.3 739.9, 271.7 738.6, 270.8 737.4 C 269.2 735.4, 260.6 731.7, 255 730.7 C 253.5 730.4, 251.3 731, 249.5 732.1 M 487 735.1 C 485.1 735.7, 481.3 736.5, 478.5 737.1 C 473 738.2, 469.9 739.5, 465.7 742.5 C 463.3 744.2, 461.5 744.4, 452.2 744.2 C 440.9 744, 427.9 745.8, 427.3 747.6 C 427 748.4, 428.6 748.4, 432.7 747.8 C 436.2 747.2, 444.9 747.1, 454.5 747.6 C 475.5 748.7, 487.4 748.6, 511 747.2 C 521.7 746.6, 530.9 746.1, 531.3 746 C 531.8 746, 531.8 745.6, 531.5 745 C 531.2 744.4, 526.4 744, 520.6 744 C 510.7 744, 510.3 743.9, 509.2 741.5 C 506.9 736.5, 494.6 732.9, 487 735.1 M 333.9 736.6 C 331.4 737.4, 328.4 739, 327.4 740.1 C 324.1 743.8, 327.4 745, 338.9 744.3 C 350.1 743.6, 353.3 742.7, 352.8 740.3 C 352.5 738.8, 341.6 734.8, 339 735.1 C 338.7 735.2, 336.4 735.8, 333.9 736.6 M 486.5 737.5 C 484.3 738.3, 480.3 739.3, 477.5 739.6 C 472.7 740.3, 466 743.4, 466 745 C 466 746.7, 481.3 747.3, 490.5 746 C 495.4 745.3, 501.2 744.6, 503.3 744.3 C 508.3 743.6, 507.7 742.1, 501 738.8 C 495 735.7, 492.3 735.4, 486.5 737.5" stroke="none" fill="#1b1f3a" fill-rule="evenodd"/></svg>