<svg xmlns="http://www.w3.org/2000/svg" viewBox="0 0 768 768" version="1.1" preserveAspectRatio="xMidYMid meet"><path d="M 767.5 384 C 767.5 595.5, 767.6 682, 767.8 576.3 C 767.9 470.5, 767.9 297.5, 767.8 191.8 C 767.6 86, 767.5 172.5, 767.5 384 M 360.7 80.3 C 357 83.2, 348.1 104.4, 348 110.5 C 348 113.3, 347.6 113.6, 341.7 115.3 C 330.8 118.6, 322.2 126.8, 321.1 135.3 C 320.6 138.7, 320 139.5, 317.5 140.3 C 311.1 142.3, 306.6 149, 305.4 158.1 C 304.8 163, 299.1 175.6, 294.8 181.3 C 291 186.4, 257.7 142.7, 244.3 115 C 242.1 110.3, 238.4 102.6, 236.1 97.8 C 232 89.2, 229.2 86.5, 226.2 88.4 C 224 89.7, 221.9 99.4, 220.3 114.9 C 217.2 145.7, 222.4 175.9, 235.2 201.1 L 239.1 208.8 237.1 212.1 C 232.7 219.7, 228 236.4, 228 244.6 C 228 247, 228.8 251.7, 229.7 255 C 231.3 260.9, 231.3 261.2, 229 268.1 C 225.7 278.3, 226.4 290.5, 231 301 C 232.9 305.1, 234.7 308.9, 235.2 309.5 C 235.6 310, 236 315.4, 236 321.5 L 236 332.5 230.2 335.6 C 218.6 341.8, 215.6 349.7, 215.5 374 C 215.5 389.8, 216.3 393.5, 222.3 403.2 C 227.7 412.2, 243.9 424, 250.7 424 C 251.9 424, 253.8 424.9, 254.8 426 C 259.3 431.2, 262.2 434, 263 434 C 265.7 434, 263.2 435.9, 256.1 439.4 L 248.1 443.3 242.6 438.3 C 233.5 429.9, 228.9 429.8, 219.4 437.5 C 205.9 448.6, 196.1 479.6, 196 511.5 C 196 521.9, 197.7 541.1, 199 545.5 C 199.4 547.2, 200.8 552.1, 202 556.5 C 212.1 594.7, 237 632.5, 269.4 658.7 L 273.3 661.8 268.4 664 C 261.2 667.3, 254 672.8, 254 675.1 C 254 676.9, 254.4 676.8, 257.9 674 C 261.5 671.1, 274.7 665, 277.5 665 C 278.1 665, 281.8 667, 285.6 669.5 C 301.9 680.3, 321.6 687.7, 348 692.9 C 357.1 694.8, 357.3 694.8, 352.2 694.9 C 349.2 695, 341.6 694.6, 335.2 694 C 320.8 692.8, 240.8 692.2, 241.9 693.3 C 243.6 695, 269.2 696.8, 299.5 697.4 C 317.1 697.8, 338.9 698.5, 348 699.1 C 375.4 701, 505.6 698.3, 522 695.5 C 534.9 693.4, 543.8 691, 545.2 689.3 C 546.1 688.1, 545.9 688, 543.9 688.4 C 521.7 693.1, 511.2 693.9, 452.6 695 C 424.7 695.6, 401.3 696.3, 400.8 696.6 C 400.3 697, 390.8 696.8, 379.7 696.4 L 359.5 695.5 382 694.9 C 406.9 694.2, 419.4 692.2, 438.5 685.8 C 449 682.3, 461.2 679.9, 471.5 679.4 C 480.6 678.9, 484.1 679.2, 491.9 681.6 C 493.7 682.1, 494.2 682, 493.8 680.9 C 493 678.4, 484.1 674.9, 476.7 674.3 C 466.9 673.5, 469.3 672.7, 500 667.4 C 517.9 664.2, 557 660.2, 577.9 659.3 C 594.4 658.7, 605.9 661.5, 606 666.4 C 606 667, 606.8 668.4, 607.7 669.5 C 609.2 671.4, 609.2 671.4, 608.5 668.5 C 607.5 664.1, 603.5 660.4, 597.7 658.5 C 592.7 656.9, 565.2 656.1, 562.9 657.5 C 561.5 658.4, 535.8 661, 518.5 662 C 504.4 662.8, 484.1 665.3, 480.6 666.6 C 477.7 667.7, 478.9 665.3, 481.8 664.1 C 493.6 659.2, 521.1 633.6, 538.3 611.5 C 566.4 575.3, 580.8 527.9, 576.9 484.5 C 574.6 459.2, 574.8 460.5, 571.9 460.7 C 569.7 460.8, 568.9 460.2, 567.6 457.2 C 565 451.6, 567.2 447.8, 579.8 435.1 C 595.3 419.7, 603 407.1, 603.8 396 C 604.1 391.4, 603.8 390.1, 602 388.3 C 599.1 385.2, 598.3 385.3, 591.3 390.5 C 585 395.2, 578.6 398, 574.1 398 C 571.7 398, 571.3 397.4, 569.6 391.8 C 567.1 382.9, 565.5 379.7, 558.9 369.9 C 552.4 360.4, 552 358.9, 555.1 353 C 556.2 350.8, 557.4 346.3, 557.7 343 C 558.2 337.8, 558.6 337, 560.3 337 C 564.3 337, 573.3 333.5, 576.2 330.8 C 578.7 328.4, 579.1 327.6, 578.5 324.8 C 577.6 320.8, 574.9 316.8, 571.5 314.6 C 567 311.6, 568.1 308.5, 574.9 305 C 587.9 298.5, 589.9 287.7, 579.8 279.2 C 576.2 276.1, 576.3 274.1, 580.1 271 C 589.5 263.3, 589 254.1, 578.9 248.6 C 573.5 245.6, 573.4 245.4, 575.4 242.4 C 577.6 239.3, 579.2 232.2, 578.5 228.8 C 577.7 225.3, 573.5 222.4, 567.8 221.5 C 563.5 220.7, 563.5 220.8, 556.7 204 C 550.1 187.6, 550.4 189.6, 553.6 183.6 C 556.4 178.2, 556.4 178.2, 554.6 174.3 C 552.7 170.1, 543.8 163.3, 538.9 162.3 C 536.7 161.9, 536.2 161, 534.6 154.2 C 533.6 149.9, 532.2 145, 531.5 143.3 L 530.1 140 521.8 140.1 C 516.2 140.1, 512 140.7, 509 141.9 L 504.5 143.8 498.8 140.9 C 492.1 137.5, 489.7 135.2, 486.4 128.8 C 483.4 123, 481.4 122.3, 471.7 124 L 464.5 125.2 454.8 120.2 C 441.9 113.6, 434.4 111.2, 423 110 C 417.8 109.4, 409.6 108.5, 404.9 108 C 400.1 107.4, 394.4 107, 392.1 107 C 387.2 107, 382.9 103.1, 372.5 89.2 C 366 80.5, 363.2 78.4, 360.7 80.3 M 363.5 89 C 363.1 90.6, 362.5 92.2, 362.1 92.5 C 361.6 92.7, 361.5 94.1, 361.7 95.5 C 362.3 98.4, 364 97.9, 364.1 94.7 C 364.1 93.5, 365.7 97.3, 367.7 103.3 C 371.6 114.6, 372.4 115.4, 375.8 111.8 C 379.7 107.5, 379.5 105.1, 374.8 97.9 C 366.4 85.1, 364.6 83.8, 363.5 89 M 227.3 99.6 C 225.4 106.4, 226.5 147, 228.9 156.5 C 230.1 161.5, 231.5 167.5, 232.1 170 C 234.3 180.4, 245.3 205.4, 249.4 209.5 C 251.2 211.4, 253.1 211.6, 258.3 210.6 C 260.6 210.2, 262 210.3, 262 210.9 C 262 211.5, 259.8 212.2, 257 212.6 C 251.5 213.3, 251.3 213.6, 253.6 216.8 C 254.9 218.6, 256.1 219, 260.9 219 C 269.3 219, 276.2 215.3, 280.6 208.4 C 284.9 201.7, 284.9 198.1, 280.9 190.6 C 276.6 182.7, 278 182.4, 282.9 190.1 C 287.6 197.5, 287.9 200.4, 284.8 206.9 C 279.8 217, 273 221.2, 258 223.3 C 255.5 223.6, 255.5 223.6, 258.5 224.9 C 264.5 227.5, 277.3 224.5, 283.4 219.2 C 287.8 215.3, 293 203.5, 293 197.5 C 293 196, 293.4 195.1, 294 195.5 C 295.4 196.4, 295.2 201.7, 293.5 207.3 C 289.8 219.7, 277.7 229, 265.4 229 C 260.3 229, 260.1 229.1, 261.2 230.9 C 262.7 233.3, 269.4 236, 273.7 236 C 286.8 236, 302.2 221.8, 302.2 209.8 L 302.2 204.9 303.7 207.7 C 307.7 215.4, 299 229, 286 235.5 C 279.7 238.7, 268.8 240, 265.2 238.1 C 262.3 236.5, 262.2 239.2, 265 242 C 272.3 249.3, 304.3 235.5, 312.6 221.5 C 316.1 215.5, 316.9 208.7, 314.5 206 C 311.8 203, 310.9 203.6, 311.6 208 C 312 210.1, 312 213.4, 311.6 215.3 C 310.9 218.8, 305.3 227.6, 304.3 226.7 C 304 226.4, 304.7 224.8, 305.9 223.1 C 308.4 219.6, 309.5 212.9, 308.6 206.6 C 307.9 202.1, 307.6 201.8, 297.7 194.8 C 276.8 180, 258.3 156.6, 240.9 123.1 C 238.5 118.5, 236.4 115.3, 236.2 115.9 C 235.1 119.3, 252.1 158.4, 257.5 164.9 C 258.8 166.3, 261.2 170.2, 263 173.5 C 264.8 176.8, 269.3 184.2, 273.1 189.9 C 276.9 195.6, 279.8 200.6, 279.5 200.8 C 278.7 201.7, 275.4 198.1, 273.4 194.2 C 272.4 192.2, 271.2 190.3, 270.9 190 C 270.6 189.7, 269 187.3, 267.4 184.7 C 265.8 182, 263.8 178.8, 263 177.5 C 257.3 168.8, 247.8 152.4, 245.3 147 C 240 135.6, 239 133.2, 239 132.1 C 239 131.5, 238.6 130.2, 238.1 129.2 C 236.6 126.5, 234.1 117.8, 233.5 112.9 C 232.7 107.7, 230.1 98.9, 228.9 97.6 C 228.5 97.1, 227.8 98, 227.3 99.6 M 357 100.9 C 357 101.5, 357.5 102.2, 358 102.5 C 358.6 102.8, 359 103.9, 358.9 104.8 C 358.9 105.9, 358.6 106, 358.3 105.3 C 356.3 100.3, 354.6 110.4, 355.9 119.5 C 356.9 126.3, 361.4 155.2, 363 165 C 363.6 168.6, 364.1 180.1, 364.2 190.5 C 364.2 210.5, 363.9 212.3, 357.9 226.8 C 356.6 229.9, 356.7 230.1, 359.8 233.3 C 363 236.5, 363.1 236.5, 373 236.4 C 383.8 236.4, 384.8 237.4, 375.7 239 C 371.1 239.9, 368.9 239.8, 364.2 238.5 C 361.1 237.6, 357.6 236.8, 356.6 236.6 C 355.4 236.5, 354.2 235, 353.5 233 C 352 228.6, 350.8 231.3, 352 236.3 C 353.5 243.2, 357.7 247.3, 369.5 253.6 C 379.9 259.2, 391.4 257.6, 398.8 249.7 C 403.5 244.7, 405.4 231.1, 402.4 224.2 L 400.7 220.5 399.1 230.5 C 398.1 236, 396.6 241.7, 395.6 243.2 C 391 250.2, 377.7 253.2, 369 249.2 C 363.6 246.8, 356 240.4, 356 238.4 C 356 236.4, 356.9 236.7, 359 239.3 C 364.5 246.3, 379.2 249.8, 387.2 246 C 393.7 243, 394.6 241.1, 395.9 227.9 C 397.1 215.1, 396.8 213.2, 391 196.5 C 389.3 191.6, 387 184.8, 385.8 181.5 C 384.7 178.2, 382.5 172.7, 380.9 169.2 C 379.3 165.7, 378 162.6, 378 162.4 C 378 162, 376.2 157.8, 373 150.5 C 372.5 149.4, 371.2 146.3, 370 143.5 C 368.8 140.8, 367.5 137.6, 367 136.5 C 364.4 130.6, 361.9 119.7, 362.4 116.8 C 362.8 114.6, 362.7 114.2, 362.2 115.4 C 361 118.1, 360 115.4, 360.7 111.5 C 361.2 109.4, 361 108.9, 360 109.5 C 359 110.1, 358.8 109.6, 359.3 107.3 C 360 103.9, 359.2 100, 357.9 100 C 357.4 100, 357 100.4, 357 100.9 M 380.2 117.1 C 375.6 120.8, 375.1 121.5, 376.4 122.8 C 377.5 124, 378.5 124, 381.6 123 C 385.3 121.9, 401.1 115.9, 401.9 115.3 C 403 114.6, 400.9 114.1, 393.5 113.5 L 385.5 112.9 380.2 117.1 M 405 118.5 C 399.3 121.4, 383.9 127, 381.7 127 C 378.3 127, 378.9 129.9, 385.1 142.1 C 388.4 148.9, 391.4 154.7, 391.6 154.9 C 392.3 155.7, 395.4 152.4, 402.7 143.2 C 407.3 137.4, 413.4 131.3, 419.1 126.9 C 424 123, 428 119.4, 428 119 C 428 115.5, 411.6 115.2, 405 118.5 M 364.6 122 C 365 123.9, 365.6 126.1, 366.1 127 C 366.6 127.8, 367.9 130.8, 369.1 133.5 C 375 147.3, 384.6 166, 385.8 166 C 389.7 166, 388.9 164, 373.4 136.4 C 369.3 129, 365.5 122, 365 120.8 C 364.2 118.9, 364.1 119.2, 364.6 122 M 427.8 121.8 C 426.5 123.3, 422.6 126.8, 419.3 129.5 C 415.8 132.4, 409.2 139.9, 403.6 147.4 L 394 160.2 395.9 163.4 C 396.9 165.1, 398.3 168.8, 399.1 171.7 L 400.4 176.9 403.7 171.4 C 405.5 168.4, 407 165.6, 407 165.2 C 407.1 164.8, 408 162.7, 409.1 160.5 L 411.1 156.5 410.4 160 C 410.1 161.9, 407.2 168.9, 404 175.5 C 397 189.9, 396.6 191.3, 398 194 C 399.4 196.6, 399.9 196.5, 403.4 193.5 C 408.7 189, 409.4 190.3, 405 196.4 C 400.9 202, 401.9 205.6, 407.7 206.5 C 431.7 210.4, 445.2 217.1, 461.5 233.5 C 471.3 243.2, 476.3 251.5, 477.8 260 C 478.4 263.9, 479.1 264.9, 483.2 267.5 C 490.5 272.2, 491.4 274.9, 489.4 286.5 C 488.5 291.8, 488.1 297.5, 488.4 299.3 C 488.8 301.1, 489.1 303.5, 489 304.8 C 489 306.8, 489.4 307, 491.3 306.4 C 492.5 306, 494.2 305.5, 495 305.3 C 495.8 305, 495.1 306.1, 493.3 307.7 C 490.1 310.5, 488 314.5, 488 317.8 C 488 319, 489.3 318.2, 492.1 315.2 C 496 311.3, 498 310, 498 311.8 C 497.9 312.2, 495 315.4, 491.5 319 C 482.6 328, 481 334.9, 489.1 329.6 C 491.3 328.1, 493.4 327.1, 493.8 327.4 C 494.6 328.3, 487.9 335, 486.2 335 C 485 335, 485 335.3, 486.1 336.6 C 487.4 338.2, 490.6 338.2, 500.3 336.4 C 502.7 336, 504 336.2, 504 336.9 C 504 338.8, 499.9 340.2, 494.9 339.8 C 492.2 339.7, 490 339.8, 490 340.1 C 490 341, 498.6 343.7, 503.8 344.6 C 511.1 345.7, 508.7 347.3, 500.8 346.5 C 492.3 345.7, 488 343.7, 482.5 338 C 477.9 333.3, 477.3 328.2, 480.5 322 C 482 319.2, 482.6 315.1, 483.2 302 C 483.7 292.9, 484.3 283, 484.6 280 L 485.2 274.5 481.3 272.3 C 475.5 269, 473.7 266.6, 472.9 260.6 C 472 253.4, 469.7 248.9, 463.6 242.2 C 452.7 230.3, 438.7 221.1, 425.5 217.3 C 419 215.4, 405.8 212.9, 405.2 213.5 C 404.6 214.1, 409.8 222.8, 412.9 226.2 C 417.2 231, 419 235.2, 419 240.4 C 419 252.6, 425.2 269, 433.2 277.7 C 436.6 281.3, 434.7 282.2, 430.7 278.9 L 427 275.9 427 294.2 L 427 312.5 424 316.1 C 420.9 319.9, 411.9 324.8, 406.6 325.6 C 403.1 326.1, 402.4 326.6, 412.7 321.7 C 415 320.6, 418.2 318.4, 419.7 316.8 L 422.5 313.9 422.8 293.5 L 423.1 273.1 418.7 264.8 C 415.9 259.4, 414.1 254.6, 413.7 251.2 C 413.1 245.7, 410.2 238, 408.8 238 C 408.4 238, 407.7 239.9, 407.4 242.1 C 405.8 252.2, 396.1 259.4, 384 259.4 C 379.9 259.5, 376.2 259.9, 375.9 260.3 C 375 261.6, 359.4 253.1, 354.9 249 C 345.9 240.7, 344.8 231.4, 351.6 222.2 C 354.5 218.3, 356.4 214.6, 356.7 212.2 L 357.2 208.3 351.9 207.7 C 335.7 205.8, 329 205.7, 329 207.3 C 329 208.2, 329.5 209.2, 330 209.5 C 333.4 211.6, 329.5 224.2, 323.4 231 C 316 239.2, 297.9 251, 292.9 251 C 291.9 251, 290.8 251.5, 290.5 252 C 290.1 252.6, 283.4 253, 273.5 253 L 257.2 253 254.2 249.3 C 251.2 245.6, 251.2 245.5, 249.1 247.4 C 247.9 248.5, 247 249.7, 247 250.2 C 247 250.6, 245.3 252.7, 243.3 254.9 C 232.7 265.8, 232.1 290.1, 242 304.5 L 245.2 309.2 243.6 318.1 C 241.6 328.8, 241.8 329.3, 247 327.3 C 251.1 325.7, 251.9 324.3, 249.9 322.3 C 248.4 320.8, 246.1 309.6, 246 303.8 C 246 299.9, 246.3 299, 247.8 298.9 C 249.2 298.9, 249.1 298.6, 247.3 297.3 C 244.5 295.4, 244.2 292.6, 246.8 293.4 C 248.4 293.9, 248.5 293.5, 248.2 290.4 C 247.9 287.7, 248.1 286.9, 248.9 287.5 C 249.6 287.9, 250.9 287.5, 251.8 286.7 C 252.7 285.9, 255.7 284.5, 258.3 283.5 C 274.4 277.5, 284.9 300.2, 274.5 318.7 C 272.3 322.6, 272.3 323, 273.9 323 C 274.9 323, 276.3 323.7, 277 324.5 C 278.1 325.8, 277.6 326, 273.9 326.1 C 269.1 326.2, 269.1 326.2, 279.2 328.8 C 282.9 329.8, 287.7 332.7, 290 335.5 C 292 338, 290.3 338.6, 287.2 336.4 C 282.5 333.1, 267.7 328, 266.4 329.3 C 266.2 329.5, 269.2 331.4, 273 333.5 C 284.5 339.8, 298 355.5, 299.3 364 C 300 368.8, 298.8 376.2, 297.1 376.8 C 296.1 377.1, 296 376.5, 296.5 374 C 299.6 360, 287.5 343.7, 266.7 334 C 257.6 329.7, 248.9 331.6, 233.7 341.4 C 225.8 346.4, 221.2 355.5, 226.3 356.2 C 228.1 356.4, 228.6 357.4, 229.3 361.5 C 229.7 364.3, 230.7 369.4, 231.5 373 C 233 379.9, 232.8 381, 230.2 379.4 C 227.8 377.9, 225.8 373.4, 225.2 368.3 C 224.5 362.1, 222.9 364.3, 222.3 372.4 C 220.8 390.2, 230 407.2, 244.7 414.2 C 249 416.3, 250.9 416.5, 263 416.5 C 294.4 416.4, 332.9 402.2, 348.5 384.9 C 352.5 380.4, 352.7 379.5, 350 377.8 C 347.5 376.2, 347.4 374, 349.9 374 C 353 374, 370 382.9, 370 384.6 C 370 387, 367.7 387.2, 363 385.2 L 358.5 383.3 351.4 394 C 344.1 405, 327.4 423.3, 320.9 427.5 C 311.8 433.4, 300.9 434.2, 286.8 430 C 278.5 427.6, 276.1 425.3, 283.1 426.5 C 286.7 427.1, 287.1 427, 286.8 425.4 C 286.5 424, 285.7 423.6, 283.5 423.8 C 281.8 424, 277.2 424.1, 273.3 424.2 C 265.3 424.3, 264.7 425.8, 271.8 428 C 273.8 428.6, 276.4 429.5, 277.5 430 C 302.7 440.9, 321 439.3, 337.4 424.9 C 340.7 422.1, 343 421.2, 343 422.8 C 343 424.1, 339.9 428.3, 335.1 433.4 C 332.2 436.6, 331.4 437.8, 333 436.8 C 338.3 433.5, 346.6 429.6, 348.5 429.4 C 350.3 429.2, 361.5 426.3, 373.5 423 C 394.3 417.2, 417.3 401.4, 422.7 389.1 C 428.2 376.3, 429.7 361.3, 426.3 351.4 C 424.1 344.8, 414.7 335.5, 405.9 331.2 C 402.2 329.4, 398.8 328, 398.3 328 C 397.7 328, 396.7 327.3, 396 326.6 C 393.9 324, 401.9 325.9, 408.9 329.7 C 423 337.3, 430.5 348.2, 431.7 362.9 C 432 367.4, 432.7 371.3, 433.2 371.6 C 433.7 371.9, 433.5 372.9, 432.8 373.8 C 432 374.8, 430.6 378.2, 429.6 381.5 C 426.4 392.3, 422.3 399.3, 415.2 406.4 C 408.6 413.1, 408.6 413.1, 412.6 411.1 C 414.9 410, 418.9 408.6, 421.6 407.9 C 428.7 406.2, 433.2 403.7, 437.3 399.1 C 447.3 388, 448.4 381, 440.3 379.9 C 431.8 378.8, 431 375, 439.3 375 C 447.9 375, 452.6 372, 463.9 359.4 C 478.2 343.5, 482.8 341.1, 484.5 349 C 485.4 353.2, 486.8 353.9, 495.1 354.3 C 503.9 354.7, 504.4 354.9, 506.6 359.6 C 509.9 366.6, 513.5 364.9, 515 355.4 C 516.1 349, 517.7 347, 522.2 347 C 523.7 347, 527.3 346.1, 530.2 345 C 536.5 342.6, 536.7 342.8, 533 346.8 C 530.4 349.7, 529.6 350, 524.1 350 C 517.4 350, 516.7 350.8, 520.6 353.9 C 526.7 358.7, 538.5 355.8, 539.5 349.2 C 540.7 341.8, 541.1 341, 545.5 335.8 C 548 332.9, 551.1 328.2, 552.5 325.3 C 553.9 322.5, 556 318.9, 557.3 317.3 C 561.5 312.4, 563 308.3, 563.6 300.8 C 564.2 292.2, 566.2 285.5, 569.4 281.5 L 571.7 278.7 569.3 271.7 C 567.6 266.7, 567 262.6, 567 256.4 L 567 248.1 562.4 242.9 L 557.8 237.7 558.2 231.1 C 559 220.2, 550 196.7, 542.2 189.3 C 540 187.2, 535.2 181, 531.5 175.5 C 523 163, 521.2 161, 518.4 161 C 517.1 161, 512.3 158.4, 507.8 155.1 C 494.3 145.5, 492.5 144.7, 488.3 147 C 485 148.8, 484.7 148.8, 477.8 146.8 L 470.7 144.8 468.3 147.7 C 466.5 149.7, 466 150, 466.5 148.5 C 468.6 142.6, 468.5 142.2, 462.9 139.6 C 456.5 136.5, 456.5 136.5, 453.7 139.1 C 450 142.6, 447.6 143.6, 448.9 141.1 C 449.5 140, 450.4 138.9, 451 138.5 C 451.5 138.2, 453.2 136, 454.9 133.5 L 457.9 129.1 454.6 127.2 C 452.7 126.1, 450.2 124.9, 448.9 124.5 C 447.6 124.1, 446.1 123.4, 445.5 123 C 443.8 121.8, 434.8 119, 432.5 119 C 431.3 119, 429.2 120.2, 427.8 121.8 M 335.6 124.3 C 330.7 127.1, 326 132.8, 325.7 136.5 C 325.4 141.1, 327.5 140.4, 332.1 134.3 C 334.4 131.1, 336.9 128.1, 337.5 127.5 C 343.3 122.1, 342.4 120.5, 335.6 124.3 M 347.9 125.8 C 342 130.6, 335 139, 325.5 152.5 C 322.7 156.3, 317.4 163.2, 313.5 167.7 C 307.1 175.2, 300 186.4, 301.1 187.3 C 302.7 188.6, 317.2 197, 317.9 197 C 318.3 197, 320.7 195.9, 323.1 194.7 C 330.1 190.9, 337.2 189, 348.2 187.7 L 358.5 186.4 358.5 179 C 358.4 169.3, 356.3 145, 354.4 133.6 C 353.6 128.7, 353 124.3, 353 123.8 C 353 122.3, 351.2 123, 347.9 125.8 M 463.3 131.7 C 459.1 132.5, 458.7 134.6, 462.4 136.4 C 464.3 137.3, 466.5 138, 467.3 138 C 468.2 138, 469.2 138.5, 469.5 139 C 471.5 142.2, 486 144.6, 486 141.7 C 486 141, 483.8 138.3, 481.2 135.7 C 476.3 130.8, 472.3 130, 463.3 131.7 M 362.5 144.5 C 362.9 147.8, 363.5 151.9, 364 153.5 C 369 170.8, 368.7 212.5, 363.4 223.8 C 361.3 228.4, 362.3 230.2, 364.7 226.2 C 372.2 214, 372.3 182.8, 365 146.5 C 363.4 138.2, 361.6 136.8, 362.5 144.5 M 509 147.4 L 505.5 148.7 508.5 151.4 C 514.2 156.7, 523.9 159.7, 524.1 156.3 C 524.1 155.3, 525 156.4, 526.1 158.8 C 529.9 166.9, 530.9 163.9, 528.2 153 L 526.5 146.5 519.5 146.3 C 515.7 146.2, 510.9 146.7, 509 147.4 M 533.5 170 C 532.9 171, 540.9 184.2, 542.8 185.4 C 544.3 186.3, 550 181.2, 550 179 C 550 174.2, 535.7 166.4, 533.5 170 M 344.5 193.7 C 337.2 194.8, 325 199.8, 325 201.8 C 325 202.2, 331.2 202.6, 338.9 202.6 C 346.5 202.7, 354.1 203.1, 355.9 203.5 L 359 204.2 359 198.6 L 359 193 353.3 193.2 C 350.1 193.2, 346.2 193.5, 344.5 193.7 M 319.8 212.9 C 320.4 221.7, 314.1 230.1, 299.9 239.6 C 289.9 246.2, 283.9 248, 271.5 248.2 C 260.2 248.3, 258 247.6, 258 243.3 C 258 241.9, 257.6 241.2, 257 241.5 C 255.4 242.5, 255.9 245.5, 258.1 248.4 C 260.1 251, 260.2 251, 273.9 251 C 293.8 251, 301.8 247.5, 318.7 231.6 L 326.3 224.4 326.8 218.3 C 327.2 212.7, 327 212.2, 324.5 210.2 C 320.3 206.9, 319.5 207.4, 319.8 212.9 M 241.6 225.8 C 236.6 239.2, 234.9 248.9, 237.1 252 C 238 253.3, 238.2 253.3, 238.7 252 C 239.1 251.2, 241.5 248.3, 244.1 245.5 L 248.8 240.5 245.4 236.8 C 242.2 233.2, 240.9 229, 243 229 C 243.6 229, 244 229.6, 244 230.4 C 244 232.6, 248.9 236, 252.1 236 C 255.6 236, 255.6 236.1, 252.1 230.8 C 250.6 228.4, 248.5 224.8, 247.5 222.8 C 245.1 217.7, 244.6 217.9, 241.6 225.8 M 415.5 220 C 415.8 220.6, 416.9 221, 417.9 221 C 418.8 221, 420 221.4, 420.6 221.8 C 421.1 222.2, 424.2 223.7, 427.5 225 C 439.5 229.7, 454.7 242.6, 462.9 255 C 465.1 258.4, 465.1 258.4, 464.5 255.6 C 463.1 249, 449.3 234.4, 438.1 227.5 C 428.1 221.5, 413.4 216.6, 415.5 220 M 563.3 226.8 C 562.6 227.2, 561.7 229.7, 561.4 232.2 C 560.8 236.4, 561 237.1, 563.5 239.4 C 566.9 242.6, 569.5 242.7, 571.4 239.8 C 573.6 236.4, 574.5 229.6, 572.8 228.3 C 571 226.8, 564.8 225.8, 563.3 226.8 M 571.2 259.4 C 571.9 269.9, 572.3 270.6, 576 267.9 C 580.8 264.3, 582.7 259.7, 580.7 256.6 C 579.3 254.5, 573.4 251, 571.2 251 C 571 251, 571 254.8, 571.2 259.4 M 257.3 264.8 C 252.4 266.5, 248 270.1, 248 272.2 C 248 273.5, 248.9 273.2, 252 271 C 255.8 268.3, 265.1 266.7, 272.5 267.5 C 279.5 268.2, 283.4 267.2, 282 265 C 280.5 262.6, 263.8 262.5, 257.3 264.8 M 342.5 264.7 C 340.1 265.3, 338 266.9, 338 268.1 C 338 268.6, 340.6 269, 343.8 269 C 355.7 269, 365.2 275, 368.7 284.9 C 370.9 291.1, 372.4 290.4, 371.5 283.6 C 369.8 270.6, 355.8 261.5, 342.5 264.7 M 416 272.7 C 416 279, 402.7 287, 392.2 287 C 389.6 287, 388.1 287.4, 388.5 288 C 388.8 288.6, 391.6 289, 394.6 289 C 401.9 289, 409.7 285.3, 415 279.3 C 419.4 274.3, 419.8 272.9, 417.5 271 C 416.2 269.9, 416 270.2, 416 272.7 M 256.2 276.6 C 252.7 278.4, 249.3 282.6, 250.4 283.7 C 250.7 284, 251 283.9, 251 283.3 C 251 282.7, 252.5 281.3, 254.3 280.3 C 259.3 277.3, 269.6 277.4, 276.6 280.5 C 283 283.4, 283.7 282.1, 277.8 278.3 C 272.3 274.8, 261.4 274, 256.2 276.6 M 417.6 283.8 C 415.2 287.4, 404.2 295.7, 400.7 296.5 C 399.2 296.9, 397.7 297.6, 397.4 298.1 C 397.1 298.6, 395.8 299, 394.4 299 C 393 299, 392.2 299.4, 392.5 300 C 395.3 304.5, 415.7 292.9, 419 284.9 C 420.7 281, 419.9 280.4, 417.6 283.8 M 571 286 C 568.6 289.4, 567.1 299.3, 568.8 300.4 C 572.3 302.6, 581 295.4, 581 290.3 C 581 283.5, 574.7 280.8, 571 286 M 341.2 286.8 C 336.7 288.7, 329.1 295.5, 330.3 296.6 C 330.6 297, 332.5 295.9, 334.4 294.2 C 341 288.4, 350.6 287.5, 356.9 291.9 C 361.3 295.1, 360.7 296.1, 355.9 293.7 C 341.5 286.6, 323.9 299.8, 324 317.8 C 324.1 324.7, 329.3 334.9, 334.2 337.5 C 337.8 339.4, 339.1 341, 337.1 341 C 334.9 341, 330.9 343.1, 331.4 343.9 C 333.2 346.7, 355 337.1, 360.1 331.3 C 365.4 325.2, 366.9 311, 362.9 303.6 C 360.4 298.8, 361.2 297.6, 364 302.1 C 373 316.9, 371.4 326, 358.4 335 C 351.4 339.9, 346 345.1, 346 347.1 C 346 347.7, 347.9 346.6, 350.3 344.7 C 356.4 339.7, 360 338.1, 368.3 336.9 C 378.8 335.3, 388 336.9, 393.2 341.1 C 398.2 345.1, 399.1 344.3, 394.9 339.6 C 390 334, 386.7 332.7, 377.3 332.6 C 372.7 332.6, 369.6 332.2, 370.3 331.8 C 370.9 331.4, 374.3 331, 377.8 331 C 381.2 331, 384 330.6, 384 330.1 C 384 329, 378.1 326.8, 377 327.5 C 376.5 327.8, 375.9 327.6, 375.5 327 C 375.2 326.5, 375.4 326, 375.9 326 C 377.5 326, 377.2 315, 375.6 311.8 C 374.4 309.5, 374.4 309.1, 376 308.7 C 376.9 308.5, 378.2 306.8, 378.8 305 C 379.8 302.2, 379.8 301.9, 378.4 302.4 C 374.2 304, 372 304.2, 372 302.8 C 372 302.1, 371.1 300.9, 370 300.2 C 368.9 299.5, 368 298.4, 368 297.6 C 368 295.5, 360.4 289.1, 355.3 286.9 C 349.9 284.6, 346.8 284.6, 341.2 286.8 M 340.5 297.9 C 334.4 300.7, 332.6 303.3, 338.3 301.2 C 346 298.5, 352.7 302.6, 356.4 312.4 C 358.4 317.6, 360 317.9, 361.4 313.2 C 363.2 307, 358.3 299.3, 351.2 297.2 C 346.2 295.7, 345.4 295.7, 340.5 297.9 M 560.7 319.5 C 557.2 322.9, 554.7 328.5, 555.8 330.4 C 556.4 331.5, 566.5 330.6, 570.3 329.1 C 574.2 327.6, 573.9 323.7, 569.6 319.4 C 565.4 315.2, 565.1 315.2, 560.7 319.5 M 550.2 341.3 C 546.8 344.9, 546.3 350, 548.9 352.4 C 552.2 355.4, 554.2 352.8, 554.4 345.4 C 554.5 338.9, 553.4 337.9, 550.2 341.3 M 277.2 353 C 267.3 357.2, 263.3 364.9, 263.9 378.7 C 264.1 383.6, 269.7 389, 274.6 389 C 282.5 389, 287.2 383.7, 290.4 371.3 C 292.1 364.8, 290.9 357.7, 287.6 354.2 C 285.9 352.5, 280 351.8, 277.2 353 M 273.2 358 C 261.2 366.7, 266.2 392.1, 278.6 385.5 C 286.6 381.2, 291.3 361.7, 285.5 357.2 C 281.7 354.2, 278.1 354.4, 273.2 358 M 540.4 359.7 C 538 362.7, 530 363.9, 523.8 362.2 C 520.5 361.3, 520.1 361.4, 519.6 363.4 C 517.4 372.3, 509.5 373.7, 503.1 366.3 L 499 361.7 493.7 362.8 C 490.9 363.5, 486.2 364.4, 483.4 364.9 C 479.1 365.8, 467 369.7, 467 370.3 C 467 370.4, 468.4 373.2, 470 376.5 C 473.9 384.3, 473.9 384.2, 467.3 388.9 L 461.7 393 467.6 393 C 474.7 393, 479.6 395.1, 485.7 400.7 C 488 402.8, 491.2 405.5, 492.9 406.8 C 494.6 408.1, 497.5 412.4, 499.5 416.4 C 502.9 423.2, 503.1 424.3, 503.2 433.1 C 503.2 442.2, 503.3 442.4, 504.5 438.5 C 507 430.6, 509.1 420.4, 509.6 413.5 C 509.9 409.7, 510.4 404.9, 510.7 403 C 511.4 399.5, 511.4 399.5, 512.1 404.5 C 513.1 411.6, 511.2 438.3, 509.4 442.6 C 507.1 448.1, 508.2 447.7, 514 441 L 519.2 435 524.8 435 C 528.2 435.1, 531.3 435.7, 532.4 436.5 C 534.2 437.9, 534 438, 529 438 C 523.9 438, 523.5 438.2, 518.1 443.8 C 502.3 459.8, 501.4 462.5, 513.7 456.4 C 518.6 454, 523.1 452, 523.7 452 C 526.5 452, 524.8 453.9, 519.8 456.5 C 511.6 460.7, 500.2 469.6, 501.5 470.8 C 501.6 471, 505 470.3, 509 469.4 C 513.4 468.4, 517.8 468, 520.4 468.4 C 523.8 468.9, 525.2 468.7, 527.3 467 C 530.4 464.5, 530.9 465.6, 528.1 468.7 C 525.9 471.1, 527 473, 530.6 473 C 533.9 473, 540.2 465.6, 539.4 462.6 C 538.7 459.6, 541.7 458.2, 543.6 460.7 C 545.4 463.2, 549.4 460.9, 552 456 C 555 450.4, 558 443.2, 558 441.6 C 558 440.8, 558.5 439.8, 559 439.5 C 559.6 439.2, 560 438.1, 560 437.2 C 560 436.3, 560.9 433.7, 562 431.5 L 563.9 427.5 563.4 431 C 562.8 434.7, 559.5 445.3, 557.9 448.2 C 557.4 449.2, 557 450.7, 557 451.5 C 557 454.4, 558.7 453, 560.8 448.3 C 568.9 430.4, 569.1 408.7, 561.4 391 C 556.9 380.8, 547 365.5, 547 368.8 C 547 370, 546.6 371.2, 546 371.5 C 545.5 371.8, 545 373.1, 545 374.3 C 545 375.8, 544.7 376.1, 543.9 375.3 C 543.2 374.6, 543.2 372.9, 544 369.8 C 545 366, 544 356.7, 542.7 357.1 C 542.6 357.1, 541.6 358.3, 540.4 359.7 M 273.7 364.9 C 270 369.4, 271.8 382, 276.2 382 C 278.1 382, 282.9 375.5, 284.4 371.1 C 285.7 367, 285.7 366.2, 284.4 364.3 C 282.2 360.8, 276.9 361.2, 273.7 364.9 M 458.6 374.7 C 456.4 378.1, 455.5 378.9, 455.1 377.7 C 454.1 375, 448 378.2, 448 381.5 C 448 387.6, 452.1 390.8, 457.5 389 C 464.4 386.7, 466.6 380.9, 463.2 373.8 L 461.5 370.1 458.6 374.7 M 521.4 403.3 C 521.4 415.2, 521.3 415.7, 517.2 425.9 C 512.5 437.7, 512.7 437, 513.9 437 C 514.4 437, 516.1 435.3, 517.7 433.3 C 519.2 431.2, 521.1 429.4, 521.9 429.2 C 522.7 429, 524.7 427.9, 526.4 426.7 C 528.9 424.9, 530.8 424.5, 535.9 424.6 C 541.5 424.7, 542.1 424.5, 540.5 423.3 C 537.9 421.5, 528 421.6, 525.2 423.6 C 522.2 425.7, 522.1 423.1, 525.1 420.4 C 528.1 417.7, 539.3 417.8, 543.4 420.5 C 547.2 423, 546.5 420.5, 542.7 417.6 C 539.7 415.4, 529.2 414.7, 525.6 416.4 C 523.8 417.3, 523.7 417, 524.4 413.4 C 526.1 404, 526.1 402.2, 524.5 396.7 C 523.6 393.6, 522.6 391, 522.2 391 C 521.8 391, 521.5 396.5, 521.4 403.3 M 595 395.4 C 591.8 398.4, 581.5 403.2, 576.8 403.7 L 571.8 404.3 572.7 408.9 C 573.1 411.4, 573.5 417, 573.5 421.3 C 573.5 425.5, 573.8 429, 574.2 429 C 575.8 429, 587 416.8, 591.1 410.5 C 598.2 399.7, 600.7 389.9, 595 395.4 M 451.8 395.7 C 450 396, 448.3 397.4, 446.8 399.8 C 441.2 408.9, 438.2 411.3, 427.9 415.2 C 423 417, 419 418.8, 419 419.2 C 419 419.6, 418.4 419.7, 417.6 419.4 C 416.4 418.9, 410.2 420.8, 400.5 424.5 L 396.5 426 401 425.4 C 403.5 425.1, 407.9 424, 410.8 422.9 C 416.9 420.7, 417.3 420.6, 416.5 422 C 415 424.4, 407.1 427.2, 400.6 427.7 L 393.8 428.3 397.6 429.6 C 399.8 430.4, 402.5 431, 403.7 431 C 406.3 431, 409 432, 409 432.9 C 409 433.8, 397.1 432.4, 389.8 430.7 C 386.6 429.9, 384 429.5, 384 429.9 C 384 431.8, 403 437, 410.1 437 C 412.5 437, 413.9 437.4, 413.5 438 C 412.7 439.3, 401.3 439.3, 395.8 438 C 393.4 437.5, 388.5 436.4, 384.8 435.5 C 381.1 434.7, 376.2 434, 373.8 434 L 369.5 434 375 437.5 C 383.5 442.7, 384 443.2, 380.5 442.5 C 378.9 442.1, 374.9 440.1, 371.6 437.9 C 362.4 431.8, 360.7 432.7, 367.2 440.3 C 370.2 443.7, 374.1 448.4, 375.9 450.8 C 377.7 453.1, 380.1 455.2, 381.3 455.4 C 382.5 455.6, 386.1 456.4, 389.3 457 C 395.1 458.2, 395.2 458.1, 398.8 455.3 C 404.1 451, 410.1 447.4, 413.1 446.7 C 417.8 445.5, 421 441.6, 421 437 C 421 434.8, 421.6 431.5, 422.4 429.6 C 423.9 426.1, 430.5 420, 432.9 420 C 433.7 420, 437.1 419.1, 440.4 418.1 C 448.5 415.6, 458.8 413.8, 460.1 414.6 C 461.3 415.3, 456.2 417.4, 450.3 418.5 C 445.7 419.3, 436.7 423.3, 433.3 426 C 430.3 428.3, 429.1 427.9, 431 425.3 C 431.7 424.3, 431.1 424.7, 429.7 426.3 C 425.8 430.4, 423.4 441, 426.3 441 C 427 441, 428.5 440.3, 429.8 439.5 C 435.8 435.3, 445.8 434, 453.3 436.6 C 461.2 439.3, 472.3 451.1, 469.5 453.8 C 469.1 454.2, 468.5 453.8, 468.2 453 C 466.5 447.8, 455.5 441, 448.9 441 C 445.3 441, 448.7 443, 452.5 443 C 454.2 443, 456.4 443.7, 457.5 444.6 C 459.3 445.9, 459 446, 453.5 445.4 C 450.2 445, 445.5 444.1, 443.1 443.4 C 440 442.5, 438.1 442.4, 436.8 443.1 C 434.5 444.3, 435.2 445.6, 438.7 446.5 C 441.6 447.2, 447.4 450.9, 446.7 451.7 C 446.4 451.9, 444.7 451.5, 442.8 450.7 C 436 447.8, 430.3 447.7, 422.9 450.1 C 414.9 452.7, 414.5 453.5, 420.3 455 C 430.6 457.7, 437.3 460.6, 441 463.8 C 444.7 466.9, 443 467, 437.3 464.1 C 429.8 460.4, 413.7 457.7, 408.5 459.3 C 405.1 460.3, 391 473.7, 391 475.8 C 391 476.3, 393.8 476.6, 397.3 476.6 C 402.1 476.5, 404.2 477, 406.5 478.6 C 408.2 479.8, 409.7 480.8, 410 480.8 C 412 481, 417.1 483.6, 421 486.5 L 425.6 489.9 428.7 486.9 C 430.5 485.3, 432.4 484, 432.9 484 C 434.1 484, 434.4 489, 433.3 489 C 430.5 489.1, 429.9 490.8, 431.5 494 L 433.2 497.3 434.4 494.9 C 436.6 490.5, 446 488.6, 452.1 491.4 C 453.4 492, 453.7 491.6, 453.3 489.6 C 451.6 481.1, 466 475.9, 472.9 482.4 L 475.5 484.8 481.6 480 C 492.8 471, 495.7 464.6, 497 446.8 C 497.5 440.3, 498.1 434.6, 498.5 434 C 499.6 432.3, 497.2 419.8, 494.9 415 C 487.7 399.9, 471.5 392.7, 451.8 395.7 M 458.4 398.9 C 453.9 400, 446.9 404.3, 447.8 405.2 C 448.3 405.7, 450 405.4, 451.6 404.5 C 453.2 403.7, 455.2 403, 456.1 403 C 456.9 403, 458.1 402.5, 458.7 401.9 C 459.4 401.2, 463.1 400.9, 468.9 401.1 C 476.8 401.5, 477.8 401.3, 476.5 400 C 474.8 398.4, 463.3 397.6, 458.4 398.9 M 324.6 411.3 C 317.4 415.2, 305.2 424.4, 305.1 426.3 C 305 427.2, 309 426.4, 315 424.3 C 319.3 422.7, 331 412.7, 333.1 408.8 C 334.4 406.3, 333.6 406.6, 324.6 411.3 M 346.3 437.7 C 339.7 439.6, 339.5 441, 345.8 441 C 351.5 441, 358.1 444, 366.8 450.4 C 374.5 456.1, 374.9 456.1, 370.8 450.4 C 360.4 435.7, 357.7 434.3, 346.3 437.7 M 265.1 440 C 263.2 441.6, 258.7 444.3, 255.1 446 C 251.5 447.7, 246.5 450.5, 243.9 452.1 L 239.4 455 242.4 461.2 L 245.4 467.5 251.1 467.5 C 257.8 467.5, 261.4 470.1, 265 477.6 C 267.7 483.4, 269.1 483.1, 271.9 476.1 C 275 468.4, 276.9 467.4, 283.9 469.9 C 289.7 472.1, 293 474.5, 293 476.7 C 293 478.9, 295 478.2, 296 475.6 C 297.5 471.6, 305.1 470.6, 309.8 473.7 C 312.1 475.1, 312.2 475.1, 311.5 472.8 C 311.1 471.6, 310.7 470.5, 310.6 470.4 C 310.6 470.4, 309.4 469.7, 308 468.8 C 305.9 467.5, 305 467.5, 302 468.6 C 297.1 470.3, 295 470.4, 297.5 468.6 C 298.6 467.9, 300.4 467, 301.5 466.7 C 302.8 466.4, 302.4 466.2, 300.2 466.1 C 296.2 466, 293 467.5, 293 469.6 C 293 470.4, 292.6 470.8, 292 470.5 C 290.4 469.5, 290.8 467.2, 293 465 C 296.5 461.5, 305.3 462.7, 309.1 467.3 L 310.9 469.5 311 466.9 C 311 463.7, 309.1 461.9, 301.7 458.6 C 294.4 455.3, 292.3 455.3, 288.8 458.7 C 285.8 461.6, 284.4 461.4, 285.5 458.1 C 286.7 454.1, 299.7 454.2, 306.8 458.2 C 308.7 459.2, 310.4 459.9, 310.7 459.6 C 311.5 458.9, 308.6 455, 306.8 454.4 C 304 453.6, 304.7 451.4, 308 450 C 311.8 448.4, 312.5 449.1, 312.6 454.3 C 312.7 456.6, 313.6 460.4, 314.6 462.8 L 316.5 467 322.5 466.4 C 325.8 466, 328.8 465.6, 329.1 465.4 C 330.7 464.5, 326.6 453.1, 323 448 C 321.1 445.4, 320.8 445.3, 316.8 446.2 C 310.3 447.7, 299.4 446.5, 291.5 443.5 C 285.3 441.2, 270.7 436.9, 269.1 437 C 268.8 437.1, 267 438.4, 265.1 440 M 226.2 440.3 C 223.4 443.3, 223.4 443.6, 227.1 446.8 C 232.4 451.3, 232.7 451.3, 237.8 448.4 C 240.4 446.9, 242.7 445.6, 242.9 445.4 C 243.1 445.2, 241.9 443.9, 240.4 442.4 C 235 437.5, 229.6 436.7, 226.2 440.3 M 334.2 446.7 C 330.9 447.3, 330.6 449.2, 332.9 454.3 C 335.5 460, 335.6 464.5, 333.3 465.9 C 332 466.7, 331.9 466.9, 332.9 467 C 333.7 467, 337.2 468.9, 340.8 471.2 C 345.4 474.2, 349.4 475.8, 355 477 L 362.7 478.7 367.4 468.8 C 370 463.3, 372 458.7, 371.8 458.6 C 359.3 449.4, 344.4 444.8, 334.2 446.7 M 218.8 449.8 C 216 453.2, 213.4 460.2, 210.6 472 C 198.7 521.6, 210 574.8, 240.9 615.5 C 247.1 623.7, 270.4 646.9, 276.5 651 C 279.3 652.9, 281.7 654.6, 282 654.9 C 282.8 655.8, 293.9 663, 294.5 663 C 294.7 663, 297.1 664.3, 299.7 665.9 C 309.8 672, 328 678.2, 346 681.7 C 358.1 684, 399.9 684.3, 409.5 682.1 C 422.9 679.1, 431.6 676.9, 433.5 676.1 C 434.6 675.6, 437.9 674.2, 440.8 673.1 C 495.9 650.7, 532.1 615, 556.1 559.5 C 564.2 540.7, 568.8 511.4, 567.7 484.3 L 567.2 469.9 563.4 464.5 C 561.4 461.5, 559.5 459, 559.3 459 C 557.8 459, 541.9 471.7, 539.2 475 C 536 478.9, 535.7 479, 530.1 478.9 C 522.9 478.7, 516.7 480.9, 507.8 486.8 C 501 491.2, 497.1 491.8, 493.4 488.9 C 492.8 488.4, 490.3 487.7, 487.9 487.4 C 483.8 486.8, 483 487.1, 479 490.4 C 461 504.9, 448.4 512, 440.6 512 C 438.2 512, 433.5 512.6, 430.3 513.4 C 418.3 516.4, 414.7 516.4, 411.7 513.6 C 410.1 512.2, 408.3 511, 407.5 511 C 406.8 511, 404.2 508.8, 401.8 506.2 C 393.5 497, 388.7 495.1, 379.5 497.5 C 372 499.5, 367.8 499.4, 364.9 497.1 C 356.2 490.3, 350.5 489.5, 343.2 494 C 337.3 497.6, 337.2 497.6, 331.2 494.9 C 324.8 491.9, 315.2 491.9, 309 494.8 C 303.2 497.6, 298.6 497.6, 294.7 494.8 C 292.3 493.1, 289.6 492.4, 283 492 C 270.3 491.1, 263.7 487.4, 259.1 478.3 C 256.5 473, 255.9 472.7, 249.2 472.9 C 242.6 473.1, 240.9 471.8, 238.4 464.9 C 236.9 460.8, 235.4 459.1, 229.6 454.7 C 220.3 447.7, 220.5 447.8, 218.8 449.8 M 376.2 466.9 C 375.2 468.6, 372.9 474.5, 371.1 480.1 C 367.4 491.4, 367.6 492.4, 374 491.4 C 382.8 490, 384 489.2, 384 484.8 C 384 480.5, 386.6 470.3, 388.3 468.2 C 389.4 466.8, 389.5 466.8, 385.7 465.2 C 381 463.2, 378.2 463.7, 376.2 466.9 M 321.7 472.6 C 319.3 473.3, 317 478.2, 317 482.4 C 317 486.6, 315.6 487.7, 312.4 485.9 C 309.4 484.4, 301 487.8, 301 490.6 C 301 492.2, 306.1 491.8, 308.5 490 C 313.2 486.5, 326.6 486.5, 333.3 490 L 337.2 492.1 341.5 488.1 L 345.9 484.1 343.6 480.8 C 339.7 475, 328.3 470.7, 321.7 472.6 M 512.5 472.7 C 507.9 473.7, 503.2 476.3, 503.7 477.6 C 504.1 478.6, 503.3 478.8, 500.6 478.3 C 497.9 477.9, 496.4 478.2, 494.9 479.6 C 492.9 481.4, 492.9 481.4, 496.6 483.2 C 500.3 485, 500.3 485, 503.7 482.4 C 507.5 479.5, 519.2 474, 521.5 474 C 522.4 474, 522.8 473.6, 522.5 473 C 521.9 472, 516.4 471.8, 512.5 472.7 M 277.1 476.4 C 275.5 478.3, 274 483.8, 274.6 485.4 C 275.1 486.6, 292 486.8, 292 485.5 C 292 483.6, 288.8 478, 286.9 476.6 C 284 474.6, 278.7 474.5, 277.1 476.4 M 299.5 478.2 C 296.5 479.8, 295 482.1, 295 485.2 C 295 488.6, 295.4 488.7, 299.2 485.5 C 300.8 484.2, 303.9 482.6, 306 482 C 310.4 480.8, 311 479.6, 308.1 478 C 305.6 476.7, 302.1 476.8, 299.5 478.2 M 392.3 482.6 C 389.1 484.2, 385.3 487.7, 386.1 488.4 C 387.8 489.9, 399.3 494.9, 400 494.5 C 400.6 494.1, 401 492.9, 401 491.7 C 401.1 490.5, 401.7 488.4, 402.5 487 C 405.1 482.4, 404.5 481, 399.8 481 C 397.4 481, 394.1 481.8, 392.3 482.6 M 458.6 486.2 C 456.3 489.5, 456.4 498.2, 458.8 497.3 C 465.9 494.7, 473 486.9, 469.9 484.9 C 467 483.1, 460.2 483.8, 458.6 486.2 M 406.8 494.1 C 403.2 496.1, 405.9 506, 410 506 C 410.9 506, 415.3 501, 417.3 497.8 C 418.9 495.2, 418.9 495, 417.1 494 C 414.6 492.7, 409 492.7, 406.8 494.1 M 441 493.7 C 435.7 495.8, 434.8 499.4, 438.4 503.6 C 440.6 506.2, 440.9 506.3, 444.1 505 C 450.9 502.3, 453.8 497.8, 450.6 495.1 C 448.9 493.7, 443.1 492.8, 441 493.7 M 422.5 499.1 C 419.4 502.8, 416.6 508, 417.4 508.7 C 417.6 509, 419.4 508.7, 421.2 508.2 C 423 507.6, 426.4 506.8, 428.8 506.5 C 433.6 505.7, 433.7 505.6, 431.1 501.3 C 427.8 496, 425.6 495.5, 422.5 499.1 M 217.1 553 C 217 555.1, 218.9 563.1, 219.9 565.5 C 222.2 570.7, 228.6 583.6, 229.3 584.5 C 229.7 585.1, 232.3 588.9, 234.9 593 C 242.9 605.3, 257.7 619.1, 269.5 625.3 C 276.2 628.7, 283.6 632, 285 632 C 285.5 632, 286.8 632.4, 287.8 632.9 C 289.9 634.1, 298.8 636.7, 305.5 638.1 C 318.8 640.9, 326.1 642.2, 333 643.1 C 337.1 643.6, 344.2 644.4, 348.7 645 C 362 646.7, 405.9 647.3, 423.5 646.1 C 444.3 644.7, 469.3 640.9, 471.5 638.9 C 472.7 637.7, 468 637.8, 461.5 639.1 C 434.7 644.3, 376.8 646.3, 349.5 643 C 325.5 640.1, 303.1 636.1, 297 633.8 C 296.2 633.5, 292.4 632.2, 288.5 631 C 258 621.6, 232.1 594.3, 219.5 558.5 C 218.2 554.7, 217.1 552.2, 217.1 553 M 527.5 630.2 C 528.8 631, 537.7 631.7, 552 632.1 C 578 632.9, 604.6 635.6, 625.7 639.6 C 627.5 640, 629.8 639.9, 630.7 639.4 C 632.6 638.6, 633.3 638.8, 615.5 635.5 C 588.2 630.5, 521.2 626.5, 527.5 630.2 M 287 639.8 C 287 640.9, 292.5 644, 294.4 644 C 295.3 644, 296 644.5, 296 645 C 296 645.6, 296.6 646, 297.3 646 C 297.9 646.1, 300.3 646.9, 302.5 648 C 304.7 649.1, 307.2 649.9, 308.1 650 C 309 650, 310 650.3, 310.4 650.7 C 311.4 651.8, 324.7 655.9, 335.5 658.7 C 354.4 663.4, 368.4 664.9, 393.5 664.9 C 423.5 664.9, 435 663.4, 455.8 656.7 C 462.6 654.5, 465.5 652.3, 459.9 653.5 C 458.1 653.9, 455.9 654.6, 455 655.1 C 439.7 663.2, 383.6 665.6, 351.5 659.6 C 336.7 656.8, 315.4 651.1, 311.8 649 C 310.8 648.4, 309.5 648, 308.8 648 C 308.1 647.9, 305.7 647.1, 303.5 646 C 301.3 644.9, 298.8 644.1, 298 644 C 297.1 644, 296 643.6, 295.5 643.1 C 294 641.7, 287 639, 287 639.8 M 193.6 660.9 C 193.1 661.7, 195.3 662, 201.2 662 C 210.6 662, 214.1 663.2, 209.7 664.9 C 208.1 665.5, 206.5 666, 206.1 666 C 204.7 666, 197.1 670, 196.5 671.1 C 195 673.4, 197.2 673.1, 203.7 670 C 213.6 665.3, 213.9 665.2, 220.8 663.6 C 224.3 662.7, 229.9 662, 233.3 662.1 C 240.6 662.1, 240.5 662.2, 223.5 668.9 C 208.1 674.9, 192.8 682.4, 200 680.4 C 201.4 680.1, 204.3 679, 206.5 678 C 208.7 677.1, 212.8 675.5, 215.5 674.5 C 218.3 673.5, 221 672.4, 221.5 672 C 222.1 671.6, 224.8 670.5, 227.5 669.5 C 230.3 668.5, 235 666.4, 238 664.8 C 241 663.3, 244 662, 244.7 662 C 245.4 662, 246 661.5, 246 660.9 C 246 660, 242.4 659.9, 232.8 660.4 C 214 661.5, 213.5 661.5, 203.4 660.6 C 196.9 660, 194.1 660.1, 193.6 660.9 M 564.2 662.5 C 564.6 662.9, 569.1 663.8, 574.2 664.5 C 592.5 667.1, 599.1 669.8, 601.6 675.5 C 602.6 677.9, 603 678.2, 603.5 676.8 C 605.2 672.5, 598.4 667.3, 587.5 664.6 C 580.1 662.8, 563 661.2, 564.2 662.5 M 533.5 674 C 535.7 674.5, 540.9 675.6, 545 676.4 C 555.3 678.4, 562.7 680.4, 563.6 681.3 C 564.9 682.5, 569.2 682.1, 568.8 680.8 C 568.3 679.2, 563.6 677.6, 553.9 675.6 C 545.7 673.9, 526.4 672.4, 533.5 674 M 549.6 684.8 C 548.6 686.4, 549.7 686.7, 563 688 C 578.7 689.5, 622.6 689, 625.5 687.3 C 627.1 686.4, 623.2 686.2, 607.5 686.6 C 589.7 687.1, 566.1 686.1, 554.4 684.4 C 552 684.1, 550 684.2, 549.6 684.8 M 547 695.7 C 532.5 699.5, 516.9 702.4, 499.1 704.5 C 485.3 706.1, 482.5 707, 492.1 706.9 C 503.7 706.8, 540.6 701.1, 543.5 699 C 544.1 698.6, 546.1 698, 548.2 697.6 C 550.2 697.2, 552.3 696.3, 553 695.5 C 554.5 693.8, 554.2 693.8, 547 695.7 M 253.1 702 C 255.1 703.2, 262.1 704.4, 287.5 708.2 C 308.8 711.3, 392.7 709.3, 389.2 705.8 C 388.6 705.2, 385.9 705.3, 382.4 706 C 373.4 707.7, 321.1 708.4, 303 707.1 C 287.6 705.9, 271.1 704, 261.5 702.1 C 254.7 700.8, 250.9 700.7, 253.1 702" stroke="none" fill="#1b1f3a" fill-rule="evenodd"/></svg>