<svg xmlns="http://www.w3.org/2000/svg" viewBox="0 0 768 768" version="1.1" preserveAspectRatio="xMidYMid meet">
	<path d="M 767.495 384 C 767.495 595.475, 767.610 681.987, 767.750 576.250 C 767.890 470.512, 767.890 297.487, 767.750 191.750 C 767.610 86.012, 767.495 172.525, 767.495 384 M 360.682 80.317 C 356.987 83.198, 348.076 104.447, 348.023 110.500 C 347.999 113.312, 347.606 113.615, 341.749 115.331 C 330.757 118.551, 322.208 126.798, 321.050 135.298 C 320.587 138.698, 320.025 139.489, 317.500 140.296 C 311.084 142.346, 306.565 149.019, 305.439 158.105 C 304.833 162.988, 299.067 175.551, 294.791 181.302 C 290.974 186.435, 257.686 142.703, 244.324 115 C 242.070 110.325, 238.354 102.566, 236.069 97.758 C 232 89.198, 229.177 86.537, 226.150 88.407 C 223.989 89.743, 221.854 99.402, 220.301 114.882 C 217.208 145.701, 222.413 175.875, 235.174 201.107 L 239.059 208.786 237.095 212.143 C 232.675 219.698, 228 236.369, 228 244.577 C 228 247.026, 228.753 251.737, 229.672 255.046 C 231.307 260.925, 231.293 261.219, 229.039 268.093 C 225.682 278.334, 226.423 290.520, 231.040 301 C 232.858 305.125, 234.717 308.927, 235.172 309.450 C 235.628 309.972, 235.993 315.372, 235.985 321.450 L 235.969 332.500 230.235 335.576 C 218.598 341.819, 215.580 349.706, 215.530 374 C 215.497 389.795, 216.346 393.472, 222.281 403.242 C 227.706 412.172, 243.876 424, 250.660 424 C 251.947 424, 253.787 424.908, 254.750 426.017 C 259.256 431.211, 262.151 434, 263.034 434 C 265.662 434, 263.249 435.871, 256.062 439.407 L 248.123 443.313 242.604 438.269 C 233.471 429.922, 228.865 429.772, 219.413 437.518 C 205.863 448.621, 196.077 479.567, 196.018 511.500 C 195.999 521.854, 197.658 541.092, 198.950 545.500 C 199.433 547.150, 200.784 552.100, 201.952 556.500 C 212.100 594.733, 237.013 632.492, 269.377 658.695 L 273.254 661.834 268.377 664.038 C 261.184 667.289, 254 672.832, 254 675.132 C 254 676.885, 254.410 676.764, 257.853 673.998 C 261.482 671.081, 274.731 665, 277.455 665 C 278.142 665, 281.808 667.044, 285.602 669.541 C 301.936 680.295, 321.574 687.657, 348 692.934 C 357.094 694.750, 357.272 694.835, 352.172 694.916 C 349.242 694.962, 341.592 694.562, 335.172 694.026 C 320.760 692.824, 240.768 692.168, 241.861 693.261 C 243.601 695.001, 269.160 696.847, 299.500 697.424 C 317.100 697.759, 338.923 698.530, 347.996 699.137 C 375.424 700.973, 505.605 698.277, 522 695.534 C 534.918 693.372, 543.765 690.988, 545.176 689.288 C 546.145 688.121, 545.927 687.964, 543.925 688.388 C 521.671 693.107, 511.190 693.869, 452.632 695.024 C 424.654 695.576, 401.328 696.298, 400.795 696.627 C 400.262 696.956, 390.753 696.846, 379.663 696.382 L 359.500 695.538 382 694.905 C 406.914 694.203, 419.367 692.200, 438.500 685.817 C 448.962 682.326, 461.180 679.935, 471.500 679.359 C 480.567 678.853, 484.121 679.240, 491.884 681.584 C 493.682 682.126, 494.161 681.959, 493.834 680.902 C 493.044 678.353, 484.108 674.893, 476.716 674.273 C 466.917 673.451, 469.337 672.732, 500 667.351 C 517.864 664.216, 557.016 660.189, 577.865 659.341 C 594.422 658.668, 605.891 661.545, 606.032 666.405 C 606.049 667.007, 606.778 668.400, 607.651 669.500 C 609.173 671.419, 609.209 671.378, 608.547 668.500 C 607.544 664.138, 603.490 660.391, 597.740 658.510 C 592.730 656.871, 565.249 656.110, 562.926 657.546 C 561.521 658.414, 535.831 660.972, 518.500 661.968 C 504.440 662.777, 484.055 665.274, 480.557 666.617 C 477.749 667.694, 478.930 665.272, 481.790 664.087 C 493.624 659.185, 521.106 633.602, 538.280 611.500 C 566.410 575.299, 580.829 527.850, 576.873 484.500 C 574.567 459.234, 574.828 460.479, 571.867 460.672 C 569.728 460.812, 568.922 460.153, 567.570 457.156 C 565.045 451.557, 567.155 447.761, 579.801 435.148 C 595.260 419.731, 602.997 407.101, 603.783 396 C 604.107 391.434, 603.812 390.118, 602.047 388.250 C 599.132 385.164, 598.252 385.348, 591.326 390.496 C 584.987 395.206, 578.572 398, 574.096 398 C 571.700 398, 571.270 397.395, 569.649 391.750 C 567.112 382.915, 565.500 379.653, 558.857 369.910 C 552.385 360.417, 552.045 358.894, 555.094 353.045 C 556.245 350.836, 557.432 346.322, 557.732 343.014 C 558.203 337.823, 558.555 337, 560.301 337 C 564.327 337, 573.336 333.488, 576.219 330.795 C 578.749 328.432, 579.067 327.577, 578.460 324.770 C 577.594 320.771, 574.895 316.816, 571.526 314.609 C 566.991 311.637, 568.117 308.475, 574.935 305.033 C 587.923 298.477, 589.932 287.731, 579.773 279.161 C 576.200 276.147, 576.271 274.073, 580.052 270.989 C 589.478 263.300, 589.023 254.052, 578.948 248.568 C 573.513 245.610, 573.364 245.353, 575.402 242.443 C 577.573 239.343, 579.193 232.154, 578.466 228.844 C 577.696 225.341, 573.472 222.424, 567.773 221.462 C 563.464 220.734, 563.493 220.778, 556.727 204 C 550.096 187.553, 550.419 189.642, 553.579 183.607 C 556.400 178.218, 556.400 178.214, 554.622 174.270 C 552.732 170.079, 543.848 163.322, 538.933 162.337 C 536.653 161.881, 536.167 160.967, 534.587 154.162 C 533.609 149.948, 532.200 145.037, 531.456 143.250 L 530.102 140 521.801 140.056 C 516.179 140.094, 512.048 140.702, 509 141.940 L 504.500 143.768 498.798 140.894 C 492.069 137.502, 489.668 135.153, 486.403 128.767 C 483.446 122.983, 481.382 122.310, 471.672 123.969 L 464.500 125.193 454.790 120.202 C 441.877 113.564, 434.414 111.159, 423 109.956 C 417.775 109.406, 409.624 108.515, 404.887 107.978 C 400.149 107.440, 394.386 107, 392.080 107 C 387.188 107, 382.925 103.114, 372.500 89.153 C 366.041 80.503, 363.184 78.366, 360.682 80.317 M 363.503 88.989 C 363.142 90.632, 362.491 92.196, 362.057 92.465 C 361.623 92.733, 361.484 94.083, 361.748 95.464 C 362.313 98.419, 363.977 97.860, 364.052 94.691 C 364.081 93.486, 365.745 97.338, 367.749 103.250 C 371.584 114.560, 372.360 115.384, 375.752 111.750 C 379.673 107.549, 379.502 105.058, 374.802 97.931 C 366.371 85.147, 364.646 83.782, 363.503 88.989 M 227.305 99.605 C 225.424 106.367, 226.545 146.972, 228.876 156.500 C 230.087 161.450, 231.517 167.519, 232.053 169.987 C 234.306 180.357, 245.304 205.447, 249.386 209.529 C 251.248 211.390, 253.104 211.621, 258.250 210.631 C 260.586 210.181, 262 210.291, 262 210.920 C 262 211.476, 259.750 212.230, 257 212.594 C 251.490 213.325, 251.300 213.556, 253.557 216.777 C 254.858 218.636, 256.055 219, 260.860 219 C 269.303 219, 276.190 215.305, 280.602 208.408 C 284.876 201.727, 284.936 198.082, 280.893 190.618 C 276.605 182.701, 278.015 182.366, 282.942 190.132 C 287.594 197.466, 287.912 200.416, 284.750 206.880 C 279.799 216.998, 272.964 221.191, 258 223.292 C 255.502 223.643, 255.503 223.644, 258.500 224.916 C 264.498 227.462, 277.307 224.495, 283.380 219.153 C 287.780 215.283, 293 203.535, 293 197.503 C 293 196.010, 293.430 195.148, 294 195.500 C 295.435 196.387, 295.214 201.724, 293.510 207.339 C 289.757 219.710, 277.705 229, 265.409 229 C 260.287 229, 260.051 229.109, 261.196 230.942 C 262.664 233.293, 269.381 236, 273.746 236 C 286.810 236, 302.231 221.794, 302.231 209.759 L 302.231 204.891 303.681 207.687 C 307.681 215.396, 299.026 229.033, 286 235.546 C 279.728 238.682, 268.771 240.018, 265.163 238.087 C 262.267 236.537, 262.157 239.157, 265 242 C 272.337 249.337, 304.333 235.525, 312.574 221.464 C 316.082 215.479, 316.918 208.672, 314.478 205.975 C 311.773 202.987, 310.909 203.582, 311.608 207.952 C 311.956 210.126, 311.951 213.448, 311.597 215.334 C 310.940 218.834, 305.288 227.621, 304.317 226.651 C 304.023 226.356, 304.734 224.778, 305.898 223.143 C 308.426 219.593, 309.508 212.871, 308.564 206.580 C 307.898 202.138, 307.579 201.792, 297.689 194.787 C 276.832 180.013, 258.319 156.645, 240.923 123.131 C 238.534 118.528, 236.414 115.257, 236.213 115.862 C 235.065 119.304, 252.061 158.352, 257.542 164.869 C 258.759 166.316, 261.209 170.200, 262.986 173.500 C 264.764 176.800, 269.318 184.188, 273.108 189.918 C 276.898 195.647, 279.776 200.557, 279.505 200.828 C 278.661 201.672, 275.376 198.123, 273.394 194.226 C 272.352 192.177, 271.236 190.275, 270.913 190 C 270.591 189.725, 269.016 187.323, 267.413 184.662 C 265.811 182.001, 263.825 178.790, 263 177.527 C 257.315 168.826, 247.807 152.442, 245.285 147 C 240.007 135.614, 239 133.223, 239 132.085 C 239 131.473, 238.582 130.191, 238.072 129.236 C 236.608 126.496, 234.145 117.806, 233.454 112.942 C 232.712 107.721, 230.107 98.884, 228.932 97.605 C 228.478 97.111, 227.751 98.004, 227.305 99.605 M 357 100.941 C 357 101.459, 357.450 102.160, 358 102.500 C 358.550 102.840, 358.964 103.879, 358.921 104.809 C 358.872 105.850, 358.648 106.020, 358.338 105.250 C 356.323 100.256, 354.575 110.431, 355.891 119.500 C 356.880 126.324, 361.404 155.233, 363.010 165 C 363.598 168.575, 364.116 180.050, 364.161 190.500 C 364.248 210.515, 363.942 212.292, 357.913 226.758 C 356.609 229.887, 356.685 230.146, 359.804 233.258 C 363.044 236.491, 363.081 236.500, 373.036 236.440 C 383.805 236.376, 384.811 237.363, 375.694 239.049 C 371.078 239.902, 368.878 239.797, 364.240 238.501 C 361.083 237.619, 357.628 236.772, 356.563 236.620 C 355.377 236.451, 354.186 235.039, 353.493 232.980 C 352.029 228.631, 350.816 231.250, 351.955 236.302 C 353.519 243.235, 357.676 247.334, 369.510 253.615 C 379.941 259.150, 391.442 257.623, 398.808 249.723 C 403.463 244.730, 405.371 231.056, 402.366 224.218 L 400.732 220.500 399.056 230.500 C 398.134 236, 396.582 241.715, 395.608 243.200 C 391.035 250.168, 377.650 253.180, 368.958 249.197 C 363.625 246.753, 356 240.413, 356 238.422 C 356 236.389, 356.945 236.661, 359.013 239.289 C 364.497 246.261, 379.235 249.780, 387.223 246.025 C 393.692 242.984, 394.586 241.114, 395.873 227.934 C 397.122 215.146, 396.819 213.193, 390.999 196.500 C 389.273 191.550, 386.951 184.800, 385.839 181.500 C 384.727 178.200, 382.509 172.656, 380.909 169.180 C 379.309 165.704, 378 162.642, 378 162.375 C 378 161.956, 376.231 157.753, 373 150.500 C 372.510 149.400, 371.160 146.250, 370 143.500 C 368.840 140.750, 367.497 137.600, 367.016 136.500 C 364.435 130.599, 361.895 119.696, 362.416 116.757 C 362.800 114.599, 362.717 114.150, 362.172 115.427 C 361.024 118.117, 360.016 115.366, 360.748 111.538 C 361.161 109.379, 360.980 108.895, 359.989 109.507 C 358.988 110.125, 358.827 109.616, 359.289 107.304 C 359.968 103.912, 359.215 100, 357.883 100 C 357.398 100, 357 100.423, 357 100.941 M 380.206 117.121 C 375.595 120.795, 375.097 121.526, 376.353 122.781 C 377.546 123.975, 378.457 124.015, 381.647 123.016 C 385.339 121.859, 401.052 115.863, 401.917 115.281 C 402.985 114.561, 400.892 114.128, 393.500 113.539 L 385.500 112.902 380.206 117.121 M 405 118.515 C 399.264 121.427, 383.938 127, 381.668 127 C 378.292 127, 378.945 129.921, 385.050 142.138 C 388.448 148.937, 391.391 154.677, 391.590 154.893 C 392.292 155.654, 395.388 152.400, 402.704 143.211 C 407.339 137.389, 413.441 131.283, 419.050 126.852 C 423.972 122.964, 428 119.425, 428 118.989 C 428 115.507, 411.593 115.169, 405 118.515 M 364.622 121.967 C 364.970 123.874, 365.631 126.124, 366.092 126.967 C 366.553 127.810, 367.895 130.750, 369.074 133.500 C 374.976 147.265, 384.590 166, 385.750 166 C 389.696 166, 388.865 164.005, 373.415 136.380 C 369.305 129.033, 365.504 122.004, 364.967 120.760 C 364.181 118.941, 364.113 119.176, 364.622 121.967 M 427.840 121.750 C 426.470 123.263, 422.625 126.750, 419.296 129.500 C 415.790 132.397, 409.191 139.910, 403.609 147.361 L 393.974 160.222 395.867 163.361 C 396.908 165.087, 398.345 168.846, 399.059 171.712 L 400.359 176.925 403.679 171.412 C 405.506 168.380, 407.015 165.585, 407.034 165.200 C 407.053 164.815, 407.969 162.700, 409.071 160.500 L 411.075 156.500 410.438 160 C 410.088 161.925, 407.194 168.900, 404.006 175.500 C 397.042 189.916, 396.577 191.341, 397.980 193.962 C 399.375 196.569, 399.886 196.526, 403.406 193.499 C 408.680 188.963, 409.372 190.262, 404.958 196.410 C 400.948 201.993, 401.921 205.571, 407.705 206.506 C 431.738 210.395, 445.223 217.146, 461.531 233.454 C 471.316 243.239, 476.344 251.454, 477.779 260 C 478.439 263.933, 479.123 264.878, 483.207 267.500 C 490.526 272.198, 491.404 274.883, 489.422 286.510 C 488.523 291.784, 488.075 297.539, 488.425 299.299 C 488.776 301.060, 489.052 303.542, 489.037 304.816 C 489.016 306.761, 489.370 307.019, 491.256 306.428 C 492.490 306.042, 494.175 305.521, 495 305.272 C 495.825 305.022, 495.055 306.097, 493.288 307.659 C 490.122 310.460, 488 314.531, 488 317.805 C 488 318.955, 489.288 318.153, 492.115 315.240 C 495.981 311.256, 498.045 310.026, 497.965 311.750 C 497.946 312.163, 495.033 315.425, 491.491 319 C 482.576 327.997, 480.993 334.918, 489.071 329.571 C 491.333 328.075, 493.449 327.116, 493.773 327.440 C 494.622 328.289, 487.882 335, 486.181 335 C 484.994 335, 484.975 335.265, 486.069 336.584 C 487.398 338.184, 490.581 338.153, 500.250 336.444 C 502.667 336.017, 504 336.163, 504 336.855 C 504 338.824, 499.853 340.183, 494.898 339.840 C 492.203 339.653, 489.999 339.786, 489.999 340.135 C 490 340.984, 498.579 343.749, 503.808 344.585 C 511.087 345.749, 508.677 347.325, 500.804 346.549 C 492.335 345.715, 487.963 343.681, 482.500 338.036 C 477.870 333.252, 477.253 328.191, 480.546 322 C 482.019 319.230, 482.575 315.060, 483.212 302 C 483.655 292.925, 484.274 283.015, 484.588 279.979 L 485.159 274.457 481.277 272.276 C 475.516 269.038, 473.740 266.554, 472.932 260.600 C 471.954 253.389, 469.669 248.896, 463.593 242.231 C 452.687 230.271, 438.721 221.125, 425.500 217.285 C 419.016 215.402, 405.754 212.913, 405.193 213.474 C 404.560 214.106, 409.832 222.835, 412.888 226.217 C 417.211 231, 419 235.152, 419 240.402 C 419 252.629, 425.245 269.010, 433.212 277.679 C 436.552 281.312, 434.744 282.238, 430.745 278.942 L 427 275.854 427 294.199 L 427 312.544 424.039 316.137 C 420.943 319.892, 411.940 324.769, 406.611 325.577 C 403.114 326.108, 402.373 326.581, 412.717 321.678 C 415.036 320.578, 418.186 318.372, 419.717 316.776 L 422.500 313.873 422.823 293.475 L 423.147 273.077 418.741 264.788 C 415.866 259.381, 414.116 254.648, 413.705 251.172 C 413.054 245.657, 410.214 238, 408.819 238 C 408.382 238, 407.728 239.851, 407.366 242.114 C 405.755 252.186, 396.070 259.366, 384 259.434 C 379.875 259.458, 376.222 259.862, 375.883 260.333 C 374.992 261.568, 359.381 253.131, 354.912 249 C 345.898 240.667, 344.751 231.402, 351.594 222.193 C 354.523 218.252, 356.376 214.613, 356.706 212.156 L 357.223 208.302 351.861 207.674 C 335.661 205.776, 329 205.665, 329 207.293 C 329 208.167, 329.450 209.160, 330 209.500 C 333.400 211.601, 329.508 224.218, 323.361 231.022 C 315.991 239.180, 297.943 251, 292.857 251 C 291.900 251, 290.840 251.450, 290.500 252 C 290.129 252.601, 283.355 253, 273.538 253 L 257.194 253 254.193 249.259 C 251.217 245.550, 251.173 245.534, 249.096 247.414 C 247.943 248.457, 247 249.690, 247 250.154 C 247 250.618, 245.313 252.745, 243.250 254.879 C 232.721 265.778, 232.111 290.127, 242.006 304.509 L 245.221 309.181 243.582 318.140 C 241.635 328.781, 241.830 329.299, 247.007 327.265 C 251.069 325.670, 251.878 324.278, 249.896 322.296 C 248.407 320.807, 246.079 309.622, 246.035 303.750 C 246.007 299.899, 246.331 298.990, 247.750 298.948 C 249.219 298.904, 249.139 298.643, 247.250 297.326 C 244.510 295.414, 244.184 292.606, 246.800 293.436 C 248.354 293.930, 248.541 293.512, 248.174 290.367 C 247.867 287.732, 248.077 286.930, 248.938 287.461 C 249.591 287.865, 250.885 287.538, 251.813 286.735 C 252.741 285.931, 255.653 284.470, 258.284 283.488 C 274.368 277.485, 284.865 300.234, 274.537 318.712 C 272.348 322.630, 272.297 323, 273.948 323 C 274.942 323, 276.315 323.675, 277 324.500 C 278.073 325.793, 277.640 326.014, 273.872 326.102 C 269.095 326.214, 269.149 326.242, 279.174 328.813 C 282.944 329.780, 287.672 332.695, 289.981 335.477 C 292.034 337.951, 290.257 338.558, 287.238 336.415 C 282.534 333.076, 267.651 328.016, 266.352 329.315 C 266.160 329.507, 269.165 331.398, 273.031 333.517 C 284.489 339.798, 298.013 355.483, 299.313 364 C 300.048 368.814, 298.789 376.241, 297.145 376.787 C 296.100 377.134, 295.952 376.497, 296.497 374.015 C 299.571 360.018, 287.457 343.746, 266.699 333.989 C 257.551 329.689, 248.874 331.622, 233.667 341.350 C 225.754 346.412, 221.225 355.467, 226.250 356.180 C 228.107 356.444, 228.641 357.373, 229.306 361.500 C 229.749 364.250, 230.744 369.405, 231.517 372.956 C 233.038 379.942, 232.821 380.999, 230.202 379.372 C 227.813 377.889, 225.799 373.392, 225.219 368.251 C 224.522 362.067, 222.904 364.324, 222.257 372.383 C 220.830 390.169, 229.966 407.228, 244.653 414.199 C 248.982 416.254, 250.943 416.496, 263 416.467 C 294.365 416.390, 332.879 402.159, 348.491 384.879 C 352.545 380.391, 352.739 379.478, 350 377.768 C 347.483 376.196, 347.403 374, 349.864 374 C 352.975 374, 370 382.938, 370 384.571 C 370 386.990, 367.661 387.199, 362.955 385.200 L 358.544 383.327 351.399 394.019 C 344.091 404.957, 327.359 423.340, 320.933 427.490 C 311.847 433.359, 300.944 434.169, 286.750 430.030 C 278.488 427.621, 276.110 425.336, 283.093 426.516 C 286.733 427.131, 287.145 427.002, 286.816 425.354 C 286.537 423.959, 285.710 423.574, 283.473 423.800 C 281.838 423.965, 277.237 424.144, 273.250 424.197 C 265.266 424.305, 264.696 425.840, 271.830 428.019 C 273.848 428.635, 276.400 429.527, 277.500 430.002 C 302.692 440.865, 321.046 439.312, 337.422 424.935 C 340.663 422.089, 343 421.185, 343 422.777 C 343 424.110, 339.895 428.299, 335.103 433.429 C 332.180 436.560, 331.412 437.798, 333 436.822 C 338.333 433.543, 346.593 429.566, 348.500 429.358 C 350.258 429.168, 361.468 426.305, 373.500 422.975 C 394.320 417.213, 417.340 401.360, 422.650 389.129 C 428.211 376.318, 429.677 361.300, 426.329 351.428 C 424.067 344.760, 414.714 335.519, 405.877 331.221 C 402.235 329.449, 398.802 328, 398.250 328 C 397.697 328, 396.703 327.347, 396.041 326.550 C 393.888 323.955, 401.871 325.893, 408.874 329.665 C 423.028 337.289, 430.542 348.244, 431.672 362.907 C 432.019 367.396, 432.713 371.323, 433.216 371.633 C 433.721 371.946, 433.515 372.937, 432.755 373.849 C 431.998 374.757, 430.580 378.200, 429.603 381.500 C 426.408 392.288, 422.343 399.348, 415.235 406.449 C 408.607 413.071, 408.565 413.145, 412.616 411.137 C 414.879 410.015, 418.929 408.558, 421.616 407.901 C 428.728 406.159, 433.160 403.672, 437.283 399.109 C 447.349 387.967, 448.440 381.040, 440.300 379.944 C 431.796 378.799, 431.038 375.008, 439.309 374.987 C 447.883 374.966, 452.584 371.979, 463.875 359.381 C 478.150 343.453, 482.771 341.127, 484.500 349 C 485.420 353.188, 486.785 353.867, 495.094 354.269 C 503.861 354.694, 504.407 354.948, 506.631 359.634 C 509.946 366.622, 513.479 364.854, 515.007 355.443 C 516.061 348.958, 517.724 347, 522.180 347 C 523.719 347, 527.319 346.111, 530.180 345.024 C 536.508 342.619, 536.728 342.757, 533.030 346.807 C 530.364 349.725, 529.592 350, 524.056 350 C 517.388 350, 516.678 350.815, 520.635 353.927 C 526.704 358.702, 538.461 355.787, 539.513 349.248 C 540.704 341.835, 541.090 340.967, 545.508 335.770 C 547.972 332.872, 551.110 328.179, 552.482 325.342 C 553.853 322.505, 556.042 318.905, 557.347 317.342 C 561.453 312.422, 563.021 308.253, 563.576 300.775 C 564.216 292.172, 566.234 285.494, 569.390 281.535 L 571.685 278.657 569.343 271.733 C 567.624 266.652, 567 262.579, 567 256.438 L 567 248.067 562.393 242.880 L 557.787 237.693 558.237 231.096 C 558.982 220.196, 549.985 196.728, 542.208 189.285 C 540.033 187.203, 535.209 181, 531.488 175.500 C 523.025 162.988, 521.223 161, 518.350 161 C 517.084 161, 512.325 158.350, 507.774 155.111 C 494.270 145.499, 492.468 144.745, 488.321 146.968 C 484.962 148.768, 484.713 148.765, 477.805 146.810 L 470.729 144.807 468.284 147.654 C 466.490 149.743, 466.028 149.968, 466.548 148.500 C 468.623 142.646, 468.451 142.222, 462.919 139.554 C 456.532 136.472, 456.479 136.469, 453.708 139.082 C 450.029 142.551, 447.616 143.585, 448.930 141.131 C 449.524 140.020, 450.434 138.850, 450.952 138.530 C 451.470 138.210, 453.235 135.960, 454.875 133.530 L 457.856 129.113 454.552 127.163 C 452.734 126.091, 450.179 124.885, 448.873 124.484 C 447.568 124.083, 446.050 123.424, 445.500 123.019 C 443.835 121.794, 434.789 119, 432.487 119 C 431.301 119, 429.210 120.237, 427.840 121.750 M 335.586 124.331 C 330.659 127.061, 325.987 132.806, 325.711 136.473 C 325.362 141.119, 327.464 140.394, 332.050 134.285 C 334.438 131.103, 336.877 128.050, 337.470 127.500 C 343.316 122.074, 342.409 120.549, 335.586 124.331 M 347.864 125.750 C 342.016 130.640, 334.998 139.013, 325.453 152.494 C 322.729 156.341, 317.350 163.179, 313.500 167.690 C 307.095 175.194, 299.968 186.422, 301.052 187.300 C 302.678 188.618, 317.226 197, 317.887 197 C 318.335 197, 320.682 195.948, 323.101 194.662 C 330.143 190.920, 337.175 188.958, 348.200 187.659 L 358.500 186.446 358.473 178.973 C 358.439 169.302, 356.277 144.974, 354.439 133.574 C 353.648 128.664, 353 124.277, 353 123.824 C 353 122.298, 351.173 122.983, 347.864 125.750 M 463.323 131.696 C 459.077 132.523, 458.657 134.610, 462.381 136.377 C 464.263 137.269, 466.495 138, 467.342 138 C 468.189 138, 469.164 138.457, 469.509 139.015 C 471.502 142.240, 486 144.611, 486 141.712 C 486 141.004, 483.847 138.304, 481.216 135.712 C 476.278 130.849, 472.282 129.952, 463.323 131.696 M 362.494 144.500 C 362.859 147.800, 363.548 151.850, 364.026 153.500 C 369.043 170.839, 368.671 212.460, 363.397 223.795 C 361.254 228.400, 362.261 230.204, 364.728 226.180 C 372.183 214.019, 372.305 182.785, 365.040 146.500 C 363.370 138.162, 361.642 136.805, 362.494 144.500 M 509.018 147.389 L 505.537 148.666 508.451 151.367 C 514.152 156.650, 523.918 159.701, 524.084 156.250 C 524.131 155.287, 525.048 156.412, 526.122 158.750 C 529.861 166.884, 530.919 163.887, 528.152 153 L 526.500 146.500 519.500 146.306 C 515.650 146.199, 510.933 146.686, 509.018 147.389 M 533.505 169.992 C 532.895 170.979, 540.890 184.196, 542.818 185.388 C 544.257 186.277, 550 181.181, 550 179.015 C 550 174.163, 535.746 166.366, 533.505 169.992 M 344.500 193.725 C 337.206 194.759, 325 199.799, 325 201.777 C 325 202.179, 331.240 202.570, 338.866 202.645 C 346.492 202.721, 354.142 203.092, 355.866 203.471 L 359 204.159 359 198.579 L 359 193 353.250 193.150 C 350.087 193.232, 346.150 193.491, 344.500 193.725 M 319.840 212.908 C 320.448 221.669, 314.146 230.096, 299.909 239.561 C 289.880 246.228, 283.894 248.048, 271.475 248.206 C 260.204 248.349, 258 247.550, 258 243.319 C 258 241.949, 257.562 241.153, 257 241.500 C 255.376 242.504, 255.851 245.540, 258.073 248.365 C 260.132 250.983, 260.232 251, 273.894 251 C 293.807 251, 301.795 247.541, 318.692 231.601 L 326.345 224.382 326.781 218.349 C 327.188 212.719, 327.034 212.172, 324.474 210.158 C 320.291 206.868, 319.456 207.363, 319.840 212.908 M 241.639 225.750 C 236.588 239.194, 234.905 248.909, 237.091 252 C 238.024 253.318, 238.223 253.321, 238.736 252.021 C 239.056 251.208, 241.459 248.280, 244.076 245.514 L 248.832 240.484 245.416 236.757 C 242.166 233.210, 240.854 229, 243 229 C 243.550 229, 244 229.642, 244 230.427 C 244 232.622, 248.932 236, 252.135 236 C 255.649 236, 255.649 236.073, 252.135 230.800 C 250.559 228.435, 248.482 224.813, 247.521 222.750 C 245.145 217.655, 244.570 217.949, 241.639 225.750 M 415.500 220 C 415.840 220.550, 416.901 221, 417.859 221 C 418.817 221, 420.028 221.360, 420.550 221.800 C 421.072 222.240, 424.200 223.667, 427.500 224.970 C 439.504 229.710, 454.716 242.631, 462.856 255 C 465.114 258.430, 465.147 258.443, 464.535 255.646 C 463.076 248.983, 449.313 234.372, 438.053 227.532 C 428.055 221.458, 413.370 216.554, 415.500 220 M 563.258 226.783 C 562.574 227.237, 561.730 229.690, 561.381 232.235 C 560.809 236.412, 561.016 237.111, 563.520 239.431 C 566.935 242.596, 569.496 242.699, 571.426 239.750 C 573.645 236.360, 574.477 229.640, 572.846 228.291 C 570.990 226.757, 564.769 225.779, 563.258 226.783 M 571.243 259.407 C 571.895 269.858, 572.297 270.580, 575.960 267.872 C 580.830 264.271, 582.717 259.743, 580.657 256.599 C 579.274 254.488, 573.406 251, 571.237 251 C 570.952 251, 570.954 254.783, 571.243 259.407 M 257.251 264.822 C 252.448 266.533, 248 270.058, 248 272.153 C 248 273.454, 248.937 273.181, 252.031 270.978 C 255.846 268.261, 265.102 266.671, 272.491 267.462 C 279.525 268.215, 283.382 267.237, 282.026 265.042 C 280.543 262.642, 263.787 262.493, 257.251 264.822 M 342.500 264.724 C 340.113 265.310, 338 266.906, 338 268.122 C 338 268.605, 340.620 269, 343.822 269 C 355.728 269, 365.158 275.045, 368.667 284.926 C 370.862 291.104, 372.443 290.393, 371.546 283.633 C 369.820 270.624, 355.753 261.466, 342.500 264.724 M 416 272.681 C 416 278.968, 402.715 286.950, 392.191 286.985 C 389.576 286.994, 388.125 287.393, 388.500 288 C 388.840 288.550, 391.594 289, 394.621 289 C 401.933 289, 409.679 285.308, 414.964 279.304 C 419.355 274.316, 419.787 272.898, 417.500 271 C 416.225 269.942, 416 270.194, 416 272.681 M 256.164 276.636 C 252.700 278.398, 249.257 282.591, 250.365 283.698 C 250.714 284.047, 251 283.853, 251 283.265 C 251 282.678, 252.486 281.321, 254.301 280.250 C 259.317 277.290, 269.579 277.397, 276.553 280.481 C 283.042 283.351, 283.715 282.125, 277.750 278.300 C 272.298 274.804, 261.414 273.965, 256.164 276.636 M 417.630 283.805 C 415.229 287.376, 404.222 295.674, 400.741 296.537 C 399.223 296.914, 397.734 297.622, 397.432 298.111 C 397.129 298.600, 395.757 299, 394.382 299 C 392.970 299, 392.151 299.435, 392.500 300 C 395.273 304.487, 415.744 292.860, 419.027 284.934 C 420.655 281.004, 419.915 280.407, 417.630 283.805 M 570.995 286.007 C 568.574 289.407, 567.083 299.315, 568.830 300.395 C 572.320 302.552, 581 295.360, 581 290.311 C 581 283.515, 574.700 280.804, 570.995 286.007 M 341.225 286.848 C 336.745 288.667, 329.120 295.453, 330.266 296.600 C 330.633 296.966, 332.484 295.904, 334.381 294.239 C 340.986 288.439, 350.617 287.455, 356.909 291.935 C 361.326 295.080, 360.726 296.108, 355.874 293.708 C 341.464 286.578, 323.934 299.831, 324.024 317.788 C 324.058 324.729, 329.317 334.869, 334.247 337.500 C 337.808 339.401, 339.096 341, 337.065 341 C 334.934 341, 330.920 343.062, 331.434 343.893 C 333.152 346.672, 354.990 337.053, 360.053 331.287 C 365.378 325.222, 366.868 310.955, 362.941 303.628 C 360.356 298.805, 361.174 297.602, 363.954 302.137 C 372.976 316.853, 371.418 326.005, 358.352 335.037 C 351.385 339.854, 346 345.131, 346 347.144 C 346 347.688, 347.913 346.585, 350.250 344.691 C 356.446 339.673, 360.010 338.135, 368.304 336.901 C 378.829 335.336, 388.007 336.867, 393.222 341.058 C 398.202 345.060, 399.070 344.288, 394.913 339.554 C 390.046 334.011, 386.720 332.709, 377.278 332.649 C 372.744 332.620, 369.589 332.244, 370.267 331.814 C 370.945 331.383, 374.313 331.024, 377.750 331.015 C 381.188 331.007, 384 330.594, 384 330.098 C 384 328.989, 378.083 326.831, 376.954 327.528 C 376.505 327.806, 375.856 327.575, 375.510 327.016 C 375.165 326.457, 375.359 326, 375.941 326 C 377.503 326, 377.237 314.979, 375.599 311.839 C 374.357 309.458, 374.395 309.130, 375.962 308.720 C 376.925 308.468, 378.220 306.808, 378.839 305.031 C 379.818 302.224, 379.759 301.879, 378.390 302.404 C 374.162 304.026, 372 304.177, 372 302.849 C 372 302.097, 371.100 300.919, 370 300.232 C 368.900 299.545, 368 298.364, 368 297.608 C 368 295.511, 360.395 289.098, 355.337 286.930 C 349.877 284.590, 346.830 284.572, 341.225 286.848 M 340.492 297.927 C 334.359 300.659, 332.594 303.258, 338.253 301.223 C 345.963 298.450, 352.658 302.579, 356.419 312.427 C 358.406 317.631, 360.024 317.897, 361.360 313.239 C 363.160 306.965, 358.308 299.308, 351.182 297.173 C 346.230 295.689, 345.381 295.749, 340.492 297.927 M 560.675 319.527 C 557.236 322.867, 554.713 328.463, 555.784 330.376 C 556.389 331.458, 566.501 330.580, 570.250 329.120 C 574.188 327.587, 573.930 323.730, 569.600 319.400 C 565.389 315.189, 565.139 315.192, 560.675 319.527 M 550.153 341.337 C 546.849 344.855, 546.282 350.040, 548.939 352.445 C 552.189 355.386, 554.223 352.765, 554.378 345.438 C 554.516 338.939, 553.412 337.868, 550.153 341.337 M 277.202 353.002 C 267.272 357.188, 263.282 364.870, 263.866 378.679 C 264.075 383.640, 269.663 389.001, 274.618 388.996 C 282.507 388.989, 287.204 383.720, 290.434 371.256 C 292.098 364.833, 290.904 357.687, 287.588 354.216 C 285.941 352.493, 280.046 351.804, 277.202 353.002 M 273.197 357.972 C 261.201 366.662, 266.243 392.112, 278.646 385.479 C 286.595 381.229, 291.302 361.743, 285.486 357.168 C 281.723 354.208, 278.063 354.447, 273.197 357.972 M 540.430 359.715 C 538.024 362.726, 530.017 363.927, 523.796 362.209 C 520.468 361.290, 520.118 361.393, 519.604 363.441 C 517.379 372.306, 509.532 373.684, 503.071 366.344 L 498.972 361.687 493.736 362.825 C 490.856 363.450, 486.207 364.401, 483.404 364.937 C 479.130 365.755, 466.991 369.741, 467.004 370.322 C 467.006 370.420, 468.354 373.200, 470 376.500 C 473.905 384.330, 473.928 384.226, 467.337 388.945 L 461.674 393 467.649 393 C 474.669 393, 479.591 395.095, 485.676 400.672 C 487.973 402.778, 491.222 405.536, 492.897 406.802 C 494.586 408.079, 497.546 412.350, 499.543 416.389 C 502.888 423.158, 503.146 424.340, 503.188 433.087 C 503.232 442.177, 503.277 442.363, 504.511 438.500 C 507.021 430.647, 509.111 420.390, 509.604 413.500 C 509.879 409.650, 510.388 404.925, 510.734 403 C 511.362 399.507, 511.364 399.510, 512.082 404.500 C 513.099 411.571, 511.208 438.258, 509.380 442.632 C 507.113 448.058, 508.218 447.674, 513.969 441.036 L 519.198 435 524.849 435.032 C 528.224 435.051, 531.282 435.655, 532.441 436.532 C 534.226 437.882, 533.953 438, 529.049 438 C 523.878 438, 523.545 438.174, 518.072 443.750 C 502.275 459.844, 501.357 462.516, 513.743 456.351 C 518.551 453.958, 523.051 452, 523.743 452 C 526.455 452, 524.756 453.917, 519.750 456.503 C 511.589 460.721, 500.245 469.579, 501.456 470.789 C 501.616 470.950, 504.994 470.343, 508.962 469.440 C 513.385 468.435, 517.815 468.045, 520.410 468.434 C 523.826 468.946, 525.160 468.662, 527.321 466.962 C 530.417 464.527, 530.907 465.649, 528.076 468.688 C 525.855 471.072, 526.977 473, 530.584 473 C 533.875 473, 540.188 465.598, 539.440 462.617 C 538.670 459.551, 541.671 458.182, 543.571 460.733 C 545.371 463.150, 549.432 460.880, 552.037 456 C 555.037 450.381, 558 443.232, 558 441.614 C 558 440.791, 558.450 439.840, 559 439.500 C 559.550 439.160, 560.012 438.121, 560.026 437.191 C 560.041 436.261, 560.909 433.700, 561.957 431.500 L 563.861 427.500 563.353 431 C 562.815 434.699, 559.472 445.306, 557.920 448.236 C 557.414 449.191, 557 450.654, 557 451.486 C 557 454.387, 558.673 452.967, 560.812 448.250 C 568.898 430.423, 569.120 408.693, 561.398 391 C 556.934 380.772, 547 365.472, 547 368.825 C 547 369.956, 546.550 371.160, 546 371.500 C 545.450 371.840, 545 373.081, 545 374.259 C 545 375.757, 544.684 376.084, 543.948 375.348 C 543.213 374.613, 543.237 372.946, 544.028 369.802 C 544.979 366.027, 544.013 356.679, 542.711 357.062 C 542.595 357.097, 541.569 358.290, 540.430 359.715 M 273.727 364.912 C 269.960 369.389, 271.794 382, 276.211 382 C 278.073 382, 282.914 375.540, 284.377 371.104 C 285.716 367.045, 285.722 366.234, 284.425 364.250 C 282.197 360.843, 276.874 361.172, 273.727 364.912 M 458.569 374.731 C 456.418 378.095, 455.486 378.896, 455.069 377.738 C 454.069 374.964, 448 378.209, 448 381.517 C 448 387.572, 452.097 390.783, 457.533 388.989 C 464.395 386.725, 466.563 380.946, 463.224 373.822 L 461.500 370.145 458.569 374.731 M 521.437 403.252 C 521.375 415.237, 521.284 415.724, 517.187 425.943 C 512.482 437.679, 512.683 437, 513.913 437 C 514.416 437, 516.103 435.313, 517.663 433.250 C 519.224 431.188, 521.143 429.361, 521.930 429.190 C 522.716 429.020, 524.741 427.895, 526.430 426.690 C 528.870 424.949, 530.813 424.520, 535.901 424.597 C 541.500 424.682, 542.071 424.525, 540.460 423.347 C 537.898 421.474, 528.002 421.610, 525.223 423.557 C 522.205 425.670, 522.112 423.113, 525.108 420.405 C 528.099 417.702, 539.306 417.756, 543.406 420.494 C 547.170 423.007, 546.532 420.486, 542.675 417.607 C 539.732 415.410, 529.217 414.679, 525.592 416.419 C 523.831 417.265, 523.739 417.034, 524.395 413.418 C 526.104 404.009, 526.119 402.216, 524.528 396.744 C 523.610 393.585, 522.553 391.001, 522.179 391.002 C 521.806 391.003, 521.472 396.516, 521.437 403.252 M 594.964 395.411 C 591.829 398.433, 581.479 403.156, 576.769 403.714 L 571.818 404.300 572.657 408.900 C 573.119 411.430, 573.498 416.988, 573.498 421.250 C 573.499 425.512, 573.798 429, 574.163 429 C 575.801 429, 586.966 416.812, 591.122 410.488 C 598.191 399.730, 600.701 389.883, 594.964 395.411 M 451.793 395.712 C 449.996 395.986, 448.322 397.364, 446.812 399.812 C 441.199 408.915, 438.238 411.316, 427.888 415.151 C 423 416.963, 419 418.781, 419 419.191 C 419 419.601, 418.385 419.701, 417.634 419.413 C 416.367 418.927, 410.188 420.762, 400.500 424.502 L 396.500 426.046 401 425.445 C 403.475 425.113, 407.879 423.978, 410.788 422.921 C 416.871 420.711, 417.344 420.635, 416.495 422.007 C 415.046 424.352, 407.099 427.226, 400.643 427.739 L 393.785 428.284 397.643 429.627 C 399.764 430.366, 402.476 430.977, 403.668 430.985 C 406.329 431.003, 409 431.971, 409 432.916 C 409 433.836, 397.058 432.437, 389.750 430.660 C 386.587 429.892, 384.002 429.541, 384.004 429.881 C 384.015 431.815, 403.037 437, 410.121 437 C 412.531 437, 413.873 437.397, 413.500 438 C 412.708 439.281, 401.319 439.296, 395.764 438.023 C 393.419 437.485, 388.483 436.360, 384.794 435.523 C 381.106 434.685, 376.156 434.010, 373.794 434.023 L 369.500 434.045 375 437.452 C 383.471 442.699, 383.993 443.174, 380.506 442.456 C 378.859 442.117, 374.870 440.075, 371.642 437.920 C 362.426 431.765, 360.692 432.680, 367.222 440.250 C 370.187 443.688, 374.089 448.414, 375.892 450.753 C 377.696 453.091, 380.146 455.190, 381.336 455.417 C 382.526 455.644, 386.129 456.359, 389.343 457.007 C 395.088 458.165, 395.247 458.136, 398.843 455.255 C 404.137 451.014, 410.114 447.415, 413.078 446.684 C 417.753 445.531, 421 441.569, 421 437.016 C 421 434.772, 421.619 431.454, 422.376 429.643 C 423.853 426.107, 430.523 420, 432.907 420 C 433.706 420, 437.091 419.148, 440.430 418.106 C 448.535 415.576, 458.786 413.750, 460.149 414.592 C 461.339 415.327, 456.153 417.373, 450.330 418.466 C 445.747 419.326, 436.661 423.335, 433.296 425.982 C 430.342 428.306, 429.090 427.923, 430.982 425.274 C 431.679 424.298, 431.089 424.738, 429.671 426.252 C 425.795 430.389, 423.353 441, 426.277 441 C 426.980 441, 428.545 440.306, 429.755 439.459 C 435.765 435.250, 445.795 434.029, 453.316 436.592 C 461.155 439.263, 472.336 451.141, 469.498 453.782 C 469.073 454.177, 468.501 453.825, 468.226 453 C 466.484 447.778, 455.501 440.973, 448.884 441.015 C 445.250 441.039, 448.717 442.957, 452.500 443.016 C 454.150 443.042, 456.396 443.741, 457.492 444.569 C 459.312 445.944, 458.966 446.015, 453.492 445.391 C 450.196 445.016, 445.516 444.121, 443.091 443.404 C 440.038 442.501, 438.107 442.408, 436.813 443.100 C 434.484 444.347, 435.166 445.574, 438.680 446.456 C 441.636 447.198, 447.384 450.949, 446.666 451.668 C 446.418 451.915, 444.698 451.483, 442.841 450.707 C 436 447.849, 430.300 447.677, 422.893 450.105 C 414.870 452.735, 414.451 453.517, 420.250 455.038 C 430.586 457.748, 437.310 460.573, 441.047 463.772 C 444.682 466.884, 443.028 467.043, 437.250 464.136 C 429.791 460.383, 413.705 457.664, 408.469 459.271 C 405.138 460.293, 391 473.708, 391 475.846 C 391 476.308, 393.813 476.644, 397.250 476.593 C 402.136 476.520, 404.155 476.967, 406.500 478.640 C 408.150 479.817, 409.725 480.798, 410 480.820 C 411.950 480.974, 417.070 483.615, 420.972 486.479 L 425.602 489.878 428.747 486.939 C 430.476 485.323, 432.366 484, 432.946 484 C 434.126 484, 434.429 488.991, 433.250 489.015 C 430.467 489.072, 429.854 490.816, 431.499 493.997 L 433.186 497.260 434.363 494.900 C 436.569 490.474, 446.041 488.593, 452.122 491.374 C 453.443 491.978, 453.654 491.641, 453.256 489.560 C 451.644 481.124, 466.037 475.869, 472.906 482.386 L 475.500 484.847 481.591 479.957 C 492.792 470.964, 495.746 464.609, 497.008 446.786 C 497.464 440.344, 498.132 434.596, 498.492 434.013 C 499.569 432.270, 497.218 419.830, 494.898 414.999 C 487.651 399.909, 471.546 392.703, 451.793 395.712 M 458.424 398.890 C 453.889 400.049, 446.850 404.250, 447.819 405.219 C 448.281 405.681, 449.973 405.373, 451.579 404.535 C 453.186 403.698, 455.197 403.010, 456.050 403.006 C 456.903 403.003, 458.096 402.504, 458.703 401.897 C 459.401 401.199, 463.135 400.923, 468.869 401.147 C 476.835 401.457, 477.753 401.323, 476.462 400.033 C 474.786 398.358, 463.344 397.633, 458.424 398.890 M 324.614 411.325 C 317.376 415.157, 305.230 424.443, 305.068 426.269 C 304.985 427.209, 308.986 426.400, 315 424.260 C 319.321 422.723, 330.996 412.737, 333.133 408.750 C 334.436 406.318, 333.590 406.574, 324.614 411.325 M 346.250 437.709 C 339.721 439.633, 339.514 440.997, 345.750 441.010 C 351.499 441.022, 358.144 443.981, 366.753 450.364 C 374.536 456.135, 374.933 456.134, 370.812 450.355 C 360.384 435.730, 357.682 434.339, 346.250 437.709 M 265.108 439.982 C 263.242 441.578, 258.742 444.295, 255.108 446.020 C 251.473 447.745, 246.450 450.463, 243.944 452.058 L 239.388 454.959 242.388 461.230 L 245.388 467.500 251.128 467.500 C 257.828 467.500, 261.439 470.149, 264.965 477.648 C 267.691 483.448, 269.083 483.138, 271.873 476.112 C 274.956 468.351, 276.876 467.364, 283.877 469.941 C 289.687 472.080, 293 474.518, 293 476.655 C 293 478.881, 294.985 478.170, 295.965 475.593 C 297.464 471.649, 305.055 470.595, 309.844 473.666 C 312.096 475.110, 312.160 475.077, 311.470 472.835 C 311.075 471.551, 310.695 470.476, 310.626 470.447 C 310.557 470.418, 309.375 469.699, 308 468.849 C 305.884 467.541, 304.962 467.499, 302 468.576 C 297.126 470.347, 295.029 470.368, 297.527 468.620 C 298.612 467.861, 300.400 467.014, 301.500 466.736 C 302.811 466.406, 302.357 466.192, 300.184 466.116 C 296.182 465.976, 293 467.517, 293 469.594 C 293 470.432, 292.550 470.840, 292 470.500 C 290.407 469.516, 290.834 467.166, 293 465 C 296.498 461.502, 305.294 462.741, 309.067 467.264 L 310.933 469.500 310.967 466.905 C 311.008 463.675, 309.075 461.942, 301.720 458.615 C 294.447 455.324, 292.304 455.335, 288.815 458.677 C 285.794 461.572, 284.437 461.350, 285.459 458.129 C 286.728 454.131, 299.654 454.155, 306.798 458.167 C 308.689 459.229, 310.439 459.895, 310.687 459.646 C 311.477 458.856, 308.573 454.999, 306.752 454.421 C 304.045 453.562, 304.676 451.377, 308.032 449.987 C 311.790 448.430, 312.466 449.070, 312.629 454.333 C 312.700 456.625, 313.598 460.422, 314.625 462.772 L 316.491 467.044 322.495 466.391 C 325.798 466.031, 328.791 465.574, 329.146 465.374 C 330.666 464.519, 326.644 453.117, 323.033 448.047 C 321.117 445.356, 320.794 445.261, 316.757 446.199 C 310.321 447.694, 299.428 446.536, 291.500 443.513 C 285.320 441.157, 270.688 436.931, 269.090 437.041 C 268.766 437.063, 266.973 438.387, 265.108 439.982 M 226.174 440.314 C 223.361 443.309, 223.409 443.624, 227.147 446.815 C 232.381 451.280, 232.747 451.335, 237.790 448.425 C 240.380 446.930, 242.663 445.573, 242.861 445.409 C 243.060 445.245, 241.935 443.911, 240.361 442.445 C 235.014 437.462, 229.615 436.652, 226.174 440.314 M 334.189 446.714 C 330.878 447.346, 330.576 449.179, 332.931 454.347 C 335.486 459.956, 335.612 464.544, 333.250 465.920 C 331.974 466.663, 331.887 466.947, 332.930 466.970 C 333.717 466.986, 337.249 468.882, 340.780 471.183 C 345.375 474.176, 349.405 475.844, 354.955 477.048 L 362.710 478.731 367.417 468.761 C 370.006 463.277, 371.983 458.688, 371.812 458.564 C 359.269 449.444, 344.406 444.762, 334.189 446.714 M 218.840 449.775 C 216.023 453.182, 213.425 460.193, 210.602 472 C 198.736 521.630, 209.953 574.815, 240.867 615.500 C 247.117 623.725, 270.383 646.914, 276.500 651.016 C 279.250 652.859, 281.725 654.624, 282 654.937 C 282.756 655.797, 293.896 663, 294.470 663 C 294.745 663, 297.114 664.299, 299.735 665.887 C 309.797 671.984, 328.040 678.207, 346 681.669 C 358.123 684.006, 399.898 684.316, 409.500 682.141 C 422.921 679.100, 431.608 676.906, 433.500 676.080 C 434.600 675.600, 437.867 674.246, 440.760 673.071 C 495.903 650.686, 532.128 615.015, 556.095 559.500 C 564.225 540.670, 568.758 511.411, 567.744 484.319 L 567.206 469.946 563.437 464.473 C 561.364 461.463, 559.481 459, 559.253 459 C 557.822 459, 541.919 471.673, 539.191 474.988 C 535.983 478.883, 535.702 479.003, 530.059 478.876 C 522.876 478.713, 516.680 480.911, 507.810 486.768 C 501.045 491.235, 497.058 491.821, 493.399 488.886 C 492.794 488.400, 490.304 487.729, 487.866 487.395 C 483.838 486.843, 483.027 487.116, 478.967 490.391 C 461.039 504.854, 448.352 512, 440.603 512 C 438.160 512, 433.538 512.644, 430.331 513.431 C 418.292 516.387, 414.737 516.412, 411.664 513.564 C 410.142 512.154, 408.287 511, 407.541 511 C 406.795 511, 404.231 508.847, 401.843 506.215 C 393.473 496.995, 388.710 495.143, 379.516 497.538 C 371.985 499.500, 367.752 499.379, 364.882 497.121 C 356.194 490.288, 350.514 489.472, 343.154 494 C 337.340 497.577, 337.180 497.589, 331.195 494.857 C 324.821 491.948, 315.154 491.939, 309 494.837 C 303.180 497.578, 298.596 497.561, 294.697 494.784 C 292.294 493.073, 289.638 492.438, 283.043 491.997 C 270.279 491.144, 263.681 487.370, 259.131 478.318 C 256.455 472.995, 255.851 472.664, 249.215 472.880 C 242.598 473.097, 240.852 471.812, 238.364 464.892 C 236.896 460.810, 235.411 459.084, 229.623 454.737 C 220.280 447.721, 220.466 447.806, 218.840 449.775 M 376.180 466.945 C 375.195 468.565, 372.899 474.468, 371.077 480.064 C 367.384 491.412, 367.646 492.430, 374 491.399 C 382.781 489.975, 384 489.174, 384 484.826 C 384 480.466, 386.616 470.280, 388.263 468.226 C 389.426 466.776, 389.463 466.819, 385.703 465.202 C 380.994 463.178, 378.154 463.698, 376.180 466.945 M 321.736 472.637 C 319.337 473.337, 317 478.150, 317 482.391 C 317 486.614, 315.620 487.670, 312.375 485.933 C 309.443 484.364, 301 487.803, 301 490.566 C 301 492.196, 306.104 491.821, 308.500 490.015 C 313.156 486.507, 326.555 486.523, 333.312 490.046 L 337.199 492.072 341.529 488.080 L 345.860 484.088 343.641 480.794 C 339.711 474.959, 328.319 470.717, 321.736 472.637 M 512.500 472.663 C 507.899 473.655, 503.170 476.281, 503.665 477.569 C 504.057 478.590, 503.330 478.766, 500.566 478.317 C 497.878 477.881, 496.439 478.198, 494.937 479.557 C 492.935 481.369, 492.947 481.396, 496.624 483.184 C 500.322 484.983, 500.335 484.982, 503.703 482.413 C 507.548 479.481, 519.165 474, 521.537 474 C 522.407 474, 522.840 473.550, 522.500 473 C 521.889 472.012, 516.381 471.827, 512.500 472.663 M 277.080 476.403 C 275.523 478.280, 273.988 483.805, 274.589 485.370 C 275.068 486.620, 291.989 486.777, 292.013 485.532 C 292.049 483.586, 288.825 477.991, 286.883 476.631 C 284.026 474.630, 278.656 474.505, 277.080 476.403 M 299.500 478.155 C 296.452 479.822, 295 482.093, 295 485.191 C 295 488.628, 295.424 488.662, 299.151 485.526 C 300.768 484.166, 303.870 482.573, 306.045 481.988 C 310.400 480.815, 311.014 479.613, 308.066 478.035 C 305.591 476.711, 302.050 476.760, 299.500 478.155 M 392.325 482.612 C 389.114 484.195, 385.334 487.697, 386.089 488.388 C 387.774 489.928, 399.276 494.947, 400.040 494.475 C 400.568 494.149, 401.016 492.896, 401.035 491.691 C 401.055 490.486, 401.714 488.375, 402.500 487 C 405.130 482.400, 404.485 480.997, 399.750 481.023 C 397.413 481.035, 394.071 481.750, 392.325 482.612 M 458.557 486.223 C 456.255 489.508, 456.406 498.153, 458.750 497.300 C 465.872 494.708, 472.978 486.864, 469.943 484.944 C 467.005 483.085, 460.221 483.847, 458.557 486.223 M 406.750 494.080 C 403.245 496.121, 405.940 506, 410.001 506 C 410.879 506, 415.311 501.025, 417.318 497.785 C 418.919 495.201, 418.907 495.020, 417.066 494.035 C 414.616 492.724, 409.036 492.749, 406.750 494.080 M 441 493.664 C 435.741 495.758, 434.761 499.448, 438.355 503.626 C 440.594 506.229, 440.875 506.297, 444.105 505.020 C 450.870 502.343, 453.847 497.778, 450.589 495.074 C 448.905 493.677, 443.108 492.824, 441 493.664 M 422.545 499.128 C 419.445 502.813, 416.644 507.978, 417.359 508.693 C 417.638 508.971, 419.359 508.736, 421.183 508.170 C 423.007 507.603, 426.413 506.844, 428.750 506.482 C 433.617 505.729, 433.669 505.610, 431.050 501.314 C 427.835 496.042, 425.621 495.473, 422.545 499.128 M 217.062 553 C 217.044 555.124, 218.869 563.120, 219.915 565.500 C 222.180 570.652, 228.564 583.607, 229.278 584.500 C 229.717 585.050, 232.265 588.875, 234.939 593 C 242.943 605.347, 257.670 619.097, 269.500 625.270 C 276.161 628.745, 283.638 632, 284.959 632 C 285.546 632, 286.809 632.424, 287.764 632.941 C 289.904 634.102, 298.804 636.684, 305.500 638.087 C 318.806 640.876, 326.128 642.198, 333 643.052 C 337.125 643.565, 344.194 644.448, 348.708 645.015 C 362.020 646.686, 405.892 647.323, 423.500 646.101 C 444.292 644.658, 469.286 640.896, 471.450 638.883 C 472.681 637.738, 467.966 637.835, 461.500 639.088 C 434.660 644.287, 376.791 646.299, 349.500 642.980 C 325.493 640.061, 303.124 636.145, 297 633.789 C 296.175 633.471, 292.350 632.234, 288.500 631.039 C 258.007 621.572, 232.072 594.296, 219.528 558.500 C 218.179 554.650, 217.069 552.175, 217.062 553 M 527.500 630.246 C 528.775 631.001, 537.661 631.685, 552 632.130 C 577.961 632.936, 604.566 635.637, 625.738 639.615 C 627.518 639.950, 629.768 639.874, 630.738 639.448 C 632.626 638.616, 633.318 638.794, 615.500 635.536 C 588.154 630.537, 521.198 626.511, 527.500 630.246 M 287 639.835 C 287 640.894, 292.522 644, 294.404 644 C 295.282 644, 296 644.450, 296 645 C 296 645.550, 296.563 646.015, 297.250 646.034 C 297.938 646.053, 300.300 646.937, 302.500 648 C 304.700 649.063, 307.212 649.947, 308.083 649.966 C 308.954 649.985, 309.997 650.330, 310.400 650.733 C 311.422 651.755, 324.658 655.937, 335.500 658.662 C 354.383 663.410, 368.352 664.913, 393.500 664.905 C 423.458 664.895, 434.999 663.378, 455.781 656.721 C 462.606 654.535, 465.497 652.293, 459.908 653.520 C 458.070 653.924, 455.876 654.621, 455.033 655.069 C 439.729 663.198, 383.623 665.633, 351.500 659.562 C 336.696 656.765, 315.442 651.114, 311.764 648.999 C 310.809 648.449, 309.459 647.985, 308.764 647.966 C 308.069 647.947, 305.700 647.063, 303.500 646 C 301.300 644.937, 298.803 644.053, 297.950 644.034 C 297.097 644.015, 295.972 643.592, 295.450 643.093 C 293.993 641.701, 287 639.005, 287 639.835 M 193.582 660.867 C 193.082 661.676, 195.260 662.004, 201.191 662.015 C 210.648 662.033, 214.133 663.238, 209.651 664.943 C 208.121 665.524, 206.534 666, 206.123 666 C 204.728 666, 197.131 669.979, 196.463 671.059 C 195.022 673.391, 197.186 673.081, 203.694 670.023 C 213.642 665.349, 213.925 665.242, 220.831 663.551 C 224.313 662.698, 229.938 662.029, 233.331 662.064 C 240.609 662.139, 240.475 662.232, 223.500 668.854 C 208.095 674.863, 192.755 682.431, 200 680.446 C 201.375 680.070, 204.300 678.976, 206.500 678.016 C 208.700 677.055, 212.750 675.456, 215.500 674.463 C 218.250 673.469, 220.950 672.361, 221.500 672 C 222.050 671.639, 224.750 670.515, 227.500 669.502 C 230.250 668.489, 234.963 666.387, 237.972 664.830 C 240.982 663.274, 244.020 662, 244.722 662 C 245.425 662, 246 661.490, 246 660.867 C 246 660.045, 242.372 659.930, 232.750 660.449 C 213.986 661.462, 213.497 661.463, 203.391 660.554 C 196.889 659.969, 194.082 660.059, 193.582 660.867 M 564.179 662.457 C 564.552 662.861, 569.052 663.782, 574.179 664.504 C 592.451 667.079, 599.143 669.755, 601.559 675.452 C 602.592 677.889, 602.981 678.165, 603.502 676.828 C 605.194 672.488, 598.416 667.323, 587.500 664.635 C 580.086 662.808, 563.031 661.216, 564.179 662.457 M 533.500 673.988 C 535.700 674.484, 540.875 675.560, 545 676.379 C 555.333 678.429, 562.692 680.358, 563.584 681.251 C 564.866 682.533, 569.204 682.113, 568.757 680.750 C 568.256 679.224, 563.614 677.621, 553.871 675.609 C 545.735 673.929, 526.428 672.393, 533.500 673.988 M 549.601 684.837 C 548.607 686.445, 549.706 686.704, 563 687.993 C 578.677 689.513, 622.597 689.035, 625.500 687.313 C 627.070 686.382, 623.197 686.239, 607.500 686.646 C 589.719 687.107, 566.123 686.115, 554.367 684.411 C 551.956 684.062, 549.970 684.239, 549.601 684.837 M 547 695.687 C 532.531 699.544, 516.918 702.405, 499.143 704.455 C 485.257 706.057, 482.510 707.027, 492.083 706.946 C 503.709 706.848, 540.618 701.148, 543.500 699.004 C 544.050 698.595, 546.142 697.965, 548.150 697.604 C 550.157 697.243, 552.349 696.284, 553.022 695.474 C 554.452 693.751, 554.235 693.759, 547 695.687 M 253.092 701.992 C 255.082 703.155, 262.086 704.413, 287.500 708.170 C 308.756 711.312, 392.721 709.321, 389.160 705.760 C 388.616 705.216, 385.895 705.304, 382.376 705.980 C 373.411 707.700, 321.082 708.427, 303 707.083 C 287.639 705.941, 271.137 703.955, 261.500 702.088 C 254.744 700.779, 250.944 700.736, 253.092 701.992" stroke="none" fill="#1b1f3a" fill-rule="evenodd"/>
</svg>