<svg xmlns="http://www.w3.org/2000/svg" viewBox="0 0 768 768" version="1.1" preserveAspectRatio="xMidYMid meet"><path d="M 644.8 38.3 C 623.6 54.6, 615.3 61.5, 607.9 69.1 C 596.7 80.6, 596 80.6, 596 68.4 C 596 62.8, 595.8 62, 594.1 62 C 593.1 62, 591.9 62.7, 591.6 63.6 C 590.7 65.8, 590.8 66, 592.5 66 C 593.3 66, 594 66.5, 594 67 C 594 67.6, 591.8 68, 589 68 C 584.2 68, 582.3 66.6, 585.5 65.4 C 587.8 64.5, 587.3 63, 584.6 63 C 581 63, 580.9 63.8, 583.6 70.4 C 586.4 77.3, 586.1 78.2, 582 75.2 C 580.4 74, 578.4 73.3, 577.6 73.6 C 576.7 73.9, 574.5 73.3, 572.7 72.1 C 568.7 69.7, 566.5 69.3, 569.8 71.6 C 571 72.4, 571.7 73.6, 571.4 74.2 C 571 74.8, 571.5 75, 572.9 74.5 C 574 74.2, 575 74.3, 575 74.8 C 575 75.3, 576.8 76.2, 579 76.9 C 584.5 78.5, 588.6 83, 584.5 83 C 583.7 83, 583.3 82.4, 583.6 81.6 C 584.2 80.2, 575 80.5, 572.1 82 C 571.3 82.4, 569.6 82.3, 568.3 81.7 C 567 81.2, 565.7 81, 565.3 81.3 C 564.2 82.5, 565.5 83, 571.8 83.6 C 575.2 84, 578 84.7, 578 85.1 C 578 85.6, 578.8 86, 579.8 86 C 582.5 86, 577.1 88.5, 571.2 90.1 C 566.9 91.1, 565.6 91.1, 563.5 90 C 562.1 89.3, 560.7 89, 560.3 89.4 C 559.9 89.8, 560.6 90.3, 561.8 90.7 C 565 91.5, 564.5 93, 561.1 93 C 559.4 93, 557.9 93.4, 557.6 93.9 C 557.3 94.4, 554.4 95.1, 551.3 95.5 C 545 96.3, 539.1 99.1, 544.6 98.7 C 547.1 98.5, 547.5 98.8, 547.2 100.9 C 546.9 103.9, 546.1 104.8, 545.2 103.4 C 544.7 102.8, 543.3 102.9, 541 103.7 L 537.5 105 541.3 104.5 C 545.2 103.9, 545.9 104.6, 543.8 107 C 543.1 107.8, 543.6 107.5, 545 106.4 C 546.4 105.2, 548.9 103.9, 550.5 103.6 C 557.8 101.9, 567 101.1, 569.1 101.9 C 570.9 102.5, 573.1 101.9, 578.9 98.9 C 583 96.7, 586.5 95.2, 586.8 95.5 C 587.3 95.9, 585.6 100.1, 582.2 106.9 C 579 113.2, 563.7 122.7, 550.8 126.4 C 540.9 129.2, 526.6 128.3, 523.9 124.7 C 523.6 124.2, 521.8 123.5, 519.9 123 C 518 122.6, 515.6 121.9, 514.5 121.5 C 513.4 121.1, 514.6 122.2, 517.2 123.9 C 519.9 125.6, 522.3 127, 522.6 127 C 522.9 127, 524.7 127.7, 526.5 128.6 C 529 129.8, 532.1 130, 539.2 129.7 C 561.4 128.7, 579 118.7, 586.5 102.8 C 588.4 98.6, 590.1 96.2, 590.4 97 C 590.6 97.8, 591.2 99.9, 591.6 101.5 C 592.1 103.6, 592.4 104, 592.7 102.8 C 593.4 99.9, 595 100.8, 595 104 C 595 105.7, 595.5 107, 596 107 C 596.6 107, 597 107.6, 597 108.4 C 597 109.2, 597.8 110.1, 598.8 110.4 C 599.7 110.7, 598.6 110.7, 596.3 110.4 L 592.2 109.9 591.1 115.2 C 589.7 122.2, 588.8 128.9, 588.6 134.2 C 588.2 140.7, 586.9 146.1, 584.7 150.3 C 582.6 154.4, 583.4 159, 586.2 159 C 588.6 159, 589.7 155.6, 591.5 144 C 592.4 137.7, 593.5 130.9, 594 129 C 594.5 127.1, 595.2 122.8, 595.5 119.6 C 596.2 112.6, 596.2 112.6, 599.3 113.4 C 601.3 113.9, 601.8 114.8, 602.2 118.5 C 602.6 121.8, 603.9 124.5, 606.9 128.3 C 609.1 131.3, 611 134, 611 134.4 C 611 134.8, 612.1 137.6, 613.5 140.6 C 622.2 159.6, 627 173.6, 627 179.9 C 627 185.7, 629.1 192.2, 632.6 196.7 C 635.7 200.8, 637.1 200.8, 639.3 197.1 C 642.6 191.6, 641.4 186.7, 634.4 177 C 632.5 174.4, 628.8 167.1, 626.1 160.8 C 623.4 154.5, 620.2 147.1, 619 144.4 C 614.4 134.2, 614 133.2, 614 131.3 C 614 130.3, 614.5 128.9, 615.1 128.3 C 616.6 126.8, 615.5 123.7, 611.4 118.9 C 609.5 116.7, 608 114.4, 608 114 C 608 113.6, 606.2 109.3, 603.9 104.5 C 601.7 99.7, 600.1 95.3, 600.3 94.7 C 600.5 94, 604.7 97.4, 609.6 102.1 C 622.7 114.7, 630.1 118, 645.4 118.1 C 653.7 118.1, 655.5 117.8, 660.6 115.4 C 672.1 110, 679 104, 679 99.6 C 679 96.6, 672.2 90.5, 667.8 89.6 C 664 88.9, 644.9 89, 627.5 89.9 C 620.4 90.2, 614.3 90.2, 614 89.9 C 613.7 89.5, 612.1 89, 610.5 88.7 C 608.4 88.4, 609 88.3, 612.4 88.2 C 618.4 88, 633.1 85.1, 634.5 83.9 C 635 83.4, 636.3 83, 637.4 83 C 638.8 83, 639.1 82.7, 638.3 81.9 C 637.5 81.1, 636.6 81.1, 635.3 81.8 C 632.8 83.2, 617.1 85.3, 613.4 84.8 L 610.5 84.4 613.3 83.2 C 614.8 82.6, 616 81.6, 616 81.1 C 616 80.5, 618.4 79.9, 621.3 79.7 C 624.1 79.5, 622.5 79.5, 617.5 79.7 C 612.6 79.9, 608.1 80.5, 607.5 80.9 C 605.7 82.4, 599 83.2, 599 82 C 599 81.4, 599.5 81.2, 600.2 81.6 C 601 82.1, 601.1 81.8, 600.7 80.7 C 600 78.9, 601.5 77.4, 602.5 79 C 602.8 79.5, 603.8 80, 604.7 80 C 605.8 80, 605.6 79.5, 603.9 78.2 L 601.7 76.3 604.6 76.5 C 606.2 76.7, 608.4 77.1, 609.5 77.4 C 610.6 77.8, 610.2 77.3, 608.5 76.4 C 606.9 75.4, 604.8 74.7, 604 74.8 C 602.7 75.1, 602.7 75, 604 74.1 C 604.8 73.6, 605.8 73.4, 606.3 73.7 C 606.8 74, 608 73.4, 609 72.4 C 612.5 69, 613.8 68.1, 614.6 68.8 C 615 69.2, 615 68.9, 614.6 68.3 C 613.7 66.7, 613.5 66.7, 611.6 68.6 C 610.7 69.4, 610 69.7, 610 69.2 C 610 68.1, 614.7 63.8, 623 57.5 C 630.3 51.9, 629.8 52.3, 639.9 44.2 C 643.9 40.9, 649.3 37.5, 651.9 36.7 L 656.5 35.1 652.8 35.1 C 650.1 35, 648 35.9, 644.8 38.3 M 519.9 41.1 C 516.3 44.7, 517.7 50.4, 524.5 59.5 C 529.3 65.9, 541.6 75.1, 547.3 76.5 C 548.8 76.9, 550.3 77.6, 550.6 78.1 C 551.2 79.2, 554 79.3, 554 78.2 C 554 77.8, 552.5 76.9, 550.8 76.1 C 537.1 70.4, 532.5 67, 525.3 57.7 C 515.8 45.4, 520.3 36.5, 532.9 42.9 C 539.5 46.3, 548.4 54.1, 546.8 55.2 C 545.8 56, 545.9 56.1, 547.3 55.6 C 550.8 54.5, 552.5 56.1, 549.9 58.1 C 547.2 60.1, 547.4 60.4, 551.3 61.4 C 553 61.8, 554 61.6, 554 61 C 554 60.4, 553.6 60.2, 553 60.5 C 552.5 60.8, 552 60.4, 552 59.6 C 552 57.5, 552.2 57.5, 557.2 60.9 C 559.6 62.5, 563.8 65, 566.5 66.4 C 569.3 67.9, 573 70, 574.8 71 C 576.5 72.1, 578 72.6, 578 72.2 C 578 71.8, 574.2 69.3, 569.7 66.5 C 562.2 62, 551.4 54.7, 548.3 52 C 536.2 41.6, 524.1 37, 519.9 41.1 M 664 39 C 664 39.3, 663.8 42.3, 663.7 45.7 C 663.2 55.8, 655.1 70, 649.8 70 C 648 70, 647.8 70.2, 649 71 C 650.8 72.1, 649.4 73.8, 644.5 76.5 L 641.5 78.2 644.4 77.5 C 655.7 75, 669.3 51.1, 665.2 41 C 664.6 39.6, 664.1 38.7, 664 39 M 632.1 52.7 C 630.3 53.9, 630.1 54.4, 631.1 55.2 C 632.1 55.9, 631.9 56, 630.4 55.5 C 628.4 55, 624.8 57.3, 617.8 63.5 C 616.8 64.3, 615.5 65, 614.8 65 C 613.9 65, 613.9 65.3, 614.7 66.1 C 615.6 67, 616.8 66.3, 619.6 63.6 C 621.6 61.6, 623.8 60, 624.4 60 C 625 60, 624.9 60.5, 624.2 61.2 C 621.4 64, 623.3 63.8, 626.3 61.1 C 629.7 57.8, 631.3 57.2, 630.4 59.4 C 629.8 61, 632.2 62.1, 634 61 C 634.7 60.6, 635 59.5, 634.7 58.6 C 634.3 57.7, 634.8 56.6, 635.8 56 C 637.4 54.9, 637.4 54.9, 635.8 55.4 C 633.8 56, 633.4 55, 635.1 53.3 C 636.9 51.5, 634.5 51, 632.1 52.7 M 79.8 67.6 C 76.6 69.3, 75.5 73.5, 76.9 78.4 C 79.3 87.3, 94.7 105.2, 103.8 109.9 C 111.3 113.7, 126.5 116.3, 137 115.6 C 141.1 115.4, 143.8 115.4, 143 115.7 C 142.2 116, 140.4 116.8, 139 117.3 C 134.8 119.1, 115.5 123.7, 107.1 125 C 90.5 127.6, 83 132.3, 83 140.1 C 83 142.5, 83.4 143.9, 84 143.5 C 84.6 143.2, 85 141.7, 85 140.2 C 85 136.6, 91.6 133.6, 103 132 C 107.7 131.4, 112.9 130.5, 114.5 130 C 116.2 129.6, 119.7 128.9, 122.3 128.5 C 126.3 128, 126.9 127.6, 125.9 126.4 C 125.3 125.6, 124 125, 123.1 124.9 C 122 124.9, 121.9 124.7, 122.8 124.3 C 123.5 124, 125.1 124.5, 126.4 125.3 C 128.5 126.7, 129 126.7, 131.6 125.1 C 134.4 123.4, 134.6 123.4, 136.1 125.2 C 137.6 126.9, 137.8 126.9, 139.1 125.3 C 140.3 123.8, 140.3 123.7, 138.8 124.3 C 135.8 125.4, 136.8 123.2, 139.9 121.5 C 143.9 119.5, 145 121.3, 141.9 124.8 C 132.4 135.3, 126.4 141, 123.2 142.6 C 121.2 143.6, 119.4 144.8, 119.2 145.3 C 119 145.7, 118.1 146, 117.1 146 C 116.2 146, 114.5 146.7, 113.4 147.5 C 110.4 150, 117 148.4, 123.1 145.2 C 127.5 143, 140 131.1, 140 129.2 C 140 128.8, 140.9 127.9, 142.1 127.2 C 144.3 125.8, 144.3 127.3, 142 132.5 C 139 139.4, 137.1 143.8, 136.5 145.9 C 135.5 149.1, 129.8 158, 125.9 162.5 C 124.2 164.4, 123.1 166, 123.5 166 C 123.8 166, 125.3 164.7, 126.7 163 C 130.1 159, 131.3 159.2, 129.3 163.5 C 128 166.1, 127 167, 125.1 167 C 122.6 167.1, 122.6 167.1, 124.4 168.5 C 126.2 169.8, 126.2 170, 124 173.4 C 122.6 175.7, 122.1 177.8, 122.5 179.2 C 122.9 180.7, 122.8 181.1, 122.2 180.2 C 121.3 178.9, 117.7 184.2, 112 195.5 C 110.6 198.3, 109.3 200.7, 109 201 C 108.7 201.3, 107.4 203.7, 106 206.5 C 104.6 209.2, 101.8 214.3, 99.8 217.7 C 97.7 221.2, 96 224.3, 96 224.6 C 96 224.9, 93.1 230, 89.6 235.9 C 70.2 268.3, 59.2 292.6, 52 318.5 C 50.8 322.9, 49.4 327.6, 48.9 329 C 45.9 337.9, 41 361.2, 39 376.3 C 38.5 380, 37.4 386.5, 36.6 390.8 C 33 410.3, 32.5 414.2, 32.5 425.2 C 32.5 431.7, 32.2 436.2, 31.9 435.3 C 31.6 434.3, 31 436.5, 30.7 440 C 30.3 443.6, 29.6 450.3, 29 455 C 27.7 465.8, 25.1 495.5, 24.3 508.5 C 24 514, 24.1 541, 24.6 568.5 L 25.5 618.5 26.1 565.5 C 26.6 523.2, 27.2 507.8, 28.9 489 C 30 476.1, 31 463.4, 31 460.8 L 31 456.2 39.8 455.5 C 52.2 454.6, 53.2 454, 41.8 454.4 C 32.4 454.7, 32 454.6, 32 452.6 C 32.1 449.1, 35.6 436.2, 40.2 422.7 L 44.5 409.9 47.5 410.6 C 55 412.2, 59.9 412.9, 65.6 412.9 C 68.9 413, 72.1 413.5, 72.8 414.2 C 73.5 414.9, 74 415, 74 414.4 C 74 413.7, 78 413.5, 85 413.8 C 109.6 414.8, 142 408.6, 159.8 399.6 C 166.9 396, 168.6 393.1, 166.7 387.5 C 166.1 385.6, 166.5 385.5, 176.3 385.3 C 197.1 384.8, 217.3 379, 218.9 373 C 221.3 363.7, 219.4 361.4, 204.5 354.9 C 198.1 352.2, 192 350.2, 188 349.6 C 183.7 348.9, 192.4 352.5, 203.9 356.1 C 216.8 360.2, 221.5 368.1, 214.4 374.2 C 206 381.6, 174.2 386, 158 382.1 C 153.3 381, 144.1 379.8, 137.5 379.5 C 130.9 379.2, 124.2 378.7, 122.7 378.5 C 121 378.2, 120.1 378.4, 120.5 379 C 120.8 379.6, 124.8 380, 129.4 380 C 142.8 380, 159.6 384.1, 162.3 388.1 C 166.5 394.1, 157 400.1, 135 405.4 C 118.1 409.5, 113.6 410.1, 95.8 410.7 C 78 411.2, 74.3 410.8, 78 408.5 C 78.5 408.2, 79.5 406.9, 80.1 405.7 C 80.9 404.2, 79.9 404.8, 77.3 407.3 L 73.3 411.1 64.4 410.5 C 54.2 409.8, 46 408.2, 46 406.9 C 46 406.5, 46.8 403.9, 47.9 401.3 C 48.9 398.7, 50.5 393.5, 51.5 389.8 L 53.3 383.2 58.9 382.5 C 62 382.2, 67 381.7, 70.1 381.5 C 73.2 381.3, 77 380.8, 78.6 380.3 L 81.5 379.6 78 379 C 76.1 378.7, 70 379, 64.5 379.6 C 59 380.2, 54.4 380.6, 54.2 380.5 C 54 380.3, 54.8 377.6, 55.8 374.4 C 56.9 371.1, 58.1 366.5, 58.5 364 C 58.9 361.6, 60.2 357.6, 61.3 355 C 62.4 352.5, 63.3 350.2, 63.2 349.8 C 62.9 348.6, 71.6 325.5, 74.5 319.9 C 82 304.9, 101.2 280, 105.3 280 C 106.8 280, 107.1 279.5, 106.7 277.7 C 106.3 276.5, 106.5 274.8, 107.1 274 C 107.9 272.8, 108 273, 107.5 274.8 C 107 276.4, 107.3 277, 108.4 277 C 110.4 277, 110.5 279.6, 108.5 280.4 C 106.4 281.2, 106.6 283.2, 108.8 282.8 C 109.9 282.6, 111.5 283.1, 112.4 283.9 C 113.9 285.2, 114 285.1, 113 282.6 C 111.7 279, 111.7 278.7, 113.6 279.4 C 114.5 279.7, 115.7 279.7, 116.3 279.3 C 117 278.9, 116.6 278.4, 115.1 278 C 110.6 277, 112 275.5, 122 270.7 C 131.9 265.9, 141.1 257.8, 141 253.9 C 140.9 253.1, 140.2 253.7, 139.4 255.3 C 138.6 256.8, 137.3 258, 136.4 258 C 135.6 258, 134.7 258.7, 134.4 259.5 C 134 260.3, 133.3 261, 132.8 261 C 132.2 261, 130.1 262.4, 128 264 C 125.9 265.7, 123.9 267, 123.4 267 C 123 267, 121.9 267.6, 121.1 268.3 C 118.4 270.5, 111.1 272.9, 110.4 271.8 C 109.7 270.7, 109.5 270.8, 117.8 264.6 C 123.2 260.5, 125.3 258, 123.5 258 C 123.2 258, 119.6 260.5, 115.6 263.5 C 108.5 268.9, 106 270, 106 268 C 106 267.5, 105.3 267, 104.5 267 C 103.7 267, 103.3 266.4, 103.6 265.6 C 104 264.5, 103.5 264.1, 101.8 264.2 C 98.6 264.4, 96 266.8, 96 269.7 C 96 270.9, 95.6 272, 95 272 C 94.5 272, 94.3 273.3, 94.7 275.2 C 95.3 278, 95.1 278.3, 93.2 277.8 C 90.7 277.1, 90.3 278.2, 92.4 280 C 93.7 281, 93.4 281.6, 90.8 284.3 C 89.2 286.1, 85.7 290.8, 83.2 294.7 C 74.5 308.2, 74.8 303.8, 84.6 274 C 87.1 266.6, 89.5 259.7, 90 258.8 C 90.6 257.8, 91 256.5, 91 256 C 91 255, 98.4 237.1, 104.7 223 C 106 220, 107.8 215.9, 108.7 214 C 114.7 200.4, 128.7 174.1, 132.4 169.3 C 134.9 166.1, 137 162.7, 137 161.8 C 137 160.9, 137.5 159.8, 138 159.5 C 138.6 159.2, 139 158.2, 139 157.3 C 139 156.5, 140.5 153.2, 142.4 150.1 C 144.3 147, 146 143.6, 146.1 142.6 C 146.3 141.5, 147.1 140.5, 147.9 140.2 C 149.3 139.7, 149.1 147.5, 147.6 154.7 C 145.1 166.7, 146.1 187.3, 149.1 185.5 C 149.5 185.2, 150.4 185.8, 151 186.7 C 151.8 188.1, 152 184.3, 151.5 171.7 L 150.9 154.9 153.6 155.2 C 155.1 155.4, 156.6 156.2, 157 157 C 158.9 160.8, 159.9 163.8, 160.5 167 C 161.1 170.5, 163.7 180.1, 164.8 183 C 165.6 185.2, 165.6 185.2, 166.4 188.5 C 167.9 194.5, 169 196.5, 170.1 194.9 C 170.8 193.9, 171 194.3, 170.8 196.5 C 170.6 198.6, 170.9 199.5, 172 199.5 C 174.3 199.5, 174.4 196.3, 172.1 192.4 C 170.9 190.5, 170 188.4, 170 187.8 C 170 187.3, 169.4 185.4, 168.6 183.7 C 167.1 180.2, 165.6 174.9, 163.5 165 C 162.7 161.4, 161.4 155.8, 160.5 152.5 C 159.6 149.2, 158.4 144.3, 157.9 141.5 C 157.3 138.8, 156.5 136.1, 156 135.5 C 155.6 135, 154.9 132.9, 154.5 131 L 153.8 127.5 156.8 131.6 C 167 145.5, 191.6 154.7, 213 152.5 C 232.5 150.5, 238.5 138.6, 224.7 129.2 C 222.4 127.6, 219.4 126, 218 125.6 C 216.6 125.2, 214.6 124.5, 213.5 124 C 212.4 123.5, 207.5 122.7, 202.5 122.1 C 197.6 121.6, 192.4 120.9, 191 120.6 C 185 119.2, 175.8 117.7, 167.1 116.6 C 161.1 115.9, 157.5 115, 157.2 114.2 C 156.9 113.3, 157.5 113.1, 159.5 113.6 C 167.9 115.7, 190.1 113.5, 197.6 109.8 C 215 101.2, 221.4 97, 225.4 91.2 C 239.5 70.8, 221.6 60.9, 200.1 77.2 C 196.6 79.8, 193.2 82, 192.6 82 C 192 82, 192.2 82.4, 193 83 C 193.8 83.5, 194.1 84.2, 193.7 84.6 C 193.3 85, 192.4 84.8, 191.8 84.2 C 191.1 83.5, 190.2 83, 189.6 83 C 189.1 83, 189.4 83.6, 190.3 84.3 C 191.8 85.4, 191.3 85.9, 186.5 88.9 C 180.9 92.5, 180.6 93.2, 184.3 95.1 L 186.5 96.3 184.5 94 C 182.7 91.9, 182.7 91.7, 184.3 92.3 C 185.5 92.8, 185.9 92.6, 185.4 91.8 C 184.9 91, 185.4 90.9, 186.9 91.3 C 188.8 91.8, 188.9 91.6, 187.9 90.3 C 186.8 89, 186.9 88.8, 188.5 89 C 192 89.4, 192.9 89, 192.4 87.5 C 192 86.6, 192.4 86, 193.4 86 C 194.3 86, 195 86.5, 195 87 C 195 89.2, 198.7 87.3, 205.7 81.5 C 206.4 81, 207.5 80, 208.3 79.4 C 209 78.8, 210.2 78, 211 77.7 C 212.2 77.3, 212.2 77.1, 211.2 77.1 C 210.4 77, 208.5 77.9, 206.9 79.1 C 205.3 80.2, 203.6 80.9, 203 80.5 C 202.5 80.2, 201.5 80.8, 200.8 82 C 199.5 84.1, 197 84.8, 197 83 C 197 79.7, 213.5 71, 219.7 71 C 224.8 71, 229.4 76, 228.5 80.8 C 227.2 88.1, 221 95, 211.4 100 C 208.7 101.4, 205.9 103.1, 205.2 103.8 C 204.5 104.4, 203.3 105, 202.5 105 C 201.8 105, 201 105.3, 200.8 105.8 C 200 107.6, 193 110.3, 187 111.2 C 177 112.6, 159.8 113.1, 160.5 112 C 160.8 111.4, 161.8 111, 162.6 111 C 164.4 111, 167.5 108.2, 166.7 107.3 C 166.4 107, 165.4 107.5, 164.5 108.4 C 163.6 109.3, 162.1 110, 161.2 110 C 160 110, 160.4 109.4, 162.3 108.1 C 164.3 106.8, 166.7 106.3, 170.5 106.5 L 175.9 106.7 173.2 104.3 C 170.3 101.8, 168.5 101.4, 167.5 103 C 167.1 103.6, 165.9 103.8, 164.8 103.4 C 163.3 103, 163 103.1, 163.5 104 C 164 104.9, 163.9 105.1, 163.2 104.6 C 162.6 104.2, 161.2 104.4, 160.1 104.9 C 158.4 105.8, 158.1 105.4, 157.2 100.7 C 156.6 97.5, 156.5 94.8, 157.1 93.8 C 158.6 91.1, 156.3 90.6, 152.6 92.9 C 150.8 94.1, 148.6 95, 147.7 95 C 145.5 95, 144.5 93, 146.1 91.9 C 147.9 90.8, 145.8 88.5, 143.7 89.3 C 142 89.9, 142.6 94.6, 144.8 98.7 C 146.1 101, 146.4 105, 145.4 105 C 143.9 105, 128.2 94.2, 125 91 C 124.7 90.7, 122.9 89.4, 121 88 C 119.1 86.7, 117.1 85.2, 116.5 84.8 C 114.9 83.4, 107.1 77.8, 100.9 73.3 C 97.6 71, 92.5 68.4, 89.6 67.6 C 83.4 65.8, 83.4 65.8, 79.8 67.6 M 79.5 70 C 77 72.7, 78 77.6, 82.4 84.9 C 90.5 98.1, 108.6 112.6, 114.4 110.4 C 115.2 110.1, 116.7 110.2, 117.7 110.7 C 118.8 111.3, 122.6 111.2, 127.5 110.5 C 131.9 109.8, 134.7 109.2, 133.8 109.1 C 132.8 109.1, 132 108.5, 132 107.9 C 132 107.3, 131.2 107, 130.1 107.3 C 128.7 107.6, 128.4 107.3, 128.7 105.9 C 129.1 104.4, 128.9 104.1, 127.5 104.7 C 126.2 105.2, 125.9 105, 126.5 104.1 C 127.1 103.1, 126.7 103, 124.9 103.5 C 123 104, 122.8 103.9, 124 103.1 C 125.2 102.2, 125.3 101.9, 124.1 101.1 C 123.2 100.5, 123.1 100, 123.9 99.6 C 124.5 99.2, 125 99.3, 125 99.7 C 125 101, 131.7 104.3, 132.9 103.6 C 133.5 103.2, 134 103.4, 134 103.9 C 134 105.4, 136.7 105.3, 137.6 103.8 C 138 103.1, 138 102.8, 137.6 103.1 C 137.3 103.4, 135.3 102.1, 133.2 100.1 C 122.8 90, 116 86.1, 116 90.2 C 116 90.9, 116.4 90.9, 117.3 90.2 C 118.6 89.1, 121.8 92.5, 120.6 93.7 C 120.3 94, 121 95.1, 122.2 96.1 C 124.9 98.5, 123.9 98.5, 119.5 96.2 C 116.8 94.7, 116.3 94, 117.3 93 C 118.3 92, 118.1 91.8, 116.8 92.3 C 115.8 92.7, 114 92.6, 112.8 92.1 L 110.6 91.3 112.9 90.1 C 114.5 89.2, 114.9 88.5, 114.1 87.6 C 113.5 86.9, 113.4 86, 113.8 85.5 C 114.2 85.1, 113.4 85.3, 112 86.1 C 110.6 86.8, 109.1 87.4, 108.7 87.5 C 108.3 87.5, 107.5 88.1, 107.1 88.9 C 106.4 90, 105.8 89.8, 103.9 87.9 C 101.8 85.8, 101.7 85.5, 103.3 85.2 C 106.1 84.7, 105.5 79.5, 102.3 76.6 C 98.5 73.1, 87.8 68, 84.3 68 C 82.6 68, 80.5 68.9, 79.5 70 M 548.5 92 C 545.8 92.4, 539.2 93.3, 534 94 C 522.5 95.6, 516.2 97.9, 509.3 103.1 C 502.1 108.5, 501.6 111, 506.6 116.1 C 508.7 118.2, 510.7 120, 511.1 120 C 511.4 120, 510.2 118.4, 508.4 116.4 C 504.7 112.5, 504.3 111.2, 506.4 110.4 C 507.2 110.1, 507.6 109.2, 507.3 108.4 C 507 107.6, 507.2 107, 507.8 107 C 508.4 107, 509 107.4, 509.2 107.9 C 509.4 108.4, 511.2 108, 513.2 107 C 515.9 105.7, 519.5 105.2, 526.6 105.1 C 532 105, 536.6 104.7, 536.9 104.5 C 538.3 103, 516.7 104.2, 513.5 105.7 C 511.6 106.6, 509.7 107, 509.3 106.7 C 508.5 105.8, 511.2 103.7, 516 101.4 C 517.9 100.5, 520.3 99.3, 521.2 98.9 C 522.1 98.4, 526.8 97.4, 531.7 96.6 C 551.6 93.3, 561.1 91.2, 556 91.2 C 554.6 91.2, 551.3 91.6, 548.5 92 M 608.1 91.9 C 605 92.4, 602.3 95, 604.8 95 C 605.4 95, 608.5 97.7, 611.7 101 C 618.2 107.8, 625 112.5, 629.5 113.5 C 631.2 113.8, 634.4 114.6, 636.7 115.2 C 640 116, 641.3 116, 642.5 115 C 643.5 114.1, 644 114.1, 644 114.9 C 644 117.3, 654.6 116.1, 660.4 113.1 C 673.3 106.4, 678.3 101, 675.5 96.7 C 672.3 91.8, 666.9 90.7, 650.8 91.5 C 642.9 92, 632.6 92.2, 627.8 92.1 C 622.8 92, 618.9 92.4, 618.5 93 C 618.1 93.6, 619.4 94, 621.7 94.1 C 623.8 94.2, 624.7 94.4, 623.8 94.7 C 622.8 94.9, 622 95.5, 622 95.9 C 622 97.1, 619 96.5, 614.5 94.6 C 611.4 93.3, 610.9 92.7, 612 92 C 613.6 91, 613.3 90.9, 608.1 91.9 M 155 122 C 155 130.9, 169.1 142.9, 185 147.4 C 206.8 153.6, 230 149.8, 230 140 C 230 137.1, 222.8 129.4, 221 130.5 C 220.4 130.9, 220.3 130.4, 220.7 129.4 C 221.2 128, 221 127.8, 219.4 128.4 C 217.4 129.2, 197.8 130.5, 189.5 130.4 C 186.7 130.4, 182.3 129.7, 179.8 129 C 175.2 127.6, 175.1 127.5, 176.5 125.3 C 178.3 122.7, 177.5 122.3, 174.9 124.5 C 172.8 126.5, 167.6 125.5, 168.4 123.3 C 168.8 122.3, 168.5 122, 167.1 122.5 C 166 122.8, 163.4 122.2, 161.1 121 C 155.8 118.3, 155 118.5, 155 122 M 91.8 171.7 C 78.9 181.2, 64.6 195.4, 58 205 C 57.2 206.3, 56 207.8, 55.5 208.4 C 50.4 214, 40.2 233.8, 37 244.5 C 35.8 248.4, 34.4 253, 33.9 254.7 C 33.3 256.5, 32.5 260.1, 32 262.7 C 31.5 265.4, 30.5 270.4, 29.8 274 L 28.4 280.5 27.1 271.5 C 22.7 240.6, 17.4 210.2, 15.2 202 L 14.2 198.5 14.1 201.5 C 14.1 203.2, 14.5 206.3, 15 208.5 C 15.6 210.7, 16.7 217, 17.6 222.5 C 18.5 228, 19.8 236.3, 20.6 241 C 24.4 263.2, 26.7 283, 25.5 281.8 C 25.1 281.4, 23.9 276.2, 22.8 270.3 C 21.7 264.3, 20.2 255.9, 19.5 251.5 C 16.9 237.1, 15.2 228.6, 13.7 222.5 C 12.8 219.2, 11.6 214.3, 11 211.5 C 10.3 208.8, 9.4 206.1, 8.9 205.6 C 8.4 205, 8 203.7, 8 202.7 C 8 201.7, 7.4 199.4, 6.6 197.7 C 5.9 195.9, 4.5 192.3, 3.5 189.5 C 1.3 183.3, 0 181.7, 0 185.3 C 0 186.8, 0.5 188, 1 188 C 1.6 188, 2 188.7, 2 189.6 C 2 191.2, 8.2 211.1, 10 215.5 C 11.3 218.6, 13.5 228.5, 17.5 250 C 18.2 254.1, 19.5 260.9, 20.3 265 C 21.1 269.1, 22.3 275.4, 22.9 279 C 23.6 282.6, 24.5 286.9, 25 288.5 C 26.7 294, 29 319.2, 29 331.6 C 29 338.4, 29.5 351.9, 30.1 361.6 C 31.2 378.9, 30.3 395.6, 28 399.9 C 27.5 400.8, 26.6 404.9, 26 409 C 25.4 413.1, 24.2 420.6, 23.4 425.5 C 21.7 436.1, 19.6 451.7, 18.1 465 C 17.5 470.2, 16.5 478.1, 16 482.5 C 14.7 492.9, 14.7 521, 16 542.5 C 16.6 551.9, 17.5 572.1, 18 587.5 C 18.6 602.9, 19.5 617.9, 20 620.9 C 21.8 631.5, 20.9 690.3, 18.8 691.6 C 18.4 691.9, 18 692.9, 18 693.8 C 17.9 694.7, 17.1 697.3, 16 699.5 C 14.9 701.7, 14.1 704, 14 704.6 C 14 705.3, 13.3 707.1, 12.5 708.6 C 11.7 710.2, 11 712.3, 11 713.2 C 11 714.1, 10.6 715.1, 10.1 715.4 C 9.6 715.7, 8.9 717.7, 8.5 719.7 C 8.1 721.8, 7.5 724, 7 724.5 C 5.9 725.9, 4 734, 2.7 742.8 C 2.1 746.7, 1.2 750, 0.8 750 C 0.4 750, 0 751.8, 0 754 C 0 759.3, 1.7 759.1, 2.3 753.8 C 3.2 747, 5 738, 6.6 732.5 C 7.4 729.8, 8.9 725, 9.8 722 C 10.7 719, 11.8 716.1, 12.2 715.6 C 12.6 715, 13 714, 13 713.3 C 13 712.6, 15.7 705.2, 19 696.8 C 22.2 688.4, 25.4 679.6, 26 677.3 C 27.2 672.6, 28 672, 29.5 675 C 33.1 682.1, 44 698.9, 47.6 702.9 C 55.2 711.4, 63.8 715.8, 76.9 718 C 80.5 718.6, 82.8 719.6, 83.7 721 C 85.6 723.7, 102.4 732, 112 735.1 C 130.4 741, 166.4 736.6, 180.1 726.9 C 182.7 725.1, 183.1 725, 183.6 726.5 C 184.1 727.8, 184.5 727.6, 185.6 725.4 C 187.7 721.4, 186.9 721.4, 177.8 725.2 C 160.4 732.5, 153.4 734, 136.3 734 C 123.5 734, 115.5 732.7, 103.6 728.6 C 96 726, 94.8 725.1, 99.2 725 C 103.7 725, 112.3 721.7, 116.7 718.4 C 118.4 717.1, 120.2 716, 120.5 716 C 121.4 716, 126.3 713.9, 136.2 709.2 C 146.5 704.4, 164.6 686.4, 162.5 683 C 162.3 682.7, 157.3 687.1, 151.3 692.9 C 142.6 701.5, 138.8 704.4, 131.4 708.3 C 120.7 713.8, 121 713.8, 121 710.3 C 121 707.4, 120.9 707.5, 133 700.7 C 144.4 694.4, 161.6 680.3, 164.9 674.6 C 166.2 672.4, 168.1 669.6, 169.1 668.4 C 173.3 663.8, 169 663.8, 151.5 668.4 C 148.3 669.2, 145.5 669.8, 145.3 669.7 C 145.2 669.5, 146.7 665.4, 148.7 660.5 C 151.7 652.9, 152.3 650.2, 152.4 643.3 C 152.5 638.7, 152.6 635, 152.8 635 C 153 635, 156.4 636.1, 160.4 637.5 C 168.7 640.4, 173.7 641.5, 187 643.5 C 192.2 644.3, 199 645.6, 202 646.5 C 212.9 649.7, 214.7 650, 226.5 650.6 C 233.8 651, 242.6 650.8, 249 650 C 263.8 648.3, 263.4 648.3, 263.8 650.4 C 264 651.4, 263.8 652, 263.2 651.6 C 262.1 651, 243.5 653.4, 236.5 655.1 C 222.2 658.6, 209 665.3, 208.2 669.5 C 207.9 670.9, 208.6 670.6, 211.7 668.2 C 219.9 661.8, 235.8 657.4, 255.5 656.1 L 267.5 655.3 276.5 659.6 C 282.2 662.2, 287.7 664, 291.5 664.5 C 294.8 664.9, 304.7 666.7, 313.5 668.6 C 330.4 672.2, 343.3 674.2, 361.8 676 C 391.9 678.9, 401.1 696.2, 380.8 711.7 C 354.4 732, 292.9 744.2, 251.2 737.5 C 229.6 734, 197 720.1, 197 714.3 C 197 712, 195.5 712.9, 194.4 715.8 C 193.8 717.3, 193.2 718.9, 192.9 719.4 C 192.7 719.9, 193.4 720.4, 194.6 720.5 C 195.7 720.6, 198.4 722.1, 200.6 723.8 C 210 731.3, 241.2 741.3, 261.4 743.2 C 299.5 746.8, 359 734.3, 379.9 718.4 C 385 714.5, 386 714.2, 386 717.1 C 386 720.1, 376.1 729.6, 371.9 730.5 C 370 731, 369.1 731.5, 369.8 731.7 C 374.6 733.4, 389.4 719.9, 387 716 C 386.1 714.5, 388.4 709.4, 391.6 706 C 395.5 701.7, 396.1 695.8, 393.5 687.4 C 392.6 684.6, 398.3 680.1, 404.3 678.9 C 420.8 675.5, 452.2 673.3, 459.8 675 C 466.1 676.4, 467.3 675.8, 463.7 672.9 C 462.2 671.8, 461 670.3, 461 669.6 C 461 665.9, 471.5 662, 488 659.5 C 504.9 656.9, 515.9 652.4, 528.4 643 C 533.5 639.2, 540 637.5, 540 640 C 540 640.6, 542.1 641, 544.6 641 C 550.7 641, 567.8 643.7, 576.2 646 C 589.6 649.7, 605 660.2, 605 665.7 C 605 666.1, 595.9 666.5, 584.8 666.5 C 559.3 666.5, 556.2 668.2, 580 669.1 C 599.8 669.9, 606.5 670.7, 608.1 672.6 C 610.3 675.3, 610.4 675.3, 589.5 672 C 582 670.8, 570.9 670.8, 569.1 671.9 C 568.2 672.5, 570.1 672.8, 574.1 672.9 C 583.5 673, 592.4 673.9, 602.2 675.7 C 610.3 677.3, 610.9 677.6, 612.4 680.7 L 613.9 683.9 610.7 684.5 C 608.9 684.7, 605.9 685.1, 604 685.2 C 597.7 685.7, 600.3 687.5, 607.7 687.8 C 614.6 688.1, 615.1 688.3, 617.5 691.4 C 618.9 693.2, 620 695.2, 620 695.8 C 620 697.1, 631.8 705.6, 635.6 707 C 639 708.3, 638.4 708.8, 631.3 711.2 C 628.1 712.3, 623.6 714, 621.3 715.1 C 619 716.1, 616.5 717, 615.8 717 C 615 717, 614 717.4, 613.5 717.9 C 611.7 719.5, 598.8 724.1, 592.1 725.6 L 585.5 727 583.3 724.2 L 581 721.5 581 724.3 C 581 727.1, 585.7 733, 587.9 733 C 589.4 733, 589.3 731.3, 587.8 730.8 C 587.1 730.5, 589.9 729.5, 594 728.5 C 600.7 726.9, 607.6 724.3, 633 713.8 C 641.9 710.1, 652.7 708.7, 651.7 711.4 C 650.8 713.6, 652.7 713.5, 658.3 711 C 662.9 709, 663 709, 667.2 710.8 C 674.8 714.2, 675.1 714.2, 684.2 711.4 C 690.1 709.6, 694.3 707.6, 696.9 705.3 C 704.4 698.9, 707 704.8, 707 728.3 C 707 747.4, 708.1 768, 709 768 C 710.5 768, 709 713.9, 707.4 709.1 C 706.6 706.7, 706.2 704.5, 706.5 704.2 C 707.7 703, 722.5 705.6, 722.5 707 C 722.5 708.1, 720.9 708.6, 716 709.1 C 712.4 709.4, 710.3 709.7, 711.3 709.8 C 712.2 709.9, 713 710.5, 713 711 C 713 711.7, 713.6 711.7, 714.9 711 C 719 708.8, 722.6 709.7, 723.8 713.3 C 724.6 715.8, 724.8 713.5, 724.9 701.8 C 725.1 676.9, 729.2 644, 734.9 622.5 C 739 607, 742.6 588.6, 743.5 578.8 C 745.3 559.7, 747.6 579.4, 747.3 611 C 747.1 639.7, 745.3 660.1, 740.5 686 C 738.3 698.1, 737.3 705.5, 736.6 713.5 L 736.1 720.5 737.5 715.5 C 738.2 712.8, 739.1 708.3, 739.5 705.5 C 739.9 702.8, 741 696.2, 742.1 691 C 747.8 663.9, 748.4 659.3, 750.1 630.6 C 751.8 602.7, 750.1 579, 745.1 561 C 744 556.9, 743 552.5, 743 551.3 C 743 550, 742.6 549, 742.1 549 C 741.5 549, 739.9 546.6, 738.5 543.8 C 733.4 533.5, 732.5 534.8, 737 545.9 C 741.2 556.1, 742.1 564, 741 578.5 C 740.4 585.1, 739.6 591.9, 739.1 593.5 C 738.6 595.2, 737.2 601, 736 606.5 C 734.9 612, 733.5 618.1, 733 620 C 732.5 621.9, 731.6 625.3, 731 627.5 C 729 635.3, 728 635, 728 626.5 C 728 617.2, 727.3 614, 725.4 614 C 724.6 614, 724 614.4, 724 614.8 C 724 615.2, 722.1 618.5, 719.8 622.1 C 717.4 625.7, 714.2 630.7, 712.6 633.3 C 708.7 639.4, 708.4 639.3, 707.6 631.6 C 707.3 628, 706.1 622.3, 705 618.9 C 703.9 615.5, 703 611.9, 703 610.9 C 703 609.9, 702.6 608.8, 702 608.5 C 700.7 607.7, 700.8 611.3, 702.1 617 C 702.7 619.5, 704.2 627.4, 705.5 634.5 C 706.9 642.9, 708 646.8, 708.4 645.5 C 709.6 642.1, 713.3 634.9, 713.6 635.3 C 713.8 635.5, 713.3 638.2, 712.5 641.4 C 710.9 647.4, 710.7 657.8, 712 662 C 712.5 663.7, 712.8 661.9, 712.9 656.2 C 713 644.5, 717.7 628.9, 723.3 621.6 C 725.3 618.8, 726.6 647.4, 724.9 661 C 724.3 666.2, 723.6 677.8, 723.3 686.8 C 722.9 701, 722.6 703.1, 721.3 702.6 C 720.4 702.2, 715.7 701.7, 710.9 701.3 C 702.6 700.7, 700.6 700, 703 698.5 C 705.8 696.8, 718 674.5, 718 671.1 C 718 670.5, 718.6 668.1, 719.4 665.8 C 722.8 655.1, 726.3 636.4, 724.5 638.2 C 724.2 638.5, 722.4 644.5, 720.5 651.6 C 716.3 667.2, 713.8 674.1, 708.7 685 C 707.1 688.4, 700.2 698.7, 699 699.5 C 698.5 699.8, 699.2 697.6, 700.5 694.7 C 703.8 687.1, 705 679.3, 704.8 666.6 L 704.7 655.5 703.9 668 C 702.8 687.9, 698.3 699.8, 689.8 705.3 C 686.3 707.5, 686 707.5, 686 704.8 C 685.9 702.5, 685.9 702.5, 684.6 704.9 C 683.2 707.4, 676.5 710.6, 675.6 709.2 C 675.4 708.8, 675.6 704.7, 676.1 700.2 C 676.6 695.6, 676.7 691.3, 676.3 690.7 C 675.9 690.1, 675.3 688, 674.9 686 C 674.4 683.3, 674.2 684, 674.1 689.6 C 674 696.9, 672.2 708, 671.1 708 C 670.1 708, 668.3 704.6, 667.6 701.2 C 667.2 699.5, 666.4 697.8, 665.9 697.5 C 664.5 696.6, 664.9 700.2, 666.5 703.4 C 668.1 706.5, 668.1 707.3, 666.4 706.2 C 663 703.8, 642.4 673.3, 638.5 664.7 C 637 661.5, 635.5 659.2, 635 659.5 C 633.9 660.2, 625.4 649.1, 623.5 644.6 C 622.5 642.3, 622 637.6, 622 631.6 C 622 622.5, 623.2 618.8, 624.8 622.7 C 625.3 624.1, 625.7 623.5, 626.2 620.5 C 626.6 618.2, 626.7 620.4, 626.6 626 C 626.4 631.2, 626.5 633.4, 626.7 630.8 C 627.2 624.9, 628.5 624.6, 629.4 630.3 C 630.7 639.9, 632 643, 631.4 635.5 C 630.9 628.2, 629.3 617.9, 628.1 614.5 C 627.2 612.1, 627.8 608.8, 629 609.2 C 630.4 609.7, 646 625.1, 649.5 629.5 C 656 637.7, 668 660.2, 668 664.5 C 668 665, 668.6 666.7, 669.4 668.2 C 670.2 669.6, 671.1 672.8, 671.5 675.2 C 671.9 677.6, 672.7 680.2, 673.2 681 C 674.4 682.9, 673.4 671.7, 672.1 669.2 C 671.7 668.3, 669.9 663.2, 668.2 658 L 665.1 648.5 666.9 642 C 669.9 631.2, 673.6 623, 675.6 623 C 677.2 623, 682.2 630.5, 686 638.5 C 689.6 646, 690.4 652.8, 688.3 657.1 C 684.4 664.9, 676.8 686.6, 677.2 688.6 C 677.4 689.6, 679.5 685.1, 682 678.5 C 684.4 671.9, 687 665.4, 687.7 664 C 688.4 662.6, 689 660.7, 689 659.8 C 689 658.9, 689.4 657.9, 689.9 657.5 C 690.5 657.2, 691.2 654.8, 691.6 652.2 C 691.9 649.6, 693.1 644.1, 694.2 640 C 697.1 629.3, 698.2 623.1, 697.7 621.2 C 697.4 620.3, 697.2 620.9, 697.1 622.7 C 697.1 624.4, 696.6 626.1, 696.1 626.4 C 695.6 626.7, 695 628.4, 694.7 630.2 C 694.4 632, 693.6 636, 692.8 639 L 691.4 644.5 689.2 638.8 C 686.6 631.9, 687.4 624.7, 691.5 619.4 C 692.9 617.6, 694 615.8, 694 615.3 C 694 613.5, 700.6 605, 702 605 C 707.3 605, 725 590.2, 728.8 582.8 C 732.1 576.1, 730.7 564.4, 726.2 561.6 C 725.6 561.3, 726.1 558.8, 727.6 555.3 C 730 549.5, 730.5 545.5, 729.4 542.6 C 728.3 539.6, 727.1 541, 726 546.8 C 725.2 550.6, 723.9 553.5, 722 555.5 C 720.4 557.2, 717.8 560.9, 716.1 563.8 C 711.3 572.1, 691.1 588.2, 680.7 592.1 C 677.4 593.3, 673.2 595.4, 671.2 596.8 C 667.2 599.5, 661.2 601.4, 653.5 602.5 C 650.8 602.9, 644.9 604.1, 640.6 605.2 C 634.5 606.7, 632.1 606.9, 630.3 606.1 C 625.1 603.7, 623.1 605.4, 623 611.8 C 623 613.8, 622.5 614, 616.8 614 C 613.3 614.1, 608.5 614.5, 606 615.1 C 603.5 615.6, 598.6 616.5, 595 617 C 591.4 617.5, 586.7 618.4, 584.5 618.9 C 582.3 619.4, 577.1 620.6, 573 621.6 C 568.9 622.5, 561.2 624.4, 556 625.8 C 543.3 629.1, 535 631, 532.3 631 C 531.1 631, 528.4 632.7, 526.3 634.8 C 518.7 642.5, 506.1 648.3, 488 652.4 C 482.2 653.8, 471.4 656.4, 464 658.3 C 450.6 661.8, 444.6 662.6, 410 665 C 403.2 665.5, 394.6 665.6, 391 665.3 C 385.4 664.8, 358.3 666.3, 348.5 667.5 C 345.7 667.9, 337.4 666.6, 325.2 663.8 C 316.9 662, 321.3 660.6, 333.6 661.3 C 342.1 661.7, 343.8 661.5, 343.3 660.4 C 343 659.5, 343.4 659, 344.5 659 C 345.4 659, 347.6 658.4, 349.3 657.6 C 351.1 656.9, 353.9 655.7, 355.5 655.1 C 359 653.7, 363.7 650.3, 363 649.7 C 362.7 649.4, 360.9 649.9, 359 650.9 C 349.1 655.7, 342.5 657.4, 335.2 657.2 C 330.7 657.1, 325.7 657.6, 322.2 658.6 C 315.6 660.6, 304.7 660.1, 298.5 657.5 C 294.2 655.8, 277.2 647.2, 275.5 646 C 275 645.6, 271.9 644.3, 268.8 643.2 C 263.5 641.2, 262.8 641.2, 257.5 642.5 C 244.6 645.9, 220.7 644.1, 205 638.5 C 201.4 637.2, 195.3 635.9, 191.5 635.5 C 171.6 633.6, 158.1 629.5, 153.5 624.2 L 150.2 620.5 139.1 620.8 C 128.1 621, 124 620.2, 124 617.7 C 124 617, 125.5 615.9, 127.3 615.1 C 129 614.4, 131.9 613.2, 133.5 612.5 C 145.4 607.4, 156 605.4, 162.2 607 C 166.6 608.2, 168.4 609.4, 181.4 619.4 C 187.8 624.3, 189.8 625.3, 193.8 625.6 C 197.9 625.9, 198.1 625.9, 195.2 625.1 C 191.8 624.2, 180.7 617.1, 175.5 612.5 C 165.5 603.7, 155.2 602.4, 139.6 608 C 134.7 609.7, 129.1 612, 127.1 613.1 C 122 615.8, 120.2 615.5, 118.3 611.5 C 116.4 607.6, 115.5 607.3, 112.9 609.6 C 111.4 611, 110.1 610.5, 97.9 604.4 C 81.2 596, 73.4 588.7, 67 575.7 C 61.6 564.7, 61 561.3, 64.1 560.1 C 66 559.3, 66.1 559.1, 64.6 559.1 C 63.1 559, 62.9 558.5, 63.5 555.8 C 63.8 554, 64.4 550.5, 64.7 548 C 65 545.3, 66.9 540.8, 69.4 536.5 C 73.9 529.1, 77 522.8, 77 521.3 C 77 519.8, 79.9 514.3, 81.3 513.3 C 81.9 512.8, 85.7 511.5, 89.5 510.6 C 102.2 507.3, 109.4 505, 113.7 502.6 C 120 499, 126.4 497.3, 137.5 496.1 C 144.4 495.3, 148.9 494.2, 152.2 492.6 L 156.9 490.2 157.5 493.3 C 158.8 499.2, 171.2 509, 184.3 514.5 C 188.2 516.1, 189.2 518, 186.1 518 C 181.7 518, 173.4 521.6, 170.7 524.7 C 167.4 528.5, 162.4 530.3, 157.8 529.5 C 154.9 529, 154.2 529.4, 152 532.5 C 149.7 535.7, 147.8 536.6, 144 536 C 143.2 535.9, 142.8 536.1, 143.2 536.5 C 143.6 536.9, 144.9 537.3, 146.1 537.4 C 147.8 537.5, 148.6 538.5, 149.7 542.3 C 151.6 549, 158.3 553.4, 165 552.6 C 170.5 551.9, 178 550.3, 176.3 550.1 C 174.5 550, 174.7 548.9, 177.1 546 C 179.2 543.6, 179.5 543.5, 193.9 543.5 C 201.9 543.5, 211 543.1, 214 542.7 C 224.6 541.3, 215.3 543.9, 202.2 546.1 C 186.6 548.7, 185.8 548.9, 188.5 550 C 189.6 550.5, 197.1 550.6, 205.2 550.3 L 219.9 549.7 224.2 553.8 C 226.5 556.1, 228.7 557.6, 229 557.1 C 229.3 556.6, 233.6 556.3, 238.5 556.3 C 243.9 556.3, 248.5 555.8, 249.8 555.1 C 254.4 552.7, 253.4 555.3, 247.9 560.4 C 243.4 564.6, 241.3 565.8, 237.8 566.3 C 226.6 567.8, 221.8 575.8, 226.5 585 C 232.1 595.8, 257 591, 257 579.1 C 257 575, 262.8 571.7, 271.9 570.6 L 276 570.1 275.5 573.8 C 274.7 578.8, 277.6 584, 282.4 586.4 C 285.9 588.1, 289.2 588.4, 298.5 587.7 C 300.7 587.6, 301.5 588, 301.8 589.5 C 302 590.6, 303.5 592.9, 305.2 594.6 C 310.3 600, 316.4 599.9, 322.9 594.4 C 326.4 591.3, 327.1 591.1, 329.7 592.1 C 338.1 595.4, 354.5 590.4, 365.5 581.1 C 368.8 578.3, 374 574.3, 377 572.1 C 380 570, 384 566.4, 385.8 564.2 C 388.2 561.1, 392.2 558.5, 402.2 553.3 C 418.6 544.9, 426.6 537.8, 433.6 525.7 C 447 502.2, 458.3 488.9, 471.5 481.1 C 483.8 473.8, 488.4 473.5, 494.3 479.7 C 496.3 481.7, 498.2 483.1, 498.5 482.8 C 498.9 482.5, 497.1 480.1, 494.6 477.5 C 490.2 472.8, 490 472.8, 484.8 473.2 C 481.9 473.5, 477 474.9, 473.9 476.3 C 466.6 479.8, 467.1 480, 462.4 472.2 C 456.2 462, 453.6 453.9, 453.6 444.8 C 453.6 436.8, 453.2 435.9, 451 438.5 C 449.6 440.2, 445.3 440.5, 443 439.1 C 442.2 438.5, 441.2 438.4, 440.7 438.7 C 439.6 439.3, 444.6 442, 447 442 C 448.4 442, 448.8 443.4, 449.3 451.3 C 449.9 460.5, 453.5 474, 456.6 478.8 C 457.4 480.1, 458 481.7, 457.8 482.5 C 457.3 484.7, 434.1 508.9, 429.2 512.2 C 423.9 515.9, 412.7 519, 405.6 518.9 C 400.7 518.8, 400.8 518.8, 408.5 517.4 C 419.4 515.5, 419.7 515.2, 411 515.1 C 406.9 515.1, 401.7 515.7, 399.5 516.5 C 391.2 519.5, 370.5 517.8, 353.7 512.8 C 345.6 510.4, 344.5 509.4, 343.6 503.8 C 343 499.8, 337.9 485, 332.7 472 C 329.3 463.3, 322.1 449.1, 319.6 445.6 L 317.2 442.5 321 439.5 C 323.1 437.9, 327 433.4, 329.6 429.7 C 336.3 420.3, 337.6 419.2, 342.8 418.4 C 347.9 417.6, 357.6 418.4, 359.3 419.8 C 361.3 421.4, 365.4 422.4, 364.6 421.1 C 363.3 419.1, 356.4 416.1, 351.2 415.4 C 344.4 414.5, 330 417.7, 330 420.1 C 330 422.3, 323.7 430.6, 317.9 435.8 C 313.6 439.7, 313 440, 310.6 438.9 C 305.9 436.7, 306.6 438.9, 312.2 444.3 C 321.2 452.9, 331.9 477.9, 340 509 C 343.4 522.2, 344.5 524.6, 349.2 529.6 C 355.7 536.5, 363.9 540.7, 375.3 543 C 380.3 544, 383.6 544.9, 382.5 544.9 C 379.3 545.1, 382.9 547, 386.5 547 C 388.2 547, 391.2 547.9, 393.4 548.9 L 397.2 550.7 394.2 552.9 C 390.8 555.3, 386.1 555.6, 382.2 553.6 C 380.7 552.9, 375.9 551.2, 371.5 550 C 367.1 548.7, 360.6 546.4, 357.2 544.8 C 349.9 541.5, 348.6 541.6, 352.9 545.3 C 355.9 547.8, 363.3 550.8, 376.9 555.1 C 387.7 558.5, 388 558.9, 383.1 563.3 C 378.5 567.4, 375.7 567.9, 373.2 565.1 C 371.1 562.8, 360.2 559.8, 353.1 559.6 C 348.2 559.5, 347.6 559.8, 344.9 563 C 343.3 564.9, 342 567, 342 567.7 C 342 568.6, 340.3 569, 336.4 569 C 330.7 569, 324.1 571.3, 323.9 573.4 C 323.7 575.8, 324.2 583.5, 324.6 583.9 C 325.6 584.9, 328 581.4, 328 578.9 C 328 575.6, 329.7 574.4, 335.6 573.6 C 342.2 572.6, 345 574.2, 345 578.9 C 345 588.5, 332.6 592.8, 325.5 585.6 C 324.6 584.7, 323.4 584, 322.9 584 C 322.4 584, 320.2 582.9, 318 581.5 C 313.3 578.5, 310.7 578.4, 306 581 C 297 585.9, 291 587.5, 291 585 C 291 584.5, 291.4 584, 292 584 C 292.5 584, 294.4 582.4, 296.1 580.5 C 297.9 578.6, 299.9 577, 300.5 577 C 301.9 577, 311 565.7, 311 564 C 311 563.1, 310.6 563.1, 309.4 564.1 C 308.5 564.8, 307.1 565.5, 306.2 565.6 C 305.3 565.7, 303.6 566.1, 302.4 566.5 C 300.9 567, 299.4 566.4, 297.4 564.7 C 294.6 562.2, 294.6 562.2, 296.2 558.8 C 299 552.9, 307.6 544.3, 311.8 543.3 C 315.1 542.5, 315.5 542.1, 315.4 539.3 C 315.2 536.3, 315.3 536.3, 317.9 537.6 C 320.9 539.2, 334.5 539.6, 333.5 538 C 333.2 537.5, 330.6 537, 327.9 537 C 318.1 537, 314.6 533.2, 301.5 508.5 C 296.9 499.7, 284.2 462.1, 283.3 454.5 C 281.5 439.5, 274.6 439.2, 272.6 454 C 272 458.4, 272 458.4, 273.4 455.8 C 274.2 454.3, 275 451.8, 275.2 450.3 C 275.7 446.2, 278 446.2, 278 450.4 C 278 452.3, 279.3 457.8, 280.9 462.7 C 282.6 467.5, 284.8 474.9, 285.8 479 C 289.4 492.8, 295 508.6, 298.6 515.2 C 300.4 518.6, 300.4 520.1, 298.5 519.5 C 293.3 517.9, 293.6 518, 295.4 516.7 C 296.9 515.6, 296.9 515.3, 295.5 513.3 C 293.5 510.5, 291.5 510.2, 293 512.9 C 293.9 514.6, 293.2 515.3, 287.2 518.5 C 283.5 520.5, 277.3 524.6, 273.4 527.6 C 266.2 533.1, 259.2 536, 253.3 536 C 251.2 536, 250 536.5, 250 537.4 C 250 538.2, 248.4 538.9, 245.6 539.2 C 243.1 539.5, 240.4 540.5, 239.5 541.4 C 235.9 545, 231.5 543.2, 219.8 533.1 C 204.9 520.3, 196.9 508.1, 194.6 494.5 C 193.5 488.1, 192.8 486, 191.9 486 C 191.4 486, 190.3 484.3, 189.5 482.3 C 187.5 477.6, 188.5 473.3, 194 463.4 C 198.6 455, 200.6 453.1, 209.3 448.6 C 219.1 443.5, 221.5 443.8, 215 449.4 C 209.1 454.4, 206.4 457.8, 200.9 467.3 C 198.7 471, 196.3 474, 195.7 474 C 194.3 474, 192 479.4, 192 482.8 C 192 487, 194.3 484.8, 198.7 476.5 C 205.7 463, 221.1 447.2, 229.3 444.9 C 231.5 444.3, 240.1 443.8, 248.5 443.7 C 256.9 443.6, 263.6 443.2, 263.3 442.8 C 263.1 442.3, 263.9 442, 265.2 442 C 267.4 441.9, 267.4 441.9, 265.5 440.8 C 264.4 440.2, 263.1 439.1, 262.7 438.3 C 262.3 437.6, 260.9 436.9, 259.7 436.9 C 258 436.8, 257.9 436.7, 259.3 436.3 C 261.5 435.7, 261.5 434, 259.3 434 C 257.9 434, 258 433.7, 259.8 431.7 C 262.3 429.1, 262.6 427, 260.8 425.2 C 258.4 422.8, 257.3 424.1, 255.5 431.5 C 254 437.2, 253.2 439, 252 438.7 C 245.7 437.4, 265.8 382.3, 281.2 359 C 283.5 355.4, 288.3 349.6, 291.9 346 C 295.4 342.4, 297.6 340.4, 296.9 341.5 C 296.1 342.6, 295.3 343.7, 295 344 C 293.2 345.6, 287.1 355, 286.1 357.7 C 284.1 362.6, 285.9 363.7, 288.3 359.1 C 289.5 356.9, 293 351.6, 296 347.4 C 299 343.2, 302 339.1, 302.7 338.1 C 303.7 336.7, 304.3 336.9, 307.7 340.1 C 309.8 342.1, 313.5 345.2, 316 346.9 C 321.7 351, 329 357.8, 329 359.1 C 329 359.6, 329.6 360, 330.4 359.8 C 331.2 359.6, 334.1 361.2, 337 363.4 C 344.8 369.3, 344.2 366.9, 335.7 358.3 C 328.2 350.7, 327 348.9, 330.7 350.9 C 331.7 351.4, 335.2 353.2, 338.5 354.7 C 341.8 356.3, 347.8 359.6, 351.8 362.1 C 355.9 364.5, 361 367.6, 363.3 368.9 L 367.5 371.3 365.1 368.6 C 359 362, 332 347, 326.2 347 C 321.7 347, 309.4 336.4, 303.1 327.2 C 295.2 315.4, 295.4 306.1, 303.8 296.7 C 306.4 293.8, 309.6 289.8, 311 287.7 C 314.4 282.7, 315.7 282.4, 320.8 286.1 C 326 289.8, 335.6 291.2, 341.2 289 C 345.5 287.2, 353.5 283.4, 358.5 280.6 C 372.5 272.9, 372.1 238.3, 357.6 218.2 C 351.1 209, 339.5 206.2, 330.2 211.5 C 323.9 215.1, 326.4 211.1, 333.3 206.5 C 349.9 195.5, 369.2 203, 379.9 224.7 C 381.6 228.1, 383 231.1, 383 231.4 C 383 231.6, 383.5 233.1, 384.2 234.7 C 384.8 236.2, 386.3 240.2, 387.4 243.5 C 389.9 250.3, 391.7 250.6, 391.2 244.2 L 390.8 239.9 400.7 240.5 C 425.5 242.2, 445.2 245, 444.6 246.6 C 444.2 247.4, 443.7 248.7, 443.4 249.6 C 442.1 252.8, 446.3 250.6, 448.3 247 C 460 225.8, 481.6 217, 497.7 226.9 C 508.9 233.8, 517.9 251.1, 518 265.9 C 518 276.7, 511.7 292.6, 504.9 298.3 C 490.5 310.7, 462 298.2, 462 279.6 C 462 276.2, 463.6 277, 464.3 280.8 C 465 284.3, 470.9 290.4, 476.3 293.2 C 489.5 299.9, 505.8 290.3, 508.5 274.2 C 509.8 266.3, 503.4 254.4, 495.8 250.6 C 492.5 248.9, 480.1 248.4, 478.5 249.8 C 477.9 250.3, 476.2 251.2, 474.5 251.9 L 471.5 253.1 473.7 250.9 C 476.5 248, 484.4 245, 489.2 245 C 504 245, 515.3 262.6, 510.5 278.3 C 509 283.3, 506 288.2, 502.6 291.3 C 500.2 293.5, 501.3 293.5, 505 291.3 C 510.1 288.3, 514.4 278.1, 514.3 269.6 C 514 253, 504.4 242.6, 489.5 242.6 C 478.9 242.6, 474.1 245.6, 469 255.5 C 466.7 260.1, 466 260.9, 466 259 C 466 251.3, 477.4 236.8, 484.5 235.4 C 488.5 234.7, 498.3 235.3, 501.5 236.6 C 503.3 237.3, 503.4 237.2, 501.9 235.8 C 501.1 234.9, 497.9 233.4, 494.9 232.5 C 479.5 227.7, 463.5 243.1, 460.9 265.4 C 460.4 269.8, 459.7 275.5, 459.4 278 C 458.7 283.8, 460.5 288.2, 466.6 294.9 C 480.8 310.7, 503.6 309.9, 514 293.2 C 515.4 291, 515.5 291.2, 515.2 296.7 C 515 300.9, 515.2 302.1, 515.9 301 C 516.5 300.2, 517 298, 517 296.1 L 517 292.7 519.5 296.4 C 520.9 298.4, 523.7 302.4, 525.9 305.3 C 533.5 315.5, 534.5 318.3, 534.5 330 C 534.5 339.8, 534.3 341, 531.3 347.1 C 525.7 358.5, 516.9 365.2, 500.4 370.7 C 485.3 375.8, 468.8 380.8, 461.3 382.6 C 454.9 384, 450.9 386.2, 452.1 387.4 C 452.3 387.6, 455 387.2, 458 386.5 C 465.6 384.8, 477.3 383, 477.9 383.6 C 478.1 383.8, 477.1 385.4, 475.5 387 C 473.4 389.2, 473 390, 474.2 390 C 475.1 390, 477.4 388.2, 479.3 386 C 483.6 380.9, 484.6 380.9, 482 386 C 477.9 394.1, 480.1 394.1, 485.5 386 C 487.7 382.7, 489.8 380, 490.3 380 C 492.6 379.9, 490.2 395, 486.1 405.3 C 484.6 409.2, 486.7 408.8, 488.4 404.8 C 490.6 399.8, 493 391.4, 493 388.9 C 493 382.8, 495.3 390.8, 497.5 404.5 C 499.3 415.8, 501.4 425.7, 503.4 433.5 C 506.6 445.2, 510.2 476.7, 509.3 484.2 C 508.1 493.8, 501 509.3, 490.8 524.4 C 474.5 548.6, 457.5 564.8, 432 580.2 C 419.8 587.6, 413 595, 407.8 606.8 C 404.7 614, 404.6 614, 400.8 614 C 398.6 614, 396 613.5, 394.9 613 C 391.8 611.3, 386.7 614.4, 382.5 620.5 C 380.7 623.2, 380.5 624.2, 381.4 630 C 381.9 633.6, 382.5 635.9, 382.7 635.3 C 383 634.4, 384.3 634.7, 387.3 636.3 C 396.8 641.3, 414.4 638.3, 419 630.8 C 422.1 625.6, 421 618, 417 618 C 416.2 618, 416 618.6, 416.5 619.8 C 418.9 625.5, 417.6 630.9, 413.4 632.9 C 411.4 633.8, 410.8 633.7, 410.3 632.4 C 409.8 631, 409.4 631.1, 407.9 633.1 C 405.4 636.5, 394.9 637, 390.2 634 C 379.4 627.3, 385.5 614.4, 398.3 616.8 C 401.1 617.4, 404.5 618.1, 405.7 618.5 C 407.6 619.1, 408 618.7, 409 614.9 C 410.3 610.3, 417 600.1, 422.9 593.6 C 430.2 585.7, 443.7 581.4, 451.4 584.6 C 452.8 585.1, 453.1 585, 452.5 584.1 C 452.1 583.3, 452.3 582.4, 453.1 581.9 C 454.2 581.3, 453.9 581, 452.3 581 C 448.7 581, 448.4 578.9, 451.6 576.3 C 455.8 572.9, 463.9 573.3, 464.1 576.9 C 464.1 577.8, 464.7 577, 465.3 575.2 C 466.5 572.1, 471.2 568, 473.8 568 C 474.5 568, 475 569.4, 475 571.9 C 475 580.6, 475.6 581.7, 481.9 583 C 490.6 584.8, 498.8 580.6, 500.1 573.6 C 500.3 572.5, 501.1 571.5, 501.7 571.3 C 502.6 571, 502.5 571.6, 501.5 573.7 C 495.4 585.4, 509.9 594.4, 522.8 586.9 C 524.6 585.9, 527.1 584.9, 528.3 584.9 C 529.9 584.8, 530 584.6, 528.8 584.3 C 527.6 584, 527.1 582.4, 526.8 578.2 C 526.3 571.1, 526.1 571.3, 531.3 573.8 C 535.5 575.8, 535.6 575.9, 535.6 580.8 C 535.6 588.7, 540.9 592.5, 550.5 591.8 C 562.8 590.8, 569.7 582, 563.9 574.6 C 562.8 573.2, 562.1 572, 562.5 572 C 564.2 572, 568.9 575.3, 572.1 578.8 C 577.1 584.2, 582.9 586, 595.1 586 C 603.5 586, 605.1 585.7, 607.1 583.9 L 609.5 581.8 607 582.5 C 605.6 582.9, 601.6 583.4, 598 583.6 L 591.5 584.1 595.2 582 C 603.5 577.5, 607.6 566.5, 602.9 561.4 C 596.6 554.6, 589.1 553.5, 580.6 558 C 575.2 560.8, 574.7 560.9, 570.7 559.6 C 559.3 555.9, 556 555, 550.5 554.1 C 547.2 553.5, 541.9 552.6, 538.8 552.1 C 535.7 551.6, 531.1 550.4, 528.5 549.6 C 523.5 547.9, 516 547.5, 516 548.9 C 516 549.4, 517.2 550.1, 518.8 550.4 C 520.3 550.8, 524.5 552.2, 528.1 553.6 C 531.8 555, 537 556.5, 539.6 556.9 C 549.3 558.7, 560.6 560.9, 564 561.9 C 565.9 562.4, 568.7 563.1, 570.3 563.4 C 573 564, 573.8 566.2, 572.1 568.8 C 571.4 569.9, 570.6 569.9, 567.6 568.6 C 565.5 567.7, 560.4 566.6, 556.2 566.1 C 551.9 565.5, 547.7 564.8, 546.8 564.5 C 544.3 563.5, 543.7 565.7, 546 567.7 C 547.1 568.7, 548 570, 548 570.7 C 548 573, 544.9 572.1, 539.7 568.3 C 534.5 564.4, 529.5 563.6, 525.2 565.9 C 524 566.5, 521.9 566.5, 518.9 565.9 C 513.5 564.6, 506.2 565.6, 502.6 567.9 C 499.9 569.7, 499.9 569.7, 496.8 566.9 C 495.2 565.3, 492.4 563.7, 490.8 563.2 L 487.7 562.4 492 559.6 C 497.1 556.2, 503.2 554, 507.4 554 C 509.1 554, 511.4 553.3, 512.4 552.5 C 514.3 551, 514.3 551, 511.9 551 C 509.4 551, 499.6 547.7, 492.3 544.4 C 488.1 542.6, 486.9 540.8, 489 539.5 C 490.6 538.5, 496.1 540, 495.4 541.2 C 495 541.8, 495.1 542, 495.7 541.7 C 496.2 541.4, 498.4 541.7, 500.5 542.4 C 503.3 543.4, 505 543.5, 506.7 542.7 C 508.3 542, 509.3 542, 510.3 542.9 C 511.4 543.7, 514.7 543.7, 524.1 542.8 C 542.9 541.1, 550.5 541.4, 557.4 544.5 C 561.5 546.3, 563.6 546.8, 564.3 546.1 C 566.4 544, 576.5 544.8, 581.1 547.5 C 586.3 550.4, 592.6 550.8, 597.2 548.4 C 599.6 547.2, 603.1 546.8, 612.4 546.9 C 619.1 546.9, 626.1 546.6, 628 546.1 C 630.6 545.4, 627.7 545.2, 617.4 545.1 C 609.7 545, 603 544.7, 602.7 544.3 C 601.1 542.8, 604.6 541, 609.4 540.9 C 612.2 540.9, 616.8 540.4, 619.5 540 C 623.5 539.3, 622.1 539.2, 613.3 539.3 C 604.3 539.5, 602 539.3, 602 538.2 C 602 537.3, 601.4 537.5, 600.3 538.9 L 598.5 540.9 592.5 538.9 C 589.2 537.7, 584.7 536, 582.5 535 C 574.7 531.5, 569 530, 567.2 530.9 C 566.3 531.4, 563.5 532.1, 561 532.4 C 556.5 533.1, 556.5 533.1, 558.9 531.3 C 560.2 530.3, 563.3 527.6, 565.9 525.3 L 570.5 521.2 579.2 521.2 C 609.4 521.2, 625.6 517.7, 637.7 508.4 C 639.4 507.1, 641.7 506, 642.7 505.9 C 643.8 505.9, 642.6 504.9, 640 503.5 C 622.8 494.5, 619.8 493.6, 611.8 495.5 L 606.5 496.7 615 496.7 C 622.9 496.7, 624 496.9, 630 500.2 C 638.1 504.7, 638.2 505, 631.8 508.6 C 620.1 515, 613.4 516.4, 589.3 517.6 C 572.9 518.3, 573.1 518.4, 579 510.7 C 585.4 502.1, 590 492.5, 590 487.5 C 590 480.3, 590.1 480.2, 598.3 481.5 C 602.3 482.2, 606.6 483, 608 483.3 C 609.4 483.7, 614.6 484.9, 619.5 486.1 C 624.5 487.2, 631.2 489.1, 634.5 490.2 C 644 493.4, 662.9 497.8, 664.8 497.3 C 667.3 496.7, 679.6 500.2, 685.7 503.4 C 698.4 509.8, 713.3 523.1, 716.6 530.9 C 718.8 536.1, 718.4 536.6, 712.3 537.9 C 709.1 538.5, 702.3 539.8, 697.1 540.8 C 691.9 541.9, 688.1 543, 688.7 543.3 C 689.3 543.7, 692.4 543.5, 695.6 542.9 C 712.6 539.9, 718 538.7, 718 538 C 718 537.6, 718.9 537, 720 536.7 C 725.6 535.2, 717.3 520.1, 706.7 512.5 C 703.6 510.3, 701.1 508, 701 507.3 C 701 506.6, 700.4 506.3, 699.6 506.6 C 698.9 506.9, 697.6 506.5, 696.9 505.8 C 694.3 503.2, 676.5 495.1, 672 494.5 C 664.8 493.5, 664 493.1, 664 490.4 C 664 487.2, 660.8 481, 657.8 478.5 C 654 475.2, 651.8 474.3, 642.4 472 C 632.9 469.7, 625.6 467.4, 622.8 465.9 C 621.9 465.4, 619.2 464.8, 616.8 464.5 C 612.7 464, 612.8 464.1, 619 466.4 C 622.6 467.8, 628.7 469.9, 632.5 471 C 636.4 472.2, 641.7 473.7, 644.4 474.5 C 647 475.3, 649.7 476, 650.4 476 C 651 476, 653.1 477.5, 655 479.3 C 660.7 484.5, 664.6 495.2, 660.3 493.5 C 659.3 493.2, 655.8 492.3, 652.5 491.5 C 649.2 490.8, 644 489.4, 641 488.5 C 628.2 484.6, 625.1 483.7, 617 481.9 C 612.3 480.8, 605.4 479.5, 601.5 479 C 590.9 477.4, 591.3 477.7, 590.5 470.8 C 590 466.9, 588.7 463, 586.9 459.8 L 584.1 455 587.3 455 C 590.6 455, 606.7 451.2, 604 451.1 C 603.2 451, 598.3 451.7, 593.2 452.5 C 588.1 453.4, 583.3 453.7, 582.7 453.3 C 582 452.9, 579.9 451.4, 578 449.9 C 573 445.9, 563.5 441.4, 556 439.5 C 549.5 437.8, 534.5 437.7, 531 439.3 C 529.7 439.9, 529.4 439, 529.5 433.3 C 529.5 423, 528.7 418.7, 526.3 416 C 525 414.6, 524 413.2, 524 412.8 C 524 412.4, 521.2 410.2, 517.8 407.9 C 506.6 400.5, 500.4 393.6, 497.4 385.3 C 495.9 381.3, 494.9 377.8, 495.1 377.7 C 495.3 377.6, 498.7 376.4, 502.5 375.1 C 529.5 366, 541.5 350.2, 539.7 326.5 C 539 317, 536.2 310.8, 527.9 300.6 C 516.6 286.7, 517.6 288.7, 519.3 282.2 C 526.1 256.9, 518 231.8, 499.8 221.9 C 493.8 218.7, 493 218.5, 483.5 218.6 C 469.6 218.7, 460.7 223.1, 451.9 234.2 C 446.4 241.2, 446.8 241.1, 436 239.4 C 428.3 238.2, 397.3 235.2, 390.9 235 C 390 235, 388.2 232.1, 386.1 227 C 377.9 206.8, 363.6 196.1, 346.5 197.3 C 327.4 198.6, 311.9 217.7, 309 243.5 C 308.3 250.3, 308.6 254.7, 311.3 270.2 C 312.9 279.2, 313 278.9, 304 289 C 294.6 299.5, 293 302.8, 293 311.7 C 293 318, 293.4 319.7, 296.6 325.7 L 300.1 332.5 297.4 334.5 C 284 344.1, 270.5 363.5, 261.5 386 C 260.1 389.6, 258.5 393.4, 258.1 394.5 C 251.2 410.8, 247.3 423.5, 245.5 434.3 L 244.9 438 237.7 438 C 227.5 438, 212.5 441.3, 203.4 445.5 C 196.5 448.7, 188.5 460.4, 184.5 473.2 L 182.7 478.8 185.4 484.5 C 188 489.8, 191.5 501.8, 190.7 502.7 C 190.2 503.1, 181.3 498.3, 178 495.7 C 174.5 493.1, 172 488.9, 172 485.8 C 172 483.5, 171.4 482.9, 168 482 C 162.5 480.5, 159.2 481.6, 153.5 486.9 L 148.5 491.6 135 493.3 C 121.9 494.9, 119 495.6, 108.5 500.5 C 103.6 502.7, 94.6 505.7, 86.5 507.9 C 77.5 510.2, 77.3 510.2, 75.1 507.1 C 72.1 503, 72.2 503, 80.8 495.2 C 97.6 480.1, 122.2 467.6, 145.5 462.5 C 170.7 457, 171.5 456.7, 182.5 445.4 L 188.5 439.2 197 438.1 C 211.8 436, 225 433, 229.3 430.6 C 240.1 424.7, 243.2 422, 237.5 423.4 C 235.5 423.9, 235 423.7, 235 422.1 C 235 416.3, 227 412.3, 212 410.5 C 209 410.2, 201.6 409.2, 195.5 408.3 C 177.8 405.8, 158.7 407.9, 153.2 413.1 C 150.2 415.8, 150.4 416.3, 153.8 414.7 C 162.1 410.4, 179.1 408.2, 190.5 410 C 194.4 410.6, 202.2 411.7, 208 412.5 C 226.5 415, 230.2 416.3, 231.8 421 C 232.8 423.7, 232.6 424.1, 230.2 425.8 C 218.5 433.8, 174.9 438.8, 157.5 434 C 155.9 433.6, 148.6 432.1, 141.3 430.7 C 123.3 427.3, 116 423.2, 116 416.3 C 116 414.9, 115.8 414.8, 115.1 415.9 C 114 417.6, 115.6 422.8, 118.1 425.5 C 119.8 427.4, 123.1 428.7, 134.1 432 C 139.4 433.6, 176 438.7, 184.1 438.9 C 185.2 439, 183.3 441.6, 178.6 446.6 L 171.5 454.2 167.9 450.8 C 162.2 445.4, 124.2 436.1, 119.3 438.9 C 117.8 439.8, 118.2 439.9, 121.6 440 C 125.4 440, 131.7 441.1, 145.5 444.1 C 157.5 446.8, 168 451.4, 166.2 453.2 C 165.6 453.8, 159.7 455.3, 152.9 456.6 C 146.1 458, 139.6 459.5, 138.5 459.9 C 137.4 460.4, 132.2 462.2, 127 464 C 95.3 474.6, 69 495.2, 59.1 517.3 C 54.8 526.8, 53.8 527, 54.6 518.3 C 55.5 508.3, 56.5 500.7, 61.5 468 C 63.5 454.6, 63.8 451, 63.1 448.5 C 62.7 447.3, 62.3 448.9, 61.9 452.5 C 61.6 455.8, 60.5 463, 59.6 468.5 C 55.7 491.2, 54.8 497.8, 52 526.5 C 51.4 532.6, 50.5 540, 50 543 C 44.7 576.9, 44 583.5, 44 601.3 L 44 617.1 40.7 614.6 C 38.8 613.1, 36.8 612, 36.2 612 C 35.3 612, 35 602.4, 35 575.3 C 35 555.2, 34.8 538.9, 34.6 539.1 C 33.8 539.9, 33.7 628.6, 34.5 634.5 C 35.2 640.4, 35.1 640.8, 31.2 647.1 C 29.1 650.7, 27 654.6, 26.6 655.7 C 25.9 657.7, 23.2 660.7, 22.7 659.9 C 22.6 659.7, 22.7 651.2, 23 641 C 23.3 630.8, 23.3 622.3, 22.9 622 C 21.7 621, 20.9 609.5, 20 575 C 19.5 555.5, 18.5 534, 17.9 527.3 C 16.2 508.9, 17.2 491.5, 22.4 450 C 25.9 422.6, 27.4 413.1, 32.3 389 C 33.7 382.1, 35.6 372.2, 36.5 367 C 38.2 357, 39.8 349.7, 43.1 336.5 C 44.3 332.1, 45.6 326.7, 46.1 324.5 C 47.3 319.6, 55.6 294.9, 57.7 290 C 60.3 283.8, 74.7 255.5, 77.2 251.4 C 80.1 246.7, 81.4 243.7, 80 244.5 C 79.4 244.8, 79 245.6, 79 246.1 C 79 246.6, 78.2 248, 77.1 249.1 C 76.1 250.2, 72.3 256.8, 68.8 263.9 C 65.2 270.9, 61.8 277.5, 61.2 278.6 C 55.6 288.5, 42.6 324.7, 41.3 333.7 C 40.8 337.2, 40.5 337.8, 39.8 336.5 C 38.5 334.4, 40.6 293.1, 42.5 279.5 C 45.9 256, 49.9 238.3, 54.1 228.5 C 62 209.4, 68.3 200.7, 86.6 182.7 C 93.4 176.1, 98.6 170.2, 98.3 169.6 C 98 169, 98.1 168.8, 98.5 169.3 C 99.4 170, 104 166.3, 104 164.8 C 104 163, 101.7 164.3, 91.8 171.7 M 89.5 175.1 C 66.1 194.9, 52.5 212.5, 42.1 236.2 C 40.9 238.8, 40 241.4, 40 242 C 40 242.5, 39.6 243.8, 39.1 244.8 C 38.6 245.7, 37.5 248.8, 36.7 251.5 C 35.3 256.2, 34.5 260.1, 30.5 278.9 C 28.8 287.4, 28.6 296.4, 30 305.8 C 30.6 309.5, 31.4 324.5, 31.8 339.3 C 32.4 357.7, 33 366.4, 33.8 367.2 C 34.7 368.1, 35 367.5, 35 364.3 C 35 362, 35.7 356.6, 36.5 352.3 C 37.7 346.3, 37.9 340.9, 37.4 329 C 36.5 308.7, 39.1 277.2, 42.9 260.5 C 43.4 258.3, 44.6 253.1, 45.6 249 C 51.9 221, 62.3 203.3, 86.1 180.7 C 97.8 169.4, 99.6 166.5, 89.5 175.1 M 722 191.6 C 722 192.6, 722.7 197.5, 723.5 202.4 C 724.3 207.4, 725.4 215.8, 726 221 C 726.5 226.2, 727.7 234.1, 728.5 238.5 C 729.9 245.8, 731.9 258.1, 734 272 C 734.4 275, 735.3 279.8, 735.9 282.5 C 736.5 285.3, 737.1 288.6, 737.3 290 C 737.6 291.4, 737.6 289.4, 737.3 285.5 C 737.1 281.7, 736.4 276.5, 735.9 274 C 735.3 271.5, 734.2 265, 733.5 259.5 C 732.7 254, 731.4 245.2, 730.6 240 C 729.7 234.8, 728.6 226, 728 220.5 C 727.4 215, 726.5 208.5, 726 206 C 725.5 203.5, 724.8 199.1, 724.5 196.3 C 723.9 191.3, 722 187.8, 722 191.6 M 113.7 196.2 C 107.5 208.4, 94.9 231.6, 91.5 236.9 C 90.2 239.1, 85.4 248, 80.9 256.7 C 76.4 265.4, 72.4 273, 72 273.5 C 70.9 274.8, 63.6 292.2, 59.8 302.3 C 56.9 310.2, 55.4 315, 52.5 325.5 C 51.8 328.3, 50.4 333.2, 49.5 336.5 C 47 345.6, 45.2 354.3, 43 367 C 40.6 381.3, 40.5 384.4, 42.5 383.6 C 43.6 383.2, 44 383.8, 44 385.6 C 44 387.6, 43.6 388, 42.1 387.5 C 40.7 387.1, 40.1 387.6, 39.5 389.7 C 36.8 399.5, 32 434.3, 33.5 432.8 C 35 431.4, 44.5 401.7, 49.1 384.5 C 49.7 382.3, 50.8 378.7, 51.5 376.5 C 52.2 374.3, 53.8 369.1, 55 365 C 65.4 329.6, 75.8 308.9, 93.9 287.3 C 99.8 280.4, 101.1 278, 99 278 C 98.5 278, 98.3 277.3, 98.6 276.5 C 99 275.7, 98.7 275, 98.1 275 C 97.5 275, 97 276.3, 97 277.9 C 97 279.5, 96.2 281.4, 95.3 282.1 C 94.4 282.9, 90.6 287.6, 86.9 292.5 C 83.2 297.5, 78.5 303.3, 76.6 305.5 L 73 309.5 73.6 306 C 74.6 300.2, 78 285.8, 79.6 281 C 81 276.8, 86.3 261.9, 88 257.5 C 92 246.9, 96 237.2, 98.8 231 C 100.6 226.9, 102.5 222.6, 103 221.5 C 103.5 220.4, 106.2 214.6, 109 208.7 C 111.7 202.7, 114 197.4, 114 196.9 C 114 196.4, 114.4 196, 114.9 196 C 115.7 196, 117.2 191.9, 116.6 191.3 C 116.5 191.1, 115.1 193.4, 113.7 196.2 M 736 195.6 C 736 196.2, 737 199.3, 738.1 202.6 C 740.1 208, 740.3 211.5, 741.1 243.5 C 741.6 266.6, 742.4 282.1, 743.5 289 C 750.7 336.7, 753.5 371.3, 753.5 415.3 C 753.5 443.4, 753.3 448.2, 752 449 C 751 449.7, 750.9 450, 751.8 450 C 752.4 450, 753 451.1, 753 452.4 C 753 453.8, 753.4 455.1, 753.9 455.4 C 754.3 455.7, 755 450.9, 755.4 444.7 C 756.1 433.5, 756.9 431, 759.7 431 C 761 431, 761 430.7, 760 429.5 C 758.9 428.1, 758.5 428.1, 756.7 429.7 C 754.7 431.5, 754.7 431.5, 755.5 422 C 756.8 408.2, 756.7 393.8, 755.2 374.5 C 752.8 341.6, 751.2 327.4, 745.4 284 C 744.5 277.3, 743.5 259.1, 743 240 C 742.4 213.5, 741.9 206.7, 740.6 203.1 C 738.8 198.4, 736 193.8, 736 195.6 M 668 203.5 C 668 203.7, 668.6 205.7, 669.4 207.7 C 670.2 209.8, 671.8 214.9, 673 219 C 675.9 228.9, 677.9 235, 678.9 237.5 C 679.4 238.6, 682.1 246.9, 685 256 C 687.8 265.1, 690.6 273.4, 691 274.5 C 691.5 275.6, 692.8 279.9, 694 284 C 695.2 288.1, 697.3 294.7, 698.5 298.5 C 703.3 313, 707.9 331.7, 710.6 347.5 C 714.2 368.9, 716.8 388, 717.4 397.5 C 717.6 401.4, 718 405.2, 718.3 406 C 718.6 406.8, 719.1 412, 719.5 417.4 C 719.8 422.9, 720.4 427.9, 720.9 428.4 C 722.6 430.6, 724.2 440.1, 723.8 445.9 C 723.7 449.2, 723.8 452.2, 724.3 452.6 C 724.9 453.3, 725.4 447.5, 725.3 439.8 C 725.3 438.2, 724.6 434.4, 723.7 431.3 C 722.9 428.1, 721.7 419.7, 721.1 412.5 C 719.2 390.4, 718.1 378.7, 717 372.5 C 716.5 369.2, 714.9 359.8, 713.6 351.5 C 710.7 334, 707.3 318.3, 705.1 312 C 704.6 310.6, 702.5 304.1, 700.5 297.5 C 698.5 290.9, 696.5 284.6, 696 283.5 C 695.5 282.4, 694.2 278.1, 693 274 C 691.9 269.9, 690.5 265.8, 690.1 265 C 689.6 264.1, 688.9 261.9, 688.5 260 C 688.1 258.1, 687.4 255.9, 686.9 255 C 686.5 254.2, 684.4 248.3, 682.5 242 C 680.5 235.7, 678.5 229.8, 678 229 C 677.6 228.1, 676.9 225.9, 676.5 224 C 676.1 222.1, 675.4 220.1, 675 219.5 C 674.6 219, 673.9 216.5, 673.5 214 L 672.9 209.5 675.6 214.5 C 677.1 217.3, 679.3 221.1, 680.4 223 C 681.6 224.9, 683.5 228.5, 684.7 231 C 685.8 233.5, 689.6 241.4, 693 248.5 C 700.2 263.7, 699.9 262.9, 704.3 274.5 C 711.3 292.7, 717.7 313.9, 720.1 326.5 C 721.6 334.5, 723.8 348.6, 725 358.5 C 725.5 362.9, 726.4 369.4, 727 373 C 727.5 376.6, 728.5 387.4, 729.1 397 C 729.7 406.6, 730.6 417.4, 731 421 C 732 429.8, 731.1 395.2, 730 383.5 C 728 362.8, 726.9 353.4, 726 351 C 725.5 349.6, 724.9 345.6, 724.6 342 C 723.9 335.1, 723.3 332, 719.9 317 C 716.2 300.7, 708.8 277.8, 705 270.8 C 704.4 269.8, 704 268.6, 704 268 C 704 265.6, 685.9 228.3, 680.2 219 C 679 217.1, 677.6 214.5, 677 213.2 C 675 208.6, 668 201, 668 203.5 M 333.8 213.9 C 327.6 216.4, 323.4 219.5, 319.9 224.3 C 315.9 229.9, 316.3 230.9, 320.9 226.7 C 330.8 217.8, 343.7 216.9, 355.3 224.6 C 359.5 227.4, 359.5 227.4, 357.4 223.2 C 355.4 219.1, 349.8 214.6, 345.1 213.1 C 340.2 211.7, 339.4 211.7, 333.8 213.9 M 717.3 223.8 C 718.6 235, 723.8 274.9, 725.5 287 C 726.2 292.2, 727.5 301.7, 728.4 308 C 729.2 314.3, 730.2 320.9, 730.5 322.5 C 731.9 330.2, 735.7 373.7, 737.4 401.1 C 738.1 413.5, 739 424.2, 739.3 424.8 C 739.7 425.3, 738.5 427.1, 736.7 428.7 C 735 430.3, 732.8 432.4, 732 433.5 C 730.6 435.2, 730.6 435.2, 732.5 434.2 C 733.6 433.6, 735.7 432, 737.1 430.6 C 738.6 429.2, 741.4 427.2, 743.5 426.2 C 745.6 425, 746.7 423.9, 746 423.5 C 745.4 423.1, 744.2 423.4, 743.4 424.1 C 741 426.1, 740.8 424.9, 739.9 405.3 C 739.4 395, 738.6 382.2, 738.1 377 C 737.5 371.8, 736.8 363.5, 736.5 358.5 C 736.2 353.6, 735.5 345.9, 735 341.5 C 734.5 337.1, 733.6 329.5, 733 324.5 C 731.9 314.8, 730 300.5, 727.5 284.5 C 725.3 270.4, 723.2 253.7, 721.5 238 C 720 222.7, 719.2 219, 717.8 219 C 717.1 219, 717 220.8, 717.3 223.8 M 329.5 224.8 C 324.4 227.2, 320.1 231.5, 317.6 236.6 C 316.6 238.7, 315.3 241.3, 314.9 242.2 C 313.2 245.7, 313.9 259.5, 316 264.3 C 320.3 274, 328.7 279.4, 339.5 279.5 C 351.4 279.5, 358.1 274.4, 360.1 263.7 C 361 258.4, 360.5 254.4, 359.2 257.9 C 358.4 260.2, 351.1 267.8, 347.6 269.9 C 329.8 280.8, 309.8 259.8, 319.5 240.3 C 327.8 223.8, 349.6 224.2, 359.3 241.1 C 362 245.8, 363.1 246.1, 362 241.8 C 360.7 236.4, 359 232.6, 356.7 230.2 C 350.8 223.8, 337.3 221.1, 329.5 224.8 M 0 246.2 C 0 249.2, 0.4 252, 0.9 252.6 C 1.7 253.4, 3.9 280.2, 3.7 287.5 C 3.7 289.2, 3.8 293.2, 4 296.5 C 4.3 302, 4.4 301.8, 5 293 C 5.8 283, 4.6 260.6, 3 253.6 C 2.5 251.4, 2 247.8, 2 245.8 C 2 243.8, 1.6 241.8, 1 241.5 C 0.4 241.1, 0 242.9, 0 246.2 M 623 244.5 C 623 245.8, 625.8 253.7, 628 258.5 C 628.5 259.6, 629.5 262.1, 630.4 264 C 632.8 269.6, 636 277.3, 637.2 280 C 637.7 281.4, 638.8 283.9, 639.5 285.5 C 640.2 287.2, 641.8 291.2, 643.1 294.5 C 644.4 297.8, 645.8 300.9, 646.2 301.5 C 646.6 302, 647 303, 647 303.8 C 647 304.6, 647.6 306.6, 648.4 308.3 C 649.1 310.1, 650.8 314.4, 652 318 C 653.2 321.6, 654.6 325.4, 655 326.5 C 658.9 336.2, 664.1 352.7, 665.7 360.3 C 666 361.8, 666.6 363, 667 363 C 667.5 363, 668.1 364.8, 668.5 367 C 668.9 369.2, 669.5 371.2, 670 371.5 C 670.5 371.8, 671.1 373.8, 671.5 376 C 672.2 380.1, 674 382.5, 674 379.3 C 674 378.3, 672.7 373.6, 671.1 369 C 669.5 364.3, 667.2 357.1, 666 353 C 664.8 348.9, 661.6 339.7, 659 332.5 C 656.3 325.4, 653 315.9, 651.5 311.5 C 650.1 307.1, 648.5 302.6, 648 301.5 C 647.5 300.4, 645.5 295.5, 643.5 290.5 C 640.3 282.5, 639.2 280, 636 272.5 C 635.5 271.4, 633.7 267.4, 631.9 263.5 C 630.2 259.7, 628.7 255, 628.7 253.3 C 628.6 250.2, 627.7 249, 626.7 250.8 C 626.5 251.2, 626.5 250.9, 626.7 250.2 C 627 248.9, 624.4 243, 623.5 243 C 623.2 243, 623 243.7, 623 244.5 M 629 253.2 C 629 254.1, 629.6 255.5, 630.3 256.2 C 630.9 256.9, 632.5 259.3, 633.7 261.5 C 634.8 263.7, 637.3 268.2, 639.1 271.5 C 642.8 278.3, 648 288.8, 648 289.5 C 648 289.7, 649.8 293.8, 652.1 298.7 C 655.9 306.9, 658.6 314.7, 661.2 324.5 C 662.6 329.8, 666.1 340.2, 667 341.5 C 667.4 342.1, 668.7 345.4, 669.9 349 C 671.1 352.6, 672.4 356.4, 672.9 357.5 C 673.6 359.2, 675.6 365.6, 679.3 378 C 679.8 379.9, 680.6 382.4, 681.1 383.5 C 681.5 384.6, 682.1 386.2, 682.3 387 C 682.6 387.8, 682.9 387.3, 682.9 385.8 C 683 382.6, 684.2 382.4, 688.4 384.5 C 690.9 385.8, 691.1 385.8, 690 384.5 C 689.4 383.7, 687.4 382.8, 685.6 382.5 C 682.2 381.8, 682.6 382.7, 678 367 C 676.8 362.9, 675.5 358.6, 675 357.5 C 674.6 356.4, 673.2 352.6, 671.9 349 C 670.7 345.4, 669.3 342.1, 668.8 341.6 C 668.4 341, 668 340, 668 339.2 C 668 338.4, 667.4 336.4, 666.6 334.7 C 663.6 328, 660.7 313.8, 659 296.5 C 658 286.8, 656.7 278, 654.4 265.9 C 653.6 261.7, 653 257.1, 653 255.7 C 653 254.2, 652.5 253, 651.9 253 C 651.2 253, 651 254.2, 651.4 256.3 C 653 265, 655.2 279.7, 656.4 290.5 C 657.2 297.1, 658.1 303.9, 658.5 305.5 C 658.9 307.3, 657.8 305.9, 656.1 302.2 C 654.4 298.7, 653 295.6, 653 295.4 C 653 294.7, 644.2 277.2, 640 269.5 C 638.2 266.2, 635.8 261.9, 634.8 260 C 631.7 254.4, 629 251.2, 629 253.2 M 364.1 265.8 C 364 267.9, 358.2 275.7, 355.2 277.9 C 353.7 279, 349.4 280.6, 345.8 281.6 C 339.3 283.3, 338.9 283.3, 333.3 281.6 C 326.1 279.3, 321 275.7, 317.3 270.3 C 313.9 265.3, 313.4 265.4, 315.6 270.6 C 320.9 283.4, 338.4 288.2, 353.1 281 C 359.4 277.8, 360.3 277, 362.6 272.2 C 364 269.3, 364.9 266.3, 364.6 265.7 C 364.3 264.9, 364.1 264.9, 364.1 265.8 M 428.1 298.9 C 424.4 302.5, 424.4 302.3, 427.4 305.5 C 430.2 308.5, 436.1 309.9, 437.7 307.8 C 443.4 300.6, 434.7 292.4, 428.1 298.9 M 10.7 325.5 C 11.2 345.7, 12.8 367.5, 14.1 370.7 C 14.6 372, 15 383.6, 14.9 396.3 C 14.9 417.4, 14.3 426.7, 12.4 438.7 C 12.1 441, 12.1 444.6, 12.6 446.7 C 13.3 450.2, 13.5 449.9, 14.1 442.5 C 14.5 438.1, 15.5 429.3, 16.3 423 C 17.9 410.9, 18.6 364.9, 17.1 368.5 C 15.9 371.5, 15.2 355, 16.2 345.5 C 17.8 328.4, 18.1 322.3, 17.2 318 C 16.4 314.1, 16.2 315.1, 16.1 325 C 16.1 331.3, 15.4 338.8, 14.7 341.5 L 13.4 346.5 12.5 337 C 12.1 331.8, 11.4 323.5, 11 318.5 C 10.4 311.9, 10.3 313.7, 10.7 325.5 M 69.3 316.5 C 62.3 324.1, 49.1 354, 50.2 359.7 C 50.4 360.7, 51.1 359.6, 51.9 357 C 52.6 354.5, 53.6 351.6, 54.1 350.5 C 54.6 349.4, 55.8 346.2, 56.9 343.3 C 59.6 336.3, 65.3 324.6, 66.3 324.2 C 66.7 324, 67 323.3, 67 322.6 C 67 321.8, 68 320.1, 69.1 318.6 C 71.3 315.8, 71.4 314.2, 69.3 316.5 M 321 316.8 C 321 317.2, 322.7 319.2, 324.8 321.1 C 337 332.7, 363.4 341.6, 409.1 349.5 C 413.9 350.3, 418.4 351.2, 419.1 351.5 C 422.7 352.8, 451 353.7, 465 352.9 C 488.3 351.6, 501.5 347.8, 505.5 341.3 C 507.9 337.4, 507.7 337.4, 511.9 341 C 515.4 344.1, 518 344.9, 517.9 342.8 C 517.9 340.9, 502.5 328.2, 499.4 327.4 C 496.3 326.6, 494.9 327.8, 497.3 329.2 C 502 331.8, 506 336.2, 504.9 337.6 C 496.4 347.9, 448.6 352.5, 418 346 C 415.5 345.5, 408.3 344.1, 402 343 C 363.5 336, 340.6 328.7, 326.5 319 C 321.9 315.9, 321 315.5, 321 316.8 M 344 344.4 C 344 345.3, 351.4 349.1, 360.1 352.5 C 365.3 354.5, 370.9 356.8, 372.7 357.6 C 374.4 358.4, 376.1 359, 376.4 359 C 376.8 359, 381.2 360.6, 386.3 362.6 C 405.1 370, 418.5 371.3, 438.5 367.9 C 445.1 366.8, 453.2 365.4, 456.5 364.8 C 459.8 364.3, 463 363.4, 463.5 362.8 C 464.6 361.6, 449.1 362.5, 440.8 364 C 426.4 366.8, 404.4 364.5, 386.5 358.5 C 369.4 352.7, 359.8 349.3, 352.6 346.6 C 346 344.1, 344 343.6, 344 344.4 M 2.6 358.5 C 2.8 366.2, 3.5 378.8, 4.1 386.5 C 4.8 394.2, 5.1 402.9, 4.9 405.8 C 4.6 409.7, 4.8 411, 5.8 411 C 6.6 411, 7.4 411.9, 7.7 413 C 8.5 415.9, 9.7 415.4, 10.2 412 C 10.5 409.9, 10.2 408.9, 9.1 408.5 C 7.8 408.1, 7.5 406, 7.5 395.8 C 7.5 383.6, 4.8 354.7, 3 348 C 2.4 345.6, 2.3 348.9, 2.6 358.5 M 304.2 375.3 C 303.4 377.6, 300.6 384.1, 297.9 389.7 C 295.2 395.3, 293 400.5, 293 401.3 C 293 402, 292.5 403.1, 291.8 403.8 C 291.2 404.4, 290.9 405.3, 291.3 405.6 C 291.9 406.3, 295 403.7, 295 402.5 C 295 401.8, 296.2 399, 301.5 387.5 C 305.8 378.2, 307.4 373, 306.3 371.9 C 305.8 371.4, 304.9 372.9, 304.2 375.3 M 687 377.3 C 687 377.6, 688.6 379.8, 690.7 382.2 C 698 390.9, 702.2 399.4, 704.4 409.8 C 705 412.8, 702 414, 693.9 414 C 688.6 414, 687.9 414.2, 688.4 415.8 C 689.5 419.3, 691.2 426.7, 692.5 433.9 C 693.2 437.9, 694.1 441.5, 694.4 441.8 C 695.6 442.9, 694.9 436.3, 693 427.1 C 691.9 421.9, 691 417.3, 691 416.8 C 691 416.4, 694.3 416, 698.4 416 C 706.4 416, 709.5 414.5, 706.4 411.9 C 705.4 411.1, 705 409.6, 705.2 407.8 C 705.5 406.2, 705.3 404.7, 704.8 404.4 C 704.4 404.1, 704 403.1, 704 402.2 C 704 401.3, 703.4 399.3, 702.6 397.9 C 701.9 396.5, 701 394.3, 700.7 392.9 C 700.3 391.6, 698.6 388.9, 696.9 387 C 695.2 385.1, 693.3 382.8, 692.6 382 C 691.1 380, 687 376.5, 687 377.3 M 674 383.1 C 674 383.9, 675.3 389.7, 676.9 396 C 678.5 402.3, 680.1 409.4, 680.5 411.7 L 681.2 415.9 677.3 416.3 L 673.5 416.7 677.3 416.8 C 682.2 417.1, 683.8 421.9, 686.6 444.7 C 686.9 447.6, 687.6 450.3, 688.1 450.6 C 688.6 450.9, 689 451.9, 689 452.9 C 689 453.9, 690.6 456.9, 692.5 459.6 C 696.9 465.8, 697 464.7, 692.7 456.7 C 690.4 452.5, 688.9 447.9, 688 442.5 C 685.7 427.4, 684.2 419.5, 682.6 413 C 681.7 409.4, 680.3 403.6, 679.5 400 C 676.8 387.3, 675.8 383.5, 674.9 382.6 C 674.3 382, 674 382.2, 674 383.1 M 338.2 384 C 339.5 387.9, 343.7 389.3, 356.2 390.1 C 369.2 390.9, 371.3 391.3, 380 395.2 C 383 396.6, 387.8 398.5, 390.5 399.5 C 393.3 400.4, 396.4 401.6, 397.5 402.1 C 409.9 407.3, 430.1 406.9, 436 401.3 C 437.7 399.7, 436.2 399.9, 426.3 402.6 C 416.4 405.3, 415.1 405, 384.8 393.9 L 366.1 387 354.7 387 C 344.5 387, 343 386.8, 340.5 384.8 C 338.8 383.5, 337.9 383.2, 338.2 384 M 316.3 387.5 C 315.6 388.3, 315 389.5, 315 390.2 C 315 390.9, 314.4 392.6, 313.7 394 C 310.9 399.3, 309.7 403.7, 308.6 411.9 L 307.5 420.2 302.6 422 C 293 425.7, 285.9 433.5, 287.3 438.9 C 287.6 440.2, 287.3 441, 286.6 441 C 284 441, 281.1 437.7, 279.5 433 L 277.9 428.1 280.5 424.6 C 284.5 419.4, 282.5 418.2, 278.3 423.2 C 271.9 430.9, 275.6 441.6, 285.5 443.5 C 291.2 444.7, 293.1 444, 291 441.5 C 290.1 440.5, 290.5 438.9, 292.5 434.5 C 295.2 428.8, 300.5 425, 305.8 425 C 309.2 425, 310.1 423.2, 311 415.2 C 311.5 410.8, 313 403.8, 314.3 399.8 C 316.5 393.3, 318.3 385.9, 317.7 386 C 317.6 386.1, 316.9 386.7, 316.3 387.5 M 268.2 392.1 C 266.9 397.2, 268.7 407, 272.6 415.9 C 275.1 421.7, 278 424.5, 276.5 419.8 C 273.8 410.6, 272.1 402.8, 271.5 396.4 C 270.6 387.7, 269.6 386.4, 268.2 392.1 M 502.5 405 C 503.4 412.1, 506.2 425.4, 508.9 435.4 C 510.1 439.7, 511 444.1, 511 445.1 C 511 447.4, 511.5 447.4, 516.5 445 C 518.7 443.9, 520.9 443.1, 521.3 443 C 524.3 442.9, 525.3 439.7, 524.8 431.2 C 524.2 420.5, 522.2 416.3, 515.7 411.7 C 513 409.8, 508.8 406.3, 506.3 403.9 L 501.8 399.6 502.5 405 M 345.5 406 C 343.9 406.7, 344.3 406.9, 347.3 406.9 C 351.2 407, 361.7 409.6, 363.5 411 C 364.9 412.1, 375.5 415.5, 381.9 417 C 385.8 417.9, 390.7 418.1, 399.4 417.5 C 406.1 417.1, 414.7 416.7, 418.7 416.6 C 424.9 416.5, 425.7 416.3, 424.5 415.1 C 423.4 413.9, 419.3 413.7, 403.8 413.9 C 382.4 414.1, 380 413.7, 365.2 408.6 C 355.1 405.1, 349.4 404.3, 345.5 406 M 563 407 L 555.5 407.6 561.5 407.9 C 564.8 408.1, 567.9 408.1, 568.5 408 C 569 407.9, 571.1 408.3, 573 408.9 C 585.1 412.4, 613.3 415, 642.5 415.5 L 669.5 415.9 642.5 414.5 C 613.9 413, 595 411, 580.8 407.9 C 576 406.9, 571.7 406.1, 571.3 406.2 C 570.8 406.3, 567.1 406.6, 563 407 M 530 444.9 C 523 447.2, 516.1 450.4, 513.6 452.3 C 511.7 453.7, 511.7 454.1, 513 460.9 L 514.3 468 519.4 467.4 C 522.2 467, 525.4 466.3, 526.4 465.7 C 529.4 464.2, 550.6 463.5, 551.4 464.9 C 551.9 465.7, 550.2 466, 545.8 466 C 538.8 466.1, 535.4 466.7, 523 470.2 L 514.5 472.6 513.9 482.6 C 513.6 488, 512.8 494, 512.2 495.9 C 510.7 500.4, 511 500.6, 516.2 497.9 C 522.6 494.6, 532.3 491.9, 533.4 493 C 534.1 493.7, 533.8 494, 532.6 494 C 527.6 494, 503.4 508.6, 506.7 509.7 C 507.2 509.9, 513.8 508.5, 521.3 506.5 C 535.4 502.9, 541.4 502, 534.5 504.6 C 532.3 505.5, 529.6 506.5, 528.5 507 C 527.4 507.4, 522.9 508.8, 518.5 510.1 C 507.7 513.2, 505.4 514.4, 502.6 518.8 C 498.6 525.2, 498.3 527.2, 501.7 526.3 C 504.9 525.5, 505.3 525.5, 513.8 526.5 C 523.9 527.8, 519.9 529.5, 507 529.5 C 497.5 529.5, 496 529.7, 495 531.4 C 493.7 533.4, 500.3 533.3, 518.5 531 C 528 529.7, 529.6 529.8, 528.3 531.1 C 526.1 533.3, 516.2 535, 504.6 535 C 497.8 535, 493 535.4, 493.6 535.9 C 497.5 539.4, 528.9 539.6, 538.3 536 C 550.3 531.5, 565.8 519.4, 574.7 507.5 C 586.9 491.2, 589.7 468.2, 580.7 458.8 C 568.9 446.4, 544.9 439.8, 530 444.9 M 55.3 451.8 C 54.7 453.3, 53.9 455.6, 53.6 457 C 53.2 458.4, 51.6 463.8, 50 469 C 41 498.4, 37.6 523.3, 39.8 542.9 C 40.5 548.2, 41.5 558.4, 42.2 565.5 C 43.2 575, 43.6 577.2, 43.8 573.5 C 44 570.8, 43.6 561.3, 42.8 552.5 C 40.2 520.1, 42.4 499.9, 52.5 466 C 57 450.7, 58.2 445, 55.3 451.8 M 751.7 461.8 C 751.1 466.5, 749.1 482.3, 747.1 497.5 C 746.5 501.9, 745.6 508.9, 745 513 C 744.5 517.1, 743.8 525.7, 743.5 532 C 742.8 546.7, 744.6 543.7, 746 527.7 C 746.6 521.5, 747.7 511.1, 748.5 504.5 C 749.3 497.9, 750.4 488.2, 751 483 C 751.6 477.8, 752.5 470.7, 753 467.4 C 754.2 459.8, 754.3 457, 753.1 457 C 752.6 457, 752 459.1, 751.7 461.8 M 697.3 474 C 697.4 475.1, 696.4 475.6, 693.8 475.8 C 688.2 476.3, 689.2 478, 695 478 C 697.8 478, 700 478.3, 700 478.8 C 700 479.2, 699.3 482.7, 698.5 486.5 C 696.5 495.8, 696.7 500.2, 698.8 492 C 699.6 488.4, 700.4 483.1, 700.4 480.1 C 700.5 476.8, 701 474.5, 701.7 474.3 C 702.8 473.9, 703.1 474.9, 704.3 483 C 704.7 485, 704.8 484.9, 704.9 482.3 C 705 479.2, 705.2 479, 708.8 479 C 711.3 479, 713.3 478.3, 714.3 477.2 C 716.8 474.5, 716.4 473.9, 713.3 475.6 C 710.1 477.2, 706 477.5, 706 476 C 706 475.5, 707.1 475, 708.4 475 C 709.7 475, 712.1 474.4, 713.7 473.8 C 716.4 472.6, 715.7 472.5, 706.9 472.5 C 698.7 472.5, 697.1 472.8, 697.3 474 M 160.1 486.9 C 158.5 488, 159.2 493.5, 161.5 496.7 C 164.6 501.1, 185.1 512.7, 194.8 515.5 C 197.3 516.2, 197.7 514.9, 195.6 513.1 C 194.8 512.5, 193.7 510.7, 193.1 509.2 C 192.3 507.3, 189.6 505.3, 184.4 502.5 C 179.9 500.2, 175.4 496.9, 173.4 494.5 C 171.6 492.3, 169.2 489.5, 168.1 488.3 C 166 485.9, 162.6 485.4, 160.1 486.9 M 444.5 491.4 C 440.1 496, 425.4 506, 423.1 506 C 422.6 506, 420.7 506.7, 418.9 507.6 L 415.5 509.1 419.7 508.6 C 428.6 507.4, 443.2 497.7, 448.7 489.4 C 451.4 485.2, 449.7 486, 444.5 491.4 M 245.5 488.5 C 242.8 489.4, 238.7 490.6, 236.5 491.2 C 234.3 491.8, 232.1 492.7, 231.6 493.1 C 229.9 494.6, 235.7 494.1, 240.7 492.3 C 248.8 489.3, 279.4 490.6, 286.7 494.2 C 288 494.8, 288.8 496.1, 288.7 497.4 C 288.5 502.2, 289.1 506, 290 506 C 291.4 506, 290.2 496.5, 288.3 492.4 C 287 489.5, 286.5 489.2, 280.2 488.6 C 263.3 487, 250.5 487, 245.5 488.5 M 245.5 498.7 C 240.5 500.7, 224 501.1, 221.8 499.3 C 219.5 497.4, 218.8 499.1, 221 501 C 226.5 505.8, 237 505.7, 247.7 500.9 C 255.4 497.4, 253.6 495.5, 245.5 498.7 M 11 520.1 C 11 529.1, 10.5 546.6, 9.9 559 C 9.2 573.6, 9.1 585, 9.7 591.5 C 10.4 599.7, 10.7 592.9, 11.4 553.2 C 11.9 526.6, 12 504.6, 11.6 504.3 C 11.3 503.9, 11 511.1, 11 520.1 M 68.2 507.2 C 66.5 508.9, 66.7 511, 68.7 513.2 C 69.6 514.2, 70.6 517.6, 70.9 521.2 L 71.5 527.5 73.4 522.5 C 74.4 519.8, 75.6 516.8, 76 515.8 C 76.7 514.6, 76.1 513.3, 74 510.8 C 72.4 509, 71 507.2, 71 506.8 C 71 505.6, 69.6 505.8, 68.2 507.2 M 60.6 524.7 C 58.1 531.2, 56 537.9, 56 539.6 C 56 541.2, 54.8 546.9, 53.4 552.1 C 52 557.2, 50.4 563.5, 50 566 C 49 571.3, 47.5 600.7, 48.3 600 C 48.6 599.7, 51.2 592.5, 54.1 584 C 58.5 570.9, 59.3 567.5, 59.1 562 C 58.9 554.5, 61.7 542.7, 65.5 535.2 C 68.4 529.4, 69.1 516.2, 66.6 514.1 C 65.5 513.2, 64.4 515.2, 60.6 524.7 M 198.8 518.5 C 198.5 518.8, 195.4 519.5, 191.9 520.1 C 181.8 521.7, 176.4 523.9, 171.3 528.4 C 167.4 531.9, 165.8 532.6, 161.2 533 C 147.4 534.3, 151.4 548, 165.5 548 C 170.5 548, 172.3 546.8, 176 541 C 177.8 538.3, 180.5 534.9, 182.1 533.5 C 185.7 530.6, 196.6 527, 202.2 527 L 206.1 527 202.9 522.5 C 199.4 517.6, 199.6 517.8, 198.8 518.5 M 266.5 523.6 C 260.2 528.9, 256.3 530.2, 246.6 530.2 C 240.1 530.2, 236.7 529.8, 234.5 528.6 C 231.1 526.8, 230 526.6, 230 527.8 C 230 528.3, 232.1 529.7, 234.6 530.9 C 238.6 532.9, 240.3 533.2, 248 532.8 L 256.7 532.4 263.9 527.1 C 267.8 524.2, 271 521.6, 271 521.4 C 271 520.4, 269.3 521.3, 266.5 523.6 M 658 522 C 654.4 522.5, 644.5 523.8, 636 525 C 627.5 526.2, 612.7 527.4, 603.3 527.7 C 593.8 528, 586 528.6, 586 528.9 C 586 531.6, 604.5 532.9, 616.4 531.1 C 619.8 530.5, 627.9 529.4, 634.5 528.6 C 641.1 527.8, 652.2 526.3, 659.2 525.4 C 672.8 523.7, 688.5 523.9, 697.8 526 C 704.5 527.4, 707.1 526.7, 701 525.1 C 698.5 524.4, 695.2 523.4, 693.5 522.9 C 689.4 521.5, 666 520.9, 658 522 M 392.5 523.9 C 385.7 524.7, 384.9 528.3, 390.6 533.5 C 395.8 538.3, 393.5 538.7, 383 535.1 C 378.3 533.5, 371.2 531.6, 367.3 530.9 C 363.3 530.2, 360 529.2, 360 528.8 C 360 528.4, 358.4 528, 356.4 528 C 354.1 528, 353 528.4, 353.2 529.2 C 354.1 531.9, 371.3 539, 376.9 539 C 378.1 539, 379.8 539.7, 380.6 540.5 C 381.5 541.3, 383.3 542, 384.6 542 C 386 542, 387.9 542.4, 388.9 543 C 391.2 544.2, 395 541.7, 395 538.8 C 395 537.3, 395.4 537, 396.8 537.5 C 405.8 541.3, 413.2 541.9, 417 539.3 C 419.9 537.4, 423 534, 423 533 C 423 532, 415 530, 411.4 530 C 409.8 530, 407.3 528.7, 404.9 526.5 C 402.7 524.6, 400.2 523.1, 399.2 523.2 C 398.3 523.2, 395.3 523.6, 392.5 523.9 M 0 547.9 C 0 561.4, 0.4 574.9, 1 577.9 C 1.5 581, 2.4 587.3, 3 592 C 3.6 596.7, 4.8 606.6, 5.7 614 C 8.4 635.9, 7.1 684.2, 3.6 689.8 C 3.2 690.5, 3.2 692.3, 3.6 693.8 C 4.3 696.3, 4.4 696.2, 5.1 692 C 10.9 655.2, 11.3 616.8, 6 593 C 4.7 587.3, 2 548.6, 2 536 C 2 530.8, 1.5 525.8, 1 525 C 0.4 524, 0 531.8, 0 547.9 M 273.8 533.7 C 262.2 542.2, 258.4 546.8, 256.6 554.2 C 256.3 555.6, 253.7 559.4, 250.9 562.5 C 248 565.5, 245.9 568.2, 246.1 568.3 C 246.3 568.5, 247.7 569.2, 249.2 570 C 253.4 572, 251.7 572.4, 247.4 570.4 C 236.6 565.3, 223.9 572.2, 228.4 580.8 C 230.6 585.1, 234.2 587, 240.2 587 C 249.2 587, 255 581.7, 253.6 574.8 C 253.3 573.2, 253.5 572, 254 572 C 254.6 572, 255 571.5, 255 570.9 C 255 569.9, 260.3 561.8, 262.5 559.5 C 263.1 558.9, 264.9 557.5, 266.7 556.5 L 269.9 554.6 267.3 550.3 C 264.5 545.4, 264.8 543.2, 267.6 547.7 C 268.6 549.2, 271.6 553.3, 274.1 556.7 C 276.7 560.1, 279.1 563.8, 279.5 565 C 280.3 567.4, 283 567, 286.2 564 C 287.8 562.5, 287.9 561.8, 287 557.9 C 286.4 555.5, 285.6 552.6, 285.4 551.5 C 285 550.2, 285.6 548.8, 286.9 547.6 C 288.8 545.9, 289 545.9, 292.2 548.3 L 295.5 550.8 302.8 544 C 310.1 537.3, 310.2 537.1, 308.8 534.3 C 307.6 531.8, 306.9 531.5, 302.7 531.5 C 297.4 531.5, 297 532, 300.3 535.1 C 301.8 536.5, 299.9 535.8, 294.6 533.1 C 284.3 527.7, 281.9 527.8, 273.8 533.7 M 209 530.7 C 209 531.3, 205.3 531.9, 200.3 532.3 C 192 532.8, 183.1 535.4, 181.6 537.8 C 180 540.4, 206.8 540.2, 213.2 537.5 L 216 536.4 212.5 533 C 210.6 531.1, 209 530.1, 209 530.7 M 556 535.4 C 541.2 538.2, 544.5 540.1, 565 540.5 C 576.9 540.8, 579.3 541.3, 585 544.5 C 587.8 546.2, 593.8 546.4, 596 545 C 598 543.8, 596.7 542.8, 590.5 540.5 C 587.8 539.6, 584.2 538.2, 582.5 537.4 C 574.8 534.1, 566.7 533.5, 556 535.4 M 262.6 536.9 C 262.1 537.7, 252.3 540.2, 244.7 541.5 C 242.6 541.8, 239 543.1, 236.7 544.3 C 234.5 545.4, 231.4 546.3, 229.8 546.2 C 228 546, 227 546.5, 227 547.4 C 227 550.3, 229.5 551.1, 236.5 550.1 C 240.2 549.5, 245.4 549.4, 248 549.7 C 252.2 550.2, 253.1 550, 254.7 548 C 255.7 546.8, 258.2 543.7, 260.3 541.3 C 262.3 538.9, 264 536.7, 264 536.4 C 264 535.7, 263.1 536, 262.6 536.9 M 478.2 553.6 C 475.1 556.7, 474.9 557.3, 476.2 558.6 C 478.8 561.3, 484.8 561.6, 487.1 559.1 C 488.2 558, 488.7 557, 488.3 557 C 487.9 557, 488.5 556.4, 489.6 555.6 C 491.5 554.2, 491.4 554.1, 489.1 552.1 C 485.6 549, 482.3 549.5, 478.2 553.6 M 508.6 558.9 C 508.2 559.4, 508.5 560.1, 509 560.3 C 509.6 560.6, 509.5 560.7, 508.8 560.6 C 507.1 560.2, 500.2 564, 499.6 565.7 C 498.9 567.4, 499.4 567.4, 503.8 565.1 C 509 562.5, 515.7 561.8, 519.6 563.5 C 523.9 565.3, 524.6 564.2, 521.3 560.8 C 518.6 557.9, 510 556.7, 508.6 558.9 M 582.5 559.9 C 575.6 562.9, 572.6 575, 578 577.7 C 581 579.2, 590.8 579.4, 594.4 578 C 600.1 575.9, 602.8 566.5, 599.1 561.9 C 597.1 559.4, 586.6 558.1, 582.5 559.9 M 719.5 568 C 715.5 573.8, 698.4 586.4, 684.8 593.4 C 678.6 596.7, 673.3 599.6, 673 599.9 C 671.1 602.3, 665.6 604.3, 656.3 606.1 C 650.4 607.2, 643.3 608.7, 640.6 609.4 L 635.7 610.6 638.3 613.5 C 639.8 615.2, 641 616, 641 615.4 C 641 613.4, 648.1 611.3, 658.5 610 C 673.5 608.2, 673 608.4, 673.1 604.7 L 673.1 601.5 675 605.5 C 676 607.7, 676.9 608.7, 676.9 607.7 C 677 605.6, 679.7 604.4, 687 603.1 C 707.1 599.6, 728.5 581.1, 725.7 569.8 C 724.2 564, 722.6 563.5, 719.5 568 M 285 567.1 C 278.5 570.6, 276.8 576.9, 281.2 581 C 284.8 584.3, 287.3 584.4, 291.9 581.5 C 297.3 578.2, 298.7 575.2, 297 571 C 294.5 565.1, 290.8 563.8, 285 567.1 M 351.5 565.7 C 348.4 566.5, 346.2 568.9, 346.7 571 C 347.1 572.5, 348.2 572.8, 353 572.8 C 356.2 572.8, 360.7 573.1, 362.9 573.5 C 365.8 574, 367.5 573.7, 369 572.7 C 371.5 571, 371.5 570.9, 362.6 567.6 C 355.7 565, 355 564.9, 351.5 565.7 M 480.8 565.7 C 478.4 566.3, 478.2 576.1, 480.5 578 C 484.1 581, 493.1 578.7, 495.5 574 C 498.8 567.6, 490.8 563.1, 480.8 565.7 M 506.6 571.5 C 498.6 578.9, 503.9 587.2, 515.6 585.4 C 523.3 584.3, 526.7 579.7, 524.4 573.5 C 522.6 569, 510.8 567.6, 506.6 571.5 M 547 574.5 C 544 575.8, 540.7 577.1, 539.8 577.4 C 537.8 578, 537.4 582, 539 585 C 541.3 589.2, 553.8 590, 560 586.3 C 565.7 583, 564.3 576.3, 557.5 573.4 C 553.3 571.7, 553.8 571.7, 547 574.5 M 59 581.4 C 59 583.5, 54.6 596.6, 50.6 606.4 C 46.7 616, 46.2 620.1, 48.5 622 C 49.8 623.1, 50 622.8, 50.1 620.4 C 50.1 617.1, 53.9 605.5, 53.9 608.5 C 53.9 609.6, 53.3 613.9, 52.6 618 C 51 626.6, 51.3 627.6, 58 635 L 62.1 639.5 61.5 631.5 C 60.8 621.8, 62.5 600.4, 64.1 598.4 C 66 596.1, 67.7 598.5, 68.5 604.8 C 69.7 614.6, 69.8 617.5, 69.1 618.8 C 68.4 620.1, 66.7 608.1, 66.7 601.8 C 66.7 595.1, 65.1 599.9, 64.5 608.5 C 63.3 624.1, 64.4 641.8, 66.8 646.3 C 68.9 650.3, 70 649.5, 70 644 C 70 642.4, 70.5 640.8, 71 640.5 C 71.6 640.2, 72 638.6, 72 637 C 72 635.4, 72.4 633.9, 72.9 633.6 C 73.3 633.3, 74 631.1, 74.4 628.8 C 74.8 626.4, 76.5 620.3, 78.3 615.1 L 81.5 605.8 77.6 602.5 C 75.4 600.7, 73 599.4, 72.3 599.7 C 71.6 600, 71 599.7, 71 599.1 C 71 598.5, 69.2 596, 67.1 593.7 C 64.9 591.4, 62.8 588.1, 62.5 586.5 C 61.2 580.9, 60.9 580, 59.9 580 C 59.4 580, 59 580.6, 59 581.4 M 395.4 584.1 C 391.5 588.3, 388.6 589.6, 381.8 590.4 C 378.6 590.8, 376 591.6, 376 592.1 C 376 592.6, 375.1 593, 374 593 C 373 593, 369.8 593.9, 367 595 C 359.4 598, 358.7 597.4, 365.5 593.9 C 372.9 590, 373.4 589.5, 369.3 590.3 C 367.5 590.7, 362 593.5, 357 596.5 C 349.2 601.4, 348 602.5, 348 604.9 C 348 610.7, 340.8 615, 331.2 615 C 324.3 615, 320.3 612.1, 319.8 606.7 C 319.3 601.6, 316.4 602.4, 316.8 607.5 C 318 622.3, 337.7 624.4, 349 611 C 352.8 606.5, 355.7 604.6, 365.5 600.7 C 373.7 597.4, 387 595.7, 387 598 C 387 598.7, 371.2 622.2, 370.1 623 C 369.8 623.3, 367.8 625.4, 365.6 627.7 L 361.7 631.9 364.9 635.7 C 366.6 637.7, 368 640, 368 640.6 C 368 642.5, 363.2 644, 357.1 644 L 351.3 644 350.2 638.3 L 349.2 632.5 349.5 638.4 C 349.8 641.6, 350.2 644.5, 350.5 644.8 C 351.8 646.1, 364.5 646.1, 367 644.8 C 369.4 643.5, 371.2 638, 369.2 638 C 368.7 638, 367.5 636.4, 366.4 634.4 L 364.5 630.9 370.2 625.7 C 373.3 622.8, 378.2 617.6, 381 614 C 383.8 610.4, 387.9 605.6, 390 603.4 C 393.5 599.8, 393.9 598.9, 393.3 595.7 C 392.9 592.9, 393.3 591.5, 395.3 588.8 C 400.8 581.4, 400.9 578.3, 395.4 584.1 M 308.3 583.7 C 303 584.8, 302.8 591.8, 307.9 594 C 313.6 596.3, 322.9 592.5, 321.6 588.4 C 320.5 584.9, 313.8 582.5, 308.3 583.7 M 643.1 587.2 C 643 589.6, 636.4 594.7, 631.1 596.6 C 622.9 599.5, 610.3 602.2, 591 605 C 580.2 606.6, 562.4 611.1, 558.8 613.1 C 557.8 613.6, 556.6 614, 556.1 614 C 555.6 614, 550.8 616.1, 545.3 618.6 C 535.8 623.1, 535.3 623.2, 530.7 622.1 C 524.6 620.7, 516.5 620.7, 513.9 622.1 C 509.7 624.3, 508.7 622.7, 512.1 619.3 C 513.8 617.5, 515 616, 514.6 616 C 514.3 616, 514.9 613.7, 516.1 610.9 C 519.3 602.7, 517.7 602.8, 513.7 611 C 509.2 620.3, 505 625.3, 502.4 624.4 C 500.8 623.8, 500.7 623.9, 501.8 625.1 C 502.7 626.1, 503.7 626.2, 505.8 625.4 C 507.3 624.8, 513.6 624.6, 520 624.8 C 526.3 625, 532.7 625.2, 534.2 625.2 C 535.7 625.3, 540.5 623.4, 544.8 621.1 C 549.2 618.9, 553.3 617, 554 617 C 554.7 617, 556.6 616.4, 558.3 615.6 C 565 612.6, 575.8 609.8, 590 607.5 C 612.3 603.7, 623.4 601.5, 626.5 600.1 C 627.6 599.7, 630.8 598.2, 633.7 597 C 639.9 594.3, 644.4 590, 643.7 587.3 C 643.3 585.8, 643.2 585.8, 643.1 587.2 M 448 602.8 C 448 604.3, 451.1 606.6, 458.5 610.6 C 462.4 612.6, 467.3 615.5, 469.5 616.9 C 480.3 623.8, 483.6 625.2, 490.5 625.7 C 500.9 626.5, 501.1 620, 490.9 610.5 C 488.5 608.3, 487.2 607.4, 488 608.5 C 488.8 609.6, 489.8 610.7, 490.1 611 C 490.5 611.3, 492.2 613.9, 493.9 616.7 C 496.9 622, 496.9 622, 494.8 623.1 C 489.9 625.7, 484 623.6, 466.3 612.9 C 457.1 607.4, 449.2 602.6, 448.8 602.3 C 448.3 602.1, 448 602.3, 448 602.8 M 83 607.4 C 83 608.2, 83.4 609.1, 83.9 609.4 C 84.4 609.7, 85.1 612.1, 85.5 614.7 C 85.9 617.4, 86.6 620, 87 620.5 C 87.5 621.1, 88 622.6, 88.3 624 C 88.5 625.4, 88.6 624.3, 88.4 621.5 C 88.2 617.8, 88.3 617, 89.1 618.2 C 89.8 619.5, 91.6 633.9, 92 641.3 C 92 642.8, 95 641.9, 95 640.4 C 95 639.5, 95.7 637.4, 96.5 635.7 C 98.9 630.3, 102 622, 102 620.7 C 102 620, 100.7 618.6, 99.1 617.7 C 97.4 616.7, 93.7 613.7, 90.7 611 C 85.1 605.9, 83 604.9, 83 607.4 M 678.2 611.3 C 674.7 615, 675.1 618, 680 624.3 C 682.5 627.4, 684.8 630, 685.2 630 C 686.6 630, 686 621.5, 684.4 616.4 C 682 609.4, 680.9 608.4, 678.2 611.3 M 112.2 614.3 C 110.1 616.5, 109.9 617.4, 110.5 624.1 C 110.8 628.2, 110.7 633.5, 110.2 636 C 109.3 639.9, 109.2 638.9, 109.1 629 L 108.9 617.5 106.6 620.3 C 105.3 621.9, 103.3 625.7, 102.1 628.8 C 100.8 631.9, 99.4 635.4, 99 636.5 C 97.3 640.3, 95 650.6, 94 658 C 93.5 662.1, 92.6 668.6, 92.1 672.4 C 91.1 679, 91.3 681.7, 93.7 693.3 C 95.1 700.1, 101 698.1, 101 690.7 C 101.1 688.4, 101.7 685.4, 102.6 684 C 104.2 681.3, 104.2 681.8, 102.4 693.8 C 101.9 697.2, 102.2 697.8, 104.6 698.8 C 107.6 700.2, 110 699, 110 696.1 C 110 695.2, 110.7 693.6, 111.5 692.6 C 113.5 690, 113.5 692.6, 111.5 696 C 109.7 699.2, 109.6 701, 111.3 701 C 112.9 701, 118 695.5, 118 693.8 C 118 692.9, 118.3 692.9, 118.9 693.9 C 120.8 696.9, 137.3 680.8, 141.3 672 C 146.4 660.9, 149.1 652, 149.6 645 L 150.1 637.5 143.6 644.4 C 134.6 653.7, 125 668.1, 125 672.1 C 125 673.2, 124.5 674, 123.9 674 C 123.2 674, 123 672.8, 123.4 670.8 C 125.5 659.5, 124.2 637.5, 121.1 633.5 C 119.8 631.9, 116 620.2, 115.9 617.7 C 115.8 612.7, 114.7 611.7, 112.2 614.3 M 660 615.7 C 660 618.1, 659.3 623.6, 658.4 628 L 656.8 636 659.5 641.5 C 663.3 649, 664.1 648.8, 665.5 639.5 C 666.4 634.1, 667.9 630.3, 671.2 625.4 C 674.3 620.8, 675.3 613.7, 672.5 616 C 671.6 616.7, 671 616.8, 671 616.2 C 671 615.7, 670.1 615.4, 669 615.7 C 667.9 616, 667 617.1, 667 618.1 C 667 620.5, 665.3 620.6, 664.6 618.3 C 664.2 617.3, 663.1 615.4, 662 614 L 660 611.5 660 615.7 M 81.8 614.6 C 79.9 617.6, 74.5 636.4, 72.5 646.6 C 70.8 655.8, 70.5 672.4, 72 679.7 C 75.5 696.8, 76.4 701, 77.8 705.3 L 79.3 710 81.6 706.3 C 82.9 704.2, 84 701.7, 84 700.6 C 84 699.1, 84.3 699, 85.4 699.9 C 86.5 700.9, 87.5 700.8, 89.9 699.5 C 93.2 697.9, 93.3 696.7, 91 690 C 90.5 688.6, 89.2 683.5, 88 678.5 C 86.9 673.6, 85.5 668.3, 85.1 666.8 C 84.5 665.1, 84.6 663.8, 85.1 663.4 C 85.6 663.1, 86 663.8, 86 664.9 C 86 666, 86.4 667.1, 86.9 667.4 C 87.4 667.7, 88.1 669.6, 88.4 671.5 C 89.3 676.1, 90.4 676, 90.7 671.3 C 92 650.7, 92.1 645.5, 91.1 643.6 C 90.6 642.5, 88.9 637.2, 87.5 632 C 86 626.8, 84.3 620.5, 83.6 618.1 C 82.9 615.7, 82.1 614.1, 81.8 614.6 M 307 614.7 C 305.6 615, 304.1 615.6, 303.6 616.1 C 303 616.6, 301.8 617, 300.8 617 C 295.6 617, 265.7 631.1, 267.4 632.8 C 267.6 633, 270.9 631.6, 274.7 629.6 C 284.3 624.7, 289 622.7, 301.5 618.5 C 314.8 614, 316.1 613.1, 307 614.7 M 35 617.8 C 35 621.1, 38.4 639.3, 40.5 647.3 C 41.3 650.4, 42.6 655.4, 43.3 658.3 C 45.3 665.8, 50.3 676.3, 55.4 683.3 C 59.4 688.9, 75 705.3, 75 703.9 C 75 703.6, 74.3 701.1, 73.5 698.4 C 72.1 693.5, 70.6 682.4, 69 665.3 C 68 654.1, 65.4 648.8, 52.4 632.1 C 40.1 616.3, 35 612.1, 35 617.8 M 119.5 623.2 C 120.9 630.9, 122.5 634.3, 124 632.5 C 125.9 630.2, 127.1 630.7, 125.8 633.5 C 125 635.3, 125 637.7, 125.9 642.9 C 126.5 646.8, 127 652.7, 127 656.2 L 127 662.5 129 658.1 C 131.3 653, 131.6 643.7, 129.7 634.5 C 128.5 628.8, 128.2 628.5, 125.5 628.5 C 123 628.4, 122.5 627.9, 121.9 625.1 C 120.9 620.2, 118.6 618.4, 119.5 623.2 M 608 623 C 608 624.3, 613.7 632.9, 617.5 637.5 L 620 640.5 619.8 631.5 L 619.5 622.5 613.8 622.2 C 610 622, 608 622.3, 608 623 M 594.5 625.7 C 593.4 625.9, 587.1 627.4, 580.5 629 C 573.9 630.6, 565.1 632.6, 561 633.5 C 556.9 634.4, 551.7 635.8, 549.5 636.4 L 545.5 637.7 553.5 638.4 C 561.8 639.2, 569.5 640.9, 579.2 644 C 583.2 645.3, 586.5 645.7, 590.9 645.3 C 595.1 644.9, 597 645.1, 597 645.9 C 597 646.6, 595 647, 591.8 647.1 C 587.3 647.1, 586.8 647.3, 588.4 648.3 C 589.4 649, 592.9 651.2, 596.2 653.3 L 602.2 657.1 601.7 654.3 C 601.4 652.8, 600.7 649.7, 600.1 647.5 C 599.5 645.3, 599 639.3, 599 634.3 C 599 624.6, 599 624.7, 594.5 625.7 M 601.1 631.8 C 601.4 664.1, 621.9 700.4, 642 704.5 C 645.5 705.2, 645.4 705.1, 640.3 701.6 C 632 695.9, 633.9 695.8, 643 701.5 C 646.7 703.8, 655.3 707, 657.9 707 C 658.7 707, 657.2 705.6, 654.4 703.9 C 648.8 700.3, 640.9 693, 642.7 693 C 643.4 693, 644.2 693.5, 644.6 694.1 C 645.4 695.4, 659.9 705, 661.1 705 C 662.7 705, 662 703.6, 658.9 700 C 657.2 698.1, 655 695.4, 654.1 694 C 653.2 692.6, 652.1 691.1, 651.7 690.5 C 651.2 690, 646.7 683.2, 641.7 675.5 C 630 657.8, 604.2 625, 601.9 625 C 601.4 625, 601 628, 601.1 631.8 M 131.4 630.6 C 132.5 633.4, 133.8 647.9, 133.2 650.3 C 132.8 652, 133.3 651.7, 135.6 649 C 137.2 647.1, 141.1 642.8, 144.2 639.5 C 149.9 633.5, 152.3 627.7, 148.3 629.6 C 146.1 630.6, 139.7 630.6, 134.6 629.5 C 131 628.8, 130.7 628.8, 131.4 630.6 M 475 641.1 C 473.7 641.7, 472.3 642.4, 472 642.8 C 471.4 643.6, 460.4 649.2, 454.5 651.6 C 452.3 652.5, 445.3 653.7, 438.5 654.2 C 401.2 657.2, 395.5 656.4, 386.4 647.1 C 383.2 643.8, 381.5 644.6, 384.3 648 C 390 655.3, 399.9 658.4, 415.1 657.6 C 421.4 657.2, 431 656.8, 436.5 656.6 C 442.4 656.4, 448.6 655.6, 451.5 654.5 C 457.5 652.5, 468.9 647.2, 471 645.5 C 471.8 644.8, 474.3 643.3, 476.5 642.1 C 480.5 640, 479.6 639.3, 475 641.1 M 35 645 C 35 645.6, 33.2 649, 30.9 652.5 L 26.8 659 31.2 663.1 C 33.5 665.4, 37.8 669.1, 40.5 671.3 C 43.3 673.5, 44.7 675, 43.7 674.7 C 40.7 673.6, 45.6 680, 49.3 682.1 C 51.9 683.6, 49.8 679.7, 46.9 677.7 C 45.7 676.8, 45.3 676.1, 46 675.8 C 47.3 675.4, 37.2 644, 35.8 644 C 35.4 644, 35 644.5, 35 645 M 766.9 654.9 C 766.5 657.9, 766.5 669.2, 766.7 679.9 C 767.2 700.6, 767.3 700.2, 761.4 723.5 C 759.5 730.7, 757 745.7, 757.1 748.5 C 757.2 750.6, 758 747.9, 760.4 736 C 762.6 725.2, 763.8 720.3, 766 713 C 767.9 707, 768 704.2, 767.8 678 C 767.6 662.3, 767.2 651.9, 766.9 654.9 M 183 657.8 C 188.5 660.5, 195.9 665.9, 197.7 668.7 C 199.7 671.7, 198.2 673.4, 189.2 678.2 C 180.1 683.1, 175.8 692.3, 180.5 696.9 C 182.1 698.4, 182.2 698.3, 181.6 695.4 C 180.2 688.9, 184 684.4, 195.6 678.5 C 200.7 676, 203 674.3, 203 673 C 203 669.1, 185.9 655.9, 181.2 656.1 C 180.2 656.1, 180.9 656.9, 183 657.8 M 23.7 662.8 C 23.4 663.2, 23 667.8, 22.7 673 C 22.4 678.2, 22.4 681.6, 22.7 680.5 C 23 679.4, 24 676.7, 25 674.5 C 25.9 672.3, 27 669.7, 27.3 668.8 C 28.3 665.9, 29.6 666.7, 31.4 671.5 C 34.2 678.6, 47.7 699.1, 52.3 703.2 C 58 708.3, 67.8 713, 74.2 713.7 L 79.5 714.3 76.5 710.4 C 72.9 705.6, 74.5 707.2, 56.5 690.8 C 48.3 683.3, 38.1 673.8, 34 669.6 C 27 662.5, 24.7 661, 23.7 662.8 M 156 670.4 C 147.5 672.8, 142.1 676, 138.6 680.9 C 134.3 686.7, 127.2 693.4, 120.2 698 C 114.3 702, 114 702.6, 117.5 704.2 C 123.4 706.9, 150.7 688.3, 160.6 674.9 C 165.4 668.3, 165 667.9, 156 670.4 M 427.5 670.6 C 425.9 670.8, 420.7 671.5, 416 672.2 C 411.3 672.9, 407.2 673.4, 406.9 673.3 C 405.1 672.8, 368.7 671, 368.3 671.4 C 368 671.7, 370.3 672.6, 373.4 673.5 C 376.5 674.4, 381.1 676.7, 383.7 678.6 C 390.6 683.5, 390.7 683.5, 394.8 679.8 C 398.8 676.2, 404.6 673.3, 405.8 674.4 C 406.1 674.8, 405.8 675.5, 405 676 C 403 677.3, 404.9 677.3, 408.6 676 C 410.2 675.5, 416.7 674.6, 423.1 674 C 437.8 672.7, 441.6 672, 439.8 670.9 C 438.5 670.1, 433.6 670, 427.5 670.6 M 753.3 682.7 C 752.7 685.3, 751.4 691.6, 750.5 696.5 C 749.6 701.5, 748.5 707.8, 747.9 710.5 C 747 715.4, 745.1 732.7, 745 736.3 C 745 737.2, 745.5 738, 746 738 C 746.6 738, 747 736.8, 747 735.3 C 747 731.4, 751 707.6, 754.4 690.4 C 756.3 681, 755.3 674.1, 753.3 682.7 M 290.1 687.3 C 290 689.5, 289.5 690, 287.6 690 C 285.3 690, 284.5 690.6, 281.2 694.5 C 279.5 696.5, 280.9 696.4, 283.8 694.4 C 285.1 693.5, 287.2 693, 288.6 693.3 C 289.9 693.5, 291 693.3, 291 692.8 C 291 691.6, 294.3 692, 306.9 694.9 C 312 696, 316.7 696.6, 317.4 696.2 C 318 695.8, 316.5 695.2, 314 694.8 C 307.5 693.9, 300.7 692, 299.6 690.9 C 299 690.4, 297.3 690, 295.7 690 C 294.1 690, 293.1 689.6, 293.5 689 C 293.8 688.5, 293.5 688.3, 292.6 688.6 C 291.7 689, 291 688.4, 290.7 686.8 C 290.3 684.7, 290.3 684.8, 290.1 687.3 M 571.2 695.9 C 570.5 696.3, 572.4 696.5, 575.5 696.2 C 579.2 695.9, 581 696.1, 581 696.9 C 581 697.5, 580.5 698, 579.9 698 C 579.3 698, 577.4 698.6, 575.7 699.4 C 570.2 701.8, 557.4 704.6, 547.5 705.6 C 544.8 705.8, 538.1 706.4, 532.7 706.9 C 523 707.8, 520 709, 520 711.6 C 520 713.7, 515.8 716, 511.8 716 C 507.9 716, 507.4 716.5, 508.9 718.9 C 509.6 720, 510.2 720.1, 511.2 719.3 C 512.5 718.2, 513 718, 515 718 C 515.5 718, 517.8 716.2, 520 714 C 524.4 709.7, 526.9 709, 545 707 C 556.2 705.8, 573.4 702.9, 574.5 702 C 575.1 701.6, 576.6 701, 578 700.7 C 579.4 700.3, 581.8 699, 583.5 697.6 L 586.5 695.2 579.5 695.1 C 575.6 695.1, 571.9 695.4, 571.2 695.9 M 94.6 700.1 C 81.7 703.1, 78.5 716.1, 89.3 721.6 C 95.1 724.7, 109.9 721.5, 115.8 716 C 119.8 712.2, 117.6 704, 112.5 704 C 111.1 704, 108.4 703.1, 106.3 702.1 C 101 699.4, 99.1 699.1, 94.6 700.1 M 35.3 711.3 C 30.5 716.5, 25.2 728.2, 22.9 738.7 C 20.3 750.4, 19.2 768, 21 768 C 21.6 768, 21.8 765.7, 21.6 762.3 C 21.4 759.1, 21.6 754.7, 22.1 752.5 C 22.5 750.3, 23.7 744.9, 24.6 740.5 C 25.6 736.1, 26.7 731.8, 27.1 731 C 27.5 730.2, 28.9 727.4, 30.1 724.8 C 32.4 719.9, 33.4 719, 34.3 721.3 C 34.6 721.9, 34.9 721.3, 34.9 719.8 C 35 716.5, 36.7 712, 37.7 712 C 38.2 712, 41 713.6, 43.9 715.5 C 50.1 719.6, 51.7 719.5, 46.6 715.4 C 39.4 709.4, 37.6 708.8, 35.3 711.3 M 184 716.5 C 178.7 722.9, 157.2 725.2, 129 722.4 C 125 722, 123.8 722.1, 124.6 722.9 C 126.2 724.6, 148.2 726.3, 159.5 725.5 C 171.6 724.7, 190 718, 186.3 715.7 C 185.7 715.3, 184.7 715.7, 184 716.5 M 694.4 718.6 C 690.8 721.7, 680.3 727.1, 673 729.5 C 670 730.5, 665.3 732.2, 662.5 733.3 C 649.8 738.4, 639.6 739.4, 622.5 737.5 C 603.2 735.3, 602.1 735.6, 617.9 738.9 C 628.7 741.1, 649.8 740.3, 657.1 737.4 C 660.6 736, 667.1 733.7, 671.5 732.3 C 675.9 731, 682.2 728.3, 685.5 726.4 C 691.8 722.8, 700.3 716, 698.4 716 C 697.8 716, 696 717.2, 694.4 718.6 M 512 721.3 C 512 726.7, 527.5 732.7, 543.5 733.6 C 549 733.9, 556 734.7, 559 735.5 C 562 736.2, 567.4 737.3, 571 737.8 C 574.6 738.4, 578.3 739.1, 579.3 739.5 C 580.3 739.9, 581 739.8, 581 739.1 C 581 737, 575.3 735.2, 566 734.4 C 555.7 733.5, 556.3 733.2, 572.3 731.5 C 576 731.1, 578 730.4, 578 729.5 C 578 728.2, 574.7 728.2, 557.4 729.5 C 541.6 730.8, 519.5 726.6, 514.3 721.4 L 512 719.1 512 721.3 M 750.8 721.5 C 750.4 723.2, 749.7 728.9, 749.4 734.2 C 748.8 742.8, 748.5 743.8, 747.3 742.2 C 746 740.7, 745.9 741.3, 746.4 746.9 C 746.7 750.4, 747 756.6, 747 760.6 C 747 773.3, 748.8 768.7, 749.3 754.8 C 749.6 747.5, 750.3 737.8, 751 733.3 C 751.6 728.8, 752 723.6, 751.8 721.8 L 751.5 718.5 750.8 721.5 M 401.3 728.8 C 396.4 737.5, 383.9 746.3, 369.5 751.5 C 357 755.9, 355.1 756.2, 327 756.9 L 300.5 757.6 326.3 757.8 C 358.2 758, 362.2 757.3, 381 748.1 C 385.7 745.8, 391.6 742.2, 394.2 740 C 398.8 736, 404.4 727.8, 403.8 725.9 C 403.6 725.3, 402.5 726.6, 401.3 728.8 M 591.6 735.8 C 591 736.7, 602.5 741.1, 612.5 743.7 C 621.1 745.9, 665 746.4, 667.1 744.3 C 668 743.4, 662.9 743.1, 644.4 743.3 C 622.1 743.4, 620 743.3, 612.5 741.1 C 608.1 739.8, 602.2 738.2, 599.3 737.5 C 596.5 736.8, 593.7 735.9, 593.2 735.6 C 592.6 735.2, 591.9 735.3, 591.6 735.8" stroke="none" fill="#1b1f3a" fill-rule="evenodd"/></svg>