<svg xmlns="http://www.w3.org/2000/svg" viewBox="0 0 768 768" version="1.1" preserveAspectRatio="xMidYMid meet"><path d="M 151 3 C 140.5 5.2, 128 14.9, 128 20.8 C 128 21.6, 129.4 20.3, 131.2 17.9 C 134.9 12.8, 137.2 10.7, 142 8.4 C 143.9 7.5, 146.3 6.3, 147.2 5.9 C 148.1 5.4, 151.8 4.8, 155.3 4.4 C 164 3.5, 165 5, 161.3 13.6 C 157.9 21.6, 157.4 24, 159.2 24 C 160.8 24, 163 22.1, 163 20.7 C 163 20.2, 162.3 20, 161.5 20.4 C 159.5 21.1, 159.6 20.8, 162.5 17.4 C 166.6 12.6, 166.7 5.8, 162.5 2.8 C 161.3 1.9, 155.7 2, 151 3 M 179.3 8 C 175.4 10.3, 172.7 14.3, 173.2 16.7 C 173.5 18.1, 174.1 17.7, 175.9 14.8 C 180.9 6.6, 189 5.6, 189 13.2 C 189 15.1, 187.7 17.5, 185 20.4 C 181 24.7, 180.5 27.2, 183.6 28.4 C 184.7 28.8, 184.8 28.6, 184 27.1 C 182.8 24.7, 184.5 23.1, 189.4 22.3 C 193.8 21.6, 195.2 20, 191.5 20 C 189.3 20, 188.9 19.7, 189.5 18.3 C 193.5 9.2, 187.3 3.1, 179.3 8 M 210.4 13.3 C 206.5 15.6, 203.2 18.6, 201.1 22.1 C 198.6 26.2, 198.5 27, 200.5 27 C 201.3 27, 202 26.7, 202.1 26.3 C 202.8 18.9, 210.5 13, 214.1 16.9 C 217 20, 215.8 24.8, 211 29 C 209.1 30.7, 206 35.5, 206 36.8 C 206 38.5, 211.8 32.3, 216.3 25.7 C 219.8 20.6, 219.7 19.1, 215.8 15.3 C 212.9 12.6, 212.2 12.3, 210.4 13.3 M 106 23.9 C 99.2 25, 87 35.2, 87 39.7 C 87 42.1, 88.5 40.9, 91.5 36.2 C 97.4 26.9, 111.7 22.7, 117.5 28.5 C 120.3 31.2, 120.5 32.7, 118.9 36.4 C 118 38.4, 118 39.3, 119 40.5 C 120.8 42.6, 122.3 42.4, 121.1 40.2 C 120.5 39.1, 120.5 37.8, 121.1 36.9 C 125.6 29.8, 116.8 22.2, 106 23.9 M 124.9 40.8 C 124.8 41.2, 124.9 42.5, 125 43.8 C 125.1 45.5, 124.3 46.4, 121.7 47.5 C 118.4 48.8, 116 52.7, 116 56.5 C 116 58.4, 119.3 59.3, 120.5 57.7 C 123.3 53.8, 146 51.1, 154.4 53.6 C 156.4 54.2, 156.4 54.1, 154.7 52.4 C 151.1 48.6, 126 50.7, 120.2 55.3 C 118.3 56.8, 117.8 55.6, 119 52.8 C 119.7 51.5, 121.7 49.5, 123.6 48.5 C 126.4 47, 127 46.1, 127 43.3 C 127 40.5, 125.2 38.4, 124.9 40.8 M 155 43.4 C 155 45.5, 162.6 51.7, 166.2 52.4 C 167.9 52.7, 172.7 53, 177 53 C 187 53, 197 57.6, 197 62.2 C 197 63.4, 199.5 66.6, 203 70 C 207.5 74.3, 209 76.5, 209 78.5 L 209 81.2 203.3 80.5 C 200.1 80.2, 195.3 79.2, 192.6 78.4 C 186.6 76.7, 186.9 76.7, 187.6 78.4 C 188.2 80.1, 203.1 83.3, 208 82.8 C 214.9 82.2, 212.3 73, 203.4 66.9 C 199.2 64.1, 197.8 62, 200 62 C 202.5 62, 200.6 59.2, 196.4 56.7 C 188.9 52.2, 185.1 51, 178.1 51 C 167.5 51, 164.6 50.2, 160.1 45.9 C 155.7 41.6, 155 41.3, 155 43.4 M 83 65.8 C 76.1 73.5, 70.3 88.2, 71.5 94.7 C 72.4 99.8, 72.4 103.9, 71.5 107.4 C 70.1 112.8, 73 109.1, 77.1 100.5 C 79.2 95.9, 81.4 91.9, 82 91.5 C 82.5 91.2, 83 90.4, 83 89.8 C 83 88, 78 93.1, 75.9 97 L 74.1 100.5 73.9 97 C 73.7 91, 74.1 85.5, 75 84.5 C 75.4 84, 76 82.2, 76.4 80.7 C 77.2 77.3, 80.9 71.2, 85.7 65.3 C 90.4 59.4, 88.2 59.9, 83 65.8 M 151.2 69.2 C 150.5 69.9, 150 71.1, 150 72 C 150 72.8, 149.3 74.8, 148.5 76.4 C 147.7 77.9, 145.9 82.6, 144.6 86.9 C 138.7 105.6, 137.4 108.8, 129.1 126.1 C 125.8 133.1, 122.8 140.1, 122.4 141.6 C 121.7 144.4, 117 155.5, 115 159.2 C 114.4 160.2, 114 161.4, 114 162 C 114 163.1, 104.7 186.3, 103.1 189 C 102.6 189.9, 101.9 192, 101.6 193.8 C 101.2 195.5, 100.4 197.2, 99.9 197.5 C 99.4 197.9, 99 198.8, 99 199.6 C 99 200.4, 98.2 203, 97.1 205.3 C 96.1 207.6, 93.1 214.9, 90.6 221.5 C 88 228.1, 85.5 234.2, 85 235.1 C 84.5 236, 83.8 238.5, 83.4 240.6 L 82.6 244.5 81.9 240.5 C 81.6 238.3, 80.7 232.5, 80 227.6 C 78.7 218.3, 76.4 211.1, 75.1 212.6 C 74.7 213.1, 73.8 215.3, 73.1 217.5 C 72.4 219.7, 70.9 223.4, 69.8 225.8 C 68.8 228.2, 68.1 230.9, 68.3 231.8 C 68.5 232.9, 69.9 231, 71.8 226.8 C 76 217.8, 76.6 217.8, 77.4 226.7 C 78.6 241.7, 78.2 252.7, 76.1 257.3 C 75 259.6, 73.4 264, 72.4 267 C 71.5 270, 70.1 274.4, 69.4 276.8 C 68.6 279.1, 68 281.9, 68 283 C 68 284, 67.6 285.1, 67.1 285.4 C 66.6 285.7, 65.9 288.5, 65.5 291.6 C 65.2 294.6, 64.2 298.6, 63.5 300.3 C 62.1 303.5, 62.1 303.5, 62 297.6 C 62 289.1, 61.1 291.2, 60.1 302.3 C 59.3 310.8, 55 326.5, 52.1 332 C 51.6 332.9, 50.9 335.1, 50.5 337 C 50.1 338.9, 49.4 341, 49.1 341.5 C 47.2 344, 40.6 363.9, 36.6 379 C 32.3 394.9, 31.6 397, 30.7 397 C 29.7 397, 30.3 390.9, 33 373.5 C 34 366.9, 35.6 356.3, 36.5 350 C 37.4 343.7, 38.5 336.3, 39 333.5 C 44.3 304.4, 45.3 299.3, 50 281.5 C 51.1 277.1, 53.2 266.8, 54.6 258.5 C 58.3 236.4, 57.8 235.6, 61.9 270 C 63.2 281.3, 65.3 286.5, 64.5 276.5 C 64.2 272.7, 63.5 266.1, 63 262 C 60.3 241.1, 59.7 233.6, 59.9 224.1 C 60.1 216.8, 59.9 214, 59.1 214.4 C 58.5 214.8, 58 214.7, 58 214.1 C 58 213.6, 58.5 212.8, 59 212.5 C 59.6 212.2, 60 210.9, 60 209.7 C 60 207.9, 59.8 207.8, 59 209 C 58.2 210.2, 58 210.2, 57.9 208.5 C 57.9 207.4, 57.7 203.2, 57.5 199.1 C 56.9 187.8, 56 189.4, 56 201.7 C 56 212.3, 55.5 214.7, 52 222.5 C 49.4 228.2, 47.1 233.9, 45.9 237.5 C 45.1 239.7, 44.2 241.7, 43.8 242 C 43.4 242.3, 42.6 246.4, 42.1 251 C 40.8 261, 38.7 270.6, 35.4 281.2 C 34.1 285.5, 32.6 291.6, 32.1 294.7 C 31.5 297.9, 30.4 304.3, 29.5 309 C 28.6 313.7, 27.3 321.1, 26.5 325.5 C 25.7 329.9, 24.3 336.9, 23.5 341 C 21.6 350.4, 19.3 363.7, 17.5 376 C 16.7 381.2, 15.2 388.2, 14 391.4 C 12.9 394.7, 12 399.6, 12 402.4 C 12 405.2, 11.5 408.2, 11 409 C 9.7 410.8, 10.1 400.2, 11.8 384 C 12.4 378.2, 13.4 367.7, 14 360.5 C 16.4 330.8, 20.3 308.9, 26 292.5 C 29.5 282.5, 30.7 276.6, 31.5 266.5 C 32.2 257.7, 35.4 237.2, 36.9 232.5 C 37.7 229.8, 37.9 230.1, 38.1 235.5 L 38.3 241.5 39.2 235.5 C 39.7 232.2, 40.3 226.6, 40.6 223 C 41.3 213.8, 42 212.7, 43.6 218 L 45 222.5 44.3 218 C 42.9 208.3, 45.7 192.4, 52.3 172 C 57 157.8, 67.5 136.2, 72.7 130 C 74.5 127.9, 78.5 127.3, 79.4 128.9 C 79.8 129.4, 81.8 130.1, 84.1 130.5 C 88.8 131.3, 88.8 131.3, 82.7 141.3 C 69.1 163.5, 68.7 164.4, 68.2 176.8 C 67.9 185.8, 67.6 186.9, 66.4 185.3 C 65.6 184.2, 65.1 180.9, 65 176.6 C 65 171.5, 64.7 169.9, 63.9 170.7 C 62.1 172.5, 63.7 185.3, 68 203.5 C 69.5 209.7, 71 211.6, 71 207.2 C 71 202.5, 75.7 194.6, 87.5 179 C 106 154.6, 112 142.1, 109.6 132.7 C 109 130.2, 103.2 126, 100.4 126 C 97.8 126, 98.9 124.1, 103.5 121 C 113.1 114.4, 113.1 107.9, 103.5 108.1 C 101.3 108.2, 100.4 108.4, 101.5 108.7 C 102.6 108.9, 104.5 109.3, 105.8 109.6 C 109.9 110.4, 108.5 114.1, 101.5 120.9 C 97.9 124.4, 95 127.3, 95 127.4 C 95 127.6, 96.7 127.7, 98.7 127.8 C 104.7 128, 107.2 131.4, 107.3 139.1 C 107.3 147.3, 106 149.9, 92.1 168.3 C 80 184.4, 71 197.8, 71 199.8 C 71 200.5, 70.6 200.8, 70 200.5 C 68.7 199.7, 68.7 183.6, 70 174.6 C 71.1 167.3, 77.3 152.8, 83 144.4 C 84.6 141.9, 86 139.7, 86 139.4 C 86 139.2, 87.1 137.2, 88.5 134.9 C 91.6 130.1, 91.3 129.5, 85.9 128.6 C 83.6 128.2, 80.5 127.3, 78.8 126.4 C 74.7 124.3, 72.4 125.9, 65.7 136.3 C 56.1 150.9, 53.1 157.6, 49.1 173.3 C 47.4 179.8, 45.8 185.5, 45.5 185.9 C 45.1 186.6, 43.8 191.4, 37 217.5 C 35.4 223.6, 33.2 231.7, 32.2 235.5 C 31.1 239.4, 29.2 247.7, 28 254 C 26.8 260.3, 25.4 266.6, 24.9 268 C 24.4 269.4, 23.5 273.9, 22.9 278 C 20.7 293.5, 19.1 303.8, 17.5 313 C 13.6 335.6, 10 369.2, 10 384 C 10 390.3, 9.7 392.1, 8.9 391.3 C 7.3 389.7, 7.4 355.3, 8.9 340.5 C 9.5 334.5, 10.5 323.2, 11 315.5 C 12.3 298.4, 16 267, 18 257.5 C 19 252.6, 21.6 235.7, 24 219 C 25.2 211, 30.9 186.5, 32.9 181 C 33.4 179.6, 34.8 175.1, 36 171 C 40.6 155.2, 47.1 139.4, 54.1 127 L 57.2 121.5 56.5 129.5 C 56.2 133.9, 55.2 140.3, 54.4 143.7 C 53.5 147.1, 53 151.2, 53.3 152.7 C 53.6 154.8, 53.7 154.5, 53.9 151.5 C 53.9 149.2, 54.5 146.9, 55.1 146.3 C 57 144.4, 59 134.6, 59 127 C 59.1 120.2, 60.1 115.9, 63.5 107.5 C 65.3 103.3, 60.4 108.8, 58.1 113.7 C 56.9 116.4, 55.4 119.4, 54.8 120.5 C 47.3 133.8, 40.4 148.9, 37 159 C 34.7 165.9, 32.7 172.2, 32.4 173 C 32 174, 31.4 173.3, 30.3 171 C 20.7 149.8, 13.7 137.7, 7.3 131.1 C 0.4 123.9, -2.4 123.1, 4.1 130.1 C 6.4 132.5, 9.6 136.5, 11.2 138.9 C 14.2 143.2, 26 166, 26 167.7 C 26.1 168.1, 26.9 170.3, 28 172.5 C 30.3 177.3, 30.5 180.5, 28.6 186.2 C 27.8 188.6, 26.4 193.9, 25.5 198 C 23.4 206.9, 22.6 208.1, 21.2 204.3 C 20.6 202.8, 18.7 197.7, 17 193 C 9.5 173.1, 2 156, 0.8 156 C -0.2 156, -0.2 159.7, 0.8 160.2 C 1.9 160.7, 9.5 180.2, 15.6 198.3 C 22.2 217.8, 22.2 216.9, 17.5 245 C 16.6 250.2, 15.2 259.2, 14.4 265 C 13.6 270.8, 12.3 280, 11.5 285.5 C 10.7 291, 9.6 301.1, 9 308 C 8.4 314.9, 7.4 325, 6.7 330.5 C 5 344.4, 5.1 391.7, 6.9 404.3 C 8.1 412.9, 8.1 415.4, 6.6 425.8 C 3.4 448.4, 3.1 451.6, 2.6 462 C 2.1 473.2, 2.8 470.6, 4.9 453 C 7.5 431.1, 8.8 423.7, 9.1 429.6 C 9.1 430.6, 9.4 434.9, 9.6 439 C 10.7 462.9, 12 508.6, 12 528.3 C 12 542.1, 12.5 552.9, 13.1 555.7 C 14 559.1, 14 570.8, 13.1 602.9 C 12.3 632.7, 12.3 649.2, 13 657.6 C 13.5 664.1, 14.5 675.1, 15 682 C 15.6 688.9, 16.7 700.8, 17.5 708.5 C 18.3 716.2, 19.4 727.5, 20 733.5 C 21.8 751.6, 25.4 768, 27.6 768 C 29.2 768, 29.3 766.2, 27.9 760 C 26.7 754.3, 24.3 737.4, 23 724.5 C 22.4 719, 21.8 713.5, 21.5 712.3 C 21 710, 18.6 689, 17 673 C 15.5 657.8, 15.7 586, 17.2 584.5 C 18.2 583.5, 19.4 604, 19.6 627 C 19.8 650.7, 20.6 660.1, 23.5 672 C 24.4 675.6, 25.7 683.7, 26.5 690 C 27.2 696.3, 28.1 702.6, 28.4 704 C 28.7 705.4, 29.4 712.8, 30 720.5 C 33.2 765.4, 33.5 768, 35.7 768 C 36.9 768, 37.1 767.2, 36.7 764.3 C 36.3 762.2, 35.4 750.8, 34.6 739 C 33.7 727.2, 32.4 712.6, 31.5 706.5 C 30.7 700.5, 29.6 691.9, 29 687.5 C 28.4 683.1, 27.5 678.8, 27.1 678 C 26.6 677.1, 25.9 674, 25.5 671 C 25.2 668, 24.4 663.9, 23.9 661.9 C 23.4 659.9, 22.5 645, 21.9 628.9 C 21.4 612.7, 20.5 595.2, 20 590 C 19.5 584.8, 18.6 575.1, 18 568.5 C 17.4 561.9, 16.5 538.3, 15.9 516 C 15.4 493.7, 14.6 470.3, 14.2 464 C 13 445.9, 15.3 391.1, 17.3 387.4 C 18.2 385.8, 20.1 378.6, 21.4 371.4 C 23.8 358.8, 24 358.3, 27.9 354.3 C 30.2 352.1, 32 349.3, 32 348.1 C 32 345, 30.6 345.5, 27.9 349.5 C 24.9 353.9, 23.9 353.9, 24.6 349.8 C 26.6 338.2, 35 296.1, 37.6 285 C 40.5 272.1, 42.2 264.4, 43.5 257.5 C 45.9 244.2, 47.3 239.5, 50 234 C 51.5 231, 53.5 226.3, 54.5 223.5 C 58.9 211.5, 58.7 220.2, 54 244 C 53.4 247, 52.3 253.3, 51.4 258 C 48.9 271.7, 46.9 281, 44.8 288.5 C 39.3 308.1, 37 319, 34 340 C 31.9 355.1, 30.8 362, 29.4 369.5 C 28 377.3, 26.6 387.2, 23.5 411.5 C 22.7 418.1, 21.6 426.4, 21 430 C 20 436.3, 19.6 497.6, 20.5 500.2 C 21.8 503.6, 24 532.1, 24 545 C 24 553, 24.5 562.7, 25.1 566.5 C 25.7 570.4, 26.6 591.5, 27 613.5 C 27.6 642.7, 28.3 656.2, 29.5 663.5 C 30.4 669, 31.4 675.1, 31.7 677 C 32.8 683.5, 33.9 677.3, 34 664 C 34.2 630.1, 39 590.3, 45.6 566.6 C 47.4 560.2, 47.5 556.5, 45.8 559.4 C 45.2 560.5, 44.3 562.7, 43.9 564.4 C 43.5 566.1, 42.4 570.2, 41.5 573.5 C 40.6 576.8, 39.2 583.3, 38.4 588 C 37.5 592.7, 36.2 600.1, 35.4 604.5 C 32.8 618.8, 32.2 624.3, 31.5 639.4 C 30.9 650.4, 30.5 653.8, 29.7 652.5 C 28 649.3, 29.7 600.3, 32 589 C 33 583.8, 34.4 576.8, 35 573.5 C 35.7 570.2, 36.8 564.4, 37.6 560.5 C 38.4 556.7, 39.7 549.9, 40.4 545.5 C 41.2 541.1, 43 531.4, 44.4 524 C 50.1 495, 51.2 489.2, 52.5 481 C 53.2 476.3, 54.5 469.6, 55.3 466 C 58 454.4, 60.2 444.6, 61.5 438.5 C 62.2 435.2, 63.5 430.3, 64.2 427.5 L 65.6 422.5 77.1 421.9 C 89.6 421.3, 88.3 420.6, 75.4 421 C 70.9 421.1, 67 420.8, 66.6 420.2 C 66.3 419.7, 66.9 416.6, 68 413.4 C 69 410.1, 70.8 403.2, 72 398 C 73.2 392.8, 74.7 386.5, 75.5 384 C 76.2 381.5, 77.6 376.8, 78.5 373.5 C 81.3 363.8, 86.2 349.6, 87.1 348.6 C 87.6 348, 88 347, 88 346.2 C 88 344, 91.1 338, 92 338.5 C 93.4 339.4, 107 339.8, 107 339 C 107 337.8, 99.2 336.9, 95.4 337.6 C 91.3 338.4, 91.1 337.4, 94.4 332.2 C 100.6 322.4, 110.9 315.8, 124.9 312.6 C 133.2 310.8, 155.9 310.4, 163.7 312 C 166.3 312.5, 172.3 313.7, 177 314.6 C 187.4 316.5, 195.9 319.4, 202.4 323.2 C 209.2 327.2, 210.2 325.8, 206.2 317.7 C 196 296.9, 167.9 286.1, 140.7 292.4 C 131.9 294.5, 130 294.5, 132 292.6 C 135.8 289.1, 154.4 277.3, 162 273.5 C 168.7 270.3, 172.3 267.6, 178.3 261.7 C 189.1 250.8, 187.8 249, 172.5 253.7 C 149.4 260.7, 135 269.4, 112.1 289.9 C 107.4 294.1, 104 296.6, 104.4 295.5 C 104.8 294.4, 107.5 287.2, 110.5 279.4 C 117.6 260.5, 118.2 259.4, 122.7 257.9 C 145.6 250.5, 175.1 226.4, 170.4 218.9 C 168.1 215.2, 144.9 223.2, 134.8 231.2 C 128.9 235.8, 130.2 232.3, 141 213 C 143.9 207.8, 147.4 201.5, 148.7 199 C 152 192.8, 153 192.3, 162.3 191.5 C 173.4 190.6, 178.2 189.4, 179.7 187.4 C 181.8 184.5, 181.2 183.2, 176.8 180.9 C 174.4 179.7, 170.6 177.3, 168.3 175.5 L 164.1 172.3 169.3 167.3 C 174.3 162.5, 179.1 160, 183.3 160 C 184.6 160, 183.5 161, 180.4 162.6 C 174.6 165.7, 168.7 170, 169.4 170.7 C 169.9 171.2, 171.4 170.4, 181.2 164.8 C 186.3 161.8, 188.8 161, 192.6 161 L 197.5 160.9 194.8 159.4 C 190.8 157.3, 181.8 157.2, 178.6 159.3 C 174.5 162, 174.5 161.3, 178.6 156.8 C 180.7 154.4, 184 152, 186 151.4 C 187.9 150.8, 191.4 149.4, 193.8 148.2 C 201.7 144.4, 207.4 144.2, 208.3 147.8 C 208.6 149, 208.8 148.9, 208.9 147.3 C 209 145.8, 208.1 144.6, 206.4 143.7 L 203.7 142.3 206.9 141.7 C 208.6 141.3, 210 140.6, 210 140 C 210 138.4, 206.8 138.8, 203 140.9 C 201.1 141.9, 198.5 143, 197.2 143.5 L 194.9 144.2 197.6 140.1 C 200.6 135.4, 199.9 131, 196.1 131 C 193.5 131, 187.3 137.7, 183.7 144.3 C 180.5 150.1, 178.1 153.5, 172.9 159.3 L 169.4 163.3 165.4 160.7 C 161.3 158.2, 158 154.1, 158 151.8 C 158 150.9, 160.3 150.5, 166.4 150.3 C 178.4 150.1, 179 149.6, 179 140.6 C 179 132.7, 176.9 129, 172.3 129 C 165.9 129, 165.2 137.6, 171.1 143.2 C 173.4 145.4, 174.9 147.4, 174.6 147.8 C 174.2 148.1, 169.6 148.4, 164.4 148.5 L 154.9 148.5 155.4 151.4 C 156.2 155.4, 160.1 160.2, 164.4 162.5 C 166.4 163.6, 168 164.7, 168 165 C 168 165.7, 160.5 173.7, 159.4 174.1 C 158.1 174.7, 152 182.7, 152 183.8 C 152 184.4, 149.6 185.4, 146.8 186 C 137.8 188.1, 126.7 192.9, 121 197.1 C 114.7 201.8, 114.8 201.8, 125.5 196.7 C 139.8 189.8, 144.6 188.4, 161.2 186.5 C 175.7 184.8, 177.8 183.7, 165.8 184.1 C 160.9 184.3, 157 184.1, 157 183.7 C 157 183.2, 158.4 180.8, 160.1 178.3 C 162.6 174.7, 163.5 174.1, 164.1 175.2 C 164.6 176.1, 168.1 178.6, 172 180.9 C 179.2 185.2, 180.7 186.6, 176.8 185.5 C 175 185, 174.9 185.1, 176 185.9 C 178.2 187.4, 177.5 187.6, 163.3 189.3 C 147.4 191.3, 123.1 198.2, 118.5 202 C 117.8 202.6, 116.4 202.7, 115.5 202.3 C 114.4 201.9, 113.9 202.1, 114.3 202.7 C 114.6 203.2, 113.6 204.7, 112 205.9 C 108.6 208.3, 108.2 207.4, 110.6 202.8 C 111.5 201, 114.7 193.1, 117.7 185.2 C 123.1 170.8, 133.3 144.3, 134.9 140.5 C 135.4 139.4, 136.6 136.3, 137.5 133.5 C 142.2 120.1, 144.1 117.1, 150.9 112.2 C 163.3 103.4, 167 102.4, 167 107.9 C 167 112.2, 156.7 121.4, 149.9 123.1 C 144.6 124.5, 143.4 126, 147.5 126 C 155.6 126, 167.1 115.8, 168.6 107.3 C 169.2 104.3, 167.5 102, 164.9 102 C 162.5 102, 153.5 107.5, 149 111.7 C 145 115.5, 144.3 115.3, 146 110.8 C 146.6 109, 148.4 102.6, 150 96.5 C 151.6 90.5, 153.4 83.9, 153.9 82 C 154.5 80.1, 155 76.9, 154.9 75 C 154.8 70.9, 155.1 70.2, 149.5 88.5 C 140.8 117.4, 129.4 148.7, 116.6 179 C 115.3 182, 113.9 186, 113.6 187.8 C 113.2 189.5, 112.4 191.2, 111.9 191.5 C 111.4 191.9, 111 192.8, 111 193.6 C 111 194.9, 109.9 197.7, 106 206.5 C 105.5 207.6, 104.2 210.8, 103 213.5 C 101.8 216.3, 100.5 219.4, 100 220.5 C 86 251.5, 73.8 291, 71.5 313.5 C 70.7 320.9, 69.4 326.3, 67 331.5 C 66.1 333.7, 64.3 338, 63.2 341 C 62.1 344, 60 349.2, 58.5 352.5 C 54.1 362.2, 50.9 369.3, 49.4 372.4 C 48.6 374, 48 375.7, 48 376.2 C 48 377, 46.4 380.9, 42.4 389.7 C 41.6 391.4, 41 393.3, 41 393.9 C 41 394.5, 40.4 396.4, 39.6 398.2 C 36.8 404.7, 35.2 408.6, 32.5 415.7 C 30 422.6, 28 425.7, 28 422.8 C 28 418.5, 32.7 397.3, 35 391 C 36.6 386.9, 38.6 380.8, 39.5 377.5 C 41.7 369, 48.8 348.3, 55.8 329.5 C 59.1 320.7, 62.2 311.9, 62.8 310 C 64 305.7, 67.6 293.5, 69.6 286 C 71.3 280.3, 74.4 270.9, 75.9 267.5 C 78.9 260.8, 80.1 257.5, 83 249 C 84.7 243.8, 86.7 238.2, 87.5 236.5 C 88.2 234.9, 90.7 228.6, 93 222.5 C 95.4 216.5, 100.8 203.2, 105 193 C 109.3 182.8, 114 171.1, 115.5 167 C 117 162.9, 119.1 157.7, 120 155.5 C 121 153.3, 122.7 148.8, 123.9 145.5 C 125.2 142.2, 129 133.2, 132.5 125.5 C 135.9 117.8, 140.4 106.6, 142.5 100.5 C 144.5 94.5, 146.5 88.6, 147 87.5 C 147.5 86.4, 148.2 84, 148.5 82.2 C 149.1 79.2, 150.8 75, 153.1 70.8 C 154.7 67.8, 153.6 66.9, 151.2 69.2 M 128.7 77 C 126.7 79.9, 119.2 85.4, 111.4 89.7 C 107.6 91.7, 104.4 93.8, 104.2 94.2 C 104 94.6, 103.4 95, 102.8 95 C 101 95, 94.2 101, 92.1 104.4 C 89.4 108.7, 89.5 110, 92.3 110 C 94 110, 94.2 109.8, 93.1 109.1 C 89.8 107, 102.2 95, 107.6 95 C 113.8 95, 126 88, 126 84.4 C 126 83.6, 127.1 81.7, 128.5 80.2 C 129.9 78.7, 131 77, 131 76.3 C 131 74.5, 130.3 74.7, 128.7 77 M 168.5 132 C 166.7 135, 172.8 144, 176.6 144 C 178.6 144, 178.4 136, 176.4 133.2 C 174.8 130.9, 169.7 130.1, 168.5 132 M 191.2 138.4 C 187 142.9, 183.5 148.8, 184.4 149.7 C 186.3 151.6, 198 139.2, 198 135.2 C 198 132.8, 195.1 134.1, 191.2 138.4 M 146.8 195.1 C 142.5 197.5, 121.8 235.8, 111.1 260.8 C 108.3 267.5, 104.3 276.5, 102.4 280.7 C 98.4 289.3, 91.7 307, 87.6 320 C 86.1 324.7, 83.1 333.2, 81 339 C 78.9 344.8, 74.2 359, 70.5 370.5 C 66.8 382.1, 63.5 392.6, 63 394 C 62.6 395.4, 61.4 399.7, 60.5 403.5 C 59.6 407.4, 57.5 414.8, 56 420 C 54.4 425.2, 52.2 432.9, 51 437 C 49.8 441.1, 48.5 445.6, 48 447 C 47.5 448.4, 46.4 452.4, 45.6 456 C 40.8 477, 39.7 481.7, 39 484 C 37.2 489.3, 35 499.1, 32 515 C 30.3 524.1, 28.2 534.5, 27.4 538.2 C 25.8 546, 25.5 572, 27.2 566 C 28.1 562.6, 30 552.7, 31.9 540.8 C 32.8 535.1, 35.3 523.5, 37.1 516.9 C 37.6 514.9, 38 511.7, 38.1 509.9 C 38.1 508, 38.7 504.7, 39.5 502.5 L 40.8 498.5 40.8 503.5 C 40.8 509.9, 39.9 515.9, 36.1 535 C 31.1 559.4, 29 572.1, 29.1 577 C 29.2 581.5, 31 574.6, 35.4 552 C 36.2 547.9, 37.6 541.1, 38.5 537 C 39.3 532.9, 40.7 525.8, 41.5 521.3 C 44 507.6, 45.9 496.5, 47.5 487.3 C 48.3 482.5, 49.9 475, 50.9 470.6 C 52 466.1, 53.8 458.5, 55 453.5 C 56.1 448.6, 57.5 442.7, 58 440.5 C 58.6 438.3, 59.9 432.2, 61 427 C 62.1 421.8, 63.4 416.4, 63.9 415 C 64.4 413.6, 65.6 408.9, 66.5 404.5 C 68.3 396.2, 70.1 389.6, 75.2 372.5 C 78.4 361.7, 80.7 354.7, 82 351.5 C 82.5 350.4, 83.2 348.4, 83.6 347 C 89.7 325.3, 117.7 296, 152 275.5 C 158.3 271.7, 164 268.2, 164.5 267.8 C 165.1 267.3, 169 264.2, 173.3 260.9 C 177.6 257.6, 180.9 254.6, 180.6 254.3 C 179 252.7, 155.1 261.8, 145 267.8 C 129.7 277.1, 108 295.8, 100.5 306.3 C 93.7 315.9, 92.8 314.7, 98.3 303.5 C 99.7 300.7, 101.2 296.9, 101.8 295 C 104.6 285.3, 112.8 264.9, 120.3 249 C 133.6 220.8, 139.3 209.7, 146 198.9 C 147.6 196.2, 148.9 194, 148.7 194 C 148.6 194, 147.7 194.5, 146.8 195.1 M 133.9 198.4 C 126.1 201.2, 125.1 201.7, 114.3 208.3 C 106.1 213.2, 106.1 213.3, 103 220.9 C 101.3 225.1, 99.5 229.4, 99 230.5 C 95.1 239.1, 88.5 257.9, 84.1 273 C 82.8 277.1, 81.5 281.6, 81 283 C 79.7 286.8, 77.2 299.1, 75 313.2 C 73.8 320.5, 71.9 328.2, 70.5 331.5 C 69.1 334.5, 68 337.7, 68 338.4 C 68 339.9, 74.9 341.2, 76.3 340 C 77.6 338.9, 85.3 316.7, 85.5 313.5 C 85.6 311.8, 86.4 309.4, 87.2 308 C 88.1 306.6, 90 302.6, 91.5 299 C 93 295.4, 95.8 289.1, 97.7 285 C 99.6 280.9, 102.9 273.5, 105 268.5 C 116.1 241.9, 131.8 211.1, 139.1 201.3 C 143.6 195.3, 143.2 195.1, 133.9 198.4 M 155.2 223 C 142 227.7, 131.8 235.9, 124.7 247.5 L 120 255.3 122.9 254.7 C 135.7 252.1, 168 229, 168 222.4 C 168 220.4, 161.8 220.7, 155.2 223 M 144 295 C 128.9 297.4, 124.4 299.1, 117.3 305.2 C 109 312.4, 106 315.6, 108.5 314.6 C 123.2 308.9, 124.7 308.6, 145 308.6 C 157.1 308.5, 166.6 309, 170 309.7 C 173 310.4, 179 311.7, 183.3 312.5 C 187.6 313.3, 193.9 315.3, 197.3 316.9 C 204.8 320.3, 205.1 320.2, 201.5 314.9 C 197.5 309.2, 190.2 302.9, 184.4 300.2 C 181.7 298.9, 178.8 297.5, 177.9 297 C 175.8 295.9, 160.5 293, 157.6 293.1 C 156.5 293.2, 150.3 294, 144 295 M 675.5 326.6 C 677.2 326.8, 688 327.2, 699.5 327.4 C 711.1 327.7, 731.2 328.2, 744.3 328.6 C 758.9 329, 768 328.9, 768 328.3 C 768 327.7, 754.8 327.1, 735.8 326.7 C 704.1 326, 669.6 326, 675.5 326.6 M 60.7 354.2 C 57.1 361.5, 53 370.4, 51.5 374 C 50.1 377.6, 48.5 381.4, 48.1 382.5 C 43.9 392.8, 33.4 421.8, 31.7 428.1 C 30.8 431, 29.4 436, 28.5 439 C 24 454.8, 21 488.2, 22.9 503.5 C 23.4 507.4, 23.8 509.2, 23.9 507.6 C 24 504.6, 26.3 491.7, 28 484.5 C 28.5 482.3, 29.9 476.5, 31 471.5 C 33.9 458.8, 46.5 417.4, 49.1 412 C 49.5 411.2, 51.3 406.5, 53 401.5 C 56.4 392, 61.7 379.9, 62.8 379 C 64.3 377.9, 66 373.4, 69.6 361 C 71 356.4, 72.5 352.1, 72.9 351.5 C 73.4 351, 74.1 348.7, 74.4 346.5 C 75 343, 74.8 342.4, 73.3 342.4 C 72.3 342.4, 70.5 342, 69.4 341.7 C 67.5 341, 66.6 342.3, 60.7 354.2 M 350 380.4 C 336.7 384.2, 328.9 389.9, 322.9 400.1 C 314.7 413.8, 313.4 425.3, 317.5 444.7 C 320.4 458.2, 320.7 465.2, 318.5 467 C 317.1 468.2, 312.2 467.6, 309 465.9 C 308.2 465.4, 301.7 462.8, 294.5 460 C 287.4 457.2, 280.6 454.5, 279.5 454 C 278.4 453.5, 274.7 451.9, 271.3 450.5 C 267.9 449.1, 262.5 446.8, 259.3 445.4 C 249.6 441.1, 247.7 440.3, 242.5 438.5 C 239.8 437.5, 237.1 436.4, 236.5 436 C 236 435.6, 233.3 434.5, 230.5 433.5 C 223.8 431.1, 214.4 426.4, 209.3 422.9 C 203.6 418.9, 202.6 419.1, 203.4 424 C 204.1 428.5, 207.5 435.3, 211.8 440.8 C 216.6 447, 216.7 447.3, 212.9 446.5 C 211 446.2, 208.6 445.5, 207.5 445 C 206.4 444.6, 202.6 443.2, 199 441.9 C 187.5 437.8, 171.1 427.9, 166.3 422.1 C 165.1 420.7, 163 418.2, 161.7 416.5 C 156.8 410.6, 154.4 417.7, 157.4 429.2 C 162.2 447.4, 163.9 450.4, 174.4 458.1 C 180.4 462.5, 180.7 461.6, 175.3 455.3 C 169.6 448.6, 165.1 441.4, 162.7 435 C 160.9 430.1, 159 421.3, 159.7 420.7 C 159.9 420.4, 162.7 423, 165.8 426.3 C 175.8 436.8, 194.2 446, 217.6 452.1 C 230.4 455.5, 231.9 455.5, 226 452.1 C 222.2 450, 221 447.8, 222.9 446.5 C 223.4 446.2, 224.2 446.4, 224.5 447 C 225.1 448, 234.3 453, 235.5 453 C 237.2 453, 235.4 450.7, 231.8 448.1 C 227.2 445, 212.7 431, 213.3 430.4 C 213.5 430.2, 216.2 431.4, 219.4 433 C 222.6 434.7, 230.9 438.3, 237.9 441.1 C 244.8 443.8, 252.3 446.9, 254.5 447.9 C 256.8 449, 263.1 451.7, 268.5 454 C 274 456.3, 279.4 458.5, 280.5 459 C 283.8 460.4, 291.2 463.5, 295.5 465.2 C 297.7 466.1, 303.2 468.3, 307.7 470.1 C 314.9 472.9, 319.1 476, 315.8 476 C 315.2 476, 315 476.3, 315.4 476.7 C 316.3 477.6, 323.8 470.1, 325.6 466.4 C 326.5 464.5, 326.9 461.6, 326.6 458.6 C 326.2 454.4, 326.3 454, 327.7 455.2 C 329.1 456.3, 329.2 456.1, 328.5 453 C 327.6 448.7, 325.3 445.7, 325.4 449.1 C 325.5 450.3, 324.9 451.5, 324.3 451.7 C 323.4 452, 323 450.8, 323 447.4 C 323 442.6, 321.3 435.3, 319.8 433.6 C 318.5 432, 318.9 420.9, 320.5 414.7 C 323.3 403.8, 332.2 391.5, 340.4 387.3 C 345.8 384.5, 361.7 381, 360.6 382.9 C 360.3 383.4, 362.2 384.3, 364.8 385 C 375.8 388, 381.7 392.9, 386.2 402.7 C 387.7 406.2, 389 410.7, 389 412.8 C 389 416.4, 388.8 416.6, 384.5 417.8 C 378.5 419.4, 378.5 421.5, 384.4 420.7 L 388.8 420.1 391.8 425.3 C 395.6 432.1, 400 436.3, 406.9 439.7 C 410 441.2, 412.7 442.6, 412.9 442.7 C 413.1 442.9, 411.7 444.6, 409.7 446.5 C 405.5 450.6, 405.7 450.6, 391.8 445.8 C 378.8 441.4, 371.2 437.4, 374.3 436.6 C 376.9 436, 379 430.8, 379 425.2 C 379 420.2, 377.3 420.6, 376 425.9 C 374.6 431.9, 372.2 434.6, 367 436.1 C 364.8 436.8, 363 437.8, 363 438.5 C 363 440, 368.7 445.2, 372.3 447 C 373.8 447.7, 375 448.6, 375 449 C 375 450.6, 364.6 452.5, 355.3 452.5 C 345.5 452.5, 345.1 452.4, 341.4 449.4 C 334.4 443.8, 333.5 441.8, 333.5 432.4 C 333.5 427.8, 333.4 424, 333.3 424 C 332.5 424, 330 430.4, 330 432.5 C 330 441, 338.1 453.1, 346.1 456.7 C 348.8 457.8, 350.7 459.6, 351.7 461.8 C 352.6 463.7, 354.3 465.6, 355.4 466.1 C 356.6 466.7, 359.8 471, 362.5 475.8 C 377.1 501.3, 379.5 519.4, 370.5 537.9 C 363.3 552.6, 343.7 567.8, 324 573.9 C 319.9 575.1, 315.2 576.6, 313.7 577.1 C 312.1 577.6, 307.8 578.2, 304.2 578.5 C 297.9 579, 297.7 579, 301 577.8 C 302.9 577.1, 304.6 575.7, 304.8 574.8 C 305.1 573.4, 304.7 573.2, 303.3 573.7 C 301.7 574.3, 301.6 574.3, 303.1 572.8 C 304 571.9, 305.8 571, 307.1 570.7 C 308.6 570.5, 307.8 570.2, 305.2 570.1 C 302.5 570.1, 301.1 570.4, 301.5 571 C 302.2 572.1, 296.7 572.4, 295.6 571.3 C 294.3 570, 288 570, 288 571.3 C 288 572.1, 287.7 572, 287.1 571.1 C 286.6 570.3, 285.5 570, 284.7 570.3 C 283.9 570.6, 282.9 570.6, 282.5 570.2 C 281.5 569.1, 272 569, 272 570.1 C 272 570.6, 272.4 571, 272.9 571 C 273.4 571, 274 571.7, 274.4 572.5 C 274.9 573.8, 274.6 573.9, 272.9 572.9 C 271.7 572.3, 270.6 571.1, 270.3 570.2 C 270.1 569.2, 268.9 568, 267.6 567.4 C 265.5 566.4, 265.3 566.6, 265.4 569.2 C 265.5 571.4, 265.9 571.9, 267.3 571.4 C 268.2 571.1, 269 571.3, 269 571.9 C 269 574, 259.5 573.1, 254.4 570.5 C 251.7 569.1, 248.9 568.2, 248.2 568.5 C 244.7 569.8, 224.4 556.2, 214.8 546.2 C 199.8 530.5, 194.6 521.8, 188 501.3 C 185.7 494.3, 183.5 489.5, 180.7 485.8 C 175.9 479.6, 166 464, 166 462.8 C 166 462.3, 167.9 464.3, 170.3 467.1 C 175.8 474, 178.2 474.8, 174.6 468.6 C 173.1 466, 170.5 461.3, 168.8 458 C 166.4 453.2, 165.3 452, 163.4 452 C 157.6 452, 162.8 467.4, 173.1 481.2 C 181 491.6, 185.7 500.8, 182 498.5 C 180.5 497.6, 180.7 498.4, 183.5 504.4 C 184.9 507.4, 186 510.4, 186 511.1 C 186 514.9, 195.6 531.5, 203.2 541 C 216.1 556.9, 229.2 567.1, 243.2 572.4 C 251.2 575.4, 250.4 576.4, 240.4 575.6 C 218.9 574, 217.9 574, 223.5 575.1 C 226.3 575.6, 233.3 576.5, 239.2 577.1 L 249.9 578.3 253.6 588.8 L 257.4 599.3 254 601.9 C 242.4 610.6, 239.7 616.3, 246 618.6 C 247.9 619.3, 249.1 619.9, 248.5 620 C 246.3 620.4, 240.4 619.8, 239.5 619 C 239 618.6, 237.2 618, 235.5 617.6 C 233.9 617.2, 231.7 616.1, 230.8 615.3 C 229.3 614, 229 613.9, 229 615.1 C 229 618.6, 241.1 622.4, 262 625.5 C 264.5 625.9, 268.8 626.8, 271.5 627.5 C 274.3 628.3, 277.9 628.8, 279.5 628.8 C 281.2 628.8, 284.2 629.1, 286.2 629.5 C 290.4 630.3, 299 629.3, 299 628 C 299 627.5, 295.5 626.9, 291.3 626.7 C 283.6 626.4, 283.6 626.4, 293.2 626.2 C 298.6 626.1, 303.2 625.5, 303.5 625 C 303.9 624.4, 304.9 624.1, 305.8 624.4 C 306.8 624.7, 310 624.5, 313 624.1 L 318.5 623.3 312.5 623 C 309.2 622.8, 307.6 622.6, 309 622.4 C 314 621.6, 324.5 618.7, 325.8 617.7 C 326.7 617, 326.7 616.4, 325.9 615.4 C 325 614.3, 325.4 614, 328.4 614 C 335.2 614, 340.8 609.4, 336.3 607.5 C 334.7 606.9, 334.8 606.7, 336.9 605.9 C 341.5 604.1, 337.5 602.8, 326.1 602.2 C 318.5 601.9, 315 602.1, 315 602.8 C 315 603.4, 315.9 604.2, 317 604.5 C 318.1 604.9, 318.8 605.5, 318.5 606 C 318.2 606.5, 316.6 606.4, 314.9 605.8 C 312.6 605, 308.6 605.1, 300.1 606 C 293.7 606.7, 285.4 607.6, 281.5 608 C 276.6 608.4, 275 608.8, 276.3 609.4 C 277.3 609.9, 281.6 609.9, 285.8 609.5 C 294.3 608.7, 297.9 608.7, 309.3 609.6 C 321.5 610.6, 317.3 611.5, 300.7 611.5 C 284.3 611.5, 276.9 613.1, 287 614.4 C 289.9 614.8, 292.5 614.9, 292.8 614.6 C 293.1 614.2, 292.1 614, 290.6 614 C 289.1 614, 288.2 613.6, 288.5 613 C 288.8 612.5, 290.3 612.3, 291.8 612.5 C 310.4 615.5, 315 616.4, 313.8 617.2 C 312.3 618.2, 301.8 617.2, 298.1 615.8 C 296.5 615.3, 295.3 615.3, 294.6 616 C 293.9 616.7, 294 617, 295.1 617 C 296.3 617, 296.3 617.2, 295 618 C 294.2 618.5, 293.1 618.5, 292.5 618 C 292 617.6, 288.4 616.9, 284.5 616.6 C 278.9 616.2, 278.3 616.3, 281.5 617 C 283.7 617.5, 286.6 618.2, 288 618.5 C 289.4 618.9, 292.6 619.4, 295.3 619.7 C 298.4 620.1, 300 620.7, 300 621.6 C 300 622.7, 299 622.9, 296.3 622.5 C 294.2 622.3, 288.5 621.6, 283.5 621 C 274.8 620, 262.2 617.7, 258.4 616.4 C 256.8 615.9, 256.7 616, 258 617 C 259.2 617.9, 258.7 618, 255.5 617.5 C 247.7 616.2, 247 611.1, 254 606.7 L 257.5 604.5 255.7 607.3 C 254.7 608.9, 254.1 610.4, 254.4 610.7 C 255 611.3, 258.7 608.8, 258.8 607.7 C 258.9 607.3, 259.4 605.2, 260.1 603.1 C 261.1 599.7, 260.9 598, 258.2 588.9 C 256.5 583.2, 255.2 578.4, 255.4 578.2 C 255.6 578, 256.3 579.6, 257 581.7 C 259.2 588.8, 261.9 593.7, 265 596.3 L 268.1 598.9 263.9 603.5 C 258.5 609.3, 260.6 609.4, 266.9 603.5 C 270.6 600, 272.1 599.2, 274.1 599.6 C 275.5 600, 274.1 598.6, 270.5 596.3 C 264.8 592.5, 263.8 591.3, 261.1 584.6 C 259.7 581.1, 260 580.7, 263.2 581.9 C 270.6 584.7, 303.6 585.7, 311.9 583.4 C 313.5 582.9, 314.1 583, 313.6 583.8 C 310.5 588.8, 339.1 585.6, 347.4 579.9 C 351.2 577.3, 352.1 575, 349.3 575 C 348.3 575, 346.4 574.1, 345.1 573.1 L 342.7 571.3 345.6 569.4 C 369.9 554.2, 382.2 534.4, 380.7 513 C 380.1 503.9, 377.6 496.4, 369.8 480.8 C 360.7 462.2, 360 457, 366.9 457 C 370.3 457, 377.5 453.6, 378.7 451.6 C 379.5 450.2, 380.8 450.4, 390.5 453 C 403.9 456.6, 409.2 456.8, 415.1 453.7 C 423.8 449.1, 422.6 443.5, 411.8 438.2 C 397.9 431.4, 392.5 424.4, 391.8 412.4 C 391.1 400.4, 386.5 392.5, 375.6 385 C 373.1 383.4, 370.5 382, 369.7 382 C 368.8 382, 368 381.5, 367.8 381 C 367.3 379.3, 355 378.9, 350 380.4 M 58.1 394 C 56.4 398.5, 55 402.8, 55 403.5 C 55 404.3, 54.6 405.2, 54 405.5 C 53.5 405.8, 53 406.8, 53 407.7 C 53 408.5, 52.4 410.6, 51.6 412.3 C 50.1 415.6, 46 428.5, 42 442 C 40.8 446.1, 39.5 450.6, 39 452 C 38.2 454.4, 34.4 470.1, 30 489.5 C 28.9 494.5, 27.6 500.1, 27 502 C 26.5 503.9, 25.8 509.3, 25.6 514 L 25 522.5 27 515 C 28.1 510.9, 30.1 503, 31.4 497.5 C 35.2 481.8, 38.9 466.8, 40 463 C 42.1 455.2, 45.2 444.3, 46 442 C 46.5 440.6, 47.6 436.8, 48.5 433.5 C 49.4 430.2, 51.4 423.5, 52.9 418.5 C 54.5 413.6, 56.5 406.9, 57.4 403.8 C 58.3 400.6, 59.8 395.5, 60.7 392.5 C 63.2 384, 61.6 384.9, 58.1 394 M 579 407.4 C 579 408.2, 579.9 409.1, 580.9 409.5 C 582 409.8, 583.4 410.7, 584 411.5 C 585 412.7, 584.7 412.7, 582.2 411.4 C 579.8 410.2, 578.3 410.2, 574.8 411 C 572.5 411.6, 569.4 412.4, 568.1 412.7 C 561.6 414.3, 548.7 425.2, 545.2 432.1 C 540.2 442, 538.2 456.4, 540.9 463.2 C 546.7 477.9, 550.8 493.8, 549.4 496.1 C 549.2 496.5, 541.7 494.2, 532.8 491.2 L 516.5 485.5 501.4 485.5 C 488.3 485.5, 486.1 485.3, 484.6 483.7 C 483.6 482.7, 482.5 482.2, 482.1 482.5 C 481.8 482.9, 482.9 484.4, 484.7 486 C 487.7 488.7, 487.7 488.8, 485.7 489.4 C 483.9 489.9, 483.8 490.2, 485 490.9 C 486.1 491.7, 485.4 492.3, 481.9 493.8 C 479.4 494.9, 476.3 497.1, 474.9 498.7 C 472.8 501.2, 472 501.5, 469.3 500.9 C 464.2 499.9, 454.1 491.3, 452 486.3 C 450.2 481.9, 448.7 483.7, 449.3 489.3 C 450.5 498.6, 457.9 515.7, 462.9 520.4 C 464.6 522.1, 466 524, 466 524.7 C 466 525.4, 466.4 526, 467 526 C 467.5 526, 469.5 529.3, 471.4 533.3 C 473.2 537.2, 476 542.1, 477.4 544 L 480.1 547.5 475.8 548 L 471.5 548.5 476.7 549.1 C 483.6 549.9, 490.6 555.2, 486.3 556.3 C 485.3 556.6, 485.9 556.8, 487.6 556.9 C 490.9 557, 493.5 559.1, 492.2 560.5 C 491.8 561, 492.2 561.1, 493.2 560.7 C 494.9 560.1, 498 562.8, 498 564.8 C 498 565.5, 498.5 566, 499 566 C 499.6 566, 500 565.5, 500 564.8 C 500 563.1, 502.6 567, 503.3 569.8 C 504 572.7, 503.1 572.6, 495.8 569 C 492.5 567.4, 489.4 566, 488.8 566 C 486.5 566, 489.7 568.3, 496.3 571.5 C 501.8 574.1, 502.9 574.9, 501 575 C 499.6 575.1, 497.6 575.4, 496.5 575.6 C 495.4 575.8, 489.8 576.2, 484 576.4 C 472.5 576.8, 467 577.7, 467 579.2 C 467 579.8, 467.9 579.9, 469.3 579.5 C 470.5 579.1, 474.2 578.5, 477.5 578.3 L 483.5 577.9 480.5 579.8 C 470.9 585.8, 472.7 593.9, 484.1 595.6 C 486.5 596, 489.1 596.7, 489.8 597.3 C 490.6 597.9, 494.6 598.7, 498.8 599.1 C 503 599.5, 509.7 600.3, 513.5 601 C 521.1 602.2, 530.9 601.7, 540.5 599.4 C 543.8 598.6, 548.8 597.5, 551.5 596.9 C 559.1 595.3, 560 594.9, 560 593.9 C 560 593.4, 558.2 593, 555.9 593 C 553 593, 551.9 593.4, 552.3 594.3 C 552.6 595.2, 550.8 595.5, 545.6 595.6 L 538.5 595.8 545.5 594 C 549.4 593, 553.7 592.1, 555.1 592.1 C 560.1 591.9, 563.8 590, 564.9 586.9 C 566.2 583.2, 564.9 582.6, 553.5 581.6 C 538.2 580.3, 526 577.1, 526 574.3 C 526 572.8, 527.8 572.6, 530 574 C 530.9 574.5, 531.9 574.5, 532.7 573.8 C 533.5 573.2, 536.9 573, 542.2 573.5 C 546.8 573.9, 553.4 574.2, 557 574.2 C 560.6 574.2, 569 574.2, 575.8 574.2 C 595.3 574.1, 610.2 569.8, 605.8 565.4 C 603.9 563.4, 593.3 562, 594.4 563.9 C 594.8 564.5, 596.6 565, 598.3 565.1 L 601.5 565.1 597.6 566.7 C 594.2 568.1, 593.9 568.5, 595.6 569.1 C 597.1 569.7, 596.8 569.9, 594.3 569.9 C 592.6 570, 590.8 570.5, 590.5 571 C 589.7 572.3, 579.3 572.3, 578.5 571 C 578.1 570.3, 579.2 570, 581.7 570.1 C 586.1 570.4, 588 569.6, 588 567.4 C 588 566.6, 589 566, 590.3 565.9 C 595 565.8, 588.7 564.1, 583 564 L 577.5 563.9 581.8 560 C 584.2 557.8, 586.5 556.2, 587 556.5 C 587.4 556.8, 589.3 556.3, 591.1 555.4 L 594.5 553.9 591.2 554.4 C 587.6 555, 587.5 555.3, 592.1 548.5 C 600.3 536.2, 598.9 520, 587.8 498.3 C 583.5 489.8, 581.6 483.7, 582.5 481 C 583.7 477.2, 594.3 475, 610.9 475 C 625.5 475, 629.1 474.4, 639.8 470.3 C 643 469.1, 644 468.2, 644 466.5 C 644 463.1, 642.2 462.3, 633.9 461.8 C 625.1 461.2, 620.6 459.2, 617.5 454.2 C 616.4 452.5, 614.9 451.3, 614.2 451.5 C 613.4 451.8, 611.9 451.3, 610.7 450.5 C 608.9 449.2, 608.8 449, 610.3 449 C 611.2 449, 612 449.5, 612 450 C 612 450.6, 612.5 451, 613 451 C 614.5 451, 614.2 448.4, 612.5 447 C 611.5 446.2, 611 444, 611 440.7 C 611 433.9, 607.8 427.9, 600.6 421.4 C 597.3 418.4, 594.3 416, 593.8 416 C 593.4 416, 593 415.2, 593 414.2 C 593 412.4, 591.2 410, 589.9 410 C 589.5 410, 589.4 411.6, 589.7 413.5 C 590 415.4, 589.9 417, 589.4 417.1 C 588.9 417.1, 587.5 417.3, 586.3 417.4 C 585 417.6, 584 417.3, 584 416.9 C 584 416.5, 583 415.9, 581.8 415.7 C 580.5 415.5, 581.7 415.5, 584.4 415.8 C 588.9 416.2, 589.2 416.1, 588.5 414.4 C 588.1 413.3, 587.5 411.6, 587.3 410.5 C 586.6 407.2, 579 404.4, 579 407.4 M 361.3 409.5 C 360.6 410.3, 359.3 412.5, 358.4 414.4 L 356.7 417.9 360.8 421.9 C 368.9 429.9, 376.5 426.6, 374.4 416.1 C 373 409.5, 364.9 405.4, 361.3 409.5 M 704.7 415.3 C 705.3 415.9, 706 417.8, 706.4 419.5 C 706.8 421.1, 708.3 425, 709.7 428 C 716.1 442, 721.2 456.2, 725.4 471.5 C 725.7 472.6, 725.7 471.3, 725.4 468.5 C 724.6 459.9, 718.3 441.7, 711.1 427.1 C 708.9 422.6, 707.3 418.4, 707.6 417.9 C 707.9 417.3, 707.6 416.3, 707 415.5 C 705.5 413.6, 703.3 413.4, 704.7 415.3 M 565.4 418.1 C 553.2 422.8, 545.2 434.7, 544.2 449.6 C 543.7 458.3, 545.9 467.8, 548.2 466.4 C 548.7 466.1, 550.8 467.4, 552.8 469.3 C 557.1 473.4, 562.6 476.4, 569.2 478.2 C 573.5 479.3, 574.6 479.2, 580.2 477.1 C 583.7 475.8, 587.7 474.5, 589.3 474.3 C 590.8 474, 592 473.5, 592 473.1 C 592 471.8, 589.6 470, 587.8 470 C 583.6 470, 587.8 465.4, 593 464.3 C 601.1 462.7, 610.3 446.9, 608.1 438 C 605.8 428.2, 601.2 424.1, 587.4 419.4 C 576 415.6, 572.5 415.3, 565.4 418.1 M 737 435.1 C 737.1 456.8, 738.3 458.6, 739.7 439 C 740.8 424.8, 740.4 418.6, 738.4 416.9 C 737.2 415.9, 737 418.6, 737 435.1 M 709 418.7 C 709 419.3, 710.5 421.7, 712.3 424.1 C 723.4 438.8, 730.5 455.3, 731.6 469 C 732.4 478.9, 733.5 482, 734.6 477.6 C 735.9 472.3, 731.4 454.6, 725.8 443 C 722.1 435.3, 709 416.4, 709 418.7 M 574.1 431.1 C 568.6 433.5, 569.3 434.5, 575.4 432.9 C 581.7 431.3, 586.3 432.4, 589.5 436.2 C 592 439.1, 592.2 441.6, 589.8 439.2 C 587.8 437.2, 584.6 437.8, 580.8 441 L 577.2 444 579.5 448.9 C 583.6 457.3, 590.4 460.3, 595.6 455.9 C 598.7 453.3, 596.4 441.3, 591.6 435.3 C 586.6 429.1, 581.4 427.9, 574.1 431.1 M 675 451.7 C 679.5 456.5, 686.1 464.2, 689.6 468.9 C 693.1 473.6, 696.6 478.2, 697.3 479 C 698.1 479.8, 699.5 481.7, 700.4 483.1 L 702 485.7 692.3 485.4 C 681.3 485, 683.9 486.3, 696.6 487.5 C 704 488.2, 704.1 488.2, 707.6 492.8 L 711.2 497.5 698.3 497.8 C 683.3 498.1, 681.1 498.6, 685.9 500.6 C 688.2 501.5, 693.1 502, 701.6 502 C 709.2 502, 714.1 502.4, 714.5 503.1 C 715.6 504.7, 714.3 505.4, 708.7 506.1 C 703.8 506.8, 703.9 506.8, 710.5 506.7 C 718.7 506.5, 717.7 505.3, 724.7 524 C 729.3 536.4, 729.7 537.8, 727.7 535.8 C 725.3 533.4, 701 517.7, 700.5 518.2 C 700.2 518.5, 701.1 519.9, 702.4 521.3 C 703.7 522.7, 704.5 524.1, 704.2 524.4 C 703.9 524.7, 704.1 525, 704.7 525 C 705.2 525, 706.2 526, 706.7 527.3 C 707.3 528.5, 711.3 533.3, 715.5 538 C 723.1 546.4, 731 556.3, 731 557.5 C 731 557.9, 729.1 556.6, 726.8 554.7 C 720.2 549.5, 709.4 547.1, 705 550 C 703.9 550.7, 704.8 551, 708.1 551 C 722.1 551, 729.4 557.6, 735.9 575.9 C 737.8 581.3, 738.4 581.3, 740.1 576.2 C 741 573.5, 741 573.5, 740.6 576.5 C 740.4 578.2, 739.8 580.6, 739.4 581.9 C 738.9 583.5, 739 584.1, 739.7 583.7 C 741 582.9, 742 585.2, 742 589 C 742 590.6, 742.4 592.1, 742.9 592.4 C 744.5 593.5, 745 603.5, 743.7 610.9 C 742.5 617.8, 742.3 618.1, 741.2 615.6 C 740.5 614.1, 740 612.4, 740 611.7 C 739.9 611, 739.1 608.7, 738 606.5 C 736.9 604.3, 736.1 602.1, 736 601.7 C 735.9 599.4, 720 578.2, 720 580.4 C 720 580.7, 721.8 583.3, 724 586.2 C 728.5 592.1, 737 608.8, 737 611.6 C 737 613, 735.6 612, 731.7 607.9 C 725.8 601.6, 723.7 600.4, 716 598.7 C 710.6 597.5, 710.6 597.5, 708.8 592 L 707.1 586.5 707.3 594.7 C 707.4 599.2, 707.3 602.7, 707.1 602.5 C 706.9 602.2, 705.9 602.5, 704.8 603.1 C 702.9 604.1, 702.9 604.2, 704.7 605.5 C 705.7 606.2, 706.5 607.2, 706.6 607.7 C 706.6 608.1, 706.9 609.2, 707.3 610 C 707.6 610.8, 708.1 612.6, 708.3 614 C 708.6 615.4, 709.1 617.4, 709.4 618.5 C 710.3 621.4, 708.6 623.7, 706.7 622.2 C 704.7 620.5, 696.8 618.2, 690.1 617.4 C 681.8 616.4, 678.3 614.6, 676 610 C 673.3 604.8, 673.4 603, 676.3 603.5 C 681.3 604.4, 692.6 606.2, 694.3 606.3 C 695.2 606.4, 696 606.8, 696 607.2 C 696 607.6, 696.5 608, 697.1 608 C 697.7 608, 700.2 609.3, 702.6 611 C 706.8 613.8, 707 613.8, 705.3 611.6 C 703.2 608.8, 696.3 605, 693.1 605 C 692 605, 691 604.6, 691 604 C 691 603.5, 689.1 602.9, 686.8 602.9 L 682.5 602.7 686 602 C 688.7 601.4, 687.5 601.2, 681.2 601.1 C 673.6 601, 672.8 600.8, 670.7 598.4 C 665.1 591.7, 664.2 591.6, 666.3 597.8 C 667.7 601.8, 667.7 601.9, 665.8 600.9 C 664.7 600.3, 655.7 599.8, 644.7 599.7 C 627.4 599.5, 625.2 599.7, 622.8 601.4 C 619.3 603.7, 619.1 607, 622.3 607 C 623.5 607.1, 626.3 607.9, 628.5 609 C 630.7 610.1, 633.3 610.9, 634.3 611 C 637.7 611, 635.1 612.7, 629.6 613.9 C 626.5 614.6, 623.8 615.6, 623.5 616.1 C 622.6 617.4, 625.9 617.1, 630.5 615.5 C 635.5 613.7, 646 613.5, 646 615.2 C 646 615.8, 646.6 615.6, 647.3 614.7 C 648.7 612.7, 651.5 612.5, 661.3 613.6 C 668.8 614.4, 668.4 613.9, 669.4 623.5 C 669.7 626.3, 670.7 633.2, 671.5 639 C 673.3 652.1, 673.3 652, 671.6 652 C 670.8 652, 668.8 653.1, 667.2 654.5 C 664 657.1, 662.1 657.8, 663.7 655.8 C 665.3 653.8, 666.1 650.8, 664.9 651.5 C 664.3 651.9, 664.2 651.2, 664.6 649.3 L 665.3 646.5 662.7 648.9 C 659.7 651.6, 653.3 663.6, 654.3 664.6 C 655 665.4, 658 662.6, 658 661.1 C 658 660.5, 658.4 660, 659 660 C 659.5 660, 660.3 658.8, 660.6 657.4 L 661.3 654.7 662.7 657.5 L 664.2 660.2 666.3 658.2 C 668.7 656.1, 673 653.6, 673.4 654.2 C 673.8 654.7, 676 663.7, 676 664.9 C 676 665.5, 674.5 666, 672.8 666 C 671 666, 668.8 666.5, 668 667 C 666.3 668.1, 667 668.3, 672.1 668 C 676.5 667.8, 677.3 668.9, 679.4 677.1 C 681.6 685.9, 681.6 685.7, 676.8 686.6 C 672.2 687.4, 669.3 687.4, 644 686.6 C 624.6 686, 629 687.5, 650 688.6 C 667 689.5, 668.5 689.9, 663.8 692.7 C 654.2 698.4, 639.9 700.5, 621.6 698.9 C 614.4 698.3, 608.1 697.6, 607.6 697.3 C 607.1 696.9, 607 697.2, 607.3 697.7 C 608.3 699.3, 600.1 701, 591.2 701 C 582.6 701, 574 698.7, 574 696.4 C 574 695.4, 572.8 695, 570.2 695 C 568.1 695, 561.9 694.3, 556.4 693.5 C 551 692.7, 545.9 692, 545.3 692 C 543 692, 543.9 690.2, 547.3 688.1 C 551.1 685.6, 550.1 685.4, 545.4 687.6 C 538.5 690.9, 507.3 686.7, 501.2 681.7 C 499.8 680.6, 507.8 676, 511.3 676 C 512.3 676, 514 675.5, 515.1 674.9 C 516.2 674.3, 521 673.9, 525.8 673.9 C 531.7 673.9, 534 673.6, 533 673 C 532.2 672.5, 530.5 672, 529.4 672 C 528.2 672, 526.7 671.3, 525.9 670.4 C 522.6 666.5, 530.1 662.8, 545 661.2 C 550.2 660.6, 563.5 659.2, 574.5 658 C 585.5 656.9, 596.3 655.6, 598.5 655.1 C 601.6 654.3, 604.1 654.6, 609.5 656.1 C 614.6 657.5, 619.7 658, 628.3 658 C 639.6 658, 640.2 658.1, 639.7 659.9 C 639.2 662, 641.5 663.6, 642.5 662 C 642.9 661.4, 642.6 661, 642.1 661 C 640.6 661, 640.7 657.9, 642.5 653.7 C 643.3 651.7, 644 649.6, 644 649 C 644 647.2, 642 649, 641 651.6 C 640.1 654, 640 654, 625.8 653.9 C 611.3 653.9, 604.2 652.6, 604.8 650.1 C 604.9 649.3, 604.2 649, 602.8 649.2 C 601.3 649.4, 600.6 650.1, 600.8 651.3 C 601.1 652.8, 600 653, 589 653 C 577.6 653, 576.5 652.8, 570.4 649.9 C 566.8 648.3, 562.9 647, 561.7 647.2 C 560 647.5, 560.8 648.2, 565.3 650.3 C 574.2 654.6, 573.6 655, 555.5 657 C 531.5 659.6, 522 662.3, 522 666.6 C 522 667.8, 522.5 669.2, 523 669.5 C 526 671.3, 523.4 672.6, 514.8 673.7 C 509.7 674.3, 504.7 675.1, 503.8 675.5 C 502.4 676, 502 675.7, 502 674.1 C 502 671.5, 507.6 668.5, 514.3 667.5 C 521.3 666.4, 521.7 664.5, 514.7 665.3 C 506 666.4, 500.6 669.7, 500.2 674.2 C 500 676.2, 499.2 678.4, 498.5 679 C 493.1 683.5, 507 689.3, 529 692 C 534.2 692.6, 541.9 693.9, 546 694.9 C 550.1 696, 557.2 697.1, 561.7 697.5 C 568 698, 571.1 698.8, 574.7 700.8 C 579.2 703.3, 580.2 703.5, 591.5 703.4 C 598.1 703.3, 612.3 703.2, 623 703.2 C 645.9 703.1, 654.3 701.4, 665 695.1 C 672.7 690.5, 681.9 687.4, 682.5 689.3 C 691.5 716.5, 692.2 719.7, 689.3 718.5 C 688.3 718.1, 686.2 717.3, 684.5 716.8 C 682.9 716.3, 679.9 715.1, 678 714.2 C 668 709.8, 661.9 707.8, 656.5 707.5 C 653.2 707.2, 650.4 706.6, 650.2 706 C 649.8 705, 647 704.5, 647 705.5 C 647 706.9, 649.4 710.9, 650 710.5 C 650.4 710.2, 654.4 713.7, 658.7 718.3 C 673.3 733.3, 676.7 737.7, 687.4 755.3 C 691.7 762.3, 695.8 768, 696.6 768 C 698.6 768, 698.6 768, 692.7 757.7 C 682 739.3, 676 731.2, 662.1 716.6 C 658.5 712.9, 657.2 710.9, 658.5 711.3 C 663.4 712.7, 672.1 716.1, 679.7 719.4 C 684.2 721.4, 688.7 723, 689.8 723 C 692.1 723, 693.4 726.2, 697.4 742.5 C 702.5 763.2, 704.2 768, 706.9 768 C 708.7 768, 709.1 767.6, 708.5 766.3 C 705.8 759.4, 695.6 724, 694.5 717.5 C 693.8 713.4, 691.4 705, 690 701.5 C 685.8 691.5, 676.1 652.1, 673.5 634.5 C 667.8 596.1, 670 593.9, 677.9 630 C 679.1 635.7, 681.1 642.8, 685 656 C 690.4 674.1, 692.8 683.4, 696.5 702 C 697.9 708.9, 699.5 716.1, 700 718 C 700.5 719.9, 702.6 727.5, 704.5 734.8 C 706.5 742.1, 709.8 751.5, 711.9 755.8 C 714.1 760, 716.1 764.5, 716.5 765.8 C 716.9 767.3, 717.9 768, 719.6 768 C 722.7 768, 722.6 766.6, 719 760.5 C 711.9 748.3, 707.4 736.6, 702.6 717.2 C 700.4 708.5, 700.5 707.9, 704.4 704.8 C 707.6 702.2, 713 691.3, 713 687.3 C 713 684.5, 714.1 686.6, 715.6 692.5 C 716.4 695.6, 718.5 700.4, 720.2 703.2 C 723.2 708.1, 723.3 708.3, 721.4 709.6 C 713.5 715, 706.1 720.6, 706 721.3 C 706 723, 709 721.7, 715.5 716.9 C 719.3 714.2, 724.4 711.4, 726.7 710.7 C 731.6 709.4, 732.1 708.5, 728.6 707.6 C 723.9 706.4, 719.8 697.9, 718.5 686.7 L 717.8 680.9 722.5 676.4 C 727 672.1, 732.7 668, 734.2 668 C 734.6 668, 735.7 670.6, 736.6 673.8 C 738.4 680.1, 739.6 682, 741.6 682 C 742.8 682, 742.7 681.4, 741.3 678.8 C 737.5 671.4, 739 637.6, 744 621.5 C 748.4 607.3, 749.7 603.7, 752.3 598 C 754 594.5, 757.8 587.8, 760.8 583.2 C 765 577, 766.1 574.7, 765.2 573.8 C 763.8 572.4, 764.1 572.1, 760.5 578.5 L 757.7 583.4 755.5 577.7 C 753.2 571.6, 749.9 566.8, 749.3 568.7 C 749.1 569.3, 750.3 573.1, 751.9 577 C 755.7 585.8, 755.7 586, 751.7 593.8 L 748.4 600.1 747.2 592.8 C 743.8 573.3, 741.8 563.3, 741 561 C 740.5 559.6, 739.2 555.1, 737.9 551 C 730.8 526.8, 717.3 498.6, 707.8 488.1 C 703.3 483.1, 696.3 474.6, 691.2 467.8 C 688.8 464.7, 685.9 461.1, 684.7 459.8 C 679.7 454.6, 679.8 453.8, 685 458.1 C 688 460.6, 692.4 465.1, 694.8 468.1 C 697.1 471.1, 701.3 476, 704 479.1 C 706.7 482.1, 710.6 486.7, 712.6 489.3 C 716.4 494.2, 718 495.1, 718 492.5 C 718 491.6, 719.1 490.5, 720.4 490 C 722.6 489.2, 722.7 488.8, 722 484.8 C 720.6 477.4, 719.2 471.9, 718.7 471.3 C 717.5 470.2, 716 472.2, 716 474.8 C 716 476.3, 714.9 478.8, 713.7 480.4 L 711.3 483.3 703.8 473.9 C 696 464.1, 687.1 455.7, 676.1 447.7 C 666.4 440.5, 665.9 442.1, 675 451.7 M 85.3 454.3 C 80.8 458.9, 71.1 473.7, 69.1 479.1 C 67.6 483, 66.9 484.6, 63.9 491.5 C 62.7 494.2, 61.7 497.6, 61.6 499 C 61.6 500.4, 61.3 501.7, 61 502 C 60.7 502.3, 59.4 505.7, 58.1 509.5 C 56.8 513.4, 55.3 517, 54.9 517.6 C 52.2 521, 42.1 551.9, 40.6 561 C 39.7 566.9, 42.2 561.2, 46.4 548 C 48.5 541.7, 50.5 535.7, 51.1 534.8 C 51.6 533.8, 52 532.6, 52 532 C 52 531.2, 56.1 520, 59.9 510.5 C 65.4 497, 67.3 491.4, 67.6 488.8 C 68 485.6, 76.9 466.6, 77.7 467.4 C 77.9 467.6, 77.3 469.8, 76.2 472.2 C 74.4 476.1, 72.6 481.3, 69.8 490.8 C 69.1 493.2, 69.1 494.5, 69.9 495.3 C 70.7 496.1, 71 495.8, 71 494.2 C 71 493.1, 71.4 491.1, 71.9 489.8 C 72.4 488.5, 73.8 484.5, 74.9 480.8 C 77.1 473.9, 84.2 459, 88 453.3 C 90.9 448.9, 90.2 449.2, 85.3 454.3 M 606 456.2 C 604.6 459.2, 602 462.4, 599.8 464.1 C 595.3 467.3, 595.2 467.2, 607.3 469.1 C 615.9 470.4, 627.1 469.8, 634 467.7 L 638.5 466.4 630.5 464.6 C 625.8 463.5, 621.2 461.8, 619.3 460.3 C 616.1 458, 616 458, 616 459.9 C 616 464.8, 612 461.8, 609.8 455.3 L 608.4 451.1 606 456.2 M 197 460.1 C 197 460.7, 196.3 461, 195.5 460.6 C 194.3 460.2, 194.1 460.6, 194.6 462.8 C 196.9 472.1, 211.1 484.9, 219.1 485 C 221.7 485, 225 490.1, 227.5 497.9 C 229.5 504.3, 243.1 518, 247.5 518 C 249 518, 253.5 523.2, 253.2 524.6 C 252.3 528.6, 261.8 532, 274 532 C 287.6 532, 299.4 527.4, 308 518.7 C 317.5 509.2, 317.5 505, 308 503.6 C 303.4 502.9, 302.9 502.6, 284.8 487.4 C 274.9 479.1, 272.2 477.9, 261.6 477 C 256.6 476.6, 249.7 475.5, 246.2 474.6 C 240.7 473.1, 239.7 473.1, 237.8 474.4 C 236.4 475.4, 235.2 475.6, 234.1 474.9 C 233.2 474.4, 227.6 472.4, 221.5 470.5 C 210.2 466.8, 200 462.4, 200 461 C 200 460.6, 199.3 460, 198.5 459.6 C 197.7 459.3, 197 459.5, 197 460.1 M 197 462.3 C 197 463.7, 203.3 472, 204.4 472 C 205 472, 204.9 471.5, 204.2 470.8 C 202.7 469.3, 202.6 468, 204 468 C 204.5 468, 205.2 469.1, 205.6 470.5 C 206.2 472.9, 210 476.5, 216.4 480.6 L 219.3 482.4 218.6 477.5 C 217.6 471.4, 216.9 470.4, 212.5 469.6 C 210.6 469.2, 207.8 468.3, 206.3 467.5 C 204.2 466.4, 203.4 466.3, 202.7 467.3 C 202 468.2, 201.7 468.2, 201.3 467.3 C 200.6 465.4, 197.1 461.4, 197 462.3 M 548 469.6 C 548 470.1, 548.4 471, 548.8 471.6 C 552.3 475.5, 555.2 497.6, 553.1 503.3 C 551.9 506.5, 549.7 506.5, 549.2 503.3 C 548.9 501.6, 547.1 500.6, 540.2 498.4 C 535.4 496.9, 530.8 495.3, 530 494.9 C 521.5 490.3, 504.2 488.1, 495 490.5 C 488.2 492.2, 475.8 499.7, 473.9 503.2 C 471.9 507, 465.9 505.4, 458.1 499.2 C 454.9 496.6, 454 496.2, 454.9 497.8 C 455.5 498.9, 456.4 500.2, 457 500.5 C 457.5 500.8, 457.7 501.7, 457.4 502.4 C 456.6 504.6, 461.5 513.3, 465.5 516.9 C 469.1 520, 481.9 527, 484.1 527 C 484.7 527, 485 526.3, 484.6 525.5 C 483.8 523.4, 484.6 523.6, 490.2 527 C 495.9 530.6, 501.1 531.8, 513.5 532.4 C 518.4 532.6, 522.6 533.3, 522.8 533.9 C 523 534.5, 524.4 534.7, 526.1 534.3 C 528.7 533.8, 529.1 534, 528.8 535.5 C 528.4 537.8, 533.9 539.2, 537.9 538 C 544 536.1, 546.4 535.8, 545.3 537.2 C 543.5 539.3, 535.4 541.3, 531.3 540.6 C 529.2 540.2, 522.1 539.6, 515.5 539.1 C 501.5 538, 495.9 536.3, 490.8 531.3 C 487.7 528.3, 486.7 527.9, 484.3 528.5 L 481.5 529.2 484.3 531.5 C 489.1 535.7, 487.1 536.2, 479.8 532.6 C 474.1 529.8, 474.1 529.8, 478.3 535.7 C 483.7 543.3, 490 549.9, 492.3 550.2 C 493.5 550.4, 494.4 551.1, 494.3 551.8 C 494.1 552.4, 494.3 552.9, 494.8 552.9 C 496.5 552.6, 497.8 553.1, 500 555 C 501.3 556.1, 503.6 557, 505.2 557 C 506.9 557, 508.3 557.6, 508.7 558.6 C 509 559.4, 509.9 559.9, 510.6 559.6 C 511.5 559.3, 512 559.8, 512 560.9 C 512 562.3, 513.7 563.3, 518.6 565 C 524.7 567, 526.6 567.2, 542.9 566.8 C 560.6 566.4, 561.7 566.2, 571 561.7 C 575.9 559.4, 584 552.8, 583.3 551.6 C 583 551, 583 550.8, 583.5 551.2 C 585.9 553.4, 592.3 540.5, 592.8 532.4 C 593.4 523.5, 590.8 514.6, 583.4 499.5 C 579.9 492.3, 577 485.8, 577 485.1 C 577 484, 576.6 484, 574.8 485.1 C 572.2 486.7, 564.6 486.5, 567.1 484.9 C 568.1 484.3, 567.8 484, 565.7 484 C 564.1 484, 562.2 483.3, 561.4 482.5 C 560.5 481.7, 560.3 481, 560.9 481 C 561.4 481, 562.2 481.5, 562.5 482 C 562.8 482.6, 564.2 483, 565.6 483 C 566.9 483, 568 482.6, 568 482 C 568 481.5, 567.1 481, 565.9 481 C 562.4 481, 557.4 478.1, 552.6 473.2 C 550.1 470.7, 548 469, 548 469.6 M 130.5 475.1 C 127.8 475.7, 128 475.8, 132 476 L 136.5 476.1 130.5 478.6 C 127.2 480, 123.7 481.3, 122.6 481.7 C 110.5 485.7, 91.6 498.5, 79.3 510.9 C 73.7 516.7, 68.8 521.1, 68.5 520.8 C 67.3 519.6, 72.3 505.8, 76.1 500 C 84.9 486.4, 96 478.8, 112 475.6 C 113.4 475.3, 112.2 475.3, 109.3 475.5 C 91.1 476.9, 71.7 494.1, 67 513 C 65.9 517.7, 64.5 523.1, 64 525 C 63.5 526.9, 62.8 531.2, 62.4 534.5 C 62.1 537.8, 61.4 541, 61 541.5 C 60.2 542.7, 58.1 549.3, 55.1 560 C 54 564.1, 51.3 571.8, 49.2 577 C 44.1 589.5, 42.2 598.8, 41.6 614.1 C 41.3 621, 40.5 629, 39.9 632 C 39.2 635.2, 39 641.8, 39.3 648.4 C 39.7 657.3, 39.3 661.8, 37.5 671.5 C 35.1 684.3, 33.3 707, 35.2 701.5 C 35.7 699.9, 36.8 694.7, 37.6 690 C 39.3 679.3, 40.7 672.5, 42 668 C 46.9 651, 50.1 641.5, 53.6 633.5 C 54.3 631.9, 55.9 628, 57 625 C 59.5 618.5, 72.6 593.2, 74.6 590.9 C 75.4 590.1, 76 589, 76 588.6 C 76 588.1, 80.3 580.7, 85.5 572 C 90.7 563.4, 95.3 555.4, 95.6 554.4 C 96.7 551.4, 83.8 569, 80.9 574.5 C 76.4 583.2, 73.6 588.2, 67.6 598.3 C 61.5 608.7, 53.7 624.7, 46.2 642.5 C 40.9 655, 40 654.4, 42 639.5 C 42.7 634.6, 43.6 623.1, 44 614 C 44.4 604.9, 45.3 595.5, 45.9 593 C 47.2 587.9, 53 572, 54 570.5 C 54.9 569.2, 58.2 559.5, 60.6 550.9 C 61.9 545.9, 62.8 544.4, 64 544.7 C 64.8 544.9, 66.8 543.7, 68.4 542.1 C 71.9 538.5, 69.9 537.7, 65.7 541 L 63.1 543.1 63.7 539.3 C 64.7 532.8, 66.4 529.8, 75.3 519.5 C 83.5 509.9, 91.4 502.8, 101 496.3 C 106 493, 119.9 485, 120.7 485 C 121 485, 117.7 488.7, 113.4 493.3 C 104.6 502.4, 88.8 521.9, 82 532 C 79.6 535.6, 75.1 541.9, 71.9 546 C 58.7 563.5, 51.4 584.6, 49.1 611.8 C 47.6 630.5, 50 634.5, 51.9 616.5 C 54 598.1, 66.4 576.9, 91.9 548.5 C 95.5 544.5, 105.9 535, 103.9 537.5 C 99.9 542.6, 100.4 543.3, 105.2 539.2 C 107 537.6, 110.2 535.3, 112.4 534 L 116.2 531.7 115 534.1 C 114.3 535.4, 110.9 540.6, 107.5 545.5 C 104 550.5, 99.8 557.3, 98.1 560.7 C 96.4 564.1, 92.5 571.1, 89.4 576.2 C 83.9 585.2, 60.9 629.8, 58.1 637 C 57.3 638.9, 55.9 642.4, 54.9 644.7 C 53.8 647, 53 649.5, 53 650.2 C 53 651, 52.6 652, 52.2 652.6 C 50.8 654.1, 47.2 665.3, 43 681 C 39.9 692.7, 36.1 720.6, 36 732 C 36 737.9, 38.2 758.3, 39.6 765.3 C 40.5 769.8, 43.3 768.8, 42.7 764.3 C 40.3 748.3, 39.8 740.9, 40.3 725 C 40.7 715.4, 41.4 705.9, 41.9 704 C 42.5 702.1, 43.4 697.1, 43.9 693 C 45.8 679.5, 47.3 673.4, 52.7 657 C 55 650.1, 56.1 647.5, 60.7 637 C 62.8 632.1, 74.1 609.7, 75 608.5 C 75.4 608, 78 603.2, 80.7 598 C 85.6 588.7, 87.5 585.3, 92.8 576 C 96.7 569.3, 104.4 558.2, 103.6 560.5 C 103.2 561.6, 100.9 568.1, 98.5 575 C 87.4 607, 86.2 610.1, 76.5 630.5 C 67.1 650.4, 64 659.1, 59.1 679.5 C 57.4 686.7, 55.5 694.3, 54.9 696.5 C 52.9 703.6, 52.5 768, 54.4 768 C 55.8 768, 56 765.2, 56 743.8 C 56 719.6, 58 698.9, 61 692 C 62.2 689.2, 62 693, 60 717.5 C 58.8 731.9, 59.4 764.1, 60.9 766.9 C 62.2 769.1, 63 751.1, 63.5 714.5 C 63.8 689.3, 64.2 681.5, 65.1 681.5 C 67 681.5, 67.3 679.1, 65.5 678.4 C 63.6 677.6, 64 674, 66.9 664.4 C 68.7 658.8, 69 658.5, 72.1 658.2 C 78.1 657.7, 78.8 656.9, 74.8 655.3 C 70.6 653.6, 70.3 652.5, 72.6 646.4 C 73.7 643.4, 75.1 641.8, 77.7 640.6 C 80.9 639.1, 81.1 638.8, 79.5 637.6 C 77.9 636.4, 77.9 636.1, 79.4 633.2 C 82.9 626.5, 84.2 630.2, 82 640.7 C 81.5 643.3, 80.6 651.1, 80 658 C 79.5 664.9, 78.3 677.7, 77.5 686.5 C 73.1 732.6, 72.4 743.2, 74.2 737 C 76.7 728.2, 80.1 698.1, 82 669.5 C 82.5 661.3, 83.4 650.2, 84 645 C 84.6 639.8, 85.5 631.5, 86 626.6 C 87.2 615.2, 89.6 612, 88.6 623 C 88.3 627.1, 87.7 644.7, 87.4 662 C 86.5 710.2, 86 715.3, 78.8 741 C 76.6 749, 74.4 757.5, 73.9 760 C 73.4 762.5, 72.7 765.3, 72.4 766.3 C 72.1 767.4, 72.4 768, 73.4 768 C 74.8 768, 77 762.6, 77 759 C 77 757.5, 80.3 746.4, 87 725.3 C 94.3 702.4, 107.9 674.1, 117.7 661.3 C 132.7 641.7, 167.5 611.1, 176.8 609.4 C 181.4 608.5, 188 610.7, 188 613.2 C 188 614.2, 187.5 615, 186.9 615 C 181.5 615, 162.1 627.9, 154.2 636.7 C 133.6 659.6, 122.9 673.6, 115.8 687.1 C 104.2 708.9, 103.6 710.2, 98.1 726.5 C 95.9 733.2, 92.1 743.3, 89.6 749 C 85.1 759.4, 83.7 761, 86.4 752.8 C 87.2 750.4, 89.5 743.1, 91.5 736.5 C 98.7 713.7, 101.8 704.2, 104.5 697.6 C 109.4 685.3, 106.1 689.7, 100 703.5 C 98.7 706.3, 85.6 746.7, 81.6 759.9 C 80.7 762.8, 80 765.9, 80 766.6 C 80 769.3, 83.8 768, 86.6 764.3 C 88.1 762.3, 90.8 759.2, 92.6 757.3 C 94.4 755.4, 95.7 753.3, 95.4 752.5 C 94.7 750.7, 114.6 730.1, 121.7 725.4 C 128.1 721.2, 143.3 713.5, 147.2 712.5 C 150.1 711.8, 152.7 709.4, 151.7 708.4 C 150.2 706.9, 126.8 718.1, 117.8 724.6 C 115.1 726.5, 113 727.4, 113 726.8 C 113 726.1, 112.2 726.9, 111.3 728.7 C 110.3 730.4, 106.5 735, 102.8 739 L 96.1 746.3 97.5 741.2 C 103.2 720.9, 106.2 713.3, 114.7 697 C 122.9 681.3, 130.7 668.7, 132 669.2 C 132.5 669.4, 134.3 671.7, 136.2 674.5 C 138 677.2, 141 680.4, 142.8 681.5 C 151.4 686.7, 154.5 689.6, 155.4 693.3 C 156.4 697.2, 157.4 698, 158.4 695.5 C 159.6 692.2, 175 697.3, 175 700.9 C 174.9 705.1, 172.9 717.8, 172 720.1 C 170.9 722.6, 166.3 725, 162.6 725 C 157.4 725, 141.6 729.8, 134.2 733.6 C 121 740.4, 91.9 766.9, 96.6 767.9 C 97.7 768.1, 101.8 764.6, 108.4 757.7 C 119.7 746, 124.9 741.7, 133.3 737 C 139.4 733.6, 161 725.7, 161.9 726.6 C 162.5 727.2, 158.9 730.2, 150.6 736.2 C 141.6 742.8, 138.2 745.9, 140.2 746 C 141.1 746, 147.1 742.1, 153.5 737.4 C 166.6 727.6, 172.3 724.9, 172.8 728.1 C 173 729.1, 173.7 730, 174.5 730 C 175.2 730, 176.1 730.6, 176.3 731.3 C 176.7 732, 176.9 731.9, 176.9 730.8 C 177 729.8, 178.2 728.9, 180 728.5 C 181.7 728.1, 183 727.4, 183 726.9 C 183 725.7, 181.3 725.8, 178.8 727.1 C 175.8 728.7, 175.6 727.8, 177.4 720.7 C 178.3 717.1, 179.3 709.9, 179.7 704.6 C 180 699.3, 180.6 695, 181 695 C 181.9 695, 183.5 704.4, 183.2 708 L 183 710.5 184 708.2 C 184.5 706.9, 185.4 706.1, 186 706.5 C 186.6 706.9, 186.5 707.8, 185.7 709.1 C 184.7 710.8, 184.8 711.3, 186.3 712.4 C 188.5 714.1, 188.5 716, 186.3 716 C 184.8 716, 184.8 716.1, 186.4 717.9 C 187.4 719, 187.8 720.4, 187.3 721.6 C 186.7 723.3, 186.8 723.3, 188.3 722.1 C 189.3 721.3, 189.8 720, 189.5 718.9 C 189 717.6, 189.4 717.2, 191 717.3 C 192.3 717.4, 192.9 717.9, 192.5 718.8 C 192.2 719.5, 192 720.8, 192 721.6 C 192 722.4, 191.1 723, 190 723 C 188.9 723, 188 723.5, 188 724 C 188 724.6, 187.5 724.9, 186.9 724.8 C 186.3 724.6, 185.5 725.1, 185.3 725.9 C 184.9 726.8, 185.3 727, 186.9 726.5 C 190.2 725.5, 189.4 727.4, 184.4 732.9 C 179.1 738.7, 170.9 743.1, 161 745.6 C 152.8 747.5, 146 750, 146 751 C 146 755.5, 168.5 749.6, 180.9 742 C 189.3 736.8, 195.4 726.4, 203 704.5 L 207.2 692.5 206.6 700 C 204.7 723.2, 199.8 738.1, 191 747.4 C 185 753.7, 184.8 754.7, 189.8 751.7 C 194.8 748.8, 195.4 748.1, 198.8 741.9 C 205.3 729.6, 207.7 719.7, 208.8 700.6 C 209.9 682.7, 208.6 674.1, 206.6 685 C 205.7 689.9, 202.7 699, 202 699 C 201.7 699, 200.6 697.7, 199.7 696 C 197.9 692.9, 192 688.2, 192 689.8 C 192 690.3, 192.7 691.4, 193.6 692.1 C 196 694.1, 200 700.7, 200 702.6 C 200 705.6, 197.8 711.6, 195.8 714.1 C 194.1 716.2, 194 716.2, 194.9 714.3 C 196.4 711.4, 196.7 712.1, 190.4 704 C 187.4 700, 183.5 694.3, 181.8 691.1 C 180.2 688, 178.1 684.7, 177.2 683.8 C 174.3 680.4, 173.8 682, 176.4 686.6 C 177.8 689.2, 179 692, 179 692.9 C 179 693.7, 177.9 692.5, 176.6 690 C 174 685.1, 168 677.6, 167.3 678.3 C 167.1 678.6, 168.2 681.2, 169.8 684.1 C 174 691.6, 174.8 694.5, 172.3 693.2 C 171.3 692.6, 168 691.9, 164.9 691.5 C 160.2 690.9, 158.8 690.3, 157 687.9 C 155.8 686.2, 151.8 683, 148.1 680.6 C 142.1 676.7, 138 672.5, 138 670.2 C 138 669.8, 141.3 669.8, 145.3 670.1 C 149.2 670.5, 154.3 670.9, 156.5 670.8 L 160.5 670.8 157 669.9 C 155.1 669.5, 149.6 668.8, 144.8 668.4 C 134.9 667.6, 133.9 666.7, 137.8 662.2 L 140.5 659.2 160.5 658.6 C 179.5 658, 186.6 657.1, 204.7 652.9 C 211.3 651.4, 214.8 648.1, 213.2 644.8 L 212.1 642.5 212.1 644.7 C 211.9 649.5, 200.5 653.1, 176.5 656.1 C 164.9 657.5, 142 658.3, 142 657.3 C 142 654.9, 144.8 654, 152 654 C 176.7 654, 200 648.8, 200 643.2 C 200 640.8, 186 637.2, 169.3 635.4 C 165.8 635, 163 634.4, 163 634 C 163 633.2, 170.2 628, 171.3 628 C 171.7 628, 174.7 626.2, 178 623.9 C 184.5 619.5, 190.9 617.9, 193.4 620 C 194.3 620.6, 195.5 620.8, 196.1 620.4 C 197 619.9, 197.1 620.2, 196.7 621.4 C 196.3 622.4, 196.6 623.3, 197.6 623.7 C 199.7 624.5, 200.5 623.3, 199 621.5 C 197.8 620.1, 200.7 618.1, 204.3 618 C 206.1 617.9, 197.8 615, 195.8 615 C 194.9 615, 193.8 614.1, 193.5 613 C 192.4 609.4, 176.9 601.8, 175.5 604 C 175.2 604.5, 175.6 605.1, 176.2 605.3 C 176.9 605.6, 176.3 605.9, 174.8 605.9 C 173 606, 171 607.2, 169 609.4 C 163.6 615.3, 157.3 618, 148.6 618.1 C 137.1 618.2, 133.3 619.8, 144.3 619.9 C 149.1 620, 153 620.4, 153 620.8 C 153 621.5, 134.6 638.2, 128.4 643.3 C 126.2 645, 126 644.9, 121.8 642.2 C 114.3 637.1, 105.5 634.7, 97.8 635.5 L 91 636.1 91.1 628.3 C 91.3 609.5, 92.2 607.4, 101.8 603.6 C 104.4 602.6, 107.9 601.2, 109.5 600.5 C 119.1 596.4, 124.5 595.5, 139.6 595.5 C 149.4 595.5, 155.2 595.9, 156.1 596.6 C 156.9 597.3, 159.1 598.1, 161 598.4 C 164.3 599, 164.2 598.9, 159.5 596.5 C 149.2 591.2, 131 590.8, 116.9 595.4 C 107.5 598.5, 96.9 602.9, 95.1 604.3 C 91.8 607, 96.9 587.1, 103.9 569.7 C 104.5 568.1, 106 564, 107.1 560.7 C 108.2 557.3, 110.5 551.7, 112.1 548.2 C 113.7 544.7, 115 541.4, 115 540.8 C 115 536.1, 123.8 527, 128.4 527 C 130.1 527, 130.5 526.4, 130.6 523.5 C 130.7 519.5, 129.6 519.2, 126 522 C 124.6 523.1, 123.1 524, 122.7 524 C 122.2 524, 118.9 525.4, 115.3 527 C 111.8 528.7, 108.4 530, 107.9 530 C 107.4 530, 107 530.5, 107 531 C 107 531.6, 106.7 531.9, 106.3 531.9 C 103.3 531.4, 101.6 532.1, 103 533.1 C 104.1 533.9, 103.8 534, 101.5 533.6 C 99.3 533.1, 98.9 533.2, 100 533.9 C 101.6 535, 100.9 535.9, 94.6 540.8 C 93 542, 89.5 545.8, 86.8 549.2 C 78 560.4, 70.6 569, 70.2 568.5 C 69.6 567.9, 76.7 556.4, 81.6 550 C 86.3 543.9, 88.7 541.5, 94.3 538.1 C 96.4 536.8, 97.9 535.6, 97.7 535.3 C 96.7 534.4, 92 536.3, 92 537.6 C 92 538.4, 91.4 538.7, 90.5 538.4 C 89.7 538, 89 538.3, 89 539 C 89 539.7, 88.3 540, 87.5 539.6 C 85.8 539, 78.8 545.4, 79.2 547.3 C 79.3 548, 77.7 551.1, 75.6 554.4 C 73.5 557.6, 70 563.5, 67.8 567.6 C 61.5 579.3, 60.3 579.1, 65.2 567.2 C 71 553.2, 81 538.4, 88.3 533.3 C 95 528.5, 115.8 521, 122.4 521 C 125.6 521, 128 520, 128 518.8 C 128 516.4, 103.1 521.5, 94.2 525.7 C 92.4 526.6, 90.7 527.1, 90.5 526.8 C 89.6 525.9, 108.9 502, 117.5 493.4 C 127.4 483.6, 133.4 480, 141.2 479.2 C 144.2 478.9, 145.9 478.3, 145.7 477.6 C 145.2 476.1, 134.2 474.3, 130.5 475.1 M 225.5 478.3 C 226.4 479.8, 230.3 483.3, 234.1 486.1 C 243.3 492.9, 242.9 493.8, 233.1 488.2 C 229.3 486, 228.9 485.9, 229.9 487.6 C 231.7 490.8, 233.4 492.5, 236 493.8 C 237.4 494.5, 237.7 494.8, 236.8 494.6 C 235.8 494.3, 235 494.5, 235 495 C 235 496.7, 245.7 503, 248.7 503 C 249.4 503, 250 503.5, 250 504 C 250 505.3, 247.1 505.3, 243.1 503.9 C 238.4 502.3, 238.2 503.5, 242.7 506.3 C 246.7 508.8, 256.2 512, 260.2 512.1 L 262.5 512.1 260 513.1 C 258.6 513.7, 256 513.9, 254.3 513.6 C 252.5 513.4, 251 513.5, 251 514 C 251 514.4, 253.8 515.1, 257.3 515.4 C 269.3 516.7, 271.7 517.2, 269.5 518.1 C 268.4 518.5, 265.3 518.6, 262.5 518.3 C 255.5 517.5, 257.8 519.6, 266.7 522.1 C 271.6 523.5, 275.2 523.9, 279.5 523.4 C 283.9 523, 285.1 523.1, 284 523.9 C 283.2 524.5, 281.5 525, 280.3 525 C 279.1 525, 277.8 525.5, 277.5 526 C 276.1 528.3, 287.7 525.9, 298.6 521.7 C 303.4 519.8, 305.4 518.3, 309.3 513.5 C 315 506.4, 315.1 505.8, 310.3 506 C 308.2 506.1, 305.8 506.2, 304.9 506.1 C 302.8 506, 294.6 499.9, 287.7 493.3 C 276.5 482.6, 263.6 477.8, 252 480 C 245.1 481.3, 233.3 479.7, 225.6 476.5 C 223.8 475.7, 223.8 475.8, 225.5 478.3 M 759.3 479.3 C 758.7 480.5, 757.5 483.3, 756.6 485.5 C 753.8 492.1, 753.6 492.4, 748.6 494.8 C 741.6 498.2, 735.7 498.6, 728.1 496.1 C 721 493.8, 719.4 493.9, 723.4 496.5 C 724.8 497.5, 726 498.6, 726 499.1 C 726 500.4, 722.6 500.2, 721.2 498.8 C 719.2 496.8, 718.7 498.7, 720.5 501.4 C 721.5 502.8, 723.1 504, 724.1 504 C 725.1 504, 726.4 504.8, 726.9 505.8 C 727.9 507.4, 727.9 507.3, 728 505.5 C 728 503.7, 729.2 503.2, 737.1 501.7 C 742.1 500.8, 748.1 499.1, 750.5 498 C 755 495.9, 754.6 496.6, 759.8 482.2 C 761.4 477.7, 761 475.5, 759.3 479.3 M 677.7 479.2 C 675.7 479.8, 672.6 481.6, 670.8 483.2 C 667.7 486.1, 667.6 486.3, 669.5 487.6 C 670.6 488.4, 673.3 489.5, 675.5 490 C 677.7 490.6, 680.9 491.4, 682.5 491.9 C 688.7 493.9, 697.3 494.2, 701 492.6 C 704.5 491.1, 704.5 491.1, 695.7 491 C 681.9 491, 669.4 486.9, 673 483.7 C 674.8 482, 682.4 479.3, 686.5 478.7 C 688.8 478.4, 688.6 478.3, 685.5 478.3 C 683.3 478.2, 679.8 478.7, 677.7 479.2 M 256.6 482.5 C 255.7 483.8, 255 485.4, 255 485.9 C 255 489.7, 267.3 502.5, 276.1 507.8 C 282.1 511.5, 281.8 510.3, 275.5 505.6 C 265.9 498.6, 257.8 489.6, 258.2 486.3 C 258.4 484.7, 259 483.6, 259.5 483.6 C 260.1 483.7, 262.2 484.1, 264.3 484.4 C 268.8 485.2, 269.5 483.3, 265 482.3 C 263.3 482, 261.7 481.4, 261.4 480.9 C 260.4 479.3, 258.2 480, 256.6 482.5 M 748.2 504.8 C 748.9 506.3, 749.8 508.1, 750.3 508.7 C 751.6 510.5, 755 528.8, 754.9 533.5 L 754.8 537.5 753.5 534 L 752.2 530.5 752.1 534.2 C 752 536.2, 752.4 538, 752.9 538.2 C 753.4 538.4, 754 541.3, 754.3 544.7 C 754.5 548.1, 755.2 551.5, 755.9 552.3 C 756.5 553.1, 756.8 554.4, 756.5 555.2 C 755.8 557, 758.6 562.5, 759.4 561.1 C 759.8 560.5, 759.6 559.2, 759 558.1 C 758.5 557, 758 551.4, 758 545.7 C 758 527.7, 752.1 502, 747.9 502 C 747.4 502, 747.6 503.2, 748.2 504.8 M 461.8 506.8 C 464.2 509, 468.2 511.7, 470.8 512.9 C 473.4 514.1, 476.3 515.6, 477.3 516.1 C 478.3 516.6, 482.8 517.5, 487.3 518.1 C 493.3 518.9, 496.4 519.9, 498.8 521.7 C 500.6 523.1, 502.7 524.3, 503.3 524.4 C 504 524.6, 505.2 525, 506 525.3 C 507.8 526.1, 516.1 528, 517.5 527.9 C 518.8 527.9, 510.8 524.1, 509.4 524 C 508.1 524, 502.4 521.3, 499.7 519.4 C 498 518.3, 498.1 518, 501.7 516.3 C 505.9 514.3, 515.5 513.9, 527 515.3 L 533.5 516 526.5 514 C 518.1 511.7, 507.3 511.4, 502.3 513.5 C 497.4 515.6, 483.3 515.5, 476.7 513.3 C 471.8 511.8, 461.7 505.9, 460.4 503.9 C 460.1 503.4, 459.4 503, 458.7 503 C 458.1 503, 459.5 504.7, 461.8 506.8 M 728 515.1 C 728 515.7, 730.2 520.8, 732.9 526.3 C 739 539.1, 740.1 541.7, 743.4 551 C 747.3 561.7, 748.8 565, 750 565 C 751.3 565, 751.3 564.9, 749.5 560.7 C 747.6 556, 747.5 552.4, 749.5 556.5 C 752.8 563.6, 755 569, 755 569.9 C 755 570.5, 755.5 571, 756 571 C 756.6 571, 757 571.7, 757 572.6 C 757 573.4, 757.5 573.8, 758 573.5 C 758.8 573, 758.8 572.4, 758 571.5 C 757.4 570.8, 757.2 569.5, 757.6 568.6 C 757.9 567.7, 757.7 567, 757.1 567 C 756.5 567, 756 566.1, 756 565 C 756 563.9, 755.6 563, 755.1 563 C 754.2 563, 752.7 559.2, 752.9 557.7 C 753.1 556.4, 749.8 550.8, 746.9 547.6 C 744.2 544.7, 730 517.4, 730 515.2 C 730 514.5, 729.6 514, 729 514 C 728.5 514, 728 514.5, 728 515.1 M 709.1 527.7 C 710.9 529.8, 715.5 534.6, 719.2 538.5 C 726.7 546.3, 730.1 550.6, 733.3 556.4 C 738.1 564.8, 738 564.7, 738 562.6 C 738 559.6, 733.9 547.9, 731.4 543.9 C 728.9 539.8, 724 535.6, 713.7 528.6 C 705.4 523, 704.6 522.9, 709.1 527.7 M 224 526.8 C 224 528.1, 229.3 535.1, 232.6 538.1 C 236.1 541.2, 242.8 543.8, 249.5 544.5 C 254.3 545.1, 254.4 545.1, 252 543.6 C 250.6 542.8, 248.5 542.1, 247.3 542 C 243.6 542, 235.2 536.9, 230.5 531.9 C 225.6 526.7, 224 525.4, 224 526.8 M 6.7 529.5 C 6.3 530.6, 5.6 534.7, 5 538.5 C 4.4 542.4, 3.5 548.2, 3 551.5 C 1.8 559.3, 1.7 588.3, 2.9 587.6 C 4 586.9, 4.7 592.6, 5.6 608.9 C 6.5 626.3, 7.8 629.4, 8 614.5 C 8 607.9, 8.3 587.4, 8.5 569 C 8.8 537, 8.3 524.8, 6.7 529.5 M 679.8 549.7 C 674.8 550.2, 675 551.7, 680.3 553 C 702.8 558.9, 728.8 579.7, 738.1 599.4 C 741.4 606.6, 741.8 605.4, 738.9 596.8 C 737.1 591.5, 734 586.4, 734 588.7 C 734 589.1, 732.7 587.5, 731.1 585 C 724 573.7, 704.3 558.8, 689.5 553.6 L 682.5 551.1 688 551.1 C 697.1 551, 709.9 556.1, 720.5 563.9 C 727.5 569.1, 728.9 569.9, 727 567.6 C 724.5 564.5, 714.7 557.5, 709 554.7 C 697.7 549.2, 692.8 548.4, 679.8 549.7 M 521.1 576.3 C 521.1 580.5, 521.4 584, 521.9 584 C 522.4 584, 523.7 584.3, 524.7 584.6 C 526.2 585.1, 526.3 585, 525 584 C 523.8 583.1, 524.5 583, 528 583.4 C 530.5 583.7, 535.2 584.2, 538.5 584.6 C 541.8 584.9, 545.3 585.9, 546.3 586.8 C 547.2 587.6, 548.3 588, 548.8 587.6 C 550 586.3, 546.1 584.2, 541.2 583.6 C 528 581.7, 523.3 578.9, 522 572.2 C 521.4 569.2, 521.2 570, 521.1 576.3 M 338.5 576.6 C 335.8 577.4, 329.7 579, 325.2 580 C 317 581.8, 315.2 582.5, 316.1 583.5 C 318 585.3, 345 578.6, 345.8 576.1 C 346.3 574.7, 344.7 574.8, 338.5 576.6 M 584.5 576.7 C 574.1 577.7, 568.8 577.8, 563.8 577 C 555.6 575.8, 546 575.7, 546 576.9 C 546 578.6, 575.4 580.7, 576.4 579.1 C 576.9 578.4, 580.6 578, 586.4 578 C 598.1 578, 608.1 577, 607.4 575.9 C 606.7 574.8, 601.9 574.9, 584.5 576.7 M 444.7 592.3 C 444 594.2, 449.2 599, 451.9 599 C 452.8 599, 454 599.4, 454.6 599.9 C 457.7 602.7, 481.1 607.4, 486.4 606.2 C 489 605.6, 488.5 605.4, 483 604.8 C 477 604.2, 471.6 603.1, 460 600 C 452.7 598, 447 595.1, 446.1 592.8 C 445.5 591, 445.2 590.9, 444.7 592.3 M 296 593.4 C 289 594.2, 283.2 594.3, 281.2 593.8 C 279.4 593.3, 276.5 593, 274.7 593.2 L 271.5 593.5 275.5 594.8 C 277.7 595.5, 280.4 596.5, 281.5 597 C 282.6 597.5, 284.8 598.4, 286.3 599 C 287.9 599.5, 288.9 600.4, 288.5 601 C 287.4 602.8, 311.1 601.7, 314.9 599.8 C 316.8 598.8, 319.7 597.9, 321.4 597.9 C 323.1 597.8, 325.9 597.4, 327.5 596.9 C 329.3 596.4, 322 596.3, 310 596.5 C 288.5 596.9, 288 596.3, 307 593.2 C 314.6 591.9, 309.7 592, 296 593.4 M 761.3 599.3 C 760 602, 759 604.4, 759 604.7 C 759 605, 758.4 606.6, 757.6 608.3 C 755.4 613.5, 752.6 622, 744.1 650.4 C 741.8 658.1, 742 659.9, 744.7 655.2 C 745.7 653.5, 747.5 651.9, 749 651.7 C 750.4 651.4, 752.5 650.3, 753.8 649.2 C 755 648.1, 758.7 646.2, 762 645 C 767.8 642.8, 768 642.7, 767.9 639.1 C 767.9 636.1, 767.7 635.9, 767 637.6 C 766.6 638.8, 765.2 640, 764.1 640.3 C 761.6 640.9, 761.4 639.2, 763 632.7 C 763.6 630.3, 764 621, 763.8 611.5 L 763.5 594.5 761.3 599.3 M 710.6 599.7 C 709.2 601.1, 710.2 603.8, 713.1 606.6 C 717.8 611, 724.1 619.4, 730.8 630.4 C 735.3 637.8, 737.1 639.9, 737.6 638.7 C 738.8 635.5, 736 622.5, 732.4 614.3 C 731.6 612.6, 731 610.8, 731 610.3 C 731 608.2, 724.5 602.9, 720.6 601.9 C 718.4 601.3, 715.3 600.4, 713.8 600 C 712.4 599.5, 710.9 599.4, 710.6 599.7 M 624.5 603.3 C 622.5 604.8, 622.6 604.9, 625.5 606 C 638.3 611, 639 611.1, 648.2 610.9 C 653.3 610.8, 659.9 611.1, 662.8 611.5 L 668 612.3 668 608.2 L 668 604.2 661.8 603.6 C 643 602, 626.5 601.8, 624.5 603.3 M 710 608.8 C 710.1 610.4, 712.8 620.9, 713.5 621.9 C 713.8 622.5, 714.7 623, 715.4 623 C 717 623, 723.3 629.7, 725.6 634 C 727.5 637.5, 737 648.1, 737 646.6 C 737 645.6, 731.3 635.4, 727.9 630.2 C 726.3 627.8, 725 625.7, 725 625.4 C 725 624.6, 716.2 613.2, 713.4 610.4 C 710.8 607.9, 710 607.5, 710 608.8 M 758.8 612.5 C 756 621.1, 753.7 631, 754.3 631.7 C 754.7 632, 755 631.2, 755 629.9 C 755 628, 755.2 627.8, 756 629 C 756.5 629.8, 756.7 631.3, 756.4 632.3 C 755.4 635.4, 756.9 634.1, 759 630 C 760.7 626.6, 761 624.4, 760.8 616.7 L 760.5 607.5 758.8 612.5 M 677.4 617.6 C 677.9 618.6, 678.8 622.4, 679.6 626 C 681.4 634.9, 683.4 641.9, 685.3 646 C 686.1 647.9, 687.1 651.1, 687.4 653 C 689.1 662.6, 691.4 668, 693.7 668 C 695.1 668, 696 667.4, 696 666.5 C 696 664.5, 691.4 655.4, 690 654.5 C 688.2 653.4, 689.8 652.2, 692.5 652.8 C 694.8 653.2, 695.5 654.1, 695.1 656.4 C 694.8 657.6, 698.5 665, 700.8 667.9 C 703.3 671, 703.6 670.1, 704.5 658 C 704.9 653.3, 705.5 647.9, 706 646 C 706.5 644.1, 707 639.3, 707.2 635.4 C 707.4 630.2, 707.8 628.4, 708.8 628.7 C 710.3 629.3, 710.3 629.1, 708.4 641.8 C 706.8 652.6, 705 695.9, 706.1 696.6 C 706.5 696.8, 708.3 693.7, 710.1 689.7 C 713.4 682.6, 713.4 682.4, 713.4 667.5 C 713.4 659.3, 713.1 648.5, 712.8 643.5 L 712.1 634.5 713.6 639.5 C 715.7 646.5, 716.8 677, 715 677 C 714.3 677, 714 677.3, 714.3 677.7 C 714.7 678, 717.4 675.9, 720.3 673 C 725.2 668.1, 725.6 667.3, 724.9 664.6 C 724.5 662.9, 723.6 659.5, 723 657 C 722.3 654.5, 721.2 651.1, 720.4 649.3 C 719.6 647.6, 719 645.7, 719 645.2 C 719 642.8, 709.2 626, 707.8 626 C 707.3 626, 703.9 624.7, 700.3 623 C 696.8 621.4, 693.1 620, 692.1 620 C 690.3 620, 681.6 617.7, 678.6 616.5 C 677 615.8, 676.8 616, 677.4 617.6 M 584.5 619.1 C 582.3 619.6, 577.1 620.7, 573 621.6 C 568.9 622.5, 564.2 623.8, 562.5 624.6 C 559.6 626, 559.8 626, 566 625.5 C 569.6 625.2, 574.5 624.2, 577 623.3 C 584.1 620.7, 599.4 620.9, 604.7 623.7 C 607.4 625.2, 609.2 625.6, 609.6 624.9 C 612.1 620.8, 594.7 616.8, 584.5 619.1 M 713 624.9 C 713 625.9, 715.2 631.5, 718.5 638.5 C 721.7 645.5, 726.7 663.1, 726.2 665.3 C 726.1 665.7, 726.7 666, 727.6 666 C 729.1 666, 729.2 665, 728.6 658.3 C 727.9 650.7, 727.4 648.2, 724.3 639.3 C 722.1 632.8, 713 621.3, 713 624.9 M 156.4 640.2 C 151.4 645.6, 147.6 651, 148.4 651.7 C 149.2 652.5, 179 650.1, 180.9 649.1 C 181.8 648.6, 184.2 648, 186.2 647.6 C 188.3 647.2, 191.6 646.2, 193.7 645.3 L 197.5 643.7 194.5 642.8 C 190.3 641.5, 177.7 639, 170.1 638 C 166.6 637.5, 163 636.8, 162.1 636.5 C 161 636.2, 159 637.5, 156.4 640.2 M 91 647.9 L 91 657.9 96.8 658.5 C 99.9 658.8, 104.6 659.4, 107.3 659.9 L 112 660.7 117.8 654.3 C 124.7 646.5, 124.6 646.6, 121.8 645.2 C 111.6 640.2, 104.5 638, 97.9 638 L 91 638 91 647.9 M 728.4 642.8 C 729.7 646.8, 731 655.6, 731 660.2 C 731 664.4, 731.3 665.1, 732.8 664.8 C 735.8 664.2, 735.2 649.6, 732 644.8 C 729.4 640.9, 727.5 639.8, 728.4 642.8 M 70.6 662 C 69.1 668.8, 66.8 702.9, 66 732 C 65.5 749.9, 64.8 765.3, 64.5 766.3 C 64 767.5, 64.3 768, 65.7 768 C 69 768, 70 758.1, 70 726.9 C 70 708.7, 70.6 692.5, 71.6 681.3 C 72.7 669.2, 72.9 663.2, 72.2 661.7 C 71.2 659.5, 71.2 659.5, 70.6 662 M 91 671.5 C 91.1 681.5, 91.2 682.3, 92.5 679.9 C 93.2 678.5, 97.3 674.5, 101.5 671.1 C 105.7 667.6, 108.9 664.3, 108.7 663.6 C 108.5 663, 104.4 662, 99.7 661.5 L 91 660.4 91 671.5 M 692 669.7 C 692 672.1, 697.5 687.9, 698 687 C 698.4 686.4, 699 689.4, 699.3 693.6 C 700 701.7, 700.5 703, 701.9 701.4 C 704.2 699, 702.6 673.7, 699.9 670.4 C 698.8 669, 692 668.4, 692 669.7 M 99.9 676.3 C 96.8 679.1, 93.7 682.3, 93.1 683.2 C 90.5 686.7, 87.5 706.9, 89.9 704.5 C 90.6 703.7, 103.8 678.3, 106.8 671.8 C 107.8 669.7, 104.9 671.6, 99.9 676.3 M 323.5 671.7 C 322.4 672, 321.1 672.5, 320.5 673 C 319.6 673.6, 313.9 675.2, 308.5 676.4 C 306.8 676.7, 306.9 676.8, 308.9 676.9 C 310.8 677, 311 677.3, 310.1 678.4 C 308.4 680.5, 311.1 681.7, 319 682.6 C 322.6 682.9, 326.3 683.7, 327.4 684.2 C 328.7 684.9, 329.5 684.8, 330.1 683.9 C 331.4 681.7, 330.3 681.2, 321 680.5 C 311.7 679.8, 309.8 678.5, 315.6 676.7 C 317.2 676.3, 319.4 675.5, 320.5 675 C 321.6 674.5, 324.8 673.5, 327.5 672.7 C 332.2 671.3, 332.3 671.2, 329 671.2 C 327.1 671.2, 324.6 671.5, 323.5 671.7 M 387.5 680.6 C 402 681.7, 421.9 685, 424.5 686.7 C 426.6 688.1, 429 688.4, 429 687.2 C 429 683.9, 415.4 681, 397 680.6 C 389 680.4, 384.8 680.4, 387.5 680.6 M 211 689.7 C 211 690.2, 211.8 691.5, 212.8 692.6 C 221.9 702.9, 223.2 709.4, 218 720.5 C 216.4 724, 215 727.2, 215 727.6 C 215 727.9, 214.1 729.5, 213 731 C 211.4 733.2, 211.2 734.4, 211.9 736.4 C 212.8 738.5, 212.7 738.8, 211.3 738.3 C 210.3 737.9, 209.9 738.1, 210.3 738.7 C 211 739.7, 209.7 743.4, 206.4 750.8 C 205.5 752.7, 205 754.3, 205.2 754.5 C 205.3 754.6, 210 749.4, 215.5 742.7 C 221 736.1, 227.5 729.1, 230 727.1 C 232.5 725.1, 235.1 722.9, 235.8 722.3 C 236.5 721.6, 237.5 721, 237.8 721 C 238.2 721, 239.6 720, 241 718.7 C 248.3 712.1, 270.6 697.3, 271.7 698.3 C 271.9 698.6, 270 700.5, 267.4 702.6 C 263.2 706.1, 248.7 718.8, 240.5 726.2 C 238.9 727.7, 234.8 730.5, 231.5 732.5 C 228.2 734.4, 224 737.3, 222.3 738.9 C 217.9 742.9, 205.7 759, 207.1 759 C 210 759, 219.9 750.5, 228.9 740.3 C 236.4 731.7, 237.6 731.4, 232.2 739.6 C 230 742.9, 227.3 747.4, 226.1 749.8 L 223.9 754 228.2 753.5 C 232.7 753, 239.5 751.4, 249 748.5 C 252 747.6, 257.4 746.2, 261 745.4 C 272 743.1, 274.4 742.1, 267.5 742.7 C 258.6 743.4, 240.5 748.1, 234.8 751.1 C 232.5 752.3, 230 752.2, 230 751 C 230 750.5, 230.6 750, 231.3 750 C 231.9 750, 233.9 748.8, 235.5 747.4 C 245.3 738.9, 252.6 734.8, 267 729.9 L 272.5 728 267.5 728.7 C 260.3 729.6, 248.5 733.6, 241.3 737.6 C 237.8 739.5, 235 740.7, 235 740.1 C 235 739.6, 235.5 738.8, 236 738.5 C 236.6 738.1, 236.8 737.4, 236.5 736.9 C 236.1 736.4, 236.4 736, 236.9 736 C 237.5 736, 238 735.4, 238 734.7 C 238 733.9, 238.8 732.4, 239.8 731.2 C 240.7 730, 242.2 728.3, 243 727.2 C 243.8 726.2, 246.4 723.7, 248.6 721.7 L 252.8 718 257.6 719.4 C 264.2 721.4, 276.1 724, 278.2 724 C 280.9 724, 291.5 727.9, 296.8 730.8 C 299.4 732.2, 305.6 737.5, 310.5 742.4 C 320.3 752.3, 320.3 753.6, 310.4 751.1 C 305.6 749.9, 294.7 749.6, 293.6 750.7 C 293.2 751.1, 297.1 752.2, 302.2 753.2 C 307.3 754.2, 312.8 755.5, 314.3 756.1 L 317.1 757.3 312 759 C 306.8 760.8, 296.3 767.3, 297.9 767.8 C 298.7 768.1, 305 765.7, 313.5 762 C 314.6 761.6, 319.2 760.4, 323.7 759.3 C 331.4 757.6, 333.8 756.1, 332.5 754 C 332.2 753.5, 331.2 753.4, 330.3 753.7 C 329 754.2, 328.8 753.8, 329.4 750.4 C 329.9 747.6, 329.8 746.9, 329.1 748 C 328.2 749.2, 328 749.1, 328 747.3 C 328 743.4, 314.3 722, 311.8 722 C 310.3 722, 311.4 724.1, 317.3 733.3 C 322.7 741.6, 326.3 749.4, 325.2 750.4 C 324.9 750.8, 320.6 747, 315.6 742.1 C 299.3 726.3, 295.2 724.4, 263.3 717.9 C 259.8 717.2, 257 716.3, 257 715.9 C 257 715.5, 260.6 712, 265 708 C 276.8 697.4, 277.4 692.6, 266.3 698.6 C 257.1 703.6, 237.3 717.8, 229.5 725.1 L 226.5 727.9 226.4 719.7 C 226.3 708.7, 223.6 701.9, 216.4 694.4 C 213.4 691.3, 211 689.2, 211 689.7 M 433 689.8 C 433 690.3, 434.1 691.2, 435.5 691.8 C 438 692.9, 439.1 697, 436.9 697 C 436.4 697, 436.2 697.4, 436.5 698 C 436.8 698.5, 436.5 698.7, 435.6 698.4 C 434.8 698.1, 431.3 698.6, 427.8 699.5 C 422.1 700.9, 411.7 701.6, 384.8 702.3 C 377.1 702.5, 376.3 702.4, 377.1 700.9 C 378 699.2, 382.1 695.5, 385.6 693.3 C 387 692.4, 387.1 692.1, 386 692.1 C 382.3 692, 369 705.1, 369 708.7 C 369 709.1, 368 710.4, 366.9 711.7 C 364.9 713.7, 364.9 714, 366.4 714.6 C 368.2 715.3, 369.5 714.5, 369.5 712.8 C 369.5 712.1, 375.2 711.8, 387 711.9 C 405 712, 421 710.4, 423.3 708.1 C 424.6 706.8, 418.3 707.2, 408.7 709.1 C 403 710.2, 371 710.3, 371 709.3 C 371.1 708.8, 371.9 707.5, 372.8 706.4 C 374.5 704.3, 375.6 704.2, 399.9 703.8 C 419 703.5, 425.3 703.1, 425.9 702.1 C 426.5 701.3, 427.9 701.1, 430.6 701.5 C 433.6 702, 434.2 701.9, 433 701 C 431.8 700.1, 432.2 700, 434.7 700.5 C 438.3 701.2, 441.2 698.3, 440.3 694.9 C 439.5 691.8, 433 687.3, 433 689.8 M 340.4 700.1 C 340.1 700.7, 340.3 701.6, 341 702 C 342.2 702.8, 342.4 707.3, 342.1 727 C 341.9 733.9, 342.4 739.5, 343.4 743.5 C 345.4 751.1, 345.5 750.6, 342.1 752.6 C 340.4 753.6, 339.4 754.9, 339.7 755.7 C 340 756.6, 339.4 757, 337.6 757 C 336.2 757, 335 757.5, 335 758.1 C 335 758.6, 335.6 758.8, 336.3 758.4 C 337.1 757.9, 337.1 758.2, 336.1 759.3 C 335.4 760.2, 334.1 761, 333.4 761 C 332.6 761, 332 761.5, 332 762.1 C 332 763.5, 336.2 762.2, 337.6 760.4 C 338.2 759.6, 339.8 759, 341.1 759 C 342.5 759, 344.6 758.2, 345.9 757.3 C 347.3 756.4, 348 756.2, 347.6 756.8 C 346.8 758.2, 347.9 758.3, 349.9 757.1 C 350.7 756.6, 350.9 755.7, 350.5 755 C 349.9 754, 350.4 753.9, 352.5 754.4 C 358.5 755.9, 363.6 754.1, 367.6 749.1 C 369.6 746.6, 373 743.1, 375.1 741.5 C 379.3 738.2, 382.5 734.2, 381.6 733.3 C 381.3 732.9, 376.9 735.9, 371.8 739.8 C 366.7 743.6, 362.4 746.7, 362.2 746.6 C 362.1 746.4, 363.1 744.2, 364.5 741.5 C 367.4 736.1, 369.4 723.9, 368.1 719.4 C 367.1 716.1, 366.5 717.2, 365.6 723.6 C 365.1 727.3, 361.8 736.4, 356.9 748 L 355 752.5 355.7 748 C 356 745.5, 357.1 741.1, 358.2 738.1 C 360.6 730.9, 360.4 730.4, 357.5 736.5 L 355.1 741.5 355 736.1 C 355 733.2, 354.4 728.2, 353.6 725.1 C 352.8 722, 351.9 717.7, 351.7 715.4 C 351.4 713.1, 350.4 709.8, 349.4 707.9 L 347.6 704.5 346.9 707 C 346.3 709.2, 346.2 709.2, 346.1 707.4 C 346 704.8, 343.1 699, 342 699 C 341.5 699, 340.8 699.5, 340.4 700.1 M 610 715.5 C 603.6 717, 593.3 717.3, 587.2 716.1 C 583.5 715.4, 583 715.4, 584.2 716.6 C 586.3 718.7, 596.8 720.3, 604.7 719.6 C 611.5 719.1, 612.5 719.3, 623.7 723.5 C 640.2 729.9, 643.3 731.6, 649.5 737.9 C 656.8 745.3, 667.2 762.1, 661.2 756.7 C 660.2 755.7, 659 755.3, 658.7 755.7 C 658.3 756, 658 755.9, 658 755.4 C 658 753.4, 642.9 749.8, 629.5 748.5 C 619.1 747.6, 598.9 750.3, 589.5 754 C 588.4 754.4, 585.5 755.3, 583 756 C 578.6 757.2, 572.6 761.6, 573.5 763 C 573.8 763.4, 575.8 762.8, 578.1 761.7 C 588.3 756.7, 619.3 758.8, 641.2 766.1 C 646.9 768, 657 768.8, 654 767.1 C 652.1 766, 642.1 762.6, 634.8 760.6 C 627.5 758.5, 607.8 756, 598 755.9 L 590.5 755.9 599.1 754 C 617.6 750.1, 632.9 750.5, 647 755 C 655 757.6, 664.4 762.4, 667.9 765.6 C 669.3 766.9, 671.1 768, 671.8 768 C 673.4 768, 672.8 766.8, 665 755.2 C 661.7 750.2, 659 745.7, 659 745.1 C 659 744.4, 655.5 740.4, 651.3 736.1 C 643 727.9, 638.8 725.4, 621 718.6 C 618.2 717.5, 633.6 719, 637.1 720.1 C 653.6 725.6, 663.9 734.3, 676.7 753.6 C 686.4 768.2, 686.7 768.6, 687.4 767.9 C 688.2 767.2, 681.1 753.7, 677.8 749.5 C 677.3 749, 675.3 746.3, 673.3 743.5 C 660.1 725.6, 650.1 719.2, 628.9 715.5 C 619.3 713.8, 617.6 713.8, 610 715.5 M 168 716.8 C 166.6 716.9, 161.5 717.7, 156.5 718.5 C 151.6 719.3, 145.4 720.1, 142.9 720.4 C 137.5 721, 127.6 725, 120.3 729.6 C 114.7 733.2, 95.3 751.6, 96.2 752.6 C 96.5 752.9, 98.8 751.2, 101.2 748.8 C 119.4 730.8, 128.1 726, 147.5 723.1 C 151.4 722.5, 157.7 721.5, 161.5 721 C 165.4 720.4, 169.2 719.5, 169.9 719.1 C 171.9 717.8, 170.8 716.5, 168 716.8 M 624 729.2 C 621.5 729.7, 615.1 729.9, 609.7 729.6 C 602.2 729.2, 598.2 729.5, 592.5 730.9 C 585.5 732.7, 566 741.6, 566 743 C 566 744.6, 567.3 744.6, 571.3 743.2 C 574.5 742, 580 741.6, 594.8 741.6 C 605.3 741.5, 614 741.2, 614 740.8 C 614 739.7, 597.2 738.7, 588.4 739.3 C 578.9 739.8, 578.5 739.1, 586.8 735.9 C 591.7 734.1, 594.9 733.7, 609.5 733.5 C 622.4 733.3, 627.4 732.8, 630.3 731.6 C 637.5 728.5, 633.8 727.1, 624 729.2 M 658 737.4 C 658 739.1, 663.2 747.4, 668.5 754 C 671.3 757.6, 674.9 762.2, 676.5 764.3 C 679 767.7, 682 769.2, 682 767.1 C 682 766.1, 675.5 757.5, 668.5 749.3 C 665.8 746, 662.3 741.9, 660.8 740 C 659.3 738.1, 658.1 736.9, 658 737.4 M 550 750.1 C 539.9 751.3, 530.8 753, 529.1 754.1 C 527.3 755.2, 538 754.4, 544 753 C 545.9 752.6, 554 751.9, 562 751.5 C 582.3 750.6, 587.2 749.2, 570 749.2 C 562.6 749.3, 553.6 749.6, 550 750.1 M 377 750.7 C 367.5 751.4, 365 753.5, 371.3 755.6 C 373 756.2, 376.6 757.6, 379.2 758.6 C 382.9 760, 384.4 760.2, 386.2 759.3 C 387.5 758.6, 391.3 757.8, 394.8 757.5 C 398.2 757.1, 401.3 756.4, 401.6 755.9 C 402.3 754.7, 398.3 754.8, 393.5 756.1 C 388.8 757.4, 377.4 755.8, 374.3 753.4 C 372.7 752.1, 374.1 752, 387 752.2 C 399.5 752.5, 400.9 752.4, 397.5 751.4 C 393.7 750.2, 386.5 750, 377 750.7 M 244 755 C 233.6 757.3, 218.7 761.6, 214 763.6 C 207.8 766.3, 206.5 766.8, 205 767.3 C 204.2 767.6, 204.7 767.9, 206.1 767.9 C 207.5 768, 213.4 766.5, 219.1 764.6 C 232.7 760.2, 245.7 756.3, 249.7 755.5 C 251.5 755.1, 253.2 754.4, 253.5 753.9 C 254.3 752.8, 254.2 752.8, 244 755 M 538.5 765.1 C 522.6 767.2, 522.2 767.9, 537.5 767.5 C 556 766.9, 566 766, 566 764.9 C 566 763.8, 546.8 764, 538.5 765.1" stroke="none" fill="#1b1f3a" fill-rule="evenodd"/></svg>