<svg xmlns="http://www.w3.org/2000/svg" viewBox="0 0 768 768" version="1.1" preserveAspectRatio="xMidYMid meet"><path d="M 73.5 34.9 C 66.8 37.8, 68.4 45.3, 78.5 57.5 C 93.9 76, 113.2 87, 133.2 88.6 C 137.5 89, 141 89.6, 141 90 C 141 90.3, 139.4 92.9, 137.5 95.6 C 135.6 98.3, 134 101, 134 101.6 C 134 102.2, 131.5 106.2, 128.5 110.4 C 122.2 119.1, 115.8 130.2, 105.7 150 L 98.8 163.5 101 165.2 C 103.9 167.5, 106.7 166.1, 108.7 161.2 C 109.5 159.2, 111.2 156.2, 112.4 154.5 C 113.6 152.9, 117.7 146.3, 121.5 140 C 131.1 124, 143.1 106.4, 148.3 100.8 L 152.6 96 153.9 100.8 C 157.1 111.9, 166.9 128.6, 180.1 145.3 C 182.2 148, 184.5 151.9, 185.1 154 C 187.9 163.3, 193.3 164.6, 193.8 156.2 C 194.3 147.3, 189.4 133.8, 180 118.4 C 177.7 114.6, 175.5 111.1, 175.2 110.5 C 174.9 110, 175.4 110.1, 176.3 110.8 C 182.7 116.1, 202.3 126, 214.3 130.1 C 227.6 134.7, 243.7 135, 249.3 130.7 C 252.3 128.5, 253 127.2, 253 124.5 C 253 115.1, 225.1 100.9, 192.5 93.9 C 183.4 91.9, 166 87.7, 161.8 86.4 C 158.4 85.4, 159.7 82, 164.4 80.1 C 168.9 78.1, 170 76.6, 170 72.1 C 170 66.6, 164.6 63.7, 161.5 67.5 C 159.9 69.5, 159.9 69.5, 160.3 67.2 C 160.7 65.7, 160.2 64.6, 158.9 64 C 155.2 62, 150.3 66.9, 151.4 71.3 C 151.7 72.9, 150.9 74.6, 148.3 77.4 L 144.7 81.3 132.6 68.8 C 115 50.5, 104.1 41.9, 92.9 37.4 C 86.4 34.7, 76.7 33.5, 73.5 34.9 M 75.5 39.7 C 73.6 41.5, 73.6 41.2, 76 46.3 C 79.6 53.9, 86.7 62, 89.8 62 C 91.8 62, 92.1 62.3, 91 63 C 88.8 64.4, 93.3 68.9, 96.3 68.3 C 98.1 67.9, 98.2 68, 97 68.9 C 95.7 69.8, 96 70.3, 98.5 72.5 C 102.3 75.6, 102.8 75.6, 104 72.4 C 105.3 69, 105.3 68.9, 103.3 69.2 C 102.3 69.4, 101.5 69.1, 101.5 68.5 C 101.2 65.7, 98.5 62, 96.6 62 C 94.6 62, 94.6 62, 96.6 60.4 C 98.4 59, 98.2 58.9, 94.5 59.5 C 91.6 59.9, 90.9 59.8, 92 59.1 C 92.8 58.5, 94.3 58, 95.4 58 C 96.6 58, 97 57.5, 96.6 56.4 C 96.3 55.5, 96 54.4, 96 53.9 C 96 53.4, 95.3 53, 94.4 53 C 93.1 53, 93 52.7, 93.9 51.6 C 95.1 50.1, 94.4 47, 92.8 47 C 92.3 47, 92.1 46.1, 92.5 45.1 C 92.8 44, 92.6 42.9, 92 42.5 C 90.3 41.4, 89.4 43, 91 44.1 C 92.2 45, 92.2 45.1, 90.7 44.6 C 89.7 44.3, 88.3 44, 87.7 44 C 87 44, 87.9 43.1, 89.5 42 C 92.2 40.2, 92.3 40, 90.3 40 C 89.1 40, 87.9 39.6, 87.6 39.1 C 86.7 37.6, 77.1 38.1, 75.5 39.7 M 574.5 65 C 572 69.8, 573.7 83.3, 577.4 87.9 C 578 88.7, 578.1 89.1, 577.5 88.9 C 577 88.6, 574.3 87.4, 571.5 86.2 C 565.7 83.5, 557.5 81.6, 555.5 82.4 C 553.2 83.3, 553.7 89.9, 556.3 94.3 C 558.9 98.6, 575.9 113.5, 581.2 116.2 C 591.9 121.6, 600.7 123.8, 613.8 124.3 C 618.9 124.5, 623 125.1, 623.1 125.6 C 623.1 126.1, 621.3 130.1, 619.1 134.5 C 616.9 138.9, 613.1 147.2, 610.6 153 C 600.9 175.9, 596.8 184.6, 594.9 185.9 C 592 187.9, 592.5 191.7, 595.8 193.4 C 599.6 195.3, 600.2 194.8, 605.3 185 C 611.5 173.1, 616.1 164.7, 617 163.5 C 617.4 163, 621 156.2, 625 148.5 C 632.7 133.6, 635 130.2, 635 133.4 C 635 135.4, 636.4 138.7, 642.6 151.5 C 650 166.9, 662 200.5, 662 206 C 662 210.4, 663 212, 665.6 212 C 669 212, 669.5 209.7, 667.6 203.2 C 666.7 200, 665.3 195.3, 664.6 192.5 C 660.7 178.2, 653.5 157, 648.6 145.1 C 645.5 137.7, 643.2 131.5, 643.4 131.2 C 643.6 131, 645.5 131.9, 647.7 133.3 C 661.8 142.1, 675.9 145.5, 690.4 143.5 C 719.4 139.4, 741.2 125, 731.8 116.3 C 726.2 111.1, 709.3 108.5, 697 110.9 C 694 111.5, 687.9 112.6, 683.5 113.5 C 665 117.1, 642 119.8, 642 118.4 C 642 117.9, 642.7 116.6, 643.5 115.6 C 646.3 111.8, 645.4 107.4, 641.5 105.5 C 636.1 103, 632.6 103, 632.2 105.6 C 632 106.8, 631 108.6, 629.9 109.6 C 628 111.3, 627.8 111.2, 624.5 108 C 622.6 106.1, 619.8 102.8, 618.3 100.6 C 598.5 71.3, 589.2 62, 579.7 62 C 576.7 62, 575.8 62.5, 574.5 65 M 576.5 66.3 C 574.9 72.7, 581.3 91.5, 585.1 91.5 C 585.9 91.5, 586.8 91.9, 587.1 92.3 C 587.4 92.7, 589 92.6, 590.6 92 C 593.1 91.1, 593.3 91.2, 591.8 92.4 C 589.1 94.4, 589.6 95.2, 593.3 94.6 C 595.5 94.2, 595.9 94.3, 594.5 94.9 C 592.5 95.7, 592.5 95.7, 594.6 96.4 C 596.7 97, 603.3 94, 605.3 91.5 C 605.8 90.9, 605.9 91.3, 605.6 92.3 C 605.3 93.3, 605 94.4, 605 94.6 C 605 94.8, 604.3 95, 603.5 95 C 602.7 95, 601.2 95.9, 600.3 97 C 598.1 99.5, 597.6 99.5, 591.5 96.5 C 584.7 93.2, 584 93.4, 588 97.5 C 591 100.6, 602 106.9, 604.6 107 C 605.1 107.1, 607.3 107.9, 609.5 109 C 611.7 110.1, 613.9 110.9, 614.4 111 C 615.5 111, 607.5 104.8, 604.2 103.1 C 603 102.4, 602.2 101.5, 602.5 101 C 603.4 99.6, 605.6 99.8, 607.2 101.3 C 607.9 102, 609.3 102.9, 610.2 103.3 C 612.1 104, 611.6 101.5, 609.3 99.2 C 608.6 98.5, 608 97.2, 608 96.4 C 608 95.6, 607.6 95.2, 607 95.5 C 606.5 95.8, 606 95.7, 606 95.1 C 606 92.3, 608 93.8, 611.5 99.3 C 615.7 105.8, 623.7 115, 625.1 115 C 627.1 115, 625.7 112.4, 620.8 107.1 C 617.9 104, 613.7 98.7, 611.5 95.4 C 599 76.9, 591.9 68.8, 585.8 66 C 580 63.3, 577.2 63.4, 576.5 66.3 M 111.4 70.8 C 110 71.6, 109.3 77, 110.3 78.7 C 110.7 79.3, 112.5 80.2, 114.3 80.5 C 116 80.9, 118 81.6, 118.5 82 C 120.1 83.2, 132.3 84, 134.5 83 C 136.3 82.2, 136.2 82, 133.3 80.9 C 131.5 80.1, 130 79.2, 130 78.8 C 130 78.4, 128.8 78.5, 127.4 79.1 C 125.9 79.6, 124.5 79.8, 124.2 79.5 C 123.9 79.2, 124.1 79, 124.7 79 C 125.3 79, 126 78.4, 126.3 77.6 C 126.8 76.4, 126.3 76.4, 123.7 77.1 C 119.4 78.3, 119.4 78.3, 122.1 76 C 124.5 74, 123.7 73.3, 121 74.9 C 119.2 76.1, 117.4 75, 119.1 73.8 C 120.2 73, 120.2 72.9, 119 73.3 C 118.2 73.5, 116.4 74.1, 115 74.5 L 112.5 75.2 115 73 L 117.5 70.8 114.6 71.6 C 112.5 72.1, 111.9 72, 112.4 71.1 C 113.2 69.8, 113 69.7, 111.4 70.8 M 557.7 85.6 C 554.5 88.8, 559.6 96, 572 105.9 C 582.9 114.6, 590.1 117.9, 603.5 120.5 C 612.7 122.2, 625 122.6, 623.4 121 C 622.1 119.7, 611.3 116.9, 607.5 116.9 C 601.5 116.9, 596.3 115.8, 598.5 115 C 599.6 114.6, 601 114.7, 601.6 115.1 C 602.3 115.7, 603.9 115.6, 605.6 114.9 C 607.9 113.9, 608.1 113.6, 606.8 113.3 C 605.8 113, 605 112.4, 605 111.9 C 605 111.4, 604.1 111, 603 111 C 601.9 111, 601 110.5, 601 109.9 C 601 109.2, 600 109, 598.5 109.4 C 596.9 109.8, 596.1 109.6, 596.2 108.9 C 596.8 106.6, 594.1 106.9, 593.5 109.3 C 593 111.2, 592.4 111.6, 590.4 111.2 C 587.9 110.7, 587.2 109.4, 589.2 108.8 C 591.1 108.2, 589.3 105, 587.1 105 C 585.8 105, 585.3 104.5, 585.6 103.6 C 586.1 102.3, 584.7 101.5, 579 100 C 577.6 99.7, 576.6 98.9, 576.7 98.3 C 576.8 97.7, 575.9 97.3, 574.5 97.4 C 573.1 97.6, 571.9 97.1, 571.5 96.1 C 571.2 95.3, 571.2 94.8, 571.5 95.2 C 572.6 96.3, 577.8 94, 578.2 92.2 C 578.8 90.2, 572 89.3, 570.8 91.3 C 570.4 91.9, 569.8 92.1, 569.4 91.7 C 569 91.3, 569.5 90.3, 570.6 89.5 C 572.4 88.1, 572.4 88.1, 569.9 88 C 568.5 88, 567 87.7, 566.6 87.3 C 566.2 86.8, 564.9 86.5, 563.7 86.4 C 562.5 86.3, 560.8 86, 559.9 85.6 C 559.1 85.2, 558.1 85.3, 557.7 85.6 M 158 90.1 C 158 90.6, 158.5 90.8, 159 90.5 C 159.6 90.1, 160.6 90.2, 161.3 90.7 C 162 91.2, 165.9 92.6, 170 93.9 C 174.1 95.2, 178.4 96.5, 179.5 97 C 184.8 99.2, 192.6 101.1, 198.2 101.6 C 210.6 102.7, 221.9 107.3, 225.5 112.8 C 227.8 116.3, 232.5 118.6, 239.5 119.6 C 242.3 119.9, 245.1 120.7, 245.8 121.3 C 246.5 121.8, 247.4 122, 247.8 121.6 C 249 120.4, 242.2 115.5, 232.6 110.7 C 220.7 104.7, 206.7 100.1, 188.5 96 C 183 94.8, 174.6 92.7, 169.8 91.4 C 160.2 88.7, 158 88.5, 158 90.1 M 165.5 98.9 C 171.2 105, 180.2 111.2, 191.6 117 C 205.3 123.9, 205.8 123.8, 200.8 115.3 C 197.6 110, 191.6 105.3, 185.9 103.5 C 184.6 103.1, 183.1 102.4, 182.5 102 C 182 101.6, 179.9 100.9, 178 100.5 C 176.1 100.1, 173.9 99.4, 173 98.9 C 171.4 98.1, 168.2 96.9, 166.5 96.4 C 166 96.3, 164.6 95.9, 163.5 95.4 C 162.2 95, 162.8 96.1, 165.5 98.9 M 708.8 114.3 C 706.1 116.4, 705.9 118.8, 708.3 119.5 C 711.2 120.4, 716.8 122.8, 720.2 124.6 C 723.7 126.5, 727 126.4, 728.6 124.3 C 732 119.8, 729.2 116.7, 720 114.6 C 712.1 112.7, 710.8 112.7, 708.8 114.3 M 216 116 C 215.2 116.5, 215 117, 215.6 117 C 217.5 117, 218.2 120.2, 216.7 121.9 C 215.9 122.8, 215 124.2, 214.7 125 C 214.4 126.1, 214 125.8, 213.2 124 C 212.2 121.7, 212.1 121.7, 212.1 123.6 C 212 125.6, 213.7 127, 216 127 C 216.5 127, 217 126, 217.2 124.8 C 217.5 122.8, 218.1 122.5, 222 122.5 C 227.4 122.4, 228.1 122.7, 227.4 124.5 C 226.5 126.8, 223.9 127.1, 222.1 125.1 C 220.1 122.8, 217.6 123.8, 218.2 126.5 C 218.8 129.6, 233 131.9, 233 128.9 C 233 128.4, 232.6 128, 232 128 C 231.5 128, 231 127.3, 231 126.3 C 231 125, 230.7 125.1, 229.1 126.8 C 226.4 130, 225.5 129.5, 227.9 126.1 L 229.9 123.3 227.6 121.1 C 226.1 119.6, 225 119.2, 224.5 119.9 C 224.2 120.5, 223.2 121, 222.4 121 C 220.5 121, 216.8 117.2, 217.5 116 C 218.3 114.8, 217.9 114.8, 216 116 M 230 120.4 C 230 121.2, 230.4 122, 230.8 122.2 C 231.2 122.4, 232.3 124.3, 233.1 126.5 C 234.8 130.9, 236.4 131.2, 245.3 128.9 C 249.9 127.7, 250.5 124.5, 246.3 123.7 C 240.2 122.5, 233.1 120.5, 232.4 119.7 C 231.2 118.5, 230 118.9, 230 120.4 M 666.1 119.9 C 665 120.6, 665 120.9, 666.1 121.4 C 666.9 121.7, 665.3 121.8, 662.7 121.5 C 656 120.8, 639.4 122.1, 641.3 123.1 C 644.1 124.7, 665.3 125.4, 670.9 124 L 676.2 122.8 673.3 120.9 C 670.2 118.8, 668.2 118.6, 666.1 119.9 M 692.5 123 C 692.8 123.6, 693.9 124.1, 694.8 124.1 C 695.7 124.2, 694.1 124.6, 691.1 125.1 C 688.1 125.6, 685 126.6, 684.3 127.2 C 683.2 128.1, 682.7 128.1, 682.1 127.1 C 681.4 126.1, 680.4 126.4, 677.4 128.2 C 673.7 130.5, 670 130.9, 670 129 C 670 128.5, 668.8 128.2, 667.3 128.2 C 665.7 128.3, 662.9 128.1, 661 127.7 C 655.9 126.8, 641 126.4, 641 127.2 C 641 127.5, 642.4 128.1, 644 128.5 C 645.7 128.9, 647 129.6, 647 130.1 C 647 130.7, 647.4 130.8, 648 130.5 C 648.5 130.2, 649.9 130.8, 651.1 131.9 C 652.3 133, 653.9 133.6, 654.8 133.3 C 655.8 132.9, 656.1 133.1, 655.6 133.8 C 655.2 134.5, 655.5 135, 656.5 135 C 657.3 135, 658.8 135.4, 659.8 135.9 C 664.4 138.3, 671.4 140.2, 674.1 139.6 C 675.9 139.3, 677 139.5, 677 140.2 C 677 140.8, 677.9 140.5, 679 139.5 C 681 137.7, 681.1 137.7, 680.4 139.5 C 679.8 140.9, 680 141.1, 681 140.5 C 681.7 140.1, 683.9 139.6, 685.8 139.5 C 687.8 139.4, 689.6 138.8, 689.8 138.1 C 690.1 137.3, 689.8 137, 689.2 137.4 C 688.7 137.7, 688.3 137.3, 688.4 136.4 C 688.5 135.3, 687.5 134.7, 685.7 134.4 C 683.8 134.2, 683 134.5, 683.3 135.3 C 683.5 136, 684.4 136.4, 685.3 136.4 C 686.2 136.3, 686.7 136.6, 686.5 137 C 686.2 137.5, 685.1 137.8, 684.1 137.7 C 683 137.7, 682.3 137.3, 682.6 136.9 C 682.8 136.5, 682.5 135.8, 681.9 135.4 C 681.1 135, 681.2 134.5, 682.1 133.9 C 683.2 133.2, 683.2 133, 681.9 133 C 681.1 133, 679.5 133.6, 678.4 134.4 C 677.1 135.4, 676.1 135.5, 675.3 134.8 C 674.4 134.1, 674 134.1, 674 134.9 C 674 135.6, 673.6 135.9, 673 135.5 C 672.5 135.2, 673 134, 674.1 132.9 C 675.2 131.8, 676.5 131.1, 676.8 131.5 C 677.2 131.8, 676.8 132.6, 676 133.1 C 674.9 133.9, 675.1 134, 676.9 133.4 C 678.3 133.1, 680.2 131.9, 681.3 130.9 C 683 129.3, 683.5 129.3, 685.4 130.5 C 687.8 132.1, 692 137.4, 692 138.9 C 692 139.8, 704.9 137.3, 706.3 136.1 C 706.7 135.7, 705.4 133.7, 703.4 131.6 C 700.3 128.4, 699.2 127.9, 696.8 128.4 C 694.3 128.9, 694.1 128.8, 695.2 127.6 C 697.5 125.4, 701.1 124.6, 700.4 126.4 C 700 127.4, 700.3 128, 701.2 128 C 702 128, 704.1 129.6, 706 131.5 C 710 135.6, 709.8 135.6, 716.1 132.9 C 719.6 131.4, 721 130.2, 721 128.8 C 721 127.4, 720.5 127, 719.5 127.4 C 718.7 127.7, 718 127.5, 718 127 C 718 126.4, 717.3 126, 716.5 126 C 715.7 126, 715 125.6, 715 125.1 C 715 124.6, 712.5 124.4, 709.4 124.7 C 706.3 124.9, 702.6 124.7, 701.1 124.2 C 696.9 122.6, 691.8 121.9, 692.5 123 M 193.2 210 C 188.9 216.9, 194.9 230.1, 204.4 234.8 C 206.9 236.1, 209 237.4, 209 237.6 C 209 237.9, 209.7 241.3, 210.5 245.3 C 211.3 249.3, 212.4 255.2, 213 258.5 C 213.5 261.8, 214.7 267.9, 215.5 272 C 221.3 301.7, 223.3 325.4, 221 338.5 C 217.5 358.4, 218.1 356.7, 210.1 371.5 C 207.4 376.3, 204.9 382.4, 201.4 392.2 C 199.9 396.6, 199.5 396.9, 197.1 396.3 C 195.7 396, 194.3 395.5, 194 395.3 C 193.7 395, 193.2 385.5, 192.9 374.2 C 191.8 339.5, 188 312.3, 183.1 303 C 182.6 302.1, 181.9 300, 181.5 298.2 C 181.1 296.3, 180.2 293.7, 179.4 292.2 C 178.6 290.7, 178 289, 178 288.4 C 178 286.2, 173.9 279, 172.6 279 C 168.9 279, 169.1 293.8, 173.5 327.7 C 174.3 334.4, 175.3 340.6, 175.7 341.6 C 177.2 345.5, 174.1 341.6, 168.5 332.4 C 163.2 323.8, 147.8 306.1, 144.5 304.9 C 143.9 304.7, 141.7 302.3, 139.5 299.5 C 137.3 296.8, 135.2 294.3, 134.9 294 C 133.5 292.8, 131.6 288.3, 131.7 286.5 C 131.8 284.9, 131.8 284.9, 131.4 286.3 C 131.1 287.2, 130.5 288, 130 288 C 129.5 288, 128.8 288.9, 128.5 290 C 127.6 292.7, 125.2 292.5, 124.7 289.8 C 124.4 288.4, 124.2 289, 124.1 291.3 C 124 293.8, 124.7 295.8, 125.9 297.1 C 127.6 298.9, 141 324.9, 141 326.4 C 141 326.7, 142.1 329.3, 143.5 332.2 C 144.9 335, 146 337.9, 146 338.4 C 146 339, 146.6 340.6, 147.3 342.1 C 148.1 343.5, 150.4 350, 152.5 356.6 C 154.7 363.1, 157 369.6, 157.7 371 C 160.3 376.1, 158.8 375.7, 153.3 369.8 C 138.2 354.1, 113.8 343.7, 95.5 345.2 C 90.1 345.7, 89.8 345.5, 88.9 343.1 C 88.4 341.7, 87.5 339.7, 87 338.8 C 86.5 337.8, 86 336.3, 86 335.5 C 86 333.1, 84 333.8, 83.9 336.3 C 83.8 338, 83.6 337.8, 82.8 335.3 C 82 333, 81.1 332, 79.7 332 C 78.7 332, 76 330.6, 73.9 328.9 C 69.4 325.3, 68.8 326.1, 72.8 330.3 C 75.4 333.1, 75.4 333.2, 73.6 334.6 C 71.1 336.4, 72.2 337.5, 75 336 C 78.2 334.3, 79.9 335.4, 82.1 340.7 C 83.3 343.4, 84.8 346.9, 85.5 348.5 C 90.6 360, 92 363.4, 92 364.2 C 92 364.8, 92.6 366.6, 93.4 368.3 C 94.2 370.1, 95.8 374.9, 97 379 C 98.2 383.1, 99.5 387.6, 100 389 C 101.7 394.2, 103.8 401.6, 104.5 404.9 L 105.2 408.3 99.8 407.7 C 78.7 405.6, 61.1 394.6, 49.3 376.4 C 48.1 374.5, 48 374.5, 46.5 376.4 C 42.5 381.6, 46.4 395.8, 55.2 407.7 C 58.4 412.1, 71 424, 73.6 425.1 C 74.1 425.3, 75.7 428, 77.1 431 C 80.3 437.6, 84 442.3, 89.3 446.1 L 93.2 449 90.7 449.9 C 87.3 451.2, 81.5 456.5, 78.9 460.6 C 75.2 466.7, 78 471.2, 89.4 476.8 C 95.5 479.8, 97.2 482, 93.4 482 C 91.8 482, 81.3 485.4, 76 487.7 C 68.2 491, 65.2 492.7, 59 497.6 C 55.4 500.4, 50.7 503.7, 48.5 505.1 C 39.3 510.6, 36 515.2, 36 522.5 C 36 533.6, 48.9 545.5, 68.1 552.1 L 71.8 553.3 65.7 557.4 C 40.5 574.2, 33.5 595.7, 48.8 609.1 C 52.7 612.6, 65 618.6, 70 619.7 C 74.4 620.5, 74.6 621.6, 71 625.7 C 59.1 639.2, 66 654.6, 87.5 662.4 C 97.5 666.1, 100.5 667.9, 103.5 671.9 C 110.3 681.2, 117.8 684.6, 150.5 693 C 153.4 693.8, 166 694.6, 180.5 695 C 194.3 695.5, 206.4 696, 207.5 696.4 C 209.8 697, 222.3 699.3, 235.7 701.5 C 249.2 703.7, 274.4 705.1, 281.9 704 C 285.8 703.5, 289.7 702.1, 292.1 700.5 C 295.2 698.5, 296.4 698.2, 298 699 C 299 699.6, 305.9 700.7, 313.2 701.5 C 325.8 703, 327.5 702.9, 346 700.9 C 378.1 697.4, 375.2 697.3, 387.5 701.9 C 399.6 706.3, 402.8 707.2, 417.5 710.3 C 426.8 712.2, 430.4 712.3, 468.5 712.1 C 511.4 711.9, 511 711.9, 540 706.5 C 559.3 702.9, 571 701.2, 580.5 700.5 C 592.1 699.8, 611.9 697.3, 617 696.1 C 618.9 695.6, 623.4 694.9, 627 694.6 C 635.3 693.7, 645.2 691.5, 656.3 687.9 C 667.5 684.2, 671.7 682, 677.1 677.1 C 683.4 671.1, 684.6 671.5, 680.5 678 C 675.6 685.7, 659.4 692.3, 636 695.9 C 630 696.8, 626.5 697.6, 609.5 701.6 C 603.6 703, 589.2 705.1, 571.5 707.1 C 566.6 707.7, 557.6 709, 551.5 710.1 C 521.8 715.4, 515.1 716.1, 495.5 715.8 C 484.3 715.6, 470.5 716.1, 461.8 716.9 C 448.6 718.2, 445.7 718.2, 432.8 716.7 C 410.8 714.1, 393 710.1, 382.3 705.4 C 378.3 703.6, 370 703.6, 357.6 705.5 C 345.5 707.3, 313.9 707.5, 304 705.8 C 298.9 704.9, 296.7 704.9, 296.2 705.6 C 295.8 706.2, 294.1 707.5, 292.3 708.4 C 285.9 711.6, 242 709.6, 220.5 705.1 C 195.2 699.7, 191.8 699.2, 176.5 698.7 C 161.5 698.1, 157 697.5, 140 693.4 C 118.4 688.2, 106.3 682.5, 102 675.5 C 99.4 671.2, 95.3 668.8, 86.8 666.1 C 76 662.8, 69.2 659, 64 653.3 C 57 645.6, 56.4 639.9, 61.7 630.4 C 64.9 624.6, 64.2 622.8, 56.6 617.6 C 49.9 613, 47.8 613.7, 53.5 618.7 C 55.7 620.6, 58.5 623.1, 59.8 624.2 L 62 626.3 59.5 629.6 C 53.8 637.1, 52.9 642.2, 56 649.2 C 60.2 658.8, 71.8 666.2, 89.9 671 C 93.3 671.9, 95.7 673.6, 100.2 678.5 C 109 687.9, 115.6 690.9, 139.5 696.6 C 156.5 700.5, 158.8 700.9, 177.5 702 C 187.1 702.6, 196.8 703.5, 199.2 704 C 213.2 707.1, 217 707.9, 221.5 708.8 C 233.7 711.3, 247.1 712.4, 268 712.4 C 289.9 712.5, 290.6 712.4, 293.7 710.2 C 296.6 708.1, 297.4 708, 303.2 708.9 C 320.3 711.6, 347.5 711.1, 366.6 707.9 C 373.6 706.7, 373.8 706.7, 386.6 710.8 C 417.3 720.6, 444.4 724, 469 721 C 474.8 720.3, 488.7 719.6, 500 719.5 C 511.3 719.4, 523.4 718.8, 527 718.2 C 548.1 714.6, 574.9 710.5, 594 707.9 C 602 706.9, 615.1 704.2, 623 702 C 624.9 701.5, 631.7 700.1, 638 699 C 662.6 694.6, 676.6 689, 682.8 680.9 C 685.1 678, 686 675.9, 685.7 674.2 C 685.2 671.6, 685.8 671.2, 695.5 668.5 C 715.1 663.1, 724.8 655.9, 731.3 642.2 C 734.5 635.6, 734.5 635.3, 734.5 620.5 C 734.5 606.3, 734.4 605.2, 731.8 600 C 728.5 593.1, 720.1 584.6, 713.8 581.7 C 708.3 579.2, 707.9 578.4, 711.8 577.6 C 722.1 575.3, 738.8 557, 739.8 546.9 C 740.6 537.9, 730.9 528.3, 711.2 518.5 L 704.8 515.3 715.3 514.7 C 731.6 513.8, 742.7 509.3, 745.6 502.3 C 751.3 488.8, 731.2 477.5, 699.3 476.3 L 686 475.7 694.8 470.8 C 712.2 460.9, 721 446.2, 721 427.2 C 721 418.8, 721 418.7, 724.5 415.3 C 726.5 413.4, 728.8 410.7, 729.7 409.2 C 730.7 407.7, 733.1 404.2, 735.2 401.4 C 740.8 393.9, 741.3 386, 736.2 386 C 734.6 386, 731 392.3, 731 395 C 731 399, 724.2 406.5, 716.3 411.1 C 711.6 413.8, 709 416, 710.4 416 C 710.7 416, 713.3 414.6, 716.2 412.9 C 721.4 409.8, 731.1 401, 729.4 401 C 728.9 401, 729 400.6, 729.6 400.2 C 730.2 399.8, 732.1 396.6, 733.8 393 C 736.5 387.3, 736.9 386.9, 736.9 389.5 C 737.1 400.1, 723.1 417.1, 711.9 419.8 C 709.3 420.5, 706.5 421.2, 705.6 421.6 C 704.6 422, 704 421.7, 704 420.7 C 704 419.9, 704.6 419, 705.3 418.7 C 705.9 418.5, 706.2 417.9, 705.8 417.5 C 705.4 417.1, 704.2 417.8, 703.1 419.1 C 700.9 422, 681.7 428, 680.1 426.4 C 679.8 426.1, 680.9 423.6, 682.4 420.7 C 684 417.8, 686.3 413.4, 687.7 410.8 C 689 408.2, 690.7 405.4, 691.5 404.6 C 693.1 403.1, 692.2 401.6, 690.4 402.8 C 689.8 403.2, 686.7 408.9, 683.4 415.5 C 676.6 429.2, 674.5 430.8, 673.5 423.3 C 672.6 416.4, 670.9 410, 669.9 410 C 668.7 410, 668.8 411.7, 670 412.5 C 670.6 412.8, 671 415.1, 671 417.6 C 671 420.1, 671.5 423.1, 672.1 424.2 C 673.8 427.4, 670.8 429.3, 665.1 428.6 C 647.6 426.3, 633.9 412, 642.6 405.1 C 644.1 403.9, 645.7 403, 646.2 403 C 646.7 403, 648.6 401.9, 650.3 400.6 C 659 394.2, 665.1 393.4, 672.2 397.9 C 674.7 399.5, 677.4 401.8, 678.3 403 C 680.1 405.6, 685.3 404.7, 691.1 400.7 C 699.1 395.4, 704.9 392.2, 707.8 391.5 C 709.6 391.2, 711 390.5, 711 390.1 C 711 388, 717.5 385.8, 723.3 386 C 732 386.3, 734.2 386, 730 385 C 721.2 382.9, 715.2 383.5, 710.4 386.8 C 708 388.6, 705.2 390, 704.4 390 C 702.7 390, 693.8 395.6, 690.3 399 C 687.1 401.9, 682.2 402.8, 681.4 400.5 C 680.5 398.2, 682.8 391, 685.3 388.3 C 686.4 387, 686.8 386, 686.2 386 C 685.6 386, 684.8 386.5, 684.5 387 C 683.5 388.6, 682.4 388.2, 681.1 385.8 C 680.2 384, 680.1 384, 680.5 385.5 C 680.8 386.6, 680.8 390.3, 680.4 393.8 L 679.8 400.1 676.6 397.8 C 668.7 391.9, 664.5 391.3, 655.9 394.8 C 649.4 397.5, 638.7 396.6, 636.3 393.3 C 635.1 391.7, 635 391.7, 635 393.3 C 635 394.2, 634.4 395, 633.7 395 C 632.4 395, 622 403.9, 623.2 404 C 623.6 404, 624.5 403.4, 625.2 402.8 C 629 399.2, 633.6 397.9, 641.5 398.2 L 649.5 398.5 646 400.4 C 640 403.6, 638 406, 638 410 C 638 416.7, 647 426.1, 655 427.7 C 658.8 428.4, 658.9 430, 655.3 430 C 645.3 429.9, 631.7 426, 625 421.3 L 622.5 419.6 624.5 421.8 C 626.1 423.8, 626.2 424.3, 625 425 C 622.5 426.6, 621.4 426.2, 616.9 421.7 C 608.4 413.4, 607.7 412.1, 608.4 406.5 C 609.4 398.3, 611.7 386.9, 613.5 381 C 614.4 378, 615.8 373.3, 616.5 370.5 C 619 360.9, 624.6 345.7, 630.4 332.5 C 631.2 330.9, 632.6 327.3, 633.6 324.5 C 634.6 321.8, 636 318.4, 636.7 317 C 637.4 315.6, 638 314, 638 313.4 C 638 311.9, 641 305.9, 642.7 303.8 C 644.1 302.3, 644.4 302.3, 647.7 304.6 C 654.4 309.1, 669.3 307.4, 678.5 301.2 C 682.7 298.3, 684.3 295, 681.6 295 C 680.7 295, 680.1 295.3, 680.1 295.8 C 680.4 297.7, 679.8 298.7, 677.2 300.2 C 668.5 305.3, 654.2 306.7, 648.9 302.9 C 645.4 300.4, 645.2 299, 648.4 299 C 651.2 299, 652.8 297.3, 650.5 296.8 C 649.5 296.6, 651.7 293.7, 657.1 288 C 668 276.4, 676 263.9, 676 258.4 C 676 255.6, 664.3 257.9, 655.2 262.5 C 653.4 263.5, 651.6 263.9, 651.3 263.6 C 650.7 263, 640.6 273.6, 637.8 277.9 C 635.8 280.9, 635.4 288.1, 637.2 290.9 C 637.9 292, 638 293.5, 637.5 294.6 C 637 295.7, 636.6 297.9, 636.5 299.7 C 636.4 301.4, 634.2 307, 631.7 312.2 C 625.9 324.1, 621 335, 621 335.8 C 621 336.2, 620.4 337.7, 619.6 339.1 C 618.9 340.6, 617.3 344.6, 616.1 348.1 C 614.9 351.6, 613.6 355.4, 613.1 356.5 C 609.9 363.9, 603.8 385.4, 601.2 399 C 600.6 402, 599.7 406.2, 599.3 408.3 L 598.5 412.1 589.5 407.4 C 584.6 404.9, 578.4 401.5, 575.9 399.9 C 570.4 396.4, 570 396.4, 570 399.1 C 570 404.9, 582.6 425.6, 591.5 434.5 L 596.7 439.7 597.4 456.1 C 597.8 465.1, 598.2 473.6, 598.3 475 C 598.5 477.3, 598.1 477.5, 594.3 477.8 L 590.2 478.1 588.5 472.3 C 581.7 449.1, 562.7 439.1, 534.5 444.1 C 531.2 444.6, 524.7 445.7, 520 446.5 C 515.3 447.2, 510.8 448.1, 509.9 448.5 C 508.6 449, 508 447.6, 506.5 441.3 C 504.3 431.8, 503.5 429.9, 495.7 414 L 489.5 401.5 489.7 393 C 489.9 385.5, 490.2 384.3, 492.2 382.7 C 498.4 377.8, 505.1 370.2, 508.2 364.7 C 511.4 358.7, 511.5 358.1, 511.5 347.5 C 511.5 332, 508.4 326.7, 492.6 314.7 C 488.1 311.4, 484.3 308.5, 484.1 308.4 C 483.9 308.2, 484.6 305.9, 485.6 303.3 C 490.6 290.7, 486.9 270.1, 477.6 258.6 C 467.5 246.2, 445.9 241.4, 431.7 248.3 C 425.4 251.4, 418.9 257.3, 414.9 263.2 C 413.5 265.5, 411.9 266.8, 411 266.6 C 406.5 265.4, 392.7 263.8, 390.4 264.3 C 388.3 264.7, 387.5 264.1, 385.5 261.1 C 373.5 242.4, 348.8 239.9, 331.9 255.7 C 322.1 264.9, 318 279.5, 321.4 292.9 C 324.2 304, 321.4 310.1, 309.7 317.9 C 303.2 322.3, 301.2 324.6, 298.2 330.9 C 291.4 345.5, 301.9 367.1, 321.5 379 C 332.3 385.5, 333.3 386.9, 333.3 393.6 C 333.2 400.8, 330.6 407.7, 321 427 L 314 441 309.8 441 C 303.7 441, 289 443.3, 289 444.2 C 289 444.6, 294.2 445, 300.7 445 L 312.3 445 311.7 456.3 C 311.3 462.4, 311 473, 311 479.6 L 311 491.8 307.3 490.8 C 295.1 487.6, 283 485.9, 276 486.4 C 258.2 487.6, 254 490.8, 254 503.3 C 254 508.3, 253.7 510.1, 252.9 509.3 C 252.2 508.6, 250.8 508.8, 248.2 510.1 C 238.6 515, 224.4 509.7, 218.9 499.1 C 215.6 492.8, 215.6 480.5, 218.9 473.8 C 221.4 468.5, 230.8 459.3, 234.7 458.4 C 239.4 457.2, 245.9 462.3, 246 467.3 C 246 468.8, 246.5 470, 247 470 C 247.6 470, 248 468.7, 248 467.1 C 248 464.3, 241.5 457, 239 457 C 238.4 457, 238 456.6, 238 456.1 C 238 454.5, 246.4 452.1, 264 448.4 C 273.6 446.4, 286.7 443.1, 293 441 C 299.3 438.9, 306.5 436.9, 309 436.5 C 318 435.1, 318 432, 309 432 L 303.2 432 294 422.3 C 288.9 416.9, 281 407.3, 276.4 401 C 271.7 394.7, 266.6 387.7, 265 385.5 C 262.1 381.6, 262 381.2, 263 376.1 C 264.2 369.6, 264.3 364, 263.2 364 C 261.9 364, 257.7 368.9, 252.5 376.5 C 245.5 386.7, 238.6 395.9, 238.2 395.5 C 237.7 395, 239.8 379.8, 241.5 371 C 246.8 344.7, 248.2 323.4, 245.5 308.9 C 243.8 299.3, 240.8 291, 239 291 C 237.7 291, 237.7 290.1, 240 301.1 C 242.6 313.7, 242.6 323.4, 239.9 329.7 C 238.7 332.3, 236.5 338.3, 235 343 C 233.5 347.7, 231.8 351.3, 231.3 351 C 230.9 350.7, 230.6 345.8, 230.8 340 C 231.4 320, 228.1 294, 220.5 260 C 217.2 245.1, 216.3 241.5, 215.6 240 C 215.2 239, 215.9 238.1, 218 237.2 C 224.7 234.2, 229.1 223.1, 227.1 214.4 L 226.3 210.5 226.3 215.5 C 226.3 218.3, 225.7 222.4, 225.1 224.8 C 223.1 231.8, 214.7 238.6, 212.5 234.9 C 212.1 234.3, 210.3 234, 208.4 234.2 C 200.5 234.8, 193.3 224.4, 194.3 213.9 C 195 207.3, 195 207.2, 193.2 210 M 212.1 239.5 C 212 240.6, 212.9 245.8, 214.1 251 C 218.9 273.7, 222 292.8, 226.5 328 L 227.8 338.5 227.9 330 C 228 314.5, 225.6 297.9, 217.1 256.5 C 214.2 242.3, 212.2 235.4, 212.1 239.5 M 139.5 241.8 C 138.9 242.2, 137.2 244.4, 135.7 246.6 C 131.7 252.5, 126 259, 124.9 259 C 124.3 259, 124.2 258.4, 124.6 257.8 C 125.1 256.9, 124.8 256.9, 123.7 257.9 C 122.1 259.1, 122 258.7, 121.8 252.9 L 121.7 246.5 121.1 253.6 C 120.7 257.8, 119.9 261.6, 119 262.6 C 118.1 263.7, 116.8 265.8, 116 267.4 C 114.3 270.7, 102.6 281, 100.4 281 C 99.6 281, 99 281.5, 99 282 C 99 283, 100.3 282.4, 108.5 277.5 C 114.6 273.8, 115.1 273.6, 116.1 275.1 C 116.8 276.1, 116.9 275.6, 116.4 273.8 C 115.9 271.7, 116.3 270.8, 118.4 269.5 C 119.8 268.5, 121 267.2, 121 266.4 C 121 265.7, 122.8 263.6, 125 261.8 C 129.2 258.3, 137.3 248.4, 137.6 246.3 C 137.7 245.6, 138.5 244.3, 139.4 243.4 C 141.6 241.3, 141.6 240.2, 139.5 241.8 M 349 250.9 C 344.2 251.9, 339.6 254.5, 334.9 258.7 C 329.9 263.2, 329.8 265.1, 334.8 261.1 C 341.2 255.9, 346.5 254.6, 353 256.6 C 371.4 262.2, 377 290.1, 362.3 303 C 351.7 312.4, 333.4 316.6, 327.5 311 C 324.9 308.5, 323.1 309.2, 323 312.7 C 323 313.9, 319.6 316.9, 312 322.3 C 296 333.9, 299.6 356.1, 319.8 371 C 328.1 377.1, 353.6 390, 357.3 390 C 358.2 390, 359.2 390.5, 359.5 391 C 359.8 391.6, 361 392, 362.1 392 C 363.1 392, 364 392.5, 364 393 C 364 395, 357.1 393.6, 345.7 389.4 C 340.7 387.5, 340.3 387.6, 343.1 389.8 C 347.5 393.2, 356 399, 356.6 399 C 356.9 399, 357.9 399.7, 358.8 400.6 C 360.3 402.1, 360.2 402.2, 358 401.5 C 354.7 400.5, 347.3 396.4, 343.3 393.4 C 339.1 390.2, 339 391.5, 342.5 402.6 C 345 410.4, 348 421.6, 348 423.5 C 348 425.2, 345.5 420.7, 343.1 415 C 339 405.1, 338.5 404, 338 404 C 337.7 404, 336.1 407.3, 334.4 411.3 C 332.6 415.3, 328.7 424, 325.7 430.7 C 311.9 460.9, 311.6 507.8, 325 542.1 C 331.1 557.5, 334.3 565, 335 565.5 C 335.3 565.7, 338.7 564.8, 342.6 563.4 C 352.1 560.1, 360 559, 358.1 561.3 C 357.4 562.3, 355.9 563, 354.9 563 C 350.4 563, 337 569, 331.6 573.3 C 325.9 578, 322.4 579.4, 313.5 580.5 C 304.5 581.6, 303.8 581.9, 304.2 584.3 C 304.6 587.7, 302.6 587.9, 302 584.5 C 301.6 582, 300.9 581.4, 298 580.9 C 295.8 580.5, 295.4 580.2, 296.8 580.1 C 298 580.1, 299.8 579.6, 300.8 579.1 C 301.7 578.5, 306.4 577.4, 311.2 576.5 C 319.3 575, 327.6 572, 326.6 570.9 C 326.4 570.7, 318.1 570.8, 308.3 571.2 C 290.3 571.9, 287.1 571.6, 270.1 568.1 C 261 566.2, 257.9 564.8, 259.3 563.4 C 260 562.7, 272.3 564.1, 281.5 565.9 C 284.3 566.5, 296.3 567, 308.2 567.2 C 332.9 567.5, 331.6 568.1, 326 559.2 L 323.4 554.9 310.4 554.5 C 303.3 554.3, 295.9 553.6, 294 553 C 287.2 550.9, 274.7 548.9, 272.1 549.5 C 270.7 549.8, 267.8 551.3, 265.7 552.6 C 261.2 555.5, 260.2 555.2, 262.5 551.7 C 264.6 548.5, 267.6 546.5, 271.9 545.5 C 274.3 545, 274.9 544.5, 274.1 543.7 C 272.7 542.3, 272.7 537.7, 274.1 536.3 C 277.1 533.3, 272.9 532.2, 268.1 534.6 C 265.4 535.9, 263.1 536.1, 255.5 535.5 L 246.1 534.8 240.3 538.3 C 237.1 540.2, 232.3 542.6, 229.5 543.6 C 224.1 545.5, 218.6 548.8, 207.5 556.9 C 203.7 559.7, 198.3 563.4, 195.6 565.2 C 189.4 569.4, 191.8 570.2, 199.6 566.5 C 207.1 562.9, 212.9 561.3, 220.7 560.4 C 227.6 559.7, 229.1 561.2, 222.7 562.5 C 217.6 563.5, 203.9 569.1, 198.6 572.4 C 195.1 574.5, 192.6 575.3, 190.1 575.1 C 185.7 574.9, 183.3 573, 187.3 573 C 190.3 573, 190.5 572.7, 189 569.9 C 186.9 566, 181 568.7, 181 573.6 C 181 576.8, 184.4 580, 187.8 580 C 189.4 580, 199.7 576.9, 210.8 573.1 C 221.8 569.3, 230.7 566.7, 230.4 567.4 C 229.9 568.6, 221.5 574, 220.1 574 C 218.9 574, 198.2 581.8, 193.6 584.1 C 188.9 586.4, 185.2 586.5, 181.3 584.6 C 179.8 583.8, 176 582.7, 173 582.1 C 153.5 578.5, 146.6 576.9, 145.6 575.9 C 145 575.4, 143.9 575, 143 575 C 142.1 575, 138.2 574.1, 134.4 573 C 130.6 571.8, 125.9 570.5, 124 570 C 115.5 567.8, 107.7 565.1, 109.5 565.1 C 111.8 565, 116.6 566.2, 139.8 572.5 C 150.6 575.5, 173.5 581, 175.1 581 C 175.4 581, 176.1 578.7, 176.4 575.8 C 176.8 573, 177.6 569.8, 178.1 568.8 C 179.1 567, 185 564, 187.8 564 C 189.4 564, 198 558.9, 198 557.9 C 198 557.1, 193.1 555.3, 178 550.5 C 161.3 545.2, 135 532.6, 135 529.9 C 135 528.9, 137 529.7, 150.5 536 C 164.8 542.7, 169.4 544.4, 190.6 551.4 C 202.8 555.5, 203.2 555.4, 210 550.1 C 212.5 548.1, 220.7 543.4, 228.3 539.5 C 235.8 535.7, 242 532.2, 242 531.8 C 242 531.4, 239.6 529.8, 236.8 528.4 C 230 525, 223 519.5, 220.5 515.6 C 218.1 512, 218.9 512.1, 198 514.3 C 166.7 517.7, 157.5 519.2, 149 522 C 147.6 522.5, 143.1 523.8, 139 525 C 124 529.3, 111.4 533.2, 108.5 534.5 C 106.9 535.2, 103.3 536.5, 100.7 537.5 C 98.1 538.5, 96.1 539.8, 96.3 540.4 C 96.7 541.6, 118.3 554.4, 133.7 562.5 C 135 563.2, 135.7 563.9, 135.4 564.2 C 134.9 564.8, 133 563.9, 112.5 554 C 105.9 550.8, 98.9 547.5, 96.9 546.7 L 93.2 545.2 88.6 549.9 C 86 552.5, 81.6 555.9, 78.7 557.4 C 48.7 573.6, 38.5 593.5, 54.2 605.3 C 58.7 608.7, 69 612.9, 77.9 615.1 C 85 616.7, 85.5 616.7, 90.5 615 C 102.3 610.9, 104.5 608.8, 103.6 601.7 L 103 596.5 104.6 600 C 107.2 605.7, 103.6 613.3, 96.9 616 C 93 617.6, 93.2 619, 97.3 618.4 C 99 618.2, 104.8 617.5, 110 617 C 115.2 616.5, 124 615.6, 129.5 615.1 C 153.1 612.5, 160.8 611.9, 175 611.3 C 183.2 611, 190 610.4, 190 610.1 C 190 609.8, 189.1 608.4, 188 607 C 184.5 602.5, 186.6 593, 191.1 593 C 191.7 593, 192 592.3, 191.6 591.5 C 191.2 590.4, 192.5 589.6, 196.8 588.4 C 199.9 587.6, 207.5 585, 213.5 582.9 C 219.6 580.7, 226.5 578.2, 228.9 577.3 C 231.4 576.4, 234.4 574.6, 235.7 573.2 C 238.4 570.3, 238.5 570.4, 239.3 574.8 C 239.8 577.5, 239.6 578, 238.1 578 C 236 578, 223.4 582.9, 211.7 588.4 C 207.4 590.4, 203.4 592, 202.9 592 C 202.4 592, 202 592.5, 202 593 C 202 595.5, 209.3 593.6, 222 587.7 C 228.7 584.5, 235.9 582, 238.3 582 C 239.3 582, 240.3 581.3, 240.6 580.5 C 241.5 578.3, 243.7 580.3, 245.7 584.9 C 247.2 588.5, 248.3 610, 247 610 C 245.8 610, 242 613.7, 242 614.9 C 242 616.3, 244.7 616.4, 245.5 615 C 245.8 614.5, 246.9 614, 247.8 614 C 250.2 614.1, 246.3 617, 243.8 617 C 241.7 617, 241.5 618.1, 243.2 619.8 C 244.4 621, 250.7 621.4, 253.3 620.4 C 255 619.8, 254.6 612.5, 252.7 610.3 C 251.8 609.1, 252.4 586.7, 253.6 577.5 L 254.2 573.5 263.4 573.2 C 273.4 572.9, 288 576.9, 292.4 581.1 C 295.5 584, 293.6 584.4, 288.8 581.9 C 281.7 578.2, 281.1 578, 278.3 578 C 275.7 578, 275.9 578.3, 280.5 581.3 C 283.3 583, 286.7 585.5, 288 586.8 C 289.9 588.6, 291.5 589, 296.6 589 C 301.5 589, 303.1 589.4, 303.9 590.7 C 305 592.7, 308.5 590.6, 307.6 588.5 C 307 586.8, 316.7 583.8, 320 584.6 C 326.1 586.2, 332.3 595.9, 330.2 600.5 C 328.3 604.5, 323.3 607, 316.8 607 C 313.7 607, 310.8 606.5, 310.5 605.9 C 308.9 603.4, 305.6 603.3, 301.5 605.5 C 291.9 610.9, 284.6 609.3, 283.5 601.5 C 283.1 599, 283 595.4, 283.3 593.5 C 283.7 591.4, 283.4 589.9, 282.7 589.6 C 282 589.4, 283 589.4, 284.8 589.7 C 287.9 590.2, 288.1 590.1, 287 588.4 C 282.5 581.2, 265.8 576.4, 261.1 580.8 C 260.4 581.5, 259.5 581.8, 259.2 581.5 C 258.4 580.7, 262.2 578.1, 264.5 578 C 266.5 577.9, 266.5 577.9, 264.5 577.1 C 259.2 575, 254.4 581.2, 258 585.5 C 258.7 586.3, 258.7 587, 258.1 587.4 C 257.6 587.8, 257.1 588.8, 257.2 589.8 C 257.2 590.7, 256.7 594.2, 256.1 597.4 C 255.3 602.2, 255.3 604.4, 256.6 608.8 C 257.5 611.7, 258 615, 257.7 616.1 C 257.1 618.4, 258.7 618.6, 263.7 616.5 C 267.9 614.7, 269 614.6, 269 616 C 269 616.6, 268.4 617, 267.7 617 C 267 617, 263.3 618.9, 259.5 621.2 C 250.7 626.4, 243.8 627, 239.6 623.1 C 236.1 619.8, 236.1 614.5, 239.5 610.8 C 243.5 606.5, 242.9 606.2, 229.1 606.6 C 216.8 606.9, 215.9 607, 210.8 609.9 C 206.1 612.6, 204.3 613, 197.9 613 C 193.8 613, 186.7 613.5, 182 614 C 177.3 614.6, 167.9 615.7, 161 616.5 C 129.1 620.2, 118.9 621.7, 102 625.1 C 84.3 628.6, 74.1 632.4, 71.6 636.3 C 68.5 641.1, 78.8 652.2, 92.6 658.9 L 101.6 663.2 106.1 661.3 C 108.5 660.2, 113 658.6, 116 657.7 C 119 656.7, 125.7 654.6, 130.8 653 C 135.9 651.3, 140.9 650, 142 650 C 143 650, 144.1 649.6, 144.5 649.1 C 144.8 648.5, 147.2 647.8, 149.8 647.4 C 152.4 647.1, 155 646.4, 155.5 646 C 156.1 645.6, 158.8 644.7, 161.5 644 C 171.8 641.6, 176.5 640.3, 178 639.7 C 178.8 639.4, 182.2 638.7, 185.5 638.1 C 188.8 637.6, 195.3 636.4, 200 635.5 C 209.1 633.6, 217.1 633, 216.3 634.3 C 216.1 634.7, 214 635, 211.7 635 C 207.8 635.1, 203.8 635.8, 195 638 C 193.1 638.4, 188.4 639.5, 184.5 640.4 C 173.6 642.8, 166 644.6, 159.5 646.5 C 156.2 647.4, 151.3 648.8, 148.5 649.6 C 138.2 652.4, 134.5 653.5, 133.5 654.1 C 133 654.5, 130.9 655.1, 129 655.5 C 123 656.7, 105.9 662.7, 104.7 664 C 101.8 666.9, 114.8 672.8, 127.5 674.5 C 130.3 674.8, 133.6 675.5, 135 676 C 136.4 676.4, 140.9 677.8, 145 679.1 C 149.1 680.4, 152.9 681.7, 153.5 682.2 C 154 682.6, 155.1 683, 156 683 C 156.9 683, 159.7 684.1, 162.3 685.4 C 166.8 687.6, 167.3 687.7, 176.2 686.5 C 186.8 685.1, 201.8 680.7, 207 677.5 C 212.4 674.1, 227.4 667, 229 667 C 229.8 667, 227.9 668.3, 224.7 669.9 C 221.6 671.6, 216.4 674.4, 213.2 676.3 C 210.1 678.2, 206.8 680, 206 680.3 C 205.2 680.6, 206.5 680.9, 208.9 680.9 C 216.9 681.1, 229.4 684.1, 237 687.7 C 248.4 693.2, 263.1 696.9, 273.6 697 C 280.2 697, 284.9 693.6, 298.3 679.2 C 301 676.3, 303.6 674, 304.1 674 C 305.3 674, 305.3 675.7, 304.1 676.2 C 303.6 676.4, 301.1 679.2, 298.5 682.5 L 293.9 688.5 300.2 689.7 C 303.7 690.3, 309.9 691.6, 314 692.5 C 319.4 693.7, 324 694, 330.3 693.6 C 341.6 692.9, 360 689.9, 360 688.8 C 360 688.3, 358.2 684.5, 356.1 680.2 C 350.5 669.2, 346 659.1, 346 657.7 C 346 657.1, 348.5 661.2, 351.4 667 C 354.3 672.8, 358.1 680, 359.8 683 L 362.9 688.5 370.8 688.2 C 380.3 687.8, 384.1 688.7, 396.5 694.6 C 409.9 700.9, 426.7 704.8, 446.8 706.1 L 451.1 706.4 453.4 700 C 456.6 690.9, 466.6 673.3, 467.8 674.5 C 468.1 674.7, 467.4 676.2, 466.4 677.7 C 465.4 679.2, 463.6 682.3, 462.4 684.5 C 461.3 686.8, 459.8 689.5, 459.2 690.5 C 457 694.4, 455.2 699.6, 454.5 703.4 C 453.9 707.2, 453.9 707.3, 456.7 706.6 C 458.2 706.2, 472.4 705.6, 488.3 705.1 C 504.1 704.7, 517.3 704, 517.6 703.7 C 518 703.3, 517.6 700.7, 516.7 697.8 C 515.1 692.6, 513.4 683, 514.6 686 C 514.9 686.8, 515.8 688.9, 516.5 690.5 C 517.2 692.2, 518.3 695.6, 519 698.1 L 520.4 702.7 528.9 700.8 C 533.6 699.7, 539.5 698.4, 542 697.9 C 544.5 697.4, 549.4 696.3, 553 695.5 C 558.7 694.1, 570.9 692.6, 593.8 690.3 C 599 689.8, 603.8 688, 599.9 688 C 598.3 688, 559.1 668.8, 551.5 664.2 C 548.2 662.3, 541.1 657.8, 535.7 654.2 C 530.3 650.6, 525.6 648, 525.3 648.4 C 525 648.7, 525.1 649, 525.7 649 C 526.3 649, 527.1 649.8, 527.4 650.7 C 527.8 651.7, 526.2 650.6, 523.8 648.3 C 515.3 640, 508.5 634.9, 506.6 635.2 C 504.3 635.6, 504.3 635.6, 502.4 653 C 500.3 672.1, 499.1 678, 499.7 666 C 500.2 656.8, 501.3 646.6, 502.6 638.8 C 502.9 636.7, 503 635, 502.6 635 C 501 635, 486.5 642.5, 484 644.7 C 482 646.3, 481.2 646.6, 481.6 645.6 C 482.3 643.7, 481 643.6, 476 645 C 465.3 647.9, 448.7 649.2, 407.5 650.1 C 360.3 651.1, 345.9 651.8, 344.7 653 C 343.6 654, 337.7 652.7, 337.3 651.3 C 336.1 647.8, 344.6 647.1, 410.5 645 C 442.9 644.1, 462 642.6, 465 640.8 C 465.9 640.3, 444.4 640, 413.5 640.2 C 364.5 640.4, 360.3 640.3, 357.9 638.7 C 356 637.5, 352.3 636.8, 345.3 636.3 C 333.7 635.6, 331.3 636, 327.6 639.5 C 326.1 640.9, 323.8 642.3, 322.4 642.6 C 319.4 643.4, 305.5 640.3, 302.2 638.2 C 300.1 636.8, 299.5 636.9, 294.7 639.3 C 276.7 648.1, 266 653, 265.1 653 C 264.5 653, 263.2 653.4, 262.2 654 C 259.1 655.7, 251.1 659, 250 659 C 249.4 659, 247.9 659.6, 246.7 660.4 C 245.5 661.2, 242.9 662.1, 241 662.4 C 239.1 662.7, 238.2 662.7, 239 662.3 C 239.8 662, 244.1 660, 248.5 658 C 252.9 655.9, 258.5 653.3, 261 652.2 C 263.5 651.1, 269.6 648.3, 274.5 646 C 283.6 641.8, 288.9 639.4, 294.7 636.9 C 300.7 634.4, 297 633.2, 282.2 633.1 C 247.5 632.9, 233.6 634.8, 222.5 641.4 C 215.9 645.3, 194.3 662.2, 191 666 C 189.7 667.5, 171.2 682.9, 168.7 684.5 C 159.2 690.7, 170.9 679.1, 187.9 665.6 C 192.6 661.9, 197.7 657.7, 199.2 656.4 C 206.7 649.9, 219.4 641.1, 225.6 638.1 C 229.4 636.2, 233.4 634.2, 234.5 633.6 C 235.8 632.9, 247.2 632.3, 266.5 632 C 295.5 631.5, 296.5 631.4, 296.8 629.5 C 297.7 623.9, 302.1 620, 307.5 620 C 310.8 620, 315 617.8, 322.5 612.2 C 336.7 601.5, 337.7 599.9, 335 590.3 C 332.9 582.4, 331.5 574, 332.4 574 C 333.7 574, 339 587.4, 340.5 594.7 C 341.8 601.3, 336.6 607.7, 321.8 617.7 C 314.4 622.8, 313.4 623.8, 314.8 624.8 C 316.1 625.6, 315.1 625.8, 310.4 625.3 C 304.5 624.8, 304.1 624.9, 302.5 627.4 C 300.3 630.7, 301.6 632.5, 307.2 634.1 C 316.1 636.4, 319 635.4, 319 629.6 C 319 626.6, 320 625.6, 330 618.6 C 341.3 610.6, 352.5 606.9, 355.8 610.2 C 357.7 612.1, 357.2 610.7, 354 604.9 C 351 599.5, 350.1 594, 352.1 594 C 352.6 594, 353.8 595.7, 354.6 597.8 C 357.3 604.6, 364.6 615.8, 365.6 614.7 C 365.8 614.5, 365.4 612.4, 364.6 610.2 C 362.9 605.6, 361.3 586, 362.5 586 C 362.9 586, 364.8 587.4, 366.7 589.1 C 371.8 593.5, 389.7 601.3, 399.7 603.5 C 402.3 604, 402.9 603.8, 403.5 602 C 404.3 599.4, 405 600, 396.5 596.7 C 382.6 591.4, 371.4 582, 365.7 571 C 363.5 566.7, 362.7 563.2, 361.5 551.6 C 358.1 520.2, 354.7 503.3, 348.9 489.5 C 348.5 488.4, 347.2 485.3, 346 482.5 C 344.9 479.8, 343.3 476.3, 342.5 474.8 C 340.2 470.8, 340.8 467.1, 344.6 460 C 347.9 453.7, 348 453.6, 347.4 457.5 C 347 459.7, 346.2 463.3, 345.4 465.5 C 344.7 467.6, 344.3 469.6, 344.5 469.8 C 346.4 471.7, 366.2 447.7, 368.4 440.8 C 368.7 439.8, 369.5 439, 370.1 439 C 373.6 439, 365.5 455.3, 357 465.3 C 352.4 470.7, 352.2 471.1, 353.1 474.7 C 353.6 476.8, 354.7 482.1, 355.5 486.5 C 356.2 490.9, 357.6 497.7, 358.5 501.5 C 359.4 505.4, 360.7 512.6, 361.5 517.5 C 362.3 522.5, 363.2 527.6, 363.5 529 C 364.4 533.2, 372.1 537.1, 386.5 540.6 C 400.2 543.9, 432.4 542.3, 438.5 538 C 439.1 537.6, 440.8 537, 442.3 536.6 C 443.9 536.2, 447 534.8, 449.2 533.4 C 451.4 532, 453.5 531.1, 453.8 531.4 C 454.8 532.4, 449.7 535.6, 441 539.4 C 423.3 547.2, 388 546.8, 371 538.7 C 368.5 537.5, 366.1 536.4, 365.6 536.1 C 364.5 535.6, 365.9 549.2, 367 550.4 C 367.5 550.9, 374.3 552.3, 382.2 553.6 C 390.1 554.9, 400.8 556.7, 406 557.6 C 411.2 558.4, 417.8 559.4, 420.5 559.6 C 425.5 560.2, 443.7 557.9, 449.4 556 C 451.1 555.4, 455 554.4, 458 553.7 L 463.5 552.5 464.1 535.5 C 464.7 518.3, 466 510.8, 470 501.5 L 471.9 497.2 465.6 484.8 C 456.2 466.3, 452.8 447.6, 457.3 439.5 C 459 436.5, 459 436.6, 458.4 444 C 457.4 456.3, 463.8 475.8, 474.4 492.8 C 475 493.8, 476.8 492.6, 481.1 488.4 C 488.4 481.5, 489.9 482, 483.7 489.1 C 473 501.3, 470 512.1, 469.3 540.5 C 468.7 564, 468.2 565.8, 462.2 568.9 C 458.8 570.6, 458.2 571.6, 455.6 579.1 C 452.3 589, 451.3 591.1, 448.8 592.8 C 447.8 593.5, 447 594.5, 447 595.1 C 447 597.1, 449.8 595.8, 453.1 592.4 C 460.2 584.9, 469.2 580.4, 473.7 582.1 C 476.6 583.2, 476.5 585.9, 472.9 600 C 470.6 609, 470.6 609, 472.4 609 C 473.2 609, 474 608, 474.4 606.8 C 474.7 605.5, 476.5 602, 478.5 599 C 480.4 596, 482.5 591.9, 483 590 C 485.2 582.1, 485.5 582.2, 497.7 596.7 C 503.3 603.5, 501.1 604.2, 494.3 597.7 L 488.3 592 483.4 598.8 C 480.7 602.5, 478.1 606.1, 477.7 606.8 C 477.1 607.7, 478 609.3, 480.4 611.6 C 484.8 615.9, 485.2 619.6, 481.5 622.8 C 478.4 625.5, 476.4 625.5, 470.8 623.1 C 464.5 620.4, 463.4 618.8, 464.7 613.7 C 466 609, 465.6 608.6, 458.1 605 C 455.7 603.8, 454 602.6, 454.3 602.3 C 455.2 601.5, 461.6 603.9, 464.4 606.1 C 466.4 607.6, 467.1 607.8, 467.4 606.8 C 468.6 602.6, 470 597.2, 470 596.6 C 470 596.3, 467 596, 463.4 596 C 455.5 596, 450 598.6, 446.8 603.8 C 444.2 608.1, 441 609.3, 436 608 C 423.5 604.6, 427.1 590.5, 440.3 591.2 C 445.7 591.5, 446.1 591.3, 448 588.5 C 450.6 584.6, 450.7 580.5, 448.3 581.5 C 444.5 583.1, 438.2 583.9, 430 583.9 C 419.7 583.9, 421.2 582.5, 432.5 581.6 C 443.8 580.6, 447.5 579.5, 448.8 576.5 C 449.4 575.2, 451.7 572.8, 453.9 571.2 L 457.9 568.3 453.2 567.6 C 450.6 567.2, 446.5 566.6, 444 566.2 C 435.9 564.9, 416.8 566.5, 412.2 568.9 C 407.8 571.1, 385.6 572.1, 383.5 570.1 C 381 567.9, 368 564.9, 368 566.5 C 368 568.5, 372.5 575.2, 375.9 578.3 C 380 582, 381.6 582.5, 392.8 583.4 C 396.3 583.7, 400 584.5, 401.1 585.1 C 403.9 586.5, 404.3 585.8, 403.5 581.2 C 402.8 576.9, 401.2 575.9, 397 577.1 C 393 578.2, 383.5 578.1, 382.3 576.9 C 379.9 574.5, 383.3 573.5, 393.5 573.6 C 412.1 573.8, 418.4 576.2, 417.8 582.9 C 417.2 589.7, 408.1 592.7, 400.2 588.6 C 398 587.5, 395.2 587, 391.7 587.2 L 386.5 587.5 392 590.4 C 396.5 592.8, 399.1 593.4, 406 593.8 C 415.5 594.3, 418.9 595.6, 421.9 599.9 C 424.5 603.5, 424.5 605.6, 422 609.7 C 417.6 617, 405.9 618.4, 402.7 612 C 401.2 608.9, 384.7 602.6, 378.5 602.7 C 375.5 602.8, 375.1 602.6, 376.9 602.1 C 379.1 601.5, 378.7 601.1, 373.1 598.2 C 369.7 596.5, 366.9 595, 366.7 595 C 366.6 595, 366.7 597.5, 366.8 600.5 L 367.2 606 370 604.5 C 371.8 603.6, 373.1 603.4, 373.5 604 C 373.8 604.6, 373.5 605, 372.8 605 C 370.2 605, 367.2 607.9, 367.7 609.9 C 368.2 611.8, 368.5 611.8, 373.4 609 C 379.7 605.4, 381.9 605.4, 388.5 608.5 C 394.2 611.3, 394.1 611.4, 387 609.9 C 381.5 608.7, 374.2 609.9, 370.7 612.5 C 368 614.5, 370.4 618.1, 374 617.5 C 375.4 617.2, 375.9 617.3, 375.3 617.6 C 373.4 618.4, 373.7 620, 375.8 620 C 377.2 620, 377.5 620.8, 377.4 624.3 C 377.3 631.7, 377.1 632.6, 373.8 635.8 L 370.7 639.1 375.1 638.3 C 383.4 636.8, 467 637.4, 467.9 638.9 C 469.3 641.1, 485.2 638.8, 492 635.4 C 497.7 632.5, 506 629.9, 507.1 630.6 C 508.4 631.4, 514.7 628.5, 520.5 624.5 C 523.8 622.2, 527.3 620, 528.3 619.7 C 531.9 618.4, 527.8 615, 522.5 615 C 518.5 615, 515 613.2, 513.3 610.2 C 512.4 608.6, 510.7 606.9, 509.6 606.4 C 508.5 605.9, 505.2 601.7, 502.3 597 C 499.5 592.3, 496.2 587.4, 495.1 586.2 C 493.3 584.1, 492.4 582, 493.3 582 C 493.5 582, 498.7 584.5, 504.9 587.6 L 516.2 593.3 529.9 593.8 C 542.8 594.2, 543.6 594.1, 545.4 592.1 C 547.7 589.6, 549 589.4, 549 591.6 C 549 593.3, 557.1 593.3, 561.3 591.5 C 562.2 591.1, 563 591.2, 563 591.8 C 563 594.2, 547.4 597.1, 532 597.5 C 518.4 597.9, 519.1 597.8, 521 599 C 521.8 599.5, 523.2 599.7, 524.1 599.5 C 528 598.2, 530 604.5, 527.5 610.3 C 526.5 612.8, 528.5 612.5, 535.2 609.1 C 538.3 607.5, 544.2 605.2, 548.2 604 C 552.2 602.8, 557.3 601.2, 559.5 600.5 C 561.7 599.8, 565.8 598.7, 568.7 598 C 573.2 596.8, 573.7 596.5, 572.2 595.4 C 570.8 594.4, 571.3 594.1, 575.5 593.5 C 578.3 593.2, 581.7 592.4, 583.1 591.9 C 584.9 591.2, 586.5 591.3, 588.2 592 C 590.2 592.9, 593.4 592.7, 603.6 591 C 628.5 586.7, 631.6 586.2, 648.5 583.6 C 686.8 577.8, 717 570.6, 717 567.2 C 717 566, 708.1 556.9, 702.6 552.5 C 699.9 550.3, 695.5 546.6, 692.9 544.4 C 690.3 542.1, 684 537.7, 678.8 534.7 C 673.6 531.6, 668.8 528.5, 668.2 527.7 C 667.3 526.7, 665.5 526.4, 662.2 526.6 C 658 526.9, 657.9 526.9, 660.8 526.1 C 665.4 524.9, 665.7 524.3, 662.9 521.4 C 659.9 518.1, 652 514.4, 643.8 512.5 C 640.3 511.6, 635.9 510.5, 634 509.9 C 632.1 509.3, 624.7 508.6, 617.5 508.3 C 605.3 507.8, 598.2 508.4, 585.1 511.1 C 580.1 512.1, 577.9 511.8, 579.3 510.4 C 580.7 509, 608.5 504, 615 504 C 618 504, 625.3 504.7, 631.3 505.6 L 642.1 507.2 648.9 503.1 C 658.2 497.4, 659.7 498, 651.5 504 L 644.7 509 648.7 509 C 656 509, 662.9 505.3, 663 501.3 C 663 499.9, 656 496, 653.5 496 C 652.7 496, 652 495.6, 652 495.1 C 652 494.6, 650.2 494, 648 493.6 C 645.8 493.3, 644 492.6, 644 492.2 C 644 490.6, 617.6 487.2, 603.8 487.1 C 599.3 487, 595.8 486.5, 595.4 485.9 C 594.4 484.2, 614.2 485.3, 630.5 487.9 C 639.1 489.2, 651.3 492.1, 652.5 492.9 C 654.5 494.5, 663.3 496.1, 664.3 495.1 C 664.9 494.5, 664.7 491.6, 663.9 486.9 L 662.6 479.7 637.1 480.4 C 600.8 481.5, 590.8 481.9, 590.1 482.5 C 589.6 483.1, 587.1 491.7, 587 493.4 C 587 493.8, 587.8 493.9, 588.8 493.5 C 591 492.5, 607.1 491.1, 608.8 491.7 C 611.4 492.7, 609.8 493.6, 604.8 493.8 C 596.5 494.1, 586 496.2, 586 497.5 C 586 499, 591.3 500, 600.5 500.1 C 604.4 500.1, 608.4 500.5, 609.5 501 C 613.4 502.5, 606.3 503.3, 594.5 502.6 L 583.2 501.9 578.7 507.7 C 576.2 510.9, 572.1 515.1, 569.6 517 C 567.1 518.9, 565.1 520.8, 565 521.3 C 565 522.2, 573.6 526, 583.2 529.4 C 587.3 530.8, 592.6 533, 595.1 534.4 C 597.5 535.7, 601.5 537.1, 604 537.5 C 609.1 538.3, 616 544.5, 616 548.2 C 616 551, 611.3 557, 609.2 557 C 608.3 557, 605.5 555.6, 603.1 554 C 600.7 552.3, 598.1 551, 597.5 551 C 594.1 551, 566 541.8, 566 540.7 C 566 539.7, 568.6 540, 579 542.5 C 582.6 543.4, 588.4 544.7, 592 545.5 C 602.9 547.8, 603.8 548.1, 605.6 550.1 C 608.8 553.6, 611.5 551.7, 610.3 546.8 C 609.4 543.3, 608.3 542.3, 604.2 541.6 C 602.2 541.3, 592.9 538.1, 583.5 534.4 C 557.6 524.4, 557.9 524.5, 553.1 526.9 C 546.3 530.4, 542.8 529, 549.4 525.5 C 551.3 524.4, 552.7 523.3, 552.4 522.9 C 551.3 521, 530.2 515.4, 520.8 514.4 C 512.9 513.6, 513.6 512.7, 511.6 526.5 C 510.1 536.7, 510.5 539, 513.7 539 C 514.5 539, 516.6 539.6, 518.3 540.4 C 521.1 541.6, 531.2 544.8, 537.5 546.3 C 538.6 546.6, 544.6 548.7, 550.9 550.9 C 560.7 554.4, 563.5 555, 570.4 555 C 577.5 555, 579.2 555.4, 584 558 C 589 560.8, 598.5 565.4, 605 568.3 C 606.4 568.9, 607.8 569.6, 608.3 569.8 C 608.7 570, 609 569.9, 609 569.6 C 609 568.9, 599.4 562.7, 592.7 559.1 C 587.5 556.3, 581.7 552, 583.2 552 C 588 552, 603.8 560.6, 610.3 566.8 C 614.7 571.1, 615 573.7, 611.3 578 C 608.1 581.9, 602.9 581.8, 594.5 577.9 C 588.2 575, 591.3 574, 598.9 576.5 C 604.6 578.3, 608.3 577.1, 607.8 573.6 C 607.4 570.9, 602.4 569.7, 599.6 571.6 C 597.1 573.1, 596 572.6, 596 570 C 596 568.8, 593.1 566.9, 586.9 564.1 C 578.3 560.1, 577.5 559.9, 570.7 560.3 C 563.7 560.8, 544.7 563.6, 542.3 564.5 C 541.6 564.7, 540.8 564.5, 540.5 564 C 540.1 563.4, 538.3 563, 536.4 563 L 532.9 563 536.5 566.2 C 539.2 568.5, 540.4 569, 540.9 568.1 C 541.4 567.4, 542 570, 542.4 574.2 C 542.8 578.2, 543.3 582.9, 543.6 584.6 C 544.4 589.1, 540.7 590.4, 528.8 589.8 C 518.9 589.3, 514.2 587.6, 505.4 581.2 C 497.5 575.4, 497.3 571.5, 503.9 540 C 507.4 522.8, 509.3 504.8, 508.7 493.7 C 507.6 475.8, 504.6 454.9, 501.3 443 C 498.3 432, 497.5 430, 487.9 409.4 L 484.6 402.2 481.5 406.5 C 478.1 411.3, 469.4 421, 468.6 421 C 467.1 421, 468.4 418.3, 473.4 411.2 C 480.4 401, 485.9 389.6, 484.5 388.1 C 483.7 387.3, 479.7 389.8, 473.6 395 C 467.6 400, 464.3 401.2, 469.3 396.6 C 472.8 393.4, 472.7 392.9, 468.8 394.1 C 463.6 395.5, 463.3 395.2, 467.2 392.5 C 469.2 391.1, 471.2 390, 471.6 390 C 473.3 390, 492.2 375.5, 496.8 370.7 C 504.4 362.5, 506.5 357.4, 506.5 346.5 C 506.5 333.3, 500.2 324, 486.3 316.9 C 481.4 314.3, 481.3 314.3, 480.1 316.2 C 477.4 320.5, 468.5 323.3, 459.9 322.7 C 455.6 322.3, 451.3 321.7, 450.3 321.2 C 449.3 320.7, 446.7 319.5, 444.5 318.4 C 434.5 313.8, 430.4 308.8, 427.6 297.4 C 424.3 284.5, 426.7 274.6, 435.4 265.2 C 440.6 259.5, 445.4 257.6, 454.5 257.6 C 463.8 257.5, 468 259.3, 474.4 265.9 C 479.7 271.3, 478.3 272.2, 472.3 267.3 C 458.3 255.7, 443.3 258.1, 433.1 273.5 C 429.5 279.1, 429.2 298, 432.6 304.5 C 439.6 317.5, 459.9 323.9, 473.6 317.4 C 477.4 315.6, 479 314.3, 479 312.9 C 479 310.8, 477.5 310.3, 476.5 312.1 C 476.1 312.7, 475.2 312.9, 474.4 312.6 C 473.6 312.3, 473 312.4, 473 312.8 C 473 316, 455.5 317.6, 449 315.1 C 435.1 309.5, 428.1 291.7, 434.4 277.8 C 446.1 251.6, 485.6 266, 480 294.4 C 478.5 301.9, 477.9 303.2, 472.2 309.2 C 467.3 314.5, 467.5 315, 473.5 311.6 C 479.5 308.2, 482.3 302.4, 482.8 292.4 C 483.3 284, 480.9 273, 478.8 273 C 478.2 273, 478.1 272.3, 478.4 271.4 C 479.9 267.5, 471.5 257.5, 462.8 252.8 C 455.7 249, 439.4 249.4, 432 253.6 C 425.2 257.4, 418 266, 413.6 275.5 L 410.3 282.5 401.2 282.8 C 395.7 283, 391.9 282.7, 391.5 282.1 C 391.1 281.4, 392 281, 393.7 280.9 C 401.4 280.8, 408.5 278.4, 409.4 275.7 C 411 271.3, 409.3 270.6, 396.2 270.4 L 384.5 270.2 382 265.6 C 375.5 254.1, 362 248, 349 250.9 M 342.4 260 C 341.2 260.4, 339.3 262.1, 338.1 263.6 C 335.2 267.3, 336.6 268, 345.1 267.3 L 351.9 266.7 353.9 270.1 C 357.7 276.6, 360.2 277.7, 360.8 273.2 C 362.2 264.1, 351.4 256.4, 342.4 260 M 668.5 259.7 C 653.9 262.9, 640.4 273.8, 638.9 283.5 C 638.5 286.4, 639.9 291.2, 641 290.5 C 641.6 290.2, 642 290.5, 642 291.3 C 642 293.9, 645.4 296.2, 647.2 294.7 C 656.5 287.4, 670.8 268.8, 672.5 261.8 C 673.2 258.9, 672.9 258.7, 668.5 259.7 M 456.6 268.2 C 452.1 274.6, 460.3 281.6, 466.1 276.4 C 467.8 274.8, 468 274.9, 469 277.5 C 469.7 279.4, 470.5 280, 471.6 279.6 C 472.5 279.3, 473.4 279, 473.6 279 C 475 279, 473.5 275.5, 470.9 272.5 C 465.2 266, 459.3 264.3, 456.6 268.2 M 364.4 277.2 C 364.5 288.3, 362.1 296.6, 357.4 301.7 C 353.9 305.4, 353.9 305.6, 357.8 303.6 C 366.8 298.9, 370.7 284.6, 366.2 272.7 L 364.4 267.9 364.4 277.2 M 173.4 295 C 173.7 300.8, 174.6 311.4, 175.5 318.5 C 176.3 325.7, 177.5 337.6, 178 345 C 178.5 352.4, 179.4 361.9, 180 366 C 180.5 370.1, 181 378.6, 181.2 384.8 L 181.5 396.1 186 395.8 L 190.5 395.5 190.7 388.5 L 190.8 381.5 189.6 387 L 188.3 392.5 187.8 385.5 C 187.4 381.7, 186.5 373.1, 185.6 366.5 C 184.7 359.9, 183.4 349.1, 182.6 342.5 C 181.7 335.9, 180.6 328.1, 180 325.2 C 179.4 322.2, 179 319.1, 179.2 318.2 C 179.4 317.3, 180.1 318.8, 180.7 321.5 C 184.1 336.8, 184.3 338.1, 187 365 C 189.6 389.8, 190.9 380.1, 189 350.5 C 187.6 328.7, 185.9 319.8, 179.3 300 C 173.6 283.1, 172.8 282.5, 173.4 295 M 128.4 293.4 C 127.9 294.6, 134.2 305.6, 136.3 307.1 C 136.7 307.4, 136.8 308.4, 136.4 309.3 C 135.9 310.7, 136.2 310.9, 137.6 310.3 C 139.3 309.7, 139.3 309.8, 138.1 311.3 C 137.3 312.3, 137 313.3, 137.4 313.7 C 137.7 314, 138 313.8, 138 313.2 C 138 312.5, 138.4 312, 138.8 312 C 139.2 312, 139.6 313.5, 139.7 315.3 C 139.7 317, 141 321.4, 142.7 325 C 144.3 328.6, 146.5 333.5, 147.5 336 C 148.5 338.5, 149.8 341.9, 150.5 343.5 C 151.2 345.2, 152.5 348.8, 153.5 351.5 C 154.4 354.3, 155.6 357.4, 156 358.5 C 156.4 359.6, 157.6 362.8, 158.5 365.5 C 159.5 368.3, 161.8 373.8, 163.6 377.8 C 165.5 381.9, 167 385.7, 167 386.3 C 167 386.8, 167.3 387.1, 167.6 386.7 C 168.4 385.9, 162.9 367.8, 157.6 353.5 C 154.2 344.5, 154.4 345, 146.5 328.7 C 142.8 321.1, 140 314.7, 140.2 314.4 C 141.1 313.5, 156.9 341.9, 157 344.7 C 157.1 345.1, 157.9 347.3, 159 349.5 C 160.1 351.7, 160.9 354.1, 161 354.8 C 161 355.5, 161.4 356.8, 161.9 357.8 C 162.5 358.7, 163.9 362.9, 165.1 367 C 166.2 371.1, 167.8 376.4, 168.6 378.8 C 169.4 381.1, 170 383.8, 170.1 384.8 C 170.1 385.7, 171 389, 172.1 392 L 174 397.5 173.5 392.5 C 172.9 387.4, 172.5 385.3, 168.9 369.5 C 167 360.8, 165.1 354.8, 162.5 348.5 C 161.8 346.9, 160.4 343.3, 159.4 340.5 C 154.2 326.2, 133.4 292, 129.9 292 C 129.4 292, 128.7 292.6, 128.4 293.4 M 89.5 302 C 91.3 304, 91.2 304.1, 84.7 310.4 C 81 314, 78.5 317, 79 317.2 C 80.1 317.5, 83 327.8, 83 331.2 C 83 332.9, 83.3 333.1, 84.2 332.2 C 85.1 331.3, 85.1 329.2, 84.2 323.3 C 83.2 316.9, 83.2 315.3, 84.3 314.5 C 86.7 312.7, 92 304.8, 92 303 C 92 302, 91.3 300.9, 90.4 300.6 C 87.8 299.6, 87.6 299.9, 89.5 302 M 326 300.8 C 326 304.9, 332.9 311, 337.4 311 C 340.3 311, 349 308.1, 351.5 306.2 C 353.4 304.8, 353.4 304.8, 351 305.5 C 349.6 305.9, 345.4 306.4, 341.5 306.7 C 334.6 307.2, 334.4 307.1, 330.3 303.5 C 327.9 301.5, 326 300.3, 326 300.8 M 634.1 313.3 C 631.5 319, 628.6 325.1, 627.7 327 C 622.7 337.8, 611.4 368.7, 607 383.5 C 600.1 406.9, 597.7 433, 600.1 460 C 601.2 473.8, 602.1 477.8, 603.5 477 C 604.7 476.4, 604.7 475.4, 603.6 452 C 602.6 428.5, 605.6 395.1, 609.9 383 C 610.4 381.6, 611.6 377.8, 612.5 374.5 C 615.6 363.7, 620 349.7, 621.5 346.6 C 625.6 337.5, 628.3 331.3, 630.5 325.7 C 631.9 322.3, 633.5 318.6, 634 317.5 C 636.3 312.5, 639.8 303, 639.4 303 C 639.1 303, 636.7 307.6, 634.1 313.3 M 148 311.3 C 148 311.7, 149.9 315.5, 152.3 319.7 C 154.6 324, 157.4 329.5, 158.4 332 C 163 342.7, 163.9 344.9, 166.3 351.5 C 171.1 364.9, 174.5 378.4, 175.6 389.4 C 176 393, 176.7 396, 177.3 396 C 178.4 396, 177.4 368.2, 176 357.8 C 174.9 349.9, 167 333.9, 159.1 323.3 C 153.6 315.9, 148 309.9, 148 311.3 M 367.6 314.5 C 365.1 318.3, 367 321.3, 371.3 320.5 C 373.9 320, 374.2 320.1, 372.8 321 C 370.1 322.7, 370.6 324.2, 373.8 323.8 C 377.5 323.4, 378.2 317.9, 374.9 314.4 C 372 311.3, 369.7 311.4, 367.6 314.5 M 243.6 329.9 C 243.3 330.3, 241.9 334.5, 240.4 339.1 C 239 343.7, 236.8 350.7, 235.5 354.5 C 227.9 378, 223.6 421, 228.7 422.7 C 229.7 423.1, 231 417.6, 233.5 401.5 C 235.3 390, 237.6 377.4, 239.5 368.5 C 241.2 360.8, 243.7 345.1, 244.7 335.3 C 245.2 329.5, 244.9 327.7, 243.6 329.9 M 223.1 337.5 C 222.4 341.4, 221.2 347.9, 220.5 352 C 219.7 356.1, 218.6 363.3, 218 367.9 C 217.4 372.5, 216.7 376.7, 216.3 377.3 C 215.7 378.2, 215 381.1, 213.6 388.5 C 213.4 389.6, 212.5 393, 211.6 396 C 210.1 401.3, 210.2 401.6, 212.2 403.3 C 213.3 404.2, 214.5 405, 214.9 405 C 216.1 405, 218 397.1, 218.1 391.8 L 218.2 386.5 219.1 391.4 C 219.6 394.9, 219.5 398, 218.5 401.8 L 217 407.3 220.4 410.8 L 223.8 414.2 224.4 403.4 C 224.8 397.4, 225.5 386, 226.1 378 C 227.2 363.2, 226.9 343.1, 225.3 335 L 224.4 330.5 223.1 337.5 M 468 336.8 C 468 337.8, 471.2 339.5, 475.4 340.7 C 481.7 342.6, 478.8 345.2, 461 354.1 C 428.6 370.1, 392.6 374.4, 366 365.3 C 348.1 359.3, 324 344.4, 324 339.4 C 324 337.2, 320.1 337.8, 317.5 340.5 C 316.1 341.8, 315 343.8, 315 345 C 315 347.6, 316.2 347.6, 317.8 345 C 319.4 342.4, 321.2 342.5, 323.6 345.1 C 326.3 348.1, 339.6 358.1, 345 361.2 C 377.1 379.7, 419.7 378.9, 461 359.2 C 465.1 357.2, 477.9 349.1, 479.8 347.3 C 483.8 343.4, 489.1 345.1, 492.5 351.4 C 494.6 355.3, 495.5 355.8, 496.4 353.5 C 497.1 351.7, 495.5 347.2, 493.2 344.6 C 489.6 340.6, 468 333.9, 468 336.8 M 93 348 C 93 348.4, 95.3 349.7, 98 350.9 C 100.8 352.2, 103.6 353.7, 104.3 354.4 C 104.9 355.1, 108.2 357.6, 111.5 360 C 121.2 367.2, 133.2 379.3, 141.6 390.5 C 148.8 400.1, 152.8 403.5, 154.7 401.6 C 157.4 398.9, 129.4 368.2, 117.1 360.2 C 114.2 358.4, 114 358, 116 358.6 C 117.4 359, 119.9 360.2, 121.5 361.3 C 126.3 364.5, 150.2 389.3, 154.5 395.4 C 156.6 398.5, 158.9 401, 159.5 401 C 161.6 401, 170 397.8, 170 397 C 170 395.1, 159.5 380.5, 153.5 374.1 C 137.4 357.1, 123.6 350.3, 100.5 348.1 C 96.4 347.7, 93 347.7, 93 348 M 91.6 355 C 92.9 357.7, 94 360.3, 94 360.6 C 94 360.9, 94.6 362.6, 95.4 364.3 C 96.2 366.1, 97.8 370.9, 99 375 C 100.2 379.1, 101.8 384.3, 102.5 386.5 C 103.2 388.7, 104.5 393.7, 105.5 397.5 C 106.4 401.4, 107.4 405, 107.6 405.7 C 107.8 406.5, 109.8 406.1, 114.2 404.3 C 119.3 402.2, 122.8 401.6, 133.2 401.1 L 146 400.5 139.4 392 C 127.1 375.8, 114.3 364.2, 98.6 354.8 C 88.8 348.9, 88.6 348.9, 91.6 355 M 477.2 357 C 475.4 359.2, 471.5 362.4, 468.7 364.3 C 439.6 383.6, 397.6 390.2, 369 380 C 359.2 376.5, 359.4 376.6, 360.9 378.4 C 362.6 380.5, 371.9 384.6, 379.2 386.7 C 408 394.6, 468.1 377.3, 480.1 357.7 C 483.7 351.7, 482.1 351.4, 477.2 357 M 639.8 365.1 C 635.7 367.2, 635.5 367.8, 637.5 373 L 638.9 376.5 638.3 372.3 C 637.8 368.5, 638 368.1, 640.8 366.6 C 644.6 364.6, 647.9 364.6, 650.5 366.4 C 653.8 368.6, 662 373, 662.9 373 C 663.4 373, 664.9 371.2, 666.4 369 C 669.5 364.3, 669.6 364.3, 675.6 367.2 C 680.5 369.5, 682.1 371.7, 679.9 373.1 C 678.7 373.8, 678.8 374, 680.1 374 C 680.9 374, 682.2 373.4, 682.8 372.8 C 683.8 371.8, 684.3 371.8, 684.8 372.7 C 685.3 373.5, 686.1 373.6, 687 373 C 690.4 370.9, 696 375, 696 379.6 C 696 382.1, 692.8 384.2, 690.3 383.3 C 689.6 383, 689 383.5, 689 384.4 C 689 386.5, 693.8 386.5, 696.9 384.4 C 699.5 382.5, 699.2 379.3, 695.9 375.2 C 693.3 371.8, 693.4 371.3, 697.9 370.6 C 700 370.3, 703 369.3, 704.6 368.4 L 707.5 366.9 704.5 367.4 C 702.9 367.7, 697.8 368.7, 693.3 369.6 L 685.2 371.3 681.3 368.4 C 671.9 361.3, 669.1 361.4, 663.7 369 C 662.3 371, 662.2 371, 656.3 367 C 649.5 362.5, 645.8 362, 639.8 365.1 M 211.8 373.6 C 209.8 377.9, 207 385.1, 205.5 389.4 L 202.8 397.3 205.1 399.1 C 208.4 401.7, 208.8 401.5, 209.5 397.3 C 209.9 395.2, 210.5 392.6, 211 391.5 C 211.5 390.4, 212.4 387.1, 213 384.3 C 213.5 381.4, 214.5 376.7, 215.1 373.9 C 216.8 365.4, 215.7 365.2, 211.8 373.6 M 255.9 376.3 C 253.5 379.7, 251.3 382.7, 250.8 382.8 C 250.4 383, 250 383.8, 250 384.6 C 250 385.4, 249.5 386, 248.9 386 C 248.3 386, 248.1 386.9, 248.5 388.3 C 248.9 389.8, 248.8 390.1, 248.2 389.2 C 246 386.1, 237.6 399.1, 234.6 410 C 229.5 429.3, 228.6 436, 232.3 429.5 C 234.3 425.8, 234.6 428.4, 232.6 432.2 C 231.8 433.7, 231 438, 230.9 441.7 L 230.6 448.5 234.7 448.8 L 238.8 449.1 239.2 434.8 L 239.6 420.5 243.4 414.2 C 247.1 408.2, 249 406, 249 407.7 C 249 408.1, 247.3 411.2, 245.3 414.5 C 241.6 420.5, 241.6 420.6, 241.2 433.8 L 240.8 447 243.4 447 C 245.8 447, 246 446.7, 246 442.6 C 246 440.2, 247 432.2, 248.1 424.9 C 249.3 417.5, 250.4 409.9, 250.5 408 C 250.6 406.1, 251.4 403.2, 252.2 401.5 C 253.1 399.9, 254.3 396.7, 255 394.5 C 255.6 392.3, 256.8 388.3, 257.6 385.5 C 259.1 380.6, 261 370, 260.4 370 C 260.2 370, 258.2 372.8, 255.9 376.3 M 664 378.3 C 664 380.3, 663.6 380.4, 661 379 C 659.7 378.3, 658.1 378.5, 655.4 379.6 C 652.4 380.9, 651.6 380.9, 650.9 379.8 C 650.2 378.8, 650 379, 650 380.3 C 650 382.3, 646.3 385.9, 644.4 386 C 643.8 386, 642.7 386.7, 641.9 387.6 C 641.2 388.4, 639.8 388.9, 638.8 388.6 C 637.6 388.3, 637 388.6, 637.3 389.3 C 637.5 390, 638.6 390.4, 639.6 390.2 C 641.6 389.8, 645.9 389.2, 647.4 389.1 C 647.8 389, 648 388.4, 647.7 387.6 C 647.4 386.8, 647.8 385.6, 648.6 385 C 649.4 384.3, 650 384.1, 650 384.5 C 650 384.9, 650.6 384.7, 651.4 384.1 C 652.1 383.5, 653.6 383.2, 654.6 383.6 C 656.2 384.1, 656.2 384, 655 383.1 C 653.7 382.2, 653.8 382, 655.3 382 C 656.3 382, 656.8 381.6, 656.5 381 C 656.2 380.5, 656.6 380, 657.6 380 C 658.7 380, 659.1 380.6, 658.7 382 C 658.4 383.3, 658.7 384, 659.6 384 C 660.4 384, 661.9 385.5, 663 387.3 C 664.5 389.7, 665 390, 665 388.6 C 665 387.5, 664.1 385.6, 662.9 384.4 L 660.8 382.2 663 381.5 C 665.9 380.6, 666.8 381.6, 667.3 386.5 C 667.7 390.5, 667.7 390.5, 667.8 385.8 C 668 382.2, 668.5 380.7, 670 379.8 C 671.1 379.1, 672 378.1, 672 377.6 C 672 377.2, 670.8 377.5, 669.4 378.5 C 667 380.1, 666.8 380.1, 665.4 378.3 C 664.2 376.6, 664.1 376.6, 664 378.3 M 47.1 380.5 C 46.8 389.5, 53.6 402.8, 63.4 412.5 C 73.9 422.8, 74.5 423, 82.4 418.9 C 85.9 417.1, 88.7 415.3, 88.4 414.9 C 88.2 414.6, 85.4 413.7, 82.1 413.1 C 74.3 411.6, 67.6 408, 61.5 401.9 C 56.1 396.7, 52.2 391, 53.9 391 C 54.5 391, 55 391.5, 55 392.1 C 55 394.1, 65.2 403, 71.5 406.5 C 79.2 410.9, 84.5 412.2, 95 412.6 L 103.5 412.9 95 410.6 C 75.9 405.2, 66 400.1, 56.9 390.7 C 54 387.8, 51.7 386.1, 51 386.5 C 50.1 387, 50 386.6, 50.5 385.1 C 50.8 384, 50.7 383, 50.2 383 C 49.7 383, 48.8 382, 48.2 380.8 C 47.2 378.6, 47.1 378.6, 47.1 380.5 M 259.5 389.2 C 259.1 391.5, 258.4 394.1, 258 395 C 253.6 403.5, 247.2 440.9, 249.9 441.8 C 250.5 442, 251 442.9, 250.9 443.8 C 250.9 444.9, 250.7 445, 250.3 444.3 C 249.6 442.5, 248 442.7, 248 444.5 C 248 446.3, 251.2 446.5, 254.2 444.9 C 255.3 444.3, 258.5 443.6, 261.3 443.4 C 271.4 442.7, 275 436.2, 275.3 417.9 C 275.4 406.1, 274.7 404, 266.4 392.3 C 260.7 384.3, 260.3 384.2, 259.5 389.2 M 380 392.5 C 380 393.4, 384.3 396.9, 385.5 397 C 386.1 397, 387.6 397.6, 389 398.3 C 396.6 402.3, 413.6 406, 424 406 C 436.4 406, 454.6 401.9, 452.4 399.7 C 452 399.3, 450.9 399.5, 449.9 400.1 C 446.3 402, 426.6 403.1, 416.3 401.9 C 403.9 400.6, 395.3 398.2, 381.8 392.5 C 380.8 392.1, 380 392.1, 380 392.5 M 179 400 C 172.7 401.1, 166.5 402.8, 163.2 404.3 C 160.6 405.5, 149.7 405.6, 135.4 404.5 C 124.6 403.7, 121.4 404.4, 111.5 409.5 C 106.6 412, 106.9 412.9, 114.5 416.1 C 117.8 417.5, 122.8 419.7, 125.5 420.9 C 128.3 422.1, 131.4 423.5, 132.5 424 C 133.6 424.5, 137 425.6, 140 426.6 C 143 427.5, 148 429.5, 151 430.9 C 154 432.4, 159.6 434.6, 163.4 435.9 C 177.2 440.5, 189.3 449.7, 190.6 456.5 C 191.4 460.8, 191.8 460.8, 195.8 456.5 C 197.6 454.6, 200.4 452.3, 202.1 451.3 C 205.7 449.1, 205.8 448.4, 202.3 447.7 C 189.7 445.2, 189.6 445.1, 186.1 440.8 C 184.2 438.4, 176.8 430.8, 169.7 423.8 C 162.5 416.7, 157 411, 157.4 411 C 160.3 411, 178.5 428.1, 187.5 439.3 C 190.4 442.9, 191.7 443.4, 203.5 446 C 205.7 446.4, 207.6 446.8, 207.6 446.7 C 208.2 446, 198.3 432.8, 193.4 427.7 C 184.3 418.3, 173.8 410, 171.1 410 C 170.5 410, 170 409.6, 170 409 C 170 408.5, 169.2 408, 168.3 407.9 C 167.3 407.9, 167 407.6, 167.7 407.4 C 168.9 406.9, 172.6 408.7, 179.9 413.4 C 186.8 417.8, 200.6 431.7, 205.6 439.2 C 210.8 447.2, 210.1 446.8, 220.4 447.2 L 228.3 447.6 227.7 439.8 C 225.4 410.9, 206.5 395.4, 179 400 M 574.8 404.8 C 578.2 413.3, 594.7 435.7, 596.3 434 C 596.6 433.7, 597 429.4, 597.2 424.4 C 597.6 416.6, 597.5 415.1, 596 414.2 C 593.3 412.5, 575.1 403, 574.5 403 C 574.3 403, 574.4 403.8, 574.8 404.8 M 277.4 420.8 C 277.4 428.8, 276.8 433.8, 275.8 436.6 L 274.2 440.6 281.9 437.9 C 286.2 436.4, 291.8 434.9, 294.3 434.5 C 296.9 434.1, 299 433.4, 299 433 C 299 432.5, 294.4 427.3, 288.9 421.3 C 283.3 415.4, 278.5 410.2, 278.1 409.8 C 277.8 409.4, 277.5 414.4, 277.4 420.8 M 96.8 415.8 C 94.8 416, 90 417.8, 86.3 419.9 C 79.6 423.6, 79.5 423.6, 79.8 427.4 C 80.6 437.5, 92.3 447.6, 106 449.9 C 122.7 452.7, 135.6 456.7, 148.7 463.2 C 149.9 463.8, 151.8 464, 152.9 463.7 C 154.1 463.4, 155 463.5, 155 463.9 C 155 464.2, 157.8 465.3, 161.3 466.3 C 164.7 467.2, 169.8 468.7, 172.6 469.5 C 175.4 470.3, 179 470.9, 180.6 470.9 C 182.4 470.8, 182.8 470.6, 181.7 470.3 C 180.7 470, 178.7 469.2, 177.2 468.4 C 173.4 466.4, 176.9 466.6, 182 468.6 C 186 470.2, 186.2 470.2, 188.5 468 C 191.6 465, 191.6 463.4, 188.4 457.2 C 184.3 449.3, 170.5 439.8, 158 436.4 C 156.6 436.1, 151.9 434, 147.5 431.9 C 136.2 426.4, 132.6 426.7, 143.2 432.2 C 145.8 433.6, 147.7 435, 147.3 435.3 C 147 435.7, 145.8 435.4, 144.7 434.9 C 141.4 433.1, 136.7 438.6, 136.7 444.2 C 136.7 450.1, 139 453.2, 146.6 457.6 C 154.3 462.2, 154.2 463.2, 146.3 459.5 C 143.1 458, 138.6 456.2, 136.3 455.5 C 131.4 454, 124 448.8, 119 443.3 L 115.5 439.5 120 443.6 C 124.3 447.6, 137.8 455.5, 138.8 454.6 C 139 454.3, 138.3 453.2, 137.2 452 C 133.1 447.6, 133.5 442.1, 138.5 436.2 L 141.2 433 137.5 430.9 C 134.8 429.3, 134.2 428.5, 135.2 427.8 C 136 427.3, 135.5 427.2, 133.8 427.6 C 131.6 428.1, 131 427.9, 131 426.6 C 131 425.7, 130.5 425, 129.9 425 C 129.4 425, 126.3 423.8, 123.2 422.4 C 111.1 416.8, 104.5 415.2, 96.8 415.8 M 606.8 425.2 C 606.5 430.9, 606.6 435.8, 607 436.3 C 607.8 437.3, 621.7 433.8, 625.5 431.6 L 628.5 429.9 624 430.5 L 619.5 431.1 622.4 429.6 C 623.9 428.7, 626.3 428, 627.7 428 C 629 428, 629.8 427.6, 629.5 427 C 628.7 425.6, 624.3 425.7, 623.8 427.1 C 623.1 429.3, 619.2 427, 613.2 420.9 L 607.2 414.8 606.8 425.2 M 712.7 422.4 C 710.6 423.2, 704.5 424.8, 699.2 426 C 693.9 427.2, 688.5 428.5, 687.3 429 C 684.8 430, 678 431, 661.1 432.6 L 653.8 433.3 654.4 440.9 C 654.8 445.1, 655.3 450.8, 655.5 453.5 L 656 458.5 654.5 454 C 653.7 451.5, 653 445.8, 653 441.4 L 653 433.2 648.4 432.8 C 641.2 432.3, 640 433.7, 640 442.3 C 640.1 450.5, 642.8 458.1, 647.9 464.2 C 650.9 467.7, 660.2 473, 663.4 473 C 664.3 473, 665 473.4, 665 473.9 C 665 477, 678.4 475.1, 688.2 470.7 C 708.6 461.4, 718 447.6, 718 427 C 718 420.4, 718.1 420.5, 712.7 422.4 M 630.3 433 C 622.4 436.6, 612.5 440, 609.6 440 C 603.6 440, 607.2 446.2, 617.9 454.4 C 625.5 460.1, 653.7 474, 657.5 473.9 L 660.5 473.8 657.3 473 C 651.3 471.6, 643.4 464, 641.4 457.8 C 640.1 453.9, 638.6 453.9, 638.2 457.8 C 637.6 463.5, 636 461.2, 636 454.8 C 636.1 444.3, 637.8 433.9, 639.6 432.5 C 643.3 429.9, 636.3 430.2, 630.3 433 M 379.6 438.9 C 387.9 445, 393.2 446.4, 407.5 446.3 C 422.9 446.3, 437.6 443.8, 440.4 441 C 441.7 439.6, 434.9 440.4, 429 442.3 C 427.1 442.9, 418.6 443.4, 410 443.4 C 393.8 443.5, 389.7 442.7, 381.5 437.8 C 376.7 434.9, 375.3 435.7, 379.6 438.9 M 536.5 449 C 533.8 449.5, 526.6 450.5, 520.7 451.3 C 514.8 452.1, 509.6 453.1, 509.3 453.4 C 508.9 453.8, 509.2 456.3, 509.9 459 C 511.4 464.7, 512.7 477, 513.6 492.2 L 514.3 502.9 519.1 496.6 C 526.7 486.6, 539.4 477, 545.1 477 C 548.3 477, 547.2 478.5, 542.4 480.8 C 536.2 483.8, 528.2 491.6, 522.1 500.5 C 515.8 509.5, 515.8 510, 521.6 510 C 524.2 510, 527.9 510.4, 529.9 510.9 C 531.9 511.5, 536.9 512.6, 541 513.6 C 545.1 514.5, 550.4 516.1, 552.7 517.1 C 558.3 519.7, 558 519.7, 565.3 513.5 C 573.9 506.3, 577.7 501.3, 581.1 492.8 C 592.5 464.8, 570.5 443.2, 536.5 449 M 606.9 449.6 C 606.9 450.1, 606.9 455, 607 460.5 C 607.2 477.8, 608.4 480.2, 613.6 473.5 C 616.4 469.8, 625.1 462.4, 623.5 465 C 623 465.8, 620.9 468.7, 618.8 471.4 C 616.7 474.1, 615.1 476.4, 615.2 476.5 C 615.4 476.6, 623.4 476.5, 633 476.1 C 649.4 475.5, 650.3 475.4, 647 474.1 C 633.2 468.5, 619.1 459.9, 610.3 451.6 C 608.5 450, 607 449, 606.9 449.6 M 91.1 452.7 C 86.4 455, 81.8 461.6, 82.2 465.4 C 82.5 468.9, 90.7 473.7, 103.5 477.9 C 116.6 482.2, 155.9 483, 191 479.6 C 200.1 478.8, 208.7 478.1, 210.1 478 C 212 478, 213 477.1, 214.4 474.4 C 216.4 470.2, 215.9 469.2, 212.7 470.8 C 208.9 472.7, 189.9 475.3, 183.5 474.8 C 178.1 474.3, 169.2 475.5, 165 477.3 C 163.4 477.9, 152.4 480, 150.6 480 C 147.7 480, 155.9 476.9, 164.4 474.9 L 174 472.5 166.7 470.8 C 162.8 469.9, 158.4 468.5, 157.1 467.8 C 155.8 467.1, 152.5 466.6, 149.8 466.7 C 145.4 466.8, 145.1 466.7, 146.7 465.4 C 148.4 464.1, 148.4 464.1, 146.7 464 C 145.6 464, 143.6 463.4, 142.2 462.6 C 140.7 461.8, 136.8 460.4, 133.5 459.5 C 130.2 458.5, 125.5 457.2, 123 456.4 C 119.7 455.4, 95.6 450.8, 94.6 451 C 94.6 451, 93 451.8, 91.1 452.7 M 212 453.1 C 205.7 456.2, 197.9 462.2, 193.7 467.2 C 191.7 469.5, 190.2 471.5, 190.3 471.6 C 190.4 471.7, 194.3 471.3, 199 470.9 C 212.7 469.5, 216.9 468.1, 221.3 463.3 C 223.5 460.9, 226.8 458.1, 228.7 456.9 C 231.8 455, 232 454.6, 230.7 453.3 C 228.1 450.7, 217.2 450.6, 212 453.1 M 671 479.7 C 666.1 480.3, 666 480.6, 666.8 488.7 C 667.5 495.3, 667.5 495.9, 665.6 496.4 C 661.4 497.5, 668.1 501.9, 676.4 503.4 C 680.7 504.2, 691.3 508.9, 689 509 C 688.2 509, 685.5 508.4, 683 507.6 C 668.2 502.7, 666 502.5, 666 505.3 C 666 507.9, 688 512.1, 690.6 509.9 C 691.5 509.2, 693.2 509.3, 696.5 510.4 C 705.9 513.6, 727.6 511.8, 737 507 C 741.9 504.5, 743.2 502.7, 743.2 498.4 C 743.2 490.6, 731.6 483.8, 713.5 481.1 C 705.5 480, 676.3 478.9, 671 479.7 M 203 481.6 C 201.6 481.8, 195.6 482.2, 189.6 482.6 C 177.9 483.3, 177.4 484.3, 188 485.4 C 191.6 485.8, 196.1 486.5, 198 487 C 199.9 487.5, 203.9 488.1, 206.8 488.5 L 212 489.2 212 485.1 C 212 480.7, 211.7 480.5, 203 481.6 M 92 486.5 C 88.8 487.7, 89.5 487.8, 98.5 487.5 L 108.5 487.1 100 488.1 C 95.3 488.7, 89.9 489.2, 88 489.4 C 78.5 490.1, 67.7 495.2, 61.6 502 C 57.3 506.8, 57.1 507.7, 60.8 508.3 C 63.1 508.6, 62.9 508.7, 59.9 508.9 C 55.4 509, 53 511.6, 52.3 516.8 C 51.8 520.3, 52 520.9, 54.1 521.5 C 55.4 521.9, 61.4 524.7, 67.3 527.6 C 84.9 536.5, 86 536.7, 93.4 533.2 C 102 529.2, 120.5 522.4, 126.5 521.2 C 129.3 520.6, 136.6 518.8, 142.7 517.1 C 148.9 515.4, 157 513.5, 160.7 512.9 C 167.4 511.7, 167.4 511.6, 164 510.8 C 155.6 508.6, 144.7 506.9, 134.5 505.9 C 106.4 503.3, 105.5 503.1, 123.5 503.5 C 132.9 503.6, 142.5 504.3, 145 504.9 C 165.1 509.7, 173.4 510.5, 189.6 508.9 C 197.8 508.1, 207.3 507.5, 210.8 507.5 C 214.2 507.5, 216.9 507.3, 216.8 507 C 216.6 506.7, 215.4 503.4, 214 499.7 C 211 491.5, 210.7 491.4, 184.5 488 C 168.9 485.9, 96.7 484.8, 92 486.5 M 267.4 490.9 C 259 492.4, 256.8 495.2, 255.6 505.6 L 254.9 511.8 259.7 515.7 C 262.3 517.8, 268.8 522.7, 274 526.5 C 279.2 530.3, 283.8 533.9, 284.1 534.4 C 285.2 535.9, 293.8 536.9, 306.1 536.9 L 317.8 537 316.8 533.3 C 315.4 528.1, 312.2 509.7, 311.5 502.8 L 310.9 497.1 305.7 495.6 C 290.7 491.2, 276 489.3, 267.4 490.9 M 46.3 510.3 C 39.9 516.9, 38.5 521.9, 41 528.5 C 43.8 535.8, 62.2 547.7, 72.3 548.7 C 77.1 549.2, 77.8 548.9, 82.3 545.6 C 87.3 541.6, 88 540.3, 85.3 539.4 C 81.2 538, 65.4 531.6, 64.5 531 C 64 530.6, 61.9 529.9, 60 529.5 C 47.7 526.9, 44 520.5, 49 510.7 C 51.8 505.4, 51.1 505.2, 46.3 510.3 M 220 511.7 C 220 514, 228.1 520.5, 235.9 524.2 C 240.6 526.6, 245.9 529.5, 247.7 530.8 C 251.7 533.8, 266.9 534.5, 269.6 531.8 C 271 530.4, 270.6 529.8, 265.9 525.9 C 263 523.5, 258.6 519.3, 256 516.7 L 251.3 511.9 247.5 514.4 C 241.9 518.2, 229.8 517.2, 222.3 512.3 C 221 511.5, 220 511.2, 220 511.7 M 657.7 514 C 662.4 516.2, 664.2 517.6, 665.5 520.3 C 667.8 525.1, 669.1 526.2, 679.9 531.5 C 690.2 536.6, 695.6 540.3, 707.8 550.9 C 712.3 554.7, 716.6 557.7, 717.4 557.4 C 718.3 557, 718.7 558, 718.6 561.1 C 718.5 567.2, 720.1 566.9, 727.4 559.3 C 735 551.5, 736.5 548.5, 735.5 543.3 C 734.7 538.7, 725 528.9, 717.4 525 C 714.7 523.6, 709.5 520.7, 705.8 518.6 C 700.8 515.8, 697.6 514.7, 693.3 514.4 C 689.2 514.1, 688.1 514.2, 689.5 514.9 C 691 515.6, 690.3 515.7, 687 515.3 C 682.8 514.8, 682.4 515, 681 517.6 C 680.2 519.2, 679 521.2, 678.3 522.1 C 677.1 523.5, 678 523.8, 687.4 524.3 C 713 525.9, 733.1 538, 730.5 550.2 C 729.7 553.8, 728.4 553.8, 727.5 550.3 C 726.4 545.9, 723.2 541.3, 719.5 539 C 713.2 535.1, 693.5 530, 684.6 530 C 676.1 530, 668 523.2, 668 515.9 C 668 511.6, 666.7 511, 657.5 511.1 L 651.5 511.1 657.7 514 M 177.7 519.5 C 180.2 521.3, 192.5 527, 193.7 527 C 194.2 527, 196.8 528, 199.6 529.3 C 202.3 530.6, 207.4 532.7, 211 533.9 C 214.6 535.2, 218.9 536.9, 220.7 537.6 C 222.4 538.4, 224.6 539, 225.7 539 C 228 539, 220.6 535.2, 212 532 C 208.4 530.7, 204.4 529, 203 528.3 C 201.6 527.6, 199.8 527, 199 527 C 198.1 527, 197 526.6, 196.5 526.2 C 195.9 525.7, 192.6 524.3, 189 523 C 185.4 521.7, 181.4 520, 180 519.3 C 176.6 517.5, 175.1 517.7, 177.7 519.5 M 342 522.6 C 339.5 525.5, 340.2 532, 343.2 534.3 C 349.8 539.3, 355.5 528.6, 349.4 522.6 C 347.4 520.6, 343.6 520.6, 342 522.6 M 277.4 541.4 C 276.6 544.8, 276.6 544.8, 282.6 546 C 304 550.6, 318 551.8, 318 549 C 318 548.4, 318.7 548, 319.5 548 C 320.9 548, 320.8 543.8, 319.4 542.1 C 319.2 541.9, 313.8 541.8, 307.3 541.9 C 296.6 542, 291 541.5, 281.3 539.4 C 278.4 538.8, 278 539, 277.4 541.4 M 507.7 545.8 C 507.3 547.8, 506.7 550.8, 506.4 552.3 C 505.7 555.5, 504.2 555.4, 520.5 552.8 C 536 550.4, 535.9 550.9, 521.8 546.2 C 514.8 543.9, 508.9 542, 508.7 542 C 508.4 542, 508 543.7, 507.7 545.8 M 680 546.1 C 678.1 546.5, 674 547.4, 671 548 C 668 548.7, 665.1 549.5, 664.5 550 C 664 550.4, 661.6 551, 659.2 551.4 C 656.8 551.7, 654.1 552.4, 653.2 553 C 652.3 553.5, 649.7 554.3, 647.5 554.8 C 645.3 555.4, 641 556.6, 638 557.5 C 635 558.4, 630.5 559.6, 628 560.2 C 625.5 560.7, 623.1 561.6, 622.6 562.1 C 622 562.6, 620.5 563, 619.1 563 C 617.6 563.1, 615.4 563.7, 614 564.5 C 611.6 565.9, 611.6 565.9, 613.7 566 C 614.9 566, 616.2 565.5, 616.5 564.9 C 616.9 564.3, 617.9 564.1, 618.6 564.4 C 619.4 564.7, 620.8 564.6, 621.8 564.1 C 623.4 563.2, 626.7 562.3, 636.5 559.9 C 638.7 559.4, 641.4 558.6, 642.5 558.1 C 643.6 557.6, 646.3 556.7, 648.5 556.2 C 650.7 555.6, 655 554.4, 658 553.5 C 663.6 551.8, 672.3 549.6, 679.5 548 C 681.7 547.5, 684.6 546.7, 686 546.1 L 688.5 545.1 686 545.2 C 684.6 545.2, 681.9 545.6, 680 546.1 M 534.5 555.1 C 532.9 555.5, 527 556.8, 521.5 558 C 506 561.3, 505.6 561.4, 504.3 564 C 503.6 565.4, 503 568.4, 503 570.7 C 503 574.6, 503.4 575.3, 507.3 578.1 C 522.4 589.1, 540 590.6, 540 580.9 C 540 579.3, 539.7 579, 538.8 579.7 C 536.4 581.6, 531 582, 527.1 580.6 C 523 579.2, 522.5 580.2, 525.3 583.8 C 525.9 584.6, 525.9 585, 525.2 585 C 523.7 585, 520.2 581.2, 518.4 577.8 C 517.6 576.2, 516.1 575, 515 575 C 512.5 575, 512.6 574.5, 515.9 569 C 520 562.2, 522.7 561.1, 538.1 560 C 545.5 559.5, 553.1 558.6, 555 558.2 L 558.5 557.3 554.5 556.6 C 552.3 556.2, 548.9 555.5, 546.9 555 C 542.7 553.8, 538.7 553.9, 534.5 555.1 M 367 557.4 C 367 560.1, 368.6 561, 373.9 561 C 376 561, 380.5 562.2, 384 563.6 C 390 566, 391.1 566.1, 400.2 565.5 C 410.6 564.7, 413.5 563.5, 407.3 562.5 C 401.8 561.6, 395.1 560.3, 380.9 557.5 C 365.7 554.5, 367 554.5, 367 557.4 M 73 581 C 91.4 582.1, 124.5 585.3, 161.5 589.5 C 169.2 590.4, 176.6 591.1, 177.9 591.1 C 181.8 591, 181.7 590, 177.8 590 C 175.9 590, 173 589.6, 171.4 589 C 169.8 588.5, 163.3 587.6, 157 587 C 137.5 585.1, 117.9 583.1, 109.1 582.1 C 104.5 581.5, 91.2 580.9, 79.6 580.6 C 60 580.2, 59.6 580.2, 73 581 M 688 583.6 C 684.4 584.4, 678.6 585.5, 675 586.1 C 671.4 586.7, 667.8 587.5, 667 587.8 C 665.1 588.5, 651.7 590.4, 634.5 592.5 C 622.2 593.9, 616.5 594.8, 594 598.5 C 588.8 599.3, 580 600.7, 574.5 601.5 C 565.9 602.7, 554.2 605.6, 540 609.9 C 535.7 611.3, 530 613.9, 530 614.6 C 530 614.9, 530.4 615.9, 531 616.9 C 532.1 619.1, 532.3 619.1, 586.5 622 C 619.1 623.8, 645.3 626, 652 627.6 C 653.4 627.9, 658.6 628.8, 663.5 629.6 C 677.9 631.8, 695.5 635.5, 705.5 638.4 C 708.3 639.2, 712.3 640.4, 714.5 641 C 716.7 641.7, 718.9 642.6, 719.5 643.1 C 723.7 647.2, 730.1 631.8, 730.1 617.2 C 730.2 602.8, 722.8 591.5, 709.1 585.2 C 702.4 582.1, 696.6 581.7, 688 583.6 M 230 588.2 C 226.5 589.8, 220.5 592.3, 213.6 595.1 C 210.4 596.4, 207.5 598.2, 207.2 599 C 205.9 602.5, 201.8 602.2, 199.3 598.4 C 196.7 594.3, 191 595.8, 191 600.6 C 191 604.6, 195.7 608, 201.1 608 C 205.5 608, 206.4 607.6, 210.5 603.6 C 217.8 596.4, 231.2 591.2, 239.6 592.2 C 243.3 592.6, 243.3 592.6, 242.4 589.3 C 241.7 586.7, 234.8 586.1, 230 588.2 M 462.5 589 C 458 591.1, 454.4 593.8, 455.1 594.4 C 455.4 594.7, 457.6 594.4, 460 593.9 C 462.5 593.3, 466 593, 467.9 593.2 C 471.6 593.5, 473.8 591.5, 472.7 588.6 C 471.9 586.5, 467.6 586.6, 462.5 589 M 310.5 592.1 C 307.8 594.5, 307 596, 307 598.5 C 307 602.5, 308.2 603, 316.4 603.1 C 324.2 603.2, 327.4 601.1, 326.7 596.3 C 325.4 588.3, 317.3 586.2, 310.5 592.1 M 285.6 593.9 C 285.2 594.4, 285.5 597.1, 286.1 599.9 C 287.4 606.1, 289.8 607.1, 296.6 604.5 C 301.3 602.7, 302.3 601.5, 303.5 596.3 L 304.2 593 295.1 593 C 290.2 593, 285.9 593.4, 285.6 593.9 M 435.9 594.5 C 432.4 596.4, 431.7 599.4, 434.2 602.5 C 436.3 605.2, 441 605.9, 442.8 603.7 C 447.5 598, 442.3 591.1, 435.9 594.5 M 236.5 595.6 C 231.4 596.7, 221 600.2, 220.5 601.1 C 220.1 601.6, 222 602, 224.7 602 C 227.3 602, 232.5 602.3, 236.3 602.7 L 243 603.3 243 599.1 C 243 594.8, 242.4 594.4, 236.5 595.6 M 516.1 600.1 C 514.5 604.8, 514.7 606.7, 517.2 608.4 C 520.4 610.7, 523.9 610.4, 524.9 607.8 C 526.1 604.5, 525.1 601.2, 523 601.7 C 522 602, 520.5 601.2, 519.2 599.6 L 517.2 597 516.1 600.1 M 407.1 598.9 C 406.2 599.5, 405.9 600.9, 406.4 603.6 C 406.8 605.8, 407.1 608.2, 407.2 609 C 407.5 610.9, 415.2 610.9, 417.5 609 C 419.5 607.3, 419.4 602.7, 417.3 600.7 C 415.1 598.8, 409 597.7, 407.1 598.9 M 493.7 605.9 C 490.8 609.5, 489.2 615.5, 490.7 617.9 C 491.2 618.8, 494.7 621, 498.3 622.9 L 504.9 626.3 506.9 623.9 C 509.5 620.9, 509.6 613.9, 507.3 609.9 C 505.2 606.3, 504 606.2, 504 609.5 C 504 611.1, 503.4 612, 502.4 612 C 499.9 612, 496.4 608.7, 496.8 606.7 C 497.5 603.1, 496.3 602.8, 493.7 605.9 M 352.1 613.1 C 340.8 615.5, 323 627.9, 323 633.3 C 323 634.4, 321.6 636.5, 319.9 638.1 C 315.6 642.1, 318.3 641.7, 325.5 637.3 C 331.2 633.7, 331.9 633.5, 340 633.5 C 344.7 633.6, 349.7 633.9, 351.2 634.3 C 354.1 635.1, 353.9 636.3, 352.6 623 L 352.2 618.9 355.6 619.6 C 358.2 620.1, 359 619.9, 359 618.8 C 359 617.8, 359.8 617.4, 361.3 617.5 C 362.5 617.6, 362.8 617.5, 362 617.3 C 361.1 617.1, 360 616, 359.5 614.8 C 358.4 612.4, 356.9 612, 352.1 613.1 M 358.2 623.6 C 353.3 627, 357.3 635, 364 635 C 369.2 635, 370.8 634.2, 372.5 630.9 C 374.4 627.3, 374.4 625.5, 372.4 623.6 C 370.3 621.5, 361.2 621.5, 358.2 623.6 M 529.6 622.7 C 528.6 623, 527.2 623.6, 526.6 624.1 C 526 624.7, 524 626.2, 522.1 627.5 C 519.3 629.5, 519 630, 520.6 630.1 C 521.6 630.1, 523.4 630.3, 524.5 630.5 C 525.6 630.7, 531.9 631.4, 538.5 632 C 545.1 632.6, 550.9 633.5, 551.4 634 C 552 634.6, 553.2 635, 554.1 635 C 556.1 635, 567.2 638.4, 572 640.6 C 576.1 642.4, 577.9 643.2, 584.2 645.9 C 586.8 647.1, 589.4 648, 590 648 C 590.5 648, 591.8 648.4, 592.8 648.9 C 597.1 651.2, 625.8 660.6, 636 663 C 645.5 665.4, 651.7 666.9, 657.5 668.5 C 660.8 669.4, 666.6 670.8, 670.4 671.7 L 677.2 673.4 680.4 669.7 C 683.2 666.3, 690.7 662.1, 693.8 662 C 696.1 662, 710.4 654.9, 715.3 651.3 C 721.1 647, 721.2 645.4, 715.8 644 C 713.4 643.4, 709.9 642.5, 708 642 C 701.7 640.2, 681.7 635.9, 670.5 633.9 C 648.1 629.9, 614.5 626.4, 589.5 625.5 C 579.6 625.2, 568.1 624.5, 564 624 C 554.2 622.8, 532 622, 529.6 622.7 M 513.7 633.1 C 512.8 633.6, 512.2 634.5, 512.5 635 C 514 637.5, 558.2 665, 560.6 665 C 560.8 665, 568.5 668.6, 577.7 673.1 C 586.9 677.5, 595.4 681.5, 596.5 682.1 C 601.8 684.5, 618 689, 621.7 689 C 627.2 689, 632 687.3, 630 686 C 627.9 684.7, 629.4 684.8, 632.3 686.1 C 634.2 686.9, 636.6 686.7, 643.6 685 C 654.2 682.3, 656.9 680.6, 651.9 679.5 C 650 679.1, 648.1 678.4, 647.5 678 C 647 677.6, 644.9 676.9, 643 676.5 C 641.1 676.1, 639.1 675.4, 638.5 675 C 638 674.6, 635.9 673.9, 634 673.5 C 632.1 673.1, 629.9 672.4, 629 672 C 628.2 671.6, 625.9 670.5, 624 669.7 C 621.5 668.6, 621.1 668.1, 622.5 668.1 C 623.6 668, 625.8 668.7, 627.4 669.5 C 628.9 670.3, 631 671, 631.9 671 C 632.8 671, 634.7 671.6, 636.1 672.4 C 637.5 673.1, 640 674, 641.6 674.4 C 643.2 674.8, 647.5 676.2, 651.2 677.6 L 658 680.2 663.7 678.3 C 670.8 675.9, 671.4 674.5, 665.8 673.2 C 663.4 672.6, 656.3 670.8, 650 669.2 C 643.7 667.5, 634 665, 628.5 663.6 C 623 662.1, 617.6 660.6, 616.5 660.1 C 615.4 659.6, 611.6 658.2, 608 657 C 604.4 655.8, 600.6 654.4, 599.5 653.9 C 598.4 653.4, 595 652.1, 592 651 C 589 649.9, 585.6 648.6, 584.5 648.1 C 575.8 644.3, 565 640, 564.1 640 C 563.5 640, 562.2 639.6, 561.2 639.1 C 557.9 637.3, 549.2 635, 543.4 634.5 L 537.5 633.9 545.6 636.8 C 556.2 640.7, 572.6 647.8, 577 650.5 C 578.9 651.7, 581.4 653, 582.4 653.4 C 583.5 653.7, 587.5 656.2, 591.4 658.8 C 599 663.8, 598.9 663.7, 603.5 667.6 C 607.4 670.8, 615.4 676.2, 620.5 678.9 C 622.7 680, 623.9 681, 623.2 681 C 621.6 681, 609.2 673.9, 605.3 670.7 C 588.1 656.6, 549.1 638.6, 526 634.1 C 523 633.5, 519.4 632.8, 518 632.5 C 516.6 632.2, 514.7 632.5, 513.7 633.1 M 285.8 657.4 C 277.2 666.2, 268.6 675.5, 266.8 678 C 262.1 684.3, 257 692, 257.5 692 C 257.9 692, 263.9 684.5, 267.8 679.1 C 268.7 677.8, 275.9 670.2, 283.7 662.1 C 291.5 654.1, 298.8 646.2, 300 644.7 C 305.2 638.1, 300.5 642.3, 285.8 657.4 M 621.5 646.7 C 622.6 647, 624 647.6, 624.5 648 C 625.1 648.5, 627.3 649.1, 629.5 649.5 C 631.7 649.9, 634 650.6, 634.5 651 C 635.1 651.4, 637.5 652.2, 640 652.8 C 648.1 654.7, 653.5 656.2, 655.5 657 C 658.6 658.3, 671.2 662, 672.4 662 C 673.4 662, 669.8 660.2, 664.5 658 C 662.6 657.2, 653.9 654.6, 642 651.4 C 639 650.6, 634.3 649.2, 631.6 648.4 C 628.9 647.6, 625.1 646.8, 623.1 646.6 C 621.1 646.4, 620.4 646.5, 621.5 646.7 M 116.5 678.1 C 117.6 678.8, 120.7 679.9, 123.5 680.6 C 126.3 681.3, 131.9 682.7, 136.1 683.8 C 140.2 684.9, 145.8 686.1, 148.6 686.5 C 151.3 686.8, 154.8 687.4, 156.4 687.7 C 158.3 688, 159 687.9, 158.6 687.1 C 158.2 686.5, 157.1 686, 156.1 686 C 155.1 686, 150.1 684.7, 144.9 683 C 136.2 680.3, 128.4 678.6, 118.5 677.4 C 115 676.9, 114.8 677, 116.5 678.1" stroke="none" fill="#1b1f3a" fill-rule="evenodd"/></svg>